<?xml version="1.0" encoding="iso-8859-1"?>
<!-- Generator: Adobe Illustrator 17.0.0, SVG Export Plug-In . SVG Version: 6.00 Build 0)  -->
<!DOCTYPE svg PUBLIC "-//W3C//DTD SVG 1.1//EN" "http://www.w3.org/Graphics/SVG/1.1/DTD/svg11.dtd">
<svg version="1.1" id="Capa_1" xmlns="http://www.w3.org/2000/svg" xmlns:xlink="http://www.w3.org/1999/xlink" x="0px" y="0px"
	 width="64px" height="64px" viewBox="0 0 64 64" style="enable-background:new 0 0 64 64;" xml:space="preserve">
<g>
	<path d="M7.791,56h0.195C8.795,56,9,55.453,9,54.944V54.15l16.503,1.635l0.623,3.792c0.716-0.567,1.157,2.121,1.157,2.121
		c1.65,1.312,4.228-0.01,4.228-0.01s2.459,1.322,4.109,0.01c0,0,0.441-2.688,1.157-2.121l0.623-3.792L54,54.141v0.803
		C54,55.453,53.982,56,54.791,56h0.195C55.795,56,56,55.453,56,54.944v-6.022C56,48.413,55.795,46,54.986,46h-0.195
		c-0.527,0-0.701,1.021-0.76,1.876L47,41.089v-4.683C47,35.63,46.37,32,45.594,32h-0.188C44.63,32,44,35.63,44,36.406v1.787
		l-1-0.965v-3.657c0.243,0.059,0.446,0.12,0.579,0.18l0.297-2.27c0,0-0.381-0.362-0.961-0.918C42.719,29.224,42.202,27,41.594,27
		h-0.188c-0.307,0-0.591,0.571-0.822,1.306c-1.568-1.534-3.165-3.137-3.452-3.576c-0.593-0.906-2.844-8.967-3.268-14.358
		c-0.424-5.391-2.352-9.264-2.352-9.264s-2.05,3.873-2.475,9.264s-2.675,13.452-3.268,14.358c-0.283,0.433-1.834,1.991-3.377,3.502
		C22.166,27.532,21.891,27,21.594,27h-0.188c-0.592,0-1.097,2.105-1.305,3.452c-0.641,0.616-1.075,1.028-1.075,1.028l0.297,2.27
		c0.15-0.068,0.39-0.136,0.677-0.203v3.585l-1,0.965v-1.692C19,35.63,18.37,32,17.594,32h-0.188C16.63,32,16,35.63,16,36.406v4.588
		l-7.098,6.852C8.775,46.997,8.507,46,7.986,46H7.791C6.982,46,7,48.413,7,48.922v6.022C7,55.453,6.982,56,7.791,56z M40,33.075
		v1.257L38.517,32.9C38.517,32.9,39.163,32.968,40,33.075z M23,33.062c0.789-0.1,1.385-0.162,1.385-0.162L23,34.237V33.062z"/>
</g>
</svg>
