<?xml version="1.0" encoding="iso-8859-1"?>
<!-- Generator: Adobe Illustrator 17.0.0, SVG Export Plug-In . SVG Version: 6.00 Build 0)  -->
<!DOCTYPE svg PUBLIC "-//W3C//DTD SVG 1.1//EN" "http://www.w3.org/Graphics/SVG/1.1/DTD/svg11.dtd">
<svg version="1.1" id="Capa_1" xmlns="http://www.w3.org/2000/svg" xmlns:xlink="http://www.w3.org/1999/xlink" x="0px" y="0px"
	 width="64px" height="64px" viewBox="0 0 64 64" style="enable-background:new 0 0 64 64;" xml:space="preserve">
<g>
	<path d="M56.656,45.25l-11.469-8.125l-0.938-3.25L38,32v-5.625l-3.073-8.391c0,0,0.052-9.516-0.948-11.266S32,2.188,32,2.188
		s-1.104,2.781-2.104,4.531S29.01,17.984,29.01,17.984L26,26.375V32l-6.375,1.875l-1,3.25l-11.5,8.125L5.75,51.875l19-5.25
		l0.125,3.5l-7,8l0.5,3l7.125-3.25l0.375-2.375l1.5-0.875L27.188,58.5L30,58.375L31,55l1,0.125L33,55l1,3.375l2.688,0.125
		l-0.312-3.875l1.5,0.875l0.375,2.375l7.125,3.25l0.501-3l-6.998-8l0.129-3.5l19.008,5.25L56.656,45.25z"/>
</g>
</svg>
