<?xml version="1.0" encoding="iso-8859-1"?>
<!-- Generator: Adobe Illustrator 17.0.0, SVG Export Plug-In . SVG Version: 6.00 Build 0)  -->
<!DOCTYPE svg PUBLIC "-//W3C//DTD SVG 1.1//EN" "http://www.w3.org/Graphics/SVG/1.1/DTD/svg11.dtd">
<svg version="1.1" id="Capa_1" xmlns="http://www.w3.org/2000/svg" xmlns:xlink="http://www.w3.org/1999/xlink" x="0px" y="0px"
	 width="64px" height="64px" viewBox="0 0 64 64" style="enable-background:new 0 0 64 64;" xml:space="preserve">
<g>
	<path d="M32,2.25c0,0-2.375,2.188-2.375,10.062s0,6.656-4.812,6.781c0,0-0.312-8.422-2.188-10.609c0,0-1.969-0.168-1.969,10.639
		L3.484,21.621c0,0-4.18,0.939,0.008,4.752s7.941,1.438,17.629,4.626l0.312,6.063l-0.753,0.375c0,0-0.82,4.375,0.555,6.188
		l0.422,0.625l0.781,10.625c0,0-3.125-0.726-3.125,3.312C19.312,62.226,22,61,22,61l10,0.175L41.815,61c0,0,2.595,1.226,2.595-2.812
		c0-4.038-3.171-3.312-3.171-3.312l0.758-10.625l0.41-0.625c1.375-1.812,0.549-6.188,0.549-6.188l-0.756-0.375l0.309-6.063
		c9.688-3.188,13.441-0.813,17.629-4.626s0.008-4.752,0.008-4.752l-17.172-2.498c0-10.806-1.969-10.639-1.969-10.639
		c-1.875,2.188-2.188,10.609-2.188,10.609c-4.812-0.125-4.627,1.094-4.627-6.781S32,2.25,32,2.25z M39.752,31.712L39.597,37
		l-0.984,0.5c-1.375,2.688,0.133,6.25,0.133,6.25l0.785,0.5l0.609,10.688L32,55l-8.32-0.062l0.43-10.688l0.797-0.5
		c0,0,1.531-3.562,0.156-6.25L24.125,37l-0.062-5.288l7.938,2.1L39.752,31.712z"/>
</g>
</svg>
