<?xml version="1.0" encoding="iso-8859-1"?>
<!-- Generator: Adobe Illustrator 17.0.0, SVG Export Plug-In . SVG Version: 6.00 Build 0)  -->
<!DOCTYPE svg PUBLIC "-//W3C//DTD SVG 1.1//EN" "http://www.w3.org/Graphics/SVG/1.1/DTD/svg11.dtd">
<svg version="1.1" id="Capa_1" xmlns="http://www.w3.org/2000/svg" xmlns:xlink="http://www.w3.org/1999/xlink" x="0px" y="0px"
	 width="64px" height="64px" viewBox="0 0 64 64" style="enable-background:new 0 0 64 64;" xml:space="preserve">
<g>
	<path d="M62,38.125l-13-9.022v-1.312c0.591-0.304,1-0.914,1-1.624v-1.333C50,23.821,49.179,23,48.167,23h-0.333
		C46.821,23,46,23.821,46,24.833v1.333c0,0.431,0.155,0.822,0.404,1.135L42,24.246v-1.455c0.591-0.304,1-0.914,1-1.624v-1.333
		C43,18.821,42.179,18,41.167,18h-0.333C39.821,18,39,18.821,39,19.833v1.333c0,0.711,0.409,1.32,1,1.624v0.067l-5-3.47V9
		c0-1.657-1.343-7-3-7s-3,5.343-3,7v10.388l-5,3.47v-0.067c0.591-0.304,1-0.914,1-1.624v-1.333C25,18.821,24.179,18,23.167,18
		h-0.333C21.821,18,21,18.821,21,19.833v1.333c0,0.711,0.409,1.32,1,1.624v1.455l-4.404,3.056C17.845,26.989,18,26.598,18,26.167
		v-1.333C18,23.821,17.179,23,16.167,23h-0.333C14.821,23,14,23.821,14,24.833v1.333c0,0.711,0.409,1.32,1,1.624v1.312L2,38.125V42
		l13.104-4.968L2,46.125V50l27-10.237v10.424l-9,7.656v4.291l9.583-5.371c0.352,0.482,0.844,0.85,1.417,1.053V60
		c0,0.552,0.448,1,1,1s1-0.448,1-1v-2.184c0.573-0.204,1.065-0.571,1.417-1.053L44,62.134v-4.291l-9-7.656V39.763L62,50v-3.875
		l-13.104-9.093L62,42V38.125z"/>
</g>
</svg>
