<?xml version="1.0" encoding="iso-8859-1"?>
<!-- Generator: Adobe Illustrator 17.0.0, SVG Export Plug-In . SVG Version: 6.00 Build 0)  -->
<!DOCTYPE svg PUBLIC "-//W3C//DTD SVG 1.1//EN" "http://www.w3.org/Graphics/SVG/1.1/DTD/svg11.dtd">
<svg version="1.1" id="Capa_1" xmlns="http://www.w3.org/2000/svg" xmlns:xlink="http://www.w3.org/1999/xlink" x="0px" y="0px"
	 width="64px" height="64px" viewBox="0 0 64 64" style="enable-background:new 0 0 64 64;" xml:space="preserve">
<g>
	<path d="M16.604,59.583c0,0,0.229,3.333,7.896,1.75l1.083-2.833c0,0,0.61,1.459,1.417,1.996V62.5c0,0.276,0.224,0.5,0.5,0.5
		s0.5-0.224,0.5-0.5v-1.933c0.278-0.167,0.56-0.506,0.833-1.099L29.5,63h1.917H32h1.917l0.667-3.532
		c0.468,1.014,0.961,1.301,1.417,1.216V62.5c0,0.276,0.224,0.5,0.5,0.5s0.5-0.224,0.5-0.5v-2.562c0.5-0.635,0.833-1.438,0.833-1.438
		l1.083,2.833c7.667,1.583,7.896-1.75,7.896-1.75l-8.312-11L62,46.75L60.75,43c0,0-19.583-6.333-19.583-13.333S37.417,21,37.417,21
		h-3.083c0-16-2.438-19.462-2.438-19.462S29.083,5,29.083,21H26c0,0-3.75,1.667-3.75,8.667S2.667,43,2.667,43l-1.25,3.75l23.5,1.833
		L16.604,59.583z"/>
</g>
</svg>
