<?xml version="1.0" encoding="iso-8859-1"?>
<!-- Generator: Adobe Illustrator 17.0.0, SVG Export Plug-In . SVG Version: 6.00 Build 0)  -->
<!DOCTYPE svg PUBLIC "-//W3C//DTD SVG 1.1//EN" "http://www.w3.org/Graphics/SVG/1.1/DTD/svg11.dtd">
<svg version="1.1" id="Capa_1" xmlns="http://www.w3.org/2000/svg" xmlns:xlink="http://www.w3.org/1999/xlink" x="0px" y="0px"
	 width="64px" height="64px" viewBox="0 0 64 64" style="enable-background:new 0 0 64 64;" xml:space="preserve">
<g>
	<path d="M15.922,34.417L17.879,38h3.925l2.474-3.4l7.764,9.587l7.534-9.587L42.05,38h3.925l1.957-3.583l10.318,7.919l4.852-3.97
		L48,27.229v-2.22C48,24.422,47.37,22,46.594,22h-0.188C45.63,22,45,24.422,45,25.008v0.008l-2-1.475v-1.551
		C43,21.405,42.37,19,41.594,19h-0.188c-0.61,0-1.124,1.473-1.319,2.394l-8.003-5.902L23,22.124v-0.133
		C23,21.405,22.37,19,21.594,19h-0.188C20.63,19,20,21.405,20,21.991v2.324l-2,1.46v-0.766C18,24.422,17.37,22,16.594,22h-0.188
		C15.63,22,15,24.422,15,25.008v2.956L0.752,38.366l4.852,3.97L15.922,34.417z"/>
</g>
</svg>
