<?xml version="1.0" encoding="iso-8859-1"?>
<!-- Generator: Adobe Illustrator 17.0.0, SVG Export Plug-In . SVG Version: 6.00 Build 0)  -->
<!DOCTYPE svg PUBLIC "-//W3C//DTD SVG 1.1//EN" "http://www.w3.org/Graphics/SVG/1.1/DTD/svg11.dtd">
<svg version="1.1" id="Capa_1" xmlns="http://www.w3.org/2000/svg" xmlns:xlink="http://www.w3.org/1999/xlink" x="0px" y="0px"
	 width="64px" height="64px" viewBox="0 0 64 64" style="enable-background:new 0 0 64 64;" xml:space="preserve">
<g>
	<path d="M55.25,41.852c0,0-18.958-11.023-18.958-25.773S34,1.282,34,1.282s-2.188,0.047-2.188,14.797S12.906,41.852,12.906,41.852
		s-3.016,8.762,3.484,8.762L24,41.125V44l3.125,0.186l1.125-3.061c0,0,2.75-0.628,2.75,3.061c0,3.689,1,10.564,1,10.564l-7.75,4.5
		L25.125,62l6.781-2.125c0,0,0.094,3.5,2.094,3.5s2.196-3.5,2.196-3.5L43.079,62l0.872-2.75l-7.756-4.5
		c0,0,0.987-6.875,0.987-10.564c0-3.689,2.724-3.061,2.724-3.061l1.073,3.061L44,44v-2.875l7.687,9.488
		C58.187,50.613,55.25,41.852,55.25,41.852z"/>
</g>
</svg>
