<?xml version="1.0" encoding="iso-8859-1"?>
<!-- Generator: Adobe Illustrator 17.0.0, SVG Export Plug-In . SVG Version: 6.00 Build 0)  -->
<!DOCTYPE svg PUBLIC "-//W3C//DTD SVG 1.1//EN" "http://www.w3.org/Graphics/SVG/1.1/DTD/svg11.dtd">
<svg version="1.1" id="Capa_1" xmlns="http://www.w3.org/2000/svg" xmlns:xlink="http://www.w3.org/1999/xlink" x="0px" y="0px"
	 width="64px" height="64px" viewBox="0 0 64 64" style="enable-background:new 0 0 64 64;" xml:space="preserve">
<g>
	<path d="M62,32.625l-14-8.041V23h1v-3h0.625c0-1-0.951-2.125-2.125-2.125S45.375,19,45.375,20H46v3h1v1.01l-6-3.446V19h1v-3h0.625
		c0-1-0.951-2.125-2.125-2.125S38.375,15,38.375,16H39v3h1v0.989l-3.219-1.849C36.781,3.828,32,1.531,32,1.531
		s-4.781,2.297-4.781,16.609L24,19.989V19h1v-3h0.625c0-1-0.951-2.125-2.125-2.125S21.375,15,21.375,16H22v3h1v1.564l-6,3.446V23h1
		v-3h0.625c0-1-0.951-2.125-2.125-2.125S14.375,19,14.375,20H15v3h1v1.584L2,32.625V34c0,0-0.29,1.625-0.29,2.75l1.352-0.5
		l1.188,0.5L4.5,35.5l6.5-1.58v2.798C11,36.874,11.126,37,11.281,37h0.438C11.874,37,12,36.874,12,36.719v-3.041l5-1.215v2.256
		C17,34.874,17.126,35,17.281,35h0.438C17.874,35,18,34.874,18,34.719v-2.499l5-1.215v1.715C23,32.874,23.126,33,23.281,33h0.438
		C23.874,33,24,32.874,24,32.719v-1.958l2.875-0.699c0,0,0.156,2.094,1.188,3.125c0,0,0.125,4.25,0.125,9.688
		s2.125,10.938,2.125,10.938l-9.438,5.875l-0.062,2.75l10.609-2.625c0,0-0.422,1.812,0.578,2.375c1-0.562,0.433-2.375,0.433-2.375
		l10.465,2.625l-0.062-2.75l-9.437-5.875c0,0,2.126-5.5,2.126-10.938s0.127-9.688,0.127-9.688c1.031-1.031,1.192-3.125,1.192-3.125
		L40,30.829v1.89C40,32.874,40.126,33,40.281,33h0.438C40.874,33,41,32.874,41,32.719v-1.647l5,1.215v2.432
		C46,34.874,46.126,35,46.281,35h0.438C46.874,35,47,34.874,47,34.719V32.53l5,1.215v2.975C52,36.874,52.126,37,52.281,37h0.438
		C52.874,37,53,36.874,53,36.719v-2.732l6.228,1.513l0.268,1.25l1.224-0.5l1.425,0.5C62.145,35.625,62,34,62,34V32.625z"/>
</g>
</svg>
