<?xml version="1.0" encoding="iso-8859-1"?>
<!-- Generator: Adobe Illustrator 17.0.0, SVG Export Plug-In . SVG Version: 6.00 Build 0)  -->
<!DOCTYPE svg PUBLIC "-//W3C//DTD SVG 1.1//EN" "http://www.w3.org/Graphics/SVG/1.1/DTD/svg11.dtd">
<svg version="1.1" id="Capa_1" xmlns="http://www.w3.org/2000/svg" xmlns:xlink="http://www.w3.org/1999/xlink" x="0px" y="0px"
	 width="64px" height="64px" viewBox="0 0 64 64" style="enable-background:new 0 0 64 64;" xml:space="preserve">
<g>
	<path d="M27,51.875l-6.969,6.094l0.59,2.894l7.191,0.012l1-0.75C29.25,61.688,30,62,30,62h2h2c0,0,0.75-0.312,1.188-1.875l1,0.75
		l7.191-0.012l0.59-2.894L37,51.875V49h14v-3c0,0-0.38-0.338-1-0.893V43l-0.562-1.25c0,0-0.438-4.875-0.438-6.688
		c0,1.812-0.438,6.688-0.438,6.688L48,43v0.306c-3.679-3.329-9.473-8.664-9.812-9.556c0,0-0.062-7.938-3.625-11.938
		c0,0,0.438-17.562-2.562-20.625c-3.125,3.062-2.562,20.625-2.562,20.625c-3.562,4-3.625,11.938-3.625,11.938
		c-0.34,0.892-6.134,6.228-9.812,9.556V43l-0.562-1.25c0,0-0.438-4.875-0.438-6.688c0,1.812-0.438,6.688-0.438,6.688L14,43v2.107
		C13.38,45.663,13,46,13,46v3h14V51.875z"/>
</g>
</svg>
