<?xml version="1.0" encoding="iso-8859-1"?>
<!-- Generator: Adobe Illustrator 17.0.0, SVG Export Plug-In . SVG Version: 6.00 Build 0)  -->
<!DOCTYPE svg PUBLIC "-//W3C//DTD SVG 1.1//EN" "http://www.w3.org/Graphics/SVG/1.1/DTD/svg11.dtd">
<svg version="1.1" id="Capa_1" xmlns="http://www.w3.org/2000/svg" xmlns:xlink="http://www.w3.org/1999/xlink" x="0px" y="0px"
	 width="64px" height="64px" viewBox="0 0 64 64" style="enable-background:new 0 0 64 64;" xml:space="preserve">
<g>
	<path d="M26,38.833V48l2.333,1.167C28.333,49.167,31,42,31,52H20v-3.146C20,48.382,19.618,48,19.146,48h-0.292
		C18.382,48,18,48.382,18,48.854v6.292c0,0.406,0.29,0.73,0.67,0.817L18.667,56h0.188h0.292H31v2.146C31,58.618,31.382,59,31.854,59
		h0.292C32.618,59,33,58.618,33,58.146V56h11.854h0.292h0.287l-0.005-0.057C45.759,55.826,46,55.518,46,55.146v-6.292
		C46,48.382,45.618,48,45.146,48h-0.292C44.382,48,44,48.382,44,48.854V52H33.099c0-10,2.617-2.833,2.617-2.833L38,48v-9.167
		c1-1.792,25.208,0,23.958-5.333C60.708,28.167,35,29,35,29s0-12.083,0-17.583c0-4.75-2-5.52-3-5.643V5.75
		c0,0,0.046,0.003-0.001,0.01C31.953,5.753,32,5.75,32,5.75v0.023c-1,0.121-3,0.888-3,5.643C29,16.917,29,29,29,29
		S3.292,28.167,2.042,33.5C0.792,38.833,25,37.042,26,38.833z"/>
</g>
</svg>
