<?xml version="1.0" encoding="iso-8859-1"?>
<!-- Generator: Adobe Illustrator 17.0.0, SVG Export Plug-In . SVG Version: 6.00 Build 0)  -->
<!DOCTYPE svg PUBLIC "-//W3C//DTD SVG 1.1//EN" "http://www.w3.org/Graphics/SVG/1.1/DTD/svg11.dtd">
<svg version="1.1" id="Capa_1" xmlns="http://www.w3.org/2000/svg" xmlns:xlink="http://www.w3.org/1999/xlink" x="0px" y="0px"
	 width="64px" height="64px" viewBox="0 0 64 64" style="enable-background:new 0 0 64 64;" xml:space="preserve">
<g>
	<path d="M21,28.25V32L10.75,50c0,0,2.75,4.333,7.917,0H25l-0.083,3L18,58.417l3.5,3.25c0,0,3.25,0.917,4.5-3.083l4.333,0.167
		c0,0,0.078-1.651,0.563-1.873c0.484,0.222,0.562,1.873,0.562,1.873l4.333-0.167c1.25,4,4.5,3.083,4.5,3.083l3.5-3.25L36.875,53
		l-0.083-3h6.333c5.167,4,8.021,0,8.021,0L41,32v-3.75c-5-2.333-3.354-6.333-3.354-6.333L36.792,18h-3.25
		C33.542,7.6,32,4.043,31,3.035V2.688c0,0,0.091,0.046,0,0.156c-0.091-0.11,0-0.156,0-0.156v0.347C30,4.043,28.25,7.6,28.25,18H25
		l-0.75,3.917C24.25,21.917,26,25.917,21,28.25z"/>
</g>
</svg>
