<?xml version="1.0" encoding="iso-8859-1"?>
<!-- Generator: Adobe Illustrator 17.0.0, SVG Export Plug-In . SVG Version: 6.00 Build 0)  -->
<!DOCTYPE svg PUBLIC "-//W3C//DTD SVG 1.1//EN" "http://www.w3.org/Graphics/SVG/1.1/DTD/svg11.dtd">
<svg version="1.1" id="Capa_1" xmlns="http://www.w3.org/2000/svg" xmlns:xlink="http://www.w3.org/1999/xlink" x="0px" y="0px"
	 width="64px" height="64px" viewBox="0 0 64 64" style="enable-background:new 0 0 64 64;" xml:space="preserve">
<g>
	<path d="M38,27c0,0-3-9.083-3-14.583c0-3.328-1.117-4.332-2-4.61c-0.219-0.069-0.435-0.094-0.616-0.099
		C32.557,7.711,32.769,7.734,33,7.807V4c0-0.552-0.448-1-1-1s-1,0.448-1,1v3.818c-0.892,0.292-2,1.311-2,4.599
		C29,17.917,26,27,26,27S3.292,29.167,2.042,34.5C0.792,39.833,25,38.042,26,39.833V49l2.333,1.167C28.333,50.167,31,43,31,53H19
		l-0.333,6L31,57.164v1.982C31,59.618,31.382,60,31.854,60h0.292C32.618,60,33,59.618,33,59.146v-2.011L45.432,59l-0.333-6h-12
		c0-10,2.617-2.833,2.617-2.833L38,49v-9.167c1-1.792,25.208,0,23.958-5.333C60.708,29.167,38,27,38,27z M31.963,9.992
		C31.979,9.987,32,9.982,32,9.979c0.063-0.003,0.111-0.012,0.167-0.018c-0.022,0.004-0.04,0.016-0.063,0.018
		C32.068,9.983,32.037,10,32,10C31.987,10,31.975,9.995,31.963,9.992z"/>
	<path d="M29,7c0.552,0,1-0.448,1-1c0-0.552-0.448-1-1-1h-5c-0.552,0-1,0.448-1,1c0,0.552,0.448,1,1,1H29z"/>
	<path d="M35,7h5c0.552,0,1-0.448,1-1c0-0.552-0.448-1-1-1h-5c-0.552,0-1,0.448-1,1C34,6.552,34.448,7,35,7z"/>
</g>
</svg>
