<?xml version="1.0" encoding="iso-8859-1"?>
<!-- Generator: Adobe Illustrator 17.0.0, SVG Export Plug-In . SVG Version: 6.00 Build 0)  -->
<!DOCTYPE svg PUBLIC "-//W3C//DTD SVG 1.1//EN" "http://www.w3.org/Graphics/SVG/1.1/DTD/svg11.dtd">
<svg version="1.1" id="Capa_1" xmlns="http://www.w3.org/2000/svg" xmlns:xlink="http://www.w3.org/1999/xlink" x="0px" y="0px"
	 width="64px" height="64px" viewBox="0 0 64 64" style="enable-background:new 0 0 64 64;" xml:space="preserve">
<g>
	<path d="M30,44c0,4.267,0.005,6.939,0.013,8.55L21,59v4c0,0,8.333-1.917,9.5-3.417s0.083,2.75,1.5,2.75s0.333-4.25,1.5-2.75
		S43,63,43,63v-4l-9.013-6.45C33.995,50.939,34,48.267,34,44c0-17.25,28,0,28,0v-4.833l-7-5.178V30c0-0.552-0.81-1-1.5-1
		S52,29.448,52,30v1.769l-5.208-3.853c0-10.833-1.708-9.75-1.708-9.75s-1.333,0.917-1.5,6.083c-0.1,3.105-3.18,0.943-5.622-1.277
		l-1.371-6.348L35,15.765c0-2.162,0-4.94,0-7.848c0-6.333-3.042-7.127-3.042-7.127S29,1.583,29,7.917c0,2.87,0,5.613,0,7.762
		l-1.75,0.871L25.841,23h0.001c0.201-0.118,0.398-0.252,0.591-0.393c-0.192,0.18-0.389,0.361-0.591,0.542
		c-2.408,2.154-5.328,4.124-5.426,1.101c-0.167-5.167-1.5-6.083-1.5-6.083s-1.708-1.083-1.708,9.75L12,31.769V30
		c0-0.552-0.81-1-1.5-1S9,29.448,9,30v3.989l-7,5.178V44C2,44,30,26.75,30,44z"/>
</g>
</svg>
