<?xml version="1.0" encoding="iso-8859-1"?>
<!-- Generator: Adobe Illustrator 17.0.0, SVG Export Plug-In . SVG Version: 6.00 Build 0)  -->
<!DOCTYPE svg PUBLIC "-//W3C//DTD SVG 1.1//EN" "http://www.w3.org/Graphics/SVG/1.1/DTD/svg11.dtd">
<svg version="1.1" id="Capa_1" xmlns="http://www.w3.org/2000/svg" xmlns:xlink="http://www.w3.org/1999/xlink" x="0px" y="0px"
	 width="64px" height="64px" viewBox="0 0 64 64" style="enable-background:new 0 0 64 64;" xml:space="preserve">
<g>
	<path d="M35.167,18C35.167,1,31,1.5,31,1.5S27.25,1,27.25,18H25v12c0,0-0.917,3.25-1.583,4.083c0,0-0.333-7.5-2.167-7.5
		c0,0-1.417-1.25-1.417,11.25L9.417,49.417L12.5,52.75L26.083,42l0.583,9l-9,9.167l3.5,1.917l6.583-3.417c0,0,0.25,3.417,3.25,3.417
		s3.458-3.417,3.458-3.417l6.791,3.417l3.499-1.917L35.747,51l0.58-9l13.577,10.75l3.07-3.333L42.531,37.833
		c0-12.5-1.469-11.25-1.469-11.25c-1.833,0-2.271,7.5-2.271,7.5C38.125,33.25,37,30,37,30V18H35.167z"/>
</g>
</svg>
