<?xml version="1.0" encoding="iso-8859-1"?>
<!-- Generator: Adobe Illustrator 17.0.0, SVG Export Plug-In . SVG Version: 6.00 Build 0)  -->
<!DOCTYPE svg PUBLIC "-//W3C//DTD SVG 1.1//EN" "http://www.w3.org/Graphics/SVG/1.1/DTD/svg11.dtd">
<svg version="1.1" id="Capa_1" xmlns="http://www.w3.org/2000/svg" xmlns:xlink="http://www.w3.org/1999/xlink" x="0px" y="0px"
	 width="64px" height="64px" viewBox="0 0 64 64" style="enable-background:new 0 0 64 64;" xml:space="preserve">
<g>
	<path d="M55,29v-3.597v-1.885V21h-2v2.439l-5-0.196v-4.454C48,17.801,47.199,17,46.211,17h-0.422C44.801,17,44,17.801,44,18.789
		v4.297l-3.795-0.149c0.408-0.595,0.649-1.313,0.649-2.089c0-1.119-0.507-2.11-1.292-2.788L53.274,4.347l-2.121-2.121L38.635,14.743
		l-0.228-3.011l0.031-0.9c0-0.542-0.099-1.046-0.28-1.51c-0.482-1.745-2.319-3.75-3.994-4.726L33.856,1h-4.712l-0.309,3.607
		c-1.309,0.769-2.715,2.163-3.494,3.567c-0.609,0.733-0.967,1.627-0.967,2.658l0.088,2.558l-0.189,2.262L10.847,2.226L8.726,4.347
		l13.738,13.738c-0.767,0.678-1.261,1.658-1.261,2.762c0,0.79,0.252,1.518,0.673,2.119L19,23.09v-4.3C19,17.801,18.199,17,17.211,17
		h-0.422C15.801,17,15,17.801,15,18.789v4.472l-5,0.214V21H8v8h2v-3.554l5,0.214v4.551C15,31.199,15.801,32,16.789,32h0.422
		C18.199,32,19,31.199,19,30.211v-4.379l5.9,0.253l0.08,2.315L8.726,44.653l2.121,2.121l14.273-14.273l0.335,9.728
		c0,2.524,1.328,4.928,3.934,5.588L29.783,58h3.246l0.393-10.184c2.606-0.66,3.934-3.064,3.934-5.588l0.308-8.942l13.488,13.488
		l2.121-2.121L37.806,29.185l0.107-3.111L44,25.835v4.376C44,31.199,44.801,32,45.789,32h0.422C47.199,32,48,31.199,48,30.211
		v-4.533l5-0.196V29H55z"/>
	<rect x="34" y="53" width="3" height="10"/>
</g>
</svg>
