<?xml version="1.0" encoding="iso-8859-1"?>
<!-- Generator: Adobe Illustrator 17.0.0, SVG Export Plug-In . SVG Version: 6.00 Build 0)  -->
<!DOCTYPE svg PUBLIC "-//W3C//DTD SVG 1.1//EN" "http://www.w3.org/Graphics/SVG/1.1/DTD/svg11.dtd">
<svg version="1.1" id="Capa_1" xmlns="http://www.w3.org/2000/svg" xmlns:xlink="http://www.w3.org/1999/xlink" x="0px" y="0px"
	 width="64px" height="64px" viewBox="0 0 64 64" style="enable-background:new 0 0 64 64;" xml:space="preserve">
<g>
	<path d="M25.293,48.015L19,52.361v4.985c0,0,7.011,3.068,8.865,6.071l0.822-0.575l0.89-11.567l0.781,2.173L32,53.511l1.643-0.064
		l0.781-2.173l0.89,11.567l0.822,0.575C37.989,60.413,45,57.346,45,57.346v-4.985l-6.293-4.346l0.162-0.831
		C45.962,46.865,52,44.309,52,44.309v-6.327c0,0-2.301-1.189-5-2.899v-0.677C47,33.63,46.37,30,45.594,30h-0.188
		c-0.551,0-1.026,1.821-1.257,3.159c-0.391-0.283-0.775-0.571-1.15-0.864v-2.889C43,28.63,42.37,25,41.594,25h-0.188
		C40.63,25,40,28.63,40,29.406v0.127c-0.899-1.044-1.471-2.065-1.471-2.982c0-4.473-0.626-10.281-1.073-10.089
		c-0.447,0.192-1.318,1.805-1.318,1.805s-1.614,0.479-1.614-6.934S32,0.917,32,0.917s-2.524,3.004-2.524,10.417
		s-1.614,6.934-1.614,6.934s-0.871-1.614-1.318-1.805c-0.447-0.192-1.073,5.616-1.073,10.089c0,1.222-1.009,2.63-2.471,4.031v-1.175
		C23,28.63,22.37,25,21.594,25h-0.188C20.63,25,20,28.63,20,29.406v3.646c-0.347,0.254-0.7,0.502-1.053,0.745
		C18.782,32.505,18.24,30,17.594,30h-0.188C16.63,30,16,33.63,16,34.406v1.298c-2.243,1.369-4,2.277-4,2.277v6.327
		c0,0,6.038,2.556,13.131,2.876L25.293,48.015z"/>
</g>
</svg>
