<?xml version="1.0" encoding="iso-8859-1"?>
<!-- Generator: Adobe Illustrator 17.0.0, SVG Export Plug-In . SVG Version: 6.00 Build 0)  -->
<!DOCTYPE svg PUBLIC "-//W3C//DTD SVG 1.1//EN" "http://www.w3.org/Graphics/SVG/1.1/DTD/svg11.dtd">
<svg version="1.1" id="Capa_1" xmlns="http://www.w3.org/2000/svg" xmlns:xlink="http://www.w3.org/1999/xlink" x="0px" y="0px"
	 width="64px" height="64px" viewBox="0 0 64 64" style="enable-background:new 0 0 64 64;" xml:space="preserve">
<g>
	<path d="M8.5,52h19.333l-6.417,2.083L23,56h5v3.75c2,2.167,4-0.042,4-0.042s2,2.208,4,0.042V56h5l1.583-1.917L36.167,52H55.5H56
		l-0.046-0.294C55.982,51.643,56,51.574,56,51.5v-7c0-0.276-0.221-0.5-0.5-0.5S55,44.224,55,44.5v3.85
		c-1.597-1.548-6.631-6.451-7.75-7.85c-1.333-1.667-6.167-12.417-6.167-12.417l0.083-2.333l-5.083-3.667L36,19.5l4,1.25V18
		l-5.375-5.417c0,0,0.375-8.083-2.625-10.833c-3,2.75-2.625,10.833-2.625,10.833L24,18v2.75l4-1.25l-0.083,2.583l-5.083,3.667
		l0.083,2.333c0,0-4.833,10.75-6.167,12.417c-1.119,1.398-6.153,6.302-7.75,7.85V44.5C9,44.224,8.779,44,8.5,44S8,44.224,8,44.5v7
		c0,0.074,0.018,0.143,0.046,0.206L8,52H8.5z"/>
</g>
</svg>
