<?xml version="1.0" encoding="iso-8859-1"?>
<!-- Generator: Adobe Illustrator 17.0.0, SVG Export Plug-In . SVG Version: 6.00 Build 0)  -->
<!DOCTYPE svg PUBLIC "-//W3C//DTD SVG 1.1//EN" "http://www.w3.org/Graphics/SVG/1.1/DTD/svg11.dtd">
<svg version="1.1" id="Capa_1" xmlns="http://www.w3.org/2000/svg" xmlns:xlink="http://www.w3.org/1999/xlink" x="0px" y="0px"
	 width="64px" height="64px" viewBox="0 0 64 64" style="enable-background:new 0 0 64 64;" xml:space="preserve">
<g>
	<path d="M45.945,25.124c0,0-1.151-1.246-0.938-2.409c0,0,1.301-3.714-0.831-8.714h-2.964c0,0-1.237,2.705-1.002,5.256
		c0.234,2.551-2.441,0.669-6.769-2.453c0,0,0.559-15.389-2.441-15.389c-2,0-1.609,15.389-1.609,15.389
		c-4.328,3.122-6.172,5.003-5.937,2.453C23.688,16.705,22.451,14,22.451,14h-2.964c-2.132,5-0.832,8.714-0.832,8.714
		c0.213,1.163-0.938,2.409-0.938,2.409L1.429,36.428c0,0-1.962,7.264,0.98,5.591c2.942-1.673,16.586-8.162,16.586-8.162
		c0,4.081,0.68,6.366,0.68,6.366l2.171,0.041c1.237-2.081,1.101-8.162,1.101-8.162c3.198-1.51,6.977-2.244,6.977-2.244
		c0,15.752,0.48,21.915,0.48,21.915l-9.102,8.081c-1.194,3.836,0.557,2.947,0.557,2.947l8.277-4.902C30.137,63.203,31,62.8,31,62.8
		s1.695,0.403,1.695-4.902l8.693,4.902c0,0,1.959,0.889,0.765-2.947l-8.998-8.081c0,0,0.532-6.162,0.532-21.915
		c0,0,3.805,0.734,7.003,2.244c0,0-0.123,6.08,1.114,8.162l2.177-0.041c0,0,0.684-2.285,0.684-6.366c0,0,13.645,6.489,16.588,8.162
		c2.942,1.673,0.981-5.591,0.981-5.591L45.945,25.124z"/>
</g>
</svg>
