<?xml version="1.0" encoding="iso-8859-1"?>
<!-- Generator: Adobe Illustrator 17.0.0, SVG Export Plug-In . SVG Version: 6.00 Build 0)  -->
<!DOCTYPE svg PUBLIC "-//W3C//DTD SVG 1.1//EN" "http://www.w3.org/Graphics/SVG/1.1/DTD/svg11.dtd">
<svg version="1.1" id="Capa_1" xmlns="http://www.w3.org/2000/svg" xmlns:xlink="http://www.w3.org/1999/xlink" x="0px" y="0px"
	 width="64px" height="64px" viewBox="0 0 64 64" style="enable-background:new 0 0 64 64;" xml:space="preserve">
<g>
	<path d="M57.443,40.417c-1.256-1.091-3.338-3.562-5.759-6.662l-2.1-8.338l-3.917-6.083l-0.143,6.233
		C40.248,18.361,35.148,11.013,34,9.354V8c0-1.657-1.343-6-3-6s-3,4.343-3,6v1.06c-0.476,0.69-6.076,8.795-11.853,16.679L16,19.333
		l-3.917,6.083l-2.162,8.582c-2.338,2.983-4.345,5.356-5.567,6.418C-0.729,44.833,8.26,55,8.26,55l17.495-5.5l-1.669,2.833
		l3.939,0.915c0.019,0.226,0.061,0.443,0.127,0.651L20.584,60L25,59.333l3.792-1.417c0,0,0.208,2.167,2.208,2.167
		s2.107-2.167,2.107-2.167l3.69,1.417L41.213,60l-7.406-5.97c0.096-0.262,0.154-0.54,0.173-0.831l3.731-0.866L36.042,49.5L53.537,55
		C53.537,55,62.526,44.833,57.443,40.417z"/>
</g>
</svg>
