<?xml version="1.0" encoding="iso-8859-1"?>
<!-- Generator: Adobe Illustrator 17.0.0, SVG Export Plug-In . SVG Version: 6.00 Build 0)  -->
<!DOCTYPE svg PUBLIC "-//W3C//DTD SVG 1.1//EN" "http://www.w3.org/Graphics/SVG/1.1/DTD/svg11.dtd">
<svg version="1.1" id="Capa_1" xmlns="http://www.w3.org/2000/svg" xmlns:xlink="http://www.w3.org/1999/xlink" x="0px" y="0px"
	 width="64px" height="64px" viewBox="0 0 64 64" style="enable-background:new 0 0 64 64;" xml:space="preserve">
<g>
	<path d="M27,61c1.657,0,3-1.343,3-3h4c0,1.657,1.343,3,3,3s3-1.343,3-3v-1.824c0.635-1.016,1-2.374,1-3.871V48.74l12.332,0.113
		c0.372,0.003,0.679-0.6,0.686-1.348c0.007-0.748-0.289-1.357-0.661-1.36L41,46.032v-3.218c0-2.163-0.755-4.101-2-5.1V23.552
		l9.218,8.975c0.324,0.315,1.009,0.137,1.531-0.399c0.522-0.536,0.682-1.226,0.358-1.541L39.746,20.498
		c0.38-1.006,0.609-2.017,0.609-2.837l-0.322-4.375l12.347-8.686c0.37-0.26,0.321-0.967-0.109-1.578
		c-0.43-0.612-1.079-0.896-1.449-0.636l-11.021,7.752l-0.101-1.367c0-2.661-4.074-6.772-6.24-6.772H31.56
		c-2.166,0-6.24,4.111-6.24,6.772l-0.314,3.882L8.067,10.63c-0.449-0.054-0.885,0.505-0.973,1.247
		c-0.089,0.742,0.203,1.388,0.652,1.441l17.042,2.036l-0.122,1.504c0,1.256,0.54,3.135,1.334,4.774v15.532
		c-1.578,0.534-2.665,2.347-2.933,4.565l-11.009-4.578c-0.669-0.29-1.452,0.031-1.75,0.717s0.003,1.477,0.671,1.767L23,44.634v5.425
		l-10.553,8.526c-0.616,0.39-0.791,1.218-0.391,1.85c0.4,0.632,1.223,0.828,1.839,0.439l9.179-7.416
		c0.136,1.039,0.458,1.971,0.926,2.719V58C24,59.657,25.343,61,27,61z"/>
</g>
</svg>
