<?xml version="1.0" encoding="iso-8859-1"?>
<!-- Generator: Adobe Illustrator 17.0.0, SVG Export Plug-In . SVG Version: 6.00 Build 0)  -->
<!DOCTYPE svg PUBLIC "-//W3C//DTD SVG 1.1//EN" "http://www.w3.org/Graphics/SVG/1.1/DTD/svg11.dtd">
<svg version="1.1" id="Capa_1" xmlns="http://www.w3.org/2000/svg" xmlns:xlink="http://www.w3.org/1999/xlink" x="0px" y="0px"
	 width="64px" height="64px" viewBox="0 0 64 64" style="enable-background:new 0 0 64 64;" xml:space="preserve">
<g>
	<path d="M60.99,33.178L44,26.444V11V7c0-0.553-0.448-1-1-1s-1,0.447-1,1v4h-1.473C39.378,5.202,35.996,1,32,1
		s-7.378,4.202-8.527,10H21V7c0-0.553-0.448-1-1-1s-1,0.447-1,1v4v5.536L5.115,11.033c-0.89-0.353-1.859-0.014-2.164,0.756
		s0.169,1.68,1.059,2.033L19,19.763V30v3c0,0.553,0.448,1,1,1s1-0.447,1-1v-3h6.127C28.1,33.215,29,37.413,29,42v10h1v5.035
		c0,1.03,0.895,1.865,2,1.865s2-0.835,2-1.865V52h1V42c0-4.537,0.89-8.745,1.861-12H42v3c0,0.553,0.448,1,1,1s1-0.447,1-1v-3v-0.329
		l15.885,6.296c0.89,0.353,1.859,0.015,2.164-0.756S61.88,33.531,60.99,33.178z M42,13v12.652l-3.074-1.219
		c1.263-2.474,2.022-5.636,2.022-9.083c0-0.802-0.051-1.584-0.13-2.35H42z M21,13h2.182c-0.079,0.766-0.13,1.548-0.13,2.35
		c0,0.98,0.062,1.937,0.179,2.862L21,17.328V13z M21,28v-7.444l2.998,1.188c0.226,0.725,0.488,1.413,0.784,2.062l-0.055-0.019
		c0,0,0.825,1.587,1.75,4.213H21z M37.503,28c0.096-0.278,0.189-0.536,0.283-0.792L39.783,28H37.503z"/>
	<path d="M36,53c-0.552,0-1,0.448-1,1v7c0,0.552,0.448,1,1,1s1-0.448,1-1v-7C37,53.448,36.552,53,36,53z"/>
</g>
</svg>
