<?xml version="1.0" encoding="iso-8859-1"?>
<!-- Generator: Adobe Illustrator 17.0.0, SVG Export Plug-In . SVG Version: 6.00 Build 0)  -->
<!DOCTYPE svg PUBLIC "-//W3C//DTD SVG 1.1//EN" "http://www.w3.org/Graphics/SVG/1.1/DTD/svg11.dtd">
<svg version="1.1" id="Capa_1" xmlns="http://www.w3.org/2000/svg" xmlns:xlink="http://www.w3.org/1999/xlink" x="0px" y="0px"
	 width="64px" height="64px" viewBox="0 0 64 64" style="enable-background:new 0 0 64 64;" xml:space="preserve">
<g>
	<path d="M29.25,51h-0.5C28.336,51,28,51.336,28,51.75v10.5c0,0.414,0.336,0.75,0.75,0.75h0.5c0.414,0,0.75-0.336,0.75-0.75v-10.5
		C30,51.336,29.664,51,29.25,51z"/>
	<path d="M53.536,1.464c-0.586-0.586-1.574-0.547-2.208,0.087L36.046,16.832C35.201-0.186,32,2.25,32,2.25
		s-3.099-2.719-4.003,13.625L13.672,1.55c-0.634-0.634-1.622-0.673-2.208-0.087c-0.586,0.586-0.547,1.574,0.087,2.208l16.281,16.281
		c-0.044,1.582-0.07,3.302-0.077,5.172L26.879,26H25v1.879l-13.45,13.45c-0.634,0.634-0.673,1.622-0.087,2.208
		c0.586,0.586,1.574,0.547,2.208-0.087L25,32.121V34h3c0,0,1.219,6.75,1.969,8.375S30,59,32,59c0.371,0,0.648-0.517,0.858-1.368
		L39,55v-1h-5.664c0.329-4.522,0.233-10.622,0.696-11.625C34.781,40.75,36,34,36,34h3v-2.879L51.328,43.45
		c0.634,0.634,1.622,0.673,2.208,0.087c0.586-0.586,0.547-1.574-0.087-2.208L39,26.879V26h-0.879l-1.881-1.881
		c-0.009-1.117-0.025-2.183-0.048-3.191L53.45,3.672C54.083,3.038,54.122,2.049,53.536,1.464z"/>
</g>
</svg>
