<?xml version="1.0" encoding="iso-8859-1"?>
<!-- Generator: Adobe Illustrator 17.0.0, SVG Export Plug-In . SVG Version: 6.00 Build 0)  -->
<!DOCTYPE svg PUBLIC "-//W3C//DTD SVG 1.1//EN" "http://www.w3.org/Graphics/SVG/1.1/DTD/svg11.dtd">
<svg version="1.1" id="Capa_1" xmlns="http://www.w3.org/2000/svg" xmlns:xlink="http://www.w3.org/1999/xlink" x="0px" y="0px"
	 width="64px" height="64px" viewBox="0 0 64 64" style="enable-background:new 0 0 64 64;" xml:space="preserve">
<g>
	<path d="M40,17.883V14v-2c0-0.276-0.224-0.5-0.5-0.5S39,11.724,39,12v2h-1.606l-0.082-6.25c0-2.14-2.105-3.75-4.702-3.75h-0.409
		C29.605,4,27.5,5.61,27.5,7.75L27.418,14H26v-2c0-0.276-0.224-0.5-0.5-0.5S25,11.724,25,12v2v8.006L1.838,28.373l0.795,2.893
		L25,25.117V26c0,0.276,0.224,0.5,0.5,0.5S26,26.276,26,26v-1.158l1.28-0.352l-0.003,0.239l1.859,6.146
		c0,1.748,0.335,3.373,1.865,3.917V44h-5v3h5v10.219C31,57.65,31.488,58,32.091,58h0.611C32.8,58,32.9,57.988,33,57.97v4.217
		C33,62.636,33.364,63,33.812,63h0.375C34.636,63,35,62.636,35,62.188v-7.375C35,54.364,34.636,54,34.188,54H34v-7h4v-3h-4v-9.276
		c1.373-0.607,1.677-2.173,1.677-3.849l1.857-6.122L37.525,24H39v2c0,0.276,0.224,0.5,0.5,0.5S40,26.276,40,26v-2v-3.006
		l23.162-6.367l-0.795-2.893L40,17.883z M39,15v3.158l-1.546,0.425L37.407,15H39z M26,15h1.405l-0.084,6.368L26,21.731V15z M39,23
		h-1.489l-0.017-1.317L39,21.269V23z"/>
</g>
</svg>
