<?xml version="1.0" encoding="iso-8859-1"?>
<!-- Generator: Adobe Illustrator 17.0.0, SVG Export Plug-In . SVG Version: 6.00 Build 0)  -->
<!DOCTYPE svg PUBLIC "-//W3C//DTD SVG 1.1//EN" "http://www.w3.org/Graphics/SVG/1.1/DTD/svg11.dtd">
<svg version="1.1" id="Capa_1" xmlns="http://www.w3.org/2000/svg" xmlns:xlink="http://www.w3.org/1999/xlink" x="0px" y="0px"
	 width="64px" height="64px" viewBox="0 0 64 64" style="enable-background:new 0 0 64 64;" xml:space="preserve">
<g>
	<path d="M52.536,2.464c-0.586-0.586-1.574-0.547-2.208,0.087L40.479,12.4C39.29,6.3,35.947,1.899,32,1.899
		c-4.128,0-7.594,4.815-8.626,11.353L12.672,2.55c-0.634-0.634-1.622-0.673-2.208-0.087C9.878,3.049,9.917,4.038,10.55,4.672
		l12.505,12.505c0,0.038-0.003,0.076-0.003,0.114c0,3.942,0.869,7.527,2.286,10.25L10.55,42.328
		c-0.634,0.634-0.673,1.622-0.087,2.208c0.586,0.586,1.574,0.547,2.208-0.087l14.36-14.36c0.607,0.698,1.269,1.259,1.968,1.687
		v19.957l-9,6.071v3.403L29.466,57h5.069L44,61.208v-3.403l-9-6.071V31.777c0.517-0.317,1.012-0.709,1.479-1.176L50.328,44.45
		c0.634,0.634,1.622,0.673,2.208,0.087c0.586-0.586,0.547-1.574-0.087-2.208L38.315,28.194c1.626-2.787,2.633-6.642,2.633-10.903
		c0-0.367-0.017-0.726-0.032-1.086L52.45,4.672C53.083,4.038,53.122,3.049,52.536,2.464z"/>
</g>
</svg>
