<?xml version="1.0" encoding="iso-8859-1"?>
<!-- Generator: Adobe Illustrator 17.0.0, SVG Export Plug-In . SVG Version: 6.00 Build 0)  -->
<!DOCTYPE svg PUBLIC "-//W3C//DTD SVG 1.1//EN" "http://www.w3.org/Graphics/SVG/1.1/DTD/svg11.dtd">
<svg version="1.1" id="Capa_1" xmlns="http://www.w3.org/2000/svg" xmlns:xlink="http://www.w3.org/1999/xlink" x="0px" y="0px"
	 width="64px" height="64px" viewBox="0 0 64 64" style="enable-background:new 0 0 64 64;" xml:space="preserve">
<g>
	<path d="M10.764,55.406l15.828,1.129l0.926,5.964c0,0,3.062,0.359,3.592-0.624c0.529-0.983,1.89-0.794,1.89-0.794
		s1.361-0.189,1.89,0.794c0.529,0.983,3.592,0.624,3.592,0.624l0.926-5.964l15.828-1.129c0,0-0.236,1.668,1.764,1.895V44.674
		c0,0-0.28-1.134-1.868-0.907l-0.783,3.042L40.259,28h4.537l0.071-2.475l-7.708-8.534c0,0-1.281-1.772-1.508-5.855
		C35.424,7.053,33,0.82,33,0.82s-2.424,6.233-2.651,10.316c-0.227,4.083-1.508,5.855-1.508,5.855l-7.708,8.534L21.205,28h4.537
		l-14.09,18.809l-0.783-3.042C9.28,43.54,9,44.674,9,44.674v12.627C11,57.074,10.764,55.406,10.764,55.406z"/>
</g>
</svg>
