<?xml version="1.0" encoding="iso-8859-1"?>
<!-- Generator: Adobe Illustrator 17.0.0, SVG Export Plug-In . SVG Version: 6.00 Build 0)  -->
<!DOCTYPE svg PUBLIC "-//W3C//DTD SVG 1.1//EN" "http://www.w3.org/Graphics/SVG/1.1/DTD/svg11.dtd">
<svg version="1.1" id="Capa_1" xmlns="http://www.w3.org/2000/svg" xmlns:xlink="http://www.w3.org/1999/xlink" x="0px" y="0px"
	 width="64px" height="64px" viewBox="0 0 64 64" style="enable-background:new 0 0 64 64;" xml:space="preserve">
<g>
	<path d="M15,40.509C15,41.7,16.321,42,17.334,42h0.245C18.592,42,19,41.7,19,40.509v-5.334l3.933-1.491
		c-0.059,0.396-0.1,0.799-0.1,1.211c0,3.45,2.142,6.394,5.167,7.59v7.701l-9,7.656v4.291l12-2.726l12,2.726v-4.291l-9-7.656v-7.701
		c3.024-1.197,5.167-4.14,5.167-7.59c0-0.413-0.04-0.815-0.1-1.211L43,35.175v5.334C43,41.7,43.408,42,44.421,42h0.245
		C45.679,42,47,41.7,47,40.509v-3.818L61,42v-3.875l-14-9.716v-1.986C47,25.233,45.679,20,44.666,20h-0.245
		c-0.863,0-1.286,3.793-1.393,5.653L34,19.388V9c0-1.657-1.343-7-3-7s-3,5.343-3,7v10.388l-9.029,6.266
		C18.865,23.793,18.442,20,17.579,20h-0.245C16.321,20,15,25.233,15,26.423v1.986L1,38.125V42l14-5.308V40.509z"/>
</g>
</svg>
