<?xml version="1.0" encoding="iso-8859-1"?>
<!-- Generator: Adobe Illustrator 16.0.0, SVG Export Plug-In . SVG Version: 6.00 Build 0)  -->
<!DOCTYPE svg PUBLIC "-//W3C//DTD SVG 1.1//EN" "http://www.w3.org/Graphics/SVG/1.1/DTD/svg11.dtd">
<svg version="1.1" id="Layer_1" xmlns="http://www.w3.org/2000/svg" xmlns:xlink="http://www.w3.org/1999/xlink" x="0px" y="0px"
	 width="32px" height="21.396px" viewBox="0 0 32 21.396" style="enable-background:new 0 0 32 21.396;" xml:space="preserve">
<g>
	<path d="M32,11.145v-0.861L26.262,9.9V8.309l-6.233-7.177l-5.647,6.316L0.902,8.721v11.429l5.01,0.484v-4.608l2.393,0.052v4.788
		l5.501,0.531l17.736-1.728v-8.262l-5.289-0.289l0.017-0.287L32,11.145z M4.063,14.779l-2.035-0.001v-2.014l2.035-0.07V14.779z
		 M2.002,9.469l2.033-0.188v2.085l-2.033,0.116V9.469z M1.988,16.09l2.032,0.049v2.084l-2.032-0.12V16.09z M5.922,9.069L8.25,8.853
		v2.233l-2.328,0.135V9.069z M8.281,14.743h-2.33v-2.152l2.33-0.082V14.743z M25.105,14.747l-1.839,0.001v-2.141l1.839,0.066V14.747
		z M25.123,16.02v2.073l-1.838,0.106v-2.139L25.123,16.02z M25.13,11.382l-1.837-0.119V9.124L25.13,9.31V11.382z M19.375,16.147
		l2.083-0.046v2.205l-2.083,0.121V16.147z M19.354,14.748v-2.28l2.084,0.074v2.206H19.354z M19.383,11.009V8.729l2.083,0.21v2.205
		L19.383,11.009z M15.262,16.238l2.357-0.052v2.343l-2.357,0.138V16.238z M17.578,14.749h-2.361v-2.43l2.361,0.085V14.749z
		 M15.251,8.313l2.358,0.238v2.343l-2.358-0.152V8.313z M26.584,15.987l1.643-0.036v1.961l-1.643,0.096V15.987z M26.566,14.747
		v-2.021l1.645,0.06v1.962H26.566z M12.682,14.731l-2.658,0.001v-2.296l2.658-0.094V14.731z M12.626,16.289v2.388l-2.654-0.155
		v-2.294L12.626,16.289z M9.99,8.68l2.655-0.247v2.389L9.99,10.975V8.68z M30.949,17.754l-1.48,0.086v-1.917l1.48-0.032V17.754z
		 M30.935,14.746l-1.481,0.001v-1.918l1.481,0.054V14.746z"/>
	<polygon points="20.031,0.698 26.528,8.205 27.569,8.211 20.363,0 4.151,3.552 0,7.558 0,8.518 14.241,7.173 	"/>
</g>
<g>
</g>
<g>
</g>
<g>
</g>
<g>
</g>
<g>
</g>
<g>
</g>
<g>
</g>
<g>
</g>
<g>
</g>
<g>
</g>
<g>
</g>
<g>
</g>
<g>
</g>
<g>
</g>
<g>
</g>
</svg>
