<?xml version="1.0" encoding="iso-8859-1"?>
<!-- Generator: Adobe Illustrator 16.0.0, SVG Export Plug-In . SVG Version: 6.00 Build 0)  -->
<!DOCTYPE svg PUBLIC "-//W3C//DTD SVG 1.1//EN" "http://www.w3.org/Graphics/SVG/1.1/DTD/svg11.dtd">
<svg version="1.1" id="Layer_1" xmlns="http://www.w3.org/2000/svg" xmlns:xlink="http://www.w3.org/1999/xlink" x="0px" y="0px"
	 width="32px" height="20.422px" viewBox="0 0 32 20.422" style="enable-background:new 0 0 32 20.422;" xml:space="preserve">
<g>
<path d="M25.02,9.991V2.408l-8.644-2.392V0l-7.75,2.136v7.759L0,10.748v7.722l16.304,1.952L32,18.538v-7.854L25.02,9.991z
	 M6.978,11.459l1.324-0.088v1.228l-1.324,0.05V11.459z M5.107,11.553l1.208-0.08v1.171L5.107,12.69V11.553z M3.458,11.68l1.11-0.073
	v1.122l-1.11,0.042V11.68z M2.025,11.791l1.028-0.068v1.08l-1.028,0.038V11.791z M0.591,11.898l0.949-0.062v1.037l-0.949,0.035
	V11.898z M1.54,16.334l-0.95-0.053v-1.011l0.95,0.027V16.334z M1.55,14.691L0.6,14.68v-1.011l0.95-0.015V14.691z M3.053,16.405
	l-1.028-0.058v-1.051l1.028,0.029V16.405z M3.063,14.694l-1.029-0.012v-1.051l1.029-0.017V14.694z M4.567,16.474l-1.109-0.062
	v-1.091l1.109,0.03V16.474z M4.579,14.695l-1.111-0.013v-1.091l1.111-0.019V14.695z M6.314,16.553l-1.208-0.066V15.35l1.208,0.032
	V16.553z M6.327,14.697l-1.209-0.014v-1.137l1.209-0.021V14.697z M8.302,16.694L6.978,16.62v-1.189l1.324,0.037V16.694z
	 M8.314,14.75L6.99,14.734v-1.19l1.324-0.021V14.75z M14.05,6.609V4.469l1.054-0.209v2.188L14.05,6.609z M15.104,7.033v2.188
	L14.05,9.325V7.184L15.104,7.033z M14.024,1.745l1.052-0.267v2.187l-1.052,0.221V1.745z M12.429,9.478V7.406l0.984-0.141v2.113
	L12.429,9.478z M12.597,11.048v1.348l-1.593,0.062v-1.304L12.597,11.048z M12.429,6.852V4.78l0.984-0.195v2.114L12.429,6.852z
	 M12.404,2.146l0.983-0.249V4.01l-0.983,0.207V2.146z M11.815,6.953l-0.922,0.143V5.091l0.922-0.183V6.953z M9.398,7.352V5.412
	l0.862-0.171v1.978L9.398,7.352z M10.261,7.748v1.978L9.398,9.812v-1.94L10.261,7.748z M9.377,2.945l0.861-0.218v1.977l-0.861,0.18
	V2.945z M8.917,11.311l1.451-0.096V12.5l-1.451,0.056V11.311z M10.367,16.79l-1.45-0.081v-1.244l1.45,0.04V16.79z M10.382,14.753
	l-1.451-0.016v-1.245l1.451-0.024V14.753z M10.871,2.542l0.921-0.233v2.044l-0.921,0.193V2.542z M10.894,7.633l0.922-0.132v2.045
	l-0.922,0.092V7.633z M12.597,16.896l-1.594-0.088v-1.304l1.594,0.043V16.896z M12.612,14.759l-1.594-0.017v-1.304l1.594-0.028
	V14.759z M15.104,17.029l-1.762-0.098v-1.369l1.762,0.048V17.029z M15.122,14.781l-1.763-0.02v-1.369l1.763-0.031V14.781z
	 M15.123,12.349l-1.763,0.065v-1.369l1.763-0.116V12.349z M23.724,3.053l0.74,0.188v1.863l-0.74-0.156V3.053z M22.317,2.73
	l0.788,0.199v1.921l-0.788-0.165V2.73z M22.27,5.233l0.789,0.156v1.924L22.27,7.191V5.233z M23.07,7.871v1.923l-0.789-0.078V7.759
	L23.07,7.871z M20.772,4.914l0.842,0.167v1.985l-0.842-0.13V4.914z M19.157,1.926l0.899,0.229v2.052l-0.899-0.188V1.926z
	 M17.546,1.518l0.96,0.243V3.88l-0.96-0.202V1.518z M17.487,4.283l0.962,0.189v2.122l-0.962-0.149V4.283z M18.463,7.21v2.121
	l-0.961-0.096V7.073L18.463,7.21z M18.98,16.875l-1.523,0.082v-1.354l1.523-0.041V16.875z M18.993,14.703l-1.521,0.015v-1.354
	l1.521,0.026V14.703z M19.007,12.293l-1.521-0.062v-1.353l1.521,0.102V12.293z M19.103,4.604l0.901,0.178v2.055l-0.901-0.14V4.604z
	 M19.116,7.304l0.9,0.129v2.054l-0.9-0.09V7.304z M21.23,16.764l-1.384,0.075V15.55l1.384-0.038V16.764z M21.242,14.692
	l-1.383,0.014v-1.29l1.383,0.024V14.692z M21.255,12.393l-1.383-0.055v-1.289l1.383,0.092V12.393z M21.626,9.628l-0.841-0.084V7.522
	l0.841,0.12V9.628z M21.663,4.525l-0.839-0.177v-2.02l0.839,0.213V4.525z M23.264,16.65L22,16.719v-1.232l1.264-0.034V16.65z
	 M23.274,14.669l-1.264,0.012v-1.231l1.264,0.022V14.669z M23.286,12.47l-1.264-0.051v-1.23l1.264,0.084V12.47z M23.679,5.479
	l0.741,0.146v1.865l-0.741-0.115V5.479z M23.69,7.926l0.74,0.106v1.864l-0.74-0.074V7.926z M25.106,16.572l-1.16,0.063v-1.179
	l1.16-0.032V16.572z M25.117,14.673l-1.16,0.012v-1.179l1.16,0.02V14.673z M25.127,12.564l-1.159-0.046V11.34l1.159,0.077V12.564z
	 M26.815,16.468l-1.067,0.058v-1.131l1.067-0.029V16.468z M26.825,14.645l-1.067,0.01v-1.13l1.067,0.018V14.645z M26.835,12.62
	l-1.067-0.042v-1.131l1.067,0.071V12.62z M28.413,16.39l-0.985,0.054v-1.086l0.985-0.027V16.39z M28.422,14.637l-0.984,0.011v-1.086
	l0.984,0.017V14.637z M28.431,12.692l-0.984-0.039v-1.085l0.984,0.065V12.692z M29.878,16.307l-0.913,0.049v-1.044l0.913-0.025
	V16.307z M29.886,14.619l-0.912,0.009v-1.044l0.912,0.016V14.619z M29.894,12.746l-0.912-0.036v-1.043l0.912,0.061V12.746z
	 M31.223,16.252l-0.849,0.046v-1.006l0.849-0.023V16.252z M31.229,14.624l-0.848,0.009v-1.006l0.848,0.014V14.624z M31.237,12.818
	l-0.848-0.033v-1.006l0.848,0.056V12.818z"/>
</g>
<g>
</g>
<g>
</g>
<g>
</g>
<g>
</g>
<g>
</g>
<g>
</g>
<g>
</g>
<g>
</g>
<g>
</g>
<g>
</g>
<g>
</g>
<g>
</g>
<g>
</g>
<g>
</g>
</svg>
