<?xml version="1.0" encoding="iso-8859-1"?>
<!-- Generator: Adobe Illustrator 16.0.0, SVG Export Plug-In . SVG Version: 6.00 Build 0)  -->
<!DOCTYPE svg PUBLIC "-//W3C//DTD SVG 1.1//EN" "http://www.w3.org/Graphics/SVG/1.1/DTD/svg11.dtd">
<svg version="1.1" id="Layer_1" xmlns="http://www.w3.org/2000/svg" xmlns:xlink="http://www.w3.org/1999/xlink" x="0px" y="0px"
	 width="32px" height="28.722px" viewBox="0 0 32 28.722" style="enable-background:new 0 0 32 28.722;" xml:space="preserve">
<g>
<path d="M23.523,2.925v0.027l-1.935,0.3V2.481L10.519,0L0,2.332v1.391l0.628-0.118v23.924l9.84,1.193l1.761-0.241v-5.228
	l2.749-0.161v5.058l1.871-0.226v-4.958l2.462-0.144v4.805l4.859-0.563l0.226-0.03v-4.523l2.024-0.117v4.396l1.388-0.167v-4.323
	l1.84-0.107v4.208l1.734-0.21V6.166L32,6.28V4.706L23.523,2.925z M8.145,8.469L9.841,8.27v1.416L8.145,9.856V8.469z M1.349,9.284
	l1.43-0.168v1.299l-1.43,0.144V9.284z M2.778,21.514l-1.43-0.059V20.18l1.43,0.035V21.514z M2.778,19.267l-1.43-0.019v-1.274
	l1.43-0.007V19.267z M2.791,17.063l-1.43,0.022v-1.275l1.43-0.046V17.063z M2.791,14.889l-1.43,0.063v-1.275l1.43-0.086V14.889z
	 M2.791,12.604l-1.43,0.104v-1.275l1.43-0.127V12.604z M2.804,8.241L1.373,8.425V7.149l1.431-0.208V8.241z M2.804,6.137L1.373,6.358
	V5.083l1.431-0.246V6.137z M3.543,8.99l1.513-0.178v1.337l-1.513,0.153V8.99z M5.057,21.571L3.544,21.51v-1.312l1.513,0.036V21.571z
	 M5.057,19.258L3.544,19.24v-1.313l1.513-0.007V19.258z M5.069,16.991l-1.513,0.024v-1.312l1.513-0.05V16.991z M5.069,14.753
	l-1.513,0.066v-1.312l1.513-0.092V14.753z M5.069,12.401l-1.513,0.11V11.2l1.513-0.136V12.401z M5.083,7.912L3.569,8.107V6.795
	l1.514-0.22V7.912z M5.083,5.746L3.569,5.981V4.67l1.514-0.261V5.746z M5.758,8.742l1.6-0.188V9.93l-1.6,0.161V8.742z M7.357,21.678
	l-1.6-0.065v-1.349l1.6,0.039V21.678z M7.357,19.299l-1.6-0.02v-1.349l1.6-0.007V19.299z M7.372,16.967l-1.601,0.025v-1.349
	l1.601-0.052V16.967z M7.372,14.665l-1.601,0.069v-1.349l1.601-0.097V14.665z M7.372,12.246l-1.601,0.116v-1.349l1.601-0.143V12.246
	z M7.386,7.628L5.785,7.834V6.485l1.601-0.232V7.628z M7.386,5.4L5.785,5.649V4.301l1.601-0.275V5.4z M9.841,21.785l-1.696-0.069
	v-1.388l1.696,0.041V21.785z M9.841,19.335l-1.696-0.021v-1.388l1.696-0.008V19.335z M9.855,16.934l-1.696,0.027v-1.389l1.696-0.056
	V16.934z M9.855,14.563l-1.696,0.074v-1.389l1.696-0.103V14.563z M9.855,12.071l-1.696,0.123v-1.388l1.696-0.152V12.071z
	 M9.871,7.315L8.174,7.533V6.145l1.697-0.246V7.315z M9.871,5.021L8.174,5.284V3.896l1.697-0.292V5.021z M18.351,6.858l1.417,0.207
	v1.337L18.351,8.22V6.858z M18.351,11.297l1.417,0.126v1.337l-1.417-0.102V11.297z M19.779,13.608v1.336l-1.416-0.062v-1.36
	L19.779,13.608z M18.338,15.714l1.418,0.047v1.336l-1.418-0.021V15.714z M16.183,6.511l1.496,0.219v1.373l-1.496-0.193V6.511z
	 M16.183,11.071l1.496,0.135v1.372l-1.496-0.107V11.071z M17.69,13.45v1.373l-1.495-0.065v-1.398L17.69,13.45z M16.168,15.611
	l1.497,0.05v1.373l-1.497-0.024V15.611z M13.963,3.867l1.578,0.274v1.41l-1.578-0.248V3.867z M13.934,6.178l1.58,0.231V7.82
	l-1.58-0.204V6.178z M15.541,8.739v1.41l-1.578-0.158V8.554L15.541,8.739z M13.934,10.866l1.58,0.143v1.41l-1.58-0.114V10.866z
	 M15.527,13.314v1.41l-1.58-0.069v-1.438L15.527,13.314z M13.919,15.532l1.581,0.053v1.411l-1.581-0.025V15.532z M11.445,3.439
	l1.676,0.292v1.452l-1.676-0.263V3.439z M11.43,14.557v-1.481l1.677,0.103v1.452L11.43,14.557z M13.077,15.486v1.453l-1.678-0.027
	V15.43L13.077,15.486z M13.092,9.886l-1.677-0.169V8.235l1.677,0.197V9.886z M11.385,5.786l1.678,0.246v1.453l-1.678-0.217V5.786z
	 M11.385,10.619l1.678,0.151v1.453l-1.678-0.122V10.619z M11.398,17.912l1.678,0.008v1.452l-1.678,0.022V17.912z M13.154,21.75
	l-1.674,0.069v-1.481l1.674-0.039V21.75z M13.919,17.941l1.581,0.007v1.41l-1.581,0.021V17.941z M15.559,21.645L13.98,21.71v-1.437
	l1.578-0.038V21.645z M16.168,17.954l1.497,0.006v1.373l-1.497,0.021V17.954z M17.7,21.574l-1.495,0.062v-1.398l1.495-0.036V21.574z
	 M17.704,10.37l-1.494-0.15V8.821l1.494,0.176V10.37z M17.704,5.895L16.21,5.66V4.262l1.494,0.261V5.895z M18.337,17.994
	l1.418,0.005v1.337l-1.418,0.02V17.994z M19.783,21.518l-1.417,0.059v-1.36l1.417-0.035V21.518z M19.793,10.609l-1.416-0.142V9.106
	l1.416,0.167V10.609z M19.793,6.253L18.377,6.03V4.67l1.416,0.247V6.253z M21.618,7.227l1.337,0.197v3.538l-1.337-0.134V7.227z
	 M21.629,11.53l1.337,0.12v3.537l-1.337-0.057V11.53z M21.641,15.782l1.336,0.045v3.536l-1.336,0.02V15.782z M22.979,21.437
	l-1.335,0.057v-1.335l1.335-0.033V21.437z M29.346,8.597l1.05,0.151V9.9l-1.05-0.134V8.597z M29.346,12.412l1.05,0.092v1.151
	l-1.05-0.073V12.412z M30.404,14.387v1.152l-1.05-0.044v-1.17L30.404,14.387z M29.335,16.209l1.051,0.033v1.151l-1.051-0.014V16.209
	z M27.749,8.34l1.101,0.159v1.179l-1.101-0.14V8.34z M27.749,12.246l1.101,0.096v1.18l-1.101-0.078V12.246z M28.858,14.27v1.179
	l-1.1-0.047v-1.197L28.858,14.27z M27.739,16.133l1.1,0.035v1.179l-1.1-0.016V16.133z M26.128,6.128l1.151,0.198v1.207l-1.151-0.179
	V6.128z M26.106,8.1l1.153,0.167v1.206l-1.153-0.146V8.1z M27.279,10.259v1.206l-1.151-0.113v-1.226L27.279,10.259z M26.106,12.099
	L27.26,12.2v1.206l-1.153-0.081V12.099z M27.27,14.173v1.206l-1.153-0.049v-1.226L27.27,14.173z M26.096,16.078l1.153,0.037v1.206
	l-1.153-0.017V16.078z M24.305,5.824l1.212,0.209V7.27l-1.212-0.188V5.824z M24.294,15.264v-1.258l1.212,0.071v1.237L24.294,15.264z
	 M25.484,16.044v1.237l-1.213-0.018v-1.258L25.484,16.044z M25.495,11.274l-1.212-0.12V9.896l1.212,0.141V11.274z M24.261,7.817
	l1.213,0.176V9.23l-1.213-0.154V7.817z M24.261,11.921l1.213,0.107v1.237l-1.213-0.086V11.921z M24.271,18.113l1.213,0.003v1.237
	l-1.213,0.018V18.113z M25.541,21.378l-1.211,0.053v-1.258l1.211-0.031V21.378z M26.096,18.133l1.153,0.003v1.206l-1.153,0.018
	V18.133z M27.292,21.298l-1.151,0.05v-1.226l1.151-0.03V21.298z M27.738,18.14l1.101,0.002v1.179l-1.101,0.018V18.14z
	 M28.865,21.245l-1.1,0.047v-1.197l1.1-0.028V21.245z M28.868,11.624l-1.099-0.108v-1.197l1.099,0.128V11.624z M28.868,7.782
	L27.77,7.611V6.414l1.099,0.189V7.782z M29.335,18.169l1.051,0.002v1.152l-1.051,0.017V18.169z M30.407,21.203l-1.05,0.046v-1.17
	l1.05-0.027V21.203z M30.414,11.802l-1.05-0.103v-1.17l1.05,0.121V11.802z M30.414,8.047l-1.05-0.162v-1.17l1.05,0.181V8.047z"/>
</g>
<g>
</g>
<g>
</g>
<g>
</g>
<g>
</g>
<g>
</g>
<g>
</g>
<g>
</g>
<g>
</g>
<g>
</g>
<g>
</g>
<g>
</g>
<g>
</g>
<g>
</g>
<g>
</g>
</svg>
