<?xml version="1.0" encoding="iso-8859-1"?>
<!-- Generator: Adobe Illustrator 16.0.0, SVG Export Plug-In . SVG Version: 6.00 Build 0)  -->
<!DOCTYPE svg PUBLIC "-//W3C//DTD SVG 1.1//EN" "http://www.w3.org/Graphics/SVG/1.1/DTD/svg11.dtd">
<svg version="1.1" id="Layer_1" xmlns="http://www.w3.org/2000/svg" xmlns:xlink="http://www.w3.org/1999/xlink" x="0px" y="0px"
	 width="15.45px" height="32px" viewBox="0 0 15.45 32" style="enable-background:new 0 0 15.45 32;" xml:space="preserve">
<g>
<path d="M13.795,5.458V1.435L7.9,0.01V0l-0.02,0.005L7.862,0v0.01L1.681,1.492v4.052L0,5.865v25.203L7.9,32l7.55-0.896V5.777
	L13.795,5.458z M0.86,7.273l5.833-1.003v1.254L0.86,8.444V7.273z M0.86,9.662l5.833-0.834v1.254L0.86,10.833V9.662z M0.847,12.09
	l5.831-0.663v1.254l-5.831,0.58V12.09z M0.847,14.479l5.831-0.494v1.254l-5.831,0.41V14.479z M6.678,26.031l-5.831-0.304v-1.17
	l5.831,0.22V26.031z M6.678,23.474L0.847,23.34v-1.171l5.831,0.051V23.474z M6.693,20.67L0.86,20.722v-1.171l5.833-0.135V20.67z
	 M6.693,18.112L0.86,18.333v-1.171l5.833-0.304V18.112z M9.103,6.332l5.578,0.963v1.203l-5.578-0.88V6.332z M14.695,9.675v1.203
	l-5.576-0.719V8.874L14.695,9.675z M9.068,11.557l5.583,0.63v1.204l-5.583-0.548V11.557z M9.085,14.099l5.581,0.468v1.204
	l-5.581-0.386V14.099z M14.695,17.218v1.203l-5.576-0.206V16.93L14.695,17.218z M9.119,22.249l5.576-0.052v1.204l-5.576,0.133
	V22.249z M14.71,25.777l-5.574,0.295v-1.285l5.574-0.213V25.777z M14.71,20.799l-5.574-0.045V19.47l5.574,0.125V20.799z"/>
</g>
<g>
</g>
<g>
</g>
<g>
</g>
<g>
</g>
<g>
</g>
<g>
</g>
<g>
</g>
<g>
</g>
<g>
</g>
<g>
</g>
<g>
</g>
<g>
</g>
<g>
</g>
<g>
</g>
</svg>
