<?xml version="1.0" encoding="iso-8859-1"?>
<!-- Generator: Adobe Illustrator 16.0.0, SVG Export Plug-In . SVG Version: 6.00 Build 0)  -->
<!DOCTYPE svg PUBLIC "-//W3C//DTD SVG 1.1//EN" "http://www.w3.org/Graphics/SVG/1.1/DTD/svg11.dtd">
<svg version="1.1" id="Layer_1" xmlns="http://www.w3.org/2000/svg" xmlns:xlink="http://www.w3.org/1999/xlink" x="0px" y="0px"
	 width="12.323px" height="30.938px" viewBox="0 0 12.323 30.938" style="enable-background:new 0 0 12.323 30.938;"
	 xml:space="preserve">
<g>
<path d="M11.488,6.806V5.78L8.103,4.824C7.92,4.382,7.347,4.037,6.622,3.939V0.219L6.291,0L5.994,0.219v3.699
	C5.181,3.971,4.518,4.331,4.309,4.807L1.296,5.885V7.01L0,7.347v22.857l6.202,0.734l6.121-0.727V7.027L11.488,6.806z M1.355,29.512
	L0.863,29.46V8.528l0.492-0.116V29.512z M2.554,29.651l-0.512-0.054V8.263l0.512-0.121V29.651z M3.881,29.76l-0.533-0.056V7.924
	l0.533-0.127V29.76z M5.268,29.915l-0.557-0.059V7.61l0.557-0.133V29.915z M7.877,29.748l-0.566,0.058V7.323L7.877,7.46V29.748z
	 M9.205,29.642L8.638,29.7V7.674l0.567,0.137V29.642z M10.429,29.528l-0.512,0.054V7.996l0.512,0.123V29.528z M11.596,29.436
	l-0.52,0.055V8.303l0.52,0.125V29.436z"/>
</g>
<g>
</g>
<g>
</g>
<g>
</g>
<g>
</g>
<g>
</g>
<g>
</g>
<g>
</g>
<g>
</g>
<g>
</g>
<g>
</g>
<g>
</g>
<g>
</g>
<g>
</g>
<g>
</g>
</svg>
