<?xml version="1.0" encoding="iso-8859-1"?>
<!-- Generator: Adobe Illustrator 16.0.0, SVG Export Plug-In . SVG Version: 6.00 Build 0)  -->
<!DOCTYPE svg PUBLIC "-//W3C//DTD SVG 1.1//EN" "http://www.w3.org/Graphics/SVG/1.1/DTD/svg11.dtd">
<svg version="1.1" id="Layer_1" xmlns="http://www.w3.org/2000/svg" xmlns:xlink="http://www.w3.org/1999/xlink" x="0px" y="0px"
	 width="32px" height="27.733px" viewBox="0 0 32 27.733" style="enable-background:new 0 0 32 27.733;" xml:space="preserve">
<g>
	<path d="M9.501,19.983c-1.044,0-1.894,0.466-1.894,1.038c0.001,0.012,0.003,0.022,0.003,0.033l0,4.879l3.751-0.329v-5.011
		c-0.374-0.352-1.057-0.6-1.811-0.61H9.501z"/>
	<path d="M29.878,3.762V1.777l-0.023-0.006V1.678l-6.958-1.677L22.888,0l-8.372,1.979v1.714l-1.847,0.41v1.244l0.562-0.105v11.63
		l-1.867,0.042V7.25l-5.18-0.677L0,7.928v17.157l7.13,0.84v-4.855c-0.002-0.011-0.004-0.029-0.004-0.048
		c0-0.866,1.021-1.52,2.375-1.52h0.058c1.297,0.019,2.359,0.625,2.554,1.419l0.031,0.002l0.003,0.228v5.383l1.084,0.132l8.812,1.068
		l1.576-0.216v-4.681l2.462-0.145v4.528l1.676-0.202V22.58l2.203-0.129v4.302l1.073-0.13V5.527L32,5.63V4.237L29.878,3.762z
		 M3.125,11.76l2.31-0.265v1.002l-2.31,0.226V11.76z M0.622,12.058l2.11-0.24v0.957l-2.11,0.205V12.058z M2.751,20.952l-2.152-0.096
		v-0.922l2.152,0.06V20.952z M2.751,19.296l-2.152-0.034v-0.921l2.152-0.003V19.296z M2.751,17.672l-2.135,0.027v-0.922l2.135-0.063
		V17.672z M2.751,16.069L0.64,16.154v-0.922l2.112-0.12V16.069z M2.751,14.386L0.64,14.532V13.61l2.112-0.182V14.386z M2.771,11.17
		l-2.113,0.265v-0.923l2.113-0.299V11.17z M2.771,9.619L0.657,9.94V9.018l2.113-0.356V9.619z M5.435,21.058l-2.31-0.102v-0.964
		l2.31,0.063V21.058z M5.435,19.324l-2.31-0.036v-0.963l2.31-0.003V19.324z M5.456,17.625l-2.311,0.029V16.69l2.311-0.067V17.625z
		 M5.456,15.947l-2.311,0.094v-0.964l2.311-0.132V15.947z M5.456,14.185l-2.311,0.161v-0.964l2.311-0.199V14.185z M5.477,10.818
		l-2.313,0.29v-0.965l2.313-0.328V10.818z M5.477,9.194L3.164,9.546V8.582l2.313-0.391V9.194z M6.518,9.761l2.057,0.154v0.949
		l-2.057-0.118V9.761z M6.533,11.387l2.034,0.095v0.949l-2.034-0.059V11.387z M6.55,12.971l1.996,0.036v0.95L6.55,13.955V12.971z
		 M6.572,14.604l1.995-0.021v0.95l-1.995,0.056V14.604z M8.577,17.04l-1.994,0.11v-0.984l1.994-0.075V17.04z M8.582,9.354
		L6.548,9.182V8.196l2.034,0.209V9.354z M10.728,16.957l-1.826,0.102v-0.943l1.826-0.071V16.957z M10.758,15.486L8.9,15.539v-0.944
		l1.858-0.02V15.486z M8.918,13.996v-0.943l1.825,0.032v0.912L8.918,13.996z M10.775,12.528L8.9,12.476v-0.944l1.875,0.086V12.528z
		 M8.918,10.919V9.976l1.825,0.136v0.912L8.918,10.919z M10.775,9.557L8.9,9.397V8.454l1.875,0.191V9.557z M15.913,2.477
		l4.479-1.006v0.966l-4.479,0.949V2.477z M17.782,9.854l3.659-0.431v1.268l-3.659,0.369V9.854z M13.897,10.325l3.269-0.383v1.196
		l-3.269,0.329V10.325z M17.196,21.363l-3.333-0.138v-1.142l3.333,0.082V21.363z M17.196,19.292l-3.333-0.041v-1.142l3.333-0.015
		V19.292z M17.196,17.263l-3.306,0.052v-1.142l3.306-0.107V17.263z M17.196,15.259L13.925,15.4v-1.143l3.271-0.196V15.259z
		 M17.196,13.153l-3.271,0.237v-1.143l3.271-0.292V13.153z M17.226,9.132l-3.274,0.42V8.409l3.274-0.475V9.132z M17.226,7.191
		L13.952,7.7V6.558l3.274-0.563V7.191z M21.44,21.521l-3.659-0.149v-1.207l3.659,0.089V21.521z M21.44,19.328l-3.659-0.045v-1.207
		l3.659-0.016V19.328z M21.474,17.178l-3.662,0.059v-1.207l3.662-0.119V17.178z M21.474,15.056l-3.662,0.16v-1.208l3.662-0.221
		V15.056z M21.474,12.825l-3.662,0.268v-1.208l3.662-0.327V12.825z M21.507,8.565l-3.665,0.471V7.829l3.665-0.532V8.565z
		 M21.507,6.511L17.842,7.08V5.872l3.665-0.63V6.511z M24.232,1.548l4.557,1.023v0.02l0.024,0.006v0.916L24.26,2.551V2.529
		l-0.027-0.006V1.548z M30.362,14.199v1.197l-3.238-0.142v-1.253L30.362,14.199z M27.155,13.209v-1.252l3.182,0.284v1.197
		L27.155,13.209z M27.126,17.273v-1.253l3.184,0.105v1.197L27.126,17.273z M30.308,18.132v1.197l-3.184,0.044v-1.254L30.308,18.132z
		 M22.863,7.196l3.686,0.54V9l-3.686-0.477V7.196z M22.89,9.389l3.646,0.431v1.264l-3.646-0.367V9.389z M22.921,11.524l3.576,0.322
		v1.264l-3.576-0.26V11.524z M22.962,13.727l3.573,0.219v1.264l-3.573-0.157V13.727z M26.508,21.405l-3.458,0.143v-1.324
		l3.458-0.082V21.405z M26.508,19.361l-3.532,0.047v-1.325l3.532,0.015V19.361z M26.553,17.216l-3.57-0.059v-1.325l3.57,0.12V17.216
		z M26.562,6.993l-3.645-0.572V5.095l3.645,0.636V6.993z M30.371,21.282l-3.247,0.137v-1.254l3.247-0.079V21.282z M30.392,11.515
		l-3.268-0.326V9.936l3.268,0.383V11.515z M27.155,9.125V7.873l3.182,0.464v1.197L27.155,9.125z M30.392,7.613l-3.268-0.512V5.849
		l3.268,0.569V7.613z"/>
</g>
<g>
</g>
<g>
</g>
<g>
</g>
<g>
</g>
<g>
</g>
<g>
</g>
<g>
</g>
<g>
</g>
<g>
</g>
<g>
</g>
<g>
</g>
<g>
</g>
<g>
</g>
<g>
</g>
<g>
</g>
</svg>
