<?xml version="1.0" encoding="iso-8859-1"?>
<!-- Generator: Adobe Illustrator 16.0.0, SVG Export Plug-In . SVG Version: 6.00 Build 0)  -->
<!DOCTYPE svg PUBLIC "-//W3C//DTD SVG 1.1//EN" "http://www.w3.org/Graphics/SVG/1.1/DTD/svg11.dtd">
<svg version="1.1" id="Layer_1" xmlns="http://www.w3.org/2000/svg" xmlns:xlink="http://www.w3.org/1999/xlink" x="0px" y="0px"
	 width="20.756px" height="31.955px" viewBox="0 0 20.756 31.955" style="enable-background:new 0 0 20.756 31.955;"
	 xml:space="preserve">
<g>
<path d="M9.84,0L0,1.68v29.165l9.84,1.11l10.916-1.431V2.117L9.84,0z M7.755,3.152l1.043-0.159v1.183L7.755,4.321V3.152z
	 M7.755,4.915l1.043-0.141v1.183L7.755,6.085V4.915z M7.755,7.323l1.043-0.115V8.39L7.755,8.493V7.323z M7.755,9.086l1.043-0.097
	v1.182l-1.043,0.085V9.086z M7.755,11.458l1.043-0.072v1.182l-1.043,0.061V11.458z M6.094,3.431l1.008-0.152V4.44L6.094,4.582V3.431
	z M6.094,5.165l1.008-0.136v1.162L6.094,6.315V5.165z M6.094,7.533l1.008-0.111v1.162l-1.008,0.1V7.533z M6.094,9.268l1.008-0.094
	v1.162l-1.008,0.082V9.268z M6.094,11.6l1.008-0.069v1.162l-1.008,0.059V11.6z M4.429,3.678l0.975-0.148v1.143L4.429,4.809V3.678z
	 M4.429,5.382l0.975-0.131v1.143l-0.975,0.12V5.382z M4.429,7.711l0.975-0.107v1.143L4.429,8.842V7.711z M4.429,9.415l0.975-0.09
	v1.143l-0.975,0.079V9.415z M4.429,11.709l0.975-0.067v1.143l-0.975,0.057V11.709z M2.771,3.947l0.941-0.143v1.122L2.771,5.059
	V3.947z M2.771,5.623l0.941-0.127v1.123L2.771,6.734V5.623z M2.771,7.911l0.941-0.104v1.123L2.771,9.023V7.911z M2.771,9.587
	L3.712,9.5v1.123l-0.941,0.076V9.587z M2.771,11.842l0.941-0.065v1.123l-0.941,0.054V11.842z M1.33,4.181l0.913-0.139v1.105
	L1.33,5.275V4.181z M1.33,5.831l0.913-0.122v1.105L1.33,6.927V5.831z M1.33,8.085l0.913-0.101v1.106L1.33,9.181V8.085z M1.33,9.735
	l0.913-0.084v1.105L1.33,10.831V9.735z M1.33,11.956l0.913-0.063v1.105L1.33,13.052V11.956z M1.33,13.606l0.913-0.047v1.105
	L1.33,14.702V13.606z M1.346,19.575l0.913,0.011v1.106l-0.913-0.021V19.575z M1.346,21.226l0.913,0.027v1.105l-0.913-0.037V21.226z
	 M2.276,26.285L1.363,26.21v-1.096l0.913,0.065V26.285z M2.276,24.618l-0.913-0.06v-1.095l0.913,0.049V24.618z M2.306,18.473H1.392
	v-1.096l0.914-0.011V18.473z M2.306,16.805l-0.914,0.017v-1.097l0.914-0.025V16.805z M2.771,13.518l0.941-0.049v1.123L2.771,14.63
	V13.518z M2.786,19.577l0.942,0.011v1.123l-0.942-0.021V19.577z M2.786,21.253l0.942,0.028v1.122l-0.942-0.038V21.253z
	 M3.746,26.391l-0.942-0.077v-1.112l0.942,0.066V26.391z M3.746,24.698l-0.942-0.061v-1.112l0.942,0.05V24.698z M3.776,18.458
	l-0.942-0.001v-1.112l0.942-0.011V18.458z M3.776,16.765L2.834,16.78v-1.112l0.942-0.027V16.765z M4.429,13.414l0.975-0.051v1.143
	l-0.975,0.039V13.414z M4.445,19.579L5.42,19.59v1.143L4.445,20.71V19.579z M4.445,21.284l0.975,0.027v1.144l-0.975-0.04V21.284z
	 M5.438,26.512l-0.975-0.08v-1.131l0.975,0.068V26.512z M5.438,24.79l-0.975-0.063v-1.131l0.975,0.051V24.79z M5.471,18.439H4.495
	v-1.132l0.976-0.012V18.439z M5.471,16.717l-0.976,0.017v-1.132l0.976-0.028V16.717z M6.094,13.334l1.008-0.052v1.162l-1.008,0.04
	V13.334z M6.111,19.604l1.008,0.012v1.163l-1.008-0.024V19.604z M6.111,21.339l1.008,0.029v1.162l-1.008-0.041V21.339z
	 M7.139,26.657L6.13,26.575v-1.15l1.009,0.07V26.657z M7.139,24.906L6.13,24.841v-1.151l1.009,0.053V24.906z M7.171,18.445h-1.01
	v-1.15l1.01-0.012V18.445z M7.171,16.693l-1.01,0.018V15.56l1.01-0.029V16.693z M7.755,13.222l1.043-0.055v1.183l-1.043,0.042
	V13.222z M7.773,19.597l1.043,0.013v1.182l-1.043-0.023V19.597z M7.773,21.36l1.043,0.03v1.183L7.773,22.53V21.36z M8.836,26.771
	l-1.043-0.086v-1.17l1.043,0.073V26.771z M8.836,24.988l-1.043-0.067v-1.17l1.043,0.055V24.988z M8.869,18.419H7.825v-1.171
	l1.044-0.012V18.419z M8.869,16.636l-1.044,0.019v-1.17l1.044-0.031V16.636z M16.106,7.906l3.434,0.423v1.012l-3.434-0.385V7.906z
	 M16.094,9.499l3.435,0.365v1.013l-3.435-0.327V9.499z M16.082,11.781l3.436,0.282v1.013l-3.436-0.244V11.781z M16.069,13.375
	l3.437,0.225v1.013l-3.437-0.187V13.375z M16.057,15.64l3.438,0.142v1.013l-3.438-0.104V15.64z M10.91,7.327l3.813,0.467V8.86
	L10.91,8.436V7.327z M10.896,9.008l3.814,0.403v1.065l-3.814-0.36V9.008z M10.884,11.415l3.815,0.312v1.066l-3.815-0.269V11.415z
	 M10.869,13.097l3.816,0.247v1.066l-3.816-0.205V13.097z M10.855,15.485l3.817,0.155v1.067l-3.817-0.113V15.485z M10.84,17.168
	l3.819,0.092v1.066l-3.819-0.049V17.168z M14.685,26.242l-3.817,0.267V25.4l3.817-0.224V26.242z M14.698,24.624l-3.815,0.201v-1.108
	l3.815-0.159V24.624z M14.711,22.325l-3.814,0.11v-1.107l3.814-0.068V22.325z M14.725,20.708l-3.813,0.046v-1.108l3.813-0.004
	V20.708z M14.736,6.565l-3.813-0.517V4.941L14.736,5.5V6.565z M14.75,4.95l-3.812-0.581V3.262l3.812,0.622V4.95z M16.044,17.234
	l3.438,0.084v1.013l-3.438-0.046V17.234z M19.505,25.851l-3.437,0.237v-1.051l3.437-0.199V25.851z M19.517,24.313l-3.436,0.18
	v-1.051l3.436-0.141V24.313z M19.528,22.131l-3.434,0.097v-1.051l3.434-0.059V22.131z M19.541,20.594l-3.434,0.039v-1.051h3.434
	V20.594z M19.552,7.161l-3.433-0.467v-1.05l3.433,0.505V7.161z M19.564,5.627l-3.433-0.524V4.052l3.433,0.563V5.627z"/>
</g>
<g>
</g>
<g>
</g>
<g>
</g>
<g>
</g>
<g>
</g>
<g>
</g>
<g>
</g>
<g>
</g>
<g>
</g>
<g>
</g>
<g>
</g>
<g>
</g>
<g>
</g>
<g>
</g>
</svg>
