<?xml version="1.0" encoding="iso-8859-1"?>
<!-- Generator: Adobe Illustrator 16.0.0, SVG Export Plug-In . SVG Version: 6.00 Build 0)  -->
<!DOCTYPE svg PUBLIC "-//W3C//DTD SVG 1.1//EN" "http://www.w3.org/Graphics/SVG/1.1/DTD/svg11.dtd">
<svg version="1.1" id="Layer_1" xmlns="http://www.w3.org/2000/svg" xmlns:xlink="http://www.w3.org/1999/xlink" x="0px" y="0px"
	 width="32px" height="23.246px" viewBox="0 0 32 23.246" style="enable-background:new 0 0 32 23.246;" xml:space="preserve">
<g>
	<polygon points="12.548,19.552 13.007,19.572 13.007,16.882 12.548,16.88 	"/>
	<polygon points="14.477,16.664 14.477,19.553 14.836,19.538 14.836,16.713 14.975,16.713 14.975,19.533 15.349,19.519 
		15.349,16.663 	"/>
	<path d="M18.065,0L0.075,4.101L0,6.743l1.092-0.196v15.127l4.385,0.402V21.68l0.491,0.042v-0.653l0.444,0.033v-0.548l0.491,0.032
		v-0.425v-0.005l-1.765-0.104l-0.104-0.006v-3.692l2.219-0.008v2.969l0.308,0.014v-6.893l2.957-0.196v7.221l0.236,0.011v-2.601
		v-0.567l2.674-0.011h0.128l2.282,0.021L15.801,19.5v0.951l-2.37,0.108l-2.676-0.173v0.708L10.2,21.056v0.448l-0.501-0.039v0.577
		l-0.554-0.048v0.42l9.053,0.832l13.007-1.16V5.517L32,5.664v-2.47L18.065,0z M5.41,16.121L2.775,16.14v-3.323l2.635-0.172V16.121z
		 M5.531,10.605l-2.646,0.262v-3.33l2.646-0.415V10.605z M10.568,10.03l-3.097,0.311V6.744l3.097-0.489V10.03z M12.942,5.891
		l3.683-0.582v4.127l-3.683,0.368V5.891z M16.703,15.968l-3.691,0.03v-3.917l3.691-0.245V15.968z M19.75,5.163l4.081,0.656v4.043
		L19.75,9.453V5.163z M19.912,11.798l4.063,0.273v4.034l-4.063-0.027V11.798z M24.163,20.299l-4.096,0.23v-1.903l4.096-0.12V20.299z
		 M26.469,6.385l3.363,0.533v3.681l-3.363-0.33V6.385z M29.891,20.104l-3.403,0.199v-1.73l3.403-0.106V20.104z M29.951,16.28
		l-3.35-0.015V12.39l3.35,0.218V16.28z"/>
	<polygon points="11.668,19.513 11.668,16.875 11.15,16.873 11.15,19.489 	"/>
	<polygon points="14.325,16.665 13.885,16.665 13.885,19.576 14.325,19.559 	"/>
	<polygon points="11.842,19.521 12.371,19.544 12.371,16.879 11.842,16.876 	"/>
	<polygon points="6.351,16.879 5.917,16.877 5.917,19.256 6.351,19.275 	"/>
	<polygon points="6.903,16.882 6.497,16.88 6.497,19.282 6.903,19.3 	"/>
	<polygon points="5.773,16.876 5.363,16.874 5.363,19.231 5.773,19.25 	"/>
</g>
<g>
</g>
<g>
</g>
<g>
</g>
<g>
</g>
<g>
</g>
<g>
</g>
<g>
</g>
<g>
</g>
<g>
</g>
<g>
</g>
<g>
</g>
<g>
</g>
<g>
</g>
<g>
</g>
<g>
</g>
</svg>
