<?xml version="1.0" encoding="iso-8859-1"?>
<!-- Generator: Adobe Illustrator 16.0.0, SVG Export Plug-In . SVG Version: 6.00 Build 0)  -->
<!DOCTYPE svg PUBLIC "-//W3C//DTD SVG 1.1//EN" "http://www.w3.org/Graphics/SVG/1.1/DTD/svg11.dtd">
<svg version="1.1" id="Layer_1" xmlns="http://www.w3.org/2000/svg" xmlns:xlink="http://www.w3.org/1999/xlink" x="0px" y="0px"
	 width="32px" height="20.894px" viewBox="0 0 32 20.894" style="enable-background:new 0 0 32 20.894;" xml:space="preserve">
<g>
<path d="M24.075,0.939v0.008l-6.143,0.176V0.36L8.697,0L0,0.34v1.522l0.964-0.025v18.118l7.832,0.938l10.001-1.163
	c0,0,0.076-6.721,0.076-7.405c0-0.686,1.008-1.962,1.927-1.962s1.741,1.464,1.741,2.121c0,0.658,0,6.823,0,6.823l1.475-0.164l0,0
	l0.078-0.009h0.001l6.95-0.841V2.702L32,2.723V1.224L24.075,0.939z M6.869,3.663l1.244-0.014v1.182L6.869,4.834V3.663z M6.869,5.511
	l1.244,0.004v1.182L6.869,6.682V5.511z M5.253,3.659l1.213-0.015v1.167L5.253,4.814V3.659z M5.253,5.482l1.213,0.004v1.167
	L5.253,6.639V5.482z M3.296,3.664L4.472,3.65v1.148L3.296,4.802V3.664z M3.296,5.46l1.176,0.003v1.149L3.296,6.599V5.46z
	 M1.768,3.659l1.146-0.014V4.78L1.768,4.784V3.659z M1.768,5.434l1.146,0.003v1.135L1.768,6.558V5.434z M2.883,14.54l-1.146-0.087
	v-1.124l1.146,0.076V14.54z M2.883,12.75l-1.146-0.07v-1.124l1.146,0.06V12.75z M2.946,10.576l-1.147-0.051V9.401l1.147,0.04V10.576
	z M2.946,8.784L1.799,8.751V7.626l1.147,0.023V8.784z M4.439,14.68l-1.176-0.088v-1.139l1.176,0.078V14.68z M4.439,12.867
	l-1.176-0.072v-1.138l1.176,0.062V12.867z M4.504,10.667l-1.176-0.052V9.477l1.176,0.041V10.667z M4.504,8.853L3.328,8.818V7.68
	l1.176,0.024V8.853z M6.433,14.848l-1.212-0.091v-1.156l1.212,0.081V14.848z M6.433,13.007l-1.212-0.074v-1.155l1.212,0.063V13.007z
	 M6.5,10.771l-1.214-0.054V9.562L6.5,9.604V10.771z M6.5,8.93L5.286,8.894V7.737L6.5,7.763V8.93z M8.079,14.996l-1.243-0.095v-1.17
	l1.243,0.083V14.996z M8.079,13.132l-1.243-0.077v-1.17l1.243,0.064V13.132z M8.147,10.867l-1.244-0.055V9.642l1.244,0.044V10.867z
	 M8.147,9.002L6.903,8.965V7.794l1.244,0.025V9.002z M15.29,7.7l1.02,0.003v1.086l-1.02,0.009V7.7z M13.845,7.757l1.05,0.003v1.102
	l-1.05,0.009V7.757z M11.913,7.752l1.09,0.003v1.122l-1.09,0.01V7.752z M10.367,7.812l1.123,0.002v1.14l-1.123,0.011V7.812z
	 M10.362,9.561l1.124-0.018v1.14l-1.124,0.029V9.561z M11.521,14.72l-1.122,0.073v-1.151l1.122-0.061V14.72z M11.524,12.991
	l-1.122,0.055v-1.152l1.122-0.042V12.991z M11.538,6.528l-1.122-0.016V5.361l1.122,0.028V6.528z M11.542,4.801L10.42,4.765v-1.15
	l1.122,0.047V4.801z M11.909,9.475l1.09-0.016v1.122l-1.09,0.028V9.475z M13.033,14.559l-1.089,0.071v-1.135l1.089-0.059V14.559z
	 M13.037,12.855l-1.09,0.052v-1.134l1.09-0.04V12.855z M13.05,6.488l-1.089-0.017V5.338l1.089,0.028V6.488z M13.053,4.785
	l-1.088-0.034V3.616l1.088,0.047V4.785z M13.841,9.447l1.05-0.015v1.101l-1.05,0.027V9.447z M14.923,14.437l-1.049,0.068v-1.112
	l1.049-0.057V14.437z M14.927,12.766l-1.049,0.05v-1.112l1.049-0.039V12.766z M14.938,6.518l-1.048-0.017V5.389l1.048,0.027V6.518z
	 M14.942,4.847l-1.048-0.034V3.7l1.048,0.045V4.847z M15.286,9.366l1.02-0.015v1.086l-1.02,0.025V9.366z M16.337,14.285
	l-1.019,0.065v-1.097l1.019-0.054V14.285z M16.341,12.638l-1.019,0.048v-1.097l1.019-0.037V12.638z M16.353,6.479l-1.019-0.016
	V5.366l1.019,0.027V6.479z M16.356,4.831l-1.019-0.033V3.701l1.019,0.045V4.831z M18.239,9.689l-0.722-0.013l-0.016-7.613
	l0.125,0.003l0.61,0.585L18.239,9.689z M18.987,3.676l0.884-0.015v0.996l-0.884,0.006V3.676z M18.987,5.233l0.884-0.001v0.995
	l-0.884-0.006V5.233z M19.896,9.741l-0.884-0.035V8.718l0.884,0.027V9.741z M19.896,8.169l-0.884-0.022V7.159l0.884,0.014V8.169z
	 M20.165,3.677l0.903-0.014v1.006l-0.903,0.006V3.677z M20.165,5.252l0.903-0.001v1.006L20.165,6.25V5.252z M21.093,9.809
	l-0.903-0.036V8.774l0.903,0.027V9.809z M21.093,8.22l-0.903-0.023V7.198l0.903,0.016V8.22z M22.903,3.67l0.949-0.015v1.032
	l-0.949,0.006V3.67z M21.668,3.669l0.928-0.015v1.021l-0.928,0.006V3.669z M21.668,5.266l0.928-0.001v1.021l-0.928-0.009V5.266z
	 M22.621,9.885l-0.929-0.037V8.836l0.929,0.028V9.885z M22.621,8.274L21.692,8.25V7.238l0.929,0.016V8.274z M22.903,5.284
	l0.949-0.001v1.031l-0.949-0.008V5.284z M23.879,9.955L22.93,9.917V8.894l0.949,0.03V9.955z M23.879,8.327L22.93,8.303V7.279
	l0.949,0.016V8.327z M29.074,7.389l0.812,0.006v0.969l-0.812,0.004V7.389z M27.928,7.437l0.832,0.005v0.981l-0.832,0.005V7.437z
	 M26.398,7.427l0.862,0.006v0.998l-0.862,0.005V7.427z M25.179,7.477l0.886,0.005v1.013l-0.886,0.005V7.477z M25.175,9.029
	l0.886-0.011v1.012l-0.886,0.021V9.029z M26.089,13.618l-0.886,0.057v-1.021l0.886-0.047V13.618z M26.092,12.082l-0.886,0.041
	v-1.022l0.886-0.03V12.082z M26.102,6.34l-0.885-0.017V5.302l0.885,0.025V6.34z M26.105,4.804L25.22,4.772V3.751l0.886,0.041V4.804z
	 M26.396,8.958l0.862-0.01v0.999l-0.862,0.02V8.958z M27.284,13.486l-0.861,0.055v-1.008l0.861-0.045V13.486z M27.287,11.972
	l-0.861,0.039v-1.009l0.861-0.029V11.972z M27.297,6.306l-0.86-0.016V5.281l0.86,0.026V6.306z M27.3,4.791l-0.86-0.031V3.752
	l0.86,0.04V4.791z M27.924,8.941l0.833-0.01v0.981l-0.833,0.02V8.941z M28.782,13.392l-0.832,0.053v-0.99l0.832-0.043V13.392z
	 M28.785,11.902l-0.832,0.038v-0.991l0.832-0.028V11.902z M28.795,6.334l-0.831-0.016V5.327l0.831,0.025V6.334z M28.799,4.845
	l-0.832-0.03v-0.99l0.832,0.039V4.845z M29.071,8.874l0.812-0.009v0.969l-0.812,0.018V8.874z M29.907,13.268l-0.811,0.051v-0.978
	l0.811-0.042V13.268z M29.91,11.797L29.1,11.834v-0.979l0.811-0.027V11.797z M29.92,6.301l-0.811-0.015V5.309l0.811,0.024V6.301z
	 M29.923,4.831l-0.811-0.029V3.824l0.811,0.039V4.831z"/>
</g>
<g>
</g>
<g>
</g>
<g>
</g>
<g>
</g>
<g>
</g>
<g>
</g>
<g>
</g>
<g>
</g>
<g>
</g>
<g>
</g>
<g>
</g>
<g>
</g>
<g>
</g>
</svg>
