<?xml version="1.0" encoding="iso-8859-1"?>
<!-- Generator: Adobe Illustrator 16.0.0, SVG Export Plug-In . SVG Version: 6.00 Build 0)  -->
<!DOCTYPE svg PUBLIC "-//W3C//DTD SVG 1.1//EN" "http://www.w3.org/Graphics/SVG/1.1/DTD/svg11.dtd">
<svg version="1.1" id="Layer_1" xmlns="http://www.w3.org/2000/svg" xmlns:xlink="http://www.w3.org/1999/xlink" x="0px" y="0px"
	 width="32px" height="20.896px" viewBox="0 0 32 20.896" style="enable-background:new 0 0 32 20.896;" xml:space="preserve">
<g>
<path d="M26.412,5.023V2.834l0.655,0.123V1.699L19.08,0.019V0l-8.201,1.73V3l0.953-0.18v2.717L5.919,4.884L0,5.871v0.914
	l0.661-0.098v13.25l5.315,0.788l5.884-0.676v-0.026l7.188,0.872l0.015-0.022l1.276-0.154v-3.834l2.017-0.118v3.709l1.254-0.151
	v-3.653l1.812-0.105v3.54l6.078-0.724V6.776L32,6.841V5.853L26.412,5.023z M4.77,8.879l0.783-0.07v0.822L4.77,9.688V8.879z
	 M1.566,9.176l0.683-0.061v0.768l-0.683,0.05V9.176z M2.249,16.44l-0.683-0.048v-0.756l0.683,0.036V16.44z M2.249,15.112
	l-0.683-0.027v-0.757l0.683,0.017V15.112z M2.254,13.811l-0.683-0.008v-0.756l0.683-0.003V13.811z M2.254,12.526l-0.683,0.01V11.78
	l0.683-0.021V12.526z M2.254,11.176l-0.683,0.03V10.45l0.683-0.042V11.176z M2.261,8.599L1.578,8.668V7.911l0.683-0.08V8.599z
	 M2.261,7.355L1.578,7.442V6.687l0.683-0.099V7.355z M2.612,9.062l0.715-0.064v0.785L2.612,9.835V9.062z M3.327,16.493l-0.715-0.049
	v-0.773l0.715,0.036V16.493z M3.327,15.134l-0.715-0.028v-0.773l0.715,0.017V15.134z M3.333,13.803l-0.715-0.009v-0.773l0.715-0.004
	V13.803z M3.333,12.487l-0.715,0.012v-0.773l0.715-0.023V12.487z M3.333,11.106l-0.715,0.032v-0.773l0.715-0.045V11.106z
	 M3.339,8.469L2.624,8.541V7.768l0.715-0.084V8.469z M3.339,7.196L2.624,7.288V6.515l0.715-0.104V7.196z M3.657,8.975l0.747-0.066
	v0.803L3.657,9.766V8.975z M4.404,16.574l-0.747-0.051v-0.791l0.747,0.039V16.574z M4.404,15.185l-0.747-0.03v-0.79l0.747,0.017
	V15.185z M4.411,13.823l-0.748-0.01v-0.791l0.748-0.003V13.823z M4.411,12.478l-0.748,0.012v-0.79l0.748-0.024V12.478z
	 M4.411,11.064l-0.748,0.034v-0.791l0.748-0.046V11.064z M4.417,8.368L3.669,8.443V7.652l0.748-0.088V8.368z M4.417,7.066
	L3.669,7.162V6.371l0.748-0.108V7.066z M5.552,16.657L4.77,16.604v-0.81l0.783,0.041V16.657z M5.552,15.234L4.77,15.203v-0.81
	l0.783,0.019V15.234z M5.559,13.84l-0.783-0.009v-0.81l0.783-0.004V13.84z M5.559,12.463l-0.783,0.013v-0.81l0.783-0.025V12.463z
	 M5.559,11.017l-0.783,0.035v-0.809l0.783-0.049V11.017z M5.566,8.256L4.783,8.335v-0.81l0.784-0.092V8.256z M5.566,6.924
	l-0.784,0.1v-0.81l0.784-0.113V6.924z M10.626,6.526l0.83,0.078V7.36l-0.83-0.069V6.526z M10.626,7.777l0.83,0.064v0.756
	l-0.83-0.056V7.777z M10.626,9.095l0.83,0.048v0.756l-0.83-0.04V9.095z M10.616,10.411l0.83,0.033V11.2l-0.83-0.024V10.411z
	 M10.616,11.663l0.83,0.02v0.756l-0.83-0.011V11.663z M9.293,6.37l0.86,0.082v0.77l-0.86-0.073V6.37z M9.293,7.645l0.86,0.067v0.77
	l-0.86-0.058V7.645z M9.293,8.986l0.86,0.051v0.77l-0.86-0.042V8.986z M9.283,10.327l0.861,0.035v0.77l-0.861-0.025V10.327z
	 M9.283,11.603l0.861,0.021v0.77l-0.861-0.011V11.603z M7.839,6.179l0.895,0.086v0.784L7.839,6.973V6.179z M7.839,7.479l0.895,0.07
	v0.785L7.839,8.273V7.479z M7.839,8.847L8.734,8.9v0.785L7.839,9.641V8.847z M7.829,10.215l0.895,0.037v0.785l-0.895-0.028V10.215z
	 M7.829,11.516l0.895,0.021v0.785L7.829,12.31V11.516z M6.384,6.051l0.93,0.089V6.94l-0.93-0.079V6.051z M6.384,7.377l0.93,0.073
	v0.8l-0.93-0.063V7.377z M6.384,8.771l0.93,0.056v0.8l-0.93-0.046V8.771z M6.373,10.166l0.93,0.039v0.8l-0.93-0.028V10.166z
	 M6.373,11.492l0.93,0.022v0.8l-0.93-0.012V11.492z M6.373,12.887l0.93,0.006v0.8l-0.93,0.005V12.887z M7.314,16.591l-0.93,0.04
	v-0.81l0.93-0.03V16.591z M7.325,15.215l-0.93,0.024v-0.81l0.93-0.015V15.215z M7.829,12.883l0.895,0.006v0.785l-0.895,0.004V12.883
	z M8.734,16.517l-0.895,0.039v-0.794l0.895-0.029V16.517z M8.745,15.168L7.85,15.19v-0.795l0.895-0.013V15.168z M9.283,12.943
	l0.861,0.005v0.77l-0.861,0.005V12.943z M10.154,16.506l-0.86,0.038v-0.778l0.86-0.029V16.506z M10.164,15.183l-0.86,0.022v-0.778
	l0.86-0.013V15.183z M10.616,12.979l0.83,0.004v0.756l-0.83,0.005V12.979z M11.456,16.478l-0.83,0.037V15.75l0.83-0.028V16.478z
	 M11.465,15.179L10.636,15.2v-0.765l0.829-0.013V15.179z M17.345,6.042l1.244-0.146v1.038l-1.244,0.126V6.042z M12.361,6.641
	l1.048-0.123V7.47l-1.048,0.105V6.641z M13.409,15.609l-1.048-0.043v-0.936l1.048,0.026V15.609z M13.409,13.961l-1.048-0.013v-0.936
	l1.048-0.004V13.961z M13.418,12.346l-1.048,0.017v-0.936l1.048-0.034V12.346z M13.418,10.751l-1.048,0.045V9.86l1.048-0.063V10.751
	z M13.418,9.075L12.37,9.151V8.216l1.048-0.094V9.075z M13.427,5.876L12.378,6.01V5.075l1.049-0.152V5.876z M13.427,4.332
	l-1.049,0.163V3.56l1.049-0.181V4.332z M13.97,6.425l1.109-0.13v0.98L13.97,7.387V6.425z M15.08,15.651l-1.109-0.045v-0.962
	l1.109,0.026V15.651z M15.08,13.955l-1.109-0.014v-0.962l1.109-0.005V13.955z M15.089,12.293l-1.11,0.018v-0.962l1.11-0.036V12.293z
	 M15.089,10.651l-1.11,0.049V9.737l1.11-0.067V10.651z M15.089,8.927l-1.11,0.081V8.046l1.11-0.1V8.927z M15.099,5.634l-1.11,0.144
	V4.815l1.11-0.162V5.634z M15.099,4.046l-1.11,0.173V3.256l1.11-0.191V4.046z M15.594,6.243l1.173-0.138v1.009l-1.173,0.118V6.243z
	 M16.767,15.729l-1.173-0.048v-0.989l1.173,0.028V15.729z M16.767,13.984l-1.173-0.014v-0.989l1.173-0.005V13.984z M16.777,12.274
	l-1.173,0.02v-0.989l1.173-0.038V12.274z M16.777,10.586l-1.173,0.052V9.648l1.173-0.07V10.586z M16.777,8.813l-1.173,0.086V7.909
	l1.173-0.105V8.813z M16.788,5.426l-1.174,0.151V4.588l1.174-0.171V5.426z M16.788,3.792l-1.174,0.183V2.985l1.174-0.202V3.792z
	 M18.588,15.809l-1.244-0.051V14.74l1.244,0.029V15.809z M18.588,14.012l-1.244-0.016v-1.018l1.244-0.006V14.012z M18.599,12.25
	l-1.244,0.021v-1.019l1.244-0.04V12.25z M18.599,10.511l-1.244,0.055V9.548l1.244-0.075V10.511z M18.599,8.685l-1.244,0.091V7.757
	l1.244-0.111V8.685z M18.61,5.196l-1.245,0.16V4.338l1.245-0.181V5.196z M18.61,3.514l-1.245,0.193V2.688l1.245-0.214V3.514z
	 M24.829,4.861l1.039,0.151v0.98l-1.039-0.134V4.861z M24.829,8.116l1.039,0.093v0.98l-1.039-0.075V8.116z M23.239,4.606l1.097,0.16
	v1.007l-1.097-0.142V4.606z M23.239,7.951l1.097,0.099v1.007l-1.097-0.079V7.951z M21.59,4.362l1.159,0.17v1.034L21.59,5.417V4.362z
	 M21.59,7.801l1.159,0.104v1.034L21.59,8.855V7.801z M19.721,4.075l1.23,0.181v1.065l-1.23-0.159V4.075z M20.973,6.017v1.065
	l-1.229-0.124V5.871L20.973,6.017z M19.721,7.619l1.23,0.111v1.065l-1.23-0.089V7.619z M20.943,15.783l-1.231,0.051v-1.087
	l1.231-0.029V15.783z M20.961,14.039l-1.229,0.016v-1.087l1.229,0.006V14.039z M20.962,12.255l-1.23-0.021v-1.087l1.23,0.042V12.255
	z M20.983,10.561l-1.229-0.054V9.42l1.229,0.076V10.561z M20.994,3.633L19.766,3.44V2.354l1.229,0.214V3.633z M22.72,15.719
	l-1.16,0.048v-1.055l1.16-0.028V15.719z M22.738,14.029l-1.159,0.015v-1.055l1.159,0.005V14.029z M22.738,12.296l-1.159-0.019
	v-1.055l1.159,0.039V12.296z M22.759,10.631L21.6,10.579V9.525l1.159,0.071V10.631z M22.769,7.275l-1.157-0.116V6.104l1.157,0.137
	V7.275z M22.769,3.903l-1.157-0.182V2.668l1.157,0.201V3.903z M24.274,15.655l-1.1,0.045v-1.026l1.1-0.027V15.655z M24.326,14.01
	l-1.098,0.015v-1.025l1.098,0.004V14.01z M24.326,12.324l-1.098-0.018V11.28l1.098,0.036V12.324z M24.346,10.702l-1.097-0.048V9.629
	l1.097,0.067V10.702z M24.355,7.437l-1.097-0.11V6.301l1.097,0.129V7.437z M24.355,4.155l-1.097-0.173V2.957l1.097,0.191V4.155z
	 M25.852,15.602l-1.04,0.043v-0.998l1.04-0.025V15.602z M25.858,14.012l-1.039,0.015v-0.999l1.039,0.004V14.012z M25.859,12.37
	l-1.04-0.017v-0.998l1.04,0.034V12.37z M25.877,10.792l-1.038-0.046V9.748l1.038,0.063V10.792z M25.887,7.612l-1.038-0.104V6.511
	l1.038,0.121V7.612z M25.887,4.417l-1.038-0.163V3.257l1.038,0.181V4.417z M29.926,8.591l0.862,0.086V9.57l-0.862-0.071V8.591z
	 M28.636,8.46l0.905,0.091v0.915l-0.905-0.074V8.46z M27.202,6.766l0.953,0.122v0.939l-0.953-0.105V6.766z M27.185,8.304
	l0.954,0.096v0.939L27.185,9.26V8.304z M28.133,15.5l-0.955,0.029v-0.956l0.955-0.014V15.5z M28.146,13.962l-0.954,0.003v-0.957
	l0.954,0.015V13.962z M28.147,12.389l-0.954-0.025v-0.956l0.954,0.042V12.389z M28.164,10.896l-0.954-0.052V9.888l0.954,0.068
	V10.896z M29.519,15.464l-0.906,0.028v-0.932l0.906-0.013V15.464z M29.533,13.969l-0.905,0.003v-0.931l0.905,0.013V13.969z
	 M29.533,12.436l-0.905-0.023v-0.931l0.905,0.039V12.436z M29.549,10.962l-0.904-0.049V9.982l0.904,0.064V10.962z M29.558,7.993
	l-0.905-0.1V6.963l0.905,0.115V7.993z M30.739,15.426l-0.864,0.027v-0.909l0.864-0.013V15.426z M30.779,13.967l-0.862,0.003v-0.908
	l0.862,0.012V13.967z M30.78,12.47l-0.863-0.021v-0.909l0.863,0.037V12.47z M30.795,11.031l-0.861-0.046v-0.908l0.861,0.061V11.031z
	 M30.803,8.133l-0.861-0.095V7.13l0.861,0.109V8.133z"/>
</g>
<g>
</g>
<g>
</g>
<g>
</g>
<g>
</g>
<g>
</g>
<g>
</g>
<g>
</g>
<g>
</g>
<g>
</g>
<g>
</g>
<g>
</g>
<g>
</g>
<g>
</g>
<g>
</g>
</svg>
