<?xml version="1.0" encoding="iso-8859-1"?>
<!-- Generator: Adobe Illustrator 16.0.0, SVG Export Plug-In . SVG Version: 6.00 Build 0)  -->
<!DOCTYPE svg PUBLIC "-//W3C//DTD SVG 1.1//EN" "http://www.w3.org/Graphics/SVG/1.1/DTD/svg11.dtd">
<svg version="1.1" id="Layer_1" xmlns="http://www.w3.org/2000/svg" xmlns:xlink="http://www.w3.org/1999/xlink" x="0px" y="0px"
	 width="32px" height="24.797px" viewBox="0 0 32 24.797" style="enable-background:new 0 0 32 24.797;" xml:space="preserve">
<g>
<path d="M22.084,10.153V4.477l-1.282-0.247V1.11l-4.568-1.104V0l-0.015,0.003L16.204,0v0.007l-4.79,1.148v3.141l-1.302,0.248v5.774
	L0,11.327v11.555l16.233,1.915l0.958-0.113v-5.477l4.319-0.164v5.127L32,22.943V11.172L22.084,10.153z M1.127,12.082l3.223-0.27
	v0.815l-3.223,0.225V12.082z M4.35,19.653l-3.223-0.17v-0.771l3.223,0.124V19.653z M4.35,17.988l-3.223-0.076v-0.771l3.223,0.031
	V17.988z M4.358,16.164l-3.224,0.025v-0.771l3.224-0.071V16.164z M4.358,14.499l-3.224,0.119v-0.771l3.224-0.165V14.499z
	 M5.257,11.748l3.749-0.313v0.883l-3.749,0.26V11.748z M9.006,19.912l-3.749-0.199v-0.828l3.749,0.145V19.912z M9.006,18.112
	l-3.749-0.09v-0.829l3.749,0.037V18.112z M9.017,16.14l-3.751,0.028V15.34l3.751-0.083V16.14z M9.017,14.34l-3.751,0.138v-0.829
	l3.751-0.191V14.34z M10.778,5.636l4.52-0.777V5.83l-4.52,0.713V5.636z M10.778,7.487l4.52-0.646v0.972l-4.52,0.582V7.487z
	 M10.768,9.368l4.519-0.514v0.972l-4.519,0.449V9.368z M10.768,11.219l4.519-0.383v0.972l-4.519,0.318V11.219z M15.286,20.171
	l-4.519-0.234v-0.907l4.519,0.17V20.171z M15.286,18.189l-4.519-0.104v-0.907l4.519,0.039V18.189z M15.299,16.017l-4.521,0.04
	v-0.907l4.521-0.104V16.017z M15.299,14.035l-4.521,0.171v-0.908l4.521-0.234V14.035z M17.166,4.906l4.322,0.746v0.933l-4.322-0.683
	V4.906z M17.14,8.955l4.325,0.488v0.933L17.14,9.951V8.955z M17.152,10.925l4.324,0.362v0.934l-4.324-0.3V10.925z M17.171,15.124
	l4.322,0.096v0.933l-4.322-0.031V15.124z M21.499,18.134l-4.32,0.103V17.24l4.32-0.039V18.134z M21.499,14.274l-4.32-0.16v-0.995
	l4.32,0.223V14.274z M21.499,8.429l-4.32-0.557V6.876l4.32,0.62V8.429z M23.125,11.404l3.617,0.305v0.855l-3.617-0.252V11.404z
	 M26.762,13.593v0.855l-3.614-0.135v-0.908L26.762,13.593z M23.141,15.234l3.616,0.081v0.855l-3.616-0.027V15.234z M23.147,17.164
	l3.614-0.031v0.855l-3.614,0.084V17.164z M26.771,19.677l-3.614,0.19v-0.909l3.614-0.137V19.677z M27.798,11.794l3.106,0.262v0.795
	l-3.106-0.216V11.794z M30.921,13.806V14.6l-3.104-0.115v-0.84L30.921,13.806z M27.812,15.336l3.104,0.069v0.794l-3.104-0.023
	V15.336z M27.816,17.119l3.104-0.026v0.794l-3.104,0.073V17.119z M30.929,19.455l-3.103,0.163v-0.84l3.103-0.117V19.455z"/>
</g>
<g>
</g>
<g>
</g>
<g>
</g>
<g>
</g>
<g>
</g>
<g>
</g>
<g>
</g>
<g>
</g>
<g>
</g>
<g>
</g>
<g>
</g>
<g>
</g>
<g>
</g>
<g>
</g>
</svg>
