<?xml version="1.0" encoding="iso-8859-1"?>
<!-- Generator: Adobe Illustrator 16.0.0, SVG Export Plug-In . SVG Version: 6.00 Build 0)  -->
<!DOCTYPE svg PUBLIC "-//W3C//DTD SVG 1.1//EN" "http://www.w3.org/Graphics/SVG/1.1/DTD/svg11.dtd">
<svg version="1.1" id="Layer_1" xmlns="http://www.w3.org/2000/svg" xmlns:xlink="http://www.w3.org/1999/xlink" x="0px" y="0px"
	 width="32px" height="21.842px" viewBox="0 0 32 21.842" style="enable-background:new 0 0 32 21.842;" xml:space="preserve">
<g>
	<polygon points="12.974,5.653 16.981,0.915 22.093,7.146 25.12,7.502 27.855,3.433 31.135,8.953 32,8.953 28.193,2.538 
		20.367,3.833 17.143,0 3.051,4.019 0,7.508 0,8.232 	"/>
	<path d="M27.839,4.025L25.275,7.84l-3.347-0.395l-4.951-6.034l-3.833,4.532L1.154,8.326v12.133l11.905,1.383l7.863-0.803v0.002
		l1.325-0.096v-6.871l3.194,0.096v6.546l1.834-0.132l0,0l3.585-0.404V9.114L27.839,4.025z M9.035,8.116l2.292-0.375v1.702
		L9.035,9.738V8.116z M9.035,11.025l2.292-0.232v1.702l-2.292,0.152V11.025z M5.546,8.694L7.5,8.375v1.569l-1.954,0.251V8.694z
		 M5.546,11.387L7.5,11.188v1.569l-1.954,0.13V11.387z M2.545,9.191l1.688-0.275v1.455l-1.688,0.217V9.191z M2.545,11.696
		l1.688-0.17v1.455l-1.688,0.111V11.696z M2.53,14.168l1.686-0.066v1.455L2.53,15.564V14.168z M4.248,18.183L2.56,18.085v-1.397
		l1.688,0.039V18.183z M5.528,14.043l1.953-0.078v1.568l-1.953,0.01V14.043z M7.519,18.364l-1.956-0.112V16.75l1.956,0.045V18.364z
		 M9.016,13.896l2.289-0.092v1.701l-2.289,0.012V13.896z M11.349,18.577l-2.293-0.132v-1.623l2.293,0.053V18.577z M19,8.323
		l2.046,0.339v1.587L19,9.985V8.323z M15.21,7.72l2.396,0.396v1.713L15.21,9.522V7.72z M15.181,10.731l2.399,0.248v1.715
		l-2.399-0.159V10.731z M17.601,18.472l-2.397,0.141V16.81l2.397-0.052V18.472z M17.627,15.604l-2.395-0.008v-1.802l2.395,0.097
		V15.604z M18.144,6.099l-1.735-0.371V3.539l1.735,0.45V6.099z M18.976,11.102l2.048,0.212V12.9l-2.048-0.136V11.102z
		 M21.041,18.248l-2.046,0.119v-1.663l2.046-0.043V18.248z M21.063,15.595l-2.044-0.008v-1.662l2.044,0.084V15.595z M28.611,9.905
		l1.275,0.212v1.259l-1.275-0.165V9.905z M26.313,9.542l1.443,0.239v1.338l-1.443-0.186V9.542z M26.296,11.867l1.444,0.15v1.338
		l-1.444-0.097V11.867z M27.753,17.864l-1.444,0.084v-1.391l1.444-0.031V17.864z M27.769,15.627l-1.442-0.006V14.23l1.442,0.059
		V15.627z M28.339,7.994l-1.021-0.224V6.099l1.021,0.27V7.994z M28.596,12.088l1.276,0.133v1.26l-1.276-0.086V12.088z
		 M29.884,17.723l-1.276,0.074V16.49l1.276-0.026V17.723z M29.897,15.617l-1.274-0.005v-1.306l1.274,0.052V15.617z"/>
</g>
<g>
</g>
<g>
</g>
<g>
</g>
<g>
</g>
<g>
</g>
<g>
</g>
<g>
</g>
<g>
</g>
<g>
</g>
<g>
</g>
<g>
</g>
<g>
</g>
<g>
</g>
<g>
</g>
<g>
</g>
</svg>
