<?xml version="1.0" encoding="iso-8859-1"?>
<!-- Generator: Adobe Illustrator 16.0.0, SVG Export Plug-In . SVG Version: 6.00 Build 0)  -->
<!DOCTYPE svg PUBLIC "-//W3C//DTD SVG 1.1//EN" "http://www.w3.org/Graphics/SVG/1.1/DTD/svg11.dtd">
<svg version="1.1" id="Layer_1" xmlns="http://www.w3.org/2000/svg" xmlns:xlink="http://www.w3.org/1999/xlink" x="0px" y="0px"
	 width="22.684px" height="31.967px" viewBox="0 0 22.684 31.967" style="enable-background:new 0 0 22.684 31.967;"
	 xml:space="preserve">
<g>
	<polygon points="10.523,3.703 16.305,0.703 21.82,6.063 22.684,6.063 16.264,0 3.832,3.161 0,4.979 0,5.719 	"/>
	<path d="M16.249,1.041l-5.678,2.915L0.659,5.833v24.913l10.36,1.221l1.828-0.22v-5.493l2.89-0.17v5.314l1.966-0.237v-5.209
		l2.586-0.151v5.049l1.26-0.152V6.096L16.249,1.041z M8.558,10.719l1.782-0.209v1.488l-1.782,0.18V10.719z M1.417,11.576
		l1.502-0.177v1.365l-1.502,0.151V11.576z M2.919,24.426l-1.502-0.062v-1.34l1.502,0.037V24.426z M2.919,22.064l-1.502-0.019v-1.34
		L2.919,20.7V22.064z M2.933,19.75L1.43,19.774v-1.341l1.503-0.048V19.75z M2.933,17.465L1.43,17.53v-1.34L2.933,16.1V17.465z
		 M2.933,15.064L1.43,15.173v-1.34l1.503-0.134V15.064z M2.945,10.48l-1.503,0.192v-1.34l1.503-0.218V10.48z M2.945,8.269
		L1.442,8.502v-1.34l1.503-0.259V8.269z M3.723,11.268l1.59-0.187v1.404l-1.59,0.16V11.268z M5.313,24.486l-1.59-0.064v-1.378
		l1.59,0.037V24.486z M5.313,22.056l-1.59-0.019v-1.378l1.59-0.008V22.056z M5.326,19.674L3.736,19.7v-1.379l1.59-0.052V19.674z
		 M5.326,17.322l-1.59,0.07v-1.379l1.59-0.097V17.322z M5.326,14.852l-1.59,0.116V13.59l1.59-0.144V14.852z M5.34,10.135L3.75,10.34
		V8.961l1.59-0.231V10.135z M5.34,7.858L3.75,8.106V6.728l1.59-0.274V7.858z M6.05,11.007L7.73,10.81v1.445L6.05,12.424V11.007z
		 M7.73,24.599L6.05,24.529v-1.416l1.681,0.04V24.599z M7.73,22.099L6.05,22.078v-1.417l1.681-0.007V22.099z M7.745,19.648
		l-1.681,0.027v-1.417l1.681-0.055V19.648z M7.745,17.229l-1.681,0.073v-1.417l1.681-0.102V17.229z M7.745,14.688l-1.681,0.122
		v-1.417l1.681-0.15V14.688z M7.761,9.836l-1.683,0.217V8.636l1.683-0.244V9.836z M7.761,7.495L6.078,7.757V6.34l1.683-0.29V7.495z
		 M10.34,24.712l-1.782-0.073v-1.458l1.782,0.043V24.712z M10.34,22.137l-1.782-0.021v-1.459l1.782-0.008V22.137z M10.355,19.613
		l-1.782,0.029v-1.459l1.782-0.059V19.613z M10.355,17.122L8.573,17.2v-1.459l1.782-0.107V17.122z M10.355,14.505l-1.782,0.13
		v-1.459l1.782-0.159V14.505z M10.371,9.507L8.588,9.736V8.277l1.783-0.259V9.507z M10.371,7.096L8.588,7.373V5.914l1.783-0.307
		V7.096z M19.281,9.027l1.489,0.217v1.405l-1.489-0.192V9.027z M19.281,13.69l1.489,0.133v1.405l-1.489-0.107V13.69z M17.003,8.662
		l1.572,0.229v1.443l-1.572-0.203V8.662z M17.003,13.454l1.572,0.142v1.442l-1.572-0.114V13.454z M14.64,8.313l1.661,0.243v1.482
		L14.64,9.823V8.313z M14.64,13.238l1.661,0.149v1.482l-1.661-0.12V13.238z M11.962,7.901l1.763,0.258v1.527l-1.763-0.229V7.901z
		 M13.756,10.682v1.526l-1.762-0.177v-1.558L13.756,10.682z M11.962,12.979l1.763,0.158v1.527l-1.763-0.129V12.979z M13.713,24.676
		l-1.763,0.072V23.19l1.763-0.042V24.676z M13.739,22.177l-1.763,0.022v-1.558l1.763,0.008V22.177z M13.74,19.62l-1.763-0.029
		v-1.557l1.763,0.059V19.62z M13.771,17.193l-1.761-0.077V15.56l1.761,0.107V17.193z M13.786,7.268l-1.76-0.276V5.435l1.76,0.308
		V7.268z M15.979,24.584l-1.673,0.069v-1.517l1.673-0.041V24.584z M16.285,22.162l-1.661,0.021v-1.511l1.661,0.007V22.162z
		 M16.285,19.68l-1.661-0.027v-1.511l1.661,0.056V19.68z M16.314,17.293l-1.66-0.073v-1.511l1.66,0.103V17.293z M16.329,12.485
		l-1.658-0.166v-1.511l1.658,0.195V12.485z M16.329,7.654l-1.658-0.26V5.884l1.658,0.289V7.654z M16.264,4.848
		C15.882,4.775,15.57,4.25,15.57,3.676c0-0.575,0.312-0.974,0.693-0.893c0.379,0.081,0.683,0.604,0.683,1.17
		S16.643,4.919,16.264,4.848z M18.271,24.492l-1.584,0.065v-1.475l1.584-0.038V24.492z M18.561,22.135l-1.573,0.021v-1.471
		l1.573,0.007V22.135z M18.561,19.719l-1.572-0.024v-1.471l1.572,0.053V19.719z M18.588,17.396l-1.571-0.069v-1.47l1.571,0.097
		V17.396z M18.603,12.717l-1.571-0.157v-1.47l1.571,0.186V12.717z M18.603,8.015l-1.571-0.246v-1.47l1.571,0.274V8.015z
		 M20.481,24.433l-1.5,0.063V23.06l1.5-0.037V24.433z M20.757,22.138l-1.49,0.021v-1.431l1.49,0.006V22.138z M20.757,19.785
		l-1.489-0.023v-1.43l1.489,0.049V19.785z M20.782,17.524l-1.487-0.065v-1.43l1.487,0.091V17.524z M20.797,12.969l-1.488-0.149
		v-1.43l1.488,0.175V12.969z M20.797,8.391l-1.488-0.233V6.729l1.488,0.259V8.391z"/>
</g>
<g>
</g>
<g>
</g>
<g>
</g>
<g>
</g>
<g>
</g>
<g>
</g>
<g>
</g>
<g>
</g>
<g>
</g>
<g>
</g>
<g>
</g>
<g>
</g>
<g>
</g>
<g>
</g>
<g>
</g>
</svg>
