<?xml version="1.0" encoding="iso-8859-1"?>
<!-- Generator: Adobe Illustrator 16.0.0, SVG Export Plug-In . SVG Version: 6.00 Build 0)  -->
<!DOCTYPE svg PUBLIC "-//W3C//DTD SVG 1.1//EN" "http://www.w3.org/Graphics/SVG/1.1/DTD/svg11.dtd">
<svg version="1.1" id="Layer_1" xmlns="http://www.w3.org/2000/svg" xmlns:xlink="http://www.w3.org/1999/xlink" x="0px" y="0px"
	 width="22.307px" height="32px" viewBox="0 0 22.307 32" style="enable-background:new 0 0 22.307 32;" xml:space="preserve">
<g>
<path d="M19.83,4.333V1.935L11.803,0h-0.011l-9.66,2.282v1.979L0,4.733V6.17l0.648-0.121v24.718L10.815,32l1.819-0.249V26.35
	l2.841-0.167v5.226l1.934-0.233v-5.122l2.543-0.148v4.964l1.238-0.149V6.377l1.116,0.237V4.888L19.83,4.333z M3.744,2.857
	l5.169-1.162v1.115L3.744,3.905V2.857z M5.9,11.369l4.221-0.496v1.463L5.9,12.762V11.369z M1.418,11.913l3.772-0.441v1.38
	l-3.772,0.38V11.913z M5.225,24.649l-3.847-0.158v-1.317l3.847,0.095V24.649z M5.225,22.26l-3.847-0.048v-1.317l3.847-0.016V22.26z
	 M5.225,19.918l-3.815,0.06V18.66l3.815-0.123V19.918z M5.225,17.605L1.45,17.77v-1.318l3.774-0.227V17.605z M5.225,15.176
	L1.45,15.45v-1.318l3.774-0.337V15.176z M5.259,10.536l-3.777,0.484V9.702l3.777-0.548V10.536z M5.259,8.298L1.481,8.884V7.565
	l3.777-0.649V8.298z M10.121,24.831L5.9,24.658v-1.392l4.221,0.102V24.831z M10.121,22.301L5.9,22.249v-1.393l4.221-0.019V22.301z
	 M10.16,19.82l-4.226,0.067v-1.393l4.226-0.138V19.82z M10.16,17.371l-4.226,0.185v-1.393l4.226-0.255V17.371z M10.16,14.798
	l-4.226,0.309v-1.394l4.226-0.378V14.798z M10.199,9.882L5.97,10.426V9.032l4.229-0.614V9.882z M10.199,7.512L5.97,8.169V6.775
	l4.229-0.728V7.512z M13.343,1.784l5.258,1.182v1.058l-5.258-1.112V1.784z M20.417,16.383v1.382l-3.737-0.163v-1.446L20.417,16.383z
	 M16.717,15.241v-1.445l3.671,0.327v1.382L16.717,15.241z M16.683,19.931v-1.445l3.673,0.121v1.382L16.683,19.931z M20.354,20.921
	v1.382l-3.674,0.05v-1.445L20.354,20.921z M11.764,8.303l4.252,0.624v1.457l-4.252-0.55V8.303z M11.795,10.833L16,11.329v1.458
	l-4.205-0.424V10.833z M11.83,13.297l4.127,0.372v1.458l-4.127-0.3V13.297z M11.877,15.838L16,16.09v1.458l-4.123-0.181V15.838z
	 M15.97,24.698l-3.991,0.165v-1.528l3.991-0.095V24.698z M15.97,22.34l-4.076,0.054v-1.528l4.076,0.017V22.34z M16.021,19.864
	L11.9,19.797v-1.529l4.121,0.139V19.864z M16.031,8.068l-4.205-0.66v-1.53l4.205,0.733V8.068z M20.427,24.557l-3.747,0.156v-1.445
	l3.747-0.092V24.557z M20.451,13.286l-3.771-0.377v-1.446l3.771,0.442V13.286z M16.717,10.528V9.083l3.671,0.535V11L16.717,10.528z
	 M20.451,8.784L16.68,8.193V6.748l3.771,0.656V8.784z"/>
</g>
<g>
</g>
<g>
</g>
<g>
</g>
<g>
</g>
<g>
</g>
<g>
</g>
<g>
</g>
<g>
</g>
<g>
</g>
<g>
</g>
<g>
</g>
<g>
</g>
<g>
</g>
<g>
</g>
</svg>
