<?xml version="1.0" encoding="iso-8859-1"?>
<!-- Generator: Adobe Illustrator 16.0.0, SVG Export Plug-In . SVG Version: 6.00 Build 0)  -->
<!DOCTYPE svg PUBLIC "-//W3C//DTD SVG 1.1//EN" "http://www.w3.org/Graphics/SVG/1.1/DTD/svg11.dtd">
<svg version="1.1" id="Layer_1" xmlns="http://www.w3.org/2000/svg" xmlns:xlink="http://www.w3.org/1999/xlink" x="0px" y="0px"
	 width="32px" height="22.651px" viewBox="0 0 32 22.651" style="enable-background:new 0 0 32 22.651;" xml:space="preserve">
<g>
<path d="M28.183,10.943V6.951l-4.955-0.697V3.146l-3.416-0.662V1.205L14.197,0l-3.672,0.817V2.34L8.564,2.715L8.561,6.062
	L3.27,6.672v4.064L0,10.951v9.906l14.909,1.794L32,20.481v-9.336L28.183,10.943z M0.63,12.23l2.177-0.084v0.65L0.63,12.855V12.23z
	 M2.822,14.392v0.651l-2.171-0.029v-0.626L2.822,14.392z M0.627,13.166l2.18-0.046v0.651l-2.18,0.021V13.166z M0.648,15.329
	l2.176,0.041v0.651l-2.176-0.066V15.329z M0.671,16.577l2.123,0.09v0.65l-2.123-0.114V16.577z M2.826,18.301L0.7,18.148v-0.626
	l2.126,0.127V18.301z M7.467,7.11l0.924-0.104v0.716L7.467,7.816V7.11z M7.466,8.166l0.925-0.089v0.716L7.466,8.871V8.166z
	 M7.469,11.347v-0.705l0.922-0.051v0.716L7.469,11.347z M8.378,12.058v0.715l-0.9,0.019v-0.705L8.378,12.058z M7.47,10.287V9.581
	l0.92-0.066v0.716L7.47,10.287z M6.214,7.233l0.885-0.101v0.7L6.214,7.924V7.233z M6.213,8.267l0.886-0.085v0.7L6.213,8.957V8.267z
	 M6.215,11.382v-0.69l0.884-0.05v0.701L6.215,11.382z M7.087,12.078v0.7l-0.863,0.018v-0.69L7.087,12.078z M6.216,10.344v-0.69
	l0.882-0.064v0.7L6.216,10.344z M4.874,7.4L5.72,7.305v0.685L4.874,8.076V7.4z M4.873,8.411L5.72,8.329v0.685L4.873,9.086V8.411z
	 M4.876,11.456v-0.675l0.844-0.048v0.686L4.876,11.456z M5.708,12.137v0.685l-0.824,0.017v-0.675L5.708,12.137z M4.877,10.44V9.766
	l0.842-0.062v0.686L4.877,10.44z M3.725,7.513L4.537,7.42v0.671L3.725,8.174V7.513z M3.724,8.503l0.813-0.079v0.671L3.724,9.164
	V8.503z M3.726,11.487v-0.662l0.812-0.045v0.671L3.726,11.487z M4.526,12.155v0.67l-0.792,0.017v-0.661L4.526,12.155z M3.727,10.492
	V9.831l0.81-0.06v0.671L3.727,10.492z M4.49,18.49l-0.81-0.063v-0.661l0.81,0.054V18.49z M3.682,17.434v-0.661l0.808,0.039v0.67
	L3.682,17.434z M4.49,16.136l-0.812-0.03v-0.661l0.812,0.021V16.136z M4.49,15.133L3.68,15.116v-0.661l0.811,0.007V15.133z
	 M4.538,13.837l-0.793,0.002v-0.661l0.793-0.012V13.837z M5.671,18.602l-0.843-0.065v-0.675l0.843,0.056V18.602z M4.829,17.522
	v-0.675l0.841,0.041v0.685L4.829,17.522z M5.671,16.199l-0.845-0.032v-0.674l0.845,0.021V16.199z M5.671,15.176l-0.844-0.018v-0.674
	l0.844,0.007V15.176z M5.721,13.854l-0.825,0.002v-0.675l0.825-0.012V13.854z M7.048,18.694l-0.883-0.069v-0.689l0.883,0.058V18.694
	z M6.166,17.588v-0.689l0.881,0.043v0.7L6.166,17.588z M7.048,16.235l-0.885-0.033v-0.689l0.885,0.022V16.235z M7.048,15.188
	L6.164,15.17v-0.69l0.884,0.008V15.188z M7.1,13.835l-0.863,0.002v-0.69L7.1,13.134V13.835z M8.338,18.815l-0.921-0.072v-0.704
	L8.338,18.1V18.815z M7.418,17.685v-0.705l0.918,0.045v0.716L7.418,17.685z M8.338,16.304L7.414,16.27v-0.705l0.924,0.024V16.304z
	 M8.338,15.233l-0.922-0.019v-0.704l0.922,0.008V15.233z M8.392,13.852l-0.9,0.002v-0.705l0.9-0.013V13.852z M9.27,4.284l4.939-0.8
	v0.781L9.27,5.008V4.284z M9.266,5.387l4.949-0.715v0.781L9.266,6.11V5.387z M14.221,6.287v0.78L9.285,7.604V6.88L14.221,6.287z
	 M9.259,7.969l4.962-0.511v0.781L9.259,8.691V7.969z M9.265,11.935l4.962-0.193v0.781l-4.962,0.136V11.935z M9.259,13.018
	l4.968-0.107v0.781L9.259,13.74V13.018z M14.221,14.479v0.781l-4.944-0.066V14.47L14.221,14.479z M9.271,15.558l4.956,0.095v0.782
	l-4.956-0.153V15.558z M9.318,17.041l4.836,0.209v0.78l-4.836-0.265V17.041z M14.23,19.212l-4.847-0.351v-0.725l4.847,0.294V19.212z
	 M14.232,10.997l-4.962,0.249v-0.724l4.962-0.307V10.997z M14.232,9.823l-4.956,0.335V9.435l4.956-0.393V9.823z M21.771,8.014
	l0.727,0.078v0.656l-0.727-0.07V8.014z M21.768,9.43l0.727,0.062v0.656l-0.727-0.054V9.43z M20.739,6.888l0.751,0.094v0.667
	l-0.751-0.085V6.888z M20.736,7.912l0.751,0.081V8.66l-0.751-0.072V7.912z M20.733,9.381l0.752,0.063v0.667l-0.752-0.055V9.381z
	 M20.731,10.405l0.751,0.051v0.667l-0.751-0.042V10.405z M20.729,11.861l0.752,0.032v0.667l-0.752-0.023V11.861z M19.417,11.05
	v-0.69l0.783,0.053v0.681L19.417,11.05z M20.198,11.88v0.682l-0.785-0.024v-0.69L20.198,11.88z M19.419,10.003v-0.69l0.784,0.064
	v0.682L19.419,10.003z M19.422,8.503v-0.69l0.784,0.084v0.682L19.422,8.503z M19.425,7.456v-0.69l0.784,0.097v0.682L19.425,7.456z
	 M19.347,4.219l0.785,0.129V5.03l-0.785-0.121V4.219z M18.299,11.027v-0.702l0.813,0.053v0.693L18.299,11.027z M19.108,11.872v0.694
	l-0.813-0.025v-0.702L19.108,11.872z M18.302,9.961V9.259l0.813,0.066v0.694L18.302,9.961z M18.304,8.435V7.732l0.813,0.086v0.693
	L18.304,8.435z M18.307,7.369V6.666l0.813,0.101V7.46L18.307,7.369z M18.226,4.073l0.814,0.133V4.9l-0.814-0.124V4.073z
	 M16.792,10.945v-0.719l0.852,0.056v0.71L16.792,10.945z M17.641,11.812v0.71l-0.852-0.025v-0.72L17.641,11.812z M16.795,9.854
	V9.135l0.852,0.07v0.709L16.795,9.854z M16.798,8.291V7.572l0.852,0.09v0.71L16.798,8.291z M16.801,7.199V6.48l0.852,0.104v0.71
	L16.801,7.199z M16.716,3.825l0.854,0.14v0.711l-0.854-0.131V3.825z M15.577,10.92v-0.732l0.883,0.058v0.723L15.577,10.92z
	 M16.457,11.803v0.723l-0.883-0.026v-0.732L16.457,11.803z M15.58,9.809V9.075l0.884,0.072V9.87L15.58,9.809z M15.583,8.216V7.483
	l0.883,0.093V8.3L15.583,8.216z M15.586,7.104V6.371l0.884,0.108v0.724L15.586,7.104z M15.498,3.666l0.886,0.145v0.724l-0.886-0.135
	V3.666z M15.494,4.779l0.886,0.13v0.724l-0.886-0.12V4.779z M15.57,12.879l0.884,0.021v0.723l-0.884-0.012V12.879z M16.46,18.991
	l-0.883,0.062V18.32l0.883-0.053V18.991z M16.464,17.894L15.58,17.94v-0.733l0.884-0.037V17.894z M16.467,16.335l-0.884,0.026
	v-0.733l0.884-0.016V16.335z M16.47,15.238l-0.883,0.011v-0.733l0.883-0.001V15.238z M16.713,4.918l0.854,0.125v0.711l-0.854-0.116
	V4.918z M16.786,12.868l0.852,0.021v0.71l-0.852-0.011V12.868z M17.644,18.869l-0.852,0.059v-0.719l0.852-0.05V18.869z
	 M17.646,17.791l-0.852,0.045v-0.719l0.852-0.035V17.791z M17.649,16.262l-0.852,0.024v-0.72l0.852-0.014V16.262z M17.652,15.185
	l-0.851,0.01v-0.72h0.851V15.185z M18.223,5.14l0.814,0.12v0.694l-0.814-0.11V5.14z M18.293,12.905l0.813,0.02v0.694l-0.813-0.012
	V12.905z M19.11,18.769l-0.813,0.056v-0.702l0.813-0.048V18.769z M19.114,17.716l-0.813,0.042v-0.702l0.813-0.034V17.716z
	 M19.116,16.221l-0.812,0.023v-0.703l0.812-0.014V16.221z M19.119,15.168l-0.812,0.01v-0.703h0.812V15.168z M19.343,5.267
	l0.787,0.116v0.683l-0.787-0.108V5.267z M19.411,12.895l0.784,0.02v0.682l-0.784-0.011V12.895z M20.2,18.655l-0.784,0.054v-0.69
	l0.784-0.045V18.655z M20.203,17.621l-0.784,0.04v-0.69l0.784-0.031V17.621z M20.206,16.152l-0.784,0.021v-0.69l0.784-0.013V16.152z
	 M20.209,15.118l-0.784,0.009v-0.69h0.784V15.118z M20.726,12.887l0.752,0.02v0.667l-0.752-0.011V12.887z M21.482,18.527
	l-0.752,0.051v-0.676l0.752-0.042V18.527z M21.485,17.515l-0.752,0.038v-0.676l0.752-0.029V17.515z M21.487,16.076l-0.751,0.021
	v-0.675l0.751-0.013V16.076z M21.49,15.064l-0.751,0.007v-0.675h0.751V15.064z M21.493,6.211l-0.752-0.103V5.433l0.752,0.111V6.211z
	 M21.496,5.199l-0.752-0.116V4.408l0.752,0.123V5.199z M21.757,10.465l0.727,0.048v0.656l-0.727-0.04V10.465z M22.489,11.927v0.655
	l-0.727-0.022v-0.664L22.489,11.927z M21.76,12.877l0.727,0.02v0.655l-0.727-0.011V12.877z M22.491,18.423l-0.726,0.049v-0.664
	l0.726-0.041V18.423z M22.494,17.427l-0.727,0.037v-0.665l0.727-0.028V17.427z M22.497,16.013l-0.727,0.02v-0.664l0.727-0.011
	V16.013z M22.499,15.018l-0.726,0.007V14.36l0.726,0.001V15.018z M22.499,7.753L21.772,7.67V7.006l0.727,0.091V7.753z M22.502,6.313
	l-0.727-0.101V5.549l0.727,0.108V6.313z M22.505,5.318l-0.727-0.112V4.542l0.727,0.12V5.318z M23.749,9.585l3.609,0.304v0.602
	l-3.609-0.264V9.585z M23.688,14.343l3.616,0.007v0.603l-3.616,0.033V14.343z M23.688,15.278l3.616-0.052v0.604l-3.616,0.091V15.278
	z M27.31,18.041l-3.616,0.239v-0.644l3.616-0.198V18.041z M27.315,17.167L23.7,17.348v-0.643l3.615-0.141V17.167z M27.332,13.569
	l-3.613-0.06v-0.642l3.613,0.099V13.569z M27.338,12.752l-3.612-0.113v-0.643l3.612,0.154V12.752z M27.358,11.367l-3.609-0.205
	V10.52l3.609,0.246V11.367z M27.377,9.263l-3.606-0.346V8.275l3.606,0.386V9.263z M27.384,8.447l-3.606-0.4V7.405l3.606,0.439V8.447
	z M30.866,14.295l0.522,0.002v0.557l-0.522,0.004V14.295z M30.124,14.324l0.539,0.001v0.565l-0.539,0.005V14.324z M29.133,14.321
	l0.56,0.002v0.575l-0.56,0.005V14.321z M28.34,14.352l0.576,0.001v0.585l-0.576,0.006V14.352z M28.337,15.249l0.577-0.009v0.585
	l-0.577,0.015V15.249z M28.932,17.897l-0.576,0.037v-0.591l0.576-0.031V17.897z M28.934,17.01l-0.576,0.028v-0.591l0.576-0.022
	V17.01z M28.94,13.693l-0.576-0.008v-0.591l0.576,0.015V13.693z M28.942,12.807l-0.575-0.018v-0.591l0.575,0.023V12.807z
	 M29.131,15.205l0.56-0.008v0.576l-0.56,0.014V15.205z M29.708,17.814l-0.56,0.036v-0.582l0.56-0.03V17.814z M29.71,16.94
	l-0.56,0.026v-0.582l0.56-0.021V16.94z M29.716,13.673l-0.559-0.008v-0.582l0.559,0.015V13.673z M29.718,12.799l-0.559-0.018v-0.582
	l0.559,0.024V12.799z M30.122,15.191l0.539-0.008v0.565l-0.539,0.014V15.191z M30.678,17.752l-0.538,0.035v-0.571l0.538-0.029
	V17.752z M30.68,16.895l-0.538,0.025v-0.571l0.538-0.02V16.895z M30.686,13.688l-0.538-0.008v-0.571l0.538,0.015V13.688z
	 M30.688,12.83l-0.538-0.017v-0.571l0.538,0.023V12.83z M30.864,15.149l0.522-0.007v0.557l-0.522,0.014V15.149z M31.403,17.674
	l-0.523,0.034v-0.563l0.523-0.027V17.674z M31.405,16.828l-0.523,0.025V16.29l0.523-0.019V16.828z M31.411,13.668l-0.522-0.008
	v-0.563l0.522,0.015V13.668z M31.413,12.822l-0.522-0.017v-0.563l0.522,0.022V12.822z"/>
</g>
<g>
</g>
<g>
</g>
<g>
</g>
<g>
</g>
<g>
</g>
<g>
</g>
<g>
</g>
<g>
</g>
<g>
</g>
<g>
</g>
<g>
</g>
<g>
</g>
<g>
</g>
<g>
</g>
</svg>
