<?xml version="1.0" encoding="utf-8"?>
<!-- Generator: Adobe Illustrator 16.0.4, SVG Export Plug-In . SVG Version: 6.00 Build 0)  -->
<!DOCTYPE svg PUBLIC "-//W3C//DTD SVG 1.1//EN" "http://www.w3.org/Graphics/SVG/1.1/DTD/svg11.dtd">
<svg version="1.1" id="Layer_1" xmlns="http://www.w3.org/2000/svg" xmlns:xlink="http://www.w3.org/1999/xlink" x="0px" y="0px"
	 width="32px" height="25.805px" viewBox="0 0 32 25.805" enable-background="new 0 0 32 25.805" xml:space="preserve">
<g>
	<path d="M28.475,6.878l-2.271,2.304l-6.44,0.878l-3.422-4.566L12.316,8.97L12.28,8.976L1.279,10.991v9.203l11.053,1.295l7.49-0.879
		v-0.016l0.949,0.076v-3.461l3.592,0.045v3.709l0.672,0.057v0.006l0.029-0.004l0.059,0.004v-0.014l6.133-0.939v-8.82L28.475,6.878z
		 M1.934,11.468l1.105-0.177v1.057l-1.105,0.142V11.468z M3.056,13.316v1.057L1.95,14.446v-1.021L3.056,13.316z M1.946,15.44
		l1.105-0.039v1.059l-1.105,0.002V15.44z M3.1,18.475L1.992,18.41v-1.021L3.1,17.416V18.475z M3.707,11.191l1.234-0.198v1.117
		l-1.234,0.158V11.191z M4.994,13.118v1.119l-1.237,0.082v-1.078L4.994,13.118z M3.721,15.383l1.235-0.043v1.117l-1.235,0.004
		V15.383z M5.01,18.592L3.771,18.52v-1.078l1.239,0.031V18.592z M5.663,10.861l1.386-0.225v1.187l-1.386,0.178V10.861z
		 M7.109,12.891v1.187l-1.39,0.092v-1.14L7.109,12.891z M5.679,15.299l1.387-0.051v1.188L5.679,16.44V15.299z M7.126,18.699
		l-1.392-0.08v-1.143l1.392,0.033V18.699z M7.738,10.527l1.556-0.251v1.258l-1.556,0.2V10.527z M9.362,12.667v1.259l-1.561,0.105
		v-1.209L9.362,12.667z M7.756,15.225l1.557-0.057v1.258l-1.557,0.006V15.225z M9.381,18.83l-1.563-0.092V17.53l1.563,0.041V18.83z
		 M10.021,10.153l1.756-0.282v1.337l-1.756,0.228V10.153z M11.854,12.413v1.339l-1.763,0.119v-1.284L11.854,12.413z M10.041,15.137
		l1.758-0.062v1.338l-1.758,0.006V15.137z M11.876,18.967l-1.765-0.102v-1.283l1.765,0.045V18.967z M13.354,9.925l1.487,0.24v1.31
		l-1.487-0.192V9.925z M14.896,12.611v1.307l-1.483-0.1v-1.357L14.896,12.611z M13.405,15.041l1.483,0.055v1.307l-1.483-0.006
		V15.041z M14.943,18.836l-1.479,0.086v-1.354l1.479-0.037V18.836z M15.817,10.352l1.317,0.212v1.231l-1.317-0.169V10.352z
		 M17.184,12.868v1.23L15.87,14.01v-1.273L17.184,12.868z M15.862,15.16l1.313,0.047v1.23l-1.313-0.004V15.16z M17.225,18.733
		l-1.311,0.076v-1.273l1.311-0.033V18.733z M17.996,10.661l1.175,0.19v1.165l-1.175-0.151V10.661z M19.214,13.029v1.163
		l-1.172-0.078v-1.203L19.214,13.029z M18.036,15.198l1.172,0.043v1.164l-1.172-0.006V15.198z M19.251,18.573l-1.169,0.064V17.44
		l1.169-0.029V18.573z M20.695,11.087l1.229-0.134v1.14l-1.229,0.106V11.087z M20.7,13.173l1.228-0.082v1.14L20.7,14.285V13.173z
		 M21.979,16.395l-1.229,0.004v-1.113l1.229-0.031V16.395z M24.35,16.446l-1.345,0.002v-1.162l1.345-0.033V16.446z M24.395,14.178
		l-1.347,0.061v-1.165l1.347-0.089V14.178z M24.395,11.927l-1.346,0.115v-1.164l1.346-0.145V11.927z M27.122,10.338l1.067,0.244
		v0.958l-1.067-0.204V10.338z M25.475,9.94l1.198,0.273v1.015l-1.198-0.231V9.94z M26.589,18.166l-1.206,0.07v-1.062l1.206-0.025
		V18.166z M26.609,16.365l-1.205-0.008v-1.062l1.205,0.055V16.365z M26.624,14.709l-1.203-0.08v-1.059l1.203,0.125V14.709z
		 M26.697,12.965L25.5,12.81v-1.057l1.197,0.199V12.965z M28.133,18.098l-1.072,0.062v-1l1.072-0.023V18.098z M28.15,16.397
		l-1.07-0.006v-0.998l1.07,0.045V16.397z M28.164,14.832l-1.07-0.07v-0.998l1.07,0.109V14.832z M28.211,13.182l-1.066-0.139v-0.996
		l1.066,0.178V13.182z M30.053,11.005l0.854,0.195v0.858l-0.854-0.164V11.005z M28.695,10.692l0.951,0.217v0.904l-0.951-0.184
		V10.692z M29.596,18.004l-0.953,0.057v-0.941l0.953-0.02V18.004z M29.611,16.399l-0.952-0.006v-0.939l0.952,0.041V16.399z
		 M29.623,14.922l-0.952-0.062V13.92l0.952,0.1V14.922z M29.665,13.364l-0.948-0.123v-0.939l0.948,0.158V13.364z M30.861,17.934
		l-0.857,0.051v-0.893l0.857-0.02V17.934z M30.875,16.41l-0.855-0.006v-0.893l0.855,0.037V16.41z M30.887,15.008l-0.854-0.057
		v-0.889l0.854,0.086V15.008z M30.924,13.53L30.07,13.42v-0.889l0.854,0.142V13.53z"/>
	<polygon points="12.198,8.724 16.383,5.109 19.882,9.777 26.079,8.932 28.52,6.458 31.55,11.225 32,11.231 28.766,6.004 
		18.879,7.568 16.396,4.316 2.306,8.019 0,10.958 	"/>
</g>
</svg>
