<?xml version="1.0" encoding="iso-8859-1"?>
<!-- Generator: Adobe Illustrator 16.0.0, SVG Export Plug-In . SVG Version: 6.00 Build 0)  -->
<!DOCTYPE svg PUBLIC "-//W3C//DTD SVG 1.1//EN" "http://www.w3.org/Graphics/SVG/1.1/DTD/svg11.dtd">
<svg version="1.1" id="Layer_1" xmlns="http://www.w3.org/2000/svg" xmlns:xlink="http://www.w3.org/1999/xlink" x="0px" y="0px"
	 width="27.713px" height="31.984px" viewBox="0 0 27.713 31.984" style="enable-background:new 0 0 27.713 31.984;"
	 xml:space="preserve">
<g>
<path d="M23.813,15.091V4.192l-2.797-0.884V2.241L14.291,0L8.697,1.587v0.965L6.011,3.279v10.168L0,14.267v16.692l8.456,1.025
	l0.018-0.026l1.495-0.181v-4.724l2.363-0.139v4.577l1.608-0.202v-4.483l2.115-0.123v4.345l1.03-0.109l-0.012-8.249h4.011v7.495
	l1.471-0.18v-3.822l1.622-0.091v3.716l1.114-0.137v-3.652l1.479-0.083v3.555l0.942-0.115V15.597L23.813,15.091z M1.849,25.559
	L0.62,25.508v-1.096l1.229,0.03V25.559z M1.849,23.627L0.62,23.612v-1.097l1.229-0.005V23.627z M1.859,21.734l-1.229,0.02v-1.097
	l1.229-0.039V21.734z M1.859,19.865l-1.229,0.054v-1.097l1.229-0.073V19.865z M1.859,17.901l-1.229,0.09v-1.097l1.229-0.109V17.901z
	 M3.806,25.607l-1.3-0.053v-1.127l1.3,0.031V25.607z M3.806,23.62l-1.3-0.016v-1.127l1.3-0.006V23.62z M3.817,21.672l-1.301,0.021
	v-1.128l1.301-0.042V21.672z M3.817,19.748l-1.301,0.058v-1.127L3.817,18.6V19.748z M3.817,17.728l-1.301,0.096v-1.128l1.301-0.116
	V17.728z M5.784,25.699l-1.375-0.056v-1.159l1.375,0.033V25.699z M5.784,23.655l-1.375-0.018v-1.158l1.375-0.006V23.655z
	 M5.796,21.651l-1.375,0.021v-1.158l1.375-0.045V21.651z M5.796,19.673l-1.375,0.06v-1.158l1.375-0.083V19.673z M5.796,17.594
	l-1.375,0.101v-1.159l1.375-0.123V17.594z M7.108,4.706l1.57-0.388v2.407l-1.57,0.337V4.706z M7.107,8.485l1.57-0.307v2.407
	l-1.57,0.256V8.485z M7.917,25.792l-1.457-0.06V24.54l1.457,0.035V25.792z M7.917,23.687L6.46,23.669v-1.193l1.457-0.006V23.687z
	 M7.931,21.622l-1.458,0.023v-1.192l1.458-0.048V21.622z M7.931,19.585l-1.458,0.063v-1.193l1.458-0.088V19.585z M7.931,17.444
	L6.473,17.55v-1.192l1.458-0.131V17.444z M8.689,13.207l-0.373-0.048l-1.197,0.149v-0.967l1.57-0.224V13.207z M13.344,19.79v-1.203
	l1.286,0.078v1.181L13.344,19.79z M14.607,20.565v1.181l-1.287-0.02v-1.203L14.607,20.565z M14.619,16.735v1.181l-1.287-0.093
	v-1.202L14.619,16.735z M13.614,13.83l-1.783-0.226v-1.906l1.783-0.253V13.83z M11.819,3.568l1.782-0.439v2.566l-1.782,0.382V3.568z
	 M11.818,7.592l1.782-0.347v2.566l-1.782,0.289V7.592z M9.461,4.13l1.675-0.414v2.487L9.461,6.563V4.13z M9.461,8.031l1.675-0.327
	v2.487l-1.675,0.272V8.031z M9.205,16.233l1.443,0.129v1.25l-1.443-0.104V16.233z M9.244,18.346l1.441,0.087v1.249l-1.441-0.063
	V18.346z M10.698,20.379v1.249l-1.441-0.023v-1.273L10.698,20.379z M9.257,22.463l1.441,0.007v1.249l-1.441,0.019V22.463z
	 M10.728,25.764l-1.44,0.06V24.55l1.44-0.034V25.764z M11.147,13.518l-1.675-0.212v-1.294l1.675-0.238V13.518z M11.397,16.445
	l1.359,0.121v1.213l-1.359-0.098V16.445z M11.409,18.467l1.359,0.083v1.212l-1.359-0.059V18.467z M12.78,20.464v1.213l-1.358-0.022
	v-1.235L12.78,20.464z M11.422,22.488l1.358,0.006v1.213l-1.358,0.018V22.488z M12.796,25.673l-1.357,0.057v-1.236l1.357-0.032
	V25.673z M13.319,22.538l1.288,0.005v1.181l-1.288,0.018V22.538z M14.638,25.612l-1.285,0.053v-1.202l1.285-0.031V25.612z
	 M15.113,3.143l1.728,0.503v2.426l-1.728-0.45V3.143z M15.171,7.36l1.725,0.395v2.423l-1.725-0.341V7.36z M16.448,18.036
	l-1.218-0.088v-1.17l1.218,0.108V18.036z M16.459,18.765v1.148l-1.217-0.053v-1.169L16.459,18.765z M16.438,20.614v1.148
	l-1.218-0.019v-1.17L16.438,20.614z M16.438,22.538v1.148l-1.219,0.017v-1.17L16.438,22.538z M16.462,25.562l-1.218,0.051v-1.169
	l1.218-0.03V25.562z M16.909,14.224l-1.724-0.235v-2.476l1.724,0.287V14.224z M26.158,17.707l0.856,0.077v0.964l-0.856-0.063V17.707
	z M27.021,19.36v0.965l-0.855-0.038v-0.979L27.021,19.36z M26.15,20.885l0.856,0.028v0.965l-0.856-0.014V20.885z M24.834,17.597
	l0.896,0.081v0.986L24.834,18.6V17.597z M25.737,19.291v0.986l-0.896-0.039v-1.002L25.737,19.291z M24.825,20.85l0.896,0.03v0.986
	l-0.896-0.014V20.85z M19.812,4.501l1.497,0.436v2.261l-1.497-0.392V4.501z M21.355,8.765v2.259l-1.494-0.297V8.423L21.355,8.765z
	 M19.237,12.195v2.337l-1.603-0.219v-2.386L19.237,12.195z M19.225,10.631l-1.604-0.317V7.927l1.604,0.367V10.631z M17.568,3.864
	l1.605,0.467V6.67l-1.605-0.418V3.864z M21.124,21.816l-4.038-0.035v-1.135l4.038,0.102V21.816z M21.161,20.136l-4.086-0.204v-1.134
	l4.086,0.27V20.136z M21.18,18.348l-4.104-0.267v-1.134l4.104,0.332V18.348z M21.367,14.793l-1.494-0.205v-2.303l1.494,0.249V14.793
	z M21.962,5.135l1.396,0.407v2.184l-1.396-0.364V5.135z M23.402,9.241v2.183l-1.395-0.277V8.922L23.402,9.241z M21.996,17.326
	l0.986,0.089v1.035l-0.986-0.072V17.326z M22.022,19.068l0.985,0.061v1.033l-0.985-0.043V19.068z M23.017,20.74v1.033l-0.985-0.017
	v-1.051L23.017,20.74z M22.031,22.466l0.984,0.006v1.033l-0.984,0.013V22.466z M23.036,25.199l-0.984,0.039v-1.051l0.984-0.022
	V25.199z M23.413,15.066l-1.394-0.191v-2.224l1.394,0.232V15.066z M23.496,17.475l0.938,0.084v1.01L23.496,18.5V17.475z
	 M23.505,19.151l0.938,0.058v1.009l-0.938-0.041V19.151z M24.451,20.802v1.01l-0.938-0.017V20.77L24.451,20.802z M23.514,22.487
	l0.938,0.005v1.009l-0.938,0.011V22.487z M24.462,25.137l-0.938,0.038V24.15l0.938-0.022V25.137z M24.824,22.528l0.897,0.004v0.987
	l-0.897,0.012V22.528z M25.743,25.098l-0.896,0.036v-1.002l0.896-0.021V25.098z M26.149,22.524l0.856,0.004v0.965l-0.856,0.011
	V22.524z M27.023,25.067l-0.855,0.035v-0.979l0.855-0.02V25.067z"/>
</g>
<g>
</g>
<g>
</g>
<g>
</g>
<g>
</g>
<g>
</g>
<g>
</g>
<g>
</g>
<g>
</g>
<g>
</g>
<g>
</g>
<g>
</g>
<g>
</g>
<g>
</g>
<g>
</g>
</svg>
