<?xml version="1.0" encoding="iso-8859-1"?>
<!-- Generator: Adobe Illustrator 16.0.0, SVG Export Plug-In . SVG Version: 6.00 Build 0)  -->
<!DOCTYPE svg PUBLIC "-//W3C//DTD SVG 1.1//EN" "http://www.w3.org/Graphics/SVG/1.1/DTD/svg11.dtd">
<svg version="1.1" id="Layer_1" xmlns="http://www.w3.org/2000/svg" xmlns:xlink="http://www.w3.org/1999/xlink" x="0px" y="0px"
	 width="32px" height="31.768px" viewBox="0 0 32 31.768" style="enable-background:new 0 0 32 31.768;" xml:space="preserve">
<g>
	<polygon points="15.002,8.575 21.504,1.579 28.31,10.149 29.679,10.282 21.96,0 10.971,2.709 4.172,9.9 	"/>
	<path d="M27.445,18.618v-8.47L21.467,2.55l-6.158,6.626L4.737,10.469v8.144L0,22.555l2.813,0.037l-0.001,7.839l12.308,1.337
		l7.522-0.766v-7.731l4.434-0.084v7.364l2.213-0.226v-7.56H32L27.445,18.618z M6.002,12.348l3.033-0.301v3.462l-3.033,0.19V12.348z
		 M9.134,27.03l-3.039-0.176v-3.355l3.039,0.066V27.03z M9.134,21.407l-3.039,0.002v-3.354l3.039-0.113V21.407z M10.479,11.866
		l3.341-0.332v3.635l-3.341,0.212V11.866z M13.929,27.27l-3.348-0.192V23.56l3.348,0.071V27.27z M13.929,21.363l-3.348,0.005V17.85
		l3.348-0.126V21.363z M16.667,11.496l3.622,0.363v3.544l-3.622-0.229V11.496z M16.789,17.577l3.613,0.143v3.54l-3.613-0.009V17.577
		z M20.578,27.005l-3.601,0.207v-3.666l3.601-0.074V27.005z M21.256,8.92c-0.685-0.091-1.247-1.006-1.247-2.043
		s0.563-1.781,1.247-1.664C21.93,5.328,22.47,6.24,22.47,7.251S21.93,9.009,21.256,8.92z M22.371,12.096l3.227,0.322v3.349
		l-3.227-0.204V12.096z M25.698,21.299l-3.218-0.008v-3.463l3.218,0.126V21.299z"/>
</g>
<g>
</g>
<g>
</g>
<g>
</g>
<g>
</g>
<g>
</g>
<g>
</g>
<g>
</g>
<g>
</g>
<g>
</g>
<g>
</g>
<g>
</g>
<g>
</g>
<g>
</g>
<g>
</g>
<g>
</g>
</svg>
