<?xml version="1.0" encoding="iso-8859-1"?>
<!-- Generator: Adobe Illustrator 16.0.0, SVG Export Plug-In . SVG Version: 6.00 Build 0)  -->
<!DOCTYPE svg PUBLIC "-//W3C//DTD SVG 1.1//EN" "http://www.w3.org/Graphics/SVG/1.1/DTD/svg11.dtd">
<svg version="1.1" id="Layer_1" xmlns="http://www.w3.org/2000/svg" xmlns:xlink="http://www.w3.org/1999/xlink" x="0px" y="0px"
	 width="23.06px" height="32px" viewBox="0 0 23.06 32" style="enable-background:new 0 0 23.06 32;" xml:space="preserve">
<g>
<path d="M20.312,5.488V0.566l-8.739-0.56V0L3.333,0.572v4.867L0,5.569v1.958l1.239-0.033v23.3l0.992,0.118v-5.26l3.36,0.295v5.367
	l1.003,0.121V26.06l3.549,0.313v5.488L11.31,32l11.194-1.353V7.786L23.06,7.8V5.596L20.312,5.488z M4.237,9.844l1.512-0.018v1.478
	l-1.512,0.004V9.844z M4.237,12.153l1.512,0.005v1.478l-1.512-0.019V12.153z M2.271,9.838l1.476-0.017v1.459l-1.476,0.004V9.838z
	 M2.271,12.12l1.476,0.004v1.459l-1.476-0.018V12.12z M3.706,23.83l-1.475-0.111v-1.445l1.475,0.098V23.83z M3.706,21.527
	l-1.475-0.09v-1.445l1.475,0.076V21.527z M3.788,18.732l-1.477-0.064v-1.446l1.477,0.051V18.732z M3.788,16.429l-1.477-0.043v-1.446
	l1.477,0.029V16.429z M5.707,24.01l-1.511-0.114v-1.463l1.511,0.1V24.01z M5.707,21.679l-1.511-0.093v-1.463l1.511,0.079V21.679z
	 M5.791,18.849l-1.513-0.066v-1.464l1.513,0.053V18.849z M5.791,16.517l-1.513-0.045v-1.464l1.513,0.031V16.517z M4.251,4.876V3.732
	l6.218-0.308v1.188L4.251,4.876z M8.832,11.349V9.843l1.6-0.018v1.52L8.832,11.349z M10.432,12.224v1.52l-1.6-0.019v-1.506
	L10.432,12.224z M6.754,11.324V9.837l1.56-0.018v1.501L6.754,11.324z M8.313,12.188v1.501l-1.56-0.02v-1.486L8.313,12.188z
	 M8.271,24.226l-1.559-0.118v-1.485l1.559,0.104V24.226z M8.271,21.858l-1.559-0.096v-1.486l1.559,0.082V21.858z M8.357,18.983
	l-1.561-0.068v-1.486l1.561,0.054V18.983z M8.357,16.615l-1.561-0.046v-1.487l1.561,0.032V16.615z M10.389,24.416l-1.6-0.121V22.79
	l1.6,0.106V24.416z M10.389,22.019l-1.6-0.099v-1.505l1.6,0.084V22.019z M10.477,19.106l-1.601-0.07V17.53l1.601,0.057V19.106z
	 M10.477,16.708L8.876,16.66v-1.506l1.601,0.033V16.708z M10.501,2.465L4.28,2.808v-1.15l6.221-0.388V2.465z M19.661,15.034
	l1.311,0.004v1.396l-1.311,0.011V15.034z M13.325,1.404l5.878,0.362v1.097L13.325,2.54V1.404z M13.294,3.475l5.881,0.29v1.097
	l-5.881-0.25V3.475z M17.803,15.107l1.35,0.004v1.416l-1.35,0.012V15.107z M15.318,15.101l1.401,0.004v1.443l-1.401,0.012V15.101z
	 M13.33,15.178l1.444,0.002v1.466l-1.444,0.014V15.178z M13.325,17.426l1.444-0.021v1.465l-1.444,0.038V17.426z M14.813,24.062
	l-1.443,0.094v-1.48l1.443-0.078V24.062z M14.819,21.838l-1.443,0.07v-1.481l1.443-0.054V21.838z M14.836,13.527l-1.443-0.021v-1.48
	l1.443,0.037V13.527z M14.841,11.306l-1.442-0.046v-1.48l1.442,0.062V11.306z M15.313,17.315l1.401-0.02v1.443l-1.401,0.035V17.315z
	 M16.759,23.854l-1.4,0.092v-1.459l1.4-0.075V23.854z M16.764,21.664l-1.401,0.066v-1.458l1.401-0.052V21.664z M16.779,13.476
	l-1.399-0.021v-1.458l1.399,0.036V13.476z M16.784,11.286l-1.399-0.045V9.783l1.399,0.061V11.286z M17.798,17.28l1.349-0.019v1.416
	l-1.349,0.034V17.28z M19.188,23.697l-1.349,0.087v-1.431l1.349-0.072V23.697z M19.193,21.548l-1.348,0.064v-1.431l1.348-0.051
	V21.548z M19.209,13.514l-1.348-0.021v-1.432l1.348,0.036V13.514z M19.214,11.364l-1.348-0.043V9.891l1.348,0.058V11.364z
	 M19.655,17.177l1.312-0.019v1.396l-1.312,0.033V17.177z M21.008,23.502l-1.311,0.084v-1.409l1.311-0.07V23.502z M21.012,21.384
	l-1.31,0.062v-1.411l1.31-0.047V21.384z M21.027,13.464l-1.31-0.021v-1.41l1.31,0.034V13.464z M21.032,11.345l-1.31-0.042v-1.41
	l1.31,0.058V11.345z"/>
</g>
<g>
</g>
<g>
</g>
<g>
</g>
<g>
</g>
<g>
</g>
<g>
</g>
<g>
</g>
<g>
</g>
<g>
</g>
<g>
</g>
<g>
</g>
<g>
</g>
<g>
</g>
<g>
</g>
</svg>
