<?xml version="1.0" encoding="iso-8859-1"?>
<!-- Generator: Adobe Illustrator 17.1.0, SVG Export Plug-In . SVG Version: 6.00 Build 0)  -->
<!DOCTYPE svg PUBLIC "-//W3C//DTD SVG 1.1//EN" "http://www.w3.org/Graphics/SVG/1.1/DTD/svg11.dtd">
<svg version="1.1" id="Capa_1" xmlns="http://www.w3.org/2000/svg" xmlns:xlink="http://www.w3.org/1999/xlink" x="0px" y="0px"
	 viewBox="0 0 150 150" style="enable-background:new 0 0 150 150;" xml:space="preserve">
<g>
<path d="M145.925,65.578c-0.342-0.793-0.932-1.365-1.574-1.965c-0.642-0.6-1.214-1.22-1.997-1.676
	c-0.765-0.446-1.533-0.637-2.388-0.621c-0.24,0.004-0.48-0.007-0.72-0.01c-1.225-0.019-1.358-0.082-1.539-1.281
	c-0.016-0.109-0.117-0.184-0.226-0.167c-0.46,0.073-0.92,0.149-1.382,0.211c-0.203,0.027-0.518,0.099-0.603-0.001
	c-0.776-0.915-2.225-0.872-2.885-1.935c-0.058-0.094-0.174-0.219-0.27-0.274c-1.644-0.956-3.141-2.226-5.154-2.393
	c-0.019-0.002-0.037-0.02-0.054-0.041c-0.024-0.03-0.076-0.053-0.116-0.053c-0.04,0-0.16,0.02-0.268,0.042
	c-0.139,0.029-0.277,0.058-0.412,0.1c-1.001,0.313-2.081,0.489-2.98,0.988c-1.189,0.659-2.235,1.575-3.344,2.379
	c-0.891,0.645-1.735,1.373-2.685,1.914c-2.62,1.492-5.349,1.694-8.254,0.756c-2.777-0.898-5.67-1.232-8.603-1.086
	c-0.645,0.032-1.29,0.062-1.934,0.093c-0.528,0.015-1.056,0.04-1.583,0.076c-1.845,0.087-3.69,0.173-5.536,0.257
	c-0.6,0.027-1.218-0.059-1.797,0.059c-1.711,0.347-3.406,0.772-5.109,1.161c-2.496,0.569-4.975,1.246-7.497,1.666
	c-2.519,0.42-5.078,0.633-7.627,0.841c-1.889,0.154-3.792,0.137-5.687,0.23c-0.557,0.027-1.114,0.051-1.67,0.069
	c-0.182-0.005-0.364-0.008-0.545-0.013c-0.116-0.004-0.231,0.001-0.344,0.013c-0.11,0.012-0.288,0.031-0.399,0.032
	c-3.317,0.059-6.624-0.093-9.9-0.707c-0.387-0.072-0.773-0.147-1.16-0.223c-1.312-0.299-2.629-0.581-3.95-0.833
	c-1.388-0.31-2.772-0.634-4.154-0.968c-3.799-0.917-7.625-0.857-11.456-0.427c-3.529,0.396-6.989,1.172-10.369,2.27
	c-0.105,0.034-0.237,0.071-0.294,0.082c-0.034,0.007-0.069,0.013-0.103,0.02c-0.053,0.011-0.102,0.026-0.147,0.044
	c-0.079,0.033-0.22,0.104-0.325,0.139c-2.134,0.705-4.272,1.403-6.391,2.15c-2.812,0.991-5.504,2.249-8.046,3.814
	c-0.119,0.073-0.215,0.182-0.312,0.291c-0.073,0.083-0.05,0.174,0.059,0.192c0.236,0.04,0.421,0.015,0.588-0.054
	c1.376-0.563,2.73-1.183,4.121-1.704c1.746-0.654,3.487-1.371,5.292-1.81c3.071-0.747,6.188-1.309,9.29-1.929
	c2.633-0.526,5.275-0.784,7.923-0.671c3.071,0.265,6.109,0.91,9.102,1.701c1.516,0.401,3.025,0.829,4.531,1.271
	c0.56,0.198,1.119,0.406,1.674,0.626c2.109,0.835,4.29,1.548,6.498,2.059c3.011,0.697,6.084,1.117,9.119,1.714
	c3.815,0.75,7.557,1.687,11.036,3.561c1.495,0.805,3.017,1.821,4.882,1.673c0.025-0.002,0.052,0.018,0.098,0.049
	c0.05,0.035,0.104,0.149,0.117,0.258c0.119,1.01,0.232,2.06,0.38,3.105c0.076,0.532-0.049,0.883-0.532,1.188
	c-1.572,0.989-2.61,2.419-3.186,4.138c-0.06,0.142-0.107,0.29-0.142,0.442c-0.475,1.462-1.374,2.609-2.612,3.406
	c-1.782,1.147-3.302,2.562-4.742,4.079c-0.428,0.451-0.747,1.035-1.009,1.607c-0.532,1.163-0.667,2.578-2.229,3.175
	c-0.103,0.039-0.106,0.099-0.003,0.14c0.309,0.122,0.536,0.212,0.75,0.297c0.103,0.041,0.169,0.162,0.144,0.269
	c-0.194,0.858-0.527,1.645-1.222,2.185c-0.97,0.755-1.127,1.653-0.725,2.74c0.083,0.224,0.155,0.459,0.185,0.694
	c0.112,0.884,0.532,1.584,1.233,2.118c0.776,0.592,1.559,1.174,2.315,1.742c0.088,0.066,0.228,0.061,0.327,0.011
	c0.739-0.37,1.698,0.436,2.171-0.393c0.055-0.096,0.169-0.152,0.274-0.116c0.288,0.099,0.565,0.195,0.897,0.31
	c0.104,0.036,0.156-0.018,0.116-0.121c-0.048-0.126-0.07-0.19-0.103-0.247c-0.521-0.894-1.331-1.158-2.32-1.122
	c-0.888,0.032-1.552-0.318-1.922-1.207c-0.327-0.786-0.249-1.408,0.354-2.028c0.465-0.478,0.702-1.06,0.489-1.781
	c-0.097-0.329-0.119-0.762,0.014-1.065c0.829-1.884,1.708-3.747,2.583-5.611c0.1-0.212,0.262-0.402,0.42-0.578
	c0.542-0.602,1.138-1.159,1.635-1.795c1.097-1.401,2.506-2.302,4.222-2.687c1.376-0.309,2.786-0.467,4.157-0.792
	c0.627-0.149,1.213-0.472,1.723-0.707c0.1-0.046,0.252-0.025,0.338,0.045c0.637,0.517,1.21,1.003,1.811,1.451
	c0.898,0.669,1.741,1.365,1.911,2.57c0.003,0.019,0.022,0.036,0.045,0.052c0.032,0.023,0.117-0.024,0.191-0.106
	c0.02-0.023,0.042-0.046,0.065-0.071c0.074-0.082,0.162-0.063,0.196,0.042c0.344,1.048,0.641,2.056,1.025,3.031
	c0.337,0.857,0.655,1.783,1.237,2.459c0.364,0.422,0.49,0.717,0.413,1.197c-0.015,0.094-0.017,0.19-0.019,0.298
	c-0.002,0.11,0.076,0.16,0.171,0.103c0.837-0.502,1.013-1.283,0.915-2.236c-0.011-0.11,0.028-0.127,0.091-0.036
	c0.617,0.888,1.031,1.768,1.721,2.262c0.745,0.533,0.95,1.169,1.14,1.919c0.004,0.016,0.026,0.027,0.052,0.037
	c0.034,0.014,0.117-0.045,0.177-0.137c0.509-0.779,0.443-1.735-0.252-2.812c-0.989-1.535-1.837-3.102-2.135-4.858l-0.095-0.809
	c-0.027-0.406-0.027-0.822,0.012-1.251c0.081-0.893-0.201-1.077-1.083-1.191c-0.206-0.027-0.433-0.072-0.603-0.181
	c-1.31-0.847-2.613-1.704-3.906-2.577c-0.25-0.169-0.47-0.381-0.68-0.571c-0.082-0.074-0.081-0.191,0.007-0.259
	c0.461-0.356,1.011-0.637,1.145-1.053c0.475-1.47,1.486-1.728,2.806-1.585c0.256,0.028,0.523-0.063,0.786-0.079
	c1.099-0.066,2.198-0.157,3.298-0.177c1.055-0.019,2.112,0.067,3.167,0.053c1.289-0.018,2.305-0.43,2.795-1.802
	c0.209-0.585,0.572-1.039,1.062-1.334c0.095-0.057,0.261-0.123,0.366-0.157c0.114-0.037,0.227-0.074,0.34-0.112
	c0.105-0.035,0.25-0.076,0.323-0.087c0.043-0.007,0.087-0.012,0.132-0.017c0.477-0.05,0.951-0.135,1.43-0.17
	c3.176-0.232,6.197-1.001,8.979-2.589c0.144-0.082,0.272-0.129,0.388-0.129c0.11-0.001,0.248,0.117,0.316,0.204
	c0.144,0.186,0.288,0.372,0.433,0.558c0.018,0.024,0.039,0.045,0.06,0.064c0.036,0.032,0.124,0.125,0.189,0.214
	c0.752,1.022,1.505,2.042,2.243,3.075c0.329,0.461,0.612,0.954,0.91,1.437c0.058,0.094,0.162,0.143,0.231,0.11
	c0.069-0.033,0.094-0.145,0.055-0.248c-0.28-0.746-0.559-1.488-0.818-2.178c-0.039-0.103,0.02-0.193,0.13-0.2
	c0.48-0.031,0.97-0.063,1.46-0.095c0.11-0.007,0.196-0.06,0.192-0.117c-0.004-0.057-0.094-0.128-0.199-0.163
	c-0.796-0.264-1.411-0.721-1.949-1.276c-0.312-0.86-0.855-1.602-1.578-2.162c0.01-0.02,0.013-0.044,0.034-0.055
	c0.056-0.03,0.095-0.051,0.134-0.073c0.188-0.106,0.368-0.229,0.564-0.317c2.032-0.916,3.239-2.325,3.006-4.715
	c-0.083-0.851,0.59-1.561,1.407-1.893c1.418-0.576,2.869-1.103,4.209-1.831c1.285-0.698,2.411-0.619,3.572,0.151
	c0.976,0.646,1.998,1.232,2.922,1.945c1.823,1.408,3.591,2.888,5.384,4.336c0.523,0.422,1.023,0.884,1.587,1.243
	c0.748,0.476,1.629,0.593,2.393,0.397c0.107-0.028,0.283-0.059,0.385-0.101c0.102-0.041,0.183-0.109,0.198-0.12
	c0.015-0.011,0.107-0.062,0.2-0.123c0.061-0.039,0.119-0.082,0.176-0.126c0.087-0.068,0.118-0.213,0.077-0.316
	c-0.178-0.44-0.353-0.875-0.533-1.32c-0.041-0.102-0.149-0.135-0.24-0.073c-0.089,0.06-0.174,0.117-0.27,0.182
	c-0.092,0.062-0.179,0.103-0.194,0.092c-0.015-0.011,0.006-0.102,0.049-0.204c0.035-0.084,0.066-0.159,0.097-0.235
	c0.042-0.102-0.009-0.157-0.114-0.124c-0.047,0.015-0.089,0.028-0.129,0.041c-0.105,0.034-0.185-0.026-0.177-0.134
	c0.008-0.107-0.066-0.155-0.166-0.107c-0.058,0.028-0.112,0.054-0.166,0.08c-0.099,0.048-0.19-0.002-0.203-0.111
	c-0.029-0.246-0.055-0.475-0.08-0.695c-0.013-0.11-0.105-0.162-0.207-0.118c-0.074,0.032-0.154,0.067-0.24,0.105
	c-0.101,0.044-0.162-0.007-0.135-0.114c0.017-0.066,0.032-0.127,0.047-0.187c0.027-0.107-0.035-0.16-0.138-0.119
	c-0.115,0.046-0.224,0.09-0.342,0.138c-0.102,0.041-0.144-0.006-0.092-0.104c0.106-0.198,0.208-0.373,0.341-0.595
	c0.057-0.095,0.021-0.133-0.08-0.087c-0.183,0.084-0.319,0.147-0.451,0.208c-0.1,0.046-0.161-0.003-0.135-0.11
	c0.022-0.09,0.042-0.174,0.066-0.27c0.026-0.107-0.028-0.144-0.119-0.083c-0.094,0.063-0.176,0.118-0.266,0.178
	c-0.092,0.062-0.136,0.028-0.098-0.076c0.033-0.09,0.063-0.171,0.093-0.253c0.038-0.104-0.018-0.166-0.125-0.14
	c-0.009,0.002-0.018,0.004-0.027,0.007c-0.107,0.026-0.161-0.035-0.12-0.138c0.022-0.056,0.045-0.112,0.069-0.172
	c0.041-0.103-0.012-0.159-0.117-0.126l-0.002,0.001c-0.105,0.033-0.202-0.03-0.211-0.14c-0.008-0.09-0.021-0.174-0.068-0.231
	c-0.259-0.317-0.637-0.56-0.823-0.909c-0.661-1.24-0.296-2.353,0.544-3.371c0.201-0.243,0.393-0.526,0.646-0.68
	c0.094-0.057,0.215-0.076,0.257-0.065c0.028,0.007,0.054,0.014,0.075,0.022c0.108,0.041,0.219,0.063,0.33,0.069
	c0.11,0.006,0.261,0.057,0.35,0.123c0.09,0.067,0.186,0.123,0.289,0.167c0.101,0.044,0.261,0.121,0.342,0.196
	c0.203,0.189,0.358,0.41,0.465,0.68c0.041,0.103,0.133,0.132,0.216,0.059c0.011-0.01,0.022-0.019,0.032-0.028
	c0.083-0.072,0.236-0.102,0.34-0.065c0.122,0.043,0.233,0.082,0.339,0.119c0.104,0.036,0.174,0.154,0.158,0.263
	c-0.01,0.064-0.019,0.125-0.028,0.183c-0.017,0.109,0.055,0.172,0.161,0.14c0.302-0.091,0.588-0.178,0.884-0.267
	c0.106-0.032,0.191,0.033,0.191,0.143v0.655c0,0.11,0.027,0.212,0.06,0.228s0.108-0.048,0.166-0.142
	c0.082-0.133,0.165-0.266,0.247-0.4c0.058-0.094,0.125-0.16,0.149-0.147c0.024,0.013,0.021,0.11-0.007,0.217
	c-0.034,0.129-0.067,0.259-0.101,0.388c-0.028,0.107-0.014,0.211,0.03,0.234c0.044,0.023,0.126-0.036,0.182-0.13
	c0.135-0.226,0.277-0.465,0.457-0.768c0.057-0.095,0.091-0.083,0.076,0.027c-0.021,0.161-0.038,0.287-0.053,0.399
	c-0.014,0.109,0.018,0.231,0.072,0.27c0.054,0.04,0.142-0.007,0.195-0.104c0.063-0.114,0.126-0.227,0.188-0.341
	c0.053-0.097,0.122-0.154,0.152-0.127c0.031,0.026,0.032,0.134,0.004,0.241c-0.03,0.11-0.059,0.221-0.089,0.331
	c-0.029,0.107-0.02,0.214,0.019,0.24c0.039,0.026,0.131-0.017,0.207-0.097c0.132-0.141,0.267-0.284,0.411-0.437
	c0.076-0.08,0.137-0.057,0.137,0.054v0.324c0,0.11,0.059,0.132,0.131,0.048c0.134-0.156,0.25-0.289,0.364-0.422
	c0.072-0.084,0.147-0.063,0.167,0.046c0.02,0.112,0.038,0.219,0.055,0.327c0.018,0.109,0.106,0.148,0.198,0.086
	c0.027-0.018,0.052-0.035,0.076-0.051c0.092-0.062,0.215-0.036,0.275,0.056c0.002,0.002,0.003,0.005,0.005,0.007
	c0.06,0.093,0.142,0.103,0.183,0.021c0.04-0.081,0.137-0.14,0.215-0.139c0.078,0.001,0.144,0.006,0.147,0.02
	c0.003,0.014,0.094,0.015,0.202-0.008c0.86-0.183,1.266-0.739,1.308-1.608c0.001-0.019,0.019-0.038,0.04-0.057
	c0.029-0.025,0.052-0.135,0.052-0.245v-0.466C145.999,65.855,145.968,65.68,145.925,65.578z"/>
</g>
</svg>
