<?xml version="1.0" encoding="iso-8859-1"?>
<!-- Generator: Adobe Illustrator 17.1.0, SVG Export Plug-In . SVG Version: 6.00 Build 0)  -->
<!DOCTYPE svg PUBLIC "-//W3C//DTD SVG 1.1//EN" "http://www.w3.org/Graphics/SVG/1.1/DTD/svg11.dtd">
<svg version="1.1" id="Capa_1" xmlns="http://www.w3.org/2000/svg" xmlns:xlink="http://www.w3.org/1999/xlink" x="0px" y="0px"
	 viewBox="0 0 150 150" style="enable-background:new 0 0 150 150;" xml:space="preserve">
<g>
	<path style="fill:#1D1D1B;" d="M147.675,86.273c-2.133-2.921-5.137-4.779-8.282-6.463c-0.048-0.025-0.074-0.048-0.1-0.071
		c-0.039-0.035-0.083-0.064-0.129-0.086c-0.077-0.037-0.225-0.089-0.321-0.143c-0.74-0.418-1.492-0.807-2.253-1.17
		c-1.963-1.076-4.051-1.902-6.214-2.464c-1.03-0.347-2.066-0.677-3.105-1c-0.105-0.033-0.261-0.116-0.355-0.174
		c-0.244-0.15-0.517-0.233-0.799-0.246c-0.11-0.005-0.284-0.023-0.39-0.056c-1.03-0.315-2.06-0.629-3.086-0.953
		c-4.225-1.333-8.609-1.81-13.038-1.52c-1.273,0.083-2.54,0.251-3.807,0.429c-0.155,0.022-0.27,0.038-0.385,0.054
		c-0.668,0.068-1.335,0.151-2,0.246c-0.316,0.021-0.634,0.026-0.947,0.07c-1.706,0.237-3.403,0.561-5.116,0.712
		c-4.125,0.363-8.206,0.283-12.255-0.139c-3.112-0.515-6.224-1.03-9.336-1.545c-0.989-0.22-1.976-0.456-2.963-0.707
		c-4.881-1.242-9.584-3.036-14.822-3.07c-5.78-0.037-11.445,0.109-17.073,1.525c-2.272,0.572-4.646,0.78-6.988,1.026
		c-1.585,0.167-3.019-0.415-4.25-1.431c-1.034-0.854-2.054-1.724-3.067-2.603c-1.797-1.56-3.91-2.206-6.255-2.244
		c-2.736-0.045-5.092,1.059-7.395,2.328c-0.045,0.022-0.09,0.046-0.132,0.073c-0.067,0.037-0.134,0.074-0.201,0.111
		c-0.067,0.038-0.123,0.104-0.17,0.181c-0.058,0.094-0.119,0.22-0.147,0.276c-0.028,0.055-0.111,0.164-0.19,0.241
		c-0.172,0.166-0.343,0.331-0.515,0.497c-0.079,0.077-0.158,0.137-0.175,0.134c-0.017-0.003-0.092-0.073-0.177-0.143
		c-0.118-0.096-0.251-0.174-0.393-0.23c-0.103-0.041-0.204-0.071-0.22-0.084c-0.01-0.007-0.019-0.015-0.029-0.023
		c-0.521-0.422-0.884-0.488-1.305,0.166c-0.05,0.077-0.103,0.153-0.159,0.226c-0.067,0.088-0.201,0.204-0.293,0.265
		c-1.414,0.926-2.635,2.094-3.624,3.46c-0.065,0.089-0.189,0.217-0.278,0.282c-0.431,0.316-0.861,0.632-1.292,0.948
		c-0.193,0.141-0.355,0.312-0.476,0.501c-0.059,0.093-0.153,0.245-0.218,0.334c-0.638,0.879-0.91,1.955-0.63,3.093
		c0.027,0.108,0.062,0.206,0.104,0.295c0.047,0.1,0.128,0.258,0.18,0.355c0.187,0.343,0.499,0.553,0.882,0.445
		c0.037-0.01,0.074-0.022,0.111-0.035c0.061-0.021,0.126-0.04,0.147-0.041c0.02-0.001,0.097,0.063,0.18,0.137
		c0.294,0.263,0.657,0.446,1.057,0.516c0.184,0.033,0.326-0.173,0.187-0.32c-0.073-0.077-0.146-0.154-0.219-0.231
		c-0.076-0.08-0.051-0.127,0.057-0.103c0.249,0.054,0.498,0.109,0.747,0.163c0.034,0.007,0.064,0.006,0.092-0.002
		c0.049-0.014,0.186-0.05,0.245-0.142c0.033-0.051,0.038-0.117-0.007-0.185c-0.036-0.054-0.073-0.109-0.109-0.163
		c-0.06-0.09-0.023-0.136,0.083-0.104c0.439,0.135,0.878,0.269,1.317,0.404c0.179,0.055,0.332-0.192,0.187-0.32
		c-0.202-0.179-0.351-0.391-0.443-0.624c-0.04-0.103,0.007-0.131,0.097-0.068c0.261,0.181,0.565,0.294,0.89,0.324
		c0.11,0.01,0.294,0.046,0.394-0.001c0.076-0.036,0.124-0.111,0.087-0.211c-0.099-0.268-0.197-0.536-0.296-0.804
		c-0.038-0.104,0.02-0.18,0.13-0.171c0.311,0.027,0.623,0.054,0.934,0.081c0.11,0.01,0.298,0.055,0.392-0.005
		c0.096-0.061,0.141-0.189,0.031-0.281c-0.226-0.188-0.387-0.417-0.483-0.681c-0.038-0.104,0.011-0.249,0.095-0.321
		c0.095-0.082,0.191-0.165,0.289-0.249c0.084-0.072,0.235-0.096,0.337-0.055c0.156,0.062,0.311,0.125,0.467,0.187
		c0.116,0.047,0.245-0.07,0.243-0.185c-0.004-0.19-0.007-0.381-0.011-0.571c-0.002-0.11,0.044-0.234,0.103-0.274
		c0.059-0.04,0.163-0.001,0.232,0.086c0.188,0.239,0.376,0.479,0.564,0.718c0.118,0.15,0.309,0.005,0.327-0.136
		c0.011-0.079,0.021-0.159,0.032-0.238c0.015-0.109,0.101-0.146,0.188-0.078c0.461,0.359,0.865,0.834,1.145,1.356
		c0.052,0.097,0.077,0.267,0.081,0.378c0.012,0.313,0.144,0.615,0.351,0.859c0.071,0.084,0.115,0.169,0.085,0.199
		c-0.029,0.03-0.073,0.042-0.097,0.028c-0.015-0.009-0.029-0.018-0.044-0.027c-0.017-0.012-0.034-0.025-0.052-0.037
		c-0.013-0.009-0.027-0.018-0.04-0.025c-0.023-0.012-0.12-0.066-0.214-0.123c-0.124-0.075-0.248-0.149-0.372-0.224
		c-0.014-0.008-0.028-0.015-0.042-0.019c-0.024-0.008-0.125-0.051-0.212-0.014c-0.087,0.037-0.144,0.142-0.16,0.183
		c-0.009,0.022-0.013,0.048-0.01,0.078c0.023,0.314,0.141,0.596,0.34,0.82c0.073,0.083,0.08,0.203,0.003,0.283
		c-0.073,0.074-0.145,0.149-0.218,0.223c-0.077,0.079-0.16,0.127-0.186,0.108l-0.046-0.035c-0.208-0.16-0.536-0.032-0.656,0.172
		c-0.065,0.111-0.082,0.246-0.048,0.369c0.012,0.044,0.029,0.081,0.051,0.115c0.005,0.008,0.001,0.022,0.004,0.032
		c-0.254-0.018-0.504-0.049-0.682-0.109c-0.105-0.036-0.138-0.008-0.079,0.086c0.058,0.093,0.151,0.212,0.258,0.333
		c-0.032-0.01-0.064-0.021-0.096-0.031c-0.469-0.153-0.722,0.401-0.512,0.73c0.013,0.021,0.015,0.044,0.023,0.066
		c-0.301,0.027-0.642,0.004-0.969-0.139c-0.101-0.044-0.151-0.006-0.112,0.097c0.072,0.191,0.2,0.496,0.366,0.764
		c-0.012-0.003-0.026,0.002-0.038-0.003c-0.064-0.028-0.128-0.056-0.193-0.083c-0.24-0.104-1.512-1.073-1.656-0.828
		c-0.12,0.205,0.932,1.552,1.172,1.656c0.014,0.006,0.028,0.012,0.042,0.018c-0.227-0.019-0.462-0.055-0.662-0.129
		c-0.104-0.038-0.122-0.018-0.047,0.063l0.461,0.5c-0.04,0.01-0.08,0.024-0.118,0.017c-0.304-0.053-0.609-0.106-0.913-0.158
		c-0.109-0.019-0.294-0.067-0.393-0.019c-0.096,0.046-0.149,0.147-0.072,0.249c0.16,0.212,0.32,0.424,0.48,0.636
		c0.017,0.023,0.017,0.044,0.025,0.067c-0.338-0.009-0.666-0.045-0.866-0.074c-0.109-0.016-0.132,0.029-0.051,0.104l0.406,0.373
		c-0.005-0.001-0.008-0.003-0.013-0.003l-0.376-0.027c-0.11-0.008-0.298-0.047-0.392,0.011c-0.064,0.04-0.106,0.111-0.087,0.203
		c0.021,0.099,0.055,0.193,0.102,0.28c0.052,0.097,0.103,0.257,0.141,0.355c0.022,0.058,0.057,0.112,0.103,0.158
		c0.193,0.19,0.385,0.381,0.578,0.571c0.034,0.034,0.072,0.061,0.113,0.082c0.069,0.036,0.167,0.074,0.21,0.106
		c0.026,0.019,0.052,0.038,0.079,0.056c0.419,0.278,0.984,0.23,1.455,0.17c0.027-0.003,0.053-0.009,0.079-0.015
		c0.043-0.011,0.164-0.019,0.264-0.058c0.057-0.022,0.112-0.055,0.166-0.098c3.299-2.625,6.644-5.359,8.748-9.069
		c0.055-0.096,0.16-0.239,0.236-0.319c0.13-0.136,0.26-0.273,0.389-0.409c1.222-1.288,2.822-1.627,4.126-0.713
		c2.188,1.534,4.34,3.122,6.45,4.761c0.423,0.329,0.797,0.971,0.838,1.497c0.178,2.288,1.339,3.786,3.39,4.683
		c1.066,0.466,2.126,0.946,3.384,1.509c0.101,0.045,0.117,0.143,0.037,0.219c-1.331,1.25-2.533,2.408-3.775,3.523
		c-0.508,0.455-1.102,0.813-1.643,1.232c-0.052,0.041-0.104,0.082-0.155,0.123c-0.18,0.148-0.306,0.362-0.439,0.567
		c-0.06,0.093-0.03,0.131,0.072,0.09c0.166-0.067,0.332-0.135,0.497-0.202c0.102-0.042,0.223-0.028,0.27,0.031
		c0.047,0.059,0.036,0.182-0.024,0.274c-0.082,0.126-0.165,0.252-0.247,0.379c-0.06,0.092-0.037,0.116,0.053,0.051
		c0.436-0.311,0.872-0.622,1.309-0.933c0.09-0.064,0.202-0.09,0.251-0.058c0.049,0.032,0.047,0.137-0.005,0.235
		c-0.349,0.659-0.697,1.317-1.046,1.976c-0.052,0.098-0.047,0.227,0.009,0.289c0.057,0.062,0.157,0.041,0.224-0.047
		c0.233-0.305,0.465-0.61,0.698-0.915c0.067-0.088,0.17-0.084,0.23,0.008c0.072,0.11,0.143,0.221,0.215,0.331
		c0.06,0.093,0.044,0.229-0.028,0.313c-0.472,0.552-0.536,1.218-0.609,1.881c-0.012,0.11,0.036,0.219,0.108,0.243
		c0.072,0.025,0.163-0.038,0.203-0.141c0.255-0.658,0.511-1.317,0.766-1.975c0.295-0.838,0.589-1.675,0.884-2.513
		c0.037-0.104,0.132-0.248,0.214-0.323c0.157-0.143,0.314-0.286,0.472-0.428c1.213-0.934,2.434-1.857,3.609-2.836
		c0.2-0.167,0.373-0.264,0.554-0.3c0.108-0.021,0.28,0.022,0.382,0.065c1.119,0.483,2.311,0.782,3.537,0.964
		c1.243,0.277,2.508,0.462,3.8,0.527c1.075,0.054,2.15,0.279,3.202,0.524c0.72,0.168,1.335,0.536,1.625,1.34
		c0.014,0.04,0.037,0.079,0.066,0.117c0.045,0.059,0.131,0.182,0.219,0.249c0.015,0.012,0.032,0.022,0.049,0.032
		c0.096,0.055,0.261,0.091,0.354,0.121c0.06,0.019,0.118,0.034,0.173,0.042c0.426,0.063,0.888-0.045,1.323-0.136
		c1.434-0.302,2.85-0.733,4.297-0.913c1.122-0.139,2.367-0.125,3.22,0.802c0.154,0.167,0.301,0.34,0.445,0.517
		c0.07,0.086,0.14,0.203,0.17,0.253c0.018,0.03,0.038,0.059,0.063,0.085c0.066,0.072,0.132,0.145,0.197,0.217
		c0.389,0.523,0.764,1.073,1.17,1.626c0.065,0.089,0.067,0.233,0.004,0.323c-0.7,0.999-1.367,2.117-2.667,2.645
		c-0.583,0.237-0.759,0.715-0.657,1.333c0.21,1.27-0.268,2.314-1.132,3.208c-0.355,0.367-0.782,0.673-1.093,1.072
		c-0.562,0.722-1.162,1.454-1.062,2.43c0.011,0.11,0.105,0.151,0.198,0.091c0.964-0.614,1.868-1.19,2.777-1.769
		c0.093-0.059,0.198-0.023,0.236,0.081c0.111,0.311,0.206,0.575,0.319,0.891c0.037,0.104,0.11,0.109,0.159,0.01
		c0.227-0.468,0.343-0.87,0.61-1.076c1.066-0.819,1.437-2.027,1.849-3.185c0.172-0.484,0.232-0.916,0.75-0.965
		c0.11-0.01,0.181-0.089,0.166-0.198c-0.196-1.415,0.498-2.898,1.755-3.671c0.119-0.073,0.316-0.114,0.441-0.069
		c1.554,0.556,3.155,1.018,4.638,1.726c2.336,1.115,3.789,3.18,4.985,5.364c0.739,1.348,1.399,2.811,1.03,4.474
		c-0.063,0.284,0.065,0.623,0.146,0.925c0.025,0.092,0.044,0.183,0.057,0.273c0.017,0.109,0.005,0.286-0.02,0.394
		c-0.087,0.382-0.204,0.76-0.355,1.132c-0.042,0.102-0.134,0.254-0.213,0.332c-0.315,0.313-0.737,0.537-1.241,0.63
		c-0.624,0.114-1.265,0.219-1.843,0.461c-0.323,0.135-0.562,0.47-0.952,0.864c-0.078,0.079-0.054,0.131,0.055,0.115
		c0.651-0.096,1.126-0.277,1.357-0.114c1.077,0.764,2.089,0.596,3.164,0.071c0.08-0.039,0.191-0.013,0.288,0.021
		c0.104,0.036,0.239-0.005,0.306-0.093c0.306-0.402,0.631-0.751,0.802-1.164c0.539-1.296,0.958-2.642,1.498-3.937
		c0.333-0.799,0.32-1.393-0.512-1.725c-0.103-0.041-0.124-0.128-0.044-0.204c0.141-0.134,0.267-0.255,0.369-0.352
		c0.08-0.076,0.077-0.196-0.011-0.263c-0.451-0.351-0.97-0.625-1.141-1.043c-0.42-1.024-0.693-2.124-0.894-3.218
		c-0.226-1.23-0.834-2.009-1.954-2.616c-2.124-1.153-4.274-2.327-5.289-4.765c-0.011-0.027-0.023-0.053-0.034-0.08
		c-0.019-0.044,0.029-0.148,0.058-0.255c0.019-0.069,0.022-0.147,0.004-0.232c-0.25-1.166-0.5-2.332-0.749-3.497
		c-0.023-0.108,0.001-0.274,0.041-0.377c0.072-0.186,0.14-0.433,0.23-0.77c0.07-0.263,0.21-0.549,0.405-0.729
		c0.961-0.884,1.909-1.79,2.948-2.576c0.538-0.407,1.233-0.745,1.893-0.828c1.831-0.231,3.682-0.31,5.524-0.453
		c0.424-0.033,0.849-0.059,1.275-0.083c0.11-0.006,0.289-0.004,0.399,0.003c1.83,0.117,3.701-0.073,5.548-0.442
		c0.388-0.057,0.774-0.122,1.158-0.2c2.862-0.584,5.702-1.354,8.492-2.254c1.515-0.425,3.011-0.919,4.485-1.48
		c3.164-0.948,6.373-1.568,9.646-1.87c1.351-0.069,2.706-0.088,4.059-0.058c0.166,0.004,0.317-0.017,0.452-0.057
		c0.106-0.031,0.277-0.067,0.387-0.061c2.969,0.154,5.845,0.904,8.742,1.489c0.108,0.022,0.279,0.07,0.383,0.107
		c3.212,1.151,6.496,2.086,9.839,2.796c0.108,0.023,0.279,0.073,0.382,0.112c3.134,1.2,6.133,2.695,8.847,4.736
		c0.503,0.378,1.023,0.734,1.537,1.098c0.09,0.064,0.213,0.048,0.274-0.036S147.741,86.362,147.675,86.273z M94.598,74.104
		c-0.026,0.003-0.043-0.007-0.038-0.023c0.005-0.016,0.027-0.02,0.048-0.007C94.629,74.087,94.624,74.101,94.598,74.104z"/>
</g>
</svg>
