<?xml version="1.0" encoding="iso-8859-1"?>
<!-- Generator: Adobe Illustrator 17.1.0, SVG Export Plug-In . SVG Version: 6.00 Build 0)  -->
<!DOCTYPE svg PUBLIC "-//W3C//DTD SVG 1.1//EN" "http://www.w3.org/Graphics/SVG/1.1/DTD/svg11.dtd">
<svg version="1.1" id="Capa_1" xmlns="http://www.w3.org/2000/svg" xmlns:xlink="http://www.w3.org/1999/xlink" x="0px" y="0px"
	 viewBox="0 0 150 150" style="enable-background:new 0 0 150 150;" xml:space="preserve">
<g>
	<path d="M142.841,109.944c-3.604-3.55-6.321-7.672-8.089-12.425c-1.571-4.222-4.676-7.421-7.381-10.883
		c-2.58-3.302-5.125-6.634-7.764-9.888c-2.419-2.981-5.488-4.96-9.45-4.745c-3.774,0.205-7.269-0.279-10.746-1.932
		c-4.767-2.266-9.759-1.234-14.686-0.258c-9.618,1.905-19.24,3.795-28.871,5.631c-2.796,0.533-6.088-2.776-5.98-6.092
		c0.155-4.753,2.364-8.645,5.642-11.934c1.225-1.229,2.687-2.236,4.104-3.256c4.099-2.948,6.848-6.663,7.497-11.851
		c0.326-2.608,0.939-5.194,1.642-7.737c0.11-0.115,0.24-0.21,0.355-0.32c0.213-0.027,0.415-0.188,0.459-0.407
		c0.315-0.268,0.645-0.519,0.993-0.753c0.19,0.026,0.378-0.074,0.484-0.24c0.368,0.346,0.878-0.048,0.819-0.451
		c0.31,0.265,0.73-0.06,0.738-0.44c0.329,0.007,0.653-0.294,0.502-0.64c0.05,0.054,0.1,0.109,0.151,0.163
		c0.333,0.361,0.817,0.038,0.84-0.345c0.191-0.007,0.368-0.136,0.452-0.307c0.361-0.03,0.667-0.51,0.339-0.858
		c-1.488-1.577-2.976-3.154-4.465-4.731c-0.008-0.066-0.032-0.134-0.075-0.204c-1.173-1.883-2.855-3.31-4.795-4.157
		c-1.962-1.297-4.263-2.219-6.935-2.685c-3.827-0.668-7.654-0.647-11.551-0.49c-4.097,0.165-8.261-0.4-12.345-0.995
		c-8.131-1.184-16.228-2.603-24.336-3.94C9.769,12.673,9.15,12.5,8.56,12.28c-1.309-0.488-2.08-0.604-2.712-0.199
		C5.7,12.175,5.46,12.323,5.313,12.419c-0.336,0.219-0.557,0.562-0.645,0.939c-0.04,0.171-0.046,0.323-0.051,0.332
		C4.612,13.7,4.608,13.85,4.608,14.025v0.637c0,0.176,0.129,0.381,0.284,0.464c0.781,0.417,1.541,0.942,2.371,1.098
		c1.438,0.269,2.555,0.874,3.506,1.961c5.975,6.835,12.952,12.502,20.375,17.686c2.054,1.435,3.727,3.409,5.62,5.085
		c0.746,0.661,1.563,1.281,2.437,1.753c3.044,1.646,4.951,4.275,5.74,7.483c0.414,1.683,0.126,3.721-0.417,5.415
		c-0.753,2.347-1.815,4.669-3.15,6.74c-3.202,4.967-3.78,10.368-3.235,16.041c0.02,0.211,0.06,0.419,0.079,0.63
		c0.003,0.029-0.015,0.06-0.042,0.108c-0.032,0.056-0.187,0.159-0.35,0.223c-0.306,0.121-0.637,0.247-0.947,0.411
		c-2.066,1.089-2.736,2.998-1.705,5.053c1.45,2.891,3.526,5.127,6.643,6.309c0.606,0.23,1.086,0.852,1.563,1.351
		c1.022,1.072,1.875,2.346,3.025,3.248c4.336,3.401,8.497,7.147,13.234,9.878c4.255,2.453,9.146,3.836,13.823,5.507
		c2.23,0.797,4.727,0.902,6.881,1.833c1.154,0.499,1.94,2.022,2.686,3.212c0.315,0.503,0.211,1.356,0.108,2.021
		c-0.653,4.193-4.814,8.331-9.042,8.603c-3.697,0.238-6.638,1.938-9.475,4.009c-0.401,0.293-1.013,0.653-0.345,1.512
		c0.231,0.297-0.343,1.221-0.725,2.103c-0.07,0.161,0.002,0.222,0.159,0.143c3.122-1.568,7.27,0.453,7.518,3.383
		c0.015,0.175,0.15,0.282,0.316,0.224c1.736-0.608,2.466-2.116,3.175-3.693c0.41-0.911,0.976-1.765,1.556-2.585
		c2.34-3.308,4.272-4.039,8.198-3.161c0.724,0.162,1.436,0.428,2.167,0.492c0.57,0.05,1.153-0.06,1.809-0.296
		c0.166-0.06,0.162-0.158-0.005-0.212c-0.726-0.239-1.45-0.482-2.18-0.708c-4.466-1.387-4.51-1.501-1.877-5.426
		c0.502-0.748,0.974-1.538,1.591-2.184c1.625-1.703,2.014-3.702,1.693-5.948c-0.056-0.393,0.007-0.803,0.052-1.174
		c0.021-0.175,0.171-0.349,0.342-0.389c4.39-1.022,8.69-2.024,13.003-3.028c0.171-0.04,0.352,0.064,0.4,0.233
		c1.115,3.914,0.633,7.431-1.144,10.822c-0.825,1.575-2.318,1.797-3.865,2.104c-0.986,0.196-4.518-0.552-5.5-0.336
		c-0.795,0.175,0.959,1.31,0.166,1.493c-0.49,0.113-0.979,0.227-1.469,0.342c-0.98,0.23-1.96,0.463-2.939,0.694
		c-0.344,0.081-0.651,0.322-0.909,0.673c-0.104,0.142-0.035,0.233,0.136,0.192c0.196-0.047,0.403-0.098,0.646-0.156
		c0.171-0.041,0.277,0.064,0.237,0.235c-0.057,0.242-0.108,0.457-0.156,0.66c-0.04,0.171,0.069,0.298,0.245,0.286
		c0.615-0.042,1.235-0.065,1.843-0.162c4.802-0.768,9.517-0.35,14.143,1.07c0.538,0.165,0.996,0.592,1.525,0.984
		c0.141,0.105,0.352,0.074,0.438-0.079c0.409-0.724,0.275-1.599-0.299-2.449c-1.556-2.305-1.483-4.789-0.809-7.319
		c0.299-1.123,0.877-2.179,1.113-3.31c0.337-1.622,0.585-3.28,0.66-4.933c0.046-1.019,0.04-1.582,1.327-1.792
		c3.29-0.537,6.514-1.542,9.815-1.936c2.923-0.349,5.913-0.13,8.874-0.15c0.144-0.001,0.317,0.082,0.428,0.181
		c2.873,2.541,6.491,3.135,10.059,3.877c3.022,0.629,6.035,1.3,9.052,1.955c0.172,0.037,0.311-0.075,0.311-0.251
		s-0.102-0.418-0.227-0.541C144.39,111.464,143.614,110.705,142.841,109.944z"/>
</g>
</svg>
