<?xml version="1.0" encoding="iso-8859-1"?>
<!-- Generator: Adobe Illustrator 17.1.0, SVG Export Plug-In . SVG Version: 6.00 Build 0)  -->
<!DOCTYPE svg PUBLIC "-//W3C//DTD SVG 1.1//EN" "http://www.w3.org/Graphics/SVG/1.1/DTD/svg11.dtd">
<svg version="1.1" id="Capa_1" xmlns="http://www.w3.org/2000/svg" xmlns:xlink="http://www.w3.org/1999/xlink" x="0px" y="0px"
	 viewBox="0 0 150 150" style="enable-background:new 0 0 150 150;" xml:space="preserve">
<g>
	<path d="M134.18,129.179c-2.606-2.387-5.752-3.938-8.92-5.429c-1.165-0.548-2.763-1.07-3.79-1.797
		c-1.253-0.887-1.104-1.496-1.768-2.549c-4.104-6.51-7.851-15.063-13.511-20.271c-0.51-0.469-0.876-0.849-0.904-1.604
		c-0.013-0.338-0.516-0.728-0.88-0.967c-0.607-0.398-1.284-0.688-1.925-1.036c-0.939-0.511-1.87-1.038-2.809-1.548
		c-0.113-0.062-0.232-0.111-0.368-0.165c-0.207-0.082-0.375-0.308-0.374-0.504c0-0.114,0-0.234-0.001-0.355
		c-0.039-6.37-1.009-11.981-2.142-18.234c-0.071-0.392,0.19-0.707,0.586-0.707c0.714-0.001,1.357-0.002,2.001,0.001
		c0.663,0.003,1.366,0.117,1.838-0.344c0.284-0.277,0.618-0.415,0.945-0.192c4.687,3.193,9.867,7.759,13.425,12.19
		c0.187-0.273,0.775-0.88,1.224-0.584c0.706,0.466,0.845,1.342,1.467,1.804c0.756,0.561,1.905,0.785,2.76,1.19
		c1.953,0.925,3.788,2.1,5.455,3.475c3.126,2.578,5.67,5.873,7.302,9.585c0.453,1.029,0.845,2.146,0.676,3.257
		c-0.203,1.333-1.288,2.028-2.422,2.459c0.266,0.381,0.652,0.496,1.116,0.658c0.005,0.002,0.011,0.004,0.016,0.006
		c0.146,0.05,0.401-0.012,0.519-0.119c0.517-0.468,1.059-0.928,1.48-1.476c0.325-0.423,0.632-0.958,0.686-1.472
		c0.107-1.027,0.248-2.127-0.44-3.032c-0.595-0.783-0.289-2.591-0.903-3.769c-0.643-1.233-1.514-2.345-2.446-3.37
		c-1.82-2.001-4.03-3.632-6.257-5.15c-2.675-1.823-5.456-3.564-7.807-5.809c-1.976-1.886-3.414-4.533-5.525-6.194
		c-0.462-0.363-0.992-0.638-1.453-1.002c-3.203-2.534-5.995-5.161-9.936-6.538c-3.591-1.254-7.429-1.625-11.185-2.054
		c-0.803-0.092-4.811-0.241-4.238-1.654c0.16-0.396,0.66-0.561,1.079-0.48c2.099,0.406,4.014-0.679,5.347-2.809
		c0.114-0.182,0.266-0.34,0.419-0.479c0.261-0.237,0.796-0.353,1.182-0.27c0.245,0.052,0.476,0.093,0.708,0.094
		c1.577,0.011,3.155-0.017,4.733-0.053c0.241-0.005,0.479-0.129,0.718-0.198c0.111-0.032,0.27-0.128,0.327-0.086
		c0.795,0.591,1.572-0.188,2.352-0.018c0.701,0.153,1.186-0.337,1.757-0.573c0.057-0.024,0.132-0.1,0.131-0.151
		c-0.012-1.143,0.921-1.203,1.67-1.56c0.681-0.324,1.305-0.81,1.876-1.312c1.412-1.244,2.852-2.471,4.142-3.835
		c1.029-1.087,1.8-2.415,2.788-3.547c0.737-0.846,1.509-1.756,2.869-1.582c0.566,0.072,1.12,0.074,1.629-0.128
		c-0.942-0.561-1.939-1.407-1.908-2.658c0.03-1.208,0.909-2.291,2.01-2.789c1.095-0.495,2.352-0.376,3.434-0.319
		c-0.827-0.435-1.613-1.271-1.489-2.277c0.137-1.103,1.356-1.696,2.183-1.998c-0.315-0.195-1.324-0.972-1.069-1.442
		c0.001-0.002,0.003-0.004,0.004-0.007c0.728-1.274,2.472-2.359,3.357-3.679c1.143-1.707,2.074-3.555,2.774-5.486
		c1.351-3.724,1.848-7.764,1.367-11.699c-0.235-1.922-0.712-3.862-1.795-5.467c-1.606-2.379-3.611-2.999-6.145-2.354
		c-0.002,0.001-0.004,0.001-0.006,0.002c1.618,0.846,3.32,0.695,4.26,2.823c0.647,1.463,0.652,3.116,0.725,4.714
		c0.11,2.414,0.398,4.83,0.225,7.24c-0.352,4.909-2.759,9.607-6.421,12.874c-1.625,1.449-3.605,1.807-5.222,3.051
		c-2.007,1.544-3.146,4.604-4.627,6.622c-2.094,2.854-4.187,5.708-6.281,8.562c-0.317,0.432-0.668,0.89-1.179,1.052
		c-1.122,0.356-1.848-1.451-3.272-1.125c-0.174,0.04-0.349,0.079-0.526,0.113c-1.535,0.299-2.978-0.262-4.452-0.507
		c-0.318-0.053-0.628-0.163-0.972-0.289c-1.259-0.461-2.288-4.61-2.953-5.779c-1.221-2.146-2.7-4.145-4.398-5.937
		c-0.846-0.892-1.779-1.791-2.115-2.973c-0.508-1.791,1.127-2.936,0.834-4.579c-0.325-1.823-2.107-2.112-3.459-2.752
		c-4.033-1.907-3.784-8.865-2.487-12.371c0.508-1.373,3.078-6.594-0.352-6.548c-0.904,0.012-1.859-0.254-2.69,0.357
		c-0.05,0.037-0.147,0.043-0.21,0.023c-0.35-0.108-0.699-0.219-1.049-0.331C75.3,12.898,75.125,12.93,75,13.028
		c-0.125-0.099-0.3-0.13-0.496-0.068c-0.349,0.111-0.699,0.222-1.049,0.331c-0.063,0.02-0.16,0.013-0.21-0.023
		c-0.831-0.611-1.786-0.345-2.69-0.357c-3.43-0.045-0.86,5.175-0.352,6.548c1.297,3.506,1.546,10.464-2.487,12.371
		c-1.352,0.64-3.134,0.929-3.459,2.752c-0.293,1.643,1.342,2.788,0.834,4.579c-0.336,1.183-1.269,2.081-2.115,2.973
		c-1.698,1.792-3.177,3.791-4.398,5.937c-0.665,1.169-1.695,5.317-2.953,5.779c-0.344,0.126-0.653,0.235-0.972,0.289
		c-1.474,0.246-2.916,0.806-4.452,0.507c-0.176-0.034-0.352-0.073-0.525-0.113c-1.424-0.326-2.15,1.481-3.272,1.125
		c-0.511-0.162-0.862-0.62-1.179-1.052c-2.094-2.854-4.187-5.708-6.281-8.562c-1.48-2.019-2.62-5.078-4.627-6.622
		c-1.616-1.244-3.597-1.602-5.222-3.051c-3.662-3.267-6.069-7.965-6.421-12.874c-0.173-2.41,0.115-4.826,0.225-7.24
		c0.073-1.599,0.078-3.251,0.725-4.714c0.94-2.127,2.642-1.977,4.26-2.823c-0.002,0-0.004-0.001-0.006-0.002
		c-2.535-0.645-4.539-0.025-6.145,2.354c-1.084,1.604-1.56,3.545-1.795,5.467c-0.481,3.936,0.016,7.976,1.367,11.699
		c0.701,1.931,1.631,3.779,2.774,5.486c0.884,1.32,2.628,2.405,3.357,3.679c0.001,0.002,0.003,0.005,0.004,0.007
		c0.255,0.471-0.753,1.247-1.069,1.442c0.827,0.302,2.046,0.895,2.183,1.998c0.125,1.006-0.661,1.842-1.489,2.277
		c1.082-0.057,2.339-0.176,3.434,0.319c1.101,0.498,1.98,1.581,2.01,2.789c0.031,1.251-0.966,2.098-1.908,2.658
		c0.509,0.202,1.062,0.2,1.629,0.128c1.36-0.174,2.131,0.736,2.869,1.582c0.988,1.132,1.759,2.459,2.788,3.547
		c1.29,1.364,2.73,2.591,4.142,3.835c0.571,0.503,1.195,0.988,1.876,1.312c0.749,0.357,1.682,0.417,1.67,1.56
		c-0.001,0.051,0.074,0.127,0.131,0.151c0.57,0.236,1.055,0.726,1.757,0.573c0.781-0.17,1.557,0.609,2.352,0.018
		c0.056-0.042,0.216,0.054,0.327,0.086c0.239,0.069,0.477,0.193,0.718,0.198c1.577,0.036,3.155,0.064,4.733,0.053
		c0.232-0.001,0.464-0.042,0.708-0.094c0.387-0.083,0.921,0.033,1.182,0.27c0.153,0.139,0.305,0.297,0.419,0.479
		c1.333,2.13,3.248,3.215,5.347,2.809c0.419-0.081,0.919,0.084,1.079,0.48c0.573,1.413-3.435,1.562-4.238,1.654
		c-3.756,0.429-7.594,0.8-11.185,2.054c-3.941,1.376-6.733,4.004-9.936,6.538c-0.46,0.364-0.991,0.639-1.453,1.002
		c-2.111,1.661-3.549,4.308-5.525,6.194c-2.352,2.245-5.132,3.986-7.807,5.809c-2.226,1.518-4.436,3.148-6.257,5.15
		c-0.932,1.025-1.803,2.137-2.446,3.37c-0.614,1.178-0.308,2.986-0.903,3.769c-0.688,0.905-0.547,2.005-0.44,3.032
		c0.054,0.513,0.361,1.048,0.686,1.472c0.421,0.548,0.963,1.008,1.48,1.476c0.118,0.107,0.373,0.169,0.519,0.119
		c0.005-0.002,0.011-0.004,0.016-0.006c0.465-0.162,0.85-0.276,1.116-0.658c-1.134-0.432-2.22-1.126-2.422-2.459
		c-0.169-1.112,0.223-2.228,0.676-3.257c1.633-3.713,4.176-7.008,7.302-9.585c1.667-1.375,3.502-2.55,5.455-3.475
		c0.855-0.405,2.004-0.629,2.76-1.19c0.622-0.462,0.761-1.338,1.467-1.804c0.449-0.296,1.037,0.311,1.224,0.584
		c3.558-4.431,8.738-8.997,13.425-12.19c0.327-0.223,0.662-0.085,0.945,0.192c0.472,0.46,1.175,0.347,1.838,0.344
		c0.643-0.003,1.287-0.002,2.001-0.001c0.396,0,0.657,0.315,0.586,0.707c-1.133,6.253-2.103,11.865-2.142,18.234
		c-0.001,0.121-0.001,0.241-0.001,0.355c0,0.196-0.167,0.422-0.374,0.504c-0.136,0.054-0.256,0.104-0.368,0.165
		c-0.939,0.51-1.87,1.037-2.809,1.548c-0.641,0.349-1.318,0.638-1.925,1.036c-0.364,0.239-0.868,0.629-0.88,0.967
		c-0.028,0.755-0.394,1.134-0.904,1.604c-5.66,5.208-9.407,13.761-13.511,20.271c-0.663,1.053-0.514,1.662-1.768,2.549
		c-1.027,0.727-2.625,1.249-3.79,1.797c-3.168,1.491-6.313,3.042-8.92,5.429c-3.323,3.044-7.073,9.184-3.044,12.783
		c0.295,0.264,0.778,0.333,1.081,0.151c0.303-0.182,0.371-0.424,0.153-0.542c-0.138-0.074-0.265-0.154-0.362-0.261
		c-0.442-0.495-1.009-0.984-1.189-1.578c-0.182-0.601-0.223-1.581,0.134-1.947c1.104-1.13,1.714-2.408,1.927-3.931
		c0.021-0.15,0.092-0.309,0.184-0.43c0.506-0.671,0.949-1.416,1.56-1.974c0.822-0.751,1.383-1.918,2.731-1.956
		c0.083-0.002,0.18-0.114,0.24-0.197c0.846-1.152,2.057-1.767,3.313-2.361c0.164-0.078,0.324-0.163,0.483-0.255
		c0.261-0.151,0.78-0.353,1.162-0.457c2.297-0.627,4.4-1.85,6.113-3.485c0.287-0.273,0.69-0.587,0.916-0.685
		c0.226-0.098,0.465,0.012,0.535,0.247c0.069,0.235,0.27,0.138,0.458-0.21c0.002-0.003,0.003-0.006,0.005-0.01
		c0.423-0.785,1.397-1.355,2.054-2.098c1.358-1.535,2.369-3.622,3.493-5.339c1.55-2.371,3.101-4.741,4.651-7.111
		c1.244-1.901,2.191-4.696,3.853-6.216c0.378-0.346,0.615-0.218,0.897-0.011c0.349,0.256,1.414,0.369,1.721,0.129
		c0.607-0.474,1.273-0.76,2.059-0.77c0.952-0.011,0.931-0.002,1.007,0.924c0.627,7.624,3.093,16.844,8.483,22.516
		c2.26,2.378,5.069,4.127,7.439,6.382c1.809,1.722,3.73,6.771,6.865,4.935c0.09-0.053,0.176-0.11,0.258-0.171
		c0.082,0.061,0.168,0.118,0.258,0.171c3.135,1.836,5.056-3.213,6.865-4.935c2.37-2.255,5.178-4.004,7.439-6.382
		c5.39-5.672,7.856-14.892,8.483-22.516c0.076-0.926,0.055-0.935,1.007-0.924c0.786,0.009,1.452,0.295,2.059,0.77
		c0.307,0.24,1.372,0.127,1.721-0.129c0.282-0.207,0.519-0.335,0.897,0.011c1.662,1.521,2.609,4.315,3.853,6.216
		c1.551,2.37,3.101,4.74,4.651,7.111c1.124,1.718,2.135,3.805,3.493,5.339c0.657,0.743,1.631,1.312,2.054,2.098
		c0.002,0.003,0.003,0.006,0.005,0.01c0.188,0.349,0.388,0.445,0.458,0.21c0.07-0.235,0.309-0.345,0.535-0.247
		c0.226,0.098,0.63,0.412,0.916,0.685c1.713,1.635,3.816,2.857,6.113,3.485c0.382,0.104,0.901,0.306,1.162,0.457
		c0.159,0.092,0.319,0.177,0.483,0.255c1.256,0.594,2.466,1.208,3.313,2.361c0.061,0.083,0.158,0.195,0.24,0.197
		c1.348,0.038,1.909,1.204,2.731,1.956c0.611,0.559,1.054,1.303,1.56,1.974c0.092,0.121,0.163,0.28,0.184,0.43
		c0.212,1.523,0.823,2.8,1.927,3.931c0.357,0.366,0.316,1.346,0.134,1.947c-0.18,0.594-0.747,1.083-1.189,1.578
		c-0.096,0.107-0.223,0.187-0.362,0.261c-0.218,0.118-0.15,0.36,0.153,0.542c0.303,0.182,0.786,0.113,1.081-0.151
		C141.253,138.363,137.503,132.223,134.18,129.179z"/>
</g>
</svg>
