<?xml version="1.0" encoding="iso-8859-1"?>
<!-- Generator: Adobe Illustrator 17.1.0, SVG Export Plug-In . SVG Version: 6.00 Build 0)  -->
<!DOCTYPE svg PUBLIC "-//W3C//DTD SVG 1.1//EN" "http://www.w3.org/Graphics/SVG/1.1/DTD/svg11.dtd">
<svg version="1.1" id="Capa_1" xmlns="http://www.w3.org/2000/svg" xmlns:xlink="http://www.w3.org/1999/xlink" x="0px" y="0px"
	 viewBox="0 0 150 150" style="enable-background:new 0 0 150 150;" xml:space="preserve">
<g>
	<path d="M147.871,41.693c-2.631-0.278-5.262-0.555-7.893-0.833c-1.045-0.206-2.091-0.412-3.136-0.618
		c-0.079-0.153-0.158-0.307-0.237-0.46c2-0.753,4.018-1.513,6.066-2.284c1.31-0.108,2.631-0.113,3.967-0.014
		c0.239,0.095,0.48,0.177,0.716,0.287c0.503,0.235,0.988-0.337,0.615-0.77c-0.039-0.215-0.188-0.418-0.461-0.447
		c-0.007-0.001-0.014-0.001-0.021-0.002c-0.259-0.215-0.527-0.407-0.812-0.561c0.023-0.009,0.045-0.017,0.068-0.026
		c-0.781-0.385-1.536-0.87-2.36-1.145c-0.495-0.165-0.994-0.321-1.49-0.483c-5.641-2.61-12.227-5.195-18.309-4.348
		c-4.95,0.312-9.32,2.341-12.795,6.747c-2.353,2.985-4.401,6.214-6.814,9.146c-1.077,1.309-2.571,2.482-4.119,3.159
		c-4.908,2.146-10.017,3.844-14.883,6.075c-3.632,1.666-6.894,4.136-10.521,5.814c-6.869,3.177-13.334,6.941-19.407,11.467
		c-3.662,2.73-7.639,5.034-11.445,7.575c-1.843,1.23-4.651,1.413-4.917,4.438c-0.021,0.241-0.496,0.527-0.814,0.644
		c-4.312,1.577-8.589,3.267-12.962,4.653c-7.139,2.263-14.062,4.984-20.538,8.773c-0.66,0.386-1.21,0.961-1.811,1.448
		c0.098,0.123,0.197,0.247,0.295,0.37c3.631-1.415,7.263-2.83,10.894-4.246c0.066,0.123,0.132,0.245,0.198,0.368
		c-3.597,2.296-7.195,4.593-10.792,6.889c0.101,0.14,0.202,0.279,0.303,0.419c2.754-1.462,5.509-2.925,8.263-4.387
		c0.073,0.148,0.147,0.295,0.22,0.443l-0.822,1.402c0.099,0.11,0.198,0.219,0.296,0.329c2.603-1.433,5.206-2.866,7.809-4.299
		l0.278,0.453l-4.527,4.288c0.161,0.259,0.322,0.518,0.482,0.777c1.705-0.849,3.397-1.725,5.117-2.543
		c4.439-2.111,8.719-4.825,13.389-6.103c4.127-1.13,8.694-0.737,13.07-0.838c2.121-0.049,4.249,0.363,6.378,0.47
		c2.05,0.102,4.365,0.702,6.103-0.022c3.455-1.439,6.611-0.564,9.862,0.166c0.494,0.111,0.926,0.88,1.22,1.433
		c0.918,1.727,1.492,3.705,2.678,5.208c2.724,3.451,5.731,6.678,8.676,10.058c0,0,3.001,2.835,0.842,4.562
		c-2.159,1.727-1.187,1.511-0.756,1.727c0,0,3.238-1.619,5.505-0.54c3.046,1.45,9.066-1.511,10.793-0.324
		c1.727,1.187,5.073-0.216,6.8,0.324c1.727,0.54,2.267,1.943,2.051,0c-0.216-1.943-5.455-2.361-5.455-2.361
		c-2.091-0.453-4.372-1.075-6.007-2.347c-2.467-1.919-4.472-4.441-6.625-6.751c-2.192-2.351-5.146-4.462-2.982-8.384
		c0.094-0.17-0.03-0.457,0.06-0.633c0.151-0.296,0.369-0.758,0.597-0.782c1.399-0.146,2.809-0.209,4.217-0.256
		c0.513-0.017,1.085,0.254,1.536,0.106c2.3-0.757,4.527-1.759,6.855-2.397c6.454-1.769,12.474-4.307,17.415-8.99
		c2.448-2.32,4.885-4.66,7.452-6.845c2.298-1.956,4.283-4.075,4.825-7.141c0.412-2.329,0.659-4.688,0.932-7.04
		c0.541-4.674,2.867-8.658,4.96-12.711c1.801-3.487,4.628-5.646,8.694-5.982c0.835-0.069,1.639-0.512,2.458-0.783l0-0.007
		c0.008-0.003,0.015-0.001,0.023-0.004c0.288-0.109,0.576-0.218,0.864-0.327C148.545,42.47,148.438,41.753,147.871,41.693z
		 M91.459,111.193c0.278,0.32,0.519,1,0.362,1.282c-0.17,0.307-0.859,0.533-1.262,0.461c-0.72-0.13-1.609-0.318-2.054-0.815
		c-3.194-3.572-6.314-7.212-9.413-10.869c-0.949-1.12-0.985-2.284-0.023-3.132c1.321,1.15,2.648,2.11,3.734,3.291
		C85.751,104.616,88.606,107.904,91.459,111.193z"/>
</g>
</svg>
