<?xml version="1.0" encoding="iso-8859-1"?>
<!-- Generator: Adobe Illustrator 17.1.0, SVG Export Plug-In . SVG Version: 6.00 Build 0)  -->
<!DOCTYPE svg PUBLIC "-//W3C//DTD SVG 1.1//EN" "http://www.w3.org/Graphics/SVG/1.1/DTD/svg11.dtd">
<svg version="1.1" id="Capa_1" xmlns="http://www.w3.org/2000/svg" xmlns:xlink="http://www.w3.org/1999/xlink" x="0px" y="0px"
	 viewBox="0 0 150 150" style="enable-background:new 0 0 150 150;" xml:space="preserve">
<g>
	<path d="M146.502,45.001c-0.181-0.006-0.323-0.008-0.459,0.016c-6.271,1.102-12.089,3.284-17.308,7.022
		c-2.786,1.995-5.639,3.922-8.6,5.642c-2.515,1.461-5.237,2.455-8.073,3.185c-1.07,0.275-2.389-0.326-2.761-1.367
		c-0.696-1.948-0.896-3.97-0.76-6.032c0.213-3.242-0.222-6.247-2.303-8.896c-0.79-1.006-1.351-2.189-2.051-3.27
		c-0.505-0.78-0.965-1.628-1.623-2.261c-1.502-1.444-3.165-1.264-4.357,0.437c-0.513,0.731-0.828,1.599-1.242,2.401
		c-0.301,0.582-0.604,1.163-0.907,1.744c-0.503,0.962-0.998,1.761-1.106,1.785c-0.108,0.023-0.399-0.238-0.653-0.581
		c-0.155-0.209-0.315-0.411-0.5-0.589c-5.348-5.134-11.201-9.552-18.143-12.315c-5.611-2.233-11.448-3.367-17.498-2.657
		c-4.736,0.556-9.233,2.014-13.421,4.328c-5.792,3.201-10.458,7.682-14.104,13.132c-2.077,3.105-3.698,6.524-5.423,9.854
		c-2.26,4.361-3.149,9.012-2.733,13.922c0.287,3.391,0.535,6.788,0.692,10.188c0.125,2.706,0.474,5.432-0.403,8.104
		c-0.464,1.414-0.787,2.873-1.22,4.298c-0.848,2.792-1.769,5.535-3.548,7.936c-2.265,3.057-5.084,4.647-8.995,4.217
		c-1.562-0.172-3.169,0.061-4.754,0.136c-0.187,0.009-0.372,0.057-0.609,0.125c-0.331,0.094-0.396,0.271-0.144,0.411
		c0.196,0.109,0.329,0.182,0.471,0.218c2.157,0.55,4.291,1.285,6.484,1.586c7.489,1.029,13.243-1.839,17.233-8.194
		c1.669-2.659,3.141-5.442,4.694-8.174c0.545-0.959,0.881-1.021,1.861-0.642c0.718,0.278,0.881,0.791,0.948,1.416
		c0.475,4.445,1.039,8.882,1.382,13.337c0.326,4.232,1.567,8.028,4.285,11.346c0.668,0.815,1.194,1.546,2.28,1.944
		c1.003,0.367,1.955,0.876,2.902,1.395c2.276,1.398,4.713,4.977,4.713,4.977c0.549-1.83-0.976-4.659-1.834-6.047
		c0.375-0.266,1.011-0.434,1.718-0.348c0.816,0.099,1.612,0.284,2.405,0.487c2.032,1.608,3.97,4.45,3.97,4.45
		c0.426-1.419-0.396-3.44-1.187-4.924c0.093-0.505,0.733-0.892,1.541-0.892c0.69,0,1.194-0.188,1.317-0.453
		c1.844,0.025,3.462,0.272,3.462,0.272c-1.319-2.252-6.65-2.946-6.65-2.946l-0.007,0.032c-0.325-0.102-0.657-0.19-0.996-0.261
		c-1.962-0.408-3.1-1.599-3.825-3.46c-1.232-3.163-2.525-6.315-4.023-9.359c-1.482-3.011-2.152-6.089-1.667-9.4
		c0.04-0.274,0.141-0.54,0.26-0.814c0.189-0.434,1.118-0.336,1.986,0.347c1.912,1.504,3.212,3.331,3.686,5.814
		c0.628,3.297,1.887,6.346,4.067,8.922c0.883,1.043,1.9,2.099,3.08,2.733c1.548,0.832,3.353,0.929,5.127,0.631
		c0.19-0.032,0.38-0.058,0.571-0.085l0.006,0.099c2.767-0.364,9.323,2.254,9.323,2.254c-0.729-0.934-1.851-1.821-3.067-2.613
		c-0.029-0.124-0.068-0.258-0.12-0.401c-0.21-0.58-0.098-1.066,0.251-1.083c0.173-0.008,0.313-0.072,0.389-0.162
		c1.121-0.14,1.99-0.18,1.99-0.18c-1.22-0.869-3.404-1.116-5.007-1.173c-0.678-0.185-1.355-0.372-2.021-0.593
		c-0.802-0.266-1.742-0.584-2.243-1.19c-1.25-1.509-2.289-3.192-3.399-4.816c-0.142-0.208-0.202-0.474-0.294-0.714
		c-0.898-2.339-1.01-4.772-1.1-7.221c-0.04-1.104,0.759-2.318,1.84-2.543c1.801-0.375,3.608-0.388,5.426-0.169
		c0.936,0.113,2.054,0.227,2.727,0.78c5.947,4.883,9.196,11.347,10.59,18.804c0.5,2.671,0.762,5.386,1.197,8.071
		c0.068,0.42,0.395,0.891,0.741,1.158c1.911,1.474,4.13,1.696,6.456,1.525c1.626-0.12,3.147,0.096,4.469,0.892
		c2.092,1.58,4.137,4.578,4.137,4.578c0.387-1.289-0.257-3.073-0.971-4.503c0.25-0.241,0.641-0.375,1.106-0.385l-0.019,0.03
		c0.159-0.01,0.325-0.009,0.495-0.002c0.023,0.003,0.045,0.003,0.068,0.007c0.9,0.151,1.791,0.277,2.635,0.536
		c2.028,0.634,3.887,1.59,3.887,1.59c-0.214-1.029-1.128-2.024-2.142-2.848c-0.025-0.065-0.057-0.132-0.087-0.198
		c1.515,0.067,2.721,0.251,2.721,0.251c-0.856-1.461-3.395-2.264-5.076-2.649c-1.198-0.805-2.52-1.493-3.914-2.084
		c-2.029-0.861-3.167-2.357-3.805-4.309c-0.344-1.05,0.258-1.39,1.276-0.962c1.318,0.553,2.68,0.725,4.112,0.68
		c1.278-0.041,2.558-0.034,3.862-0.024c2.24,0.342,4.472,1.153,4.472,1.153c-0.264-0.764-0.935-1.455-1.735-2.047
		c1.437,0.072,2.558,0.242,2.558,0.242c-0.427-0.73-1.278-1.294-2.23-1.726c-0.053-0.049-0.107-0.098-0.175-0.144
		c-0.425-0.292-0.91-0.452-1.393-0.574c-1.598-0.402-3.225-0.699-4.851-0.978c-1.992-0.341-3.373-1.551-3.809-3.484
		c-0.459-2.037-0.616-4.086-0.4-6.181c0.286-2.771,0.456-5.554,0.681-8.332c0.005-0.061,0.03-0.12,0.063-0.191
		c0.047-0.101,0.493,4.496,1.171,4.346c0.651-0.144,1.041,0.127,1.227,0.768c0.049,0.167,0.127,0.325,0.228,0.516
		c0.146,0.276,0.387-0.385,0.545-1.478c0.003-0.023,0.007-0.045,0.01-0.068c0.157-1.093,4.937-4.365,5.743-3.609
		c0.806,0.756,1.577,1.48,2.338,2.215c2.17,2.095,4.4,4.134,6.468,6.326c2.632,2.789,4.138,6.248,5.295,9.849
		c0.278,0.866,0.652,1.297,1.564,1.365c0.803,0.059,1.599,0.25,2.39,0.416c0.229,0.048,2.213-0.552,3.167-0.841
		c0.336-0.102,0.694-0.226,0.963-0.438c0.965-0.761,1.919-1.539,2.833-2.36c0.529-0.476,0.415-1.694-0.146-2.16
		c-2.205-1.832-3.588-4.165-4.114-6.968c-0.448-2.387-0.837-4.789-1.146-7.198c-0.177-1.371-0.155-2.769-0.198-4.156
		c-0.044-1.414-0.152-2.836-0.057-4.242c0.092-1.363-0.141-2.568-0.965-3.66c-0.146-0.194-0.338-0.451-0.317-0.659
		c0.185-1.832-0.409-3.505-0.914-5.22c-0.474-1.607-0.368-3.15,1.255-4.198c1.357-0.876,2.625-1.918,4.052-2.655
		c3.858-1.991,7.435-4.387,10.592-7.345c3.763-3.524,7.391-7.193,11.072-10.804c0.098-0.096,0.178-0.209,0.279-0.355
		C146.844,45.175,146.756,45.01,146.502,45.001z"/>
</g>
</svg>
