<?xml version="1.0" encoding="iso-8859-1"?>
<!-- Generator: Adobe Illustrator 17.1.0, SVG Export Plug-In . SVG Version: 6.00 Build 0)  -->
<!DOCTYPE svg PUBLIC "-//W3C//DTD SVG 1.1//EN" "http://www.w3.org/Graphics/SVG/1.1/DTD/svg11.dtd">
<svg version="1.1" id="Capa_1" xmlns="http://www.w3.org/2000/svg" xmlns:xlink="http://www.w3.org/1999/xlink" x="0px" y="0px"
	 viewBox="0 0 150 150" style="enable-background:new 0 0 150 150;" xml:space="preserve">
<g>
	<path d="M110.833,100.667c0.525,1.274,0.675,1.589,1.325,1.936c0.204,0.111,0.359,0.141,0.473,0.163
		c0.178,0.035,0.275,0.054,0.613,0.75c0.568,1.158,0.642,1.307,1.401,1.686c0.121,0.061,0.234,0.113,0.337,0.16
		c0.478,0.22,0.59,0.284,0.598,0.611c0.029,1.114,1.056,2.403,1.703,2.403c0.188,0,0.389-0.105,0.467-0.383
		c0.164,0.115,0.35,0.207,0.542,0.303c0.596,0.297,1.212,0.605,1.534,1.662c0.037,0.122,0.153,0.494,0.458,0.494
		c0.091,0,0.224-0.036,0.335-0.207c0.222-0.338,0.312-1.162,0.104-1.641c-0.811-1.885-2.081-3.289-2.796-3.509
		c-0.618-0.185-0.946-0.301-1.06-0.723c-0.188-0.685-0.49-1.507-1.152-1.788c-0.708-0.296-1.119-0.748-1.221-1.34
		c-0.082-0.487-0.699-1.166-1.415-1.952c-0.64-0.703-1.364-1.499-1.632-2.1c-1.313-3.705-2.467-8.051-3.583-12.255
		c-1.675-6.312-3.257-12.275-5.206-15.465c-0.062-0.1-0.112-0.268-0.162-0.43c-0.05-0.162-0.102-0.329-0.171-0.462
		c-0.093-0.178-0.242-0.333-0.445-0.462c-0.247-0.155-0.659-0.23-1.259-0.23c-2.944,0-10.611,2.009-14.308,5.293
		c-0.175,0.155-0.314,0.264-0.385,0.31c-0.045-0.015-0.134-0.053-0.306-0.142c-0.113-0.058-0.233-0.238-0.232-0.427
		c0.011-1.254-0.166-1.913-0.434-2.518c-0.005-0.011-0.009-0.021-0.013-0.029c0.021-0.001,0.039-0.002,0.039-0.002
		c1.291,0.112,2.032-0.321,2.418-0.679c0.285-0.265,0.545-0.467,0.713-0.554c5.104-2.645,14.249-17.816,15.328-21.733
		c0.054-0.195,0.237-0.4,0.41-0.458c0.891-0.295,2.279-0.948,3.832-2.387c0.058-0.052,0.114-0.179,0.107-0.256
		c-0.006-0.078-0.039-0.136-0.084-0.185c0.268-0.209,0.695-0.505,1.113-0.793c0.65-0.449,1.265-0.873,1.523-1.132
		c0.061-0.063,0.103-0.201,0.08-0.286c-0.041-0.153-0.179-0.218-0.33-0.266c0.559-0.538,1.16-1.058,1.654-1.485
		c0.969-0.837,1.091-0.952,1.057-1.161c-0.002-0.012-0.005-0.024-0.01-0.037c0.27-0.213,0.334-0.286,0.354-0.451
		c0.017-0.138,0.304-0.537,0.831-1.157c0.207-0.249,0.4-0.458,0.584-0.629c0.249-0.233,0.373-0.351,0.303-0.541
		c-0.016-0.043-0.05-0.083-0.092-0.114c0.008-0.037,0.026-0.088,0.066-0.145c0.498-0.698,1.667-0.859,2.521-0.977
		c0.686-0.095,1.1-0.152,1.174-0.48c0.065-0.283-0.215-0.514-0.528-0.722c-0.63-0.416-1.367-0.645-2.077-0.645
		c-1.224,0-2.223,0.643-2.755,1.767c-0.07-0.058-0.154-0.088-0.242-0.088c-0.249,0-0.46,0.222-0.707,0.742
		c-0.093,0.198-0.568,1.23-0.787,2.137c-0.026,0.109-0.045,0.132-0.096,0.194c-0.045,0.055-0.097,0.119-0.159,0.23
		c-0.042,0.076-0.092,0.17-0.147,0.276c-0.225,0.427-0.551,1.045-0.961,1.538c-0.085-0.195-0.185-0.404-0.405-0.404
		c-0.063,0-0.167,0.044-0.214,0.088c-0.345,0.33-0.692,0.847-1.061,1.394c-0.255,0.381-0.517,0.77-0.783,1.104
		c-0.012-0.039-0.03-0.075-0.059-0.107c-0.086-0.099-0.298-0.103-0.398-0.021c-0.374,0.306-0.795,0.685-1.229,1.075
		c-0.642,0.578-1.304,1.175-1.873,1.584c-0.211,0.151-0.603,0.349-0.837,0.467c-1.866,0.939-2.547,2.191-4.8,6.34
		c-0.616,1.135-1.353,2.49-2.265,4.119c-5.396,9.633-8.025,11.072-9.112,11.072c-0.124,0-0.243-0.019-0.354-0.056
		c-0.268-0.088-0.527-0.133-0.775-0.133c-0.903,0-1.475,0.57-1.934,1.028L83.79,67.62c-0.007-0.002-0.036-0.023-0.057-0.089
		c-1.045-3.338-4.063-6.265-5.822-7.748c3.553-0.436,5.1-2.008,7.044-4.349c3.181-3.848,0.264-11.722-1.158-14.972l-0.07-0.134
		c0-0.021,0.012-0.117,0.177-0.427c0.135-0.252,0.203-0.509,0.203-0.762l0.001-0.554c0.001-0.237,0.087-0.628,0.188-0.854
		c0.431-0.962,0.844-1.924,1.251-2.873c1.67-3.891,3.247-7.566,5.585-10.08c0.11-0.118,0.239-0.331,0.394-0.65
		c0.131-0.271,0.276-0.718,0.342-0.995c0.65-2.759,2.595-12.139,0.342-16.982c-0.579-1.248-1.323-1.434-1.716-1.434
		c-0.457,0-0.915,0.242-1.257,0.664c-0.447,0.55-0.634,1.322-0.488,2.014c1.539,7.441,2.069,12.515,1.578,15.078
		c-0.047,0.244-0.212,0.628-0.336,0.835c-0.269,0.446-0.658,1.067-0.987,1.497c-2.187,2.878-3.736,6.874-5.696,11.933
		c-0.059,0.149-0.268,0.282-0.467,0.295c-0.162,0.011-0.313,0.037-0.452,0.075c-0.191,0.054-0.355,0.021-0.43-0.09
		c-0.537-0.82-1.09-1.478-1.691-2.01c-0.155-0.137-0.276-0.418-0.265-0.613c0.035-0.585,0.014-1.018-0.063-1.286
		c-0.036-0.127-0.145-0.516-1.403-1.354c-0.245-0.163-0.459-0.147-0.583,0.005c-0.086,0.104-0.108,0.254-0.068,0.457
		c0.051,0.263,0.072,0.677-0.111,1.152c-0.049,0.123-0.257,0.217-0.44,0.188c-0.375-0.062-0.769-0.095-1.15-0.062
		c-0.1,0.009-0.262,0.009-0.361,0c-0.383-0.032-0.776,0.001-1.15,0.062c-0.178,0.027-0.392-0.063-0.438-0.187
		c-0.186-0.476-0.164-0.89-0.113-1.152c0.04-0.204,0.018-0.354-0.068-0.458c-0.125-0.151-0.339-0.167-0.583-0.004
		c-1.259,0.838-1.367,1.227-1.402,1.353c-0.078,0.27-0.1,0.703-0.064,1.287c0.012,0.197-0.109,0.478-0.264,0.614
		c-0.6,0.53-1.153,1.188-1.692,2.009c-0.074,0.113-0.239,0.146-0.431,0.091c-0.138-0.039-0.29-0.064-0.453-0.075
		c-0.197-0.013-0.406-0.146-0.464-0.294c-1.961-5.059-3.511-9.055-5.698-11.934c-0.328-0.429-0.718-1.051-0.986-1.497
		c-0.124-0.207-0.289-0.591-0.336-0.835c-0.491-2.563,0.039-7.636,1.578-15.077c0.146-0.692-0.041-1.464-0.488-2.015
		c-0.342-0.422-0.8-0.664-1.257-0.664c-0.393,0-1.137,0.186-1.716,1.434c-2.253,4.843-0.309,14.223,0.342,16.982
		c0.065,0.276,0.211,0.724,0.342,0.994c0.154,0.319,0.283,0.532,0.394,0.65c2.338,2.514,3.915,6.189,5.585,10.08
		c0.407,0.948,0.82,1.91,1.251,2.872c0.101,0.226,0.187,0.617,0.188,0.854l0.001,0.553c0,0.253,0.068,0.51,0.203,0.762
		c0.156,0.293,0.175,0.395,0.185,0.395c0,0,0.001,0,0.002-0.001l-0.101,0.21c-1.401,3.207-4.318,11.081-1.138,14.93
		c1.944,2.341,3.491,3.913,7.043,4.349c-1.758,1.484-4.776,4.411-5.821,7.749c-0.019,0.061-0.048,0.087-0.104,0.056l-0.141-0.139
		c-0.46-0.458-1.031-1.028-1.935-1.028c-0.248,0-0.508,0.045-0.776,0.134c-0.109,0.037-0.229,0.055-0.353,0.055
		c-1.087,0-3.716-1.438-9.112-11.072c-0.912-1.629-1.648-2.984-2.265-4.119c-2.253-4.149-2.934-5.401-4.8-6.34
		c-0.234-0.118-0.626-0.316-0.837-0.467c-0.569-0.41-1.231-1.007-1.873-1.584c-0.434-0.39-0.854-0.77-1.231-1.077
		c-0.1-0.08-0.311-0.075-0.396,0.023c-0.028,0.033-0.047,0.068-0.059,0.107c-0.267-0.335-0.528-0.724-0.783-1.104
		c-0.368-0.547-0.716-1.064-1.063-1.396c-0.046-0.043-0.148-0.086-0.211-0.086c-0.221,0-0.32,0.208-0.405,0.404
		c-0.41-0.493-0.736-1.111-0.961-1.538c-0.056-0.106-0.105-0.2-0.148-0.276c-0.062-0.111-0.113-0.175-0.158-0.23
		c-0.051-0.062-0.069-0.085-0.096-0.194c-0.219-0.907-0.694-1.939-0.788-2.138c-0.246-0.52-0.457-0.741-0.706-0.741
		c-0.088,0-0.172,0.03-0.242,0.088c-0.532-1.125-1.531-1.767-2.755-1.767c-0.71,0-1.447,0.229-2.077,0.645
		c-0.313,0.208-0.594,0.438-0.528,0.722c0.074,0.328,0.488,0.385,1.174,0.48c0.854,0.118,2.022,0.279,2.521,0.977
		c0.04,0.057,0.059,0.109,0.066,0.146c-0.042,0.031-0.076,0.071-0.092,0.114c-0.07,0.19,0.054,0.308,0.312,0.55
		c0.174,0.162,0.367,0.371,0.576,0.622c0.525,0.618,0.812,1.018,0.829,1.155c0.021,0.165,0.084,0.238,0.354,0.451
		c-0.005,0.012-0.008,0.024-0.01,0.037c-0.034,0.208,0.088,0.323,1.057,1.161c0.495,0.428,1.096,0.948,1.654,1.485
		c-0.151,0.048-0.289,0.113-0.33,0.266c-0.022,0.086,0.02,0.225,0.083,0.288c0.256,0.257,0.87,0.681,1.521,1.13
		c0.417,0.288,0.846,0.583,1.112,0.793c-0.042,0.046-0.077,0.105-0.083,0.186c-0.007,0.077,0.049,0.203,0.105,0.255
		c1.555,1.439,2.943,2.093,3.834,2.388c0.172,0.057,0.356,0.263,0.41,0.459c1.081,3.918,10.227,19.089,15.328,21.731
		c0.168,0.086,0.428,0.289,0.714,0.555c0.385,0.358,1.125,0.794,2.417,0.679l0.032-0.245c0,0,0.001,0,0.001,0l0.014,0.202
		c0,0,0.001,0.022-0.021,0.073c-0.268,0.605-0.444,1.265-0.434,2.518c0.001,0.189-0.119,0.369-0.232,0.427
		c-0.176,0.091-0.265,0.128-0.305,0.143c-0.069-0.046-0.21-0.155-0.386-0.312c-3.696-3.283-11.363-5.292-14.308-5.292
		c-0.6,0-1.012,0.075-1.26,0.231c-0.202,0.128-0.352,0.283-0.444,0.461c-0.069,0.133-0.121,0.3-0.171,0.462
		c-0.05,0.163-0.101,0.331-0.161,0.43c-1.95,3.19-3.532,9.153-5.207,15.465c-1.116,4.204-2.27,8.55-3.576,12.237
		c-0.274,0.618-0.999,1.415-1.639,2.117c-0.716,0.786-1.333,1.464-1.415,1.951c-0.102,0.593-0.513,1.044-1.222,1.341
		c-0.661,0.28-0.963,1.103-1.151,1.789c-0.113,0.421-0.441,0.537-1.062,0.723c-0.712,0.22-1.982,1.624-2.793,3.507
		c-0.209,0.48-0.118,1.304,0.104,1.642c0.111,0.171,0.244,0.207,0.335,0.207c0.305,0,0.42-0.372,0.459-0.495
		c0.321-1.056,0.938-1.363,1.533-1.661c0.19-0.095,0.373-0.186,0.542-0.305c0.077,0.279,0.278,0.385,0.467,0.385
		c0.647,0,1.674-1.289,1.703-2.404c0.008-0.326,0.12-0.39,0.598-0.61c0.103-0.047,0.216-0.099,0.337-0.16
		c0.76-0.379,0.833-0.528,1.401-1.687c0.338-0.695,0.436-0.714,0.613-0.749c0.113-0.022,0.269-0.052,0.472-0.162
		c0.651-0.348,0.801-0.663,1.326-1.937c0.291-0.706,0.183-1.108,0.111-1.374c-0.058-0.212-0.061-0.225,0.188-0.383
		c0.15-0.095,0.266-0.102,0.399-0.109c0.649-0.037,0.926-0.297,1.478-3.078c0.6-3.047,2.252-7.42,3.851-11.648
		c1.853-4.903,3.769-9.974,4.088-13.091c0.01-0.102,0.048-0.102,0.066-0.102c0.016,0,0.042,0.003,0.081,0.019
		c0.068,0.029,0.14,0.056,0.214,0.083c0.311,0.113,0.797,0.186,1.034,0.21c2.148,0.226,2.825,0.709,3.762,1.378
		c1.048,0.749,2.352,1.681,6.092,2.712c0.969,0.186,1.722,0.627,2.41,1.063c0.169,0.107,0.386,0.365,0.545,0.553l0.078,0.091
		c0.239,0.279,0.686,0.625,1.457,0.69c0.181,0.016,0.352,0.146,0.388,0.298c0.121,0.507,0.25,0.939,0.354,1.286
		c0.046,0.155-0.038,0.375-0.184,0.479c-0.51,0.367-0.978,0.808-1.252,1.178c-0.076,0.103-0.142,0.205-0.195,0.289
		c-0.023,0.037-0.043,0.07-0.061,0.095c-0.014,0.004-0.028,0.009-0.042,0.014c-6.985,2.724-13.228,8.825-13.25,11.725
		c0,0.228,0.007,0.426,0.027,0.588c0.015,0.115,0.047,0.25,0.08,0.391c0.043,0.181,0.092,0.385,0.088,0.522
		c-0.051,2.246,0.192,4.977,0.473,8.138c0.467,5.252,1.048,11.788,0.592,19.492c-0.011,0.197-0.163,0.499-0.331,0.66
		c-1.068,1.013-1.96,2.572-1.986,3.477c-0.016,0.675-0.394,1.238-1.122,1.674c-0.675,0.398-0.872,1.336-0.969,2.109
		c-0.062,0.491-0.423,0.683-1.058,0.979c-0.734,0.341-1.894,2.058-2.483,4.237c-0.144,0.53,0.06,1.352,0.33,1.706
		c0.107,0.14,0.229,0.211,0.36,0.211c0.235,0,0.386-0.199,0.447-0.592c0.188-1.211,0.846-1.666,1.425-2.066
		c0.204-0.142,0.401-0.278,0.569-0.441c0.126,0.327,0.367,0.369,0.48,0.369c0.221,0,0.455-0.139,0.698-0.412
		c0.492-0.555,0.937-1.575,0.832-2.449c-0.042-0.372,0.073-0.462,0.568-0.782c0.104-0.067,0.218-0.141,0.342-0.227
		c0.763-0.534,0.817-0.705,1.249-2.042c0.267-0.828,0.375-0.865,0.57-0.934c0.118-0.042,0.279-0.098,0.48-0.247
		c0.654-0.487,0.767-0.85,1.137-2.308c0.136-0.537,0.15-0.924,0.16-1.206c0.019-0.492,0.023-0.624,0.637-0.963
		c0.251-0.139,0.403-0.162,0.495-0.175c0.081-0.012,0.204-0.03,0.278-0.15c0.078-0.128,0.039-0.244-0.026-0.435
		c-0.099-0.291-0.33-0.972-0.584-2.558c-0.46-2.849-0.348-6.972-0.229-11.336c0.158-5.819,0.322-11.836-0.971-14.82
		c-0.078-0.181-0.053-0.452,0.055-0.581c1.484-1.774,3.342-2.684,5.309-3.646c2.129-1.042,4.543-2.224,6.878-4.706
		c0.13-0.141,0.238-0.277,0.328-0.407c0.118-0.172,0.376-0.339,0.574-0.373c0.121-0.021,0.246-0.048,0.371-0.084
		c0.033-0.01,0.066-0.015,0.099-0.015c0.063,0,0.176,0.019,0.219,0.145c0.674,1.979,1.244,3.303,1.694,3.935
		c0.109,0.154,0.202,0.377,0.136,0.543c-0.184,0.459-0.46,1.24-0.734,2.355c-0.216,0.841-0.159,1.625,0.179,2.466
		c0.056,0.139,0.004,0.292-0.122,0.354c-6.32,3.14-9.804,8.339-10.354,15.454c-0.547,7.08,2.009,14.063,3.581,17.595
		c0.255,0.574,0.496,1.172,0.736,1.769c0.709,1.759,1.442,3.577,2.513,4.669c0.13,0.134,0.329,0.429,0.547,0.809
		c0.098,0.17,0.193,0.384,0.312,0.648c0.249,0.551,0.589,1.305,1.219,2.323c0.104,0.175,0.376,0.508,0.663,0.861
		c0.236,0.291,0.481,0.591,0.557,0.713c0.265,0.437,0.4,0.756,0.531,1.064c0.126,0.295,0.244,0.574,0.458,0.919
		c0.145,0.233,0.436,0.488,0.717,0.735c0.189,0.166,0.385,0.337,0.463,0.443c0.874,1.208,1.336,1.754,1.87,2.387
		c0.159,0.188,0.325,0.385,0.512,0.609c0.175,0.212,0.462,0.364,0.807,0.427c0.146,0.026,0.339,0.041,0.544,0.041
		s0.398-0.015,0.544-0.041c0.345-0.062,0.632-0.214,0.807-0.426c0.187-0.225,0.353-0.422,0.512-0.61
		c0.534-0.633,0.996-1.18,1.869-2.386c0.079-0.107,0.274-0.279,0.464-0.445c0.281-0.247,0.572-0.502,0.718-0.736
		c0.213-0.344,0.331-0.623,0.457-0.918c0.131-0.309,0.267-0.628,0.53-1.063c0.076-0.124,0.321-0.424,0.558-0.715
		c0.287-0.353,0.559-0.686,0.661-0.857c0.632-1.021,0.972-1.775,1.221-2.326c0.119-0.265,0.215-0.479,0.312-0.649
		c0.218-0.38,0.417-0.674,0.547-0.808c1.07-1.093,1.804-2.911,2.513-4.67c0.24-0.596,0.481-1.194,0.736-1.769
		c1.572-3.532,4.128-10.516,3.581-17.595c-0.551-7.115-4.034-12.314-10.354-15.454c-0.126-0.062-0.178-0.214-0.121-0.354
		c0.337-0.841,0.394-1.624,0.179-2.463c-0.275-1.118-0.552-1.899-0.735-2.357c-0.066-0.167,0.027-0.391,0.137-0.544
		c0.449-0.632,1.02-1.956,1.693-3.934c0.044-0.127,0.155-0.146,0.219-0.146c0.032,0,0.065,0.005,0.101,0.015
		c0.125,0.036,0.248,0.063,0.369,0.084c0.198,0.034,0.456,0.201,0.574,0.372c0.09,0.131,0.198,0.267,0.33,0.41
		c2.333,2.48,4.747,3.662,6.876,4.704c1.967,0.962,3.824,1.872,5.309,3.646c0.107,0.129,0.133,0.4,0.055,0.581
		c-1.293,2.984-1.129,9.001-0.971,14.82c0.119,4.365,0.231,8.487-0.229,11.337c-0.254,1.585-0.485,2.267-0.584,2.558
		c-0.065,0.191-0.104,0.307-0.026,0.435c0.074,0.121,0.197,0.139,0.278,0.15c0.092,0.013,0.244,0.036,0.495,0.175
		c0.613,0.339,0.618,0.471,0.637,0.963c0.01,0.282,0.024,0.669,0.16,1.207c0.37,1.458,0.482,1.82,1.138,2.307
		c0.2,0.148,0.361,0.205,0.479,0.247c0.195,0.068,0.304,0.106,0.57,0.934c0.432,1.336,0.486,1.508,1.25,2.042
		c0.123,0.085,0.237,0.159,0.341,0.226c0.495,0.32,0.61,0.41,0.568,0.781c-0.104,0.875,0.34,1.896,0.832,2.45
		c0.243,0.273,0.478,0.412,0.698,0.412c0.113,0,0.354-0.041,0.479-0.368c0.167,0.162,0.365,0.298,0.57,0.441
		c0.579,0.4,1.236,0.854,1.425,2.066c0.062,0.393,0.212,0.592,0.447,0.592c0.132,0,0.253-0.071,0.36-0.211
		c0.271-0.354,0.474-1.176,0.33-1.706c-0.59-2.179-1.749-3.896-2.483-4.237c-0.635-0.296-0.996-0.488-1.058-0.98
		c-0.097-0.772-0.294-1.71-0.968-2.107c-0.729-0.437-1.107-1-1.123-1.677c-0.026-0.903-0.918-2.462-1.986-3.475
		c-0.168-0.16-0.319-0.462-0.331-0.66c-0.456-7.704,0.125-14.24,0.592-19.492c0.28-3.162,0.523-5.892,0.473-8.139
		c-0.004-0.135,0.045-0.34,0.088-0.521c0.033-0.14,0.065-0.276,0.08-0.391c0.021-0.163,0.027-0.36,0.027-0.59
		c-0.022-2.898-6.265-8.999-13.256-11.726c-0.012-0.004-0.023-0.008-0.036-0.012c-0.018-0.025-0.037-0.058-0.061-0.095
		c-0.054-0.084-0.119-0.187-0.194-0.289c-0.274-0.37-0.743-0.811-1.254-1.178c-0.146-0.105-0.229-0.324-0.183-0.479
		c0.104-0.348,0.233-0.779,0.354-1.286c0.036-0.152,0.206-0.282,0.388-0.298c0.771-0.066,1.218-0.412,1.457-0.69l0.078-0.091
		c0.159-0.188,0.376-0.445,0.545-0.553c0.688-0.436,1.441-0.877,2.43-1.068c3.721-1.027,5.024-1.959,6.072-2.708
		c0.937-0.669,1.613-1.153,3.762-1.378c0.237-0.025,0.722-0.097,1.033-0.211c0.074-0.027,0.147-0.055,0.215-0.083
		c0.039-0.016,0.065-0.019,0.081-0.019c0.019,0,0.057,0,0.066,0.102c0.319,3.118,2.235,8.188,4.088,13.091
		c1.599,4.229,3.251,8.601,3.851,11.649c0.552,2.78,0.828,3.041,1.478,3.077c0.134,0.007,0.249,0.014,0.399,0.109
		c0.249,0.158,0.246,0.171,0.188,0.383C110.65,99.559,110.542,99.96,110.833,100.667z"/>
</g>
</svg>
