<?xml version="1.0" encoding="iso-8859-1"?>
<!-- Generator: Adobe Illustrator 17.1.0, SVG Export Plug-In . SVG Version: 6.00 Build 0)  -->
<!DOCTYPE svg PUBLIC "-//W3C//DTD SVG 1.1//EN" "http://www.w3.org/Graphics/SVG/1.1/DTD/svg11.dtd">
<svg version="1.1" id="Capa_1" xmlns="http://www.w3.org/2000/svg" xmlns:xlink="http://www.w3.org/1999/xlink" x="0px" y="0px"
	 viewBox="0 0 150 150" style="enable-background:new 0 0 150 150;" xml:space="preserve">
<g>
	<path d="M140.781,89.68c-1.24-1.671-1.851-3.615-2.572-5.509c-0.552-1.45-1.039-2.934-1.414-4.438
		c-0.254-1.022-0.262-2.106-0.384-3.161c-0.159-1.372-0.229-2.762-0.501-4.11c-0.597-2.957-1.094-5.992-3.059-8.428
		c-1.287-1.594-2.771-3.03-4.167-4.535c-0.036-0.039-0.087-0.064-0.125-0.101c-1.145-1.09-2.316-2.154-3.413-3.29
		c-0.238-0.247-0.414-0.884-0.266-1.119c1.083-1.719,0.504-3.374-0.239-4.921c-0.641-1.335-1.55-2.504-1.499-4.118
		c0.026-0.813-1.374-1.36-2.154-0.878c-0.653,0.403-1.27,0.89-1.817,1.427c-0.409,0.401-0.682,0.343-0.965-0.047
		c-1.068-1.472-2.428-2.602-3.992-3.511c-0.331-0.193-0.605-0.482-1.081-0.87c-0.337,0.711-0.826,1.387-0.978,2.131
		c-0.386,1.892-0.724,3.807-0.873,5.729c-0.073,0.944,0.33,1.922,0.487,2.89c0.043,0.267,0.073,0.639-0.072,0.801
		c-0.113,0.126-0.524,0.057-0.773-0.021c-1.989-0.626-3.979-1.25-5.952-1.922c-2.121-0.722-4.257-1.416-6.323-2.274
		c-1.554-0.646-3.132-1.045-4.784-1.314c-1.023-0.166-1.976-0.726-2.992-0.985c-1.427-0.363-2.882-0.614-4.326-0.907
		c-1.342-0.272-2.685-0.54-4.028-0.8c-1.426-0.277-2.845-0.625-4.284-0.791c-1.401-0.161-2.83-0.234-4.238-0.159
		c-1.854,0.099-3.7,0.372-5.548,0.586c-1.394,0.161-2.794,0.297-4.176,0.537c-0.876,0.152-1.73,0.452-2.582,0.722
		c-1.551,0.492-3.094,1.005-4.638,1.52c-0.699,0.233-1.383,0.515-2.086,0.732c-0.501,0.154-1.06,0.155-1.531,0.365
		c-1.416,0.628-2.842,1.252-4.188,2.012c-2.058,1.162-4.074,2.402-6.067,3.674c-2.301,1.47-4.566,3.044-6.326,5.138
		c-1.36,1.619-3.161,2.919-3.94,4.998c-0.795,2.123-1.504,4.282-2.386,6.368c-0.823,1.944-1.065,3.977-1.256,6.033
		c-0.033,0.357,0.156,0.746,0.082,1.085c-0.527,2.396-3.178,4.35-5.653,3.228c-1.664-0.754-3.248-1.828-4.631-3.031
		c-2.34-2.036-4.417-4.341-5.717-7.236c-1.226-2.73-2.192-5.541-2.827-8.468c-0.471-2.172-1.11-4.318-1.421-6.512
		c-0.326-2.296-0.354-4.635-0.5-6.956c-0.031-0.484,0.058-1.009-0.63-1.108c-0.667-0.097-0.872,0.405-0.932,0.865
		c-0.217,1.661-0.507,3.331-0.506,4.998c0.001,3.025,0.079,6.058,0.325,9.072c0.591,7.21,2.931,13.819,7.273,19.639
		c2.003,2.685,4.296,5.143,7.248,6.818c2.955,1.676,6.14,2.208,9.482,1.371c0.838-0.21,1.67-0.475,2.469-0.802
		c0.611-0.25,1.157-0.324,1.565,0.246c0.74,1.034,1.704,1.654,2.964,1.822c0.731,0.098,1.017,0.681,1.201,1.26
		c0.796,2.496,1.731,4.954,1.993,7.597c0.156,1.577,1.119,2.525,2.616,2.944c1.928,0.54,3.836,1.196,5.799,1.55
		c1.336,0.241,2.756,0.129,4.126,0.019c0.682-0.055,1.347-0.436,2-0.714c0.543-0.231,0.963-0.127,1.356,0.294
		c0.177,0.19,0.398,0.351,0.625,0.478c0.143,0.08,0.336,0.07,0.507,0.101c0.027-0.163,0.049-0.327,0.083-0.488
		c0.057-0.264,0.122-0.527,0.183-0.791c0.272,0.114,0.562,0.199,0.812,0.349c0.27,0.163,0.485,0.417,0.758,0.573
		c0.177,0.101,0.414,0.097,0.623,0.14c0.034-0.22,0.102-0.44,0.097-0.659c-0.036-1.649-1.359-2.365-2.392-3.302
		c-1.394-1.263-2.967-1.172-4.636-0.738c-1.625,0.422-3.163,0.096-4.388-1.031c-0.4-0.368-0.33-1.203-0.608-1.758
		c-0.619-1.239-0.032-2.057,0.831-2.838c1.309-1.184,2.602-2.387,3.905-3.577c0.428-0.391,0.883-0.535,1.319-0.02
		c1.295,1.53,2.691,2.992,3.831,4.631c0.738,1.061,1.214,2.351,1.59,3.604c0.463,1.545,1.56,2.205,2.955,2.556
		c1.407,0.354,2.82,0.746,4.254,0.91c1.152,0.132,2.339-0.059,3.512-0.09c0.303-0.008,0.608,0.051,0.913,0.073
		c0.233,0.017,0.539,0.125,0.69,0.019c0.98-0.689,1.847-0.262,2.725,0.202c0.744,0.393,1.042,0.256,1.436-0.463
		c0.087-0.159,0.631-0.257,0.815-0.143c0.943,0.589,0.926,0.617,1.87,0.024c-0.756-1.936-3.127-3.601-5.154-3.578
		c-0.879,0.01-1.773,0.229-2.631,0.122c-1.251-0.156-2.485-0.491-3.706-0.824c-0.243-0.066-0.459-0.439-0.578-0.717
		c-0.248-0.58-0.534-1.181-0.593-1.794c-0.046-0.481,0.12-1.058,0.379-1.477c0.504-0.814,1.198-1.509,1.702-2.322
		c0.493-0.794,1.168-0.826,1.948-0.731c1.341,0.165,2.685,0.31,4.027,0.476c1.29,0.159,2.584,0.297,3.863,0.526
		c0.357,0.064,0.654,0.431,0.992,0.636c1.225,0.743,2.429,1.526,3.691,2.202c2.135,1.143,3.497,2.929,4.661,5
		c1.132,2.013,2.333,4.033,4.227,5.468c0.539,0.409,1.168,0.75,1.81,0.961c1.277,0.42,2.587,0.739,3.891,1.071
		c0.265,0.068,0.563,0.023,0.845,0.006c0.439-0.027,0.898-0.008,1.31-0.134c0.387-0.119,0.779-0.342,1.072-0.621
		c1.001-0.953,1.124-0.965,2.389-0.311c0.403,0.209,0.89,0.295,1.348,0.341c0.2,0.02,0.415-0.232,0.641-0.307
		c0.32-0.107,0.652-0.197,0.986-0.233c0.348-0.037,0.704-0.002,1.056,0.002c-0.028-0.433,0.118-1.053-0.113-1.27
		c-1.75-1.644-3.682-2.936-6.268-2.695c-1.944,0.181-3.27-0.876-4.404-2.284c-1.036-1.285-1.357-2.666-0.654-4.231
		c0.259-0.577,0.395-1.209,0.628-1.8c0.235-0.595,0.602-0.703,1.198-0.361c1.864,1.071,3.257,2.568,4.228,4.471
		c1.145,2.244,2.901,3.864,5.01,5.214c1.438,0.921,2.873,1.756,4.56,2.07c0.367,0.068,0.762,0.009,1.142-0.019
		c0.152-0.011,0.309-0.156,0.448-0.135c0.905,0.14,1.448-0.306,1.904-1.026c0.256-0.405,0.667-0.587,1.181-0.314
		c0.392,0.208,0.845,0.307,1.224,0.534c0.6,0.36,1.136,0.671,1.674-0.103c0.065-0.093,0.436,0.028,0.665,0.048
		c0.211,0.019,0.422,0.035,0.633,0.053c-0.014-0.276,0.08-0.643-0.062-0.81c-0.478-0.562-0.994-1.114-1.58-1.558
		c-1.4-1.061-3.021-1.49-4.769-1.52c-2.071-0.036-4.298-2.325-4.3-4.387c-0.001-1.156-0.011-2.313,0.002-3.469
		c0.009-0.839,0.344-1.074,1.161-1.199c1.308-0.2,2.648-0.374,3.887-0.808c2.58-0.904,4.112-2.732,4.305-5.546
		c0.044-0.639,0.091-1.278,0.176-1.912c0.033-0.248,0.142-0.664,0.27-0.686c0.271-0.046,0.642,0.035,0.859,0.207
		c2.488,1.97,4.921,4.011,7.436,5.946c2.823,2.173,5.717,4.255,8.576,6.381c0.214,0.159,0.419,0.339,0.596,0.538
		c0.673,0.758,1.487,0.666,2.351,0.453c0.797-0.196,1.601-0.41,2.414-0.49c1.374-0.134,2.069-1.254,1.372-2.495
		C142.462,92.139,141.665,90.872,140.781,89.68z"/>
</g>
</svg>
