<?xml version="1.0" encoding="iso-8859-1"?>
<!-- Generator: Adobe Illustrator 17.1.0, SVG Export Plug-In . SVG Version: 6.00 Build 0)  -->
<!DOCTYPE svg PUBLIC "-//W3C//DTD SVG 1.1//EN" "http://www.w3.org/Graphics/SVG/1.1/DTD/svg11.dtd">
<svg version="1.1" id="Capa_1" xmlns="http://www.w3.org/2000/svg" xmlns:xlink="http://www.w3.org/1999/xlink" x="0px" y="0px"
	 viewBox="0 0 150 150" style="enable-background:new 0 0 150 150;" xml:space="preserve">
<g>
	<path d="M130.091,67.254c-0.26-1.154-1.055-2.028-1.56-3.05c-0.682-1.379-1.256-2.815-1.802-4.255
		c-0.119-0.313,0.018-0.763,0.134-1.119c0.322-0.992,0.169-1.913-0.428-2.724c-0.272-0.369-0.708-0.625-1.094-0.901
		c-0.88-0.63-1.594-1.354-1.84-2.473c-0.084-0.381-0.349-0.745-0.601-1.06c-0.335-0.419-0.403-0.808-0.065-1.237
		c0.309-0.393,0.324-0.701-0.139-1.023c-0.432-0.301-0.375-0.786-0.158-1.275c0.293-0.662,0.451-1.384,0.668-2.079
		c0.116-0.369,0.236-0.737,0.352-1.106c0.035-0.113,0.084-0.23,0.086-0.345c0.013-0.855,0.041-1.712,0.001-2.565
		c-0.008-0.165-0.288-0.444-0.446-0.447c-0.273-0.004-0.622,0.094-0.809,0.28c-0.367,0.366-0.649,0.817-0.955,1.241
		c-0.118,0.162-0.202,0.349-0.31,0.518c-0.067,0.105-0.156,0.181-0.276,0.215c0.276-0.624-0.073-1.59,0.102-2
		c0.879-2.067,0.197-4.458-0.76-6.491c-0.685-1.455-1.518-2.854-2.036-4.382c-0.555-1.637,0.037-2.443,0.246-4.073
		c0.382-2.986-2.067-5.545-2.825-8.459c-0.363-1.394-0.332-2.867-0.696-4.26c-0.393-1.503-1.228-2.847-1.828-4.281
		c-0.528-1.261-0.873-2.598-1.026-3.956c-0.091-0.804,0.055-1.972-0.97-2.169c-0.263,1.659-0.915,3.756-0.368,5.469
		c0.277,0.868,0.729,1.67,1.037,2.528c0.495,1.376,0.606,2.855,0.714,4.314c0.084,1.141,0.018,2.402,0.44,3.462
		c0.189,0.474,0.592,1.891,0.896,2.204c2.242,2.312,0.535,6.189,0.979,8.979c0.531,3.339,3.664,6.094,3.305,9.456
		c0.021,2.298,0.378,5.965-0.937,7.937c-2.058,3.085-7.744-7.882-9.378-8.272c-3.152-0.752-4.977-3.24-6.426-5.951
		c-0.86-1.61-1.176-2.328-2.754-3.264c-1.55-0.918-3.068-1.875-4.216-3.294c-1.427-1.765-2.174-4.065-3.874-5.568
		c-1.021-0.903-2.306-1.443-3.459-2.17c0-0.396-1.868-1.9-2.155-2.277c-0.728-0.957-1.343-1.995-2.043-2.972
		c-0.79-1.102-2.003-1.851-3.207-2.427c-0.995-0.477-1.85-1.876-2.893-2.062c-0.153-0.027,0.824,2.054,1.034,2.303
		c0.591,0.701,1.359,1.286,2.158,1.727c1.502,2.798,3.389,6.353,6.167,8.053c1.676,1.025,3.097,2.455,4.132,4.122
		c0.958,1.543,1.462,3.012,2.744,4.35c0.894,0.933,2.122,0.951,3.162,1.718c1.022,0.753,1.81,1.82,2.438,2.91
		c1.096,1.901,1.922,4.038,3.57,5.486c1.548,1.36,3.668,1.965,5.133,3.414c1.855,1.835,2.607,4.372,4.624,6.096
		c-0.446,0.451-1.126,0.729-1.674,1.08c-0.561,0.359-1.02,0.363-1.586-0.08c-0.658-0.515-1.455-0.847-2.15-1.32
		c-0.744-0.506-1.437-1.085-2.156-1.627c-0.352-0.266-0.601-0.729-1.164-0.602c-0.065,0.015-0.16-0.058-0.229-0.108
		c-1.446-1.057-3.188-1.515-4.744-2.349c-0.569-0.305-1.109-0.664-1.666-1c-0.438,0.303-0.526,0.865-0.217,1.554
		c0.112,0.25,0.272,0.479,0.396,0.725c0.629,1.25,1.111,2.58,1.993,3.693c1.147,1.448,2.288,2.901,3.876,3.914
		c0.99,0.632,1.969,1.282,2.951,1.929c0.051,0.033,0.074,0.108,0.118,0.174c-0.996,0.834-1.353,2.057-1.981,3.107
		c-0.59,0.986-1.147,1.993-1.717,2.992c-0.491,0.861-1.014,1.706-1.462,2.588c-0.386,0.76-0.998,1.297-1.623,1.821
		c-0.655,0.549-1.35,1.055-2.059,1.532c-0.244,0.164-0.597,0.285-0.879,0.251c-1.318-0.162-2.624-0.435-3.945-0.563
		c-0.612-0.06-1.255,0.08-1.87,0.198c-1.253,0.24-2.505,0.495-3.743,0.801c-2.07,0.511-4.144,0.976-6.292,0.744
		c-0.755-0.082-1.491-0.319-2.243-0.442c-1.77-0.289-3.542-0.557-5.315-0.822c-1.883-0.281-3.769-0.551-5.653-0.823
		c-1.067-0.154-2.133-0.308-3.202-0.449c-1.91-0.253-3.817-0.539-5.733-0.733c-2.104-0.213-4.213-0.203-6.323,0.031
		c-1.018,0.113-2.053,0.067-3.079,0.122c-2.465,0.134-4.866,0.569-7.227,1.333c-1.662,0.538-3.129,1.437-4.683,2.173
		c-0.609,0.288-1.243,0.544-1.804,0.909c-0.731,0.475-1.402,1.04-2.096,1.572c-0.83,0.636-1.698,1.23-2.475,1.925
		c-1.365,1.22-2.528,2.619-3.243,4.328c-0.777,1.859-1.487,3.745-2.272,5.6c-0.304,0.718-0.766,1.368-1.096,2.077
		c-0.329,0.708-0.72,1.435-0.81,2.186c-0.043,0.361,0.134,0.869,0.18,1.317c0.006,0.062,0.111,0.136,0.185,0.164
		c0.397,0.148,0.343,0.414,0.188,0.7c-0.199,0.369-0.314,0.666,0.088,1.045c0.162,0.153,0.004,0.638,0.009,0.972
		c0.002,0.165,0.042,0.33,0.065,0.495c0.154-0.08,0.318-0.145,0.459-0.243c0.199-0.138,0.382-0.3,0.571-0.452
		c0.036,0.043,0.071,0.086,0.106,0.129c-0.305,0.297-0.61,0.595-0.934,0.911c0.028,0.173,0.063,0.386,0.095,0.588
		c0.665-0.286,1.342-0.517,1.96-0.858c0.734-0.405,1.106-1.117,1.285-1.916c0.161-0.719,0.37-1.443,0.399-2.171
		c0.044-1.126-0.119-2.261-0.063-3.386c0.065-1.306,0.197-2.618,0.435-3.902c0.263-1.416,1.16-2.529,2.066-3.606
		c0.145-0.172,0.367-0.279,0.521-0.393c-0.26,0.945-0.616,1.877-0.755,2.84c-0.201,1.392-0.557,2.778-0.232,4.225
		c0.158,0.701,0.012,1.465,0.073,2.194c0.063,0.769,0.166,1.54,0.328,2.294c0.303,1.405,0.613,2.812,1.013,4.191
		c0.258,0.889,0.64,1.718,1.228,2.5c0.772,1.028,1.361,2.22,1.16,3.624c-0.042,0.291,0.208,0.642,0.128,0.906
		c-0.263,0.868-0.577,1.725-0.945,2.554c-0.313,0.703-0.705,1.374-1.108,2.032c-0.193,0.315-0.462,0.603-0.75,0.838
		c-1.376,1.127-2.744,2.267-4.169,3.328c-0.627,0.467-1.3,0.909-1.624,1.6c-0.248,0.528-0.192,1.195-0.291,1.797
		c-0.054,0.326-0.081,0.685-0.239,0.961c-0.476,0.83-0.569,1.757-0.774,2.657c-0.201,0.882-0.176,1.794-0.571,2.659
		c-0.254,0.555-0.196,1.251-0.292,1.881c-0.038,0.247-0.112,0.489-0.176,0.732c-0.222,0.833-0.459,1.663-0.669,2.499
		c-0.295,1.173-0.554,2.355-0.859,3.525c-0.452,1.738-0.937,3.467-1.395,5.203c-0.169,0.64-0.343,1.285-0.429,1.939
		c-0.042,0.318,0.11,0.663,0.178,1.01c0.147-0.007,0.269-0.036,0.382-0.015c0.312,0.059,0.582,0.051,0.662,0.544
		c0.139,0.856,0.099,1.679,0.04,2.533c-0.039,0.571,0.053,1.209,0.446,1.745c0.189,0.259,0.249,0.629,0.312,0.96
		c0.104,0.546,0.49,0.727,0.957,0.864c0.875,0.258,1.754,0.291,2.657,0.184c0.534-0.063,0.662-0.218,0.394-0.814
		c0.255,0.159,0.443,0.277,0.656,0.41c0.456-0.698,0.295-1.37,0.047-2.057c-0.178-0.494-0.287-1.014-0.475-1.504
		c-0.129-0.334-0.311-0.659-0.524-0.947c-0.408-0.552-0.547-1.178-0.623-1.837c-0.039-0.343-0.123-0.682-0.158-1.025
		c-0.083-0.805-0.249-1.619-0.196-2.417c0.071-1.063,0.309-2.116,0.493-3.17c0.16-0.917,0.308-1.838,0.526-2.742
		c0.193-0.8,0.469-1.581,0.718-2.367c0.234-0.737,0.445-1.483,0.731-2.2c0.41-1.027,0.796-2.078,1.345-3.031
		c0.538-0.933,1.225-1.793,1.928-2.616c0.488-0.571,1.107-1.033,1.683-1.526c0.113-0.097,0.3-0.108,0.445-0.156
		c0.193,0.859,0.387,1.721,0.581,2.583c0.348,1.549,0.706,3.096,1.039,4.648c0.371,1.727,0.714,3.459,1.08,5.188
		c0.129,0.612,0.323,1.213,0.425,1.829c0.123,0.734,0.17,1.48,0.269,2.219c0.035,0.263,0.146,0.517,0.181,0.78
		c0.11,0.837,0.305,1.682,0.267,2.514c-0.039,0.84,0.622,1.293,0.822,1.978c0.003,0.011,0.028,0.023,0.044,0.023
		c1.122,0.036,1.334,1.114,1.956,1.719c0.505,0.491,0.797,1.055,0.946,1.798c0.113,0.561,0.679,1.119,1.184,1.483
		c0.362,0.262,0.953,0.246,1.446,0.276c0.941,0.058,1.886,0.081,2.829,0.076c0.537-0.002,0.635-0.145,0.462-0.67
		c-0.176-0.533-0.408-1.05-0.644-1.561c-0.24-0.519-0.441-1.081-0.792-1.518c-0.419-0.522-0.956-0.961-1.488-1.377
		c-0.34-0.267-0.674-0.476-0.844-0.924c-0.1-0.264-0.504-0.4-0.653-0.661c-0.554-0.967-1.195-1.916-1.551-2.958
		c-0.591-1.728-1.029-3.512-1.45-5.291c-0.382-1.615-0.67-3.253-0.974-4.885c-0.202-1.083,0.026-2.143,0.258-3.195
		c0.328-1.482,0.648-2.965,1.009-4.439c0.078-0.317,0.152-0.665,0.581-0.834c0.236-0.093,0.302-0.553,0.533-0.735
		c0.36-0.284,0.834-0.425,1.191-0.711c0.587-0.47,1.101-1.03,1.682-1.508c0.287-0.237,0.685-0.337,0.978-0.568
		c0.874-0.689,1.77-1.362,2.567-2.134c1.469-1.424,2.88-2.908,4.301-4.381c0.332-0.344,0.594-0.755,0.91-1.117
		c0.165-0.188,0.202-0.633,0.657-0.381c0.036,0.02,0.261-0.244,0.358-0.401c0.224-0.362,0.48-0.422,0.906-0.309
		c0.582,0.155,1.094,0.598,1.752,0.456c0.016-0.003,0.044-0.004,0.05,0.005c0.379,0.571,0.971,0.134,1.42,0.299
		c0.978,0.36,2.003,0.229,3.002,0.336c1.041,0.111,2.097,0.103,3.146,0.095c1.97-0.016,3.942-0.019,5.907-0.128
		c1.024-0.056,2.032-0.358,3.055-0.488c0.773-0.098,1.559-0.107,2.34-0.139c1.145-0.047,2.292-0.145,3.434-0.098
		c1.233,0.051,2.46,0.247,3.69,0.375c0.472,0.049,0.947,0.132,1.417,0.114c0.449-0.017,0.597,0.291,0.615,0.576
		c0.04,0.65-0.042,1.306-0.035,1.96c0.01,0.835,0.044,1.67,0.097,2.503c0.083,1.301,0.16,2.604,0.29,3.901
		c-0.281,0.12-0.562,0.302-0.856,0.559c-1.904,1.665-3.89,3.237-6.16,5.111c3.031,1.324,5.345,1.528,7.928,0.602
		c0.174,1.256,0.347,2.511,0.549,3.762c0.108,0.669,0.18,1.433,0.552,1.949c0.628,0.873,0.342,1.803,0.407,2.687
		c0.102,1.378,0.05,2.777-0.056,4.158c-0.134,1.743-1.366,4.924-1.507,6.666c-0.039,0.478,0.985,0.245,0.999,1.115
		c0.028,1.723,0.056,3.297,0.286,3.556c0.095,0.107,6.69,3.374,6.577,2.841c1.047,0.052,2.244,0.682,2.806-0.678
		c0.256-0.083,0.546-0.092,0.654-0.237c0.088-0.118,0.009-0.423-0.082-0.602c-0.403-0.799-0.828-1.587-1.265-2.368
		c-0.115-0.206-0.302-0.371-0.459-0.554c-0.354-0.413-0.942-0.634-1.034-1.261c-0.83-0.497-0.473-1.364-0.635-2.066
		c-0.454-1.968-0.226-3.958-0.106-5.936c0.078-1.287,0.311-2.565,0.489-3.845c0.161-1.156,0.316-2.314,0.521-3.462
		c0.146-0.821,0.358-1.632,0.563-2.442c0.063-0.25,0.223-0.476,0.296-0.725c0.049-0.167,0.025-0.356,0.03-0.536
		c0.006-0.218,0.001-0.436,0.01-0.653c0.034-0.848,0.047-1.698,0.116-2.543c0.034-0.416,0.135-0.827,0.221-1.238
		c6.212-1.714,12.246-3.711,18.351-5.834c0.321-0.113,0.59-0.271,0.817-0.457c0.772-0.175,1.491-0.54,1.981-1.133
		c0.654-0.793,1.035-1.589,1.11-2.622c0.053-0.736-0.163-1.523-0.546-2.15c-0.567-0.929-1.648-1.385-2.672-1.185
		c-1.582-1.274-3.164-2.548-4.746-3.822c-0.243-0.196-0.507-0.355-0.781-0.475c-1.313-0.994-3.071-1.379-4.682-1.488
		c0.562-0.93,1.157-1.84,1.877-2.662c0.022-0.026,0.051-0.064,0.077-0.065c0.793-0.03,0.971-0.719,1.32-1.227
		c0.767-1.117,1.54-2.23,2.299-3.352c1.068-1.58,2.199-3.125,3.164-4.767c0.777-1.322,1.384-2.749,2-4.159
		c0.514-1.177,0.925-2.399,1.394-3.596c0.474-1.21,1.006-2.4,1.432-3.627c0.313-0.901,0.496-1.847,0.741-2.772
		c0.026-0.097,0.077-0.187,0.143-0.341c0.778,0.284,1.532,0.583,2.303,0.833c0.761,0.247,1.531,0.587,2.31,0.623
		c0.901,0.042,1.501,0.432,2.087,1.024c0.87,0.878,1.846,1.488,3.17,1.546c1.57,0.068,2.561-0.855,3.56-1.802
		c0.158-0.15,0.118-0.511,0.165-0.775c0.017-0.097-0.012-0.215,0.032-0.293c0.568-1.001,0.042-1.846-0.378-2.705
		C130.252,67.477,130.119,67.379,130.091,67.254z M103.044,104.011c0.014,0.011,0.029,0.022,0.044,0.034
		c-0.938,0.995-1.875,1.991-2.813,2.986c-0.129,0.137-0.236,0.278-0.327,0.421c-1.659,0.578-3.37,1.076-5.038,1.64
		c0.086-0.371,0.193-0.733,0.358-1.063c0.563-1.124,0.512-2.404,1.044-3.519c0.243-0.509,0.472-1.023,0.711-1.534
		c0.109-0.233,0.226-0.461,0.336-0.693c0.04-0.085,0.083-0.167,0.126-0.249c0.318,0.05,0.636,0.1,0.954,0.153
		C99.974,102.794,101.509,103.402,103.044,104.011z"/>
</g>
</svg>
