<?xml version="1.0" encoding="iso-8859-1"?>
<!-- Generator: Adobe Illustrator 17.1.0, SVG Export Plug-In . SVG Version: 6.00 Build 0)  -->
<!DOCTYPE svg PUBLIC "-//W3C//DTD SVG 1.1//EN" "http://www.w3.org/Graphics/SVG/1.1/DTD/svg11.dtd">
<svg version="1.1" id="Capa_1" xmlns="http://www.w3.org/2000/svg" xmlns:xlink="http://www.w3.org/1999/xlink" x="0px" y="0px"
	 viewBox="0 0 150 150" style="enable-background:new 0 0 150 150;" xml:space="preserve">
<g>
	<path d="M143.065,81.321c-5.51-2.618-9.532-6.864-12.892-11.782c-2.201-3.221-4.131-6.626-6.232-9.917
		c-1.024-1.604-1.018-3.247-0.296-4.889c3.006-6.84-2.606-13.727-9.332-13.497c-3.455,0.118-7.053,1.553-9.396,4.497
		c-2.524,3.171-4.48,6.683-4.949,10.866c-0.142,1.263-0.621,2.487-0.993,3.724c-0.065,0.218-0.262,0.506-0.444,0.642
		c-0.076,0.057-0.153,0.114-0.229,0.172c-0.182,0.136-0.41,0.081-0.496-0.129c-0.239-0.581-0.436-1.204-0.844-1.621
		c-6.461-6.601-13.988-11.393-23.129-13.354c-6.461-1.386-12.863-1.045-19.284,0.466c-2.231,0.525-4.621,0.377-6.938,0.538
		c-6.675,0.462-13.351,0.925-20.026,1.388c-0.227,0.016-0.414,0.159-0.419,0.32c-0.005,0.161,0.169,0.34,0.388,0.4
		c0.08,0.022,0.161,0.044,0.241,0.066c0.219,0.06,0.382,0.244,0.364,0.412c-0.018,0.167-0.216,0.281-0.442,0.255
		c-4.917-0.58-9.833-1.156-14.749-1.744c-1.291-0.154-2.579-0.339-3.865-0.529c-1.572-0.233-3.046-0.173-4.26,1.172
		c-0.152,0.169-0.09,0.382,0.123,0.463c0.652,0.248,1.285,0.488,1.927,0.731c0.213,0.081,0.327,0.321,0.256,0.537
		c-0.079,0.24-0.153,0.465-0.216,0.656c-0.071,0.216,0.031,0.484,0.228,0.598c3.569,2.074,7.114,4.076,10.587,6.197
		c1.499,0.915,2.817,2.123,4.25,3.152c2.5,1.797,5.069,3.5,7.521,5.36c1.215,0.921,2.235,2.1,3.338,3.168
		c0.869,0.841,1.808,1.624,2.58,2.547c1.386,1.654,3.064,3.224,3.892,5.143c0.921,2.135,2.603,2.805,4.374,3.536
		c2.688,1.11,5.424,2.102,8.434,3.249c0.212,0.081,0.271,0.292,0.132,0.472c-3.244,4.183-6.329,8.16-9.61,12.391
		c-0.139,0.18-0.121,0.455,0.04,0.615c1.558,1.543,3.308,3.276,5.021,4.972c0.161,0.16,0.41,0.432,0.563,0.599
		c0.473,0.518,1.499,1.54,2.54,1.926c0.213,0.079,0.568,0.177,0.774,0.275c0.677,0.324,2.081,1.171,2.7,2.827
		c0.559,1.496,0.568,1.747-0.657,2.717c-0.932,0.737-2.091,1.183-3.128,1.793c-0.28,0.165-0.521,0.398-0.853,0.692
		c-0.152,0.135-0.117,0.274,0.085,0.298c1.288,0.152,2.101-0.303,2.836-0.997c1.772-1.674,3.824-1.675,5.954-0.908
		c1.226,0.442,2.368,1.23,3.621,1.451c0.791,0.14,1.841-0.228,2.685-0.336c0.225-0.029,0.386,0.154,0.32,0.372
		c-0.144,0.481-0.419,0.916-0.891,1.29c-1.012,0.801-2.272,1.285-3.399,1.949c-0.305,0.179-0.566,0.432-0.927,0.752
		c-0.166,0.147-0.127,0.297,0.092,0.323c1.4,0.165,2.283-0.329,3.082-1.084c1.926-1.819,4.156-1.821,6.469-0.986
		c1.332,0.48,2.573,1.337,3.934,1.577c1.124,0.198,2.732-0.551,3.689-0.375c0.218,0.04,0.296-0.022,0.184-0.213
		c-0.545-0.935-1.116-1.072-2.578-0.925c-1.736,0.174-3.332-0.141-4.853-1.456c-0.167-0.145-0.117-0.27,0.104-0.27h5.724
		c0.221,0,0.357-0.084,0.303-0.188s-0.141-0.373-0.078-0.585c0.088-0.294,0.386-0.62,1.315-0.473c0.218,0.035,0.258-0.038,0.08-0.17
		c-0.627-0.466-1.543-0.938-2.162-0.781c-1.155,0.292-2.235,0.868-3.379,1.216c-1.217,0.37-2.078,0.09-2.685-0.851
		c-0.12-0.186-0.027-0.291,0.191-0.257c0.809,0.127,1.215-0.248,1.262-1.011c0.014-0.221,0.174-0.391,0.395-0.38
		c0.15,0.008,0.297,0.015,0.453,0.023c0.221,0.011,0.273-0.106,0.102-0.246c-1.386-1.136-2.296-0.4-3.163,0.888
		c-0.124,0.183-0.304,0.179-0.415-0.013c-0.468-0.81-0.888-1.419-1.118-2.093c-0.471-1.384-0.785-2.821-1.183-4.231l-0.099-0.47
		c-1.328-4.203-1.177-8.391-0.218-12.581c0.535-2.336,1.13-2.782,3.448-2.295c7.711,1.621,14.876,0.029,21.991-3.054
		c2.892-1.253,5.949-2.061,8.598-3.906c0.804-0.56,2.048-0.447,2.956-0.908c6.162-3.13,8.98-8.498,9.972-15.081
		c0.295-1.958,0.78-3.886,1.108-5.84c0.223-1.329,1.083-1.762,2.207-1.503c2.67,0.614,5.242,1.432,7.031,3.778
		c3.034,3.978,6.028,7.994,9.241,11.824c3.448,4.111,7.859,6.909,13.112,8.452c0.218,0.064,0.253-0.003,0.083-0.154
		C144.469,82.367,143.841,81.69,143.065,81.321z M58.161,108.567c-0.11-0.171-0.025-0.268,0.176-0.237
		c0.745,0.117,1.118-0.228,1.162-0.93c0.013-0.203,0.16-0.36,0.363-0.35c0.138,0.007,0.273,0.014,0.417,0.021
		c0.203,0.01,0.251-0.098,0.094-0.227c-1.276-1.046-2.113-0.368-2.911,0.818c-0.114,0.169-0.28,0.164-0.382-0.012
		c-0.341-0.59-0.655-1.064-0.875-1.544c-0.095-0.206-0.171-0.572-0.31-0.752c-0.129-0.169-0.363-0.396-0.78-0.685
		c-0.508-0.351-1.289-0.792-2.49-1.329c-0.207-0.093-0.525-0.275-0.703-0.416c-1.285-1.017-2.416-2.284-3.509-3.53
		c-0.245-0.279-0.592-0.694-0.536-0.975c0.327-1.635-0.025-3.334,1.335-4.852c1.856-2.073,3.342-4.49,4.881-6.829
		c0.719-1.093,1.374-1.493,2.642-0.825c1.32,0.695,2.757,1.167,4.14,1.742c1.35,0.562,2.106,1.456,1.716,3.021
		c-0.115,0.461-0.116,0.95-0.221,1.414c-0.806,3.548-1.64,7.075-0.034,10.656c0.22,0.49,0.034,1.162-0.056,2.011
		c-0.024,0.226,0.056,0.571,0.165,0.77l1.277,2.321c0.11,0.199,0.159,0.362,0.11,0.367c-0.03,0.003-0.059,0.008-0.088,0.015
		c-1.063,0.269-2.057,0.799-3.11,1.119C59.512,109.691,58.72,109.432,58.161,108.567z M64.744,109.709l0.108,0.196
		c0.11,0.199,0.232,0.541,0.271,0.765c0.064,0.368,0.118,0.726,0.146,1.071c0.019,0.227-0.115,0.282-0.324,0.192
		c-0.375-0.161-0.865-0.167-1.602-0.093c-1.598,0.16-3.067-0.13-4.466-1.34c-0.154-0.133-0.108-0.248,0.096-0.248h5.267
		c0.204,0,0.328-0.078,0.279-0.173c-0.05-0.096-0.13-0.343-0.072-0.538c0.01-0.033,0.023-0.067,0.04-0.101
		C64.515,109.387,64.634,109.51,64.744,109.709z"/>
</g>
</svg>
