<?xml version="1.0" encoding="iso-8859-1"?>
<!-- Generator: Adobe Illustrator 17.1.0, SVG Export Plug-In . SVG Version: 6.00 Build 0)  -->
<!DOCTYPE svg PUBLIC "-//W3C//DTD SVG 1.1//EN" "http://www.w3.org/Graphics/SVG/1.1/DTD/svg11.dtd">
<svg version="1.1" id="Capa_1" xmlns="http://www.w3.org/2000/svg" xmlns:xlink="http://www.w3.org/1999/xlink" x="0px" y="0px"
	 viewBox="0 0 150 150" style="enable-background:new 0 0 150 150;" xml:space="preserve">
<g>
	<path d="M6.755,93.286c1.66-0.051,3.839,0.106,4.272-2.067c0.63-3.164,2.757-4.508,5.479-5.234
		c1.657-0.442,3.399-0.611,5.115-0.779c2.909-0.285,5.563-1.043,7.572-3.355c0.308-0.354,0.695-0.643,1.222-1.048
		c0.091-0.07,0.254-0.153,0.364-0.185c0.117-0.034,0.233-0.068,0.35-0.102c0.11-0.032,0.244,0.024,0.3,0.124
		c0.781,1.413,1.603,2.642,2.035,3.993c0.557,1.739-0.557,2.969-2.086,3.58c-2.561,1.024-5.236,1.768-7.783,2.822
		c-2.475,1.024-4.897,2.205-7.244,3.496c-0.795,0.437-1.343,1.323-1.98,2.047c-0.076,0.086-0.049,0.177,0.062,0.205
		c0.112,0.028,0.225,0.056,0.337,0.085c0.111,0.028,0.195,0.143,0.186,0.257c-0.081,1.094-0.163,2.194-0.252,3.398
		c-0.008,0.114,0.069,0.168,0.171,0.116c2.011-1.042,3.461-3.331,5.847-3.188c0.115,0.007,0.183,0.108,0.154,0.219
		c-0.598,2.26-1.179,4.452-1.758,6.643c-0.029,0.111,0.032,0.239,0.136,0.286l0.21,0.094c0.105,0.047,0.272,0.042,0.374-0.01
		c0.191-0.098,0.382-0.197,0.577-0.298c0.102-0.053,0.208-0.005,0.236,0.106c0.142,0.565,0.285,1.13,0.476,1.89
		c0.028,0.111,0.108,0.128,0.178,0.038c0.626-0.803,1.119-1.427,1.6-2.06c1.485-1.952,3.441-3.135,5.809-3.751
		c0.911-0.237,2.067-0.519,2.568-1.188c3.63-4.842,8.863-6.011,14.406-6.73c2.866-0.372,5.666-1.259,8.532-1.632
		c2.089-0.272,4.239-0.111,6.361-0.077c0.342,0.006,0.768,0.282,1.003,0.561c1.512,1.794,3.005,3.608,4.549,5.484
		c0.073,0.089,0.123,0.253,0.114,0.367c-0.022,0.278-0.033,0.562-0.033,0.85c0,0.185,0.007,0.37,0.019,0.554
		c0.007,0.115-0.077,0.22-0.191,0.237c-3.663,0.549-7.303,1.463-11.369,0.199c-3.363-1.046-7.309-0.968-10.858-0.448
		c-3.164,0.463-4.732,3.452-6.408,6.44c-0.056,0.1-0.013,0.155,0.098,0.122c2.098-0.615,3.848-1.127,5.931-1.737
		c0.11-0.032,0.171,0.03,0.137,0.14c-0.423,1.343-0.707,2.243-1.037,3.289c-0.034,0.109,0.024,0.164,0.131,0.123
		c2.155-0.841,4.145-1.618,6.129-2.393c0.107-0.042,0.237,0.006,0.29,0.108c0.052,0.1,0.104,0.199,0.157,0.299
		c0.053,0.102,0.023,0.241-0.069,0.31c-3.416,2.564-7.924,4.311-7.815,10.004c0.002,0.115,0.086,0.16,0.185,0.102
		c0.717-0.42,1.201-0.68,1.654-0.985c1.736-1.172,3.404-2.099,5.73-1.389c1.221,0.372,2.732-0.099,4.092-0.316
		c2.046-0.327,2.568,0.251,2.005,2.324c-0.312,1.148-0.571,2.311-0.85,3.468c-0.027,0.112,0.037,0.238,0.142,0.283
		c0.048,0.02,0.095,0.04,0.143,0.061c0.106,0.045,0.255,0.014,0.336-0.068c0.309-0.312,0.638-0.611,0.892-0.963
		c1.078-1.498,2.312-2.628,4.295-2.895c0.969-0.13,1.998-0.7,2.758-1.352c5.356-4.598,11.668-4.606,18.097-3.762
		c3.418,0.449,6.766,1.423,10.18,1.921c1.82,0.266,3.813,0.373,5.544-0.108c1.267-0.352,2.607-1.598,3.192-2.798
		c0.33-0.675-0.789-2.072-1.291-3.127c-0.113-0.237-0.377-0.401-0.562-0.607c-1.969-2.188-2.134-3.604-0.613-5.242
		c2.227-2.399,3.699-2.677,6.028-0.577c8.945,8.067,24.348,8.117,34.463,1.211c5.232-3.572,8.569-8.319,7.979-14.957
		c-0.384-4.315-2.392-7.802-6.536-9.617c-0.849-0.372-2.028-0.292-2.939-0.026c-0.255,0.074-0.206,1.569-0.112,2.391
		c0.258,2.266,0.613,4.52,0.929,6.779c0,0,0.682,14.087-14.275,13.049c-12.453-0.865-14.105-8.137-13.171-14.505
		c0.017-0.114,0.06-0.294,0.092-0.404c0.186-0.621,0.315-1.256,0.386-1.895c0.013-0.114,0.043-0.297,0.071-0.408
		c0.083-0.328,0.17-0.651,0.261-0.966c1.974-6.855,1.35-36.666-29.395-39.99c-30.271-3.272-31.443,3.02-33.95,6.685
		c-0.065,0.095-0.027,0.183,0.087,0.198l1.027,0.137c0.114,0.015,0.188,0.068,0.167,0.119c-0.021,0.051-0.11,0.152-0.197,0.226
		l-6.237,5.277c-0.088,0.074-0.165,0.227-0.165,0.341c0,0.378,0.057,1.143,0.526,1.143c0.481,0-0.585,0.804-1.623,1.267
		c-0.105,0.047-0.185,0.014-0.176-0.07c0.005-0.05,0.01-0.101,0.014-0.152c0.037-0.432,0.038-0.859,0.006-1.279
		c-0.009-0.114,0.003-0.298,0.028-0.41c0.42-1.936,0.677-5.186-0.36-9.907c-0.183-0.667-0.387-1.378-0.583-2.104
		c-0.03-0.111-0.052-0.213-0.049-0.229c0.002-0.015,0.004-0.028,0.004-0.028c0.129-0.805-0.16-1.469-0.634-1.926
		c-0.083-0.08-0.208-0.214-0.283-0.302c-0.362-0.422-0.803-0.575-1.312-0.443c-0.111,0.029-0.291,0.068-0.404,0.088
		c-0.523,0.089-0.983,0.396-1.226,0.966c-0.045,0.106-0.134,0.264-0.21,0.35c-1.168,1.327-2.132,2.898-3.478,4.755
		c-0.067,0.093-0.136,0.076-0.153-0.038c-0.294-2-0.442-3.611-0.808-5.171c-0.097-0.416-0.217-0.827-0.346-1.235
		c-0.034-0.109-0.051-0.291-0.049-0.405c0.007-0.452-0.143-0.84-0.392-1.149c-0.072-0.089-0.17-0.242-0.209-0.35
		c-0.128-0.358-0.255-0.716-0.377-1.075c-0.037-0.109-0.147-0.151-0.247-0.095c-0.454,0.251-0.923,0.485-1.388,0.723
		c-0.102,0.052-0.274,0.121-0.38,0.167c-0.099,0.043-0.196,0.094-0.288,0.153c-0.096,0.062-0.249,0.167-0.349,0.224
		c-0.497,0.283-0.972,0.591-1.4,0.956c-2.517,2.147-3.791,5.138-4.465,8.268c-0.041,0.189-0.086,0.375-0.13,0.562
		c-0.11,0.399-0.212,0.801-0.304,1.206c-1.278,4.683-3.523,8.835-6.722,12.539c-1.523,1.763-1.932,3.829-2.123,6.125
		c-0.202,2.424-0.727,4.906-1.608,7.169c-0.063,0.162-0.13,0.322-0.196,0.483c-0.044,0.106-0.136,0.265-0.198,0.362
		c-0.077,0.122-0.145,0.257-0.202,0.404l-0.676,1.758c-1.281,2.85-2.702,5.646-3.854,8.547c-0.694,1.749-0.917,3.753-0.998,5.656
		C4.114,92.129,5.12,93.336,6.755,93.286z"/>
</g>
</svg>
