<?xml version="1.0" encoding="iso-8859-1"?>
<!-- Generator: Adobe Illustrator 17.1.0, SVG Export Plug-In . SVG Version: 6.00 Build 0)  -->
<!DOCTYPE svg PUBLIC "-//W3C//DTD SVG 1.1//EN" "http://www.w3.org/Graphics/SVG/1.1/DTD/svg11.dtd">
<svg version="1.1" id="Capa_1" xmlns="http://www.w3.org/2000/svg" xmlns:xlink="http://www.w3.org/1999/xlink" x="0px" y="0px"
	 viewBox="0 0 150 150" style="enable-background:new 0 0 150 150;" xml:space="preserve">
<g>
<path style="fill:#1D1D1B;" d="M146.923,74.164c-1.07-0.657-2.155-1.292-3.26-1.885c-0.346-0.186-0.686-0.379-1.018-0.584
	c-0.235-0.145-0.45-0.297-0.49-0.329c-0.024-0.019-0.049-0.038-0.074-0.056c-0.225-0.155-0.449-0.31-0.674-0.466
	c-0.724-0.56-1.381-1.2-1.929-1.956c-0.524-0.722-0.991-0.777-1.715-0.45c-1.104,0.499-1.821,0.303-2.7-0.567
	c-1.705-1.688-4.379-2.455-6.782-1.513c-1.846,0.724-3.339,1.834-4.861,3.045c-1.047,0.833-2.449,1.225-3.703,1.789
	c-1.933,0.869-3.959,0.825-5.952,0.367c-0.454-0.105-0.906-0.222-1.355-0.346c-0.104-0.037-0.209-0.067-0.317-0.089
	c-1.388-0.392-2.762-0.842-4.157-1.21c-0.898-0.237-1.78-0.429-2.662-0.788c-1.272-0.518-2.688-0.709-4.058-0.949
	c-1.663-0.292-3.339-0.539-5.018-0.707c-0.668-0.067-1.362,0.165-2.047,0.205c-1.167,0.068-2.338,0.079-3.506,0.135
	c-2.054,0.1-4.107,0.209-6.16,0.336c-0.096,0.006-0.19,0.043-0.284,0.088c-0.149,0.072-0.488,0.176-0.75,0.263
	c-0.138,0.046-0.274,0.098-0.406,0.156c-0.253,0.11-0.54,0.247-0.655,0.269c-0.069,0.013-0.139,0.024-0.209,0.03
	c-1.42,0.13-2.689,0.683-3.983,1.2c-0.519,0.207-1.076,0.347-1.629,0.437c-1.71,0.277-3.499,0.295-5.116,0.838
	c-1.322,0.444-2.764,0.463-3.956,1.09c-0.571,0.3-1.158,0.362-1.707,0.61c-0.353,0.16-0.731,0.265-1.125,0.377
	c-0.266,0.075-0.419,0.208-0.346,0.289c0.073,0.082-0.092,0.145-0.368,0.137c-0.257-0.007-0.494-0.011-0.728,0.017
	c-1.878,0.227-3.749,0.521-5.632,0.697c-0.85,0.079-1.729,0.001-2.58-0.117c-4.166-0.579-8.333-1.152-12.486-1.812
	c-3.848-0.612-7.729-0.946-11.598-0.738c-3.145,0.17-6.254,0.921-9.39,1.323c-3.616,0.464-7.057,1.554-10.435,2.838
	c-2.736,1.04-5.404,2.262-8.083,3.447c-0.135,0.06-0.233,0.206-0.321,0.372c-0.13,0.243-0.035,0.532,0.215,0.645
	c0.172,0.078,0.338,0.135,0.477,0.096c1.06-0.298,2.097-0.685,3.132-1.066c1.543-0.568,3.037-1.336,4.625-1.702
	c2.964-0.683,5.966-1.235,8.978-1.656c2.331-0.325,4.699-0.444,7.054-0.506c0.394-0.01,0.79-0.011,1.187-0.003
	c4.868,0.314,9.657,1.465,14.416,2.562c0.375,0.112,0.748,0.227,1.121,0.348c2.721,0.886,5.487,1.671,8.28,2.286
	c2.395,0.527,4.832,0.895,7.269,1.205l2.156,0.496c0.196,0.045,0.379,0.05,0.546,0.022c0.272-0.045,0.687-0.157,0.962-0.135
	c1.562,0.125,3.128,0.214,4.691,0.324c1.627,0.114,3.263,0.123,4.882,0.298c0.295,0.054,0.551,0.107,0.806,0.164
	c0.508,0.142,1.01,0.343,1.51,0.514c0.905,0.31,1.798,0.658,2.691,1.002c0.189,0.073,0.36,0.195,0.535,0.301
	c0.57,0.348,1.11,0.758,1.713,1.033c0.59,0.269,0.846,0.977,0.427,1.442c-0.98,1.086-1.986,2.151-2.922,3.273
	c-1.14,1.367-2.712,1.957-4.323,2.393c-1.353,0.366-2.312,1.023-3.087,2.223c-0.785,1.216-1.864,2.244-2.815,3.353
	c-0.019,0.023-0.04,0.054-0.065,0.061c-2.671,0.76-2.122,3.061-2.31,4.96c-0.068,0.683,0.179,1.41,0.358,2.098
	c0.052,0.2,0.355,0.345,0.559,0.493c0.403,0.293,0.811,0.578,1.239,0.878c0.226,0.159,0.564,0.122,0.796-0.026
	c0.569-0.364,1.132-0.262,1.978,0.405c0.217,0.171,0.458,0.104,0.451-0.172c-0.016-0.709-0.502-1.405-1.247-1.634
	c-0.823-0.253-1.521-0.644-1.644-1.563c-0.125-0.937,0.251-1.675,1.083-2.193c0.251-0.156,0.536-0.468,0.565-0.735
	c0.206-1.88,1.681-2.625,3.009-3.536c0.648-0.445,1.193-1.038,1.825-1.51c0.611-0.456,1.225-0.978,1.924-1.235
	c1.76-0.646,3.529-1.329,5.517-1.183c0.275,0.02,0.611,0.246,0.762,0.477c0.293,0.45,0.627,0.94,0.816,1.481
	c0.306,0.876,0.505,1.82,0.557,2.746c0.05,0.876,1.188,3.213,1.791,3.853c0.297,0.314,0.41,0.801,0.524,1.252
	c0.068,0.268,0.361,0.493,0.637,0.491c0.388-0.003,0.813,0.003,1.063,0.216c0.305,0.26,0.419,0.743,0.546,1.213
	c0.072,0.267,0.368,0.399,0.554,0.195c0.471-0.516,0.548-1.509,0.065-2.459c-0.483-0.95-1.115-1.868-1.367-2.879
	c-0.25-1.004-0.199-2.113-0.102-3.16c0.053-0.567,0.1-0.91-0.458-1.242c-0.969-0.577-1.668-1.418-2.124-2.474
	c-0.226-0.523-0.215-0.783,0.321-1.142c0.719-0.482,1.375-1.107,1.928-1.778c0.511-0.621,1.126-0.878,1.855-0.871
	c1.978,0.019,3.853-0.472,5.697-1.099c0.757-0.257,1.38-0.632,1.798-1.474c0.037-0.076,0.09-0.146,0.153-0.213
	c0.101-0.105,0.413-0.241,0.677-0.32c1.815-0.545,3.702-0.843,5.594-1.055c0.987-0.056,1.976-0.094,2.962-0.165
	c0.275-0.02,0.52,0.184,0.522,0.46c0.003,0.595-0.042,1.197,0.234,1.462c0.435,0.418,0.683,0.895,0.96,1.363
	c0.253,0.428,0.36,0.945,0.516,1.428c0.223,0.689,0.475,1.372,0.636,2.076c0.299,1.305,0.591,2.616,0.79,3.939
	c0.131,0.868,0.39,1.314,1.151,1.536c0.265,0.077,0.371-0.086,0.222-0.319c-0.228-0.356-0.427-0.709-0.36-1.097
	c0.047-0.272,0.307-0.257,0.429-0.01c0.248,0.499,0.483,1.006,0.827,1.422c0.424,0.513,1.026,0.647,1.863,0.507
	c0.272-0.046,0.27-0.15,0.011-0.246c-1.169-0.436-1.316-1.291-1.249-2.36c0.028-0.446-0.178-0.906-0.285-1.432
	c-0.055-0.271,0.113-0.356,0.328-0.183c0.406,0.327,0.811,0.654,1.22,0.976c1.3,1.023,3.354,0.673,4.142-0.71
	c0.049-0.086,0.077-0.185,0.117-0.328c0.052-0.186-0.092-0.215-0.338-0.09c-0.797,0.404-1.535,0.522-2.298,0.128
	c-0.249-0.129-0.453-0.356-0.658-0.557c-0.45-0.443-0.827-0.99-1.343-1.33c-1.045-0.69-2.038-1.312-2.097-2.787
	c-0.022-0.538-0.569-1.033-0.738-1.59c-0.437-1.445,0.324-2.388,1.453-3.139c1.236-0.821,2.229-1.868,2.939-3.175
	c0.098-0.181,0.222-0.373,0.24-0.568c0.166-1.747,1.303-2.427,2.866-2.686c0.037-0.006,0.073-0.014,0.11-0.022
	c0.06-0.014,0.259-0.035,0.442-0.059c0.114-0.015,0.224-0.035,0.329-0.06c0.251-0.061,0.494-0.137,0.725-0.231
	c0.256-0.103,0.669-0.265,0.937-0.332c0.815-0.204,1.624-0.42,2.322-0.825c1.511-0.879,3.029-0.737,4.504-0.376
	c2.786,0.682,5.522,1.568,8.268,2.406c0.804,0.245,1.717,0.184,2.347,0.967c0.633,0.787,1.341,1.534,2.115,2.178
	c0.529,0.44,1.197,0.807,1.86,0.969c0.844,0.207,1.396-0.408,1.256-1.259c-0.026-0.159-0.315-0.274-0.482-0.411
	c-0.102-0.083-0.204-0.167-0.31-0.254c-0.108-0.089-0.255-0.108-0.397-0.094c0.74-0.95,0.41-2.524,0.152-1.742
	c-0.23,0.694-0.874,1.176-1.157,1.36c-0.094-0.139-0.187-0.279-0.281-0.419c1.054-0.751,1.137-1.852,0.68-1.236
	c-0.32,0.43-0.872,0.485-1.188,0.479c-0.112-0.167-0.224-0.334-0.336-0.502c1.025-0.606,1.227-1.568,0.711-1.046
	c-0.361,0.365-0.884,0.359-1.202,0.314c-0.045-0.068-0.091-0.135-0.136-0.203c1.249-0.46,0.949-1.492,0.788-1.075
	c-0.125,0.324-0.835,0.412-1.216,0.437c-0.083-0.123-0.166-0.248-0.249-0.372c0.539-0.586,0.318-1.023,0.155-0.79
	c-0.083,0.119-0.312,0.195-0.522,0.242c-0.071-0.106-0.142-0.211-0.213-0.317c0.568-0.666,0.291-1.124,0.142-0.869
	c-0.077,0.131-0.315,0.228-0.529,0.292c-0.081-0.121-0.163-0.243-0.244-0.365c0.721-0.375,0.657-0.871,0.424-0.704
	c-0.19,0.136-0.691,0.045-0.895,0.001c-0.21-0.313-0.416-0.62-0.629-0.938c-0.154-0.229-0.065-0.486,0.19-0.593
	c0.366-0.152,0.68-0.295,0.969-0.254c0.286,0.041,0.575,0.082,0.863,0.126c0.107,0.216,0.228,0.514,0.172,0.681
	c-0.089,0.266,0.377,0.188,0.534-0.558c0.127,0.023,0.253,0.048,0.38,0.075c0.104,0.213,0.212,0.492,0.159,0.653
	c-0.086,0.258,0.35,0.193,0.52-0.492c0.323,0.087,0.641,0.186,0.948,0.309c0.062,0.024,0.115,0.07,0.174,0.101
	c-0.144,0.424-0.393,0.98-0.724,1.029c-0.499,0.074,0.542,0.654,1.364-0.557c0.127,0.121,0.253,0.244,0.375,0.376
	c-0.055,0.308-0.195,0.693-0.555,0.912c-0.603,0.368,0.286,0.405,1.089-0.358c0.035,0.034,0.068,0.072,0.103,0.105
	c0.146,0.136,0.229,0.361,0.393,0.452c0.006,0.003,0.012,0.008,0.018,0.011c-0.208,0.279-0.53,0.621-0.957,0.784
	c-0.723,0.276,0.902,0.515,1.673-0.344c0.321,0.168,0.647,0.225,0.978-0.056c-0.078,0.503-0.364,1.206-1.308,1.762
	c-1.423,0.838,2.254,0.308,2.858-1.502c0.062,0.075,0.168,0.141,0.311,0.154c0.424,0.04,0.771-0.202,0.984-0.58
	C147.72,75.075,147.466,74.498,146.923,74.164z"/>
</g>
</svg>
