<?xml version="1.0" encoding="iso-8859-1"?>
<!-- Generator: Adobe Illustrator 17.1.0, SVG Export Plug-In . SVG Version: 6.00 Build 0)  -->
<!DOCTYPE svg PUBLIC "-//W3C//DTD SVG 1.1//EN" "http://www.w3.org/Graphics/SVG/1.1/DTD/svg11.dtd">
<svg version="1.1" id="Capa_1" xmlns="http://www.w3.org/2000/svg" xmlns:xlink="http://www.w3.org/1999/xlink" x="0px" y="0px"
	 viewBox="0 0 150 150" style="enable-background:new 0 0 150 150;" xml:space="preserve">
<g>
	<path d="M145.246,63.47c-1.942-1.324-3.081-3.371-4.652-5.025c-0.104-0.11-0.18-0.249-0.289-0.352
		c-0.737-0.694-1.092-1.451-0.613-2.473c0.219-0.468,0.084-0.977-0.312-1.349c-0.76-0.714-1.473-1.5-2.32-2.092
		c-1.17-0.818-2.458-1.464-3.671-2.225c-0.375-0.235-0.678-0.591-0.994-0.911c-0.365-0.37-0.666-0.815-1.071-1.13
		c-0.529-0.41-0.968-0.338-1.502,0.063c-0.12,0.09-0.301,0.141-0.453,0.14c-0.572-0.002-1.145-0.018-1.716-0.058
		c-0.587-0.04-1.183-0.062-1.755-0.182c-1.732-0.364-3.445-0.823-5.183-1.15c-2.254-0.425-4.523-0.73-6.835-0.603
		c-1.345,0.074-2.629-0.23-3.883-0.773c-3.03-1.311-6.234-2.082-9.424-2.889c-1.616-0.409-3.209-0.938-4.845-1.235
		c-1.705-0.31-3.458-0.516-5.181-0.084c-2.178,0.547-4.271,1.348-6.305,2.304c-0.317,0.149-0.719,0.22-1.067,0.184
		c-2.748-0.28-5.49-0.583-8.257-0.656c-1.545-0.041-3.083-0.334-4.626-0.497c-1.778-0.188-3.562-0.325-5.336-0.542
		c-1.992-0.243-3.977-0.547-5.964-0.831c-1.016-0.145-2.028-0.315-3.045-0.453c-4.01-0.546-8.021-1.022-12.087-0.709
		c-3.275,0.252-6.572,0.313-9.742,1.315c-0.317,0.1-0.583,0.354-0.89,0.499c-0.579,0.273-1.151,0.59-1.762,0.762
		c-1.457,0.409-2.723,1.173-3.955,2.004c-1.482,1-3.054,1.909-4.381,3.089c-2.403,2.139-4.683,4.394-6.425,7.175
		c-1.946,3.107-3.141,6.48-4.146,9.955c-0.581,2.007-1.208,4.002-1.74,6.022c-0.309,1.171-0.506,2.375-0.687,3.575
		c-0.135,0.896,0.011,1.773,0.383,2.62c0.135,0.307,0.07,0.696,0.14,1.038c0.135,0.669,0.095,1.532,0.502,1.952
		c0.589,0.607,0.739,1.528,1.558,1.951c0.224-0.106,0.478-0.227,0.792-0.376c0,0.265,0,0.483,0,0.73
		c0.999-0.271,0.42,0.548,0.677,0.917c0.193-0.145,0.389-0.293,0.599-0.451c0.279,0.619,0.503-0.001,0.809-0.079
		c0.103,0.51,0.132,1.044,0.322,1.512c0.398,0.981-0.029,1.809-0.383,2.651c-1.143,2.718-2.611,5.254-4.353,7.63
		c-1.088,1.483-2.198,2.949-3.316,4.41c-0.347,0.454-0.725,0.892-1.138,1.285c-0.464,0.441-0.685,0.931-0.625,1.575
		c0.054,0.581,0.171,1.182-0.222,1.712c-0.027,0.036-0.032,0.099-0.025,0.146c0.099,0.744,0.206,1.487,0.302,2.231
		c0.032,0.249,0.07,0.504,0.048,0.751c-0.048,0.538,0.156,0.947,0.553,1.288c0.082,0.07,0.21,0.189,0.194,0.255
		c-0.144,0.584,0.34,0.911,0.522,1.359c0.107,0.263,0.168,0.548,0.219,0.828c0.138,0.761,0.251,1.527,0.395,2.286
		c0.021,0.113,0.133,0.241,0.238,0.3c0.484,0.27,0.592,0.71,0.459,1.174c-0.314,1.096-0.176,2.092,0.471,3.037
		c0.092,0.134,0.035,0.398-0.01,0.589c-0.046,0.192-0.167,0.366-0.248,0.551c-0.116,0.264-0.059,0.409,0.241,0.531
		c0.401,0.163,0.806,0.367,1.136,0.642c0.542,0.451,1.146,0.584,1.82,0.566c3.542-0.096,7.084-0.189,10.626-0.278
		c0.278-0.007,0.469-0.051,0.67-0.317c0.18-0.237,0.566-0.328,0.874-0.454c0.592-0.242,0.683-0.83,0.666-1.286
		c-0.033-0.834-0.233-1.668-0.426-2.487c-0.126-0.533-0.463-0.942-0.926-1.283c-0.23-0.17-0.393-0.556-0.417-0.857
		c-0.065-0.813-0.674-1.264-1.226-1.556c-0.611-0.324-0.767-0.74-0.823-1.308c-0.021-0.215-0.003-0.435,0.114-0.583
		c0.126-0.145,0.274-0.278,0.373-0.44c0.104-0.171,0.153-0.374,0.243-0.555c0.059-0.119,0.147-0.319,0.225-0.32
		c0.702-0.012,0.956-0.717,1.519-0.96c0.338-0.146,0.578-0.533,0.848-0.824c0.375-0.406,0.734-0.826,1.105-1.236
		c0.437-0.484,0.88-0.963,1.318-1.447c0.118-0.131,0.229-0.268,0.36-0.422c0.064,0.096,0.109,0.134,0.116,0.178
		c0.334,2.302,0.821,4.594,0.549,6.942c-0.064,0.551-0.2,1.094-0.302,1.641c-0.117,0.63,0.25,1.102,0.898,1.095
		c0.774-0.009,1.288,0.361,1.808,0.908c0.286,0.301,0.861,0.426,1.316,0.452c1.43,0.081,2.865,0.119,4.297,0.099
		c2.597-0.036,5.194-0.111,7.789-0.203c0.609-0.021,1.211-0.185,1.819-0.263c0.231-0.03,0.468-0.005,0.721-0.005
		c0.504-0.754,0.207-1.972-0.594-2.42c-0.16-0.09-0.312-0.254-0.391-0.42c-0.338-0.714-0.71-1.351-1.531-1.646
		c-0.55-0.198-0.8-0.744-0.848-1.295c-0.074-0.854-0.092-1.716-0.075-2.573c0.036-1.822,0.036-3.649,0.19-5.462
		c0.145-1.701,0.421-3.396,0.729-5.077c0.337-1.84,0.775-3.661,1.176-5.489c0.043-0.196,0.119-0.387,0.194-0.574
		c0.295-0.746,0.297-0.71,1.106-0.705c0.705,0.004,1.41-0.08,2.115-0.128c0.115-0.008,0.229-0.03,0.405-0.053
		c0,0.339,0,0.649,0,0.984c0.12,0,0.188,0.018,0.241-0.003c0.621-0.25,1.236-0.365,1.914-0.178c0.578,0.159,1.116-0.034,1.603-0.65
		c0,0.404,0,0.624,0,0.948c0.477-0.196,0.868-0.38,1.276-0.512c0.149-0.048,0.34,0.021,0.509,0.055
		c0.152,0.03,0.305,0.135,0.447,0.119c0.418-0.047,0.865-0.061,1.239-0.227c0.865-0.384,1.784-0.184,2.687-0.376
		c0.038,0.167,0.07,0.308,0.128,0.56c0.278-0.138,0.54-0.228,0.754-0.385c0.285-0.209,0.543-0.307,0.925-0.26
		c0.341,0.042,0.768-0.04,1.049-0.228c0.497-0.333,0.993-0.528,1.575-0.458c0.118,0.132,0.256,0.252,0.348,0.399
		c0.075,0.121,0.096,0.275,0.17,0.505c0.229-0.147,0.494-0.257,0.677-0.447c0.454-0.471,1.007-0.699,1.625-0.866
		c0.507-0.137,0.983-0.388,1.532-0.613c0.346,0.276,0.724,0.016,1.079-0.229c0.351-0.243,0.655-0.527,1.108-0.169
		c0.125,0.099,0.356,0.07,0.539,0.088c0.335,0.032,0.666-0.25,1.031,0.071c0.094,0.083,0.542-0.18,0.788-0.343
		c0.344-0.228,0.652-0.511,0.976-0.771c0.039,0.028,0.079,0.057,0.118,0.085c-0.5,1.055-1,2.11-1.524,3.216c0.189,0,0.338,0,0.591,0
		c-0.283,0.449-0.532,0.845-0.782,1.241c0.027,0.035,0.055,0.07,0.082,0.105c0.204-0.075,0.407-0.15,0.721-0.265
		c-0.2,0.404-0.363,0.733-0.579,1.17c0.368-0.068,0.619-0.114,0.982-0.181c-0.158,0.337-0.268,0.627-0.424,0.889
		c-0.371,0.621-0.663,1.215-0.709,2.001c-0.051,0.875-0.425,1.74-0.721,2.587c-0.185,0.53-0.39,1.015-0.278,1.61
		c0.064,0.341-0.102,0.722-0.14,1.088c-0.023,0.223,0.001,0.45,0.005,0.675c0.193-0.09,0.386-0.18,0.696-0.324
		c-0.043,0.221-0.07,0.421-0.125,0.614c-0.051,0.182-0.231,0.356,0.096,0.487c0.064,0.026,0.071,0.308,0.035,0.454
		c-0.331,1.339-0.677,2.675-1.036,4.081c0.002,0.002,0.108,0.073,0.231,0.157c-0.171,0.355-0.339,0.707-0.513,1.068
		c0.914,0.284,1.04,0.472,0.859,1.39c-0.127,0.64-0.347,1.262-0.476,1.902c-0.201,0.994-0.359,1.996-0.539,3.012
		c1.001,0.038,0.984,0.039,1.02,0.954c0.008,0.214,0.173,0.421,0.26,0.633c0.038,0.091,0.099,0.19,0.089,0.279
		c-0.057,0.529,0.292,0.793,0.658,1.047c1.077,0.747,2.307,0.845,3.57,0.923c3.332,0.205,6.659,0.474,9.989,0.717
		c0.252,0.018,0.507,0.073,0.755,0.048c0.802-0.08,1.562,0.08,2.346,0.234c0.76,0.149,1.572,0.034,2.36,0.026
		c0.056-0.001,0.126-0.058,0.165-0.108c0.303-0.391,0.631-0.49,1.082-0.197c0.123,0.08,0.379-0.045,0.648-0.088
		c0.173,0.43,0.479,0.31,0.833,0.021c0.361-0.296,0.737-0.222,1.135-0.03c0.327,0.157,0.688,0.242,1.113,0.386
		c-0.025-0.67-0.341-0.983-0.671-1.299c-0.123-0.118-0.284-0.296-0.273-0.435c0.056-0.687-0.224-1.259-0.573-1.8
		c-0.301-0.466-0.585-0.987-1.006-1.32c-0.396-0.312-0.948-0.463-1.456-0.59c-0.91-0.229-1.839-0.381-2.757-0.581
		c-0.115-0.025-0.238-0.127-0.304-0.228c-0.093-0.141-0.136-0.314-0.201-0.474c-0.066,0.061-0.133,0.123-0.199,0.184
		c-0.118,0.246-0.236,0.492-0.353,0.738c-0.052-0.016-0.104-0.032-0.156-0.047c-0.37-1.474-0.56-2.949-0.09-4.457
		c0.184-0.591,0.296-1.204,0.422-1.812c0.195-0.939,0.349-1.887,0.567-2.821c0.132-0.565,0.39-1.072,0.938-1.385
		c0.14-0.08,0.222-0.283,0.303-0.443c0.219-0.43,0.451-0.857,0.627-1.305c0.181-0.46,0.355-0.934,0.436-1.418
		c0.078-0.469,0.104-0.909,0.453-1.302c0.176-0.198,0.173-0.563,0.235-0.855c0.179-0.843,0.351-1.687,0.537-2.588
		c0.371,0.428,0.522,0.24,0.651-0.191c0.104-0.345,0.303-0.661,0.482-1.034c0.187,0.143,0.312,0.239,0.488,0.373
		c0.156-0.343,0.345-0.658,0.442-0.998c0.146-0.512,0.221-1.043,0.337-1.564c0.048-0.216,0.035-0.493,0.411-0.44
		c0.067,0.009,0.212-0.187,0.237-0.306c0.064-0.294,0.079-0.599,0.115-0.913c0.526,0.253,0.487-0.148,0.552-0.447
		c0.268-1.218,0.787-2.331,1.364-3.42c0.048,0.002,0.096,0.005,0.143,0.007c0.048,0.337,0.125,0.673,0.139,1.011
		c0.035,0.825,0.04,1.652,0.061,2.478c0.011,0.442,0.153,0.733,0.701,0.509c0.058,0.333,0.129,0.626,0.155,0.923
		c0.036,0.404,0.111,0.713,0.613,0.414c0.113,0.233,0.206,0.427,0.296,0.613c0.437-0.035,1.104,0.591,1.073,1.009
		c-0.049,0.676-0.09,1.324,0.449,1.88c0.177,0.182,0.204,0.528,0.258,0.807c0.072,0.374,0.278,0.603,0.62,0.391
		c0.554-0.344,1.044,0.092,1.565,0.044c0.062-0.006,0.159,0.154,0.205,0.254c0.164,0.352,0.303,0.715,0.469,1.065
		c0.294,0.618,0.371,0.65,1.024,0.469c0.075,0.198,0.135,0.408,0.235,0.597c0.063,0.12,0.177,0.282,0.285,0.297
		c0.491,0.068,0.557,0.4,0.589,0.799c0.071,0.867,0.291,1.114,1.092,1.359c0.135,0.041,0.266,0.176,0.346,0.301
		c0.117,0.182,0.17,0.404,0.278,0.594c0.359,0.63,0.495,0.633,0.877,0.007c0.505,0.307,0.953,0.131,1.404-0.286
		c0.133,0.286,0.249,0.522,0.354,0.763c0.216,0.491,0.483,0.909,1.037,1.108c0.137,0.049,0.272,0.39,0.24,0.568
		c-0.084,0.479,0.072,0.79,0.454,1.059c0.245,0.173,0.426,0.436,0.667,0.616c0.554,0.411,0.758,0.356,1.131-0.338
		c0.584,0.239,1.21,0.432,1.771,0.743c0.596,0.33,1.145,0.557,1.802,0.183c0.145-0.082,0.359-0.053,0.542-0.054
		c0.382-0.002,0.768-0.016,1.146,0.026c0.243,0.027,0.492,0.116,0.709,0.233c0.281,0.151,0.536,0.351,0.796,0.538
		c0.492,0.356,1.022,0.446,1.578,0.195c1.746-0.788,3.526-0.454,5.306-0.185c0.147,0.022,0.301,0.052,0.446,0.035
		c1.159-0.141,2.315-0.285,3.451,0.162c0.084,0.033,0.269-0.111,0.364-0.213c0.073-0.078,0.073-0.221,0.115-0.33
		c0.042-0.108,0.096-0.211,0.122-0.265c0.334,0,0.692,0.103,0.89-0.031c0.171-0.116,0.16-0.501,0.239-0.805
		c0.578,0.224,0.811,0.087,0.648-0.522c-0.02-0.075,0.173-0.277,0.292-0.303c0.169-0.036,0.361,0.042,0.544,0.062
		c0.176,0.019,0.353,0.024,0.53,0.036c-0.013-0.208-0.002-0.422-0.048-0.622c-0.036-0.157-0.143-0.299-0.278-0.564
		c0.477,0,0.882,0,1.317,0c-0.293-0.866-0.684-1.211-1.404-1.41c-0.256-0.348-0.396-0.623-0.611-0.814
		c-0.612-0.547-1.29-0.98-2.146-1.041c-0.132-0.009-0.27-0.046-0.391-0.101c-1.079-0.49-2.154-0.484-3.228,0.04
		c-0.958-1.573-1.896-3.122-2.846-4.663c-0.185-0.3-0.436-0.558-0.63-0.853c-0.293-0.445-0.562-0.906-0.842-1.36
		c-0.079-0.129-0.134-0.284-0.241-0.382c-0.772-0.7-1.166-1.639-1.651-2.526c-0.386-0.707-0.844-1.376-1.271-2.061
		c-0.036-0.057-0.087-0.105-0.118-0.164c-0.521-0.973-1.041-1.947-1.559-2.922c-0.03-0.057-0.053-0.128-0.052-0.192
		c0.013-0.596-0.297-1.03-0.721-1.389c-0.533-0.45-0.737-1.035-0.906-1.696c-0.295-1.15-0.711-2.269-1.073-3.402
		c-0.113-0.353-0.203-0.714-0.327-1.063c-0.22-0.615-0.458-1.224-0.741-1.976c0.405-0.145,0.887-0.317,1.414-0.506
		c0.068,0.274,0.106,0.428,0.171,0.689c0.334-0.202,0.634-0.383,0.965-0.582c0.197,0.464,0.483,0.248,0.748,0.075
		c0.24-0.156,0.453-0.353,0.693-0.51c0.262-0.172,0.492-0.48,0.882-0.182c0.088,0.067,0.323-0.033,0.48-0.087
		c0.589-0.204,1.168-0.443,1.764-0.621c0.182-0.055,0.41,0.042,0.617,0.07c0.008,0.069,0.015,0.137,0.023,0.206
		c0.367-0.186,0.735-0.371,1.173-0.592c0.053,0.288,0.096,0.523,0.151,0.819c0.379-0.212,0.733-0.424,1.101-0.611
		c0.466-0.237,0.942-0.453,1.416-0.675c0.091-0.043,0.228-0.129,0.278-0.096c0.449,0.297,0.76-0.141,1.139-0.188
		c0.387-0.048,0.785-0.008,1.172-0.058c0.443-0.057,0.879-0.172,1.337-0.265c0.292,0.419,0.358,0.406,0.735-0.057
		c0.138-0.169,0.352-0.365,0.548-0.385c0.95-0.098,1.926-0.039,2.854-0.227c1.108-0.225,2.04,0.314,3.054,0.472
		c0.853,0.134,1.619,0.089,2.21-0.623c0.319-0.384,0.742-0.453,1.205-0.505c0.301-0.034,0.621-0.147,0.874-0.313
		c0.783-0.515,1.538-1.122,1.877-2.004c0.306-0.797,0.696-1.48,1.302-2.078C145.978,64.567,145.836,63.872,145.246,63.47z"/>
</g>
</svg>
