<?xml version="1.0" encoding="iso-8859-1"?>
<!-- Generator: Adobe Illustrator 17.1.0, SVG Export Plug-In . SVG Version: 6.00 Build 0)  -->
<!DOCTYPE svg PUBLIC "-//W3C//DTD SVG 1.1//EN" "http://www.w3.org/Graphics/SVG/1.1/DTD/svg11.dtd">
<svg version="1.1" id="Capa_1" xmlns="http://www.w3.org/2000/svg" xmlns:xlink="http://www.w3.org/1999/xlink" x="0px" y="0px"
	 viewBox="0 0 150 150" style="enable-background:new 0 0 150 150;" xml:space="preserve">
<g>
	<path d="M10.973,83.472c1.17,1.512,2.164,3.182,3.464,4.567c1.2,1.279,2.636,2.372,4.091,3.367
		c2.062,1.411,4.251,2.636,6.354,3.989c0.492,0.317,0.852,0.836,1.286,1.248c1.558,1.479,3.364,2.484,5.49,2.906
		c0.538,0.107,1.045,0.367,1.572,0.537c6.762,2.182,12.875,5.847,19.429,8.502c1.837,0.744,3.7,1.438,5.586,2.048
		c2.668,0.864,5.439,0.842,8.212,0.817c2.051-0.018,4.115,0.294,6.153,0.154c2.916-0.201,5.804-0.766,8.718-1.02
		c4.038-0.353,8.081-0.427,12.125,0.132c1.261,0.174,2.584,0.03,3.863-0.111c0.746-0.082,0.934-1.004,0.294-1.478
		c-1.564-1.159-2.874-2.719-4.843-3.262c-1.035-0.285-2.09-0.641-3.145-0.67c-1.304-0.036-2.373-0.336-3.146-1.519
		c0.937-1.006,2.186-1.582,3.625-1.819c3.72-0.611,6.692-2.573,9.474-5.019c2.649-2.33,5.381-4.654,9.258-4.583
		c0.253,0.005,0.506-0.107,0.762-0.143c1.662-0.234,3.025-0.063,4.102,1.598c0.838,1.291,2.138,2.338,3.396,3.274
		c0.508,0.378,1.484,0.339,2.19,0.2c2.495-0.49,4.953-1.165,7.45-1.645c1.094-0.21,2.247-0.094,3.37-0.174
		c1.374-0.098,1.636-1.096,1.669-2.214c0.031-1.084-0.054-1.947-1.459-2.332c-2.713-0.745-5.208-0.028-7.758,0.657
		c-1.074,0.289-2.096,0.959-3.307,0.028c-0.894-0.688-1.137-1.409-0.827-2.341c1.218-3.663,2.89-7.118,4.968-10.368
		c0.241-0.377,0.8-0.693,1.256-0.768c4.104-0.681,8.114-1.685,11.923-3.386c0.867-0.387,1.692-0.876,2.508-1.366
		c0.325-0.196,0.739-0.474,0.83-0.794c0.769-2.699,3.092-4.384,4.35-6.768c1.078-2.041,0.918-5.162-0.812-6.718
		c-3.335-3-6.691-5.995-10.226-8.751c-3.799-2.962-8.225-2.947-12.76-2.116c-2.539,0.466-5.149,1.068-7.683,0.91
		c-3.369-0.21-6.689-1.142-10.042-1.689c-2.931-0.478-5.868-0.968-8.822-1.239c-2.952-0.27-5.893-0.04-8.818,0.626
		c-1.922,0.438-3.965,0.343-5.889,0.776c-5.255,1.183-10.289,2.992-15.1,5.471c-3.475,1.79-6.262,4.385-8.964,7.088
		c-2.076,2.077-4.116,4.231-5.872,6.575c-1.58,2.109-2.831,4.462-4.088,6.816c-1.724,3.228-2.653,6.651-3.813,10.029
		c-0.474,1.381-0.7,2.848-1.038,4.276c-0.086,0.363-0.168,0.727-0.315,1.366c-1.658-0.997-3.153-1.716-4.419-2.723
		c-0.802-0.638-1.126-1.858-1.901-2.553c-2.513-2.255-3.369-5.366-4.526-8.323c-0.719-1.836-1.201-3.771-1.996-5.57
		c-1.254-2.838-2.319-5.869-4.139-8.317c-1.753-2.358-4.162-4.544-7.673-3.822c-0.864,0.178-1.783,0.518-2.468,1.051
		c-2.535,1.974-4.72,4.279-6.528,6.974c-1.576,2.349-1.519,4.814-0.869,7.317C6.495,77.022,8.556,80.349,10.973,83.472z"/>
</g>
</svg>
