<?xml version="1.0" encoding="iso-8859-1"?>
<!-- Generator: Adobe Illustrator 17.1.0, SVG Export Plug-In . SVG Version: 6.00 Build 0)  -->
<!DOCTYPE svg PUBLIC "-//W3C//DTD SVG 1.1//EN" "http://www.w3.org/Graphics/SVG/1.1/DTD/svg11.dtd">
<svg version="1.1" id="Capa_1" xmlns="http://www.w3.org/2000/svg" xmlns:xlink="http://www.w3.org/1999/xlink" x="0px" y="0px"
	 viewBox="0 0 150 150" style="enable-background:new 0 0 150 150;" xml:space="preserve">
<g>
	<path d="M98.928,62.635c8.079,5.845,19.372,14.026,19.83,24.112s-8.16,9.713-8.16,9.713c-0.569-0.447-1.177-0.845-1.759-1.276
		c-0.224-0.165-0.425-0.36-0.571-0.648c0.71,0.372,1.419,0.745,2.129,1.117c0.045-0.054,0.091-0.108,0.136-0.162
		c-0.073-0.166-0.147-0.333-0.216-0.489c0.392,0.032,0.789,0.064,1.186,0.097c0.02-0.058,0.039-0.117,0.059-0.175
		c-0.12-0.101-0.234-0.281-0.362-0.291c-0.816-0.062-1.229-0.754-1.83-1.144c-0.862-0.558-1.684-1.178-2.522-1.773
		c-0.131-0.093-0.255-0.196-0.382-0.294c0.025-0.047,0.049-0.095,0.074-0.142c0.76,0.327,1.519,0.653,2.279,0.98
		c0.043-0.079,0.085-0.157,0.128-0.236c-0.213-0.159-0.415-0.337-0.642-0.474c-1.158-0.7-2.328-1.381-3.48-2.09
		c-0.318-0.195-0.59-0.465-0.882-0.7c0.026-0.039,0.053-0.079,0.079-0.118c1.345,0.8,2.69,1.601,4.035,2.401
		c0.066-0.071,0.132-0.142,0.198-0.213c-0.111-0.151-0.192-0.344-0.338-0.447c-1.771-1.258-3.556-2.497-5.327-3.755
		c-0.353-0.251-0.663-0.564-0.944-0.905c0.757,0.476,1.501,0.973,2.274,1.422c0.769,0.446,1.41,1.122,2.323,1.326
		c-1.731-1.963-3.995-3.284-5.863-5.085c1.689,1.079,3.378,2.158,5.067,3.237c0.063-0.079,0.126-0.158,0.189-0.237
		c-0.182-0.182-0.346-0.386-0.548-0.542c-1.465-1.13-2.939-2.25-4.408-3.376c-0.164-0.126-0.314-0.271-0.47-0.407
		c0.028-0.041,0.056-0.083,0.084-0.124c1.109,0.748,2.217,1.496,3.326,2.243c0.057-0.059,0.113-0.117,0.17-0.176
		c-0.153-0.177-0.285-0.381-0.463-0.527c-1.799-1.477-3.604-2.947-5.413-4.412c-0.154-0.124-0.347-0.2-0.522-0.298
		c0.071-0.075,0.141-0.15,0.212-0.225c1.31,0.902,2.536,1.94,3.982,2.623c0.044-0.049,0.088-0.098,0.132-0.147
		c-0.18-0.188-0.342-0.399-0.543-0.56c-1.636-1.313-3.28-2.617-4.919-3.926c-0.147-0.117-0.281-0.25-0.377-0.438
		c1.434,0.907,2.868,1.815,4.421,2.797c-0.094-0.561-1.965-2.231-3.16-3.173c0.395,0.184,0.797,0.355,1.184,0.554
		c0.371,0.19,0.728,0.407,1.091,0.613c0.05-0.066,0.1-0.132,0.15-0.197c-0.134-0.149-0.246-0.33-0.406-0.442
		c-1.217-0.853-2.459-1.672-3.663-2.544c-0.739-0.536-1.425-1.145-2.085-1.813c0.299,0.161,0.612,0.3,0.894,0.487
		c1.272,0.842,2.532,1.702,3.804,2.544c0.141,0.093,0.329,0.114,0.496,0.168c0.022-0.049,0.044-0.099,0.066-0.148
		c-1.862-1.631-3.724-3.262-5.586-4.893c0.031-0.041,0.061-0.083,0.092-0.124c0.882,0.591,1.763,1.183,2.645,1.774
		c0.056-0.055,0.112-0.11,0.168-0.165c-0.118-0.187-0.217-0.389-0.357-0.558c-1.126-1.353-2.57-2.326-3.997-3.318
		c-0.342-0.238-0.684-0.476-1.026-0.713c0.026-0.043,0.053-0.086,0.08-0.129c1.412,0.87,2.825,1.74,4.238,2.609
		c0.046-0.071,0.092-0.142,0.138-0.213c-1.65-1.529-3.599-2.671-5.367-4.084c0.992,0.438,1.985,0.877,2.977,1.315
		c0.047-0.069,0.095-0.137,0.142-0.206c-0.17-0.157-0.315-0.372-0.516-0.463c-1.44-0.648-2.89-1.272-4.339-1.901
		c-0.207-0.09-0.421-0.163-0.632-0.243c0.016-0.051,0.031-0.102,0.047-0.152c1.278,0.412,2.557,0.823,3.835,1.235
		c0.032-0.081,0.063-0.161,0.095-0.242c-1.94-1.022-3.969-1.86-5.959-2.815c1.291,0.361,2.582,0.722,3.873,1.083
		c0.02-0.081,0.041-0.162,0.061-0.243c-1.733-1.061-3.702-1.312-5.671-1.648c1.047,0.074,2.094,0.148,3.141,0.221
		c0.019-0.066,0.039-0.132,0.058-0.198c-0.155-0.077-0.303-0.195-0.467-0.225c-1.236-0.232-2.476-0.445-3.713-0.668
		c-0.183-0.033-0.361-0.088-0.526-0.241c1.084,0.102,2.168,0.205,3.252,0.307c0.012-0.073,0.024-0.146,0.036-0.219
		c-0.812-0.557-1.823-0.437-2.728-0.665c-0.919-0.231-1.872-0.367-2.818-0.438c-0.963-0.073-1.936-0.016-2.905-0.016
		c-0.003-0.082-0.005-0.165-0.008-0.247c1.596-0.056,3.192-0.112,4.787-0.168c0.001-0.07,0.003-0.139,0.004-0.209
		c-1.267-0.415-2.6-0.294-3.906-0.344c-1.305-0.05-2.613-0.011-3.933-0.108c0.577-0.059,1.152-0.135,1.73-0.173
		c0.495-0.033,0.994-0.003,1.488-0.042c0.181-0.014,0.352-0.146,0.527-0.224c-0.163-0.086-0.329-0.252-0.488-0.245
		c-1.179,0.053-2.363,0.084-3.532,0.23c-1.357,0.17-2.7,0.45-4.049,0.682c-0.013-0.066-0.027-0.131-0.04-0.197
		c1.673-0.333,3.347-0.666,5.02-0.999c-0.015-0.076-0.031-0.152-0.046-0.228c-1.762-0.075-3.46,0.453-5.208,0.579
		c0.311-0.055,0.626-0.096,0.933-0.17c0.299-0.072,0.59-0.178,0.884-0.269c-0.01-0.076-0.02-0.152-0.03-0.228
		c-0.241,0-0.491-0.043-0.72,0.007c-1.17,0.256-2.336,0.532-3.501,0.81c-0.846,0.202-1.689,0.417-2.558,0.573
		c0.402-0.179,0.805-0.358,1.208-0.536c-0.026-0.064-0.051-0.127-0.077-0.191c-1.905,0.086-3.445,1.291-5.237,1.757
		c0.47-0.242,0.942-0.481,1.41-0.727c0.469-0.246,0.933-0.499,1.4-0.749c-0.041-0.086-0.082-0.172-0.122-0.259
		c-1.895,0.657-3.734,1.466-5.633,2.179c0.133-0.096,0.262-0.2,0.401-0.286c0.161-0.101,0.351-0.164,0.492-0.286
		c0.113-0.098,0.172-0.259,0.197-0.439c-1.589,0.478-2.569,1.866-4.045,2.488c0.344-0.312,0.689-0.624,1.033-0.936
		c-0.038-0.055-0.077-0.111-0.115-0.166c-0.205,0.101-0.441,0.164-0.61,0.308c-1.077,0.913-2.137,1.846-3.207,2.767
		c-0.255,0.22-0.525,0.422-0.788,0.633c-0.047-0.047-0.094-0.095-0.142-0.143c0.561-0.554,1.122-1.108,1.683-1.662
		c-0.057-0.062-0.113-0.123-0.17-0.185c-1.086,0.457-1.745,1.503-2.708,2.143c-0.03-0.06-0.064-0.095-0.058-0.122
		c0.039-0.183,0.087-0.363,0.132-0.545c-0.174,0.109-0.407,0.177-0.513,0.332c-0.514,0.756-1.046,1.486-1.871,1.956
		c0.396-0.467,0.792-0.934,1.188-1.401c-0.067-0.069-0.134-0.139-0.202-0.208c-0.918,0.76-1.836,1.52-2.754,2.28
		c-0.03-0.025-0.059-0.05-0.088-0.074c0.196-0.262,0.392-0.523,0.588-0.785c-0.044-0.052-0.089-0.103-0.134-0.155
		c-0.353,0.253-0.72,0.49-1.056,0.764c-0.531,0.432-1.024,0.914-1.573,1.322c-0.189,0.141-0.501,0.106-0.749,0.181
		c-0.211,0.064-0.413,0.162-0.615,0.256c-0.859,0.4-1.715,0.807-2.574,1.206c-0.102,0.048-0.241,0.121-0.325,0.088
		c-1.107-0.435-2.196,0.19-3.297,0.044c-0.186-0.025-0.379-0.003-0.606-0.003c0.029-0.12,0.052-0.213,0.088-0.361
		c-0.251,0-0.476,0.021-0.695-0.004c-0.573-0.066-1.142-0.185-1.716-0.22c-0.645-0.039-1.293-0.009-2.003-0.009
		c0.181-0.519-0.065-0.555-0.436-0.496c-0.41,0.066-0.825,0.097-1.25,0.144c0-0.185,0-0.301,0-0.465
		c-0.542,0.069-1.049,0.134-1.619,0.207c0.164-0.449-0.074-0.451-0.404-0.443c-1.276,0.031-2.553,0.032-3.83,0.046
		c-0.076,0.001-0.155,0.003-0.227,0.024c-1.068,0.318-2.185,0.528-3.192,0.983c-2.613,1.181-5.209,2.408-7.747,3.738
		c-1.561,0.819-3.049,1.799-4.489,2.822c-1.461,1.038-1.333,1.374-0.478,2.915c0.658,1.186,1.402,2.134,2.536,2.884
		c0.635,0.42,1.041,1.188,1.546,1.802c0.508,0.618,1.159,0.983,1.948,1.089c1.115,0.15,2.229,0.305,3.347,0.42
		c0.377,0.039,0.521,0.226,0.613,0.55c0.122,0.432,0.273,0.857,0.411,1.285c0.079-0.016,0.157-0.032,0.236-0.048
		c0.01-0.17,0.039-0.342,0.026-0.51c-0.013-0.165-0.069-0.326-0.124-0.568c0.908,0.443,0.5,1.724,1.553,2.117
		c-0.066-0.595-0.12-1.073-0.187-1.671c0.702,0.673,0.736,1.642,1.333,2.229c0.069-0.028,0.138-0.056,0.207-0.083
		c-0.052-0.483-0.104-0.967-0.156-1.45c0.06-0.016,0.119-0.032,0.179-0.049c0.291,0.757,0.582,1.514,0.912,2.371
		c0.138-0.267,0.218-0.42,0.348-0.672c0.067,0.466,0.102,0.839,0.184,1.201c0.026,0.117,0.176,0.206,0.269,0.307
		c0.063-0.123,0.184-0.247,0.18-0.368c-0.015-0.464-0.069-0.928-0.122-1.54c0.442,1.011,0.821,1.876,1.199,2.741
		c0.065-0.019,0.131-0.039,0.196-0.058c0.094-1.053-0.411-2.02-0.575-3.037c0.05-0.014,0.099-0.027,0.149-0.041
		c0.351,1.182,0.702,2.363,1.098,3.698c0.389-0.599,0.266-1.099,0.192-1.576c-0.075-0.482-0.206-0.955-0.313-1.431
		c0.056-0.017,0.112-0.034,0.168-0.051c0.411,1.336,0.823,2.672,1.234,4.008c0.095-0.021,0.19-0.042,0.284-0.062
		c-0.14-1.098-0.281-2.196-0.421-3.294c0.041-0.007,0.083-0.014,0.124-0.021c0.173,0.938,0.346,1.877,0.518,2.815
		c0.058-0.009,0.115-0.018,0.173-0.028c0.293-0.913-0.055-1.794-0.16-2.693c0.643,0.974,0.785,2.037,0.448,3.196
		c0.65-0.177,0.805-0.446,0.769-1.287c-0.023-0.546-0.076-1.09-0.115-1.635c0.048-0.013,0.096-0.026,0.145-0.039
		c0.296,1.23,0.593,2.459,0.889,3.689c0.072-0.008,0.145-0.016,0.217-0.025c0.032-0.547,0.063-1.093,0.095-1.64
		c0.073-0.004,0.146-0.008,0.219-0.012c0.051,0.559,0.09,1.12,0.159,1.677c0.031,0.254,0.12,0.5,0.182,0.75
		c0.128-0.229,0.315-0.445,0.37-0.69c0.099-0.442,0.118-0.901,0.179-1.425c0.381,1.104,0.008,2.311,0.592,3.351
		c0.484-0.782,0.088-1.705,0.542-2.518c0.183,1.169,0.365,2.337,0.571,3.653c0.737-0.783,0.237-1.743,0.615-2.531
		c0.437,1.166,0.232,2.368,0.39,3.547c0.495-0.377,0.435-0.908,0.451-1.407c0.016-0.522,0.004-1.044,0.004-1.566
		c0.073-0.001,0.145-0.002,0.218-0.004c0.081,0.908,0.162,1.817,0.243,2.725c0.053,0.014,0.106,0.028,0.159,0.041
		c0.175-0.247,0.351-0.495,0.526-0.742c-0.042-0.001-0.084-0.002-0.126-0.003c-0.097-0.643-0.194-1.287-0.29-1.93
		c0.062-0.011,0.124-0.023,0.186-0.034c0.188,0.979,0.376,1.957,0.57,2.961c0.081-0.056,0.193-0.135,0.375-0.262
		c-0.219,1.843-0.039,3.678-0.828,5.485c-0.699,0.165-1.488,0.366-2.284,0.538c-1.565,0.337-2.855,2.191-2.576,3.748
		c0.037,0.207,0.176,0.397,0.267,0.594c0.193-0.127,0.397-0.24,0.573-0.386c0.111-0.092,0.181-0.234,0.281-0.368
		c0.222,0.647,0.431,1.257,0.679,1.982c0.498-0.569,0.87-0.994,1.311-1.498c0.079,0.402,0.112,0.717,0.21,1.011
		c0.052,0.155,0.217,0.272,0.33,0.407c0.099-0.135,0.223-0.259,0.293-0.408c0.153-0.321,0.238-0.682,0.427-0.978
		c0.198-0.311,0.513-0.372,0.906-0.304c0.277,0.048,0.617-0.047,0.879-0.178c0.363-0.181,0.678-0.456,1.025-0.699
		c0.053,0.134,0.085,0.215,0.171,0.432c0.244-0.292,0.418-0.519,0.611-0.727c0.466-0.504,0.941-1,1.43-1.518
		c0.172,0.277,0.382,0.256,0.529-0.095c0.091,0.045,0.148,0.062,0.192,0.096c0.476,0.368,0.89,0.525,1.397-0.04
		c0.229-0.255,0.709-0.356,1.088-0.391c0.682-0.063,1.373-0.025,2.061-0.026c0.552-0.001,1.098-0.01,1.22-0.834
		c0.453,0.298,0.84,0.552,1.227,0.806c0.046-0.053,0.092-0.107,0.138-0.16c-0.115-0.204-0.23-0.408-0.42-0.745
		c0.337,0.06,0.618,0.037,0.806,0.158c0.528,0.341,0.908,0.206,1.284-0.236c0.083-0.098,0.306-0.095,0.467-0.103
		c0.293-0.015,0.587-0.004,0.951-0.004c-0.094-0.327-0.155-0.539-0.245-0.854c1.639,0.762,2.754-0.045,3.77-1.16
		c0.19,0.11,0.378,0.219,0.698,0.404c-0.093-0.268-0.137-0.396-0.191-0.551c0.083,0.01,0.159,0.003,0.221,0.029
		c0.568,0.242,1.129,0.475,1.743,0.116c0.099-0.058,0.262-0.028,0.391-0.009c0.883,0.128,1.761,0.305,2.648,0.367
		c0.223,0.016,0.471-0.33,0.825-0.599c0.035,0.015,0.221,0.085,0.399,0.172c0.538,0.263,1.071,0.489,1.696,0.267
		c0.155-0.055,0.375,0.019,0.549,0.08c0.33,0.116,0.627,0.242,0.96-0.04c0.102-0.086,0.365-0.034,0.532,0.02
		c0.38,0.123,0.739,0.309,1.121,0.426c0.253,0.078,0.571,0.337,0.759-0.143c0.02-0.052,0.376-0.052,0.508,0.032
		c1.275,0.81,2.708,0.886,4.154,0.998c1.003,0.077,1.993,0.316,2.99,0.473c0.254,0.04,0.59,0.147,0.436-0.365
		c0.44,0.123,0.835,0.267,1.242,0.332c0.168,0.027,0.363-0.117,0.546-0.183c-0.097-0.148-0.16-0.348-0.296-0.434
		c-0.626-0.395-1.272-0.759-1.898-1.185c1.458,0.672,2.96,1.179,4.581,1.282c-1.137-0.883-2.638-0.955-3.808-1.758
		c1.985,0.474,3.843,1.406,5.87,1.716c0.026-0.054,0.052-0.108,0.078-0.163c-0.14-0.103-0.275-0.212-0.42-0.307
		c-0.14-0.092-0.289-0.168-0.408-0.335c1.277,0.199,2.555,0.398,3.828,0.597c0.018,1.021-0.243,1.399-1.179,1.448
		c-1.671,0.088-3.348,0.157-5.02,0.12c-1.094-0.024-1.725,0.552-2.313,1.322c-0.224,0.292-0.509,0.537-0.767,0.804
		c-0.013,0.014-0.032,0.022-0.044,0.036c-0.258,0.311-0.705,0.613-0.426,1.044c0.092,0.143,0.628-0.002,1.08-0.019
		c-0.057,0.24-0.129,0.608-0.232,0.967c-0.135,0.474-0.309,0.937-0.434,1.414c-0.032,0.123,0.013,0.342,0.099,0.399
		c0.091,0.06,0.339,0.033,0.409-0.049c0.534-0.622,1.388-0.335,2.012-0.714c0.073-0.044,0.47,0.235,0.533,0.425
		c0.213,0.636,0.626,1.218,0.528,1.958c-0.022,0.169,0.256,0.527,0.408,0.534c0.234,0.011,0.58-0.142,0.703-0.336
		c0.761-1.205,2.078-1.666,3.178-2.46c-0.446,0.896-0.169,1.707,0.252,2.676c0.343-0.314,0.645-0.549,0.896-0.828
		c0.671-0.746,1.324-1.51,1.979-2.271c0.38-0.442,0.83-0.848,1.109-1.348c0.804-1.443,1.537-2.926,2.3-4.393
		c0.061-0.118,0.131-0.233,0.208-0.341c0.39-0.544,0.527-0.562,1.054-0.163c0.228,0.173,0.463,0.335,0.695,0.503
		c0.045-0.04,0.091-0.08,0.136-0.119c-0.057-0.157-0.113-0.315-0.234-0.649c0.459,0.252,0.778,0.493,1.138,0.604
		c0.257,0.079,0.611,0.066,0.843-0.056c0.312-0.164,0.48-0.104,0.681,0.128c0.225,0.259,0.45,0.526,0.713,0.743
		c0.156,0.129,0.385,0.168,0.582,0.247c0.038-0.051,0.076-0.102,0.115-0.154c-0.419-0.743-0.838-1.486-1.257-2.229
		c1.159,0.902,1.595,2.516,3.337,2.812c-0.361-0.587-0.723-1.174-1.084-1.76c0.066-0.042,0.133-0.084,0.199-0.126
		c0.335,0.478,0.675,0.953,1.005,1.434c0.295,0.43,0.623,0.75,1.219,0.68c0.177-0.021,0.416,0.152,0.566,0.298
		c0.373,0.364,0.727,0.682,1.297,0.758c0.258,0.034,0.406,0.506,0.704,0.61c20.37,7.108,62.143-3.154,36.357-41.317
		S90.849,56.791,98.928,62.635z M107.768,93.083c0.707,0.43,1.414,0.86,2.121,1.29c-0.036,0.06-0.073,0.12-0.109,0.18
		c-0.784-0.307-1.507-0.717-2.1-1.345C107.709,93.166,107.739,93.125,107.768,93.083z"/>
</g>
</svg>
