<?xml version="1.0" encoding="iso-8859-1"?>
<!-- Generator: Adobe Illustrator 17.1.0, SVG Export Plug-In . SVG Version: 6.00 Build 0)  -->
<!DOCTYPE svg PUBLIC "-//W3C//DTD SVG 1.1//EN" "http://www.w3.org/Graphics/SVG/1.1/DTD/svg11.dtd">
<svg version="1.1" id="Capa_1" xmlns="http://www.w3.org/2000/svg" xmlns:xlink="http://www.w3.org/1999/xlink" x="0px" y="0px"
	 viewBox="0 0 150 150" style="enable-background:new 0 0 150 150;" xml:space="preserve">
<g>
	<path d="M122.839,87.094c-0.991-1.275-2.185-2.963-2.111-4.4c0.45-8.682-5.17-13.305-11.549-17.009
		c-3.437-1.996-7.679-2.608-13.096-4.335c11.472-7.005,14.955-17.313,16.969-28.553c0.002-0.004,0.004-0.008,0.005-0.012
		c0.896-1.949,1.889-3.792,1.966-5.974c0.025-0.703-0.892-1.321-1.505-0.863c-1.48,1.105-2.96,2.211-4.44,3.316
		c-0.178,0.081-0.343,0.157-0.49,0.224c-3.376-7.578-6.571-14.748-9.987-22.414C98.57,7.108,98.54,7.14,98.51,7.172
		c-0.225-0.368-0.466-0.731-0.742-1.084c-1.666-2.13-4.59-3.1-7.034-3.971c-1.218-0.434-1.737,1.499-0.532,1.928
		c0.061,0.022,0.122,0.044,0.183,0.066c0.105,0.131,0.243,0.244,0.427,0.319c0.017,0.007,0.034,0.014,0.051,0.021
		c0.097,0.068,0.208,0.127,0.349,0.159c0.056,0.013,0.104,0.036,0.159,0.052c0.285,0.119,0.567,0.241,0.848,0.366
		c1.039,0.641,1.589,1.813,1.354,3.129c-0.224,1.255-0.372,2.279,0.387,3.29c0.011,0.015,0.021,0.029,0.033,0.043
		c0.052,0.067,0.096,0.134,0.156,0.201c0.177,0.197,0.376,0.282,0.574,0.298c1.3,0.913,2.505,1.932,3.628,3.042
		c3.625,4.407,4.063,10.147,5.294,16.147c1.798,8.756-5.136,12.999-5.891,21.853c-3.987-7.172-7.008-12.608-9.969-17.934
		c1.047-0.223,2.086-0.445,3.129-0.667c2.605-0.182,5.575-0.021,8.097-0.656c2.463-0.62,4.6-2.98,2.309-5.198
		c-0.469-0.454-1.061-0.314-1.414,0.049c-0.072,0.025-0.143,0.056-0.209,0.104c-1.433,1.056-2.866,2.112-4.299,3.167
		c-0.073,0.054-0.133,0.114-0.186,0.176c-0.05,0.016-0.095,0.027-0.145,0.043c-0.081,0.007-0.142,0.011-0.16,0.013
		c-1.377,0.103-2.754,0.206-4.131,0.309c-1.349,0.101-2.698,0.202-4.047,0.303c-0.456-0.165-0.892-0.382-1.317-0.643
		c-1.418-1.132-2.417-2.646-2.924-4.421c-0.015-0.065-0.03-0.127-0.057-0.187c-0.007-0.026-0.017-0.051-0.024-0.078
		c-0.297-1.169-1.982-0.771-1.94,0.309c-0.244,0.453-0.488,0.906-0.732,1.359c-1.117,1.124-2.249,2.263-3.388,3.409
		c-0.005-0.005-0.01-0.01-0.015-0.015c-0.005,0.005-0.01,0.01-0.015,0.015c-1.14-1.147-2.271-2.285-3.388-3.409
		c-0.244-0.453-0.488-0.906-0.732-1.359c0.042-1.08-1.643-1.479-1.94-0.309c-0.007,0.026-0.017,0.051-0.024,0.078
		c-0.027,0.06-0.042,0.122-0.057,0.187c-0.507,1.775-1.506,3.289-2.924,4.421c-0.425,0.261-0.861,0.478-1.317,0.643
		c-1.349-0.101-2.698-0.202-4.047-0.303c-1.377-0.103-2.754-0.206-4.131-0.309c-0.018-0.001-0.079-0.006-0.16-0.013
		c-0.05-0.015-0.094-0.027-0.145-0.043c-0.053-0.062-0.113-0.122-0.186-0.176c-1.433-1.056-2.866-2.112-4.299-3.167
		c-0.066-0.049-0.137-0.08-0.209-0.104c-0.352-0.364-0.944-0.503-1.414-0.049c-2.291,2.217-0.154,4.578,2.309,5.198
		c2.523,0.635,5.492,0.474,8.097,0.656c1.043,0.222,2.082,0.444,3.129,0.667c-2.961,5.326-5.982,10.762-9.969,17.934
		c-0.755-8.854-7.689-13.097-5.891-21.853c1.232-6,1.67-11.739,5.294-16.147c1.123-1.109,2.328-2.129,3.628-3.042
		c0.198-0.017,0.397-0.102,0.574-0.298c0.061-0.067,0.104-0.134,0.156-0.201c0.012-0.014,0.023-0.028,0.033-0.043
		c0.759-1.011,0.611-2.035,0.387-3.29c-0.235-1.316,0.315-2.488,1.354-3.129c0.281-0.125,0.564-0.247,0.848-0.366
		c0.054-0.015,0.103-0.039,0.159-0.052c0.141-0.032,0.252-0.091,0.349-0.159c0.017-0.007,0.034-0.014,0.051-0.021
		c0.184-0.075,0.322-0.188,0.427-0.319c0.061-0.022,0.121-0.044,0.183-0.066c1.206-0.43,0.686-2.363-0.532-1.928
		c-2.444,0.871-5.368,1.842-7.034,3.971c-0.276,0.353-0.517,0.716-0.742,1.084c-0.03-0.033-0.06-0.065-0.093-0.101
		c-3.415,7.666-6.61,14.836-9.987,22.414c-0.146-0.067-0.312-0.143-0.49-0.224c-1.48-1.105-2.96-2.211-4.44-3.316
		c-0.613-0.458-1.53,0.161-1.505,0.863c0.077,2.182,1.07,4.025,1.966,5.974c0.002,0.004,0.004,0.008,0.005,0.012
		c2.014,11.24,5.497,21.549,16.969,28.553c-5.418,1.727-9.659,2.339-13.096,4.335c-6.379,3.704-11.999,8.327-11.549,17.009
		c0.075,1.437-1.12,3.126-2.111,4.4c-4.147,5.335-4.357,11.118-2.038,17.523C27.073,89.902,42.576,85.114,46.131,73
		c0.809,8.375,2.529,16.808-6.592,22.059c-1.209,0.696-1.558,2.904-2.283,4.423c-2.38,4.987-4.749,9.966-7.012,14.72
		c-0.62,0.396-1.231,0.799-1.768,1.292c-1.945,1.784-1.047,3.666,0.854,4.86c2.117,5.477,4.176,11.132,6.704,16.569
		c0.256,0.551,0.574,1.072,0.92,1.581c1.38,2.93,3.365,5.718,5.95,6.877c0.916,0.411,2.766-0.196,2.644-1.457
		c-0.207-2.129-2.695-3.345-4.291-4.544c-2.323-4.221-4.649-8.447-6.997-12.711c11.485-5.267,1.702-16.455,8.686-23.713
		c3.535,18.658,10.407,33.956,32.409,33.935c0.332,0,0.652-0.014,0.979-0.021c0.327,0.006,0.647,0.02,0.979,0.021
		c22.002,0.021,28.875-15.277,32.409-33.935c6.985,7.258-2.799,18.447,8.686,23.713c-2.348,4.265-4.674,8.491-6.997,12.711
		c-1.596,1.199-4.084,2.415-4.291,4.544c-0.122,1.261,1.728,1.867,2.644,1.457c2.584-1.159,4.569-3.947,5.95-6.877
		c0.346-0.509,0.664-1.03,0.92-1.581c2.527-5.438,4.587-11.093,6.704-16.569c1.9-1.194,2.799-3.076,0.854-4.86
		c-0.537-0.493-1.148-0.896-1.768-1.292c-2.263-4.754-4.633-9.734-7.012-14.72c-0.725-1.519-1.073-3.727-2.283-4.423
		c-9.121-5.251-7.401-13.684-6.592-22.059c3.556,12.114,19.059,16.902,18.341,31.617C127.196,98.212,126.986,92.429,122.839,87.094z
		"/>
</g>
</svg>
