<?xml version="1.0" encoding="iso-8859-1"?>
<!-- Generator: Adobe Illustrator 17.1.0, SVG Export Plug-In . SVG Version: 6.00 Build 0)  -->
<!DOCTYPE svg PUBLIC "-//W3C//DTD SVG 1.1//EN" "http://www.w3.org/Graphics/SVG/1.1/DTD/svg11.dtd">
<svg version="1.1" id="Capa_1" xmlns="http://www.w3.org/2000/svg" xmlns:xlink="http://www.w3.org/1999/xlink" x="0px" y="0px"
	 viewBox="0 0 150 150" style="enable-background:new 0 0 150 150;" xml:space="preserve">
<g>
	<path d="M135.07,120.342c-0.388-2.594-0.846-5.219-1.351-7.885c-3.507-18.536-10.065-34.812-18.555-51.689
		c-2.157-4.289-3.291-8.092-3.706-11.9c-0.089-0.816,0.523-1.335,1.338-1.238c4.73,0.564,9.024-1.177,8.346-7.529
		c-0.338-3.167-2.577-6.46-4.501-9.381c-0.452-0.686-0.34-1.722,0.323-2.206c1.744-1.272,3.987-2.079,6.861-2.333
		c1.339-0.119,2.628-0.804,4.398-1.57c0.753-0.326,0.773-0.847,0.007-1.142c-5.113-1.971-9.564-1.501-13.46,1.304
		c-0.666,0.48-1.497,0.345-1.908-0.366c-1.596-2.767-3.192-5.535-4.788-8.303c-0.41-0.711-0.784-1.442-0.881-1.609
		s-0.535-0.858-0.915-1.586c-1.308-2.51-2.907-5.791-5.322-6.665c-5.001-1.81-6.188,2.604-2.501,5.321
		c1.67,1.231,3.34,2.462,5.01,3.693c0.661,0.487,1.53,1.459,1.94,2.171c1.901,3.297,3.803,6.594,5.704,9.891
		c0.053,0.092,0.106,0.184,0.16,0.277c0.088,0.153-0.275,0.782-0.77,1.437c-2.438,3.225-4.623,7.59-6.585,13.08
		c-0.276,0.773-1.071,1.078-1.784,0.673c-5.746-3.264-11.376-6.781-17.357-9.536c-4.956-2.282-7.517-0.733-7.683,4.358
		c-0.027,0.82-0.636,1.343-1.447,1.219c-0.245-0.037-0.494-0.073-0.745-0.108c-0.813-0.114-1.473,0.462-1.473,1.282
		c0-0.821-0.66-1.396-1.473-1.282c-0.251,0.035-0.5,0.071-0.745,0.108c-0.812,0.124-1.421-0.398-1.447-1.219
		c-0.167-5.092-2.728-6.641-7.683-4.358c-5.981,2.754-11.611,6.272-17.357,9.536c-0.714,0.406-1.508,0.1-1.784-0.673
		c-1.962-5.491-4.146-9.855-6.585-13.08c-0.495-0.655-0.858-1.284-0.77-1.437c0.053-0.092,0.106-0.184,0.159-0.277
		c1.901-3.297,3.803-6.594,5.704-9.891c0.41-0.711,1.279-1.684,1.94-2.171c1.67-1.231,3.34-2.462,5.01-3.693
		c3.686-2.717,2.5-7.131-2.501-5.321c-2.415,0.873-4.014,4.154-5.322,6.665c-0.379,0.728-0.818,1.419-0.915,1.586
		s-0.471,0.897-0.881,1.609c-1.596,2.767-3.192,5.535-4.788,8.303c-0.41,0.711-1.241,0.845-1.908,0.366
		c-3.896-2.806-8.347-3.275-13.46-1.304c-0.766,0.295-0.746,0.816,0.007,1.142c1.77,0.766,3.059,1.451,4.398,1.57
		c2.874,0.254,5.117,1.061,6.861,2.333c0.663,0.484,0.775,1.52,0.323,2.206c-1.924,2.921-4.163,6.214-4.501,9.381
		c-0.678,6.353,3.616,8.094,8.346,7.529c0.815-0.097,1.427,0.422,1.338,1.238c-0.416,3.808-1.549,7.611-3.706,11.9
		c-8.49,16.877-15.048,33.154-18.555,51.689c-0.504,2.666-0.963,5.291-1.351,7.885c-2.238,14.962,6.453,20.299,5.392,10.86
		c-1.423-12.656,0.484-29.153,5.097-40.98c4.275-10.961,10.473-20.537,15.244-30.99c2.151-4.712,4.957-6.802,10.234-6.001
		c2.981,0.452,6.071,0.177,9.863,0.109c0.821-0.014,0.891,0.285,0.185,0.705c-4.069,2.419-5.791,5.305-3.162,9.998
		c0.46,0.821-2.042,4.274-3.851,5.224c-7.868,4.133-11.141,10.697-13.341,19.101c-2.15,8.215-4.955,17.101-8.806,24.672
		c-1.092,2.146-2.174,4.393-2.254,6.8c-0.067,2.02,4.005,8.518,5.955,4.601c0.988-1.984,0.203-6.484,0.568-8.837
		c1.196-7.71,6.545-15.385,6.367-22.967c-0.25-10.665,5.918-14.873,14.537-17.825c0.777-0.266,1.556,0.183,1.719,0.988
		c1.224,6.052,1.347,11.1-5.644,15.273c-7.948,4.745-7.97,8.824-2.539,16.58c1.134,1.62,2.377,3.167,3.629,4.7
		c7.336,8.978,8.91,10.945,5.404,17.28c-0.398,0.718-1.217,1.756-1.8,2.333c-0.694,0.688-1.388,1.375-2.083,2.063
		c-1.309,1.297-3.084,2.604-4.045,4.197c-1.441,2.389-0.749,5.305,2.275,5.638c0.633,0.07,1.291-0.503,1.433-1.091
		c0.159-0.657,0.317-1.314,0.476-1.971c0.193-0.798,0.798-1.936,1.356-2.538c2.127-2.291,4.294-4.557,5.949-7.149
		c3.545-5.55,3.544-10.949-1.681-16.03c-3.884-3.776-7.227-8.11-11.023-12.574c-0.532-0.625-0.482-1.583,0.117-2.145
		c2.987-2.802,5.775-5.418,9.094-8.532c0.599-0.562,1.166-0.358,1.282,0.455c0.579,4.048,1.291,7.254,1.208,10.44
		c-0.225,8.631,4.988,13.758,11.334,17.888c0.495,0.322,1.06,0.514,1.674,0.596c0.814,0.109,1.482-0.658,1.482-1.479
		c0,0.821,0.668,1.588,1.482,1.479c0.614-0.082,1.179-0.274,1.674-0.596c6.346-4.13,11.559-9.257,11.334-17.888
		c-0.083-3.186,0.629-6.393,1.208-10.44c0.116-0.813,0.683-1.017,1.282-0.455c3.319,3.114,6.107,5.73,9.094,8.532
		c0.599,0.562,0.649,1.52,0.117,2.145c-3.796,4.465-7.139,8.798-11.023,12.574c-5.225,5.08-5.226,10.479-1.681,16.03
		c1.656,2.592,3.822,4.858,5.949,7.149c0.559,0.602,1.164,1.74,1.356,2.538c0.159,0.657,0.317,1.314,0.476,1.971
		c0.142,0.588,0.801,1.161,1.433,1.091c3.024-0.333,3.715-3.249,2.275-5.638c-0.961-1.593-2.736-2.9-4.045-4.197
		c-0.694-0.688-1.388-1.375-2.083-2.063c-0.583-0.578-1.403-1.615-1.8-2.333c-3.506-6.335-1.932-8.302,5.404-17.28
		c1.252-1.533,2.495-3.081,3.629-4.7c5.431-7.755,5.409-11.835-2.539-16.58c-6.99-4.173-6.868-9.22-5.644-15.273
		c0.163-0.804,0.942-1.253,1.719-0.988c8.619,2.952,14.787,7.161,14.537,17.825c-0.177,7.581,5.172,15.257,6.367,22.967
		c0.365,2.353-0.42,6.854,0.568,8.837c1.951,3.917,6.022-2.581,5.955-4.601c-0.08-2.407-1.162-4.654-2.254-6.8
		c-3.851-7.57-6.656-16.457-8.806-24.672c-2.2-8.404-5.473-14.968-13.341-19.101c-1.808-0.949-4.31-4.402-3.851-5.224
		c2.628-4.693,0.907-7.579-3.162-9.998c-0.706-0.42-0.635-0.719,0.185-0.705c3.792,0.068,6.883,0.343,9.863-0.109
		c5.276-0.802,8.082,1.289,10.234,6.001c4.772,10.452,10.97,20.028,15.244,30.99c4.613,11.828,6.52,28.324,5.097,40.98
		C128.617,140.64,137.308,135.304,135.07,120.342z M34.959,44.669c-0.345,0.115-1.158-0.21-1.764-0.763
		c-3.115-2.843-3.908-5.611-2.38-8.306c0.405-0.714,1.149-1.732,1.516-2.368s0.993-0.571,1.315,0.184
		c0.676,1.583,1.136,3.388,1.427,5.388c0.209,1.432,0.36,2.815,0.443,4.167C35.568,43.791,35.304,44.554,34.959,44.669z
		 M63.236,38.771c-2.332,3.38-4.663,6.759-6.981,10.119c-0.466,0.676-1.498,1.104-2.306,0.956c-2.382-0.436-4.6-0.842-6.787-1.243
		c-0.807-0.148-1.584-0.725-1.733-1.289c-0.15-0.564,0.292-1.377,0.986-1.816c4.875-3.082,9.75-6.165,14.626-9.247
		c0.694-0.439,1.655-0.326,2.148,0.251C63.681,37.079,63.702,38.095,63.236,38.771z M101.424,47.314
		c-0.15,0.564-0.926,1.141-1.733,1.289c-2.187,0.4-4.405,0.806-6.787,1.243c-0.807,0.148-1.839-0.28-2.306-0.956
		c-2.318-3.36-4.649-6.739-6.981-10.119c-0.466-0.676-0.445-1.692,0.048-2.269c0.493-0.577,1.454-0.69,2.148-0.251
		c4.875,3.083,9.75,6.165,14.626,9.247C101.132,45.937,101.573,46.75,101.424,47.314z M111.336,42.972
		c0.084-1.352,0.235-2.735,0.443-4.167c0.291-2,0.751-3.805,1.427-5.388c0.322-0.755,0.949-0.82,1.315-0.184
		s1.111,1.654,1.516,2.368c1.528,2.695,0.735,5.463-2.38,8.306c-0.606,0.553-1.419,0.878-1.764,0.763
		C111.549,44.554,111.285,43.791,111.336,42.972z"/>
</g>
</svg>
