<?xml version="1.0" encoding="iso-8859-1"?>
<!-- Generator: Adobe Illustrator 17.1.0, SVG Export Plug-In . SVG Version: 6.00 Build 0)  -->
<!DOCTYPE svg PUBLIC "-//W3C//DTD SVG 1.1//EN" "http://www.w3.org/Graphics/SVG/1.1/DTD/svg11.dtd">
<svg version="1.1" id="Capa_1" xmlns="http://www.w3.org/2000/svg" xmlns:xlink="http://www.w3.org/1999/xlink" x="0px" y="0px"
	 viewBox="0 0 150 150" style="enable-background:new 0 0 150 150;" xml:space="preserve">
<g>
	<path d="M125.426,76.399c-0.935-1.756-1.359-4.238-0.963-6.171c1.948-9.52-5.879-19.088-17.153-14.013
		c-3.394,1.528-5.075,0.381-6.892-2.667c-5.377-9.022-13.123-14.575-24.051-12.49c-14.599,2.785-29.18,5.857-43.521,9.723
		c-7.033,1.895-13.86,3.694-21.166,3.37c-1.978-0.088-3.973,0.215-5.773,0.327C5.898,54.51,5.89,54.538,5.881,54.57
		C5.605,54.651,5.384,54.802,5.223,55H5.167c-0.895,0-1.371,0.643-1.438,1.333H3.667c-1.935,0-1.935,3,0,3h1.145
		c21.689,2.621,40.555,13.685,60.546,23.306c0,0-1.275,3.794-2.216,7.419c-1.021,0.805-1.616,1.897-1.754,3.045
		c-0.13,1.087,0.149,2.224,0.865,3.218c0.909,1.262,2.266,2.151,3.319,3.259c1.275,1.341,2.6,2.638,3.895,3.961
		c1.298,1.327,2.594,2.655,3.893,3.981c0.381,0.389,3.387,3.875,3.696,3.752c-0.055,0.022-0.112,0.044-0.152,0.093
		c-0.238,0.288-0.476,0.575-0.714,0.863c-0.419,0.014-0.836,0.053-1.249,0.115c-0.061-0.004-0.122-0.008-0.183-0.012
		c-0.139-0.009-0.245,0.035-0.318,0.107c-0.575,0.116-1.147,0.262-1.708,0.473c-0.413,0.155-0.465,0.755,0,0.889
		c0.855,0.248,1.655,0.192,2.457-0.11c0.073,0.075,0.176,0.125,0.316,0.118c3.105-0.155,6.167,0.015,9.234,0.521
		c0.073,0.063,0.168,0.105,0.296,0.096c0.609-0.041,1.218-0.081,1.827-0.122c0.209,0.039,0.418,0.078,0.626,0.117
		c0.581,0.109,0.829-0.78,0.245-0.889l-0.205-0.038c-0.074-0.088-0.186-0.144-0.341-0.134c-0.092,0.006-0.183,0.012-0.275,0.018
		c-0.581-0.109-1.163-0.218-1.744-0.327c0.03-0.248-0.158-0.547-0.452-0.58c-2.203-0.245-4.229-0.859-6.204-1.868
		c-3.513-3.835-7.035-7.663-10.531-11.514c-1.734-1.911-2.723-3.106-2.87-5.784c-0.119-2.182,0.472-4.287,1.407-6.242
		c2.494-5.211,1.621-5.701,8.548-5.328c-0.174,2.088,0.17,4.392-0.626,6.191c-1.771,4.002,0.365,6.206,2.867,8.673
		c5.544,5.467,10.931,11.093,16.415,16.622c-0.055,0.022-0.112,0.044-0.152,0.093c-0.238,0.288-0.476,0.575-0.714,0.863
		c-0.419,0.014-0.836,0.053-1.249,0.115l-0.183-0.012c-0.139-0.009-0.245,0.035-0.318,0.107c-0.575,0.116-1.147,0.262-1.708,0.473
		c-0.413,0.155-0.465,0.755,0,0.889c0.856,0.248,1.655,0.192,2.457-0.11c0.073,0.075,0.176,0.125,0.316,0.118
		c3.106-0.155,6.167,0.015,9.234,0.521c0.073,0.063,0.168,0.105,0.296,0.096l1.827-0.122c0.209,0.039,0.418,0.078,0.626,0.118
		c0.581,0.109,0.829-0.78,0.245-0.889c-0.068-0.013-0.137-0.026-0.205-0.039c-0.074-0.088-0.186-0.144-0.341-0.134l-0.275,0.018
		c-0.582-0.109-1.163-0.218-1.744-0.327c0.03-0.248-0.158-0.547-0.452-0.58c-2.203-0.245-4.229-0.859-6.204-1.868
		c-4.331-4.727-8.667-9.435-12.952-14.189c-3.647-4.046-5.625-8.659-5.159-14.283c0.206-2.491,0.942-3.915,3.504-4.526
		c2.213-0.528,4.242-1.842,6.458-2.342c0.363-0.082,0.727-0.172,1.09-0.256c4.124,1.035,8.507,0.673,12.338-1.046
		c2.206-0.634,4.311-1.609,6.26-2.873c1.26-0.173,2.522-0.326,3.788-0.421c3.068-0.232,7.177,2.773,9.52,5.439
		c7.799,8.877,15,18.278,22.462,27.452c1.088,1.337,2.349,2.533,3.531,3.794l0.911-0.793c-3.652-4.599-7.627-8.982-10.871-13.852
		C132.159,88.805,128.735,82.615,125.426,76.399z"/>
</g>
</svg>
