<?xml version="1.0" encoding="iso-8859-1"?>
<!-- Generator: Adobe Illustrator 17.1.0, SVG Export Plug-In . SVG Version: 6.00 Build 0)  -->
<!DOCTYPE svg PUBLIC "-//W3C//DTD SVG 1.1//EN" "http://www.w3.org/Graphics/SVG/1.1/DTD/svg11.dtd">
<svg version="1.1" id="Capa_1" xmlns="http://www.w3.org/2000/svg" xmlns:xlink="http://www.w3.org/1999/xlink" x="0px" y="0px"
	 viewBox="0 0 150 150" style="enable-background:new 0 0 150 150;" xml:space="preserve">
<g>
	<path d="M135.704,70.033c-0.351-0.428-0.544-0.95-0.307-1.469c0.458-1,0.15-1.877-0.228-2.81c-0.215-0.531-0.195-1.156-0.282-1.739
		c-0.054-0.366-0.014-0.784-0.182-1.087c-0.435-0.784-0.934-1.538-1.458-2.266c-0.657-0.911-1.364-1.787-2.054-2.675
		c-0.815-1.05-1.613-2.116-2.473-3.129c-0.173-0.204-0.638-0.348-0.884-0.266c-0.591,0.198-1.16,0.503-1.685,0.846
		c-0.679,0.444-1.332,0.813-2.188,0.91c-0.969,0.111-1.976,0.344-2.844,0.773c-1.272,0.628-2.389,1.569-3.658,2.206
		c-1.204,0.604-2.041,1.498-2.741,2.59c-0.192,0.299-0.418,0.581-0.658,0.844c-0.797,0.876-1.36,1.87-1.728,3.002
		c-0.283,0.871-0.583,1.771-1.072,2.53c-0.481,0.746-0.798,1.518-1.02,2.353c-0.07,0.261-0.108,0.531-0.161,0.797
		c-0.542-0.132-1.027-0.214-1.485-0.372c-0.419-0.145-0.903-0.282-1.196-0.582c-0.73-0.748-1.6-1.24-2.546-1.612
		c-0.845-0.332-1.613-0.75-2.314-1.347c-0.371-0.316-0.924-0.426-1.402-0.61c-0.348-0.134-0.746-0.175-1.054-0.368
		c-0.843-0.526-1.627-1.147-2.478-1.658c-0.553-0.333-1.161-0.623-1.782-0.776c-0.422-0.104-0.562-0.212-0.543-0.637
		c0.059-1.281-0.204-2.494-0.793-3.645c-0.7-1.368-2.138-2.114-3.622-1.86c-0.661,0.113-1.366,0.33-1.992,0.204
		c-0.816-0.164-1.597-0.49-2.458-0.456c-0.15,0.006-0.321-0.107-0.457-0.201c-0.999-0.694-1.998-1.388-2.981-2.104
		c-0.365-0.266-0.682-0.283-1.089-0.079c-0.299,0.15-0.663,0.234-1,0.237c-1.482,0.015-2.965-0.02-4.448-0.019
		c-1.268,0.001-2.573,0.445-3.769-0.343c-0.059-0.039-0.144-0.053-0.217-0.054c-0.741-0.007-1.1-0.4-1.249-1.109
		c-0.042-0.201-0.352-0.483-0.548-0.49c-0.977-0.035-1.957-0.01-2.934,0.034c-0.536,0.025-1.132,0.001-1.589,0.226
		c-0.966,0.476-1.852,1.111-2.783,1.66c-0.369,0.218-0.741,0.266-0.949-0.187c0.24-0.309,0.573-0.557,0.644-0.864
		c0.189-0.826-0.908-1.76-1.708-1.485c-0.367,0.126-0.736,0.296-1.047,0.524c-0.604,0.443-1.158,0.955-1.751,1.414
		c-0.738,0.571-1.484,1.141-2.561,1.161c0.241-0.92-0.421-1.251-1.007-1.617c-0.268-0.168-0.562-0.314-0.864-0.405
		c-0.803-0.245-1.556-0.187-2.195,0.448c-0.529,0.525-0.855,0.534-1.474,0.09c-0.755-0.541-0.977-0.533-1.747,0
		c-0.275,0.19-0.575,0.449-0.879,0.472c-1.046,0.078-1.629,0.748-2.189,1.503c-0.4,0.54-0.795,1.096-1.268,1.57
		c-1.073,1.076-2.184,2.115-3.304,3.141c-0.149,0.137-0.478,0.214-0.664,0.149c-0.828-0.292-1.368-0.937-1.691-1.716
		c-0.618-1.489-1.215-2.991-1.733-4.517c-0.2-0.588-0.272-1.266-0.212-1.884c0.137-1.418,0.434-2.821,0.591-4.238
		c0.293-2.646,0.878-5.231,1.815-7.707c1.66-4.385,3.415-8.736,5.196-13.074c1.132-2.757,1.916-5.601,2.492-8.517
		c0.403-2.039,0.607-4.076,0.466-6.161c-0.07-1.036,0.057-2.098,0.198-3.134c0.409-2.998-0.603-4.791-3.393-5.899
		c-0.344-0.137-0.678-0.301-1.017-0.452c-0.527,0-1.054,0-1.582,0c-0.713,0.223-1.439,0.412-2.136,0.677
		c-0.938,0.357-1.958,0.609-2.576,1.506c-0.417,0.606-1.002,0.858-1.695,0.995c-0.956,0.189-1.911,0.397-2.848,0.663
		c-0.828,0.235-1.561,0.664-2.239,1.439c1.682,0.405,3.238,0.81,4.808,1.15c1.87,0.405,3.568,1.159,5.029,2.393
		c0.724,0.611,1.389,1.335,1.511,2.31c0.125,1.001,0.149,2.027,0.096,3.035c-0.138,2.621-1.014,5.064-1.955,7.479
		c-0.578,1.485-1.325,2.911-1.804,4.425c-1.059,3.347-2.08,6.703-3.478,9.932c-0.811,1.874-1.674,3.738-2.036,5.768
		c-0.422,2.367-0.8,4.741-1.205,7.111c-0.207,1.215-0.215,2.463-0.702,3.632c-0.214,0.513-0.311,1.08-0.415,1.631
		c-0.239,1.27-0.449,2.544-0.67,3.817c0,1.921,0,3.842,0,5.763c0.155,0.957,0.334,1.912,0.46,2.873
		c0.363,2.753,1.17,5.381,2.163,7.963c0.2,0.52,0.324,1.073,0.437,1.621c0.176,0.851,0.262,1.805,1.056,2.28
		c0.595,0.356,0.731,0.834,0.883,1.39c0.448,1.638,0.323,3.291,0.036,4.923c-0.273,1.554-0.207,3.07,0.211,4.571
		c0.567,2.039,1.157,4.072,1.787,6.093c0.113,0.363,0.419,0.71,0.722,0.96c1.299,1.074,2.631,2.109,3.948,3.161
		c0.087,0.069,0.158,0.161,0.224,0.252c0.65,0.9,1.562,1.441,2.617,1.627c2.025,0.357,3.989,1.009,6.045,1.208
		c0.334,0.032,0.672,0.111,0.989,0.222c0.579,0.203,1.151,0.425,1.725,0.643c0.308,0.202,0.586,0.449,0.837,0.751
		c-0.171,0.549-0.466,1.038-0.784,1.511c-0.865,1.284-2.045,2.193-3.433,2.851c-1.426,0.675-2.935,1.089-4.471,1.408
		c-1.989,0.413-3.985,0.792-5.975,1.196c-1.664,0.338-3.247,0.929-4.812,1.572c-2.022,0.831-4.035,1.686-6.071,2.483
		c-1.58,0.619-3.225,1.017-4.923,1.147c-0.509,0.039-1.024,0.004-1.536,0.016c-0.148,0.004-0.325,0.011-0.437,0.09
		c-0.848,0.597-1.825,0.835-2.814,1.047c-0.394,0.085-0.785,0.182-1.177,0.274c-1.084,0.257-1.888,0.9-2.509,1.804
		c-0.608,0.887-0.938,1.885-1.167,2.92c-0.309,1.399-0.413,2.824-0.471,4.251c-0.075,1.815-0.129,3.631-0.203,5.446
		c-0.02,0.496-0.09,0.989-0.119,1.485c-0.008,0.145,0.003,0.319,0.077,0.436c0.864,1.386,1.789,2.727,3.009,3.834
		c1.042,0.946,2.204,1.659,3.632,1.852c0.042,0.006,0.08,0.043,0.119,0.065c0.435,0,0.87,0,1.304,0
		c0.253-0.062,0.511-0.109,0.759-0.188c0.543-0.172,1.082-0.358,1.633-0.542c-0.048-0.461-0.238-0.776-0.568-0.971
		c-0.303-0.18-0.636-0.319-0.97-0.434c-0.424-0.146-0.87-0.231-1.293-0.381c-0.273-0.097-0.541-0.237-0.778-0.404
		c-0.335-0.237-0.485-0.594-0.503-1.004c0.017-0.025,0.029-0.063,0.052-0.073c1.138-0.462,1.755-1.441,2.376-2.411
		c0.073-0.113,0.072-0.293,0.059-0.438c-0.109-1.151-0.435-2.251-0.822-3.333c-0.429-1.197-0.881-2.385-1.307-3.582
		c-0.135-0.379-0.205-0.78-0.325-1.164c-0.078-0.249,0.027-0.378,0.23-0.483c0.402-0.206,0.839-0.204,1.272-0.217
		c0.604-0.018,1.212,0.01,1.812-0.046c0.345-0.032,0.717-0.126,1.01-0.303c3.356-2.035,6.979-3.432,10.733-4.513
		c3.401-0.98,6.862-1.695,10.354-2.262c1.531-0.248,3.064-0.482,4.598-0.71c0.225-0.033,0.408-0.105,0.581-0.252
		c1.036-0.881,2.259-1.369,3.587-1.534c1.415-0.175,2.845-0.233,4.263-0.383c0.877-0.093,1.755-0.222,2.617-0.406
		c1.056-0.225,1.972-0.767,2.732-1.521c0.659-0.654,1.258-1.37,1.861-2.079c0.804-0.945,1.572-1.92,2.384-2.858
		c0.25-0.289,0.596-0.493,0.89-0.745c0.194-0.165,0.368-0.16,0.586-0.027c1.011,0.62,2.102,1.059,3.235,1.4
		c1.401,0.422,2.835,0.674,4.288,0.827c2.692,0.284,5.392,0.295,8.094,0.222c0.776-0.021,1.552-0.022,2.329-0.045
		c0.228-0.007,0.421,0.042,0.606,0.179c0.811,0.599,1.629,1.189,2.442,1.787c0.764,0.562,1.555,1.079,2.433,1.451
		c0.157,0.067,0.313,0.15,0.478,0.18c0.676,0.122,1.162,0.548,1.653,0.981c1.448,1.278,2.78,2.67,3.961,4.194
		c1.55,1.999,3.056,4.033,4.563,6.065c1.508,2.033,3.025,4.058,4.754,5.913c1.682,1.804,3.535,3.399,5.667,4.653
		c0.19,0.112,0.351,0.234,0.452,0.445c0.781,1.631,2.077,2.718,3.695,3.454c1.669,0.759,3.433,1.043,5.256,1.015
		c2.532-0.039,4.917-0.62,7.085-1.964c1.29-0.8,2.346-1.831,3.026-3.21c0.282-0.573,0.517-1.161,0.556-1.81
		c0.004-0.071,0.052-0.14,0.08-0.209c0-0.155,0-0.311,0-0.466c-0.855-0.147-1.667,0.051-2.462,0.334
		c-0.76,0.27-1.501,0.592-2.267,0.844c-0.66,0.217-1.334,0.41-2.016,0.538c-1.116,0.209-1.971-0.273-2.46-1.326
		c0.197-0.257,0.489-0.293,0.783-0.307c0.573-0.028,1.148-0.035,1.721-0.074c0.196-0.013,0.408-0.061,0.573-0.159
		c0.147-0.088,0.275-0.251,0.346-0.41c0.122-0.276,0.076-0.353-0.213-0.511c-0.834-0.455-1.714-0.8-2.626-1.06
		c-2.064-0.588-4.18-0.742-6.313-0.75c-0.45-0.002-0.901-0.001-1.351,0.02c-0.236,0.011-0.407-0.061-0.58-0.222
		c-1.187-1.103-2.229-2.336-3.227-3.608c-1.621-2.066-3.059-4.262-4.527-6.436c-0.695-1.029-1.418-2.039-2.149-3.042
		c-0.245-0.337-0.55-0.631-0.838-0.934c-0.094-0.099-0.217-0.178-0.339-0.243c-0.333-0.178-0.556-0.1-0.712,0.246
		c-0.056,0.125-0.093,0.26-0.159,0.448c-0.155-0.114-0.289-0.206-0.416-0.307c-1.233-0.985-2.173-2.22-2.918-3.592
		c-0.724-1.335-1.379-2.708-2.045-4.075c-0.639-1.312-1.248-2.639-2.068-3.851c-0.373-0.551-0.813-1.057-1.201-1.599
		c-0.192-0.268-0.419-0.301-0.723-0.268c-1.305,0.142-2.604,0.121-3.883-0.219c-0.635-0.169-1.234-0.421-1.74-0.855
		c-0.361-0.311-0.628-0.673-0.787-1.106c0.478-0.106,0.954-0.22,1.426-0.349c1.583-0.433,3.168-0.605,4.792-0.51
		c1.952,0.114,3.902,0.284,5.856,0.352c0.699,0.024,1.462-0.042,2.097-0.305c0.946-0.391,1.849-0.931,2.689-1.521
		c1.244-0.874,2.378-1.907,3.639-2.753c0.583-0.391,0.785-0.807,0.81-1.451c0.033-0.86,0.466-1.172,1.299-1.017
		c0.147,0.028,0.295,0.062,0.438,0.108c0.944,0.301,1.871,0.252,2.816-0.04c0.726-0.224,1.487-0.332,2.219-0.538
		c0.134-0.038,0.251-0.294,0.285-0.468c0.023-0.118-0.151-0.262-0.17-0.404c-0.031-0.226-0.094-0.589,0.014-0.663
		c0.209-0.141,0.528-0.161,0.8-0.156c0.216,0.004,0.425,0.152,0.644,0.179c0.506,0.063,0.979,0.005,1.286-0.487
		c0.302-0.483,0.313-0.947-0.04-1.411c-0.114-0.149-0.262-0.306-0.292-0.477c-0.04-0.23-0.067-0.539,0.052-0.706
		c0.436-0.61,0.924-1.184,1.414-1.753c0.448-0.52,1.042-0.822,1.715-0.868c0.237-0.016,0.529,0.182,0.727,0.359
		c0.155,0.138,0.168,0.424,0.309,0.59c0.165,0.195,0.399,0.33,0.604,0.492c0.14-0.215,0.333-0.414,0.406-0.65
		c0.076-0.243-0.007-0.533,0.058-0.781c0.052-0.199,0.182-0.426,0.347-0.538c0.88-0.598,1.824-1.109,2.662-1.759
		c0.631-0.488,1.105-1.173,1.702-1.711c1.025-0.924,2.335-1.249,3.625-1.586c0.846-0.221,1.028-0.471,0.768-1.315
		c-0.126-0.41-0.301-0.811-0.503-1.19c-0.26-0.487-0.13-0.824,0.318-1.079c0.178-0.101,0.367-0.184,0.552-0.273
		c0.585-0.279,1-0.662,1.149-1.353c0.15-0.693,0.429-1.36,0.672-2.031c0.328-0.905,0.596-1.875,1.799-1.996
		c0.036-0.004,0.072-0.015,0.108-0.023c0-0.264,0-0.527,0-0.791c-0.278-0.435-0.527-0.892-0.841-1.299
		C136.414,70.759,136.024,70.424,135.704,70.033z"/>
</g>
</svg>
