<?xml version="1.0" encoding="iso-8859-1"?>
<!-- Generator: Adobe Illustrator 17.1.0, SVG Export Plug-In . SVG Version: 6.00 Build 0)  -->
<!DOCTYPE svg PUBLIC "-//W3C//DTD SVG 1.1//EN" "http://www.w3.org/Graphics/SVG/1.1/DTD/svg11.dtd">
<svg version="1.1" id="Capa_1" xmlns="http://www.w3.org/2000/svg" xmlns:xlink="http://www.w3.org/1999/xlink" x="0px" y="0px"
	 viewBox="0 0 150 150" style="enable-background:new 0 0 150 150;" xml:space="preserve">
<g>
	<path d="M20.922,10.265c2.763,1.132,5.498,2.345,8.316,3.32c1.463,0.506,3.095,0.518,4.65,0.762
		c0.271,0.042,0.59,0.053,0.794,0.204c3.055,2.25,6.785,3.765,8.653,7.333c0.803,1.533,1.249,3.295,1.611,5.005
		c0.308,1.455-0.545,2.703-1.483,3.726c-1.306,1.423-2.745,2.726-4.137,4.07c-1.658,1.601-3.093,3.364-3.896,5.451
		c-0.094,0.245-0.264,0.632-0.377,0.869c-0.511,1.07-0.8,2.26-0.8,3.509c0,0.315,0.02,0.625,0.057,0.93
		c0.032,0.26,0.044,0.681,0.013,0.941c-0.02,0.169-0.04,0.339-0.06,0.508c-0.03,0.26-0.14,0.666-0.231,0.913
		c-0.141,0.385-0.251,0.776-0.32,1.165c-0.046,0.258-0.113,0.678-0.157,0.936c-0.163,0.944-0.17,1.915,0.026,2.816
		c0.056,0.256,0.066,0.665,0.018,0.923c-0.221,1.179-0.171,2.41,0.217,3.607c0.017,0.053,0.034,0.105,0.051,0.158
		c0.028,0.087,0.066,0.262,0.085,0.391c0.019,0.129,0.04,0.446,0.047,0.708c0.025,0.941,0.066,1.883,0.13,2.824
		c0.214,3.148,0.592,6.288,1.126,9.403c0.188,1.475,0.439,2.944,0.708,4.41c0.027,0.146,0.076,0.287,0.139,0.427
		c0.102,0.227,0.257,0.605,0.317,0.86c0.181,0.765,0.37,1.529,0.572,2.289c0.516,2.739,1.222,5.427,2.429,7.97
		c0.178,0.375,0.359,0.749,0.539,1.124c2.037,5.226,4.599,10.246,7.704,14.942c1.688,2.552,3.497,5.033,5.412,7.431
		c0.578,0.807,1.169,1.604,1.789,2.377c1.349,1.682,2.798,3.284,4.252,4.883c0.176,0.194,0.407,0.545,0.521,0.781
		c0.756,1.575,1.686,3.078,3.017,4.172c0.371,0.305,0.75,0.599,1.135,0.879c0.212,0.154,0.429,0.315,0.481,0.364
		c0.032,0.029,0.063,0.058,0.095,0.088c1.266,1.31,2.678,2.487,4.168,3.579c0.211,0.155,0.172,0.278-0.09,0.277
		c-0.659-0.001-1.318,0.004-1.977,0.023c-3.568,0.099-7.027-0.606-10.505-1.262c-1.222-0.231-2.52-0.108-3.779-0.054
		c-0.394,0.017-0.812,0.288-1.142,0.542c-0.136,0.105-0.129,0.491-0.065,0.713c0.028,0.097,0.368,0.145,0.565,0.14
		c0.217-0.005,0.434-0.029,0.651-0.056c0.26-0.032,0.509,0.009,0.556,0.092c0.047,0.083-0.075,0.29-0.271,0.464
		c-0.153,0.136-0.31,0.268-0.482,0.373c-0.593,0.363-1.245,0.635-1.806,1.038c-0.113,0.081-0.174,0.235-0.224,0.405
		c-0.073,0.25,0.074,0.506,0.327,0.575c0.183,0.05,0.356,0.081,0.476,0.015c0.685-0.375,1.214-0.218,1.699,0.288
		c0.517,0.54,0.798,1.051-0.025,1.64c-0.29,0.207-0.467,0.573-0.765,1.067c-0.136,0.224-0.044,0.371,0.215,0.335
		c1.219-0.171,2.228-0.313,3.209-0.451c0.26-0.036,0.337,0.099,0.172,0.303c-0.33,0.408-0.628,0.777-0.917,1.135
		c-0.165,0.204-0.091,0.415,0.165,0.472c0.211,0.047,0.435,0.096,0.69,0.153c0.256,0.057,0.264,0.177,0.017,0.266
		c-0.782,0.284-1.539,0.546-2.272,0.864c-0.494,0.214-0.989,0.5-1.367,0.872c-0.104,0.102-0.124,0.288-0.13,0.491
		c-0.007,0.262,0.174,0.488,0.409,0.503c0.147,0.009,0.291,0.009,0.423-0.03c1.875-0.558,3.587-0.294,5.126,0.94
		c0.863,0.692,1.768,1.343,2.56,2.109c0.245,0.237,0.409,0.559,0.537,0.836c0.109,0.238,0.079,0.604-0.072,0.818
		c-0.252,0.357-0.471,0.668-0.681,0.965c-0.151,0.214-0.094,0.502,0.127,0.643c0.128,0.081,0.257,0.164,0.392,0.249
		c0.221,0.141,0.493,0.062,0.645-0.152c0.85-1.201,2.238-1.315,3.436-1.607c2.063-0.504,3.718-1.667,5.459-2.749
		c1.765-1.098,3.556-2.173,5.417-3.093c1.234-0.61,2.57-0.927,4.032-0.927c1.117,0,2.225-0.648,3.356-0.931
		c0.565-0.141,1.179-0.075,1.761-0.166c0.787-0.123,1.567-0.32,2.351-0.45c0.259-0.043,0.679-0.028,0.937,0.017
		c3.77,0.659,7.673,0.606,11.359-0.167c0.257-0.054,0.677-0.102,0.939-0.103c3.783-0.016,7.881-0.015,9.037,0.055
		c0.145,0.009,0.548,0.078,0.872,0.105c0.261,0.022,0.663-0.044,0.925-0.043c0.678,0.003,1.372-0.039,1.978,0.173
		c2.182,0.763,4.424,0.621,6.656,0.671c0.262,0.006,0.469,0.019,0.461,0.026s0.19-0.05,0.439-0.133
		c0.707-0.236,1.409-0.502,2.135-0.608c1.289-0.188,2.603-0.211,3.907-0.295c1.023-0.066,2.046-0.161,3.069-0.161
		c1.054-0.001-10.208-3.933-15.832-10.015c-1.176-1.271-2.578-2.336-3.783-3.585c-0.551-0.571-1.005-1.326-1.26-2.079
		c-1.65-4.884-3.064-9.855-4.894-14.669c-1.296-3.408-2.97-6.7-4.751-9.889c-3.169-5.676-6.5-11.264-9.856-16.833
		c-1.973-3.273-3.892-6.622-6.251-9.609c-3.587-4.543-7.374-8.971-12.668-11.725c-3.989-2.075-7.937-4.23-11.942-6.273
		c-3.144-1.604-4.083-5.457-2.251-8.531c2.479-4.159,4.955-8.345,7.038-12.709c3.855-8.08-0.245-16.851-6.908-20.451
		c-2.174-1.174-4.288-2.44-6.662-3.164c-0.251-0.076-0.669-0.131-0.931-0.131h-1.662c-0.262,0-0.671,0.081-0.913,0.183
		c-1.619,0.678-3.229,1.381-4.868,2.004c-1.531,0.582-3.07,1.277-4.667,1.521c-1.933,0.295-3.932,0.133-5.899,0.231
		c-3.179,0.158-6.355,0.359-9.532,0.546c-0.262,0.015-0.474,0.187-0.474,0.384C20.482,9.927,20.679,10.166,20.922,10.265z
		 M73.116,130.558c0.26,0.034,0.641,0.18,0.854,0.309c0.156,0.095,0.556,0.469,0.685,0.588c0.054,0.057,0.136,0.141,0.161,0.167
		c0.181,0.19,0.468,0.501,0.63,0.708c0.081,0.104,0.162,0.208,0.244,0.312c0.161,0.207,0.09,0.44-0.164,0.506
		c-3.44,0.901-10.696,0.948-15.729,0.069c-0.258-0.045-0.263-0.142-0.01-0.214c0.241-0.069,0.426-0.121,0.612-0.166
		c2.297-0.546,4.599-1.068,6.889-1.637C69.219,130.72,71.147,130.298,73.116,130.558z"/>
</g>
</svg>
