<?xml version="1.0" encoding="iso-8859-1"?>
<!-- Generator: Adobe Illustrator 17.1.0, SVG Export Plug-In . SVG Version: 6.00 Build 0)  -->
<!DOCTYPE svg PUBLIC "-//W3C//DTD SVG 1.1//EN" "http://www.w3.org/Graphics/SVG/1.1/DTD/svg11.dtd">
<svg version="1.1" id="Capa_1" xmlns="http://www.w3.org/2000/svg" xmlns:xlink="http://www.w3.org/1999/xlink" x="0px" y="0px"
	 viewBox="0 0 150 150" style="enable-background:new 0 0 150 150;" xml:space="preserve">
<g>
	<path d="M21.184,17.614c-0.131,0.109-0.261,0.218-0.391,0.327c0.309,3.433,1.899,6.353,3.726,9.293
		c-0.354-0.313-0.71-0.624-1.062-0.939c-0.355-0.318-0.67-0.702-1.071-0.943c-0.366-0.22-0.823-0.288-1.24-0.424
		c-0.075,0.442-0.333,0.956-0.193,1.313c0.633,1.615,1.365,3.192,2.093,4.769c0.189,0.41,0.487,0.769,0.986,1.54
		c-0.956-0.514-1.519-0.815-2.081-1.117c-0.145,0.101-0.291,0.203-0.436,0.304c0.312,3.613,3.01,5.85,5.323,8.31
		c-1.184,1.161-1.318,2.018-0.071,3.233c1.172,1.142,2.06,2.372,2.884,3.795c1.123,1.94,2.788,3.56,4.161,5.362
		c1.179,1.548,2.311,3.135,3.38,4.759c0.252,0.383,0.251,0.99,0.227,1.487c-0.049,1.013-0.243,2.02-0.286,3.034
		c-0.098,2.335-0.564,4.763-0.086,6.982c0.456,2.115,0.363,4.214,0.682,6.298c0.181,1.182,0.253,2.383,0.46,3.56
		c0.573,3.255,1.165,6.507,1.81,9.748c0.176,0.885,0.604,1.718,0.849,2.593c0.559,1.992-0.693,3.383-1.672,4.859
		c-0.279,0.421-0.557,0.843-1.091,1.653c2.154-0.106,3.899-0.188,5.643-0.279c1.543-0.081,3.082-0.872,4.567,0.582
		c0.476,0.466,1.794,0.073,3.029,0.073c-0.638,0.982-1.212,1.867-1.923,2.962c0.821,0.129,1.504,0.237,2.538,0.4
		c-0.704,0.927-1.329,1.717-1.918,2.532c-3.001,4.147-6.17,8.188-8.925,12.494c-1.781,2.783-2.306,6.104-2.368,9.449
		c-0.012,0.667-0.26,1.516-0.713,1.958c-2.004,1.952-4.12,3.791-6.202,5.662c-0.895,0.805-1.807,1.59-2.712,2.384
		c0.068,0.134,0.136,0.268,0.204,0.402c6.071-2.91,12.142-5.82,18.334-8.788c0.276,0.19,0.712,0.484,1.143,0.787
		c2.154,1.514,2.209,2.158,0.14,3.785c-0.903,0.71-1.486,1.425-0.833,2.918l0.917-1.799c0.177,0.127,0.353,0.255,0.529,0.382
		c-0.24,0.582-0.439,1.184-0.726,1.741c-1.233,2.396-2.556,4.748-3.702,7.184c-0.329,0.698-0.176,1.622-0.26,2.641
		c1.265-1.101,2.563-2.292,3.931-3.396c0.635-0.512,1.402-0.861,2.118-1.269c0.265-0.151,0.644-0.187,0.818-0.4
		c2.499-3.075,5.091-6.085,7.415-9.289c1.925-2.655,3.241-5.584,0.936-8.954c4.751-1.656,8.228-4.818,11.838-7.717
		c3.254-2.614,6.349-5.458,9.284-8.427c3.396-3.436,7.017-6.433,11.616-8.107c1.241-0.451,2.436-1.033,3.635-1.592
		c3.005-1.402,5.127-3.49,6.221-6.788c0.662-1.996,1.949-3.859,3.26-5.544c1.201-1.544,2.998-2.148,5.061-2.206
		c2.677-0.076,5.343-0.494,8.017-0.736c0.405-0.037,0.829,0.048,1.234,0.129c3.167,0.634,6.323,1.328,9.504,1.884
		c0.606,0.106,1.304-0.315,1.96-0.492l0.071-0.771c-1.432-0.837-2.901-1.617-4.285-2.526c-1.255-0.825-2.506-1.695-3.6-2.715
		c-1.921-1.792-3.627-3.82-5.593-5.557c-3.084-2.724-6.627-2.372-9.958-0.68c-2.024,1.029-3.84,2.592-5.506,4.171
		c-2.371,2.247-4.517,4.732-6.765,7.111c-0.854,0.903-1.785,1.194-3.114,0.964c-0.542-0.094-1.091-0.183-1.641-0.26
		c4.115-4.869,3.972-12.034,3.462-18.272c-0.679-8.294-2.122-16.499-4.344-24.517c0.084-0.27,0.169-0.54,0.253-0.81
		c0.614-1.964-2.458-2.797-3.068-0.846l-0.038,0.122c-0.113,0.096-0.21,0.208-0.29,0.333c1.617-2.551-1.356-14.74-2.267-17.663
		c-1.698-5.445-4.237-10.813-6.289-16.152c-0.262-0.682-0.984-1.507-1.544-1.038c-0.297,0.248-0.271,0.704-0.22,1.087
		c0.505,3.793,1.01,7.585,1.516,11.378c-2.03-3.225-2.754-9.088-5.9-10.964c-0.891,2.772,0.962,13.63,2.732,16.436
		c-1.488-2.36-2.291-5.363-5.252-5.979c-0.3,0.94-0.352,1.919-0.226,2.899c-0.279-0.16-0.596-0.241-0.919-0.183
		c-1.241,0.22-1.933,1.67-1.805,2.924c0.127,1.254,0.835,2.361,1.457,3.458c0.621,1.097,1.188,2.327,0.995,3.573
		c-1.119-1.624-2.239-3.247-3.358-4.871c-2.695,4.736,0.457,12.376-0.549,17.884c-0.486,2.659-2.609,8.126-1.711,10.712
		c-0.756-2.176-1.528-4.346-2.331-6.504c-0.84-2.256-2.22-4.309-3.33-6.466c-0.195-0.378-0.273-0.816-0.406-1.227
		c-0.228,0.195-0.455,0.39-0.683,0.585c0.194,0.78,0.388,1.56,0.582,2.341c-0.07,0.033-0.14,0.066-0.21,0.099
		c-1.058-1.434-2.245-2.791-3.148-4.316c-2.249-3.802-5.896-6.258-8.834-9.389c-4.813-5.128-9.795-10.097-14.669-15.168
		c-0.651-0.677-1.062-1.578-1.639-2.333c-0.312-0.408-0.741-0.727-1.412-1.368c-0.234,3.169,1.524,5.168,2.527,7.417
		c-0.14,0.09-0.281,0.18-0.421,0.27c-2.038-2.796-4.076-5.592-6.114-8.388c-0.166,0.084-0.332,0.168-0.497,0.252
		c-0.57,3.39,1.941,5.911,2.715,8.978c-1.778-2.392-3.555-4.784-5.333-7.176l-0.498,0.339c0.289,5.078,3.037,9.082,5.85,13.102
		C24.451,20.718,22.817,19.166,21.184,17.614z"/>
</g>
</svg>
