<?xml version="1.0" encoding="iso-8859-1"?>
<!-- Generator: Adobe Illustrator 17.1.0, SVG Export Plug-In . SVG Version: 6.00 Build 0)  -->
<!DOCTYPE svg PUBLIC "-//W3C//DTD SVG 1.1//EN" "http://www.w3.org/Graphics/SVG/1.1/DTD/svg11.dtd">
<svg version="1.1" id="Capa_1" xmlns="http://www.w3.org/2000/svg" xmlns:xlink="http://www.w3.org/1999/xlink" x="0px" y="0px"
	 viewBox="0 0 150 150" style="enable-background:new 0 0 150 150;" xml:space="preserve">
<g>
	<path d="M103.488,106.756c-0.127-0.263-0.016-0.377,0.249-0.253c0.385,0.18,0.74,0.345,1.092,0.509
		c0.265,0.124,0.378,0.01,0.252-0.254c-1.448-3.043-2.872-6.038-4.291-9.02c-0.126-0.264-0.276-0.3-0.337-0.08
		c-0.061,0.22-0.161,0.364-0.226,0.324c-0.047-0.029-0.087-0.059-0.095-0.095c-1.429-6.414-2.865-12.825-4.266-19.245
		c-1.518-6.955-3.96-13.448-8.295-19.246c-3.438-4.597-7.527-7.439-13.428-7.431c-1.857,0.003-3.748-0.357-5.565-0.794
		c-2.482-0.598-3.944-2.199-4.584-4.79c-1.537-6.218,0.174-11.109,5.473-14.738c4.104-2.81,7.338-6.403,9.704-10.789
		c0.139-0.257,0.327-0.244,0.424,0.031c1.074,3.031,2.131,6.016,3.187,8.999c0.098,0.276,0.243,0.472,0.325,0.438
		c0.082-0.034,0.107-0.294,0.054-0.582c-0.514-2.798-1.157-5.584-1.428-8.405c-0.222-2.317-0.097-4.706,0.19-7.024
		c0.763-6.155-5.194-11.384-11.072-9.405c-2.125,0.716-4.211,1.884-5.96,3.288c-2.099,1.685-4.324,2.701-6.931,3.184
		c-3.695,0.686-7.361,1.532-11.036,2.321c-0.695,0.149-1.385,0.326-2.074,0.612c-0.27,0.112-0.245,0.219,0.047,0.218
		c9.429-0.035,18.872-1.405,28.394,0.164c0.288,0.048,0.614,0.308,0.695,0.589c0.448,1.543,0.105,3.114-0.886,4.528
		c-0.349,0.497-0.491,0.989-0.477,1.447c0.008,0.292,0.063,0.613,0.038,0.726c-0.015,0.068-0.03,0.137-0.045,0.205
		c-0.018,0.08-0.031,0.16-0.04,0.239c-0.015,0.133-0.159,0.43-0.349,0.652c-1.736,2.03-3.963,3.262-5.967,4.759
		c-4.875,3.64-7.686,8.463-8.152,14.597c-0.156,2.049-0.531,4.084-0.643,6.135c-0.005,0.097-0.009,0.19-0.012,0.283
		c-0.005,0.156-0.019,0.357-0.028,0.448c-0.005,0.054-0.009,0.11-0.011,0.166c-0.187,4.704-0.374,9.407-0.561,14.111
		c-0.002,0.044-0.002,0.088-0.002,0.131c0,0.073-0.045,0.364-0.104,0.65c-0.085,0.408-0.17,0.819-0.257,1.235
		c-0.06,0.286,0.128,0.49,0.418,0.454c0.158-0.019,0.338-0.041,0.541-0.066c0.29-0.036,0.463,0.164,0.385,0.446
		c-0.259,0.945-0.51,1.862-0.778,2.842c-0.077,0.282,0.097,0.494,0.389,0.475c0.296-0.02,0.607-0.041,0.976-0.066
		c0.292-0.02,0.489,0.198,0.441,0.486c-0.223,1.334-0.441,2.636-0.669,3.998c-0.048,0.288,0.127,0.421,0.391,0.296
		c0.256-0.121,0.526-0.249,0.841-0.398c0.264-0.125,0.404-0.001,0.313,0.277c-0.19,0.581-0.365,1.112-0.552,1.683
		c-0.091,0.278,0.065,0.446,0.348,0.375c0.238-0.059,0.478-0.12,0.753-0.188c0.284-0.071,0.482,0.107,0.443,0.396
		c-0.106,0.788-0.208,1.544-0.316,2.346c-0.039,0.29,0.146,0.428,0.413,0.309c0.3-0.134,0.62-0.276,1.03-0.459
		c0.267-0.119,0.461,0.02,0.433,0.311c-0.078,0.818-0.149,1.552-0.224,2.334c-0.028,0.291,0.172,0.446,0.447,0.346
		c0.261-0.095,0.543-0.198,0.844-0.307c0.275-0.1,0.631,0.015,0.796,0.256c3.741,5.486,7.372,11.025,7.703,18.081
		c0.142,3.038,1.204,6.077,1.054,9.076c-0.327,6.55-0.49,13.156-2.295,19.547c-0.526,1.863-0.94,3.763-1.563,5.592
		c-0.303,0.891-0.859,1.696-1.478,2.766c-0.146,0.253-0.385,0.259-0.548,0.017c-1.146-1.703-2.349-2.676-4.181-1.174
		c-0.226,0.185-0.158,0.34,0.134,0.326c0.207-0.011,0.401-0.02,0.599-0.031c0.292-0.015,0.504,0.21,0.522,0.502
		c0.062,1.009,0.599,1.504,1.669,1.336c0.289-0.045,0.412,0.094,0.253,0.34c-0.803,1.243-1.941,1.614-3.549,1.124
		c-1.513-0.46-2.94-1.221-4.467-1.607c-0.818-0.207-2.03,0.416-2.858,1.033c-0.234,0.175-0.182,0.271,0.106,0.225
		c1.228-0.195,1.622,0.236,1.738,0.625c0.084,0.28-0.032,0.635-0.103,0.773c-0.071,0.137,0.108,0.249,0.4,0.249h7.566
		c0.292,0,0.359,0.165,0.138,0.357c-2.01,1.737-4.119,2.154-6.414,1.924c-1.933-0.194-2.687-0.013-3.408,1.223
		c-0.147,0.253-0.044,0.334,0.244,0.281c1.265-0.233,3.391,0.758,4.876,0.496c1.799-0.317,3.44-1.449,5.2-2.084
		c3.059-1.103,6.006-1.1,8.551,1.303c1.056,0.997,2.224,1.651,4.074,1.432c0.29-0.034,0.341-0.234,0.122-0.427
		c-0.478-0.423-0.823-0.757-1.225-0.994c-1.49-0.877-3.154-1.517-4.492-2.576c-1.759-1.392-2.541-3.419-2.126-5.675
		c1.242-6.74,2.057-13.58,5.296-19.821c0.726-1.398,0.751-3.263,0.751-4.913c0.001-3.51-0.333-7.022-0.307-10.531
		c0.007-1.029,0.362-2.056,0.68-3.083c0.086-0.279,0.2-0.606,0.247-0.734c0.046-0.128,0.173-0.217,0.296-0.195
		c0.123,0.022,0.292,0.266,0.37,0.548c0.234,0.841,0.438,1.694,0.782,2.487c0.81,1.865,1.564,3.788,2.65,5.49
		c1.439,2.257,2.122,4.463,1.396,7.159c-0.293,1.087,0.106,2.394,0.327,3.575c0.203,1.083,0.853,2.13,0.854,3.194
		c0.002,4.752-0.135,9.504-0.283,14.255c-0.017,0.533-0.261,1.058-0.516,1.756c-0.1,0.275-0.343,0.338-0.555,0.136
		c-0.633-0.602-1.169-1.113-1.685-1.604c-0.212-0.202-0.445-0.331-0.52-0.289c-0.075,0.042-0.039,0.292,0.082,0.558
		c0.212,0.468,0.45,0.994,0.789,1.743c0.121,0.266-0.01,0.417-0.293,0.343c-1.303-0.338-2.367-0.511-3.278-0.981
		c-1.88-0.97-2.303-1.025-3.369,0.778c-0.149,0.252-0.042,0.375,0.231,0.272c0.16-0.061,0.308-0.117,0.45-0.171
		c0.273-0.104,0.476-0.11,0.452-0.014s0.178,0.259,0.451,0.365c1.124,0.436,2.272,0.882,3.614,1.403
		c0.273,0.106,0.275,0.282,0.005,0.394c-1.705,0.707-3.259,1.351-5.071,2.102c-0.27,0.112-0.269,0.291,0.009,0.381
		c1.95,0.632,3.193,0.227,4.547-0.712c2.823-1.957,7.672-0.775,9.723,2.086c0.553,0.772,1.217,1.465,1.855,2.175
		c0.195,0.218,0.476,0.347,0.631,0.285c0.155-0.062,0.208-0.337,0.144-0.623c-0.104-0.465-0.197-0.948-0.478-1.116
		c-4.759-2.831-5.998-7.212-5.694-12.365c0.249-4.217,0.375-8.441,0.613-12.659c0.154-2.721-0.141-5.265-1.076-7.921
		c-0.799-2.269-0.589-4.944-0.562-7.436c0.018-1.644,0.395-3.284,0.682-5.096c0.046-0.289,0.258-0.368,0.485-0.183
		c0.255,0.207,0.479,0.389,0.65,0.61c2.331,3.021,4.738,5.99,6.928,9.111c1.803,2.57,2.764,5.487,3.292,8.641
		c0.506,3.025,1.524,5.963,2.627,8.879c0.103,0.273,0.22,0.26,0.256-0.03c0.712-5.691,0.647-11.318-0.557-17.105
		c-0.06-0.286,0.084-0.382,0.324-0.215c2.136,1.487,4.066,2.83,5.981,4.163c0.24,0.167,0.527,0.224,0.641,0.128
		c0.114-0.096,0.103-0.387-0.024-0.651C104.68,109.225,104.117,108.059,103.488,106.756z"/>
</g>
</svg>
