<?xml version="1.0" encoding="iso-8859-1"?>
<!-- Generator: Adobe Illustrator 17.1.0, SVG Export Plug-In . SVG Version: 6.00 Build 0)  -->
<!DOCTYPE svg PUBLIC "-//W3C//DTD SVG 1.1//EN" "http://www.w3.org/Graphics/SVG/1.1/DTD/svg11.dtd">
<svg version="1.1" id="Capa_1" xmlns="http://www.w3.org/2000/svg" xmlns:xlink="http://www.w3.org/1999/xlink" x="0px" y="0px"
	 viewBox="0 0 150 150" style="enable-background:new 0 0 150 150;" xml:space="preserve">
<g>
	<path d="M6.334,103.34c1.382,1.113,1.37,1.322-0.157,2.242c-0.104,0.062-0.207,0.126-0.382,0.235
		c-0.211,0.13-0.133,0.322,0.173,0.427c1.161,0.401,2.238,0.773,3.54,1.222c0.306,0.106,0.368,0.376,0.137,0.603
		c-0.747,0.738-1.407,1.39-2.084,2.059c-0.23,0.228-0.159,0.46,0.16,0.519c1.616,0.301,3.229,0.612,4.848,0.888
		c6.826,1.168,13.661,2.285,20.481,3.489c5.188,0.916,10.388,1.723,15.607,2.371c-0.025,0.008-0.05,0.01-0.074,0.019
		c-1.169,0.393-9.403,1.039-10.763,0.479c-0.242-0.1-0.514-0.021-0.626,0.217c-0.068,0.144-0.133,0.283-0.198,0.42
		c-0.112,0.237-0.006,0.511,0.236,0.611c0.336,0.139,0.688,0.284,1.091,0.451c0.242,0.1,0.463,0.392,0.499,0.652
		c0.041,0.302,0.074,0.662-0.006,0.994c-0.26,1.071-0.676,2.105-1.035,3.151c-0.64,1.866-1.946,3.004-3.828,3.535
		c-0.133,0.038-0.255,0.114-0.374,0.201c-0.191,0.139-0.223,0.426-0.077,0.644c0.112,0.168,0.23,0.315,0.372,0.345
		c0.518,0.112,1.09,0.089,1.622,0.006c0.789-0.123,1.569-0.306,2.382-0.485c0.256-0.056,0.314,0.05,0.128,0.234
		c-0.185,0.184-0.348,0.346-0.502,0.498c-0.186,0.185-0.136,0.403,0.113,0.487c0.436,0.148,0.885,0.3,1.382,0.469
		c0.248,0.084,0.256,0.24,0.017,0.348c-0.903,0.408-1.832,0.828-2.953,1.335c-0.239,0.108-0.238,0.281-0.003,0.398
		c0.516,0.258,0.861,0.472,1.217,0.493c0,0,2.388,5.043,23.478-9.65c5.948-0.892,11.741-2.283,17.397-4.177h2.237
		c2.614-0.246,5.231-0.475,7.843-0.74c9.96-1.011,19.628-3.225,28.934-6.966c3.699-1.487,6.384-5.056,5.596-9.34
		c-1.049-5.707-2.899-11.127-5.545-16.285c-3.675-7.163-7.419-14.293-10.934-21.534c-0.72-1.483-0.567-3.392-0.788-5.108
		c-0.01-0.076,0.057-0.162,0.142-0.259c0.111-0.126,0.435-0.123,0.73,0.01c0.059,0.026,0.118,0.053,0.177,0.08
		c0.295,0.133,0.602-0.013,0.683-0.326c0.23-0.896,0.436-1.757,0.707-2.597c0.687-2.133,1.369-4.27,2.168-6.361
		c0.286-0.749,0.755-1.604,1.394-2.012c2.891-1.847,5.87-3.555,9.522-3.17c1.941,0.204,3.887,0.372,5.826,0.599
		c5.904,0.689,11.761,2.025,17.76,1.368c0.322-0.035,0.582-0.136,0.582-0.217c0-0.081-0.245-0.241-0.548-0.357
		c-3.858-1.485-7.711-2.985-11.581-4.438c-1.46-0.548-2.969-0.964-4.453-1.447c-3.938-1.281-6.603-3.979-8.583-7.525
		c-0.874-1.565-1.763-3.26-3.069-4.416c-2.39-2.115-2.682-4.607-2.198-7.446c0.083-0.487,0.161-0.974,0.266-1.622
		c0.052-0.32-0.083-0.385-0.301-0.146c-0.393,0.431-0.728,0.798-1.045,1.146c-0.218,0.239-0.5,0.396-0.629,0.349
		s-0.201-0.345-0.16-0.666c0.14-1.101,0.284-2.231,0.452-3.559c0.041-0.321-0.039-0.345-0.178-0.052
		c-0.391,0.821-0.724,1.521-1.046,2.197c-0.139,0.292-0.357,0.519-0.486,0.506c-0.129-0.013-0.219-0.286-0.2-0.609
		c0.053-0.918,0.108-1.861,0.17-2.945c0.019-0.323-0.069-0.344-0.195-0.045c-0.693,1.634-1.324,3.119-1.947,4.589
		c-0.127,0.298-0.285,0.538-0.353,0.536c-0.069-0.002-0.124-0.266-0.124-0.59v-3.044c0-0.324-0.102-0.345-0.228-0.046
		c-0.164,0.388-0.324,0.766-0.522,1.234c-0.126,0.298-0.289,0.285-0.364-0.03c-0.094-0.393-0.173-0.727-0.265-1.113
		c-0.075-0.315-0.24-0.33-0.37-0.033c-0.302,0.694-0.566,1.299-0.861,1.978c-0.129,0.297-0.337,0.296-0.463-0.002
		c-0.215-0.506-0.427-1.006-0.651-1.533c-0.127-0.298-0.35-0.307-0.499-0.019c-0.078,0.151-0.162,0.312-0.258,0.497
		c-0.149,0.287-0.373,0.279-0.5-0.019c-0.227-0.532-0.423-0.992-0.625-1.466c-0.127-0.298-0.287-0.283-0.357,0.033
		c-0.066,0.299-0.132,0.598-0.21,0.949c-0.07,0.316-0.295,0.371-0.502,0.122c-0.326-0.392-0.611-0.735-0.921-1.107
		c-0.207-0.249-0.329-0.192-0.273,0.127c0.121,0.684,0.23,1.298,0.335,1.895c0.056,0.319,0.043,0.606-0.031,0.642
		c-0.073,0.036-0.314-0.125-0.539-0.358c-1.13-1.18-2.261-2.359-3.391-3.539c-0.224-0.234-0.454-0.391-0.513-0.351
		c-0.059,0.04-0.021,0.32,0.086,0.625c0.151,0.434,0.311,0.892,0.5,1.432c0.107,0.306-0.042,0.437-0.332,0.293
		c-0.27-0.134-0.51-0.252-0.759-0.376c-0.29-0.144-0.398-0.031-0.24,0.252c0.104,0.187,0.202,0.363,0.297,0.532
		c0.158,0.283,0.249,0.592,0.205,0.689c-0.044,0.098-0.323,0.077-0.622-0.046c-1.338-0.552-2.687-1.108-4.123-1.7
		c-0.299-0.123-0.391-0.009-0.205,0.256c0.188,0.268,0.376,0.535,0.604,0.86c0.186,0.265,0.084,0.411-0.228,0.325
		c-1.043-0.286-1.906-0.523-2.736-0.75c-0.312-0.086-0.593-0.114-0.628-0.063s0.143,0.256,0.397,0.457
		c0.241,0.192,0.499,0.396,0.796,0.633c0.254,0.202,0.196,0.365-0.128,0.365h-2.607c-0.324,0-0.35,0.114-0.058,0.255
		c0.968,0.468,1.771,0.856,2.542,1.229c0.292,0.141,0.508,0.319,0.483,0.398c-0.025,0.079-0.304,0.103-0.624,0.053
		c-0.711-0.109-1.435-0.221-2.227-0.343c-0.32-0.049-0.372,0.071-0.115,0.269c0.164,0.127,0.322,0.248,0.483,0.373
		c0.257,0.198,0.213,0.433-0.098,0.526c-0.694,0.207-1.367,0.408-2.144,0.64c-0.31,0.093-0.322,0.276-0.027,0.408
		c1.584,0.708,2.996,1.322,4.386,1.982c2.141,1.015,2.293,1.629,0.747,3.492c-1.184,1.427-2.538,2.712-3.718,4.142
		c-4.966,6.016-5.948,12.777-3.524,20.078c0.438,1.318,1.235,2.537,1.99,3.724c0.626,0.984,1.388,1.893,2.171,2.762
		c2.348,2.604,3.667,5.564,4.31,9.08c0.732,4.004,2.251,7.861,3.358,11.802c0.936,3.331,1.78,6.688,2.642,10.039
		c0.084,0.325,0.088,0.671,0.114,1.184c0.016,0.323-0.189,0.451-0.469,0.288c-1.259-0.735-2.3-1.308-3.286-1.963
		c-3.805-2.53-7.783-4.696-12.254-5.788c-8.054-1.967-16.205-3.179-24.517-2.509c-5.008,0.404-9.708,2.154-14.373,3.887
		c-8.938,3.32-17.607,7.216-25.734,12.262c-3.711,2.304-7.51,4.47-12.2,5.198c-0.32,0.05-0.38,0.251-0.133,0.46
		C5.488,102.637,5.906,102.995,6.334,103.34z"/>
</g>
</svg>
