<?xml version="1.0" encoding="iso-8859-1"?>
<!-- Generator: Adobe Illustrator 17.1.0, SVG Export Plug-In . SVG Version: 6.00 Build 0)  -->
<!DOCTYPE svg PUBLIC "-//W3C//DTD SVG 1.1//EN" "http://www.w3.org/Graphics/SVG/1.1/DTD/svg11.dtd">
<svg version="1.1" id="Capa_1" xmlns="http://www.w3.org/2000/svg" xmlns:xlink="http://www.w3.org/1999/xlink" x="0px" y="0px"
	 viewBox="0 0 150 150" style="enable-background:new 0 0 150 150;" xml:space="preserve">
<g>
	<path d="M141.906,127.06c-3.207-2.224-5.924-4.967-8.481-7.894c-1.97-2.254-3.604-4.739-5.264-7.216
		c-1.061-1.583-2.226-3.1-3.391-4.609c-0.984-1.274-2.032-2.499-3.061-3.738c-1.407-1.696-2.811-3.395-4.237-5.075
		c-0.922-1.086-1.862-2.16-2.832-3.204c-0.773-0.833-1.557-1.67-2.425-2.397c-0.649-0.543-1.423-0.947-2.174-1.353
		c-0.818-0.442-1.677-0.807-2.511-1.22c-1.013-0.501-2.024-1.006-3.026-1.529c-1.123-0.586-2.233-1.196-3.353-1.789
		c-1.036-0.549-2.083-1.076-3.114-1.635c-1.376-0.746-2.745-1.507-4.11-2.273c-1.182-0.663-2.363-1.33-3.529-2.021
		c-0.509-0.302-0.977-0.673-1.468-1.007c-0.438-0.298-0.882-0.588-1.325-0.884c0.319-0.396,0.627-0.713,0.856-1.078
		c0.346-0.553,0.468-1.155,0.12-1.766c-0.041-0.072-0.104-0.161-0.171-0.212c-1.092-1.806-2.666-3.112-4.593-3.998
		c-1.1-0.506-2.247-0.907-3.421-1.202c-0.47-0.276-0.955-0.559-1.449-0.826c-0.849-0.46-1.642-0.966-2.224-1.773
		c-0.23-0.319-0.607-0.531-0.981-0.846c0.003,0.008-0.01-0.143-0.091-0.2c-0.345-0.246-0.703-0.475-1.077-0.719
		c-0.098-0.199-0.253-0.315-0.45-0.416c-0.1-0.051-0.2-0.103-0.301-0.154c-0.056-0.052-0.116-0.104-0.176-0.159
		c-0.431-0.389-0.792-0.859-1.166-1.308c-0.804-0.964-1.639-1.905-2.385-2.913c-1.033-1.395-2.032-2.818-2.98-4.272
		c-1.411-2.165-2.83-4.33-4.125-6.565c-1.399-2.416-2.638-4.925-3.994-7.367c-0.327-0.589-0.823-1.09-1.275-1.602
		c-0.486-0.549-0.989-1.088-1.526-1.587c-0.848-0.788-1.693-1.588-2.606-2.296c-2.058-1.596-3.927-3.411-5.938-5.059
		c-1.266-1.037-2.498-2.126-3.836-3.062c-2.246-1.571-4.555-3.05-6.854-4.545c-2.053-1.335-3.992-2.815-5.812-4.451
		c-1.342-1.206-2.686-2.412-3.993-3.656c-0.959-0.913-1.868-1.88-2.785-2.836c-1.251-1.304-2.487-2.622-3.736-3.928
		c-0.128-0.134-0.3-0.227-0.452-0.339c-0.043,0.022-0.086,0.043-0.129,0.065c0.033,0.208,0.027,0.432,0.105,0.621
		c0.581,1.408,1.087,2.865,2.07,4.059c0.796,0.967,1.591,1.952,2.508,2.797c1.384,1.274,2.873,2.434,4.317,3.643
		c0.08,0.067,0.15,0.144,0.181,0.288c-0.107-0.042-0.224-0.069-0.321-0.129c-1.983-1.23-3.979-2.44-5.94-3.706
		c-1.615-1.042-3.197-2.137-4.774-3.235c-1.043-0.726-2.031-1.532-3.084-2.242c-1.228-0.828-2.497-1.595-3.755-2.376
		c-0.195-0.121-0.432-0.176-0.762-0.306c0.058,0.242,0.058,0.384,0.121,0.488c0.757,1.256,1.568,2.458,2.665,3.47
		c1.091,1.007,2.29,1.854,3.5,2.696c1.087,0.756,2.158,1.535,3.254,2.279c0.559,0.38,1.152,0.71,1.736,1.052
		c0.923,0.541,1.848,1.08,2.779,1.607c0.267,0.151,0.558,0.26,0.83,0.405c-0.642-0.252-1.293-0.482-1.923-0.763
		c-1.085-0.484-2.155-0.999-3.232-1.501c-1.717-0.799-3.413-1.649-5.156-2.385c-2.408-1.015-4.85-1.949-7.283-2.903
		c-0.285-0.112-0.605-0.141-0.913-0.18c-0.11-0.014-0.23,0.055-0.346,0.086c0.037,0.128,0.039,0.286,0.118,0.379
		c0.181,0.214,0.39,0.407,0.604,0.59c1.575,1.346,3.35,2.356,5.228,3.221c1.562,0.72,3.068,1.558,4.611,2.318
		c0.53,0.261,1.1,0.441,1.651,0.658c-0.01,0.04-0.021,0.079-0.032,0.119c-0.109-0.026-0.22-0.045-0.326-0.077
		c-2.595-0.794-5.179-1.625-7.789-2.367c-1.122-0.319-2.295-0.47-3.45-0.662c-0.216-0.036-0.46,0.096-0.691,0.151
		c0.122,0.194,0.214,0.419,0.374,0.574c0.2,0.194,0.446,0.345,0.688,0.489c2.545,1.51,5.324,2.489,8.061,3.567
		c0.596,0.235,1.193,0.47,1.79,0.704c-0.013,0.047-0.026,0.094-0.04,0.141c-0.238-0.043-0.475-0.085-0.713-0.128
		c-1.472-0.262-2.941-0.541-4.418-0.775c-0.323-0.051-0.674,0.037-1.006,0.094c-0.134,0.023-0.252,0.134-0.47,0.257
		c0.388,0.311,0.669,0.628,1.021,0.802c1.583,0.785,3.185,1.529,4.781,2.288c0.069,0.033,0.135,0.075,0.224,0.124
		c-0.392,0.104-0.746,0.198-1.153,0.306c0.96,1.304,2.247,2.03,3.511,2.775c0.3,0.177,0.686,0.2,1.011,0.343
		c0.222,0.098,0.406,0.281,0.608,0.427c-0.362,0.47-0.294,0.804,0.156,1.205c0.926,0.826,2.012,1.383,3.09,1.969
		c0.366,0.199,0.585,0.662,0.887,0.988c0.271,0.293,0.556,0.575,0.854,0.841c0.249,0.223,0.526,0.416,0.791,0.623
		c-0.631,0.745-0.325,1.206,0.199,1.635c0.361,0.295,0.711,0.605,1.089,0.876c0.543,0.39,1.203,0.519,1.822,0.428
		c0.052-0.008,0.101-0.012,0.149-0.015c0.326,0.782,1.002,1.401,1.814,1.646c0.428,0.472,0.938,0.876,1.161,1.513
		c0.103,0.295,0.162,0.56,0.117,0.888c-0.046,0.336,0.153,0.703,0.121,1.045c-0.061,0.654,0.467,0.653,0.827,0.85
		c0.099,0.054,0.203,0.1,0.308,0.142c0.429,0.174,0.619,0.475,0.482,0.933c-0.082,0.272-0.069,0.49,0.194,0.662
		c0.369,0.241,0.726,0.502,1.091,0.75c0.233,0.158,0.464,0.319,0.709,0.456c0.154,0.086,0.33,0.172,0.501,0.182
		c0.304,0.018,0.416,0.172,0.371,0.439c-0.061,0.364,0.054,0.624,0.298,0.906c0.154,0.178,0.196,0.508,0.183,0.765
		c-0.044,0.866,0.19,1.182,1.028,1.416c0.386,0.108,0.755,0.291,0.895,0.749c0.136,0.447,0.366,0.782,0.912,0.864
		c0.487,0.073,0.729,0.489,0.713,0.959c-0.018,0.536,0.348,0.832,0.641,1.152c0.261,0.286,0.389,0.501,0.242,0.906
		c-0.202,0.558,0.122,1.073,0.306,1.585c0.024,0.067,0.243,0.064,0.396,0.1c-0.215,0.382-0.08,0.589,0.329,0.761
		c0.409,0.172,0.766,0.428,0.87,0.955c0.141,0.714,0.613,1.135,1.362,1.217c0.134,0.015,0.26,0.097,0.438,0.167
		c-0.214,0.084-0.375,0.148-0.536,0.211c0.004,0.039,0.008,0.078,0.012,0.117c0.181-0.006,0.366-0.038,0.541-0.011
		c0.182,0.028,0.354,0.115,0.531,0.176c-0.075,0.136-0.141,0.279-0.228,0.406c-0.071,0.104-0.176,0.185-0.251,0.287
		c-0.209,0.284-0.042,0.727,0.301,0.8c0.068,0.015,0.141,0.006,0.212,0.009c0.923,0.042,0.9,0.041,0.848,0.978
		c-0.055,0.979,0.296,1.859,0.807,2.67c0.087,0.138,0.348,0.156,0.509,0.261c0.151,0.099,0.311,0.218,0.401,0.368
		c0.144,0.24,0.249,0.506,0.344,0.771c0.124,0.346,0.212,0.64,0.696,0.7c0.188,0.023,0.337,0.494,0.474,0.776
		c0.242,0.5,0.462,1.011,0.691,1.517c0.062,0.136,0.153,0.266,0.182,0.408c0.113,0.568,0.381,0.842,0.933,0.899
		c0.324,0.033,0.558,0.123,0.82,0.392c0.318,0.326,0.843,0.449,1.275,0.666c0.24,0.12,0.479,0.246,0.711,0.381
		c0.519,0.301,1.029,0.617,1.552,0.911c0.371,0.208,0.525,0.56,0.451,1.038c-0.058,0.375-0.232,0.713-0.145,1.143
		c0.046,0.224-0.331,0.534-0.574,0.89c-0.095-0.513-0.365-0.737-0.726-0.595c-0.644,0.254-1.33,0.166-1.977,0.341
		c-0.579,0.157-1.157,0.317-1.736,0.475c-0.027,0.008-0.056,0.029-0.081,0.024c-1.026-0.192-1.991,0.206-2.986,0.312
		c-1.178,0.125-2.351,0.295-3.528,0.433c-1.42,0.166-2.844,0.302-4.26,0.488c-0.625-0.25-1.369,0.126-1.608,0.734
		c-0.264,0.671,0.087,1.366,0.719,1.653c0.208,0.094,0.417,0.189,0.625,0.283c0.197,1.078,1.11,1.926,2.161,2.115
		c-0.144,0.094-0.282,0.194-0.407,0.306c-0.204,0.182-0.502,0.428-0.278,0.758c0.209,0.308,0.462,0.632,0.928,0.425
		c0.183,0.214,0.028,0.821,0.452,0.571c0.674,0.335,1.24,0.617,1.827,0.908c0.059,0.561,0.268,0.748,1.135,0.915
		c0.318,0.061,0.645,0.081,0.969,0.1c0.321,0.019,0.644,0.014,1.036,0.02c-0.098,0.134-0.167,0.278-0.278,0.372
		c-0.553,0.467-0.568,0.922-0.035,1.398c0.128,0.114,0.259,0.23,0.367,0.362c0.376,0.46,0.373,0.463,0.839,0.458
		c0.07,0.153,0.096,0.35,0.194,0.397c0.386,0.187,0.75,0.5,1.239,0.312c0.062-0.024,0.188,0.001,0.225,0.049
		c0.172,0.22,0.287,0.5,0.494,0.673c0.185,0.154,0.46,0.209,0.703,0.283c0.102,0.031,0.246,0.036,0.333-0.013
		c0.525-0.303,1.105-0.039,1.644-0.174c0.033-0.008,0.075,0.023,0.137,0.043c-0.095,0.096-0.177,0.178-0.347,0.347
		c0.694,0.125,1.275,0.361,1.908,0.124c0.113-0.042,0.248-0.116,0.349-0.088c0.39,0.109,0.77,0.253,1.146,0.381
		c-0.069,0.044-0.18,0.113-0.356,0.223c0.478,0.353,0.974,0.465,1.5,0.505c0.19,0.014,0.385,0.024,0.567,0.074
		c0.469,0.129,0.966-0.033,1.3-0.496c1.107-1.537,2.247-3.053,3.277-4.64c0.432-0.665,0.973-1.006,1.684-1.106
		c1.185-0.167,2.29-0.551,3.371-1.042c0.219-0.1,0.438-0.158,0.733,0.009c0.32,0.182,0.758,0.159,1.14,0.224
		c-0.134,0.412,0.181,0.702,0.374,1.037c0.056,0.097,0.147,0.243,0.112,0.314c-0.24,0.493,0.073,0.91,0.169,1.351
		c0.02,0.093,0.172,0.169,0.277,0.231c0.243,0.143,0.497,0.266,0.74,0.409c0.352,0.208,0.541,0.499,0.559,0.932
		c0.007,0.161,0.185,0.407,0.334,0.452c0.452,0.137,0.616,0.467,0.765,0.857c0.057,0.149,0.193,0.323,0.335,0.377
		c1.08,0.413,2.167,0.81,3.259,1.189c0.329,0.114,0.684,0.149,1.025,0.231c0.115,0.028,0.302,0.072,0.319,0.142
		c0.11,0.461,0.516,0.488,0.849,0.599c0.422,0.141,0.854,0.229,0.902,0.801c0.007,0.087,0.195,0.188,0.317,0.232
		c0.411,0.149,0.835,0.26,1.242,0.418c0.125,0.048,0.218,0.192,0.313,0.303c0.168,0.198,0.29,0.461,0.496,0.596
		c0.86,0.563,1.786,0.953,2.847,0.875c0.139-0.01,0.275-0.056,0.446-0.093c0.009,0.143,0.016,0.275,0.025,0.414
		c0.122,0.02,0.24,0.04,0.387,0.064c-0.037,0.129-0.066,0.232-0.093,0.327c0.136,0.271,0.646,0.246,1.234-0.065
		c-0.086,0.271-0.093,0.475,0.275,0.438c0.419-0.043,0.627,0.119,0.627,0.546c0,0.467,0.362,0.645,0.655,0.78
		c0.18,0.083,0.521-0.081,0.742-0.212c0.223-0.132,0.388-0.361,0.612-0.579c0.134,0.542-0.311,0.817-0.557,1.194
		c0.163,0.108,0.279,0.232,0.418,0.269c0.351,0.093,0.72,0.126,0.765,0.614c0.003,0.033,0.351,0.102,0.491,0.043
		c0.483-0.203,0.896-0.172,1.069,0.322c0.253,0.722,1.008,0.961,1.328,1.593c0.062,0.123,0.279,0.169,0.45,0.265
		c-0.052,0.038-0.11,0.082-0.169,0.122c-0.239,0.16-0.193,0.309,0.046,0.385c0.662,0.209,1.307,0.516,2.041,0.338
		c0.094-0.023,0.296,0.105,0.339,0.208c0.278,0.668,0.756,1.093,1.435,1.328c0.114,0.039,0.22,0.207,0.26,0.336
		c0.141,0.459,0.218,0.94,0.385,1.388c0.101,0.269,0.319,0.495,0.494,0.734c0.135,0.185,0.251,0.403,0.43,0.53
		c0.47,0.333,1.022,0.274,1.555,0.216c0.219-0.023,0.427-0.144,0.646-0.166c0.144-0.015,0.327,0.027,0.442,0.112
		c0.386,0.286,0.75,0.602,1.122,0.908c0.031,0.026,0.074,0.056,0.082,0.091c0.204,0.871,1.106,1.074,1.592,1.672
		c0.206,0.253,0.342,0.562,0.536,0.826c0.084,0.114,0.242,0.17,0.357,0.263c0.123,0.1,0.292,0.192,0.344,0.325
		c0.394,1.031,0.95,1.959,1.774,2.692c0.426,0.379,0.855,0.758,1.465,0.92c0.299,0.079,0.504,0.532,0.739,0.826
		c0.507,0.636,0.962,1.32,1.523,1.904c0.4,0.416,0.893,0.817,1.582,0.592c0.064-0.021,0.189,0.044,0.241,0.106
		c0.098,0.118,0.203,0.254,0.237,0.398c0.267,1.143,1.213,1.807,1.865,2.677c0.032,0.043,0.087,0.097,0.132,0.099
		c0.38,0.014,0.68,0.186,0.963,0.424c0.066,0.056,0.235,0.069,0.308,0.024c0.402-0.25,0.525,0.06,0.668,0.317
		c0.054,0.096,0.077,0.213,0.099,0.324c0.184,0.953,0.786,1.694,1.3,2.468c0.427,0.643,0.952,1.223,1.452,1.815
		c0.177,0.209,0.407,0.372,0.707,0.64c0.18-0.39,0.354-0.768,0.562-1.219c0.203,0.387,0.375,0.748,0.575,1.093
		c0.588,1.015,1.16,2.04,1.794,3.025c0.253,0.393,0.636,0.712,1.001,1.014c0.071,0.058,0.434-0.074,0.492-0.198
		c0.126-0.271,0.217-0.599,0.193-0.894c-0.1-1.237-0.247-2.471-0.377-3.706c-0.008-0.079-0.02-0.158-0.04-0.318
		c0.303,0.648,0.587,1.199,0.821,1.771c0.33,0.806,0.641,1.622,0.929,2.444c0.68,1.939,1.713,3.704,2.678,5.503
		c0.132,0.245,0.328,0.46,0.522,0.662c0.039,0.04,0.279-0.016,0.296-0.069c0.072-0.226,0.121-0.467,0.13-0.704
		c0.064-1.539-0.164-3.052-0.519-4.537c-0.486-2.033-1.053-4.047-1.587-6.069c-0.061-0.231-0.127-0.46-0.108-0.723
		c0.295,0.657,0.587,1.315,0.885,1.971c0.952,2.095,1.864,4.21,2.877,6.276c0.587,1.197,1.238,2.378,2.156,3.374
		c0.438,0.475,0.883,0.944,1.342,1.434c0.314-0.242,0.367-0.55,0.298-0.877c-0.158-0.746-0.266-1.512-0.521-2.225
		c-0.803-2.248-1.637-4.486-2.513-6.706c-0.695-1.762-1.47-3.492-2.209-5.237c-0.024-0.058-0.042-0.119,0.006-0.209
		c0.149,0.311,0.294,0.624,0.447,0.933c1.424,2.891,2.979,5.709,4.807,8.365c0.827,1.202,1.848,2.232,3.113,2.996
		c0.371,0.224,0.719,0.487,1.078,0.732c0.04-0.017,0.079-0.034,0.119-0.051c-0.048-0.199-0.056-0.42-0.151-0.594
		c-0.978-1.8-1.947-3.604-2.962-5.383c-1.407-2.467-2.851-4.913-4.279-7.368c-0.988-1.698-1.975-3.397-2.961-5.096
		c-0.048-0.083-0.089-0.171-0.062-0.303c0.293,0.42,0.572,0.851,0.882,1.258c0.561,0.739,1.107,1.493,1.72,2.188
		c0.866,0.982,1.771,1.934,2.694,2.864c0.404,0.407,0.884,0.741,1.346,1.086c1.17,0.872,2.459,1.494,3.89,1.813
		c0.399,0.089,0.788,0.22,1.187,0.31c0.117,0.026,0.252-0.024,0.378-0.039c-0.059-0.12-0.087-0.277-0.181-0.352
		C142.628,127.558,142.266,127.31,141.906,127.06z M87.347,79.139c-0.182-0.237-0.401-0.394-0.41-0.563
		c-0.015-0.269,0.39-0.42,0.837-0.338C87.646,78.509,87.523,78.768,87.347,79.139z"/>
</g>
</svg>
