<?xml version="1.0" encoding="iso-8859-1"?>
<!-- Generator: Adobe Illustrator 17.1.0, SVG Export Plug-In . SVG Version: 6.00 Build 0)  -->
<!DOCTYPE svg PUBLIC "-//W3C//DTD SVG 1.1//EN" "http://www.w3.org/Graphics/SVG/1.1/DTD/svg11.dtd">
<svg version="1.1" id="Capa_1" xmlns="http://www.w3.org/2000/svg" xmlns:xlink="http://www.w3.org/1999/xlink" x="0px" y="0px"
	 viewBox="0 0 150 150" style="enable-background:new 0 0 150 150;" xml:space="preserve">
<g>
	<path d="M146.181,33.289c-0.16-0.077-0.35-0.064-0.497,0.036c-1.678,1.13-3.315,2.345-4.9,3.52
		c-3.125,2.317-6.343,4.704-9.917,6.461c3.071-5.096,6.059-11.033,6.051-17.919c0-0.198-0.117-0.377-0.299-0.457l-0.895-0.393
		c-0.241-0.107-0.525-0.006-0.646,0.229l-0.808,1.583c-0.602,1.186-1.204,2.371-1.835,3.541l-0.353,0.655
		c-1.358,2.523-2.764,5.132-4.237,7.639c-0.229,0.389-0.647,0.71-1.092,1.05c-0.098,0.075-0.195,0.15-0.292,0.227
		c0.015-0.077,0.028-0.153,0.043-0.23c0.098-0.526,0.199-1.07,0.212-1.628c0.017-0.739,0.043-1.479,0.069-2.219
		c0.079-2.253,0.162-4.583-0.032-6.866c-0.166-1.969-1.219-3.246-3.13-3.794c-0.144-0.041-0.301-0.016-0.425,0.071
		c-0.123,0.086-0.201,0.224-0.212,0.375c-0.047,0.669-0.086,1.339-0.124,2.009c-0.082,1.422-0.167,2.893-0.336,4.322
		c-0.926,7.822-4.581,14.766-11.506,21.853c-7.87,8.057-15.743,16.109-23.618,24.161c-0.19,0.195-0.391,0.381-0.59,0.568
		c-0.204,0.191-0.408,0.382-0.604,0.582c-0.912,0.928-1.854,1.889-2.247,1.889c-0.316,0-0.849-0.884-1.522-2.002l-0.455-0.755
		c-1.574-2.613-3.201-5.315-6.416-6.606c-0.226-0.091-0.483-0.68-0.654-1.069c-0.056-0.129-0.111-0.255-0.166-0.371
		c-2.528-5.358-6.101-8.653-10.921-10.073c-0.249-0.074-0.511-0.208-0.758-0.388c-1.203-0.881-2.39-1.792-3.575-2.702
		c-2.659-2.041-5.409-4.151-8.33-5.892c-1.844-1.099-3.397-2.526-4.899-3.908c-0.827-0.76-1.683-1.546-2.581-2.274
		c-3.073-2.491-6.683-4.804-11.358-7.281c-1.811-0.959-2.734-1.966-3.19-3.477c-0.905-3-2.532-6.625-7.116-8.041
		c-0.386-0.119-0.743-0.737-1.09-1.335c-0.278-0.481-0.566-0.979-0.938-1.37c-1.515-1.594-2.82-2.802-4.11-3.801
		c-0.524-0.406-1.262-0.436-1.749-0.456c-0.134-0.005-0.249-0.008-0.331-0.022c-0.18-0.03-0.353,0.033-0.468,0.168
		c-0.114,0.135-0.149,0.32-0.092,0.488c0.411,1.19,0.852,2.366,1.29,3.535c1.013,2.702,1.969,5.254,2.56,7.933
		c0.791,3.593,0.864,7.436,0.929,10.826c0.115,6.113,2.493,11.074,7.271,15.165C32.835,63.309,40.9,69.185,49.946,74.81
		c2.699,1.678,5.041,4.146,7.169,6.564c1.02,1.16,1.479,3.055,1.57,4.441c0.079,1.21-0.114,2.044-0.589,2.552
		c-0.46,0.491-1.237,0.729-2.375,0.729l-0.246-0.004c-5.817-0.166-10.694-2.12-14.493-5.807c-1.661-1.612-3.195-3.354-4.606-4.996
		c-1.255-1.461-2.825-1.9-5.031-1.338c-2.417,0.615-4.83,1.245-7.242,1.875c-1.745,0.456-3.489,0.911-5.235,1.361
		c-2.846,0.733-5.786,1.344-8.63,1.934c-2.091,0.434-4.253,0.883-6.363,1.377c-0.24,0.056-0.403,0.279-0.385,0.525l0.028,0.385
		c0.011,0.133,0.073,0.256,0.175,0.343c0.102,0.086,0.233,0.13,0.366,0.117l9.044-0.761l1.685-0.092
		c4.063-0.224,8.266-0.456,12.466-0.582c0.601,0,1.237,0.233,1.912,0.48c0.246,0.09,0.492,0.18,0.735,0.258
		c0.092,0.03,0.219,0.125,0.341,0.215c0.241,0.179,0.514,0.382,0.873,0.396c2.642,0.101,4.818,1.292,7.124,2.553
		c1.202,0.658,2.446,1.338,3.754,1.843l3.086,1.184c4.121,1.576,8.383,3.206,12.485,5c2.474,1.083,4.548,2.435,5.999,3.911
		c3.247,3.305,7.42,4.852,11.102,6.217c2.523,0.937,4.444,1.927,6.227,3.21c2.384,1.717,5.057,3.087,7.641,4.412
		c0.597,0.305,1.191,0.611,1.783,0.92c1.907,0.997,3.834,1.958,5.76,2.919c3.148,1.572,6.404,3.197,9.51,4.952
		c1.689,0.955,3.243,2.266,4.746,3.533c0.684,0.577,1.368,1.153,2.067,1.702c0.337,0.265,0.664,0.543,1.103,0.916l0.846,0.716
		c0.093,0.078,0.207,0.117,0.321,0.117c0.108,0,0.218-0.035,0.308-0.106c0.187-0.146,0.245-0.401,0.142-0.614
		c-0.333-0.682-0.611-1.329-0.872-1.935c-0.568-1.321-1.06-2.461-1.855-3.391c-0.998-1.163-2.664-2.491-4.348-2.729
		c-2.979-0.421-5.255-1.977-7.664-3.624c-0.488-0.334-0.977-0.668-1.472-0.993l-0.601-0.393c-2.017-1.317-4.101-2.679-5.932-4.249
		c-0.959-0.822-1.761-1.894-2.536-2.931c-0.203-0.272-0.407-0.544-0.612-0.812c1.323-0.325,2.636-0.483,3.989-0.483
		c4.334,0,8.319,1.695,12.174,3.334c0.7,0.298,1.399,0.595,2.102,0.883c3.916,1.607,7.745,3.293,10.645,4.583
		c0.507,0.226,0.909,0.331,1.266,0.331c1.223,0,1.563-1.273,1.768-2.033c0.505-1.878,0.817-4.552-2.224-6.189
		c-0.397-3.349-2.813-3.739-4.949-4.083c-0.569-0.092-1.159-0.187-1.69-0.334c-3.69-1.025-7.348-2.097-11.22-3.232
		c-1.399-0.41-2.822-0.827-4.276-1.251c0.137-0.188,0.266-0.365,0.388-0.535c0.483-0.669,0.865-1.198,1.277-1.692
		c0.225-0.27,0.493-0.52,0.777-0.785c0.514-0.479,1.044-0.974,1.346-1.624c0.826-1.784,2.416-2.529,4.099-3.318l0.524-0.248
		c2.227-1.065,3.939-2.19,5.062-4.22c0.185-0.333,0.544-0.616,0.925-0.917c0.175-0.138,0.35-0.276,0.511-0.42
		c0.576-0.514,1.157-1.023,1.738-1.531c1.204-1.054,2.45-2.144,3.63-3.272c1.634-1.562,3.355-3.241,4.871-5.073
		c0.584-0.705,0.99-1.534,1.384-2.335c0.23-0.47,0.469-0.956,0.734-1.396c0.176-0.29,0.503-0.59,0.948-0.869
		c0.688-0.43,1.396-0.835,2.104-1.24c1.438-0.824,2.925-1.675,4.237-2.731c0.958-0.771,1.648-1.839,2.315-2.872
		c0.288-0.446,0.576-0.892,0.885-1.312c0.128-0.173,0.13-0.409,0.007-0.584l-0.457-0.646c-0.089-0.125-0.229-0.203-0.383-0.211
		l-3.067-0.156c0.218-0.154,0.433-0.306,0.645-0.455c1.257-0.887,2.443-1.724,3.543-2.657c2.053-1.742,3.004-3.712,2.993-6.2
		c-0.001-0.152-0.071-0.296-0.191-0.391c-0.12-0.095-0.279-0.13-0.425-0.093l-6.406,1.531c0.06-0.089,0.118-0.178,0.177-0.268
		c0.296-0.451,0.575-0.876,0.927-1.192c1.231-1.106,2.482-2.191,3.733-3.276c2.108-1.829,4.288-3.721,6.339-5.688
		c1.506-1.444,2.688-3.23,3.83-4.958l0.234-0.354c0.521-0.787,0.487-1.844,0.4-2.949C146.447,33.523,146.341,33.366,146.181,33.289z
		"/>
</g>
</svg>
