<?xml version="1.0" encoding="iso-8859-1"?>
<!-- Generator: Adobe Illustrator 17.1.0, SVG Export Plug-In . SVG Version: 6.00 Build 0)  -->
<!DOCTYPE svg PUBLIC "-//W3C//DTD SVG 1.1//EN" "http://www.w3.org/Graphics/SVG/1.1/DTD/svg11.dtd">
<svg version="1.1" id="Capa_1" xmlns="http://www.w3.org/2000/svg" xmlns:xlink="http://www.w3.org/1999/xlink" x="0px" y="0px"
	 viewBox="0 0 150 150" style="enable-background:new 0 0 150 150;" xml:space="preserve">
<g>
	<path d="M118.823,28.719c-2.332-0.35-4.747-0.328-7.114-0.223c-2.836,0.126-5.222-0.463-7.763-2.019
		c-7.306-4.474-15.297-2.993-18.983,6.149c-1.748,4.336-1.628,8.489,0.166,12.768c1.545,3.684,0.966,5.897-2.105,8.504
		c-0.6,0.51-1.203,1.027-1.814,1.535c-0.015-0.068-0.028-0.136-0.044-0.204c-0.227-1.745-0.738-3.475-1.493-5.104
		c-2.821-6.084-8.82-10.034-14.342-13.405c-2.034-1.379-4.104-2.704-6.208-3.969c-4.037-2.732-7.869-5.692-11.407-9.179
		c-2.867-2.825-5.488-5.897-7.849-9.156c-1.138-1.571-2.215-3.186-3.232-4.838c0.001-0.014,0.003-0.028,0.005-0.042
		c0.093-0.807-0.307-1.544-0.91-2.064c-0.363-1.008-0.771-2.049-1.372-2.5c-0.824-0.616-4.11,4.349-4.404,4.833
		c-0.753,1.237-1.339,2.571-1.786,3.947c-0.776-0.54-1.65-0.664-2.31,0.391c-0.48,0.767-0.52,1.573-0.442,2.408
		c-0.06,0.491,0.002,0.993,0.192,1.448c0.282,1.942,0.563,3.883,0.845,5.825c0.033,0.226,0.163,0.35,0.323,0.393
		c0,0.038,0.001,0.076,0.001,0.114c-0.432-0.479-0.863-0.958-1.295-1.437c-0.296-0.329-0.823-0.136-0.944,0.249
		c-1.781,5.677,0.231,10.45,3.438,14.676c0.148,0.82,0.313,1.638,0.489,2.453c-0.093-0.037-0.186-0.057-0.28-0.068l-1.714-0.938
		c-0.389-0.213-1.034,0.148-0.829,0.638c1.769,4.237,3.898,8.29,6.363,12.126c0.079,0.203,0.165,0.402,0.246,0.604
		c-0.064-0.032-0.127-0.065-0.191-0.097c-0.234-0.119-0.49-0.094-0.684,0.088l-1.11,1.044c-0.185,0.174-0.213,0.47-0.088,0.684
		c1.51,2.61,3.54,4.83,5.927,6.553c0.469,0.867,0.965,1.737,1.481,2.606c-0.434-0.104-0.77,0.278-0.687,0.696
		c0.899,4.525,3.901,8.243,8.019,10.162c-0.011,0.008-0.022,0.015-0.032,0.023c-0.598-0.168-1.19-0.377-1.774-0.634
		c-0.587-0.259-1.114,0.38-0.684,0.887c3.025,3.566,6.821,6.282,11.116,8.003c-0.093,0.166-0.186,0.332-0.277,0.497
		c-0.826,0.311-1.652,0.622-2.478,0.934c-0.349,0.131-0.617,0.655-0.249,0.944c0.409,0.321,0.829,0.62,1.26,0.9
		c-4.644,9.157-6.619,16.744-6.619,16.744c-2.514,8.004-4.496,16.174-6.957,24.195c-1.316,4.289-3.147,8.421-4.823,12.826
		c0.45,0.062,0.79,0.216,1.048,0.128c2.871-0.975,5.8-1.826,8.569-3.04c2.49-1.092,4.691-2.925,7.63-2.663
		c0.792,0.07,1.77,0.087,2.313,0.544c2.391,2.01,5.199,2.351,8.107,2.224c3.937-0.171,7.336,1.074,10.548,3.286
		c2.208,1.521,4.625,2.756,7.017,3.985c0.774,0.398,1.766,0.372,3.293,0.66c-0.623-1.272-1.078-2.203-1.576-3.219
		c1.838-2.082,2.774-2.417,4.814-1.581c0.546-1.76,0.546-1.76-2.818-3.94c0.871-1.318,0.569-2.339-0.979-2.684
		c-1.074-0.24-2.225-0.18-3.341-0.172c-1.565,0.012-3.129,0.128-4.694,0.149c-0.866,0.011-1.733-0.081-2.676-0.131
		c0.697-1.014,0.697-1.003,5.691-1.207c2.031-0.083,4.061-0.227,6.326-0.358c-0.415-0.653-0.699-1.101-1.131-1.78
		c1.041-0.113,1.98-0.216,3.102-0.338c-0.199-0.386-0.279-0.846-0.509-0.941c-2.287-0.941-4.599-1.823-7.154-2.818
		c0.789-1.257,1.581-2.874,2.69-4.231c6.98-8.544,14.425-16.776,19.414-26.723c1.685-3.36,2.49-7.172,3.611-10.803
		c2.549-8.254,3.517-16.766,3.869-25.352c0.172-4.192-1.569-7.949-3.18-11.701c-0.371-0.864-1.036-1.721-1.051-2.591
		c-0.022-1.287-0.024-3.002,0.737-3.797c2.727-2.848,6.032-4.73,10.242-3.939c3.766,0.708,7.517,1.587,11.264-0.16
		c0.4-0.186,1.031,0.124,1.555,0.204C125.683,32.699,122.746,29.307,118.823,28.719z"/>
</g>
</svg>
