<?xml version="1.0" encoding="iso-8859-1"?>
<!-- Generator: Adobe Illustrator 17.1.0, SVG Export Plug-In . SVG Version: 6.00 Build 0)  -->
<!DOCTYPE svg PUBLIC "-//W3C//DTD SVG 1.1//EN" "http://www.w3.org/Graphics/SVG/1.1/DTD/svg11.dtd">
<svg version="1.1" id="Capa_1" xmlns="http://www.w3.org/2000/svg" xmlns:xlink="http://www.w3.org/1999/xlink" x="0px" y="0px"
	 viewBox="0 0 150 150" style="enable-background:new 0 0 150 150;" xml:space="preserve">
<g>
	<path d="M40.481,6.504c0.078,0.071,0.156,0.142,0.235,0.213c0.818,0.742,2.078,2.015,2.742,2.897
		c2.948,3.913,5.242,8.843,8.762,12.194c0.8,0.762,1.363,1.295,1.159,1.305c-0.204,0.01-0.413,0.092-0.466,0.182
		s0.5,0.758,1.243,1.484c0.455,0.444,0.926,0.863,1.456,1.184c2.429,1.471,4.199,3.451,5.161,6.09
		c1.551,4.254,4.299,7.492,7.996,10.037c2.251,1.549,2.257,2.129-0.224,3.4c-4.151,2.126-7.614,5.071-10.901,8.31
		c-0.911,0.897-2.08,1.613-3.252,2.146c-1.971,0.897-3.03,2.343-3.399,4.429c-0.706,3.997-0.845,7.999-0.485,12.049
		c0.541,6.083,0.643,12.219,1.475,18.257c0.896,6.503,2.438,12.916,3.645,19.378c0.171,0.916,0.249,1.938,0.026,2.824
		c-1.212,4.824-2.551,9.617-3.807,14.43c-0.39,1.495-0.735,3.003-1.081,4.51c-0.247,1.077,0.379,1.436,1.079,0.582
		c1.503-1.834,2.988-3.685,4.62-5.396c1.652-1.733,3.452-3.326,5.263-4.965c0.819-0.741,1.657-0.474,1.881,0.608
		c0.518,2.5,1.049,5.066,1.58,7.628c0.224,1.082,0.484,1.757,0.571,1.506c0.052-0.151,0.093-0.311,0.092-0.471
		c-0.019-2.388,0.016-4.783-0.153-7.162c-0.129-1.82-0.56-3.617-0.789-5.433c-0.021-0.168,0.049-0.348,0.142-0.53
		c0.139-0.275,0.49-0.408,0.783-0.295c0.187,0.073,0.361,0.158,0.481,0.291c0.531,0.591,0.98,1.259,1.431,1.916
		c3.312,4.824,6.8,9.468,11.625,12.96c2.38,1.722,4.331,3.9,5.457,6.701c0.639,1.588,1.28,3.176,1.978,4.738
		c0.106,0.238,0.28,0.446,0.497,0.686c0.314,0.349,1.145,0.021,1.202,0.412c0.093,0.64,0.281,1.159,0.414,1.159
		c0.133,0,0.671-0.69,1.04-1.628c0.209-0.533,0.467-1.061,1.005-1.496c0.997-0.806,1.608-2.324,1.959-3.642
		c0.613-2.3,0.428-4.652-0.232-6.977c-2.137-7.531-5.181-14.639-9.411-21.255c-1.959-3.064-3.015-6.501-3.055-10.19
		c-0.031-2.837,1.577-4.208,4.369-3.734c0.393,0.067,0.791,0.133,1.17,0.251c2.409,0.75,4.854,1.396,5.861,4.202
		c0.152,0.424,1.271,0.832,1.812,0.702c0.663-0.16,1.217-0.863,1.76-1.391c0.283-0.275,0.36-0.832,0.671-0.996
		c1.022-0.541,2.062-1.048,3.105-1.55c0.995-0.479,1.887-0.83,1.992-0.783s0.103,0.976,0.012,2.077
		c-0.079,0.949-0.183,1.89-0.464,2.776c-0.73,2.301-1.84,4.478-2.736,6.729c-0.57,1.434,0.039,2.979,1.266,3.81
		c0.914,0.619,1.316-0.086,1.221-1.107c-0.054-0.588,0.062-1.187,0.348-1.802c1.1-2.361,1.404-4.885,1.52-7.453
		c0.019-0.421,0.076-0.84,0.143-1.259c0.111-0.691,0.273-1.252,0.357-1.253c0.084-0.001,0.416,0.854,0.745,1.908
		c0.215,0.688,0.437,1.373,0.69,2.047c0.259,0.691,0.6,1.416,1.1,1.938c1.012,1.058,2.167,1.977,3.244,2.974
		c0.395,0.366,0.8,0.615,1.228,0.695c0.776,0.145,1.36-0.367,1.36-0.434s-0.658-0.114-0.994-0.684
		c-0.199-0.338-0.272-0.769-0.382-1.131c-0.325-1.074-1.021-1.717-1.869-2.38c-0.781-0.61-1.564-1.405-1.953-2.291
		c-0.7-1.595-1.169-3.303-1.606-4.998c-0.193-0.748-0.298-1.657-0.051-2.355c1.206-3.409,2.555-6.768,3.823-10.155
		c0.117-0.312,0.199-0.637,0.271-0.966c0.12-0.541,0.143-1.007,0.055-1.042c-0.088-0.035,0.11-0.234,0.441-0.445
		c0.331-0.211-0.23-0.972-1.32-0.797c-0.662,0.106-1.232,0.516-1.618,1.259c-0.643,1.237-0.956,2.676-1.243,4.062
		c-0.293,1.413-0.491,2.846-0.999,4.264c-0.372,1.04-1.086,0.943-1.379-0.122c-0.386-1.401-0.754-2.738-1.093-4.084
		c-0.446-1.768-0.881-3.543-1.207-5.336c-0.128-0.704,0.294-1.516-0.564-2.041c-0.086-0.053-0.029-0.538,0.106-0.708
		c0.117-0.148,0.271-0.268,0.451-0.394c0.271-0.191-0.413-0.718-1.488-0.467c-0.964,0.224-1.385,1.021-1.248,2.409
		c0.179,1.8,0.742,3.571,1.23,5.329c0.618,2.223,1.423,4.397,1.953,6.638c0.178,0.753,0.043,1.904-0.437,2.425
		c-0.611,0.663-1.365,1.12-2.15,1.445c-1.02,0.423-2.233-0.264-2.626-1.296c-1.766-4.641-3.473-9.175-5.244-13.684
		c-1.079-2.747-1.16-5.427-0.362-8.294c1.195-4.293,2.282-8.634,3.067-13.016c0.48-2.679,0.448-5.478,0.384-8.217
		c-0.054-2.328-1.012-4.237-3.504-5.025c-1.188-0.376-2.032-1.242-2.51-2.419c-0.748-1.843-2.039-3.262-3.662-4.329
		c-1.561-1.027-3.246-1.863-4.857-2.817c-1.266-0.75-2.551-1.485-3.727-2.362c-0.276-0.206-0.472-0.517-0.676-0.885
		c-0.3-0.543,0.295-1.087,1.344-1.22c0.674-0.085,1.287-0.17,1.891-0.295c2.845-0.585,5.604-0.456,8.345,0.59
		c4.055,1.548,8.139,3.022,12.225,4.488c0.169,0.06,0.341,0.111,0.515,0.156c0.288,0.074,0.625,0.172,0.75,0.24
		c0.075,0.041,0.151,0.082,0.226,0.121c0.111,0.058,0.22,0.079,0.321,0.073c0.184-0.012,0.359-0.105,0.422-0.093
		c0.063,0.013,0.089-0.011,0.057-0.052c-0.032-0.041,0.137-0.272,0.103-0.559c-0.019-0.157-0.109-0.306-0.297-0.404
		c-3.268-1.713-6.365-3.706-9.265-5.956c-0.873-0.677-1.546-1.241-1.528-1.228c0.018,0.013-0.574-0.637-1.379-1.393
		c-0.903-0.847-1.822-1.658-2.6-2.586c-3.465-4.132-7.889-6.826-12.771-8.859c-10.094-4.202-20.226-8.32-29.728-13.78
		c-0.958-0.55-1.941-1.011-2.206-1.011s0.137,0.65,0.897,1.451c0.019,0.02,0.037,0.039,0.056,0.059
		c0.761,0.801,0.533,1.163-0.508,0.81S39,4.974,39,5.04S39.663,5.761,40.481,6.504z"/>
</g>
</svg>
