<?xml version="1.0" encoding="iso-8859-1"?>
<!-- Generator: Adobe Illustrator 17.1.0, SVG Export Plug-In . SVG Version: 6.00 Build 0)  -->
<!DOCTYPE svg PUBLIC "-//W3C//DTD SVG 1.1//EN" "http://www.w3.org/Graphics/SVG/1.1/DTD/svg11.dtd">
<svg version="1.1" id="Capa_1" xmlns="http://www.w3.org/2000/svg" xmlns:xlink="http://www.w3.org/1999/xlink" x="0px" y="0px"
	 viewBox="0 0 150 150" style="enable-background:new 0 0 150 150;" xml:space="preserve">
<g>
	<path d="M127.362,104.021c-2.446-0.732-4.834-1.682-7.2-2.653c-3.047-1.25-6.194-1.89-9.468-1.653
		c-1.791,0.13-3.19-0.071-3.83-2.043c-0.183-0.563-0.656-1.109-1.136-1.484c-1.142-0.893-1.208-1.8-0.664-3.135
		c3.979-9.777,10.267-17.687,19.43-22.926c3.682-2.104,4.889-4.902,5.062-8.706c0.027-0.6,0.378-1.283,0.782-1.753
		c1.768-2.055,2.701-4.389,2.871-7.101c0.44-7.033-1.036-13.779-2.931-20.469c-0.164-0.58-0.476-1.118-0.719-1.675
		c-0.132-0.012-0.264-0.024-0.396-0.037c-0.41,1.124-0.821,2.248-1.263,3.458c-0.388-1.166-0.746-2.24-1.163-3.493
		c-2.138,1.497-2.36,3.641-2.848,5.879c-0.312-0.514-0.433-0.877-0.683-1.09c-0.482-0.412-1.167-1.134-1.531-1.013
		c-0.611,0.203-1.347,0.898-1.475,1.504c-0.281,1.328-0.214,2.73-0.284,4.005c-0.789-0.877-1.595-1.948-2.589-2.802
		c-0.45-0.387-1.482-0.665-1.866-0.411c-0.431,0.286-0.525,1.218-0.584,1.885c-0.049,0.553,0.165,1.129,0.303,1.938
		c-0.922-0.637-1.616-1.169-2.36-1.62c-1.661-1.006-2.375-0.669-2.791,1.266c-0.038,0.174-0.076,0.349-0.112,0.515
		c-2.411,0.347-2.902,0.742-3.405,2.773c-1.485,0.126-2.647,0.686-2.883,2.396c-0.027,0.198-0.412,0.467-0.656,0.497
		c-1.717,0.211-2.006,1.542-2.639,2.626c-0.566,0.695-1.128,1.394-1.702,2.083c-0.158,0.19-0.323,0.448-0.532,0.508
		c-1.372,0.394-1.82,1.205-1.155,2.578c-1.166,0.529-2.971,0.205-2.855,2.298c-0.539,0.107-1.103,0.118-1.576,0.331
		c-1.738,0.781-3.714,1.335-5.063,2.564c-0.788,0.718-1.63,1.165-2.44,1.754c-0.453,0.33-0.647,1.016-0.808,1.662
		c-1.081,0.545-2.428,0.768-2.682,2.465c-0.05,0.33-0.976,0.526-1.495,0.789c-0.4,0.203-0.818,0.379-1.187,0.628
		c-0.706,0.475-1.33,1-0.137,1.667c-0.82,0.531-1.629,0.928-2.278,1.504c-1.059,0.941-0.262,1.536,0.678,2.096
		c-0.676,0.43-1.263,0.81-1.857,1.181c-0.854,0.534-1.528,1.044-1.411,2.312c0.11,1.186-0.85,1.755-2.099,1.482
		c-2.065-0.451-4.109-1.018-6.187-1.393c-2.334-0.421-4.046-1.695-5.319-3.593c-1.327-1.979-2.546-4.03-3.837-6.033
		c-0.349-0.542-0.789-1.026-1.346-1.451c-0.271,2.807,0.848,5.111,2.359,7.398c-2.21-1.511-4.42-3.021-6.63-4.532
		c-0.108,0.139-0.215,0.277-0.323,0.416c1.296,1.163,2.592,2.327,3.887,3.49c-4.391-1.243-8.413-3.937-13.364-2.82
		c2.622,2.023,5.15,3.974,7.619,5.879c-0.2,0.927-0.5,1.767-0.524,2.615c-0.017,0.614,0.361,1.232,0.504,1.862
		c0.067,0.293,0.005,0.618-0.019,0.927c-0.013,0.169-0.126,0.47-0.099,0.481c1.266,0.52,0.342,2.081,1.311,2.766
		c0.151,0.107-0.032,0.617,0.046,0.913c0.133,0.502,0.303,1.011,0.576,1.442c0.05,0.079,0.658-0.255,1.022-0.305
		c0.763-0.103,1.535-0.144,2.303-0.21c0.025,0.118,0.049,0.235,0.074,0.353c-0.352,0.059-0.721,0.072-1.053,0.189
		c-0.439,0.154-1.19,0.372-1.201,0.594c-0.025,0.475,0.263,1.024,0.56,1.445c0.797,1.134,1.668,2.216,2.508,3.32
		c0.081,0.107,0.133,0.248,0.234,0.326c0.938,0.721,1.926,1.385,2.813,2.164c0.504,0.442,0.849,1.067,1.266,1.608
		c-0.269,0.199-0.499,0.37-0.957,0.709c1.479,0.52,2.735,0.961,3.991,1.402c0.019,0.107,0.037,0.213,0.056,0.32
		c-0.453,0.088-0.903,0.229-1.36,0.254C55.49,97.431,50.33,97.68,45.175,98c-0.564,0.035-1.096,0.474-1.658,0.685
		c-0.361,0.135-0.764,0.311-1.125,0.269c-5.36-0.621-10.717-1.272-16.073-1.93c-0.302-0.037-0.666-0.121-0.869-0.319
		c-1.82-1.772-4.309-1.912-6.54-2.635c-0.603-0.195-1.533,0.119-2.125,0.496c-1.206,0.767-2.207,0.418-3.232-0.243
		c-0.979-0.631-1.904-0.887-2.897,0.036c-0.227,0.211-0.775,0.189-1.143,0.114c-0.975-0.197-1.932-0.481-2.671-0.672
		c-0.339,0.413-0.524,0.637-0.945,1.149c1.38,0.77,2.813,1.724,4.366,2.4c2.325,1.012,4.733,1.833,7.112,2.719
		c0.288,0.107,0.617,0.162,0.924,0.151c7.58-0.275,15.073,0.696,22.575,1.545c0.939,0.106,1.885,0.174,2.813,0.339
		c1.323,0.235,2.626,0.17,3.903,1.108c0.863,0.634,2.497,0.394,3.755,0.257c0.893-0.098,1.58-0.283,2.295,0.503
		c0.38,0.418,1.125,0.495,1.693,0.753c1.23,0.557,2.453,1.13,3.678,1.7c0.081,0.038,0.146,0.114,0.229,0.141
		c2.485,0.816,4.941,1.744,7.464,2.415c3.992,1.061,8.03,1.947,12.047,2.911c4.02,0.964,7.998,1.977,12.227,1.802
		c2.089-0.086,4.289,0.448,6.302,1.114c2.419,0.8,4.645,2.167,7.043,3.05c2.092,0.771,4.292,1.271,6.475,1.758
		c0.599,0.133,1.324-0.152,1.955-0.357c0.68-0.221,1.299-0.631,1.977-0.859c2.206-0.742,3.755-2.053,4.103-4.484
		c0.025-0.175,0.119-0.339,0.177-0.509c0.925-2.707,0.925-2.707-0.895-5.059c4.512,0.198,8.763,0.995,13.12,0.7
		c4.233-0.287,8.515,0.983,12.793,0.238c0.025-0.116,0.051-0.233,0.076-0.349c-0.472-0.197-0.93-0.446-1.419-0.584
		C137.577,106.905,132.446,105.541,127.362,104.021z"/>
</g>
</svg>
