<?xml version="1.0" encoding="iso-8859-1"?>
<!-- Generator: Adobe Illustrator 17.1.0, SVG Export Plug-In . SVG Version: 6.00 Build 0)  -->
<!DOCTYPE svg PUBLIC "-//W3C//DTD SVG 1.1//EN" "http://www.w3.org/Graphics/SVG/1.1/DTD/svg11.dtd">
<svg version="1.1" id="Capa_1" xmlns="http://www.w3.org/2000/svg" xmlns:xlink="http://www.w3.org/1999/xlink" x="0px" y="0px"
	 viewBox="0 0 150 150" style="enable-background:new 0 0 150 150;" xml:space="preserve">
<g>
	<path d="M129.684,28.745c1.913-0.6,3.826-1.199,5.74-1.799c-6.352,0.685-12.348,2.636-17.992,5.487
		c-6.077,3.07-11.842,6.775-17.99,9.683c-4.931,2.333-8.985,5.568-12.656,9.458c-1.86,1.971-3.96,3.749-5.6,5.883
		c-1.33,1.731-2.179,3.844-3.154,5.83c-0.476,0.969-0.75,2.037-1.302,3.583c-0.45-1.186-0.948-1.858-0.905-2.495
		c0.203-3.027-1.225-5.531-2.539-8.017c-2.239-4.235-4.635-8.39-7.073-12.514c-0.658-1.114-1.767-1.951-2.561-2.998
		c-1.3-1.715-2.261-3.769-3.812-5.193c-2.995-2.75-5.359-5.931-7.545-9.3c-0.971-1.497-1.379-1.556-3.966-0.896
		c-1.527-1.431-2.498-2.864-2.026-5.283c0.59-3.029-2.29-5.988-5.54-6.5c-0.584-0.092-1.048-0.898-1.586-1.352
		c-1.336-1.126-2.233-3.132-4.563-2.297c-0.101,0.036-0.328-0.016-0.359-0.087c-1.08-2.461-3.39-0.841-5.015-1.492
		c-0.122-0.049-0.397,0.286-0.722,0.536c-0.738-3.627-3.227-1.558-4.909-1.5c0,1.198,0.281,2.598-0.109,3.774
		c-0.222,0.669-1.542,0.974-2.826,1.703c2.606-3.154,1.454-5.85-2.972-7.052c0.408,1.992,0.647,3.767,1.154,5.46
		c0.477,1.592,0.239,2.645-1.453,3.13c0.803-2.75-0.642-5.609-3.871-7.207c0.065,0.781,0.062,1.401,0.175,2
		c1.27,6.753,4.432,12.582,8.806,17.794c2.209,2.632,4.502,5.193,6.742,7.799c0.202,0.236,0.369,0.549,0.432,0.851
		c0.975,4.71,3.919,8.065,7.289,11.29c5.258,5.033,10.412,10.193,15.333,15.553c3.424,3.728,4.653,8.628,5.347,13.496
		c0.335,2.352-0.349,4.849-0.591,7.48c-0.873-1.871-1.665-3.65-2.531-5.392c-0.499-1.003-1.033-2.009-1.699-2.904
		c-1.572-2.112-3.394-3.717-6.349-2.708c-2.911,0.993-5.187,2.806-5.57,5.881c-0.331,2.655-1.44,4.788-2.866,6.865
		c-3.359,4.893-6.298,9.987-7.686,15.826c-0.259,1.09-0.279,2.238-0.409,3.359c0.203,0.046,0.406,0.092,0.609,0.138
		c0.225-0.636,0.534-1.256,0.663-1.911c1.508-7.646,6.104-13.273,11.926-18.031c2.436-1.992,3.994-1.684,5.651,1.023
		c3.526,5.757,8.336,9.538,15.009,11.201c1.725,0.43,3.372,2.372,4.435,4.019c2.392,3.705,3.283,7.845,2.557,12.32
		c-1.384,8.527-4.655,16.246-9.584,23.301c-0.254,0.364-0.409,0.797-0.273,1.454c1.632-2.232,3.263-4.465,5.076-6.946
		c0.536,3.507,1.006,6.585,1.476,9.662c0.156-0.015,0.312-0.029,0.468-0.044c-0.236-3.257-0.473-6.513-0.709-9.77
		c0.325-0.03,0.649-0.06,0.974-0.089c0.266,2.506,0.548,5.01,0.785,7.518c0.059,0.621,1.649,3.839,2.267,4.557
		c0.24,0.279,0.281,0.729,0.408,1.102c0,0,1.181,1.328-1.009-5.443c0,0-1.792-8.563,0.199-2.788s4.12,6.771,4.12,6.771
		s0.162-0.199-0.933-2.191s-2.788-5.675-2.489-7.069c0.299-1.394,2.887-5.277,2.688,0.896c-0.199,6.173,0.473,0.797,0.734,0.498
		s0-4.381,3.059-14.05c0.957-3.025,2.427-5.866,3.528-8.841c0.308-0.833,0.479-1.874,0.274-2.712
		c-0.96-3.924-0.605-7.693,0.973-11.341c2.317,0.306,4.651,0.68,7,0.902c1.671,0.158,2.12-0.435,1.305-1.91
		c-1.343-2.433-2.948-4.72-4.364-7.115c-1.134-1.917-1.188-4.075-0.746-6.156c0.346-1.625,1.011-3.151,0.077-4.783
		c-0.176-0.307-0.239-0.781-0.147-1.122c1.135-4.218,1.814-8.661,3.667-12.541c1.011-2.117,1.965-4.327,3.051-6.441
		c0.835-1.626,1.922-3.139,2.611-4.819c1.312-3.198,4.169-4.67,6.761-6.455c3.435-2.366,7.203-4.351,10.277-7.113
		c3.433-3.085,7.355-5.031,11.507-6.659c3.506-1.375,7.125-2.459,10.687-3.693c0.673-0.233,1.312-0.564,1.948-0.841
		c-2.248,0-4.442,0-6.636,0C129.783,28.895,129.734,28.82,129.684,28.745z M79.175,111.364c-1.05,3.017-1.279,6.31-2.2,9.383
		c-0.818,2.732-2.094,5.326-3.165,7.973c-0.897-0.787-1.41-1.622-1.935-1.63c-2.142-0.031-2.285-1.527-2.018-2.874
		c0.873-4.398,1.859-8.781,3.005-13.116c0.555-2.1,0.637-3.882-0.573-5.845c-1.175-1.905-1.877-4.102-2.939-6.517
		c2.425-0.111,4.275-0.364,6.101-0.245c4.106,0.267,4.644,0.984,4.847,5.12C80.429,106.288,80.071,108.787,79.175,111.364z"/>
</g>
</svg>
