<?xml version="1.0" encoding="iso-8859-1"?>
<!-- Generator: Adobe Illustrator 17.1.0, SVG Export Plug-In . SVG Version: 6.00 Build 0)  -->
<!DOCTYPE svg PUBLIC "-//W3C//DTD SVG 1.1//EN" "http://www.w3.org/Graphics/SVG/1.1/DTD/svg11.dtd">
<svg version="1.1" id="Capa_1" xmlns="http://www.w3.org/2000/svg" xmlns:xlink="http://www.w3.org/1999/xlink" x="0px" y="0px"
	 viewBox="0 0 150 150" style="enable-background:new 0 0 150 150;" xml:space="preserve">
<g>
	<path d="M144.482,87.584c-1.358-1.164-2.395-2.51-3.155-4.131c-0.025-0.053-0.054-0.1-0.085-0.14
		c-0.056-0.072-0.129-0.266-0.225-0.413c-0.057-0.088-0.136-0.16-0.237-0.206c-0.034-0.015-0.068-0.029-0.102-0.041
		c-0.057-0.02-0.505-0.583-1.14-1.114c-0.712-0.595-1.57-1.063-2.583-1.394c-8.901-2.912-17.794-5.851-26.691-8.775
		c-1.174-0.386-2.341-0.815-3.541-1.098c-1.083-0.256-1.23-0.857-0.969-1.788c0.308-1.098,0.578-2.208,0.857-3.314
		c0.365-1.45-0.197-2.506-1.578-2.902c-1.589-0.455-3.234-0.741-4.871-0.988c-1.691-0.256-3.423-0.268-5.096-0.593
		c-0.723-0.141-1.422-0.403-2.119-0.682c-0.769-0.308-1.379-0.686-1.357-0.856s0.708-0.387,1.53-0.489
		c2.508-0.312,5.013-0.648,7.529-0.856c1.679-0.139,3.002-0.782,4.131-1.965c1.34-1.404,1.312-2.178-0.272-3.34
		c-2.124-1.558-4.506-2.491-7.168-2.448c-3.282,0.053-6.561,0.248-9.843,0.304c-4.185,0.072-8.372,0.08-12.558,0.076
		c-0.549-0.001-1.131-0.16-1.64-0.379c-5.042-2.176-10.214-3.85-15.681-4.645c-1.68-0.244-3.426-0.896-4.863-1.803
		c-8.38-5.289-16.852-4.267-25.357-0.524c-1.851,0.815-3.583,1.967-5.235,3.151c-2.301,1.65-3.733,3.926-3.981,6.805
		c-0.186,2.163-1.295,3.568-3.027,4.857c-4.784,3.559-8.832,7.81-11.259,13.385c-0.045,0.103-0.085,0.208-0.124,0.313
		c-0.065,0.175,0.369-0.147,0.975-0.713c2.872-2.683,5.84-5.225,9.241-7.253c3.331-1.986,6.762-2.572,10.279-0.621
		c3.148,1.746,6.268,3.559,9.29,5.511c1.082,0.699,1.925,1.83,2.737,2.873c1.627,2.091,3.193,4.229,4.862,6.481
		c0.493,0.666,0.231,1.301-0.588,1.427c-0.69,0.106-1.367,0.201-2.046,0.231c-1.953,0.086-2.567,0.717-2.36,2.683
		c0.019,0.182,0.067,0.362,0.129,0.576c0.091,0.314,0.705,0.176,1.376-0.309c0.142-0.103,0.284-0.205,0.426-0.308
		c0.671-0.485,1.745-0.41,2.558-0.254c1.324,0.253,2.895-0.137,4.248,0.441c0.762,0.325,0.525,0.891-0.303,0.911
		c-1.38,0.033-2.72,0.072-4.056,0.011c-1.707-0.077-1.938,0.047-2.109,1.809c-0.041,0.418-0.098,0.861-0.272,1.235
		c-0.205,0.441-0.251,0.817-0.158,1.14c0.18,0.624,0.953,0.621,1.196,0.323c0.149-0.183,0.299-0.359,0.462-0.521
		c2.569-2.553,6.04-1.539,9.075-2.249c0.308-0.072,0.699,0.249,1.06,0.357c3.679,1.102,7.345,2.249,11.048,3.26
		c0.62,0.169,1.281,0.187,2.01,0.191c0.828,0.005,0.976,0.447,0.331,0.967c-1.079,0.871-2.092,1.69-3.149,2.448
		c-0.298,0.214-0.901,0.08-1.345,0.003c-3.23-0.565-6.452-1.173-9.684-1.725c-0.6-0.103-1.252-0.114-1.845,0.005
		c-0.887,0.178-1.277,0.772-0.936,1.687c0.091,0.244,0.191,0.484,0.296,0.726c0.172,0.398,0.954,0.522,1.749,0.291
		c0.866-0.252,1.733-0.413,2.593-0.05c0.763,0.322,0.523,0.936-0.303,0.996c-1.115,0.082-2.23,0.164-3.345,0.229
		c-1.328,0.078-2.351,0.906-2.516,2.089c-0.106,0.763,0.145,1.57,0.638,2.189c0.517,0.647,1.049,0.599,0.874,0.246
		c-0.175-0.352,0.212-0.839,0.864-1.088c0.652-0.249,0.96-0.804,0.686-1.24c-0.273-0.437,0.13-0.703,0.903-0.592
		c0.496,0.071,0.951,0.127,1.406,0.138c0.907,0.023,1.826-0.045,2.726-0.172c0.648-0.091,1.291-0.215,1.938-0.318
		c0.818-0.13,0.951,0.226,0.321,0.764c-2.04,1.744-2.435,2.823-1.631,4.758c0.318,0.765,1.542,1.282,1.813,0.499
		c0.073-0.21,0.09-0.443,0.083-0.689c-0.025-0.828,0.373-1.547,0.962-1.616c0.365-0.043,0.718-0.102,1.046-0.229
		c1.259-0.487,2.542-0.993,3.677-1.709c3.697-2.333,6.645-2.048,9.398,0.98c0.557,0.613,1.215,0.947,1.543,0.683
		c0.328-0.265,0.337-0.781,0.016-1.15c-0.195-0.225-0.399-0.441-0.63-0.619c-1.23-0.946-2.588-1.738-3.743-2.762
		c-1.059-0.939-0.726-2.061,0.548-2.729c0.911-0.478,1.716-1.168,2.64-1.613c1.395-0.671,2.803-1.449,4.294-1.756
		c2.9-0.596,5.631-1.329,8.226-2.949c4.947-3.09,10.074-3.166,15.244-0.15c5.79,3.378,11.668,6.599,18.233,8.326
		c2.542,0.669,5.159,1.07,7.547,0.068c1.868-0.784,3.647-1.588,5.672-1.923c1.134-0.188,1.597-0.7,1.653-1.832
		c0.041-0.827,0.561-1.324,1.362-1.114c1.578,0.412,3.152,0.808,4.731,1.103c0.814,0.152,2.122,0.445,2.931,0.627
		c2.073,0.466,4.216,0.609,6.371,0.409c0.465-0.043,0.798-0.416,0.691-0.895C147.42,88.755,145.502,88.458,144.482,87.584z"/>
</g>
</svg>
