<?xml version="1.0" encoding="iso-8859-1"?>
<!-- Generator: Adobe Illustrator 17.1.0, SVG Export Plug-In . SVG Version: 6.00 Build 0)  -->
<!DOCTYPE svg PUBLIC "-//W3C//DTD SVG 1.1//EN" "http://www.w3.org/Graphics/SVG/1.1/DTD/svg11.dtd">
<svg version="1.1" id="Capa_1" xmlns="http://www.w3.org/2000/svg" xmlns:xlink="http://www.w3.org/1999/xlink" x="0px" y="0px"
	 viewBox="0 0 150 150" style="enable-background:new 0 0 150 150;" xml:space="preserve">
<g>
	<path d="M143.941,134.38c-1.578-5.137-2.696-9.304-5.2-14.084c-2.393-4.568-4.297-9.366-7.216-13.693
		c-2.183-3.235-3.706-6.915-5.527-10.395c-0.981-1.876-1.891-3.804-4.103-4.599c-1.935-0.695-3.866-1.398-5.797-2.103
		c-0.912-0.421-1.866-0.77-2.853-1.043c-0.722-0.264-1.444-0.528-2.167-0.792c-3.871-1.413-7.601-3.132-10.986-5.494
		c-2.159-1.507-4.186-3.202-6.282-4.801c-0.898-0.685-1.25-1.447-0.859-2.623c0.275-0.826,0.177-1.772,0.275-2.661
		c0.116-1.049,0.186-2.115,0.438-3.133c0.103-0.416,0.569-0.853,0.98-1.06c1.012-0.507,2.109-0.841,3.133-1.327
		c1.682-0.798,2.416-0.708,3.859,0.508c0.307,0.258,0.855,0.592,1.115,0.48c1.068-0.461,1.299-1.476,1.315-2.536
		c0.001-0.049-0.006-0.092-0.008-0.139c0.051-0.53-0.123-1.08-0.522-1.478l-0.653-0.653c-0.296-0.296-0.674-0.465-1.066-0.513
		c-0.299-0.114-0.599-0.223-0.906-0.251c-0.22-0.021-0.436-0.046-0.647-0.077l-0.33-0.13c-0.215-0.085-0.437-0.107-0.656-0.084
		c-0.047-0.014-0.095-0.028-0.141-0.043c-0.131-0.07-0.27-0.126-0.415-0.163c-0.742-0.332-1.367-0.873-1.809-1.787
		c-0.262-0.542-0.803-1.106-1.35-1.327c-2.898-1.167-5.838-1.221-8.563,0.424c-1.41,0.851-2.633,2.031-3.881,3.129
		c-2.292,2.014-4.695,2.407-6.756,0.856c-1.719-1.293-3.529-2.569-4.909-4.185c-2.212-2.591-4.371-5.302-6.067-8.242
		c-2.759-4.783-5.118-9.796-7.67-14.699c-0.294-0.564-0.635-1.208-1.137-1.543c-2.426-1.622-4.822-3.331-7.404-4.67
		c-3.677-1.907-7.63-3.301-11.241-5.316c-4.001-2.234-8.35-3.366-12.629-4.744c-2.697-0.868-5.551-1.286-8.189-2.288
		c-3.51-1.333-6.878-3.038-10.307-4.583H5.835c0.158,0.316,0.291,0.647,0.479,0.944c0.495,0.782,1.039,1.533,1.516,2.325
		c0.329,0.546,0.554,1.154,0.874,1.706c0.184,0.317,0.502,0.555,0.7,0.866c1.155,1.815,2.211,3.706,4.139,4.872
		c0.206,0.124,0.273,0.458,0.455,0.643c1.129,1.148,2.279,2.276,3.41,3.423c0.465,0.471,0.82,1.096,1.361,1.438
		c1.354,0.856,2.772,1.615,4.191,2.362c0.495,0.26,1.496,0.304,1.536,0.561c0.217,1.382,1.609,1.235,2.262,1.474
		c2.102,0.769,3.886,2.274,6.286,2.445c1.598,0.114,3.157,0.907,4.709,1.464c0.513,0.184,0.97,0.551,1.421,0.877
		c1.211,0.877,2.322,1.941,3.634,2.616c1.025,0.527,1.454,1.3,1.837,2.229c0.33,0.8,0.656,1.601,0.989,2.399
		c0.135,0.323,0.29,0.638,0.425,0.961c0.239,0.572,0.403,1.187,0.719,1.712c0.369,0.613,0.969,1.097,1.291,1.727
		c0.846,1.66,1.545,3.396,2.399,5.052c0.109,0.21,0.225,0.417,0.338,0.625c0.352,1.117,0.922,2.125,1.695,2.961
		c0.19,0.328,0.378,0.656,0.561,0.987c0.54,0.978,0.786,2.26,1.57,2.931c1.473,1.258,1.348,3.532,3.24,4.524
		c0.568,0.298,0.606,1.54,0.982,2.303c0.169,0.344,0.571,0.574,0.867,0.856c0.093,0.379,0.321,0.69,0.516,1.021
		c0.424,0.719,0.883,1.425,1.228,2.181c0.273,0.6,0.333,1.297,0.606,1.898c0.319,0.701,0.029,3.256-0.389,3.916
		c-1.146,1.808-2.416,3.576-3.276,5.519c-2.283,5.162-5.164,9.693-10.705,11.903c-0.294,0.117-0.637,0.679-0.593,0.979
		c0.17,1.149,0.489,2.277,0.754,3.423c-1.283,0.765-2.527,1.507-3.76,2.243c1.354,2.792,1.354,2.792,2.747,2.113
		c0.66,0.681,1.257,1.297,1.984,2.047c0.905-0.526,1.965-0.937,2.756-1.648c0.107-0.096,0.216-0.183,0.325-0.266
		c0.551-0.24,1.083-0.509,1.597-0.806c0.782-0.239,1.609-0.318,2.463-0.37c1.244-0.076,2.345-0.364,2.896-1.741
		c0.772-1.928,2.09-3.406,4.119-4.083c2.194-0.732,4.382-1.508,6.622-2.068c2.721-0.68,5.325-1.587,7.438-3.461
		c1.052-0.933,2.17-0.755,3.188-0.442c3.423,1.054,6.786,2.302,10.19,3.418c1.9,0.623,3.85,1.09,5.753,1.703
		c2.337,0.753,4.644,1.597,6.974,2.372c0.673,0.224,1.401,0.29,2.067,0.529c0.985,0.354,1.902,0.968,2.909,1.171
		c2.513,0.508,4.936,1.279,7.188,2.457c0.9,0.471,1.721,1.332,2.256,2.211c1.217,1.997,2.251,4.106,3.328,6.186
		c1.056,2.037,2.043,4.11,3.128,6.132c0.313,0.582,0.84,1.057,1.304,1.549c0.452,0.479,0.955,0.909,1.423,1.375
		c0.683,0.68,1.345,1.38,2.035,2.052c0.228,0.222,0.628,0.331,0.75,0.587c0.596,1.253,1.355,2.234,2.784,2.679
		c0.56,0.174,0.977,0.846,1.427,1.322c0.417,0.441,0.734,0.992,1.195,1.373c1.659,1.37,3.36,2.688,4.997,3.987
		c-0.011,0.053,0.032-0.159,0.095-0.47c0.711,1.449,0.576-0.161,0.934-0.222c0.325,1.445,1.004,2.569,2.436,3.081
		c0.983,0.227,0.713-0.485,0.734-0.979C144.077,134.576,143.975,134.488,143.941,134.38z"/>
</g>
</svg>
