<?xml version="1.0" encoding="iso-8859-1"?>
<!-- Generator: Adobe Illustrator 17.1.0, SVG Export Plug-In . SVG Version: 6.00 Build 0)  -->
<!DOCTYPE svg PUBLIC "-//W3C//DTD SVG 1.1//EN" "http://www.w3.org/Graphics/SVG/1.1/DTD/svg11.dtd">
<svg version="1.1" id="Capa_1" xmlns="http://www.w3.org/2000/svg" xmlns:xlink="http://www.w3.org/1999/xlink" x="0px" y="0px"
	 viewBox="0 0 150 150" style="enable-background:new 0 0 150 150;" xml:space="preserve">
<g>
	<path d="M141.633,57.82c-0.507,0.079-1.01,0.176-1.51,0.288c-0.539,0.12-1.071-0.16-1.433-0.453
		c-0.211-0.171-0.475-0.292-0.762-0.336c-0.71-0.11-1.51,0.192-2.19,0.349c-0.972,0.224-1.944,0.449-2.916,0.674
		c-2.783,0.643-5.567,1.286-8.351,1.929c-14.885,3.241-30.017,4.898-45.083,6.976c-4.106,0.566-8.138-0.036-11.946-1.643
		c-7.23-3.049-14.647-5.198-22.535-5.688c-4.974-0.309-7.741-3.916-9.754-7.866c-0.116-0.228-0.133-0.503-0.084-0.809
		c0.071-0.451,0.401-1.086,0.645-1.426c0.147-0.204,0.302-0.404,0.466-0.599c0.045-0.054,0.074-0.114,0.089-0.176
		c0.026-0.107,0.162-0.284,0.376-0.321c0.122-0.021,0.253-0.027,0.392-0.017c0.23,0.017,0.36-0.122,0.393-0.291
		c0.056-0.293,0.042-0.639,0.328-0.843c0.173-0.123,0.345-0.246,0.518-0.369c0.175-0.125,0.221-0.326,0.172-0.493
		c-0.088-0.296-0.197-0.458,0.085-0.673c0.171-0.13,0.341-0.259,0.512-0.389c0.119-0.09,0.184-0.214,0.195-0.337
		c0.019-0.22,0.04-0.379,0.281-0.407c0.146-0.017,0.292-0.032,0.439-0.045c0.46-0.04,0.581-0.678,0.111-0.821
		c0,0-0.188-0.057-0.421-0.128c-0.232-0.071,0.004-0.14,0.523-0.209c0.311-0.041,0.621-0.098,0.932-0.169
		c0.427-0.099,0.371-0.681,0-0.807c-0.275-0.093-0.549-0.185-0.824-0.276c-0.456-0.151-0.838-0.414-0.959-0.513
		c-0.065-0.053-0.153-0.084-0.265-0.079c-0.115,0.006-0.23,0.007-0.344,0.003c-0.19-0.006-0.771-0.159-1.299-0.32
		c-0.918-0.28-1.84-0.55-2.766-0.808c-0.055-0.015-0.107-0.02-0.154-0.015c-0.085,0.008-0.592-0.048-1.143-0.012
		c-0.034,0.002-0.068,0.005-0.102,0.008c-0.55,0.052-1.415,0.261-1.96,0.351c-0.437,0.072-0.876,0.176-1.319,0.319
		c-1.002,0.322-1.947,0.811-2.796,1.43c-0.447,0.325-1.16,0.863-1.608,1.186c-1.718,1.238-3.224,2.836-4.518,4.742
		c-1.998,2.942-4.457,4.464-7.873,5.023c-2.666,0.437-5.342,1.06-7.364,3.351c-0.365,0.414-0.174,0.74,0.375,0.683
		c1.238-0.129,2.476-0.264,3.717-0.364c2.503-0.203,5.008-0.391,7.515-0.532c0.455-0.026,1.013,0.079,1.371,0.335
		c2.488,1.785,4.885,3.7,7.413,5.425c1.9,1.297,2.821,3.055,3.16,5.237c0.087,0.56,0.319,1.1,0.378,1.661
		c0.806,7.682,5.411,12.144,12.258,14.953c2.283,0.937,4.344,2.414,6.772,3.904c0.471,0.289,0.551,0.843,0.18,1.253
		c-1.328,1.467-2.343,2.69-3.522,3.725c-3.171,2.785-6.42,5.484-9.696,8.146c-1.993,1.62-4.208,2.218-6.837,1.52
		c-0.773-0.205-1.602-0.197-2.441-0.152c-0.552,0.03-1.435-0.105-1.985-0.061c-0.409,0.033-0.809,0.168-1.169,0.402
		c-0.109,0.071-0.113,0.28,0.04,0.306c0.226,0.038,0.452,0.076,0.678,0.113c0.375,0.063,0.866,0.256,1.097,0.431
		s0.011,0.504-0.491,0.734c-0.311,0.142-0.615,0.281-0.915,0.418c-0.502,0.229-1.363,0.296-1.904,0.404
		c-0.551,0.109-1.035,0.413-1.367,0.862c-0.329,0.444-0.453,1.038-0.357,1.134c0.059,0.058,0.148,0.073,0.218-0.003
		c0.532-0.577,1.302-0.607,2.041-0.729c0.545-0.09,1.4-0.332,1.949-0.391c1.987-0.214,3.98-0.404,5.909-0.862
		c3.044-0.723,5.819-0.674,8.762,0.613c1.27,0.555,2.703,0.735,4.195,0.914c0.548,0.066,1.399,0.311,1.916,0.506
		c0.675,0.254,1.368,0.457,2.079,0.607c0.161,0.034,0.284-0.155,0.163-0.28c-0.116-0.119-0.231-0.239-0.345-0.36
		c-0.189-0.2-0.345-0.395-0.366-0.429c-0.012-0.019-0.028-0.036-0.05-0.051c-0.016-0.011-0.033-0.022-0.049-0.032
		c-0.028-0.017-0.218-0.207-0.435-0.418c-0.131-0.128-0.265-0.252-0.403-0.371c-0.149-0.129-0.309-0.222-0.476-0.276
		c-0.29-0.095-0.782-0.427-1.157-0.833c-1.493-1.62-3.559-1.904-5.825-1.761c-0.551,0.035-1.042-0.068-1.1-0.259
		c-0.057-0.191,0.258-0.61,0.704-0.936c2.746-2.01,5.485-4.029,8.246-6.018c2.685-1.934,5.402-3.824,8.097-5.744
		c0.258-0.184,0.422-0.521,0.694-0.662c2.333-1.203,9.898,0.437,11.566,2.497c1.33,1.643,2.565,3.369,3.982,4.931
		c1.344,1.481,2.95,2.725,4.292,4.208c1.239,1.368,2.362,2.861,3.388,4.397c1.181,1.769,1.175,1.747,3.459,1.627
		c0.406-0.021,0.821,0.122,1.239,0.307c0.504,0.225,1.285,0.684,1.821,0.816c0.602,0.148,1.231,0.071,1.863-0.397
		c0.072-0.054,0.084-0.136,0.061-0.204c-0.041-0.12-0.188-0.122-0.208-0.13c-0.011-0.004-0.023-0.007-0.036-0.009
		c-0.324-0.047-0.648-0.093-0.973-0.139c-0.537-0.077-1.294-0.451-1.69-0.836c-2.271-2.204-4.546-4.413-6.861-6.66
		c-0.396-0.385-0.452-1.057-0.121-1.499c0.685-0.914,1.433-1.903,2.132-2.926c0.395-0.578,0.772-1.167,1.14-1.752
		c0.293-0.468,0.935-1.051,1.477-1.157c0.569-0.111,1.156-0.1,1.747,0.038c0.054,0.013,0.1,0.001,0.134-0.025
		c0.062-0.047,0.143-0.14,0.17-0.213c0.015-0.039,0.011-0.085-0.025-0.132c-0.082-0.106-0.172-0.202-0.268-0.288
		c-0.163-0.145-0.334-0.271-0.375-0.295s-0.425-0.205-0.886-0.238c-0.461-0.033-1.27,0.029-1.822,0.037
		c-3.141,0.043-4.18,2.685-5.221,5.223c-0.21,0.511-0.808,0.766-1.294,0.504c-1.894-1.022-3.401-2.932-7.445-9.079
		c-0.303-0.461-0.192-1.105,0.242-1.447c2.255-1.784,4.412-3.766,6.922-5.07c2.488-1.293,5.336-1.896,8.194-2.74
		c0.53-0.156,0.651-0.62,0.275-1.024c-0.102-0.11-0.206-0.222-0.31-0.333c-0.376-0.404-0.412-1.091-0.032-1.492
		c3.268-3.46,7.83-3.125,12.105-3.497c4.528-0.395,8.773-1.63,13.083-3.034c1.857-0.605,3.759-1.072,5.678-1.485
		c5.051-0.873,10.102-1.746,15.153-2.619c0.544-0.094,1.426-0.247,1.971-0.341c2.953-0.51,5.906-1.021,8.86-1.531
		c0.823-0.142,2.24-0.595,2.146-1.712c-0.018-0.21-0.077-0.404-0.168-0.572c-0.159-0.291-0.411-0.457-0.424-0.479
		c-0.013-0.022,0.203-0.107,0.483-0.202c0.169-0.057,0.336-0.117,0.503-0.181c0.849-0.283,1.685-0.603,2.51-0.948
		c0.471-0.197,1.355-0.472,1.492-1.074C145.158,56.995,142.476,57.688,141.633,57.82z"/>
</g>
</svg>
