<?xml version="1.0" encoding="iso-8859-1"?>
<!-- Generator: Adobe Illustrator 17.1.0, SVG Export Plug-In . SVG Version: 6.00 Build 0)  -->
<!DOCTYPE svg PUBLIC "-//W3C//DTD SVG 1.1//EN" "http://www.w3.org/Graphics/SVG/1.1/DTD/svg11.dtd">
<svg version="1.1" id="Capa_1" xmlns="http://www.w3.org/2000/svg" xmlns:xlink="http://www.w3.org/1999/xlink" x="0px" y="0px"
	 viewBox="0 0 150 150" style="enable-background:new 0 0 150 150;" xml:space="preserve">
<g>
	<path d="M145.264,42.349c-2.589,0.99-5.2,1.927-7.762,2.982c-3.934,1.621-7.836,3.319-11.745,4.998
		c-0.878,0.377-1.746,0.787-2.594,1.229c-5.646,2.94-11.25,5.959-16.936,8.82c-5.104,2.568-10.332,4.888-15.435,7.457
		c-6.4,3.222-12.718,6.607-19.099,9.869c-1.083,0.554-2.282,1.096-3.466,1.194c-2.648,0.22-5.32,0.194-7.982,0.184
		c-0.68-0.003-1.454-0.166-2.02-0.52c-1.962-1.225-3.817-2.622-5.779-3.849c-2.211-1.382-4.627-2.317-7.155-2.979
		c-1.781-0.467-3.603-0.876-5.288-1.59c-3.154-1.336-6.233-2.851-9.32-4.34c-1.444-0.696-2.839-1.495-4.247-2.266
		c-1.171-0.642-1.678-1.752-1.776-2.986c-0.306-3.847-0.597-7.699-0.758-11.554c-0.088-2.103-0.68-4.031-1.529-5.892
		c0.205-0.164,0.409-0.328,0.613-0.491c0.252-0.202,0.199-0.48,0.02-0.656c-0.079-0.115-0.204-0.202-0.383-0.209
		c-0.749-0.03-1.497-0.06-2.246-0.09c-1.051-0.234-2.116-0.413-3.176-0.613h-3.346c-1.642,0.341-2.965,1.289-4.317,2.207
		c-0.627,0.426-1.397,0.638-2.037,1.05c-0.848,0.545-1.689,1.13-2.426,1.813c-0.521,0.483-0.473,1.135,0.322,1.341
		c1.065,0.276,2.172,0.388,3.246,0.638c0.543,0.126,1.168,0.273,1.558,0.628c3.459,3.154,4.432,6.775,2.526,11.021
		c-0.999,2.226-1.933,4.447-2.425,6.853c-0.77,3.763-0.808,7.565-0.706,11.371c0.109,4.084,1.106,7.939,3.382,11.391
		c0.987,1.497,2.04,2.952,3.032,4.446c1.916,2.885,4.392,5.06,7.822,5.867c3.019,0.711,4.595,3.037,6.296,5.257
		c0.913,1.191,1.699,2.49,2.69,3.608c0.852,0.962,1.215,1.998,0.807,3.147c-0.814,2.291-1.694,4.565-2.675,6.788
		c-0.83,1.882-0.983,1.853-2.974,1.502c-0.587-0.103-1.221-0.024-1.819,0.07c-0.193,0.03-0.337,0.372-0.504,0.571
		c0.199,0.162,0.375,0.399,0.603,0.467c0.352,0.106,0.738,0.096,1.109,0.135c-0.752,0.12-1.488,0.026-2.223,0.031
		c-1.694,0.011-3.398-0.034-5.077,0.145c-1.149,0.122-1.727,0.85-1.821,1.708h11.443c-0.64,0.796-1.125,1.313-1.5,1.901
		c-0.194,0.304-0.377,0.867-0.23,1.075c0.197,0.278,0.75,0.489,1.094,0.426c0.378-0.07,0.761-0.43,1.021-0.759
		c0.475-0.602,0.807-1.319,1.3-1.903c0.481-0.569,1.123-0.78,1.797-0.229c0.425,0.347,0.885,0.301,1.105-0.133
		c0.192-0.377,0.31-0.958,0.149-1.305c-0.166-0.358-0.736-0.509-1.072-0.814c-0.209-0.189-0.429-0.491-0.436-0.747
		c-0.008-0.353,0.144-0.726,0.292-1.063c1.227-2.801,2.451-5.603,3.723-8.383c0.188-0.411,0.59-0.747,0.949-1.052
		c0.48-0.407,0.852-0.78,0.547-1.488c-0.242-0.561-0.436-1.156-0.552-1.755c-0.118-0.607-0.114-1.238-0.176-2.018
		c2.269,0.468,4.228,1.068,5.983,2.211c2.213,1.44,4.05,3.256,5.861,5.2c2.435,2.613,4.302,5.38,5.01,8.895
		c0.228,1.132-0.024,1.594-1.183,1.811c-0.85,0.159-1.718,0.229-2.563,0.408c-0.243,0.052-0.435,0.345-0.65,0.527
		c0.246,0.19,0.467,0.487,0.742,0.551c0.926,0.216,1.87,0.35,3.126,0.572c-0.776,0.569-1.293,1.032-1.885,1.363
		c-1.132,0.633-2.312,1.178-3.459,1.784c-0.444,0.235-0.877,0.523-0.625,1.157h1.859c1.263-0.492,2.511-1.026,3.793-1.463
		c1.237-0.422,1.968-1.364,2.621-2.382c0.392-0.61,0.77-0.748,1.333-0.269c0.424,0.36,0.824,0.761,1.291,1.054
		c0.583,0.365,1.207,0.676,1.844,0.939c0.475,0.196,1.145,0.25,1.241-0.349c0.075-0.468-0.177-1.172-0.534-1.488
		c-0.794-0.703-1.744-1.227-2.671-1.851c0.031-0.096,0.034-0.242,0.108-0.312c0.847-0.804,0.82-1.053-0.204-1.623
		c-0.081-0.045-0.163-0.111-0.249-0.12c-1.622-0.172-1.644-1.446-1.866-2.629c-0.323-1.726-0.759-3.432-1.05-5.164
		c-0.103-0.612-0.049-1.315,0.153-1.901c0.385-1.113-0.004-1.915-0.606-2.828c-0.79-1.198-1.391-2.524-1.999-3.831
		c-0.08-0.172,0.234-0.745,0.452-0.802c1.803-0.472,3.144-1.639,4.498-2.813c0.266-0.23,0.656-0.377,1.01-0.432
		c0.729-0.113,1.492-0.051,2.202-0.222c0.801-0.192,1.514-0.576,1.459-1.631c-0.012-0.237,0.172-0.538,0.354-0.722
		c1.007-1.014,1.922-2.04,3.51-2.358c1.304-0.261,1.682-0.603,1.738-2.583c0.596-0.085,1.405,0.095,1.366-0.982
		c-0.005-0.122,0.814-0.229,1.211-0.423c0.392-0.191,0.735-0.484,1.1-0.732c-0.037-0.07-0.075-0.141-0.112-0.211
		c0.721-0.213,1.45-0.403,2.162-0.644c0.682-0.23,1.366-0.473,2.016-0.781c0.884-0.419,1.725-0.93,2.606-1.354
		c0.524-0.252,1.089-0.419,1.639-0.616c0.606-0.217,1.216-0.425,2.075-0.724c-0.516-0.206-0.797-0.318-1.259-0.503
		c0.686-0.134,1.219-0.203,1.732-0.347c0.491-0.138,0.96-0.354,1.635-0.61c-0.381-0.227-0.56-0.333-0.767-0.456
		c0.1-0.085,0.186-0.173,0.285-0.24c0.564-0.378,1.107-0.797,1.704-1.115c0.192-0.102,0.333-0.209,0.427-0.321
		c0.068,0.016,0.138,0.032,0.21,0.046c0.278,0.058,0.578,0.102,0.891,0.123c0.314,0.023,0.641,0.022,0.974-0.027
		c0.333-0.049,0.669-0.157,1.01-0.276c0.341-0.12,0.687-0.238,1.037-0.328c0.7-0.178,1.399-0.365,2.052-0.558
		c0.326-0.099,0.642-0.191,0.94-0.286c0.299-0.094,0.581-0.183,0.842-0.265c0.261-0.081,0.499-0.165,0.71-0.234
		c0.211-0.07,0.396-0.132,0.547-0.187c0.303-0.105,0.475-0.17,0.475-0.17l-0.035-0.276c0,0-0.183-0.019-0.503-0.044
		c-0.16-0.014-0.354-0.028-0.576-0.042c-0.222-0.013-0.473-0.034-0.746-0.047c-0.273-0.013-0.568-0.028-0.881-0.043
		c-0.313-0.017-0.642-0.025-0.982-0.039c-0.075-0.002-0.153-0.004-0.229-0.006c0.111-0.038,0.222-0.077,0.334-0.11
		c0.31-0.092,0.621-0.179,0.926-0.275c0.007-0.002,0.014-0.005,0.021-0.007c0.106,0.025,0.216,0.049,0.329,0.068
		c0.253,0.045,0.524,0.076,0.805,0.082c0.281,0.008,0.575-0.004,0.867-0.072c0.293-0.065,0.585-0.188,0.879-0.323
		c0.294-0.135,0.593-0.269,0.898-0.378c0.304-0.109,0.61-0.214,0.908-0.326c0.299-0.108,0.592-0.226,0.875-0.339
		c0.282-0.118,0.556-0.228,0.814-0.34c0.262-0.115,0.509-0.223,0.738-0.323c0.23-0.101,0.436-0.203,0.618-0.288
		c0.185-0.082,0.333-0.168,0.457-0.239c0.249-0.138,0.39-0.222,0.39-0.222l-0.084-0.266c0,0-0.166,0.003-0.455,0.016
		c-0.145,0.004-0.321,0.018-0.517,0.015c-0.197,0.002-0.419-0.001-0.655,0.004c-0.239,0.004-0.498,0.008-0.771,0.012
		c-0.245,0.001-0.5,0.01-0.763,0.016c0.203-0.1,0.407-0.196,0.614-0.286c0.833-0.359,1.663-0.726,2.437-1.085
		c0.774-0.359,1.492-0.705,2.109-0.998c0.308-0.149,0.59-0.285,0.84-0.406c0.247-0.117,0.476-0.229,0.639-0.311
		c0.167-0.081,0.297-0.152,0.399-0.193c0.102-0.041,0.156-0.063,0.156-0.063l-0.015-0.139l-0.015-0.139c0,0-0.056,0.002-0.162,0.005
		c-0.105,0.002-0.271,0.026-0.486,0.049c-0.217,0.025-0.446,0.057-0.728,0.096c-0.277,0.04-0.589,0.083-0.928,0.137
		c-0.265,0.043-0.547,0.09-0.843,0.138c0.351-0.207,0.707-0.414,1.073-0.597c0.811-0.406,1.62-0.819,2.372-1.221
		c0.752-0.402,1.449-0.789,2.049-1.116c0.299-0.166,0.573-0.318,0.815-0.453c0.24-0.131,0.462-0.255,0.62-0.347
		c0.162-0.09,0.288-0.169,0.388-0.215c0.099-0.047,0.152-0.072,0.152-0.072l-0.045-0.275c0,0-0.056,0.005-0.161,0.014
		c-0.104,0.008-0.27,0.041-0.482,0.077c-0.048,0.008-0.098,0.017-0.148,0.026c0.02-0.007,0.041-0.015,0.06-0.021
		c0.189-0.068,0.362-0.14,0.516-0.202c0.154-0.062,0.288-0.119,0.398-0.172c0.111-0.053,0.193-0.092,0.276-0.136
		c0.039-0.02,0.054-0.035,0.067-0.045c0.012-0.01,0.019-0.016,0.019-0.016l-0.087-0.196c0.057-0.021,0.114-0.041,0.172-0.059
		c0.25-0.081,0.502-0.157,0.748-0.244c0.247-0.082,0.488-0.173,0.721-0.259c0.233-0.092,0.458-0.176,0.671-0.266
		c0.213-0.09,0.414-0.174,0.599-0.253c0.186-0.078,0.354-0.161,0.504-0.231c0.15-0.07,0.28-0.135,0.387-0.194
		c0.108-0.059,0.188-0.103,0.268-0.152c0.038-0.022,0.052-0.038,0.064-0.049c0.012-0.011,0.018-0.017,0.018-0.017l-0.127-0.248
		c0,0-0.009,0.001-0.025,0.003c-0.016,0.002-0.043,0.008-0.064,0.001c-0.035-0.011-0.127-0.011-0.24-0.022
		c-0.229-0.021-0.556-0.051-0.949-0.087c-0.163-0.014-0.34-0.03-0.523-0.046c0.076-0.029,0.152-0.06,0.229-0.091
		c0.302-0.124,0.609-0.247,0.921-0.342c0.624-0.188,1.247-0.384,1.828-0.586c0.29-0.104,0.571-0.199,0.836-0.299
		c0.265-0.098,0.516-0.191,0.748-0.276c0.232-0.085,0.443-0.171,0.63-0.244c0.188-0.073,0.351-0.138,0.485-0.194
		c0.269-0.109,0.421-0.177,0.421-0.177l-0.044-0.275c0,0-0.166-0.016-0.455-0.037c-0.138-0.011-0.305-0.022-0.494-0.032
		c0.595-0.217,1.187-0.441,1.74-0.669c0.284-0.12,0.559-0.231,0.818-0.346c0.26-0.113,0.505-0.22,0.731-0.318
		c0.227-0.098,0.432-0.196,0.616-0.279c0.183-0.083,0.343-0.157,0.473-0.221c0.262-0.124,0.411-0.2,0.411-0.2l-0.059-0.272
		c0,0-0.167-0.007-0.457-0.011c-0.146-0.004-0.321-0.005-0.522-0.004c-0.201,0.001-0.429-0.003-0.676,0.002
		c-0.05,0.001-0.104,0.002-0.155,0.003c0.283-0.126,0.57-0.249,0.861-0.353c0.721-0.257,1.441-0.522,2.111-0.788
		c0.335-0.136,0.659-0.263,0.965-0.391c0.306-0.127,0.595-0.248,0.862-0.359c0.267-0.11,0.51-0.221,0.727-0.313
		c0.216-0.093,0.404-0.177,0.559-0.248c0.31-0.139,0.485-0.223,0.485-0.223l-0.063-0.272c0,0-0.195,0.002-0.534,0.013
		c-0.17,0.004-0.375,0.012-0.611,0.023c-0.235,0.012-0.502,0.019-0.791,0.038c-0.041,0.002-0.086,0.005-0.128,0.008
		c0.013-0.005,0.025-0.012,0.038-0.018c0.706-0.297,1.409-0.602,2.063-0.906c0.326-0.155,0.643-0.299,0.941-0.445
		c0.298-0.145,0.58-0.281,0.841-0.407c0.26-0.125,0.497-0.249,0.708-0.354c0.21-0.105,0.394-0.199,0.544-0.279
		c0.301-0.156,0.472-0.25,0.472-0.25l-0.078-0.268c0,0-0.194,0.013-0.532,0.043c-0.169,0.013-0.374,0.033-0.609,0.057
		c-0.192,0.02-0.407,0.04-0.637,0.065c0.428-0.147,0.849-0.296,1.25-0.447c0.315-0.122,0.621-0.234,0.909-0.35
		c0.288-0.114,0.561-0.222,0.813-0.322c0.252-0.099,0.481-0.199,0.685-0.282c0.204-0.084,0.381-0.159,0.527-0.224
		c0.292-0.126,0.458-0.202,0.458-0.202l-0.055-0.273c0,0-0.182-0.007-0.5-0.01c-0.159-0.003-0.352-0.004-0.572-0.003
		c-0.22,0.002-0.47-0.002-0.741,0.005c-0.271,0.005-0.564,0.011-0.874,0.017c-0.17,0.003-0.346,0.008-0.525,0.014
		c0.079-0.037,0.157-0.076,0.236-0.115c0.319-0.161,0.645-0.322,0.977-0.454c0.665-0.264,1.329-0.536,1.946-0.809
		c0.308-0.139,0.607-0.269,0.888-0.401c0.111-0.051,0.217-0.101,0.323-0.149c0.47-0.177,0.933-0.357,1.374-0.537
		c0.326-0.137,0.643-0.264,0.941-0.393c0.299-0.128,0.581-0.249,0.841-0.361c0.261-0.111,0.498-0.222,0.709-0.315
		c0.211-0.094,0.394-0.177,0.545-0.249c0.302-0.14,0.473-0.224,0.473-0.224l-0.065-0.271c0,0-0.191,0.002-0.523,0.014
		c-0.167,0.004-0.368,0.013-0.599,0.024c-0.23,0.012-0.492,0.021-0.774,0.04c-0.283,0.018-0.589,0.038-0.914,0.059
		c-0.324,0.02-0.665,0.049-1.018,0.075c-0.104,0.008-0.21,0.018-0.316,0.028c0.24-0.098,0.478-0.219,0.718-0.347
		c0.33-0.177,0.666-0.354,1.01-0.504c0.688-0.298,1.375-0.604,2.012-0.908c0.318-0.155,0.627-0.3,0.918-0.446
		c0.291-0.145,0.566-0.282,0.82-0.408c0.254-0.125,0.484-0.249,0.689-0.355c0.206-0.106,0.384-0.199,0.53-0.279
		c0.293-0.157,0.46-0.251,0.46-0.251l-0.08-0.267c0,0-0.191,0.013-0.522,0.044c-0.166,0.014-0.367,0.033-0.596,0.058
		c-0.229,0.025-0.49,0.048-0.771,0.083c-0.281,0.034-0.586,0.071-0.909,0.11c-0.246,0.029-0.503,0.064-0.766,0.099
		c2.141-1.546,4.321-3.038,6.482-4.556V42.349z"/>
</g>
</svg>
