<?xml version="1.0" encoding="iso-8859-1"?>
<!-- Generator: Adobe Illustrator 17.1.0, SVG Export Plug-In . SVG Version: 6.00 Build 0)  -->
<!DOCTYPE svg PUBLIC "-//W3C//DTD SVG 1.1//EN" "http://www.w3.org/Graphics/SVG/1.1/DTD/svg11.dtd">
<svg version="1.1" id="Capa_1" xmlns="http://www.w3.org/2000/svg" xmlns:xlink="http://www.w3.org/1999/xlink" x="0px" y="0px"
	 viewBox="0 0 150 150" style="enable-background:new 0 0 150 150;" xml:space="preserve">
<g>
	<path d="M10.777,106.032c2.917,0.468,5.904,0.801,8.85,0.707c3.314-0.105,6.461-0.227,9.856,0.415
		c4.459,0.843,9.258,0.308,13.861-0.14c5.041-0.491,9.166,0.692,12.607,4.513c0.684,0.759,2.202,0.767,3.921,1.303
		c4.601,1.109,8.687,1.552,12.278,1.563c0.777,1.351,1.236,3.103-0.399,4.41c-3.055,2.444-1.68,2.138-1.069,2.444
		c0,0,4.582-2.291,7.79-0.764c4.311,2.053,11.83-2.138,14.274-0.458c2.444,1.68,5.102-1.843,7.623-0.542
		c3.505,1.809,3.208,2.749,2.902,0c-0.305-2.749-5.72-2.341-5.72-2.341c-2.96-0.641-5.187-1.522-7.501-3.322
		c-0.924-0.719-1.801-1.5-2.65-2.318c0.008-0.003,0.017-0.006,0.025-0.009c0.561-0.223,1.089-0.494,1.561-0.811
		c0.246-0.165,0.49-0.336,0.728-0.514c0.395-0.294,1.146-0.844,1.673-1.238c0.615-0.46,0.92-0.754,0.92-0.754
		c3.395-3.183,5.912-7.026,9.404-8.409c3.678-1.457,5.136-4.164,7.072-6.764c2.691-3.613,2.921-8.104,3.261-12.326
		c0.07-0.866,0.234-1.662,0.482-2.381c0.361-1.044,1.101-1.923,1.339-2.119c0.143-0.117,0.282-0.241,0.416-0.372
		c0.128-0.125,0.247-0.253,0.357-0.384c0.186-0.222,1.07-0.949,2.144-1.205c1.042-0.248,2.229-0.243,3.538,0.057
		c6.184,1.419,12.397,2.72,18.613,3.994c0.725,0.148,1.468,0.206,2.215,0.243c1.103,0.055,2.075-0.077,2.17-0.296
		c0.095-0.218-0.31-0.822-0.908-1.343c-0.37-0.322-0.751-0.618-1.178-0.815c-6.13-2.829-12.263-5.658-18.466-8.324
		c-3.195-1.373-5.317-4.916-4.328-8.362c1.866-6.501,2.32-13.135,2.245-19.839c-0.005-0.482-0.038-0.964-0.079-1.445
		c-0.067-0.797-0.28-1.458-0.474-1.477c-0.194-0.019-0.444,0.856-0.557,1.955c0,0.001,0,0.003,0,0.004
		c-0.113,1.099-0.376,1.172-0.738,0.213c-0.216-0.572-0.473-1.134-0.772-1.684c-0.453-0.832-1.721-0.091-1.268,0.741
		c0.146,0.269,0.281,0.541,0.404,0.814c0.206,0.458,0.259,1.734,0.158,2.834c-0.049,0.533-0.098,1.066-0.146,1.6
		c-0.101,1.1-0.242,2.003-0.316,2.018c-0.074,0.014-0.371-0.838-0.664-1.904c-0.117-0.428-0.235-0.855-0.352-1.283
		c-0.293-1.065-0.605-1.914-0.697-1.897c-0.093,0.017-0.308,0.915-0.481,2.006c-0.103,0.649-0.206,1.299-0.309,1.948
		c-0.173,1.091-0.386,1.984-0.474,1.993c-0.088,0.009-0.379-0.852-0.649-1.923c-0.149-0.589-0.304-1.206-0.473-1.874
		c-0.27-1.071-0.688-1.368-0.932-0.663c-0.245,0.705-0.56,0.387-0.82-0.686c-0.228-0.94-0.521-1.863-0.879-2.769
		c-0.406-1.027-0.832-1.887-0.866-1.959s-0.512-0.701-1.05-0.373c-0.539,0.328-0.141,1.871-0.056,2.972
		c0.104,1.353,0.087,2.702-0.049,4.05c-0.111,1.099-0.42,1.837-0.587,1.66c-0.167-0.177-0.61-1.176-1.252-2.076
		c-0.487-0.683-1.085-1.3-1.783-1.839c-0.75-0.578-1.48,0.699-0.741,1.268c0.748,0.576,1.341,1.294,1.768,2.099
		c0.517,0.976,0.182,1.254-0.409,0.482c-0.59-0.773-1.205-1.277-1.373-1.126c-0.168,0.151-0.304,0.273-0.304,0.273
		c-0.31,0.272-0.62,0.544-0.986,0.866c-0.544,0.478-1.166-0.011-1.389-1.093c-0.22-1.068-0.431-2.088-0.637-3.09
		c-0.223-1.082-0.511-1.961-0.642-1.964c-0.132-0.003-0.303,0.864-0.383,1.936c-0.08,1.072-0.432,1.88-0.787,1.801
		c-0.354-0.078-0.573,0.408-0.487,1.087c0.086,0.679-0.128,1.209-0.478,1.184c-0.35-0.025-0.573,0.523-0.497,1.223
		s-0.047,1.036-0.275,0.753c-0.228-0.283-0.669-1.028-1.038-1.634c-0.222-0.366-0.458-0.723-0.706-1.072
		c-0.224-0.332-0.47-0.649-0.734-0.953c-0.259-0.314-0.531-0.619-0.815-0.914c-0.469-0.488-0.916-0.922-0.983-0.987
		c-0.066-0.064-0.156-0.116-0.181-0.141c-0.015-0.015-0.03-0.03-0.046-0.044c-0.711-0.618-1.755,0.416-1.039,1.039
		c0.033,0.028,0.064,0.057,0.095,0.087c0.051,0.049,0.476,0.898,0.947,1.897c0.185,0.391,0.369,0.783,0.554,1.174
		c0.472,0.999,0.077,1.359-0.932,0.909c-2.425-1.082-5.02-1.69-7.745-1.814c-0.157-0.007-0.288,0.028-0.392,0.091
		c-0.193,0.117-0.718,0.618-0.619,1.144c0.057,0.305,0.287,0.562,0.693,0.54c0.627-0.034,1.247-0.008,1.851,0.075
		c1.016,0.139,2.439,0.883,3.223,1.441c0.783,0.559,1.304,1.148,1.163,1.316c-0.141,0.168-0.975-0.012-1.863-0.404
		c-0.888-0.391-1.667-0.635-1.738-0.544c-0.072,0.091,0.017,0.292,0.198,0.451s-0.53,0.022-1.612-0.197
		c-0.99-0.2-2-0.334-3.028-0.399c-0.498-0.031-0.73,0.361-0.703,0.748c-0.008,0.373,0.227,0.768,0.706,0.795
		c0.569,0.033,1.126,0.116,1.666,0.248c0.905,0.221,2.304,1.095,3.18,1.767c0.027,0.021,0.054,0.042,0.081,0.062
		c0.876,0.673,1.612,1.248,1.644,1.287c0.032,0.039,0.024,0.159-0.017,0.268c-0.041,0.109-0.412,0.142-0.828,0.073
		c-0.416-0.068-0.792-0.143-0.843-0.16c-0.029-0.01-0.061-0.019-0.094-0.025c-2.053-0.4-4.107-0.801-6.16-1.201
		c-0.234-0.055-0.471-0.103-0.712-0.139c-0.484-0.094-0.968-0.189-1.452-0.283c-0.282-0.055-0.515,0.038-0.675,0.2
		c-0.286,0.288-0.294,0.983-0.079,1.24c0.117,0.14,0.298,0.23,0.542,0.221c0.601-0.024,1.19,0.023,1.76,0.133l0.162,0.032
		c0.447,0.096,0.881,0.233,1.298,0.409c0.693,0.292,0.534,0.937-0.283,1.299c-0.817,0.362-1.461,0.757-1.438,0.882
		c0.024,0.125,0.938,0.227,2.043,0.227h0.17c1.105,0,2.023,0.143,2.051,0.319c0.028,0.176-0.825,0.506-1.905,0.737
		c-0.092,0.02-0.186,0.04-0.281,0.06c-1.08,0.231-1.403,0.755-0.72,1.171c0.682,0.416,0.34,0.753-0.765,0.753h-3.852
		c-1.105,0-2.027,0.144-2.06,0.322c-0.033,0.178,0.809,0.535,1.882,0.798c0.808,0.198,1.627,0.399,2.468,0.605
		c1.073,0.263,1.649,0.739,1.288,1.063s-0.431,0.745-0.157,0.94s0.233,0.872-0.093,1.511s-1.458,1.373-2.534,1.623
		c-2.519,0.586-5.284,1.19-7.958,2.072c-5.504,1.815-9.867,5.482-13.338,9.939c-4.279,5.493-9.581,9.776-14.701,14.372
		c-6.69,6.006-14.993,6.986-23.068,8.926c-2.453,0.59-4.964,0.954-7.397,1.61c-0.75,0.202-1.957,1.181-1.869,1.538
		C9.329,104.586,10.075,105.919,10.777,106.032z M82.463,113.087l0.136,0.153c0.393,0.453,0.734,1.414,0.513,1.815
		c-0.241,0.435-1.215,0.754-1.786,0.652c-1.019-0.183-2.277-0.45-2.907-1.154l-0.407-0.547
		C79.64,113.775,81.12,113.456,82.463,113.087z"/>
</g>
</svg>
