<?xml version="1.0" encoding="iso-8859-1"?>
<!-- Generator: Adobe Illustrator 17.1.0, SVG Export Plug-In . SVG Version: 6.00 Build 0)  -->
<!DOCTYPE svg PUBLIC "-//W3C//DTD SVG 1.1//EN" "http://www.w3.org/Graphics/SVG/1.1/DTD/svg11.dtd">
<svg version="1.1" id="Capa_1" xmlns="http://www.w3.org/2000/svg" xmlns:xlink="http://www.w3.org/1999/xlink" x="0px" y="0px"
	 viewBox="0 0 150 150" style="enable-background:new 0 0 150 150;" xml:space="preserve">
<g>
	<path d="M5.751,30.345c2.484-1.205,5.059-2.384,7.556-3.711c2.262-1.202,4.667-0.934,6.947-0.609
		c4.892,0.697,9.77,1.593,14.582,2.717c2.206,0.515,4.309,1.632,6.338,2.703c3.557,1.877,7.269,3.259,11.194,4.097
		c0.109,0.023,0.209,0.094,0.399,0.215c0.157,0.1,0.23,0.315,0.158,0.488c-0.996,2.4-1.801,4.931-3.108,7.169
		c-3.196,5.476-6.723,10.758-9.954,16.214c-0.762,1.287-1.167,2.938-1.251,4.449c-0.301,5.399,0.069,10.751,1.041,16.109
		c0.522,2.881,0.231,5.951,0.016,8.915c-0.31,4.271,0.338,8.395,1.226,12.538c0.954,4.453,1.655,8.959,2.582,13.418
		c1.487,7.149,3.841,14.004,7.688,20.242c1.815,2.943,3.981,5.671,6.018,8.475c0.255,0.35,0.678,0.585,1.044,0.844
		c0.07,0.049,0.162,0.067,0.277,0.085c0.16,0.025,0.268-0.1,0.243-0.285c-0.138-1.021-0.273-2.025-0.442-3.278
		c-0.025-0.185,0.077-0.247,0.227-0.134c0.393,0.297,0.563,0.449,0.762,0.537c0.423,0.186,1.114,0.562,1.261,0.417
		c0.335-0.327,0.517-0.912,0.562-1.411c0.074-0.823,0.035-1.656,0.026-2.558c-0.002-0.187,0.139-0.282,0.312-0.214
		c0.917,0.362,1.743,0.688,2.843,1.122c0.174,0.069,0.284-0.024,0.245-0.207c-0.235-1.09-0.451-1.809-0.489-2.538
		c-0.046-0.891-0.67-1.847,0.6-2.63c0.69-0.425,0.224-3.211-0.396-4.261c-0.095-0.161-0.111-0.393,0.007-0.537
		c0.266-0.324,0.544-0.627,0.66-0.983c0.135-0.415,0.104-0.884,0.111-1.439c0.002-0.187,0.154-0.291,0.331-0.231
		c0.193,0.065,0.326,0.111,0.462,0.146c1.665,0.436,1.875,0.193,1.703-1.473c-0.201-1.943-0.269-3.901-0.355-5.855
		c-0.01-0.231,0.093-0.468,0.201-0.747c0.067-0.174,0.259-0.279,0.443-0.247c1.477,0.255,1.751-0.65,1.664-2.041
		c-0.059-0.945,0.098-1.911,0.231-2.857c0.302-2.149,0.644-4.292,0.967-6.402c0.028-0.185,0.194-0.284,0.37-0.223
		c1.019,0.355,2.006,0.699,2.932,1.022c0.176,0.061,0.301-0.039,0.281-0.225c-0.34-3.124-0.263-6.082-1.16-8.705
		c-1.075-3.141-3.084-5.96-4.658-8.934c-0.358-0.677-0.511-1.469-0.91-2.115c-0.386-0.625-0.915-1.161-1.539-1.885
		c-0.122-0.141-0.073-0.297,0.106-0.352c0.51-0.156,1.079-0.353,1.664-0.425c1.545-0.19,1.818-0.736,1.032-2.059
		c-0.215-0.362-0.237-0.891-0.211-1.335c0.194-3.291,1.967-5.99,3.361-8.83c0.074-0.152,0.175-0.294,0.229-0.452
		c0.62-1.817,1.099-3.696,1.88-5.44c1.252-2.799,2.689-5.515,4.077-8.252c0.481-0.95,1.032-1.864,1.745-3.121
		c0.092-0.162,0.246-0.166,0.344-0.007c1.87,3.018,3.634,5.678,5.192,8.454c5.601,9.98,12.865,18.368,22.822,24.232
		c0.228,0.134,0.474,0.239,0.837,0.404c0.17,0.078,0.258-0.001,0.199-0.178c-0.299-0.888-0.562-1.672-0.874-2.599
		c-0.06-0.177,0.036-0.272,0.212-0.211c1.174,0.399,2.161,0.735,3.386,1.152c0.177,0.06,0.262-0.031,0.19-0.203
		c-0.32-0.765-0.545-1.303-0.774-1.851c-0.072-0.172,0.021-0.297,0.206-0.28c0.438,0.041,0.845,0.079,1.294,0.121
		c0.186,0.017,0.28-0.109,0.211-0.282c-0.318-0.794-0.601-1.502-0.896-2.239c-0.069-0.173,0.021-0.35,0.202-0.395
		c0.115-0.028,0.231-0.057,0.354-0.087c0.181-0.045,0.294-0.229,0.252-0.41c-0.337-1.457-0.677-2.925-1.045-4.514
		c-0.042-0.182,0.072-0.299,0.255-0.261c0.591,0.122,1.111,0.229,1.754,0.362c0.183,0.038,0.292-0.078,0.244-0.258
		c-0.499-1.871-0.938-3.515-1.395-5.231c-0.048-0.18,0.061-0.357,0.244-0.395c0.242-0.05,0.468-0.097,0.678-0.141
		c0.183-0.038,0.297-0.216,0.255-0.398c-0.54-2.341-1.065-4.616-1.626-7.046c-0.042-0.182,0.071-0.294,0.252-0.25
		c1.044,0.251,1.85,0.445,2.626,0.632c0.182,0.044,0.374,0.014,0.43-0.067c0.056-0.081,0.007-0.265-0.107-0.412
		c-1.769-2.274-3.394-4.69-5.395-6.738c-1.984-2.03-4.347-3.689-6.617-5.535c-0.145-0.118-0.185-0.345-0.086-0.503
		c0.254-0.407,0.519-0.8,0.675-1.232c0.105-0.29,0.049-0.884-0.14-0.997c-1.626-0.971-2.432-2.982-4.422-3.479
		c-0.067-0.017-0.12-0.091-0.179-0.184c-0.078-0.122-0.001-0.173,0.177-0.117c3.073,0.962,3.426,1.052,4.18,0.653
		c0.165-0.087,0.236-0.304,0.173-0.479c-1.048-2.939,0.548-5.597,0.925-8.253c0.026-0.185,0.191-0.355,0.376-0.38
		c4.116-0.541,8.131-0.999,12.118-1.636c2.152-0.343,4.305-0.861,6.366-1.568c5.071-1.738,10.175-3.249,15.584-3.374
		c1.906-0.044,4.151-0.011,6.191-0.008c0.187,0-0.026-0.149-0.057-0.333c-0.095-0.555-0.196-1.15-0.315-1.852
		c-0.031-0.184,0.386-0.443,0.514-0.578c0.145-0.153-0.005-0.351,0.214-0.581c0.129-0.135,0.11-0.333-0.042-0.442
		c-0.316-0.226-0.61-0.437-0.933-0.668c-0.152-0.109-0.232-0.342-0.18-0.521c0.043-0.147,0.087-0.296,0.129-0.44
		c0.053-0.179-0.017-0.426-0.156-0.551c-0.901-0.811-1.764-1.589-2.702-2.433c-0.139-0.125-0.212-0.374-0.208-0.561
		c0.025-1.095-1.329-0.928-2.135-1.371c-3.494-1.921-6.971-0.195-10.39,0.169c-8.097,0.86-15.74-0.758-23.335-3.283
		c-5.221-1.736-10.517-3.255-15.818-4.734c-4.495-1.254-9.044-2.31-13.569-3.455C69.953,5.774,63.282,4.72,56.485,5.63
		c-2.996,0.401-5.911,1.38-8.891,1.945C45.671,7.94,43.7,8.138,41.742,8.221c-6.02,0.258-12.036,0.444-17.755,2.692
		c-2.684,1.055-5.005,2.459-6.317,5.211c-0.333,0.699-1.079,1.316-1.783,1.7c-1.915,1.045-3.948,1.874-5.848,2.942
		c-0.523,0.294-0.849,0.938-1.223,1.497c-0.104,0.155-0.331,0.343-0.497,0.429c-4.222,2.209-5.471,4.769-3.097,7.549
		C5.343,30.383,5.583,30.427,5.751,30.345z"/>
</g>
</svg>
