<?xml version="1.0" encoding="iso-8859-1"?>
<!-- Generator: Adobe Illustrator 17.1.0, SVG Export Plug-In . SVG Version: 6.00 Build 0)  -->
<!DOCTYPE svg PUBLIC "-//W3C//DTD SVG 1.1//EN" "http://www.w3.org/Graphics/SVG/1.1/DTD/svg11.dtd">
<svg version="1.1" id="Capa_1" xmlns="http://www.w3.org/2000/svg" xmlns:xlink="http://www.w3.org/1999/xlink" x="0px" y="0px"
	 viewBox="0 0 150 150" style="enable-background:new 0 0 150 150;" xml:space="preserve">
<g>
	<path d="M29.097,119.863c-0.08,3.178,0.259,6.389,1.124,9.603c1.61,5.98,6.21,14.849,12.89,16.338
		c7.541,1.681,13.82-6.129,17.836-11.108c2.02-2.504,3.766-5.231,5.186-8.118c1.248-2.539,1.781-5.677,3.349-7.997
		c0.755,0.546,1.553,1.357,2.332,2.004c0.873,0.724,1.812,1.305,2.846,1.694v0.236c0.117-0.032,0.226-0.08,0.341-0.118
		c0.114,0.037,0.224,0.085,0.341,0.118v-0.236c1.034-0.389,1.973-0.97,2.846-1.694c0.779-0.646,1.577-1.457,2.332-2.004
		c1.569,2.32,2.101,5.458,3.349,7.997c1.419,2.887,3.166,5.614,5.186,8.118c4.016,4.979,10.295,12.789,17.836,11.108
		c6.68-1.489,11.28-10.358,12.89-16.338c0.865-3.214,1.204-6.425,1.124-9.603c-0.192-7.646-2.804-15.107-6.334-21.986
		c-0.433-0.843-0.39-1.538-0.038-2.297c1.1-2.376,2.2-4.752,3.344-7.107c0.408-0.839,0.757-1.71,1.621-2.289
		c0.031-0.021,0.06-0.044,0.089-0.068c0.067-0.037,0.131-0.084,0.189-0.143c0.154-0.154,0.236-0.355,0.249-0.56
		c0.112-0.434,0.041-0.935-0.204-1.345c-0.369-0.618-0.835-1.177-1.249-1.768c-0.281-0.4-0.639-0.533-1.136-0.513
		c-2.768,0.11-5.54,0.142-8.306,0.296c-1.237,0.069-2.477,0.299-3.625,0.901c-0.09-0.111-0.184-0.206-0.255-0.317
		c-1.445-2.217-2.753-4.591-4.348-6.7c-1.66-2.195-3.952-3.93-4.955-6.576c-1.399-3.692-1.15-8.174-2.211-12.061
		c1.245,0.218,2.429,0.386,3.596,0.637c2.476,0.533,4.936,1.175,7.307,2.073c2.368,0.897,4.03,2.541,6.465,1.329
		c6.585-3.278-7.092-14.14-9.713-16.972c-3.297-3.562-3.499-7.107-0.601-11.057c1.756-2.395,4.37-5.103,6.157-7.475
		c1.736-2.305,1.245-4.415,2.03-7.091c0.9-3.07,2.374-6.007,3.512-8.997c0.606-1.592,0.962-3.254,0.916-4.97
		c-0.768-0.308-0.782-0.313-1.065,0.415c-2.213,5.695-4.156,10.967-7.615,16.136c-2.849,4.258-6.096,8.227-9.408,12.129
		c-0.852,1.003-5.605,8.119-1.819,8.546c1.055,0.119,1.777,0.613,2.477,1.409c1.426,1.62,2.972,3.136,4.502,4.661
		c1.919,1.913,3.797,3.861,5.353,6.087c0.486,0.695,0.916,1.433,1.108,2.279c-0.116,0.12-0.226,0.245-0.329,0.377
		c-0.185-0.031-0.36-0.061-0.533-0.096c-2.695-0.549-5.3-1.407-7.8-2.526c-1.396-0.625-4.521-1.474-5.451-2.709
		c-0.468-0.621-0.687-1.389-0.897-2.137c-1.306-4.659-3.058-9.291-4.218-13.928c-0.637-2.99,3.022-6.301,3.366-9.505
		c0.249-2.319-0.444-4.841-2.234-6.335c-3.062-2.556-5.167,0.368-8.258,0.191c-0.262-1.931,1.369-3.834,0.642-5.648
		c-0.607,0.02-1.388,0.16-1.9,0.522c-0.525,0.371-0.816,1.072-1.21,1.629c-0.065-0.025-0.131-0.05-0.197-0.076
		C75.95,15.465,79.519,5.599,80.024,4.05c-1.309-0.255-2.607,0.522-3.075,1.814C76.689,4.083,75.606,4.573,75,5.399
		c-0.606-0.825-1.689-1.316-1.95,0.465c-0.534-1.475-1.614-1.93-3.091-1.9c0.854,4.11,1.83,8.135,2.123,12.268
		c-0.065,0.025-0.131,0.05-0.196,0.075c-0.394-0.557-0.685-1.258-1.21-1.629c-0.512-0.362-1.293-0.502-1.9-0.522
		c-0.727,1.814,0.903,3.717,0.642,5.648c-3.091,0.177-5.196-2.747-8.258-0.191c-1.79,1.494-2.483,4.016-2.234,6.335
		c0.344,3.204,4.004,6.515,3.366,9.505c-1.159,4.637-2.912,9.269-4.218,13.928c-0.21,0.749-0.429,1.516-0.897,2.137
		c-0.931,1.236-4.055,2.084-5.451,2.709c-2.5,1.119-5.105,1.977-7.8,2.526c-0.173,0.035-0.348,0.065-0.533,0.096
		c-0.103-0.132-0.213-0.257-0.329-0.377c0.191-0.845,0.622-1.584,1.108-2.279c1.557-2.226,3.434-4.174,5.353-6.087
		c1.53-1.525,3.076-3.042,4.502-4.661c0.701-0.796,1.423-1.29,2.477-1.409c3.785-0.427-0.967-7.543-1.819-8.546
		c-3.313-3.902-6.559-7.87-9.409-12.129c-3.459-5.169-5.401-10.441-7.615-16.136c-0.283-0.729-0.297-0.723-1.065-0.415
		c-0.046,1.716,0.31,3.378,0.916,4.97c1.138,2.99,2.612,5.926,3.512,8.997c0.785,2.676,0.293,4.785,2.03,7.091
		c1.787,2.372,4.401,5.08,6.157,7.475c2.898,3.951,2.696,7.495-0.601,11.057c-2.621,2.832-16.298,13.693-9.713,16.972
		c2.436,1.213,4.097-0.432,6.465-1.329c2.371-0.898,4.831-1.54,7.307-2.073c1.167-0.251,2.352-0.419,3.596-0.637
		c-1.061,3.886-0.811,8.369-2.211,12.061c-1.003,2.646-3.296,4.381-4.955,6.576c-1.595,2.109-2.903,4.483-4.348,6.7
		c-0.072,0.11-0.165,0.206-0.255,0.317c-1.147-0.602-2.387-0.832-3.625-0.901c-2.766-0.154-5.538-0.186-8.306-0.296
		c-0.497-0.02-0.856,0.113-1.136,0.513c-0.414,0.591-0.881,1.15-1.249,1.768c-0.245,0.41-0.316,0.911-0.204,1.345
		c0.013,0.205,0.095,0.406,0.249,0.56c0.059,0.059,0.122,0.105,0.189,0.143c0.029,0.023,0.057,0.047,0.089,0.068
		c0.864,0.578,1.213,1.449,1.621,2.289c1.144,2.355,2.243,4.732,3.344,7.107c0.352,0.759,0.395,1.454-0.038,2.297
		C31.901,104.756,29.288,112.217,29.097,119.863z M113.36,84.849c0.053,1.031,0.63,1.594,1.311,2.126l-0.691,2.214
		c-0.638,1.586-1.285,3.192-1.953,4.852c-1.836-2.711-3.472-5.403-4.885-8.468C109.248,85.328,111.267,85.093,113.36,84.849z
		 M36.64,84.849c2.093,0.244,4.112,0.479,6.219,0.725c-1.413,3.065-3.05,5.757-4.885,8.468c-0.112-0.277-0.22-0.546-0.33-0.82
		c-0.551-1.368-1.091-2.711-1.623-4.032l-0.691-2.214c0.656-0.513,1.206-1.064,1.292-2.027
		C36.624,84.912,36.638,84.886,36.64,84.849z"/>
</g>
</svg>
