<?xml version="1.0" encoding="iso-8859-1"?>
<!-- Generator: Adobe Illustrator 17.1.0, SVG Export Plug-In . SVG Version: 6.00 Build 0)  -->
<!DOCTYPE svg PUBLIC "-//W3C//DTD SVG 1.1//EN" "http://www.w3.org/Graphics/SVG/1.1/DTD/svg11.dtd">
<svg version="1.1" id="Capa_1" xmlns="http://www.w3.org/2000/svg" xmlns:xlink="http://www.w3.org/1999/xlink" x="0px" y="0px"
	 viewBox="0 0 150 150" style="enable-background:new 0 0 150 150;" xml:space="preserve">
<g>
	<path d="M142.38,14.359c-0.106,0.116-0.212,0.233-0.318,0.349c0.148-0.331,0.29-0.664,0.424-0.999
		c0.516-1.286,0.074-1.438-1.253-1.701c-3.521-0.698-5.929,1.219-8.53,2.603c-5.418,2.882-11.074,5.251-16.98,7.142
		c-1.924,0.616-3.728,1.444-4.458,3.575c-0.078,0.228-0.251,0.454-0.45,0.577c-3.008,1.86-6.018,3.716-9.046,5.545
		c-2.691,1.625-5.626,2.939-8.069,4.869c-9.881,7.811-19.916,15.465-29.311,23.839c-8.247,7.349-15.775,15.522-23.494,23.46
		c-0.83,0.854-1.709,1.629-2.611,2.368c-0.335,0.201-0.684,0.379-1.022,0.575c-2.204,1.052-4.407,2.104-6.611,3.156
		c-0.472,0.225-0.224,0.826,0.194,0.9c0.066,0.062,0.147,0.109,0.261,0.116c1.097,0.587,1.587,1.943,1.188,3.115
		c-0.008,0.023-0.004,0.042-0.008,0.064c-0.172,0.276-0.375,0.582-0.637,0.975c-3.05,4.569-6.344,8.999-8.88,13.896
		c-1.905,3.677-2.841,7.971-4.083,12.044c-0.319,1.048-0.781,1.579-1.827,1.82c-1.175,0.27-2.334,0.59-3.489,0.92
		c-1.301,0.216-2.623,0.34-3.965,0.38c-0.053-0.007-0.101-0.001-0.147,0.006c-0.068-0.029-0.129-0.069-0.2-0.094
		c-0.222-0.079-0.395-0.002-0.497,0.139c-0.235,0.198-0.306,0.619,0.034,0.836c0.08,0.051,0.16,0.102,0.24,0.153
		c0.026,0.034,0.055,0.068,0.095,0.097c0.352,0.253,0.72,0.468,1.092,0.671c0.678,0.853,1.053,2.03,1.607,2.916
		c0.43,0.687,1.035,1.18,1.754,1.445c-0.018,0.169-0.046,0.336-0.082,0.475c-0.335,1.281-0.82,2.507-1.101,3.804
		c-0.572,2.643-1.111,5.324-1.666,8.085c-0.338,0.927-0.737,1.833-1.182,2.723c-0.068,0.062-0.129,0.13-0.197,0.191
		c-0.262,0.237-0.164,0.55,0.053,0.72c0.195,0.263,0.625,0.353,0.821-0.017c0.093-0.035,0.18-0.097,0.242-0.213l0.172-0.326
		c5.84-5.453,10.314-12.116,13.151-19.541c0.226-0.152,0.461-0.286,0.687-0.39c5.822-2.676,10.472-6.786,14.577-11.581
		c4.496-5.252,10.1-9.203,15.568-13.308c4.958-3.722,10.008-7.324,14.971-11.04c8.942-6.694,17.849-13.434,26.776-20.15
		c0.38-0.286,0.805-0.513,1.327-0.841c0.032,0.679,0.055,1.172,0.078,1.665c0.125,0.083,0.249,0.167,0.374,0.25
		c1.321-1.651,2.642-3.303,4.188-5.235c-0.047,3.094-0.09,5.891-0.132,8.689c0.089,0.081,0.178,0.162,0.266,0.243
		c1.04-1.569,2.347-2.997,3.064-4.737c1.338-3.248,2.324-6.681,3.479-10.026c0.21-0.609,0.386-1.326,0.819-1.726
		c6.777-6.267,11.445-14.304,16.797-21.777c3.95-5.515,8.184-10.802,12.293-16.19c1.455-1.598,2.91-3.196,4.365-4.793
		C143.52,14.59,142.815,13.881,142.38,14.359z"/>
</g>
</svg>
