<?xml version="1.0" encoding="iso-8859-1"?>
<!-- Generator: Adobe Illustrator 17.1.0, SVG Export Plug-In . SVG Version: 6.00 Build 0)  -->
<!DOCTYPE svg PUBLIC "-//W3C//DTD SVG 1.1//EN" "http://www.w3.org/Graphics/SVG/1.1/DTD/svg11.dtd">
<svg version="1.1" id="Capa_1" xmlns="http://www.w3.org/2000/svg" xmlns:xlink="http://www.w3.org/1999/xlink" x="0px" y="0px"
	 viewBox="0 0 150 150" style="enable-background:new 0 0 150 150;" xml:space="preserve">
<g>
	<path d="M143.698,53.433c-1.297-2.189-2.446-4.476-3.875-6.573c-1.482-2.176-3.229-4.17-4.849-6.253
		c-1.073-1.379-2.056-2.836-3.205-4.148c-1.702-1.942-3.928-3.036-6.458-3.456c-0.774-0.128-1.587-0.014-2.382-0.03
		c-0.51-0.01-0.913-0.171-0.883-0.797c0.016-0.325,0.025-0.65,0.04-0.974c0.057-1.287,0.115-2.574,0.173-3.861
		c-0.124-0.035-0.248-0.07-0.371-0.105c-0.708,1.713-1.433,3.419-2.117,5.141c-0.259,0.653-0.453,1.278-1.157,1.659
		c-1.174,0.635-2.339,1.308-3.423,2.084c-1.597,1.143-3.233,2.272-4.641,3.626c-1.518,1.459-3.222,2.464-5.249,2.773
		c-1.847,0.282-3.647,0.29-5.112-1.404c-1.284-1.486-2.832-2.761-4.357-4.015c-2.025-1.666-4.547-2.079-7.029-2.104
		c-2.599-0.026-5.244,0.171-7.793,0.662c-2.975,0.573-5.88,1.531-8.794,2.395c-2.017,0.598-4.034,1.229-5.987,2.006
		c-3.705,1.473-7.509,2.357-11.505,2.389c-0.832,0.007-1.666,0.093-2.494,0.186c-2.214,0.249-4.425,0.534-6.639,0.78
		c-1.259,0.14-2.526,0.208-3.784,0.35c-1.682,0.189-3.355,0.458-5.039,0.621c-2.117,0.204-4.249,0.273-6.361,0.513
		c-2.884,0.328-5.615,1.261-8.246,2.451c-2.143,0.969-4.224,2.075-6.355,3.073c-1.183,0.555-2.432,0.969-3.614,1.525
		c-2.83,1.332-4.159,3.624-4.114,6.722c0.027,1.865,0.104,3.73,0.159,5.595c0.003,0.108,0.01,0.217,0.021,0.325
		c0.155,1.552,0.387,3.102,0.445,4.658c0.052,1.41-0.345,2.702-1.585,3.598c-0.25,0.181-0.494,0.465-0.586,0.752
		c-0.484,1.493-1.538,2.336-2.99,2.769c-0.098,0.029-0.221,0.08-0.269,0.159c-0.142,0.237-0.252,0.494-0.375,0.743
		c0.3,0.116,0.602,0.335,0.898,0.327c0.528-0.015,1.048-0.201,1.577-0.255c1.287-0.13,3.562-1.755,3.611-2.971
		c0.056-1.393,0.49-2.671,0.675-4.005c0.193-1.396,0.022-2.839,0.049-4.261c0.036-1.921,0.063-3.844,0.18-5.761
		c0.08-1.305,0.554-2.512,1.378-3.54c0.182-0.227,0.557-0.299,0.843-0.442c0.12,0.332,0.389,0.69,0.335,0.99
		c-0.202,1.128-0.579,2.226-0.759,3.357c-0.288,1.81-0.394,3.629,0.095,5.441c0.235,0.873,0.386,1.773,0.526,2.668
		c0.232,1.484,0.375,2.983,0.65,4.459c0.19,1.018,0.635,1.992,0.8,3.012c0.387,2.404,1.155,4.657,2.257,6.827
		c1.558,3.069,2.398,6.348,2.491,9.796c0.046,1.711,0,3.423,0.006,5.135c0.003,0.927,0.32,1.704,0.982,2.394
		c0.607,0.632,1.313,1.307,1.582,2.097c0.537,1.583,0.851,3.248,1.172,4.896c0.403,2.073,0.746,4.159,1.065,6.247
		c0.188,1.228,0.334,2.468,0.393,3.707c0.03,0.628,0.214,0.923,0.83,1.049c0.963,0.196,1.316,0.707,1.49,1.638
		c0.223,1.195,0.024,2.459,0.735,3.584c0.408,0.645,0.85,0.992,1.606,0.977c0.787-0.016,1.575,0.016,2.363,0.013
		c1.456-0.006,2.911-0.011,4.366-0.047c0.215-0.005,0.426-0.182,0.703-0.31c-0.201-0.227-0.391-0.384-0.5-0.584
		c-0.095-0.173-0.19-0.443-0.117-0.583c0.075-0.144,0.349-0.243,0.542-0.256c0.631-0.041,1.266-0.01,1.896-0.057
		c0.21-0.016,0.409-0.183,0.613-0.281c-0.113-0.202-0.174-0.492-0.345-0.591c-1.675-0.962-2.689-2.555-3.756-4.052
		c-2.008-2.818-3.156-6.036-3.514-9.447c-0.31-2.955-0.26-5.948-0.369-8.924c-0.009-0.244,0.066-0.521-0.023-0.728
		c-0.356-0.823,0.002-1.484,0.477-2.075c0.449-0.559,1.028-1.012,1.497-1.557c0.678-0.788,1.415-1.556,1.927-2.447
		c0.474-0.822,0.681-1.797,1.012-2.702c0.508-1.387,1.032-2.756,2.14-3.816c1.633-1.562,2.911-1.663,4.681-0.322
		c0.899,0.681,1.789,1.374,2.711,2.022c0.496,0.349,0.958,0.294,1.255-0.321c0.246-0.509,0.691-0.586,1.171-0.43
		c0.354,0.115,0.692,0.291,1.017,0.477c1.118,0.64,2.171,1.43,3.35,1.92c3.056,1.272,6.153,2.451,9.26,3.598
		c1.845,0.681,3.745,1.132,5.756,0.986c2.127-0.154,4.261-0.234,6.393-0.314c0.981-0.037,1.082,0.191,0.696,1.083
		c-0.24,0.555-0.371,1.158-0.551,1.74c0.077,0.036,0.155,0.071,0.233,0.107c0.508-0.303,1.017-0.606,1.525-0.909
		c0.083,0.065,0.167,0.13,0.25,0.194c-0.183,0.793-0.366,1.587-0.561,2.429c0.486,0.197,0.715,0.496,0.402,1.093
		c-0.143,0.272-0.009,0.68-0.045,1.021c-0.045,0.429-0.084,0.871-0.222,1.275c-0.129,0.379-0.384,0.715-0.59,1.082
		c0.396,0.183,0.695,0.262,0.91,0.441c0.161,0.134,0.326,0.417,0.294,0.599c-0.122,0.698-0.323,1.382-0.491,2.056
		c0.868,0.436,0.88,0.527,0.316,1.316c-0.324,0.454-0.653,0.911-0.921,1.399c-0.311,0.566-0.203,0.919,0.551,0.881
		c0.701-0.035,0.966,0.295,0.799,1.01c-0.057,0.244,0.083,0.534,0.174,1.029c0.357-0.504,0.564-0.752,0.721-1.029
		c0.197-0.347,0.398-0.733,0.85-0.422c0.458,0.315,0.463,0.756,0.104,1.19c-0.224,0.271-0.494,0.521-0.648,0.828
		c-0.253,0.502-0.847,0.931-0.496,1.63c1.381-0.342,1.821,0.098,1.563,1.473c-0.056,0.298-0.008,0.616-0.008,0.963
		c1.112-0.516,1.243-0.415,1.28,0.76c0.015,0.457,0.126,0.911,0.219,1.545c0.232-0.282,0.348-0.386,0.419-0.515
		c0.649-1.175,1.274-1.278,2.2-0.294c0.263,0.28,0.471,0.671,0.561,1.046c0.276,1.146,0.149,2.351,0.961,3.412
		c0.527,0.688,0.98,1.129,1.857,1.078c2.103-0.122,4.208-0.206,6.309-0.346c0.398-0.027,0.783-0.243,1.174-0.372
		c0.049-0.09,0.097-0.18,0.146-0.27c-0.264-0.182-0.556-0.335-0.788-0.552c-1.18-1.105-2.445-2.142-3.487-3.367
		c-1.001-1.178-1.81-2.531-2.605-3.865c-0.201-0.337-0.041-0.899-0.004-1.354c0.004-0.055,0.392-0.147,0.404-0.124
		c0.171,0.343,0.305,0.703,0.454,1.057c0.069,0.164,0.147,0.323,0.222,0.485c0.176-0.099,0.481-0.172,0.507-0.301
		c0.113-0.572,0.295-1.192,0.176-1.734c-0.234-1.069,0.547-1.837,0.643-2.788c0.006-0.063,0.099-0.14,0.169-0.169
		c0.772-0.326,0.6-0.905,0.387-1.477c-0.111-0.3-0.329-0.568-0.403-0.873c-0.096-0.394-0.299-0.899,0.454-0.932
		c0.125-0.006,0.266-0.203,0.356-0.34c0.509-0.765,0.34-1.545,0.106-2.363c-0.078-0.272,0.052-0.794,0.259-0.922
		c0.728-0.448,0.99-1.173,1.163-1.883c0.14-0.576,0.386-0.569,0.789-0.434c0.206,0.069,0.393,0.197,0.782,0.398
		c-0.1-0.604-0.187-0.988-0.216-1.377c-0.011-0.16,0.105-0.328,0.164-0.493c0.163,0.063,0.38,0.082,0.477,0.199
		c0.213,0.26,0.365,0.57,0.542,0.86c0.078-0.002,0.156-0.003,0.234-0.005c0.066-0.456,0.087-0.924,0.214-1.363
		c0.081-0.283,0.317-0.521,0.483-0.779c0.259,0.192,0.586,0.338,0.759,0.589c0.177,0.258,0.204,0.62,0.338,1.077
		c0.27-0.286,0.471-0.43,0.581-0.626c0.286-0.51,0.531-1.043,0.793-1.566c0.493-0.986,0.867-1.179,1.993-1.116
		c0.164,0.009,0.392-0.151,0.502-0.298c0.534-0.716,1.006-1.481,1.563-2.178c0.58-0.725,1.534-0.57,1.953,0.262
		c0.088,0.174,0.209,0.331,0.432,0.678c0.164-0.5,0.324-0.81,0.362-1.134c0.142-1.234,1.044-1.95,2.247-1.573
		c0.337,0.105,0.822-0.245,1.233-0.401c0.434-0.165,0.857-0.36,1.295-0.515c0.195-0.069,0.436-0.025,0.619-0.111
		c0.868-0.406,1.714-0.861,2.586-1.258c1.035-0.472,1.235-0.389,1.882,0.6c0.088,0.135,0.22,0.242,0.419,0.455
		c0-0.366-0.03-0.588,0.008-0.798c0.04-0.223,0.143-0.435,0.219-0.652c0.213,0.077,0.44,0.128,0.635,0.237
		c0.289,0.161,0.555,0.362,0.832,0.547c0.054-0.036,0.109-0.071,0.164-0.107c-0.404-0.992-0.809-1.984-1.258-3.088
		c0.495,0,0.888,0,1.428,0c-0.954-1.683,1.14-1.296,1.311-2.224c0.683,0.276,1.366,0.553,2.171,0.879
		c-0.152-0.34-0.303-0.628-0.411-0.931c-0.226-0.639-0.731-1.393-0.022-1.911c0.676-0.494,1.217-1.018,1.557-1.77
		c0.042-0.092,0.153-0.224,0.226-0.22c0.933,0.049,1.196-0.545,1.303-1.31c0.01-0.071,0.095-0.128,0.136-0.198
		c0.768-1.301,0.763-1.298,1.488-0.083c0.085,0.143,0.255,0.325,0.386,0.326c0.122,0.001,0.317-0.196,0.357-0.341
		c0.158-0.563,0.33-1.133,0.382-1.712c0.097-1.078,0.161-1.171,1.205-1.09c0.336-1.108,0.573-1.169,1.424-0.309
		c0.368,0.373,0.703,0.52,1.208,0.237c1.368-0.765,2.44-0.379,3.069,1.074c0.211,0.488,0.488,0.713,1.068,0.495
		c0.29-0.109,0.665-0.009,0.999,0.025c0.911,0.092,1.749,0.702,2.753,0.232c0.457-0.214,1.007-0.144,1.053,0.671
		c0.017,0.294,0.429,0.784,0.679,0.795c0.4,0.019,1.021-0.038,0.935-0.798c-0.011-0.096,0.341-0.305,0.542-0.331
		c0.167-0.021,0.359,0.149,0.53,0.23c0.628-0.971,0.854-0.979,1.433-0.111c0.03,0.045,0.045,0.099,0.075,0.143
		c0.352,0.521,1.106,0.668,1.712,0.376c0.657-0.315,0.298-0.755,0.164-1.155c-0.178-0.529-0.096-0.854,0.543-0.845
		c0.157,0.002,0.314-0.023,0.499-0.038c-0.522-1.147-1.045-2.248-1.525-3.368c-0.291-0.679-0.482-1.401-0.783-2.075
		c-0.161-0.362-0.473-0.655-0.691-0.996c-0.378-0.59-0.298-1.044,0.29-1.519c0.728-0.588,1.372-1.286,2.003-1.982
		c0.167-0.184,0.302-0.641,0.195-0.791c-0.652-0.919,0.035-1.251,0.646-1.607c0.958-0.557,1.887-1.26,2.114-2.327
		c0.34-1.598,0.142-3.235-0.688-4.693C145.448,56.19,144.53,54.836,143.698,53.433z"/>
</g>
</svg>
