<?xml version="1.0" encoding="iso-8859-1"?>
<!-- Generator: Adobe Illustrator 17.1.0, SVG Export Plug-In . SVG Version: 6.00 Build 0)  -->
<!DOCTYPE svg PUBLIC "-//W3C//DTD SVG 1.1//EN" "http://www.w3.org/Graphics/SVG/1.1/DTD/svg11.dtd">
<svg version="1.1" id="Capa_1" xmlns="http://www.w3.org/2000/svg" xmlns:xlink="http://www.w3.org/1999/xlink" x="0px" y="0px"
	 viewBox="0 0 150 150" style="enable-background:new 0 0 150 150;" xml:space="preserve">
<g>
	<path d="M2.784,63.701c0.573,1.075,1.422,1.497,2.033,1.661c0.324,0.087,0.695,0.131,1.102,0.131c0.883,0,1.765-0.207,2.238-0.319
		c0.116-0.027,0.211-0.05,0.275-0.062c0.33-0.058,0.85,0.088,1.032,0.143c0.105,0.123,0.363,0.401,0.697,0.617
		c0.51,0.328,1.761,0.332,1.813,0.332c0.101,0,0.186-0.003,0.304-0.011c0.241,0,0.468,0.115,0.478,0.115
		c0.215,0.183,0.789,0.677,0.921,0.809c0.098,0.1,0.239,0.182,0.419,0.285c0.202,0.117,0.453,0.263,0.709,0.477
		c0.304,0.246,0.608,0.529,0.789,0.702c-0.141,0.199-0.301,0.523-0.182,0.866c0.184,0.518,1.07,1.926,1.109,1.988
		c0.316,0.486,1.231,1.568,1.87,2.324c0.587,0.713,1.112,1.232,1.939,1.917c0.38,0.311,0.97,0.741,1.541,1.157
		c0.672,0.49,1.367,0.997,1.638,1.25c0.501,0.475,1.838,1.67,2.23,1.995c0.316,0.272,0.856,0.681,1.02,0.803
		c0.134,0.262,0.716,1.398,0.949,1.786c0.244,0.413,0.643,0.842,1.253,1.347c0.343,0.287,1.277,0.837,2.36,1.474
		c0.579,0.341,1.183,0.695,1.711,1.021c0.854,0.527,1.961,1.09,2.937,1.586c0.715,0.364,1.332,0.678,1.679,0.892
		c0.826,0.506,2.344,1.286,2.359,1.286c0.104,0.089,0.457,0.382,0.691,0.446c0.115,0.034,0.186,0.039,0.237,0.042
		c0.043,0.003,0.061,0.004,0.131,0.034c0.111,0.048,0.37,0.216,0.554,0.342c0.029,0.149,0.1,0.387,0.27,0.529
		c0.045,0.038,0.159,0.085,0.219,0.085c0.094,0,0.201-0.037,0.279-0.171c0.052,0.042,0.109,0.086,0.172,0.129
		c0.124,0.088,0.247,0.144,0.368,0.167c0.015,0.122,0.044,0.265,0.1,0.372c0.018,0.033,0.031,0.064,0.046,0.096
		c0.062,0.136,0.137,0.304,0.378,0.52c0.138,0.122,0.988,0.946,1.738,1.673c0.625,0.605,1.237,1.2,1.501,1.449
		c0.291,0.275,0.554,0.438,0.76,0.532c-0.195,0.209-0.439,0.497-0.581,0.765c-0.277,0.521-0.33,1.007-0.341,1.185
		c-0.188,0.336-1.168,2.104-1.43,2.763c-0.173,0.425-0.127,1.374-0.08,1.743c0.023,0.173,0.063,0.384,0.151,0.53
		c-0.037,0.184-0.105,0.546-0.151,0.895c-0.058,0.508-0.031,0.825,0.281,1.475c0.308,0.646,0.814,1.009,1.51,1.081
		c0.632,0.061,1.117-0.188,1.136-0.196c0.096-0.051,0.148-0.157,0.13-0.265s-0.104-0.189-0.212-0.205
		c-0.014-0.002-0.062-0.008-0.126-0.016l0.025-0.008c0.101-0.031,0.171-0.121,0.177-0.226s-0.055-0.201-0.15-0.243
		c-0.021-0.009-0.203-0.085-0.417-0.085c-0.037,0-0.074,0.002-0.146,0.01c-0.136,0-0.428-0.083-0.676-0.308
		c-0.196-0.181-0.215-0.321-0.098-0.752c0.029-0.107,0.071-0.199,0.116-0.274l0.105,0.188c0.057,0.102,0.177,0.154,0.289,0.117
		c0.112-0.033,0.187-0.141,0.178-0.257l-0.03-0.425c0.275-0.016,0.295-0.358,0.309-0.586c0.012-0.197,0.012-0.429,0.012-0.562
		c0-0.315-0.117-0.818-0.212-1.225c-0.06-0.262-0.055-0.442-0.051-0.634l0.003-0.161c0-0.241,0-0.353,0.028-0.572
		c0.007-0.068,0.052-0.174,0.1-0.284c0.07-0.162,0.149-0.346,0.182-0.555c0.028-0.164,0.262-0.405,0.365-0.493l0.089-0.003
		c0.192,0.148,0.524,0.078,0.575,0.054c0.089-0.044,0.144-0.136,0.14-0.235L48.63,98.25c0.104-0.05,0.17-0.14,0.182-0.248
		c0.003-0.03,0.002-0.06-0.003-0.088c0.004-0.004,0.009-0.009,0.013-0.014c0.043,0.046,0.09,0.097,0.141,0.151
		c0.231,0.25,0.623,0.771,1.002,1.277c0.296,0.395,0.583,0.776,0.782,1.015c0.196,0.233,0.398,0.347,0.619,0.347
		c0.226,0,0.406-0.121,0.566-0.228c0.07-0.047,0.142-0.096,0.226-0.133c0.191-0.092,0.509-0.153,0.815-0.213
		c0.227-0.044,0.454-0.089,0.653-0.146c0.42-0.123,0.7-0.08,1.283,0.035c0.387,0.071,0.684,0.286,0.806,0.388
		c0.025,0.2,0.086,0.69,0.129,1.128c0.05,0.502,0.007,1.039-0.043,1.661l-0.014,0.176c-0.055,0.688-0.281,1.953-0.564,3.146
		c-0.2,0.844-0.344,1.207-0.438,1.447c-0.04,0.104-0.073,0.188-0.099,0.274c-0.016,0.051-0.062,0.205,0.035,0.334
		c0.047,0.062,0.154,0.114,0.233,0.114c0.073,0,0.155-0.027,0.245-0.081l0.175,0.099c-0.023,0.183-0.079,0.512-0.205,0.899
		c-0.199,0.635-0.263,1.042-0.266,1.06c-0.011,0.072,0.01,0.146,0.058,0.201c0.047,0.055,0.116,0.087,0.189,0.087h0.091
		c-0.015,0.088-0.025,0.182-0.025,0.265c0,0.071-0.015,0.151-0.032,0.255c-0.029,0.173-0.067,0.4-0.085,0.729
		c-0.026,0.553,0.028,1.043,0.031,1.063c0.006,0.058,0.032,0.111,0.074,0.151c0.017,0.016,0.083,0.075,0.19,0.108
		c-0.084,0.215-0.208,0.594-0.186,0.927c0.035,0.6,0.282,1.192,0.373,1.392c-0.026,0.247-0.096,0.997-0.018,1.372
		c0.077,0.353,0.279,0.746,0.36,0.896c-0.001,0.312,0.02,1.576,0.395,2.427c0.446,1.012,1.236,1.627,1.478,1.798
		c0.084,0.211,0.336,0.806,0.618,1.111c0.417,0.467,0.917,0.744,1.486,0.823c0.732,0.109,1.191-0.505,1.209-0.529
		c0.065-0.09,0.063-0.211-0.004-0.299c-0.047-0.061-0.117-0.095-0.189-0.098c0.112-0.082,0.191-0.175,0.233-0.243
		c0.053-0.086,0.049-0.194-0.009-0.276c-0.059-0.082-0.165-0.118-0.258-0.099c0,0-0.282,0.063-0.408,0.118
		c-0.114,0-0.443-0.123-0.601-0.182l-0.105-0.038c-0.01-0.004-0.02-0.008-0.029-0.012c0.043-0.099,0.018-0.215-0.063-0.287
		c-0.028-0.025-0.281-0.25-0.433-0.336c-0.031-0.021-0.057-0.077-0.055-0.048c0-0.031-0.003-0.208-0.033-0.356
		c-0.045-0.237-0.521-0.783-0.801-1.087c-0.294-0.323-0.716-0.99-0.906-1.347c-0.121-0.229-0.284-0.732-0.379-1.047
		c0.055-0.028,0.117-0.057,0.174-0.073c0.309-0.093,0.34-0.28,0.328-0.469l-0.003-0.086c0-0.291-0.257-0.845-0.497-1.217
		c-0.104-0.161-0.15-0.335-0.172-0.47h0.271c0.082,0,0.159-0.041,0.206-0.108c0.047-0.068,0.057-0.155,0.027-0.231l-0.686-1.773
		l0.004-0.098c0.058,0.04,0.113,0.079,0.161,0.113c0.087,0.064,0.326,0.109,0.429-0.025c0.093-0.124,0.052-0.265,0.009-0.413
		c-0.014-0.046-0.038-0.131-0.039-0.159c0-0.139-0.08-0.443-0.47-1.486c-0.007-0.016-0.014-0.034-0.021-0.055
		c0.017,0.029,0.032,0.059,0.047,0.088c0.051,0.103,0.166,0.157,0.276,0.133c0.112-0.024,0.193-0.121,0.197-0.235
		c0.001-0.034,0.029-0.852-0.03-1.374c-0.016-0.145-0.038-0.302-0.06-0.458c-0.003-0.022-0.007-0.046-0.01-0.071
		c0.109,0.078,0.249,0.052,0.316-0.008c0.127,0.255,0.377,0.511,0.405,0.539c0.078,0.079,0.198,0.096,0.294,0.046
		c0.098-0.052,0.15-0.16,0.129-0.269l-0.134-0.708c0.189,0.195,0.582,0.533,0.765,0.667c0.206,0.158,0.564,0.537,0.568,0.541
		c0.075,0.078,0.19,0.101,0.291,0.053c0.099-0.048,0.154-0.153,0.138-0.262l-0.058-0.369c-0.034-0.208-0.266-0.566-0.471-0.792
		c0.043-0.022,0.08-0.058,0.104-0.102c0.014-0.025,0.335-0.619,0.396-1.235c0.002-0.025,0.005-0.053,0.007-0.08
		c0.244,0.709,0.558,1.525,0.909,2.211c0.696,1.353,1.589,1.983,1.936,2.229c0.309,0.225,1.486,0.922,2.811,1.176
		c0.573,0.113,1.229,0.171,1.948,0.171c0.496,0,0.886-0.027,1.062-0.04c0.047,0.101,0.153,0.306,0.424,0.306
		c0.46,0,1.257-1.411,1.411-1.694c0.076-0.138,0.188-0.345,0.315-0.58c0.952,3.215,2.507,5.112,4.219,5.112s3.267-1.897,4.219-5.112
		c0.127,0.235,0.239,0.442,0.314,0.58c0.155,0.283,0.952,1.694,1.412,1.694c0.246,0,0.356-0.17,0.424-0.306
		c0.177,0.013,0.567,0.04,1.062,0.04c0.72,0,1.375-0.058,1.946-0.171c1.326-0.254,2.504-0.951,2.824-1.184
		c0.335-0.238,1.228-0.869,1.924-2.222c0.352-0.686,0.665-1.502,0.909-2.211c0.002,0.027,0.005,0.054,0.007,0.079
		c0.062,0.617,0.383,1.211,0.396,1.236c0.024,0.044,0.062,0.079,0.105,0.102c-0.208,0.229-0.438,0.585-0.473,0.794l-0.057,0.367
		c-0.017,0.108,0.039,0.214,0.138,0.262c0.1,0.05,0.216,0.026,0.291-0.053c0.1-0.105,0.397-0.409,0.563-0.538
		c0.187-0.137,0.579-0.473,0.77-0.67l-0.134,0.708c-0.021,0.108,0.031,0.217,0.129,0.269c0.094,0.049,0.215,0.032,0.294-0.046
		c0.028-0.028,0.283-0.289,0.404-0.537c0.069,0.063,0.209,0.083,0.317,0.006c-0.003,0.025-0.007,0.049-0.01,0.071
		c-0.021,0.156-0.044,0.313-0.059,0.456c-0.061,0.524-0.032,1.342-0.031,1.376c0.004,0.114,0.085,0.211,0.197,0.235
		c0.112,0.026,0.226-0.03,0.276-0.133c0.015-0.029,0.031-0.06,0.048-0.089c-0.009,0.021-0.017,0.042-0.023,0.059
		c-0.389,1.04-0.469,1.345-0.469,1.483c-0.001,0.028-0.025,0.113-0.039,0.159c-0.043,0.148-0.084,0.289,0.009,0.413
		c0.102,0.135,0.345,0.089,0.426,0.027c0.048-0.034,0.105-0.074,0.164-0.115l0.004,0.098l-0.686,1.773
		c-0.029,0.076-0.02,0.163,0.027,0.231c0.047,0.067,0.124,0.108,0.206,0.108H93.1c-0.021,0.135-0.068,0.309-0.171,0.469
		c-0.241,0.373-0.498,0.927-0.498,1.218l-0.003,0.086c-0.012,0.188,0.02,0.376,0.33,0.47c0.056,0.016,0.117,0.044,0.172,0.072
		c-0.095,0.314-0.258,0.818-0.379,1.046c-0.19,0.357-0.612,1.024-0.905,1.347c-0.28,0.305-0.757,0.851-0.801,1.084
		c-0.028,0.142-0.033,0.306-0.03,0.32c-0.007,0.022-0.025,0.067-0.05,0.083c-0.16,0.091-0.413,0.315-0.441,0.341
		c-0.081,0.072-0.106,0.188-0.063,0.287c-0.009,0.003-0.018,0.007-0.026,0.01l-0.107,0.04c-0.158,0.059-0.487,0.182-0.568,0.191
		c-0.159-0.064-0.441-0.128-0.441-0.128c-0.092-0.021-0.199,0.017-0.258,0.099c-0.058,0.082-0.062,0.19-0.009,0.276
		c0.042,0.068,0.121,0.161,0.233,0.243c-0.073,0.003-0.143,0.037-0.189,0.098c-0.067,0.088-0.069,0.209-0.004,0.299
		c0.016,0.022,0.398,0.542,1.039,0.542c0.056,0,0.111-0.004,0.169-0.012c0.57-0.08,1.07-0.357,1.484-0.82
		c0.285-0.31,0.537-0.904,0.621-1.115c0.241-0.171,1.031-0.785,1.478-1.798c0.375-0.851,0.396-2.115,0.395-2.427
		c0.081-0.149,0.284-0.544,0.361-0.898c0.077-0.372,0.008-1.122-0.019-1.369c0.091-0.198,0.338-0.791,0.372-1.39
		c0.023-0.334-0.1-0.712-0.185-0.929c0.107-0.032,0.174-0.093,0.19-0.108c0.042-0.04,0.068-0.094,0.074-0.151
		c0.003-0.021,0.058-0.511,0.031-1.064c-0.018-0.327-0.056-0.555-0.085-0.728c-0.018-0.104-0.032-0.184-0.032-0.255
		c0-0.083-0.011-0.177-0.025-0.265h0.091c0.073,0,0.143-0.032,0.189-0.087c0.048-0.056,0.068-0.129,0.058-0.201
		c-0.003-0.018-0.066-0.425-0.267-1.063c-0.126-0.385-0.182-0.714-0.204-0.896l0.175-0.099c0.09,0.054,0.172,0.081,0.245,0.081
		c0.079,0,0.187-0.052,0.233-0.114c0.097-0.129,0.051-0.283,0.035-0.334c-0.025-0.087-0.059-0.171-0.099-0.274
		c-0.095-0.24-0.238-0.604-0.438-1.447c-0.283-1.193-0.51-2.458-0.564-3.146l-0.014-0.176c-0.05-0.622-0.093-1.159-0.043-1.661
		c0.043-0.438,0.104-0.928,0.129-1.128c0.122-0.101,0.419-0.316,0.808-0.389c0.579-0.113,0.859-0.157,1.281-0.034
		c0.199,0.058,0.427,0.103,0.653,0.146c0.307,0.06,0.624,0.121,0.823,0.216c0.076,0.034,0.147,0.083,0.218,0.13
		c0.16,0.106,0.341,0.228,0.566,0.228c0.221,0,0.423-0.113,0.619-0.348c0.199-0.237,0.486-0.619,0.782-1.014
		c0.379-0.505,0.771-1.027,1.001-1.277c0.051-0.055,0.099-0.104,0.142-0.151c0.004,0.005,0.009,0.01,0.013,0.014
		c-0.005,0.028-0.006,0.058-0.003,0.088c0.012,0.104,0.071,0.19,0.182,0.247l-0.021,0.504c-0.004,0.1,0.051,0.191,0.14,0.235
		c0.051,0.024,0.344,0.125,0.611-0.082c0.123,0.093,0.386,0.343,0.417,0.521c0.033,0.213,0.112,0.396,0.183,0.559
		c0.048,0.11,0.093,0.216,0.101,0.289c0.027,0.215,0.027,0.326,0.027,0.567l0.003,0.161c0.004,0.191,0.009,0.372-0.051,0.636
		c-0.095,0.404-0.212,0.907-0.212,1.223c0,0.702,0,1.132,0.32,1.148l-0.03,0.425c-0.009,0.116,0.065,0.224,0.178,0.257
		c0.113,0.038,0.232-0.016,0.289-0.117l0.105-0.188c0.045,0.075,0.087,0.168,0.116,0.274c0.117,0.431,0.099,0.571-0.096,0.75
		c-0.246,0.224-0.534,0.307-0.705,0.307c-0.003,0-0.005,0-0.007,0c-0.259-0.033-0.505,0.068-0.529,0.078
		c-0.096,0.042-0.156,0.139-0.15,0.243s0.076,0.194,0.177,0.226l0.025,0.008c-0.064,0.008-0.112,0.014-0.126,0.016
		c-0.107,0.016-0.193,0.098-0.212,0.205s0.034,0.214,0.13,0.265c0.019,0.009,0.484,0.258,1.138,0.196
		c0.693-0.072,1.2-0.436,1.508-1.08c0.312-0.65,0.339-0.968,0.281-1.479c-0.046-0.347-0.114-0.707-0.151-0.891
		c0.088-0.146,0.128-0.357,0.151-0.531c0.047-0.368,0.093-1.317-0.079-1.739c-0.262-0.662-1.243-2.43-1.431-2.766
		c-0.011-0.178-0.063-0.663-0.341-1.185c-0.142-0.268-0.386-0.556-0.581-0.765c0.206-0.095,0.469-0.257,0.76-0.532
		c0.264-0.249,0.876-0.844,1.501-1.449c0.75-0.727,1.601-1.551,1.74-1.674c0.239-0.215,0.314-0.383,0.376-0.519
		c0.015-0.031,0.028-0.062,0.046-0.097c0.056-0.107,0.085-0.249,0.1-0.371c0.121-0.023,0.244-0.079,0.367-0.166
		c0.062-0.044,0.12-0.087,0.173-0.13c0.078,0.134,0.186,0.171,0.279,0.171c0.06,0,0.172-0.046,0.217-0.084
		c0.171-0.143,0.242-0.381,0.271-0.53c0.184-0.126,0.441-0.294,0.554-0.342c0.07-0.03,0.088-0.031,0.131-0.034
		c0.052-0.003,0.122-0.008,0.233-0.04c0.238-0.066,0.592-0.359,0.646-0.415c0.064-0.033,1.582-0.813,2.409-1.319
		c0.346-0.214,0.963-0.527,1.678-0.892c0.976-0.496,2.082-1.059,2.936-1.586c0.529-0.325,1.133-0.68,1.712-1.021
		c1.083-0.637,2.018-1.187,2.358-1.473c0.612-0.506,1.011-0.935,1.254-1.346c0.234-0.389,0.816-1.526,0.95-1.788
		c0.163-0.122,0.703-0.529,1.015-0.8c0.397-0.328,1.734-1.523,2.234-1.997c0.271-0.254,0.967-0.761,1.639-1.251
		c0.571-0.416,1.161-0.847,1.542-1.158c0.826-0.684,1.352-1.203,1.972-1.956c0.605-0.716,1.521-1.798,1.839-2.286
		c0.037-0.061,0.924-1.469,1.108-1.988c0.118-0.341-0.042-0.665-0.183-0.864c0.181-0.173,0.486-0.457,0.792-0.705
		c0.253-0.211,0.504-0.356,0.706-0.474c0.18-0.104,0.321-0.186,0.417-0.282c0.135-0.135,0.714-0.634,0.888-0.788
		c0.002-0.001,0.245-0.137,0.56-0.137c0.002,0,0.004,0,0.007,0c0.064,0.006,0.149,0.009,0.25,0.009c0.053,0,1.304-0.004,1.814-0.332
		c0.334-0.216,0.591-0.494,0.696-0.617c0.183-0.055,0.716-0.2,1.03-0.143c0.066,0.012,0.161,0.034,0.277,0.062
		c0.474,0.111,1.355,0.319,2.238,0.319c0.406,0,0.777-0.044,1.103-0.131c0.61-0.164,1.459-0.586,2.032-1.66
		c0.23-0.432,0.933-1.745-0.329-2.654c-0.094-0.067-0.223-0.163-0.383-0.283c-0.655-0.488-1.876-1.397-3.247-2.216
		c-1.52-0.896-3.317-1.704-3.935-1.889c-0.912-0.284-2.732-0.761-4.68-0.761c-0.502,0-0.986,0.032-1.439,0.097
		c-2.899,0.41-5.771,1.844-6.854,2.383c-0.147,0.073-0.262,0.131-0.344,0.169c-0.648,0.312-2.255,1.209-3.673,2.001
		c-1.2,0.672-2.335,1.306-2.644,1.446c-0.609,0.279-2.133,1.015-2.448,1.167c-0.189-0.005-0.602,0.007-0.915,0.162
		c-0.417,0.221-0.72,0.608-0.812,0.736c-0.304,0.21-2.416,1.677-2.871,1.995c-0.467,0.332-2.091,1.415-2.8,1.841
		c-0.329,0.197-0.716,0.417-1.111,0.642c-0.466,0.265-0.942,0.536-1.35,0.785c-0.169,0.104-0.431,0.272-0.746,0.474
		c-1.001,0.642-2.677,1.715-3.319,2.013c-0.105,0.049-0.258,0.123-0.448,0.217c-0.536,0.263-1.347,0.66-2.286,1.053
		c-1.477,0.627-3.168,1.247-3.743,1.458c-1.024,0.374-2.032,0.74-2.467,0.877c-0.37,0.117-1.036,0.159-1.494,0.159
		c-0.302,0-0.474-0.021-1.08-0.238c-0.086-0.032-0.212-0.11-0.346-0.193c-0.197-0.121-0.42-0.26-0.674-0.358
		c-0.367-0.145-0.98-0.352-1.6-0.542c-0.592-0.187-1.139-0.347-1.302-0.383c-0.406-0.089-0.775-0.129-1.019-0.147
		c0.14-0.737,0.497-2.705,0.547-3.621c0.047-0.898,0.13-2.005,0.159-2.391c0.317-0.159,1.164-0.581,1.649-0.782
		c0.664-0.268,1.35-0.545,1.536-0.989c0.149-0.367,0.207-1.022,0.214-1.117v-0.67c0.181-0.09,0.487-0.269,0.778-0.553
		c0.304-0.294,0.578-0.766,0.718-1.005l0.123-0.181c0.35-0.507,1.076-1.56,1.315-2.364c0.255-0.846,0.681-2.263,0.737-3.617
		c0.064-1.402,0.122-2.283,0.205-3.144l0.013-0.141c0.081-0.872,0.165-1.773,0.35-2.651c0.109-0.511,0.311-0.995,0.473-1.386
		c0.136-0.327,0.243-0.586,0.271-0.789c0.015-0.097,0.037-0.202,0.059-0.306c0.073-0.342,0.126-0.59-0.01-0.757
		c-0.062-0.076-0.15-0.117-0.25-0.117c-0.027,0-0.101,0.013-0.126,0.021c-0.15,0.051-0.53,0.182-0.816,0.28
		c0.012-0.132,0.031-0.29,0.063-0.455c0.023-0.13,0.043-0.283,0.063-0.447c0.05-0.405,0.107-0.864,0.257-1.2
		c0.231-0.524,0.34-1.009,0.34-1.525l0.001-0.151c0.002-0.402,0.005-0.72-0.282-0.869c-0.087-0.044-0.18-0.101-0.246-0.145
		c-0.022-0.267-0.073-0.92-0.073-1.31c0-0.161,0.03-0.322,0.062-0.493c0.062-0.322,0.131-0.688-0.024-1.08
		c-0.063-0.163-0.114-0.33-0.161-0.48c-0.128-0.414-0.221-0.714-0.495-0.757c-0.046-0.007-0.088-0.012-0.126-0.016
		c-0.104-0.358-0.276-0.969-0.312-1.181c-0.016-0.075-0.024-0.181-0.035-0.301c-0.034-0.392-0.081-0.928-0.369-1.243
		c-0.123-0.133-0.202-0.255-0.272-0.363c-0.109-0.169-0.213-0.328-0.438-0.38c0-0.028-0.005-0.057-0.015-0.084
		c-0.018-0.049-0.431-1.211-0.66-1.699c-0.07-0.147-0.145-0.345-0.223-0.552c-0.24-0.632-0.416-1.059-0.657-1.228
		c-0.157-0.108-0.312-0.145-0.479-0.161c-0.248-0.521-1.013-2.057-1.91-3.139c-0.818-0.979-1.765-1.469-2.064-1.607
		c-0.109-0.231-0.425-0.851-0.859-1.277c-0.455-0.445-1.02-0.622-1.432-0.752l-0.125-0.039c-0.806-0.27-1.953,0.009-2.304,0.489
		c-0.239,0.329-0.562,1.13-0.613,1.28l-0.089,0.686c-0.016,0.124,0.062,0.24,0.183,0.272c0.116,0.036,0.246-0.028,0.296-0.143
		c0.001-0.004,0.184-0.421,0.571-0.654c0.304-0.191,0.886-0.278,1.401-0.23c0.297,0.026,0.814,0.27,1.064,0.558
		c0.065,0.072,0.112,0.148,0.147,0.221c-0.381-0.057-0.463,0.109-0.488,0.203c-0.062,0.234,0.181,0.372,0.315,0.448
		c0.121,0.065,0.24,0.12,0.337,0.162c-0.054,0.029-0.095,0.078-0.115,0.139c-0.028,0.085-0.009,0.178,0.05,0.245
		c0.021,0.023,0.215,0.235,0.615,0.452c0.137,0.073,0.278,0.144,0.433,0.22c0.259,0.13,0.555,0.277,0.929,0.49
		c0.595,0.344,1.108,0.758,1.527,1.23c0.421,0.47,0.611,0.834,0.757,1.165c0.078,0.164,0.154,0.356,0.206,0.495
		c-0.101,0.076-0.201,0.186-0.229,0.329c-0.015,0.079-0.019,0.234,0.131,0.384c0.07,0.069,0.149,0.143,0.232,0.221
		c0.183,0.17,0.39,0.362,0.58,0.589l0.188,0.216c0.241,0.271,0.571,0.645,0.647,0.887c0.085,0.282,0.223,0.76,0.284,0.972
		c-0.019,0.021-0.035,0.039-0.045,0.042c-0.16,0-0.289,0.082-0.345,0.219c-0.096,0.234,0.07,0.514,0.271,0.71
		c0.218,0.221,0.672,0.68,0.902,1.147c0.121,0.24,0.253,0.416,0.358,0.557c0.118,0.158,0.186,0.251,0.186,0.327v0.32
		c-0.046,0.015-0.097,0.027-0.144,0.027c-0.053,0-0.215,0-0.296,0.145c-0.081,0.143-0.003,0.274,0.045,0.353
		c0.046,0.077,0.116,0.194,0.173,0.395c0.067,0.226,0.215,0.541,0.371,0.875c0.169,0.362,0.379,0.813,0.393,0.973
		c0.015,0.231,0.091,0.541,0.154,0.766c-0.032,0-0.065-0.003-0.104-0.008c-0.21-0.021-0.348-0.086-0.348-0.086
		c-0.098-0.046-0.213-0.026-0.287,0.049c-0.076,0.076-0.094,0.193-0.046,0.289c0.002,0.004,0.185,0.377,0.261,1.136l0.039,0.358
		c0.079,0.722,0.169,1.54,0.076,2.019c-0.028,0.151-0.053,0.301-0.077,0.442c-0.057,0.338-0.121,0.72-0.195,0.827
		c-0.114,0.163-0.434,0.422-0.718,0.461c-0.13,0.021-0.229,0.045-0.315,0.065c-0.147,0.034-0.213,0.051-0.333,0.025
		c-0.089-0.02-0.191-0.069-0.267-0.105c-0.197-0.096-0.367-0.095-0.456,0.044c-0.049,0.076-0.047,0.203-0.005,0.283
		c0.049,0.093,0.229,0.324,0.359,0.489c-0.123,0.286-0.398,0.957-0.552,1.573c-0.145,0.582-0.188,1.101-0.221,1.518
		c-0.015,0.171-0.026,0.321-0.045,0.448c-0.093,0.697-0.185,2.361-0.233,3.255l-0.023,0.409c-0.022,0.475-0.14,0.777-0.243,1.045
		l0.233,0.09c0,0,0,0,0,0l-0.273,0.01c-0.197,0.483-0.403,1.026-0.335,1.36c0.038,0.221,0.092,0.393,0.125,0.486
		c-0.099,0.405-0.332,1.304-0.476,1.609c-0.207,0.431-0.351,1.086-0.307,1.396c0.023,0.2,0.131,0.342,0.221,0.427
		c-0.038-0.009-0.101-0.04-0.156-0.068c-0.134-0.069-0.317-0.163-0.559-0.163c-0.329,0-2.252,0.452-2.89,0.604
		c-0.336-0.301-1.456-1.271-2.662-1.907l-0.925-0.485c-0.843-0.441-1.453-0.76-1.646-0.929c-0.084-0.076-0.16-0.161-0.233-0.241
		c-0.146-0.162-0.296-0.329-0.481-0.406c0.235-0.193,0.459-0.494,0.459-0.934c0-0.8-0.19-1.063-0.595-1.436
		c-0.244-0.226-0.43-0.333-0.539-0.384l-0.121-0.2l0.252-0.107c0.092,0.019,0.231,0.032,0.43,0.011l0.159-0.011
		c0.236-0.013,0.481-0.026,0.671-0.249c0.042-0.052,0.085-0.106,0.123-0.157c0.119,0.091,0.265,0.17,0.408,0.17
		c0.026,0,0.097-0.011,0.122-0.02l0.03-0.01c0.161,0.08,0.572,0.077,0.578,0.076c0,0,0,0,0-0.001l0.139,0.032
		c0.075,0.115,0.205,0.229,0.398,0.229c0.033,0,0.07,0.014,0.138,0.039c0.094,0.036,0.224,0.086,0.408,0.103
		c0.046,0.004,0.094,0.007,0.142,0.007c0.447,0,0.754-0.229,0.843-0.632l0.052-0.241c0.099-0.444,0.233-1.054,0.208-1.559
		c-0.025-0.54-0.386-1.622-0.86-1.688c-0.118,0-0.229,0.063-0.328,0.188c-0.223,0.28-0.475,0.997-0.362,1.485
		c0.085,0.355,0.283,0.905,0.393,1.199c-0.058,0.031-0.104,0.054-0.114,0.058c-0.021-0.002-0.084-0.024-0.125-0.039
		c-0.104-0.036-0.22-0.078-0.37-0.086c-0.033-0.019-0.083-0.046-0.158-0.064c-0.068-0.019-0.156-0.025-0.229-0.021
		c-0.092-0.083-0.236-0.188-0.402-0.216c-0.011-0.001-0.081-0.006-0.093-0.006c-0.102,0-0.201,0.021-0.275,0.043
		c-0.071-0.033-0.167-0.062-0.287-0.062h-0.102c-0.141-0.126-0.438-0.347-0.8-0.347c-0.001,0-0.002,0-0.004,0
		c-0.089,0.008-0.179,0.023-0.265,0.042c0.017-0.033,0.033-0.065,0.051-0.097c0.143-0.262,0.216-0.762,0.099-1.038
		c-0.068-0.164-0.188-0.218-0.252-0.236c-0.204-0.058-0.597,0.045-0.803,0.109l-0.042-0.026c0.075-0.218,0.174-0.531,0.174-0.696
		c0-0.218-0.156-0.988-0.651-0.988c-0.25,0-0.487,0.273-0.706,0.812c-0.029-0.039-0.059-0.073-0.085-0.104
		c-0.092-0.105-0.122-0.142-0.079-0.308l0.09-0.34c0.085-0.322,0.172-0.655,0.274-0.915c0.077-0.203,0.184-0.481,0.407-0.8
		c0.086-0.124,0.2-0.252,0.316-0.384c0.137-0.155,0.276-0.314,0.387-0.474c0.136-0.189,0.258-0.366,0.371-0.531
		c0.289-0.419,0.517-0.75,0.767-0.998c0.516-0.509,1.006-1.05,1.099-1.558c0.092-0.505,0.113-0.961-0.559-1.417
		c-0.433-0.295-0.766-0.504-1.101-0.504c-0.214,0-0.398,0.088-0.547,0.263c-0.181,0.213-0.333,0.499-0.494,0.802
		c-0.135,0.254-0.274,0.518-0.428,0.721c-0.108,0.147-0.201,0.28-0.284,0.399c-0.172,0.246-0.296,0.425-0.449,0.562
		c-0.115,0.103-0.194,0.219-0.271,0.331c-0.125,0.183-0.255,0.372-0.579,0.581c-0.224,0.145-0.353,0.252-0.451,0.336
		c-0.147,0.123-0.187,0.156-0.462,0.202c-0.002,0-0.017,0.002-0.031,0.003l-0.063-0.006c-0.241-0.043-0.28-0.076-0.428-0.199
		c-0.099-0.084-0.228-0.191-0.451-0.336c-0.324-0.209-0.454-0.398-0.579-0.581c-0.077-0.112-0.156-0.229-0.271-0.33
		c-0.154-0.138-0.278-0.316-0.45-0.562c-0.083-0.119-0.176-0.252-0.285-0.399c-0.152-0.203-0.292-0.467-0.427-0.721
		c-0.161-0.303-0.313-0.589-0.494-0.803c-0.148-0.174-0.333-0.262-0.547-0.262c-0.335,0-0.668,0.209-1.101,0.504
		c-0.672,0.456-0.65,0.912-0.559,1.417c0.093,0.508,0.583,1.049,1.098,1.557c0.251,0.249,0.479,0.58,0.768,0.999
		c0.113,0.165,0.235,0.342,0.369,0.528c0.112,0.162,0.252,0.321,0.389,0.477c0.116,0.132,0.23,0.26,0.316,0.384
		c0.224,0.318,0.33,0.597,0.408,0.803c0.102,0.257,0.188,0.59,0.273,0.912l0.089,0.336c0.044,0.17,0.014,0.206-0.078,0.312
		c-0.025,0.029-0.055,0.062-0.085,0.104c-0.219-0.539-0.456-0.812-0.706-0.812c-0.495,0-0.651,0.771-0.651,0.988
		c0,0.165,0.099,0.479,0.174,0.696l-0.042,0.026c-0.206-0.064-0.595-0.167-0.804-0.109c-0.063,0.019-0.183,0.072-0.251,0.236
		c-0.117,0.276-0.044,0.776,0.1,1.039c0.018,0.032,0.035,0.066,0.052,0.101c-0.101-0.022-0.209-0.04-0.32-0.049
		c-0.322,0-0.612,0.223-0.75,0.349h-0.102c-0.12,0-0.216,0.028-0.287,0.062c-0.074-0.021-0.174-0.043-0.275-0.043
		c-0.014,0-0.087,0.005-0.101,0.007c-0.161,0.027-0.304,0.132-0.395,0.215c-0.077-0.004-0.162,0.002-0.225,0.02
		c-0.079,0.02-0.129,0.047-0.194,0.073c-0.118,0-0.234,0.042-0.338,0.078c-0.041,0.015-0.104,0.037-0.101,0.04
		c-0.024-0.005-0.076-0.028-0.138-0.06c0.109-0.294,0.307-0.844,0.392-1.199c0.112-0.487-0.14-1.204-0.362-1.484
		c-0.1-0.125-0.214-0.177-0.375-0.185c-0.428,0.062-0.788,1.145-0.813,1.684c-0.025,0.506,0.109,1.115,0.208,1.56l0.053,0.245
		c0.088,0.399,0.395,0.628,0.842,0.628c0.048,0,0.096-0.003,0.142-0.007c0.185-0.017,0.314-0.066,0.408-0.103
		c0.067-0.025,0.104-0.039,0.138-0.039c0.193,0,0.323-0.113,0.398-0.229l0.124-0.028c0.011-0.001,0.429,0.003,0.593-0.079
		l0.027,0.009c0.026,0.009,0.098,0.021,0.125,0.021c0.144,0,0.289-0.079,0.408-0.17c0.039,0.052,0.083,0.108,0.126,0.161
		c0.187,0.219,0.432,0.232,0.668,0.245l0.155,0.011c0.208,0.021,0.342,0.007,0.434-0.011l0.252,0.107l-0.121,0.2
		c-0.109,0.051-0.295,0.158-0.54,0.384c-0.403,0.372-0.594,0.636-0.594,1.436c0,0.44,0.224,0.74,0.46,0.935
		c-0.188,0.077-0.337,0.243-0.482,0.405c-0.073,0.08-0.149,0.165-0.229,0.238c-0.197,0.172-0.808,0.49-1.65,0.932l-0.925,0.485
		c-1.206,0.637-2.326,1.606-2.662,1.907c-0.638-0.152-2.561-0.604-2.89-0.604c-0.241,0-0.425,0.094-0.559,0.163
		c-0.064,0.032-0.138,0.07-0.143,0.092c-0.003-0.006-0.007-0.016-0.009-0.027c0.088-0.085,0.192-0.224,0.216-0.418
		c0.044-0.315-0.1-0.971-0.306-1.398c-0.145-0.309-0.377-1.206-0.477-1.612c0.033-0.094,0.086-0.263,0.124-0.479
		c0.069-0.341-0.137-0.884-0.334-1.367l-0.04-0.1c-0.104-0.268-0.221-0.57-0.243-1.048l-0.023-0.406
		c-0.049-0.894-0.141-2.558-0.234-3.258c-0.018-0.124-0.029-0.274-0.044-0.445c-0.033-0.417-0.076-0.936-0.221-1.518
		c-0.153-0.616-0.429-1.287-0.552-1.573c0.131-0.166,0.312-0.399,0.366-0.502c0.035-0.078,0.034-0.199-0.012-0.271
		c-0.088-0.139-0.258-0.141-0.456-0.044c-0.075,0.036-0.178,0.086-0.269,0.105c-0.113,0.025-0.184,0.009-0.331-0.025
		c-0.086-0.021-0.186-0.045-0.32-0.066c-0.279-0.038-0.599-0.297-0.713-0.461c-0.074-0.106-0.139-0.488-0.195-0.826
		c-0.024-0.142-0.049-0.291-0.078-0.443c-0.092-0.478-0.002-1.296,0.077-2.018l0.039-0.358c0.076-0.759,0.259-1.132,0.261-1.135
		c0.049-0.095,0.03-0.211-0.044-0.288s-0.19-0.097-0.287-0.052c-0.002,0.001-0.14,0.065-0.354,0.088
		c-0.034,0.004-0.066,0.007-0.099,0.007c0.063-0.224,0.14-0.533,0.154-0.763c0.014-0.162,0.224-0.613,0.393-0.976
		c0.156-0.334,0.304-0.649,0.373-0.879c0.055-0.196,0.125-0.313,0.171-0.391c0.048-0.078,0.126-0.21,0.045-0.353
		c-0.081-0.145-0.243-0.145-0.296-0.145c-0.047,0-0.098-0.013-0.144-0.027v-0.32c0-0.076,0.067-0.169,0.186-0.327
		c0.105-0.141,0.237-0.316,0.358-0.559c0.23-0.466,0.685-0.925,0.915-1.158c0.188-0.184,0.354-0.463,0.258-0.697
		c-0.056-0.137-0.156-0.209-0.341-0.218c-0.012-0.004-0.03-0.021-0.048-0.043c0.061-0.212,0.198-0.688,0.282-0.969
		c0.077-0.245,0.407-0.618,0.648-0.89l0.189-0.217c0.189-0.226,0.396-0.418,0.579-0.588c0.083-0.078,0.162-0.151,0.233-0.222
		c0.148-0.148,0.145-0.304,0.13-0.383c-0.027-0.144-0.128-0.253-0.229-0.329c0.053-0.14,0.129-0.334,0.209-0.502
		c0.143-0.324,0.333-0.688,0.755-1.159c0.418-0.472,0.932-0.886,1.525-1.229c0.375-0.213,0.671-0.36,0.93-0.49
		c0.154-0.076,0.296-0.146,0.434-0.221c0.399-0.216,0.593-0.428,0.614-0.451c0.059-0.067,0.078-0.16,0.05-0.245
		c-0.021-0.061-0.062-0.109-0.115-0.139c0.097-0.042,0.218-0.098,0.341-0.164c0.131-0.074,0.373-0.212,0.312-0.446
		c-0.024-0.094-0.107-0.26-0.488-0.203c0.036-0.073,0.084-0.15,0.149-0.224c0.248-0.285,0.766-0.528,1.062-0.555
		c0.517-0.048,1.096,0.039,1.405,0.232c0.384,0.231,0.566,0.648,0.567,0.652c0.05,0.114,0.178,0.181,0.296,0.143
		c0.121-0.032,0.198-0.148,0.183-0.272l-0.104-0.746c-0.036-0.09-0.358-0.891-0.598-1.221c-0.349-0.479-1.501-0.754-2.302-0.489
		l-0.127,0.04c-0.412,0.13-0.977,0.307-1.432,0.752c-0.435,0.427-0.75,1.046-0.859,1.277c-0.3,0.139-1.246,0.628-2.064,1.607
		c-0.897,1.082-1.662,2.617-1.91,3.139c-0.163,0.025-0.322,0.053-0.481,0.162c-0.239,0.168-0.415,0.595-0.655,1.227
		c-0.078,0.207-0.152,0.404-0.223,0.552c-0.229,0.488-0.643,1.65-0.66,1.699c-0.01,0.027-0.039,0.048-0.039,0.077
		c-0.2,0.059-0.304,0.218-0.413,0.387c-0.07,0.108-0.149,0.23-0.273,0.364c-0.287,0.314-0.334,0.851-0.368,1.242
		c-0.011,0.12-0.02,0.226-0.036,0.309c-0.036,0.206-0.208,0.814-0.312,1.173c-0.039,0.004-0.082,0.009-0.13,0.016
		c-0.271,0.043-0.363,0.343-0.491,0.757c-0.047,0.15-0.098,0.317-0.16,0.479c-0.156,0.394-0.087,0.76-0.025,1.082
		c0.032,0.171,0.062,0.332,0.062,0.493c0,0.39-0.051,1.043-0.073,1.31c-0.067,0.044-0.16,0.101-0.248,0.146
		c-0.285,0.148-0.282,0.466-0.28,0.868l0.001,0.151c0,0.517,0.108,1.001,0.34,1.526c0.149,0.335,0.207,0.794,0.257,1.199
		c0.021,0.164,0.04,0.317,0.064,0.451c0.031,0.163,0.051,0.319,0.062,0.451c-0.286-0.099-0.668-0.23-0.82-0.282
		c-0.042-0.013-0.083-0.02-0.122-0.02c-0.075,0-0.203,0.059-0.25,0.117c-0.136,0.167-0.083,0.415-0.01,0.757
		c0.021,0.104,0.044,0.209,0.058,0.304c0.029,0.205,0.137,0.464,0.272,0.791c0.162,0.391,0.363,0.875,0.473,1.386
		c0.185,0.878,0.269,1.779,0.35,2.651l0.013,0.142c0.083,0.859,0.141,1.74,0.205,3.142c0.057,1.355,0.482,2.772,0.747,3.651
		c0.229,0.771,0.956,1.824,1.306,2.331l0.146,0.219c0.117,0.201,0.392,0.673,0.694,0.966c0.292,0.285,0.599,0.464,0.779,0.554
		l0.001,0.69c0.006,0.074,0.063,0.729,0.214,1.1c0.186,0.441,0.871,0.719,1.533,0.986c0.487,0.201,1.334,0.623,1.651,0.782
		c0.029,0.386,0.112,1.492,0.159,2.391c0.05,0.916,0.407,2.884,0.547,3.621c-0.243,0.019-0.612,0.059-1.019,0.147
		c-0.163,0.036-0.71,0.196-1.3,0.382c-0.621,0.191-1.234,0.398-1.603,0.543c-0.253,0.099-0.476,0.237-0.673,0.358
		c-0.134,0.083-0.26,0.161-0.343,0.192c-0.609,0.219-0.781,0.239-1.083,0.239c-0.458,0-1.124-0.042-1.494-0.159
		c-0.435-0.137-1.442-0.503-2.486-0.885c-0.556-0.203-2.247-0.823-3.725-1.45c-0.938-0.393-1.749-0.79-2.285-1.053
		c-0.19-0.094-0.343-0.168-0.447-0.216c-0.644-0.299-2.319-1.372-3.32-2.014c-0.315-0.201-0.577-0.369-0.748-0.475
		c-0.405-0.248-0.882-0.52-1.348-0.784c-0.396-0.225-0.782-0.444-1.111-0.643c-0.709-0.425-2.333-1.508-2.801-1.841
		c-0.454-0.317-2.566-1.784-2.87-1.994c-0.093-0.128-0.396-0.516-0.817-0.739c-0.307-0.152-0.717-0.164-0.909-0.159
		c-0.315-0.152-1.839-0.888-2.448-1.167c-0.309-0.141-1.443-0.774-2.644-1.446c-1.418-0.792-3.024-1.689-3.676-2.002
		c-0.079-0.037-0.193-0.095-0.341-0.168c-1.082-0.539-3.954-1.973-6.854-2.383c-0.453-0.064-0.938-0.097-1.439-0.097
		c-1.947,0-3.768,0.477-4.677,0.76c-0.62,0.186-2.418,0.994-3.938,1.891c-1.37,0.817-2.591,1.727-3.246,2.215
		c-0.16,0.12-0.289,0.216-0.384,0.283C1.852,61.957,2.554,63.271,2.784,63.701z"/>
</g>
</svg>
