<?xml version="1.0" encoding="iso-8859-1"?>
<!-- Generator: Adobe Illustrator 17.1.0, SVG Export Plug-In . SVG Version: 6.00 Build 0)  -->
<!DOCTYPE svg PUBLIC "-//W3C//DTD SVG 1.1//EN" "http://www.w3.org/Graphics/SVG/1.1/DTD/svg11.dtd">
<svg version="1.1" id="Capa_1" xmlns="http://www.w3.org/2000/svg" xmlns:xlink="http://www.w3.org/1999/xlink" x="0px" y="0px"
	 viewBox="0 0 150 150" style="enable-background:new 0 0 150 150;" xml:space="preserve">
<g>
	<path d="M146.662,50.23c-0.933-0.722-1.999-1.374-3.111-1.746c-3.03-1.013-5.746-2.483-7.988-4.781
		c-0.197-0.202-0.416-0.385-0.637-0.561c-0.586-0.466-1.19-0.897-1.808-1.301c0.867-0.94,1.466-2.099,1.686-3.398
		c0.063-0.378,0.099-0.749,0.107-1.115c0.118-0.424,0.172-0.87,0.149-1.325c-0.121-2.432-1.872-4.628-4.296-5.418
		c-0.714-0.233-1.433-0.476-2.11-0.796c-2.052-0.971-2.682-2.463-1.087-4.378c0.024-0.029,0.026-0.076,0.039-0.116
		c-1.782,0.364-2.96,2.021-2.701,3.786c0.235,1.602,1.252,2.582,2.602,3.303c1.558,0.832,2.001,2.256,1.135,3.801
		c-0.213,0.38-0.5,0.72-0.802,1.102c-0.183,0.095-0.354,0.219-0.507,0.371c-0.293,0.292-0.585,0.583-0.878,0.875
		c-0.636-0.248-1.277-0.487-1.92-0.719c-1.792-0.646-3.613-0.573-5.395,0.133c-0.788,0.312-1.57,0.642-2.37,0.921
		c-0.199,0.069-0.526,0.057-0.677-0.064c-1.822-1.463-1.95-3.951-0.297-5.596c0.333-0.331,0.714-0.616,1.088-0.901
		c1.343-1.025,2.542-2.185,3.402-3.654c1.684-2.878,0.638-5.443-2.691-6.727c0.167,0.399,0.334,0.755,0.465,1.123
		c0.597,1.668,0.213,2.929-1.217,3.971c-0.322,0.235-0.663,0.468-1.03,0.615c-1.704,0.682-3.418,1.341-5.134,1.994
		c-1.677,0.638-3.355,1.268-4.752,2.447c-1.763,1.487-2.213,3.263-1.156,5.298c0.558,1.074,1.343,2.041,2.101,2.996
		c0.548,0.69,1.221,1.28,1.852,1.928h-5.663c-0.038,0.071-0.076,0.143-0.115,0.214c1.423,1.095,2.846,2.19,4.305,3.312
		c-1.508,1.139-3.04,2.308-4.59,3.452c-0.168,0.124-0.442,0.109-0.669,0.147c-1.646,0.269-3.324,0.416-4.934,0.828
		c-3.472,0.887-6.621,2.58-9.786,4.209c-3.317,1.707-6.624,3.321-10.487,3.539c-4.61,0.26-9.203,0.827-13.808,1.195
		c-3.031,0.242-6.07,0.464-9.109,0.518c-3.085,0.055-6.175-0.069-9.26-0.191c-1.264-0.05-2.525-0.459-3.779-0.419
		c-1.54,0.05-3.068,0.413-4.606,0.606c-0.343,0.043-0.768,0.048-1.048-0.113c-4.013-2.307-8.17-4.323-12.469-6.026
		c-3.703-1.467-7.507-2.494-11.567-2.156c-4.006,0.334-6.71,2.595-7.656,6.482c-0.397,1.631-0.077,3.146,1.002,4.379
		c2.574,2.942,5.859,4.44,9.782,4.455c0.649,0.002,1.298-0.153,1.947-0.235c-0.975,0.593-1.966,1.136-2.993,1.599
		c-1.019,0.459-2.074,0.838-3.119,1.254c3.973,1.411,11.531-1.223,13.412-6.175c-4.402,1.125-8.43-0.166-12.406-2.227
		c0.373,1.138,0.721,2.253,1.117,3.352c0.064,0.178,0.324,0.319,0.523,0.407c0.83,0.368,1.672,0.709,2.553,1.079
		c-0.101,0.063-0.135,0.104-0.167,0.102c-3.678-0.247-6.694-1.787-9.005-4.662c-0.532-0.662-0.828-1.456-0.652-2.316
		c0.292-1.419,0.882-2.693,2.09-3.58c1.89-1.387,4.045-1.384,6.236-1.14c2.931,0.326,5.558,1.548,8.207,2.74
		c3.235,1.456,5.753,3.805,8.191,6.254c-0.499,0.696-1.011,1.317-1.423,1.999c-2.31,3.831-2.974,8.095-3.206,12.463
		c-0.17,3.215,0.404,6.339,1.2,9.431c0.559,2.172,0.437,4.22-1.085,5.997c-0.751,0.877-1.507,1.768-2.374,2.522
		c-1.422,1.236-2.921,2.384-4.416,3.532c-0.841,0.646-1.252,1.387-0.853,2.443c0.066,0.175,0.101,0.363,0.154,0.543
		c1.529,5.217,0.926,10.03-2.732,14.248c-0.279,0.322-0.179,0.528,0.017,0.791c0.732,0.984,1.718,1.592,2.872,1.961
		c0.641,0.205,1.5,0.249,1.854,0.692c0.386,0.484,0.267,1.352,0.438,2.035c0.07,0.279,0.266,0.629,0.504,0.747
		c2.177,1.082,4.483,1.587,6.917,1.319c0.656-0.072,1.296-0.29,2.116-0.481c-0.492-0.795-0.783-1.533-1.298-2.044
		c-1.284-1.272-2.675-2.436-4.011-3.657c-0.229-0.209-0.518-0.459-0.577-0.734c-0.998-4.61-0.342-8.848,3.102-12.309
		c1.793-1.803,3.755-3.438,5.645-5.144c1.014-0.916,2.071-1.788,3.046-2.743c0.181-0.177,0.297-0.323,0.357-0.456
		c0.466-0.337,0.931-0.674,1.397-1.011c0.188-0.063,0.373-0.137,0.556-0.224c1.698,1.668,3.469,3.266,5.247,4.857
		c1.29,1.154,2.277,2.507,2.914,4.118c0.975,2.465,1.025,5.005,0.666,7.588c-0.027,0.196,0.067,0.508,0.215,0.615
		c3.201,2.316,5.9,5.143,8.336,8.227c1.716,2.172,3.245,4.466,4.115,7.132c0.143,0.439,0.256,0.888,0.418,1.455
		c0.395-0.343,0.719-0.605,1.021-0.892c0.204-0.194,0.363-0.435,0.564-0.634c0.569-0.561,0.86-0.515,1.221,0.179
		c0.261,0.502,0.544,0.994,0.775,1.51c0.576,1.286,1.644,1.898,2.948,2.18c2.002,0.433,3.933,0.093,5.824-0.585
		c2.054-0.737,2.168-1.144,0.776-2.888c-1.217-1.525-2.774-2.674-4.522-3.443c-1.809-0.795-3.19-2.038-4.497-3.433
		c-0.258-0.275-0.545-0.524-0.802-0.8c-1.701-1.831-3.417-3.649-5.086-5.508c-0.648-0.722-1.105-1.556-1.159-2.592
		c-0.132-2.519-0.366-5.034-0.481-7.554c-0.142-3.103-0.267-6.207-0.357-9.312c0.811,0.33,1.692,0.525,2.61,0.558l0.607,0.022
		c0.392,0.203,0.691,0.53,0.981,0.911c1.455,1.908,3.115,3.608,5.23,4.8c1.193,0.673,2.461,1.117,3.915,1.231
		c-0.791-1.857-1.629-3.61-1.348-5.676c0.266,0,0.497,0.001,0.727,0c1.51-0.008,3.025,0.063,4.527-0.041
		c2.932-0.204,5.803,0.104,8.586,0.991c2.534,0.808,5.009,1.798,7.522,2.672c2.42,0.842,4.885,1.275,7.412,0.487
		c0.18-0.056,0.363-0.135,0.535-0.232c0.41-0.056,0.82-0.118,1.228-0.178c0.793-0.091,1.584-0.144,2.379-0.103
		c0.225,0.05,0.448,0.109,0.668,0.174c0.564,0.342,1.106,0.658,1.576,1.058c2.928,2.49,5.831,5.009,8.709,7.557
		c0.42,0.372,0.752,0.917,0.958,1.446c1.089,2.794,1.539,5.728,1.692,8.702c0.037,0.715,0.319,1.118,0.899,1.343
		c0.454,0.176,0.954,0.315,1.435,0.319c0.813,0.006,1.626-0.109,2.474-0.176c0.057,0.199,0.113,0.425,0.186,0.646
		c0.336,1.005,0.666,2.011,1.019,3.009c0.174,0.491,0.482,0.727,1.073,0.67c1.055-0.103,2.119-0.095,3.179-0.148
		c1.856-0.093,3.711-0.196,5.625-0.298c-0.07-0.192-0.103-0.327-0.166-0.446c-1.492-2.784-3.737-4.719-6.703-5.765
		c-1.069-0.377-1.985-0.918-2.624-1.819c-0.623-0.879-1.192-1.814-1.651-2.788c-1.076-2.284-1.351-4.791-1.889-7.226
		c-0.531-2.403-1.2-4.76-2.865-6.684c-0.125-0.144-0.204-0.328-0.292-0.473c0.573-0.034,1.089-0.02,1.591-0.102
		c1.577-0.256,2.899-1.087,4.201-1.945c0.871-0.575,1.056-0.547,1.85,0.069c1.692,1.313,3.507,2.341,5.703,2.605
		c2.224,0.267,2.354,0.466,2.496,2.669c0.061,0.947,0.317,1.297,1.148,1.567c0.857,0.279,0.956,0.57,0.325,1.281
		c-0.37,0.417-0.833,0.76-1.29,1.088c-0.395,0.284-0.839,0.5-1.321,0.781c0.611,0.806,1.131,1.633,1.789,2.33
		c1.242,1.316,2.508,2.622,3.877,3.8c0.55,0.473,1.377,0.709,2.117,0.852c0.772,0.15,1.156-0.176,1.279-0.953
		c0.113-0.714,0.178-1.463,0.088-2.174c-0.13-1.022-0.397-2.031-0.65-3.034c-0.328-1.302-0.404-2.557,0.012-3.887
		c0.732-2.338-0.289-4.44-2.408-5.687c-1.987-1.169-3.923-2.434-5.812-3.756c-0.939-0.657-1.76-1.501-2.201-2.624
		c-0.183-0.465-0.104-0.777,0.261-1.172c1.325-1.433,2.759-2.811,3.827-4.424c1.76-2.658,1.925-5.744,1.547-8.808
		c-0.366-2.964-0.98-5.897-1.442-8.85c-0.198-1.265-0.287-2.546-0.414-3.713c2.719-0.783,4.883-1.982,5.988-4.554
		c0.375-0.873,1.036-1.342,1.944-1.431c0.865-0.085,1.753-0.193,2.606-0.089c1,0.122,1.806-0.16,2.676-0.594
		c0.835-0.416,1.194-0.89,0.992-1.823c-0.188-0.871,0.017-1.628,0.69-2.314c0.464-0.474,0.782-1.122,1.061-1.74
		C147.817,52.052,147.677,51.016,146.662,50.23z"/>
</g>
</svg>
