<?xml version="1.0" encoding="iso-8859-1"?>
<!-- Generator: Adobe Illustrator 17.1.0, SVG Export Plug-In . SVG Version: 6.00 Build 0)  -->
<!DOCTYPE svg PUBLIC "-//W3C//DTD SVG 1.1//EN" "http://www.w3.org/Graphics/SVG/1.1/DTD/svg11.dtd">
<svg version="1.1" id="Capa_1" xmlns="http://www.w3.org/2000/svg" xmlns:xlink="http://www.w3.org/1999/xlink" x="0px" y="0px"
	 viewBox="0 0 150 150" style="enable-background:new 0 0 150 150;" xml:space="preserve">
<g>
	<path d="M145.68,20.144c-0.877,0.931-1.679,1.745-2.44,2.596c-4.95,5.536-10.881,9.526-18.248,10.9
		c-4.011,0.748-8.148,0.793-12.192,1.397c-13.53,2.021-22.742,9.215-26.779,22.573c-1.051,3.478-2.171,6.958-3.603,10.289
		c-1.209,2.812-2.916,5.41-4.493,8.267c-0.816-1.05-1.329-1.709-1.86-2.392c0.641-1.366,0.945-2.674-0.087-3.822
		c-0.069-3.551,0.459-7.054,1.529-10.374c0.892-2.326,2.046-4.546,3.537-6.62c1.398-1.944,3.395-3.458,5.125-5.163
		c1.116-1.1,2.422-2.076,2.692-4.061c-1.637,0.032-2.56,0.801-3.319,1.768c-6.217,5.796-9.912,13.843-10.314,22.276
		c-0.006-0.013-0.012-0.026-0.017-0.04c-0.798-7.628-4.238-14.795-9.687-20.179c-0.238-0.382-0.473-0.766-0.711-1.146
		c-0.868-1.379-1.835-2.58-3.832-2.398c0.284,0.951,0.647,1.849,1.284,2.461c1.152,1.108,2.577,1.938,3.697,3.072
		c4.8,4.865,6.896,11.053,8.369,17.523c0.012,0.052,0.024,0.103,0.036,0.154c0.075,0.607,0.132,1.218,0.172,1.831
		c-0.108,0.373-0.362,0.729-0.867,1.062c-0.453,0.299-0.708,1.576-0.456,2.137c0.732,1.626-0.237,2.416-1.202,3.539
		c-0.589-0.85-1.087-1.522-1.537-2.223c-3.237-5.038-5.041-10.66-6.723-16.344c-1.715-5.794-4.658-10.852-9.318-14.805
		c-6.115-5.188-13.369-7.529-21.209-7.763c-11.199-0.335-20.448-4.409-27.601-13.099c-0.408-0.496-0.946-0.885-1.424-1.324
		c1.168,8.519,4.267,15.979,10.311,22.033c-3.598,2.09-3.988,3.911-1.647,7.155c0.644,0.893,1.346,1.779,2.17,2.498
		c1.64,1.432,3.383,2.746,5.083,4.108c-2.096,1.701-2.358,2.987-0.428,4.97c2.197,2.257,4.707,4.209,7.136,6.342
		c-1.163,2.359-0.821,3.884,1.748,5.432c1.481,0.892,3.147,1.846,4.804,2.006c4.57,0.442,9.18,0.661,13.773,0.633
		c5.016-0.031,9.957,0.257,14.81,1.609c-0.89,0.097-1.77,0.037-2.651,0.001c-5.372-0.218-10.648,0.287-15.755,2.08
		c-9.185,3.223-14.243,10.473-13.743,19.707c0.19,3.514,2.117,4.861,5.501,3.852c0.465-0.139,0.939-0.247,1.125-0.296
		c0.432,2.184,0.551,4.374,1.321,6.304c1.068,2.678,3.344,1.978,5.034,1.269c0.869,1.668,1.294,3.729,2.531,4.52
		c1.312,0.838,3.395,0.47,5.359,0.649c-0.808,4.296-2.217,8.333-5.914,11.141c-1.536,1.167-3.327,1.618-5.505,0.686
		c0.53-0.319,0.875-0.474,1.157-0.707c1.113-0.917,1.398-2.069,0.606-3.281c-0.8-1.224-2.023-1.34-3.281-0.776
		c-1.319,0.592-1.981,2.454-1.522,4.053c0.722,2.513,3.163,4.162,5.734,3.474c1.909-0.511,3.831-1.323,5.476-2.411
		c8.209-5.434,12.649-13.366,14.814-22.785c1.515-6.591,3.139-13.173,6.516-19.119c0.886-1.56,2.237-2.856,3.5-4.43
		c1.147,1.969,1.752,3.398,0.577,5.009c-0.32,0.439-0.465,1.116-0.446,1.676c0.135,4.011,0.22,8.031,0.575,12.025
		c0.115,1.291,0.99,2.515,1.694,4.189c0.67-0.92,1.072-1.284,1.242-1.734c2.014-5.32,2.402-10.824,0.824-16.235
		c-0.551-1.888-0.195-3.129,0.702-5.129c1.349,1.62,2.775,2.839,3.562,4.384c1.498,2.94,2.862,5.993,3.862,9.132
		c1.497,4.698,2.511,9.547,3.946,14.266c2.47,8.127,7.146,14.702,14.414,19.235c1.509,0.941,3.285,1.64,5.03,1.98
		c3.407,0.665,6.651-2.979,5.264-5.889c-0.43-0.902-1.757-1.654-2.801-1.876c-0.562-0.12-1.691,0.889-2.037,1.633
		c-0.56,1.205,0.05,2.251,1.298,2.843c0.181,0.086,0.293,0.317,0.475,0.523c-5.114,1.639-11.762-5.852-10.914-12.103
		c5.511,0.337,5.542,1.059,7.321-5.023c3.907,1.314,5.719,0.191,6.162-3.911c0.129-1.193,0.02-2.411,0.02-3.768
		c0.662,0.207,1.087,0.344,1.514,0.472c3.485,1.047,5.617-0.338,5.47-3.99c-0.116-2.879-0.406-5.91-1.428-8.563
		c-2.798-7.269-8.93-10.665-16.127-12.039c-4.744-0.906-9.648-0.97-14.256-1.391c2.274-0.322,4.862-0.924,7.468-1.008
		c5.064-0.162,10.137,0.019,15.205-0.043c3.686-0.045,7.25-0.726,10.412-2.778c2.559-1.66,2.965-3.129,1.671-5.83
		c1.117-0.762,2.279-1.477,3.352-2.308c1.128-0.874,2.314-1.741,3.208-2.829c0.832-1.012,1.64-2.262,1.831-3.504
		c0.118-0.766-0.939-1.712-1.481-2.598c3.14-1.914,6.045-4.199,7.928-7.516c1.43-2.518,0.841-4.222-1.746-5.536
		c-0.169-0.086-0.309-0.227-0.456-0.358c0.407-0.44,0.744-0.934,0.999-1.465C142.264,33.509,146.577,23.926,145.68,20.144z
		 M47.082,113.277c0.077-0.019,0.152-0.044,0.227-0.074c0.161,0.091,0.324,0.179,0.49,0.261
		C47.56,113.437,47.32,113.375,47.082,113.277z"/>
</g>
</svg>
