<?xml version="1.0" encoding="iso-8859-1"?>
<!-- Generator: Adobe Illustrator 17.1.0, SVG Export Plug-In . SVG Version: 6.00 Build 0)  -->
<!DOCTYPE svg PUBLIC "-//W3C//DTD SVG 1.1//EN" "http://www.w3.org/Graphics/SVG/1.1/DTD/svg11.dtd">
<svg version="1.1" id="Capa_1" xmlns="http://www.w3.org/2000/svg" xmlns:xlink="http://www.w3.org/1999/xlink" x="0px" y="0px"
	 viewBox="0 0 150 150" style="enable-background:new 0 0 150 150;" xml:space="preserve">
<g>
	<path d="M6.005,33.835c0.004,1.2-0.02,2.405,0.081,3.598c0.099,1.17,0.388,2.323,0.505,3.492c0.146,1.466,0.197,2.941,0.3,4.411
		c0.062,0.889,0.13,1.775,0.47,2.622c0.157,0.392,0.278,0.82,0.302,1.239c0.084,1.448,0.098,2.899,0.181,4.347
		c0.031,0.539,0.083,1.112,0.296,1.593c0.215,0.485,0.383,0.961,0.477,1.479c0.115,0.63,0.256,1.255,0.405,1.878
		c0.097,0.403,0.264,0.792,0.336,1.198c0.151,0.854,0.245,1.718,0.392,2.573c0.091,0.525,0.28,1.035,0.349,1.562
		c0.126,0.954,0.087,1.943,0.32,2.866c0.251,0.999,0.724,1.944,1.122,2.903c0.157,0.379,0.38,0.73,0.565,1.098
		c0.09,0.18,0.125,0.4,0.249,0.549c0.624,0.75,0.843,1.702,1.202,2.564c0.325,0.779,0.795,1.425,1.29,2.055
		c0.492,0.628,1.119,1.152,1.696,1.711c0.108,0.104,0.26,0.163,0.391,0.243c0.141,0.087,0.312,0.147,0.418,0.266
		c0.326,0.361,0.758,0.46,1.203,0.564c0.46,0.109,0.913,0.253,1.365,0.396c0.439,0.139,0.866,0.315,1.309,0.441
		c0.41,0.117,0.837,0.176,1.25,0.284c0.653,0.171,1.303,0.355,1.949,0.55c0.224,0.068,0.441,0.171,0.646,0.286
		c0.078,0.044,0.179,0.192,0.157,0.246c-0.184,0.451-0.216,0.958-0.668,1.304c-0.457,0.35-0.92,0.701-1.361,1.064
		c-1.033,0.851-1.989,1.796-2.958,2.722c-0.87,0.831-1.525,1.851-1.935,2.949c-0.373,0.997-0.605,2.106-0.612,3.168
		c-0.015,2.1-0.295,4.173-0.418,6.26c-0.137,2.318-0.197,4.631,0.329,6.923c0.378,1.646,0.339,3.299-0.022,4.953
		c-0.161,0.741-0.282,1.5-0.315,2.256c-0.036,0.827,0.125,1.612,0.483,2.408c0.362,0.804,0.818,1.523,1.366,2.174
		c0.392,0.466,0.696,0.949,0.918,1.502c0.026,0.065,0.07,0.125,0.114,0.181c0.667,0.856,0.757,1.903,0.918,2.913
		c0.056,0.349-0.15,0.734-0.193,1.107c-0.132,1.157-0.896,2.051-1.269,3.107c-0.019,0.054-0.065,0.099-0.1,0.147
		c-0.477,0.646-0.943,1.301-1.435,1.935c-0.354,0.456-0.726,0.9-1.12,1.321c-0.394,0.421-0.826,0.806-1.238,1.21
		c-0.067,0.066-0.107,0.157-0.169,0.229c-0.131,0.152-0.265,0.302-0.404,0.447c-0.416,0.433-0.84,0.859-1.252,1.296
		c-0.422,0.447-0.831,0.906-1.25,1.355c-0.435,0.466-0.885,0.918-1.312,1.392c-0.826,0.916-1.624,1.858-2.465,2.76
		c-0.527,0.565-0.579,1.464-0.019,1.81c0.2,0.123,0.468,0.171,0.71,0.185c1.685,0.096,3.069-0.776,4.517-1.436
		c0.31-0.141,0.597-0.332,0.898-0.495c0.686-0.371,1.374-0.737,2.059-1.109c0.061-0.033,0.102-0.101,0.16-0.141
		c0.221-0.155,0.437-0.321,0.671-0.455c0.666-0.382,1.339-0.751,2.009-1.125c0.01-0.006,0.019-0.014,0.03-0.019
		c0.477-0.23,0.953-0.46,1.43-0.69c0.191-0.093,0.382-0.186,0.574-0.278c0.287-0.137,0.566-0.294,0.863-0.406
		c0.455-0.171,0.92-0.312,1.383-0.462c0.449-0.146,0.893-0.387,1.349-0.414c1.302-0.077,2.61-0.096,3.915-0.073
		c0.472,0.008,1.001,0.099,1.395,0.334c0.451,0.269,0.9,0.457,1.399,0.578c0.342,0.083,0.678,0.207,1,0.35
		c0.311,0.139,0.604,0.321,0.9,0.493c0.214,0.124,0.422,0.258,0.628,0.395c0.619,0.41,1.255,0.796,1.776,1.336
		c0.147,0.152,0.303,0.295,0.448,0.45c0.105,0.112,0.195,0.237,0.295,0.354c0.214,0.25,0.443,0.488,0.643,0.748
		c0.432,0.561,0.908,1.001,1.673,1.092c0.979,0.115,1.925-0.03,2.861-0.248c0.736-0.171,1.437-0.53,2.178-0.641
		c0.982-0.147,1.707-0.638,2.296-1.368c0.444-0.55,0.793-1.176,1.24-1.722c0.356-0.435,0.729-0.94,1.211-1.168
		c0.88-0.416,1.766-0.88,2.783-0.954c0.368-0.027,0.78-0.12,1.076-0.323c0.71-0.486,1.563-0.745,2.164-1.406
		c0.396-0.436,0.93-0.768,1.247-1.249c0.433-0.656,1.036-1.223,1.222-2.032c0.018-0.077,0.09-0.139,0.124-0.215
		c0.186-0.417,0.387-0.83,0.549-1.257c0.357-0.941,0.69-1.89,1.043-2.832c0.044-0.118,0.156-0.21,0.22-0.323
		c0.126-0.225,0.271-0.446,0.352-0.687c0.196-0.584,0.362-1.179,0.535-1.771c0.072-0.248,0.146-0.497,0.189-0.751
		c0.161-0.947,0.223-1.914,0.649-2.801c0.148-0.308,0.272-0.635,0.345-0.967c0.143-0.649,0.231-1.311,0.362-1.963
		c0.184-0.918,0.374-1.835,0.588-2.747c0.096-0.408,0.24-0.808,0.392-1.2c0.118-0.305,0.32-0.579,0.42-0.888
		c0.349-1.082,0.666-2.173,1.003-3.259c0.045-0.146,0.102-0.307,0.203-0.413c0.408-0.427,0.552-0.958,0.662-1.512
		c0.041-0.209,0.127-0.409,0.18-0.616c0.167-0.652,0.32-1.308,0.495-1.958c0.054-0.201,0.121-0.421,0.25-0.575
		c0.234-0.28,0.518-0.519,0.785-0.772c0.187-0.178,0.393-0.249,0.649-0.13c0.262,0.122,0.466,0.268,0.496,0.59
		c0.167,1.751,0.337,3.502,0.519,5.251c0.03,0.292,0.052,0.624,0.201,0.859c0.417,0.659,0.488,1.402,0.652,2.129
		c0.065,0.29,0.208,0.585,0.39,0.82c0.441,0.571,0.888,1.148,1.405,1.646c0.516,0.497,1.115,0.908,1.692,1.339
		c0.126,0.094,0.309,0.152,0.468,0.156c0.795,0.017,1.591,0.031,2.385-0.001c0.232-0.01,0.482-0.14,0.684-0.274
		c1.088-0.725,1.979-1.647,2.751-2.705c0.321-0.441,0.527-0.879,0.597-1.416c0.057-0.431,0.187-0.855,0.314-1.273
		c0.129-0.425,0.377-0.829,0.428-1.26c0.205-1.747,0.36-3.5,0.518-5.252c0.03-0.329,0.226-0.48,0.479-0.603
		c0.238-0.115,0.466-0.088,0.66,0.097c0.283,0.27,0.582,0.528,0.83,0.827c0.127,0.153,0.185,0.378,0.229,0.581
		c0.109,0.498,0.166,1.009,0.294,1.501c0.137,0.526,0.331,1.038,0.503,1.555c0.056,0.168,0.085,0.367,0.193,0.493
		c0.493,0.575,0.66,1.278,0.843,1.979c0.045,0.171,0.136,0.33,0.193,0.498c0.145,0.424,0.287,0.849,0.423,1.276
		c0.122,0.383,0.137,0.852,0.374,1.136c0.393,0.47,0.476,0.989,0.56,1.542c0.104,0.68,0.22,1.359,0.36,2.033
		c0.116,0.556,0.304,1.098,0.409,1.656c0.136,0.724,0.209,1.46,0.618,2.106c0.093,0.146,0.143,0.33,0.173,0.503
		c0.125,0.726,0.229,1.455,0.352,2.181c0.035,0.208,0.104,0.412,0.171,0.613c0.137,0.416,0.306,0.823,0.42,1.245
		c0.13,0.483,0.231,0.962,0.594,1.352c0.153,0.165,0.219,0.416,0.306,0.636c0.123,0.309,0.231,0.624,0.341,0.938
		c0.18,0.512,0.358,1.026,0.535,1.539c0.096,0.28,0.125,0.611,0.296,0.832c0.534,0.685,0.7,1.582,1.346,2.204
		c0.465,0.447,0.804,1.031,1.293,1.443c0.553,0.467,1.079,1.01,1.819,1.212c0.087,0.024,0.155,0.112,0.241,0.15
		c0.363,0.162,0.716,0.387,1.096,0.458c0.799,0.148,1.589,0.295,2.306,0.703c0.102,0.058,0.219,0.092,0.333,0.125
		c0.718,0.204,1.138,0.78,1.606,1.292c0.158,0.173,0.293,0.369,0.432,0.559c0.125,0.171,0.256,0.339,0.36,0.522
		c0.594,1.045,1.366,1.841,2.632,2.027c0.455,0.067,0.924,0.164,1.341,0.35c1.059,0.47,2.172,0.602,3.306,0.62
		c0.749,0.012,1.43-0.185,1.929-0.814c0.351-0.443,0.725-0.869,1.11-1.282c0.408-0.439,0.841-0.855,1.265-1.279
		c0.04-0.041,0.102-0.059,0.154-0.089c0.706-0.406,1.412-0.813,2.118-1.22c0.031-0.018,0.062-0.037,0.087-0.062
		c0.331-0.325,0.753-0.439,1.191-0.518c0.52-0.093,1.016-0.231,1.423-0.605c0.113-0.104,0.294-0.156,0.452-0.184
		c1.667-0.303,3.34-0.248,5.009-0.034c0.337,0.043,0.666,0.173,0.99,0.285c0.458,0.158,0.914,0.324,1.362,0.51
		c0.917,0.38,1.827,0.776,2.74,1.167c0.011,0.005,0.02,0.013,0.03,0.019c0.717,0.431,1.433,0.864,2.152,1.293
		c0.102,0.061,0.217,0.099,0.318,0.161c0.17,0.105,0.332,0.223,0.498,0.333c0.226,0.149,0.444,0.312,0.681,0.439
		c0.739,0.396,1.486,0.779,2.229,1.167c0.021,0.011,0.039,0.028,0.06,0.039c0.397,0.203,0.793,0.408,1.193,0.606
		c0.17,0.084,0.373,0.119,0.518,0.231c0.582,0.45,1.279,0.573,1.967,0.68c0.474,0.074,0.981,0.1,1.445,0.008
		c0.276-0.055,0.662-0.35,0.707-0.592c0.082-0.435-0.014-0.912-0.376-1.283c-0.439-0.448-0.844-0.93-1.262-1.398
		c-0.774-0.867-1.542-1.74-2.323-2.602c-0.507-0.559-1.031-1.104-1.55-1.652c-0.357-0.377-0.718-0.75-1.079-1.123
		c-0.435-0.448-0.873-0.895-1.308-1.342c-0.255-0.262-0.521-0.516-0.762-0.792c-0.426-0.489-0.859-0.976-1.249-1.494
		c-0.475-0.631-0.911-1.293-1.357-1.945c-0.052-0.076-0.061-0.179-0.097-0.267c-0.076-0.187-0.121-0.401-0.243-0.552
		c-0.413-0.507-0.586-1.105-0.73-1.723c-0.067-0.289-0.206-0.565-0.242-0.856c-0.045-0.36-0.108-0.756-0.006-1.089
		c0.285-0.932,0.343-1.961,1.057-2.729c0.031-0.033,0.05-0.083,0.06-0.129c0.168-0.748,0.782-1.207,1.206-1.777
		c0.301-0.405,0.587-0.793,0.759-1.266c0.065-0.178,0.159-0.346,0.222-0.525c0.148-0.42,0.338-0.835,0.417-1.269
		c0.192-1.064-0.031-2.11-0.258-3.144c-0.344-1.565-0.478-3.156-0.109-4.708c0.667-2.805,0.534-5.619,0.324-8.446
		c-0.094-1.256-0.251-2.508-0.299-3.765c-0.038-0.999-0.092-1.985-0.257-2.977c-0.224-1.349-0.741-2.547-1.621-3.568
		c-0.844-0.979-1.738-1.918-2.655-2.828c-0.416-0.413-0.948-0.706-1.417-1.067c-0.614-0.473-1.28-0.892-1.511-1.719
		c-0.144-0.515-0.159-0.559,0.321-0.785c0.107-0.05,0.221-0.087,0.335-0.12c0.659-0.192,1.311-0.411,1.979-0.564
		c1.087-0.25,2.158-0.513,3.202-0.94c0.733-0.3,1.53-0.377,2.209-0.899c0.605-0.464,1.158-0.963,1.669-1.517
		c0.407-0.442,0.805-0.893,1.192-1.352c0.142-0.169,0.265-0.362,0.36-0.562c0.213-0.448,0.416-0.902,0.601-1.363
		c0.321-0.802,0.689-1.577,1.096-2.341c0.476-0.894,0.843-1.845,1.258-2.772c0.015-0.032,0.04-0.06,0.052-0.093
		c0.155-0.419,0.383-0.827,0.448-1.26c0.134-0.892,0.137-1.803,0.273-2.695c0.17-1.114,0.42-2.216,0.637-3.323
		c0.135-0.686,0.265-1.374,0.414-2.057c0.146-0.671,0.307-1.34,0.474-2.006c0.106-0.424,0.236-0.841,0.356-1.262
		c0.135-0.474,0.358-0.942,0.391-1.422c0.079-1.174,0.073-2.353,0.097-3.53c0.02-0.957,0.124-1.896,0.509-2.789
		c0.102-0.238,0.173-0.499,0.201-0.756c0.089-0.827,0.162-1.656,0.222-2.485c0.078-1.079,0.097-2.163,0.216-3.237
		c0.119-1.074,0.415-2.133,0.479-3.207c0.102-1.694,0.105-3.396,0.097-5.094c-0.019-3.947-0.071-7.894-0.109-11.841
		c0.04-0.003,0.08-0.007,0.12-0.01c-0.103-0.823-0.111-1.673-0.332-2.463c-0.357-1.275-0.534-2.562-0.539-3.872
		c-0.004-1.04-0.376-1.961-0.875-2.822c-0.493-0.849-1.341-1.282-2.268-1.532c-0.886-0.239-1.8-0.223-2.694-0.111
		c-1.308,0.164-2.607,0.403-3.905,0.635c-0.31,0.056-0.601,0.214-0.9,0.327c-0.365,0.138-0.727,0.282-1.093,0.416
		c-0.355,0.13-0.72,0.236-1.069,0.378c-0.392,0.16-0.774,0.345-1.156,0.528c-0.756,0.361-1.509,0.727-2.263,1.093
		c-0.031,0.015-0.053,0.048-0.082,0.068c-0.266,0.176-0.532,0.352-0.8,0.525c-0.593,0.386-1.188,0.77-1.78,1.156
		c-0.049,0.032-0.082,0.087-0.13,0.122c-0.18,0.132-0.358,0.266-0.544,0.387c-0.604,0.394-1.234,0.752-1.81,1.182
		c-0.492,0.366-0.919,0.818-1.382,1.224c-1.178,1.033-2.361,2.062-3.54,3.094c-0.356,0.312-0.71,0.626-1.057,0.948
		c-0.527,0.49-1.048,0.986-1.57,1.482c-0.393,0.374-0.789,0.745-1.174,1.128c-0.436,0.433-0.857,0.88-1.29,1.315
		c-0.382,0.383-0.785,0.745-1.154,1.139c-0.402,0.43-0.769,0.893-1.165,1.33c-0.554,0.613-1.131,1.205-1.679,1.824
		c-0.92,1.04-1.822,2.096-2.738,3.141c-0.327,0.373-0.67,0.732-1.007,1.096c-0.4,0.432-0.814,0.853-1.2,1.297
		c-0.465,0.535-0.913,1.084-1.356,1.637c-0.438,0.545-0.862,1.101-1.291,1.653c-0.404,0.52-0.81,1.04-1.211,1.562
		c-0.475,0.62-0.949,1.241-1.418,1.865c-0.375,0.5-0.741,1.007-1.113,1.51c-0.486,0.655-0.982,1.303-1.46,1.964
		c-0.373,0.515-0.717,1.052-1.091,1.566c-0.444,0.611-0.912,1.203-1.357,1.813c-0.153,0.209-0.257,0.455-0.405,0.668
		c-0.445,0.639-0.92,1.257-1.349,1.906c-0.436,0.659-0.825,1.348-1.247,2.016c-0.157,0.249-0.355,0.471-0.527,0.71
		c-0.172,0.239-0.334,0.484-0.5,0.727c-0.099,0.146-0.206,0.287-0.295,0.439c-0.427,0.736-0.848,1.475-1.273,2.212
		c-0.018,0.031-0.046,0.055-0.063,0.086c-0.175,0.32-0.349,0.642-0.524,0.962c-0.107,0.197-0.214,0.395-0.323,0.591
		c-0.172,0.309-0.352,0.614-0.517,0.927c-0.374,0.708-0.741,1.419-1.114,2.127c-0.033,0.062-0.097,0.106-0.133,0.167
		c-0.146,0.24-0.293,0.48-0.426,0.728c-0.151,0.279-0.281,0.57-0.433,0.849c-0.135,0.248-0.299,0.48-0.428,0.731
		c-0.403,0.788-0.793,1.583-1.193,2.373c-0.042,0.083-0.121,0.147-0.171,0.228c-0.1,0.161-0.202,0.323-0.286,0.492
		c-0.345,0.694-0.671,1.399-1.031,2.086c-0.227,0.433-0.54,0.436-0.792,0.019c-0.063-0.104-0.047-0.269-0.033-0.402
		c0.072-0.696,0.215-1.39,0.216-2.085c0.001-0.544-0.068-1.117-0.519-1.544c-0.582-0.551-0.951-1.203-0.668-2.026
		c0.14-0.406,0.335-0.82,0.607-1.146c0.421-0.504,0.929-0.934,1.399-1.397c0.438-0.432,0.876-0.864,1.309-1.299
		c0.359-0.361,0.728-0.715,1.064-1.097c0.389-0.442,0.716-0.94,1.127-1.357c0.3-0.304,0.648-0.552,0.778-0.986
		c0.015-0.05,0.074-0.101,0.125-0.122c0.324-0.137,0.47-0.413,0.609-0.711c0.073-0.156,0.21-0.283,0.322-0.42
		c0.164-0.202,0.336-0.397,0.496-0.602c0.225-0.287,0.442-0.579,0.662-0.87c0.318-0.421,0.646-0.835,0.945-1.269
		c0.119-0.172,0.165-0.394,0.255-0.587c0.075-0.16,0.17-0.312,0.252-0.469c0.173-0.333,0.358-0.662,0.509-1.005
		c0.124-0.281,0.145-0.626,0.321-0.863c0.327-0.44,0.449-0.934,0.573-1.444c0.084-0.344,0.212-0.678,0.335-1.011
		c0.143-0.386,0.321-0.759,0.448-1.149c0.151-0.462,0.253-0.939,0.395-1.404c0.165-0.541,0.364-1.073,0.522-1.615
		c0.13-0.444,0.216-0.9,0.331-1.349c0.14-0.549,0.339-1.089,0.417-1.646c0.046-0.333-0.077-0.696-0.156-1.038
		c-0.02-0.085-0.155-0.2-0.243-0.205c-0.492-0.027-1.092,0.482-1.215,0.99c-0.113,0.462-0.255,0.917-0.356,1.381
		c-0.178,0.81-0.334,1.625-0.5,2.438c-0.143,0.696-0.276,1.395-0.433,2.087c-0.134,0.589-0.289,1.173-0.45,1.755
		c-0.094,0.341-0.2,0.681-0.33,1.01c-0.129,0.328-0.326,0.631-0.438,0.963c-0.158,0.471-0.32,0.91-0.614,1.339
		c-0.393,0.574-0.578,1.281-1.051,1.835c-0.31,0.362-0.536,0.8-0.774,1.219c-0.254,0.447-0.615,0.834-0.864,1.253
		c-0.335,0.564-0.815,0.974-1.208,1.46c-0.713,0.884-1.558,1.661-2.353,2.479c-0.993,1.022-1.979,2.052-2.994,3.052
		c-0.433,0.426-0.924,0.768-1.608,0.695c-0.589-0.064-1.186-0.071-1.78-0.072c-0.499-0.001-0.998,0.068-1.495,0.054
		c-0.246-0.007-0.534-0.072-0.723-0.216c-0.508-0.385-1.004-0.796-1.451-1.25c-1.258-1.277-2.494-2.578-3.731-3.876
		c-0.563-0.59-1.111-1.194-1.66-1.798c-0.085-0.094-0.133-0.221-0.203-0.331c-0.082-0.129-0.141-0.302-0.26-0.375
		c-0.32-0.195-0.469-0.488-0.589-0.817c-0.036-0.098-0.108-0.183-0.168-0.271c-0.437-0.64-0.885-1.273-1.305-1.924
		c-0.126-0.196-0.163-0.446-0.265-0.66c-0.101-0.213-0.235-0.409-0.348-0.616c-0.123-0.225-0.272-0.443-0.354-0.682
		c-0.438-1.271-1.055-2.484-1.229-3.839c-0.004-0.034-0.031-0.065-0.04-0.099c-0.158-0.594-0.343-1.183-0.465-1.784
		c-0.101-0.499-0.088-1.022-0.197-1.52c-0.185-0.845-0.46-1.672-0.633-2.519c-0.13-0.639-0.388-1.094-1.052-1.293
		c-0.372-0.112-0.439-0.125-0.567,0.256c-0.269,0.805-0.037,1.572,0.185,2.339c0.162,0.557,0.322,1.115,0.479,1.673
		c0.119,0.422,0.222,0.849,0.354,1.267c0.156,0.495,0.34,0.98,0.505,1.472c0.139,0.414,0.258,0.834,0.407,1.245
		c0.08,0.22,0.234,0.416,0.301,0.639c0.21,0.7,0.388,1.39,0.736,2.062c0.363,0.703,0.577,1.492,1.022,2.172
		c0.205,0.313,0.381,0.646,0.581,0.963c0.112,0.177,0.25,0.336,0.37,0.508c0.109,0.155,0.203,0.321,0.317,0.471
		c0.219,0.292,0.443,0.579,0.673,0.862c0.17,0.209,0.368,0.398,0.528,0.614c0.32,0.43,0.588,0.883,0.994,1.263
		c0.463,0.433,0.776,1.022,1.192,1.511c0.367,0.43,0.786,0.815,1.182,1.219c1.052,1.073,2.114,2.136,3.147,3.227
		c0.27,0.285,0.509,0.633,0.655,0.995c0.306,0.759,0.174,1.508-0.416,2.068c-0.527,0.5-0.709,1.111-0.703,1.761
		c0.006,0.706,0.144,1.414,0.253,2.116c0.052,0.332-0.136,0.501-0.365,0.623c-0.243,0.129-0.37-0.094-0.471-0.261
		c-0.254-0.423-0.494-0.855-0.73-1.289c-0.079-0.145-0.12-0.31-0.193-0.458c-0.393-0.793-0.791-1.584-1.188-2.376
		c-0.01-0.021-0.032-0.035-0.044-0.056c-0.168-0.298-0.342-0.593-0.5-0.896c-0.381-0.731-0.753-1.468-1.133-2.2
		c-0.037-0.072-0.113-0.124-0.156-0.194c-0.136-0.221-0.274-0.442-0.394-0.672c-0.403-0.774-0.798-1.552-1.197-2.328
		c-0.021-0.041-0.065-0.07-0.089-0.111c-0.156-0.263-0.316-0.524-0.462-0.792c-0.367-0.674-0.728-1.352-1.091-2.028
		c-0.011-0.021-0.031-0.036-0.044-0.056c-0.451-0.661-0.915-1.313-1.347-1.986c-0.408-0.635-0.781-1.293-1.171-1.94
		c-0.03-0.05-0.079-0.089-0.113-0.138c-0.467-0.681-0.93-1.364-1.398-2.044c-0.381-0.553-0.763-1.107-1.154-1.653
		c-0.454-0.634-0.925-1.255-1.378-1.89c-0.41-0.575-0.793-1.17-1.21-1.74c-0.425-0.582-0.881-1.141-1.315-1.716
		c-0.518-0.687-1.029-1.379-1.541-2.07c-0.106-0.143-0.207-0.29-0.312-0.433c-0.364-0.494-0.72-0.994-1.097-1.478
		c-0.436-0.558-0.897-1.096-1.338-1.65c-0.457-0.575-0.887-1.171-1.358-1.734c-0.401-0.48-0.85-0.919-1.265-1.388
		c-0.399-0.45-0.773-0.922-1.172-1.371c-0.409-0.459-0.848-0.892-1.251-1.356c-0.755-0.869-1.487-1.758-2.241-2.628
		c-0.317-0.366-0.664-0.705-1-1.053c-0.417-0.433-0.838-0.863-1.255-1.296c-0.465-0.483-0.923-0.971-1.391-1.451
		c-0.388-0.398-0.783-0.789-1.177-1.18c-0.427-0.424-0.849-0.852-1.287-1.265c-0.455-0.43-0.928-0.841-1.389-1.265
		c-0.444-0.409-0.873-0.833-1.324-1.234c-0.897-0.797-1.802-1.584-2.706-2.371c-0.9-0.782-1.699-1.687-2.771-2.26
		c-0.093-0.049-0.166-0.135-0.253-0.196c-0.252-0.177-0.504-0.352-0.76-0.523c-0.548-0.367-1.098-0.73-1.647-1.096
		c-0.333-0.222-0.659-0.455-1-0.665c-0.652-0.402-1.267-0.874-2.022-1.086c-0.033-0.009-0.06-0.039-0.088-0.06
		c-0.823-0.598-1.85-0.767-2.715-1.279c-0.167-0.099-0.391-0.097-0.583-0.158c-0.271-0.087-0.535-0.193-0.805-0.283
		c-0.548-0.183-1.091-0.385-1.648-0.533c-0.435-0.115-0.895-0.133-1.333-0.242c-1.153-0.287-2.324-0.386-3.504-0.333
		c-1.161,0.052-2.275,0.294-3.078,1.227c-0.303,0.352-0.487,0.804-0.751,1.193c-0.308,0.452-0.397,0.958-0.444,1.484
		C6.865,15.062,6.8,16.12,6.655,17.166c-0.099,0.715-0.402,1.407-0.456,2.121c-0.083,1.098-0.023,2.207-0.037,3.311
		c-0.034,2.651-0.075,5.303-0.113,7.954C6.033,31.646,6.001,32.741,6.005,33.835z"/>
</g>
</svg>
