<?xml version="1.0" encoding="iso-8859-1"?>
<!-- Generator: Adobe Illustrator 17.1.0, SVG Export Plug-In . SVG Version: 6.00 Build 0)  -->
<!DOCTYPE svg PUBLIC "-//W3C//DTD SVG 1.1//EN" "http://www.w3.org/Graphics/SVG/1.1/DTD/svg11.dtd">
<svg version="1.1" id="Capa_1" xmlns="http://www.w3.org/2000/svg" xmlns:xlink="http://www.w3.org/1999/xlink" x="0px" y="0px"
	 viewBox="0 0 150 150" style="enable-background:new 0 0 150 150;" xml:space="preserve">
<g>
	<path d="M143.943,15.069c-0.454-0.774-2.381-1.101-3.561-0.956c-3.877,0.476-7.772,1.037-11.562,1.966
		c-16.343,4.005-29.669,12.559-38.958,26.785c-3.171,4.857-5.749,10.098-8.716,15.094c-1.102,1.855-2.542,3.511-3.828,5.257
		c-0.233-0.058-0.466-0.116-0.699-0.174c-0.069-0.545-0.148-1.089-0.205-1.635c-0.098-0.935,0.165-2.211-0.347-2.733
		c-0.178-0.182-0.318-0.359-0.427-0.534c-0.001-0.015-0.003-0.03-0.005-0.045c1.254-10.39,5.381-20.302,11.914-28.507
		c0.112-0.141,0.164-0.293,0.171-0.442c0.117-0.192,0.232-0.385,0.341-0.579c0.286-0.507,0.292-1.172,0.461-1.938
		c-2.098,0.184-2.954,1.463-3.675,2.809c-1.398,2.607-2.755,5.236-4.108,7.866c-0.421,0.783-0.827,1.573-1.212,2.373
		c-0.612,1.243-1.166,2.504-1.66,3.785c-0.014,0.035-0.026,0.07-0.04,0.104c-0.081,0.21-0.16,0.421-0.237,0.633
		c-1.101,2.89-1.973,5.866-2.605,8.907c-1.534-8.932-5.064-17.447-10.397-24.847c-0.065-0.091-0.142-0.159-0.224-0.21
		c-0.295-0.322-0.625-0.618-0.955-0.885c-0.361-0.292-0.984-0.26-1.489-0.373c0.013,0.506-0.164,1.137,0.073,1.496
		c0.87,1.319,1.793,2.624,2.848,3.797c0.69,0.767,1.344,1.554,1.963,2.36c4.111,7.268,6.624,15.344,7.353,23.693
		c-0.085,0.714-0.156,1.431-0.215,2.151c-0.078,0.325-0.155,0.651-0.222,0.979c-0.123,0.601-0.167,1.218-0.247,1.827
		c-0.22,0.023-0.44,0.046-0.66,0.069c-1.018-1.281-2.177-2.477-3.026-3.862c-1.083-1.766-2.136-3.552-3.157-5.357
		c-0.029-0.053-0.058-0.106-0.089-0.158c-0.665-1.179-1.318-2.364-1.945-3.562c-4.192-8.006-9.452-15.156-16.452-20.941
		c-10.047-8.304-21.729-12.81-34.499-14.719c-2.042-0.305-4.137-0.505-6.191-0.405c-1.658,0.081-2.114,1.261-1.08,2.562
		c0.823,1.036,1.935,1.845,2.937,2.734c1.141,1.012,2.418,1.899,3.427,3.026c1.396,1.559,1.32,2.849-0.19,4.332
		c-1.3,1.276-1.338,2.615-0.35,3.936c0.983,1.315,2.167,2.483,3.297,3.684c1.048,1.113,2.181,2.146,3.199,3.284
		c0.706,0.789,0.881,1.635,0.147,2.641c-1.803,2.469-1.645,3.335,0.806,5.268c1.296,1.022,2.711,1.906,3.938,3.003
		c1.909,1.708,2.048,2.932,0.85,5.17c-1.253,2.34-0.847,4.484,1.616,5.52c2.19,0.921,4.663,1.423,7.046,1.579
		c6.042,0.396,12.112,0.379,18.156,0.758c3.398,0.213,6.767,0.882,10.149,1.346c-3.229,0.517-6.415,0.679-9.544,1.188
		c-4.615,0.751-8.842,2.443-12.057,6.055c-1.913,2.148-2.31,5.221,0.963,6.639c1.243,0.539,1.374,1.38,0.415,2.448
		c-2.222,2.478-2.215,3.503,0.169,5.833c1.851,1.809,2.284,3.888,1.369,6.2c-0.535,1.35-1.27,2.654-2.107,3.843
		c-4.227,6.007-8.653,11.878-12.725,17.987c-1.876,2.815-3.339,5.971-4.56,9.138c-1.376,3.569-1.375,7.321,0.086,10.95
		c0.509,1.265,1.23,2.81,2.755,2.475c1.11-0.243,2.249-1.349,2.924-2.368c1.333-2.013,0.818-4.235,0.034-6.356
		c-1.633-4.416-1.156-8.748,0.962-12.796c4.239-8.098,10.768-13.838,19.065-17.569c2.306-1.037,2.785-0.812,4.516,1.25
		c2.517,2.999,5.065,3.243,8.108,0.783c2.033-1.644,3.4-3.764,3.833-6.304c0.544-3.19,0.607-6.467,1.233-9.636
		c0.545-2.76,1.22-5.506,2.015-8.21c0.46-0.729,0.705-1.572,0.753-2.437c0.031-0.097,0.061-0.195,0.093-0.292
		c0.473-1.449,1.755-2.634,2.669-3.938c0.215,0.063,0.43,0.127,0.645,0.191c0.252,1.562,1.069,3.296,0.655,4.655
		c-1.635,5.369-1.143,10.631,0.124,15.912c0.137,0.569,0.919,0.983,1.401,1.469c0.418-0.483,1.067-0.903,1.219-1.458
		c1.331-4.853,1.755-9.86,0.383-14.671c-0.662-2.321,0.142-3.923,0.63-6.048c2.453,2.016,3.745,4.548,4.317,7.282
		c0.899,4.296,1.539,8.66,2.027,13.024c0.455,4.065,1.24,7.877,4.669,10.577c2.969,2.338,5.57,2.043,7.968-0.893
		c1.632-1.998,2.389-2.197,4.713-1.167c7.986,3.54,14.146,9.139,18.478,16.692c2.386,4.159,3.02,8.611,1.466,13.263
		c-0.309,0.925-0.558,1.876-0.749,2.833c-0.431,2.163,0.331,3.995,1.806,5.514c1.237,1.272,2.706,1.122,3.74-0.35
		c0.484-0.688,0.857-1.49,1.118-2.292c1.533-4.716,0.818-9.357-1.549-13.469c-3.135-5.446-6.81-10.583-10.313-15.813
		c-2.382-3.556-5.021-6.95-7.257-10.592c-1.675-2.729-1.237-5.377,0.63-7.281c2.68-2.732,2.716-3.144,0.329-6.025
		c-0.744-0.898-0.732-1.56,0.27-2.266c3.354-2.366,3.51-4.396,0.581-7.37c-2.712-2.753-6.09-4.358-9.81-5.049
		c-3.663-0.681-7.396-0.979-11.099-1.445c4.846-0.79,9.74-1.492,14.66-1.825c4.575-0.31,9.189-0.059,13.762-0.384
		c2.375-0.168,4.825-0.753,7.013-1.685c2.166-0.923,2.61-2.956,1.685-4.942c-1.482-3.184-1.128-4.511,1.735-6.617
		c1.231-0.906,2.519-1.755,3.641-2.784c1.607-1.474,1.706-2.448,0.294-4.095c-1.157-1.35-0.87-2.44,0.185-3.532
		c1.148-1.188,2.408-2.268,3.537-3.472c0.999-1.066,1.979-2.174,2.793-3.381c0.749-1.111,0.661-2.262-0.333-3.342
		c-1.825-1.984-1.833-3.293,0.107-5.155c1.318-1.265,2.899-2.251,4.267-3.469C143.117,17.521,144.79,16.513,143.943,15.069z"/>
</g>
</svg>
