<?xml version="1.0" encoding="iso-8859-1"?>
<!-- Generator: Adobe Illustrator 17.1.0, SVG Export Plug-In . SVG Version: 6.00 Build 0)  -->
<!DOCTYPE svg PUBLIC "-//W3C//DTD SVG 1.1//EN" "http://www.w3.org/Graphics/SVG/1.1/DTD/svg11.dtd">
<svg version="1.1" id="Capa_1" xmlns="http://www.w3.org/2000/svg" xmlns:xlink="http://www.w3.org/1999/xlink" x="0px" y="0px"
	 viewBox="0 0 150 150" style="enable-background:new 0 0 150 150;" xml:space="preserve">
<g>
<path d="M145.19,97.479c-1.5-0.272-2.992-0.59-4.495-0.838c-0.727-0.157-1.465-0.251-2.207-0.281
	c-4.043-0.329-8.13-0.062-12.216-0.244c-4.332-0.193-8.651-0.602-12.966-1.011c-3.175-0.301-6.403-0.609-9.424-1.697
	c-3.231-1.164-6.433-2.331-9.737-3.293c-0.355-0.143-0.711-0.284-1.07-0.418c-0.147-0.055-0.294-0.108-0.441-0.161
	c-0.052-0.019-0.13-0.06-0.177-0.089c-0.055-0.035-0.112-0.065-0.17-0.09c-2.411-1.026-4.875-1.875-7.443-2.418
	c-2.201-0.465-4.446-0.76-6.695-0.863c-0.742-0.078-1.486-0.138-2.231-0.178c-0.681-0.036-1.36-0.085-2.038-0.143
	c-1.947-0.278-3.9-0.517-5.856-0.718c-0.186-0.027-0.373-0.055-0.559-0.081c-0.055-0.008-0.141-0.03-0.194-0.047
	c-0.227-0.073-0.466-0.118-0.714-0.131c0,0-0.027-0.001-0.06-0.003s-0.101-0.019-0.153-0.038c-0.892-0.333-1.83-0.512-2.797-0.525
	c-0.033,0-0.065,0-0.097,0.001c-0.054,0.002-0.141-0.005-0.194-0.018c-0.406-0.1-0.8-0.219-1.199-0.321
	c-0.148-0.038-0.296-0.074-0.445-0.109c-0.054-0.013-0.136-0.047-0.183-0.075c-0.152-0.088-0.315-0.163-0.504-0.215
	c-0.206-0.057-0.407-0.079-0.605-0.077c-0.055,0.001-0.143-0.011-0.195-0.028c-0.159-0.053-0.318-0.11-0.476-0.167
	c-0.052-0.019-0.13-0.059-0.177-0.089c-0.042-0.028-0.084-0.056-0.126-0.083c-0.306-0.177-0.631-0.284-0.976-0.319
	c-0.055-0.006-0.128-0.018-0.162-0.029c-0.021-0.007-0.041-0.014-0.062-0.02c-0.516-0.157-1.034-0.318-1.561-0.43
	c-0.381-0.081-0.782-0.067-1.169-0.126c-0.337-0.052-0.669-0.138-1.002-0.211c-0.054-0.012-0.136-0.044-0.185-0.07
	c-0.154-0.082-0.318-0.148-0.487-0.194c-0.392-0.105-0.784-0.115-1.176-0.028c-0.054,0.012-0.141,0.022-0.196,0.019
	c-0.497-0.025-0.986-0.089-1.463-0.271c-0.051-0.019-0.107-0.036-0.163-0.043c-0.055-0.008-0.139-0.021-0.191-0.04
	c-0.064-0.024-0.128-0.045-0.194-0.063c-0.375-0.101-0.751-0.113-1.126-0.038c-0.054,0.011-0.112,0.014-0.128,0.006
	c-0.01-0.005-0.02-0.01-0.03-0.014c-0.55-0.249-0.683-0.323-1.303-0.35c-0.246-0.011-0.502,0.022-0.736,0.099
	c-0.026,0.007-0.052,0.015-0.077,0.023c-0.042,0.013-0.116,0.006-0.168-0.014c-0.51-0.207-1.014-0.188-1.58-0.099
	c-0.154,0.024-0.309,0.047-0.463,0.07c-0.055,0.008-0.143,0.016-0.198,0.016c-0.552,0.005-1.106-0.039-1.658-0.027
	c-0.426,0.009-0.854,0.056-1.274,0.131c-0.236,0.042-0.473,0.083-0.71,0.119c-0.055,0.008-0.12-0.024-0.153-0.068
	c-0.19-0.248-1.199,0.048-1.366,0.153c-0.047,0.029-0.098,0.053-0.115,0.053s-0.075-0.008-0.13-0.015
	c-0.11-0.015-0.221-0.022-0.332-0.021c-0.055,0-0.144-0.002-0.198-0.009c-0.239-0.031-0.478-0.078-0.715-0.146
	c-0.673-0.195-1.316-0.553-1.915-0.929c-0.622-0.391-1.258-0.821-1.736-1.367c-0.078-0.09-0.154-0.181-0.229-0.274
	c-0.035-0.043-0.087-0.116-0.116-0.163l-1.681-2.639c-0.734-1.317-1.414-2.665-2.215-3.939c-1.014-1.614-2.108-3.186-3.274-4.693
	c-0.311-0.403-0.629-0.801-0.95-1.196c-0.035-0.043-0.086-0.117-0.116-0.163c-0.075-0.116-0.16-0.226-0.255-0.33
	c-0.037-0.041-0.085-0.084-0.103-0.099s-0.063-0.061-0.098-0.103c-0.794-0.95-1.611-1.883-2.435-2.807
	c-1.186-1.331-2.465-2.579-3.683-3.881c-1.05-1.122-2.217-2.098-3.483-2.966c-1.066-0.731-2.268-1.097-3.505-1.366
	c-0.756-0.164-1.522-0.282-2.287-0.404c-0.055-0.009-0.116-0.029-0.139-0.045c-0.014-0.01-0.027-0.02-0.041-0.03
	c-0.15-0.108-0.317-0.129-0.474-0.092c-0.054,0.013-0.135,0.008-0.187-0.012c-0.108-0.042-0.228-0.058-0.351-0.049
	c-0.055,0.004-0.143,0.007-0.198,0c-0.592-0.079-1.15-0.163-1.709-0.247c-0.949-0.144-1.671,0.15-2.137,1.037
	c-0.235,0.448-0.535,0.868-0.849,1.266c-0.13,0.165-0.361,0.285-0.57,0.346c-0.285,0.084-0.479,0.234-0.566,0.507
	c-0.146,0.458-0.436,0.873-0.37,1.394c0.029,0.227,0.055,0.42,0.286,0.438c0.055,0.004,0.11,0.043,0.147,0.083
	c0.008,0.008,0.016,0.016,0.025,0.024c0.041,0.037,0.103,0.099,0.132,0.145c0.098,0.151,0.25,0.341,0.452,0.438
	c0.277,0.132,0.184-0.033,0.14-0.344c-0.008-0.055,0.005-0.115,0.016-0.139s0.026,0,0.069,0.031s0.117,0.073,0.156,0.112
	c0.067,0.067,0.142,0.127,0.228,0.168c0.225,0.108,0.205,0.017,0.166-0.187c-0.01-0.054-0.019-0.142-0.018-0.197
	c0-0.014,0-0.027,0.001-0.041c0.003-0.055,0.04-0.063,0.076-0.021c0.087,0.104,0.194,0.205,0.322,0.266
	c0.246,0.118,0.2,0,0.156-0.246c-0.01-0.054,0.011-0.104,0.043-0.117s0.082,0.008,0.119,0.049c0.08,0.09,0.174,0.174,0.285,0.227
	c0.187,0.089,0.205,0.043,0.183-0.092c-0.009-0.055,0.028-0.067,0.098-0.108c0.04-0.038,0.08-0.061,0.117-0.032
	c0.022,0.017,0.045,0.033,0.07,0.045c0.167,0.08,0.199,0.05,0.188-0.055c-0.006-0.055,0.028-0.104,0.082-0.115
	c0.027-0.005,0.054-0.011,0.078-0.018c0.053-0.015,0.134-0.053,0.181-0.082c0.04-0.025,0.088-0.057,0.126-0.091
	c0.041-0.037,0.086-0.037,0.108,0.013c0.162,0.373,0.067,0.809-0.173,1.08c-0.037,0.041-0.084,0.021-0.13-0.009
	c-0.037-0.024-0.076,0.007-0.137,0.126c-0.01,0.02-0.016,0.041-0.022,0.063c-0.009,0.036-0.056,0.085-0.11,0.115
	c-0.049,0.026-0.108,0.007-0.133-0.042c-0.077-0.15-0.119-0.201-0.222,0.001c-0.029,0.056-0.049,0.116-0.064,0.178
	c-0.013,0.054-0.058,0.119-0.118,0.149c-0.049,0.025-0.109,0.006-0.135-0.043c-0.073-0.14-0.115-0.182-0.215,0.014
	c-0.024,0.046-0.04,0.096-0.053,0.147c-0.013,0.054-0.06,0.118-0.108,0.143s-0.109,0.004-0.134-0.045
	c-0.096-0.191-0.135-0.279-0.249-0.054c-0.031,0.061-0.053,0.127-0.068,0.194c-0.012,0.054-0.06,0.114-0.112,0.133
	c-0.013,0.005-0.026,0.01-0.039,0.015c-0.052,0.019-0.12-0.005-0.148-0.052c-0.167-0.286-0.19-0.493-0.334-0.212
	c-0.054,0.106-0.077,0.223-0.087,0.339c-0.005,0.055-0.044,0.111-0.091,0.125s-0.065,0.065-0.038,0.113
	c0.036,0.063,0.068,0.119,0.1,0.176c0.027,0.048,0.019,0.121-0.013,0.167c-0.175,0.257-0.001,0.414,0.247,0.522
	c0.02,0.009,0.04,0.017,0.061,0.026c0.034,0.014,0.086,0.063,0.123,0.104c0.125,0.138,0.299,0.225,0.498,0.209
	c0.025-0.002,0.051-0.004,0.077-0.007c0.043-0.004,0.12,0.007,0.172,0.025c0.046,0.016,0.092,0.031,0.138,0.047
	c0.276,0.092,0.519,0.019,0.787-0.125c1.343-0.719,2.758-1.24,4.262-1.526c0.889-0.169,1.665,0.111,2.453,0.433
	c0.678,0.277,1.213,0.735,1.734,1.239c1.435,1.39,2.754,2.88,3.958,4.469c1.013,1.337,2.023,2.679,2.965,4.066
	c0.967,1.425,1.86,2.901,2.768,4.365c0.927,1.495,1.84,2.999,2.744,4.508c0.527,0.881,1.11,1.72,1.723,2.538
	c0.145,0.221,0.293,0.44,0.447,0.656c0.798,1.122,1.663,2.2,2.611,3.199c0.376,0.465,0.759,0.925,1.158,1.368
	c0.777,0.863,0.968,1.854,0.758,2.926c-0.003,0.016-0.007,0.032-0.01,0.048c-0.006,0.027-0.04,0.081-0.074,0.125
	c-0.329,0.418-0.528,0.944-0.544,1.511c0,0.012,0,0.025-0.001,0.037c0,0.02-0.018,0.078-0.04,0.129
	c-0.175,0.418-0.312,0.84-0.381,1.27c-0.099,0.389-0.105,0.777-0.016,1.166c0.012,0.054,0.031,0.112,0.039,0.132
	s0.026,0.079,0.039,0.132c0.305,1.186,0.808,2.246,1.573,3.158c0.639,0.762,1.318,1.492,1.999,2.217
	c0.252,0.269,0.307,0.58,0.346,0.916c0.199,1.749,0.419,3.495,0.59,5.246c0.044,0.448-0.036,0.914-0.105,1.365
	c-0.197,1.278-0.469,2.547-0.612,3.83c-0.073,0.65-0.018,1.313-0.009,1.973c-0.019,0.27-0.034,0.54-0.045,0.81
	c-0.002,0.055-0.011,0.144-0.022,0.198c-0.047,0.234-0.116,0.467-0.193,0.689c-0.166,0.473-0.232,0.912-0.021,1.361
	c0.023,0.05,0.058,0.133,0.07,0.187c0.096,0.405,0.122,0.828,0.029,1.238c-0.055,0.241-0.12,0.481-0.234,0.702
	c-0.012,0.024-0.025,0.049-0.038,0.073c-0.021,0.041-0.071,0.107-0.106,0.149c-0.376,0.446-0.45,1.017-0.617,1.543
	c-0.082,0.257,0.092,0.526,0.406,0.534c1.019,0.024,2.039,0.026,3.059,0.017c0.078-0.001,0.203-0.147,0.225-0.244
	c0.119-0.521,0.068-1.036-0.122-1.534c-0.302-0.792-0.297-1.589-0.018-2.379c0.132-0.375,0.355-0.718,0.482-1.094
	c0.099-0.293,0.111-0.614,0.164-0.923c0.179-1.048,0.39-2.088,0.664-3.113c0.014-0.053,0.042-0.137,0.061-0.189
	c0.098-0.263,0.182-0.532,0.241-0.811c0.003-0.015,0.006-0.03,0.009-0.045c0.005-0.025,0.022-0.086,0.039-0.139
	c0.042-0.13,0.085-0.259,0.13-0.388c0.148-0.425,0.345-0.834,0.533-1.244c0.087-0.19,0.138-0.378,0.16-0.572
	c0.011-0.049,0.016-0.097,0.018-0.143c0.002-0.055-0.003-0.143-0.004-0.198c-0.002-0.085-0.008-0.173-0.017-0.262
	c-0.072-0.697-0.059-1.408-0.02-2.109c0.056-1.005,0.168-2.008,0.258-3.011c0.004-0.041,0.014-0.082,0.031-0.158
	c0.012-0.054,0.058-0.073,0.105-0.044c0.199,0.124,0.38,0.209,0.499,0.347c0.884,1.026,1.761,2.058,2.617,3.108
	c0.298,0.365,0.539,0.779,0.785,1.184c0.08,0.131,0.141,0.309,0.126,0.456c-0.179,1.765-0.098,3.516,0.113,5.264
	c0.007,0.055,0.01,0.144,0.007,0.199c-0.021,0.449-0.032,0.898-0.032,1.348c0,0.214-0.011,0.435-0.002,0.648
	c0.008,0.196,0.104,0.368,0.126,0.561c0.015,0.133-0.014,0.266-0.027,0.399c-0.045,0.454,0.303,0.555,0.479,0.901
	c0.125,0.245,0.289,0.363,0.554,0.417c0.429,0.086,0.874,0.313,1.321,0.23c0.215-0.04,0.401-0.145,0.625-0.166
	c0.249-0.023,0.504,0.01,0.737,0.099c0.218,0.083,0.417,0.214,0.582,0.379c0.192,0.193,0.315,0.388,0.542,0.546
	c0.253,0.176,0.519,0.333,0.795,0.469c0.084,0.041,0.171,0.081,0.263,0.094c0.228,0.031,0.403-0.158,0.527-0.324
	c0.424-0.567,0.799-1.176,0.599-1.949c-0.025-0.098-0.018-0.209-0.004-0.311c0.034-0.239,0.066-0.52-0.052-0.742
	c-0.165-0.309-0.585-0.312-0.882-0.307c-0.315,0.005-0.631,0.012-0.946,0.016c-0.227,0.003-0.549,0.024-0.757-0.07
	c-0.137-0.062-0.265-0.124-0.412-0.155c-0.183-0.038-0.388-0.079-0.535-0.202c-0.206-0.172-0.174-0.369-0.159-0.611
	c0.076-1.243,0.254-2.478,0.472-3.703c0.11-0.62,0.231-1.238,0.354-1.855c0.051-0.254,0.151-0.518,0.125-0.778
	c-0.026-0.266-0.15-0.509-0.294-0.729c-0.479-0.734-0.884-1.517-1.329-2.306c-0.027-0.048-0.006-0.075,0.047-0.062
	c3.584,0.919,7.119,1.862,10.819,1.582c0.055-0.004,0.111,0.009,0.126,0.028c0.013,0.017,0.022,0.029,0.021,0.04
	c-0.091,0.868,0.338,1.614,0.544,2.415c0.219,0.848,0.34,1.723,0.464,2.592c0.088,0.617,0.145,1.243,0.151,1.866
	c0.005,0.505-0.144,1.014-0.121,1.517c0.027,0.567,0.133,1.139,0.274,1.691c0.121,0.47-0.05,0.854-0.531,0.961
	c-0.055,0.012-0.122,0.021-0.16,0.056c-0.179,0.17-0.341,0.347-0.482,0.531c-0.034,0.044-0.092,0.11-0.13,0.15
	c-0.112,0.115-0.213,0.24-0.297,0.378c-0.216,0.356-0.303,0.787-0.215,1.167c0.012,0.054,0.027,0.14,0.031,0.195
	c0.009,0.134,0.027,0.272,0.056,0.414c0.012,0.059,0.034,0.115,0.056,0.165c0.022,0.051,0.083,0.097,0.138,0.104
	c0.111,0.014,0.215,0.027,0.336,0.042c0.055,0.007,0.119-0.009,0.144-0.036c0.025-0.027,0.06-0.046,0.077-0.043
	s0.035,0.016,0.041,0.03s0.053,0.02,0.108,0.015c0.11-0.009,0.222-0.013,0.307-0.063c0.134-0.079,0.209-0.256,0.343-0.334
	c0.131-0.076,0.335-0.156,0.453-0.106c0.864,0.366,1.746,0.566,2.671,0.312c0.385-0.106,0.763-0.264,1.115-0.453
	c0.299-0.161,0.303-0.469,0.21-0.769c-0.165-0.53-0.372-1.051-0.494-1.591c-0.134-0.596-0.14-1.223-0.293-1.812
	c-0.533-2.053-0.424-4.136-0.369-6.22c0.024-0.924-0.047-1.851,0.201-2.763c0.152-0.558,0.461-1.004,0.824-1.429
	c0.036-0.042,0.088-0.08,0.14-0.097c0.516-0.17,1.029-0.35,1.552-0.496c0.385-0.107,0.502-0.029,0.605,0.344
	c0.293,1.07,0.601,2.137,0.872,3.212c0.013,0.054,0.012,0.141,0.004,0.196c-0.012,0.089-0.008,0.181,0.014,0.273
	c0.093,0.379,0.264,0.717,0.496,1.01c0.034,0.043,0.089,0.115,0.122,0.159c0.043,0.059,0.088,0.117,0.136,0.175
	c0.363,0.439,0.657,0.95,0.904,1.467c0.474,0.99,0.918,1.995,1.327,3.014c0.009,0.023,0.018,0.047,0.027,0.07
	c0.015,0.039,0.034,0.114,0.044,0.168c0.028,0.154,0.057,0.308,0.085,0.462c0.01,0.054-0.003,0.138-0.021,0.19
	c-0.057,0.163-0.05,0.353,0.057,0.547c0.037,0.067,0.074,0.134,0.11,0.201c0.027,0.048,0.052,0.132,0.056,0.187
	c0.009,0.133,0.012,0.241,0.012,0.349c0.001,0.352,0.117,0.708,0.239,1.058c0.018,0.052,0.04,0.137,0.05,0.192
	c0.027,0.161,0.053,0.322,0.078,0.483c0.009,0.055,0.003,0.143-0.023,0.192c-0.074,0.138-0.215,0.242-0.422,0.301
	c-0.029,0.008-0.059,0.018-0.088,0.026c-0.57,0.151-1.121,0.361-1.655,0.623c-0.209,0.102-0.323,0.322-0.339,0.548
	c-0.004,0.055-0.022,0.14-0.045,0.19c-0.087,0.185-0.143,0.373-0.153,0.543c-0.003,0.055,0.044,0.094,0.099,0.087
	c0.19-0.025,0.38-0.05,0.568-0.075c0.055-0.007,0.143-0.006,0.198-0.005c0.062,0.001,0.125-0.006,0.188-0.02
	c0.054-0.012,0.133-0.003,0.182,0.022c0.227,0.115,0.465,0.117,0.732,0.077c0.208-0.032,0.436,0.111,0.657,0.118
	c1.123,0.034,2.246,0.052,3.369,0.067c0.207,0.003,0.417-0.015,0.621-0.052c0.465-0.082,0.515-0.149,0.36-0.599
	c-0.109-0.314-0.269-0.613-0.423-0.909c-0.4-0.768-0.499-1.602-0.599-2.447c-0.06-0.497-0.231-0.983-0.38-1.465
	c-0.3-0.973-0.672-1.927-0.918-2.913c-0.381-1.526-0.733-3.064-0.995-4.614c-0.127-0.753-0.076-1.55-0.01-2.318
	c0.16-1.845,0.372-3.686,0.581-5.526c0.014-0.12,0.165-0.305,0.274-0.321c0.603-0.094,1.211-0.165,1.82-0.202
	c0.366-0.022,0.742,0.078,1.102,0.034c0.224-0.027,0.487-0.174,0.625-0.351c0.219-0.279,0.475-0.407,0.803-0.489
	c0.637-0.161,1.269-0.347,1.896-0.543c0.885-0.276,1.768-0.543,2.706-0.596c1.271-0.071,2.539-0.233,3.81-0.25
	c1.26-0.016,2.524,0.083,3.784,0.163c0.728,0.046,1.456,0.099,2.183,0.158c0.45,0.058,0.899,0.115,1.349,0.172
	c4.798,0.61,9.579,1.416,14.429,1.577c4.92,0.164,9.84-0.126,14.745-0.491c4.315-0.321,8.626-0.705,12.949-0.906
	c2.16-0.1,4.322-0.154,6.484-0.131c1.081,0.012,2.162,0.042,3.242,0.097c0.545,0.027,2.38,0.466,2.701,0.016
	c-0.025-0.05-0.092-0.114-0.155-0.107C146.745,97.959,145.983,97.622,145.19,97.479z M121.008,98.879
	c-0.05-0.01-0.045-0.023,0.01-0.022c0.078,0.001,0.155,0.003,0.233,0.004c0.055,0.001,0.056,0.011,0.001,0.019
	c-0.051,0.008-0.102,0.012-0.153,0.011C121.073,98.889,121.041,98.885,121.008,98.879z"/>
</g>
</svg>
