<?xml version="1.0" encoding="iso-8859-1"?>
<!-- Generator: Adobe Illustrator 17.1.0, SVG Export Plug-In . SVG Version: 6.00 Build 0)  -->
<!DOCTYPE svg PUBLIC "-//W3C//DTD SVG 1.1//EN" "http://www.w3.org/Graphics/SVG/1.1/DTD/svg11.dtd">
<svg version="1.1" id="Capa_1" xmlns="http://www.w3.org/2000/svg" xmlns:xlink="http://www.w3.org/1999/xlink" x="0px" y="0px"
	 viewBox="0 0 150 150" style="enable-background:new 0 0 150 150;" xml:space="preserve">
<g>
	<path d="M140.901,29.936c-0.343-0.431-0.692-0.944-1.16-1.171c-2.174-1.056-4.37-2.076-6.601-3.004
		c-1.046-0.435-1.836-0.989-2.141-2.12c-0.066-0.245-0.185-0.511-0.361-0.686c-1.101-1.092-1.111-1.09,0.198-1.925
		c0.171-0.109,0.384-0.153,0.424-0.168c-0.101-0.534-0.156-0.956-0.27-1.362c-0.055-0.197-0.185-0.412-0.345-0.534
		c-0.787-0.593-1.721-1.045-2.36-1.763c-0.629-0.707-1.271-0.672-2.036-0.6c-0.256,0.024-0.616,0.032-0.771-0.116
		c-0.9-0.87-2.14-0.446-3.194-0.814c-0.919-0.321-2.188,0.366-3.303,0.6c-0.155,0.032-0.343,0.072-0.477,0.016
		c-1.911-0.805-3.524-0.314-4.826,1.191c-0.064,0.333-0.153,0.712-0.391,0.897c-0.906,0.702-1.925,1.27-2.776,2.028
		c-0.594,0.529-1.221,1.228-1.399,1.957c-0.179,0.734-0.532,0.986-1.108,1.169c-0.62,0.196-1.191,0.387-1.213,1.214
		c-0.006,0.206-0.383,0.38-0.462,0.612c-0.167,0.489-0.269,1.004-0.361,1.514c-0.051,0.283,0.062,0.626-0.059,0.859
		c-0.431,0.837-0.953,1.627-1.397,2.457c-0.389,0.725-1.098,1.551-0.979,2.207c0.144,0.792-0.053,1.566,0.13,2.288
		c0.307,1.216-0.292,2.071-0.853,3c-0.458,0.757-0.914,1.534-1.226,2.356c-0.275,0.727-0.84,1.428-0.396,2.336
		c0.111,0.227-0.168,0.662-0.304,0.986c-0.125,0.298-0.396,0.564-0.432,0.864c-0.172,1.434-0.255,2.879-0.429,4.313
		c-0.218,1.799-0.701,3.486-2.191,4.709c-1.551,1.273-3.161,1.273-4.521-0.183c-1.034-1.107-1.993-2.302-2.858-3.546
		c-2.436-3.502-4.809-7.049-7.199-10.583c-0.106-0.156-0.218-0.37-0.197-0.54c0.142-1.12-0.538-1.838-1.299-2.402
		c-0.808-0.599-0.963-1.168-0.215-2.008c-0.652-0.313-1.258-0.51-1.75-0.865c-0.544-0.393-1.151-0.848-1.432-1.423
		c-0.493-1.007-0.439-2.272-1.463-3.041c-0.072-0.054-0.007-0.265-0.056-0.383c-0.208-0.501-0.422-1-0.659-1.488
		c-0.155-0.32-0.49-0.611-0.507-0.928c-0.058-1.106-0.057-2.22,0.008-3.325c0.043-0.728,0.245-1.446,0.348-2.173
		c0.027-0.186-0.015-0.402-0.087-0.579c-0.308-0.758-0.693-1.489-0.941-2.264c-0.138-0.434-0.062-0.937-0.083-1.409
		c0.209-0.983-1.918-0.791-0.937-2.357c-0.254-0.2-0.55-0.372-0.761-0.617c-0.226-0.262-0.595-0.69-0.514-0.876
		c0.435-0.992-0.24-1.118-0.89-1.347c-0.763-0.269-1.51-0.585-2.264-0.881c0.03-0.088,0.059-0.176,0.089-0.263
		c-1.174,0.16-2.361,0.616-3.483-0.207c-0.149-0.109-0.409-0.207-0.559-0.151c-1.194,0.44-2.169-0.113-3.114-0.522
		c-0.448,0.332-0.903,0.547-1.383,0.652c-1.075,0.237-2.161,0.42-3.243,0.626c-0.032,0.006-0.066,0.02-0.091,0.041
		c-0.452,0.394-0.903,0.789-1.385,1.212c0.604,1.167,0.288,1.078-0.746,1.362c-0.313,0.086-0.613,0.289-0.868,0.499
		c-0.221,0.182-0.402,0.433-0.548,0.684c-0.52,0.895-1.019,1.802-1.517,2.709c-0.017,0.031,0.052,0.119,0.093,0.17
		c0.701,0.868,0.328,1.764,0.188,2.714c-0.123,0.838,0.002,1.768,0.25,2.588c0.181,0.599,0.738,1.084,1.237,1.771
		c0.433-0.061,1.053,0.029,0.985,0.999c-0.03,0.428-0.028,0.866-0.121,1.281c-0.333,1.48-0.685,2.957-1.072,4.424
		c-0.053,0.201-0.312,0.408-0.523,0.497c-1.307,0.549-3.59-0.656-3.84-2.216c-0.297-1.85-0.276-3.75-0.454-5.622
		c-0.056-0.586-0.327-1.149-0.463-1.731c-0.064-0.276-0.167-0.73-0.038-0.832c0.639-0.507,0.142-0.892-0.093-1.259
		c-0.542-0.843-0.513-0.951,0.602-1.263c-0.488-0.714-0.959-1.403-1.437-2.102c0.274-0.235,0.463-0.396,0.753-0.643
		c-0.717-0.587-1.413-1.092-2.022-1.685c-0.271-0.264-0.368-0.707-0.544-1.068c-0.456-0.971-1.944-0.678-2.33-1.942
		c-0.031-0.1-0.291-0.194-0.437-0.185c-0.554,0.036-1.117,0.068-1.655,0.192c-0.818,0.188-1.554,0.448-2.46,0.096
		c-1.296-0.503-2.685-0.782-4.048-1.094c-0.768-0.176-1.428,0.028-1.83,0.817c-0.103,0.201-0.397,0.388-0.629,0.426
		c-1.33,0.216-1.784,1.285-2.309,2.164c0.259,0.444,0.469,0.805,0.786,1.35c-2.141,0.162-3.623,0.999-4.35,2.453
		c0.217,0.52,0.585,1.007,0.47,1.191c-0.882,1.41-0.533,2.851-0.286,4.301c0.928,0.089,0.789,0.179,1.305,0.981
		c0.495,0.769,0.299,2.084,1.917,2.234c-0.597,2.002-1.089,3.927-1.753,5.791c-0.567,1.591-1.472,3.068-1.973,4.674
		c-0.517,1.659-1.39,3.023-2.538,4.271c-1.323,1.438-2.743,2.807-3.911,4.364c-2.448,3.264-4.357,6.834-5.508,10.779
		c-0.302,1.035-0.516,2.144-1.052,3.053c-2.535,4.294-4.598,8.729-5.422,13.722c-0.373,2.257-0.203,4.308,0.83,6.283
		c0.595,1.137,0.601,2.18-0.013,3.273c-0.257,0.457-0.794,1.075-0.659,1.379c0.624,1.409-0.587,2.291-0.8,3.436
		c-0.101,0.542-0.218,1.081-0.303,1.496c0.884-0.442,1.713-0.838,2.523-1.271c0.392-0.209,0.89-0.401,1.099-0.746
		c1.663-2.752,2.18-4.359-0.016-7.189c-0.786-1.014-1.111-2.107-1.178-3.362c-0.106-2.015,0.287-3.947,0.914-5.827
		c0.413-1.239,1.001-2.423,1.562-3.608c0.1-0.211,0.451-0.303,0.686-0.45c0.084,0.232,0.227,0.46,0.241,0.696
		c0.086,1.42,0.118,2.843,0.22,4.262c0.054,0.75,0.17,1.501,0.329,2.236c0.581,2.697,1.226,5.385,0.505,8.13
		c1.727,0.785-0.098,1.717,0.216,2.536c1.064,0.22,1.082,0.282,0.603,1.257c-0.536,1.09-1.109,2.17-1.531,3.304
		c-0.293,0.787-0.758,1.672,0.09,2.474c0.092,0.087,0.098,0.385,0.022,0.514c-1.117,1.898,1.206,3.182,0.872,4.933
		c-0.003,0.018,0.041,0.053,0.069,0.068c0.951,0.528,0.662,1.654,1.165,2.427c0.543,0.833,1.061,1.771,0.698,2.888
		c-0.042,0.127,0.269,0.352,0.383,0.55c0.207,0.362,0.458,0.719,0.57,1.113c0.693,2.429,0.696,4.805-0.58,7.087
		c-0.366,0.656-0.614,1.377-0.929,2.062c-0.662,1.441-0.634,2.859,0.129,4.252c0.443,0.808,0.939,1.588,1.342,2.415
		c0.22,0.454,0.431,0.984,0.412,1.471c-0.118,2.967,0.468,5.855,1.113,8.702c0.495,2.182,0.528,4.266-0.022,6.398
		c-0.425,1.647,0.057,2.584,1.734,2.904c3.115,0.594,6.257,1.302,9.356-0.053c0.173-1.781-0.004-2.197-1.431-3.055
		c-2.385-1.435-4.357-3.278-5.304-5.935c-0.633-1.775-1.074-3.639-1.395-5.498c-0.233-1.355-0.397-2.824-0.119-4.143
		c0.566-2.684,0.768-5.291,0.01-7.964c-0.186-0.655-0.023-1.431,0.068-2.139c0.179-1.392,1.271-2.14,2.145-3.09
		c1.266-1.378,2.305-2.964,3.466-4.442c0.155-0.198,0.492-0.426,0.68-0.379c0.205,0.051,0.448,0.391,0.479,0.63
		c0.177,1.407,0.417,2.822,0.406,4.233c-0.014,1.879-0.246,3.756-0.368,5.635c-0.163,2.509,0.391,4.917,1.209,7.252
		c0.816,2.327,1.365,4.649,1.218,7.151c-0.133,2.257,0.001,4.529-0.047,6.793c-0.017,0.796,0.364,1.385,0.97,1.59
		c2.828,0.957,5.638,2.272,8.736,1.053c0.506-0.199,1.003-0.544,1.518-0.57c0.905-0.046,0.952-0.578,0.689-1.125
		c-0.208-0.434-0.64-0.878-1.08-1.065c-3.102-1.313-5.195-3.681-6.555-6.618c-0.727-1.571-0.94-3.395-1.281-5.125
		c-0.455-2.308-0.472-4.579,0.235-6.906c0.394-1.295,0.523-2.908,0.109-4.159c-0.73-2.205-0.567-4.139,0.691-5.973
		c0.801-1.168,1.826-2.181,2.724-3.285c1.582-1.945,3.228-3.875,3.798-6.397c0.262-1.157,0.743-2.117,1.655-2.833
		c1.228-0.964,1.958-2.17,2.209-3.724c0.169-1.048,0.399-1.109,1.364-0.674c0.518-0.513,1.068-0.999,1.545-1.548
		c0.511-0.588,0.919-0.758,1.505-0.057c0.982,1.176,2.227,1.84,3.827,1.713c0.233-0.019,0.633,0.167,0.706,0.356
		c0.306,0.788,0.912,0.828,1.608,0.841c0.685,0.013,1.572-0.126,2.013,0.237c1.152,0.948,2.536,0.823,3.812,1.099
		c0.755,0.163,0.85,0.479,0.785,1.062c-0.031,0.283-0.121,0.56-0.166,0.762c0.789,0.121,1.229,0.376,0.991,1.225
		c-0.194,0.691-0.417,1.384-0.501,2.092c-0.049,0.415,0.12,0.868,0.242,1.288c0.112,0.384,0.307,0.742,0.441,1.12
		c0.333,0.941,0.613,1.903,0.993,2.823c0.239,0.578,0.497,1.351,0.969,1.582c0.687,0.337,0.774,0.767,0.855,1.376
		c0.054,0.404,0.17,1.055,0.411,1.135c0.876,0.291,0.95,1.109,1.367,1.698c0.259,0.365,0.494,0.864,0.858,1.014
		c0.619,0.255,0.726,0.631,0.759,1.216c0.077,1.347,0.079,2.725,0.38,4.028c1.096,4.744,1.126,9.473,0.219,14.246
		c-0.374,1.967-0.664,3.965-0.773,5.961c-0.074,1.348-0.209,2.6-0.864,3.808c-0.379,0.7-0.354,1.462,0.386,2.038
		c1.828,1.424,3.735,2.621,6.205,2.348c1.321-0.146,2.653-0.224,3.961-0.448c0.48-0.082,0.962-0.429,1.339-0.77
		c0.475-0.43,0.45-0.926-0.134-1.32c-0.519-0.35-1.051-0.69-1.53-1.089c-0.933-0.777-1.858-1.568-2.743-2.4
		c-1.361-1.28-1.598-2.981-1.624-4.724c-0.038-2.597,0.114-5.207-0.094-7.788c-0.16-1.979,0.253-3.686,1.273-5.322
		c0.417-0.668,0.861-1.334,1.163-2.055c0.763-1.823,1.332-3.718,1.005-5.718c-0.264-1.611,0.697-2.957,0.798-4.478
		c0.012-0.191,0.235-0.391,0.399-0.546c0.903-0.853,1.829-1.682,2.723-2.544c0.35-0.338,0.64-0.738,0.957-1.111
		c0.25,0.466,0.525,0.92,0.746,1.4c1.094,2.369,1.552,4.862,1.61,7.47c0.034,1.501,0.275,3.005,0.528,4.491
		c0.252,1.484,0.858,2.937,0.919,4.419c0.204,4.912,0.275,9.832,0.297,14.749c0.006,1.26-0.39,2.518-0.54,3.784
		c-0.067,0.563-0.599,1.206,0.187,1.701c1.121,0.707,2.258,1.346,3.649,1.29c1.821-0.073,3.641-0.171,5.463-0.187
		c1.087-0.009,2.176,0.105,3.261,0.19c0.804,0.063,0.918-0.383,0.74-0.994c-0.089-0.305-0.245-0.66-0.485-0.838
		c-0.941-0.696-1.873-1.438-2.911-1.959c-1.234-0.619-2.356-1.352-2.663-2.718c-0.347-1.541-1.306-2.612-2.218-3.785
		c-0.449-0.578-0.791-1.394-0.82-2.117c-0.098-2.494-0.052-4.995-0.029-7.493c0.006-0.659,0.023-1.347,0.208-1.97
		c0.896-3.02,1.146-6.125,1.412-9.241c0.165-1.935,0.501-3.883,2.315-5.119c0.159-0.109,0.388-0.287,0.388-0.433
		c0.004-1.578,1.315-2.072,2.273-2.895c0.44-0.378,0.803-0.968,0.959-1.529c0.359-1.285,0.436-2.659,0.882-3.905
		c0.351-0.982,1.017-1.879,1.67-2.714c0.335-0.428,1.008-0.576,1.42-0.965c0.467-0.441,0.781-0.211,1.076,0.109
		c0.186,0.201,0.259,0.506,0.39,0.778c1.069-0.775,2.392,0.503,3.368-0.545c0.025-0.027,0.218,0.128,0.342,0.163
		c0.156,0.045,0.39,0.137,0.472,0.068c1.129-0.95,2.235-1.928,3.352-2.892c0.312-0.27,0.659-0.501,0.96-0.781
		c0.505-0.471,1.107-0.897,1.441-1.474c0.283-0.489,0.459-0.859,1.084-0.974c0.291-0.053,0.543-0.476,0.751-0.775
		c0.183-0.262,0.24-0.611,0.42-0.875c1.467-2.148,3.428-3.879,4.656-6.284c0.76-1.49,1.343-2.959,1.694-4.539
		c0.145-0.651,0.259-1.125,0.896-1.134c0.147-0.692,0.126-1.39,0.433-1.885c0.972-1.57,0.855-3.528,1.899-5.06
		c0.156-0.228,0.144-0.572,0.202-0.864c0.302-1.514,0.984-2.995,0.407-4.588c-0.01-0.029-0.011-0.076,0.005-0.098
		c0.873-1.148,0.402-2.363,0.191-3.57c-0.09-0.516-0.177-1.039-0.194-1.561c-0.031-0.923-0.008-1.848-0.009-2.773
		c-0.001-0.896-0.525-1.683,0.123-2.724c0.545-0.876,0.321-2.215,0.502-3.338c0.138-0.855,0.354-1.7,0.591-2.534
		c0.057-0.201,0.329-0.342,0.501-0.51c0.143,0.19,0.287,0.38,0.339,0.449c0.187-0.377,0.403-0.813,0.619-1.249
		c0.228,0.224,0.455,0.448,0.673,0.662c1.039-0.371,1.372-1.288,1.658-2.262c0.127-0.432,0.288-0.89,0.566-1.228
		c0.174-0.212,0.594-0.223,1.099-0.388c1.121-2.219,1.121-2.221,3.65-1.982c0.194,0.018,0.387,0.133,0.576,0.121
		c1.105-0.071,2.476,0.21,3.248-0.342c1.134-0.81,1.858-2.207,2.708-3.389c0.13-0.181,0.105-0.619-0.027-0.82
		C142.099,31.491,141.511,30.703,140.901,29.936z"/>
</g>
</svg>
