<?xml version="1.0" encoding="iso-8859-1"?>
<!-- Generator: Adobe Illustrator 17.1.0, SVG Export Plug-In . SVG Version: 6.00 Build 0)  -->
<!DOCTYPE svg PUBLIC "-//W3C//DTD SVG 1.1//EN" "http://www.w3.org/Graphics/SVG/1.1/DTD/svg11.dtd">
<svg version="1.1" id="Capa_1" xmlns="http://www.w3.org/2000/svg" xmlns:xlink="http://www.w3.org/1999/xlink" x="0px" y="0px"
	 viewBox="0 0 150 150" style="enable-background:new 0 0 150 150;" xml:space="preserve">
<g>
	<path d="M139.348,38.21c-0.838-0.244-1.813-0.23-2.521-0.666c-1.791-1.102-3.946-0.42-5.766-1.395
		c-1.132-0.607-2.184-1.173-3.079-2.163c-0.574-0.636-1.632-0.841-2.483-1.217c-0.33-0.146-0.678-0.284-1.031-0.333
		c-0.421-0.058-0.925-0.159-1.271,0.009c-0.928,0.451-1.759,0.421-2.559-0.2c-0.93-0.723-1.808,0.191-2.721,0.086
		c-0.04-0.005-0.222,0.487-0.191,0.728c0.205,1.609-0.313,2.913-1.453,4.059c-0.353,0.355-0.449,0.966-0.697,1.537
		c0.188,0.024,0.379,0.048,0.715,0.091c-0.218,0.819-0.414,1.621-0.647,2.411c-0.295,1.002-0.605,1.999-0.939,2.989
		c-0.207,0.614-0.314,0.65-1.012,0.551c-0.082,1.04-0.549,1.822-1.489,2.33c-0.941,0.509-1.302,1.4-1.105,2.504
		c0.028,0.155,0.012,0.432-0.074,0.477c-1.116,0.577-1.168,1.581-1.315,2.68c-0.25,1.873-1.687,2.912-3.213,3.778
		c-0.678,0.385-1.376,0.787-2.118,0.992c-0.808,0.223-1.674,0.262-2.519,0.315c-1.594,0.101-3.004-0.541-4.489-1.02
		c-1.812-0.585-3.125-1.671-4.36-2.999c-0.373-0.402-0.861-0.742-1.359-0.976c-1.729-0.813-2.29-2.667-3.552-3.895
		c-1.005-0.977-1.916-2.05-2.996-3.218c0.509-0.268,0.851-0.449,1.091-0.576c-0.412-0.473-0.85-1.027-1.349-1.52
		c-0.166-0.163-0.484-0.2-0.741-0.237c-0.599-0.087-0.602-0.073-0.612-0.893c0.312-0.023,0.628-0.047,0.945-0.07
		c0.058-0.081,0.116-0.161,0.174-0.241c-1.715-0.105-2-1.79-3.14-2.49c-0.886-0.544-1.899-0.878-2.85-1.318
		c-0.245-0.114-0.546-0.22-0.689-0.423c-0.549-0.776-1.241-0.915-2.123-0.695c-1.488,0.371-2.97,0.054-4.354-0.41
		c-1.206-0.404-2.329-1.103-3.415-1.788c-0.354-0.224-0.712-0.848-0.658-1.231c0.121-0.847-0.383-0.937-0.775-1.205
		c-0.19-0.295-0.519-0.585-0.532-0.888c-0.015-0.357,0.245-0.724,0.409-1.148c-0.089-0.04-0.346-0.156-0.753-0.34
		c0.26-0.337,0.497-0.645,0.767-0.994c-0.587-0.76-1.216-1.576-1.845-2.392c-0.573,0.796-1.019,0.744-1.558,0.004
		c-0.355-0.488-0.879-0.909-1.415-1.193c-0.479-0.254-1.07-0.626-1.629,0.013c-0.102,0.116-0.491,0.092-0.683-0.002
		c-0.839-0.408-1.662-0.594-2.604-0.316c-0.373,0.11-0.841-0.069-1.26-0.15c-0.983-0.19-1.96-0.408-2.944-0.593
		c-0.174-0.033-0.37,0.023-0.551,0.061c-0.201,0.042-0.401,0.17-0.594,0.156c-1.218-0.091-2.432-0.228-3.65-0.312
		c-0.318-0.022-0.651,0.069-0.968,0.146c-0.933,0.229-1.861,0.478-2.754,0.709c0.239,0.434,0.15,0.743-0.569,0.773
		c-0.516,0.021-1.027,0.14-1.579,0.221c0.144,0.392,0.228,0.623,0.312,0.854c-0.248,0.082-0.496,0.165-0.745,0.244
		c-0.082,0.026-0.17,0.029-0.251,0.056c-0.81,0.277-1.6,0.671-2.432,0.806c-0.976,0.159-1.516,0.711-1.954,1.499
		c-0.165,0.296-0.362,0.603-0.618,0.816c-1.137,0.944-2.487,1.703-3.406,2.82c-1.015,1.234-2.635,1.417-3.639,2.549
		c-0.069,0.078-0.226,0.137-0.326,0.118c-1.288-0.239-2.188,0.705-3.282,1.04c-1.128,0.346-2.336,0.423-3.481,0.725
		c-0.969,0.256-1.926,0.601-2.835,1.023c-1.277,0.593-2.505,1.293-3.43,1.778c-0.665,1.517,0.336,3.095-0.94,4.056
		c-1.346,1.013-1.791,2.498-2.552,3.841c-0.412,0.729-1.014,1.367-1.605,1.974c-1.066,1.095-1.407,2.486-1.546,3.898
		c-0.219,2.222-0.398,4.462-0.364,6.69c0.037,2.405,0.314,4.808,0.531,7.208c0.138,1.521-0.088,2.898-1.175,4.061
		c-0.181,0.194-0.369,0.651-0.272,0.791c0.487,0.703,0.19,1.28-0.063,1.958c-0.286,0.766-0.378,1.605-0.396,2.473
		c0.122-0.261,0.243-0.522,0.365-0.782c0.05,0.015,0.101,0.03,0.151,0.045c-0.222,0.803-0.446,1.605-0.664,2.409
		c-0.043,0.161-0.14,0.432-0.08,0.477c1.06,0.793,0.438,1.731,0.291,2.65c-0.052,0.325,0.013,0.794,0.22,1.011
		c0.66,0.693,0.695,0.66,0.678,1.273c0.086,0.011,0.173,0.022,0.259,0.033c0.165-1.29,0.344-2.578,0.486-3.871
		c0.049-0.442-0.016-0.911,0.748-0.791c0.124,2.153,0.372,4.317,0.329,6.476c-0.03,1.529-0.354,3.075-0.72,4.571
		c-0.667,2.718-1.438,5.41-2.221,8.097c-0.201,0.691-0.712,1.295-0.891,1.988c-0.139,0.54-0.216,1.349,0.08,1.705
		c1.146,1.377,1.688,2.987,2.16,4.647c0.626,2.205,1.312,4.398,1.823,6.63c0.526,2.298,0.845,4.642,1.302,6.957
		c0.581,2.941,1.003,5.891,0.948,8.901c-0.007,0.357,0.325,0.774,0.6,1.071c0.718,0.777,1.093,1.549,0.606,2.637
		c-0.456,1.019-0.163,1.615,0.969,1.706c2,0.16,4.018,0.161,6.025,0.122c0.534-0.01,1.144-0.309,1.567-0.659
		c0.437-0.36,0.323-0.954-0.175-1.24c-0.619-0.355-1.287-0.708-1.976-0.84c-2.025-0.386-3.018-1.67-3.517-3.559
		c-0.202-0.765-0.693-1.45-0.968-2.202c-0.357-0.977-0.771-1.965-0.912-2.983c-0.444-3.197-0.691-6.423-1.169-9.614
		c-0.358-2.391-0.084-4.714,0.201-7.072c0.139-1.149-0.077-2.338-0.103-3.51c-0.013-0.574,0.038-1.149,0.064-1.724
		c0.01-0.213,0.1-0.447,0.041-0.635c-0.542-1.699,0.22-3.167,0.845-4.635c0.71-1.667,1.001-3.407,1.225-5.186
		c0.139-1.107,0.452-2.195,0.734-3.279c0.066-0.254,0.323-0.457,0.559-0.773c0.17,0.274,0.339,0.419,0.336,0.562
		c-0.029,1.443-0.074,2.886-0.138,4.328c-0.056,1.256-0.097,2.515-0.225,3.764c-0.167,1.633-0.25,3.304-0.683,4.872
		c-0.287,1.04,0.099,1.829,0.482,2.537c1.409,2.604,3.169,5.032,4.439,7.696c1.728,3.624,3.147,7.396,4.659,11.121
		c0.666,1.641,1.186,3.341,1.875,4.972c0.208,0.492,0.722,0.882,1.159,1.243c0.552,0.457,0.803,0.927,0.579,1.668
		c-0.309,1.021-0.069,1.557,0.95,1.572c2.323,0.034,4.649-0.128,6.974-0.222c0.142-0.006,0.28-0.105,0.414-0.158
		c0.226-1.372-0.549-2.29-1.918-2.326c-2.097-0.056-3.612-1.022-4.642-2.866c-0.524-0.939-1.371-1.71-1.824-2.673
		c-0.752-1.599-1.38-3.266-1.923-4.949c-0.934-2.896-1.763-5.826-2.635-8.741c-0.043-0.145-0.12-0.298-0.104-0.439
		c0.247-2.126-0.747-4.048-0.984-6.078c-0.296-2.535-1.013-5.086-0.043-7.674c0.32-0.853,0.268-1.871,0.263-2.814
		c-0.01-1.818-0.077-3.636-0.181-5.451c-0.067-1.163,0.393-2.112,0.945-3.077c0.761-1.331,1.494-2.682,2.159-4.063
		c0.398-0.828,0.547-1.781,0.98-2.585c0.724-1.346,0.689-2.681,0.176-4.031c-0.26-0.683-0.178-1.266-0.059-1.974
		c0.203-1.207,0.061-2.471,0.066-3.711c0.001-0.221,0.013-0.441,0.021-0.662c0.284,0.033,0.623-0.021,0.841,0.117
		c0.54,0.341,1.056,0.735,1.525,1.169c2.692,2.485,5.597,4.676,8.897,6.286c2.459,1.2,5.101,1.814,7.773,2.38
		c2.646,0.561,5.295,0.508,7.957,0.52c1.635,0.007,3.27,0.001,4.905,0c0.062,0,0.131,0.018,0.184-0.004
		c1.547-0.632,2.988,0.231,4.479,0.296c1.733,0.075,3.562,0.542,5.134-0.732c0.101-0.081,0.623,0.108,0.679,0.267
		c0.199,0.564,0.418,1.177,0.382,1.756c-0.11,1.76-0.341,3.512-0.515,5.269c-0.136,1.365-0.373,2.733-0.361,4.098
		c0.022,2.497-0.502,4.897-1.066,7.295c-0.268,1.139-0.779,2.234-0.942,3.382c-0.168,1.177-0.101,2.398-0.04,3.595
		c0.151,2.966,0.478,5.928,0.507,8.893c0.029,3.003-0.175,6.01-0.355,9.011c-0.087,1.452-0.395,2.889-0.51,4.34
		c-0.032,0.402,0.151,0.965,0.441,1.222c0.914,0.812,0.836,2.044-0.018,3.015c-1.029,1.171-0.859,1.991,0.637,2.375
		c1.101,0.282,2.264,0.359,3.405,0.438c0.854,0.059,1.097,0.275,0.735,1.049c-0.371,0.793-0.148,1.106,0.645,1.399
		c1.734,0.639,3.518,0.665,5.317,0.658c0.803-0.003,1.62,0.093,2.404-0.026c0.838-0.128,1.645-0.457,2.478-0.703
		c-0.278-1.605-0.781-2.096-2.346-2.237c-1.662-0.15-3.473-2.189-3.563-3.842c-0.043-0.789-0.176-1.708-0.618-2.313
		c-0.887-1.217-1.145-2.574-1.392-3.975c-0.575-3.261-0.872-6.541-0.748-9.857c0.067-1.8,0.198-3.585,1.041-5.218
		c1.153-2.234,0.803-4.571,0.628-6.928c-0.11-1.478,0.034-2.975,0.075-4.463c0.007-0.24,0.119-0.481,0.108-0.718
		c-0.172-3.607,0.618-7.058,1.564-10.506c0.655-2.388,1.006-4.858,1.642-7.251c0.162-0.609,0.793-1.289,1.381-1.553
		c1.71-0.768,2.85-2.088,3.799-3.584c0.51-0.804,1.073-0.875,1.844-0.635c1.44,0.447,2.861,0.978,4.327,1.312
		c1.592,0.363,3.224,0.558,4.843,0.795c1.051,0.154,2.12,0.408,3.164,0.342c1.808-0.114,3.599-0.483,5.405-0.671
		c3.917-0.409,7.004-2.561,10.011-4.81c1.065-0.797,1.799-2.02,2.788-2.938c2.394-2.223,2.787-5.459,4.232-8.159
		c0.503-0.939,1.343-1.717,1.4-2.902c0.011-0.231,0.505-0.438,0.83-0.699c-0.262-0.372-0.732-0.923,0.363-0.871
		c0.106-0.982,0.033-1.98,1.001-2.705c0.301-0.226,0.283-0.948,0.314-1.45c0.065-1.054,0.404-1.336,1.448-1.457
		c1.654-0.192,3.293-0.509,4.942-0.751c0.633-0.093,1.286-0.072,1.91-0.202c0.366-0.076,0.677-0.384,1.037-0.525
		c0.835-0.325,1.667-0.69,2.536-0.876c0.369-0.079,0.844,0.212,1.24,0.402c0.73,0.35,1.349,0.498,2.101-0.104
		c0.504-0.404,1.279-0.46,1.914-0.717c0.229-0.093,0.569-0.311,0.578-0.487C143.841,42.408,141.192,38.747,139.348,38.21z"/>
</g>
</svg>
