<?xml version="1.0" encoding="iso-8859-1"?>
<!-- Generator: Adobe Illustrator 17.1.0, SVG Export Plug-In . SVG Version: 6.00 Build 0)  -->
<!DOCTYPE svg PUBLIC "-//W3C//DTD SVG 1.1//EN" "http://www.w3.org/Graphics/SVG/1.1/DTD/svg11.dtd">
<svg version="1.1" id="Capa_1" xmlns="http://www.w3.org/2000/svg" xmlns:xlink="http://www.w3.org/1999/xlink" x="0px" y="0px"
	 viewBox="0 0 150 150" style="enable-background:new 0 0 150 150;" xml:space="preserve">
<g>
	<path d="M128.179,124.924c0.309,2.201,1.327,3.782,3.79,3.722c3.747-0.092,6.494-2.026,8.332-5.143
		c1.588-2.695,1.114-5.351-0.249-7.67c-0.023-0.931-0.305-1.807-0.723-2.728l-0.271-0.598c0.275-1.086,0.015-2.399-0.648-4.3
		c-1.884-5.408-4.829-9.826-10.888-11.515c-0.132,0.49-0.263,0.981-0.393,1.472c0.165-2.146-0.779-4.385-2.821-5.372
		c-0.161-0.182-0.322-0.355-0.478-0.513c-3.601-3.632-8.155-5.428-13.184-6.357c-0.054,0.405-0.113,0.808-0.173,1.21
		c-0.31-1.408-1.118-2.685-2.426-3.422c-0.405-0.41-0.898-0.778-1.442-1.113c-4.491-2.763-13.777-4.526-19.353-3.62
		c0.022,0.33,0.031,0.657,0.046,0.985c-0.766-1.636-2.323-2.873-4.682-2.873c-0.026,0-0.05,0.003-0.076,0.003
		c-0.678-0.201-1.472-0.356-2.407-0.48c-2.139-0.285-4.303-0.388-6.459-0.522c-0.699-0.044-1.409,0.077-2.086,0.121
		c-0.005,0.021-0.009,0.042-0.014,0.062c-0.21-0.234-0.442-0.451-0.7-0.643c-0.345-1.425-1.206-2.701-2.583-3.4
		c-0.069-0.092-0.136-0.189-0.209-0.272c-1.47-1.676-2.842-1.662-4.082-0.354c0.03-0.879,0.06-1.759,0.09-2.638
		c0.046-1.35-0.484-2.594-1.345-3.551c-0.629-1.929-2.068-3.905-4.303-6.009c-0.244,0.346-0.491,0.686-0.741,1.021
		c0.51-1.438,0.454-3.1-0.165-4.49c-0.006-0.101-0.01-0.203-0.021-0.3c-0.535-4.619-2.882-8.425-5.987-12.284
		c-0.121,0.268-0.243,0.534-0.366,0.8c0.037-0.107,0.082-0.211,0.113-0.321c0.367-1.335,0.234-2.997-0.546-4.176
		c-0.18-0.272-0.359-0.543-0.539-0.815c-0.213-0.36-0.464-0.682-0.742-0.977c-0.581-1.041-1.462-2.182-2.684-3.609
		c-2.289-2.671-4.743-5.203-7.119-7.8c-2.597-2.838-6.066-4.029-9.601-5.1h-6.504c-0.791,0.243-1.585,0.487-2.401,0.738
		c-0.146,0.002-0.292,0.004-0.438,0.006c-0.604-0.033-1.23,0.01-1.68,0.184c-1.368,0.529-1.327,0.508-2.457,1.432
		c-0.133,0.109-0.264,0.253-0.391,0.413c-0.796,0.114-1.622,0.339-2.466,0.685c-5.288,2.166-8.318,6.076-9.137,11.718v3.252
		c1.027,3.332,3.341,5.16,6.71,5.779c0.528,0.097,1.097,0.199,1.541,0.471c0.883,0.541,1.709,1.176,2.551,1.783
		c0.016,0.125,0.034,0.25,0.057,0.375c-0.634,0.781-1.232,1.598-1.947,2.295c-0.68,0.661-1.521,1.158-2.424,1.826
		c1.966,0.849,4.568,0.567,6.949-0.481c0.619,0.327,1.344,0.532,2.177,0.581c-0.498,0.569-0.81,1.28-0.631,2.363
		c0.067,0.404-1.076,1.086-1.74,1.516c-1.116,0.724-2.295,1.349-3.448,2.016c0.02,0.302,0.04,0.605,0.06,0.907
		c2.545,0.112,5.09,0.223,7.942,0.348c-0.085,3.508-3.575,2.939-5.429,4.648c2.175,1.068,4.357,1.312,6.529,1.155
		c0.567,0.759,1.351,1.362,2.357,1.69c0.335,1.078,0.843,2.042,1.5,2.843c0.17,1.12,0.644,2.182,1.429,2.992
		c-0.091-0.026-0.183-0.047-0.274-0.074c0.708,3.07,1.093,5.863,2.028,8.458c0.812,2.254,0.255,3.62-1.378,5.177
		c-1.195,1.14-1.873,2.822-2.781,4.262c1.726,0.404,3.522,1.341,5.168,1.128c1.864-0.242,3.657-0.593,5.393-1.031
		c0.429,0.435,0.947,0.793,1.556,1.046c1.956,2.42,3.408,4.394,5.046,6.198c2.396,2.637,2.393,3.019,0.354,5.958
		c-0.795,1.146-1.091,2.639-1.613,3.975c1.543,0.174,3.205,0.804,4.61,0.441c3.057-0.792,5.92-1.968,8.463-3.631
		c0.473,0.129,0.986,0.206,1.549,0.206c0.224,0,0.439-0.015,0.648-0.037c-0.012,0.01-0.023,0.02-0.035,0.03
		c1.94,0.348,3.549,0.649,5.162,0.924c1.328,0.226,2.69,0.316,3.987,0.656c1.948,0.51,2.8,1.568,2.088,3.802
		c-0.45,1.41-0.172,3.051-0.221,4.589c1.676-0.369,3.817-0.216,4.935-1.212c2.409-2.147,4.951-4.477,6.557-7.209
		c0.316,0.052,0.647,0.084,0.999,0.084c0.469,0,0.905-0.05,1.31-0.141h10.837c-1.609,1.876-2.875,3.351-4.141,4.827
		c0.071,0.292,0.143,0.583,0.214,0.874c1.409,0.076,2.933,0.536,4.207,0.157c2.74-0.817,5.371-1.986,7.35-3.861
		c0.519,0.183,1.099,0.29,1.739,0.306c-0.027,0.037-0.051,0.075-0.078,0.113c3.093,1.496,6.238,2.995,9.363,4.535
		c0.917,0.452,1.802,0.682,2.652,0.712c0.796,0.792,1.895,1.326,3.3,1.407c2.463,1.255,4.705,2.496,7.073,3.411
		c0.228,0.088,0.475,0.157,0.728,0.215c0.632,0.9,1.56,1.595,2.785,1.902c-0.197,0.097-0.39,0.193-0.587,0.29
		C127.834,122.132,127.984,123.531,128.179,124.924z"/>
</g>
</svg>
