<?xml version="1.0" encoding="iso-8859-1"?>
<!-- Generator: Adobe Illustrator 17.1.0, SVG Export Plug-In . SVG Version: 6.00 Build 0)  -->
<!DOCTYPE svg PUBLIC "-//W3C//DTD SVG 1.1//EN" "http://www.w3.org/Graphics/SVG/1.1/DTD/svg11.dtd">
<svg version="1.1" id="Capa_1" xmlns="http://www.w3.org/2000/svg" xmlns:xlink="http://www.w3.org/1999/xlink" x="0px" y="0px"
	 viewBox="0 0 150 150" style="enable-background:new 0 0 150 150;" xml:space="preserve">
<g>
<path d="M8.528,25.405c0.591,0.232,0.568,0.749,0.722,1.194c0.062,0.181,0.123,0.362,0.185,0.543
	c0.127-0.062,0.255-0.123,0.381-0.185c0.191,0.189,0.411,0.348,0.651,0.472c0.053,0.205,0.108,0.417,0.168,0.653
	c-0.049,0.276-0.102,0.707-0.213,1.122c-0.039,0.146-0.198,0.305-0.342,0.369c-0.699,0.309-0.793,0.558-0.342,1.188
	c0.313,0.437,0.662,0.851,1.024,1.25c0.101,0.111,0.303,0.183,0.459,0.183c0.334,0,0.669-0.024,1.003-0.041
	c0.483,0.172,1.012,0.2,1.518,0.025c0.005-0.002,0.01-0.004,0.014-0.005c0.693,0.035,1.386,0.084,2.078,0.136
	c0.698,0.052,1.393,0.183,2.09,0.197c1.091,0.022,2.075,0.374,3.06,0.791c0.511,0.217,1.059,0.371,1.605,0.473
	c0.31,0.058,0.654-0.02,0.975-0.082c1.054-0.203,1.931,0.342,2.862,0.652c0.756,0.252,1.505,0.529,2.256,0.796
	c0.73,0.259,1.407-0.118,2.054-0.297c0.499-0.138,0.885-0.077,1.229,0.139c1.611,1.013,2.766,2.389,2.921,4.356
	c0.144,1.828,0.115,3.67,0.243,5.5c0.143,2.034,0.061,4.099,0.784,6.068c0.27,0.737,0.299,1.521,0.199,2.324
	c-0.185,1.483,0.066,2.935,0.533,4.347c0.284,0.858,0.571,1.717,0.907,2.556c0.321,0.802,0.76,1.559,1.049,2.371
	c0.246,0.693,0.343,1.438,0.526,2.154c0.094,0.369,0.234,0.727,0.37,1.142c0.098-0.149,0.191-0.29,0.284-0.431
	c0.057-0.003,0.114-0.005,0.172-0.008c0.036,0.371,0.109,0.744,0.094,1.113c-0.01,0.244-0.2,0.484,0.209,0.582
	c0.069,0.017,0.113,0.246,0.123,0.38c0.048,0.64,0.079,1.281,0.121,2c0.099-0.208,0.177-0.372,0.308-0.646
	c0.123,0.495,0.232,0.879,0.311,1.268c0.152,0.746,0.27,1.5,0.444,2.241c0.037,0.156,0.252,0.269,0.385,0.402
	c0.034-0.027,0.068-0.053,0.102-0.08c0.056,0.442,0.112,0.884,0.181,1.427c-0.64-0.089-1.214-0.17-1.788-0.249
	c-1.715-0.235-3.431-0.464-5.144-0.708c-0.31-0.044-0.611-0.149-0.916-0.226c-1.406-0.357-2.758-0.236-4.095,0.355
	c-0.583,0.258-1.26,0.296-1.855,0.535c-0.553,0.222-1.053,0.578-1.576,0.875c-0.157,0.089-0.303,0.215-0.472,0.262
	c-1.138,0.32-2.328,0.513-3.41,0.964c-1.144,0.476-2.048,1.324-2.498,2.554c-0.145,0.395,0.019,1.358,0.368,1.568
	c0.119,0.072,0.443-0.048,0.57-0.18c0.145-0.151,0.163-0.417,0.254-0.625c0.451-1.043,1.086-1.411,2.169-1.147
	c0.486,0.119,0.832,0.015,1.203-0.268c0.324-0.246,0.692-0.432,1.041-0.644c0.046,0.053,0.093,0.107,0.139,0.16
	c-0.227,0.232-0.418,0.523-0.686,0.687c-1.117,0.684-2.258,1.328-3.388,1.991c-0.268,0.157-0.567,0.292-0.78,0.508
	c-0.515,0.523-1.15,0.806-1.806,1.088c-0.304,0.131-0.6,0.377-0.794,0.647c-0.53,0.735-1.038,1.491-1.482,2.28
	c-0.188,0.334-0.184,0.773-0.286,1.159c-0.08,0.304-0.114,0.66-0.298,0.891c-1.607,2.019-2.817,4.256-3.687,6.673
	c-0.173,0.481-0.264,1.057,0.097,1.659c0.84-0.795,1.62-1.534,2.4-2.273l0.094,0.042c-0.143,0.464-0.328,0.92-0.418,1.394
	c-0.173,0.907-0.315,1.822-0.421,2.739c-0.039,0.336,0.033,0.695,0.117,1.028c0.026,0.103,0.329,0.254,0.383,0.215
	c0.297-0.217,0.585-0.462,0.817-0.746c0.161-0.196,0.203-0.486,0.343-0.706c0.458-0.723,0.936-1.433,1.406-2.148
	c0.041,0.014,0.083,0.029,0.124,0.043c-0.064,0.72-0.196,1.442-0.171,2.159c0.021,0.61,0.161,1.236,0.366,1.812
	c0.141,0.396,0.499,0.342,0.709-0.051c0.568-1.065,1.137-2.131,1.706-3.197c0,0.589-0.063,1.22,0.02,1.833
	c0.068,0.502,0.266,1.002,0.488,1.463c0.149,0.311,0.475,0.353,0.647-0.006c0.331-0.691,0.656-1.39,0.902-2.113
	c0.236-0.692,0.367-1.42,0.55-2.13c0.024-0.095,0.084-0.181,0.246-0.268c0.028,0.295,0.062,0.589,0.082,0.885
	c0.028,0.401-0.009,0.815,0.08,1.202c0.122,0.533,0.38,1.01,1.031,1.198c0.427-0.278,0.481-0.788,0.561-1.28
	c0.132-0.818,0.255-1.638,0.4-2.579c0.234,0.518,0.348,0.932,0.589,1.251c0.191,0.253,0.588,0.583,0.802,0.527
	c0.276-0.072,0.567-0.463,0.66-0.774c0.199-0.663,0.274-1.362,0.4-2.047c0.011-0.061,0.03-0.122,0.086-0.342
	c0.259,0.435,0.413,0.782,0.649,1.058c0.17,0.199,0.449,0.303,0.68,0.45c0.09-0.223,0.232-0.44,0.262-0.672
	c0.096-0.728,0.15-1.462,0.226-2.259c0.197,0.169,0.362,0.304,0.52,0.449c0.288,0.264,0.44,0.156,0.648-0.14
	c0.433-0.614,0.286-1.317,0.384-1.98c0.043-0.291,0.007-0.593,0.007-0.966c0.11,0.095,0.166,0.174,0.24,0.202
	c0.166,0.062,0.37,0.175,0.505,0.125c0.135-0.05,0.268-0.264,0.294-0.424c0.085-0.514,0.121-1.037,0.175-1.557
	c0.523-0.036,0.558-0.018,0.929-0.722c0.203-0.385,0.263-0.846,0.405-1.329c0.323,0.037,0.438-0.176,0.426-0.596
	c-0.014-0.466,0.078-0.935,0.128-1.452c0.485-0.06,0.501-0.444,0.486-0.87c-0.019-0.541-0.005-1.084-0.005-1.635
	c0.304-0.142,0.592-0.28,0.884-0.41c0.295-0.132,0.57-0.22,0.834,0.107c0.068,0.085,0.325,0.055,0.483,0.021
	c0.264-0.056,0.518-0.157,0.845-0.26c-0.071,0.678,0.266,0.661,0.682,0.527c0.332-0.107,0.667-0.203,1.031-0.313
	c0.04,0.448,0.285,0.51,0.642,0.362c0.129-0.053,0.291-0.056,0.394-0.137c0.53-0.416,1.054-0.137,1.589-0.027
	c0.456,0.094,0.922,0.137,1.494,0.218c-0.129,0.191-0.234,0.346-0.338,0.501c-0.045,0.066-0.089,0.132-0.134,0.199
	c-0.071-0.04-0.157-0.064-0.259-0.064c-0.541,0-0.651,0.667-0.332,0.94c-0.029,0.042-0.057,0.085-0.086,0.127
	c-0.048,0.071-0.078,0.178-0.145,0.21c-0.64,0.309-0.647,0.889-0.669,1.479c-0.038,1.072-0.529,1.65-1.595,1.853
	c-0.4,0.076-0.814,0.074-1.34,0.118c-0.01,0.009-0.123,0.113-0.239,0.219c1.256,1.055,2.923,1.559,4.575,0.048
	c-0.199,0.612-0.286,1.149-0.536,1.595c-0.484,0.866-1.064,1.678-1.592,2.52c-0.053,0.084-0.072,0.27-0.019,0.325
	c0.316,0.334,0.064,0.583-0.105,0.835c-0.446,0.666-0.877,1.308-0.771,2.198c0.047,0.393-0.18,0.857-0.693,0.922
	c-0.68,0.086-1.368,0.117-2.157,0.179c0.002-0.004-0.066,0.127-0.133,0.256c0.058,0.347,1.351,1.157,1.945,1.115
	c0.761-0.054,1.513-0.223,2.299-0.347c-0.02,0.256-0.049,0.627-0.078,0.999c-0.102,1.325-0.288,2.651-0.282,3.976
	c0.007,1.429,0.184,2.858,0.309,4.284c0.034,0.396,0.111,0.797,0.234,1.174c0.053,0.163,0.262,0.354,0.424,0.379
	c0.158,0.025,0.414-0.1,0.507-0.24c0.218-0.326,0.363-0.701,0.66-1.079c0.126,0.529,0.217,1.068,0.386,1.583
	c0.189,0.576,0.329,1.203,0.835,1.608c0.578,0.462,1.065,0.287,1.246-0.448c0.122-0.492,0.173-1.001,0.262-1.501
	c0.023-0.131,0.068-0.257,0.103-0.386l0.149-0.056c0.184,0.294,0.394,0.574,0.545,0.884c0.228,0.466,0.53,0.778,1.071,0.891
	c0.384,0.08,0.545-0.023,0.564-0.378c0.025-0.471,0.025-0.943,0.033-1.415c0.004-0.261,0.001-0.523,0.001-0.865
	c0.547,0.442,0.959,0.783,1.381,1.112c0.269,0.21,0.381,0.137,0.578-0.177c0.537-0.856,0.305-1.685,0.077-2.536
	c-0.027-0.101-0.05-0.204-0.064-0.307c-0.007-0.049,0.013-0.102,0.027-0.194c0.489,0.234,0.961,0.461,1.434,0.684
	c0.108,0.051,0.219,0.115,0.334,0.128c0.755,0.087,1.073-0.325,0.803-1.086c-0.216-0.609-0.488-1.198-0.795-1.941
	c0.474,0.132,0.853,0.21,1.21,0.344c0.402,0.152,0.658,0.053,0.658-0.378c0-0.364-0.086-0.742-0.203-1.09
	c-0.147-0.434-0.365-0.844-0.552-1.264c0.042-0.035,0.084-0.07,0.126-0.105c0.159,0.083,0.317,0.166,0.476,0.249
	c0.388,0.203,0.623,0.082,0.602-0.346c-0.016-0.328-0.072-0.66-0.162-0.976c-0.097-0.34,0.003-0.456,0.341-0.43
	c0.751,0.058,1.047-0.427,0.711-1.147c-0.307-0.657-0.608-1.317-0.912-1.976c0.031-0.036,0.062-0.072,0.093-0.109
	c0.218,0.105,0.431,0.225,0.658,0.309c0.135,0.05,0.355,0.113,0.421,0.05c0.103-0.099,0.165-0.309,0.144-0.457
	c-0.089-0.648-0.318-1.24-0.786-1.722c-0.107-0.111-0.213-0.239-0.268-0.38c-0.052-0.134-0.036-0.294-0.049-0.442
	c0.129,0.002,0.261,0.021,0.387,0.002c0.193-0.029,0.467-0.025,0.55-0.144c0.083-0.119,0.026-0.399-0.058-0.563
	c-0.397-0.766-0.825-1.515-1.256-2.294c0.064-0.01,0.16-0.044,0.251-0.035c0.423,0.041,0.558-0.181,0.451-0.541
	c-0.155-0.521-0.355-1.028-0.563-1.619c0.479-0.585-0.412-1.046-0.343-1.707c0.078,0.038,0.155,0.105,0.232,0.106
	c0.122,0.001,0.29-0.005,0.353-0.079c0.062-0.073,0.057-0.256,0.009-0.356c-0.097-0.203-0.252-0.377-0.367-0.572
	c-0.151-0.255-0.418-0.496-0.072-0.819c0.054-0.051-0.015-0.301-0.093-0.414c-0.258-0.378-0.353-0.703,0.079-1.042
	c0.128-0.1,0.147-0.339,0.197-0.465c0.219,0.164,0.457,0.343,0.695,0.522c0.176-0.266,0.353-0.532,0.533-0.804
	c0.778,0.37,0.778,0.37,1.339-0.79c0.687,0.267,0.687,0.267,1.201-0.62c0.187,0.143,0.382,0.407,0.561,0.397
	c0.193-0.011,0.355-0.304,0.558-0.432c0.336-0.212,0.684-0.413,1.045-0.577c0.445-0.202,0.917,0.056,1.38-0.023
	c0.097-0.017,0.245,0.125,0.336,0.224c0.937,1.029,2.1,1.721,3.361,2.268c0.063,0.027,0.131,0.049,0.198,0.06
	c0.118,0.019,0.237,0.028,0.362,0.042c-0.056-0.245-0.107-0.469-0.188-0.821c0.727,0.472,1.336,0.868,1.946,1.263
	c0.044-0.033,0.088-0.066,0.132-0.099c-0.081-0.243-0.163-0.487-0.244-0.73c0.03-0.029,0.061-0.058,0.091-0.087
	c0.395,0.324,0.789,0.649,1.112,0.914c0.359-0.05,0.674-0.142,0.983-0.125c0.452,0.026,0.634,0.371,0.733,0.774
	c0.387,1.585,1.128,3.02,1.947,4.411c0.589,1.001,1.241,1.965,1.891,2.928c0.044,0.066,0.077,0.124,0.099,0.178
	c-0.624,0.482-1.248,0.963-1.873,1.445c-0.071,0.044-0.142,0.088-0.212,0.133c-0.631,0.402-1.238,0.842-1.869,1.244
	c-0.263,0.168-0.551,0.305-0.843,0.417c-1.825,0.697-3.659,1.371-5.481,2.076c-1.033,0.4-2.078,0.787-3.059,1.293
	c-0.485,0.25-0.856,0.74-1.246,1.151c-0.397,0.419-0.698,0.946-1.143,1.298c-0.676,0.535-0.839,1.292-1.052,2.027
	c-0.167,0.579-0.224,1.19-0.332,1.787c-0.009,0.051-0.017,0.11-0.048,0.147c-0.817,0.971-0.641,2.265-1.091,3.355
	c-0.032,0.077-0.037,0.175-0.025,0.26c0.144,1.058,0.227,2.13,0.465,3.166c0.161,0.7,0.724,1.198,1.347,1.559
	c0.152,0.088,0.49,0.103,0.575,0.005c0.162-0.186,0.276-0.477,0.275-0.724c-0.001-0.358-0.169-0.714-0.181-1.073
	c-0.015-0.459,0.017-0.927,0.095-1.379c0.103-0.603,0.334-0.681,0.837-0.355c0.131,0.085,0.265,0.198,0.41,0.222
	c0.223,0.037,0.458,0.007,0.687,0.006c-0.013-0.172,0.002-0.352-0.044-0.515c-0.265-0.943-0.559-1.877-0.815-2.822
	c-0.213-0.786,0.387-2.028,1.124-2.377c0.457-0.216,0.92-0.42,1.398-0.636c0.022,0.072,0.063,0.141,0.047,0.159
	c-0.727,0.821-0.741,1.894-1.02,2.873c-0.067,0.234-0.158,0.461-0.251,0.686c-0.152,0.37-0.35,0.717-0.113,1.145
	c0.079,0.143,0.01,0.378-0.017,0.568c-0.115,0.794-0.07,1.558,0.31,2.289c0.109,0.21,0.143,0.466,0.176,0.706
	c0.103,0.732,0.917,1.498,1.856,1.35c-0.046-0.48-0.03-0.978-0.151-1.441c-0.249-0.949,0.193-1.679,0.77-2.277
	c0.727-0.754,0.839-1.622,0.665-2.532c-0.209-1.089,0.168-1.755,1.069-2.361c0.552-0.371,0.913-1.041,1.323-1.603
	c0.474-0.649,0.891-1.339,1.367-1.986c0.146-0.199,0.391-0.326,0.597-0.482c0.021,0.003,0.042,0.005,0.063,0.007
	c0.059,0.047,0.117,0.094,0.176,0.141c-0.281,0.559-0.524,1.142-0.854,1.67c-0.286,0.459-0.436,0.887-0.275,1.431
	c0.252,0.847-0.06,1.619-0.408,2.376c-0.099,0.216-0.19,0.437-0.286,0.656c0.635,0.247,1.502-0.01,2.016-0.469
	c0.567-0.507,0.769-1.191,1.04-1.85c0.115-0.28,0.294-0.543,0.359-0.833c0.109-0.486,0.181-0.985,0.214-1.482
	c0.058-0.886,0.463-1.553,1.01-2.151c0.056-0.028,0.111-0.056,0.165-0.084c0.612-0.324,1.148-0.756,1.694-1.178
	c0.427-0.329,0.854-0.659,1.281-0.988c1.006-0.492,2.059-0.893,3.085-1.347c0.128-0.057,0.268-0.104,0.374-0.191
	c0.38-0.312,0.646-0.161,0.929,0.157c0.113,0.127,0.347,0.136,0.503,0.236c0.21,0.136,0.428,0.281,0.586,0.47
	c0.251,0.298,0.454,0.563,0.924,0.583c0.268,0.011,0.579,0.283,0.775,0.517c0.716,0.857,1.36,1.774,2.098,2.61
	c0.258,0.292,0.714,0.405,1.07,0.616c0.199,0.118,0.422,0.235,0.561,0.41c0.678,0.859,1.373,1.71,1.978,2.62
	c0.371,0.558,0.588,1.218,0.876,1.831c0.06,0.127,0.131,0.248,0.196,0.372c0.049-0.009,0.098-0.018,0.147-0.027
	c0.03-0.251,0.06-0.501,0.09-0.752c0.044-0.005,0.087-0.011,0.131-0.016c0.142,0.546,0.256,1.102,0.435,1.636
	c0.16,0.477-0.064,1.116,0.595,1.496c0.071-0.376,0.127-0.671,0.188-0.992c0.33,0.761,0.644,1.486,0.958,2.211
	c0.014,0.032,0.033,0.067,0.03,0.1c-0.036,0.451,0.151,0.591,0.6,0.365c0.097,0.481,0.164,0.926,0.285,1.356
	c0.045,0.16,0.215,0.284,0.329,0.425c0.132-0.135,0.357-0.259,0.377-0.409c0.053-0.407,0.018-0.825,0.065-1.249
	c0.091,0.386,0.162,0.779,0.279,1.157c0.093,0.3,0.004,0.741,0.529,0.773c0.054,0.003,0.119,0.233,0.136,0.364
	c0.063,0.486,0.09,0.977,0.165,1.461c0.083,0.533,0.217,0.584,0.586,0.353c0.231,0.133,0.422,0.243,0.649,0.373
	c0,0.565-0.014,1.213,0.007,1.86c0.009,0.275,0.09,0.547,0.138,0.821c0.222-0.127,0.444-0.255,0.753-0.431
	c0.839,1.316,1.699,2.656,2.429,4.097c-0.09,0.149-0.107,0.333,0.014,0.502c0.153,0.214,0.31,0.425,0.467,0.636l0.211,0.366
	c0.007,0.017,0.014,0.035,0.021,0.053c0.084,0.263,0.175,0.524,0.273,0.781l-0.599,0.394c0.214-0.071,0.4-0.228,0.613-0.358
	c0.657,1.712,1.634,3.294,2.873,4.647l1.629,2.826c0.157,0.353,0.313,0.706,0.47,1.059c0.024,0.073,0.048,0.146,0.073,0.218
	c0.221,0.649,0.481,1.285,0.702,1.934c0.092,0.271,0.152,0.557,0.189,0.842c0.228,1.78,0.433,3.563,0.669,5.342
	c0.134,1.008,0.253,2.025,0.492,3.01c0.118,0.487,0.472,0.922,0.753,1.357c0.286,0.443,0.688,0.824,0.905,1.296
	c0.329,0.718,0.963,1.023,1.568,1.367c0.476,0.271,1.005,0.451,1.509,0.672c0.043,0.019,0.094,0.038,0.12,0.074
	c0.685,0.935,1.866,1.05,2.734,1.681c0.062,0.045,0.147,0.07,0.224,0.077c0.966,0.093,1.931,0.244,2.898,0.249
	c0.653,0.003,1.213-0.396,1.665-0.878c0.11-0.117,0.195-0.417,0.127-0.514c-0.13-0.184-0.363-0.348-0.581-0.399
	c-0.317-0.074-0.667,0.001-0.987-0.064c-0.409-0.083-0.815-0.21-1.199-0.375c-0.511-0.219-0.531-0.442-0.136-0.824
	c0.103-0.1,0.232-0.196,0.283-0.32c0.08-0.192,0.104-0.408,0.151-0.614c-0.155-0.024-0.311-0.076-0.464-0.069
	c-0.89,0.039-1.779,0.106-2.668,0.137c-0.74,0.026-1.71-0.772-1.862-1.506c-0.094-0.454-0.175-0.912-0.265-1.385
	c0.069-0.005,0.138-0.027,0.15-0.008c0.571,0.824,1.516,1.061,2.322,1.517c0.192,0.109,0.374,0.239,0.553,0.368
	c0.295,0.214,0.559,0.464,0.988,0.342c0.143-0.041,0.337,0.07,0.498,0.135c0.677,0.27,1.362,0.39,2.089,0.203
	c0.209-0.054,0.443-0.03,0.662-0.009c0.669,0.062,1.519-0.506,1.588-1.377c-0.434-0.06-0.871-0.179-1.306-0.167
	c-0.892,0.023-1.443-0.526-1.849-1.168c-0.512-0.809-1.256-1.092-2.097-1.127c-1.007-0.042-1.516-0.519-1.86-1.453
	c-0.211-0.572-0.726-1.036-1.136-1.521c-0.473-0.56-0.994-1.079-1.465-1.641c-0.145-0.173-0.205-0.418-0.299-0.635
	c0.007-0.019,0.013-0.037,0.02-0.055c0.054-0.043,0.108-0.085,0.163-0.128c0.435,0.369,0.898,0.709,1.295,1.115
	c0.345,0.353,0.691,0.577,1.206,0.547c0.802-0.047,1.418,0.394,2.013,0.864c0.17,0.134,0.346,0.262,0.519,0.394
	c0.353-0.516,0.311-1.346,0.014-1.903c-0.328-0.615-0.889-0.939-1.414-1.32c-0.223-0.162-0.418-0.377-0.66-0.496
	c-0.406-0.2-0.832-0.369-1.265-0.503c-0.771-0.238-1.274-0.74-1.686-1.356c-0.013-0.056-0.026-0.111-0.04-0.165
	c-0.156-0.616-1.69-1.081-1.946-1.658c-0.078-0.176-0.156-0.352-0.234-0.528c0.088-0.094,0.135-0.185,0.09-0.268
	c-0.362-1.133-0.765-2.255-1.155-3.378c-0.322-0.926-0.643-1.852-0.965-2.778c-0.032-0.159-0.085-0.318-0.16-0.47
	c-0.004-0.009-0.009-0.018-0.013-0.027c-0.519-1.493-1.038-2.987-1.557-4.48l0.109-0.072c-0.15-0.843-0.344-1.589-0.405-2.345
	c-0.106-1.327-0.203-2.648-0.673-3.91c-0.032-0.087-0.056-0.253-0.016-0.28c0.441-0.297,0.246-0.677,0.132-1.024
	c-0.59-1.796-1.694-3.28-2.875-4.719c-0.509-0.62-0.96-1.287-1.464-1.912c-1.173-1.454-2.446-2.835-3.518-4.359
	c-0.846-1.204-1.532-2.541-2.144-3.885c-0.643-1.41-1.129-2.894-1.651-4.357c-0.12-0.337-0.117-0.721-0.149-1.085
	c-0.01-0.113,0.026-0.247,0.083-0.347c0.255-0.449,0.525-0.89,0.768-1.299c0.061,0.205,0.153,0.517,0.257,0.865
	c0.556-0.724-0.075-1.34-0.035-2.135c0.152,0.127,0.24,0.214,0.341,0.282c0.117,0.079,0.248,0.196,0.367,0.189
	c0.075-0.004,0.195-0.205,0.196-0.318c0.001-0.26-0.093-0.52-0.087-0.779c0.014-0.555-0.175-1.071,0.02-1.684
	c0.136-0.428-0.32-1.063-0.559-1.585c-0.385-0.843-1.073-1.43-1.769-2.01c-0.371-0.309-0.696-0.675-1.048-1.008
	c-0.326-0.308-0.671-0.596-0.988-0.913c-0.229-0.229-0.434-0.483-0.633-0.738c-0.888-1.141-1.739-2.313-2.667-3.421
	c-0.508-0.606-1.142-1.107-1.702-1.64c1.505-1.299,3.059-2.53,3.936-4.399c0.007,0.088,0.015,0.176,0.022,0.264
	c0.034,0.016,0.069,0.033,0.103,0.049c0.223-0.49,0.447-0.981,0.687-1.508c0.425,0.389,0.576,0.134,0.697-0.246
	c0.09-0.283,0.211-0.556,0.329-0.829c0.04-0.094,0.118-0.254,0.167-0.25c0.667,0.058,0.581-0.534,0.747-0.878
	c0.181-0.375,0.297-0.784,0.414-1.187c0.081-0.277,0.129-0.532,0.502-0.567c0.107-0.01,0.22-0.199,0.289-0.328
	c0.341-0.643,0.402-1.381,0.942-1.984c0.382-0.427,0.421-1.166,0.598-1.77c0.108-0.367,0.213-0.739,0.273-1.116
	c0.118-0.742,0.734-1.114,1.228-1.49c1.273-0.965,2.607-1.857,3.965-2.698c0.885-0.548,1.862-0.946,2.786-1.434
	c0.241-0.127,0.421-0.364,0.656-0.505c0.727-0.436,1.491-0.816,2.199-1.281c1.9-1.246,3.77-2.537,5.669-3.785
	c1.474-0.968,2.971-1.901,4.461-2.844c0.547-0.346,1.129-0.643,1.647-1.027c0.303-0.225,0.486-0.604,0.768-0.866
	c0.421-0.392,0.863-0.767,1.329-1.103c0.468-0.338,0.491-0.364,0.03-0.752c0.49-0.423,0.976-0.842,1.518-1.309
	c-0.158-0.035-0.24-0.053-0.323-0.071l-0.022-0.093c0.195-0.034,0.401-0.039,0.584-0.106c0.51-0.188,1.015-0.391,1.509-0.618
	c0.056-0.026,0.028-0.235,0.042-0.399c0.238-0.094,0.559-0.148,0.76-0.332c0.088-0.08-0.07-0.428-0.132-0.726
	c0.494-0.237,1.125-0.54,1.822-0.874c-0.183-0.162-0.34-0.301-0.512-0.453c0.529-0.464,1.085-0.282,1.671-0.16
	c2.127,0.443,4.242,0.421,6.312-0.318c0.188-0.067,0.47-0.274,0.461-0.398c-0.016-0.226-0.168-0.507-0.353-0.642
	c-0.421-0.304-0.897-0.531-1.348-0.794c-0.118-0.069-0.228-0.153-0.333-0.331c0.49,0,0.981-0.023,1.47,0.004
	c1.993,0.112,3.939-0.13,5.843-0.725c0.299-0.093,0.617-0.135,0.907-0.249c0.208-0.082,0.562-0.291,0.544-0.363
	c-0.067-0.26-0.211-0.577-0.425-0.708c-0.473-0.29-1.008-0.479-1.516-0.713c-0.074-0.034-0.138-0.09-0.251-0.165
	c1.102-0.278,2.163-0.491,3.187-0.819c1.007-0.322,1.987-0.738,2.959-1.159c0.409-0.177,0.435-0.664,0.038-0.872
	c-0.407-0.213-0.882-0.304-1.336-0.414c-0.39-0.094-0.789-0.154-1.188-0.199c-0.378-0.043-0.76-0.047-1.169-0.178
	c0.458-0.183,0.922-0.352,1.372-0.551c0.99-0.437,1.962-0.915,2.962-1.324c0.756-0.309,1.452-0.686,2.004-1.293
	c0.124-0.137,0.314-0.402,0.268-0.47c-0.123-0.182-0.344-0.38-0.548-0.409c-0.499-0.069-1.012-0.069-1.518-0.055
	c-0.709,0.02-1.418,0.077-2.263,0.127c0.189-0.132,0.264-0.192,0.346-0.241c1.503-0.887,3.019-1.755,4.499-2.68
	c0.196-0.123,0.258-0.532,0.279-0.816c0.005-0.071-0.386-0.24-0.599-0.248c-1.6-0.062-3.108,0.406-4.618,0.851
	c-0.167,0.049-0.341,0.072-0.511,0.108c-0.017-0.041-0.033-0.082-0.05-0.122c0.273-0.206,0.543-0.417,0.821-0.618
	c1.447-1.049,2.568-2.403,3.58-3.855c0.283-0.406,0.073-0.842-0.423-0.792c-0.548,0.055-1.089,0.226-1.62,0.39
	c-0.625,0.194-1.236,0.436-1.887,0.67c0.693-0.989,1.378-1.911,1.998-2.875c0.276-0.43,0.466-0.931,0.611-1.424
	c0.117-0.398-0.269-0.496-0.527-0.455c-0.509,0.082-1.034,0.195-1.496,0.414c-0.677,0.321-1.304,0.748-1.954,1.127
	c-0.133,0.078-0.275,0.141-0.481,0.168c1.034-1.593,1.763-3.302,2.346-5.12c-0.907-0.251-1.597-0.124-2.239,0.427
	c-0.672,0.577-1.396,1.093-2.193,1.71c0.214-0.554,0.407-0.994,0.556-1.449c0.428-1.308,0.86-2.615,1.244-3.936
	c0.162-0.559-0.159-0.805-0.733-0.689c-0.8,0.162-1.17,0.855-1.708,1.337c-0.412,0.37-0.794,0.773-1.211,1.183
	c-0.046-0.675-0.042-1.318-0.153-1.94c-0.058-0.327-0.252-0.729-0.512-0.887c-0.181-0.11-0.662,0.051-0.864,0.244
	c-0.579,0.553-1.094,1.175-1.613,1.787c-0.317,0.374-0.594,0.781-0.974,1.286c-0.041-0.708-0.038-1.263-0.115-1.807
	c-0.085-0.597-0.848-0.803-1.359-0.511c-0.63,0.36-0.896,0.905-1.14,1.531c-0.309,0.792-0.696,1.553-1.056,2.343
	c-0.143-0.651-0.269-1.294-0.426-1.929c-0.159-0.641-0.657-0.791-1.142-0.33c-0.392,0.372-0.695,0.786-0.798,1.369
	c-0.194,1.102-0.485,2.186-0.741,3.3c-0.184-0.293-0.342-0.574-0.529-0.834c-0.285-0.395-0.684-0.396-0.84,0.06
	c-0.257,0.752-0.416,1.54-0.582,2.32c-0.07,0.332-0.053,0.683-0.079,1.08c-0.132-0.073-0.191-0.086-0.213-0.121
	c-0.206-0.331-0.49-0.67-0.875-0.48c-0.22,0.109-0.376,0.522-0.403,0.813c-0.108,1.16-0.154,2.325-0.217,3.383
	c-0.327,0-0.7-0.057-1.045,0.017c-0.31,0.066-0.359,0.354-0.326,0.677c0.172,1.687,0.319,3.377,0.473,5.066
	c0.005,0.051-0.005,0.103-0.013,0.261c-0.224-0.191-0.378-0.378-0.576-0.478c-0.257-0.131-0.549-0.194-0.826-0.286
	c-0.071,0.289-0.25,0.601-0.193,0.863c0.214,0.99,0.503,1.963,0.768,2.942c0.045,0.166,0.107,0.327,0.183,0.557
	c-0.162-0.031-0.254-0.052-0.347-0.067c-0.799-0.122-0.886,0-0.728,0.765c0.137,0.663,0.135,1.356,0.291,2.013
	c0.181,0.763,0.493,1.494,0.694,2.253c0.078,0.295,0.118,0.686-0.011,0.937c-0.772,1.498-1.69,2.885-3.101,3.89
	c-0.723,0.515-1.378,1.125-2.078,1.673c-0.3,0.234-0.658,0.393-0.956,0.63c-1.33,1.059-2.797,1.89-4.326,2.612
	c-0.47,0.222-0.984,0.361-1.489,0.495c-0.641,0.169-1.287,0.342-1.943,0.425c-1.175,0.148-2.357,0.238-3.538,0.336
	c-2.137,0.178-4.222-0.27-6.308-0.603c-1.774-0.283-3.525-0.711-5.279-1.107c-0.81-0.183-1.609-0.426-2.402-0.673
	c-1.775-0.554-3.521-1.224-5.323-1.664c-1.624-0.396-3.306-0.556-4.966-0.8c-0.291-0.043-0.524-0.027-0.459-0.44
	c0.013-0.08-0.234-0.277-0.373-0.289c-0.293-0.026-0.598,0.079-0.89,0.05c-0.478-0.048-0.948-0.169-1.424-0.245
	c-0.543-0.087-1.091-0.144-1.631-0.246c-0.257-0.049-0.5-0.17-0.747-0.263c-0.08-0.03-0.159-0.115-0.232-0.108
	c-1.162,0.105-2.33-0.312-3.495,0.074c-0.422,0.14-0.893,0.131-1.343,0.184c-0.085,0.01-0.214,0.029-0.255-0.017
	c-0.456-0.517-0.978-0.15-1.471-0.12c-0.311,0.019-0.574,0.093-0.929-0.047c-0.363-0.143-0.877,0.062-1.315,0.158
	c-0.442,0.097-0.871,0.253-1.309,0.373c-0.399,0.11-0.772,0.133-1.213,0.048c-0.446-0.086-0.96,0.203-1.449,0.301
	c-0.195,0.039-0.404,0-0.606,0.009c-0.143,0.007-0.287,0.025-0.426,0.055c-0.57,0.125-1.051,0.603-1.728,0.352
	c-0.176-0.065-0.47,0.164-0.702,0.273c-0.489,0.23-0.972,0.469-1.508,0.729c-0.214-0.742-0.627-0.49-1.048-0.278
	c-0.359,0.18-0.73,0.337-1.098,0.5c-0.078,0.035-0.191,0.094-0.245,0.064c-0.469-0.261-0.841,0.013-1.23,0.202
	c-0.958,0.466-1.926,0.915-2.873,1.403c-1.007,0.519-1.016,0.422-1.598-0.625c-0.159-0.285-0.295-0.593-0.379-0.907
	c-0.095-0.354-0.118-0.726-0.173-1.09c-0.003-0.017,0.003-0.036,0-0.053c-0.129-0.728-0.25-1.458-0.393-2.184
	c-0.04-0.203-0.145-0.392-0.22-0.588c0.049,0.004,0.097,0.007,0.146,0.011c0.028-0.145,0.125-0.325,0.072-0.431
	c-0.237-0.477-0.516-0.933-0.78-1.396c0.033-0.033,0.066-0.065,0.1-0.098c0.178,0.155,0.357,0.31,0.639,0.555
	c0.052-1.009-0.699-1.527-1.043-2.359c0.336,0.273,0.591,0.481,0.846,0.689c0.043-0.01,0.086-0.019,0.128-0.029
	c-0.047-0.153-0.063-0.326-0.147-0.456c-0.131-0.205-0.293-0.396-0.468-0.568c-0.158-0.155-0.35-0.276-0.6-0.469
	c0.226-0.135,0.39-0.232,0.629-0.373c-0.415-0.334-0.847-0.648-1.233-1.01c-0.133-0.124-0.142-0.375-0.224-0.56
	c-0.063-0.142-0.12-0.313-0.233-0.402c-0.313-0.246-0.656-0.453-0.982-0.683c-0.19-0.134-0.299-0.269-0.096-0.512
	c0.2-0.24,0.083-0.393-0.207-0.489c-0.576-0.19-1.057-0.471-1.462-0.99c-0.498-0.639-1.3-0.872-2.096-1.024
	c-0.4-0.077-0.793-0.186-1.189-0.28c0.005-0.055,0.01-0.11,0.016-0.165c0.488,0,0.978,0.017,1.465-0.009
	c0.166-0.009,0.326-0.125,0.489-0.193c-0.101-0.127-0.176-0.325-0.306-0.371c-0.77-0.272-1.551-0.509-2.33-0.755
	c-0.164-0.052-0.333-0.089-0.521-0.236c0.227-0.082,0.465-0.144,0.676-0.255c0.132-0.07,0.225-0.215,0.335-0.326
	c-0.135-0.096-0.262-0.257-0.406-0.275c-0.47-0.056-0.946-0.064-1.42-0.081c-0.316-0.011-0.628,0.023-0.806-0.35
	c-0.049-0.102-0.268-0.135-0.416-0.176c-1.147-0.316-2.29-0.048-3.436,0.026c-0.585,0.038-1.192,0.288-1.741-0.188
	c-0.123-0.106-0.372-0.063-0.562-0.095c-0.556-0.095-1.117-0.3-1.664-0.266c-0.703,0.043-1.395,0.272-2.089,0.431
	c-0.25,0.057-0.494,0.144-0.895,0.262c0.229-0.31,0.372-0.503,0.515-0.696c-0.015-0.031-0.029-0.062-0.044-0.093
	c-0.166,0.059-0.335,0.175-0.498,0.167c-0.425-0.02-0.862,0.335-1.299-0.129c-0.124-0.132-0.628,0.035-0.932,0.14
	c-0.932,0.32-1.851,0.676-2.775,1.018l-0.119-0.152c0.243-0.269,0.486-0.537,0.729-0.806c-0.025-0.036-0.05-0.073-0.075-0.109
	c-0.198,0.102-0.393,0.212-0.594,0.305c-1.217,0.565-2.426,1.152-3.661,1.676c-0.425,0.181-0.913,0.227-1.379,0.296
	c-1.425,0.213-2.843,0.431-4.171,1.044c-0.792,0.365-1.094,1.131-1.507,1.79C8.11,24.785,8.336,25.329,8.528,25.405z M46.263,67.668
	c0.617,0.048,1.237,0.078,1.858,0.098c1.425,0.457,2.885,0.637,4.366,0.738c0.443,0.03,0.735,0.19,0.952,0.695
	c0.594,1.387,1.101,2.846,2.294,3.892c0.282,0.247,0.212,0.571-0.117,0.624c-0.949,0.154-1.901,0.294-2.854,0.424
	c-1.123,0.153-2.266,0.214-3.367,0.461c-0.734,0.164-1.411,0.583-2.173,0.915c-0.015-0.029-0.092-0.158-0.151-0.293
	c-0.238-0.545-0.018-1.124-0.123-1.7c-0.102-0.561-0.461-1.117-0.218-1.75c0.076-0.197-0.175-0.594-0.074-0.693
	c0.41-0.402,0.116-0.761,0.04-1.144C46.547,69.201,46.412,68.463,46.263,67.668z"/>
</g>
</svg>
