<?xml version="1.0" encoding="iso-8859-1"?>
<!-- Generator: Adobe Illustrator 17.1.0, SVG Export Plug-In . SVG Version: 6.00 Build 0)  -->
<!DOCTYPE svg PUBLIC "-//W3C//DTD SVG 1.1//EN" "http://www.w3.org/Graphics/SVG/1.1/DTD/svg11.dtd">
<svg version="1.1" id="Capa_1" xmlns="http://www.w3.org/2000/svg" xmlns:xlink="http://www.w3.org/1999/xlink" x="0px" y="0px"
	 viewBox="0 0 150 150" style="enable-background:new 0 0 150 150;" xml:space="preserve">
<g>
	<path d="M67.959,103.449c0.022-0.778,0.033-1.56,0.126-2.331c0.19-1.584,0.079-3.072-0.671-4.551
		c-0.553-1.09-0.921-2.316-0.499-3.605c0.314-0.959,0.629-1.922,0.865-2.902c0.189-0.784-0.026-1.083-0.838-1.144
		c-1.775-0.133-3.444-0.611-5.056-1.344c-0.612-0.279-1.142-0.319-1.553,0.428c-1.244,2.26-3.506,3.207-5.704,4.139
		c-1.604,0.68-3.354,1.011-4.975,1.657c-1.198,0.477-2.57,0.922-2.676,2.608c-0.013,0.2-0.223,0.409-0.383,0.574
		c-1.068,1.107-1.183,3.007-0.236,4.218c0.11,0.14,0.244,0.308,0.4,0.357c0.821,0.255,1.654,0.467,2.479,0.71
		c0.447,0.132,0.894,0.277,1.324,0.456c0.377,0.157,0.747,0.342,1.09,0.562c0.64,0.411,1.448,0.685,1.659,1.659
		c0.047,0.216-0.13,0.396-0.351,0.397c-0.465,0.002-0.908,0.004-1.351-0.003c-0.49-0.008-1.055-0.203-1.454-0.022
		c-1.051,0.475-2.102,0.269-3.165,0.251c-1.087-0.019-2.175-0.014-3.261,0.025c-0.659,0.024-1.313,0.144-1.972,0.197
		c-0.463,0.037-0.931,0.016-1.395,0.05c-0.967,0.071-1.17-0.196-1.388-1.125c-0.177-0.756-0.53-1.516-0.982-2.149
		c-0.452-0.634-0.698-1.219-0.419-1.954c0.167-0.439,0.391-0.856,0.569-1.291c0.52-1.273,1.305-2.514,1.481-3.834
		c0.294-2.207,1.271-3.707,3.217-4.735c0.809-0.427,1.71-1.01,2.136-1.766c0.894-1.588,1.553-3.307,2.284-4.981
		c0.088-0.202,0-0.445-0.202-0.535c-0.693-0.31-1.369-0.564-1.927-0.977c-0.698-0.516-1.408-0.437-2.148-0.394
		c-0.591,0.034-1.179,0.122-1.767,0.193c-0.359,0.043-0.727,0.058-1.072,0.154c-3.136,0.872-5.583,3.049-8.432,4.466
		c-1.327,0.66-2.629,1.386-4,1.936c-1.952,0.783-4.039,1.115-6.122,1.139c-1.938,0.022-3.92,0.422-5.825-0.336
		c-1.19-0.474-2.361-1.054-3.597-1.34c-2.413-0.557-4.869-0.926-7.3-1.41c-0.4-0.08-0.781-0.25-1.165-0.411
		c-0.204-0.085-0.257-0.287-0.087-0.428c0.178-0.148,0.346-0.232,0.524-0.281c2.727-0.756,5.511-1.118,8.334-1.294
		c2.633-0.164,5.286-0.283,7.882-0.714c2.77-0.46,5.025-1.952,6.719-4.261c1.742-2.373,3.512-4.728,5.341-7.034
		c1.113-1.404,2.373-2.691,3.546-4.049c1.346-1.558,2.639-3.163,4.012-4.697c0.813-0.909,1.72-1.736,2.613-2.569
		c1.252-1.169,2.429-2.456,3.821-3.43c2.025-1.417,4.151-2.723,6.351-3.848c2.201-1.126,4.497-2.086,7.001-2.434
		c1.67-0.232,3.312-0.664,4.978-0.936c2.552-0.416,5.104-0.892,7.676-1.103c1.286-0.105,2.631,0.251,3.923,0.525
		c1.417,0.3,2.823,0.686,4.196,1.149c0.909,0.307,1.749,0.818,2.623,1.231c1.615,0.762,3.378,1.198,4.873,2.225
		c0.192,0.132,0.41,0.257,0.634,0.308c1.393,0.319,2.848,0.464,4.174,0.957c1.89,0.702,3.771,0.65,5.703,0.473
		c0.771-0.071,1.22-0.301,1.448-1.141c0.279-1.03,0.214-1.853-0.56-2.63c-0.217-0.218-0.427-0.809-0.319-0.922
		c0.649-0.68,0.227-1.38,0.185-2.081c-0.02-0.334,0.006-0.898,0.183-0.977c0.753-0.339,0.678-0.865,0.531-1.48
		c-0.067-0.278-0.137-0.582-0.092-0.856c0.093-0.563-0.007-1.322,0.7-1.503c0.546-0.139,0.49-0.367,0.44-0.769
		c-0.129-1.039,0.533-1.86,1.52-1.966c0.053-0.006,0.105-0.021,0.149-0.039c0.079-0.031,0.123-0.245,0.134-0.466
		c0.059-1.16,0.113-2.23,0.166-3.289c0.011-0.221,0.089-0.414,0.173-0.431c0.084-0.017,0.255,0.116,0.381,0.297
		c0.138,0.198,0.277,0.396,0.414,0.595c0.218,0.316,0.381,0.833,0.663,0.91c0.573,0.155,1.219,0.138,1.816,0.056
		c0.237-0.033,0.448-0.41,0.629-0.661c0.885-1.229,2.281-1.508,3.437-0.745c0.184,0.122,0.147,0.292-0.067,0.349
		c-0.242,0.064-0.487,0.132-0.707,0.246c-0.676,0.352-0.631,0.534-0.07,1.039c0.463,0.417,0.922,0.655,1.554,0.76
		c0.956,0.16,1.223-0.052,1.007-1.04c-0.031-0.141-0.04-0.288-0.044-0.435c-0.006-0.221,0.042-0.41,0.107-0.424
		s0.225,0.119,0.368,0.287c0.455,0.536,0.928,1.017,0.906,1.975c-0.023,0.975-0.09,2.065,0.578,3.048
		c1.103,1.623,0.759,3.786-0.625,5.17c-0.522,0.522-0.397,1.054,0.263,1.375c0.251,0.122,0.443,0.391,0.625,0.622
		c0.122,0.155,0.157,0.504,0.271,0.523c1.323,0.219,1.101,1.766,2.084,2.37c0.582,0.358,0.813,1.324,1.137,2.046
		c0.104,0.232,0.116,0.67-0.029,0.811c-0.133,0.131-0.344,0.183-0.578,0.234c-0.216,0.047-0.386,0.332-0.18,0.413
		c0.189,0.075,0.479-0.018,0.784-0.112c0.271-0.084,0.638-0.213,0.839-0.101c0.455,0.253,0.791,0.275,1.21-0.061
		c0.307-0.247,2.342,0.566,2.556,0.92c0.117,0.194,0.352,0.323,0.545,0.465c0.467,0.342,0.957,0.655,1.4,1.026
		c0.1,0.084,0.13,0.434,0.044,0.529c-0.577,0.642-0.628,1.332-0.316,2.099c0.596,1.463,1.058,1.723,2.427,0.96
		c0.792-0.442,1.537-0.969,2.332-1.407c2.542-1.4,5.121-2.734,7.637-4.179c1.307-0.75,2.528-1.655,3.754-2.538
		c0.701-0.505,1.336-1.104,1.997-1.665c0.635-0.539,1.261-1.087,1.897-1.624c0.645-0.544,1.295-1.082,1.944-1.622
		c0.17-0.141,0.347-0.227,0.395-0.191s0.015,0.229-0.067,0.434c-0.122,0.305-0.242,0.611-0.416,0.883
		c-1.846,2.873-4.06,5.452-6.458,7.868c-0.934,0.941-2.018,1.733-3.033,2.593c-1.231,1.042-2.435,2.117-3.701,3.114
		c-0.667,0.525-1.404,0.962-2.099,1.403c-0.186,0.118-0.227,0.36-0.098,0.539c0.266,0.367,0.473,0.677,0.743,0.92
		c0.361,0.325,0.884,0.481,1.216,0.826c0.316,0.328,0.663,0.8,0.676,1.218c0.047,1.564,0.17,3.164-0.693,4.602
		c-0.05,0.083-0.087,0.235-0.045,0.303c0.36,0.588-0.161,1.044-0.218,1.567c-0.019,0.176-0.126,0.35-0.12,0.521
		c0.044,1.093-0.526,1.822-1.365,2.414c-0.255,0.18-0.521,0.371-0.711,0.613c-1.176,1.496-2.808,1.645-4.52,1.55
		c-0.091-0.005-0.179-0.044-0.268-0.091c-0.139-0.074-0.189-0.231-0.113-0.348c0.047-0.072,0.096-0.142,0.155-0.202
		c0.811-0.837,0.633-1.965-0.437-2.317c-0.747-0.246-1.419-0.717-2.071-1.117c-0.188-0.115-0.242-0.056-0.12,0.128
		c0.193,0.29,0.353,0.616,0.12,0.958c-0.124,0.183-0.226,0.451-0.147,0.657c0.308,0.799,0.74,1.495,1.638,1.923
		c0.199,0.095,0.2,0.211-0.011,0.274c-1.254,0.377-2.346,0.433-3.466,0.354c-2.041-0.145-3.862-0.958-5.184-2.402
		c-1.499-1.638-2.933-3.202-5.06-4.067c-1.168-0.475-2.3-0.921-3.541-0.695c-2.074,0.377-4.164,0.694-5.725,2.429
		c-0.399,0.444-0.621,0.743-0.551,1.288c0.159,1.24-0.242,2.299-1.169,3.101c-1.41,1.22-2.794,2.496-4.336,3.53
		c-1.861,1.249-3.886,2.253-5.812,3.41c-0.299,0.18-0.574,0.589-0.641,0.935c-0.307,1.591-0.514,3.202-0.799,4.798
		c-0.246,1.379-0.584,2.743-0.807,4.125c-0.09,0.558,0.115,1.164,0.017,1.719c-0.144,0.817,0.049,1.497,0.673,1.962
		c0.663,0.495,1.406,0.894,2.15,1.264c0.728,0.361,1.316,0.819,1.672,1.524c0.099,0.197-0.021,0.389-0.241,0.412
		c-0.638,0.068-1.235,0.12-1.823,0.226c-1.01,0.183-2.002,0.488-3.017,0.62c-0.849,0.11-1.721,0.018-2.58,0.065
		c-0.505,0.028-1.004,0.217-1.507,0.22c-1.576,0.012-3.152-0.017-4.728-0.062c-0.323-0.009-0.644-0.153-0.963-0.242
		c-0.147-0.041-0.311-0.175-0.428-0.139c-0.869,0.27-1.332-0.084-1.6-0.848c-0.073-0.208-0.29-0.384-0.511-0.385
		c-1.837-0.002-3.665-0.019-5.492,0.011C68.225,104.441,67.94,104.111,67.959,103.449z M73.886,96.347
		c-0.133,1.29,0.196,2.481,1.201,3.387c0.076,0.069,0.183,0.103,0.298,0.128c0.176,0.04,0.361-0.069,0.413-0.242
		c0.033-0.111,0.056-0.22,0.036-0.321c-0.451-2.272-0.925-4.54-1.396-6.808c-0.006-0.031-0.035-0.058-0.135-0.172
		c-0.079-0.091-0.193,0.003-0.273,0.209c-0.095,0.241-0.174,0.433-0.12,0.574C74.33,94.202,73.999,95.261,73.886,96.347z"/>
</g>
</svg>
