<?xml version="1.0" encoding="iso-8859-1"?>
<!-- Generator: Adobe Illustrator 17.1.0, SVG Export Plug-In . SVG Version: 6.00 Build 0)  -->
<!DOCTYPE svg PUBLIC "-//W3C//DTD SVG 1.1//EN" "http://www.w3.org/Graphics/SVG/1.1/DTD/svg11.dtd">
<svg version="1.1" id="Capa_1" xmlns="http://www.w3.org/2000/svg" xmlns:xlink="http://www.w3.org/1999/xlink" x="0px" y="0px"
	 viewBox="0 0 150 150" style="enable-background:new 0 0 150 150;" xml:space="preserve">
<g>
<path d="M145.791,59.447c-0.127-0.674-0.428-1.263-0.883-1.781c-0.691-0.788-1.462-1.479-2.35-2.038
	c-0.071-0.045-0.143-0.087-0.215-0.128c-1.214-1.275-3.213-1.572-4.733-0.72c-1.804,0.26-3.555,0.754-5.307,1.238
	c-3.545,0.978-7.084,1.98-10.63,2.954c-0.132,0.036-0.264,0.072-0.396,0.108c-0.154-0.019-0.312-0.008-0.467,0.041
	c-0.665,0.208-1.331,0.417-1.996,0.625c-1.197,0.319-2.396,0.633-3.597,0.941c-0.933,0.239-1.888,0.388-2.825,0.611
	c-1.687,0.402-3.396,0.67-5.115,0.887c-0.394,0.05-0.791,0.095-1.187,0.097c-1.875,0.009-3.752,0.087-5.624-0.126
	c-0.897-0.102-1.802-0.135-2.701-0.228c-0.563-0.058-1.12-0.179-1.682-0.25c-1.01-0.126-2.021-0.248-3.033-0.349
	c-1.048-0.104-2.097-0.211-3.148-0.258c-1.203-0.055-2.408-0.062-3.612-0.061c-1.343,0.001-2.673,0.168-3.995,0.399
	c-1.551,0.271-3.069,0.672-4.567,1.153c-1.526,0.49-3.023,1.061-4.482,1.72c-1.065,0.481-2.096,1.037-3.151,1.542
	c-1.117,0.535-2.222,1.102-3.37,1.561c-1.479,0.591-2.968,1.156-4.459,1.717c-0.572,0.123-1.141,0.262-1.703,0.435
	c-1.47,0.451-2.896,1.049-4.245,1.787c-0.023,0.01-0.047,0.019-0.071,0.029c-2.284,0.949-4.65,1.663-6.986,2.461
	c-1.231,0.421-2.477,0.792-3.736,1.113c-1.236,0.277-2.474,0.544-3.714,0.8c-1.798,0.343-3.597,0.686-5.401,0.996
	c-1.963,0.338-3.931,0.644-5.904,0.919c-0.845,0.118-1.706,0.138-2.56,0.174c-1.375,0.058-2.751,0.078-4.125,0.14
	c-1.459,0.066-2.904,0.257-4.327,0.592c-1.372,0.323-2.749,0.631-4.108,1.001c-1.537,0.419-3.07,0.864-4.582,1.366
	c-1.5,0.498-2.965,1.102-4.374,1.825c-0.033,0.017-0.067,0.035-0.1,0.052l-0.255,0.077c-0.073,0.022-0.116,0.072-0.134,0.128
	c-0.529,0.285-1.05,0.585-1.573,0.881c-0.1,0.057-0.252,0.104-0.216,0.332c0.268-0.103,0.514-0.196,0.758-0.293
	c0.4-0.158,0.794-0.33,1.198-0.476c0.966-0.349,1.921-0.74,2.907-1.015c1.363-0.38,2.744-0.707,4.131-0.984
	c0.566-0.113,1.135-0.207,1.706-0.295c1.086-0.161,2.173-0.321,3.259-0.482c0.7-0.077,1.402-0.116,2.105-0.125
	c0.041,0.007,0.083,0.013,0.125,0.016c1.904,0.146,3.812,0.202,5.717,0.171c0.675,0.044,1.349,0.099,2.022,0.159
	c2.199,0.197,4.402,0.219,6.608,0.179c1.259-0.023,2.518-0.003,3.776-0.025c0.443-0.008,0.884-0.082,1.326-0.123
	c0.748-0.069,1.496-0.137,2.244-0.2c0.422-0.036,0.847-0.044,1.267-0.093c0.87-0.101,1.739-0.209,2.605-0.335
	c0.252-0.037,0.503-0.074,0.755-0.11c1.758-0.208,3.51-0.468,5.253-0.778c0.427-0.064,0.855-0.129,1.282-0.194
	c0.506-0.077,1-0.231,1.506-0.313c0.935-0.152,1.869-0.068,2.804,0.044c1.162,0.139,2.326,0.268,3.493,0.354
	c1.222,0.09,2.446,0.153,3.654,0.38c1.343,0.252,2.634,0.668,3.896,1.19c0.738,0.305,1.506,0.537,2.258,0.809
	c0.062,0.022,0.151,0.099,0.15,0.148c-0.025,0.978,0.023,1.972-0.391,2.89c-0.244,0.54-0.541,1.059-0.849,1.566
	c-0.734,1.207-1.376,2.461-1.967,3.743c-0.464,1.007-0.947,2.003-1.556,2.936c-0.362,0.554-0.631,1.167-0.982,1.729
	c-0.14,0.225-0.338,0.428-0.552,0.59c-0.417,0.35-0.833,0.701-1.249,1.051c-0.172,0.145-0.182,0.423-0.078,0.606
	c0.222,0.393,0.495,0.743,0.808,1.05c0.056,0.085,0.112,0.171,0.171,0.254c0.128,0.181,0.379,0.287,0.59,0.397
	c0.151,0.078,0.305,0.15,0.46,0.215c0.001,0.001,0.002,0.001,0.003,0.002c0.002,0.001,0.004,0.001,0.006,0.002
	c0.387,0.162,0.791,0.271,1.229,0.257c0.54-0.017,1.081-0.018,1.621-0.032c0.094-0.002,0.19-0.024,0.282-0.05
	c0.316-0.09,0.595-0.025,0.844,0.185c0.235,0.198,0.433,0.149,0.485-0.149c0.177-1.022-0.229-1.883-1.35-2.161
	c-0.1-0.025-0.209-0.022-0.315-0.012c-0.061-0.012-0.123-0.018-0.187-0.018h-0.113c-0.14-0.051-0.218-0.175-0.235-0.379
	c-0.055-0.684,0.141-1.283,0.59-1.803c0.21-0.243,0.404-0.5,0.608-0.747c0.478-0.578,1.089-0.993,1.711-1.393
	c0.575-0.37,1.018-0.866,1.393-1.43c1.02-1.535,1.811-3.2,2.721-4.797c0.508-0.892,0.977-1.806,1.495-2.691
	c0.186-0.318,0.462-0.585,0.706-0.868c0.103-0.119,0.191-0.115,0.274,0.048c0.352,0.696,0.721,1.383,1.069,2.08
	c0.066,0.132,0.097,0.3,0.088,0.449c-0.066,1.073-0.183,2.151-0.001,3.218c0.106,0.623,0.292,1.237,0.495,1.837
	c0.262,0.773,0.419,1.564,0.527,2.369c0.054,0.406,0.123,0.812,0.157,1.22c0.032,0.38,0.005,0.766,0.043,1.146
	c0.04,0.399,0.115,0.796,0.193,1.191c0.114,0.581,0.066,1.14-0.172,1.685c-0.073,0.167-0.14,0.346-0.158,0.525
	c-0.046,0.456,0.185,0.696,0.644,0.696c1.582,0.002,5.13,0.011,5.322,0.007c0.392-0.009,0.568-0.265,0.439-0.638
	c-0.056-0.161-0.121-0.318-0.186-0.476c-0.255-0.625-0.788-0.767-1.385-0.795c-0.13-0.006-0.261-0.011-0.39,0.001
	c-0.357,0.033-0.607-0.143-0.798-0.413c-0.345-0.49-0.555-1.011-0.551-1.639c0.008-1.169,0.123-2.318,0.342-3.467
	c0.236-1.239,0.345-2.495,0.212-3.762c-0.188-1.783-0.362-3.568-0.541-5.353c-0.028-0.278-0.026-0.291,0.252-0.3
	c0.752-0.024,1.506-0.023,2.257-0.057c1.176-0.055,2.354-0.101,3.527-0.205c1.459-0.13,2.913-0.312,4.369-0.478
	c0.373-0.042,0.743-0.104,1.176-0.166c-0.176,0.243-0.309,0.443-0.459,0.632c-0.553,0.696-1.114,1.386-1.665,2.083
	c-0.561,0.71-0.898,1.529-1.16,2.387c-0.397,1.298-0.58,2.634-0.697,3.979c-0.012,0.142-0.025,0.285-0.038,0.427
	c-0.039,0.104-0.05,0.218-0.031,0.33c-0.139,1.469-0.317,2.932-0.633,4.375c-0.023,0.057-0.037,0.116-0.042,0.176
	c-0.127,0.505-0.319,0.995-0.49,1.489c-0.054,0.155-0.159,0.293-0.25,0.433c-0.196,0.301-0.23,0.615-0.062,0.934
	c0.163,0.309,0.43,0.473,0.781,0.476c0.362,0.002,1.966,0.06,2.128,0.059c0.136-0.001,0.331-0.009,0.394-0.093
	c0.078-0.105,0.093-0.305,0.051-0.437c-0.043-0.137-0.177-0.253-0.29-0.359c-0.099-0.093-0.14-0.184-0.129-0.321
	c0.051-0.65,0.141-1.283,0.432-1.885c0.172-0.356,0.274-0.754,0.357-1.144c0.207-0.967,0.646-1.843,1.017-2.747
	c0.527-1.285,1.069-2.566,1.539-3.873c0.213-0.592,0.269-1.24,0.398-1.863c0.018-0.087,0.026-0.181,0.067-0.256
	c0.258-0.473,0.499-0.958,0.791-1.41c0.699-1.083,1.479-2.107,2.372-3.04c0.089-0.093,0.176-0.188,0.315-0.274
	c0.008,0.453,0.061,0.911,0.015,1.358c-0.148,1.43-0.359,2.853-0.492,4.284c-0.006,0.06-0.009,0.119-0.012,0.179
	c-0.119,0.256-0.151,0.55-0.07,0.836c0.023,0.079,0.045,0.159,0.068,0.238c0.032,0.111,0.075,0.209,0.128,0.298
	c0.028,0.148,0.059,0.295,0.091,0.442c0.25,1.139,0.742,2.18,1.328,3.167c0.631,1.061,1.085,2.19,1.486,3.348
	c0.187,0.541,0.301,1.099,0.303,1.669c0.001,0.251-0.098,0.504-0.167,0.752c-0.038,0.137-0.102,0.268-0.165,0.397
	c-0.132,0.268,0.01,0.459,0.18,0.637c0.033,0.035,0.113,0.035,0.171,0.035c0.384,0.002,3.26,0.025,3.439,0.042
	c0.222,0.021,0.327-0.064,0.311-0.285c-0.025-0.359-0.291-0.62-0.647-0.668c-0.065-0.009-0.144-0.106-0.17-0.178
	c-0.056-0.153-0.099-0.308-0.132-0.464c0.071-0.22,0.081-0.46,0.016-0.695l-0.137-0.495c-0.01-0.321,0.008-0.644-0.024-0.962
	c-0.029-0.283-0.124-0.558-0.18-0.839c-0.181-0.919-0.356-1.84-0.536-2.759c-0.397-2.028-0.758-4.065-1.432-6.029
	c-0.064-0.186-0.024-0.418,0.005-0.623c0.294-2.046,0.595-4.09,0.895-6.135c0.015-0.102,0.046-0.202,0.048-0.304
	c0.006-0.353,0.178-0.608,0.429-0.843c0.834-0.783,1.153-1.807,1.373-2.895c0.001-0.003,0.001-0.006,0.002-0.009
	c0.108-0.13,0.191-0.281,0.215-0.434c0.029-0.181,0.053-0.367,0.054-0.553c0.438-1.266,1.197-2.349,2.273-3.226
	c0.7-0.57,1.531-0.926,2.34-1.316c1.885-0.908,3.864-1.584,5.806-2.352c1.936-0.765,3.86-1.561,5.782-2.36
	c1.549-0.644,3.089-1.309,4.63-1.972c0.748-0.322,1.483-0.671,2.232-0.991c1.642-0.701,3.305-1.349,5.041-1.78
	c1.174-0.292,2.372-0.381,3.584-0.278c0.669,0.057,1.306,0.185,1.911,0.491c0.476,0.24,0.885,0.554,1.195,0.98
	c0.423,0.58,0.824,1.176,1.225,1.772c0.118,0.175,0.276,0.27,0.473,0.286c0.566,0.045,1.133,0.077,1.7,0.11
	c0.074,0.004,0.151-0.006,0.224-0.019c0.25-0.047,0.29-0.175,0.149-0.387c-0.043-0.065-0.074-0.139-0.104-0.218
	c0.324-0.294,0.231-1.055,0.132-0.795c-0.031,0.08-0.091,0.142-0.158,0.195c0.108-0.329,0.037-0.717-0.039-0.521
	c-0.042,0.11-0.139,0.188-0.238,0.249c0.077-0.311,0.012-0.633-0.058-0.451c-0.046,0.121-0.156,0.205-0.264,0.267
	c0.066-0.301,0.002-0.598-0.066-0.421c-0.062,0.162-0.232,0.261-0.365,0.32c-0.015-0.016-0.03-0.033-0.045-0.049
	c0.279-0.244,0.41-0.698,0.246-0.541c-0.108,0.103-0.273,0.131-0.41,0.134c0.127-0.198,0.18-0.448,0.164-0.54
	c0.08-0.03,0.202-0.11,0.312-0.225c0.055,0.017,0.107,0.041,0.163,0.056c-0.004,0.091-0.019,0.181-0.07,0.256
	c-0.104,0.154,0.166,0.044,0.374-0.174c0.02,0.004,0.039,0.009,0.058,0.012c0.004,0.05,0.008,0.095,0.011,0.136
	c0.024,0.02,0.045,0.022,0.066,0.022c-0.001,0.052,0.001,0.105-0.019,0.153c-0.062,0.155,0.125,0.036,0.278-0.176
	c0.05,0.035,0.083,0.074,0.103,0.121c-0.021,0.038-0.037,0.079-0.069,0.109c-0.139,0.128,0.161,0.078,0.416-0.094
	c-0.018,0.123-0.055,0.256-0.15,0.344c-0.144,0.132,0.179,0.074,0.439-0.111c0,0,0.001,0.001,0.001,0.001
	c-0.021,0.113-0.057,0.231-0.143,0.31c-0.146,0.134,0.189,0.072,0.45-0.12c0.011,0.003,0.022,0.008,0.034,0.01
	c-0.025,0.064-0.059,0.126-0.109,0.172c-0.179,0.165,0.368,0.036,0.611-0.273c0.04-0.004,0.081-0.001,0.127,0.01
	c0.158,0.041,0.203-0.075,0.253-0.18C145.887,60.51,145.891,59.98,145.791,59.447z M142.453,60.602
	c-0.023,0.033-0.025,0.052-0.017,0.062c-0.105,0.151-0.305,0.202-0.447,0.225c0.24-0.295,0.279-0.8,0.148-0.607
	c-0.117,0.173-0.374,0.226-0.511,0.243c-0.122-0.184-0.222-0.381-0.336-0.57c-0.052-0.087-0.062-0.167-0.046-0.242
	c0.406,0.249,0.836,0.449,1.279,0.614C142.521,60.424,142.507,60.522,142.453,60.602z"/>
</g>
</svg>
