<?xml version="1.0" encoding="iso-8859-1"?>
<!-- Generator: Adobe Illustrator 17.1.0, SVG Export Plug-In . SVG Version: 6.00 Build 0)  -->
<!DOCTYPE svg PUBLIC "-//W3C//DTD SVG 1.1//EN" "http://www.w3.org/Graphics/SVG/1.1/DTD/svg11.dtd">
<svg version="1.1" id="Capa_1" xmlns="http://www.w3.org/2000/svg" xmlns:xlink="http://www.w3.org/1999/xlink" x="0px" y="0px"
	 viewBox="0 0 150 150" style="enable-background:new 0 0 150 150;" xml:space="preserve">
<g>
	<path d="M147.88,103.152c-0.526-0.104-1.072-0.113-1.756-0.173c0.625-0.277,1.125-0.458,1.583-0.713
		c0.477-0.266,0.477-0.592,0.072-0.97c-0.705-0.659-1.46-0.531-2.272-0.209c-0.993,0.393-1.988,0.838-3.025,1.049
		c-1.891,0.384-3.857,0.412-5.603-0.438c-1.367-0.665-2.535-1.74-3.79-2.635c-2.434-1.735-4.594-3.88-7.487-4.926
		c-0.359-0.13-0.635-0.489-1.038-0.813c0.589-0.189,1.01-0.285,1.398-0.455c3.02-1.322,6.021-2.691,9.057-3.975
		c1.193-0.505,2.117-1.259,2.839-2.305c0.122-0.176,0.257-0.343,0.383-0.517c1.164-1.61,1.096-2.106-0.575-3.156
		c-0.792-0.498-1.655-0.888-2.5-1.298c-1.183-0.574-1.925-1.563-2.492-2.683c-0.512-1.011-1.294-1.534-2.39-1.697
		c-0.642-0.291-1.337-0.516-2.041-0.601c-0.495-0.222-0.974-0.491-1.443-0.808c-0.791-0.535-1.76-0.86-2.694-1.119
		c-1.957-0.544-3.944-0.977-5.916-1.468c-0.352-0.088-0.683-0.26-1.035-0.349c-1.064-0.269-1.617,0.17-1.462,1.248
		c0.089,0.622,0.349,1.227,0.58,1.82c0.178,0.457,0.47,0.871,0.632,1.332c0.013,0.039,0.02,0.087,0.021,0.141
		c-0.152-0.124-0.312-0.243-0.479-0.358c-1.52-1.051-3.138-1.945-4.823-2.695c-0.378-0.5-0.747-1.009-1.149-1.489
		c-0.34-0.406-0.791-0.719-1.191-1.075c-0.012,0.603,0.262,1.125,0.213,1.705c-0.282-0.102-0.566-0.2-0.852-0.295
		c-1.145-1.216-2.241-2.438-3.762-3.289c0.189,0.77,0.394,1.382,0.468,2.009c0.012,0.103,0.003,0.227-0.023,0.35
		c-0.682-0.157-1.369-0.295-2.059-0.414c-0.867-0.683-1.723-1.382-2.595-2.058c-0.423-0.328-0.893-0.595-1.465-0.971
		c0.311,0.95,0.804,1.709,0.828,2.607c-0.275-0.025-0.551-0.047-0.827-0.066c-0.304-0.208-0.596-0.426-0.88-0.653
		c-0.886-0.708-1.715-1.508-2.867-1.778c-0.305-0.072-0.626-0.078-1.014-0.122c0.52,0.741,0.949,1.351,1.378,1.962
		c-0.063,0.074-0.126,0.149-0.188,0.223c-0.381-0.151-0.779-0.269-1.139-0.458c-0.91-0.478-1.792-1.009-2.706-1.479
		c-0.7-0.36-1.449-0.417-2.23-0.23c0.371,0.671,0.71,1.284,1.049,1.897c-0.057,0.06-0.115,0.12-0.172,0.18
		c-0.661-0.21-1.318-0.44-1.986-0.626c-0.719-0.2-1.445-0.388-2.179-0.518c-0.238-0.042-0.511,0.114-0.768,0.179
		c0.12,0.214,0.224,0.44,0.365,0.639c0.138,0.195,0.315,0.362,0.475,0.541c-0.034,0.07-0.068,0.14-0.102,0.211
		c-1.373-0.316-2.745-0.633-4.256-0.981c0.347,0.672,0.585,1.133,0.893,1.73h-4.557c0.334,0.652,0.603,1.175,0.952,1.856
		c-1.772-0.091-3.369-0.173-5.066-0.26c0.272,0.717,0.468,1.235,0.686,1.812c-1.271-0.057-2.405-0.107-3.697-0.164
		c0.211,0.296,0.327,0.403,0.372,0.533c0.109,0.318,0.185,0.648,0.274,0.973c-0.309,0.082-0.616,0.226-0.926,0.232
		c-0.549,0.011-1.1-0.062-1.595-0.095c0.015,0.103,0.043,0.214,0.069,0.32c-0.692-0.103-1.386-0.207-2.074-0.307
		c-0.53-0.143-1.063-0.275-1.6-0.393c-2.082-0.461-4.197-0.767-6.32-0.914c-4.903-0.792-9.77-0.63-14.673,0.29
		c-5.009,0.94-9.839,2.487-14.718,3.9c-3.201,0.927-6.511,1.491-9.787,2.144c-1.763,0.352-3.552,0.594-5.338,0.807
		c-3.43,0.409-6.727-1.409-8.271-4.497c-1.053-2.105-0.656-4.671,0.873-6.499c1.781-2.131,4.442-2.374,5.973-1.727
		c2.655,1.122,4.017,2.814,3.635,5.441c-0.161,1.105-0.734,2.034-1.521,2.676c-0.136,0.092-0.275,0.178-0.422,0.251
		c-1.633,0.811-3.721,0.536-4.861-0.963c-0.981-1.29-0.657-3.157,0.882-3.737c0.477-0.18,1.298-0.037,1.546,0.49
		c0.112,0.238,0.1,0.32-0.022,0.496c-0.054,0.078-0.152,0.166-0.134,0.157c-0.048,0.024-0.073,0.04-0.086,0.051
		c-0.012-0.008-0.043-0.016-0.114-0.021c-1.655-0.123-1.759,2.448-0.104,2.572c1.584,0.118,3.042-1.276,3.095-2.856
		c0.002-0.062-0.001-0.122-0.003-0.182c0.065-0.601-0.139-1.153-0.522-1.66c-0.531-0.816-1.412-1.411-2.4-1.602
		c-1.829-0.354-3.539,0.608-4.504,2.069c-1.291,1.622-1.277,3.621,0.094,5.393c1.289,1.974,3.618,3.037,5.989,2.776
		c1.812-0.102,3.629-0.913,5.137-2.424c2.116-2.122,2.552-4.681,1.68-7.484c-1.422-4.573-6.502-7.777-11.214-7.047
		c-2.614,0.405-4.614,1.78-6.097,3.992c-2.599,3.879-2.625,7.963-1.004,12.147c0.846,2.184,2.629,3.576,4.577,4.772
		c2.328,1.429,4.932,1.6,7.551,1.753c6.368,0.372,12.718,0.103,19.071-0.416c2.341-0.191,4.683-0.367,7.026-0.536
		c0.538,0.08,1.09,0.065,1.628-0.053l0.433-0.095c3.384-0.234,6.769-0.446,10.155-0.631c1.978-0.109,3.973,0.118,5.963,0.22
		c0.295,0.053,0.59,0.106,0.884,0.163c1.717,0.333,3.418,0.732,5.103,1.193c0.782,0.47,1.711,1.209,2.153,1.966l-0.238,1.139
		c-0.381,0.413-0.69,0.709-0.956,1.041c-2.191,2.73-3.7,5.802-4.571,9.188c-0.228,0.885-0.427,1.119-1.338,1.156
		c-2.537,0.102-4.997-0.282-7.352-1.262c-0.395-0.164-0.791-0.337-1.203-0.444c-0.471-0.122-0.9-0.017-1.162,0.45
		c-0.254,0.453-0.274,0.895,0.078,1.314c0.087,0.104,0.168,0.214,0.29,0.369c-0.206,0-0.334-0.005-0.461,0.001
		c-0.49,0.023-1-0.027-1.466,0.091c-0.798,0.203-1.15,1.095-0.838,1.93c0.291,0.777,0.743,0.935,1.639,0.621
		c0.402-0.141,0.822-0.253,1.244-0.313c1.845-0.263,3.691-0.52,5.542-0.746c2.57-0.314,5.099-0.426,7.565,0.719
		c0.939,0.436,2.065,0.501,3.118,0.652c0.568,0.081,0.991-0.243,1.099-0.85c0.108-0.605-0.177-1.022-0.732-1.19
		c-0.569-0.173-1.161-0.307-1.752-0.362c-0.938-0.088-1.884-0.099-2.826-0.136c-0.405-0.016-0.566-0.174-0.496-0.611
		c0.133-0.842,0.373-1.624,0.961-2.269c0.577-0.633,1.114-1.307,1.729-1.9c2.029-1.955,4.116-3.824,6.943-4.592
		c0.61-0.166,1.164-0.521,1.342-1.227c0.334,0.072,0.669,0.145,1.003,0.217c0.976,0.238,1.936,0.471,2.887,0.739
		c0.279,0.079,0.593,0.327,0.725,0.583c0.488,0.946,1.14,1.659,2.228,1.862c1.978,0.37,3.948,0.807,5.939,1.076
		c0.972,0.131,1.946,0.255,2.924,0.333c2.097,0.41,4.217,0.711,6.348,0.906c0.158,0.319,0.056,0.714-0.303,1.138
		c-0.761,0.899-1.601,1.732-2.346,2.644c-1.56,1.907-3.57,2.369-5.889,1.953c-0.464-0.083-0.931-0.151-1.4-0.199
		c-0.423-0.043-0.858-0.111-1.273-0.058c-0.692,0.089-1.033,0.522-0.993,1.119c0.043,0.638,0.524,1.099,1.205,1.079
		c0.49-0.015,0.977-0.118,1.465-0.177c2.04-0.245,4.082-0.701,6.12-0.68c2.719,0.028,5.404,0.56,7.959,1.595
		c0.452,0.183,0.942,0.294,1.425,0.374c0.588,0.098,1.102-0.096,1.484-0.573c0.422-0.526,0.348-1.006-0.243-1.328
		c-0.386-0.211-0.811-0.352-1.221-0.526c0.572-0.875-0.045-1.73-1.072-1.61c-0.191,0.022-0.387,0.025-0.573,0.068
		c-1.419,0.327-2.832,0.681-4.256,0.986c-0.729,0.156-1.477,0.228-2.287-0.264c0.407-0.351,0.729-0.691,1.109-0.945
		c1.62-1.085,3.253-2.152,4.891-3.21c0.49-0.317,1.021-0.591,1.077-1.129c2.952,0.043,5.907-0.117,8.833-0.484h1.748
		c-0.024,1.963,0.581,3.59,1.991,4.947c0.408,0.392,0.615,1.073,0.741,1.659c0.181,0.845-0.168,1.169-1.025,1.053
		c-0.72-0.098-1.426-0.331-2.147-0.389c-0.778-0.062-1.575-0.047-2.349,0.048c-0.501,0.062-1.023,0.298-1.068,0.939
		c-0.033,0.478,0.441,0.882,1.148,1.021c0.167,0.033,0.346,0.06,0.511,0.035c0.801-0.125,1.609-0.225,2.396-0.414
		c2.208-0.531,4.453-0.788,6.693-0.477c1.989,0.276,3.938,0.832,5.913,1.216c0.665,0.129,1.361,0.175,2.038,0.147
		c0.812-0.034,1.261-0.649,1.184-1.452c-0.064-0.675-0.518-0.967-1.109-1.062c-0.59-0.095-1.191-0.12-1.861-0.183
		c0.954-0.435,1.165-0.701,0.995-1.189c-0.201-0.577-0.725-0.755-1.572-0.529c-0.145,0.039-0.292,0.078-0.428,0.138
		c-1.175,0.518-2.365,1.007-3.516,1.574c-0.947,0.467-1.827,0.332-2.708-0.109c-0.152-0.076-0.333-0.247-0.357-0.397
		c-0.081-0.52-0.248-1.093-0.11-1.567c0.287-0.986,0.2-1.898-0.124-2.824c0.002-0.094,0.004-0.187,0.006-0.281
		c0.009-0.412-0.143-0.721-0.376-0.928c-0.029-0.09-0.06-0.179-0.096-0.267c-0.156-0.382-0.05-0.587,0.289-0.771
		c1.186-0.644,2.359-1.312,3.546-1.953c0.273-0.147,0.584-0.223,0.75-0.285c0.492,0.455,0.846,0.907,1.305,1.185
		c2.802,1.7,5.823,2.927,8.959,3.822c1.981,0.565,3.562,1.695,5.084,2.978c-1.032,0.124-2.064,0.249-3.096,0.373
		c-0.243,0.007-0.484,0.025-0.723,0.062c-0.233,0.036-0.617,0.514-0.566,0.673c0.097,0.303,0.421,0.589,0.721,0.752
		c0.215,0.117,0.551,0.061,0.822,0.013c1.198-0.212,2.402-0.406,3.588-0.675c0.496-0.06,0.992-0.12,1.489-0.179
		c0.138-0.017,0.253-0.068,0.344-0.141c1.579-0.157,3.132,0.021,4.674,0.643c1.304,0.525,2.684,0.762,4.092,0.679
		c0.478-0.028,0.966-0.175,1.414-0.357c0.559-0.227,0.388-0.779,0.322-1.186C148.487,103.407,148.122,103.199,147.88,103.152z"/>
</g>
</svg>
