<?xml version="1.0" encoding="iso-8859-1"?>
<!-- Generator: Adobe Illustrator 17.1.0, SVG Export Plug-In . SVG Version: 6.00 Build 0)  -->
<!DOCTYPE svg PUBLIC "-//W3C//DTD SVG 1.1//EN" "http://www.w3.org/Graphics/SVG/1.1/DTD/svg11.dtd">
<svg version="1.1" id="Capa_1" xmlns="http://www.w3.org/2000/svg" xmlns:xlink="http://www.w3.org/1999/xlink" x="0px" y="0px"
	 viewBox="0 0 150 150" style="enable-background:new 0 0 150 150;" xml:space="preserve">
<g>
<path d="M9.526,79.653c2.499,0.989,5.054,1.244,7.698,1.207c2.172-0.03,4.232-0.499,6.148-1.458
	c2.585-1.294,5.117-2.697,7.655-4.084c1.794-0.98,3.485-2.105,5.052-3.404c0.128-0.106,0.32-0.293,0.431-0.416
	c2.13-2.354,4.374-4.597,6.96-6.44c1.916-1.649,4.038-2.811,6.436-3.268c0.163-0.031,0.425-0.09,0.585-0.134
	c2.148-0.591,4.375-0.851,6.617-0.811c0.166,0.003,0.426-0.04,0.579-0.102c0.214-0.087,0.427-0.18,0.639-0.282
	c0.365-0.175,0.74-0.33,1.123-0.47c0.156-0.057,0.402-0.162,0.551-0.234c1.325-0.639,2.772-1.056,4.26-1.264
	c1.295-0.18,2.59-0.217,3.884-0.194c1.357-0.045,2.718-0.027,4.071,0.041c1.997,0.101,3.96,0.33,5.873-0.57
	c1.654-0.778,3.476-0.964,5.278-1.045c2.626-0.118,5.257-0.125,7.885-0.182c0.055-0.001,0.11-0.013,0.202-0.032
	c0.111-0.023,0.082-0.102-0.062-0.183c-0.232-0.13-0.402-0.233-0.586-0.292c-1.153-0.37-1.643-1.134-1.632-2.353
	c0.005-0.595-0.234-1.207-0.435-1.787c-0.024-0.069-0.047-0.138-0.069-0.207c-0.036-0.115-0.137-0.325-0.192-0.481
	c-0.061-0.173-0.09-0.358-0.089-0.544c0.001-0.166,0.02-0.433,0.027-0.598c0.02-0.483,0.145-0.961,0.419-1.432
	c0.112-0.193,0.399-0.363,0.62-0.385c0.128-0.012,0.304,0.281,0.429,0.458c0.034,0.049,0.067,0.1,0.099,0.153
	c0.052,0.086,0.163,0.16,0.253,0.175s0.242-0.042,0.356-0.118c0.114-0.076,0.31-0.219,0.446-0.314
	c0.583-0.407,1.277-0.296,1.612,0.425c0.066,0.142,0.136,0.278,0.21,0.409c0.024,0.037,0.046,0.075,0.066,0.114
	c0.582,0.98,1.394,1.668,2.413,2.249c0.491,0.28,0.978,0.567,1.463,0.857c3.128,1.796,6.256,3.591,9.384,5.387
	c1.568,0.796,3.143,1.579,4.667,2.451c1.469,0.84,2.973,1.512,4.526,1.983c0.159,0.048,0.421,0.106,0.585,0.133
	c1.189,0.193,2.378,0.386,3.567,0.579c0.164,0.027,0.431,0.054,0.596,0.058c0.386,0.009,0.776,0.006,1.17-0.012
	c0.214-0.009,0.44-0.005,0.642,0.054c1.318,0.383,2.528,0.319,3.807-0.349c0.697-0.364,1.255-0.753,1.597-1.298
	c0.088-0.14,0.128-0.308,0.137-0.361c0.005-0.029,0.017-0.059,0.036-0.089c0,0,0.02-0.031,0.045-0.07s0.084-0.199,0.112-0.362
	c0.03-0.172,0.046-0.356,0.045-0.555c-0.002-0.659,0.642-0.956,1.147-0.527c0.295,0.25,0.439,0.7,0.598,1.082
	c0.024,0.057,0.046,0.115,0.066,0.174c0.034,0.098,0.086,0.216,0.101,0.27c0.015,0.054,0.037,0.203,0.062,0.33
	c0.015,0.077,0.028,0.154,0.039,0.231c0.075,0.542,0.234,1.124,0.111,1.63c-0.157,0.647-0.485,1.253-0.792,1.922
	c-0.069,0.151,0.002,0.324,0.158,0.38c0.205,0.074,0.412,0.14,0.622,0.19c0.161,0.039,0.428,0.054,0.594,0.049
	c0.194-0.007,0.388-0.013,0.582-0.02c0.166-0.006,0.428-0.04,0.58-0.092c0.089-0.031,0.178-0.066,0.269-0.108
	c0.437-0.199,0.792-0.462,1.105-0.763c0.119-0.115,0.268-0.337,0.36-0.475c0.083-0.124,0.179-0.239,0.284-0.345
	c0.117-0.117,0.306-0.307,0.406-0.44c0.062-0.083,0.125-0.167,0.188-0.25c0.295-0.388,0.954-0.821,1.356-0.746
	c0.969,0.182,1.582,0.829,1.887,1.726c0.053,0.157,0.147,0.407,0.204,0.563c0.126,0.348,0.177,0.727,0.143,1.111
	c-0.014,0.165-0.023,0.431,0.026,0.589c0.122,0.398,0.365,0.743,0.889,0.951c1.074,0.427,2.184,0.79,3.2,1.329
	c1.775,0.942,3.652,1.651,4.716,3.687c1.259,2.409,1.104,4.699,0.221,7.072c-0.306,0.823-0.748,0.817-1.257,0.076
	c-0.243-0.354-0.476-0.716-0.68-1.032c-0.09-0.139-0.273-0.175-0.41-0.081c-2.274,1.559-4.478,2.976-7.19,2.91
	c-0.166-0.004-0.434,0.003-0.599,0.019c-0.499,0.049-1.001,0.073-1.503,0.075c-0.166,0.001-0.433,0.018-0.598,0.035
	c-1.588,0.161-3.161-0.147-4.715-0.478c-2.604-0.555-5.167-1.265-7.867-1.277c-1.004-0.004-2.005-0.34-3.009-0.508
	c-0.342-0.057-0.697-0.11-1.04-0.084c-1.045,0.08-2.11,0.098-3.126,0.327c-1.282,0.289-2.412,0.846-2.835,2.311
	c-0.109,0.379-0.235,0.758-0.377,1.131c-0.644,1.88-1.658,3.608-3.086,5.053c-0.116,0.118-0.293,0.319-0.394,0.45
	c-0.96,1.248-2.067,2.329-3.484,3.13c-1.07,0.605-1.808,1.591-2.45,2.657c-0.085,0.142-0.033,0.319,0.115,0.395
	c0.491,0.253,0.935,0.482,1.38,0.71c1.556,0.797,3.12,1.577,4.661,2.401c0.339,0.181,0.671,0.467,0.877,0.788
	c0.767,1.191,1.484,2.415,2.213,3.631c0.486,0.811,1.318,0.916,2.129,1.143c0.333,0.093,0.661,0.214,0.984,0.348
	c0.153,0.064,0.406,0.154,0.558,0.221c0.018,0.008,0.036,0.016,0.054,0.025c0.149,0.072,0.333,0.187,0.423,0.231
	c0.054,0.027,0.109,0.053,0.163,0.08c0.61,0.302,0.603,0.927,0.633,1.51c0.015,0.298,0.186,0.735,0.053,0.86
	c-0.214,0.202-0.636,0.301-0.946,0.261c-0.05-0.006-0.1-0.013-0.15-0.019c-0.082-0.01-0.266,0.051-0.425,0.096
	c-0.147,0.042-0.302,0.057-0.462,0.039c-0.098-0.011-0.196-0.023-0.294-0.034c-0.162-0.019-0.421,0.012-0.562,0.1
	c-0.14,0.087-0.275,0.202-0.404,0.35c-0.09,0.103-0.398,0.096-0.57,0.037c-1.283-0.446-2.552-0.932-3.834-1.378
	c-1.425-0.495-1.601-0.725-1.664-2.23c-0.028-0.675-0.159-1.257-1.012-1.404c-1.132-0.195-2.255-0.459-3.37-0.74
	c-2.287-0.577-4.57-1.17-6.843-1.799c-0.3-0.083-0.691-0.373-0.763-0.641c-0.24-0.897-0.469-1.825-0.483-2.745
	c-0.013-0.83,0.191-1.664,0.344-2.592c0.027-0.163-0.069-0.226-0.21-0.139c-1.008,0.619-1.94,1.185-2.864,1.763
	c-1.337,0.837-2.355,1.921-2.923,3.443c-0.363,0.971-0.951,1.856-1.379,2.806c-0.528,1.171-1.031,2.356-1.473,3.561
	c-0.209,0.57-0.156,1.242-0.392,1.796c-0.678,1.596-0.212,2.311,1.517,2.413c1.17,0.069,2.289,0.43,2.901,1.577
	c0.116,0.218,0.117,0.591,0.003,0.802c-0.065,0.121-0.469,0.075-0.72,0.076c-0.35,0.002-0.7-0.045-1.049-0.031
	c-0.898,0.034-1.835,0.274-2.683,0.09c-1.079-0.234-2.237-0.437-3.077-1.337c-0.806-0.863-2.087-1.207-2.555-2.473
	c-0.258-0.699-0.237-1.214,0.247-1.787c0.154-0.183,0.278-0.414,0.363-0.656c0.055-0.156,0.073-0.423,0.071-0.589
	c-0.003-0.205,0.002-0.412,0.014-0.619c0.009-0.165,0.014-0.432,0.014-0.597c0-0.189,0.013-0.375,0.054-0.556
	c0.419-1.859,0.908-3.703,1.418-5.539c0.145-0.522,0.294-1.042,0.446-1.562c0.341-1.268,0.682-2.537,1.023-3.805
	c0.043-0.16,0.02-0.3-0.051-0.304c-0.043-0.003-0.086-0.002-0.128,0.004c-2.463,0.35-4.892,0.02-7.328-0.315
	c-0.909-0.125-1.891-0.291-2.751-0.078c-1.344,0.333-2.628,0.934-3.905,1.496c-1.003,0.442-1.989,0.946-2.912,1.533
	c-0.264,0.167-0.505,0.917-0.377,1.061c0.604,0.677,1.264,1.377,2.048,1.803c1.135,0.617,1.542,1.129,1.159,2.348
	c-0.332,1.057-0.503,2.11-0.308,3.133c0.031,0.163,0.102,0.379,0.136,0.489s0.099,0.326,0.166,0.478
	c0.043,0.097,0.09,0.193,0.142,0.289c0.654,1.215,0.758,2.442,0.439,3.728c-0.054,0.217-0.226,0.404-0.394,0.592
	c-0.11,0.124-0.288,0.137-0.409,0.024c-0.218-0.202-0.439-0.401-0.611-0.636c-0.112-0.153-0.172-0.344-0.232-0.54
	c-0.049-0.158-0.213-0.222-0.364-0.153c-0.799,0.364-1.019,0.216-1.38-0.631c-0.063-0.149-0.066-0.348-0.17-0.451
	c-0.429-0.43-0.839-1.093-1.343-1.183c-0.773-0.138-0.927-0.576-1.092-1.145c-0.125-0.432-0.243-0.867-0.379-1.296
	c-0.396-1.241-1.495-2.299-0.972-3.786c0.04-0.113-0.073-0.311-0.164-0.434c-0.259-0.352-0.532-0.694-0.803-1.037
	c-0.103-0.13-0.31-0.188-0.466-0.131c-0.368,0.137-0.711,0.259-1.043,0.406c-1.719,0.758-3.301,1.668-4.398,3.298
	c-0.386,0.574-1.034,1.062-1.67,1.358c-1.065,0.494-1.767,1.221-2.004,2.345c-0.132,0.625-0.159,1.28-0.161,1.922
	c-0.004,1.134,0.584,1.666,1.723,1.815c1.262,0.166,2.361,0.711,3.112,1.786c0.107,0.153,0.145,0.353,0.183,0.555
	c0.03,0.163-0.07,0.311-0.234,0.338c-0.27,0.044-0.54,0.09-0.81,0.088c-0.383-0.003-0.764-0.125-1.147-0.137
	c-0.418-0.013-0.838,0.048-1.257,0.059c-0.238,0.006-0.557-0.128-0.7-0.018c-0.645,0.494-1.108,0.055-1.609-0.233
	c-0.18-0.103-0.353-0.219-0.522-0.339c-0.731-0.514-1.465-1.025-2.184-1.556c-0.119-0.088-0.186-0.263-0.245-0.411
	c-0.376-0.938-0.749-1.877-1.11-2.821c-0.264-0.69-0.476-1.343,0.097-2.046c0.657-0.806,1.185-1.716,1.796-2.562
	c0.899-1.244,1.685-2.609,2.765-3.673c1.903-1.875,3.579-3.835,4.582-6.365c0.488-1.23,1.316-2.329,2.025-3.465
	c0.303-0.484,0.19-0.656-0.337-0.756c-0.387-0.073-0.803-0.174-1.122-0.387c-1.588-1.062-3.144-2.173-4.722-3.249
	c-0.346-0.236-0.716-0.501-1.112-0.587c-2.331-0.51-4.662-1.039-7.015-1.423c-1.271-0.207-2.652-0.419-3.871-0.14
	c-3.607,0.827-7.174,1.847-10.728,2.889c-2.54,0.745-5.1,1.405-7.745,1.411c-2.781,0.006-5.588-0.036-8.237-1.113
	c-1.562-0.635-3.21-1.075-4.491-2.296c-1.524-1.453-3.246-2.586-5.395-2.921c-0.321-0.05-0.632-0.169-0.978-0.287
	c-0.157-0.054-0.218-0.21-0.11-0.336c0.582-0.674,1.377-0.496,1.979-0.382C6.283,78.663,7.962,79.034,9.526,79.653z"/>
</g>
</svg>
