<?xml version="1.0" encoding="iso-8859-1"?>
<!-- Generator: Adobe Illustrator 17.1.0, SVG Export Plug-In . SVG Version: 6.00 Build 0)  -->
<!DOCTYPE svg PUBLIC "-//W3C//DTD SVG 1.1//EN" "http://www.w3.org/Graphics/SVG/1.1/DTD/svg11.dtd">
<svg version="1.1" id="Capa_1" xmlns="http://www.w3.org/2000/svg" xmlns:xlink="http://www.w3.org/1999/xlink" x="0px" y="0px"
	 viewBox="0 0 150 150" style="enable-background:new 0 0 150 150;" xml:space="preserve">
<g>
	<path d="M146.184,60.96c-2.75-2.276-0.948-5.595-5.501-6.544c-3.279-0.683-3.898-0.383-3.989-0.161
		c-0.042-0.766-0.413-4.018-3.693-1.831c0,0-1.802-0.474-1.517,1.802c0,0-3.699,1.138-6.639,3.319s-14.321,7.018-30.538,2.94
		c-16.217-4.078-30.348-9.579-42.393-1.233c0,0-12.329,6.07-18.019,18.873S20.902,94.817,10.66,94.627
		c-10.243-0.19-6.923,10.243,0,6.259c6.923-3.983,15.648,0.474,24.089-12.708c8.441-13.183,7.872-17.261,13.183-20.201
		c0,0,0.759,5.121,10.053,10.337c0,0-4.742,2.94-3.794,4.552c0.948,1.612,3.699,5.501,3.699,5.501s-2.371,1.612-1.328,3.035
		c1.043,1.423,8.061,8.441,8.725,9.674s3.699,7.018,5.69,5.88c0,0,1.992,2.466,3.319,1.517c0,0,3.509-0.474,0.664-4.078
		c-2.845-3.604-3.509-4.173-3.509-4.173s2.75-3.319-4.552-10.527c0,0,11.95-7.682,10.717-10.527s11.286,12.993,17.355,8.63
		c0,0-5.121,8.346-5.69,11.665c-0.569,3.319-3.937,8.18-9.01,8.441c0,0-4.932-0.095-3.699,8.915c0,0,1.612,2.276,2.466,0.569
		c0.854-1.707,1.897-4.173,4.268-5.216c2.371-1.043,7.966-2.655,10.622-8.63c2.656-5.975,9.01-10.812,9.01-10.812
		s5.501,10.717,5.501,11.665c0,0.948-4.552,3.983-4.932,6.07c0,0-4.552,3.509-3.13,4.647c0,0,0.569,2.845,3.13,0.854
		s4.837-3.794,6.354-4.647c1.517-0.854,1.707-2.086,3.509-4.078c1.802-1.992,0.664-4.078-0.759-6.923
		c-1.423-2.845-2.086-9.674-2.086-9.674s8.915-2.1,10.432-5.792c1.517-3.692,6.449-10.141,9.389-12.512s8.82-3.035,9.958-4.268
		c0,0,3.225,2.276,4.552-0.854l-0.569-0.664c0,0,1.897-0.569,1.897-1.897C146.184,64.658,148.935,63.236,146.184,60.96z"/>
</g>
</svg>
