<?xml version="1.0" encoding="iso-8859-1"?>
<!-- Generator: Adobe Illustrator 17.1.0, SVG Export Plug-In . SVG Version: 6.00 Build 0)  -->
<!DOCTYPE svg PUBLIC "-//W3C//DTD SVG 1.1//EN" "http://www.w3.org/Graphics/SVG/1.1/DTD/svg11.dtd">
<svg version="1.1" id="Capa_1" xmlns="http://www.w3.org/2000/svg" xmlns:xlink="http://www.w3.org/1999/xlink" x="0px" y="0px"
	 viewBox="0 0 150 150" style="enable-background:new 0 0 150 150;" xml:space="preserve">
<g>
	<path d="M144.824,96.372c-1.91,1.585-3.82,3.17-5.73,4.755c-0.011-0.122-0.019-0.244-0.022-0.367
		c1.419-1.826,2.837-3.652,4.255-5.478c0.048-0.062,0.07-0.129,0.072-0.195c0.257-0.288,0.513-0.576,0.77-0.864
		c0.271-0.305-0.176-0.755-0.449-0.449c-1.634,1.834-3.268,3.668-4.902,5.503c-0.114,0-0.265,0-0.457,0
		c0.761-1.243,1.399-2.366,2.116-3.436c0.724-1.08,1.527-2.107,2.016-3.38c-1.262,1.676-2.524,3.353-3.786,5.029
		c-0.093-0.02-0.186-0.041-0.279-0.061c0.201-0.671,0.403-1.342,0.508-1.695c-0.041-0.184-0.081-0.362-0.12-0.538
		c1.148-1.769,2.296-3.537,3.444-5.306c0.224-0.344-0.326-0.662-0.548-0.32c-1.03,1.586-2.059,3.172-3.089,4.758
		c-0.047-0.211-0.093-0.417-0.138-0.62c1.019-2.238,2.037-4.476,3.056-6.714c0.168-0.37-0.379-0.692-0.548-0.32
		c-0.91,2-1.821,4-2.731,6c0.09-0.761,0.18-1.523,0.269-2.284c0.048-0.406-0.587-0.401-0.635,0c-0.016,0.14-0.033,0.281-0.05,0.421
		c-0.384-1.904-0.77-3.805-2.16-5.366c-0.348-0.391-0.454-1.078-0.5-1.642c-0.307-3.784-2.193-6.807-4.669-9.486
		c-1.403-1.517-2.056-3.047-2.015-5.213c0.096-5.049-2.709-8.814-6.426-11.804c-1.724-1.388-3.932-2.241-6.021-3.088
		c-1.555-0.631-2.343,0.201-1.906,1.853c0.239,0.905,0.7,1.76,1.116,2.61c0.998,2.035,2.071,4.035,3.016,6.094
		c0.239,0.52,0.108,1.208,0.148,1.819c-0.6,0.022-1.201,0.078-1.799,0.061c-2.515-0.069-5.048-0.39-7.538-0.183
		c-2.865,0.239-5.367,0.258-8.179-1.175c-3.796-1.934-8.056-3.355-12.265-3.956c-3.331-0.475-6.896,0.536-10.337,1.031
		c-5.257,0.756-10.392,1.933-14.804,5.148c-5.768,4.202-11.234,8.72-14.089,15.517c-0.813,1.934-1.309,4.003-1.842,6.054
		c-1.646-2.007-3.036-4.28-4.193-6.794c-1.515-3.293-2.865-6.663-4.446-9.922c-0.327-0.675-1.348-1.013-2.049-1.507
		c-0.319,0.175-0.638,0.349-0.957,0.524c0.201-4.498,0.62-9.001,0.529-13.494c-0.065-3.245,1.843-6.111,1.04-9.6
		c-0.388-1.689,1.482-3.935,2.425-5.883c1.096-2.266,2.297-4.481,3.537-6.884c-1.662-0.884-0.937-1.884,0.003-3.121
		c1.022-1.344,2.105-2.812,2.537-4.397c0.919-3.369,1.435-6.848,2.116-10.283c-0.24-0.067-0.481-0.134-0.721-0.2
		c-0.631,0.546-1.262,1.091-2.027,1.753c-0.428-0.618-0.793-1.145-1.331-1.922c-1.341,1.155-2.641,2.275-4.47,3.85
		c0.612-1.336,0.926-2.02,1.541-3.363c-1.449,1.184-2.398,1.959-3.347,2.734c-0.102-0.096-0.205-0.192-0.307-0.288
		c0.458-0.777,0.917-1.553,1.375-2.33c-0.104-0.207-0.209-0.414-0.313-0.62c-1.701,0.741-3.783,1.094-5.022,2.308
		c-2.322,2.273-5.413,3.224-8.082,3.579c-3.645,0.484-3.528,2.776-4.203,4.995c-1.201,0.315-2.368,0.62-3.785,0.992
		c-0.252,1.206-0.58,2.771-1.05,5.019c-0.393-1.142-0.559-1.623-0.724-2.104c-0.209-0.09-0.417-0.18-0.626-0.27
		c-0.986,2.429-1.935,4.874-2.986,7.274c-0.244,0.558-0.838,0.963-1.271,1.439c-0.212-0.129-0.424-0.258-0.636-0.387
		c0.276,1.132,0.877,3.223,0.779,3.256c-2.382,0.811-0.333,2.539-0.917,3.846c-0.34-0.256-0.64-0.482-1.237-0.932
		c0.539,2.131-0.027,3.635-1.92,4.94c-0.096,1.436,1.706,3.478-0.481,5.215c-0.239,0.19,0.135,1.125,0.189,1.718
		c0.145,1.578,1.738,2.897,0.354,4.867c-0.411,0.585,1.222,2.607,2.17,4.462c-0.928-0.581-1.416-0.886-2.468-1.544
		c1.062,3.436,2.215,6.288,2.78,9.252c0.529,2.776,1.884,5.102,2.889,7.63c1.439,3.622,3.992,5.804,7.045,7.772
		c-0.308,0.045-0.596,0.088-0.884,0.13c2.73,5.405,7.932,7.921,12.742,10.891c2.26,1.395,4.464,2.912,6.837,4.082
		c1.958,0.965,4.088,1.656,6.211,2.197c1.844,0.47,3.689,0.946,5.536,1.409c0.754,1.162,1.698,2.099,2.872,2.887
		c0.465,0.312,0.845,0.752,1.42,1.275c-1.531,0.508-2.876,0.881-4.162,1.4c-1.808,0.73-2.031,1.983-0.327,2.93
		c2.096,1.165,4.36,2.176,6.676,2.762c3.17,0.802,6.387,1.286,9.29,2.986c1.035,0.606,2.403,0.644,3.878,1.005
		c-0.409-0.543-0.649-0.862-0.89-1.182c0.037-0.122,0.075-0.244,0.112-0.366c1.27,0.364,2.541,0.728,4.009,1.149
		c-0.468-0.667-0.823-1.172-1.251-1.782c0.725,0.2,1.346,0.372,1.967,0.544c0.094-0.142,0.188-0.284,0.282-0.426
		c-1.336-1.064-2.673-2.129-4.067-3.24c1.791-0.596,3.245-0.434,5.043,0.446c1.932,0.945,4.214,1.762,6.662,0.735
		c1.225-0.514,2.792-0.142,4.151-0.424c1.83-0.38,3.392-0.314,4.616,1.325c0.21,0.281,0.738,0.437,1.128,0.454
		c1.986,0.083,3.765,0.641,5.554,1.578c1.22,0.639,2.829,0.502,4.237,0.826c1.169,0.268,2.324,0.642,3.442,1.08
		c1.194,0.468,2.337,1.067,3.699,1.7c-0.043-0.544-0.063-0.793-0.095-1.183c0.77,0.263,1.488,0.507,2.303,0.785
		c-0.082-0.478-0.166-0.972-0.275-1.614c1.248,0.341,2.44,0.667,3.822,1.045c-0.81-1.017-1.52-1.909-2.362-2.966
		c0.504-0.161,0.893-0.285,1.33-0.424c-1.22-1.947-3.179-2.316-5.626-2.302c1.306-1.19,2.584-0.952,3.757-0.842
		c3.422,0.319,6.839,0.697,10.247,1.141c0.811,0.105,1.594,0.517,2.36,0.854c1.052,0.463,2.096,0.951,3.102,1.506
		c0.472,0.26,0.844,0.699,1.491,1.254c-0.146-0.869-0.258-1.531-0.42-2.493c1.366,0.294,2.56,0.551,3.854,0.83
		c-0.122-0.406-0.272-0.908-0.527-1.758c0.978,0.303,1.758,0.545,2.914,0.903c-0.688-0.936-1.186-1.615-1.772-2.412
		c0.298-0.029,0.532-0.051,0.911-0.087c-1.149-1.675-2.576-2.692-4.535-2.682c0.581-1.998,1.161-3.996,1.742-5.995
		c0.066,0.037,0.131,0.073,0.197,0.11c-0.072,1.355-0.145,2.71-0.217,4.065c0.067,0.01,0.135,0.019,0.202,0.029
		c0.211-1.372,0.421-2.744,0.632-4.115c0.111,0.001,0.223,0.003,0.334,0.004c0.026,0.258,0.052,0.517,0.078,0.775
		c-0.522,1.382-0.65,2.878-0.373,4.393c0.073,0.402,0.685,0.231,0.612-0.169c-0.348-1.905,0.031-3.763,1.043-5.372
		c0.202-0.095,0.441-0.172,0.736-0.226c5.447-0.994,6.062-2.763,5.656-7.569c1.033-0.344,2.065-0.688,3.098-1.033
		c0.386-0.129,0.221-0.742-0.169-0.612c-0.441,0.147-0.882,0.294-1.324,0.441c0.459-0.295,0.919-0.59,1.378-0.885
		c0.343-0.22,0.025-0.77-0.32-0.548c-0.443,0.285-0.886,0.569-1.329,0.854c1.572-1.304,3.143-2.608,4.715-3.912
		C145.589,96.559,145.137,96.113,144.824,96.372z M127.915,116.606c-2.487,0.079-4.737-0.587-6.92-2.23
		c0.534-0.454,0.979-0.859,1.453-1.227c0.457-0.356,1.189-0.574,1.373-1.026c0.6-1.473,1.731-1.297,3.19-1.224
		c-0.504,1.046-0.94,1.952-1.493,3.101c1.36-1.037,1.391-3.065,3.342-3.437c-0.575,1.257-1.151,2.514-1.726,3.771
		c-0.169,0.369,0.378,0.692,0.548,0.32c0.32-0.699,0.64-1.398,0.96-2.097c0.27-0.412,0.539-0.821,0.809-1.231
		C128.939,113.086,128.427,114.846,127.915,116.606z"/>
</g>
</svg>
