<?xml version="1.0" encoding="iso-8859-1"?>
<!-- Generator: Adobe Illustrator 17.1.0, SVG Export Plug-In . SVG Version: 6.00 Build 0)  -->
<!DOCTYPE svg PUBLIC "-//W3C//DTD SVG 1.1//EN" "http://www.w3.org/Graphics/SVG/1.1/DTD/svg11.dtd">
<svg version="1.1" id="Capa_1" xmlns="http://www.w3.org/2000/svg" xmlns:xlink="http://www.w3.org/1999/xlink" x="0px" y="0px"
	 viewBox="0 0 150 150" style="enable-background:new 0 0 150 150;" xml:space="preserve">
<g>
	<path d="M137.555,76.64c-1.26-1.948-2.005-3.888-1.835-6.184c0.106-1.434,0.139-2.876,0.323-4.3
		c1.096-8.442-1.196-16.23-4.537-23.821c-0.164-0.373-0.451-0.691-0.856-1.297c-1.504,1.917-1.931,3.914-2.028,5.873
		c-0.101,2.025,0.013,4.142,0.508,6.099c1.216,4.812,1.017,9.551,0.198,14.389c-0.452,2.67-0.418,5.44-0.408,8.165
		c0.011,3.062,1.447,5.593,3.344,7.918c1.804,2.21,1.585,3.592-0.843,5.169c-3.01,1.954-6.276,2.839-9.856,1.936
		c-1.903-0.48-3.811-0.963-5.672-1.579c-2.943-0.974-4.704-3.55-4.618-6.672c0.066-2.395,0.151-4.794,0.352-7.18
		c0.281-3.351-0.456-6.468-1.867-9.472c-2.015-4.291-3.97-8.61-6.03-12.879c-3.638-7.537-10.207-11.267-17.924-13.114
		c-7.249-1.735-14.608-1.506-21.745,0.681c-4.007,1.228-8.089,1.891-12.157,2.75c-6.204,1.31-12.096,3.381-16.181,8.742
		c-1.734,2.275-4.093,3.652-7.167,4.474c0.306-1.092,0.616-1.933,0.761-2.8c0.13-0.779,0.347-1.72,0.037-2.35
		c-0.402-0.82-1.205-1.797-1.99-1.96c-0.574-0.119-1.782,0.824-2.044,1.538c-1.1,2.995-2.075,6.05-2.839,9.147
		c-0.389,1.578-0.993,2.52-2.618,2.957c-3.26,0.876-5.453,2.912-6.671,6.161c-0.873,2.33-2.212,4.481-3.27,6.745
		c-1.175,2.514-1.828,5.194-1.326,7.94c0.432,2.365,0.17,4.539-0.692,6.735c-0.899,2.29-1.104,4.57,0.69,6.587
		c0.339,0.38,0.888,0.934,1.252,0.873c2.51-0.418,3.675,2.227,5.877,2.505c0.329,0.042,0.56,0.864,0.78,1.231
		c0.065-0.232,0.177-0.638,0.338-1.215c1.325,1.194,1.236,1.538,1.035,0.291c0.106-0.021,0.213-0.043,0.319-0.064l3.043-2.215
		c1.732,0.722,2.098,1.48,1.406,2.398c-0.488-1.477-1.43-0.442-0.759,0.326s0.479,1.247-0.863,1.247c-1.343,0-2.144,1.47-2.144,1.47
		c0.114,0.842,0.022,1.611,1.305,1.542c0.42-0.022,0.824,0.804,1.329,1.003c1.852,0.728,3.336,0.141,4.645-1.076
		c0.153-0.03,0.297-0.084,0.416-0.169c0.195-0.139,0.39-0.279,0.585-0.418c0.233-0.167,0.423-0.346,0.55-0.582
		c1.955-1.208,3.762-0.507,5.371,0.56c3.657,2.425,7.53,2.535,11.54,1.335c1.277-0.382,2.311-0.052,3.453,0.378
		c2.946,1.108,5.901,2.204,8.899,3.158c1.835,0.584,3.534,0.205,5.067-1.148c1.515-1.337,3.692-1.22,5.297,0.038
		c1.172,0.918,1.242,2.969-0.16,3.847c-1.92,1.202-4.008,2.196-6.132,2.991c-1.453,0.544-3.082,0.671-4.647,0.852
		c-3.19,0.369-6.128,1.34-8.789,3.179c-0.764,0.528-1.685,0.864-2.576,1.163c-1.076,0.361-1.889,0.807-1.496,2.236
		c0.389-0.024,0.794-0.049,1.316-0.081c-0.113,0.267-0.206,0.487-0.338,0.801c0.292,0.053,0.568,0.176,0.814,0.133
		c0.707-0.123,1.235-0.592,1.931,0.456c0.404,0.608,1.978,0.509,3.035,0.579c0.487,0.032,1.022-0.584,1.369,0.303
		c0.062,0.158,0.627,0.219,0.932,0.166c1.736-0.3,3.495-0.478,4.915-1.773c0.507-0.463,1.338-0.577,2.028-0.83
		c0.397-0.145,0.898-0.139,1.2-0.387c2.16-1.77,4.877-2.118,7.375-3.048c2.078-0.774,4.098-1.811,5.957-3.021
		c0.862-0.561,1.39-1.756,1.856-2.763c0.312-0.674,0.518-1.083,1.359-1.153c0.885-0.074,1.833-0.294,2.6-0.724
		c2.207-1.236,4.579-1.779,7.044-1.682c2.927,0.114,5.463-0.845,7.837-2.376c1.705-1.101,3.5-1.618,5.547-1.611
		c4.873,0.016,8.439-2.053,10.357-6.717c0.863-2.1,0.67-1.913,2.809-1.097c5.766,2.198,11.685,2.456,17.681,1.253
		c4.594-0.921,7.916-3.754,10.481-7.505c1.402-2.051,1.426-4.469,0.466-6.629C140.813,82.153,139.284,79.314,137.555,76.64z"/>
</g>
</svg>
