<?xml version="1.0" encoding="iso-8859-1"?>
<!-- Generator: Adobe Illustrator 17.1.0, SVG Export Plug-In . SVG Version: 6.00 Build 0)  -->
<!DOCTYPE svg PUBLIC "-//W3C//DTD SVG 1.1//EN" "http://www.w3.org/Graphics/SVG/1.1/DTD/svg11.dtd">
<svg version="1.1" id="Capa_1" xmlns="http://www.w3.org/2000/svg" xmlns:xlink="http://www.w3.org/1999/xlink" x="0px" y="0px"
	 viewBox="0 0 150 150" style="enable-background:new 0 0 150 150;" xml:space="preserve">
<g>
<path d="M84.574,107.63c0.154-0.299,0.311-0.602,0.475-0.918c0.127-0.245,0.452-0.409,0.72-0.343
	c1.443,0.357,2.654,1.17,3.517,2.465c0.608,0.912,1.252,1.557,2.446,1.511c0.657-0.025,1.183,0.733,1.284,1.626
	c0.015,0.131,0.025,0.263,0.035,0.402c0.016,0.223,0.219,0.273,0.374,0.045c0.405-0.6,0.406-1.529,0.024-2.51
	c-0.1-0.257,0.025-0.525,0.292-0.457c0.288,0.073,0.442,0.354,0.727,1.157c0.092,0.26,0.392,0.368,0.511,0.119
	c0.089-0.189,0.114-0.488,0.138-1.153c0.01-0.276,0.231-0.568,0.502-0.621c1.181-0.231,2.184,0.071,2.932,1.088
	c0.163,0.223,0.326,0.384,0.395,0.339s0.067-0.298,0.005-0.568c-0.087-0.377-0.172-0.754-0.319-1.106
	c-0.639-1.535-1.868-2.342-3.432-2.796c-1.864-0.541-3.445-1.564-4.857-2.921c-0.908-0.872-2.052-1.401-3.349-1.65
	c-2.229-0.428-4.435-0.974-6.648-1.483c-0.269-0.062-0.516-0.199-0.552-0.307c-0.036-0.108,0.104-0.344,0.314-0.523
	c0.41-0.35,0.824-0.696,1.206-1.074c1.104-1.093,2.127-2.274,3.283-3.306c0.989-0.883,2.185-1.037,3.485-0.833
	c0.273,0.043,0.322,0.24,0.115,0.423c-0.259,0.228-0.505,0.445-0.748,0.658c-0.207,0.182-0.346,0.389-0.31,0.462
	c0.036,0.072,0.286,0.093,0.559,0.053c0.992-0.147,1.998-0.248,2.948-0.536c3.008-0.913,5.977-1.95,8.976-2.894
	c0.28-0.088,0.595-0.067,0.921-0.043c0.275,0.02,0.378,0.213,0.223,0.441c-0.221,0.327-0.413,0.665-0.276,1.046
	c0.093,0.26,0.123,0.579-0.064,0.783c-0.136,0.148-0.272,0.297-0.408,0.445c-0.187,0.203-0.305,0.439-0.265,0.525
	s0.296,0.122,0.569,0.083c0.712-0.1,1.426-0.189,2.124-0.348c0.516-0.118,0.765,0.063,1.084,0.429
	c1.033,1.187,2.178,2.249,3.739,3.041c0.246,0.125,0.307,0.045,0.13-0.166c-0.441-0.524-0.835-0.993-1.232-1.464
	c-0.178-0.211-0.197-0.419-0.045-0.464c0.153-0.045,0.131-0.253-0.046-0.465c-0.3-0.357-0.598-0.712-0.912-1.086
	c-0.178-0.211-0.114-0.466,0.143-0.568c2.023-0.807,3.963-1.58,5.989-2.388c0.257-0.102,0.441,0.039,0.359,0.302
	c-0.266,0.856-0.889,1.352-1.468,1.871c-0.206,0.184-0.141,0.312,0.126,0.243c0.964-0.248,1.759-0.774,2.468-1.456
	c0.199-0.192,0.539-0.273,0.771-0.172c0.232,0.102,0.439,0.156,0.462,0.122c0.023-0.034-0.106-0.196-0.289-0.36
	c-0.182-0.165-0.267-0.514-0.19-0.779c0.088-0.301,0.176-0.599,0.263-0.895c0.078-0.265,0.249-0.282,0.419-0.064
	c0.436,0.555,0.991,1.039,0.715,1.954c-0.368,1.221-0.78,2.348-1.934,3.042c-0.067,0.04-0.126,0.103-0.172,0.167
	c-0.019,0.026-0.021,0.063-0.034,0.153c-0.012,0.087,0.192,0.102,0.455,0.017c0.915-0.293,1.693-0.717,2.326-1.429
	c1.194-1.342,1.68-2.782,1.046-4.6c-0.534-1.531-0.86-3.142-1.174-4.738c-0.186-0.945-0.113-1.939-0.261-2.895
	c-0.071-0.459-0.244-0.902-0.41-1.346c-0.097-0.259-0.102-0.507-0.02-0.551s0.268,0.109,0.421,0.339
	c0.424,0.638,0.87,1.265,1.201,1.948c0.641,1.321,1.343,2.46,3.048,2.46c0.264,0,0.582,0.28,0.784,0.509
	c0.797,0.905,1.29,1.922,0.984,3.179c-0.021,0.085-0.025,0.175-0.031,0.304c-0.007,0.169,0.14,0.145,0.301-0.079
	c0.617-0.858,0.705-1.757,0.495-2.644c-0.192-0.812-0.551-1.66-1.069-2.303c-0.924-1.146-2.052-2.124-3.043-3.219
	c-0.665-0.735-1.241-1.55-1.855-2.331c-0.066-0.084-0.105-0.192-0.179-0.265c-1.176-1.162-2.355-2.319-3.533-3.479
	c-0.025-0.025-0.049-0.05-0.07-0.073c-0.037-0.041,0.087-0.241,0.24-0.471c0.344-0.517,0.533-1.082,0.635-1.659
	c0.095-0.535,0.278-0.732,0.805-0.957c1.643-0.701,3.19-1.618,4.263-3.109c0.86-1.195,1.567-2.503,2.472-3.66
	c1.692-2.162,1.481-4.751,1.675-7.216c0.181-2.286,0.43-4.556,0.991-6.763c0.436-1.715,1.653-2.998,3.022-4.086
	c0.733-0.582,1.499-1.129,2.294-1.623c0.653-0.406,1.332-0.484,2.123-0.166c1.09,0.438,2.254,0.693,3.387,1.025
	c0.18,0.053,0.393,0.051,0.537,0.152c1.086,0.753,2.246,0.665,3.457,0.452c0.272-0.048,0.541,0.031,0.602,0.182
	c0.061,0.151,0.168,0.274,0.237,0.275c0.048,0.001,0.09,0,0.123-0.018c0.985-0.508,1.512-1.35,1.7-2.414
	c0.187-1.06,0.332-2.126,0.517-3.186c0.149-0.854,0.725-1.358,1.484-1.68c0.595-0.252,1.205-0.468,1.794-0.733
	c0.445-0.2,0.835-0.539,0.627-1.065c-0.745-1.884-1.711-3.669-3.719-4.432c-1.399-0.531-2.919-0.468-4.388-0.122
	c-1.068,0.252-1.938,0.044-2.722-0.782c-0.634-0.669-1.353-1.258-2.053-1.865c-0.209-0.181-0.425-0.297-0.486-0.256
	c-0.061,0.041-0.04,0.286,0.047,0.548c0.005,0.016,0.011,0.032,0.016,0.049c0.087,0.262-0.026,0.349-0.255,0.193
	c-0.747-0.509-1.463-0.997-2.175-1.482c-0.228-0.155-0.453-0.237-0.503-0.182c-0.05,0.055-0.034,0.268,0.035,0.477
	c0.069,0.209-0.083,0.297-0.34,0.196c-0.615-0.24-1.212-0.473-1.806-0.705c-0.257-0.1-0.49-0.136-0.52-0.08
	c-0.03,0.056,0.063,0.236,0.207,0.402s0.043,0.247-0.226,0.182c-0.658-0.158-1.301-0.313-1.942-0.468
	c-0.268-0.065-0.506-0.077-0.529-0.028c-0.024,0.049,0.02,0.183,0.098,0.3c0.078,0.117-0.077,0.166-0.347,0.11
	c-0.675-0.141-1.344-0.28-2.011-0.419c-0.27-0.056-0.535-0.042-0.591,0.032c-0.057,0.074,0.072,0.274,0.287,0.448
	c0.188,0.152,0.386,0.311,0.607,0.49c0.215,0.173,0.167,0.331-0.108,0.352c-1.033,0.078-1.983,0.15-2.92,0.221
	c-0.275,0.021-0.506,0.087-0.516,0.148c-0.009,0.061,0.187,0.202,0.44,0.314c0.274,0.122,0.557,0.248,0.868,0.386
	c0.252,0.112,0.235,0.233-0.038,0.271c-0.586,0.08-1.127,0.153-1.657,0.225c-0.274,0.037-0.501,0.124-0.509,0.194
	c-0.008,0.07,0.196,0.204,0.455,0.299c0.194,0.071,0.387,0.142,0.581,0.214c0.259,0.095,0.478,0.208,0.488,0.251
	c0.01,0.043-0.201,0.123-0.472,0.177c-0.522,0.106-1.044,0.211-1.566,0.317c-0.271,0.055-0.498,0.141-0.507,0.194
	c-0.01,0.052,0.186,0.187,0.437,0.302c0.09,0.041,0.181,0.083,0.276,0.126c0.251,0.115,0.259,0.315,0.017,0.448
	c-0.228,0.125-0.462,0.254-0.723,0.397c-0.242,0.133-0.225,0.312,0.036,0.4c0.031,0.01,0.061,0.021,0.091,0.031
	c0.262,0.088,0.301,0.3,0.087,0.474c-0.151,0.123-0.3,0.244-0.453,0.369c-0.214,0.175-0.277,0.382-0.141,0.463
	c0.136,0.081,0.115,0.329-0.057,0.545c-0.454,0.573-0.95,1.127-1.196,1.776c-0.393,1.034-0.956,2.116-0.484,3.317
	c0.069,0.176-0.046,0.419-0.057,0.632c-0.057,1.05-0.104,2.101-0.162,3.151c-0.151,2.755-1.204,5.067-3.46,6.718
	c-0.696,0.509-1.539,0.814-2.308,1.226c-0.496,0.266-0.989,0.539-1.462,0.843c-0.98,0.63-2.006,0.464-3.102,0.4
	c-2.187-0.128-4.389-0.016-6.584-0.005c-0.568,0.003-1.136,0.002-1.735,0.001c-0.276,0-0.439,0.088-0.365,0.197
	c0.074,0.109,0.094,0.211,0.046,0.231c-0.034,0.014-0.063,0.024-0.091,0.021c-1.153-0.121-2.287-0.225-3.326,0.514
	c-0.251,0.179-0.678,0.1-1.019,0.167c-0.157,0.031-0.312,0.073-0.465,0.144c-0.245,0.113-0.242,0.306-0.044,0.35
	c0.198,0.044,0.348,0.093,0.335,0.11c-0.009,0.012-0.018,0.022-0.029,0.024c-2.676,0.515-4.922,2.089-7.424,3.045
	c-1.561,0.596-2.905,1.74-4.399,2.539c-2.084,1.115-4.172,2.244-6.344,3.168c-2.067,0.88-4.219,1.583-6.379,2.207
	c-1.123,0.324-2.342,0.398-3.522,0.431c-4.335,0.121-8.671,0.234-13.007,0.242c-3.554,0.007-7.11-0.128-10.664-0.221
	c-1.773-0.046-3.56-0.014-5.312-0.24c-2.692-0.348-5.371-0.832-8.034-1.367c-1.602-0.322-3.224-0.704-4.724-1.331
	c-1.422-0.594-2.692-1.549-4.038-2.329c-0.46-0.267-0.929-0.542-1.427-0.717c-2.794-0.979-5.594-1.94-8.402-2.876
	C6.549,60,6.273,59.98,5.996,59.966c-0.276-0.014-0.535,0.026-0.578,0.099c-0.044,0.073,0.065,0.303,0.242,0.515
	c0.475,0.566,0.951,1.135,1.438,1.716c0.177,0.212,0.098,0.41-0.176,0.443C6.399,62.8,5.887,62.86,5.379,62.921
	c-0.274,0.033-0.527,0.122-0.564,0.2s0.101,0.288,0.309,0.47c0.538,0.47,1.082,0.944,1.655,1.445
	c0.208,0.182,0.153,0.346-0.122,0.367c-0.449,0.034-0.896,0.068-1.399,0.107c-0.275,0.021-0.36,0.215-0.166,0.412
	c0.968,0.986,2.162,1.41,3.241,2.017c0.241,0.135,0.218,0.329-0.043,0.419c-0.367,0.126-0.736,0.253-1.131,0.388
	c-0.261,0.09-0.338,0.343-0.126,0.52c0.697,0.582,1.568,0.625,2.338,0.905c0.259,0.094,0.303,0.329,0.115,0.479
	c-0.188,0.151-0.147,0.384,0.096,0.515c1.704,0.921,3.426,1.592,5.391,1.903c0.273,0.043,0.291,0.165,0.041,0.282
	c-0.1,0.047-0.197,0.092-0.298,0.139c-0.25,0.117-0.281,0.36-0.04,0.494c0.804,0.447,1.655,0.383,2.363,0.493
	c0.273,0.042,0.601,0.257,0.733,0.435c0.103,0.138,0.186,0.241,0.289,0.267c1.121,0.285,2.253,0.524,3.382,0.776
	c0.078,0.017,0.204-0.013,0.234,0.03c0.794,1.161,2.095,0.713,3.161,1.004c0.132,0.036,0.266,0.068,0.402,0.099
	c0.223,0.051,0.362,0.216,0.312,0.369c-0.051,0.153,0.13,0.301,0.404,0.33c0.173,0.018,0.335,0.04,0.492,0.083
	c0.956,0.261,1.935,0.135,2.94,0.494c1.108,0.396,2.497,0.076,3.755-0.031c1.819-0.155,3.629-0.426,5.448-0.586
	c0.447-0.039,0.935,0.292,1.369,0.224c1.827-0.287,3.639-0.67,5.46-0.997c0.514-0.092,1.054-0.218,1.56-0.154
	c3.993,0.507,7.89,1.48,11.672,2.822c1.63,0.578,3.157,1.506,4.638,2.423c1.457,0.902,2.823,1.949,4.277,2.993
	c0.224,0.161,0.371,0.511,0.333,0.784c-0.059,0.426-0.121,0.881-0.269,1.307c-0.134,0.385-0.444,0.83-0.795,0.997
	c-2.235,1.059-3.583,3.004-4.759,4.996c-0.491,0.833-0.753,1.945-0.76,3.091c-0.01,1.623-0.896,3.048-1.967,4.256
	c-0.594,0.671-1.364,1.189-2.071,1.756c-0.604,0.483-1.226,0.943-1.85,1.401c-0.471,0.345-0.42,0.703-0.153,1.168
	c0.137,0.237,0.225,0.744,0.098,0.852c-0.744,0.638-0.576,1.53-0.759,2.321c-0.35,1.513-0.622,3.051-1.077,4.532
	c-0.181,0.588-0.762,1.054-1.166,1.572c-0.098,0.125-0.284,0.218-0.316,0.353c-0.162,0.684-0.574,1.06-1.178,1.311
	c-0.255,0.106-0.271,0.262-0.023,0.383c0.059,0.029,0.119,0.058,0.181,0.088c0.248,0.121,0.29,0.378,0.124,0.599
	c-0.752,1.003-0.809,2.131-0.288,3.335c0.137,0.317,0.385,0.586,0.523,0.902c0.278,0.638,0.685,1.282,0.734,1.946
	c0.117,1.592,0.987,2.296,2.449,2.491c0.106,0.014,0.214,0.051,0.319,0.043c0.891-0.068,1.723-0.028,2.075,0.926
	c0.096,0.259,0.172,0.45,0.233,0.408c0.061-0.042,0.185-0.26,0.278-0.488c0.093-0.228,0.386-0.472,0.662-0.483
	c0.96-0.039,2.071,0.346,2.972-0.59c0.192-0.199,0.502-0.273,0.738-0.128c0.354,0.218,0.728,0.449,1.102,0.679
	c0.235,0.145,0.425,0.036,0.358-0.232c-0.329-1.303-1.784-2.644-3.08-2.668c-0.243-0.005-0.489,0.046-0.728,0.018
	c-2.269-0.271-2.894-0.736-3.455-2.825c-0.472-1.759,0.143-3.393,0.624-5.012c0.654-2.199,1.705-4.236,2.954-6.164
	c0.168-0.259,0.237-0.684,0.769-0.45c0.113,0.05,0.476-0.315,0.633-0.55c0.374-0.558,0.694-1.152,1.036-1.731
	c1.484-2.508,3.738-4.222,6.091-5.807c2.092-1.409,4.258-2.708,6.372-4.086c0.351-0.229,0.662-0.52,0.974-0.809
	c0.203-0.187,0.404-0.299,0.444-0.256s-0.085,0.24-0.278,0.437c-0.579,0.594-1.154,1.184-1.705,1.748
	c-0.193,0.198-0.341,0.51-0.331,0.697c0.006,0.119,0.006,0.233-0.026,0.337c-0.519,1.691,0.039,3.422,1.691,4.034
	c1.604,0.594,3.267,1.033,4.918,1.492c1.039,0.289,1.916,0.667,2.778,1.452c0.704,0.64,1.02,1.259,1.087,2.048
	c0.023,0.275,0.067,0.508,0.136,0.519S84.447,107.875,84.574,107.63z"/>
</g>
</svg>
