<?xml version="1.0" encoding="iso-8859-1"?>
<!-- Generator: Adobe Illustrator 17.1.0, SVG Export Plug-In . SVG Version: 6.00 Build 0)  -->
<!DOCTYPE svg PUBLIC "-//W3C//DTD SVG 1.1//EN" "http://www.w3.org/Graphics/SVG/1.1/DTD/svg11.dtd">
<svg version="1.1" id="Capa_1" xmlns="http://www.w3.org/2000/svg" xmlns:xlink="http://www.w3.org/1999/xlink" x="0px" y="0px"
	 viewBox="0 0 150 150" style="enable-background:new 0 0 150 150;" xml:space="preserve">
<g>
<path d="M144.56,60.735c-0.718-0.359-1.417-1.059-2.219-1.196c-0.793,0-1.023,0.245-1.863-0.094c-1.025-0.398-1.792-0.06-2.833-0.06
	c-1.274,0-2.502-0.358-3.777-0.358c-0.949,0-1.945,0.088-2.86,0.35c-1.081,0.298-2.324,0.051-3.401,0.41
	c-0.928,0.31-2.051-0.183-2.852,0.231c-1.244,0.632-1.699,0.758-3.058,0.416c-1.194-0.289-2.305,1.059-3.271,0.813
	c-0.64-0.218-0.781-0.513-1.481-0.513c-0.731,0-1.463,0-2.195,0c-0.236,0-0.698,0.422-0.936,0.513
	c-0.604-0.361-1.224-0.68-1.922-0.813c-1.456-0.261-2.648,0.99-4.023,0.514c-1.717-0.616-2.558-0.92-4.279-0.283
	c-0.843,0.321-1.583-0.423-2.317-0.732c-0.956-0.404-1.932-0.6-2.97-0.6c-0.933,0-1.225,0.031-1.914,0.591
	c-0.625,0.483-1.203-0.459-1.708-0.726c-1.206-0.649-2.556-1.026-3.93-1.026c-0.288,0-1.44,0.852-1.58,0.419
	c-0.257-0.76-0.927-1.078-1.631-1.448c-0.619-0.327-1.264-0.611-1.931-0.825c-0.956-0.3-1.453,0.163-2.391,0.163
	c-0.399,0-0.952-0.506-1.367-0.58c-1.467-0.264-2.72-0.374-4.101-0.995c-2.465-1.108-4.816-1.39-7.472-1.731
	c-3.346-0.41-7.786-0.743-10.959,0.309c-0.592,0.185-1.264,0.112-1.879,0.085c-0.529-0.031-0.682-0.485-1.092-0.521
	c-0.865-0.071-4.219,0.829-4.452-0.258c-0.14-0.662-1.963,0.528-2.673,0.112c-0.79-0.462-1.638,1.251-2.682,0.999
	c0-0.435,1.974-4.046,0.183-2.732c-0.84,0.617-1.929,2.141-2.779,1.025c-1.037,1.539-1.535,2.929-3.417,3.587
	c-0.329-1.016,0.38-2.242,0.855-3.072c-0.373-1.022-2.488,1.436-2.734,1.707c-1.726-2.359-2.048,2.699-3.073,3.757
	c-1.483,0.768,0.374-5.751,0.374-6.356c-1.711,0-3.268,3.433-3.963,4.648c-1.153-0.707-0.933-2.836-2.597-2.836
	c0,2.34,0.592,4.197-0.085,6.517c-0.21,0.729-0.517,1.77-1.232,2.176c-0.749,0.425-0.802-1.541-0.869-2.006
	c-0.529-3.526-2.108,3.435-2.734,0.076c-1.799,1.156-0.71,4.162-2.263,5.537c-0.791,0.693-0.958,0.356-1.58-0.145
	c-0.767-0.634-1.098,0.947-1.759,0.947c-1.086,0-1.594-0.301-2.375,0.692c-0.918,1.157-1.156,1.4-2.579,1.621
	c-0.658,0.109-1.039-0.28-1.656-0.28c-1.164,0-1.365,1.467-2.393,1.81c-0.308,0.085-0.621,0.109-0.94,0.069
	c-0.193,0.811-0.71,0.89-1.438,0.828c-0.546-0.046-1.569-0.501-1.978-0.145c-0.224,0.195-0.09,1.767-0.256,2.152
	c-0.489,1.144-0.322,2.735-0.659,4.033c-0.582,2.234-1.362,4.702,1.307,5.766c1.846,0.735,3.393-0.847,4.733-1.873
	c1.68-1.113,3.815-1.372,5.525-2.619c1.468-1.083,2.619-1.863,4.468-1.992c1.665,0,3.328-0.052,4.987,0.121
	c2.586,0.267,3.496,1.503,5.272,3.291c1.713,1.724,4.199,3.309,5.543,5.3c0.557,1.112,0.251,1.266-0.161,2.572
	c-0.996,3.106-3.579,6.018-4.297,9.198c-0.381,0.275-0.805,0.702-0.893,1.295c-0.107,0.727,0.165,0.328,0.712-0.075
	c-0.107,0.315-0.172,0.668-0.104,1.005c0.143,0.716,0.29,0.16,1.02-0.452c0.847-0.239,2.023-1.051,2.357-1.244
	c0.808-0.465,1.792-0.972,2.428-1.675c0.439-0.483,0.153-2.219,0.678-3.023c0.545-0.823,1.284-1.488,2.017-2.136
	c1.064,0.729,1.801,1.885,2.006,3.159c0.168,1.053-0.035,1.982-0.716,2.804c-0.008,0.01-0.014,0.017-0.022,0.027
	c-0.298,0.257-1.036,0.991-0.936,1.894c0.089,0.803,0.276,0.174,0.806-0.411c0.079,0.023,0.15,0.047,0.247,0.071
	c0.056,0.013,0.113,0.017,0.17,0.027c-0.142,0.284-0.238,0.607-0.198,0.96c0.125,1.125,0.438-0.562,1.625-1
	c0.022-0.008,0.036-0.016,0.056-0.024c0.659-0.169,1.279-0.51,1.755-0.988c1.35-1.339,3.925-2.28,1.384-4.039
	c-1.866-1.275-1.276-4.407-2.297-6.176c-0.634-1.083-0.976-2.301-1.369-3.482c-0.242-0.728-1.109-1.761-1.109-2.523
	c3.535,0,6.923,0.534,10.467-0.002c1.383-0.21,2.828-0.498,4.106-1.083c0.705-0.304,0.748-0.233,0.853,0.564
	c0.55,4.185,2.094,8.88,0.65,13.069c-0.476,1.406-1.301,1.873-2.443,2.665c-0.171,0.12-0.373,0.284-0.56,0.467
	c-0.433,0.084-1.125,0.299-1.248,0.843c-0.111,0.489,0.138,0.305,0.645,0.134c-0.004,0.143,0.056,0.269,0.199,0.368
	c-0.058,0.08-0.102,0.17-0.125,0.272c-0.157,0.693,0.404,0.038,1.406-0.021c0.188,0.013,0.391,0.024,0.617,0.033
	c0.069,0.006,0.127,0.008,0.175,0.005c2.545,0.084,6.937-0.144,6.937-1.955c0-2.446-0.163-5.336,0.665-7.704
	c0.715-1.769,1.876-3.415,2.162-5.337c0.16-1.084-0.148-2.124-0.113-3.205c1.818,2.72,4.863,4.386,6.978,6.851
	c0.948,1.101,2.622,3.797,1.521,5.32c-0.436,0.6-1.181,0.971-1.58,1.565c-0.332,0.041-1.337,0.216-1.488,0.882
	c-0.138,0.608,0.278,0.179,1.058,0.024c-0.223,0.269-0.395,0.596-0.302,0.934c0.154,0.565,0.313,0.091,0.841-0.385
	c0.306,0.078,0.743-0.028,1.151-0.098c-0.071,0.254-0.084,0.516,0.054,0.742c0.328,0.536,0.326-0.076,0.788-0.738
	c0.779,0.115,1.4,0.173,2.014-0.551c0.865-1.031,2.985-2.65,3.255-3.93c0.324-1.575-1.164-2.62-2.104-3.718
	c-0.635-0.74-0.735-1.696-0.877-2.625c-0.189-1.23-0.702-2.225-1.259-3.324c-0.412-0.814-2.039-1.939-2.039-2.76
	c0-1.398,2.451-2.552,3.289-3.502c2.613-2.978,4.397-4.789,8.495-4.735c7.598,0.101,15.222-0.137,22.683-1.712
	c5.702-1.203,11.336-2.919,17.012-4.264c3.067-0.726,6.072-1.679,9.187-2.191c3.469-0.568,6.703-0.194,10.176-0.063
	C146.943,62.183,145.701,61.306,144.56,60.735z"/>
</g>
</svg>
