<?xml version="1.0" encoding="iso-8859-1"?>
<!-- Generator: Adobe Illustrator 17.1.0, SVG Export Plug-In . SVG Version: 6.00 Build 0)  -->
<!DOCTYPE svg PUBLIC "-//W3C//DTD SVG 1.1//EN" "http://www.w3.org/Graphics/SVG/1.1/DTD/svg11.dtd">
<svg version="1.1" id="Capa_1" xmlns="http://www.w3.org/2000/svg" xmlns:xlink="http://www.w3.org/1999/xlink" x="0px" y="0px"
	 viewBox="0 0 150 150" style="enable-background:new 0 0 150 150;" xml:space="preserve">
<g>
	<path d="M120.633,121.106c0.032,0,0.069,0.004,0.128,0.055c0.271,0.234,0.529,0.461,0.765,0.669
		c1.024,0.904,1.278,1.117,1.588,1.117c0.186,0,0.387-0.119,0.473-0.282c0.174-0.326,0.157-0.517-1.32-2.701
		c-0.815-1.209-2.138-1.463-3.103-1.463c-0.71,0-1.321,0.137-1.631,0.255c-0.111,0.042-0.4,0.092-0.848,0.092
		c-0.762,0-1.367-0.139-1.496-0.237c-0.509-0.38-2.27-1.036-3.174-1.036c-0.135,0-0.25,0.013-0.355,0.042
		c-0.03,0.008-0.148,0.035-0.43,0.035c-0.932,0-2.103-0.266-2.411-0.55c-0.363-0.327-1.476-0.662-3.926-1.347
		c-1.107-0.31-2.596-0.727-3.013-0.929c-1.625-5.061-2.139-9.179-2.593-12.815c-0.344-2.76-0.642-5.143-1.354-7.39
		c-0.049-0.155-0.024-0.235,0.024-0.393c0.312-1.018,0.185-1.583-6.197-5.151c0.192-2.568,0.44-8.479,0.44-11.338
		c0-2.673-0.556-6.888-0.727-8.125c3.261-1.767,6.607-3.173,8.241-3.86c0.251-0.105,0.463-0.195,0.63-0.266
		c0.267,0.278,0.696,1.008,0.573,1.487c-0.59,2.294-0.834,10.865-0.928,15.77c-0.017,0.813,0.164,1.417,0.536,1.797
		c0.514,0.522,1.4,0.447,1.865-0.068c1.521,0.86,3.179,1.128,5.118,0.775c0.879-0.161,1.385-0.274,1.543-0.712
		c1.142-0.021,2.377-0.434,3.048-0.657c0.089-0.029,0.135-0.032,0.158-0.032c0.016,0.006,0.061,0.042,0.094,0.068
		c0.217,0.168,0.689,0.45,1.486,0.209c0.525-0.159,0.953-0.224,1.265-0.272c0.404-0.062,0.785-0.121,0.861-0.527
		c0.076-0.41-0.291-0.621-0.511-0.747c-0.14-0.08-0.287-0.131-0.43-0.165c0.695-0.305,2.156-0.323,3.263,0.184
		c0.105,0.048,0.164,0.094,0.179,0.106c0.096,0.086,0.234,0.151,0.358,0.151c0.001,0,0.002,0,0.003,0
		c0.208-0.001,0.393-0.131,0.465-0.326c0.067-0.18,0.003-0.401-0.13-0.542c-0.034-0.038-0.256-0.294-0.654-1.035
		c-0.374-0.693-0.765-0.963-1.394-0.963l-0.448,0.01c-0.11,0-0.232-0.005-0.37-0.023c-1.73-0.23-2.159,0.197-3.022,0.935
		c-0.085,0.073-0.175,0.15-0.272,0.232c-0.977-0.22-2.403,0.121-3.89,0.512c-1.907,0.501-3.977,0.931-5.163,0.33
		c-0.173-2.174-0.188-8.683,0.398-14.278c0.169-1.603-1.129-3.191-2.171-4.467c-0.222-0.271-0.432-0.527-0.608-0.764
		c-0.239-0.316-0.655-0.47-1.272-0.47c-1.429,0-3.979,0.83-6.229,1.562c-1.276,0.416-2.59,0.843-3.306,0.969
		c-0.108-0.409-0.188-0.781-0.261-1.123c-0.272-1.271-0.491-2.294-1.801-3.23c0.319-0.883,0.308-1.504,0.244-2.397l-0.441-2.376
		c3.688-3.26,5.875-5.574,5.366-9.479c-0.461-3.481-4.786-12.302-6.306-15.235c0.746-0.418,1.348-0.718,1.806-0.945
		c0.829-0.412,1.204-0.599,1.221-0.994c4.263-2.124,4.232-2.341,4.169-2.797c-0.003-0.019-0.006-0.037-0.01-0.054
		c4.226-2.625,4.413-2.82,4.369-3.248c3.591-2.648,3.975-2.945,3.913-3.299c1.409-1.238,2.589-2.024,3.318-2.51
		c0.778-0.519,1.123-0.749,1.058-1.158c1.606-1.211,2.614-1.888,3.238-2.307c0.769-0.515,1-0.67,0.955-1.06
		c-0.002-0.019-0.005-0.036-0.009-0.054c1.903-1.703,3.103-2.416,3.697-2.769c0.347-0.206,0.598-0.355,0.659-0.61
		c2.844-1.125,3.131-1.429,3.145-1.814c0.828-0.533,1.981-1.125,2.91-1.358c0.956-0.239,1.41-0.61,1.349-1.104
		c-0.019-0.155-0.168-0.687-1.113-0.61c-0.802,0.059-1.559,0.304-3.713,1.535c-0.083-0.038-0.176-0.058-0.275-0.058
		c-0.639,0-2.104,1.017-3.093,1.817c-0.074-0.031-0.15-0.05-0.217-0.05c-0.578,0-1.527,0.956-1.908,1.365
		c-0.193,0.207-0.362,0.398-0.525,0.582c-0.515,0.581-0.933,1.053-1.866,1.745c-0.056-0.018-0.111-0.028-0.16-0.028
		c-0.551,0-1.34,0.829-1.619,1.25c-0.007,0.01-0.626,0.914-2.45,2.131c-0.664-0.322-1.374,0.657-1.612,1.136
		c-0.243,0.491-0.556,0.749-1.177,1.261c-0.379,0.313-0.873,0.72-1.509,1.316c-0.559-0.113-1.158,0.69-1.363,1.098
		c-0.176,0.35-0.937,0.929-1.816,1.6c-0.225,0.171-0.464,0.354-0.716,0.549c-0.103-0.059-0.222-0.098-0.314-0.098
		c-0.575,0-1.24,0.806-1.471,1.195c-0.349,0.582-0.907,0.985-2.402,2.061l-0.215,0.155c-0.391-0.241-1.001-0.014-1.377,0.55
		c-0.267,0.397-1.398,1.316-2.662,2.176c-0.109-0.088-0.248-0.137-0.397-0.137c-0.579,0-1.383,0.849-1.7,1.214
		c-0.125,0.143-0.337,0.319-0.585,0.506c0.345-2.882,1.5-7.253,2.104-8.839c0.333-0.452,0.816-0.884,1.208-1.234
		c0.294-0.263,0.526-0.471,0.675-0.662c0.373-0.488,0.596-0.817,0.469-1.151c0.229-0.185,0.426-0.329,0.58-0.441
		c0.383-0.278,0.685-0.498,0.578-0.898c-0.031-0.121-0.092-0.21-0.17-0.277c0.191-0.385,0.328-0.851,0.282-1.363
		c-0.116-1.187-1.081-2.299-1.122-2.346c-0.157-0.179-0.417-0.222-0.623-0.104c-0.207,0.118-0.301,0.366-0.228,0.592
		c0.003,0.009,0.225,0.706,0.035,1.635c-0.079-0.036-0.168-0.057-0.267-0.057c-0.492,0-0.757,0.429-1.127,1.512
		c-0.08-0.038-0.167-0.059-0.265-0.059c-0.486,0-0.642,0.457-0.838,1.034c-0.057,0.166-0.123,0.359-0.203,0.575
		c-0.286,0.762-0.499,0.974-0.687,1.161c-0.299,0.299-0.509,0.559-0.649,1.366c-1.21,2.538-1.893,7.947-1.975,10.835
		c-0.001,0.028,0.002,0.055,0.007,0.082c-0.009,0.034-0.017,0.068-0.023,0.103c-0.09-0.048-0.194-0.073-0.307-0.073
		c-0.523,0-1.411,0.669-1.94,1.106c-0.337,0.278-0.979,0.809-1.858,1.232c-0.103-0.067-0.227-0.111-0.332-0.111
		c-0.41,0-1.039,0.382-3.559,2.204c-0.082-0.039-0.171-0.063-0.246-0.063c-0.623,0-1.59,1.13-1.777,1.357
		c-0.678,0.821-1.314,1.031-1.979,1.093c-0.748-0.062-1.386-0.272-2.066-1.094c-0.187-0.227-1.153-1.356-1.78-1.356
		c-0.075,0-0.165,0.024-0.248,0.063c-2.481-1.801-3.142-2.204-3.555-2.204c-0.105,0-0.23,0.043-0.333,0.111
		c-0.884-0.426-1.529-0.964-1.9-1.272c-0.593-0.487-1.402-1.067-1.896-1.067c-0.11,0-0.212,0.024-0.301,0.071
		c-0.026-0.143-0.063-0.272-0.112-0.395c-0.114-2.991-0.791-8.169-1.966-10.624c-0.142-0.805-0.352-1.065-0.651-1.364
		c-0.188-0.187-0.4-0.398-0.684-1.162c-0.079-0.211-0.145-0.4-0.2-0.564c-0.207-0.606-0.357-1.045-0.845-1.045
		c-0.097,0-0.185,0.021-0.265,0.059c-0.374-1.083-0.639-1.512-1.126-1.512c-0.099,0-0.187,0.021-0.266,0.057
		c-0.188-0.929,0.032-1.625,0.035-1.632c0.076-0.226-0.017-0.474-0.223-0.594c-0.208-0.12-0.469-0.078-0.626,0.103
		c-0.042,0.046-1.01,1.159-1.125,2.35c-0.046,0.509,0.091,0.974,0.283,1.358c-0.079,0.067-0.141,0.157-0.173,0.279
		c-0.106,0.4,0.197,0.621,0.58,0.9c0.154,0.112,0.353,0.256,0.581,0.44c-0.126,0.333,0.098,0.663,0.472,1.15
		c0.146,0.19,0.38,0.4,0.676,0.665c0.39,0.35,0.872,0.781,1.203,1.231c0.595,1.544,1.736,5.848,2.095,8.768
		c-0.208-0.16-0.384-0.31-0.494-0.435c-0.318-0.365-1.122-1.214-1.7-1.214c-0.149,0-0.288,0.049-0.397,0.137
		c-1.265-0.858-2.396-1.776-2.662-2.175c-0.377-0.566-0.99-0.792-1.377-0.55l-0.247-0.179c-1.475-1.062-2.026-1.46-2.369-2.037
		c-0.275-0.462-0.918-1.196-1.471-1.196c-0.119,0-0.231,0.032-0.326,0.09c-0.253-0.196-0.494-0.38-0.72-0.552
		c-0.872-0.666-1.626-1.241-1.799-1.588c-0.205-0.409-0.797-1.221-1.368-1.099c-0.631-0.591-1.122-0.997-1.498-1.309
		c-0.624-0.517-0.938-0.776-1.185-1.27c-0.208-0.418-0.821-1.2-1.365-1.2c-0.077,0-0.168,0.025-0.252,0.065
		c-1.836-1.226-2.438-2.119-2.444-2.129c-0.281-0.423-1.07-1.252-1.624-1.252c-0.049,0-0.104,0.01-0.159,0.028
		c-0.922-0.687-1.354-1.171-1.845-1.723c-0.17-0.191-0.347-0.39-0.548-0.602c-0.382-0.411-1.331-1.366-1.906-1.366
		c-0.066,0-0.143,0.019-0.217,0.05c-0.991-0.801-2.458-1.817-3.096-1.817c-0.1,0-0.193,0.02-0.275,0.057
		c-2.153-1.23-2.908-1.475-3.707-1.535c-0.981-0.075-1.097,0.456-1.115,0.611c-0.061,0.494,0.393,0.866,1.347,1.103
		c0.92,0.231,2.075,0.822,2.912,1.356c0.01,0.385,0.296,0.69,3.146,1.817c0.062,0.255,0.312,0.404,0.659,0.61
		c0.594,0.354,1.792,1.066,3.692,2.769c-0.004,0.017-0.007,0.035-0.009,0.054c-0.045,0.39,0.188,0.545,0.956,1.061
		c0.624,0.419,1.633,1.096,3.24,2.307c-0.064,0.407,0.28,0.637,1.056,1.153c0.73,0.486,1.91,1.271,3.321,2.512
		c-0.064,0.356,0.313,0.648,3.911,3.301c-0.043,0.428,0.145,0.623,4.37,3.249c-0.004,0.017-0.007,0.035-0.01,0.053
		c-0.063,0.456-0.094,0.673,4.17,2.797c0.017,0.396,0.392,0.583,1.222,0.996c0.457,0.227,1.059,0.526,1.803,0.944
		c-1.521,2.935-5.848,11.759-6.305,15.235c-0.513,3.901,1.674,6.216,5.363,9.479l-0.453,2.438c-0.051,0.845-0.059,1.46,0.261,2.336
		c-1.308,0.932-1.527,1.951-1.799,3.215c-0.075,0.347-0.156,0.725-0.268,1.142c-0.696-0.122-2.021-0.554-3.309-0.973
		c-2.249-0.732-4.798-1.562-6.225-1.562c-0.617,0-1.033,0.154-1.271,0.471c-0.175,0.232-0.383,0.485-0.602,0.754
		c-1.046,1.278-2.348,2.869-2.182,4.477c0.588,5.583,0.576,12.047,0.405,14.246c-0.488,0.193-1.051,0.288-1.711,0.288
		c-1.244,0-2.598-0.334-3.906-0.657c-1.487-0.367-2.902-0.687-3.877-0.498c-0.094-0.085-0.182-0.166-0.264-0.242
		c-0.83-0.763-1.271-1.212-2.991-1.042c-0.245,0.024-0.439,0.008-0.606-0.004c-0.776-0.058-1.196,0.144-1.635,0.9
		c-0.417,0.718-0.648,0.968-0.686,1.006c-0.141,0.139-0.215,0.365-0.15,0.549c0.07,0.2,0.26,0.334,0.472,0.334
		c0.001,0,0.002,0,0.002,0c0.115,0,0.25-0.062,0.345-0.14c0.016-0.012,0.075-0.054,0.183-0.098c1.124-0.47,2.582-0.396,3.261-0.068
		c-0.143,0.029-0.291,0.074-0.434,0.148c-0.225,0.12-0.601,0.32-0.538,0.732c0.062,0.408,0.439,0.479,0.839,0.556
		c0.311,0.059,0.736,0.14,1.259,0.318c0.778,0.265,1.272,0.005,1.493-0.156c0.034-0.025,0.08-0.059,0.1-0.064
		c0.016,0,0.062,0.003,0.154,0.038c0.725,0.268,1.901,0.703,3.022,0.765c0.143,0.44,0.644,0.571,1.516,0.765l0.116,0.026
		c0.507,0.112,1.139,0.251,1.9,0.251c1.254,0,2.472-0.383,3.707-1.168c0.464,0.5,1.336,0.568,1.843,0.052
		c0.373-0.379,0.554-0.984,0.539-1.798c-0.094-4.904-0.338-13.474-0.925-15.767c-0.124-0.494,0.336-1.254,0.556-1.499
		c0.166,0.071,0.379,0.161,0.633,0.268c1.634,0.687,4.982,2.094,8.261,3.868c-0.174,1.238-0.737,5.453-0.737,8.125
		c0,2.994,0.268,8.915,0.446,11.338c-6.381,3.568-6.51,4.133-6.199,5.15c0.048,0.159,0.072,0.238,0.023,0.393
		c-0.715,2.263-0.981,4.496-1.29,7.081c-0.438,3.683-0.937,7.856-2.864,13.429c-0.452,0.805-2.529,1.477-3.903,1.921
		c-1.087,0.352-1.668,0.547-1.953,0.81c-0.31,0.287-1.487,0.557-2.424,0.557c-0.273,0-0.389-0.026-0.422-0.035
		c-0.101-0.026-0.213-0.04-0.342-0.04c-0.891,0-2.683,0.673-3.18,1.05c-0.13,0.1-0.75,0.243-1.529,0.243
		c-0.431,0-0.707-0.047-0.813-0.087c-0.325-0.124-0.947-0.248-1.605-0.248c-0.974,0-2.305,0.256-3.114,1.474
		c-1.475,2.198-1.489,2.375-1.313,2.707c0.087,0.163,0.288,0.281,0.473,0.281c0.309,0,0.56-0.212,1.572-1.114
		c0.237-0.211,0.497-0.442,0.771-0.679c0.06-0.052,0.098-0.057,0.131-0.057c0.129,0,0.334,0.097,0.531,0.191
		c0.052,0.024,0.104,0.049,0.158,0.074c-0.208,0.168-0.359,0.353-0.274,0.644c0.106,0.361,0.459,0.383,0.647,0.395
		c0.137,0.009,0.348,0.021,0.624,0.079c0.248,0.052,0.51,0.079,0.776,0.079c1.292,0,2.546-0.59,3.356-1.58
		c0.083-0.103,0.111-0.103,0.154-0.103c0.096,0,0.25,0.036,0.43,0.077c0.114,0.026,0.239,0.056,0.376,0.083
		c0.851,0.169,2.352-0.15,3.595-0.763c0.508-0.25,1.069-0.376,1.666-0.376c0.358,0,0.667,0.044,0.896,0.082
		c0.829,0.139,1.213-0.068,2.393-0.746l0.435-0.25c1.044-0.602,2.227-1.285,3.482-1.669c0.117-0.036,0.24-0.062,0.365-0.089
		c1.101-0.24,2.111-0.667,2.395-3.214c0.528-4.786,2.027-15.103,2.947-18.095c0.685-0.406,1.173-0.765,1.646-1.112
		c0.421-0.309,0.825-0.605,1.354-0.929c1.51,30.596,3.173,34.478,6.17,41.475c2.718,6.346,6.026,9.841,9.316,9.841
		c1.216,0,2.389-0.483,3.493-1.436c1.104,0.953,2.276,1.436,3.49,1.436c3.283,0,6.591-3.495,9.313-9.841
		c2.999-6.995,4.663-10.876,6.168-41.476c0.529,0.323,0.933,0.619,1.352,0.927c0.475,0.349,0.964,0.708,1.652,1.115
		c0.901,2.944,2.631,13.743,3.198,18.854c0.252,2.228,1.562,2.485,2.524,2.485c0.145,0,0.288-0.005,0.428-0.011
		c0.287-0.011,0.555-0.013,0.673,0.022c0.433,0.131,0.833,0.236,1.212,0.336c0.897,0.235,1.672,0.438,2.468,0.892
		c1.226,0.691,1.588,0.873,2.393,0.732c0.232-0.039,0.546-0.083,0.906-0.083c0.596,0,1.154,0.125,1.661,0.374
		c1.238,0.602,2.726,0.923,3.602,0.746c0.134-0.028,0.255-0.057,0.366-0.083c0.184-0.044,0.342-0.083,0.438-0.083
		c0.043,0,0.071,0,0.155,0.103c0.806,0.979,2.058,1.564,3.348,1.564c0.271,0,0.536-0.027,0.789-0.081
		c0.276-0.059,0.486-0.072,0.623-0.082c0.188-0.012,0.541-0.036,0.645-0.397c0.084-0.291-0.068-0.475-0.277-0.642
		c0.055-0.025,0.107-0.051,0.159-0.076C120.3,121.205,120.504,121.106,120.633,121.106z M81.602,34.215
		c0.957-0.485,1.756-0.843,2.369-1.118c0.554-0.248,0.933-0.417,1.177-0.574c0.301,0.836,0.784,1.837,1.42,3.151
		c0.963,1.99,2.281,4.716,3.696,8.468l0.126,0.335c0.501,1.326,0.862,2.284,0.872,2.433c-0.059,0.037-0.297,0.083-0.426,0.107
		c-1.532,0.295-2.234,1.147-3.296,2.437c-0.171,0.207-0.352,0.427-0.55,0.66c-2.073-4.274-5.637-5.898-6.912-6.361
		c0.315-2.216-0.111-2.839-1.302-4.193c-0.563-0.64-0.628-0.946-0.676-1.169c-0.083-0.391-0.214-0.628-0.645-0.87
		c0.225-0.318,0.481-0.641,0.725-0.853c0.119-0.104,0.197-0.272,0.195-0.433c0.9-0.713,1.846-1.055,2.396-1.253
		c0.479-0.172,0.855-0.309,0.831-0.746C81.603,34.23,81.602,34.223,81.602,34.215z M64.854,34.984
		c0.549,0.199,1.491,0.541,2.395,1.253c-0.002,0.161,0.075,0.328,0.195,0.432c0.243,0.212,0.499,0.535,0.723,0.852
		c-0.432,0.242-0.563,0.48-0.646,0.872c-0.048,0.223-0.112,0.529-0.708,1.208c-1.157,1.316-1.582,1.937-1.271,4.153
		c-1.273,0.463-4.833,2.09-6.912,6.36c-0.197-0.233-0.378-0.454-0.548-0.66c-1.059-1.29-1.758-2.141-3.289-2.437
		C54.7,47,54.548,46.971,54.468,46.971c-0.031,0-0.052,0.004-0.054,0.016c-0.044-0.227,0.319-1.185,0.821-2.511l0.126-0.333
		c1.42-3.765,2.742-6.496,3.708-8.489c0.611-1.264,1.104-2.28,1.411-3.128c0.245,0.157,0.624,0.327,1.178,0.574
		c0.612,0.274,1.41,0.632,2.367,1.117c0,0.008-0.001,0.015-0.001,0.023C64,34.674,64.377,34.811,64.854,34.984z"/>
</g>
</svg>
