<?xml version="1.0" encoding="iso-8859-1"?>
<!-- Generator: Adobe Illustrator 17.1.0, SVG Export Plug-In . SVG Version: 6.00 Build 0)  -->
<!DOCTYPE svg PUBLIC "-//W3C//DTD SVG 1.1//EN" "http://www.w3.org/Graphics/SVG/1.1/DTD/svg11.dtd">
<svg version="1.1" id="Capa_1" xmlns="http://www.w3.org/2000/svg" xmlns:xlink="http://www.w3.org/1999/xlink" x="0px" y="0px"
	 viewBox="0 0 150 150" style="enable-background:new 0 0 150 150;" xml:space="preserve">
<g>
	<path d="M121.204,67.641c0.05,0.271,0.095,0.519,0.113,0.674c0.038,0.298,0.076,0.435,0.114,0.574
		c0.018,0.065,0.036,0.13,0.053,0.21l0.024,0.126c0.046,0.241,0.104,0.543,0.104,0.813c0,0.204,0.046,0.382,0.09,0.553
		c0.041,0.159,0.083,0.324,0.098,0.572c0.03,0.421,0.037,0.521,0.185,0.818c0.069,0.142,0.095,0.247,0.125,0.368
		c0.021,0.086,0.043,0.173,0.075,0.266c0.032,0.1,0.035,0.201,0.038,0.308c0.003,0.102,0.006,0.207,0.036,0.322
		c0.068,0.24,0.321,0.597,0.667,0.633c0.01,0.001,0.056,0.004,0.065,0.004c0.39,0,0.54-0.391,0.598-0.541
		c0.097-0.265,0.171-1.048,0.171-1.545c0-0.314-0.085-0.746-0.167-1.164c-0.059-0.298-0.12-0.606-0.12-0.752
		c0-0.247-0.069-0.355-0.141-0.446c-0.022-0.028-0.032-0.041-0.026-0.149c0.017-0.253-0.127-0.7-0.349-1.354
		c-0.116-0.343-0.248-0.731-0.256-0.865c-0.023-0.305-0.217-1.196-0.636-1.382c-0.004-0.002-0.008-0.004-0.011-0.005
		c0.001-0.008,0.001-0.016,0.002-0.023c0.026-0.012,0.061-0.025,0.087-0.035c0.087-0.032,0.195-0.072,0.289-0.141
		c0.318-0.221,0.138-0.735-0.037-1.233l-0.058-0.168c-0.14-0.409-0.985-2.588-1.099-2.854c-0.022-0.06-0.052-0.151-0.087-0.259
		c-0.218-0.665-0.353-1.004-0.525-1.128l-0.099-0.069c-0.05-0.034-0.134-0.092-0.135-0.147c0.008-0.021,0.011-0.024,0.059-0.055
		c0.193-0.119,0.304-0.276,0.214-0.654c-0.042-0.179-0.292-0.918-0.566-1.473c-0.238-0.5-0.5-0.96-0.691-1.296
		c-0.103-0.18-0.219-0.385-0.236-0.433c-0.078-0.266-0.475-1.132-0.998-1.428c-0.065-0.036-0.096-0.061-0.108-0.063
		c0.011-0.029,0.036-0.078,0.055-0.115c0.038-0.074,0.081-0.159,0.117-0.258c0.189-0.52-0.328-1.254-0.534-1.459
		c-0.066-0.07-0.464-0.614-0.85-1.141c-1.292-1.765-1.641-2.217-1.78-2.303c-0.062-0.04-0.075-0.057-0.075-0.05
		c-0.003-0.015-0.002-0.069,0.051-0.254c0.114-0.393,0.072-0.508-0.092-0.846l-0.084-0.176c-0.17-0.396-2.399-3.48-2.845-3.673
		c-0.062-0.025-0.119-0.043-0.171-0.06c-0.131-0.04-0.167-0.052-0.181-0.511c-0.014-0.364,0.031-0.452,0.045-0.481
		c0.096-0.191,0.001-0.313-0.069-0.401l-0.065-0.095c-0.175-0.254-0.638-0.93-1.081-1.489c-0.657-0.837-1.539-1.854-1.755-1.977
		c-0.135-0.075-0.212-0.305-0.212-0.631c0-0.15,0.021-0.275,0.038-0.378c0.031-0.189,0.062-0.386-0.063-0.541
		c-0.007-0.01-0.803-1.053-1.528-1.734c-0.843-0.787-1.678-1.369-1.94-1.546c-0.043-0.169-0.135-0.508-0.203-0.657
		c-0.04-0.099,0.015-0.374,0.054-0.575l0.016-0.08c0.043-0.216,0.045-1.178,0.036-2.768l-0.002-0.528
		c0-0.585,0.398-3.091,0.493-3.348l0.07-0.19c0.227-0.606,0.469-1.289,0.469-1.699c0-0.35,0.116-0.584,0.355-0.715
		c0.229-0.127,0.34-0.366,0.428-0.558c0.03-0.065,0.076-0.164,0.078-0.175c0.28-0.12,0.372-0.357,0.382-0.385
		c0.026-0.074,0.017-0.156-0.027-0.222c-0.043-0.065-0.115-0.107-0.193-0.112c0,0-0.45-0.029-0.954,0.027
		c-0.239,0.025-0.349-0.038-0.468-0.116c-0.063-0.042-0.136-0.089-0.229-0.116c-0.073-0.02-0.142-0.13-0.144-0.165
		c0.009-0.031,0.065-0.118,0.111-0.188c0.098-0.15,0.232-0.355,0.35-0.638c0.14-0.328,0.417-0.827,0.501-0.901
		c0.262-0.176,0.607-0.891,0.607-0.891c0.112-0.215,0.068-0.371,0.012-0.464c-0.108-0.179-0.328-0.23-0.542-0.246
		c0.08-0.034,0.182-0.081,0.298-0.161c0.238-0.167,0.512-0.669,0.85-1.37l0.046-0.097c0.112-0.208,0.196-0.53,0.064-0.75
		c-0.068-0.114-0.192-0.169-0.371-0.175c-0.001,0.001-0.063,0.005-0.064,0.005c-0.015,0-0.029-0.001-0.043-0.002
		c0.072-0.12,0.211-0.304,0.436-0.497c0.472-0.4,1.004-1.81,1.169-2.321c0.106-0.338,0.056-0.673-0.142-0.943
		c-0.181-0.247-0.479-0.42-0.776-0.42c-0.002,0-0.004,0-0.006,0c-0.319,0.033-0.671,0.336-0.85,0.521
		c0.021-0.756,0.048-1.945,0.032-2.462c-0.021-0.559,0.125-1.299,0.243-1.895c0.039-0.195,0.074-0.376,0.101-0.533
		c0.077-0.476,0.047-0.715,0.022-0.908c-0.009-0.073-0.019-0.142-0.019-0.222c0-0.296,0.101-0.471,0.347-0.604
		c0.151-0.08,0.292,0.134,0.35,0.243c0.054,0.102,0.168,0.151,0.282,0.126c0.111-0.027,0.19-0.127,0.19-0.242
		c0-0.333-0.195-0.99-0.931-1.099c-0.582-0.085-1.097,0.519-1.332,0.8l-0.069,0.082c-0.164,0.191-0.29,0.235-0.615,0.138
		c-0.501-0.152-1.283-0.16-1.858-0.032c-0.544,0.12-0.643,0.724-0.616,1.062c0.009,0.107,0.085,0.196,0.19,0.222
		c0.103,0.024,0.214-0.02,0.271-0.111c0.062-0.101,0.198-0.245,0.35-0.256c0.113,0,0.234,0.033,0.387,0.075
		c0.096,0.027,0.202,0.057,0.326,0.084c0.112,0.022,0.163,0.192,0.217,0.411c0.025,0.101,0.048,0.195,0.089,0.281
		c0.094,0.186,0.479,1.306,0.604,1.674l0.025,0.073c0.05,0.152,0.203,1.311,0.249,2.405c0.011,0.28,0.014,0.551,0.01,0.797
		c-0.025-0.094-0.053-0.188-0.082-0.286c-0.032-0.108-0.065-0.222-0.099-0.349c-0.204-0.722-0.894-0.905-1.577-0.366
		c-0.594,0.478-0.292,1.65-0.112,2.352l0.055,0.219c0.129,0.53,0.688,1.435,0.935,1.796c-0.027-0.021-0.056-0.051-0.093-0.088
		c-0.073-0.074-0.164-0.166-0.308-0.255c-0.248-0.144-0.492-0.121-0.637,0.046c-0.125,0.146-0.163,0.378-0.114,0.71
		c0.05,0.341,0.125,0.465,0.224,0.603c0.046,0.064,0.087,0.12,0.132,0.261c0.046,0.147,0.081,0.302,0.114,0.444
		c0.061,0.266,0.108,0.472,0.208,0.608c-0.068-0.006-0.144-0.003-0.212,0.011c-0.417,0.085-0.383,0.607-0.354,1.067
		c0.008,0.113,0.015,0.225,0.015,0.323c0,0.142,0.003,0.307,0.006,0.474c0.006,0.309,0.013,0.658-0.005,0.803
		c-0.014,0.126-0.087,0.219-0.205,0.231c-0.029,0-0.063-0.002-0.101-0.005c-0.058-0.004-0.123-0.008-0.192-0.008
		c-0.411,0-0.744,0.151-1.018,0.463c-0.427,0.481-0.686,1.282-0.774,2.443c-0.001,0.022-0.008,0.088-0.018,0.186
		c-0.041,0.405-0.138,1.355-0.147,2.14c-0.017,1.546,0.045,3.382,0.076,4.172l-0.264-0.11c-0.002-0.009-0.003-0.019-0.005-0.029
		l-0.025-0.121c-0.054-0.23-0.237-0.49-0.324-0.604c-0.029-0.171-0.104-0.51-0.262-0.685c-0.465-0.519-1.372-1.094-1.873-1.261
		c-0.594-0.197-1.262-0.854-1.405-1.016c-0.129-0.152-0.299-0.228-0.439-0.265c-0.012-0.238-0.086-0.598-0.384-0.854
		c-0.23-0.196-0.524-0.3-0.849-0.3c-0.144,0-0.258,0.02-0.366,0.037c-0.045,0-0.116-0.015-0.199-0.082
		c-0.054-0.067-0.035-0.413-0.021-0.691l0.005-0.088c0.041-0.688-1.019-1.512-1.482-1.539c-0.346-0.027-0.955-0.125-1.154-0.156
		c-0.002-0.001-0.078-0.011-0.081-0.011c-0.25-0.033-0.429-0.009-0.599,0.108c-0.058-0.011-0.13-0.023-0.236-0.023
		c-0.015,0-0.018,0-0.07-0.046c-0.083-0.071-0.223-0.192-0.486-0.192l-0.17-0.002c-0.401-0.007-1.351-0.021-2.15,0.009
		c-0.985,0.036-1.792,0.132-2.111,0.183c-0.615,0.088-0.804,0.305-0.973,0.561c-0.082,0.128-0.252,0.394-0.443,0.431
		c-0.116,0-0.185-0.143-0.223-0.263c-0.137-0.438-0.358-0.556-0.717-0.593c0.022-0.055,0.065-0.131,0.13-0.204
		c0.193-0.222,0.136-0.583,0.085-0.901c-0.014-0.091-0.036-0.229-0.035-0.254c0.054-0.178,0.023-0.336,0.001-0.452
		c-0.008-0.043-0.018-0.086-0.018-0.128c0-0.096-0.12-1.288-0.271-2.146c-0.168-1.016-0.386-1.758-0.48-2.076
		c-0.061-0.2-1.131-2.984-2.096-4.092c-2.018-2.323-4.901-4.261-5.315-4.446c0.054-0.077,0.082-0.193,0.053-0.273
		c-0.072-0.197-0.284-0.254-0.946-0.254h-0.063c-0.064-0.041-0.131-0.054-0.201-0.028c-0.03,0.005-0.06,0.015-0.087,0.029
		l-0.097-0.001c-0.662,0-0.875,0.057-0.946,0.254c-0.029,0.079-0.001,0.196,0.053,0.273c-0.402,0.179-3.293,2.118-5.314,4.446
		c-0.965,1.107-2.036,3.892-2.097,4.094c-0.093,0.316-0.312,1.059-0.479,2.071c-0.152,0.86-0.272,2.053-0.272,2.148
		c0,0.042-0.01,0.085-0.018,0.128c-0.022,0.116-0.052,0.274-0.002,0.438c0.005,0.04-0.017,0.178-0.031,0.269
		c-0.05,0.318-0.107,0.68,0.087,0.903c0.064,0.072,0.107,0.148,0.129,0.202c-0.356,0.036-0.579,0.153-0.717,0.593
		c-0.038,0.118-0.105,0.259-0.257,0.259c-0.002,0-0.004,0-0.006,0c-0.15-0.033-0.321-0.299-0.405-0.43
		c-0.167-0.253-0.355-0.47-0.967-0.558c-0.322-0.051-1.13-0.146-2.114-0.183c-0.799-0.028-1.751-0.015-2.151-0.009l-0.17,0.002
		c-0.263,0-0.402,0.121-0.486,0.192c-0.053,0.046-0.055,0.046-0.07,0.046c-0.106,0-0.179,0.013-0.244,0.029
		c-0.159-0.125-0.34-0.147-0.591-0.114c-0.002,0-0.078,0.01-0.081,0.011c-0.2,0.031-0.809,0.129-1.15,0.155
		c-0.468,0.028-1.527,0.852-1.487,1.539l0.005,0.089c0.015,0.278,0.034,0.624-0.017,0.688c-0.086,0.069-0.157,0.084-0.251,0.078
		c-0.059-0.011-0.173-0.03-0.316-0.03c-0.325,0-0.619,0.104-0.85,0.301c-0.297,0.256-0.371,0.614-0.383,0.853
		c-0.14,0.037-0.309,0.112-0.436,0.262c-0.146,0.165-0.814,0.822-1.409,1.02c-0.5,0.167-1.407,0.742-1.871,1.26
		c-0.16,0.176-0.235,0.515-0.264,0.686c-0.087,0.114-0.27,0.375-0.325,0.609l-0.024,0.116c-0.002,0.011-0.004,0.021-0.005,0.03
		l-0.264,0.11c0.031-0.79,0.092-2.627,0.076-4.173c-0.01-0.784-0.106-1.734-0.147-2.14c-0.01-0.098-0.017-0.163-0.022-0.247
		c-0.084-1.1-0.343-1.9-0.769-2.381c-0.275-0.312-0.608-0.464-1.019-0.464c-0.07,0-0.134,0.004-0.192,0.008
		c-0.038,0.002-0.073,0.004-0.123,0.004c-0.095-0.012-0.168-0.104-0.183-0.233c-0.018-0.142-0.011-0.491-0.004-0.8
		c0.003-0.167,0.006-0.332,0.006-0.474c0-0.099,0.007-0.21,0.015-0.323c0.03-0.46,0.064-0.982-0.353-1.067
		c-0.068-0.014-0.144-0.018-0.21-0.011c0.097-0.134,0.145-0.341,0.206-0.608c0.033-0.143,0.068-0.297,0.113-0.442
		c0.045-0.143,0.086-0.198,0.132-0.263c0.1-0.138,0.174-0.262,0.224-0.603c0.049-0.332,0.012-0.564-0.113-0.71
		c-0.145-0.167-0.384-0.194-0.641-0.043c-0.14,0.086-0.231,0.178-0.304,0.252c-0.036,0.036-0.063,0.063-0.091,0.086
		c0.248-0.363,0.805-1.265,0.934-1.796l0.055-0.217c0.18-0.701,0.482-1.874-0.114-2.354c-0.678-0.535-1.371-0.356-1.576,0.372
		c-0.032,0.123-0.066,0.236-0.098,0.345c-0.029,0.098-0.057,0.193-0.082,0.286c-0.003-0.246-0.001-0.516,0.01-0.796
		c0.046-1.096,0.199-2.254,0.248-2.403l0.026-0.076c0.126-0.368,0.51-1.488,0.607-1.68c0.039-0.08,0.062-0.175,0.087-0.275
		c0.054-0.219,0.105-0.389,0.22-0.412c0.122-0.026,0.227-0.056,0.323-0.083c0.154-0.042,0.275-0.063,0.449-0.072
		c0.09,0.008,0.226,0.152,0.288,0.253c0.057,0.092,0.167,0.137,0.271,0.111c0.105-0.025,0.182-0.114,0.19-0.222
		c0.027-0.338-0.071-0.941-0.616-1.062c-0.576-0.128-1.356-0.12-1.858,0.032c-0.326,0.098-0.451,0.056-0.619-0.142l-0.065-0.078
		c-0.234-0.28-0.762-0.884-1.331-0.8c-0.737,0.108-0.932,0.766-0.932,1.099c0,0.115,0.079,0.215,0.19,0.242
		c0.112,0.025,0.228-0.024,0.282-0.126c0.057-0.109,0.205-0.32,0.348-0.244c0.248,0.135,0.348,0.31,0.348,0.605
		c0,0.08-0.009,0.148-0.019,0.222c-0.025,0.193-0.055,0.433,0.022,0.91c0.026,0.155,0.062,0.336,0.101,0.531
		c0.118,0.596,0.264,1.336,0.243,1.896c-0.016,0.517,0.012,1.706,0.032,2.462c-0.183-0.189-0.541-0.49-0.9-0.524
		c-0.249,0-0.55,0.174-0.732,0.422c-0.198,0.271-0.249,0.605-0.142,0.945c0.165,0.51,0.697,1.919,1.167,2.318
		c0.224,0.192,0.363,0.375,0.436,0.498c-0.014,0.001-0.027,0.002-0.042,0.002l-0.122-0.009c-0.132,0-0.246,0.065-0.314,0.179
		c-0.132,0.22-0.047,0.542,0.06,0.742l0.051,0.104c0.338,0.701,0.611,1.203,0.852,1.372c0.116,0.079,0.217,0.126,0.298,0.16
		c-0.201,0.012-0.432,0.061-0.544,0.245c-0.056,0.093-0.1,0.249,0.008,0.457c0.004,0.007,0.349,0.722,0.608,0.895
		c0.086,0.077,0.364,0.576,0.502,0.902c0.118,0.284,0.252,0.489,0.351,0.64c0.046,0.069,0.103,0.156,0.109,0.168
		c0,0.055-0.068,0.165-0.146,0.186c-0.089,0.026-0.161,0.073-0.225,0.115c-0.12,0.078-0.22,0.147-0.469,0.115
		c-0.503-0.055-0.954-0.026-0.953-0.026c-0.079,0.005-0.15,0.047-0.193,0.112c-0.043,0.065-0.053,0.147-0.027,0.222
		c0.01,0.027,0.102,0.265,0.36,0.372c0.024,0.023,0.069,0.122,0.1,0.188c0.088,0.191,0.199,0.431,0.429,0.558
		c0.238,0.131,0.354,0.365,0.354,0.715c0,0.41,0.242,1.093,0.469,1.699l0.071,0.193c0.093,0.254,0.492,2.76,0.492,3.345
		l-0.002,0.528c-0.01,1.59-0.007,2.552,0.035,2.767l0.016,0.081c0.04,0.201,0.094,0.477,0.059,0.565
		c-0.072,0.157-0.164,0.498-0.208,0.667c-0.262,0.177-1.097,0.759-1.94,1.546c-0.725,0.682-1.521,1.725-1.52,1.725
		c-0.133,0.165-0.102,0.361-0.071,0.551c0.017,0.103,0.038,0.228,0.038,0.378c0,0.326-0.078,0.556-0.214,0.632
		c-0.215,0.122-1.097,1.139-1.753,1.975c-0.443,0.561-0.907,1.236-1.082,1.49l-0.059,0.086c-0.076,0.097-0.171,0.219-0.075,0.41
		c0.015,0.029,0.059,0.117,0.045,0.482c-0.014,0.458-0.049,0.47-0.181,0.51c-0.052,0.017-0.109,0.034-0.176,0.062
		c-0.441,0.19-2.67,3.275-2.837,3.664l-0.087,0.183c-0.164,0.338-0.206,0.453-0.092,0.846c0.054,0.188,0.054,0.241,0.056,0.244
		c-0.003,0.004-0.018,0.02-0.079,0.059c-0.141,0.087-0.49,0.539-1.782,2.304c-0.385,0.526-0.783,1.07-0.846,1.138
		c-0.21,0.208-0.727,0.942-0.538,1.462c0.036,0.099,0.079,0.184,0.117,0.258c0.023,0.045,0.057,0.115,0.067,0.093
		c-0.001,0.001-0.022,0.031-0.123,0.087c-0.522,0.295-0.919,1.161-0.996,1.423c-0.018,0.052-0.134,0.257-0.237,0.437
		c-0.191,0.336-0.453,0.796-0.689,1.292c-0.276,0.559-0.527,1.298-0.568,1.476c-0.09,0.379,0.02,0.536,0.213,0.655
		c0.048,0.03,0.051,0.033,0.07,0.083c-0.013,0.027-0.097,0.085-0.146,0.119l-0.094,0.066c-0.178,0.127-0.312,0.466-0.53,1.131
		c-0.035,0.107-0.065,0.199-0.083,0.249c-0.118,0.276-0.963,2.455-1.104,2.865l-0.058,0.167c-0.174,0.498-0.355,1.013-0.04,1.231
		c0.097,0.07,0.205,0.11,0.292,0.143c0.026,0.01,0.062,0.023,0.087,0.035c0,0.008,0.001,0.016,0.002,0.023
		c-0.003,0.001-0.007,0.003-0.011,0.005c-0.419,0.186-0.612,1.077-0.636,1.384c-0.009,0.132-0.141,0.521-0.256,0.863
		c-0.222,0.653-0.366,1.101-0.349,1.351c0.006,0.111-0.004,0.124-0.026,0.152c-0.071,0.091-0.141,0.199-0.141,0.446
		c0,0.146-0.061,0.454-0.12,0.752c-0.082,0.418-0.167,0.85-0.167,1.164c0,0.497,0.075,1.28,0.173,1.549
		c0.057,0.146,0.207,0.537,0.596,0.537c0.009,0,0.054-0.002,0.062-0.003c0.349-0.037,0.602-0.394,0.671-0.641
		c0.028-0.108,0.031-0.214,0.034-0.315c0.003-0.106,0.006-0.208,0.036-0.302c0.035-0.099,0.057-0.186,0.078-0.271
		c0.03-0.121,0.056-0.227,0.125-0.367c0.148-0.299,0.155-0.398,0.188-0.864c0.012-0.203,0.054-0.368,0.095-0.527
		c0.044-0.171,0.09-0.349,0.09-0.553c0-0.271,0.058-0.572,0.104-0.813l0.022-0.119c0.018-0.087,0.036-0.151,0.054-0.217
		c0.039-0.14,0.076-0.276,0.115-0.578c0.017-0.151,0.062-0.399,0.112-0.67c0.115-0.63,0.196-1.096,0.179-1.346
		c-0.015-0.201-0.013-0.37-0.008-0.476c0.139-0.097,0.344-0.275,0.401-0.512c0.015-0.063,0.06-0.131,0.107-0.202
		c0.084-0.127,0.188-0.285,0.166-0.487c-0.001-0.078,0.054-0.44,0.438-1.986l0.036-0.145c0.014-0.062,0.054-0.202,0.104-0.382
		c0.2-0.715,0.38-1.379,0.38-1.646c0-0.266,0.05-0.441,0.128-0.509c0.26-0.047,0.433-0.2,0.895-1.395
		c0.366-0.939,0.729-1.769,0.97-2.316c0.151-0.346,0.255-0.584,0.283-0.672c0.025-0.071,0.043-0.179,0.062-0.302
		c0.036-0.237,0.089-0.595,0.27-0.663c0.327-0.124,0.832-0.861,1.863-2.723c0.072-0.13,0.127-0.229,0.161-0.287l0.13-0.227
		c0.379-0.653,0.754-1.32,0.799-1.674c0.021-0.144,0.075-0.176,0.245-0.256c0.076-0.036,0.163-0.077,0.239-0.135
		c0.277-0.199,1.419-2.023,1.573-2.453c0.076-0.195,0.306-0.574,0.508-0.908c0.228-0.376,0.425-0.701,0.487-0.884l0.029-0.088
		c0.096-0.287,0.215-0.646,0.5-0.814l0.105-0.062c0.371-0.217,0.692-0.403,1.154-1.283c0.264-0.493,0.564-1.028,0.818-1.48
		c0.214-0.381,0.395-0.703,0.492-0.891c0.206-0.388,0.376-0.857,0.453-1.082c0.214-0.064,0.631-0.22,0.999-0.531
		c0.246-0.211,0.446-0.6,0.565-0.831l0.049-0.095c0.149-0.242,0.72-0.974,1.163-1.529c0.067,0.231,0.157,0.512,0.26,0.756
		c0.207,0.494,0.481,0.89,0.75,1.082c0.314,0.23,0.481,0.782,0.439,0.886c-0.366,0.41,0.022,0.973,0.167,1.182
		c0.293,0.438,1.554,1.254,1.688,1.34c0.032,0.022,0.135,0.087,0.288,0.181c0.335,0.207,0.92,0.567,1.485,0.949
		c0.266,0.183,0.514,0.366,0.761,0.549c0.349,0.259,0.71,0.526,1.114,0.782c0.899,0.574,1.595,0.913,1.929,1.075l0.098,0.048
		c0.182,0.091,0.464,0.258,0.774,0.441c0.417,0.246,0.889,0.525,1.243,0.694c0.128,0.06,0.249,0.101,0.362,0.121
		c-0.128,0.071-0.222,0.194-0.256,0.342c-0.049,0.213,0.033,0.437,0.214,0.595c0.116,0.105,0.11,0.146,0.04,0.278
		c-0.088,0.148-0.107,0.323-0.053,0.479c0.056,0.162,0.188,0.293,0.362,0.36c0.094,0.048,0.225,0.344,0.191,0.434
		c-0.222,0.364-0.136,0.649-0.02,0.833c0.077,0.111,0.105,0.258,0.101,0.284c-0.093,0.152-0.085,0.315-0.073,0.563
		c0.005,0.11,0.012,0.246,0.012,0.416c0,0.106-0.005,0.201-0.01,0.288c-0.018,0.337-0.034,0.655,0.294,0.98
		c0.28,0.282,0.59,0.414,0.817,0.511c0.058,0.024,0.109,0.047,0.157,0.07c0.121,0.059,0.283,0.203,0.414,0.318
		c0.067,0.061,0.13,0.115,0.169,0.146c0.108,0.099,1.233,0.635,1.901,0.876c0.882,0.314,1.746,0.547,2.18,0.656
		c-0.076,0.183-0.17,0.412-0.213,0.545c-0.077,0.229-0.348,0.683-0.417,0.753c-0.029,0.027-0.075,0.079-0.13,0.142
		c-0.088,0.102-0.322,0.369-0.394,0.401c-0.216,0.029-2.125,0.21-2.308,0.21c-0.141,0-0.329,0.051-0.6,0.129
		c-0.115,0.033-0.289,0.084-0.335,0.086c-0.223,0-1.283,0.394-1.488,0.641c-0.017,0.018-0.047,0.042-0.087,0.074
		c-0.191,0.158-0.588,0.487-0.918,1.012c-0.293,0.469-0.522,1.117-0.645,1.465c-0.034,0.096-0.058,0.167-0.077,0.208
		c-0.116,0.285-0.347,1.358-0.429,1.752c-0.229,0.095-0.761,0.324-1.534,0.714c-0.479,0.241-0.974,0.522-1.465,0.802
		c-0.468,0.266-0.932,0.529-1.37,0.751c-0.677,0.336-1.348,0.572-1.458,0.594c-0.541,0.106-1.311,0.333-1.912,0.812
		c-0.41,0.327-0.737,0.994-0.803,1.185c-0.038,0.106-0.073,0.221-0.11,0.339c-0.113,0.367-0.23,0.747-0.474,1.012
		c-0.438,0.466-0.937,1.58-1.202,2.436c-0.082,0.252-0.359,0.976-0.709,1.892c-0.227,0.594-0.491,1.281-0.768,2.015l-0.685,1.814
		c-0.566,1.504-1.152,3.06-1.22,3.19c-0.089,0.15-0.247,0.543-0.429,0.997c-0.185,0.461-0.464,1.157-0.558,1.271
		c-0.191,0.202-0.612,0.778-0.63,0.803c-0.061,0.083-0.064,0.194-0.009,0.281c0.054,0.087,0.155,0.128,0.258,0.111
		c0.104-0.02,0.636-0.131,0.902-0.358c0.062-0.054,0.147-0.126,0.17-0.134c0.03,0.011,0.043,0.021,0.071,0.043
		c0.054,0.041,0.136,0.104,0.29,0.129c0.001,0,0.002,0,0.004,0c-0.152,0.161-0.358,0.394-0.568,0.633
		c-0.314,0.355-0.669,0.759-0.802,0.865c-0.294,0.231-0.569,0.62-0.581,0.637c-0.047,0.066-0.058,0.151-0.031,0.229
		c0.028,0.076,0.091,0.135,0.17,0.156c0.009,0.003,0.02,0.006,0.03,0.009c-0.207,0.062-0.413,0.271-0.636,0.514l-0.069,0.073
		c-0.345,0.347-0.786,0.805-0.93,1.021c-0.124,0.186-0.119,0.384-0.069,0.546c-0.283,0.168-0.805,0.499-1.263,0.903
		c-0.348,0.296-0.671,0.772-0.819,0.99c-0.253,0.343-0.423,0.997-0.086,1.332c0.184,0.188,0.4,0.228,0.612,0.193
		c0.024-0.004,0.046-0.008,0.107-0.009l0.167,0.003c0.106,0,0.196-0.005,0.275-0.015c-0.3,0.468-0.708,1.102-1.106,1.704
		c-0.375,0.571-1.052,1.409-1.165,1.545c-0.39,0.49-0.812,0.927-0.891,0.971c-0.182-0.021-0.188-0.037-0.219-0.126
		c-0.042-0.118,0.209-0.287,0.301-0.332c0.107-0.053,0.163-0.175,0.131-0.29c-0.031-0.115-0.135-0.202-0.259-0.184
		c-0.036,0.002-0.877,0.073-1.05,0.772c-0.17,0.661,0.292,1.12,0.781,1.328c0.127,0.055,0.229,0.11,0.317,0.158
		c0.174,0.095,0.339,0.185,0.555,0.185c0.091,0,0.091,0,0.17,0.082l0.075,0.076c0.162,0.172,1.021,0.798,1.737,0.929
		c0.61,0.107,0.923-0.102,1.073-0.274c0.299-0.344,0.241-0.831,0.233-0.886c-0.017-0.119-0.117-0.21-0.237-0.215
		c-0.119,0.006-0.228,0.077-0.254,0.195c0,0.003-0.074,0.283-0.25,0.283c0,0,0,0,0,0c-0.229-0.018-0.492-0.14-0.611-0.284
		c-0.075-0.092-0.067-0.16-0.064-0.186c0.018-0.161,0.296-1.449,0.604-2.374c0.349-1.035,0.714-1.661,0.787-1.762
		c0.107-0.151,0.234-0.412,0.358-0.663c0.102-0.208,0.217-0.444,0.282-0.53c0.03-0.04,0.084-0.146,0.15-0.284
		c0.029-0.06,0.061-0.126,0.095-0.194c-0.094,0.305-0.138,0.613-0.079,0.865c0.208,0.849,0.717,0.914,0.868,0.914
		c0.01,0,0.062-0.003,0.072-0.004c0.182-0.022,0.432-0.145,0.591-0.42c0.129-0.228,0.218-0.532,0.261-0.697
		c0.145-0.101,0.33-0.329,0.33-0.837l0-0.128c0-0.251,0.001-0.524-0.023-0.894c-0.009-0.161-0.025-0.363-0.044-0.564
		c0.234,0.178,0.535,0.241,0.725,0.073c0.25-0.214,0.197-0.572,0.158-0.835c-0.008-0.052-0.016-0.103-0.021-0.153
		c-0.012-0.1,0.011-0.513,0.028-0.814c0.013-0.226,0.021-0.397,0.026-0.527c0.2,0.118,0.47,0.144,0.634-0.021
		c0.181-0.184,0.193-0.503,0.19-0.867c0-0.196,0.186-1.279,0.415-1.62c0.106-0.162,0.219-0.381,0.318-0.59
		c0.018,0.011,0.038,0.021,0.06,0.027c0.106,0.029,0.219-0.007,0.28-0.099c0.009-0.014,0.232-0.341,0.34-0.597
		c0.029-0.065,0.051-0.126,0.072-0.183c0.017-0.048,0.041-0.113,0.062-0.124c0.303-0.045,0.512-0.307,0.56-0.705l0.009-0.122
		c0.021-0.315,0.065-0.97,0.419-1.884c0.424-1.083,1.717-4.868,1.987-5.993c0.247-1.057,0.376-2.02,0.376-2.425
		c0-0.573,0.142-1.271,0.272-1.355c0.06-0.034,0.113-0.061,0.158-0.079c-0.004,0.094,0.011,0.2,0.079,0.303
		c0.08,0.118,0.212,0.197,0.424,0.239c0.142,0.029,0.302,0.062,0.515,0.062c0.434,0,0.989-0.141,1.799-0.456
		c0.586-0.226,1.503-0.54,2.156-0.683c0.63-0.142,1.136-0.196,1.426-0.218c-0.047,0.762-0.176,2.985-0.249,5.527
		c-0.03,0.897-0.032,1.893-0.033,2.854c-0.001,0.545-0.002,1.07-0.008,1.542c-0.02,1.348-0.056,2.373-0.073,2.878
		c-0.007,0.188-0.011,0.306-0.011,0.344c0,0.034-0.002,0.109-0.005,0.226c-0.018,0.623-0.064,2.277-0.007,4.832
		c0.063,3.105,0.242,7.339,0.27,7.986c-0.163,0.238-0.701,1.041-1.227,2.047c-0.37,0.721-0.725,1.585-0.916,2.049
		c-0.06,0.145-0.1,0.244-0.112,0.269c-0.028,0.05-0.098,0.192-0.195,0.39c-0.31,0.633-1.132,2.311-1.449,2.574
		c-0.322,0.265-0.873,1.187-1.004,2.029c-0.075,0.489,0.12,0.986,0.193,1.149c0.001,0.146-0.007,0.612-0.146,1.123
		c-0.202,0.695-0.308,1.629-0.248,2.165c0.043,0.462-0.605,6.256-0.667,6.551c-0.031,0.147-0.183,1.982-0.278,3.436
		c-0.116,1.772-0.185,3.527-0.2,4c-0.033,0.859-0.23,2.744-0.352,2.988c-0.179,0.364-0.348,1.3-0.348,1.521
		c0,0.174,0.088,0.384,0.148,0.506c-0.052,0.188-0.132,0.442-0.18,0.53c-0.114,0.186-0.057,0.33-0.027,0.383
		c0.117,0.209,0.454,0.218,0.698,0.03c0.05-0.036,0.111-0.083,0.175-0.136c-0.033,0.096-0.07,0.209-0.11,0.33
		c-0.132,0.399-0.295,0.896-0.435,1.172c-0.22,0.44-0.305,0.747-0.308,0.76c-0.023,0.085,0.001,0.175,0.062,0.238
		c0.061,0.063,0.151,0.095,0.235,0.07c-0.011,0.089-0.035,0.154-0.067,0.189c-0.091,0.087-0.15,0.234-0.264,0.532
		c-0.077,0.202-0.172,0.454-0.255,0.568c-0.139,0.199-0.362,0.578-0.286,0.869c0.032,0.121,0.11,0.218,0.221,0.271
		c0.019,0.009,0.039,0.018,0.059,0.024c-0.22,0.226-0.476,0.518-0.703,0.853c-0.446,0.662-0.722,1.547-0.767,1.782l-0.016,0.088
		c-0.081,0.455-0.192,1.077,0.333,1.207c0.062,0.016,0.132,0.023,0.209,0.023c0.078,0,0.342-0.011,0.533-0.143
		c-0.292,0.789-0.925,2.36-1.586,3.638c-0.441,0.845-1.111,1.667-1.188,1.742c-0.005,0.002-0.029,0.009-0.071,0.009
		c-0.168,0-0.328-0.085-0.345-0.122c-0.008-0.069,0.114-0.284,0.247-0.434c0.079-0.09,0.083-0.224,0.01-0.318
		c-0.073-0.096-0.203-0.124-0.31-0.071c-0.129,0.065-0.775,0.414-0.775,0.916c-0.001,0.476,0.09,0.935,1.206,1.326
		c0.559,0.191,0.919,0.21,1.125,0.196c0.078,0.117,0.208,0.232,0.411,0.286c0.186,0.052,1.145,0.309,1.827,0.309
		c0,0,0.001,0,0.001,0c0.444-0.005,0.646-0.239,0.773-0.387c0.313-0.276,0.132-0.852,0.069-1.021
		c-0.045-0.121-0.175-0.184-0.297-0.153c-0.125,0.033-0.204,0.156-0.183,0.283c0.004,0.029,0.008,0.122-0.036,0.173
		c-0.048,0.057-0.162,0.065-0.225,0.065c-0.686,0-0.686-0.271-0.686-0.387c0-0.014,0.012-1.399,0.422-3.238
		c0.414-1.799,1.124-3.916,1.292-4.322c-0.068,0.251-0.116,0.57,0.043,0.976c0.242,0.616,0.41,0.998,0.789,1.083
		c0.017,0.004,0.058,0.009,0.076,0.009c0.53,0,0.673-1.113,0.71-1.594c0.027-0.388,0.04-0.853-0.148-1.476
		c-0.081-0.269-0.193-0.558-0.298-0.808c0.035,0.008,0.07,0.014,0.106,0.018c0.123,0,0.233-0.055,0.312-0.153
		c0.242-0.306,0.115-0.992,0.049-1.275c-0.072-0.297-0.159-0.622-0.225-0.864c0.259-0.024,0.37-0.201,0.386-0.352
		c0.017-0.146,0.093-0.905-0.03-1.443c-0.073-0.304-0.063-1.097-0.024-1.576c0.011,0.005,0.023,0.009,0.035,0.013
		c0.11,0.03,0.224-0.017,0.281-0.113c0.02-0.033,0.195-0.338,0.195-0.685c0-0.22,0.128-0.541,0.251-0.71
		c0.186-0.27,0.107-0.699,0.006-1.084c-0.068-0.255-0.068-0.522,0-0.776c0.092-0.354,0.358-3.951,0.358-4.24
		c0-0.34,0.349-3.762,0.441-4.199c0.075-0.319,0.218-2.609,0.167-4.586c-0.025-0.928-0.129-1.931-0.311-2.982
		c0-0.001-0.011-0.062-0.011-0.062c-0.073-0.407-0.025-1.342,0.027-1.456c0.083-0.052,0.234-0.146,0.284-0.363
		c0.012-0.004,0.025-0.007,0.04-0.012c0.076-0.021,0.18-0.051,0.3-0.115c0.054-0.031,0.098-0.06,0.135-0.085
		c0.313,0.317,1.049,0.027,1.662-0.689c0.388-0.456,0.766-1.088,1.099-1.843c0.05-0.113,0.128-0.203,0.208-0.272
		c0.089,0.798,0.315,2.699,0.644,4.582c0.247,1.433,0.542,2.599,0.914,4.075l0.178,0.707c0.437,1.754,1.205,3.905,2.165,6.06
		l0.037,0.084c0.052,0.128,1.304,3.172,3.077,5.232c1.229,1.432,2.924,2.275,3.456,2.485c0.019,0.143,0.007,0.473-0.028,0.778
		c-0.014,0.119,0.059,0.231,0.173,0.268c0.025,0.008,0.155,0.033,0.263,0.017c-0.008,0.055-0.018,0.111-0.026,0.158
		c-0.024,0.143-0.049,0.291-0.06,0.415c-0.007,0.082-0.022,0.168-0.035,0.246c-0.037,0.221-0.062,0.366,0.038,0.483
		c0.064,0.075,0.167,0.121,0.292,0.078c-0.008,0.092,0.003,0.185,0.067,0.265c0.074,0.091,0.249,0.114,0.339,0.1
		c-0.046,0.157-0.072,0.362-0.002,0.486c0.069,0.124,0.292,0.165,0.409,0.083c0.014-0.01,0.028-0.021,0.041-0.032
		c0.008,0.08,0.019,0.166,0.031,0.258c0.014,0.104,0.029,0.217,0.041,0.341c0.02,0.23,0.097,0.616,0.389,0.616
		c0.044,0,0.093-0.009,0.14-0.035c0.001,0.02,0.004,0.039,0.009,0.058c0.037,0.181,0.218,0.303,0.404,0.254
		c0,0.234,0.022,0.51,0.106,0.656c0.045,0.072,0.172,0.156,0.258,0.156c0.122,0,0.197-0.073,0.252-0.142
		c0.012,0.005,0.017,0.012,0.02,0.022l0.019,0.065c0.018,0.062,0.052,0.178,0.041,0.21c-0.015,0.012-0.356,0.299-0.263,0.557
		c0.036,0.1,0.146,0.176,0.252,0.176c0.085,0,0.155-0.039,0.197-0.066c0.065-0.042,0.131-0.1,0.197-0.157
		c0.047-0.042,0.127-0.116,0.189-0.093l0.019,0.101c0.022,0.112,0.034,0.169-0.03,0.366c-0.104,0.306-0.257,0.636-0.258,0.639
		c-0.057,0.123-0.006,0.269,0.115,0.329c0.12,0.06,0.268,0.014,0.332-0.105c0.097-0.18,0.216-0.384,0.309-0.528
		c0.04,0.188,0.073,0.396,0.073,0.398c0.02,0.121,0.125,0.21,0.247,0.21c0.15,0,0.432-0.094,0.536-0.45
		c0.032-0.113,0.04-0.091,0.192-0.024c0.137,0.062,0.153,0.113,0.174,0.205c0.083,0.608,0.162,0.724,0.208,0.79
		c0.042,0.053,0.113,0.14,0.243,0.14c0.091,0,0.201-0.082,0.245-0.161c0.014-0.025,0.029-0.054,0.068-0.092
		c0.137-0.134,0.234-0.302,0.305-0.425c0.026-0.045,0.049-0.086,0.068-0.112c0.01-0.013,0.049-0.038,0.11-0.03
		c0.051,0.025,0.107,0.048,0.161,0.07c0.059,0.024,0.147,0.061,0.156,0.062c0.063,0.119,0.243,0.254,0.536,0.4
		c0.073,0.036,0.16,0.033,0.233-0.005c0.072-0.04,0.12-0.113,0.127-0.195c0-0.003,0-0.006,0.001-0.009
		c0.074,0.118,0.191,0.22,0.345,0.22c0.068,0,0.236-0.024,0.328-0.242c0.027-0.062,0.047-0.117,0.062-0.167
		c0.082,0.059,0.218,0.065,0.3,0.023c0.157-0.077,0.265-0.244,0.317-0.414c0.019,0.033,0.041,0.072,0.066,0.119
		c0.008,0.104,0.086,0.185,0.189,0.212c0.057,0.015,0.12,0.007,0.174-0.021c0.066-0.029,0.117-0.092,0.142-0.162
		c0.034-0.064,0.062-0.115,0.086-0.156c0.038,0.163,0.148,0.341,0.31,0.421c0.082,0.044,0.22,0.036,0.302-0.022
		c0.014,0.05,0.034,0.104,0.06,0.163c0.093,0.222,0.262,0.246,0.33,0.246c0.153,0,0.27-0.101,0.345-0.221
		c0,0.003,0.001,0.006,0.001,0.01c0.008,0.082,0.056,0.155,0.127,0.195c0.073,0.039,0.16,0.042,0.233,0.005
		c0.292-0.146,0.473-0.281,0.521-0.382c0.023-0.021,0.112-0.057,0.17-0.081c0.054-0.022,0.11-0.045,0.186-0.077
		c0.037,0,0.076,0.024,0.083,0.034c0.021,0.029,0.044,0.07,0.07,0.115c0.071,0.123,0.168,0.291,0.302,0.422
		c0.042,0.041,0.057,0.069,0.071,0.095c0.044,0.079,0.154,0.161,0.245,0.161c0.129,0,0.2-0.087,0.255-0.156
		c0.034-0.05,0.112-0.165,0.192-0.755c0.024-0.11,0.041-0.161,0.173-0.222c0.162-0.07,0.164-0.094,0.198,0.025
		c0.104,0.354,0.385,0.447,0.535,0.447c0.123,0,0.228-0.089,0.247-0.21c0-0.002,0.033-0.211,0.073-0.398
		c0.093,0.145,0.212,0.349,0.309,0.528c0.064,0.119,0.213,0.165,0.332,0.105c0.121-0.061,0.172-0.206,0.115-0.329
		c-0.001-0.003-0.155-0.333-0.257-0.636c-0.065-0.2-0.054-0.257-0.031-0.369l0.049-0.13c0.032,0.01,0.111,0.08,0.159,0.122
		c0.065,0.058,0.131,0.115,0.194,0.155c0.045,0.029,0.114,0.068,0.2,0.068c0.105,0,0.216-0.076,0.252-0.176
		c0.093-0.258-0.249-0.545-0.263-0.556c-0.012-0.033,0.022-0.148,0.041-0.211l0.021-0.087c0.001,0,0.005-0.002,0.015-0.003
		c0.041,0.053,0.118,0.144,0.254,0.144c0.089,0,0.218-0.087,0.263-0.164c0.082-0.141,0.102-0.41,0.102-0.648
		c0.185,0.048,0.368-0.076,0.4-0.237c0.007-0.025,0.011-0.05,0.012-0.075c0.047,0.027,0.096,0.036,0.141,0.036
		c0.292,0,0.369-0.386,0.389-0.614c0.012-0.126,0.027-0.239,0.041-0.343c0.013-0.092,0.023-0.177,0.031-0.257
		c0.009,0.008,0.019,0.016,0.03,0.023c0.115,0.092,0.348,0.054,0.42-0.075c0.07-0.124,0.044-0.329-0.002-0.486
		c0.091,0.015,0.267-0.009,0.339-0.1c0.064-0.08,0.076-0.173,0.067-0.265c0.128,0.044,0.229-0.003,0.292-0.078
		c0.099-0.117,0.075-0.263,0.038-0.483c-0.013-0.078-0.028-0.164-0.035-0.243c-0.01-0.127-0.035-0.275-0.06-0.418
		c-0.008-0.047-0.018-0.103-0.025-0.158c0.108,0.016,0.237-0.009,0.263-0.017c0.115-0.036,0.188-0.148,0.173-0.268
		c-0.036-0.306-0.047-0.636-0.028-0.778c0.533-0.211,2.227-1.055,3.456-2.485c1.773-2.061,3.025-5.104,3.076-5.23l0.038-0.086
		c0.959-2.154,1.728-4.306,2.165-6.06l0.178-0.707c0.373-1.477,0.667-2.643,0.914-4.074c0.329-1.882,0.555-3.781,0.645-4.58
		c0.081,0.071,0.162,0.166,0.215,0.286c0.326,0.738,0.704,1.37,1.092,1.827c0.6,0.699,1.256,1.052,1.661,0.688
		c0.038,0.025,0.083,0.055,0.14,0.088c0.116,0.062,0.22,0.092,0.296,0.113c0.014,0.005,0.027,0.008,0.039,0.011
		c0.044,0.198,0.177,0.296,0.294,0.372c0.048,0.23,0.085,1.068,0.017,1.448c0,0-0.011,0.062-0.011,0.062
		c-0.182,1.052-0.286,2.055-0.311,2.982c-0.052,1.977,0.092,4.267,0.166,4.581c0.094,0.442,0.442,3.864,0.442,4.204
		c0,0.289,0.266,3.887,0.358,4.242c0.068,0.252,0.068,0.52,0,0.775c-0.101,0.384-0.179,0.813,0.011,1.089
		c0.119,0.163,0.247,0.484,0.247,0.704c0,0.347,0.175,0.651,0.195,0.685c0.057,0.097,0.169,0.144,0.281,0.113
		c0.013-0.004,0.025-0.009,0.037-0.014c0.037,0.469,0.047,1.271-0.027,1.58c-0.123,0.535-0.046,1.294-0.03,1.438
		c0.016,0.153,0.127,0.33,0.386,0.354c-0.066,0.242-0.154,0.568-0.226,0.866c-0.065,0.281-0.192,0.968,0.05,1.273
		c0.077,0.097,0.185,0.151,0.346,0.151c0.003,0,0.007,0,0.011-0.001c0.019-0.002,0.039-0.005,0.059-0.009
		c-0.105,0.249-0.216,0.535-0.296,0.802c-0.188,0.623-0.175,1.088-0.147,1.478c0.037,0.479,0.18,1.592,0.71,1.592
		c0.019,0,0.061-0.005,0.079-0.009c0.376-0.085,0.544-0.467,0.786-1.084c0.155-0.395,0.114-0.708,0.048-0.956
		c0.195,0.479,0.883,2.544,1.287,4.303c0.411,1.84,0.422,3.226,0.422,3.239c0,0.116,0,0.387-0.686,0.387
		c-0.063,0-0.177-0.009-0.225-0.065c-0.044-0.051-0.041-0.144-0.037-0.169c0.024-0.128-0.053-0.253-0.179-0.288
		c-0.124-0.034-0.257,0.032-0.301,0.154c-0.063,0.169-0.245,0.744,0.1,1.055c0.097,0.113,0.298,0.348,0.741,0.353
		c0.001,0,0.04,0,0.042,0c0.642,0,1.602-0.257,1.785-0.308c0.205-0.054,0.336-0.17,0.414-0.287c0.199,0.014,0.565-0.005,1.127-0.196
		c1.113-0.392,1.204-0.851,1.203-1.352c0-0.477-0.646-0.825-0.775-0.891c-0.106-0.053-0.237-0.024-0.311,0.071
		c-0.073,0.095-0.068,0.229,0.011,0.318c0.132,0.149,0.254,0.364,0.248,0.426c-0.019,0.045-0.179,0.13-0.347,0.13
		c-0.031,0-0.053-0.003-0.051,0.003c-0.131-0.128-0.778-0.931-1.208-1.753c-0.66-1.276-1.293-2.845-1.586-3.638
		c0.195,0.131,0.455,0.142,0.532,0.142c0.077,0,0.147-0.008,0.208-0.023c0.525-0.13,0.414-0.752,0.333-1.207l-0.016-0.093
		c-0.045-0.23-0.32-1.115-0.767-1.778c-0.227-0.334-0.482-0.626-0.702-0.852c0.021-0.007,0.04-0.016,0.058-0.024
		c0.111-0.054,0.19-0.15,0.222-0.271c0.076-0.291-0.147-0.67-0.288-0.871c-0.081-0.112-0.176-0.364-0.253-0.566
		c-0.114-0.298-0.172-0.445-0.252-0.52c-0.041-0.045-0.067-0.112-0.079-0.202c0.085,0.022,0.174-0.006,0.235-0.068
		c0.062-0.063,0.086-0.155,0.062-0.24c-0.003-0.013-0.088-0.319-0.309-0.762c-0.139-0.273-0.302-0.771-0.434-1.17
		c-0.04-0.121-0.077-0.234-0.11-0.329c0.062,0.05,0.121,0.096,0.168,0.13c0.259,0.197,0.589,0.184,0.705-0.025
		c0.03-0.053,0.087-0.197-0.021-0.372c-0.053-0.098-0.133-0.353-0.186-0.541c0.06-0.122,0.148-0.332,0.148-0.506
		c0-0.221-0.169-1.156-0.348-1.521c-0.121-0.243-0.318-2.128-0.351-2.985c-0.015-0.475-0.084-2.229-0.2-4.002
		c-0.096-1.453-0.248-3.288-0.279-3.44c-0.061-0.29-0.709-6.084-0.667-6.541c0.061-0.541-0.045-1.475-0.246-2.166
		c-0.14-0.514-0.149-0.98-0.147-1.127c0.073-0.163,0.268-0.66,0.193-1.149c-0.131-0.843-0.683-1.765-1.003-2.028
		c-0.318-0.265-1.14-1.942-1.45-2.575c-0.097-0.197-0.167-0.34-0.191-0.383c-0.016-0.031-0.056-0.131-0.115-0.275
		c-0.191-0.464-0.546-1.328-0.917-2.051c-0.525-1.004-1.063-1.807-1.226-2.045c0.028-0.647,0.207-4.881,0.27-7.985
		c0.058-2.556,0.011-4.21-0.007-4.833c-0.003-0.116-0.005-0.191-0.005-0.226c0-0.038-0.004-0.155-0.011-0.344
		c-0.018-0.505-0.053-1.53-0.073-2.877c-0.006-0.473-0.007-0.998-0.008-1.543c-0.001-0.962-0.003-1.957-0.033-2.853
		c-0.073-2.544-0.202-4.768-0.249-5.529c0.29,0.021,0.796,0.076,1.427,0.218c0.652,0.143,1.569,0.457,2.154,0.683
		c1.207,0.47,1.822,0.497,2.345,0.387c0.182-0.035,0.314-0.114,0.394-0.232c0.066-0.1,0.082-0.203,0.077-0.304
		c0.044,0.019,0.097,0.044,0.156,0.078c0.134,0.086,0.275,0.784,0.275,1.357c0,0.405,0.129,1.368,0.376,2.427
		c0.27,1.123,1.563,4.908,1.986,5.99c0.354,0.915,0.398,1.569,0.419,1.885l0.01,0.127c0.046,0.394,0.255,0.655,0.565,0.695
		c0.014,0.016,0.038,0.081,0.055,0.129c0.021,0.057,0.042,0.117,0.069,0.178c0.111,0.261,0.333,0.588,0.343,0.602
		c0.062,0.092,0.176,0.129,0.28,0.099c0.021-0.007,0.042-0.017,0.06-0.027c0.1,0.209,0.213,0.429,0.32,0.591
		c0.228,0.34,0.413,1.423,0.413,1.673c-0.003,0.311,0.009,0.63,0.19,0.813c0.165,0.165,0.434,0.141,0.634,0.021
		c0.005,0.13,0.014,0.302,0.026,0.527c0.017,0.302,0.04,0.715,0.027,0.821c-0.004,0.044-0.012,0.095-0.02,0.146
		c-0.039,0.263-0.092,0.621,0.156,0.833c0.197,0.172,0.496,0.105,0.727-0.07c-0.019,0.199-0.035,0.401-0.044,0.562
		c-0.025,0.371-0.024,0.645-0.023,0.896l0,0.128c0,0.508,0.185,0.736,0.33,0.837c0.042,0.165,0.131,0.47,0.262,0.698
		c0.158,0.274,0.409,0.396,0.596,0.42c0.008,0.001,0.058,0.003,0.066,0.003c0.151,0,0.66-0.065,0.868-0.916
		c0.06-0.251,0.015-0.559-0.079-0.862c0.034,0.068,0.066,0.135,0.094,0.193c0.066,0.138,0.121,0.244,0.15,0.283
		c0.064,0.087,0.18,0.323,0.282,0.531c0.124,0.251,0.251,0.512,0.359,0.665c0.071,0.099,0.437,0.725,0.785,1.759
		c0.308,0.926,0.586,2.214,0.604,2.378c0.002,0.022,0.011,0.091-0.064,0.183c-0.119,0.145-0.382,0.267-0.624,0.284
		c-0.166,0-0.237-0.282-0.237-0.283c-0.027-0.118-0.143-0.192-0.254-0.195c-0.121,0.005-0.221,0.096-0.237,0.215
		c-0.008,0.055-0.066,0.542,0.233,0.887c0.15,0.172,0.46,0.383,1.074,0.273c0.715-0.131,1.575-0.757,1.729-0.921l0.083-0.084
		c0.08-0.082,0.08-0.082,0.17-0.082c0.215,0,0.38-0.09,0.555-0.185c0.088-0.048,0.189-0.104,0.316-0.157
		c0.489-0.209,0.952-0.668,0.782-1.326c-0.173-0.702-1.015-0.773-1.05-0.775c-0.128-0.017-0.228,0.068-0.259,0.184
		c-0.032,0.115,0.024,0.237,0.131,0.29c0.091,0.045,0.342,0.214,0.301,0.332c-0.031,0.089-0.037,0.105-0.169,0.129
		c-0.129-0.047-0.551-0.483-0.945-0.979c-0.109-0.131-0.786-0.969-1.162-1.541c-0.397-0.602-0.806-1.234-1.105-1.703
		c0.076,0.01,0.167,0.015,0.275,0.015l0.2-0.004c0.025,0,0.049,0.005,0.074,0.01c0.213,0.035,0.428-0.006,0.609-0.19
		c0.34-0.338,0.17-0.992-0.11-1.373c-0.122-0.18-0.445-0.656-0.79-0.949c-0.46-0.406-0.983-0.738-1.266-0.906
		c0.05-0.162,0.055-0.36-0.069-0.546c-0.145-0.216-0.585-0.674-0.928-1.019l-0.071-0.075c-0.223-0.243-0.429-0.451-0.636-0.514
		c0.01-0.003,0.021-0.006,0.03-0.009c0.079-0.021,0.142-0.08,0.169-0.157c0.027-0.076,0.016-0.161-0.031-0.228
		c-0.012-0.017-0.287-0.405-0.579-0.636c-0.134-0.107-0.49-0.511-0.804-0.866c-0.211-0.239-0.417-0.474-0.568-0.633
		c0.001,0,0.002,0,0.003,0c0.154-0.025,0.236-0.088,0.29-0.129c0.028-0.022,0.042-0.032,0.064-0.043
		c0.03,0.008,0.115,0.08,0.218,0.168c0.226,0.193,0.757,0.305,0.861,0.324c0.101,0.02,0.204-0.024,0.258-0.111
		c0.055-0.087,0.052-0.198-0.009-0.281c-0.018-0.024-0.439-0.601-0.632-0.805c-0.092-0.111-0.371-0.808-0.556-1.269
		c-0.182-0.454-0.34-0.847-0.424-0.988c-0.072-0.14-0.658-1.695-1.225-3.199l-0.685-1.813c-0.277-0.734-0.541-1.422-0.768-2.016
		c-0.351-0.916-0.627-1.64-0.708-1.889c-0.266-0.858-0.765-1.973-1.201-2.438c-0.246-0.266-0.362-0.646-0.476-1.013
		c-0.037-0.118-0.072-0.232-0.109-0.337c-0.067-0.192-0.394-0.859-0.804-1.187c-0.601-0.479-1.372-0.706-1.914-0.812
		c-0.109-0.021-0.779-0.258-1.455-0.593c-0.439-0.223-0.903-0.486-1.371-0.752c-0.491-0.279-0.986-0.561-1.465-0.803
		c-0.773-0.389-1.304-0.618-1.534-0.713c-0.083-0.394-0.313-1.468-0.433-1.76c-0.015-0.033-0.04-0.104-0.073-0.2
		c-0.123-0.348-0.352-0.996-0.645-1.465c-0.33-0.524-0.727-0.854-0.918-1.012c-0.04-0.032-0.07-0.057-0.081-0.066
		c-0.211-0.255-1.271-0.648-1.492-0.648c-0.049-0.002-0.223-0.053-0.337-0.086c-0.271-0.078-0.459-0.129-0.6-0.129
		c-0.183,0-2.091-0.181-2.289-0.205c-0.091-0.037-0.325-0.305-0.413-0.406c-0.055-0.062-0.101-0.114-0.129-0.142
		c-0.07-0.07-0.341-0.524-0.418-0.751c-0.043-0.134-0.138-0.364-0.214-0.547c0.435-0.109,1.299-0.342,2.182-0.656
		c0.667-0.241,1.792-0.777,1.886-0.864c0.053-0.042,0.116-0.097,0.183-0.157c0.131-0.115,0.293-0.26,0.417-0.319
		c0.044-0.022,0.096-0.045,0.154-0.069c0.227-0.097,0.538-0.229,0.815-0.509c0.33-0.327,0.313-0.646,0.296-0.982
		c-0.005-0.087-0.01-0.182-0.01-0.288c0-0.17,0.007-0.306,0.012-0.416c0.012-0.248,0.02-0.411-0.067-0.551
		c-0.011-0.039,0.018-0.186,0.099-0.305c0.111-0.176,0.198-0.461-0.025-0.826c-0.032-0.089,0.099-0.385,0.194-0.434
		c0.173-0.066,0.304-0.197,0.36-0.359c0.055-0.156,0.035-0.331-0.047-0.47c-0.076-0.143-0.082-0.183,0.03-0.284
		c0.185-0.162,0.267-0.386,0.218-0.599c-0.033-0.146-0.126-0.269-0.258-0.342c0.113-0.021,0.235-0.062,0.365-0.122
		c0.353-0.168,0.825-0.447,1.241-0.693c0.31-0.184,0.592-0.351,0.773-0.44l0.099-0.049c0.334-0.162,1.03-0.501,1.928-1.075
		c0.404-0.256,0.766-0.523,1.115-0.782c0.247-0.183,0.495-0.366,0.76-0.548c0.565-0.383,1.15-0.743,1.486-0.95
		c0.153-0.094,0.256-0.158,0.279-0.175c0.143-0.092,1.403-0.908,1.695-1.344c0.146-0.211,0.534-0.773,0.178-1.171
		c-0.051-0.116,0.116-0.668,0.427-0.896c0.271-0.194,0.546-0.59,0.751-1.083c0.104-0.245,0.194-0.524,0.261-0.757
		c0.443,0.556,1.013,1.285,1.158,1.521l0.054,0.103c0.119,0.231,0.319,0.62,0.566,0.831c0.367,0.312,0.784,0.467,0.998,0.531
		c0.077,0.225,0.247,0.694,0.452,1.08c0.099,0.189,0.279,0.512,0.493,0.893c0.253,0.452,0.554,0.987,0.817,1.479
		c0.463,0.882,0.784,1.068,1.155,1.285l0.106,0.062c0.284,0.169,0.403,0.527,0.499,0.814l0.029,0.087
		c0.062,0.184,0.259,0.509,0.487,0.885c0.202,0.334,0.432,0.713,0.505,0.901c0.156,0.437,1.298,2.261,1.57,2.456
		c0.082,0.062,0.168,0.103,0.245,0.139c0.17,0.08,0.225,0.112,0.245,0.253c0.046,0.356,0.42,1.023,0.8,1.677l0.132,0.229
		c0.032,0.055,0.087,0.154,0.159,0.284c1.031,1.861,1.536,2.599,1.863,2.724c0.18,0.067,0.234,0.425,0.27,0.662
		c0.019,0.123,0.037,0.23,0.06,0.298c0.03,0.092,0.133,0.33,0.285,0.676c0.241,0.548,0.604,1.377,0.97,2.315
		c0.462,1.195,0.635,1.349,0.875,1.382c0.099,0.081,0.148,0.257,0.148,0.522c0,0.267,0.18,0.931,0.38,1.646
		c0.05,0.18,0.089,0.319,0.104,0.385l0.035,0.142c0.384,1.546,0.439,1.908,0.438,1.98c-0.023,0.208,0.082,0.366,0.166,0.493
		c0.047,0.071,0.092,0.139,0.107,0.203c0.058,0.236,0.262,0.414,0.401,0.511c0.004,0.105,0.007,0.274-0.008,0.477
		C121.008,66.545,121.089,67.011,121.204,67.641z M94.167,29.742c0.228,0.187,1.033,0.842,1.307,1.047
		c0.055,0.042,0.24,0.271,0.402,0.475c0.376,0.468,0.891,1.108,1.384,1.504C97.465,32.924,97.731,33,98.077,33
		c0.072,0,0.135-0.003,0.202-0.015c0.215,0.056,0.276,0.114,0.307,0.187c0.044,0.124,0.203,0.308,0.809,0.976
		c0.217,0.237,0.449,0.493,0.653,0.727c0.209,0.235,0.42,0.533,0.498,0.646c0.036,0.263,0.147,1.025,0.251,1.265
		c0.112,0.247,0.227,0.703,0.206,0.808l-0.024,0.084c-0.064,0.231-0.138,0.446-0.336,0.53c-0.198,0.083-0.313,0.069-0.36,0.062
		c-0.12-0.104-0.433-0.332-0.887-0.332c-0.357,0-0.718,0.139-1.071,0.411l-0.429,0.327c-0.815,0.627-1.519,1.169-2.332,1.383
		c-0.816,0.214-2.791,0.968-3.598,1.281c0.007-0.081,0.02-0.16,0.039-0.218l0.034-0.097c0.075-0.212,0.168-0.477,0.039-0.791
		c-0.034-0.085-0.063-0.144-0.087-0.19c-0.042-0.084-0.043-0.085-0.034-0.196c0.005-0.047,0.012-0.089,0.019-0.129
		c0.033-0.2,0.066-0.407-0.128-0.741c-0.073-0.127-0.135-0.203-0.183-0.262c-0.016-0.02-0.03-0.034-0.036-0.04
		c0-0.002-0.002-0.021,0.01-0.088c0.063-0.332,0.181-0.95-0.117-1.405c-0.103-0.157-0.192-0.259-0.264-0.34
		c-0.096-0.109-0.117-0.135-0.129-0.256c-0.02-0.26-0.043-0.554-0.382-0.823c-0.123-0.095-0.131-0.137-0.156-0.249
		c-0.013-0.062-0.027-0.125-0.054-0.197c-0.118-0.319-0.495-0.482-0.773-0.579c-0.04-0.013-0.085-0.032-0.137-0.055
		c-0.211-0.091-0.53-0.228-0.989-0.228c-0.131,0-0.273,0.011-0.428,0.038c-0.772,0.135-1.21,0.408-1.341,0.84
		c-0.086,0.293-0.335,0.745-0.448,0.817c-0.059,0.036-0.121,0.056-0.213,0.033c-0.124-0.208-0.141-0.316-0.133-0.365l0.011-0.062
		c0.029-0.158,0.072-0.397,0.072-0.697c0-0.132-0.02-0.303-0.041-0.473c-0.019-0.149-0.049-0.4-0.037-0.455
		c0.006-0.012,0.541-1.277,0.147-2.719c-0.344-1.271-1.266-2.101-1.628-2.386c0.115-0.411,0.363-1.306,0.384-1.49l0.075-0.552
		c0.125,0.013,0.276,0.024,0.398,0.024c0.14,0,0.225-0.022,0.306-0.045c0.088-0.023,0.189-0.05,0.432-0.063l0.09-0.002
		c0.644,0,2.179,0.183,2.385,0.305c0.094,0.064,0.292,0.16,0.729,0.369l0.57,0.276c0.51,0.254,1.146,0.57,1.608,0.682
		c0.366,0.088,0.836-0.015,1.119-0.122c0.084,0.266,0.243,0.651,0.51,0.921C93.501,29.642,93.968,29.722,94.167,29.742z
		 M76.936,18.439c-0.003,0.12,0.056,0.23,0.166,0.314c-0.012,0.03-0.021,0.063-0.024,0.1c-0.001,0.009-0.001,0.019-0.001,0.027
		c-0.053,0.006-0.1,0.015-0.141,0.025c-0.187,0.057-0.24,0.202-0.229,0.31c0.006,0.062,0.033,0.116,0.072,0.162
		c-0.081,0.041-0.142,0.107-0.151,0.217c-0.008,0.101,0.029,0.17,0.086,0.218c-0.042,0.054-0.064,0.12-0.064,0.187
		c0,0.07,0.021,0.133,0.055,0.188c-0.073,0.039-0.119,0.101-0.14,0.16c-0.012,0.034-0.02,0.073-0.018,0.119
		c-0.266,0.026-0.537,0.182-0.56,0.418c-0.009,0.1,0.014,0.341,0.44,0.423c0.037,0.008,0.071,0.016,0.104,0.025
		c-0.045,0.03-0.084,0.074-0.11,0.136c-0.015,0.036-0.022,0.071-0.024,0.104c-0.037,0.021-0.073,0.052-0.104,0.099
		c-0.052-0.051-0.119-0.083-0.203-0.083c-0.092,0-0.254,0.042-0.316,0.331c-0.09-0.025-0.205-0.015-0.298,0.068
		c-0.126-0.03-0.32-0.007-0.418,0.341c-0.019,0.074-0.038,0.141-0.056,0.2c-0.019-0.061-0.039-0.131-0.058-0.208
		c-0.08-0.281-0.234-0.34-0.35-0.34c-0.023,0-0.045,0.002-0.066,0.007c-0.093-0.083-0.208-0.094-0.298-0.068
		c0-0.001,0-0.002,0-0.003c-0.06-0.285-0.224-0.328-0.316-0.328c-0.084,0-0.15,0.032-0.203,0.084
		c-0.032-0.047-0.068-0.079-0.105-0.099c-0.001-0.034-0.008-0.069-0.023-0.105c-0.025-0.062-0.065-0.105-0.11-0.136
		c0.032-0.01,0.067-0.018,0.104-0.025c0.425-0.082,0.449-0.323,0.439-0.423c-0.023-0.236-0.294-0.392-0.56-0.418
		c0.002-0.046-0.005-0.085-0.018-0.119c-0.021-0.06-0.067-0.121-0.14-0.16c0.034-0.056,0.055-0.118,0.055-0.188
		c0-0.066-0.021-0.133-0.064-0.187c0.057-0.048,0.094-0.117,0.086-0.218c-0.009-0.109-0.07-0.176-0.151-0.217
		c0.039-0.046,0.065-0.1,0.072-0.162c0.011-0.107-0.042-0.253-0.236-0.312c-0.038-0.011-0.082-0.018-0.133-0.023
		c0-0.009,0-0.019-0.001-0.027c-0.004-0.034-0.012-0.067-0.023-0.098c0.107-0.081,0.169-0.194,0.165-0.316
		c-0.002-0.068-0.035-0.296-0.371-0.361c-0.068-0.014-0.126-0.022-0.18-0.03c-0.017-0.002-0.033-0.005-0.049-0.007
		c0.056-0.013,0.116-0.022,0.177-0.027c0.361-0.031,0.44-0.194,0.442-0.325c0-0.025-0.002-0.05-0.007-0.073
		c0.234-0.017,0.298-0.181,0.298-0.279c0-0.139-0.097-0.236-0.234-0.297c0.061,0,0.131,0,0.216,0.013
		c0.086,0.012,0.156,0.017,0.213,0.017c0.304,0,0.392-0.156,0.417-0.249c0.046-0.169-0.057-0.324-0.185-0.43
		c0.183-0.015,0.29-0.139,0.31-0.27c0.136,0.053,0.257,0.08,0.359,0.08c0.22,0,0.31-0.126,0.337-0.181
		c0.028-0.053,0.079-0.194-0.037-0.36c-0.013-0.021-0.028-0.039-0.044-0.058c0.03-0.021,0.057-0.048,0.076-0.081
		c0.06-0.101,0.041-0.23-0.045-0.311c-0.005-0.005-0.055-0.05-0.137-0.11c0.024-0.03,0.041-0.063,0.045-0.099
		c0.001-0.006,0.002-0.013,0.002-0.02c0.062,0.029,0.128,0.057,0.199,0.079c0.038,0.021,0.07,0.033,0.131,0.031
		c0.044,0.002,0.089-0.009,0.127-0.029c0.073-0.022,0.142-0.051,0.205-0.081c0,0.007,0.001,0.014,0.002,0.02
		c0.005,0.035,0.021,0.068,0.045,0.099c-0.082,0.061-0.131,0.105-0.137,0.11c-0.086,0.08-0.105,0.21-0.045,0.311
		c0.02,0.033,0.045,0.061,0.076,0.08c-0.015,0.018-0.028,0.035-0.041,0.054c-0.119,0.171-0.067,0.312-0.04,0.365
		c0.028,0.055,0.117,0.181,0.337,0.181c0.102,0,0.222-0.027,0.359-0.08c0.02,0.131,0.127,0.256,0.311,0.271
		c-0.102,0.084-0.239,0.237-0.187,0.429c0.025,0.093,0.113,0.249,0.417,0.249c0.057,0,0.127-0.005,0.213-0.017
		c0.085-0.013,0.158-0.013,0.216-0.013c-0.137,0.061-0.234,0.158-0.234,0.297c0,0.099,0.064,0.263,0.298,0.279
		c-0.005,0.023-0.008,0.048-0.007,0.073c0.002,0.131,0.081,0.294,0.444,0.325c0.06,0.005,0.12,0.015,0.175,0.027
		c-0.015,0.002-0.031,0.005-0.049,0.007c-0.053,0.008-0.111,0.017-0.179,0.03C76.971,18.144,76.938,18.371,76.936,18.439z
		 M62.73,32.307c0.018,0.067-0.013,0.318-0.032,0.468c-0.021,0.17-0.041,0.341-0.041,0.473c0,0.3,0.043,0.539,0.072,0.697
		l0.01,0.058c0.008,0.054-0.008,0.162-0.179,0.394c-0.047,0-0.107-0.021-0.162-0.054c-0.117-0.075-0.366-0.527-0.453-0.822
		c-0.13-0.43-0.569-0.703-1.341-0.838c-0.697-0.124-1.146,0.072-1.417,0.189c-0.052,0.022-0.098,0.042-0.143,0.057
		c-0.273,0.095-0.649,0.258-0.768,0.577c-0.027,0.072-0.041,0.136-0.054,0.197c-0.024,0.112-0.034,0.154-0.158,0.251
		c-0.337,0.268-0.36,0.562-0.383,0.861c-0.009,0.081-0.029,0.106-0.125,0.216c-0.072,0.081-0.161,0.183-0.264,0.34
		c-0.297,0.456-0.18,1.073-0.116,1.409c0.01,0.054,0.009,0.075,0.011,0.075c-0.009,0.017-0.023,0.03-0.038,0.049
		c-0.048,0.059-0.11,0.135-0.182,0.26c-0.196,0.336-0.163,0.543-0.13,0.743c0.006,0.04,0.013,0.082,0.018,0.122
		c0.01,0.118,0.009,0.119-0.033,0.203c-0.023,0.047-0.053,0.105-0.087,0.189c-0.129,0.315-0.036,0.579,0.039,0.792l0.034,0.099
		c0.019,0.056,0.031,0.133,0.039,0.216c-0.807-0.313-2.781-1.067-3.598-1.281c-0.813-0.214-1.518-0.756-2.333-1.383l-0.427-0.326
		c-0.354-0.273-0.715-0.412-1.073-0.412c-0.453,0-0.766,0.228-0.887,0.332c-0.048,0.009-0.163,0.02-0.359-0.062
		c-0.199-0.084-0.273-0.299-0.337-0.53l-0.022-0.079c-0.022-0.109,0.092-0.565,0.206-0.816c0.102-0.235,0.213-0.999,0.249-1.261
		c0.079-0.113,0.289-0.411,0.5-0.648c0.202-0.231,0.434-0.486,0.65-0.725c0.607-0.668,0.766-0.852,0.806-0.965
		c0.034-0.083,0.096-0.142,0.328-0.188c0.049,0.003,0.112,0.006,0.185,0.006c0.345,0,0.612-0.076,0.821-0.235
		c0.489-0.393,1.003-1.033,1.379-1.501c0.163-0.203,0.347-0.433,0.401-0.474c0.275-0.206,1.081-0.861,1.309-1.048
		c0.198-0.021,0.666-0.1,0.962-0.409c0.269-0.271,0.428-0.658,0.513-0.924c0.283,0.106,0.757,0.209,1.118,0.122
		c0.463-0.111,1.099-0.428,1.609-0.682l0.569-0.276c0.436-0.209,0.635-0.305,0.727-0.368c0.208-0.123,1.743-0.306,2.387-0.306
		l0.089,0.002c0.243,0.014,0.344,0.04,0.432,0.063c0.082,0.022,0.167,0.045,0.306,0.045c0.122,0,0.273-0.012,0.398-0.024
		l0.074,0.546c0.022,0.189,0.27,1.085,0.385,1.496c-0.362,0.285-1.284,1.114-1.628,2.386C62.195,31.042,62.729,32.307,62.73,32.307z
		 M92.263,22.758l0,0.001c0,0,0,0,0,0L92.263,22.758z M103.154,145.172L103.154,145.172L103.154,145.172L103.154,145.172z"/>
</g>
</svg>
