<?xml version="1.0" encoding="iso-8859-1"?>
<!-- Generator: Adobe Illustrator 17.1.0, SVG Export Plug-In . SVG Version: 6.00 Build 0)  -->
<!DOCTYPE svg PUBLIC "-//W3C//DTD SVG 1.1//EN" "http://www.w3.org/Graphics/SVG/1.1/DTD/svg11.dtd">
<svg version="1.1" id="Capa_1" xmlns="http://www.w3.org/2000/svg" xmlns:xlink="http://www.w3.org/1999/xlink" x="0px" y="0px"
	 viewBox="0 0 150 150" style="enable-background:new 0 0 150 150;" xml:space="preserve">
<g>
	<path d="M146.109,135.527c-3.917-2.151-7.834-4.301-11.752-6.451c-8.594-8.185-22.824-21.738-38.674-36.834
		c-7.93-8.607-15.86-17.215-23.79-25.822c-5.31-5.764-10.621-11.528-15.931-17.292c-2.732-2.966-5.949-5.509-10.044-4.725
		c-1.841-1.647-3.66-3.248-5.447-4.786c-3.727-3.232-7.279-6.253-10.583-9.015c-0.03-0.025-0.059-0.049-0.089-0.075
		c-0.635-3.789-3.221-6.338-7.041-6.742C16.939,18.206,11.122,12.627,5.305,7.049C5.276,6.476,4.802,5.884,4.068,6.039
		C2.02,6.474,1.081,8.779,1.866,10.605c0.004,0.011,0.017,0.016,0.022,0.027c0.07,0.163,0.185,0.315,0.361,0.437
		c2.383,1.657,4.582,3.515,6.631,5.53c0.367,0.451,0.732,0.903,1.123,1.34c0.353,0.567,0.736,1.166,1.178,1.781
		c0.735,1.048,1.522,2.252,2.444,3.484c0.933,1.223,1.922,2.581,3.023,3.973c2.188,2.808,4.744,5.893,7.623,9.162
		c2.871,3.278,6.059,6.747,9.518,10.321c0.27,0.282,0.554,0.567,0.828,0.85c0.015,0.052,0.011,0.102,0.035,0.155
		c1.817,4.111,4.252,7.836,7.254,11.179c0.63,0.702,2.009-0.015,1.679-0.935c0.051-0.118,0.083-0.254,0.083-0.41v-1.098
		c0.425,0.4,0.845,0.799,1.277,1.2c3.996,3.655,8.252,7.287,12.634,10.911c4.372,3.635,8.812,7.324,13.207,11.059
		c4.403,3.725,8.806,7.45,13.14,11.116c4.332,3.667,8.648,7.215,12.816,10.656c4.178,3.431,8.195,6.769,12.054,9.879
		c3.855,3.112,7.501,6.055,10.866,8.771c4.625,3.713,8.696,6.996,12.09,9.704c0.028,0.043,0.039,0.089,0.075,0.131
		c2.862,3.281,4.9,6.997,6.151,11.167c0.159,0.53,0.692,0.834,1.23,0.698c2.889-0.731,5.264-2.244,7.105-4.595
		C146.693,136.611,146.727,135.867,146.109,135.527z"/>
</g>
</svg>
