<?xml version="1.0" encoding="iso-8859-1"?>
<!-- Generator: Adobe Illustrator 17.1.0, SVG Export Plug-In . SVG Version: 6.00 Build 0)  -->
<!DOCTYPE svg PUBLIC "-//W3C//DTD SVG 1.1//EN" "http://www.w3.org/Graphics/SVG/1.1/DTD/svg11.dtd">
<svg version="1.1" id="Capa_1" xmlns="http://www.w3.org/2000/svg" xmlns:xlink="http://www.w3.org/1999/xlink" x="0px" y="0px"
	 viewBox="0 0 150 150" style="enable-background:new 0 0 150 150;" xml:space="preserve">
<g>
	<path d="M9.182,69.515c0.243,1.366,0.578,2.721,0.735,4.096c0.35,3.064,0.968,6.154,0.824,9.202
		c-0.184,3.896-1.01,7.761-1.559,11.639c0.204-0.085,0.408-0.171,0.613-0.256c0.805,1.225,1.61,2.45,2.482,3.778
		c-0.352,1.133-0.767,2.467-1.251,4.022c0.596-0.477,1.046-0.837,1.179-0.943c0.31,1.81,0.646,3.769,1.033,6.029
		c0.63-0.519,0.826-0.681,0.968-0.799c0.165,0.877,0.331,1.757,0.497,2.637c0.109-0.006,0.218-0.012,0.327-0.018
		c0.171-0.69,0.342-1.381,0.513-2.071c0.163,0.006,0.326,0.012,0.489,0.018c2.495,7.547,5.538,14.592,6.143,22.202
		c0,0-0.438,1.371,0.537,1.992c0.975,0.62,10.992,0.709,11.878,0c0.886-0.709-2.109-4.201-4.334-5.159
		c-0.698-2.893-1.516-5.416-1.974-8.349c-0.465-2.976-0.673-6.007-0.776-9.021c-0.104-3.034,0.996-5.711,2.671-8.274
		c1.265-1.936,2.178-4.138,3.008-6.313c0.874-2.29,1.343-4.735,2.216-7.025c0.737-1.933,1.678-1.967,3.302-0.636
		c1.656,1.358,3.269,2.977,5.195,3.743c2.365,0.941,5.029,1.149,7.575,1.612c1.489,0.271,3.005,0.63,4.499,0.59
		c4.559-0.122,9.111-0.476,13.67-0.623c2.05-0.066,3.454,1.028,3.824,3.047c0.557,3.04,0.698,6.162,1.355,9.176
		c0.656,3.008,0.54,6.125,2.063,9.045c1.64,3.144,2.278,6.714,1.167,10.282c-0.257,0.826-0.912,1.66-1.619,2.15
		c0,0-0.829,4.157,0.117,5.103c0.946,0.945,5.91,0.591,8.628,0.355c0,0,6.855,1.418,9.573,0.591c2.719-0.827,1.3-2.482,1.064-3.427
		c-0.237-0.945-2.082-1.175-2.082-1.175c-0.36-0.7-1.615-1.011-1.757-1.753c-0.66-3.462-0.449-6.885,0.449-10.315
		c1.116-4.26,1.924-8.603,3.107-12.843c0.41-1.471,1.369-2.892,2.387-4.067c1.899-2.191,5.245-2.689,6.677-5.503
		c0.021-0.041,0.101-0.055,0.156-0.074c2.767-0.977,3.952-3.206,4.729-5.826c0.406-1.369,0.995-2.686,1.541-4.01
		c1.614-3.917,4.702-6.682,7.674-9.484c0.898-0.846,2.457-1.654,3.566-1.49c3.414,0.504,6.756,1.365,10.123-0.127
		c0.156-0.069,0.354-0.188,0.488-0.145c2.411,0.778,4.495-0.047,6.492-1.299c0.58-0.364,1.627-0.775,1.619-1.146
		c-0.036-1.655-0.05-3.445-0.684-4.922c-0.932-2.168-2.511-4.049-3.575-6.172c-0.731-1.458-0.751-3.115-0.147-4.794
		c0.51,0.176,0.84,0.286,1.166,0.404c2.248,0.809,3.859-0.485,3.634-2.812c-0.06-0.621,0.149-1.411,0.522-1.908
		c2.03-2.699,1.609-4.411-1.574-5.663c-0.624-0.245-1.375-0.286-2.055-0.239c-1.274,0.088-2.538,0.309-3.575,0.444
		c-0.684-0.963-1.06-2.029-1.79-2.401c-1.223-0.622-1.979-1.253-1.597-2.5c-2.117-0.786-4.092-1.52-6.265-2.327
		c0.493-0.259,0.746-0.391,0.999-0.524c-0.06-0.164-0.12-0.328-0.18-0.492c-1.835,0.558-3.67,1.117-5.563,1.693
		c0.042,1.128-0.023,2.279-1.791,2.161c-0.282-0.019-0.64,0.297-0.876,0.542c-1.025,1.062-2.06,1.62-3.558,0.746
		c-0.448-0.261-1.296-0.06-1.872,0.161c-1.751,0.672-3.258,1.756-5.408,1.494c-1.499-0.182-3.114,0.697-4.692,1.026
		c-3.633,0.758-7.2,0.888-10.534-1.181c-0.481-0.299-1.109-0.489-1.674-0.503c-2.365-0.056-4.735,0.042-7.099-0.049
		c-1.59-0.061-3.171-0.339-4.755-0.528c-0.794-0.095-1.582-0.248-2.378-0.307c-1.897-0.14-3.894,0.08-5.665-0.456
		c-1.467-0.444-2.997-0.323-4.077,0.027c-2.455,0.796-4.794,0.605-7.032-0.07c-7.155-2.159-14.506-3.204-21.876-4.117
		C35.456,35.2,34.228,34.629,33,33.871c-0.919-0.568-1.759-1.283-2.79-0.521c-1.189-0.306-2.547-0.729-3.559-0.312
		c-1.411,0.581-3.281-0.191-4.307,1.448c-0.042,0.066-0.33-0.002-0.498-0.037c-1.943-0.404-3.506,0.651-4.866,1.659
		c-1.567,1.162-3.096,1.772-4.933,1.348c-0.814,1.013-0.648,2.726-2.417,2.799c-0.148,0.006-0.35,0.335-0.411,0.547
		c-0.455,1.565-0.747,3.191-1.345,4.697c-1.166,2.939-0.639,6.022-0.966,9.028c-0.098,0.898-0.034,1.84,0.116,2.735
		C7.713,61.351,8.455,65.432,9.182,69.515z M84.717,114.929c0.157-0.008,0.315-0.015,0.472-0.023
		c0.252,1.82,0.644,3.635,0.718,5.462c0.075,1.866,0.433,3.83-0.659,5.857C83.975,122.276,83.407,118.624,84.717,114.929z"/>
</g>
</svg>
