<?xml version="1.0" encoding="iso-8859-1"?>
<!-- Generator: Adobe Illustrator 17.1.0, SVG Export Plug-In . SVG Version: 6.00 Build 0)  -->
<!DOCTYPE svg PUBLIC "-//W3C//DTD SVG 1.1//EN" "http://www.w3.org/Graphics/SVG/1.1/DTD/svg11.dtd">
<svg version="1.1" id="Capa_1" xmlns="http://www.w3.org/2000/svg" xmlns:xlink="http://www.w3.org/1999/xlink" x="0px" y="0px"
	 viewBox="0 0 150 150" style="enable-background:new 0 0 150 150;" xml:space="preserve">
<g>
	<path d="M7.448,92.16c0.246,0.896,0.441,1.812,0.567,2.732c0.209,1.532,0.703,2.95,1.503,4.266
		c0.246,0.405,0.549,0.781,0.742,1.208c0.096,0.212-0.003,0.51-0.007,0.769c-0.003,0.193,0.005,0.385,0.008,0.578
		c0.215-0.049,0.543-0.029,0.623-0.16c0.25-0.409,0.523-0.863,0.575-1.323c0.091-0.811,0.026-1.641,0.026-2.541
		c0.151-0.098,0.449-0.294,0.751-0.484c0.081-0.051,0.179-0.121,0.263-0.113c1.945,0.187,3.75,0.731,5.381,1.875
		c0.669,0.47,1.52,0.501,2.359,0.311c0.263-0.06,0.66,0.022,0.854,0.197c0.495,0.446,0.911,0.98,1.334,1.452
		c0.202-1.227-0.53-2.888-1.588-3.649c-1.002-0.721-2.077-1.251-3.234-1.696c-0.508-0.195-0.801-0.95-1.191-1.45
		c0.603-0.549,1.165-0.497,1.867-0.287c0.701,0.209,1.253,0.627,1.888,0.915c0.429,0.195,0.918,0.409,1.365,0.381
		c1.029-0.065,1.81,0.113,1.925,1.403c0.57-0.779,0.399-2.094-0.272-2.698c-0.61-0.549-1.203-1.072-2.044-1.351
		c-1.305-0.432-2.541-1.076-3.783-1.803c0.543,0.131,1.081,0.321,1.632,0.376c0.569,0.057,1.247,0.408,1.69-0.528
		c0.329,0.407,0.59,0.729,0.91,1.125c0.457,0.026,0.621-0.216,0.497-0.766c-0.223-0.988-0.796-1.47-1.784-1.448
		c-0.093,0.002-0.231,0.014-0.272-0.038c-0.523-0.667-1.286-0.459-1.966-0.57c-0.489-0.08-0.966-0.235-1.41-0.485
		c0.653,0.037,1.306,0.074,1.954,0.111c0.118-0.88-0.285-1.34-1.008-1.576c-1.159-0.378-4.26-1.51-5.057-2.599
		c0.729,0,1.389,0.02,2.047-0.007c0.461-0.019,0.918-0.126,1.378-0.147c0.293-0.013,0.592,0.044,0.884,0.096
		c0.353,0.062,0.697,0.2,1.051,0.221c1.107,0.067,2.223,0.18,3.323,0.099c0.479-0.035,0.897-0.613,1.395-0.738
		c0.647-0.163,0.93-0.607,1.153-1.106c0.425-0.949,0.811-1.917,1.159-2.896c0.183-0.514,0.403-0.589,0.769-0.211
		c0.518,0.534,1.016,1.087,1.528,1.628c0.474,0.5,0.874,1.164,1.457,1.44c0.539,0.255,1.085,0.491,1.425,0.936
		c0.751,0.984,1.887,1.329,2.872,1.929c0.413,0.252,0.762,0.609,1.172,0.867c0.902,0.567,1.801,1.149,2.745,1.638
		c1.221,0.632,2.449,1.284,3.741,1.733c1.338,0.465,2.761,0.684,4.139,1.04c0.544,0.141,1.085,0.324,1.595,0.558
		c0.659,0.303,1.256,0.763,1.934,0.995c0.635,0.217,1.349,0.187,2.013,0.335c0.659,0.146,1.297,0.385,1.948,0.568
		c0.448,0.126,0.918,0.186,1.352,0.346c1.147,0.422,2.282,0.875,3.416,1.33c0.402,0.161,0.776,0.49,1.181,0.522
		c0.98,0.079,1.616,0.754,2.389,1.192c0.509,0.289,1.031,0.557,1.523,0.873c0.344,0.221,0.646,0.507,0.952,0.753
		c-0.76,0.876-1.517,1.663-2.158,2.536c-0.235,0.32-0.242,0.841-0.266,1.275c-0.144,2.648,0.543,5.06,2.1,7.22
		c1.112,1.544,2.269,3.061,3.284,4.667c0.47,0.744,0.709,1.656,0.938,2.523c0.141,0.533-0.023,1.078-0.599,1.383
		c-0.965,0.511-1.216,2.196-0.868,3.101c0.084,0.218,0.357,0.364,0.509,0.51c0.512-0.855,0.953-1.59,1.393-2.326
		c0.106,0.028,0.211,0.057,0.317,0.085c-1.001,1.711-1.236,3.448-0.237,5.287c0.271-0.554,0.483-1.148,0.827-1.652
		c0.592-0.867,0.775-2.021,1.693-2.633c0.354-0.235,0.984-0.351,1.357-0.199c0.711,0.289,1.388,0.742,1.972,1.249
		c1.043,0.906,1.999,1.912,3.009,2.857c0.477,0.446,1.015,0.828,1.488,1.279c0.198,0.189,0.301,0.479,0.448,0.726
		c0.6-0.486,0.732-1.718,0.313-2.469c-0.128-0.228-0.132-0.526-0.261-0.753c-0.188-0.33-0.394-0.676-0.673-0.923
		c-0.542-0.478-1.058-0.948-1.207-1.943c0.816,0.387,1.529,0.663,2.175,1.051c0.529,0.318,0.867,0.842,1.677,0.453
		c0.595-0.285,1.896,0.6,2.258,1.252c0.103,0.187,0.317,0.313,0.48,0.466c0.072-0.216,0.212-0.435,0.204-0.648
		c-0.035-0.839-0.225-1.613-1.071-2.042c-0.147-0.075-0.325-0.202-0.372-0.344c-0.307-0.926-1.089-1.182-1.896-1.461
		c-0.425-0.147-0.804-0.434-1.195-0.673c-0.363-0.221-0.713-0.463-1.23-0.801c0.407-0.079,0.674-0.13,0.941-0.184
		c0.797-0.161,1.62-0.262,1.872-1.267c0.038-0.152,0.408-0.351,0.571-0.311c0.249,0.061,0.499,0.277,0.656,0.493
		c0.128,0.177,0.121,0.452,0.19,0.757c0.143-0.113,0.317-0.203,0.306-0.248c-0.123-0.509-0.141-1.13-0.455-1.484
		c-0.334-0.377-0.962-0.7-1.45-0.685c-0.771,0.023-1.524,0.398-2.302,0.526c-0.484,0.08-1.03,0.083-1.491-0.062
		c-0.834-0.263-1.625-0.664-2.435-1.005c-1.27-0.535-1.677-1.858-2.533-2.771c-0.048-0.051-0.079-0.126-0.099-0.196
		c-0.342-1.243-0.655-2.494-1.032-3.726c-0.234-0.765-0.566-1.5-0.883-2.326c0.114-0.074,0.278-0.252,0.469-0.291
		c0.838-0.17,1.681-0.373,2.529-0.414c0.413-0.02,0.857,0.256,1.26,0.455c0.824,0.407,1.604,0.918,2.455,1.254
		c0.416,0.165,0.969-0.05,1.425,0.056c0.683,0.159,1.322,0.499,2.003,0.671c1.18,0.299,2.377,0.532,3.568,0.784
		c0.235,0.05,0.562-0.029,0.703,0.104c0.614,0.581,1.357,0.503,2.089,0.505c1.059,0.002,2.119-0.026,3.178-0.014
		c0.712,0.008,1.424,0.1,2.134,0.077c0.301-0.009,0.587-0.265,0.896-0.322c0.984-0.183,1.976-0.326,2.966-0.484
		c0.17-0.027,0.361-0.005,0.509-0.077c1.25-0.608,2.178,0.13,3.184,0.689c0.758,0.422,1.594,0.703,2.392,1.056
		c0.388,0.171,0.861,0.131,1.155,0.576c0.069,0.104,0.64,0.013,0.86-0.15c0.404-0.299,0.696-0.194,0.958,0.111
		c0.381,0.445,0.703,0.94,1.085,1.383c0.133,0.155,0.369,0.222,0.557,0.329c-0.01-0.219,0.028-0.454-0.039-0.654
		c-0.195-0.582-0.431-1.152-0.68-1.799c0.045,0.012,0.09,0.022,0.135,0.034c0.41,0.154,0.775,0.285,1.124,0.431
		c0.267,0.112,0.496,0.096,0.715,0.009c6.733,1.488,13.644,1.762,14.187,1.328c0.833-0.667,13.5-1.667,17.167-2
		c3.667-0.333,4.333-2.438,4.333-2.438s-1,0.771-1,0c0-0.771-1.815-4.432-1.5-2.562c0.315,1.87-3.333,2.562-3.333,2.562v-1.302
		c0,0-3,1.573-2.833,1.261c0.167-0.312-1.5-1.339-1.5-1.339c0.192,1.975-2.5,1.182-2.5,1.182v-1.182c0,0-2.167,0.818-2.833,1.137
		c-0.667,0.319-0.833-1.159-0.833-1.159l-2.833,1.159l-1-0.485c-0.895,1.08-3.887,0.145-6.069-0.739
		c1.298-0.231,2.595-0.47,3.902-0.634c2.589-0.325,5.195-0.516,7.792-0.78c1.784-0.181,3.562-0.464,5.35-0.564
		c2.164-0.122,4.259-0.602,6.376-0.986c1.373-0.249,2.524-0.882,3.585-1.738c1.128-0.91,1.209-2.946,0.141-3.904
		c-0.255-0.229-0.556-0.406-0.825-0.62c-0.414-0.33-0.771-0.782-1.237-0.984c-0.675-0.291-1.461-0.646-2.138-0.547
		c-1.995,0.29-3.74-0.341-5.521-1.051c-2.296-0.915-4.624-1.754-6.946-2.601c-0.387-0.141-0.826-0.246-1.23-0.216
		c-1.302,0.096-2.131-0.699-2.985-1.471c-0.109-0.098-0.247-0.203-0.286-0.332c-0.397-1.287-1.6-1.752-2.554-2.437
		c-0.361-0.259-1.021-0.352-1.448-0.217c-0.92,0.292-1.823,0.222-2.68,0c-2.056-0.532-4.115-0.354-6.168-0.146
		c-0.881,0.089-1.729,0.485-2.599,0.716c-1.375,0.366-2.742,0.79-4.139,1.041c-1.233,0.221-2.496,0.505-3.734-0.172
		c-0.511-0.28-1.099-0.212-1.465,0.413c-0.284,0.486-0.73,0.423-1.17,0.245c-0.62-0.252-1.226-0.513-1.917-0.2
		c-0.15,0.068-0.399,0.007-0.568-0.07c-0.618-0.282-1.18-0.392-1.554,0.417c-0.618-0.543-1.204-0.896-1.866-0.146
		c-0.076,0.086-0.446-0.006-0.626-0.11c-0.612-0.352-1.199-0.746-1.796-1.125c-0.145-0.092-0.348-0.153-0.422-0.285
		c-0.271-0.486-0.529-0.938-1.216-0.764c-0.062,0.016-0.218-0.129-0.247-0.225c-0.361-1.16-1.024-2.074-2.071-2.717
		c-0.156-0.096-0.21-0.371-0.294-0.57c-0.285-0.673-0.466-1.409-1.236-1.752c-0.129-0.057-0.234-0.261-0.271-0.416
		c-0.291-1.207-1.12-2.052-1.914-2.93c-0.306-0.339-0.506-0.776-0.824-1.1c-0.628-0.64-1.319-1.217-1.958-1.847
		c-0.473-0.467-0.912-0.969-1.353-1.467c-0.402-0.453-0.771-0.937-1.19-1.374c-0.114-0.119-0.418-0.223-0.523-0.157
		c-0.593,0.373-0.84-0.042-1.121-0.425c-0.474-0.645-0.92-1.315-1.441-1.92c-0.265-0.308-0.63-0.507-1.124-0.267
		c-0.17,0.083-0.552-0.109-0.751-0.277c-0.658-0.553-1.239-1.204-1.928-1.712c-0.316-0.233-0.818-0.205-1.229-0.32
		c-0.398-0.111-0.874-0.151-1.166-0.399c-1.247-1.06-2.612-1.668-4.288-1.586c-0.445,0.022-0.928-0.248-1.355-0.462
		c-0.785-0.394-1.535-0.855-2.31-1.269c-0.455-0.244-0.884-0.286-1.388,0.016c-0.228,0.137-0.701,0.005-0.997-0.14
		c-0.812-0.397-1.576-0.893-2.389-1.289c-0.265-0.129-0.648-0.164-0.93-0.081c-0.902,0.265-1.697,0.039-2.48-0.382
		c-0.39-0.209-0.774-0.48-1.193-0.571c-0.392-0.085-0.844-0.033-1.24,0.069c-0.769,0.199-1.495,0.404-2.256-0.077
		c-0.942-0.596-1.934-0.853-2.969-0.156c-0.139,0.094-0.345,0.088-0.582,0.143c0.045-0.381,0.077-0.659,0.119-1.015
		c-0.282,0.036-0.495,0.064-0.745,0.096c1.261-1.304,0.986-2.887,0.689-4.325c-0.348-1.683-2.253-1.936-3.36-2.95
		c0.811-0.567,1.567-1.105,2.337-1.622c0.125-0.084,0.408-0.025,0.456-0.117c0.159-0.306,0.245-0.65,0.369-1.011
		c0.075,0.093,0.186,0.232,0.347,0.432c0.232-0.359,0.442-0.683,0.672-1.04c0.064,0.053,0.201,0.166,0.401,0.332
		c0.063-0.22,0.107-0.376,0.157-0.552c0.128,0.113,0.225,0.199,0.377,0.334c0.087-0.263,0.155-0.466,0.223-0.67
		c0.068-0.044,0.136-0.088,0.204-0.132c0.057,0.225,0.113,0.451,0.17,0.676c0.093-0.055,0.187-0.109,0.28-0.164
		c0.025-0.185,0.049-0.371,0.058-0.437c0.331-0.137,0.595-0.275,0.875-0.358c2.047-0.609,3.939-1.729,6.205-1.631
		c0.993,0.043,2.003-0.351,3.009-0.523c0.579-0.099,1.172-0.124,1.748-0.236c0.413-0.08,0.802-0.28,1.214-0.368
		c0.215-0.046,0.46,0.067,0.687,0.051c2.148-0.152,4.293-0.347,6.443-0.466c1.129-0.062,2.178-0.297,3.261-0.656
		c0.997-0.33,2.155-0.194,3.243-0.219c0.524-0.012,1.075,0.273,1.397-0.017c0.616,0.072,1.114,0.189,1.608,0.176
		c1.719-0.046,3.436-0.132,5.153-0.219c0.158-0.008,0.306-0.144,0.466-0.195c0.44-0.137,0.885-0.374,1.326-0.37
		c1.862,0.019,3.643-0.384,5.426-0.854c2.823-0.745,5.67-1.401,8.485-2.171c0.945-0.259,1.825-0.754,2.736-1.14
		c0.515-0.219,1.029-0.44,1.546-0.653c1.067-0.438,2.085-0.881,2.902-1.8c0.75-0.843,1.871-1.358,2.611-2.208
		c0.974-1.117,1.749-2.41,2.573-3.651c0.149-0.224,0.091-0.577,0.182-0.852c0.052-0.156,0.253-0.409,0.322-0.39
		c0.636,0.18,0.534-0.323,0.618-0.637c0.225-0.844,0.424-1.695,0.663-2.535c0.07-0.247,0.238-0.466,0.396-0.762
		c-0.134-0.078-0.281-0.163-0.423-0.246c0.131-0.961,0.347-1.922,0.364-2.886c0.012-0.687-0.191-1.396-0.408-2.059
		c-0.07-0.214-0.492-0.312-0.754-0.464c-0.104,0.22-0.208,0.44-0.311,0.661c-0.164,0.351-0.312,0.709-0.494,1.05
		c-0.215,0.403-0.494,0.668-0.478,1.278c0.021,0.821-0.392,1.74-0.861,2.458c-0.377,0.576-1.205,0.839-1.668,1.382
		c-0.476,0.557-0.864,1.102-1.652,1.259c-0.184,0.037-0.281,0.515-0.439,0.834c-0.323-0.536-0.727-0.466-1.025-0.051
		c-0.478,0.663-1.134,0.741-1.835,0.654c-0.607-0.075-0.95,0.211-1.272,0.665c-0.135,0.191-0.395,0.359-0.625,0.406
		c-0.725,0.148-1.431,0.231-2.004,0.829c-0.445,0.464-0.995,0.883-1.725,0.27c-0.421-0.354-1.342,0.037-1.715,0.584
		c-0.238,0.348-0.524,0.663-0.845,1.063c-0.144-0.226-0.196-0.301-0.242-0.38c-0.581-0.997-0.577-0.989-1.628-0.557
		c-0.454,0.186-0.916,0.432-1.389,0.471c-0.494,0.041-1.021-0.084-1.507-0.229c-0.751-0.223-1.44-0.18-2.186,0.083
		c-0.643,0.227-1.36,0.244-2.141,0.37c-0.631-0.612-1.031-0.615-2.034-0.117c-0.557,0.276-1.19,0.4-1.772,0.587
		c-0.785-1.078-1.545-1.316-2.703-0.893c-0.541,0.198-1.089,0.378-1.677,0.581c0.199-1.039-0.425-1.679-1.352-1.466
		c-0.689,0.158-1.36,0.428-2.055,0.521c-0.339,0.045-0.854-0.092-1.05-0.337c-0.466-0.583-0.974-0.564-1.58-0.393
		c-0.723,0.204-1.451,0.389-2.145,0.573c-0.407-0.778-1.441-1.363-2.143-1.246c-0.267,0.044-0.56,0.183-0.753,0.37
		c-0.699,0.675-0.89,0.707-1.607,0.122c-0.874-0.714-1.194-0.71-2.195-0.132c-0.463,0.268-0.988,0.428-1.489,0.639
		c-0.206-0.867-1.197-1.372-1.942-1.012c-0.358,0.173-0.721,0.342-1.058,0.552c-0.346,0.216-0.663,0.48-0.994,0.724
		c-0.228-0.882-0.78-1.256-1.575-0.781c-1.213,0.725-2.341,0.706-3.561,0.151c-0.06-0.027-0.315,0.268-0.404,0.45
		c-0.065,0.133,0.015,0.329-0.013,0.49c-0.011,0.066-0.136,0.113-0.263,0.209c-0.048-0.288-0.085-0.51-0.131-0.783
		c-1.267,0.4-2.5,0.754-3.706,1.185c-0.514,0.183-0.97,0.525-1.487,0.814c0.054-0.19,0.113-0.397,0.199-0.703
		c-1.866-0.806-2.665,0.703-3.707,1.644c-1.124-0.635-2.526-0.314-3.335,0.718c-0.158,0.202-0.487,0.264-0.723,0.413
		c-0.303,0.192-0.63,0.368-0.876,0.62c-0.304,0.312-0.535,0.695-0.849,1.115c-0.24-0.276-0.422-0.485-0.603-0.694
		c-0.483,0.486-0.944,0.953-1.408,1.417c-0.656,0.654-1.341,1.283-1.962,1.969c-0.316,0.349-0.521,0.8-0.805,1.251
		c-0.358-0.531-0.779-0.325-1.106,0.041c-0.52,0.583-0.979,1.221-1.464,1.835c-0.12,0.152-0.223,0.418-0.362,0.438
		c-0.965,0.14-1.215,0.884-1.449,1.756c-0.514-0.592-0.832-0.263-1.076,0.152c-0.547,0.93-1.1,1.859-1.572,2.827
		c-0.171,0.35-0.115,0.81-0.163,1.221c0.063,0.008,0.125,0.015,0.188,0.023c-0.173,0.161-0.347,0.322-0.521,0.483
		c-0.648-0.422-0.824-0.372-1.086,0.39c-0.176,0.509-0.244,1.059-0.448,1.554c-0.262,0.632-0.678,1.204-0.909,1.845
		c-0.33,0.916-0.556,1.871-0.819,2.811c-0.201,0.72-0.426,1.436-0.573,2.167c-0.1,0.5-0.142,1.028-0.106,1.536
		c0.073,1.052,0.254,2.096,0.311,3.148c0.025,0.468-0.061,0.982-0.242,1.414c-0.455,1.087-0.832,2.153-0.781,3.375
		c0.031,0.745-0.276,1.497-0.369,2.254c-0.092,0.75-0.132,1.509-0.148,2.266c-0.024,1.135-0.006,2.271-0.006,3.516
		c-0.192-0.029-0.476-0.026-0.724-0.118c-0.889-0.329-1.774-0.55-2.74-0.356c-0.39,0.079-0.82-0.063-1.221-0.014
		c-1.323,0.162-2.413,0.819-3.405,1.674c-0.297,0.256-0.622,0.482-0.944,0.708c-0.442,0.31-0.641,0.657-0.083,1.228
		c-0.779-0.273-0.991,0.145-1.072,0.635c-0.084,0.508-0.139,1.033-0.107,1.544c0.1,1.552,0.347,3.099,0.354,4.65
		C5.658,88.123,6.867,90.044,7.448,92.16z"/>
</g>
</svg>
