<?xml version="1.0" encoding="iso-8859-1"?>
<!-- Generator: Adobe Illustrator 17.1.0, SVG Export Plug-In . SVG Version: 6.00 Build 0)  -->
<!DOCTYPE svg PUBLIC "-//W3C//DTD SVG 1.1//EN" "http://www.w3.org/Graphics/SVG/1.1/DTD/svg11.dtd">
<svg version="1.1" id="Capa_1" xmlns="http://www.w3.org/2000/svg" xmlns:xlink="http://www.w3.org/1999/xlink" x="0px" y="0px"
	 viewBox="0 0 150 150" style="enable-background:new 0 0 150 150;" xml:space="preserve">
<g>
	<path d="M4.182,86.022c0.255,0.106,0.549,0.38,0.75,0.506c0.112,0.07,0.247,0.116,0.406,0.127c0,0,0.057,0.004,0.128,0.009
		c0.071,0.005,0.192,0.083,0.291,0.147c0.057,0.037,0.121,0.068,0.192,0.093c1.886,0.666,3.852,1.031,5.845,1.105
		c0.276,0.01,0.491,0.042,0.48,0.078s0.199,0.117,0.471,0.163c2.277,0.387,4.656-0.025,6.969-0.448
		c2.889-0.529,5.693-1.515,8.548-2.249c1.344-0.346,2.725-0.548,4.081-0.85c0.835-0.187,1.668-0.384,2.525-0.59
		c0.268-0.065,0.623-0.106,0.789-0.126c0.096-0.011,0.195-0.03,0.297-0.059c0.82-0.229,1.641-0.458,2.461-0.687
		c0.266-0.074,0.662-0.115,0.883-0.119c0.133-0.002,0.266-0.012,0.4-0.025c2.402-0.249,4.8-0.537,7.202-0.79
		c3.173-0.334,6.35-0.291,9.521,0.016c2.192,0.212,4.397,0.371,6.562,0.748c3.404,0.593,6.794,1.283,10.162,2.059
		c2.166,0.499,4.28,1.224,6.417,1.852c0.06,0.018,0.116,0.051,0.199,0.101c0.106,0.064,0.012,0.246-0.198,0.426
		c-1.837,1.566-2.725,3.705-3.666,5.779c-0.628,1.383-1.395,2.569-2.608,3.494c-0.084,0.064-0.159,0.141-0.228,0.225
		c-0.112,0.138-0.369,0.397-0.528,0.623c-0.033,0.047-0.064,0.096-0.093,0.147c-0.135,0.241-0.256,0.603-0.338,0.782
		s-0.235,0.43-0.3,0.588c-0.036,0.088-0.06,0.189-0.066,0.301c-0.004,0.067-0.005,0.134-0.005,0.201
		c0.001,0.111-0.029,0.421-0.07,0.694c-0.045,0.307-0.09,0.615-0.155,0.917c-0.213,0.993-0.446,1.985-0.747,2.953
		c-0.044,0.141-0.166,0.258-0.308,0.372c-0.212,0.169-0.273,0.362-0.138,0.427c0.135,0.065,0.184,0.273,0.111,0.465
		s-0.255,0.433-0.339,0.589c-0.084,0.156-0.166,0.379-0.23,0.486c-0.045,0.075-0.072,0.147-0.061,0.213
		c0.008,0.051,0.018,0.101,0.028,0.151c0.017,0.083-0.064,0.351-0.005,0.595s0.275,0.608,0.344,0.875
		c0.012,0.046,0.024,0.092,0.036,0.139c0.069,0.267,0.09,0.591,0.098,0.723c0.005,0.075,0.021,0.152,0.053,0.232
		c0.052,0.132,0.104,0.264,0.156,0.396c0.086,0.219,0.107,0.54,0.129,0.717c0.013,0.099,0.045,0.202,0.1,0.306
		c0.009,0.016,0.017,0.032,0.026,0.049c0.014,0.027,0.03,0.089,0.041,0.137c0.006,0.027,0.014,0.056,0.025,0.086
		c0.04,0.115,0.07,0.236,0.097,0.36c0.044,0.201,0.023,0.581-0.071,0.841c-0.102,0.284-0.228,0.56-0.376,0.83
		c-0.133,0.242-0.306,0.441-0.365,0.459c-0.035,0.011-0.071,0.023-0.106,0.036c-0.38,0.144-0.7,0.402-0.941,0.722
		c-0.166,0.221-0.379,0.508-0.527,0.608c-0.09,0.06-0.179,0.12-0.269,0.18c-0.122,0.082-0.102,0.26,0.04,0.307
		c0.13,0.043,0.262,0.066,0.392,0.071c0.221,0.009,0.494-0.008,0.601-0.048c0.107-0.041,0.214-0.16,0.279-0.202
		s0.329-0.145,0.597-0.21c3.129-0.759,6.491-0.208,9.661-0.011c0.037,0.002,0.071,0,0.103-0.006c0.056-0.01,0.319,0,0.595,0.02
		c0.424,0.031,0.848,0.025,1.273-0.042c0.273-0.043,0.501-0.092,0.521-0.081c0.011,0.006,0.023,0.011,0.037,0.014
		c0.48,0.119,0.959,0.239,1.439,0.358c0.083,0.021,0.148-0.016,0.182-0.072c0.06-0.099,0.027-0.252,0.013-0.324
		c-0.008-0.04-0.031-0.078-0.075-0.106c-0.157-0.1-0.314-0.201-0.471-0.301c-0.233-0.149-0.443-0.294-0.47-0.323
		c-0.027-0.029-0.071-0.098-0.114-0.142c-0.043-0.044-0.252-0.222-0.481-0.377c-0.724-0.492-1.553-0.615-2.434-0.533
		c-0.275,0.025-0.575,0.064-0.672,0.058c-0.097-0.006-0.183-0.064-0.211-0.118c-0.016-0.032-0.038-0.062-0.064-0.09
		c-0.529-0.549-1.159-1.011-1.884-1.267c-0.275-0.097-0.604-0.14-0.941-0.179c-0.274-0.032-0.677-0.195-0.864-0.398
		c-0.49-0.535-0.787-1.244-0.775-1.971c0.013-0.796-0.001-1.612-0.162-2.386c-0.157-0.756-0.185-1.506-0.095-2.227
		c0.034-0.274,0.185-0.692,0.294-0.946c0.111-0.256,0.208-0.521,0.289-0.793c0.017-0.057,0.028-0.111,0.033-0.164
		c0.01-0.092,0.099-0.368,0.242-0.604c0.472-0.782,1.12-1.464,1.926-1.993c0.477-0.313,0.852-0.778,1.287-1.159
		c0.407-0.357,0.788-0.776,1.257-1.023c0.704-0.37,1.463-0.648,2.22-0.904c2.244-0.761,4.219-1.956,5.933-3.588
		c0.11-0.105,0.223-0.207,0.336-0.308c0.188-0.168,0.375-0.083,0.408,0.192c0.089,0.749,0.13,1.441,0.36,2.063
		c0.679,1.832,0.759,3.643,0.395,5.504c-0.053,0.271-0.252,0.666-0.336,0.93c-0.068,0.214-0.089,0.452-0.051,0.699
		c0.181,1.199,0.719,2.409,1.089,3.563c0.046,0.145,0.093,0.29,0.141,0.435c0.079,0.24,0.071,0.643-0.022,0.903
		c-0.061,0.172-0.122,0.345-0.184,0.517c-0.199,0.559,0.449,1.277,1.032,1.032c0.024-0.01,0.049-0.021,0.072-0.032
		c0.04-0.018,0.175,0.164,0.322,0.398c0.41,0.657,0.924,1.245,1.606,1.719c0.008,0.006,0.017,0.011,0.025,0.016
		c0.014,0.009,0.11,0.112,0.236,0.205c0.071,0.052,0.151,0.101,0.241,0.148c0.078,0.04,0.156,0.082,0.234,0.124
		c0.129,0.07,0.391,0.288,0.605,0.463c0.28,0.229,0.577,0.425,0.89,0.57c0.251,0.116,0.593,0.251,0.746,0.348
		c0.153,0.097,0.306,0.425,0.113,0.622c-0.155,0.159-0.389,0.288-0.599,0.382c-0.252,0.113-0.276,0.297-0.011,0.372
		c0.727,0.205,1.728,0.106,2.317-0.03c0.727-0.168,2.572,0,3.914,0.222c1.342,0.222,5.032,0.002,5.983-0.278
		c0.549-0.161,1.116-0.044,1.497,0.084c0.262,0.088,0.505-0.046,0.369-0.286c-0.156-0.276-0.459-0.524-0.714-0.698
		c-0.228-0.156-0.653-0.248-0.929-0.248c-1.198,0.003-2.301-0.182-3.418-0.968c-1.062-0.747-2.581-0.807-3.825-1.34
		c-0.639-0.274-1.259-0.592-1.874-0.925c-0.243-0.131-0.465-0.265-0.5-0.292c-0.02-0.016-0.042-0.031-0.065-0.046
		c-1.726-1.109-3.131-2.653-4.056-4.475c-0.125-0.246-0.231-0.674-0.236-0.95c-0.05-2.779,0.932-5.296,2.683-7.621
		c0.827-1.099,1.57-2.331,2.025-3.619c0.394-1.115,0.453-2.396,0.421-3.598c-0.022-0.831,0.108-1.295,0.954-1.404
		c0.687-0.088,1.381-0.254,2.064-0.219c3.546,0.18,6.911-0.59,10.2-1.819c0.106-0.039,0.216-0.066,0.334-0.09
		c0.187-0.039,0.254,0.136,0.151,0.392c-0.1,0.248-0.193,0.48-0.278,0.715c-0.007,0.02-0.007,0.043-0.001,0.07
		c0.007,0.038,0.005,0.135,0.005,0.218c0,0.083,0.008,0.338,0.117,0.531c0.061,0.108,0.15,0.207,0.272,0.29
		c0.884,0.604,1.65,1.366,2.259,2.247c0.026,0.037,0.053,0.071,0.082,0.102c0.049,0.053,0.122,0.2,0.155,0.337
		c0.02,0.082,0.04,0.165,0.06,0.247c0.038,0.158,0.107,0.282,0.196,0.375c0.163,0.171,0.317,0.424,0.289,0.698
		c-0.14,1.38,0.389,2.868,1.501,3.211c0.264,0.081,0.344-0.094,0.156-0.296c-0.212-0.227-0.417-0.455-0.553-0.719
		c-0.125-0.243-0.003-0.619,0.024-0.934c0.019-0.227,0.085-0.451,0.092-0.678c0.019-0.631,0.031-1.262,0.043-1.893
		c0.005-0.276,0.034-0.509,0.064-0.522c0.018-0.008,0.036-0.016,0.053-0.026c0.04-0.024,0.075-0.04,0.103-0.049
		c0.06-0.018,0.133,0.264,0.252,0.513c0.386,0.809,0.881,1.175,1.732,1.245c0.275,0.022,0.309-0.059,0.074-0.142
		c-0.154-0.054-0.289-0.107-0.411-0.18c-0.18-0.107-0.466-0.343-0.437-0.444c0.245-0.843-0.576-1.238-0.742-1.894
		c-0.162-0.637-0.343-1.272-0.448-1.919c-0.128-0.79-0.213-1.588-0.319-2.488c-0.032-0.274,0.152-0.567,0.411-0.662
		c0.61-0.224,1.239-0.475,1.893-0.604c1.841-0.363,3.182-1.301,4.025-2.877c0.13-0.243,0.382-0.603,0.583-0.793
		c0.195-0.185,0.39-0.37,0.585-0.555c1.017-0.879,2.022-1.778,3.513-1.84c0.25-0.011,0.52,0.057,0.749-0.014
		c0.933-0.291,1.858-0.55,2.852-0.325c0.172,0.039,0.386-0.049,0.567-0.114c1.001-0.364,1.995-0.747,3-1.102
		c0.169-0.06,0.401-0.067,0.562,0.001c1.61,0.679,3.259,1.287,4.8,2.098c1.499,0.789,2.262,0.911,3.397,0.088
		c0.617-0.447,0.607-0.795,0.119-1.454c-0.13-0.175-0.16-0.423-0.211-0.756c-0.041-0.273-0.162-0.28-0.252-0.019
		c-0.038,0.11-0.074,0.214-0.11,0.319c-0.09,0.261-0.234,0.26-0.322-0.002c-0.025-0.073-0.048-0.143-0.071-0.211
		c-0.088-0.262-0.189-0.468-0.225-0.46s-0.036,0.22,0,0.474c0.036,0.254-0.068,0.272-0.297,0.118
		c-0.225-0.151-0.464-0.212-0.721-0.215c-0.276-0.004-0.496-0.172-0.496-0.448v-0.546c0-0.276-0.105-0.468-0.234-0.424
		c-0.094,0.032-0.174,0.069-0.201,0.13c-0.063,0.145-0.089,0.306-0.116,0.51c-0.036,0.274-0.227,0.338-0.424,0.144
		c-0.109-0.108-0.214-0.211-0.318-0.315c-0.196-0.194-0.411-0.319-0.478-0.28c-0.067,0.04-0.187-0.143-0.266-0.408
		c-0.052-0.173-0.105-0.35-0.163-0.541c-0.08-0.264-0.226-0.272-0.326-0.015c-0.007,0.017-0.013,0.034-0.02,0.05
		c-0.101,0.257-0.212,0.342-0.249,0.189c-0.037-0.153-0.2-0.31-0.368-0.342c-0.154-0.029-0.268-0.051-0.282-0.102
		c-0.07-0.258-0.116-0.522-0.158-0.788c-0.043-0.273-0.023-0.517,0.044-0.546c0.067-0.028-0.068-0.171-0.302-0.318
		c-0.301-0.189-0.602-0.379-0.899-0.573c-0.545-0.356-0.735-1.773-0.274-2.203c0.119-0.111,0.398-0.183,0.524-0.118
		c0.078,0.04,0.127,0.136,0.174,0.249c0.065,0.158,0.234,0.178,0.374,0.047c0.141-0.131,0.426-0.092,0.636,0.087
		c0.054,0.046,0.108,0.093,0.164,0.14c0.21,0.179,0.582,0.227,0.83,0.107c0.019-0.009,0.038-0.019,0.058-0.028
		c0.249-0.12,0.416,0.004,0.374,0.276c-0.01,0.068-0.021,0.137-0.032,0.21c-0.042,0.273,0.078,0.332,0.269,0.133
		c0.233-0.244,0.445-0.466,0.682-0.715c0.191-0.2,0.324-0.138,0.297,0.136c-0.023,0.23-0.045,0.44-0.069,0.661
		c-0.029,0.275,0.087,0.318,0.316,0.164c0.563-0.381,1.278-0.468,1.575-1.088c0.119-0.249,0.234-0.359,0.364-0.209
		c0.13,0.15,0.291,0.122,0.359-0.061c0.068-0.184,0.16-0.337,0.205-0.341c0.045-0.005,0.112,0.207,0.15,0.473
		c0.037,0.266,0.099,0.498,0.138,0.519s0.158-0.168,0.266-0.423c0.045-0.105,0.09-0.212,0.137-0.323
		c0.108-0.254,0.255-0.367,0.329-0.253s0.285,0.048,0.472-0.149s0.305-0.184,0.264,0.029s0.074,0.372,0.26,0.353
		s0.304-0.077,0.263-0.131c-0.041-0.054,0.08-0.259,0.271-0.458c0.122-0.126,0.248-0.247,0.39-0.344
		c1.068-0.725,0.996-2.862-0.158-3.481c-0.729-0.391-1.485-0.747-2.259-1.039c-0.495-0.187-1-0.547-1.591,0.008
		c-0.203,0.19-0.795-0.084-1.203-0.053c-1.323,0.101-2.66,0.357-3.801-0.629c-0.593-0.512-1.146-0.69-1.642,0.144
		c-0.098,0.165-0.361,0.334-0.544,0.33c-1.135-0.024-2.346,0.373-3.381-0.256c-0.738-0.448-1.455-0.09-2.176-0.224
		c-0.567-0.105-1.161-0.065-1.743-0.042c-0.276,0.011-0.517,0.235-0.54,0.51c-0.008,0.102-0.016,0.197-0.024,0.289
		c-0.022,0.275-0.228,0.376-0.46,0.226c-0.157-0.101-0.317-0.194-0.489-0.252c-0.263-0.088-0.655-0.143-0.855-0.01
		c-1.293,0.862-2.567,1.757-3.811,2.689c-0.321,0.24-0.612,0.519-0.9,0.804c-0.196,0.194-0.371,0.36-0.39,0.368
		c-0.012,0.005-0.023,0.01-0.035,0.016c-0.539,0.275-1.11,0.474-1.708,0.584c-1.209,0.223-2.383,0.061-3.529-0.357
		c-0.109-0.04-0.219-0.064-0.329-0.074c-0.186-0.017-0.557-0.034-0.83-0.07c-1.195-0.156-2.409-0.038-3.62,0.016
		c-0.534,0.024-1.069,0.06-1.604,0.096c-1.072,0-2.143,0.026-3.214,0.074c-0.276,0.012-0.724,0.01-1,0.003
		c-1.34-0.036-2.641,0.094-3.932,0.345c-0.806,0.074-1.612,0.155-2.417,0.24c-4.183,0.443-8.42,0.81-12.528,1.75
		c-1.118,0.151-2.242,0.294-3.34,0.552c-3.035,0.714-6.094,1.117-9.201,1.274c-2.458-0.039-4.917,0.066-7.362,0.311
		c-1.557,0.103-3.112,0.237-4.662,0.401c-0.275,0.029-0.615,0.05-0.761,0.046c-0.088-0.003-0.176-0.005-0.263-0.008
		c-0.127-0.004-0.25,0.009-0.369,0.036c-0.2,0.045-0.572,0.151-0.846,0.186c-3.871,0.487-7.722,1.164-11.56,1.87
		c-2.231,0.41-4.41,1.103-6.61,1.678c-0.047,0.012-0.093,0.03-0.138,0.05c-0.073,0.034-0.35,0.1-0.62,0.156
		c-1.519,0.314-3.01,0.968-4.44,1.461c-0.383,0.129-0.741,0.252-1.096,0.383c-2.057,0.758-4.067,1.653-6.06,2.568
		c-0.121,0.055-0.24,0.121-0.356,0.195c-0.189,0.121-0.524,0.346-0.768,0.475c-0.745,0.395-1.503,0.757-2.274,1.086
		c-0.559,0.183-1.118,0.367-1.678,0.55c-0.262,0.086-0.479,0.143-0.485,0.127c-0.005-0.016-0.223,0.04-0.485,0.126
		c-0.551,0.18-1.102,0.36-1.653,0.54c-0.262,0.086-0.47,0.174-0.463,0.196c0.007,0.022-0.203,0.094-0.473,0.156
		c-0.37,0.085-0.743,0.164-1.118,0.236c-0.101,0.019-0.197,0.051-0.288,0.092c-0.152,0.069-0.476,0.212-0.743,0.282
		c-0.663,0.175-1.339,0.349-2.021,0.503c-0.199,0.045-0.405,0.066-0.611,0.085c-0.275,0.025-0.72,0.04-0.996,0.021L6.12,85.031
		c-0.276-0.019-0.712-0.104-0.975-0.187c-0.458-0.144-0.917-0.283-1.378-0.416c-0.223-0.064-0.669,0.028-0.738,0.176
		c-0.15,0.32-0.436,0.768,0.188,1.021C3.539,85.755,3.861,85.888,4.182,86.022z M79.285,113.261c0.094,0,0.095,0.013,0.003,0.032
		s-0.168,0.02-0.169,0.001S79.191,113.261,79.285,113.261z"/>
	<path d="M141.432,74.304"/>
</g>
</svg>
