<?xml version="1.0" encoding="iso-8859-1"?>
<!-- Generator: Adobe Illustrator 17.1.0, SVG Export Plug-In . SVG Version: 6.00 Build 0)  -->
<!DOCTYPE svg PUBLIC "-//W3C//DTD SVG 1.1//EN" "http://www.w3.org/Graphics/SVG/1.1/DTD/svg11.dtd">
<svg version="1.1" id="Capa_1" xmlns="http://www.w3.org/2000/svg" xmlns:xlink="http://www.w3.org/1999/xlink" x="0px" y="0px"
	 viewBox="0 0 150 150" style="enable-background:new 0 0 150 150;" xml:space="preserve">
<g>
	<path d="M143.113,27.075c-0.461-0.344-1.023-0.657-1.58-0.747c-1.54-0.25-2.861-1.038-4.273-1.596
		c-1.252-0.495-2.457-1.109-3.716-1.583c-1.221-0.46-2.484-0.811-3.73-1.205c-0.133-0.042-0.288-0.093-0.414-0.062
		c-0.392,0.095-0.623-0.097-0.842-0.377c-0.139-0.177-0.29-0.385-0.484-0.471c-1.309-0.582-2.458-1.503-3.902-1.799
		c-1.266-0.26-2.513-0.661-3.79-0.809c-1.309-0.152-2.645-0.069-3.969-0.098c-0.164-0.004-0.357-0.019-0.484-0.106
		c-0.844-0.579-1.582-1.279-2.228-2.07c-0.281-0.345-0.506-0.733-1.032-0.745c-0.108-0.002-0.21-0.141-0.321-0.204
		c-0.198-0.112-0.396-0.228-0.605-0.318c-0.386-0.165-0.78-0.311-1.17-0.469c-0.037-0.015-0.064-0.057-0.092-0.088
		c-0.666-0.735-1.514-1.059-2.488-1.099c-0.097-0.004-0.194-0.04-0.29-0.064c-0.583-0.145-1.166-0.292-1.75-0.437
		c-0.483-0.12-0.967-0.239-1.45-0.359c-0.231,0-0.461,0-0.692,0c-0.241,0.114-0.483,0.227-0.746,0.351
		c-0.011,0.135,0.028,0.322-0.045,0.443c-0.292,0.482,0.02,0.768,0.298,1.082c0.55,0.62,0.962,1.304,1.057,2.156
		c0.032,0.292-0.075,0.384-0.328,0.438c-1.051,0.225-2.137,0.132-3.183,0.542c-0.735,0.289-1.528,0.454-2.239,0.829
		c-0.083,0.044-0.136,0.141-0.213,0.201c-0.194,0.151-0.387,0.305-0.593,0.439c-0.298,0.194-0.629,0.345-0.904,0.566
		c-0.208,0.166-0.133,0.421,0.111,0.456c0.384,0.054,0.541,0.327,0.763,0.569c0.131,0.143,0.348,0.205,0.52,0.313
		c0.423,0.266,0.843,0.536,1.261,0.81c0.027,0.017,0.035,0.081,0.033,0.122c-0.015,0.337,0.213,0.333,0.457,0.361
		c0.278,0.032,0.55,0.119,0.824,0.182c-0.044,0.036-0.088,0.072-0.131,0.108c-0.027,0.216-0.095,0.438-0.063,0.645
		c0.016,0.102,0.209,0.194,0.338,0.256c0.221,0.105,0.456,0.18,0.685,0.271c0.173,0.069,0.337,0.165,0.516,0.21
		c0.667,0.166,1.361,0.248,2.001,0.483c1.629,0.597,3.313,0.445,5.008,0.482c0.006-0.122,0.012-0.229,0.016-0.32
		c0.379,0,0.744,0,1.108,0c-0.041,0.127-0.108,0.197-0.147,0.184c-0.433-0.14-0.66,0.142-0.824,0.443
		c-0.212,0.389-0.405,0.799-0.529,1.222c-0.28,0.964-0.531,1.937-0.761,2.914c-0.283,1.204-0.614,2.406-0.78,3.628
		c-0.262,1.94-0.397,3.897-0.602,5.845c-0.07,0.672-0.161,1.343-0.29,2.006c-0.124,0.632-0.393,1.245-0.452,1.88
		c-0.161,1.741-0.717,3.339-1.769,4.708c-0.524,0.681-0.945,1.473-1.976,1.763c-0.981,0.277-1.945,0.5-2.95,0.529
		c-0.401,0.011-0.869-0.043-1.192-0.248c-0.319-0.202-0.605-0.301-0.955-0.276c-0.33,0.023-0.659,0.074-0.989,0.091
		c-0.118,0.006-0.241-0.042-0.357-0.077c-0.306-0.093-0.604-0.226-0.917-0.281c-0.479-0.083-0.971-0.094-1.452-0.172
		c-0.624-0.1-1.237-0.298-1.863-0.344c-2.166-0.161-4.318,0.012-6.457,0.375c-0.273,0.046-0.549,0.074-0.823,0.111
		c-0.005-0.024-0.009-0.047-0.014-0.071c0.188-0.069,0.376-0.137,0.565-0.206c-0.009-0.056-0.019-0.112-0.028-0.167
		c-0.186,0.014-0.376,0.007-0.557,0.045c-0.841,0.174-1.678,0.368-2.52,0.536c-0.305,0.061-0.656-0.009-0.924,0.115
		c-0.652,0.302-1.327,0.457-2.032,0.545c-1.385,0.172-2.763,0.409-4.152,0.536c-0.929,0.085-1.871,0.041-2.807,0.03
		c-1.137-0.013-2.278,0.002-3.409-0.094c-1.289-0.11-2.567-0.336-3.852-0.498c-0.614-0.077-1.24-0.075-1.847-0.186
		c-2.788-0.509-5.596-0.711-8.426-0.632c-0.354,0.01-0.719,0.083-1.001-0.246c-0.061-0.071-0.215-0.083-0.328-0.086
		c-1.223-0.033-2.446-0.061-3.67-0.083c-0.109-0.002-0.264,0.015-0.322,0.085c-0.341,0.416-0.825,0.355-1.271,0.407
		c-1.514,0.177-3.033,0.32-4.545,0.517c-1.805,0.236-3.604,0.519-5.407,0.774c-2.334,0.331-4.68,0.592-7,1.002
		c-1.542,0.273-3.063,0.728-4.393,1.612c-0.669,0.445-1.264,0.999-1.924,1.458c-1.584,1.102-3.206,2.151-4.778,3.27
		c-2.003,1.427-3.944,2.923-6.146,4.074c-1.406,0.735-2.781,1.049-4.303,0.799c-0.721-0.118-1.42-0.359-2.136-0.514
		c-0.213-0.046-0.449,0.012-0.674,0.022c0.189,0.191,0.36,0.407,0.574,0.564c0.115,0.085,0.305,0.068,0.46,0.1
		c0.123,0.026,0.245,0.058,0.359,0.086c-0.191,0.641-0.628,0.667-1.165,0.582c-0.258-0.041-0.541,0.07-0.812,0.113
		c0,0.086,0,0.173,0,0.26c0.34,0.037,0.68,0.077,1.021,0.109c0.352,0.033,0.466,0.172,0.238,0.497
		c-0.067-0.015-0.122-0.028-0.177-0.04c-0.23-0.052-0.557-0.354-0.666-0.005c-0.109,0.349,0.304,0.407,0.579,0.48
		c0.028,0.007,0.065,0.001,0.084,0.017c0.157,0.129,0.312,0.262,0.49,0.414c-0.312,0.046-0.655,0.02-0.695,0.117
		c-0.135,0.328,0.187,0.454,0.407,0.608c0.722,0.505,1.528,0.8,2.394,0.931c0.86,0.13,1.711,0.177,2.532-0.227
		c0.254-0.125,0.557-0.152,0.838-0.224c0.018,0.046,0.036,0.093,0.055,0.139c-0.313,0.153-0.634,0.294-0.936,0.466
		c-0.106,0.061-0.167,0.2-0.249,0.303c0.124,0.049,0.27,0.166,0.369,0.135c0.282-0.089,0.55-0.229,0.815-0.365
		c0.506-0.258,1.006-0.527,1.556-0.816c0.117,0.559,0.399,0.466,0.709,0.342c0.237-0.095,0.508-0.263,0.723-0.215
		c0.397,0.087,0.631-0.067,0.872-0.318c0.21-0.218,0.418-0.442,0.655-0.628c0.136-0.107,0.357-0.236,0.488-0.194
		c0.471,0.151,0.772-0.053,1.057-0.375c0.548-0.619,1.236-1.091,1.592-1.905c0.605-1.381,1.316-2.715,1.994-4.063
		c0.043-0.086,0.19-0.121,0.288-0.18c0.003,0.103,0.042,0.222,0.004,0.307c-0.555,1.216-1.157,2.412-1.666,3.647
		c-0.24,0.581-0.322,1.231-0.442,1.856c-0.059,0.306-0.062,0.627-0.051,0.94c0.005,0.147,0.062,0.363,0.165,0.421
		c0.319,0.179,0.366,0.407,0.263,0.723c-0.044,0.134-0.062,0.28-0.073,0.422c-0.041,0.567-0.035,1.14-0.119,1.7
		c-0.107,0.714-0.138,0.709,0.496,1.108c0.062-0.068,0.125-0.138,0.188-0.208c0.044-0.002,0.088-0.003,0.132-0.005
		c0.016,0.224,0.134,0.53,0.031,0.658c-0.593,0.74-0.139,1.455-0.003,2.173c0.015,0.079,0.182,0.165,0.29,0.184
		c0.381,0.07,0.521,0.308,0.37,0.662c-0.061,0.145-0.129,0.292-0.155,0.445c-0.129,0.775-0.262,1.551-0.356,2.331
		c-0.031,0.257,0.052,0.528,0.083,0.793c0.044,0,0.088,0,0.131,0.001c0.075-0.099,0.149-0.197,0.234-0.309
		c0.192,0.284,0.076,0.421-0.159,0.601c-0.147,0.113-0.177,0.38-0.259,0.578c0.189,0.033,0.402,0.137,0.562,0.083
		c0.31-0.105,0.454,0.012,0.535,0.174c-0.119,0.214-0.206,0.37-0.293,0.527c0.226,0.098,0.453,0.196,0.75,0.324
		c0.025,0.463,0.06,1.016,0.083,1.57c0.01,0.247,0.068,0.47,0.367,0.381c0.401-0.119,0.439,0.097,0.45,0.395
		c0.015,0.422,0.094,0.745,0.66,0.717c0.426-0.021,0.595,0.306,0.529,0.747c-0.037,0.248,0.001,0.507,0.001,0.76
		c0,0.22,0.041,0.454-0.016,0.659c-0.276,0.998-0.622,1.98-0.852,2.988c-0.105,0.459-0.291,0.83-0.571,1.18
		c-0.808,1.011-1.576,2.057-2.433,3.023C20.789,92,19.801,92.97,18.818,93.94c-0.46,0.455-0.742,0.954-0.84,1.604
		c-0.147,0.978-0.4,1.939-0.557,2.916c-0.135,0.838-0.312,1.694-0.258,2.528c0.043,0.66-0.065,1.39,0.344,2.005
		c0.033,0.05,0.013,0.14,0.01,0.21c-0.165,3.642-0.316,7.284-0.503,10.925c-0.07,1.366-0.19,2.732-0.354,4.09
		c-0.089,0.733-0.238,1.447,0,2.177c0.045,0.139-0.01,0.312-0.022,0.47c-0.049,0.674-0.115,1.348-0.134,2.023
		c-0.004,0.139,0.167,0.399,0.267,0.404c0.443,0.021,0.904,0.15,1.331-0.123c0.149-0.095,0.343-0.121,0.426-0.149
		c0.227,0.436,0.424,0.818,0.625,1.199c0.154,0.292,0.384,0.566,0.457,0.877c0.18,0.766,0.648,1.292,1.352,1.5
		c0.881,0.261,1.8,0.418,2.713,0.542c0.492,0.067,1.008-0.003,1.509-0.057c0.476-0.051,1.073,0.125,1.279-0.562
		c0.006-0.021,0.044-0.036,0.07-0.049c0.417-0.198,0.325-0.433,0.062-0.697c-1.24-1.245-2.472-2.497-3.72-3.735
		c-0.134-0.133-0.339-0.207-0.524-0.271c-0.326-0.112-0.664-0.191-0.993-0.294c-0.089-0.028-0.221-0.078-0.238-0.144
		c-0.097-0.365-0.176-0.735-0.24-1.108c-0.049-0.289-0.011-0.603-0.108-0.87c-0.285-0.781-0.296-1.574-0.248-2.387
		c0.053-0.903,0.056-1.81,0.085-2.715c0.052-1.637,0.011-3.286,0.19-4.909c0.171-1.549,0.579-3.071,0.87-4.607
		c0.23-1.217,0.4-2.446,0.671-3.653c0.224-0.999,0.17-2.109,1.008-2.9c0.04-0.038,0.076-0.095,0.086-0.148
		c0.135-0.76,0.619-1.178,1.316-1.444c0.491-0.187,0.954-0.452,1.416-0.706c0.338-0.186,0.653-0.413,1.037-0.659
		c-0.232-0.073-0.385-0.122-0.619-0.195c0.193-0.059,0.3-0.104,0.41-0.124c0.713-0.134,1.32-0.47,1.865-0.94
		c0.217-0.187,0.475-0.326,0.695-0.51c0.704-0.589,1.398-1.189,2.097-1.782c0.102-0.087,0.213-0.163,0.32-0.244
		c0.072,0.115,0.169,0.221,0.214,0.347c0.478,1.346,0.534,2.727,0.279,4.118c-0.233,1.273-0.53,2.534-0.759,3.808
		c-0.299,1.665-0.915,3.206-1.769,4.654c-0.191,0.324-0.301,0.556-0.032,0.683c0,0.389-0.084,0.716,0.015,0.972
		c0.371,0.957,0.769,1.907,1.382,2.744c0.084,0.115,0.17,0.259,0.289,0.312c0.619,0.273,0.83,0.885,1.088,1.401
		c1.199,2.393,2.354,4.809,3.494,7.231c0.72,1.531,1.43,3.069,2.066,4.636c0.952,2.345,1.833,4.719,2.751,7.078
		c0.066,0.171,0.149,0.374,0.288,0.471c0.358,0.25,0.33,0.574,0.262,0.923c-0.029,0.152-0.074,0.302-0.114,0.461
		c0.067,0.037,0.113,0.074,0.165,0.089c0.384,0.114,0.888-0.003,1.043,0.555c0.012,0.044,0.121,0.073,0.19,0.088
		c0.446,0.095,0.9,0.163,1.336,0.29c0.109,0.032,0.164,0.247,0.244,0.378c-0.447,0.25-0.109,0.519,0.033,0.696
		c0.563,0.701,1.101,1.45,2.063,1.668c0.124,0.028,0.244,0.091,0.357,0.153c0.912,0.504,1.936,0.526,2.929,0.674
		c0.257,0.038,0.515-0.234,0.463-0.438c-0.037-0.146-0.069-0.293-0.103-0.439c0.15,0.062,0.301,0.124,0.451,0.188
		c0.079,0.034,0.158,0.107,0.234,0.102c0.161-0.01,0.361-0.013,0.466-0.106c0.072-0.064,0.037-0.282,0.006-0.422
		c-0.034-0.152-0.134-0.288-0.177-0.439c-0.263-0.932-0.777-1.679-1.591-2.219c-0.176-0.117-0.407-0.26-0.458-0.436
		c-0.165-0.575-0.579-0.952-0.972-1.339c-0.881-0.87-1.791-1.71-2.681-2.571c-0.173-0.168-0.328-0.364-0.455-0.57
		c-0.595-0.967-1.183-1.938-1.763-2.914c-0.302-0.507-0.634-1.004-0.863-1.543c-0.322-0.76-0.554-1.557-0.835-2.334
		c-0.161-0.447-0.338-0.888-0.514-1.33c-0.484-1.215-1.007-2.416-1.445-3.647c-0.254-0.714-0.325-1.491-0.567-2.21
		c-0.336-0.994-0.783-1.95-1.133-2.939c-0.517-1.462-1.103-2.926-0.556-4.524c0.019-0.054,0.021-0.113,0.036-0.169
		c0.142-0.537,0.178-1.136,0.448-1.598c1.127-1.925,2.372-3.781,3.482-5.716c1.03-1.796,1.987-3.634,2.669-5.608
		c0.387-1.12,0.817-2.239,1.649-3.155c0.523-0.575,0.979-1.224,1.387-1.887c0.482-0.783,0.871-1.623,1.319-2.427
		c0.09-0.161,0.271-0.39,0.406-0.387c0.598,0.014,1.242-0.023,1.783,0.185c1.636,0.631,3.231,1.361,4.941,1.799
		c0.619,0.158,1.276,0.395,1.759,0.788c0.398,0.323,0.763,0.391,1.206,0.398c0.288,0.005,0.583-0.032,0.864,0.017
		c0.587,0.102,1.166,0.247,1.747,0.379c0.037,0.008,0.06,0.067,0.098,0.079c0.15,0.05,0.302,0.124,0.455,0.129
		c0.481,0.017,0.962,0.006,1.484,0.006c-0.119,0.137-0.211,0.243-0.303,0.348c0.013,0.032,0.025,0.064,0.038,0.097
		c0.487-0.054,0.973-0.109,1.507-0.168c-0.067,0.448,0.18,0.39,0.442,0.354c0.609-0.084,1.222-0.148,1.844-0.222
		c0.039,0.131,0.075,0.25,0.083,0.278c0.375,0.098,0.676,0.214,0.986,0.249c0.595,0.066,1.158,0.369,1.804,0.109
		c0.404-0.162,0.886-0.129,1.333-0.183c0.003,0.022,0.007,0.045,0.01,0.067c-0.191,0.086-0.382,0.172-0.573,0.258
		c0.016,0.062,0.032,0.124,0.048,0.187c0.758,0,1.525,0.076,2.271-0.017c1.325-0.164,2.638-0.432,3.956-0.652
		c0.124-0.021,0.253-0.019,0.38-0.022c0.202-0.004,0.408,0.022,0.604-0.012c0.194-0.034,0.377-0.126,0.564-0.193
		c0.072,0.121,0.127,0.212,0.138,0.229c0.767-0.279,1.49-0.543,2.214-0.802c0.06-0.021,0.169-0.03,0.195,0.003
		c0.242,0.298,0.486,0.113,0.738,0.027c0.181-0.062,0.369-0.099,0.575-0.153c-0.025,0.209-0.042,0.354-0.064,0.542
		c0.143-0.045,0.243-0.048,0.3-0.099c0.493-0.446,1.159-0.426,1.7-0.385c0.543,0.041,1.025,0.061,1.518-0.157
		c0.059-0.026,0.139-0.004,0.21-0.004c-0.003,0.411,0.046,0.475,0.306,0.406c0.62-0.164,0.642-0.156,0.928,0.405
		c0.091,0.18,0.167,0.367,0.251,0.55c0.598,1.305,0.643,2.737,0.942,4.11c0.364,1.669,0.487,3.397,1.265,4.962
		c0.094,0.189,0.128,0.412,0.169,0.624c0.131,0.678,0.25,1.359,0.376,2.038c0.286,1.536,0.575,3.071,0.856,4.607
		c0.014,0.077-0.026,0.165-0.043,0.247c-0.071,0.33-0.196,0.659-0.206,0.991c-0.023,0.741,0.014,1.485,0.02,2.227
		c0.01,1.104-0.072,2.217,0.039,3.311c0.219,2.154,0.272,4.282-0.027,6.444c-0.265,1.918-0.257,3.875-0.364,5.815
		c-0.033,0.602,0.049,1.226-0.084,1.803c-0.368,1.593-0.82,3.167-1.241,4.747c-0.162,0.606,0.265,1.055,0.875,0.89
		c0.357-0.097,0.765-0.163,0.871-0.682c0.088,0.531,0.215,1.064,0.054,1.488c-0.168,0.443-0.007,0.739,0.141,1.064
		c0.178,0.391,0.389,0.777,0.645,1.121c0.639,0.859,1.305,1.697,2.453,1.915c0.494,0.093,0.983,0.211,1.475,0.317
		c0.288,0,0.577,0,0.865,0c0.241-0.16,0.455-0.322,0.248-0.66c-0.042-0.069-0.044-0.213,0.001-0.271
		c0.037-0.047,0.182-0.045,0.262-0.018c0.258,0.09,0.503,0.213,0.762,0.299c0.112,0.037,0.301,0.064,0.354,0.005
		c0.078-0.088,0.091-0.257,0.086-0.39c-0.003-0.091-0.08-0.182-0.131-0.267c-0.537-0.886-1.036-1.8-1.627-2.649
		c-0.522-0.752-1.116-1.46-1.737-2.134c-0.418-0.453-0.711-0.915-0.748-1.543c-0.051-0.863-0.152-1.723-0.202-2.586
		c-0.06-1.047-0.153-2.098-0.115-3.142c0.05-1.395,0.253-2.784,0.315-4.179c0.121-2.739,0.413-5.451,1.064-8.118
		c0.04-0.166,0.109-0.326,0.177-0.484c0.29-0.67,0.693-1.314,0.85-2.013c0.187-0.831,0.171-1.709,0.229-2.567
		c0.101-1.475-0.218-2.934-0.013-4.432c0.331-2.423,0.441-4.875,0.676-7.312c0.122-1.26,0.319-2.512,0.469-3.769
		c0.056-0.469,0.072-0.942,0.11-1.413c0.01-0.122-0.007-0.289,0.063-0.356c0.36-0.339,0.745-0.651,1.147-0.994
		c0.044,0.098,0.085,0.158,0.098,0.224c0.17,0.89,0.39,1.774,0.493,2.671c0.402,3.488,1.243,6.883,2.093,10.278
		c0.237,0.945,0.693,1.832,0.687,2.842c-0.005,0.763,0.037,1.529,0.112,2.288c0.043,0.438,0.102,0.916,0.31,1.287
		c0.62,1.104,0.87,2.319,1.129,3.523c0.369,1.716,0.605,3.46,0.981,5.174c0.694,3.168,0.872,6.39,1.098,9.608
		c0.046,0.661,0.031,1.326,0.067,1.988c0.007,0.121,0.098,0.3,0.194,0.336c0.09,0.033,0.266-0.06,0.352-0.148
		c0.129-0.131,0.212-0.306,0.315-0.462c0.146-0.221,0.293-0.443,0.488-0.737c0.244,0.281,0.454,0.477,0.607,0.71
		c0.307,0.469,0.573,0.966,0.878,1.436c0.094,0.145,0.253,0.329,0.4,0.345c0.494,0.057,0.743,0.379,0.998,0.741
		c0.534,0.759,1.176,1.389,2.131,1.587c0.282,0.059,0.569,0.093,0.849,0.16c1.24,0.293,2.447,0.049,3.651-0.218
		c0.122-0.027,0.27-0.13,0.32-0.238c0.079-0.171,0.085-0.376,0.135-0.639c-0.099-0.146-0.221-0.382-0.393-0.571
		c-0.683-0.75-1.473-1.396-2.187-2.118c-0.775-0.783-1.774-1.555-3.09-1.317c-0.082-0.298-0.118-0.625-0.257-0.9
		c-0.299-0.59-0.674-1.141-0.973-1.731c-0.251-0.496-0.531-1.005-0.64-1.54c-0.554-2.735-1.064-5.48-1.572-8.224
		c-0.27-1.458-0.534-2.917-0.744-4.384c-0.12-0.836-0.173-1.688-0.167-2.533c0.005-0.702,0.141-1.404,0.216-2.106
		c0.122-1.13,0.12-2.294-0.269-3.336c-0.71-1.902-0.629-3.85-0.622-5.801c0.004-1.077,0.159-2.153,0.187-3.231
		c0.035-1.398,0.004-2.797,0.016-4.195c0.004-0.416,0.032-0.835,0.089-1.247c0.129-0.939,0.27-1.876,0.439-2.808
		c0.033-0.185,0.2-0.352,0.324-0.513c0.16-0.208,0.326-0.415,0.516-0.595c0.1-0.095,0.305-0.22,0.377-0.179
		c0.313,0.177,0.428,0.012,0.501-0.238c0.075-0.257,0.123-0.521,0.182-0.781c0.601,0.129,0.68,0.069,0.82-0.522
		c0.034-0.142,0.112-0.278,0.188-0.406c0.091-0.154,0.233-0.284,0.294-0.447c0.105-0.281,0.156-0.55,0.58-0.471
		c0.119,0.022,0.361-0.169,0.411-0.311c0.094-0.265,0.083-0.566,0.125-0.85c0.023-0.153,0.065-0.302,0.099-0.453
		c0.101,0.098,0.097,0.176,0.102,0.255c0.008,0.123,0.023,0.245,0.035,0.367c0.124-0.075,0.29-0.123,0.361-0.233
		c0.078-0.122,0.088-0.299,0.095-0.453c0.013-0.296,0.004-0.593,0.004-0.921c0.537,0.056,0.647-0.261,0.69-0.633
		c0.03-0.257,0.023-0.522,0.083-0.772c0.027-0.111,0.205-0.29,0.267-0.272c0.321,0.092,0.491-0.031,0.617-0.307
		c0.029-0.064,0.125-0.137,0.192-0.139c0.432-0.011,0.386-0.305,0.421-0.605c0.035-0.3,0.088-0.658,0.273-0.865
		c0.194-0.217,0.552-0.281,0.531-0.682c-0.002-0.028,0.191-0.102,0.289-0.094c0.29,0.025,0.389-0.134,0.414-0.379
		c0.018-0.172,0.026-0.345,0.037-0.518c0.042-0.658,0.19-0.865,0.824-1.014c0.288-0.067,0.379-0.219,0.376-0.482
		c-0.003-0.293-0.001-0.586-0.001-0.907c0.574,0.299,0.618,0.256,0.719-0.642c0.667-0.007,0.368-0.568,0.495-0.917
		c0.428-0.017,0.55-0.333,0.575-0.676c0.023-0.322,0.026-0.6,0.443-0.647c0.065-0.007,0.143-0.174,0.16-0.276
		c0.098-0.601,0.179-1.205,0.27-1.836c0.065-0.035,0.297-0.083,0.329-0.19c0.147-0.5,0.261-1.012,0.34-1.527
		c0.042-0.271-0.019-0.549,0.351-0.64c0.072-0.018,0.145-0.178,0.153-0.277c0.02-0.271-0.003-0.544,0.008-0.816
		c0.004-0.119,0.021-0.324,0.078-0.341c0.407-0.127,0.322-0.449,0.351-0.743c0.013-0.131,0.102-0.26,0.175-0.379
		c0.089-0.145,0.262-0.27,0.282-0.419c0.037-0.28-0.031-0.572-0.013-0.857c0.009-0.14,0.079-0.349,0.181-0.395
		c0.282-0.127,0.33-0.323,0.311-0.592c-0.021-0.285-0.132-0.643-0.004-0.842c0.257-0.402,0.212-0.787,0.175-1.203
		c-0.04-0.459-0.063-0.92-0.08-1.38c-0.004-0.123,0.002-0.286,0.074-0.367c0.412-0.461,0.532-1.056,0.587-1.609
		c0.15-1.516,0.194-3.043,0.282-4.565c0.007-0.127-0.007-0.346,0.046-0.366c0.547-0.203,0.315-0.673,0.375-1.036
		c0.109-0.656-0.254-1.373,0.254-1.98c0.015-0.018,0.008-0.056,0.011-0.085c0.091-0.857,0.199-1.712,0.267-2.571
		c0.037-0.47,0.007-0.946,0.007-1.449c0.395,0.007,0.515-0.254,0.474-0.562c-0.175-1.308,0.479-2.398,0.932-3.531
		c0.11-0.274,0.452-0.523,0.744-0.644c0.663-0.274,1.349-0.523,2.049-0.672c1.733-0.371,3.443-0.764,5.063-1.543
		c1.056-0.508,2.209-0.821,3.333-1.176c0.544-0.172,1.118-0.308,1.684-0.333c0.745-0.033,1.496,0.095,2.244,0.087
		c0.732-0.008,1.465-0.083,2.193-0.166c0.148-0.017,0.357-0.171,0.401-0.307c0.096-0.295,0.075-0.627,0.16-0.927
		c0.05-0.178,0.181-0.368,0.331-0.475c0.315-0.225,0.636-0.399,0.474-0.887c-0.038-0.115,0.084-0.283,0.133-0.426
		c0-0.115,0-0.231,0-0.346c-0.176-0.436-0.339-0.879-0.533-1.307C143.514,27.742,143.398,27.287,143.113,27.075z"/>
</g>
</svg>
