<?xml version="1.0" encoding="iso-8859-1"?>
<!-- Generator: Adobe Illustrator 17.1.0, SVG Export Plug-In . SVG Version: 6.00 Build 0)  -->
<!DOCTYPE svg PUBLIC "-//W3C//DTD SVG 1.1//EN" "http://www.w3.org/Graphics/SVG/1.1/DTD/svg11.dtd">
<svg version="1.1" id="Capa_1" xmlns="http://www.w3.org/2000/svg" xmlns:xlink="http://www.w3.org/1999/xlink" x="0px" y="0px"
	 viewBox="0 0 150 150" style="enable-background:new 0 0 150 150;" xml:space="preserve">
<g>
	<path d="M129.604,17.141l-0.258,0.001l-0.292-0.002c-1.005,0-1.805,0.436-2.578,0.856c-0.186,0.101-0.371,0.202-0.56,0.296
		c-0.946,0.477-2.029,0.302-2.275-0.361c-0.295-0.792-0.418-1.66-0.492-2.328c-0.055-0.495-0.042-1.001-0.028-1.536
		c0.006-0.241,0.013-0.483,0.013-0.724c0-0.247-0.18-0.457-0.424-0.494l-0.305-0.048c-0.23-0.034-0.45,0.09-0.538,0.303
		c-0.031,0.074-0.066,0.147-0.102,0.221c-0.094,0.195-0.201,0.418-0.247,0.674c-0.21,1.199-0.079,2.438,0.413,3.9
		c0.17,0.506,0.22,0.988,0.135,1.321c-0.757,2.992-2.378,4.269-5.421,4.269l-0.272-0.003c-0.146-0.003-0.476-0.221-0.639-0.46
		c-0.322-0.475-0.202-1.048-0.062-1.712l0.041-0.199c0.142-0.693,0.206-1.399,0.269-2.082c0.027-0.293,0.053-0.586,0.086-0.878
		c0.028-0.251-0.136-0.484-0.382-0.542l-0.407-0.098c-0.222-0.059-0.449,0.05-0.556,0.249c-0.05,0.094-0.11,0.186-0.17,0.277
		c-0.163,0.252-0.348,0.538-0.405,0.885c-0.178,1.084-0.314,2.175-0.45,3.265l-0.111,0.888c-0.055,0.436-0.097,0.874-0.139,1.312
		c-0.09,0.939-0.175,1.826-0.387,2.689c-0.365,1.489-1.295,2.678-2.689,3.438c-0.512,0.276-1.245,0.152-1.334-0.569
		c-0.067-0.548-0.033-1.12,0.098-1.612c0.209-0.791,0.468-1.589,0.718-2.361c0.159-0.491,0.318-0.982,0.466-1.475
		c0.072-0.236,0.072-0.468,0.073-0.673c0-0.073,0-0.147,0.005-0.22c0.016-0.253-0.159-0.478-0.408-0.523l-0.236-0.044
		c-0.246-0.045-0.484,0.094-0.564,0.329l-0.097,0.277c-0.075,0.216-0.15,0.432-0.22,0.649c-0.094,0.292-0.163,0.592-0.231,0.893
		c-0.172,0.753-0.321,1.404-0.863,1.914c-0.407,0.383-0.66,0.463-0.802,0.464c-0.188,0-0.393-0.159-0.609-0.472
		c-0.392-0.567-0.719-1.17-1.066-1.809c-0.211-0.389-0.423-0.778-0.649-1.158c-0.178-0.3-0.393-0.577-0.608-0.854
		c-0.089-0.115-0.178-0.229-0.264-0.346c-0.145-0.196-0.408-0.261-0.624-0.151l-0.308,0.151c-0.215,0.106-0.324,0.351-0.26,0.581
		c0.025,0.091,0.045,0.183,0.066,0.275c0.052,0.233,0.111,0.499,0.238,0.75c0.152,0.302,0.336,0.597,0.52,0.891
		c0.321,0.515,0.624,1,0.726,1.495c0.251,1.227,0.944,1.863,1.823,2.567c0.532,0.428,0.875,0.85,0.964,1.19
		c0.353,1.346-0.854,3.562-2.228,4.09c-0.684,0.265-1.169,0.104-1.484-0.544c-0.172-0.354-0.3-0.734-0.434-1.137
		c-0.066-0.199-0.133-0.397-0.205-0.593l-0.677-1.832c-0.085-0.231-0.328-0.367-0.569-0.316l-0.302,0.062
		c-0.243,0.05-0.413,0.271-0.399,0.518c0.006,0.113,0.007,0.228,0.009,0.342c0.003,0.293,0.007,0.596,0.08,0.906
		c0.136,0.582,0.324,1.149,0.506,1.698l0.075,0.228c0.223,0.677,0.148,1.378,0.068,2.12c-0.043,0.403-0.088,0.819-0.085,1.244
		c0.004,0.642-0.205,1.181-0.624,1.603c-0.674,0.678-1.744,0.92-2.521,0.92l-0.186-0.004c-0.445-0.021-1.151-0.504-1.8-1.228
		c-0.76-0.849-1.191-1.736-1.168-2.104c0.031-0.492,0.158-0.989,0.293-1.515c0.048-0.188,0.097-0.375,0.14-0.562
		c0.083-0.353,0.156-0.706,0.229-1.061c0.285-1.372,0.554-2.668,1.316-3.841c0.51-0.784,0.582-2.042-0.406-3.083
		c-0.126-0.134-0.314-0.184-0.49-0.14c-0.177,0.047-0.314,0.186-0.358,0.363l-0.09,0.344c-0.058,0.217-0.103,0.389-0.129,0.563
		c-0.177,1.188-0.368,2.161-1.068,2.943c-0.417,0.466-0.745,0.601-1.167,0.482c-0.261-0.073-0.566-0.247-0.605-0.947
		c-0.025-0.454-0.083-0.91-0.143-1.367c-0.171-1.332-0.333-2.59,0.367-3.77c0.112-0.188,0.118-0.378,0.123-0.518
		c0.001-0.034,0-0.068,0.006-0.101c0.056-0.261,0.108-0.522,0.16-0.784c0.335-1.686,0.652-3.277,1.972-4.462
		c0.497-0.445,0.956-0.639,1.585-0.667c0.648-0.029,1.292-0.121,1.916-0.211c0.266-0.038,0.532-0.076,0.799-0.109
		c0.227-0.028,0.406-0.207,0.434-0.435l0.025-0.198c0.03-0.237-0.112-0.462-0.338-0.537l-0.348-0.119
		c-0.275-0.095-0.549-0.19-0.828-0.268c-0.889-0.249-0.97-0.651-0.81-1.262c0.427-1.625,1.424-2.729,2.884-3.194
		c0.731-0.233,1.507-0.448,2.224-0.448c0.908,0,1.606,0.344,2.198,1.083c0.085,0.107,0.186,0.202,0.288,0.296
		c0.058,0.055,0.118,0.107,0.169,0.167c0.565,0.656,1.424,0.719,1.973,0.156c0.081-0.082,0.176-0.231,0.172-0.475
		c-0.006-0.347-0.243-0.956-0.551-1.251c-0.533-0.512-0.785-0.89-0.771-1.156c0.014-0.259,0.287-0.591,0.834-1.016l0.125-0.094
		c0.162-0.12,0.345-0.256,0.498-0.439c0.231-0.276,0.445-0.566,0.66-0.857l0.258-0.348c0.096-0.127,0.125-0.293,0.079-0.445
		c-0.046-0.153-0.163-0.274-0.313-0.327c-0.396-0.14-0.699-0.142-1.012-0.011c-1.401,0.591-2.799,1.186-4.196,1.784
		c-0.285,0.123-0.545,0.188-0.75,0.188c-0.194,0.006-0.626,0.002-0.646-0.997c-0.01-0.506,0.091-1.025,0.198-1.575
		c0.053-0.271,0.106-0.544,0.146-0.815c0.033-0.222,0.058-0.443,0.084-0.665l0.036-0.305c0.029-0.237-0.114-0.462-0.342-0.536
		l-0.38-0.124c-0.228-0.076-0.477,0.024-0.592,0.234c-0.079,0.143-0.165,0.283-0.25,0.424c-0.208,0.343-0.424,0.696-0.562,1.1
		c-0.145,0.424-0.254,0.864-0.362,1.305c-0.164,0.669-0.318,1.301-0.604,1.853c-0.407,0.789-0.918,1.557-1.413,2.3
		c-0.438,0.658-0.893,1.34-1.286,2.051c-0.663,1.197-1.729,1.929-2.857,2.702l-0.509,0.352c-0.03,0.021-0.3,0.072-0.54,0.034
		c-1.142-0.18-1.786-0.866-2.087-2.224c-0.07-0.315-0.193-0.597-0.336-0.923c-0.068-0.155-0.142-0.324-0.219-0.516
		c-0.074-0.188-0.253-0.312-0.455-0.315c-0.195,0.003-0.385,0.113-0.466,0.297c-0.981,2.202-0.163,3.667,0.767,4.808
		c1.62,1.989,2.019,3.704,1.294,5.56c-0.314,0.805-0.729,0.931-1.25,0.371c-0.424-0.456-0.786-0.968-1.169-1.51
		c-0.185-0.262-0.371-0.523-0.562-0.778c-0.073-0.098-0.141-0.201-0.208-0.307c-0.3-0.461-0.711-1.093-1.628-1.21
		c-0.137-0.02-0.274,0.022-0.381,0.109c-0.106,0.088-0.172,0.215-0.182,0.353c-0.094,1.368,0.633,2.294,1.217,3.038
		c0.829,1.056,1.19,1.827,0.725,2.874c-0.072,0.163-0.271,0.542-0.551,0.542c-0.108,0-0.238-0.053-0.377-0.152
		c-0.155-0.111-0.299-0.283-0.451-0.465c-0.113-0.136-0.228-0.271-0.352-0.395c-0.199-0.197-0.411-0.383-0.64-0.585l-0.312-0.276
		c-0.129-0.115-0.309-0.156-0.476-0.107c-0.167,0.05-0.295,0.182-0.341,0.35c-0.28,1.037,0.073,1.854,1.049,2.428l0.282,0.165
		c1.174,0.688,2.388,1.398,3.505,2.188c1.089,0.77,1.702,1.634,1.927,2.72c0.205,0.986,0.181,1.959-0.073,3.06
		c-0.152,0.658-0.511,1.442-1.359,1.442c-0.303,0-0.642-0.098-1.009-0.29c-0.59-0.31-1.163-0.651-1.735-0.993
		c-0.326-0.193-0.651-0.388-0.98-0.576c-0.202-0.116-0.411-0.219-0.621-0.321l-0.265-0.131c-0.152-0.078-0.336-0.07-0.484,0.019
		c-0.147,0.089-0.239,0.247-0.242,0.42c-0.007,0.423,0.086,0.761,0.3,1.097c0.936,1.469,2.376,2.203,3.527,2.678
		c1.183,0.489,2.392,0.898,3.521,1.269c0.469,0.153,0.808,0.51,0.93,0.977c0.111,0.428,0.019,0.882-0.235,1.158
		c-0.365,0.399-0.902,0.365-1.58,0.246c-0.148-0.025-0.296-0.051-0.442-0.07c-0.5-0.065-0.999-0.137-1.498-0.208
		c-1.282-0.185-2.607-0.374-4.001-0.462c-0.482,0-0.909,0.308-1.286,0.579c-0.146,0.104-0.291,0.211-0.435,0.291
		c-0.125,0.07-0.214,0.191-0.245,0.332c-0.03,0.142,0.002,0.288,0.088,0.403l0.25,0.339c0.236,0.322,0.472,0.644,0.727,0.951
		c0.198,0.239,0.507,0.315,0.693,0.361c0.406,0.098,0.813,0.191,1.22,0.285c0.564,0.13,1.127,0.261,1.688,0.401
		c0.317,0.08,0.541,0.222,0.63,0.399c0.076,0.149,0.065,0.346-0.032,0.581c-0.243,0.592-0.643,1.147-1.069,1.488
		c-1.979,1.583-3.214,3.188-3.89,5.048c-0.758,2.091-1.371,4.263-1.983,6.436c-0.797,2.831-1.297,5.528-1.528,8.245
		c-0.244,2.871-0.665,5.707-1.044,8.104c-0.271,1.706-0.975,2.83-2.153,3.436c-1.801,0.926-3.204,1.313-4.672,1.248
		c-0.919-0.035-1.839-0.023-2.758-0.012l-1.122,0.011c-2.809,0-5.58-0.562-7.957-1.089c-1.628-0.36-2.965-0.618-4.209-0.81
		c-0.716-0.11-1.438-0.186-2.161-0.261c-0.691-0.072-1.382-0.144-2.067-0.248c-2.294-0.352-4.6-0.491-6.903-0.422
		c-3.12,0.097-6.058,0.994-8.982,2.743c-1.516,0.905-3.187,1.725-5.128,1.559c-0.917-0.081-1.488-0.437-1.82-1.162
		c-0.656-1.438-1.275-2.798-1.088-4.378c0.096-0.808,0.075-1.623,0.054-2.412c-0.01-0.401-0.021-0.804-0.016-1.203
		c0.014-1.077-0.404-1.908-1.21-2.402c-0.877-0.539-1.804-1.003-2.754-1.47c-0.408-0.201-0.732-0.295-1.021-0.295
		c-0.971,0-1.23,1.026-1.329,1.412c-0.073,0.291-0.158,0.579-0.242,0.867c-0.16,0.546-0.325,1.11-0.418,1.693
		c-0.047,0.292-0.103,0.586-0.158,0.882c-0.2,1.064-0.407,2.164-0.249,3.235c0.357,2.411,1.16,4.851,2.385,7.249
		c0.161,0.314,0.508,0.882,1.025,1.143c0.854,0.428,1.388,1.027,1.634,1.831c0.358,1.171,0.632,2.296,0.055,3.176
		c-1.322,2.018-1.467,4.245-1.606,6.399l-0.018,0.275c-0.075,1.136-0.026,2.284,0.02,3.396c0.021,0.51,0.042,1.02,0.052,1.528
		c0.003,0.163,0,0.327-0.003,0.491c-0.006,0.322-0.011,0.644,0.021,0.962c0.109,1.098,0.232,2.194,0.354,3.291l0.201,1.819
		c0.051,0.475,0.099,0.949,0.146,1.424c0.094,0.943,0.188,1.887,0.312,2.827c0.085,0.649,0.237,1.355,0.477,2.222
		c0.721,2.591,0.349,4.422-1.204,5.938c-0.887,0.865-1.282,1.835-1.175,2.883c0.156,1.521,0.333,3.038,0.521,4.555
		c0.299,2.403,0.6,4.808,0.93,7.206c0.06,0.437,0.111,0.877,0.162,1.317c0.149,1.294,0.304,2.633,0.713,3.94
		c0.468,1.495,0.838,2.676,0.007,3.961c-0.216,0.333-0.246,0.714-0.08,1.02c0.179,0.328,0.547,0.517,1.027,0.517l0.51-0.002
		l1.846,0.007c0.485,0,0.97-0.004,1.456-0.019c0.011-0.001,1.116-0.045,1.359-0.689c0.172-0.458,0.005-1.076-0.237-1.486
		c-0.222-0.375-0.476-0.732-0.73-1.09c-0.35-0.492-0.68-0.957-0.92-1.46c-1.645-3.448-2.458-7.396-2.487-12.07
		c-0.002-0.306-0.034-0.611-0.067-0.918c-0.028-0.259-0.057-0.518-0.061-0.777l-0.012-0.376c-0.018-0.465-0.034-0.903,0.078-1.268
		c0.481-1.555,1.377-2.939,2.663-4.116c0.91-0.833,1.941-1.776,2.539-3.145c0.541-1.236,1.265-2.44,1.902-3.473
		c0.053-0.086,0.248-0.204,0.416-0.248c0.066,0.117,0.148,0.315,0.18,0.482c0.038,0.2,0,0.454-0.04,0.723l-0.042,0.305
		c-0.036,0.308-0.087,0.616-0.139,0.925c-0.111,0.669-0.227,1.361-0.189,2.062c0.109,2.026-0.432,3.892-1.005,5.867l-0.199,0.688
		c-0.329,1.153-0.124,2.392,0.028,3.027c0.269,1.127,0.596,2.254,0.913,3.345c0.368,1.268,0.749,2.578,1.034,3.879l0.077,0.355
		c0.413,1.899,0.839,3.864,2.09,5.548c0.363,0.489,0.381,0.947,0.06,1.533c-0.132,0.24-0.231,0.499-0.345,0.804
		c-0.051,0.136-0.106,0.282-0.17,0.441c-0.062,0.154-0.044,0.329,0.049,0.467s0.249,0.221,0.415,0.221h4.877
		c0.241,0,0.447-0.172,0.492-0.408c0.196-1.052-0.384-1.671-0.808-2.124c-0.13-0.138-0.26-0.274-0.364-0.424
		c-3.048-4.393-4.528-9.189-4.399-14.258c0.013-0.486,0.097-0.881,0.245-1.139l0.557-0.98c0.926-1.634,1.884-3.322,2.949-4.888
		c2.124-3.119,4.304-6.484,5.583-10.306c0.883-2.639,1.999-4.519,3.511-5.916c1.03-0.952,2.351-1.388,3.943-1.321
		c0.779,0.029,1.569,0.218,2.379,0.425c1.1,0.281,2.196,0.576,3.292,0.872c1.797,0.483,3.655,0.984,5.503,1.41
		c2.116,0.487,4.626,1.021,7.202,1.285c1.687,0.175,2.583,1.159,2.589,2.847c0.003,0.797-0.101,1.625-0.202,2.425l-0.09,0.735
		c-0.218,1.896,0.287,3.655,0.775,5.355l0.338,1.191c0.591,2.087,1.15,4.057,0.905,6.168c-0.039,0.331,0.017,0.664,0.077,0.945
		c0.317,1.496,0.639,2.991,0.976,4.481l0.204,0.927c0.217,0.997,0.441,2.028,0.749,3.026c0.327,1.062,0.325,2.111-0.009,3.211
		c-0.181,0.599-0.298,1.281,0.615,1.802c0.235,0.134,0.385,0.297,0.401,0.437c0.018,0.151-0.125,0.31-0.211,0.391
		c-0.906,0.845-0.865,1.834-0.828,2.708c0.006,0.154,0.013,0.31,0.014,0.463c0.002,0.482,0.596,1.099,1.076,1.118
		c0.451,0.018,0.903,0.024,1.355,0.024c0.467,0,0.935-0.007,1.402-0.014l0.992-0.012c0.34-0.002,0.6-0.104,0.771-0.305
		c0.24-0.278,0.222-0.635,0.187-0.879c-0.257-1.791-0.978-3.407-1.675-4.97c-0.353-0.79-0.718-1.608-1.01-2.426
		c-0.242-0.68-0.477-1.409-0.55-2.137c-0.1-0.99-0.128-2.014-0.156-3.003l-0.03-0.984c-0.027-0.783-0.046-1.568-0.042-2.352
		c0.003-0.741,0.013-1.483,0.023-2.226c0.017-1.263,0.033-2.526,0.018-3.789c-0.009-0.75-0.094-1.492-0.176-2.211
		c-0.129-1.133-0.251-2.203-0.105-3.309l0.024-0.182c0.168-1.287,0.328-2.504,1.133-3.473c0.23-0.277,0.482-0.438,0.52-0.452
		c0.055,0.02,0.196,0.12,0.517,0.58c0.059,0.084,0.083,0.305,0.103,0.481l0.015,0.123c0.042,0.351,0.07,0.704,0.098,1.059
		c0.057,0.728,0.115,1.48,0.305,2.209c0.457,1.752,0.484,3.502,0.513,5.354l0.014,0.816c0.019,0.884,0.198,1.757,0.371,2.602
		c0.065,0.319,0.131,0.639,0.188,0.958c0.056,0.316,0.125,0.632,0.195,0.946c0.082,0.373,0.165,0.747,0.223,1.124
		c0.081,0.52,0.141,1.044,0.202,1.568c0.121,1.045,0.245,2.125,0.532,3.163c0.424,1.535,0.58,2.737,0.051,3.983
		c-0.187,0.438-0.277,0.974-0.269,1.594c0.005,0.393,0.237,0.864,0.563,1.146c0.553,0.479,0.597,0.673,0.316,1.378
		c-0.208,0.524-0.302,1.075-0.408,1.698c-0.1,0.582,0.068,0.964,0.226,1.182c0.163,0.227,0.489,0.515,1.114,0.607
		c0.349,0.053,0.844,0.115,1.303,0.066c0.365-0.036,0.728-0.095,1.091-0.153c0.454-0.073,0.883-0.142,1.315-0.169
		c0.196-0.013,0.792-0.05,1.055-0.521c0.17-0.306,0.138-0.684-0.097-1.123c-0.176-0.331-0.374-0.652-0.572-0.972
		c-0.264-0.427-0.513-0.829-0.708-1.255c-0.098-0.214-0.199-0.427-0.301-0.642c-0.423-0.891-0.861-1.812-1.006-2.724
		c-0.185-1.161-0.215-2.384-0.244-3.566c-0.015-0.608-0.03-1.218-0.065-1.823c-0.048-0.85-0.109-1.699-0.169-2.549
		c-0.103-1.439-0.208-2.927-0.25-4.388c-0.119-4.08-0.159-7.414-0.126-10.495c0.023-2.175,0.23-4.299,0.429-6.089
		c0.203-1.824,1.24-3.274,3.263-4.564c2.21-1.408,3.67-3.491,4.464-6.369c0.097-0.351,0.073-0.72,0.037-0.969
		c-0.36-2.429-0.128-4.207,0.751-5.767c0.202-0.357,0.302-0.692,0.299-0.992c-0.003-0.333,0-0.667,0.005-1.002
		c0.012-0.97,0.024-1.972-0.149-2.95c-0.528-3.001-1.114-6.198-1.939-9.378c-0.516-1.985-1.131-3.975-1.726-5.898
		c-0.484-1.566-0.985-3.186-1.427-4.788c-0.349-1.267-0.452-2.64-0.526-3.938c-0.049-0.849,0.771-1.562,1.567-1.696
		c1.272-0.213,2.597-0.079,4.047,0.412c2.264,0.767,4.546,1.65,6.56,2.43c0.243,0.095,0.464,0.141,0.676,0.141
		c0.728,0,1.126-0.559,1.257-0.742c0.083-0.117,0.165-0.24,0.246-0.364c0.213-0.325,0.415-0.633,0.661-0.806
		c1.38-0.974,1.028-1.968,0.443-2.896l-0.569-0.896c-0.522-0.818-1.062-1.663-1.547-2.513c-1.144-1.998-1.99-4.217-2.586-6.781
		c-0.151-0.651-0.08-1.205,0.2-1.559c0.301-0.379,0.785-0.459,1.137-0.459c0.147,0,0.302,0.014,0.464,0.04
		c0.094,0.016,0.188,0.036,0.283,0.057c0.222,0.049,0.474,0.104,0.736,0.104c0.01,0,0.101-0.002,0.111-0.003l0.219-0.014
		c0.676-0.04,1.375-0.081,2.048-0.275c0.536-0.155,0.894-0.514,0.959-0.96c0.065-0.448-0.179-0.899-0.653-1.204
		c-0.515-0.332-1.179-0.565-1.871-0.659c-0.621-0.082-1.248-0.128-1.874-0.174c-0.723-0.053-1.471-0.107-2.185-0.223
		c-0.639-0.104-1.073-0.57-1.22-0.987c-0.061-0.172-0.128-0.497,0.097-0.748c1.105-1.229,2.396-1.894,3.837-1.976
		c0.435-0.024,0.87-0.044,1.303-0.044c1.339,0,2.351,0.188,3.28,0.606c0.176,0.078,0.383,0.049,0.53-0.075
		c0.147-0.126,0.209-0.325,0.158-0.512c-0.096-0.354-0.237-0.653-0.442-0.941c-0.128-0.181-0.264-0.354-0.399-0.528
		c-0.183-0.235-0.367-0.47-0.525-0.721c-0.322-0.508-0.413-1.024-0.258-1.455c0.144-0.396,0.487-0.693,0.995-0.858
		c1.074-0.35,2.305-0.598,3.657-0.737c0.632-0.064,1.462-0.06,2.303-0.039c0.353,0.009,0.706,0.017,1.057,0.017l0.237-0.001
		c0.458-0.005,1.31-0.014,1.59-0.863c0.042-0.129,0.031-0.27-0.032-0.389c-0.062-0.12-0.171-0.21-0.301-0.248
		c-0.445-0.131-0.888-0.256-1.327-0.38c-1.03-0.291-2.003-0.564-2.966-0.907c-0.289-0.104-0.468-0.238-0.532-0.4
		c-0.094-0.237,0.032-0.57,0.154-0.809c0.701-1.364,1.886-2.264,3.14-3.216l0.101-0.077c1.786-1.356,3.562-2.782,5.279-4.161
		c0.989-0.794,1.978-1.588,2.973-2.373l0.253-0.2c1.42-1.124,2.761-2.185,4.493-2.562c0.198-0.043,0.333-0.155,0.463-0.265
		c0.052-0.043,0.114-0.095,0.193-0.152c0.175-0.128,0.248-0.354,0.181-0.56C130.012,17.28,129.82,17.141,129.604,17.141z"/>
</g>
</svg>
