<?xml version="1.0" encoding="iso-8859-1"?>
<!-- Generator: Adobe Illustrator 17.1.0, SVG Export Plug-In . SVG Version: 6.00 Build 0)  -->
<!DOCTYPE svg PUBLIC "-//W3C//DTD SVG 1.1//EN" "http://www.w3.org/Graphics/SVG/1.1/DTD/svg11.dtd">
<svg version="1.1" id="Capa_1" xmlns="http://www.w3.org/2000/svg" xmlns:xlink="http://www.w3.org/1999/xlink" x="0px" y="0px"
	 viewBox="0 0 150 150" style="enable-background:new 0 0 150 150;" xml:space="preserve">
<g>
<path d="M145.596,54.425c-0.327-0.61-0.633-1.366-1.172-1.705c-2.105-1.325-4.271-2.566-6.48-3.707c0,0-0.796-0.427-1.829-0.203
	c-0.108,0.023-0.284,0.046-0.394,0.044c-0.115-0.002-0.229-0.004-0.344-0.005c-0.111-0.001-0.289-0.012-0.398-0.022
	c-0.445-0.042-0.89-0.057-1.333-0.039c-0.111,0.005-0.289,0.004-0.399-0.007c-0.135-0.013-0.269-0.029-0.403-0.049
	c-0.79-0.119-1.547-0.45-2.347-0.719c-0.104-0.035-0.231,0.017-0.281,0.116c-0.029,0.056-0.345-0.076-0.433-0.13
	c-0.539-0.33-1.81,0.102-2.309,0.71c-0.07,0.085-0.194,0.203-0.293,0.251c-0.315,0.152-0.963,0.464-1.278,0.616
	c-0.1,0.048-0.158,0.143-0.132,0.212c0.027,0.069,0.136,0.149,0.243,0.178c0.065,0.018,0.13,0.035,0.198,0.054
	c0.106,0.029,0.162,0.082,0.125,0.121c-0.03,0.032-0.054,0.056-0.076,0.054c-1.398-0.097-1.959,1.002-2.434,1.937
	c-0.101,0.199-0.2,0.399-0.298,0.6c-0.048,0.099-0.142,0.252-0.203,0.344c-0.179,0.269-0.32,0.557-0.412,0.86
	c-0.032,0.106-0.089,0.274-0.135,0.374c-0.839,1.815-1.63,3.655-2.544,5.431c-0.887,1.726-2.29,3.065-5.033,2.728
	c-5.279-0.648-10.566-1.085-15.854,0.115c-3.398,0.771-6.816,1.521-10.265,1.978c-3.337,0.442-6.723,0.585-10.093,0.695
	c-3.478,0.114-6.969,0.166-10.443-0.005c-3.62-0.178-7.225-0.656-10.837-1c-1.973-0.188-3.948-0.359-5.921-0.544
	c-6.845-1.128-13.706-2.182-20.614-2.832c-8.747-0.824-17.483-0.757-26.256-0.549c-0.38,0.009-0.551,0.337-0.513,0.628
	c0.014,0.109,0.099,0.262,0.194,0.318c0.108,0.065,0.25,0.129,0.319,0.127c0.01,0,0.021,0,0.031-0.001
	c0.017,0,0.118,0.02,0.227,0.042c0.146,0.029,0.281,0.049,0.415,0.053c3.534,0.101,7.074,0.089,10.602,0.295
	c4.239,0.247,8.472,0.614,12.697,1.04c8.624,0.868,16.961,3.108,25.25,5.517c1.821,0.529,3.641,1.064,5.46,1.6
	c0.106,0.031,0.264,0.107,0.357,0.168c1.812,1.197,3.999,1.765,6.246,1.845c0.11,0.004,0.286,0.031,0.392,0.063
	c4.602,1.376,9.2,2.768,13.794,4.173c1.807,0.552,3.794,0.903,5.041,2.586c0.37,0.499,0.571,1.136,0.985,1.587
	c0.685,0.747,1.443,1.428,2.202,2.141c0.081,0.076,0.087,0.205,0.019,0.292c-0.488,0.615-0.879,1.365-0.962,2.116
	c-0.012,0.11-0.06,0.277-0.115,0.373c-1.087,1.89-2.162,3.753-3.283,5.588c-0.305,0.499-0.944,0.861-1.505,1.126
	c-1.474,0.696-1.997,2.103-2.659,3.397c-0.379,0.741-0.728,1.497-1.079,2.253c-0.047,0.1-0.118,0.196-0.155,0.219
	c-0.022,0.013-0.043,0.029-0.064,0.047c-0.766,0.652-1.531,1.304-2.297,1.957c-0.084,0.072-0.239,0.108-0.339,0.061
	c-0.14-0.066-0.276-0.163-0.4-0.297c-0.472-0.508-1.229,0.253-0.759,0.759c0.725,0.781,1.844,0.9,2.682,0.436
	c0.097-0.054,0.135-0.023,0.092,0.079c-0.158,0.376-0.276,0.685-0.445,0.958c-0.575,0.924-0.602,1.879-0.397,2.896
	c0.022,0.108,0.025,0.284,0.004,0.392l-0.206,1.072c-0.021,0.108-0.086,0.272-0.127,0.375c-0.392,0.992,1.483,0.996,2.397,0.691
	c0.808-0.269,2.857-0.088,3.504-0.021c0.11,0.011,0.145-0.05,0.07-0.131c-0.72-0.783-1.582-0.675-1.958-0.578
	c-0.107,0.028-0.173-0.027-0.142-0.133c0.066-0.222,0.165-0.427,0.305-0.6c0.341-0.421,0.771-0.777,1.07-1.223
	c0.414-0.616,0.885-0.665,1.291-0.031c0.337,0.526,0.431,1.047-0.053,1.523c-0.079,0.077-0.062,0.155,0.047,0.172
	c0.313,0.049,0.893,0.071,0.908-0.432c0.038-0.819,0.076-1.619-0.403-2.261c-0.066-0.089-0.149-0.244-0.214-0.333
	c-0.057-0.079-0.139-0.146-0.248-0.189c-0.045-0.018-0.09-0.035-0.135-0.051c-0.074-0.027-0.146-0.053-0.16-0.061
	c-0.013-0.008-0.111-0.041-0.218-0.069c-0.762-0.198-1.55-0.207-2.311-0.033c-0.108,0.025-0.175-0.038-0.151-0.146
	c0.246-1.113,0.474-2.253,0.783-3.371c0.642-2.323,2.238-3.944,4.159-5.242c2.091-1.414,4.343-2.604,6.357-4.113
	c2.011-1.507,3.811-3.295,5.717-4.945c0.331-0.286,0.728-0.495,1.093-0.741c0.586-0.397,1.198-0.762,1.75-1.203
	c0.525-0.419,1.001-0.898,1.492-1.359c0.081-0.076,0.207-0.11,0.283-0.079c0.075,0.031,0.116,0.145,0.09,0.252
	c-0.259,1.093-0.518,2.186-0.777,3.28c-0.025,0.107-0.109,0.26-0.186,0.339c-0.556,0.576-1.113,1.151-1.669,1.727
	c-0.019,0.019-0.035,0.041-0.051,0.064c-0.025,0.038-0.104,0.135-0.179,0.215c-0.09,0.096-0.177,0.195-0.26,0.297
	c-0.587,0.725,0.024,2.108,0.937,2.38c0.71,0.211,1.47,0.29,2.143,0.579c0.603,0.259,1.144,0.665,1.701,1.031
	c0.092,0.06,0.275,0.223,0.341,0.312c0.351,0.474,0.702,0.947,1.054,1.421c0.066,0.089,0.149,0.141,0.186,0.117
	s0.122-0.03,0.189-0.033c0.039-0.001,0.079-0.008,0.121-0.019c0.255-0.07,0.487-0.389,0.375-0.66
	c-0.037-0.089-0.073-0.178-0.11-0.266c-0.042-0.102-0.014-0.121,0.062-0.041c0.076,0.081,0.15,0.163,0.221,0.248
	c0.86,1.019,0.671,2.312,0.488,3.544c-0.016,0.109,0.056,0.172,0.162,0.139c0.872-0.27,0.922-0.43,1.349-2.811
	c0.019-0.109,0.086-0.122,0.14-0.025c0.596,1.067,0.484,2.714-0.259,3.776c-0.063,0.09-0.033,0.142,0.074,0.115
	c1.68-0.424,2.268-1.437,1.839-3.109c-0.408-1.591-1.162-2.802-2.524-3.699c-0.092-0.061-0.115-0.179-0.047-0.266l1.071-1.388
	c0.008-0.01,0.014-0.02,0.02-0.03c0.01-0.017,0.085,0.025,0.169,0.098c0.549,0.477,1.025,1.007,1.463,1.477
	c0.075,0.081,0.175,0.063,0.215-0.039c0.42-1.076,0.118-1.969-0.939-2.496c-1.46-0.918-3.31-0.442-4.148,1.058
	c-0.054,0.096-0.172,0.137-0.274,0.094c-0.17-0.072-0.347-0.128-0.535-0.161c-0.785-0.135-1.415-0.415-1.945-1.012
	c-0.073-0.083-0.069-0.22,0.005-0.302c2.958-3.279,7.051-5.563,8.789-9.922c0.041-0.103,0.159-0.164,0.265-0.133
	c1.691,0.503,2.854,1.898,2.755,3.382c-0.015,0.066-0.031,0.131-0.048,0.197c-0.027,0.107-0.083,0.277-0.13,0.377
	c-0.033,0.071-0.069,0.141-0.108,0.21c-0.022,0.04-0.039,0.079-0.05,0.118c-0.02,0.068-0.082,0.191-0.157,0.272
	c-0.264,0.285-0.538,0.579-0.847,0.912c-0.075,0.081-0.211,0.097-0.303,0.036c-0.141-0.094-0.29-0.193-0.441-0.294
	c-0.092-0.061-0.208-0.074-0.26-0.028c-0.052,0.046-0.034,0.149,0.035,0.235c0.289,0.364,0.617,0.876,0.797,0.828
	c0.602-0.16,1.14-0.562,1.885-1.002c0.095-0.056,0.26-0.078,0.359-0.027c0.42,0.215,0.513,0.678,0.03,1.373
	c-0.159,0.23-0.317,0.501-0.354,0.77c-0.142,1.03-0.673,0.919-1.294,0.595c-0.098-0.051-0.137-0.013-0.081,0.083
	c0.479,0.811,1.298,0.932,1.839,0.139c0.611-0.894,1.104-1.911,1.439-2.942c0.785-2.415-0.632-4.173-1.901-5.952
	c-0.064-0.09-0.047-0.221,0.028-0.302c0.117-0.126,0.213-0.271,0.287-0.428c0.047-0.1,0.159-0.212,0.264-0.245
	c0.082-0.025,0.164-0.05,0.248-0.076c0.105-0.032,0.204,0.029,0.228,0.137c0.325,1.498,1.65,1.865,2.822,2.343
	c1.019,0.415,2.106,0.662,3.16,0.99c1.16,0.361,2.312,1.919,2.148,3.086c-0.034,0.242-0.46,0.428-0.812,0.647
	c-0.094,0.058-0.079,0.131,0.029,0.155c0.437,0.098,0.972,0.218,1.604,0.359c0.108,0.024,0.111,0.078,0.009,0.12
	c-0.249,0.103-0.466,0.192-0.664,0.274c-0.102,0.042-0.103,0.114,0.002,0.148c0.641,0.205,1.129-0.073,1.605-0.935
	c0.053-0.097,0.149-0.107,0.205-0.011c0.526,0.905,0.052,2.198-0.976,2.653c-0.101,0.045-0.111,0.118-0.011,0.165
	c0.636,0.296,1.204,0.112,1.647-0.537c0.615-0.904,0.503-2.296-0.231-3.312c-0.33-0.457-0.656-0.932-0.887-1.442
	c-0.615-1.357-1.572-2.339-2.908-3.004c-0.892-0.443-1.747-0.967-2.59-1.5c-1.026-0.649-1.196-1.578-0.418-2.529
	c2.048-2.504,4.201-4.925,6.169-7.489c0.845-1.102,1.424-2.439,1.964-3.735c0.576-1.38,1.339-1.996,2.88-2.092
	c0.582-0.036,1.147-0.357,1.729-0.395c0.304-0.02,0.609-0.061,0.914-0.108c0.109-0.017,0.286-0.014,0.395,0
	c0.479,0.059,0.959,0.002,1.395-0.157c0.104-0.038,0.275-0.076,0.385-0.072c0.52,0.02,1.038,0.13,1.555,0.407
	c1.068,0.573,2.142,1.137,3.235,1.661c0.748,0.359,1.475,0.405,2.048-0.238c0.074-0.082,0.112-0.247,0.058-0.343
	c-0.1-0.176-0.281-0.322-0.439-0.475c0.652-0.793,0.453-1.599,0.272-1.343c-0.084,0.12-0.295,0.219-0.516,0.296
	c-0.016,0-0.028-0.005-0.043-0.006c0.3-0.621,0.146-1.122-0.001-0.913c-0.171,0.244-0.868,0.407-1.092,0.454
	c0.358-0.66,0.19-1.216,0.036-0.997c-0.107,0.153-0.423,0.274-0.699,0.355c0.342-0.65,0.177-1.19,0.025-0.973
	c-0.126,0.179-0.539,0.316-0.838,0.394c0.482-0.726,0.31-1.393,0.143-1.157c-0.125,0.179-0.536,0.315-0.835,0.393
	c0.4-0.684,0.232-1.279,0.074-1.053c-0.088,0.125-0.315,0.228-0.547,0.306c-0.152-0.285-0.308-0.568-0.477-0.837
	c-0.059-0.094-0.081-0.245-0.047-0.341c0.034-0.096,0.15-0.163,0.26-0.149c0.428,0.054,0.856,0.112,1.284,0.166
	c0.015,0.116,0.016,0.223-0.013,0.299c-0.074,0.197,0.252,0.124,0.561-0.236c0.133,0.016,0.267,0.03,0.4,0.044
	c0.037,0.175,0.053,0.341,0.013,0.448c-0.082,0.22,0.331,0.106,0.666-0.374c0.112,0.011,0.225,0.023,0.336,0.035
	c0.042,0.187,0.062,0.368,0.02,0.482c-0.083,0.223,0.344,0.101,0.681-0.398c0.055,0.007,0.11,0.012,0.165,0.019
	c0.06,0.223,0.096,0.451,0.045,0.587c-0.081,0.216,0.318,0.111,0.65-0.349c0.079,0.19,0.356,0.891,0.249,1.178
	c-0.114,0.304,0.719-0.025,0.978-1.097c0.095,0.283,0.188,0.64,0.118,0.826c-0.117,0.312,0.761-0.044,0.995-1.183
	c0.176-0.042,0.353-0.089,0.529-0.153C145.671,55.298,145.885,54.964,145.596,54.425z"/>
</g>
</svg>
