<?xml version="1.0" encoding="iso-8859-1"?>
<!-- Generator: Adobe Illustrator 17.1.0, SVG Export Plug-In . SVG Version: 6.00 Build 0)  -->
<!DOCTYPE svg PUBLIC "-//W3C//DTD SVG 1.1//EN" "http://www.w3.org/Graphics/SVG/1.1/DTD/svg11.dtd">
<svg version="1.1" id="Capa_1" xmlns="http://www.w3.org/2000/svg" xmlns:xlink="http://www.w3.org/1999/xlink" x="0px" y="0px"
	 viewBox="0 0 150 150" style="enable-background:new 0 0 150 150;" xml:space="preserve">
<g>
<path d="M2.404,63.57c-0.015,0.056-0.031,0.113-0.046,0.169c0.155,0.072,0.304,0.165,0.466,0.211
	c1.072,0.302,2.168,0.536,3.216,0.905c1.106,0.389,2.169,0.903,3.267,1.369c-0.027,0.034-0.096,0.119-0.201,0.248
	c1.567,0.483,3.114,0.96,4.614,1.422c-0.574,0.055-1.236,0.117-1.899,0.18c-0.007,0.086-0.014,0.172-0.022,0.258
	c0.66,0.137,1.316,0.303,1.981,0.404c1.749,0.265,3.501,0.512,5.255,0.743c0.677,0.089,1.361,0.156,2.043,0.167
	c1.479,0.024,2.877,0.284,4.155,1.095c0.325,0.207,0.767,0.232,1.158,0.332c2.458,0.624,4.916,1.246,7.378,1.869
	c-1.938,0.337-3.87,0.672-5.801,1.007c0.004,0.09,0.008,0.18,0.011,0.27c1.199,0.087,2.401,0.273,3.595,0.233
	c1.194-0.04,2.313,0.036,3.374,0.629c0.254,0.142,0.573,0.226,0.864,0.235c1.206,0.034,2.415,0.012,3.621,0.054
	c0.229,0.008,0.445,0.228,0.677,0.326c0.24,0.102,0.5,0.264,0.739,0.246c1.11-0.081,2.214-0.28,3.323-0.312
	c1.227-0.035,2.457,0.068,3.686,0.108c0.581,0.019,1.162,0.024,1.742,0.046c1.031,0.04,2.065,0.157,3.092,0.114
	c1.122-0.048,2.235-0.265,3.356-0.365c1.481-0.132,3.008-0.484,4.439-0.258c1.624,0.257,3.137-0.282,4.698-0.17
	c1.86,0.133,3.672-0.281,5.511-0.382c2.003-0.111,4-0.374,6.003-0.407c2.435-0.041,4.861-0.179,7.316,0.141
	c1.558,0.203,2.794,0.94,4.163,1.465c0.538,0.206,0.549,0.606,0.077,0.966c-1.219,0.931-2.43,1.874-3.68,2.762
	c-0.332,0.236-0.795,0.287-1.291,0.454c0.206,0.139,0.338,0.227,0.492,0.331c-0.613,0.272-1.212,0.542-1.814,0.806
	c-1.13,0.494-2.262,0.985-3.415,1.487c0.018,0.04,0.07,0.153,0.161,0.353c-0.799,0.036-1.525,0.068-2.25,0.101
	c0.029,0.061,0.058,0.121,0.087,0.182c-0.153,0.115-0.31,0.332-0.46,0.328c-1.82-0.047-3.638-0.153-5.458-0.187
	c-0.76-0.014-1.523,0.116-2.285,0.16c-0.218,0.013-0.449-0.012-0.658-0.074c-0.775-0.229-1.531-0.542-2.318-0.702
	c-0.497-0.101-1.038,0.012-1.714,0.034c0.878,0.328,1.54,0.575,2.202,0.822l-0.069,0.226c-0.4-0.081-0.8-0.161-1.199-0.242
	c-0.016,0.03-0.032,0.06-0.049,0.09c0.313,0.176,0.625,0.353,1.026,0.579c-0.302,0.035-0.524,0.06-0.887,0.102
	c1.634,0.881,3.299,0.433,4.873,0.653c1.584,0.222,3.181,0.358,4.845,0.54c-0.797,0.716-1.596,1.43-2.39,2.149
	c-0.159,0.144-0.32,0.294-0.446,0.466c-0.359,0.495-0.758,0.879-1.461,0.609c-0.046,0.061-0.092,0.122-0.138,0.183
	c0.301,0.327,0.603,0.654,1.005,1.091c-0.506,0.547-1.057,1.188-1.656,1.78c-0.918,0.907-1.929,1.726-2.793,2.679
	c-1.419,1.565-3.242,1.699-5.15,1.664c-0.395-0.007-0.792,0.061-1.186,0.046c-0.229-0.009-0.504-0.053-0.674-0.187
	c-0.758-0.602-1.328-1.319-1.206-2.381c0.01-0.085-0.069-0.18-0.325-0.326c-0.164,0.518-0.434,1.028-0.472,1.555
	c-0.032,0.449-0.019,0.892,0.033,1.327c-0.042,0.129-0.042,0.281,0.018,0.45c0.032,0.089,0.067,0.176,0.103,0.263
	c0.217,0.992,0.626,1.93,1.16,2.771c0.448,0.707,1.672,1.106,2.61,1.269c0.983,0.171,2.079,0.03,3.064-0.22
	c1.885-0.479,3.751-1.064,5.571-1.748c0.741-0.278,1.376-0.89,1.989-1.429c0.248-0.217,0.239-0.71,0.471-0.966
	c0.506-0.558,1.096-1.039,1.641-1.563c0.101-0.097,0.172-0.237,0.222-0.371c0.139-0.37-0.025-0.954,0.672-0.913
	c0.016,0.001,0.049-0.034,0.049-0.053c-0.002-1.153,1.343-1.468,1.555-2.532c0.094-0.472,0.198-1.165,0.988-1.182
	c0.073-0.002,0.135-0.25,0.213-0.377c0.491-0.794,0.937-1.622,1.489-2.371c0.679-0.921,1.793-1.088,2.804-1.375
	c1.571-0.446,3.142-0.954,4.749-1.191c1.357-0.2,2.588-0.636,3.792-1.221c0.332-0.162,0.621-0.412,0.939-0.605
	c0.267-0.162,0.548-0.3,0.905-0.327c0.122-0.217,0.244-0.434,0.412-0.734c0.194,0.169,0.412,0.276,0.501,0.45
	c0.593,1.152,1.205,2.299,1.718,3.487c0.505,1.169,0.453,1.185-0.546,1.866c-0.377,0.257-0.961,0.364-0.822,1.036
	c-0.895,0.467-0.839,1.496-1.29,2.23c-0.522,0.849-0.767,1.841-0.861,2.85c-0.007,0.071,0.015,0.156-0.017,0.211
	c-0.513,0.893-1.132,1.74-1.53,2.681c-0.673,1.591-2.124,2.312-3.442,3.306c0.229,0.046,0.384,0.076,0.789,0.157
	c-0.654,0.364-1.112,0.653-1.599,0.881c-0.468,0.219-0.772,0.497-0.872,1.045c-0.07,0.383-0.304,0.745-0.502,1.095
	c-0.951,1.683-2.044,3.257-3.613,4.435c-0.215,0.162-0.478,0.275-0.735,0.362c-0.616,0.21-1.242,0.391-2.051,0.641
	c2.755,0.704,4.557-0.724,6.376-2.103c0.045,0.048,0.089,0.096,0.134,0.144c-0.385,0.359-0.747,0.747-1.161,1.068
	c-0.447,0.346-0.944,0.63-1.427,0.946c0.734,0.483,1.019,0.353,4.338-1.991c-0.222,0.504-0.373,0.848-0.625,1.42
	c1.142-0.394,1.569-1.253,2.174-2.143c-0.107,0.567-0.186,0.98-0.302,1.595c0.453-0.315,0.729-0.507,1.047-0.728
	c0.846,1.435,1.398,2.976,1.729,4.589c0.345,1.679,0.584,3.363,0.435,5.104c-0.037,0.439,0.528,1.061,0.972,1.386
	c1.244,0.909,2.573,1.701,3.858,2.554c0.227,0.15,0.396,0.385,0.611,0.556c0.407,0.325,0.673,0.747,1.334,0.802
	c0.327,0.365,0.709,0.675,1.136,0.924c0.097,0.146,0.185,0.292,0.26,0.424c0.266,0.465,0.274,1.079,0.43,1.776
	c0.289-0.417,0.625-0.8,0.842-1.241c0.243-0.496,0.387-1.042,0.559-1.572c0.023-0.071,0.047-0.136,0.072-0.194
	c0.307,0.138,0.615,0.276,0.922,0.414c0.149,0.342,0.49,0.451,0.804,0.385c0.098,0.135,0.196,0.269,0.298,0.399
	c0.105,0.134,0.193,0.281,0.342,0.501c0.393-0.496,0.502-1.008,0.508-1.525c0.023-0.107,0.022-0.216-0.009-0.318
	c-0.031-0.55-0.136-1.103-0.101-1.644c1.289,0.254,2.149,0.938,2.638,2.276c0.11-0.295,0.316-0.593,0.308-0.885
	c-0.013-0.525-0.136-1.051-0.246-1.57c-0.233-1.103-0.572-2.192-0.706-3.306c-0.1-0.833-0.674-1.062-1.247-1.225
	c-2.233-0.637-4.009-2.042-5.857-3.339c-1.595-1.12-2.698-2.672-3.66-4.305c-0.728-1.236-1.259-2.589-1.863-3.897
	c-0.053-0.114-0.043-0.31,0.023-0.415c0.186-0.298,0.463-0.545,0.62-0.854c0.48-0.946,0.888-1.93,1.388-2.865
	c0.362-0.677,0.684-1.615,1.273-1.877c1.058-0.471,0.891-1.473,1.382-2.155c0.308-0.427,0.604-0.892,1.006-1.216
	c1.336-1.074,2.204-2.52,2.876-4.008c0.653-1.446,0.697-3.09,0.527-4.7c-0.109-1.036-0.464-2.168-0.175-3.09
	c0.285-0.91-0.256-1.499-0.245-2.243c0.013-0.868,0.037-1.737,0.054-2.605c0.002-0.101,0.001-0.203-0.011-0.303
	c-0.12-1.077-0.243-2.154-0.372-3.296c1.153,0.153,2.316,0.307,3.479,0.461c0.326,0.043,0.653,0.126,0.979,0.124
	c0.625-0.004,1.111,0.037,1.178,0.874c0.028,0.354,0.386,0.733,0.683,1.005c0.707,0.649,0.706,1.553,0.977,2.363
	c0.044,0.132,0.325,0.291,0.463,0.265c0.506-0.097,0.66,0.097,0.846,0.568c0.56,1.418,0.002,2.773-0.102,4.152
	c-0.06,0.793-0.185,1.581-0.229,2.375c-0.066,1.19-0.329,1.399-1.417,1.041c0.072,0.59,0.796,1.164,1.545,1.222
	c0.075,0.006,0.174-0.038,0.224-0.004c1.002,0.697,1.868-0.007,2.757-0.293c0.255-0.082,0.566-0.383,0.62-0.634
	c0.217-1,0.332-2.022,0.504-3.033c0.165-0.969,0.181-2.014,0.577-2.881c0.491-1.075-0.029-1.927-0.296-2.807
	c-0.292-0.966-0.86-1.849-1.297-2.746h4.508c0.028,0.068,0.056,0.135,0.083,0.203c-0.464,0.297-0.928,0.595-1.429,0.917
	c0.329,0.599,0.932,0.346,1.574,0.414c-0.334,0.45-0.626,0.843-0.918,1.236c0.041,0.079,0.083,0.159,0.124,0.238
	c0.543-0.215,1.086-0.43,1.678-0.664c0.257,0.96,0.616,1.974,0.782,3.019c0.164,1.034,0.131,2.1,0.189,3.224
	c0.19-0.038,0.323-0.065,0.677-0.137c-0.144,0.786-0.274,1.494-0.374,2.039c-0.512,0.051-0.992-0.045-1.228,0.152
	c-0.501,0.417-1.261,0.836-1.051,1.614c0.104,0.386,0.645,0.797,1.07,0.923c0.748,0.221,1.557,0.233,2.341,0.33
	c0.647,0.08,1.043-0.25,1.315-0.799c0.615-1.241,1.238-2.478,1.859-3.717c0.023-0.045,0.083-0.108,0.071-0.129
	c-0.3-0.498,0.133-0.981,0.045-1.44c-0.163-0.853-0.46-1.679-0.667-2.525c-0.141-0.576-0.223-1.165-0.333-1.749
	c-0.087-0.461-0.037-1.024-0.288-1.364c-0.698-0.944,0.067-1.629,0.327-2.371c0.256-0.732,0.763-1.374,1.052-2.098
	c0.271-0.679,0.381-1.421,1.098-1.829c0.09-0.051,0.131-0.205,0.175-0.318c0.526-1.395,1.071-2.783,1.563-4.19
	c0.226-0.645,0.344-1.328,0.513-1.993c0.296-1.164,0.604-2.324,0.882-3.492c0.071-0.297,0.12-0.632,0.058-0.924
	c-0.43-2.022-1.032-4.019-1.287-6.06c-0.142-1.14,0.262-2.353,0.458-3.527c0.031-0.187,0.287-0.326,0.405-0.51
	c0.157-0.243,0.385-0.501,0.402-0.765c0.065-1.016,0.941-1.857,1.946-1.805c0.923,0.047,1.851-0.013,2.776,0.014
	c0.182,0.005,0.454,0.151,0.523,0.304c0.611,1.356,1.281,2.734,1.025,4.267c-0.239,1.429,0.244,2.719,0.645,3.996
	c0.812,2.586,0.615,5.157,0.248,7.761c-0.033,0.236,0.177,0.681,0.367,0.743c0.756,0.247,1.542,0.451,2.331,0.528
	c0.456,0.044,0.891-0.138,0.878-0.842c-0.008-0.445,0.337-0.79,0.896-0.393c0.16,0.114,0.435,0.158,0.632,0.116
	c1.739-0.375,3.056-1.432,4.152-2.759c0.233-0.282,0.232-0.82,0.215-1.234c-0.055-1.317,0.548-2.316,1.392-3.243
	c0.152-0.167,0.225-0.543,0.15-0.759c-0.519-1.5-0.605-2.958,0.16-4.415c0.13-0.248,0.047-0.606,0.073-0.913
	c0.032-0.368,0.03-0.747,0.121-1.101c0.297-1.145,0.641-2.278,0.942-3.422c0.059-0.224,0.008-0.477,0.008-0.926
	c-0.427,0.449-0.681,0.716-0.922,0.969c0.071-0.997,0.15-1.966,0.198-2.936c0.006-0.112-0.16-0.232-0.33-0.461
	c-0.26,0.453-0.476,0.83-0.743,1.297c-0.466-1.193-0.167-2.527-0.935-3.672c-0.262,0.375-0.452,0.647-0.776,1.11
	c-0.288-0.872-6.72-11.11-4.639-4.497c-0.312-0.081-0.599-0.101-0.831-0.225c-1.106-0.592-2.245-0.971-3.501-1.228
	c-1.726-0.353-3.419-0.138-5.209-0.261c0.161,0.232,0.278,0.401,0.474,0.683c-0.872,0.111-1.644,0.292-2.414,0.286
	c-1.069-0.009-1.692,0.999-2.738,0.971c-0.001,0.061-0.002,0.123-0.003,0.184c0.229,0.082,0.459,0.163,0.779,0.277
	c-0.492,0.237-0.914,0.455-1.348,0.647c-0.605,0.269-1.173,0.532-1.671,1.038c-0.718,0.73-1.606,1.293-2.455,1.953
	c0.462,0.499-0.183,0.688-0.582,0.973c-0.489,0.349-0.492,0.345-0.281,0.719c-0.638,0.621-1.31,1.211-1.902,1.872
	c-0.515,0.575-1.223,1.18-1.343,1.861c-0.222,1.252-1.29,1.928-1.668,2.969c-0.535,1.473-1.706,2.181-2.926,2.732
	c-1.305,0.59-2.76,0.847-4.15,1.25c-0.684,0.102-0.142,0.216-0.181,0.607c-1.682-0.182-3.317-0.359-4.975-0.538
	c0.103,0.117,0.256,0.292,0.448,0.511c-1.67,0.149-3.178-0.363-4.817-0.88c0.139,0.239,0.215,0.369,0.296,0.508
	c-0.04,0.013-0.085,0.046-0.116,0.036c-0.606-0.181-1.205-0.386-1.816-0.547c-0.804-0.212-1.6-0.271-2.44-0.057
	c-0.41,0.105-0.902-0.111-1.412-0.019c0.28,0.185,0.561,0.37,0.841,0.555c-0.009,0.038-0.019,0.076-0.028,0.114
	c-0.857-0.231-1.714-0.462-2.742-0.739c0.261,0.344,0.428,0.563,0.649,0.854c-1.22,0.075-2.391,0.146-3.561,0.218
	c-0.011,0.054-0.023,0.108-0.034,0.162c0.502,0.108,1.004,0.217,1.706,0.368c-1.625,0.335-3.072,0.632-4.519,0.93l0.041,0.325h2.003
	c0.013,0.092,0.025,0.185,0.038,0.277c-1.248,0.32-2.496,0.64-3.744,0.96c-0.006,0.043-0.012,0.086-0.018,0.129
	c0.568,0.032,1.136,0.065,1.704,0.097c0.022,0.053,0.043,0.106,0.065,0.159c-1.633,0.494-3.265,0.988-4.898,1.482
	c-0.006,0.039-0.012,0.078-0.019,0.117l1.639,0.1c0.012,0.038,0.024,0.075,0.036,0.113c-0.994,0.239-1.988,0.477-3.031,0.727
	c0.031,0.069,0.103,0.23,0.258,0.578c-1.343,0.403-2.657,0.821-3.986,1.189c-0.949,0.263-2.067,0.23-2.84,0.738
	c-1.19,0.782-2.689,0.622-3.732,1.35c-0.904,0.63-1.804,0.637-2.748,0.902c0.255,0.076,0.51,0.153,0.834,0.249
	c-1.382,0.395-2.679,0.765-3.975,1.136c0.006,0.07,0.013,0.141,0.019,0.211c0.182,0.078,0.365,0.157,0.547,0.235
	c0.005,0.045,0.01,0.089,0.015,0.134c-2.733,0.287-5.466,0.573-8.421,0.884c0.445,0.083,0.675,0.126,0.905,0.168
	c0.004,0.049,0.007,0.097,0.011,0.146c-0.825,0.034-1.65,0.093-2.475,0.094c-0.834,0.001-1.668-0.05-2.502-0.086
	c-0.852-0.037-1.703-0.084-2.672-0.132c0.143,0.217,0.217,0.329,0.365,0.555c-0.647-0.046-1.213-0.085-1.905-0.134
	c0.216,0.177,0.351,0.287,0.644,0.527c-1.158-0.165-2.125-0.303-3.164-0.451c0.036,0.192,0.06,0.317,0.086,0.456
	c-0.074,0.005-0.148,0.025-0.217,0.014c-0.85-0.134-1.696-0.308-2.55-0.388c-0.271-0.025-0.752-0.349-0.874,0.275
	c-0.004,0.018-0.23,0-0.351-0.013c-1.326-0.136-2.657-0.231-3.974-0.425c-0.992-0.146-1.965-0.422-2.948-0.633
	c-0.115-0.025-0.241-0.003-0.406,0.111c0.246,0.123,0.491,0.246,0.737,0.37c-0.007,0.037-0.015,0.073-0.022,0.11
	c-0.477-0.132-0.949-0.285-1.431-0.392c-2.484-0.551-4.972-1.084-7.454-1.643c-0.312-0.07-0.586-0.293-0.896-0.388
	c-1.485-0.46-2.976-0.9-4.464-1.348c-0.19-0.057-0.378-0.124-0.568-0.18c-0.692-0.205-1.389-0.397-2.077-0.614
	c-0.497-0.157-0.999-0.314-1.473-0.528c-0.795-0.358-1.551-0.663-2.477-0.739c-1.308-0.107-2.592-0.572-3.873-0.931
	c-1.435-0.401-2.842-0.905-4.286-1.264c-0.755-0.187-1.563-0.16-2.38-0.139c0.915,0.448,1.83,0.895,2.927,1.432
	c-1.234-0.065-2.279-0.12-3.323-0.175c-0.029,0.092-0.058,0.185-0.088,0.277c0.541,0.297,1.082,0.594,1.763,0.968H2.404z"/>
</g>
</svg>
