<?xml version="1.0" encoding="utf-8"?>
<!-- Generator: Adobe Illustrator 17.1.0, SVG Export Plug-In . SVG Version: 6.00 Build 0)  -->
<!DOCTYPE svg PUBLIC "-//W3C//DTD SVG 1.1//EN" "http://www.w3.org/Graphics/SVG/1.1/DTD/svg11.dtd">
<svg version="1.1" id="Capa_1" xmlns="http://www.w3.org/2000/svg" xmlns:xlink="http://www.w3.org/1999/xlink" x="0px" y="0px"
	 viewBox="0 0 200 200" enable-background="new 0 0 200 200" xml:space="preserve">
<g>
<path d="M174.1,58.1c-0.1,0.3-0.2,0.6-0.4,0.9c-0.2,0.4-0.4,0.7-0.8,0.9c-1.1,0.5-2,1.2-2.3,2.5c0,0.1-0.1,0.3-0.2,0.4
	c-0.4,1.2-0.8,2.5-0.8,3.8c-0.1,3.5,1.4,6.6,2.4,9.7c1.2,3.6,2,7.5,1.9,11.3c-0.1,3.4-1,6.8-2.7,9.7c-1.3,2.3-3.9,5.5-6.3,6.6
	c-0.2,0.1-0.3,0.3-0.4,0.5c-0.4,0.7-0.8,1.5-1.2,2.2c-0.8,1.2-1.6,2.3-2.4,3.5c-0.7,1-1.5,1.9-2.5,2.7c-0.3,0.2-0.6,0.5-0.9,0.9
	c-0.1,0.1-0.1,0.3,0.1,0.3c0.2,0.1,0.4,0.2,0.5,0.2c0.2,0.1,0.5,0.2,0.7,0.2c1.6,0.7,3.3,1.3,4.9,2.1c0.8,0.4,1.7,0.8,2.4,1.3
	c1,0.8,1.9,1.7,2.9,2.4c0.5,0.3,0.8,0.9,0.9,1.5c0,0.6,0.1,1.3,0.1,1.9c0,1.5-0.1,2.9-0.1,4.4c0,0.5,0,1,0.1,1.6
	c0,0.3-0.1,0.5-0.3,0.6c-0.1,0.1-0.3,0.2-0.3,0.4c0,0.8-0.4,1.5-0.8,2.1c-0.5,0.9-1.2,1.2-2.1,1.1c-0.1,0-0.3,0-0.4-0.1
	c-0.4-0.2-0.7-0.1-1.1,0c-0.7,0.2-1.5,0.2-2.2-0.1c-0.6-0.3-1-0.7-1.1-1.4c0-0.2,0.1-0.3,0.2-0.2c1.5,0.2,2.1,0,2.5-1
	c0.1-0.2,0-0.4-0.1-0.5c-0.8-0.8-1-1.6-0.5-2.7c0.2-0.6,0.5-1.1,1-1.5c0.1-0.1,0.2-0.2,0.2-0.3c0.2-0.5,0.4-0.9,0.2-1.5
	c-0.2-0.6-0.3-1.3-0.4-1.9c0-0.2-0.2-0.4-0.3-0.4c-0.5-0.2-1-0.5-1.5-0.7c-1.4-0.7-2.8-1.1-4.4-1.1c-0.6,0-1.3,0-1.9,0
	c-2.1,0-4.1-0.4-6-0.8c-0.1,0-0.2,0-0.3-0.1c-0.2,0-0.3,0-0.3,0s0,0.2,0.1,0.3c0.7,0.9,1.4,1.7,2.1,2.5c0.9,1.1,2,1.8,3.2,2.6
	c0.6,0.4,1.1,0.9,1.4,1.5c0.4,0.8,0.8,1.5,1.2,2.3c0.2,0.3,0.2,0.5,0.2,0.8c-0.2,1.1-0.7,2.2-1.5,3c-1.1,1.2-2,2.6-2.6,4.1
	c-0.3,0.6-0.7,1.1-1.3,1.4c-0.2,0.1-0.4,0.2-0.5,0.4c-1,1.2-2.6,1.4-3.8,0.4c-0.3-0.2-0.6-0.3-0.9-0.1c-0.4,0.2-0.9,0.3-1.3,0.4
	c-2.1,0.4-4.1-2.1-3.5-3.8c0.1-0.2,0-0.4,0.1-0.6c0.1-0.1,0.3-0.1,0.3-0.1c0,0,0.1,0.1,0.1,0.1c0,0.6,0.4,1,0.8,1.4
	c0.4,0.4,0.9,0.6,1.5,0.4c0.5-0.2,0.9-0.5,1-1.1c0.1-0.9,0.8-1.2,1.7-1c0.1,0,0.2,0,0.3,0.1c0.3,0.2,0.6,0,0.7-0.2
	c0.2-0.4,0.5-0.8,0.6-1.3c0.4-1.4,0.4-1.5,1.1-2.4c0.1-0.1,0.1-0.4,0.1-0.5c-0.2-0.6-0.5-1.1-0.7-1.6c-0.1-0.2-0.2-0.4-0.4-0.6
	c-0.7-0.6-1.4-1.3-2.1-1.9c-1.5-1.1-2.6-2.5-3.9-3.8c-1.5-1.5-3-3-4.6-4.4c-1.3-1.2-2.8-2.3-4.2-3.4c-0.3-0.3-0.6-0.7-0.8-1.1
	c-0.2-0.3-0.3-0.6-0.2-1c0.3-1.1,0.6-2.3,1.5-3.1c0.3-0.3,0.6-0.7,0.7-1.1c0.3-0.7,0.4-1.4,0.6-2.1c0.3-1.1,0.6-2.3,1.3-3.2
	c0.1-0.1,0.2-0.3,0.3-0.4c0.1-0.1,0-0.3-0.2-0.3c-0.7-0.1-1.4-0.1-2-0.2c-1.8-0.3-3.6-0.5-5.4-0.8c-1.5-0.2-2.9-0.6-4.4-0.8
	c-2.6-0.4-5.2-0.6-7.8-0.6c-0.9,0-1.8,0-2.8,0.1c-0.2,0-0.3,0.1-0.3,0.3c0,0.3,0,0.5,0.1,0.7c0.2,1.3,0.2,2.6,0.1,3.9
	c-0.1,1.8-0.2,3.6-0.3,5.4c-0.1,1.5-0.3,3-0.8,4.4c-0.4,1-0.8,1.9-1.1,2.9c-0.1,0.1-0.2,0.3-0.3,0.4c-0.5,0.5-1,1-1.5,1.4
	c-0.7,0.7-1.5,1.4-2.2,2c-1.7,1.6-3.5,3.1-5.2,4.7c-1.3,1.2-2.4,2.6-3.7,3.9c-1.8,1.7-3.1,3.8-4.6,5.7c-1.3,1.8-2.3,3.7-3,5.8
	c-0.1,0.4-0.2,0.9-0.1,1.3c0.1,0.6,0.4,1.1,0.6,1.6c0.6,1,1,2.2,1.8,3.1c0.1,0.2,0.2,0.4,0.3,0.6c0.5,1,1.2,2,1.6,3
	c0.3,0.8,0.9,1.4,1.4,2.1c0.4,0.5,0.8,1,1.2,1.5c1,1.4,2.3,2.6,4,3.1c1.2,0.4,2.5,0.6,3.8,0.7c0.7,0.1,1.4,0.2,2,0.4
	c1.2,0.4,2.4,0.6,3.7,0.1c0.1,0,0.1,0,0.2-0.1c1.1-0.6,2.2-0.2,3.2,0.2c0.7,0.3,1.3,0.4,2,0.5c0.7,0.1,1.5,0.2,2,0.8
	c0.6,0.7,1.1,1.4,1.7,2.2c0.1,0.1,0.2,0.3,0.1,0.5c0,0.2-0.3,0.2-0.4,0.1c-0.4-0.3-0.7-0.5-1.1-0.7c-0.2-0.2-0.5-0.3-0.8-0.4
	c-0.6-0.2-1.3-0.1-1.9,0.1c-0.4,0.2-0.7,0.6-0.8,1.1c0,0.2-0.2,0.3-0.3,0.4c-0.9,0.2-1.7,0.1-2.5-0.2c-0.2,0-0.3,0.1-0.2,0.2
	c0,0.1,0.1,0.2,0,0.3c-0.1,0.2-0.3,0.1-0.4,0c-0.1-0.2-0.2-0.5-0.6-0.5c-0.3,0-0.4-0.1-0.7,0c-0.4,0.1-0.9,0-1.3,0
	c-0.2,0-0.3,0-0.4,0.1c0,0,0,0,0,0.1c-0.5,1.1-1.2,1.4-2.3,1.1c-0.6-0.1-1.1-0.4-1.7-0.6c-0.7-0.3-1.4-0.6-2.2-0.7
	c-1.4-0.2-2.7,0-4.1,0.2c-0.2,0-0.5,0-0.7-0.1c-1-0.5-1.7-1.3-2.1-2.3c-0.6-1.5-1.4-2.9-2.3-4.2c-0.8-1.2-1.5-2.3-2.3-3.5
	c-1-1.4-2.1-2.8-3.2-4.3c-1.1-1.5-2.1-3.1-3.2-4.6c-0.9-1.3-1.5-2.7-1.8-4.2c0-0.2,0-0.3,0-0.5c0.3-0.7,0.5-1.5,0.9-2.2
	c0.6-1.1,1.2-2.2,2-3.3c1.6-2.3,2.5-4.9,3.1-7.5c0.3-1.4,0.5-2.9,0.8-4.3c0.4-2.5,1.1-5,2-7.4c0.3-0.8,0.6-1.6,1.1-2.4
	c0.6-1,1.3-2.1,2.2-2.9c0.1-0.1,0.2-0.3,0.1-0.4s-0.3-0.2-0.4-0.1c-0.5,0.4-1,0.7-1.4,0.9c-2.2,1.1-4.3,2.5-6.7,3.3
	c-1.1,0.4-2.2,0.9-3.4,1.3c-0.8,0.3-1.6,0.5-2.5,0.8c-0.9,0.3-1.3,1.1-2,1.7c0,0,0,0-0.1,0c-1.2,1-2.5,2-3.7,3.1
	c-0.8,0.7-1.6,1.6-2.5,2.2c-1.4,1-2.8,1.9-4.3,2.9c-1.6,1-3.1,1.9-4.7,2.9c-0.9,0.6-1.9,1.1-2.8,1.6c-1,0.5-2,1-2.9,1.5
	c-1.1,0.7-2.2,1.5-3.3,2.3c-0.5,0.3-0.7,0.9-1.4,0.9c-0.1,0-0.2,0.2-0.2,0.3c-0.4,0.7-0.9,1.4-1.3,2.1c-0.7,1.3-1.4,2.6-2.2,3.8
	c-0.6,0.9-1,1.8-1.4,2.7c-0.1,0.4-0.2,0.8-0.4,1.2c-0.8,1.5-1.3,3-1.4,4.7c0,0.6-0.2,1.2-0.2,1.8c-0.2,1.6-0.2,3.2,0.8,4.7
	c0.9,1.4,2.2,2.2,3.9,2.1c0.5,0,1.1-0.1,1.6-0.1c0.5,0,1-0.1,1.3,0.3c0.1,0.1,0.3,0.2,0.4,0.1c1.5-0.9,3-0.2,4,1
	c0.6,0.8,0.5,1.7,0.5,2.5c0,0.2,0,0.3-0.1,0.5c-0.1,0.1-0.3,0.1-0.4,0c-0.2-0.2-0.4-0.4-0.6-0.6c-0.8-0.6-1.7-0.6-2.6-0.4
	c-0.3,0.1-0.5,0.2-0.6,0.4c-0.4,0.8-0.8,0.9-1.7,0.7c-0.7-0.2-1.4-0.4-2.1-0.6c-0.3-0.1-0.6-0.2-0.9-0.2c-0.2,0-0.3,0.2-0.4,0.3
	c0,0.3,0,0.7-0.3,0.8c-0.2,0-0.4-0.1-0.4-0.1c0-0.1-0.1-0.1-0.1-0.2c-0.5-0.6-1.1-1-1.8-1.2c-0.3-0.1-0.6-0.1-0.8,0.2
	c-0.4,0.7-1,0.9-1.8,0.9c-0.5,0-0.9-0.2-1.4-0.2c-1.1-0.2-1.6-0.8-1.8-1.8c-0.3-1.4-0.6-2.8-0.9-4.1c-0.2-0.8-0.3-1.5-0.5-2.3
	c0-0.3,0-0.6,0.1-0.9c0.3-1.1,0.7-2,1.3-2.9c1.7-2.4,2.9-5,3.7-7.8c0.5-1.8,0.8-3.7,1.2-5.5c0.3-1.3,0.5-2.7,0.8-4
	c0.2-0.9,0.9-1.6,1.9-1.7c1.2-0.2,2.4-0.6,3.4-1.2c2.3-1.3,4-3.2,5.4-5.4c0.9-1.3,1.7-2.6,2.5-3.9c0.8-1.3,1.7-2.5,2.6-3.8
	c1.2-1.9,2.7-3.5,4.5-4.8c0.5-0.4,1.1-0.7,1.6-1.2c1.8-1.5,3.9-2.5,6.1-3.2c0.3-0.1,0.6-0.2,0.7-0.6c0.6-1.8,1.7-3.2,2.7-4.8
	c1.1-1.7,2.4-3.3,3.6-4.9c1.2-1.5,2.4-3.1,3.9-4.3c0,0,0.1-0.1,0.1-0.1c0.1-0.1,0-0.2-0.2-0.3c-5.4-2.7-10.3-5.4-16.3-7
	c-5.8-1.6-11.8-2.6-17.7-3.7c-16.9-3-35.1-8.8-44.7-24.3c-3.4-5.6-4.7-12.9-1.6-18.6c3.1-5.6,9.9-8.5,16.3-8.4
	c8.5,0.2,16.8,4.7,23.8,9c1.9,1.1,3.6,2.5,5.4,3.7c1.5,1.1,2.8,2.4,4.1,3.7c0.1,0.1,0.1,0.1,0.1,0.2c0.1,0.1,0.1,0.3,0,0.3
	c0,0-0.2,0-0.3-0.1c-0.3-0.2-0.5-0.4-0.8-0.6c-2.7-1.9-5.6-3.6-8.6-5c-2.9-1.3-5.9-2.4-9-3.6c-1.6-0.6-3.2-1.1-4.9-1.3
	c-2.1-0.3-4.1-0.5-6.2-0.7c-4.2-0.5-8.5,0.3-12.2,2.4c-2.2,1.3-4.1,3.4-4.5,5.9c-0.3,1.6,0.1,3.2,0.7,4.7c1.3,3.3,3.8,6,6.6,8.2
	c3.2,2.4,6.9,4.4,10.6,5.9c10.6,4.2,21.6,5.4,33,4.6c9.6-0.7,19.1-2.7,28.4-5c2.4-0.6,4.9-1.2,7.4-1.2c1.9,0,3.4,1.1,5.2,1.5
	c1.8,0.4,3.5,0.7,5.3,1.3c4,1.3,7.9,2.7,11.8,4.1c7.8,2.9,15.5,6,23.5,8.5c1,0.3,1.9,0.2,2.8-0.2c0.7-0.3,1.3-0.5,2-0.8
	c1.5-0.5,3.1-0.6,4.6-0.2c1.7,0.5,3.5,1.6,5.1,0.7c1.3-0.7,2.1-2.3,2.2-3.7c0.1-2.2-0.8-4.3-1.5-6.3c-1.7-5.4-1.2-11.4,1.1-16.5
	c1.1-2.5,2.7-4.9,4.6-6.8c2-2,3.7-2.3,6.5-2.1c0.6,0,1.2,0.2,1.7,0.4c1,0.4,1.9,0.9,2.9,1.3c0.5,0.2,1.1,0.5,1.6,0.7
	c1.3,0.7,2.6,1.4,4,2c1.9,1,3.8,2,5.8,2.9c1.4,0.6,2.9,1.2,4.4,1.7c1,0.3,2,0.7,2.9,1.3c1.9,1.3,2.8,3.8,1.3,6
	c-0.5,0.8-0.8,1-1.7,0.8c-0.1,0-0.2,0-0.4,0c-0.2,0-0.3,0-0.3,0.1c0,0.1,0,0.1,0,0.2c0,1-0.4,1.6-1.4,1.7c-0.4,0-0.8,0-1.2-0.1
	c-2.2-0.5-4.4-1.2-6.6-1.4c-1.6-0.2-3.2-0.3-4.8-0.2c-0.8,0-1.6,0.1-2.4,0c-0.6,0-1.2-0.2-1.9-0.3C174.4,57.8,174.2,57.9,174.1,58.1
	z"/>
</g>
</svg>
