<?xml version="1.0" encoding="iso-8859-1"?>
<!-- Generator: Adobe Illustrator 17.1.0, SVG Export Plug-In . SVG Version: 6.00 Build 0)  -->
<!DOCTYPE svg PUBLIC "-//W3C//DTD SVG 1.1//EN" "http://www.w3.org/Graphics/SVG/1.1/DTD/svg11.dtd">
<svg version="1.1" id="Capa_1" xmlns="http://www.w3.org/2000/svg" xmlns:xlink="http://www.w3.org/1999/xlink" x="0px" y="0px"
	 viewBox="0 0 150 150" style="enable-background:new 0 0 150 150;" xml:space="preserve">
<g>
<path d="M135.303,58.965c-0.464-2.895-4.046-1.525-6.294-1.525c-1.361,0-2.799-1.57-4.446-1.57c-0.998,0-0.772,0.57-1.627-0.27
	c-2.952-2.882-7.1-3.529-10.312-0.717c-2.91,2.548-7.08,7.098-9.872,1.893c-1.97-3.674-5.064-6.973-8.811-8.93
	c-3.44-1.795-7.698-2.023-11.301-3.608c-1.994-0.881-3.859-0.411-5.768-1.057c-2.24-0.76-4.421-1.674-6.633-2.51
	c-4.834-1.836-9.809-3.093-14.959-3.64c-10.107-1.057-21.382-0.704-30.902,3.225c-4.886,2.019-8.034,6.169-11.597,9.908
	c-1.795,1.887-3.592,3.769-5.388,5.658c-1.13,1.186-4.684,2.283-4.837,3.797c-0.006,0.055,0.04,0.1,0.095,0.099
	c2.926-0.056,5.4-2.57,7.284-4.547c1.909-2.012,4.109-3.744,6.271-5.473c2.155-1.731,4.217-3.863,6.847-4.854
	c3.137-1.185,6.715-1.142,10.019-0.946c6.812,0.408,13.363,2.64,19.41,5.72c3.442,1.751,5.943,4.335,7.803,7.766
	c0.906,1.689,2.731,2.365,2.805,4.333c0.069,1.814,0.136,3.631,0.204,5.443c0.057,1.549-0.328,2.833-0.328,4.331
	c0,2.672-2.449,4.225-3.181,7.032c-0.905,3.474-0.132,7.228-1.258,10.634c-0.422,1.261-0.956,2.476-1.473,3.701
	c-0.781,1.836-0.314,2.591,0.237,4.446c0.507,1.708,0.877,3.459,1.102,5.226c0.262,2.066,0.695,2.536,1.495,4.284
	c0.299,0.68,0.995,1.496,1.772,1.948c0.048,0.028,0.117,0.082,0.154,0.123c0.705,0.782,2.522,2.903,2.14,3.601
	c-0.471,0.861,2.411-0.646,0.984-3.923c-0.034-0.078-0.069-0.143-0.103-0.208c-0.026-0.049-0.002-0.084,0.053-0.078
	c0.423,0.049,0.94,0.185,1.478,0.355c0.053,0.017,0.126,0.064,0.164,0.104c0.561,0.61,2.685,3,2.275,3.749
	c-0.43,0.787,1.933-0.407,1.255-3.119c-0.013-0.054,0.015-0.116,0.066-0.138c0.345-0.152,0.707-0.268,1.078-0.357
	c0.054-0.013,0.138-0.005,0.188,0.018c1.15,0.523,2.74,1.36,2.705,1.988c-0.05,0.911,1.63-1.273-0.302-3.466
	c-0.018-0.021-0.042-0.049-0.065-0.077c-0.035-0.043-0.143-0.186-0.253-0.31c-1.916-2.157-7.201-3.74-8.203-6.245
	c-1.933-4.526-1.646-9.2,0.743-13.467c2.256-4.03,4.321-7.89,5.554-12.369c0.015-0.053,0.044-0.137,0.073-0.184
	c0.851-1.399,4.355,2.159,5.851,2.595c0.053,0.015,0.086,0.069,0.067,0.121c-0.66,1.807-5.866,4.573-3.626,6.734
	c1.377,1.334,3.042,1.676,4.289,3.233c0.041,0.05,0.078,0.101,0.116,0.151c0.033,0.044,0.073,0.121,0.109,0.163
	c0.025,0.029,0.059,0.065,0.098,0.107c0.511,0.654,0.986,1.317,1.449,2.013c0.152,0.215,0.278,0.34,0.387,0.401
	c0.048,0.027,0.115,0.075,0.143,0.123c0.282,0.491,0.434,0.928,0.298,1.18c-0.428,0.793,1.955-0.428,1.23-3.164
	c-0.014-0.053,0.019-0.092,0.073-0.082c0.871,0.153,1.991,1.207,2.312,1.538c1.552,1.593,2.75,3.386,4.176,5.037
	c0.108,0.125,0.226,0.259,0.258,0.304c0.021,0.029,0.04,0.059,0.054,0.084c0.574,1.037,1.142,2.294,0.805,2.722
	c-0.496,0.629,1.466,0.07,1.739-2.039c0.007-0.055,0.05-0.076,0.098-0.048c0.704,0.413,1.339,0.813,1.531-0.144
	c0.026-0.122,0.039-0.246,0.052-0.37c0.006-0.055,0.049-0.075,0.095-0.044c0.517,0.345,0.89,0.701,0.873,1.007
	c-0.053,0.98,1.897-1.622-0.803-3.964c-0.221-0.192-0.422-0.33-0.611-0.442c-0.048-0.028-0.102-0.091-0.121-0.142
	c-0.251-0.657-0.551-1.285-0.851-1.85c-1.162-2.185-2.289-3.465-4.491-4.635c-1.073-0.566-5.882-2.129-5.882-3.712
	c0-1.688,2.398-1.033,3.278-0.151c0.117,0.117,0.215,0.267,0.256,0.299c0.026,0.021,0.056,0.037,0.082,0.044
	c1.052,0.266,2.595-0.027,3.654-0.027c2.834,0,3.689,3.181,6.599,3.451c0.165,0.015,0.339,0.023,0.359-0.008
	c0.011-0.016,0.011-0.039,0-0.064c-0.494-1.06-1.006-2.125-1.787-3.002c-0.037-0.041-0.025-0.088,0.028-0.104
	c1.762-0.529,3.629,1.343,5.497,1.299c0.055-0.001,0.084-0.047,0.054-0.094c-0.353-0.563-2.177-2.039-0.778-2.246
	c1.107-0.16,0.065-0.984-0.37-1.39c-0.04-0.038-0.05-0.11-0.01-0.148c0.588-0.561,4.371-1.407,5.026-1.653
	c2.566-0.965,4.716,0.476,5.238,2.688c0.013,0.054,0.024,0.143,0.026,0.198c0.025,0.698,0.018,1.953-0.35,2.104
	c-0.513,0.211,1.288,0.573,1.825-1.372c0.019-0.067,0.033-0.13,0.044-0.189c0.011-0.054,0.061-0.11,0.116-0.117
	c0.026-0.003,0.051-0.006,0.076-0.007c0.042-0.002,0.118,0.005,0.164,0.031c0.03,0.017,0.057,0.038,0.074,0.059
	c0.456,0.547,1.135,1.45,0.949,1.778c-0.273,0.483,1.367-0.346,0.587-2.207c-0.056-0.135-0.115-0.245-0.175-0.34
	c-0.029-0.047-0.056-0.128-0.059-0.183c-0.108-2.486-1.954-4.101-4.03-5.384c-0.047-0.029-0.053-0.083-0.013-0.12
	c2.135-2.009,6.617-4.731,9.658-3.82c3.142,0.94,3.746,4.571,5.541,6.858c1.61,2.049,3.867,3.672,5.861,5.335
	c2.182,1.819,4.469,4.293,6.996,5.624c2.576,1.353,5.588-2.759,3.578-4.388c-0.059-0.049-0.038-0.088,0.006-0.12
	c0.033-0.024,0.068-0.051,0.104-0.081c1.347-1.134,0.451-2.441,0.459-1.956c0.007,0.381-1.161,0.892-1.668,1.096
	c-0.051,0.021-0.126,0.007-0.166-0.031c-0.108-0.102-0.215-0.205-0.32-0.31c-0.039-0.039-0.034-0.095,0.01-0.127
	c0.042-0.03,0.085-0.063,0.13-0.101c1.347-1.134,0.451-2.441,0.459-1.956c0.004,0.215-0.368,0.47-0.784,0.69
	c-0.147,0.077-0.181,0.03-0.097-0.113c0.582-0.983-0.031-1.841-0.023-1.432c0.005,0.317-0.801,0.722-1.367,0.968
	c-0.051,0.022-0.119,0.003-0.151-0.042c-0.038-0.053-0.023-0.107,0.027-0.13c1.42-0.666,1.046-2.049,0.9-1.607
	c-0.103,0.311-1.055,0.425-1.67,0.467c-0.055,0.004-0.122-0.032-0.15-0.08c-0.044-0.075-0.087-0.15-0.13-0.226
	c-0.071-0.125-0.138-0.248-0.147-0.274c-0.009-0.027-0.011-0.046-0.002-0.048c1.67-0.633,1.257-2.163,1.104-1.702
	c-0.068,0.204-0.503,0.322-0.968,0.392c-0.164,0.024-0.181-0.032-0.054-0.138c0.874-0.735,0.58-1.747,0.451-1.36
	c-0.093,0.28-0.878,0.401-1.483,0.453c-0.055,0.005-0.114-0.035-0.131-0.087c-0.471-1.42-0.734-2.911-0.745-4.446
	c0-0.028,0.009-0.046,0.023-0.053c0.03-0.014,0.162,0.098,0.273,0.221c0.52,0.575-0.147,0.683,1.365,0.58
	c0.569-0.03,0.93,0.159,1.166,0.501c0.016,0.023,0.029,0.055,0.038,0.089c0.014,0.052,0.011,0.23-0.002,0.395
	c-0.032,0.406-0.111,0.762-0.284,0.839c-0.378,0.169,0.701,0.38,1.312-0.613c0.029-0.047,0.076-0.066,0.1-0.033
	s0.037,0.108,0.034,0.163c-0.027,0.446-0.101,0.858-0.288,0.941c-0.428,0.191,1.005,0.428,1.518-1.077
	c0.009-0.026,0.027-0.051,0.051-0.071c0.037-0.031,0.191-0.046,0.33-0.035c0.085,0.007,0.169,0.021,0.249,0.044
	c0.053,0.015,0.097,0.076,0.1,0.131c0.024,0.607,0.02,1.671-0.295,1.812c-0.444,0.198,1.12,0.456,1.577-1.244
	c0.014-0.052,0.019-0.094,0.023-0.135c0.005-0.055,0.052-0.117,0.105-0.131c0.817-0.215,1.699,0.93,1.484,2.043
	c-0.01,0.054,0.023,0.098,0.078,0.092c1.231-0.126,2.76-2.529,2.76-3.654c0-1.71-0.028-3.333-0.772-4.922
	c-1.087-2.317-2.908-4.171-4.933-5.692C137.798,61.409,135.554,60.552,135.303,58.965z M89.977,78.919
	c-0.015-0.019-0.023-0.044-0.017-0.071c0.47-2.184,6.968-1.013,6.968,0.262c0,0.998-4.181,0.359-4.687,0.219
	c-0.623-0.171-1.256-0.288-1.899-0.351C90.177,78.962,90.004,78.951,89.977,78.919z"/>
</g>
</svg>
