<?xml version="1.0" encoding="iso-8859-1"?>
<!-- Generator: Adobe Illustrator 17.1.0, SVG Export Plug-In . SVG Version: 6.00 Build 0)  -->
<!DOCTYPE svg PUBLIC "-//W3C//DTD SVG 1.1//EN" "http://www.w3.org/Graphics/SVG/1.1/DTD/svg11.dtd">
<svg version="1.1" id="Capa_1" xmlns="http://www.w3.org/2000/svg" xmlns:xlink="http://www.w3.org/1999/xlink" x="0px" y="0px"
	 viewBox="0 0 150 150" style="enable-background:new 0 0 150 150;" xml:space="preserve">
<g>
<path d="M3.314,65.936c-0.64-0.298-0.055-0.542,0.054-0.765c0.37-0.759,0.775-1.501,1.173-2.247c0.208-0.39,0.41-0.785,0.65-1.154
	c0.138-0.212,0.363-0.364,0.52-0.565c0.728-0.935,1.651-1.61,2.719-2.107c0.824-0.383,1.681-0.721,2.441-1.208
	c2.141-1.373,4.513-2.093,6.977-2.502c1.67-0.277,3.382-0.295,5.064-0.511c2.525-0.324,5.045-0.189,7.565-0.061
	c0.276,0.014,0.693-0.093,0.956-0.179c0.425-0.14,0.891-0.161,1.342-0.027c0.493,0.146,0.99,0.271,1.492,0.379
	c0.27,0.058,0.713,0.113,0.989,0.131c1.181,0.075,2.374,0.151,3.582,0.228c0.989-0.03,1.977-0.117,2.958-0.238
	c0.036-0.005,0.083-0.012,0.146-0.021c0.22-0.032,0.44-0.068,0.66-0.103c0.441-0.071,0.88-0.153,1.318-0.238
	c0.807-0.155,1.609-0.336,2.409-0.525c1.595-0.377,3.175-0.813,4.753-1.252c1.746-0.486,3.492-0.973,5.238-1.459
	c0.266-0.074,0.689-0.218,0.945-0.322c0.114-0.046,0.229-0.093,0.343-0.139c0.256-0.104,0.474-0.161,0.488-0.129
	c0.014,0.032,0.009,0.069-0.012,0.083s0.161-0.03,0.407-0.098c0.245-0.068,0.571-0.196,0.736-0.268
	c0.1-0.043,0.202-0.08,0.307-0.107c0.205-0.053,0.412-0.098,0.62-0.138c0.271-0.052,0.707-0.147,0.973-0.221
	c3.43-0.956,6.861-1.911,10.291-2.866c0.467-0.13,0.945-0.104,1.379,0.045c0.261,0.089,0.674,0.175,0.947,0.134
	c1.411-0.214,2.822-0.427,4.234-0.633c0.456-0.067,0.913-0.125,1.371-0.18c0.274-0.033,0.7-0.153,0.958-0.252
	c1.113-0.426,2.313-0.614,3.516-0.489c0.148,0.015,0.292,0.04,0.433,0.075c0.236,0.057,0.47,0.143,0.534,0.156
	c0.064,0.013,0.33-0.039,0.595-0.117c0.783-0.231,1.579-0.467,2.377-0.697c0.106-0.031,0.229-0.014,0.343-0.008
	c0.331,0.018,0.663,0.069,0.993,0.06c0.847-0.023,1.695-0.046,2.539-0.117c0.576-0.049,1.257-0.018,1.686-0.316
	c0.263-0.183,0.482-0.286,0.715-0.29c0.276-0.006,0.545-0.121,0.761-0.293c0.175-0.14,0.383-0.144,0.614-0.067
	c0.262,0.088,0.388,0.118,0.316-0.009c-0.072-0.127,0.092-0.187,0.344-0.074c0.176,0.079,0.342,0.166,0.518,0.218
	c0.437,0.129,1.012,0.373,1.327,0.2c0.317-0.174,0.542-0.215,0.719-0.149c0.259,0.096,0.451,0.249,0.576,0.128
	c0.09-0.086,0.178-0.157,0.266-0.157c0.621-0.001,1.238,0.075,1.71,0.567c0.07,0.073,0.23,0.154,0.296,0.122
	c0.487-0.232,0.894-0.159,1.249,0.12c0.217,0.171,0.391,0.209,0.441,0.026c0.05-0.183,0.23-0.332,0.406-0.332
	s0.381,0.215,0.458,0.48c0.007,0.026,0.015,0.051,0.022,0.076c0.077,0.265,0.292,0.322,0.48,0.127
	c0.188-0.195,0.556-0.277,0.781-0.116c0.258,0.184,0.415,0.418,0.44,0.744c0.021,0.275,0.024,0.412,0.114,0.307
	c0.09-0.105,0.242-0.017,0.341,0.197s0.268,0.442,0.378,0.51c0.11,0.068,0.199,0.065,0.199-0.007c0-0.073,0.224-0.112,0.496-0.064
	c0.386,0.069,0.534,0.168,0.605,0.464c0.065,0.268,0.247,0.622,0.474,0.779c0.16,0.111,0.32,0.222,0.478,0.333
	c0.084,0.058,0.168,0.117,0.252,0.176c0.139,0.097,0.285-0.037,0.326-0.298c0.041-0.26,0.16-0.265,0.271-0.012
	c0.319,0.723,0.469,0.925,0.734,0.813c0.254-0.108,0.54-0.106,0.703,0.117c0.205,0.281,0.407,0.558,0.603,0.828
	c0.163,0.223,0.343,0.43,0.403,0.462c0.06,0.032,0.221-0.021,0.359-0.116c0.137-0.095,0.28-0.034,0.32,0.136
	s0.136,0.358,0.222,0.406c0.086,0.048,0.258-0.017,0.389-0.116c0.081-0.062,0.165-0.115,0.256-0.152
	c0.052-0.021,0.144,0.057,0.243,0.151c0.119,0.113,0.261,0.149,0.316,0.083c0.055-0.066,0.167,0.016,0.251,0.182
	c0.084,0.166,0.286,0.192,0.452,0.056c0.166-0.135,0.521-0.202,0.792-0.15c0.343,0.067,0.681,0.133,1.032,0.201
	c0.271,0.053,0.533,0.063,0.585,0.023c0.052-0.04,0.146,0.026,0.21,0.15c0.064,0.123,0.163,0.214,0.222,0.202
	c0.035-0.007,0.071-0.015,0.106-0.024c0.011-0.003,0.021-0.005,0.032-0.007c0.017-0.003,0.022-0.105,0.01-0.23
	c-0.012-0.125,0.202-0.23,0.478-0.24c0.27-0.01,0.529-0.015,0.778,0.029c0.396,0.069,0.516-0.077,0.61-0.416
	c0.095-0.344,0.242-0.678,0.4-0.999c0.161-0.327,0.357-0.638,0.552-0.947c0.072-0.114,0.151-0.225,0.237-0.341
	c0.136-0.185,0.053-0.558,0.193-0.796c0.086-0.146,0.255-0.278,0.412-0.42c0.239-0.216,0.444-0.472,0.663-0.71
	c0.079-0.086,0.141-0.202,0.237-0.258c0.347-0.199,0.762-0.604,0.926-0.92c0.033-0.063,0.102-0.108,0.156-0.159
	c0.32-0.293,0.64-0.586,1-0.916c0.204-0.186,0.495-0.403,0.647-0.491c0.085-0.05,0.178-0.108,0.265-0.173
	c0.171-0.129,0.278-0.38,0.462-0.449c0.537-0.202,0.694-0.939,1.378-0.943c0.089,0,0.187-0.319,0.259-0.498
	c0.025-0.063,0.04-0.13,0.054-0.201c0.021-0.113,0.259-0.163,0.533-0.135c0.756,0.077,1.476,0.016,2.211-0.252
	c0.436-0.159,0.878-0.27,1.326-0.346c0.272-0.046,0.712-0.127,0.985-0.17c0.494-0.077,0.996-0.088,1.485-0.03
	c0.274,0.033,0.509,0.084,0.528,0.085s0.102-0.058,0.192-0.121c0.054-0.038,0.111-0.073,0.17-0.104
	c0.571-0.305,1.287-0.148,1.623,0.426c0.006,0.01,0.011,0.02,0.017,0.03c0.009,0.017,0.224,0.114,0.48,0.218
	c0.529,0.213,1.055,0.43,1.562,0.685c2.352,1.184,4.254,2.998,6.274,4.634c1.056,0.855,1.966,1.874,1.948,3.431
	c-0.011,0.891-0.181,1.341-1.013,1.699c-0.962,0.413-1.904,0.01-2.858-0.039c-1.393-0.072-2.763-0.674-4.207-0.072
	c-0.297,0.124-0.476,0.197-0.623,0.454c-0.111,0.193-0.23,0.382-0.35,0.571c-0.149,0.233-0.45,0.289-0.687,0.147
	c-0.218-0.13-0.361-0.182-0.483-0.166c-0.274,0.037-0.617,0.267-0.891,0.236c-0.467-0.052-0.903-0.101-1.323-0.148
	c-0.274-0.031-0.598,0.143-0.724,0.389c-0.075,0.147-0.149,0.291-0.222,0.434c-0.126,0.246-0.371,0.363-0.548,0.261
	c-0.177-0.102-0.457-0.086-0.626,0.036c-0.168,0.122-0.336,0.161-0.374,0.087s-0.185-0.043-0.339,0.054
	c-0.154,0.097-0.305,0.342-0.416,0.522c-0.111,0.18-0.334,0.188-0.414,0.087c-0.08-0.101-0.257,0.013-0.386,0.256
	c-0.138,0.26-0.266,0.515-0.397,0.768c-0.549,1.067-1.174,2.102-1.634,3.206c-0.622,1.491-1.622,2.708-2.627,3.921
	c-0.537,0.648-1.124,1.326-1.834,1.744c-1.696,1-3.482,1.849-5.224,2.773c-0.289,0.153-0.636,0.319-0.793,0.578
	c-0.795,1.311-1.866,2.371-3.073,3.261c-1.387,1.023-2.079,2.551-3.081,3.853c-0.243,0.315-0.17,0.624,0.054,0.923
	c0.767,1.02,1.648,1.909,2.757,2.567c1.586,0.941,3.199,0.97,4.858,0.23c0.079-0.035,0.24-0.045,0.265-0.005
	c0.052,0.082,0.086,0.236,0.043,0.309c-0.161,0.27-0.348,0.526-0.542,0.774c-0.542,0.69-0.422,1.13,0.409,1.474
	c0.474,0.196,0.967,0.359,1.413,0.607c0.16,0.089,0.3,0.212,0.435,0.344c0.198,0.192,0.339,0.395,0.315,0.452
	s-0.269,0.104-0.545,0.104c-0.375,0-0.751,0-1.126,0c-0.276,0-0.513,0.035-0.53,0.079c-0.016,0.044,0.061,0.181,0.173,0.308
	c0.068,0.076,0.135,0.153,0.202,0.229c0.26,0.296,0.542,0.575,0.768,0.895c0.049,0.07,0.066,0.163,0.074,0.261
	c0.013,0.151-0.115,0.294-0.284,0.318c-0.113,0.016-0.221,0.021-0.305-0.021c-0.384-0.19-0.719-0.475-1.091-0.694
	c-0.131-0.077-0.27-0.139-0.437-0.209c-0.247-0.104-0.377,0.023-0.289,0.285c0.071,0.211,0.125,0.379,0.147,0.551
	c0.011,0.088-0.014,0.18-0.048,0.274c-0.053,0.146-0.209,0.213-0.346,0.15c-0.083-0.038-0.164-0.079-0.241-0.126
	c-0.068-0.042-0.131-0.093-0.199-0.153c-0.105-0.091-0.248-0.012-0.319,0.177c-0.071,0.189-0.246,0.249-0.39,0.132
	c-0.092-0.074-0.175-0.145-0.247-0.225c-0.468-0.521-0.852-1.152-1.404-1.554c-0.627-0.457-1.399-0.713-2.11-1.055
	c-1.707-0.822-3.444-1.598-4.74-3.058c-0.452-0.509-0.9-1.02-1.361-1.544c-0.182-0.207-0.326-0.295-0.321-0.195
	c0.003,0.065,0.01,0.126,0.037,0.176c0.994,1.855,2.158,3.598,3.775,4.965c0.75,0.634,1.633,1.002,2.684,0.504
	c0.21-0.099,0.485-0.061,0.808-0.018c0.274,0.036,0.365,0.231,0.202,0.454c-0.292,0.4-0.529,0.723-0.759,1.051
	c-0.592,0.842-0.565,1.339,0.038,2.192c0.487,0.688,0.953,1.394,1.383,2.119c0.091,0.154,0.051,0.473-0.056,0.629
	c-0.085,0.124-0.395,0.201-0.551,0.145c-0.266-0.094-0.498-0.295-0.727-0.475c-0.106-0.084-0.207-0.175-0.306-0.268
	c-0.164-0.154-0.248-0.061-0.149,0.197c0.139,0.364,0.314,0.696,0.409,1.049c0.062,0.231,0.049,0.482,0.027,0.735
	c-0.024,0.275-0.227,0.378-0.46,0.229c-0.167-0.107-0.333-0.215-0.495-0.328c-0.075-0.052-0.106-0.164-0.162-0.245
	c-0.12-0.171-0.241-0.341-0.377-0.533c-0.16-0.225-0.327-0.187-0.373,0.085c-0.048,0.28-0.092,0.54-0.135,0.791
	c-0.046,0.272-0.134,0.493-0.196,0.494c-0.062,0.001-0.178-0.135-0.26-0.303c-0.049-0.102-0.097-0.204-0.14-0.308
	c-0.158-0.381-0.29-0.775-0.466-1.147c-0.03-0.063-0.088-0.113-0.152-0.159c-0.1-0.072-0.233-0.035-0.297,0.08
	c-0.039,0.07-0.075,0.14-0.102,0.214c-0.081,0.219-0.157,0.441-0.232,0.662c-0.088,0.262-0.209,0.464-0.269,0.453
	c-0.06-0.011-0.174-0.235-0.248-0.501c-0.146-0.523-0.282-1.05-0.506-1.536c-0.383-0.832-0.719-1.794-1.366-2.376
	c-1.882-1.692-3.855-3.28-5.293-5.397c-0.828-1.22-1.497-2.522-1.584-4.029c-0.019-0.335,0.027-0.674,0.074-1.003
	c0.039-0.273-0.153-0.445-0.422-0.382c-0.904,0.212-1.796,0.425-2.691,0.627c-2.022,0.458-4.048,0.897-6.067,1.367
	c-0.644,0.15-1.208,0.417-1.365,1.186c-0.093,0.456-0.242,0.921-0.463,1.328c-0.829,1.526-1.684,3.038-2.56,4.537
	c-0.287,0.49-0.646,0.945-1.014,1.38c-0.663,0.784-1.444,1.484-2.012,2.328c-0.449,0.667-0.782,1.474-0.937,2.263
	c-0.327,1.659,0.051,3.289,0.489,4.894c0.228,0.836,0.769,1.459,1.516,1.807c1.086,0.506,2.229,0.89,3.349,1.321
	c0.991,0.381,1.999,0.723,2.968,1.154c0.118,0.052,0.198,0.188,0.271,0.343c0.105,0.223,0.048,0.474-0.128,0.557
	c-0.11,0.052-0.22,0.096-0.335,0.11c-0.532,0.066-1.067,0.111-1.61,0.156c-0.275,0.023-0.427,0.273-0.548,0.508
	c-0.121,0.235-0.361,0.29-0.353,0.302s-0.208-0.001-0.482-0.027c-0.2-0.019-0.368-0.036-0.535-0.058
	c-0.8-0.103-1.596-0.268-2.399-0.306c-1.345-0.063-2.648-0.199-3.937-0.683c-0.852-0.32-1.508-0.714-1.925-1.524
	c-0.08-0.155-0.347-0.203-0.501-0.332c-0.113-0.095-0.285-0.288-0.254-0.36c0.271-0.624,0.156-1.258,0.07-1.882
	c-0.165-1.192-0.374-2.379-0.562-3.568c-0.269-1.705-0.461-3.409,0.186-5.08c0.176-0.455,0.443-0.884,0.563-1.351
	c0.43-1.675,0.83-3.359,1.212-5.046c0.371-1.636,0.523-1.67-1.307-2.052c-0.853-0.178-1.23,0.046-1.522,0.893
	c-0.141,0.408-0.283,0.82-0.476,1.204c-0.511,1.015-1.102,1.992-1.568,3.026c-0.832,1.845-2.119,3.366-3.381,4.901
	c-1.001,1.219-2.172,2.322-2.522,3.939c-0.172,0.796-0.412,1.634-0.319,2.418c0.168,1.423,0.541,2.824,0.866,4.226
	c0.289,1.246,1.078,2.073,2.267,2.535c0.674,0.262,1.343,0.536,2.015,0.802c0.257,0.102,0.481,0.186,0.499,0.191
	c0.011,0.003,0.022,0.006,0.033,0.011c0.434,0.16,0.868,0.321,1.303,0.481c0.303,0.112,0.506,0.398,0.414,0.73
	c-0.017,0.063-0.047,0.124-0.087,0.179c-0.064,0.089-0.101,0.171-0.057,0.207s-0.141,0.093-0.416,0.128
	c-0.214,0.027-0.42,0.052-0.631,0.079c-0.274,0.034-0.319,0.197-0.096,0.361c0.144,0.106,0.28,0.205,0.408,0.302
	c0.22,0.167,0.409,0.323,0.433,0.335l0.044,0.022c0.095,0.048,0.167,0.123,0.215,0.212c0.081,0.149,0.094,0.372,0.099,0.469
	c0.003,0.063-0.001,0.123-0.015,0.175c-0.043,0.164-0.363,0.305-0.583,0.36c-0.279,0.07-0.598-0.011-0.872,0.067
	c-0.938,0.269-1.835,0.148-2.702-0.237c-0.779-0.346-1.548-0.716-2.346-1.095c-0.25-0.118-0.417-0.13-0.372-0.028
	c0.045,0.102,0.142,0.254,0.186,0.356c0.043,0.102,0.139,0.38,0.233,0.614c0.057,0.142,0.111,0.284,0.159,0.428
	c0.072,0.213,0.09,0.613-0.023,0.685c-0.236,0.151-0.573,0.173-0.872,0.186c-0.206,0.009-0.417-0.127-0.625-0.123
	c-0.605,0.012-1.134-0.153-1.564-0.581c-0.515-0.513-1.025-1.031-1.521-1.563c-0.336-0.361-0.587-0.825-0.973-1.113
	c-1.285-0.959-1.519-2.34-1.614-3.781c-0.115-1.75-0.216-3.501-0.276-5.253c-0.034-0.981-0.137-2.004,0.08-2.942
	c0.46-1.992,1.108-3.937,1.398-5.975c0.205-1.443,0.478-2.88,0.792-4.305c0.392-1.777,1.296-3.338,2.201-4.894
	c0.069-0.119,0.114-0.334,0.053-0.432c-0.453-0.731-0.799-1.614-1.438-2.124c-1.053-0.841-2.319-1.409-3.459-2.147
	c-0.674-0.437-1.432-0.869-1.886-1.496c-1.165-1.61-2.676-2.794-4.436-3.548c-2.134-0.915-4.356-1.661-6.597-2.275
	c-1.878-0.515-3.849-0.678-5.756-1.101c-2.544-0.564-5.061-1.251-7.6-1.843c-2.405-0.56-4.604-1.654-6.878-2.557
	c-1.577-0.626-3.169-1.227-4.79-1.725c-2.163-0.665-4.406-0.886-6.666-0.938c-1.387-0.032-2.773,0.019-4.103,0.424
	c-0.588,0.179-1.199,0.47-1.647,0.878c-0.634,0.576-1.403,1.072-1.708,1.954c-0.09,0.261-0.271,0.281-0.545,0.248
	c-0.211-0.026-0.323,0.165-0.427,0.46c-0.135,0.385-0.352,0.752-0.593,1.084c-0.131,0.18-0.379,0.368-0.587,0.384
	c-0.906,0.071-1.151,0.226-1.463,1.073c-0.039,0.107-0.083,0.269-0.162,0.297c-0.749,0.262-0.926,0.996-1.258,1.569
	c-0.301,0.518-0.516,1.086-0.746,1.656c-0.103,0.256-0.391,0.361-0.637,0.235c-0.073-0.037-0.146-0.074-0.219-0.111
	c-0.246-0.125-0.35-0.44-0.359-0.716c-0.017-0.53-0.28-1.099,0.148-1.603C3.343,66.065,3.337,65.946,3.314,65.936z"/>
</g>
</svg>
