<?xml version="1.0" encoding="iso-8859-1"?>
<!-- Generator: Adobe Illustrator 17.1.0, SVG Export Plug-In . SVG Version: 6.00 Build 0)  -->
<!DOCTYPE svg PUBLIC "-//W3C//DTD SVG 1.1//EN" "http://www.w3.org/Graphics/SVG/1.1/DTD/svg11.dtd">
<svg version="1.1" id="Capa_1" xmlns="http://www.w3.org/2000/svg" xmlns:xlink="http://www.w3.org/1999/xlink" x="0px" y="0px"
	 viewBox="0 0 150 150" style="enable-background:new 0 0 150 150;" xml:space="preserve">
<g>
	<path d="M3.07,80.113c0.197-0.176,0.37-0.33,0.536-0.477c0.206-0.184,0.251-0.403,0.101-0.488s-0.249-0.377-0.218-0.651
		c0.029-0.259,0.052-0.469,0.062-0.679c0.059-1.257,1.083-1.175,1.838-1.172c4.214,0.015,8.438,0.328,12.639,0.131
		c7.062-0.331,14.002,0.659,20.989,1.306c3.287,0.304,6.688,0.318,9.942-0.171c5.568-0.836,11.045-2.256,16.589-3.271
		c4.706-0.861,9.411-1.634,14.249-1.706c4.996-0.074,9.984-0.754,14.974-1.188c1.834-0.16,3.663-0.375,5.494-0.566
		c0.983-0.104,2.732,0.013,2.732,0.013c3.236,0.542,6.472,1.083,9.708,1.625c0.272,0.046,0.675-0.051,0.948-0.097
		c0.223-0.037,0.555-0.065,1.049-0.063c2.139,0.011,4.14-0.261,6.061-1.362c2.46-1.41,3.619-3.7,4.802-6.079
		c1.135-2.283,2.549-4.314,4.665-5.447c0.877-0.469,0.605-1.419,1.753-1.533c2.462-0.246,5.969,0.427,7.996,1.303
		c1.979,0.855,3.758,2.523,5.348,4.292c0.663,0.737,1.345,1.585,1.627,2.502c0.296,0.965,0.569,2.431,0.071,3.054
		c-0.369,0.462-0.806,0.832-1.286,1.107c-0.412,0.236-0.856-0.231-1.316-0.135c-1.147,0.24-2.393,0.676-3.49,0.021
		c-3.824-2.282-7.136-0.87-10.248,1.336c-4.588,3.253-8.731,7.146-14.269,8.944c-1.21,0.393-2.731,1.632-2.988,2.74
		c-0.413,1.783-1.397,2.76-2.701,3.668c-1.414,0.983-2.856,1.926-4.329,2.909c-0.23,0.153-0.213,0.374,0.037,0.491
		c1.121,0.529,2.165,1.027,3.217,1.507c2.331,1.065,2.162,1.02,1.581,3.524c-0.81,3.49-2.482,6.871-1.768,10.638
		c0.051,0.271-0.092,0.384-0.316,0.222c-1.775-1.279-1.096-3.176-0.989-4.91c0.017-0.276-0.078-0.293-0.187-0.04
		c-1.13,2.606-2.167,5.179-3.202,7.753c-0.096,0.238-0.119,0.669-0.254,0.704c-2.193,0.557-1.603,2.38-1.798,3.847
		c-0.006,0.044-0.05,0.083-0.109,0.131c-0.075,0.06-0.256-0.073-0.41-0.303c-0.059-0.088-0.118-0.176-0.179-0.267
		c-0.154-0.229-0.266-0.187-0.345,0.078c-0.072,0.241-0.201,0.468-0.389,0.656c-0.083,0.083-0.173,0.153-0.269,0.212
		c-0.161,0.1-0.432,0.335-0.583,0.566c-0.181,0.277-0.361,0.551-0.539,0.824c-0.151,0.231-0.404,0.382-0.565,0.338
		c-0.161-0.044-0.339-0.298-0.399-0.568c-0.107-0.48-0.218-0.959-0.329-1.439c-0.062-0.269-0.13-0.505-0.152-0.528l-0.041-0.041
		c-0.349-0.349-0.496-0.83-0.445-1.292c0.03-0.275,0.114-0.527,0.094-0.584c-0.012-0.036-0.025-0.07-0.037-0.104
		c-0.028-0.079-0.046-0.161-0.055-0.246c-0.015-0.138-0.013-0.297-0.024-0.354c-0.011-0.057-0.182-0.263-0.304-0.51
		c-0.102-0.207-0.16-0.438-0.16-0.681v-0.264c0-0.128,0.017-0.252,0.049-0.371c0.053-0.2,0.103-0.575,0.156-0.846
		c0.012-0.06,0.027-0.119,0.046-0.178c0.084-0.263,0.235-0.579,0.24-0.745c0.003-0.1,0.004-0.2,0.002-0.3
		c-0.001-0.058-0.008-0.116-0.019-0.174c-0.017-0.095-0.227-0.304-0.375-0.538c-0.176-0.277-0.261-0.612-0.256-0.945
		c0.004-0.276,0.054-0.643,0.03-0.828c-0.024-0.185-0.115-0.466-0.166-0.639s-0.226-0.482-0.341-0.733
		c-0.127-0.276-0.176-0.59-0.149-0.896c0.025-0.275-0.051-0.647-0.167-0.897c-0.038-0.083-0.07-0.169-0.094-0.257
		c-0.074-0.266-0.266-0.605-0.45-0.81c-0.252-0.28-0.408-0.646-0.408-1.045c0-0.069,0.006-0.136,0.016-0.201
		c0.017-0.11-0.081-0.368-0.157-0.611c-0.045-0.145-0.07-0.298-0.07-0.456v-0.106c0-0.035,0.003-0.07,0.007-0.104
		c0.007-0.057-0.059-0.198-0.123-0.332c-0.038-0.08-0.07-0.163-0.092-0.252c-0.035-0.141-0.07-0.282-0.106-0.423
		c-0.021-0.085-0.034-0.169-0.04-0.254c-0.01-0.141-0.205-0.362-0.383-0.574c-0.268-0.318-0.392-0.745-0.373-1.164
		c0.013-0.276,0.02-0.702-0.07-0.964c-0.069-0.2-0.138-0.401-0.209-0.606c-0.09-0.261-0.221-0.256-0.305,0.007
		c-0.172,0.535-0.321,0.891-0.297,1.234c0.268,3.855-1.653,6.928-4.345,9.077c-2.505,1.999-3.914,4.442-5.298,7.115
		c-1.692,3.269-1.917,6.501-0.339,9.868c0.58,1.238,1.126,2.533,1.405,3.861c0.585,2.79,2.598,3.957,5.001,4.709
		c0.896,0.281,1.897,0.225,2.796,0.499c0.59,0.18,1.131,0.523,1.679,0.842c0.239,0.139,0.256,0.399-0.018,0.436
		c-0.661,0.091-1.377-0.435-1.606,0.096c-0.109,0.254-0.299,0.504-0.575,0.52c-2.076,0.118-4.048,0.234-6.021,0.338
		c-2.06,0.109-3.073-0.774-3.192-2.818c-0.039-0.667-0.02-1.338-0.011-2.043c0.003-0.276-0.216-0.455-0.487-0.4
		c-0.231,0.047-0.445,0.091-0.664,0.136c-0.271,0.055-0.386-0.098-0.282-0.354c0.601-1.486,0.377-2.84-0.109-4.202
		c-0.674-1.886-1.433-3.752-1.937-5.683c-0.194-0.745,0.071-1.699,0.366-2.466c0.851-2.206,1.983-4.314,2.711-6.555
		c1.123-3.458,2.007-6.994,2.973-10.502c0.041-0.15,0.043-0.31,0.035-0.474c-0.013-0.263-0.1-0.473-0.194-0.471
		s-0.302,0.185-0.46,0.412c-0.804,1.151-1.533,2.377-2.511,3.354c-3.332,3.33-6.613,6.693-8.703,10.978
		c-0.725,1.487-1.438,3.101-1.602,4.713c-0.249,2.453-0.027,4.956,0.019,7.437c0.063,3.417,1.164,4.61,4.602,5.14
		c0.824,0.127,1.646,0.359,2.424,0.66c0.272,0.105,0.504,0.317,0.733,0.534c0.2,0.19,0.338,0.437,0.299,0.561
		s-0.294,0.236-0.57,0.252c-1.38,0.081-2.76,0.18-4.141,0.212c-1.468,0.034-2.942,0.034-4.407-0.048
		c-1.756-0.098-2.534-1.115-2.26-2.856c0.056-0.356,0.162-0.704,0.27-1.063c0.079-0.264-0.084-0.494-0.359-0.511
		c-0.015-0.001-0.03-0.002-0.045-0.003c-0.276-0.017-0.461-0.251-0.432-0.525c0.079-0.754,0.08-1.482,0.415-1.991
		c1.448-2.204,0.808-4.59,0.87-6.924c0.05-1.879-0.228-3.844,1.081-5.474c3.015-3.754,5.212-7.9,6.181-12.657
		c0.263-1.29,0.666-2.55,0.95-3.836c0.067-0.305-0.031-0.679-0.146-0.987c-0.401-1.072-1.011-2.097-1.225-3.201
		c-0.26-1.344-0.917-2.19-2.128-2.713c-3.659-1.58-7.294-2.654-11.463-2.086c-3.679,0.501-7.482,0.024-11.225,0.143
		c-2.973,0.095-5.723-0.644-8.51-1.528c-1.512-0.479-3.182-0.651-4.778-0.636c-6.001,0.053-11.62,2.285-17.472,3.204
		c-0.935,0.147-1.767,0.716-2.955-0.203c-0.991-0.766-2.793-0.499-4.239-0.658c-1.315-0.144-2.633-0.257-3.976-0.381
		c-0.275-0.025-0.433-0.242-0.352-0.484c0.081-0.241-0.076-0.464-0.35-0.498c-0.182-0.022-0.369-0.045-0.573-0.07
		c-0.274-0.034-0.355-0.234-0.181-0.448c0.071-0.087,0.138-0.17,0.204-0.25c0.174-0.214,0.096-0.449-0.179-0.432
		c-0.813,0.05-1.704,0.559-2.371-0.236c-0.178-0.211-0.491-0.44-0.767-0.463c-0.138-0.011-0.286-0.024-0.439-0.037
		c-0.275-0.023-0.567-0.149-0.652-0.283c-0.085-0.133,0.048-0.337,0.297-0.455c0.206-0.098,0.429-0.203,0.69-0.327
		c0.25-0.118,0.233-0.26-0.038-0.317c-0.615-0.129-1.09-0.228-1.601-0.336C2.917,80.492,2.864,80.297,3.07,80.113z"/>
</g>
</svg>
