<?xml version="1.0" encoding="iso-8859-1"?>
<!-- Generator: Adobe Illustrator 17.1.0, SVG Export Plug-In . SVG Version: 6.00 Build 0)  -->
<!DOCTYPE svg PUBLIC "-//W3C//DTD SVG 1.1//EN" "http://www.w3.org/Graphics/SVG/1.1/DTD/svg11.dtd">
<svg version="1.1" id="Capa_1" xmlns="http://www.w3.org/2000/svg" xmlns:xlink="http://www.w3.org/1999/xlink" x="0px" y="0px"
	 viewBox="0 0 150 150" style="enable-background:new 0 0 150 150;" xml:space="preserve">
<g>
<path style="fill:#1D1D1B;" d="M145.421,70.666c0.008-0.451-0.268-0.874-0.727-1.028c-0.153-0.051-0.372-0.154-0.484-0.269
	c-0.859-0.883-1.97-1.573-3.297-1.923c-0.155-0.041-0.362-0.173-0.477-0.286c-0.025-0.024-0.05-0.047-0.075-0.07
	c-0.042-0.038-0.084-0.072-0.121-0.101c-0.068-0.054-0.069-0.113-0.093-0.183c-0.012-0.035-0.03-0.077-0.054-0.122
	c-0.473-0.916-1.283-1.239-2.356-1.392c-1.172-0.167-2.295-0.687-3.437-1.062c-4.648-1.524-8.689,0.001-11.203,4.228
	c-1.414,2.379-4.697,3.729-7.281,2.881c-3.061-1.005-11.024-3.75-11.686-3.958c-3.972-1.252-8.085-1.516-12.231-1.365
	c-4.217,0.153-8.453,0.097-12.649,0.483c-0.08,0.007-0.159,0.016-0.239,0.025c-0.132,0.015-0.369,0.015-0.529,0.002
	c-0.153-0.012-0.306-0.025-0.459-0.037c-0.045-0.004-0.08,0.015-0.104,0.044c-0.041,0.051-0.166,0.125-0.326,0.145
	c-6.724,0.835-13.184,2.902-19.69,4.758c-1.26,0.359-2.527,0.704-3.799,1.03c-0.156,0.04-0.413,0.075-0.573,0.089
	c-0.483,0.042-0.921,0.151-1.311,0.317c-0.148,0.063-0.39,0.154-0.547,0.19c-2.156,0.501-4.326,0.932-6.507,1.249
	c-2.58,0.375-5.307-0.109-7.953-0.363c-0.436-0.042-0.872-0.084-1.308-0.126c-1.44-0.208-2.882-0.338-4.331-0.386
	c-3.676-0.28-7.355-0.385-11.049,0.103c-4.414,0.583-8.601,1.959-12.595,3.881c-1.166,0.561-2.188,1.42-3.262,2.173
	c-0.132,0.092-0.177,0.28-0.101,0.422c0.078,0.145,0.265,0.223,0.419,0.178c0.753-0.22,1.506-0.438,2.257-0.663
	c5.737-1.719,11.597-3.261,17.573-2.65c4.776,0.488,9.538,1.726,14.133,3.179c3.457,1.093,6.893,1.928,10.479,2.182
	c7.464,0.528,14.923,0.677,22.379-0.229c2.963-0.36,4.515,0.957,5.015,3.86c0.027,0.159-0.04,0.386-0.147,0.506
	c-0.821,0.918-1.665,1.682-2.21,2.619c-1.312,2.255-3.362,3.442-5.679,4.275c-1.265,0.455-1.86,1.265-1.929,2.57
	c-0.075,1.399-0.049,2.829-0.354,4.18c-0.232,1.03-0.946,1.944-1.388,2.935c-0.91,2.039-1.83,4.085-1.371,6.485
	c0.03,0.158,0.181,0.235,0.33,0.173c0.183-0.076,0.38-0.157,0.613-0.254c0.149-0.062,0.246,0.017,0.218,0.175
	c-0.052,0.293-0.1,0.563-0.147,0.825c-0.028,0.158,0.078,0.26,0.227,0.2c1.065-0.434,1.649-1.914,1.756-4.445
	c0.007-0.161,0.018-0.309,0.027-0.331c0.032-0.104,0.039-0.17,0.038-0.236c-0.003-0.109,0.014-0.234,0.068-0.282
	c0.033-0.029,0.066-0.058,0.098-0.088l0.046-0.041c0.025-0.022,0.172-0.073,0.324-0.125c1.096-0.375,1.551-1.084,1.609-2.401
	c0.034-0.774,0.052-1.553,0.146-2.321c0.517-4.246,2.025-5.577,6.617-6.341c2.654-0.442,5.358-0.581,8.04-0.84
	c0.16-0.016,0.311,0.1,0.333,0.26c0.406,2.939-0.248,5.784-2.16,8.42c-0.451,0.622-0.412,1.871-0.142,2.678
	c0.39,1.166,1.286,2.153,1.8,3.291c0.424,0.937,0.662,1.959,0.96,2.954c0.046,0.154-0.009,0.316-0.125,0.363
	c-0.116,0.046-0.102,0.156,0.032,0.246c0.745,0.496,1.484,0.988,2.172,1.446c0.134,0.089,0.373,0.163,0.534,0.165
	c1.567,0.021,8.913,0.111,8.852-0.004c-0.936-1.758-2.645-1.351-4.148-1.55c-2.937-0.39-6.161-3.833-6.731-6.905
	c-0.029-0.158-0.019-0.417-0.022-0.578c-0.001-0.094-0.011-0.191-0.032-0.292c-0.008-0.04-0.013-0.08-0.018-0.12
	c-0.007-0.066-0.008-0.242,0.008-0.393c0.009-0.091,0.022-0.181,0.038-0.27c0.147-0.795,0.434-1.518,0.819-2.185
	c0.265-0.421,0.56-0.83,0.849-1.218c0.626-0.759,1.372-1.446,2.162-2.091c1.568-1.281,3.339-2.499,4.418-4.141
	c1.13-1.719,1.899-3.32,4.339-2.609c0.222,0.065,0.609-0.109,0.793-0.296c1.438-1.468,3.163-1.17,4.911-0.879
	c1.194,0.198,2.43,0.217,3.586,0.536c0.664,0.184,1.228,0.78,1.797,1.24c0.874,0.706,1.716,1.453,2.594,2.152
	c0.126,0.1,0.134,0.27,0.022,0.385c-0.158,0.163-0.296,0.337-0.331,0.556c-0.074,0.461,0.074,0.856,0.264,1.271
	c0.06,0.13,0.283,0.068,0.271-0.073c-0.034-0.391,0.07-0.736,0.341-1.025c0.049-0.052,0.108-0.112,0.163-0.177
	c0.086-0.101,0.15-0.066,0.135,0.094c-0.042,0.475-0.276,0.911-0.659,1.226c-0.108,0.089-0.009,0.239,0.103,0.249
	c0.195,0.018,0.377-0.006,0.541-0.061c0.049-0.017,0.093-0.035,0.13-0.052c0.07-0.032,0.027,0.035,0.097,0.13
	c0.04,0.054,0.117,0.082,0.191,0.049c0.528-0.238,1.121-0.577,1.345-1.14c0.02-0.051,0.031-0.105,0.034-0.161
	c0.002-0.036,0.004-0.073,0.005-0.105c0.003-0.058,0.011-0.129,0.009-0.161c-0.002-0.032,0.093-0.053,0.216-0.069
	c0.076-0.01,0.149-0.026,0.218-0.049c0.152-0.052,0.257-0.12,0.252-0.113c-0.137,0.135,0.023,0.305,0.166,0.24
	c0.528-0.238,1.121-0.577,1.345-1.14c0.02-0.051,0.031-0.105,0.034-0.161c0.002-0.036,0.004-0.073,0.005-0.105
	c0.003-0.058,0.003-0.238-0.027-0.401c-0.125-0.666-0.515-1.208-0.921-1.725c-0.384-0.588-0.819-1.153-1.294-1.765
	c-0.102-0.131-0.098-0.269,0.007-0.309c0.064-0.024,0.127-0.049,0.188-0.076c1.8-0.802,3.697-1.518,5.262-2.667
	c0.94-0.69,1.566-2.065,1.894-3.254c0.272-0.987,0.629-1.608,1.49-2.12c1.693-1.007,3.367-2.061,4.962-3.215
	c1.027-0.744,1.958-0.865,3.092-0.325c1.379,0.657,2.871,1.098,4.197,1.84c1.381,0.774,2.62,1.801,3.928,2.707
	c0.432,0.299,0.864,0.732,1.339,0.799c0.403,0.057,0.842-0.137,1.274-0.286c0.152-0.052,0.247-0.164,0.214-0.261
	c-0.012-0.035-0.021-0.069-0.027-0.098c-0.012-0.055,0.007-0.124,0.024-0.154c0.013-0.022,0.022-0.039,0.031-0.056
	c0.025-0.047,0.086-0.128,0.128-0.188c0.042-0.059,0.161-0.207,0.254-0.337c0.12-0.168,0.219-0.354,0.288-0.555
	c0.03-0.086-0.019-0.147-0.085-0.168c-0.112-0.036-0.223,0.059-0.264,0.08c-0.022,0.011-0.043,0.029-0.059,0.057
	c-0.036,0.06-0.085,0.112-0.133,0.155c-0.048,0.043-0.092,0.08-0.099,0.084c-0.099,0.044-0.16,0.076-0.221,0.107
	c-0.102,0.052-0.218,0.028-0.27-0.046c-0.032-0.045-0.066-0.088-0.105-0.126c-0.058-0.058-0.117-0.116-0.175-0.173
	c-0.098-0.095-0.072-0.248,0.046-0.358c0.125-0.116,0.241-0.246,0.345-0.389c0.014-0.02,0.021-0.042,0.022-0.064
	c0.001-0.038-0.02-0.145-0.089-0.187c-0.038-0.024-0.088-0.028-0.139,0.004c-0.032,0.02-0.065,0.04-0.097,0.06
	c-0.054,0.033-0.126,0.04-0.166,0.038c-0.022-0.001-0.046,0.003-0.071,0.015c-0.086,0.042-0.173,0.083-0.259,0.125
	c-0.143,0.069-0.355,0.037-0.474-0.072c-0.048-0.044-0.097-0.088-0.145-0.132c-0.119-0.108-0.116-0.27,0.008-0.363
	c0.075-0.056,0.15-0.112,0.224-0.168c0.102-0.076,0.087-0.286-0.073-0.271c-0.28,0.026-0.556,0.023-0.832-0.011
	c-0.16-0.02-0.294-0.053-0.303-0.061c-0.009-0.008,0.112-0.047,0.252-0.127c0.156-0.09,0.292-0.216,0.396-0.379
	c0.059-0.093-0.018-0.222-0.126-0.219l-0.93,0.024c-0.166,0.004-0.325,0.011-0.351-0.003c-0.014-0.008-0.028-0.019-0.042-0.032
	c-0.03-0.028,0.038-0.115,0.151-0.194c0.113-0.079,0.205-0.142,0.205-0.142c0.124-0.086,0.071-0.255-0.073-0.271
	c-0.348-0.039-0.681-0.127-0.998-0.259c-0.148-0.062-0.352-0.218-0.456-0.341c-0.905-1.073-0.835-1.671,0.029-3.208
	c0.079-0.14,0.258-0.189,0.397-0.109c0.276,0.159,0.551,0.324,0.826,0.488c0.138,0.083,0.221,0.279,0.229,0.439
	c0.007,0.152,0.044,0.304,0.11,0.454c0.045,0.101,0.203,0.089,0.251,0c0.039-0.073,0.086-0.139,0.138-0.198
	c0.089-0.1,0.204-0.148,0.233-0.131c0.029,0.017,0.04,0.16,0.024,0.32c-0.017,0.174-0.035,0.347-0.052,0.521
	c-0.005,0.049,0.012,0.085,0.039,0.108c0.051,0.042,0.138,0.037,0.169,0.029c0.016-0.004,0.033-0.012,0.05-0.024l0.427-0.314
	c0.13-0.095,0.274-0.154,0.323-0.131s0.057,0.168,0.019,0.324c-0.032,0.131-0.064,0.263-0.096,0.394
	c-0.026,0.106,0.07,0.211,0.179,0.179c0.203-0.059,0.377-0.18,0.506-0.336c0.102-0.124,0.274-0.2,0.425-0.144
	c0.166,0.062,0.283,0.235,0.276,0.396c-0.015,0.332-0.029,0.664-0.044,0.996c-0.004,0.091,0.097,0.171,0.184,0.14
	c0.427-0.149,0.78-0.42,1.03-0.768c0.094-0.131,0.279-0.212,0.435-0.172c0.121,0.031,0.242,0.062,0.363,0.091
	c0.156,0.038,0.278,0.198,0.256,0.357c-0.081,0.582-0.312,1.136-0.693,1.62c-0.086,0.11-0.01,0.281,0.142,0.243
	c0.858-0.215,1.549-0.794,1.916-1.562c0.069-0.145,0.151-0.243,0.203-0.248c0.029-0.003,0.058-0.014,0.086-0.035
	c0.296-0.231,0.464-0.562,0.505-0.909c0.018-0.16,0.03-0.357,0.054-0.441c0.015-0.054,0.027-0.106,0.033-0.155
	c0.16-1.23-0.078-2.519-0.649-3.685C145.44,71.068,145.418,70.827,145.421,70.666z M111.199,89.822
	c-0.005-0.034,0.1,0.023,0.228,0.128c0.732,0.606,1.45,1.23,2.193,1.82c0.126,0.1,0.134,0.27,0.022,0.385
	c-0.079,0.081-0.151,0.166-0.209,0.258c-0.088,0.14-0.166,0.203-0.232,0.114c-0.04-0.054-0.08-0.107-0.122-0.159
	c-0.532-0.814-1.156-1.576-1.856-2.492C111.207,89.859,111.201,89.84,111.199,89.822z M114.485,92.802
	c-0.028,0.318-0.147,0.615-0.336,0.872c-0.098,0.133-0.214,0.159-0.243,0.078s-0.045-0.282,0.012-0.437
	c0.056-0.155,0.144-0.298,0.268-0.43c0.049-0.052,0.108-0.112,0.163-0.177C114.436,92.607,114.499,92.642,114.485,92.802z"/>
</g>
</svg>
