<?xml version="1.0" encoding="iso-8859-1"?>
<!-- Generator: Adobe Illustrator 17.1.0, SVG Export Plug-In . SVG Version: 6.00 Build 0)  -->
<!DOCTYPE svg PUBLIC "-//W3C//DTD SVG 1.1//EN" "http://www.w3.org/Graphics/SVG/1.1/DTD/svg11.dtd">
<svg version="1.1" id="Capa_1" xmlns="http://www.w3.org/2000/svg" xmlns:xlink="http://www.w3.org/1999/xlink" x="0px" y="0px"
	 viewBox="0 0 150 150" style="enable-background:new 0 0 150 150;" xml:space="preserve">
<g>
<path d="M131.254,69.18c-2.131-0.319-4.346-0.124-6.522-0.075c-2.595,0.058-5.191,0.157-7.78,0.335
	c-2.985,0.205-5.962,0.526-8.945,0.773c-0.631,0.052-1.272,0.002-1.908-0.008c-2.676-0.041-5.356-0.001-8.026-0.151
	c-2.749-0.154-5.508-0.362-8.222-0.797c-1.839-0.294-3.649-0.928-5.127-2.201c-0.139-0.12-0.305-0.253-0.475-0.283
	c-0.012-0.002-0.024-0.005-0.036-0.008c-0.02-0.005-0.036-0.06-0.039-0.124c-0.002-0.039-0.006-0.077-0.011-0.116
	c-0.035-0.266-0.227-0.44-0.504-0.384c-0.201,0.04-0.403,0.081-0.604,0.121c-0.018,0.004-0.036,0.009-0.052,0.014
	c-0.028,0.01-0.128-0.024-0.222-0.082c-0.965-0.597-1.733-1.49-2.667-2.129c-0.091-0.062-0.176-0.2-0.193-0.309
	c-0.159-1.029-0.66-1.795-1.681-2.269c-0.351-0.163-0.547-0.655-0.821-0.989c-0.324-0.395-0.663-0.777-0.983-1.176
	c-0.233-0.291-0.573-0.574-0.64-0.907c-0.144-0.711-0.472-1.115-1.178-1.328c-0.341-0.103-0.76-0.41-0.873-0.722
	c-0.36-0.998-1.108-1.478-2.04-1.709c-0.712-0.177-1.188-0.532-1.415-1.227c-0.246-0.752-0.807-1.146-1.54-1.351
	c-1.035-0.29-1.875-0.82-2.416-1.803c-0.367-0.666-1.054-0.721-1.688-0.534c-1.008,0.297-1.883,0.179-2.789-0.379
	c-0.736-0.453-1.56-0.419-2.338,0.081c-0.25,0.16-0.637,0.317-0.883,0.237c-1.063-0.347-1.814,0.187-2.477,0.841
	c-0.598,0.59-1.26,0.724-2.035,0.624c-0.865-0.112-1.607,0.064-2.233,0.756c-0.194,0.214-0.665,0.275-0.997,0.248
	c-1.127-0.092-2.059,0.114-2.817,1.084c-0.297,0.381-0.961,0.474-1.456,0.702c-0.636,0.293-1.297,0.546-1.902,0.894
	c-1.148,0.66-2.358,1.163-3.657,0.716c-1.625-0.558-3.261-1.16-4.758-1.987c-1.061-0.586-1.938-1.534-2.826-2.395
	c-1.347-1.308-2.54-2.79-3.971-3.994c-1.266-1.065-2.953-1.295-4.568-1.444c-2.008-0.185-3.939,0.193-5.854,0.869
	c-1.121,0.395-2.395,0.701-3.542,0.563c-0.865-0.103-2.11,0.033-2.627-1.157c-0.054-0.124-0.198-0.209-0.339-0.296
	c-0.094-0.058-0.201-0.08-0.243-0.042s-0.028,0.144,0.032,0.237c0.063,0.098,0.128,0.2,0.199,0.311
	c0.06,0.093,0.035,0.221-0.05,0.291c-0.478,0.389-0.805,0.866-0.711,1.596c0.035,0.275-0.236,0.596-0.389,0.884
	c-0.072,0.136-0.243,0.231-0.285,0.37c-0.564,1.882-2.299,2.041-3.777,2.548c-0.52,0.178-1.095,0.192-1.643,0.291
	c-1.123,0.204-1.807,1.064-2.538,1.806c-0.164,0.166-0.087,0.782,0.096,1.031c0.288,0.39,0.711,0.681,1.147,1.042
	c0.085,0.07,0.139,0.041,0.122-0.069c-0.027-0.174-0.053-0.343-0.089-0.579c-0.017-0.109,0.035-0.136,0.116-0.061
	c0.49,0.458,0.887,0.831,1.39,1.302c0.081,0.075,0.107,0.056,0.059-0.043c-0.292-0.599-0.523-1.073-0.747-1.533
	C5.22,54.99,5.237,54.875,5.306,54.83s0.179-0.01,0.246,0.078c0.249,0.327,0.499,0.656,0.76,1c0.067,0.088,0.111,0.07,0.098-0.04
	c-0.04-0.354-0.079-0.695-0.118-1.034c-0.013-0.11,0.016-0.211,0.063-0.224s0.135,0.05,0.195,0.143
	c0.111,0.171,0.225,0.348,0.352,0.546c0.06,0.093,0.144,0.086,0.188-0.015c0.026-0.059,0.052-0.117,0.079-0.181
	c0.044-0.101,0.114-0.1,0.156,0.002c0.13,0.321,0.244,0.603,0.355,0.877c0.041,0.102,0.106,0.184,0.144,0.182
	s0.075-0.092,0.082-0.202c0.023-0.33,0.045-0.66,0.068-0.99c0.008-0.11,0.057-0.208,0.11-0.217s0.146,0.058,0.207,0.15
	c0.085,0.129,0.172,0.262,0.268,0.407c0.061,0.092,0.13,0.08,0.154-0.028c0.016-0.069,0.031-0.137,0.048-0.211
	c0.025-0.108,0.105-0.129,0.18-0.048c0.067,0.073,0.133,0.144,0.203,0.22c0.075,0.081,0.143,0.058,0.152-0.052
	c0.002-0.028,0.005-0.057,0.007-0.087c0.009-0.11,0.084-0.141,0.168-0.069c0.035,0.03,0.069,0.059,0.104,0.09
	C9.66,55.2,9.758,55.174,9.795,55.07c0.017-0.047,0.033-0.095,0.051-0.145c0.037-0.104,0.138-0.134,0.226-0.067
	c0.066,0.05,0.131,0.1,0.198,0.152c0.088,0.067,0.183,0.034,0.212-0.072c0.026-0.092,0.052-0.188,0.083-0.297
	c0.03-0.106,0.118-0.131,0.199-0.055c0.104,0.099,0.198,0.187,0.289,0.272c0.08,0.076,0.168,0.05,0.21-0.053
	c0.323-0.801,1.265-1.623,1.963-1.696c0.747-0.078,0.806,0.498,1.007,0.955c0.045,0.101,0.037,0.248-0.028,0.337
	c-0.411,0.56-0.774,1.185-1.298,1.615c-0.522,0.428-1.213,0.65-1.988,1.01c-0.1,0.047-0.093,0.102,0.016,0.123
	c0.594,0.113,1.105,0.211,1.64,0.313c0.108,0.021,0.147,0.111,0.085,0.203c-0.357,0.527-0.678,1.001-1.061,1.567
	c-0.062,0.091-0.203,0.159-0.313,0.149c-0.076-0.006-0.168-0.014-0.271-0.023c-0.11-0.009-0.142,0.052-0.071,0.137
	c0.267,0.319,0.507,0.637,0.116,0.995c-0.081,0.075-0.235,0.077-0.329,0.021c-0.21-0.126-0.434-0.259-0.706-0.422
	c-0.095-0.057-0.139-0.018-0.099,0.085c0.142,0.367,0.264,0.68,0.382,0.984c0.04,0.103,0.034,0.227-0.014,0.277
	s-0.163,0.045-0.258-0.012c-0.193-0.117-0.391-0.236-0.608-0.367c-0.095-0.057-0.16-0.015-0.145,0.095
	c0.03,0.227,0.059,0.444,0.087,0.658c0.014,0.11-0.007,0.213-0.048,0.232s-0.129-0.037-0.197-0.124
	c-0.265-0.344-0.531-0.688-0.796-1.032c-0.067-0.087-0.152-0.152-0.19-0.144s-0.054,0.102-0.035,0.211
	c0.038,0.226,0.078,0.468,0.131,0.782c0.018,0.109-0.021,0.125-0.087,0.036c-0.17-0.227-0.307-0.412-0.473-0.634
	c-0.066-0.089-0.119-0.071-0.111,0.039c0.087,1.233,0.756,1.95,1.528,2.556c0.22,0.173,0.781,0.159,1.028-0.005
	c0.428-0.285,0.798-0.713,1.078-1.154c1.437-2.267,3.333-3.914,5.878-4.891c0.972-0.373,1.77-1.206,2.638-1.84
	c1.38-1.008,2.854-1.485,4.54-0.852c1.557,0.585,2.846,1.542,3.826,2.878c1.08,1.473,2.179,2.919,3.794,3.979
	c0.092,0.061,0.113,0.177,0.049,0.267c-0.9,1.279-0.292,2.268,0.737,3.147c0.603,0.515,1.025,1.11,1.225,1.893
	c0.224,0.875,0.87,1.43,1.619,1.881c0.247,0.149,0.477,0.326,0.796,0.556c0.09,0.065,0.082,0.154-0.016,0.207
	c-1.412,0.763-1.854,2.123-2.573,3.311c-0.405,0.669-1.188,1.247-1.929,1.541c-1.178,0.468-2.465,0.584-3.754,0.323
	c-1.103-0.223-2.213-0.412-3.325-0.581c-0.241-0.037-0.509,0.064-0.759,0.126c-0.142,0.035-0.281,0.079-0.414,0.123
	c-0.105,0.035-0.269,0.023-0.362-0.038c-0.826-0.537-1.162-1.552-0.801-2.541c0.043-0.119-0.056-0.196-0.155-0.193
	c-0.11,0.003-0.163,0.09-0.166,0.062c-0.003-0.028-0.065,0.014-0.137,0.097c-0.111,0.129-0.21,0.258-0.296,0.389
	c-0.061,0.092-0.2,0.196-0.265,0.285c-0.044,0.061-0.067,0.142-0.056,0.243c0.001,0.014,0.004,0.028,0.006,0.042
	c0.004,0.023-0.025,0.127-0.053,0.234c-0.136,0.512-0.095,1.048,0.126,1.633c0.293,1.013,1.064,1.808,2.074,2.134
	c0.105,0.034,0.196,0.148,0.237,0.25c0.113,0.277,0.407,0.366,0.822,0.322c0.841-0.09,1.669-0.306,2.51-0.393
	c0.568-0.059,1.146-0.023,1.721-0.014c0.11,0.002,0.213,0.048,0.23,0.106s-0.039,0.161-0.119,0.237
	c-0.159,0.151-0.315,0.317-0.497,0.353c-0.806,0.16-1.528,0.709-2.447,0.434c-0.312-0.093-0.786,0.129-1.093,0.342
	c-0.03,0.021-0.055,0.053-0.076,0.092c-0.031,0.059-0.132,0.119-0.242,0.124c-0.322,0.016-0.639,0.009-0.955-0.019
	c-0.11-0.01-0.222-0.032-0.25-0.046c-0.017-0.008-0.034-0.017-0.05-0.025c-0.056-0.028-0.116-0.044-0.176-0.048
	c-0.101-0.006-0.267,0.011-0.375-0.012c-0.078-0.017-0.155-0.035-0.233-0.055c-0.141-0.036-0.242,0.111-0.18,0.234
	c0.218,0.434,0.59,0.948,1.042,1.356c0.082,0.074,0.188,0.175,0.247,0.216c0.034,0.023,0.072,0.047,0.111,0.07
	c0.311,0.217,0.647,0.371,0.989,0.412c0.11,0.013,0.287,0.025,0.397,0.033c0.638,0.05,1.268-0.103,1.79-0.456
	c0.417-0.282,0.835-0.568,1.279-0.804c0.618-0.328,1.254-0.621,1.886-0.924c0.1-0.048,0.218-0.052,0.266-0.009
	s0.029,0.147-0.036,0.237c-0.113,0.159-0.223,0.324-0.376,0.411c-0.396,0.224-0.617,0.361-0.672,0.5
	c-0.041,0.103-0.048,0.249-0.137,0.315c-0.516,0.382-1.093,0.618-1.742,0.723c-0.123,0.02-0.146,0.188-0.07,0.266
	c0.174,0.179,0.363,0.33,0.563,0.453c0.094,0.058,0.247,0.152,0.343,0.205c0.341,0.19,0.72,0.265,1.087,0.232
	c0.11-0.01,0.287-0.035,0.397-0.051c0.408-0.061,0.811-0.217,1.184-0.471c0.029-0.02,0.048-0.044,0.059-0.071
	c0.02-0.048,0.08-0.149,0.162-0.222c0.409-0.363,0.724-0.804,0.809-1.201c0.324-1.508,1.181-2.613,2.576-3.292
	c1.271-0.619,2.541-1.24,3.837-1.873c0.099-0.048,0.241-0.023,0.312,0.062c1.244,1.493,0.738,3.973-1.159,5.066
	c-0.298,0.172-0.605,0.336-0.878,0.543c-0.281,0.214-0.298,0.452-0.184,0.649c0.056,0.095,0.096,0.241,0.065,0.346
	c-0.242,0.82-0.235,1.664,0.021,2.489c0.046,0.149,0.263,0.155,0.307,0c0.224-0.789,0.672-1.453,1.315-1.946
	c0.088-0.067,0.256-0.126,0.348-0.186c0.206-0.134,0.289-0.43,0.386-0.719c0.049-0.146,0.14-0.279,0.23-0.412
	c0.062-0.091,0.176-0.136,0.258-0.096s0.121,0.157,0.087,0.262c-0.13,0.401-0.255,0.803-0.397,1.2
	c-0.101,0.285-0.124,0.504-0.003,0.626c0.078,0.078,0.186,0.178,0.212,0.286c0.164,0.703,0.718,1.269,1.447,1.416
	c0.1,0.02,0.203-0.044,0.202-0.154c-0.005-0.498-0.011-0.997-0.016-1.495c-0.001-0.11,0.056-0.27,0.095-0.374
	c0.065-0.176,0.067-0.397-0.001-0.66c-0.044-0.169-0.101-0.334-0.094-0.542c0.004-0.11,0.091-0.138,0.172-0.064
	c0.148,0.134,0.291,0.263,0.41,0.371c0.082,0.074,0.168,0.125,0.194,0.116s0.058-0.005,0.076,0.005
	c0.01,0.006,0.021,0.011,0.033,0.014c0.044,0.014,0.085,0.031,0.125,0.05c0.067,0.032,0.126,0.074,0.135,0.085
	c0.006,0.006,0.011,0.012,0.018,0.018c0.034,0.029,0.068,0.057,0.103,0.086c0.057,0.047,0.163,0.155,0.214,0.253
	c0.082,0.158,0.121,0.341,0.1,0.538c-0.016,0.154-0.012,0.275,0.102,0.389c0.217,0.217,0.505-0.109,0.592-0.286
	c0.01-0.021,0.02-0.042,0.029-0.063c0.015-0.035,0.048-0.089,0.067-0.125c0.011-0.021,0.021-0.044,0.029-0.069
	c0.054-0.174,0.086-0.349,0.1-0.524c0.04-0.393-0.026-0.788-0.195-1.146c-0.019-0.045-0.037-0.09-0.059-0.135
	c-0.01-0.02-0.021-0.038-0.032-0.054c-0.02-0.028-0.086-0.123-0.153-0.211c-0.049-0.064-0.102-0.127-0.159-0.187
	c-0.007-0.007-0.014-0.012-0.021-0.017c-0.012-0.008-0.028-0.033-0.037-0.058c-0.006-0.015-0.013-0.03-0.021-0.044
	c-1.126-1.909-0.681-3.916-0.575-6.046c0.006-0.11,0.085-0.153,0.179-0.095c3.114,1.935,5.96,4.15,9.765,4.565
	c0.11,0.012,0.159,0.099,0.107,0.197c-0.432,0.82-0.852,1.536-1.163,2.296c-0.164,0.402-0.243,0.947-0.11,1.344
	c0.908,2.713,1.928,5.389,2.812,8.109c0.338,1.038,0.563,2.116,0.241,3.277c-0.212,0.766-0.101,1.637-0.058,2.457
	c0.067,1.272-1.581,3.491-2.751,3.652c-1.222,0.169-2.449,0.543-3.737,0.155c-1.067-0.322-2.918,0.725-3.508,1.771
	c-0.054,0.096,0.001,0.171,0.111,0.161c0.513-0.047,1.042-0.096,1.573-0.144c0.11-0.01,0.216,0.04,0.236,0.112
	s-0.053,0.139-0.161,0.16c-0.957,0.178-1.449,0.861-1.87,1.657c-0.052,0.098-0.019,0.124,0.076,0.068
	c0.888-0.523,1.608-0.134,2.45,0.328c0.521,0.286,1.361,0.118,2.021-0.02c0.512-0.107,0.958-0.263,1.424,0.071
	c0.059,0.042,0.178,0.077,0.227,0.047c0.787-0.483,1.701,0.056,2.414-0.2c0.659-0.237,1.296-0.578,1.898-0.971
	c0.093-0.06,0.18-0.116,0.195-0.126c0.009-0.007,0.019-0.014,0.026-0.02c0.296-0.202,0.586-0.412,0.86-0.634
	c0.606-0.426,1.386-0.882,2.264-1.145c1.073-0.322,0.553-0.676-0.84-0.6c-0.11,0.006-0.173-0.032-0.14-0.088
	c0.02-0.034,0.04-0.067,0.061-0.1c0.112-0.174,0.224-0.389,0.228-0.587c0.031-1.845,0.839-3.482,1.314-5.21
	c0.264-0.96,0.06-2.038,0.188-3.047c0.178-1.405,0.426-2.805,0.731-4.188c0.152-0.691,0.496-1.34,0.756-2.006
	c0.414-1.062,0.848-2.12,0.394-3.352c-0.038-0.104,0.016-0.186,0.126-0.187c1.944-0.011,3.731,0.207,5.512,0.616
	c1.515,0.347,3.059,0.566,4.586,0.862c0.246,0.048,0.519,0.144,0.702,0.305c1.728,1.528,3.452,3.061,5.15,4.622
	c1.425,1.309,1.528,3.433,0.205,4.843c-0.773,0.825-1.902,0.826-2.932,1.016c-0.623,0.115-1.259,0.183-1.867,0.352
	c-0.187,0.052-0.265,0.419-0.457,0.547c-0.349,0.233-0.753,0.382-1.119,0.592c-0.163,0.094-0.31,0.216-0.434,0.365
	c-0.071,0.085-0.029,0.147,0.08,0.13c1.534-0.231,1.705-0.201,1.904,0.575c0.028,0.107-0.038,0.22-0.144,0.252
	c-0.529,0.157-1.058,0.313-1.556,0.461c-0.106,0.031-0.109,0.092-0.008,0.137c0.5,0.218,0.969,0.423,1.43,0.622
	c0.101,0.044,0.133,0.153,0.076,0.247c-0.247,0.403-0.463,0.894-0.405,1.325c0.088,0.648,0.534-0.451,1.933-1.167
	c0.098-0.05,0.269-0.091,0.379-0.095c1.217-0.046,2.434-0.093,3.651-0.142c0.132-0.005,0.289,0.011,0.391-0.052
	c1.122-0.686,2.436-1.091,2.912-2.591c0.301-0.949,0.769-1.853,1.259-2.734c0.277-0.428,0.737-0.978,1.433-1.303
	c0.571-0.267-0.026-0.48-0.952-0.547c-0.11-0.008-0.249-0.087-0.32-0.171c-0.04-0.048-0.085-0.096-0.137-0.144
	c-0.059-0.054-0.113-0.113-0.177-0.161c-1.907-1.433-2.564-3.374-2.502-5.706c0.04-1.478-0.144-2.962-0.244-4.486
	c-0.007-0.11,0.076-0.189,0.186-0.177c0.535,0.062,1.2,0.141,1.865,0.215c3.219,0.357,6.448,0.737,9.684,0.414
	c2.186-0.218,4.374-0.56,6.515-1.05c3.668-0.839,7.31-1.8,10.944-2.781c3.019-0.815,5.975-1.889,9.021-2.567
	c5.229-1.163,10.49-2.248,15.9-2.071c3.06,0.1,6.07,0.545,8.99,1.495c1.182,0.385,2.339,0.846,3.516,1.247
	c0.45,0.153,0.909,0.483,1.385,0.181c0.093-0.059,0.094-0.187,0.018-0.268c-0.276-0.297-0.536-0.616-0.859-0.849
	C141.546,71.074,136.433,69.956,131.254,69.18z M79.926,63.992c0.012-0.013,0.071,0.049,0.132,0.138s0.051,0.101-0.022,0.024
	S79.914,64.005,79.926,63.992z"/>
</g>
</svg>
