<?xml version="1.0" encoding="iso-8859-1"?>
<!-- Generator: Adobe Illustrator 17.1.0, SVG Export Plug-In . SVG Version: 6.00 Build 0)  -->
<!DOCTYPE svg PUBLIC "-//W3C//DTD SVG 1.1//EN" "http://www.w3.org/Graphics/SVG/1.1/DTD/svg11.dtd">
<svg version="1.1" id="Capa_1" xmlns="http://www.w3.org/2000/svg" xmlns:xlink="http://www.w3.org/1999/xlink" x="0px" y="0px"
	 viewBox="0 0 150 150" style="enable-background:new 0 0 150 150;" xml:space="preserve">
<g>
<path d="M144.074,104.694c-7.643,0.754-15.155-0.314-22.688-1.437c-5.842-0.871-11.347-2.666-16.18-5.954
	c-3.746-2.549-6.998-5.814-10.556-8.652c-6.401-5.105-12.973-9.985-20.986-12.306c-2.951-0.855-6.007-1.506-9.06-1.81
	c-3.221-0.322-6.047-1.517-8.856-2.914c-4.693-2.335-9.41-4.74-13.025-8.589c-3.592-3.825-6.904-7.937-10.098-12.108
	c-3.953-5.162-7.598-10.558-11.495-15.765c-1.99-2.659-4.157-5.229-7.151-6.851c-1.415-0.767-2.878-1.184-4.375-1.774
	c-0.298-0.118-0.598-0.516-0.899-0.624c-0.494-0.178-1.474,0.258-1.876,0.721c-0.551,0.634-0.264,1.091-0.603,1.837
	c-0.139,0.306-1.905,1.173-1.49,1.975c0.498-0.071,1.06-0.326,1.218-0.173c0.08,0.181-0.342,0.542-0.679,1.076
	c0.581,0.509,1.024-0.054,1.352-0.2c2.002-0.894,3.812-0.548,5.433,0.835c3.174,2.709,5.821,5.887,7.865,9.513
	c3.075,5.455,5.989,11,9.036,16.471c3.179,5.709,7.556,10.45,12.269,14.906c2.407,2.276,4.916,4.457,7.187,6.861
	c2.036,2.154,2.7,5.057,3.683,7.783c0.926,2.569,2.136,5.034,3.178,7.562c0.242,0.586,0.458,1.253,0.429,1.87
	c-0.316,6.594-0.637,13.188-1.079,19.774c-0.082,1.216-0.579,2.456-1.116,3.573c-0.035,0.072-0.06,0.134-0.089,0.2
	c-0.534,0.155-1.23,0.448-1.672,1.007c-0.711,0.898,0.561,0.228,1.943,0.254c0.152,0.039,0.33,0.068,0.564,0.078
	c1.327,0.057,2.674,0.06,3.984-0.119c0.382-0.052,0.92-0.79,0.957-1.247c0.283-3.546,0.447-7.101,0.68-10.651
	c0.072-1.107,0.241-2.207,0.626-3.313c1.048,4.702,4.086,9.026,2.839,14.25c-0.53,0.185-1.247,0.529-1.668,1.142
	c-0.629,0.915,0.502,0.232,1.831,0.129c1.587,0.01,3.066,0.053,4.523-0.077c0.258-0.023,0.67-1.046,0.604-1.554
	c-0.498-3.811-1.118-7.605-1.656-11.411c-0.272-1.92-0.452-3.854-0.672-5.767c6.488,0.87,12.894,1.729,19.428,2.606
	c-0.651,4.955,0.164,10.386-2.52,15.327c-0.311,0.19-0.611,0.429-0.829,0.746c-0.607,0.883,0.428,0.283,1.695,0.147
	c1.253,0.016,2.508,0.055,3.753-0.036c0.952-0.069,1.305-0.802,1.271-1.748c-0.161-4.478,1.204-8.708,2.143-13.007
	c0.027-0.124,0.125-0.233,0.327-0.591c0.221,1.126,0.393,2.033,0.579,2.936c0.458,2.233,0.818,4.493,1.416,6.688
	c0.453,1.664,0.481,3.212-0.458,4.96c-0.341,0.196-0.676,0.451-0.913,0.797c-0.723,1.051,0.877-0.008,2.431,0.128
	c0.2,0.018,0.346,0.005,0.45-0.027c0.824,0.001,1.597,0,2.367-0.005c1.063-0.008,1.445-0.684,1.34-1.606
	c-0.213-1.88-0.346-3.793-0.811-5.616c-0.888-3.48-1.181-6.981-1.046-10.859c16.177,1.915,32.248,3.967,48.38,1.295
	c0.008-0.201,0.015-0.403,0.023-0.604C144.909,104.726,144.486,104.653,144.074,104.694z"/>
</g>
</svg>
