<?xml version="1.0" encoding="iso-8859-1"?>
<!-- Generator: Adobe Illustrator 17.1.0, SVG Export Plug-In . SVG Version: 6.00 Build 0)  -->
<!DOCTYPE svg PUBLIC "-//W3C//DTD SVG 1.1//EN" "http://www.w3.org/Graphics/SVG/1.1/DTD/svg11.dtd">
<svg version="1.1" id="Capa_1" xmlns="http://www.w3.org/2000/svg" xmlns:xlink="http://www.w3.org/1999/xlink" x="0px" y="0px"
	 viewBox="0 0 150 150" style="enable-background:new 0 0 150 150;" xml:space="preserve">
	<g>
<path d="M15.398,23.468c0.591,0.643,1.176,1.291,1.774,1.927c3.358,3.574,6.741,7.127,10.074,10.724
	c3.028,3.268,5.884,6.705,9.047,9.835c1.896,1.876,4.231,3.31,6.376,4.933c1.064,0.805,2.091,1.676,3.587,1.526
	c0.378-0.038,0.783,0.199,1.166,0.525c-0.629,0.05-1.257,0.1-1.886,0.15c-0.025,0.07-0.05,0.14-0.074,0.209
	c0.368,0.263,0.743,0.516,1.103,0.789c4.341,3.295,8.639,6.648,13.039,9.862c1.882,1.375,3.975,2.46,5.973,3.674
	c0.434,0.264,0.873,0.521,1.384,0.826c-0.327,0.263-0.603,0.483-1.103,0.885c0.636,0.085,1.016,0.136,1.44,0.193
	c-0.304,0.534-0.614,1.078-0.924,1.621l0.2,0.211c0.441-0.25,0.879-0.506,1.324-0.749c1.805-0.984,2.933-0.991,4.357,0.393
	c0.538,0.523,0.633,1.554,0.814,2.379c0.236,1.075,0.246,2.21,0.568,3.252c0.217,0.703,0.815,1.287,1.226,1.933
	c1.163,1.829,2.351,3.643,3.452,5.51c0.245,0.415,0.263,1.027,0.224,1.535c-0.22,2.839,0.062,5.629,0.672,8.401
	c0.265,1.205,0.503,2.421,0.648,3.645c0.039,0.327-0.257,0.747-0.502,1.038c-0.284,0.337-0.656,0.618-1.033,0.855
	c-1.496,0.942-2.44,2.286-3.148,3.891c-0.838,1.902-1.695,3.822-2.796,5.576c-1.521,2.425-3.944,3.902-6.371,5.3
	c-1.693,0.976-3.422,1.891-5.137,2.829c-0.853,0.466-1.387,1.201-1.454,2.14c-0.046,0.652-0.15,1.272-0.317,1.864
	c-0.244,0.259-0.396,0.606-0.396,0.983v0.103c-0.309,0.679-0.722,1.319-1.261,1.925c-0.469,0.528-0.515,1.417-0.822,2.111
	c-0.209,0.472-0.524,0.9-0.813,1.334c-0.447,0.67-1.036,1.278-1.33,2.006c-0.22,0.543-0.377,0.736-0.982,0.895
	c-0.696,0.182-1.484,0.674-1.85,1.266c-0.347,0.562-0.659,0.79-1.236,0.798c-0.69,0.01-1.379,0.002-2.072,0.002
	c0.558,1.572,2.851,2.702,4.466,2.204c2.024-0.623,3.39-1.969,4.291-3.856c0.383-0.802,0.857-1.561,1.229-2.232
	c0,0.752,0.001,1.58-0.002,2.408c0,0.095,0.012,0.228-0.042,0.28c-1.119,1.07-0.76,2.582-1.187,3.854
	c-0.144,0.428-0.555,0.777-0.88,1.129c-0.167,0.182-0.506,0.245-0.607,0.444c-0.757,1.494-2.162,1.991-3.706,2.443
	c0.149,0.163,0.239,0.337,0.381,0.406c2.82,1.37,5.782,0.45,7.041-2.323c1.144-2.518,1.899-5.105,1.841-7.894
	c-0.002-0.108,0.029-0.216,0.063-0.325l0.372,0.681c0.048,0.088,0.106,0.169,0.171,0.241c0.03,0.233,0.039,0.462-0.002,0.682
	c-0.215,1.163-0.332,2.26,0.218,3.372c0.098,0.197-0.134,0.598-0.283,0.867c-0.196,0.355-0.644,0.663-0.662,1.008
	c-0.073,1.361-0.846,2.237-1.818,3.027c-0.106,0.086-0.151,0.246-0.27,0.45c1.022,0.29,1.909,0.122,2.75-0.291
	c1.722-0.848,3.093-2.098,3.227-4.089c0.093-1.381-0.268-2.792-0.426-4.189c-0.039-0.35-0.15-0.709-0.104-1.047
	c0.196-1.429-0.315-2.682-0.883-3.933c-0.069-0.152-0.069-0.358-0.041-0.53c0.153-0.934,0.365-1.86,0.48-2.798
	c0.158-1.284,1.05-2.102,1.87-2.911c2.248-2.218,4.985-3.74,7.645-5.372c2.59-1.321,4.844-3.174,6.684-5.474
	c1.189-0.647,2.36-1.358,3.41-2.205l-0.104,0.159c0.254-0.222,0.491-0.453,0.721-0.687c0.769-0.698,1.454-1.482,2.005-2.392
	c0.35-0.578,0.623-1.171,0.837-1.781c0.717-1.519,1.247-3.14,1.712-4.798c0.3-0.049,0.594-0.13,0.877-0.241
	c0.628,0.47,1.028,1.035,1.019,1.906c-0.003,0.308,0.106,0.644,0.251,0.923c1.329,2.57,0.874,5.026-0.388,7.467
	c-0.389,0.752-0.807,1.56-0.893,2.377c-0.089,0.837-0.297,1.671,0.157,2.619c0.567,1.184-0.45,2.143-1.344,2.763
	c-0.956,0.663-2.087,1.095-3.18,1.534c-1.47,0.59-1.952,1.772-1.597,3.297c0.351,1.509,0.483,3.084,0.558,4.638
	c0.067,1.386-0.037,2.785-0.144,4.172c-0.048,0.619-0.291,1.223-0.519,2.123c0.657-0.413,1.172-0.737,1.905-1.198
	c0,0.686,0.032,1.238-0.011,1.785c-0.03,0.379-0.117,0.768-0.255,1.122c-0.656,1.678-0.283,3.104,0.889,4.438
	c0.35,0.398,0.515,1.016,0.62,1.56c0.254,1.323,0.969,2.092,2.276,2.324c0.166,0.03,0.411,0.131,0.455,0.257
	c0.391,1.107,1.374,1.278,2.273,1.218c0.858-0.057,1.143,0.368,1.404,0.969c0.188,0.433,0.329,0.886,0.491,1.329
	c0.091,0.013,0.183,0.026,0.274,0.038c0.244-0.751,0.488-1.503,0.748-2.305c0.822,0.538,1.678,0.707,2.709,0.285
	c0.311-0.127,1.005,0.491,1.424,0.877c0.353,0.326,0.561,0.809,0.858,1.261c0.554-0.8,0.556-2.459,0.01-2.842
	c-0.474-0.332-1.044-0.524-1.563-0.795c-0.161-0.084-0.292-0.223-0.379-0.545c0.321,0.054,0.642,0.107,1.044,0.174
	c0.391-0.693,0.973-0.5,1.55-0.09c0.337,0.24,0.654,0.515,0.95,0.804c0.286,0.28,0.535,0.598,0.929,1.045
	c0.373-1.65-0.059-2.859-1.079-3.906c0.003,0.009,0.007,0.019,0.01,0.028c-0.28-0.282-0.599-0.508-0.947-0.67
	c-0.349-0.263-0.696-0.537-1.063-0.564c-1.296-0.097-2.608,0.021-3.913,0.055c-0.153,0.004-0.341,0.081-0.453,0.018
	c-0.896-0.504-1.796-1.005-2.651-1.573c-0.269-0.179-0.533-0.543-0.578-0.854c-0.373-2.62-1.518-4.963-2.564-7.342
	c-0.564-1.282-0.476-2.598-0.392-3.92c0.016-0.028,0.03-0.057,0.043-0.087c0.111-0.266,0.222-0.532,0.333-0.798
	c0.082-0.196-0.053-0.445-0.221-0.544c-0.022-0.013-0.045-0.024-0.069-0.033c0.259-2.34,1.825-3.646,3.835-4.647
	c1.49-0.742,2.954-1.538,4.465-2.234c0.561-0.258,1.234-0.262,1.835-0.451c0.577-0.182,1.107-0.552,1.691-0.661
	c0.753-0.141,1.546-0.256,2.258,0.294c0.17,0.132,0.529,0.02,0.917,0.02c0.045,0.225,0.131,0.524,0.158,0.827
	c0.051,0.574-0.071,1.203,0.122,1.718c0.746,1.995,0.833,4.099,1.097,6.167c0.142,1.113-0.008,2.266-0.062,3.4
	c-0.017,0.346-0.251,0.696-0.217,1.027c0.217,2.136-0.485,3.995-1.521,5.814c-0.558,0.98-1.392,1.252-2.361,1.401
	c-0.268,0.041-0.547,0.006-0.879,0.006c0.732,1.123,2.66,1.104,3.798,0.259c1.94-1.441,2.443-3.499,2.756-5.688
	c0.145-1.014,0.426-2.023,0.446-3.039c0.036-1.82-0.023-3.646-0.146-5.463c-0.105-1.547-0.358-3.083-0.545-4.624l0.277-0.113
	c0.249,0.569,0.583,1.117,0.727,1.712c0.22,0.911,0.526,1.668,1.424,2.152c0.3,0.162,0.464,0.702,0.554,1.1
	c0.201,0.891,0.318,1.802,0.466,2.705c0.016,0.094,0.046,0.202,0.018,0.286c-0.351,1.038-0.629,2.114-1.117,3.084
	c-0.162,0.322-0.87,0.369-1.326,0.541c0.48,0.659,1.507,0.807,2.333,0.365c1.086-0.581,1.75-1.568,1.768-2.694
	c0.027-1.732-0.223-3.474-0.446-5.2c-0.051-0.394-0.416-0.804-0.738-1.095c-0.894-0.809-1.22-1.835-1.109-3.168
	c0.427,0.469,0.856,0.937,1.28,1.409c0.107,0.119,0.168,0.314,0.297,0.373c1.549,0.711,1.6,2.414,2.362,3.636
	c0.18,0.288-0.118,0.932-0.305,1.365c-0.093,0.216-0.432,0.326-0.677,0.495c0.905,0.537,1.904,0.168,2.355-0.825
	c0.678-1.491,0.079-3.685-1.058-4.869c-1.98-2.061-3.834-4.243-5.743-6.372c-0.125-0.139-0.279-0.252-0.399-0.394
	c-0.191-0.227-0.365-0.468-0.535-0.689c-1.812-0.101-3.739-0.209-5.578-0.312c0.198-0.613,0.394-1.217,0.587-1.815
	c0.673-1.306,1.133-2.694,1.348-4.165c0.22-0.679,0.438-1.352,0.654-2.02c0.74,0.044,1.482,0.089,2.348,0.14
	c-0.031,0.361-0.06,0.724-0.095,1.086c-0.061,0.634-0.312,1.326-0.134,1.883c0.16,0.503,0.542,0.885,0.549,1.536
	c0.01,0.892,0.303,1.783,0.497,2.67c0.243,1.114,0.676,2.054,1.912,2.439c0.426,0.133,0.729,0.621,1.139,0.859
	c0.291,0.169,0.666,0.191,1.039,0.179c0.415,0.328,0.702,1.082,1.38,0.287c0.357,0.228,0.674,0.431,1.123,0.718
	c0.103-0.474,0.179-0.818,0.254-1.166c0.925,0.277,1.778,0.474,2.715-0.146c0.343-0.227,1.077,0.138,1.727,0.249
	c-0.019-0.273-0.034-0.491-0.046-0.678c1.13-0.086,1.503,0.61,1.859,1.471c0.324,0.782,0.933,1.443,1.271,2.221
	c0.308,0.709,0.427,1.502,0.617,2.262c0.069,0.277,0.01,0.633,0.164,0.836c1.091,1.432,0.796,3.185,1.185,4.775
	c0.253,1.035,0.669,2.046,1.131,3.01c0.657,1.37,1.457,2.671,2.122,4.037c0.18,0.369,0.082,0.869,0.137,1.306
	c0.127,1.002,0.281,2,0.404,3.002c0.125,1.024-0.66,1.262-1.411,1.512c0.815,0.919,2.19,0.612,2.671-0.517
	c0.907-2.129,0.52-4.23-0.199-6.278c-0.367-1.045-0.926-2.047-1.544-2.973c-1.061-1.591-1.369-3.363-1.485-5.2
	c-0.044-0.697-0.007-1.4,0.018-2.126c0.322,2.279,2.123,3.651,3.27,5.43c0.441,0.684,0.752,1.455,1.105,2.194
	c0.193,0.403,0.302,0.853,0.534,1.231c0.818,1.334,0.855,1.566,0.271,2.904c0.944,0.322,1.783-0.191,1.86-1.345
	c0.106-1.585-0.212-3.114-1.114-4.483c-0.86-1.305-1.695-2.627-2.515-3.958c-0.568-0.921-1.195-1.827-1.607-2.818
	c-0.429-1.031-0.631-2.157-0.99-3.451c0.896,0.351,1.49,0.551,1.631,1.422c0.068,0.425,0.427,0.867,0.769,1.171
	c0.763,0.679,1.003,1.386,0.369,2.265c0.936,0.273,1.704-0.383,1.743-1.487c0.058-1.636-0.555-3.092-1.807-4.037
	c-1.98-1.495-3.39-3.454-4.953-5.305c-0.345-0.408-0.982-0.597-1.514-0.813c-0.493-0.201-1.043-0.261-1.537-0.459
	c-1.013-0.405-2.054-0.267-3.1-0.302c-1.589-0.053-3.172-0.285-4.901-0.455c0.348-1.283,0.668-2.459,1.009-3.716
	c0.095-0.02,0.321-0.067,0.56-0.117c-0.73-1.705-0.66-2.32,0.358-2.632c-0.139-0.323-0.27-0.639-0.411-0.951
	c-0.527-1.165-0.456-1.49,0.527-2.341c0.09-0.078,0.247-0.143,0.263-0.233c0.195-1.107,0.378-2.216,0.545-3.327
	c0.144-0.958,0.357-1.918,0.374-2.88c0.031-1.792-0.091-3.586-0.092-5.379c-0.002-3.256,0.453-6.454,1.376-9.579
	c0.153-0.517,0.369-1.026,0.63-1.499c0.707-1.279,1.029-1.386,2.457-1.099c1.287,0.259,2.624,0.335,3.867,0.723
	c1.335,0.418,2.611,1.024,3.909,1.566c0.253,0.149,0.528,0.262,0.821,0.328c0.55,0.2,1.137,0.351,1.86,0.576
	c0.013,0.035,0.03,0.069,0.051,0.1c0.05,0.131,0.147,0.385,0.298,0.781c0.382-0.462,0.708-0.856,1.023-1.237
	c0.163-0.072,0.313-0.159,0.451-0.257c0.119,0.169,0.268,0.381,0.483,0.685c0.255-0.544,0.446-0.952,0.637-1.36
	c0.038,0.05,0.075,0.099,0.113,0.149c0.239-0.168,0.667-0.316,0.688-0.508c0.09-0.827,0.181-1.657,0.177-2.472
	c0.246-1.005,0.062-2.17-0.444-3.001c-0.213-0.349-0.465-0.672-0.738-0.975c0.023-0.237,0.017-0.476-0.019-0.711
	c-0.003-0.723-0.01-1.446,0.027-2.166c0.1-0.381,0.112-0.772,0.065-1.176c-0.002-0.573-0.092-1.108-0.297-1.614
	c-0.002-0.012-0.005-0.024-0.007-0.035c-0.11-0.571-0.514-1.11-0.983-1.485c-0.288-0.419-0.525-0.884-0.7-1.353
	c-0.242-0.649-0.547-1.101-1.163-1.187c-0.257-0.162-0.569-0.258-0.909-0.263c-0.879-0.013-1.766,0.045-2.651,0.113
	c-0.652-0.242-1.219-0.704-1.71-1.394c-0.296-0.417-1.964-0.585-2.468-0.369c-0.073,0.031-0.197,0.034-0.257-0.007
	c-0.999-0.686-2.13,0.238-3.284-0.508c0.123,0.426,0.17,0.589,0.216,0.752c-0.061,0.012-0.122,0.036-0.182,0.033
	c-0.757-0.041-1.385-0.047-2.091,0.564c-0.982,0.85-2.305,1.29-3.403,2.025c-0.714,0.478-1.287,1.168-1.923,1.763l0.266,0.181
	c-0.12,0.319-0.174,0.689-0.373,0.947c-0.766,0.994-1.769,1.819-1.757,3.268c0.004,0.517-0.354,1.031-0.506,1.558
	c-0.166,0.575-0.308,1.16-0.421,1.748c-0.237,1.234-0.66,2.479-0.619,3.707c0.058,1.711-0.191,3.329-0.673,4.938
	c-0.107,0.356-0.293,0.689-0.547,1.271c-0.627-0.559-1.303-0.919-1.598-1.48c-0.465-0.883-1.028-1.488-1.978-1.811
	c-0.279-0.095-0.415-0.554-0.671-0.787c-0.178-0.163-0.448-0.226-0.815-0.147c-0.067-0.14-0.169-0.274-0.196-0.422
	c-0.206-1.118-1.201-1.55-1.905-2.242c-0.29-0.285-0.476-0.674-0.734-0.995c-0.21-0.262-0.458-0.493-0.88-0.631
	c0.086,0.342,0.171,0.685,0.275,1.102c-0.636-0.356-1.207-0.675-1.878-1.05c-0.029,0.306-0.046,0.493-0.065,0.694
	c-0.109-0.008-0.203-0.015-0.297-0.022c-1.46-0.115-2.917-0.279-4.379-0.33c-1.169-0.041-2.359-0.054-3.509,0.12
	c-0.995,0.151-1.958,0.553-2.914,0.9c-0.652,0.236-1.252,0.619-1.906,0.846c-0.78,0.27-1.375-0.134-1.928-1.252
	c-0.184,0.222-0.345,0.416-0.595,0.719c-0.24-0.498-0.453-0.941-0.704-1.46c-0.173,0.112-0.357,0.232-0.485,0.315
	c-0.728-0.561-1.435-1.112-2.154-1.646c-0.068-0.05-0.216-0.01-0.321,0.012c-0.659,0.139-1.013-0.128-1.093-0.812
	c-0.272-2.314-0.551-4.627-0.833-6.985c-0.124,0.072-0.291,0.168-0.532,0.307c0-0.253-0.03-0.415,0.004-0.562
	c0.756-3.265-0.713-6.289-1.014-9.439c-0.929-0.853-0.229-1.875-0.313-2.817c-0.134-1.496-0.417-2.979-0.604-4.471
	c-0.52-4.161-0.89-8.347-1.573-12.481c-0.606-3.67-1.743-7.228-3.28-10.63c-1.095-2.425-2.752-4.476-4.583-6.377
	c-2.246-2.332-4.543-4.614-6.821-6.915c-0.037-0.038-0.117-0.034-0.395-0.105c0.129,0.417,0.157,0.782,0.335,1.046
	c2.62,3.894,4.218,8.242,5.864,12.6c1.44,3.813,2.385,7.75,3.545,11.634c0.878,2.942,1.731,5.891,2.589,8.839
	c0.052,0.179,0.055,0.372,0.081,0.565c-1.111-2.852-2.217-5.692-3.323-8.533c-0.112,0.015-0.223,0.031-0.335,0.046
	c-0.126,0.346-0.252,0.691-0.442,1.216c-0.098-2.731-1.658-4.637-2.816-6.681c-3.799-6.703-8.937-12.332-14.439-17.654
	c-0.251-0.242-0.481-0.506-0.773-0.813c-0.168,0.127-0.345,0.261-0.567,0.43c-0.147-0.372-0.23-0.767-0.445-1.068
	c-0.181-0.254-0.531-0.382-0.777-0.599c-0.232-0.204-0.387-0.516-0.642-0.671c-2.029-1.232-4.079-2.43-6.412-3.018
	c-0.051-0.013-0.115,0.026-0.254,0.06c0.065,0.167,0.079,0.376,0.191,0.466c4.05,3.273,6.667,7.653,9.301,12.021
	c1.059,1.757,2.103,3.523,3.19,5.262c0.167,0.267,0.515,0.438,0.806,0.607c1.173,0.679,2.356,1.34,3.535,2.008
	c-0.031,0.133-0.063,0.266-0.094,0.399c-0.634,0.119-1.275,0.213-1.9,0.368c-0.245,0.061-0.455,0.259-0.681,0.395
	c0.123,0.191,0.261,0.375,0.364,0.577c0.099,0.193,0.159,0.407,0.241,0.609c0.324,0.798,0.614,1.613,0.982,2.39
	c1.796,3.792,4.107,7.254,6.671,10.571c2.629,3.4,4.972,6.991,6.452,10.614c-2.155-3.302-4.533-6.947-7.052-10.807
	c-0.25,0.761-0.393,1.194-0.535,1.627c-0.073-0.012-0.145-0.025-0.218-0.037c0.057-0.562,0.114-1.125,0.182-1.788
	c-0.307,0.056-0.527,0.096-0.623,0.114c-0.467-1.966-1.91-3.311-3.129-4.701c-2.491-2.84-5.18-5.505-7.803-8.228
	c-0.163-0.17-0.459-0.212-0.786-0.354c0.094-1.854-1.458-2.889-2.608-4.034c-2.2-2.19-4.606-4.173-6.949-6.217
	c-0.206-0.18-0.572-0.177-0.725-0.35c-0.542-0.512-1.008-1.164-1.64-1.512c-3.369-1.855-6.779-3.634-10.177-5.434
	c-0.102-0.054-0.239-0.044-0.636-0.11c0.29,0.42,0.434,0.694,0.637,0.913c1.374,1.479,2.871,2.859,4.111,4.442
	c1.258,1.606,2.318,3.377,3.37,5.132c1.536,2.562,3.593,4.672,5.707,6.725c3.219,3.127,6.497,6.193,9.749,9.286
	c0.229,0.218,0.446,0.449,0.615,0.809c-0.62-0.224-1.24-0.448-2.155-0.778c0.262,0.471,0.353,0.74,0.529,0.934
	c3.608,3.996,7.185,8.021,10.859,11.955c1.835,1.965,3.951,3.668,5.759,5.655c2.473,2.719,4.774,5.595,7.148,8.403
	c-0.068,0.079-0.135,0.159-0.203,0.238c-0.276-0.068-0.552-0.136-0.828-0.204c-0.074,0.072-0.148,0.145-0.222,0.217
	c0.559,0.554,1.118,1.108,1.7,1.684c-1.188-0.247-11.444-7.762-13.059-9.569c-0.123,0.156-0.236,0.3-0.376,0.478
	c-0.081-0.393-0.156-0.757-0.277-1.348c-0.288,0.387-0.46,0.618-0.717,0.963c0.266-1.147-0.417-1.622-1.129-2.261
	c-4.294-3.855-8.504-7.803-12.75-11.712c-3.277-3.017-6.365-6.287-9.897-8.971c-4.921-3.738-10.183-7.027-15.931-9.429
	c-0.283-0.118-0.603-0.15-0.906-0.222C15.497,23.3,15.447,23.384,15.398,23.468z M88.058,97.158
	c0.118,0.001,0.236-0.003,0.354-0.013c-0.015,0.045-0.03,0.091-0.046,0.136C88.263,97.24,88.161,97.199,88.058,97.158z"/>
	</g>
</svg>
