<?xml version="1.0" encoding="iso-8859-1"?>
<!-- Generator: Adobe Illustrator 17.1.0, SVG Export Plug-In . SVG Version: 6.00 Build 0)  -->
<!DOCTYPE svg PUBLIC "-//W3C//DTD SVG 1.1//EN" "http://www.w3.org/Graphics/SVG/1.1/DTD/svg11.dtd">
<svg version="1.1" id="Capa_1" xmlns="http://www.w3.org/2000/svg" xmlns:xlink="http://www.w3.org/1999/xlink" x="0px" y="0px"
	 viewBox="0 0 150 150" style="enable-background:new 0 0 150 150;" xml:space="preserve">
<g>
<path style="fill:#1D1D1B;" d="M145.529,74.494c-1.184-1.043-5.097,0.039-6.594,0.145c-5.066,0.36-10.164,0.503-15.226,0.007
	c-9.568-0.939-18.755-4.123-28.158-6.129c-9.779-2.085-19.831-2.877-29.817-2.383c-5.044,0.25-10.071,0.827-15.039,1.732
	c-2.449,0.446-5.034,0.837-7.407,1.602c-1.823,0.588-2.916,1.65-4.318,2.79c-0.22,0.179-0.582,0.462-0.803,0.639
	c-1.337,1.062-2.832,2.278-4.437,2.77c-1.054,0.323-2.173,0.438-3.27,0.33c-0.723-0.071-1.519-0.142-2.189-0.445
	c-0.328-0.148-0.524-0.48-0.804-0.62c-1.41-0.7-3.05-0.99-4.531-1.627c-0.135-0.058-0.222-0.1-0.251-0.269
	c-0.025-0.149-0.177-0.17-0.333-0.163c-1.257,0.054-2.541-0.045-3.798-0.019c-0.182,0.004-0.364-0.049-0.548-0.061
	c-0.991-0.063-1.986-0.122-2.965-0.29c-0.818-0.14-1.624-0.802-2.438-0.715c-0.41,0.044-0.821,0.077-1.231,0.111
	c-0.421,0.035-0.822,0.008-1.227-0.169C9.914,71.63,9.618,71.664,9.35,71.66c-0.441-0.007-0.883,0.012-1.324,0.007
	c-0.511-0.006-1.001,0.066-1.506,0.172c-0.633,0.133-1.183,0.503-1.831,0.562c-0.068,0.006-0.145,0.041-0.197,0.086
	c-0.281,0.238-0.576,0.465-0.823,0.735c-0.138,0.151-0.19,0.379-0.283,0.571c-0.034,0.071-0.088,0.136-0.106,0.21
	c-0.023,0.091-0.062,0.243-0.02,0.276c0.066,0.052,0.117,0.113,0.159,0.179c0.081,0.125,0.128,0.344,0.268,0.405
	c0.011,0.005,0.021,0.006,0.032,0.006c0.018,0-0.003,0.23,0.02,0.512c0.02,0.256,0.083,0.542,0.217,0.849
	c0.384,0.879,0.338,0.311,0.72-0.451c0.127-0.253,0.281-0.431,0.302-0.422c0.021,0.009,0.013,0.246,0.014,0.529
	c0.002,0.441,0.058,0.954,0.225,1.515c0.513,1.72,0.256-0.344,1.281-1.814c0.011-0.016,0.019-0.03,0.028-0.044
	c0.015-0.025,0.032,0.172,0.093,0.432c0.034,0.146,0.084,0.299,0.153,0.458c0.339,0.776,0.342,0.424,0.601-0.194
	c0.109-0.261,0.288-0.447,0.352-0.475c0.064-0.028,0.106,0.143,0.167,0.402c0.034,0.146,0.084,0.298,0.153,0.456
	c0.385,0.883,0.338,0.306,0.726-0.461c0.128-0.253,0.282-0.423,0.305-0.409c0.023,0.014,0.065,0.173,0.117,0.356
	c0.03,0.105,0.067,0.214,0.116,0.326c0.345,0.79,0.343,0.411,0.625-0.233c0.114-0.259,0.39-0.504,0.58-0.468
	c0.116,0.022,0.233,0.059,0.341,0.078c0.225,0.039,0.452,0.047,0.651,0.177c0.224,0.146,0.387,0.428,0.502,0.662
	c0.189,0.382,0.398,0.755,0.586,1.137c0.069,0.141,0.131,0.295,0.15,0.449c0.068,0.56,0.071,1.113-0.2,1.638
	c-0.109,0.211-0.149,0.457-0.257,0.669c-0.068,0.134-0.184,0.273-0.314,0.339c-0.323,0.163-0.503,0.442-0.689,0.726
	c-0.033,0.051-0.069,0.101-0.108,0.149c-0.064,0.079-0.343,0.062-0.589-0.078c-0.842-0.479-1.118-1.151-1.022-0.127
	c0.014,0.145,0.037,0.279,0.068,0.405c0.055,0.22-0.084,0.302-0.323,0.15C8.533,81.607,8.272,81,8.366,81.996
	c0.023,0.249,0.076,0.469,0.145,0.663c0.095,0.267,0.007,0.374-0.231,0.221c-0.771-0.496-1.029-1.097-0.936-0.104
	c0.016,0.173,0.047,0.331,0.088,0.476c0.073,0.257,0.153,0.438,0.128,0.423c-0.014-0.009-0.029-0.017-0.046-0.026
	c-1.608-0.791-2.383-2.722-1.999-0.968c0.139,0.634,0.369,1.156,0.606,1.565c0.142,0.245,0.063,0.344-0.177,0.194
	c-0.795-0.499-1.061-1.131-0.967-0.124c0.047,0.504,0.213,0.892,0.397,1.178c0.153,0.238,0.3,0.443,0.282,0.5
	c-0.012,0.036-0.021,0.072-0.028,0.106c-0.02,0.099-0.036,0.196-0.038,0.294c-0.002,0.115,0.053,0.3,0.133,0.333
	c0.063,0.026,0.128,0.046,0.195,0.063c0.11,0.027,0.303,0.142,0.465,0.161c0.09,0.01,0.187-0.006,0.286-0.058
	c0.096-0.05,0.191-0.101,0.287-0.152c0.228-0.111,0.448-0.235,0.668-0.359c0.034-0.021,0.066-0.039,0.096-0.056
	c0.054-0.031,0.198-0.073,0.304-0.137c0.105-0.064,0.402-0.264,0.678-0.427c0.276-0.163,0.535-0.316,0.583-0.332
	c0.029-0.01,0.058-0.017,0.088-0.022c0.526-0.092,1.062-0.132,1.58-0.254c0.375-0.089,0.721-0.293,1.091-0.415
	c0.329-0.109,0.671-0.184,1.01-0.258c0.41-0.089,0.821-0.175,1.236-0.236c0.258-0.038,0.522-0.034,0.784-0.036
	c0.477-0.005,0.949,0.012,1.401-0.215c0.215-0.108,0.492-0.082,0.723-0.166c0.461-0.168,0.904-0.386,1.366-0.549
	c0.13-0.046,0.304,0.025,0.456,0.052c0.202,0.037,0.402,0.085,0.603,0.125c0.356,0.071,0.716,0.111,1.067,0.226
	c0.393,0.129,0.812,0.18,1.205,0.308c0.333,0.109,0.641,0.29,0.967,0.422c0.245,0.099,0.497,0.185,0.752,0.255
	c0.642,0.176,1.287,0.343,1.932,0.506c0.117,0.03,0.243,0.027,0.365,0.031c0.154,0.005,0.312-0.014,0.409,0.152
	c0.016,0.028,0.07,0.048,0.105,0.047c0.456-0.016,0.794,0.273,1.179,0.444c0.365,0.161,0.743,0.293,1.116,0.436
	c0.038,0.014,0.086,0.007,0.119,0.027c0.28,0.174,0.558,0.352,0.838,0.528c0.033,0.02,0.07,0.035,0.106,0.048
	c0.513,0.188,1.018,0.369,1.403,0.807c0.128,0.146,0.341,0.411,0.641,0.199c0.018-0.012,0.093,0.025,0.115,0.057
	c0.189,0.269,0.367,0.546,0.558,0.813c0.131,0.183,0.271,0.36,0.418,0.531c0.059,0.068,0.151,0.107,0.217,0.169
	c0.143,0.135,0.296,0.264,0.417,0.417c0.252,0.32,0.617,0.462,0.958,0.644c0.043,0.023,0.103,0.024,0.134,0.056
	c0.151,0.157,0.306,0.313,0.437,0.486c0.049,0.065,0.073,0.19,0.046,0.264c-0.082,0.222-0.23,0.424-0.288,0.651
	c-0.081,0.317-0.287,0.531-0.518,0.715c-0.207,0.165-0.454,0.282-0.692,0.405c-0.289,0.15-0.584,0.286-0.88,0.423
	c-0.394,0.183-0.785,0.357-1.22,0.455c-0.382,0.087-0.801,0.149-1.123,0.427c-0.228,0.196-0.467,0.38-0.688,0.584
	c-0.78,0.72-2.041,0.356-2.779-0.217c-0.446-0.346-0.867-0.756-1.404-0.932c-0.735-0.241-1.58,0.023-2.134,0.562
	c-0.554,0.54-0.836,1.316-0.886,2.088s-0.326,2.637,0.357,2.278c-0.287-0.88,0.561-3.071,1.539-3.223
	c0.074-0.011,0.189,0.113,0.254,0.199c0.302,0.406,0.513,0.452,0.981,0.306c0.353-0.11,0.731-0.172,1.051,0.129
	c0.027,0.026,0.067,0.037,0.109,0.048c0.064,0.017,0.175,0.097,0.144,0.172c-0.021,0.051-0.07,0.092-0.105,0.092
	c-0.039,0-0.078,0-0.118,0c-0.121,0-0.225,0-0.329-0.001c-0.114-0.002-0.215,0.01-0.305,0.037c-0.164,0.048-0.663,0.305-1.024,0.662
	c-0.361,0.357-0.662,0.855-0.745,1.045c-0.049,0.112-0.079,0.236-0.109,0.358c-0.044,0.175-0.082,0.352-0.118,0.529
	c-0.008,0.038-0.01,0.099,0.012,0.117c0.296,0.247,0.254,0.65,0.451,0.948c0.32,0.483,0.668,0.902,1.295,0.957
	c0.049,0.004,0.098,0.003,0.147-0.001c0.025-0.002,0.049-0.009,0.094-0.02c0.051-0.013,0.027-0.071-0.053-0.132
	c-0.054-0.042-0.101-0.076-0.153-0.099c-0.498-0.222-0.683-0.618-0.6-1.144c0.012-0.075,0.101-0.159,0.175-0.201
	c0.334-0.186,0.431-0.577,0.218-0.896c-0.337-0.505,0.599-0.854,0.944-0.945c0.048-0.013,0.097-0.019,0.147-0.022
	c0.082-0.005,0.217,0.001,0.303,0.01c0.27,0.028-0.208,0.434-0.278,0.497c-0.284,0.257-0.527,0.418-0.586,0.836
	c-0.057,0.406,0.088,0.82,0.323,1.156c0.144,0.205,0.533,0.733,0.793,0.783c0.193,0.038,0.555-0.136,0.289-0.374
	c-0.07-0.062-0.132-0.129-0.187-0.198c-0.094-0.118-0.14-0.294-0.169-0.366c-0.03-0.071-0.111-0.179-0.129-0.269
	c-0.007-0.034-0.01-0.069-0.009-0.099c0.001-0.055,0.223-0.144,0.338-0.332c0.167-0.274-0.142-0.549,0.192-0.803
	c0.345-0.263,1.108-0.107,1.208-0.726c0.007-0.036,0.51-0.236,0.58-0.27c0.421-0.205,0.963-0.249,1.24-0.637
	c0.534-0.748,1.34-1.09,2.223-1.248c1.327-0.237,2.608-0.514,3.887-0.957c0.179-0.062,0.352-0.194,0.48-0.337
	c0.269-0.302,0.508-0.631,0.756-0.951c0.137-0.177,0.265-0.361,0.403-0.538c0.017-0.021,0.042-0.036,0.075-0.054
	c0.045-0.024,0.237,0.082,0.431,0.239c0.116,0.094,0.233,0.188,0.351,0.283c0.054,0.044,0.106,0.096,0.169,0.124
	c0.207,0.093,0.249,0.255,0.108,0.44c-0.424,0.56-0.828,1.137-1.276,1.677c-0.096,0.117-0.196,0.23-0.3,0.34
	c-0.171,0.182-0.436,0.381-0.575,0.461c-0.511,0.293-0.831,0.634-0.922,1.234c-0.057,0.373-0.212,1.442-0.806,1.393
	c-0.567-0.046-1.134-0.103-1.695-0.197c-0.183-0.03-0.355-0.167-0.515-0.28c-0.272-0.192-0.544-0.23-0.853-0.091
	c-0.288,0.13-0.59,0.232-0.883,0.352c-0.046,0.019-0.094,0.065-0.113,0.11c-0.189,0.452-0.436,0.893-0.537,1.364
	c-0.087,0.405-0.021,0.848,0.011,1.272c0.017,0.229,0.08,0.462,0.166,0.675c0.219,0.542,0.597,0.984,0.975,1.419
	c0.057,0.065,0.133,0.115,0.213,0.159c0.129,0.072,0.25,0.117,0.269,0.101s-0.048-0.143-0.147-0.286
	c-0.06-0.086-0.119-0.172-0.175-0.261c-0.219-0.348-0.433-0.7-0.445-1.129c-0.009-0.311-0.012-0.622-0.02-0.933
	c-0.009-0.343,0.099-0.648,0.323-0.902c0.043-0.049,0.19-0.055,0.262-0.021c0.17,0.08,0.311,0.186,0.521,0.202
	c0.44,0.034,0.483-0.286,0.802-0.42c0.374-0.157,0.936,0.121,1.226,0.356c0.076,0.062,0.151,0.135,0.177,0.229
	c0.059,0.216-0.213,0.316-0.37,0.37c-0.516,0.177-0.708,0.441-0.709,0.975c-0.001,0.277-0.077,0.554-0.119,0.832
	c-0.028,0.187-0.081,0.374-0.074,0.56c0.008,0.224,0.066,0.446,0.103,0.668c0.004,0.023,0.01,0.053,0.026,0.065
	c0.393,0.315,0.651,0.767,1.147,0.988c0.371,0.165,0.737,0.26,1.122,0.223c0.234-0.022,0.46-0.155,0.682-0.254
	c0.024-0.011,0.037-0.047,0.05-0.093c-0.02,0.07-0.798-0.027-0.899-0.055c-0.405-0.114-0.77-0.406-0.736-0.876
	c0.016-0.213,0.113-0.412,0.142-0.623c0.086-0.625-0.603-0.636-0.18-1.296c0.025-0.039,0.052-0.077,0.083-0.118
	c0.048-0.064,0.121,0.069,0.162,0.299c0.026,0.143,0.044,0.282,0.04,0.42c-0.009,0.291,0.161,0.403,0.368,0.494
	c0.24,0.106,0.492,0.186,0.739,0.276c0.16,0.059,0.352,0.056,0.537-0.001c0.288-0.089,0.4-0.28,0.327-0.273
	c-0.047,0.004-0.09,0.009-0.131,0.018c-0.278,0.059-0.791-0.072-0.817-0.412c-0.01-0.132,0.021-0.267-0.013-0.396
	c-0.067-0.253-0.591-0.257-0.189-0.555c0.14-0.104,0.33-0.026,0.46-0.114c0.181-0.124,0.29-0.414,0.388-0.604
	c0.255-0.498,0.446-1.028,0.564-1.575c0.068-0.314,0.113-0.637,0.236-0.935c0.409-0.996,1.401-1.577,2.318-2.026
	c0.947-0.463,2.252-1.467,2.617-2.514c0.305-0.875-0.04-1.839-0.553-2.56c-0.157-0.221-0.344-0.427-0.498-0.654
	c-0.255-0.376-0.202-0.794-0.082-0.837c0.074-0.027,0.149-0.048,0.225-0.048c0.901,0.003,1.86-0.647,2.683-0.967
	c0.985-0.383,1.986-0.724,2.999-1.023c2.08-0.614,4.201-0.917,6.313-1.344c0.244-0.049,0.494-0.073,0.743-0.084
	c0.047-0.002,0.133,0.102,0.143,0.166c0.028,0.177,0.022,0.359,0.035,0.539c0.058,0.818,0.247,1.611,0.451,2.403
	c0.18,0.701,0.262,1.338,0.512,2.023c0.292,0.8,0.569,1.606,0.793,2.428c0.44,1.611,0.682,3.303,0.396,4.963
	c-0.274,1.585-1.015,3.061-1.958,4.365c-1.067,1.476-2.48,2.656-3.608,4.039c-0.258,0.316-0.575,0.784-0.973,0.938
	c-0.439,0.17-1.056-0.013-1.53-0.018c-1.51-0.017-4.376,0.135-4.885,1.949c-0.139,0.495,0.552-0.028,0.633-0.066
	c0.343-0.162,0.764-0.159,1.111-0.011c0.216,0.092,0.425,0.595,0.54,0.609c0.088,0.011,0.644-0.438,0.827-0.488
	c0.073-0.02,0.172,0.051,0.258,0.083c0.12,0.044,0.239,0.129,0.359,0.129c1.892,0.008,3.784,0.008,5.675,0.002
	c0.12,0,0.239-0.061,0.359-0.09c0.21-0.052,0.419-0.114,0.632-0.149c0.252-0.041,0.544-0.304,0.541-0.562
	c-0.004-0.298-0.058-0.594-0.078-0.892c-0.005-0.072,0.029-0.153,0.064-0.22c0.054-0.105,0.176-0.201,0.179-0.304
	c0.014-0.425,0.329-0.631,0.588-0.881c0.024-0.023,0.049-0.045,0.073-0.065c0.041-0.034,0.246,0.045,0.46,0.176
	c0.13,0.081,0.258,0.161,0.383,0.246c0.138,0.094,0.284,0.145,0.444,0.169c0.262,0.04,0.454-0.033,0.424-0.094
	c-0.02-0.042-0.039-0.077-0.067-0.103c-0.084-0.082-0.187-0.146-0.278-0.221c-0.312-0.255-0.311-0.256-0.144-0.62
	c0.073-0.16-0.055-0.526-0.224-0.64c-0.154-0.105-0.207-0.524-0.06-0.639c0.402-0.316,0.814-0.619,1.226-0.922
	c0.622-0.458,1.306-0.839,1.769-1.491c0.09-0.126,0.262-0.191,0.387-0.296c0.16-0.135,0.321-0.271,0.462-0.425
	c0.142-0.154,0.304-0.313,0.377-0.501c0.148-0.383,0.231-0.79,0.362-1.18c0.177-0.528,0.093-1.067,0.085-1.601
	c-0.006-0.408-0.17-0.747-0.158-1.157c0.015-0.544,0.101-1.097,0.173-1.636c0.142-1.055,0.343-2.103,0.601-3.136
	c0.33-1.322,0.753-2.621,1.265-3.884c0.41-1.01,0.781-2.642,1.826-3.113c0.042-0.019,0.143,0.031,0.184,0.078
	c0.274,0.313,0.565,0.617,0.799,0.958c0.198,0.289,0.464,0.448,0.753,0.617c0.202,0.119,0.347,0.339,0.511,0.52
	c0.329,0.365,0.655,0.732,0.979,1.101c0.3,0.341,0.583,0.698,0.895,1.027c0.282,0.297,0.593,0.567,0.892,0.847
	c0.234,0.22,0.465,0.444,0.706,0.656c0.322,0.282,0.654,0.553,0.98,0.831c0.577,0.492,1.144,0.995,1.73,1.476
	c0.463,0.379,0.954,0.725,1.423,1.098c0.402,0.319,0.784,0.662,1.184,0.983c0.357,0.286,0.693,0.593,0.898,1.006
	c0.143,0.289,0.308,0.57,0.285,0.924c-0.025,0.394,0.147,0.706,0.451,0.981c0.338,0.305,0.622,0.67,0.923,1.015
	c0.212,0.243,0.447,0.476,0.611,0.749c0.3,0.499,0.606,0.998,0.73,1.587c0.058,0.276,0.203,0.534,0.304,0.802
	c0.096,0.253,0.185,0.508,0.281,0.76c0.174,0.458,0.351,0.914,0.528,1.371c0.011,0.029,0.045,0.051,0.049,0.08
	c0.081,0.536,0.127,1.08,0.25,1.606c0.075,0.319-0.056,0.422-0.3,0.511c-0.291,0.106-0.578,0.223-0.87,0.329
	c-0.162,0.059-0.326,0.121-0.495,0.149c-0.307,0.052-0.617,0.091-0.927,0.118c-0.615,0.053-1.231,0.091-1.846,0.141
	c-0.058,0.005-0.11,0.059-0.169,0.074c-0.357,0.09-0.711,0.197-1.073,0.256c-0.293,0.048-0.594-0.027-0.881,0.151
	c-0.188,0.117-0.437,0.144-0.662,0.192c-0.607,0.13-0.831,0.69-1.211,1.073c-0.03,0.03-0.039,0.081-0.044,0.137
	c-0.007,0.081,0.115,0.227,0.246,0.152c0.079-0.045,0.146-0.121,0.227-0.151c0.236-0.089,0.457-0.235,0.699-0.283
	c0.123-0.025,0.279,0.109,0.42,0.171c0.141,0.062,0.279,0.163,0.425,0.177c0.072,0.007,0.144,0.011,0.216,0.013
	c0.12,0.003,0.334-0.01,0.456,0.05c0.086,0.042,0.141,0.104,0.184,0.162c0.074,0.1,0.302-0.137,0.58-0.239
	c0.152-0.056,0.326-0.047,0.529,0.006c0.253,0.067,0.537,0.019,0.808,0.019c1.335,0,2.671-0.014,4.006,0.002
	c0.628,0.008,1.122-0.256,1.576-0.646c0.246-0.211,0.494-0.419,0.739-0.631c0.034-0.03,0.062-0.071,0.084-0.112
	c0.095-0.173,0.242-0.299,0.369-0.444c0.212-0.244,0.341-0.558,0.533-0.822c0.436-0.601,0.164-1.278,0.22-1.918
	c0.007-0.083-0.074-0.226-0.146-0.253c-0.178-0.066-0.228-0.211-0.32-0.346c-0.117-0.173-0.287-0.309-0.424-0.469
	c-0.138-0.161-0.273-0.324-0.408-0.488c-0.18-0.218-0.293-0.467-0.214-0.515c0.043-0.026,0.094-0.051,0.15-0.076
	c0.086-0.039,0.17-0.081,0.248-0.132c0.111-0.073,0.183-0.203,0.28-0.3c0.105-0.106,0.222-0.2,0.329-0.304
	c0.244-0.236,0.351-0.548,0.433-0.861c0.016-0.061-0.002-0.131-0.028-0.212c-0.036-0.114-0.1-0.172-0.147-0.131
	c-0.035,0.03-0.06,0.053-0.08,0.08c-0.16,0.218-0.344,0.4-0.628,0.438c-0.076,0.01-0.159,0.018-0.232,0
	c-0.287-0.071-0.568-0.171-0.814,0.113c-0.019,0.022-0.045,0.038-0.076,0.051c-0.047,0.02-0.221-0.012-0.299-0.159
	c-0.04-0.077-0.078-0.173-0.106-0.28c-0.047-0.178-0.09-0.353-0.121-0.531c-0.097-0.557-0.133-1.126-0.252-1.678
	c-0.067-0.31-0.25-0.595-0.381-0.891c-0.019-0.043-0.043-0.084-0.057-0.129c-0.131-0.42-0.228-0.854-0.398-1.257
	c-0.514-1.217-1.236-1.714-1.998-2.66C78.977,94.069,78.545,92.352,78,91c-1.193-2.958-2.328-5.94-3.405-8.942
	c-0.433-1.206,1.232-3.746,1.555-4.007c0.435-0.35,0.902-0.631,1.437-0.807c0.223-0.073,0.422-0.219,0.639-0.315
	c0.327-0.145,0.657-0.286,0.993-0.409c0.624-0.229,1.251-0.449,1.881-0.662c0.417-0.141,0.839-0.271,1.263-0.391
	c0.471-0.133,0.944-0.257,1.42-0.37c0.251-0.06,0.51-0.086,0.765-0.129c0.486-0.082,0.97-0.184,1.459-0.243
	c0.896-0.109,1.796-0.179,2.691-0.292c2.559-0.322,5.127-0.233,7.693-0.164c0.968,0.026,1.934,0.148,2.9,0.239
	c0.704,0.066,1.408,0.133,2.107,0.237c0.531,0.078,1.054,0.216,1.581,0.323c0.27,0.055,0.543,0.095,0.813,0.15
	c0.712,0.145,1.424,0.296,2.136,0.439c0.301,0.061,0.605,0.102,0.906,0.165c0.504,0.105,1.005,0.222,1.509,0.329
	c0.269,0.057,0.542,0.097,0.81,0.156c0.644,0.139,1.285,0.29,1.93,0.426c0.309,0.065,0.623,0.116,0.936,0.156
	c0.509,0.066,1.028,0.083,1.53,0.182c0.9,0.178,1.816,0.15,2.718,0.253c2.136,0.244,4.276,0.223,6.417,0.216
	c0.737-0.002,1.475-0.021,2.21-0.065c1.033-0.062,2.065-0.144,3.096-0.238c0.712-0.065,1.422-0.153,2.129-0.253
	c0.69-0.098,1.376-0.229,2.065-0.337c0.544-0.086,1.09-0.167,1.636-0.239c0.693-0.091,1.386-0.178,2.081-0.253
	c0.542-0.059,1.087-0.098,1.631-0.146c0.802-0.071,1.604-0.142,2.406-0.213c0.033-0.003,0.065-0.006,0.098-0.008
	c0.791-0.04,1.587-0.037,2.372-0.129c0.711-0.083,3.696,0.302,3.596-0.516C145.983,74.978,145.839,74.767,145.529,74.494z"/>
</g>
</svg>
