<?xml version="1.0" encoding="iso-8859-1"?>
<!-- Generator: Adobe Illustrator 17.1.0, SVG Export Plug-In . SVG Version: 6.00 Build 0)  -->
<!DOCTYPE svg PUBLIC "-//W3C//DTD SVG 1.1//EN" "http://www.w3.org/Graphics/SVG/1.1/DTD/svg11.dtd">
<svg version="1.1" id="Capa_1" xmlns="http://www.w3.org/2000/svg" xmlns:xlink="http://www.w3.org/1999/xlink" x="0px" y="0px"
	 viewBox="0 0 150 150" style="enable-background:new 0 0 150 150;" xml:space="preserve">
<g>
<path style="fill:#1D1D1B;" d="M147.973,56.911c-0.197-0.825-0.753-1.565-1.165-2.337c-0.028-0.053-0.101-0.085-0.159-0.117
	c-3.182-1.751-6.155-3.907-9.628-5.089c-1.107-0.377-2.283-0.618-3.446-0.737c-0.638-0.065-1.313,0.264-1.975,0.399
	c-0.305,0.062-0.613,0.109-0.932,0.103c-0.22-0.004-0.485,0.124-0.653,0.267c-0.633,0.538-1.377-0.215-1.696-0.431
	c-0.672-0.455-1.369-0.412-2.011-0.465c-0.779-0.065-1.623,0.142-2.376,0.407c-0.926,0.327-1.757,0.931-2.688,1.235
	c-0.668,0.218-1.295,0.823-1.472,1.133c-0.554,0.966-1.569,1.265-2.239,2.011c-0.724,0.807-1.561,1.543-2.452,2.161
	c-0.93,0.645-1.931,1.347-3,1.587c-0.961,0.215-2.088-0.039-3.084-0.303c-3.215-0.854-6.487-1.18-9.788-1.094
	c-1.692,0.044-3.372,0.44-5.065,0.594c-2.6,0.235-5.205,0.428-7.811,0.574c-0.785,0.044-1.582-0.136-2.374-0.196
	c-2.861-0.218-5.564,0.639-8.297,1.254c-2.98,0.671-5.947,1.407-8.915,2.133c-3.525,0.862-7.045,1.742-10.566,2.618
	c-3.06,0.761-6.137,1.462-9.173,2.31c-3.688,1.03-7.346,2.173-11.009,3.294c-2.932,0.897-5.915,1.676-8.762,2.794
	c-3.928,1.541-7.832,3.192-11.593,5.099c-2.874,1.457-5.548,3.327-8.234,5.129c-0.999,0.67-1.872,1.591-2.637,2.532
	C3.34,85.535,3.99,87.541,6.172,88.11c1.888,0.492,3.815,0.836,5.732,1.204c0.124,0.024,0.261-0.027,0.402-0.093
	c0.199-0.094,0.283-0.328,0.191-0.528c-0.07-0.153-0.147-0.288-0.26-0.332c-1.31-0.507-2.648-0.941-3.97-1.417
	c-0.484-0.174-0.994-0.334-1.411-0.619c-0.622-0.425-0.16-0.864,0.184-1.116c1.548-1.131,3.006-2.512,4.734-3.241
	c2.854-1.204,5.85-2.139,8.86-2.896c7.132-1.793,14.435-2.517,21.744-3.181c6.506-0.59,13.009-0.524,19.514-0.096
	c3.621,0.238,7.17,0.875,10.573,2.187c0.274,0.106,0.636,0.22,0.759,0.441c1.159,2.076,3.244,2.925,5.177,3.976
	c1.111,0.604,1.471,1.479,1.117,2.715c-0.164,0.572-0.366,1.157-0.388,1.742c-0.083,2.196-1.135,3.99-2.272,5.757
	c-0.106,0.165-0.217,0.371-0.378,0.449c-1.53,0.741-1.364,2.194-1.499,3.517c-0.103,1.012-0.04,2.087-0.317,3.022
	c-1.347,4.554,0.348,10.127,1.069,11.529c0.101,0.196,0.314,0.169,0.445-0.008c0.661-0.896,1.429-0.99,2.604-0.338
	c0.331,0.184,0.74,0.232,1.118,0.325c0.517,0.128,1.036,0.245,1.657,0.389c0.215,0.05,0.335-0.08,0.269-0.29
	c-0.139-0.44-0.283-0.897-0.436-1.381c-0.066-0.21,0.054-0.419,0.269-0.467c0.373-0.083,0.769-0.172,1.167-0.26
	c0.215-0.048,0.299-0.241,0.188-0.431c-0.738-1.263-0.841-1.508-0.406-1.64c0.211-0.064,0.405-0.15,0.425-0.229
	s-0.14-0.179-0.354-0.231c-0.387-0.094-0.775-0.198-1.161-0.195c-1.677,0.014-1.652,0.031-2.241-1.541
	c-1.035-2.761-0.702-5.184,0.844-7.824c1.309-2.235,3.311-3.474,5.073-5.077c2.089-1.901,3.664-4.179,5.159-6.534
	c0.059-0.093,0.118-0.186,0.176-0.275c0.097-0.152,0.353-0.248,0.571-0.216c1.069,0.16,2.103,0.314,3.027,0.453
	c0.218,0.033,0.414,0.237,0.437,0.456c0.249,2.328,0.486,4.679,0.764,7.024c0.158,1.329-0.019,2.563-0.698,3.733
	c-0.56,0.964-0.387,1.869,0.256,2.769c0.535,0.749,1.012,1.555,1.403,2.388c0.18,0.382,0.033,0.909,0.104,1.337
	c0.132,0.798-0.798,2.066-0.845,2.955c-0.011,0.22,0.194,0.31,0.369,0.209s0.418-0.331,0.543-0.512
	c0.226-0.326,0.431-0.623,0.658-0.95c0.125-0.181,0.283-0.158,0.353,0.051c0.1,0.302,0.19,0.574,0.282,0.849
	c0.069,0.209,0.147,0.557,0.223,0.764c0.479,1.315,2.339,2.216,3.14,2.551c0.203,0.085,0.55,0.151,0.77,0.164
	c0.632,0.037,1.316,0.09,1.737-0.202c0.95-0.658,2.054-0.114,2.983-0.677c0.213-0.129,0.57-0.02,0.916,0.076
	c0.212,0.059,0.392-0.089,0.346-0.304c-0.228-1.085-1.347-2.511-2.313-2.616c-1.677-0.181-2.775-1.132-3.657-2.437
	c-0.683-1.012-1.411-2.006-1.973-3.084c-1.099-2.109-0.872-4.244,0.23-6.28c1.23-2.273,2.613-4.465,3.786-6.766
	c0.896-1.756,1.498-3.625,1.03-5.635c-0.05-0.215,0.061-0.457,0.263-0.546c1.294-0.568,2.56-1.123,3.839-1.684
	c0.202-0.089,0.403,0.015,0.451,0.229c0.422,1.869,0.655,1.949,2.799,1.891c0.76-0.021,1.529-0.198,2.275-0.122
	c0.438,0.044,0.963,0.352,1.234,0.706c0.585,0.762,1.111,1.552,2.035,1.925c0.204,0.082,0.288-0.031,0.176-0.22
	c-0.34-0.572-0.666-1.121-1.005-1.692c-0.113-0.189-0.026-0.319,0.186-0.26c1.23,0.338,2.502,1.385,2.766,2.198
	c0.068,0.21,0.1,0.421,0.171,0.455c0.071,0.034,0.201-0.102,0.29-0.303c0.064-0.145,0.118-0.29,0.124-0.437
	c0.012-0.278-0.25-0.594-0.187-0.839c0.243-0.938,0.055-1.688-0.569-2.38c-0.147-0.164-0.115-0.219,0.091-0.142
	c0.904,0.334,1.82,0.641,2.679,1.065c0.339,0.168,0.778,0.866,0.676,1.051c-0.218,0.398-0.617,0.697-1.058,1.072
	c-0.168,0.143-0.122,0.243,0.097,0.216c0.342-0.041,0.691-0.083,1.042-0.125c0.219-0.026,0.425,0.129,0.453,0.347
	c0.142,1.123-0.011,1.512-0.805,1.725c-0.213,0.057-0.24,0.161-0.061,0.268c0.156,0.093,0.274,0.161,0.344,0.127
	c0.676-0.332,1.456-0.602,1.94-1.131c0.518-0.566,0.533-1.365,0.05-2.12c-0.577-0.902-1.024-1.887-1.604-2.787
	c-0.173-0.267-0.594-0.392-0.922-0.536c-2.006-0.886-2.851-2.804-2.658-4.59c0.22-2.037,0.457-4.319,2.078-5.977
	c1.435-1.466,3.293-2,5.239-2.203c0.792-0.083,1.618,0.227,2.433,0.26c0.645,0.026,1.357,0.052,1.935-0.182
	c2.539-1.029,5.045-0.948,7.615-0.121c1.338,0.43,2.727,0.766,4.118,0.944c1.16,0.149,1.85-0.458,2.229-1.552
	c0.158-0.458-0.263-1.274-0.754-1.674c0.357-1.252-0.845-2.33-0.653-1.531c0.11,0.456-0.072,0.893-0.288,1.225
	c-0.021-0.004-0.045-0.008-0.067-0.012c0.264-0.873-0.27-1.403-0.236-1.04c0.023,0.258-0.276,0.53-0.562,0.731
	c0.122-0.737-0.305-1.158-0.274-0.827c0.023,0.252-0.263,0.519-0.543,0.718c0.066-0.67-0.322-1.033-0.293-0.718
	c0.019,0.208-0.176,0.426-0.401,0.608c-0.073-0.021-0.147-0.043-0.221-0.065c0.298-0.901-0.248-1.461-0.214-1.091
	c0.026,0.29-0.357,0.6-0.668,0.803c-0.02-0.007-0.04-0.014-0.06-0.021c0.492-1.036-0.145-1.731-0.108-1.33
	c0.03,0.322-0.442,0.667-0.764,0.864c0.569-1.083-0.11-1.824-0.072-1.412c0.033,0.364-0.58,0.763-0.886,0.938
	c0.281-0.888-0.258-1.434-0.225-1.067c0.021,0.231-0.219,0.474-0.474,0.666c-0.022-0.019-0.048-0.037-0.07-0.057
	c-0.484-0.445-1.025-0.85-1.595-1.175c-1.042-0.593-1.184-0.928-0.383-1.646c0.164-0.147,0.359-0.086,0.426,0.123l0.003,0.01
	c0.067,0.21,0.214,0.272,0.329,0.138c0.115-0.134,0.289-0.083,0.388,0.114c0.009,0.017,0.018,0.035,0.027,0.052
	c0.099,0.197,0.257,0.195,0.353-0.004c0.046-0.096,0.093-0.194,0.145-0.302c0.095-0.199,0.229-0.191,0.3,0.018
	c0.015,0.046,0.03,0.089,0.044,0.132c0.07,0.209,0.196,0.236,0.28,0.062c0.043-0.089,0.127-0.161,0.228-0.207
	c0.112,0.306,0.185,0.651,0.038,0.837c-0.229,0.288,0.522,0.127,0.772-0.77c0.16,0.314,0.455,0.983,0.228,1.27
	c-0.21,0.264,0.398,0.14,0.695-0.571c0.117,0.01,0.233,0.011,0.351,0.018c0.049,0.216,0.057,0.424-0.045,0.553
	c-0.205,0.258,0.369,0.145,0.673-0.52c0.127,0.003,0.256,0.02,0.382,0.02c0.038,0.197,0.038,0.382-0.055,0.5
	c-0.205,0.259,0.374,0.144,0.677-0.529c0.123-0.005,0.246-0.016,0.369-0.024c0.049,0.216,0.057,0.423-0.045,0.552
	c-0.212,0.267,0.412,0.138,0.705-0.594c0.109-0.011,0.219-0.011,0.327-0.025c0.064,0.241,0.08,0.477-0.032,0.62
	c-0.228,0.287,0.516,0.13,0.77-0.756c0.069-0.012,0.137-0.025,0.206-0.038c0.103,0.295,0.164,0.617,0.024,0.794
	c-0.242,0.305,0.604,0.096,0.802-0.947c0.006-0.002,0.012-0.004,0.019-0.005c0.035,0.434-0.007,1.031-0.42,1.421
	c-0.708,0.667,1.667,0.208,1.458-1.708c-0.001-0.012-0.003-0.021-0.005-0.033c0.242-0.078,0.487-0.135,0.727-0.225
	c0.206-0.077,0.439-0.31,0.541-0.505C147.804,57.71,148.059,57.27,147.973,56.911z M118.052,79.314
	c-1.425-0.31-2.859-0.622-4.489-0.977c-0.215-0.047-0.228-0.16-0.028-0.252c1.163-0.539,2.199-1.018,3.282-1.52
	c0.2-0.093,0.431-0.003,0.517,0.2c0.343,0.814,0.656,1.559,0.954,2.266C118.372,79.234,118.267,79.361,118.052,79.314z"/>
</g>
</svg>
