<?xml version="1.0" encoding="iso-8859-1"?>
<!-- Generator: Adobe Illustrator 17.1.0, SVG Export Plug-In . SVG Version: 6.00 Build 0)  -->
<!DOCTYPE svg PUBLIC "-//W3C//DTD SVG 1.1//EN" "http://www.w3.org/Graphics/SVG/1.1/DTD/svg11.dtd">
<svg version="1.1" id="Capa_1" xmlns="http://www.w3.org/2000/svg" xmlns:xlink="http://www.w3.org/1999/xlink" x="0px" y="0px"
	 viewBox="0 0 150 150" style="enable-background:new 0 0 150 150;" xml:space="preserve">
<g id="ySzr04.tif">
	<g>
		<path d="M21.351,76.935c4.06,1.304,8.203,2.421,12.494,2.659c2.266,0.126,4.555,0.103,6.819-0.056
			c1.587-0.111,3.156-0.823,4.723-0.793c1.625,0.032,3.058-0.438,4.556-0.821c0.521-0.133,1.09-0.089,1.602-0.242
			c0.786-0.235,1.521-0.661,2.314-0.848c2.082-0.491,4.208-0.809,6.271-1.365c1.687-0.455,3.282-1.252,4.967-1.719
			c1.616-0.448,3.304-0.634,4.945-1.002c0.754-0.169,1.468-0.512,2.208-0.751c0.915-0.296,1.827-0.74,2.762-0.802
			c1.176-0.078,2.349-0.429,3.557-0.174c0.106,0.022,0.242-0.097,0.383-0.242c0.18-0.185,0.717-0.086,1.258,0.023
			c0.58,0.117,1.206,0.084,1.727-0.087c0.525-0.172,1.175-0.174,1.704-0.015c0.334,0.1,0.686,0.116,1.016,0.045
			c0.54-0.116,1.207-0.112,1.736,0.047c0.222,0.067,0.417,0.055,0.611-0.037c0.498-0.238,0.976-0.268,1.473-0.027
			c0.375,0.182,0.813,0.181,1.424-0.061c0.335-0.133,0.843,0.283,1.357,0.323c0.551,0.042,1.095-0.071,1.526,0.274
			c0.35,0.281,0.648,0.355,0.94,0.23c0.508-0.218,0.94-0.445,1.216-0.152c0.276,0.292,0.563,0.495,0.639,0.452
			c0.076-0.043,0.138-0.377,0.138-0.746s0.333-0.368,0.743,0.001c0.308,0.278,0.618,0.557,0.929,0.836
			c0.41,0.37,0.811,0.608,0.894,0.533c0.084-0.075,0.177-0.529,0.209-1.013s0.309-0.508,0.619-0.052
			c0.194,0.286,0.378,0.556,0.557,0.819c0.311,0.457,0.65,0.794,0.759,0.754c0.109-0.04,0.268-0.514,0.355-1.06
			c0.006-0.039,0.013-0.079,0.019-0.118c0.087-0.545,0.383-0.601,0.661-0.123c0.237,0.407,0.47,0.807,0.711,1.22
			c0.278,0.477,0.644,0.611,0.817,0.299c0.173-0.312,0.508-0.215,0.747,0.216c0.16,0.29,0.323,0.538,0.55,0.693
			c0.138,0.095,0.39,0.023,0.676-0.081c0.364-0.132,0.672,0.333,1.157,0.597c0.641,0.349,1.722-0.084,2.442,0.329
			c1.014,0.582,2.485,0.362,3.755,0.504c0.667,0.074,1.339,0.276,1.997,0.236c1.637-0.099,3.268-0.297,4.901-0.466
			c2.214-0.229,4.43-0.448,6.641-0.706c3.435-0.401,6.853-0.846,10.336-0.458c3.396,0.378,5.85,2.161,7.8,4.797
			c0.059,0.08,0.111,0.158,0.157,0.234c0.08,0.133,0.151,0.263,0.176,0.281c0.015,0.011,0.029,0.022,0.042,0.034
			c0.031,0.029,0.061,0.059,0.092,0.088c0.254,0.245,0.246,0.67,0,0.915c-0.05,0.05-0.106,0.089-0.166,0.119
			c-0.101,0.05-0.228,0.074-0.272,0.086c-0.044,0.012-0.166,0.075-0.279,0.133c-0.113,0.057-0.21,0.14-0.21,0.198
			s0.037,0.14,0.082,0.182c0.027,0.026,0.055,0.051,0.082,0.077c0.258,0.241,0.243,0.672,0,0.915c-0.256,0.256-0.658,0.24-0.915,0
			c-0.047-0.043-0.093-0.087-0.14-0.13c-0.077-0.072-0.508-0.385-0.989-0.656c-2.298-1.294-4.851-1.711-7.38-1.226
			c-7.355,1.41-14.632,3.144-22.213,2.983c-2.324-0.049-4.667,0.623-6.992,1.02c-0.697,0.119-1.348,0.453-1.241,1.366
			c0.297,2.527-1.184,4.013-3.09,5.213c-1.072,0.675-1.555,3.223-0.676,4.104c1.43,1.433,2.839,2.895,4.363,4.223
			c1.167,1.017,1.521,2.281,1.768,3.68c0.096,0.544-0.279,0.912-0.822,0.809c-0.608-0.115-1.163-0.217-1.72-0.23
			c-0.818-0.018-0.994-0.397-1.08-1.1c-0.064-0.519-0.199-1.23-0.561-1.478c-1.465-1.005-2.991-1.919-4.509-2.846
			c-0.471-0.288-0.931-0.453-1.03-0.367c-0.099,0.086-0.117,0.599-0.042,1.146c0.297,2.149,0.596,4.31,0.908,6.57
			c0.076,0.547-0.311,1.019-0.862,1.053c-0.465,0.029-0.947,0.057-1.429,0.077c-0.708,0.029-0.868-0.346-0.982-1.029
			c-0.314-1.891-0.792-3.754-1.184-5.633c-0.303-1.455-0.601-2.912-0.845-4.378c-0.062-0.375-0.088-0.757-0.105-1.139
			c-0.024-0.552-0.492-1-1.044-1h-5.41c-0.552,0-1.045,0.446-1.115,0.994c-0.327,2.584-0.819,5.153-0.095,7.719
			c0.129,0.456,0.381,0.877,0.693,1.324c0.317,0.453,0.864,1.085,0.701,1.389c-0.08,0.149-0.269,0.242-0.544,0.243
			c-1.1,0.002-2.13,0.005-3.159-0.004c-0.928-0.008-1.345-0.427-1.412-1.422c-0.115-1.715-0.333-3.423-0.532-5.132
			c-0.064-0.549-0.207-1.007-0.323-1.024c-0.116-0.017-0.334,0.4-0.51,0.924c-0.381,1.138-0.809,2.273-0.866,3.427
			c-0.062,1.26,0.259,2.543,1.279,3.545c0.394,0.387,0.356,0.756-0.168,0.932c-0.515,0.174-0.952,0.319-1.401,0.414
			c-2.659,0.563-4.04-0.741-3.702-3.413c0.119-0.938,0.16-1.889,0.19-2.836c0.083-2.565,0.17-5.131,0.172-7.696
			c0-0.312-0.449-0.737-0.791-0.92c-2.331-1.245-4.675-2.468-7.043-3.64c-1.334-0.66-2.676-1.384-4.099-1.769
			c-1.981-0.537-4.027-0.906-6.069-1.128c-3.888-0.422-7.79-0.933-11.69-0.959c-5.012-0.033-9.846-1.123-14.657-2.165
			c-3.727-0.807-7.277-2.44-10.898-3.726c-1.159-0.411-2.321-0.829-3.436-1.343c-2.88-1.326-5.728-2.723-8.606-4.054
			c-0.346-0.16-0.712-0.275-1.083-0.381c-0.531-0.151-0.937-0.373-0.905-0.493c0.031-0.12,0.494-0.121,1.036-0.016
			c1.131,0.22,2.27,0.416,3.346,0.794C13.664,74.049,17.446,75.68,21.351,76.935z"/>
	</g>
</g>
<path style="fill:#FFFFFF;" d="M143.154,80.36c0.008,0.009,0.013,0.018,0.018,0.027c0.008,0.015,0.196,0.135,0.42,0.266
	c0.135,0.08,0.271,0.159,0.406,0.239c0.018,0.011,0.034,0.023,0.048,0.036c0.024,0.023,0.058,0.066,0.074,0.094
	c0.01,0.017,0.017,0.035,0.021,0.056l0.129,0.691c0.026,0.139-0.036,0.279-0.181,0.318c-0.127,0.035-0.293-0.042-0.318-0.181
	c-0.019-0.102-0.038-0.205-0.057-0.307c-0.032-0.17-0.233-0.411-0.451-0.539c-0.131-0.077-0.262-0.154-0.393-0.231
	c-0.027-0.016-0.048-0.034-0.064-0.055c-0.03-0.036-0.133-0.174-0.246-0.298c-0.068-0.075-0.136-0.149-0.204-0.224
	c-0.224-0.246,0.141-0.613,0.366-0.366C142.866,80.044,143.01,80.202,143.154,80.36z"/>
</svg>
