<?xml version="1.0" encoding="iso-8859-1"?>
<!-- Generator: Adobe Illustrator 17.1.0, SVG Export Plug-In . SVG Version: 6.00 Build 0)  -->
<!DOCTYPE svg PUBLIC "-//W3C//DTD SVG 1.1//EN" "http://www.w3.org/Graphics/SVG/1.1/DTD/svg11.dtd">
<svg version="1.1" id="Capa_1" xmlns="http://www.w3.org/2000/svg" xmlns:xlink="http://www.w3.org/1999/xlink" x="0px" y="0px"
	 viewBox="0 0 150 150" style="enable-background:new 0 0 150 150;" xml:space="preserve">
<g>
<path d="M145.594,58.123c-3.463-2.336-7.192-3.849-11.332-2.089c-3.403,1.447-6.643,3.276-9.973,4.899
	c-3.901,1.903-8.034,2.894-12.365,2.485c-1.889-0.178-3.764-0.75-5.421-1.879c-5.662-3.859-11.952-6.128-18.672-7.358
	c-4.196-0.768-8.403-1.257-12.665-1.267c-5.74-0.014-11.38,0.692-16.989,1.98c-3.639,0.836-7.417,1.045-11.108,1.683
	c-3.879,0.671-7.772,1.348-11.578,2.334c-4.145,1.074-8.323,1.786-12.583,1.91c-4.935,0.144-9.829-0.349-14.549-1.878
	c-1.618-0.524-3.118-1.413-4.615-2.109c-0.091,0.62,0.29,1.655,1.188,2.413c0.788,0.665,1.621,1.327,2.537,1.781
	c3.354,1.662,6.721,3.304,10.139,4.829c4.473,1.996,9.146,2.833,14.095,2.845c6.297,0.014,12.615,0.349,18.878,0.987
	c2.819,0.287,5.537,1.619,8.288,2.518c1.949,0.637,3.839,1.384,5.35,2.884c0.337,0.335,0.976,0.412,1.495,0.508
	c1.365,0.253,2.772,0.341,4.1,0.714c0.716,0.201,1.305,0.853,2.068,1.383c-1.216,0.759-2.13,1.309-3.02,1.897
	c-0.247,0.163-0.541,0.404-0.609,0.664c-0.418,1.573-1.519,2.64-2.565,3.792c-1.283,1.411-1.215,2.934,0.016,4.369
	c0.768,0.896,1.122,2.006,0.59,3.004c-0.978,1.836-0.236,3.083,1.079,4.227c1.01,0.878,2.039,1.564,3.567,1.418
	c1.855-0.177,3.743-0.062,5.737-0.049c0.651,0.184,1.339,0.417,1.445,0.608c0.192,0.345,0.306-1.352-1.849-1.951
	c-0.201-0.196-0.428-0.366-0.71-0.49c-1.494-0.651-3.019-1.236-4.482-1.949c-1.33-0.649-1.873-1.805-1.651-3.273
	c0.145-0.955,0.28-1.921,0.559-2.84c0.129-0.424,0.52-0.922,0.917-1.087c2.202-0.911,4.441-1.734,6.67-2.579
	c1.583-0.6,2.508-0.953,2.471-2.892h1.973c-0.48,0.742-0.933,1.485-1.433,2.197c-0.22,0.313-0.518,0.577-0.806,0.834
	c-0.381,0.34-1.069,0.609-1.125,0.983c-0.127,0.847-0.081,1.778,0.147,2.605c0.219,0.796,0.82,1.479,1.138,2.258
	c0.401,0.983,0.991,2.021,0.966,3.022c-0.078,3.207,1.3,3.539,3.799,3.972c1.584,0.274,3.24,0.13,4.88,0.082
	c0.735,0.172,1.549,0.394,1.703,0.569c0.229,0.26,0.029-0.81-1.291-1.546c-0.222-0.237-0.454-0.45-0.727-0.562
	c-2.087-0.855-3.743-2.044-4.349-4.373c-0.236-0.908-0.677-1.762-1.023-2.641c-0.68-1.731,0.532-2.834,1.596-3.612
	c2.66-1.945,5.46-3.715,8.306-5.379c0.838-0.49,2.02-0.391,3.109-0.573c-0.143,1.257-0.291,2.377-0.395,3.501
	c-0.241,2.608,1.14,4.354,3.23,5.547c2.073,1.183,4.282,2.125,6.392,3.246c0.394,0.209,0.748,0.494,1.116,0.807
	c0.237,0.276,0.506,0.524,0.808,0.679c0.022,0.018,0.043,0.035,0.059,0.029c0.303,0.141,0.637,0.184,1.002,0.064
	c0.701,0.414,1.41,0.668,2.01-0.031c0.072-0.084,0-0.197-0.082-0.202c-0.021-0.035-0.057-0.061-0.099-0.061
	c-0.278-0.004-0.556-0.007-0.834-0.011l-0.835-0.532c-0.208-0.242-0.407-0.474-0.604-0.704c0.037-0.058,0.073-0.116,0.11-0.174
	c0.641,0.371,1.346,0.575,2.079,0.607c0.734,0.402,1.612,0.295,2.265-0.326c0.085-0.081-0.002-0.227-0.113-0.195
	c-0.34,0.099-0.685,0.148-1.027,0.152c-1.184-0.386-2.281-0.959-3.272-1.708c0.577,0.096,1.169-0.04,1.648-0.389
	c0.044-0.007,0.088-0.015,0.132-0.022c-0.024-0.008-0.048-0.016-0.072-0.023c0.012-0.01,0.024-0.02,0.037-0.03
	c0.21-0.045,0.39-0.154,0.506-0.4c0.052-0.109-0.051-0.208-0.159-0.159c-0.269,0.122-0.538,0.243-0.807,0.365
	c-0.089-0.004-0.177-0.012-0.259-0.018c-0.119-0.009-0.233-0.013-0.344-0.005c-1.824-0.322-3.765-0.252-4.794-2.549
	c2.984-0.005,5.418-2.398,8.563-2.086c0.604,0.523,1.524,0.504,2.104-0.062c0.102-0.1-0.027-0.231-0.141-0.183
	c-0.562,0.238-1.202,0.075-1.594-0.379c0.313-0.111,0.635-0.224,0.985-0.348c0.009-0.001,0.019-0.006,0.029-0.01
	c0.072-0.025,0.145-0.051,0.219-0.077c0.685-0.074,1.25-0.576,1.438-1.208c0.027-0.09-0.087-0.195-0.171-0.131
	c-0.221,0.169-0.442,0.337-0.663,0.506c-0.77,0.269-1.56,0.448-2.368,0.534h-0.581c-0.024-0.037-0.067-0.061-0.123-0.046
	c-0.017,0.005,2.159-1.319,2.106-2.577c-0.013,0.008,0.049-0.272,0.093-0.42c0.04-0.132-0.141-0.195-0.213-0.09
	c-0.238,0.348-0.477,0.696-0.715,1.044c-0.556,0.356-1.125,0.72-1.696,1.085c-0.072-0.068-0.145-0.137-0.217-0.205l0.262-1.222
	c0.22-0.538,0.093-1.176-0.338-1.593c-0.031-0.029-0.057-0.061-0.091-0.088c-0.098-0.078-0.254,0.019-0.183,0.141
	c0.024,0.04,0.042,0.082,0.063,0.123c-0.055,0.482-0.11,0.965-0.166,1.447c-0.066,0.102-0.136,0.2-0.222,0.279
	c-1.103,1.007-2.395,1.425-3.918,1.394c-1.403-0.028-2.811,0.196-4.443,0.327c0.406-0.866,0.745-1.742,1.207-2.548
	c1.318-2.3,3.504-3.721,5.467-5.387c2.628-2.23,5.879-3.05,8.967-4.251c3.815-1.484,7.182-3.749,10.621-5.918
	c2.306-1.454,4.712-3.051,7.293-3.678c2.305-0.56,4.912,0.116,7.385,0.263c0.222,0.013,0.448,0.241,0.652,0.215
	c0.604-0.077,1.465-0.033,1.737-0.399C146.459,59.631,146.363,58.642,145.594,58.123z"/>
</g>
</svg>
