<?xml version="1.0" encoding="iso-8859-1"?>
<!-- Generator: Adobe Illustrator 17.1.0, SVG Export Plug-In . SVG Version: 6.00 Build 0)  -->
<!DOCTYPE svg PUBLIC "-//W3C//DTD SVG 1.1//EN" "http://www.w3.org/Graphics/SVG/1.1/DTD/svg11.dtd">
<svg version="1.1" id="Capa_1" xmlns="http://www.w3.org/2000/svg" xmlns:xlink="http://www.w3.org/1999/xlink" x="0px" y="0px"
	 viewBox="0 0 150 150" style="enable-background:new 0 0 150 150;" xml:space="preserve">
<g>
	<path d="M136,75.765c-0.002,0.006-0.003,0.01-0.005,0.016c0.005,0,0.009,0,0.014,0C136.006,75.775,136.003,75.77,136,75.765z"/>
	<path d="M146.316,79.813c-0.183-0.397-0.366-0.794-0.549-1.191c-0.008-0.017-0.027-0.042-0.04-0.042
		c-0.73,0.012-0.98-0.725-1.542-0.987c-0.593-0.278-1.139-0.658-1.734-0.93c-0.415-0.19-0.877-0.277-1.32-0.406
		c0.013,0.025,0.028,0.05,0.041,0.074c-0.026-0.008-0.053-0.016-0.08-0.023c0.008-0.019,0.015-0.038,0.017-0.056
		c-0.699-0.165-1.397-0.467-2.096-0.469c-1-0.003-2.002-0.008-3.003,0c0.014,0.026,0.028,0.05,0.042,0.075c-0.026,0-0.052,0-0.078,0
		c0.007-0.025,0.014-0.049,0.022-0.075c-1.474,0.011-2.947,0.05-4.412,0.167c-4.56,0.362-9.076,1.282-13.667,1.228
		c-2.612-0.031-5.248-0.142-7.824-0.536c-2.294-0.351-4.554-0.944-6.811-1.526c-1.222-0.402-2.462-0.747-3.714-1.035
		c-0.816-0.253-1.631-0.506-2.459-0.713c-0.407-0.102-0.816-0.201-1.226-0.294c-0.44-0.242-0.947-0.395-1.481-0.451
		c-4.682-0.485-9.489-0.026-14.012,1.283c-0.645,0.081-1.289,0.171-1.927,0.292c-0.353,0.067-0.704,0.145-1.054,0.229
		c-0.235,0.042-0.466,0.101-0.692,0.175c-0.427,0.112-0.853,0.229-1.279,0.346c-3.647,0.866-7.233,1.971-10.734,3.316
		c-2.69,0.858-5.385,1.701-8.101,2.465c-0.462,0.13-0.93,0.24-1.401,0.337c-2.469,0.505-5.068,0.602-7.583,0.85
		c-2.093,0.196-4.185,0.412-6.277,0.618c-2.076,0.204-4.155,0.174-6.246,0.226c-4.475,0.112-8.95,0.222-13.426,0.304
		c-2.779,0.051-5.564-0.079-8.34,0.034c-2.57,0.105-5.155,0.32-7.521,1.509c-0.771,0.387-1.525,0.81-2.269,1.247
		C3.357,85.958,3.244,86.182,3,86.47c0.246-0.088,0.36-0.107,0.45-0.164c2.626-1.675,5.541-2.365,8.606-2.647
		c2.664-0.245,5.307-0.09,7.958,0.119c1.035,0.082,2.074,0.117,3.112,0.148c6.816,0.199,13.635,0.517,20.435,0.797
		c1.518,0.063,3.04-0.002,4.561,0.005c2.09,0.01,4.18,0.057,6.269,0.067c2.031,0.009,3.918,0.079,5.951-0.151
		c1.84-0.208,3.717-0.332,5.569-0.38c0.831-0.021,1.659,0.095,2.49,0.156c0.894,0.066,1.924-0.028,2.796,0.161
		c1.875,0.407,3.576,1.201,5.197,2.23c0.354,0.225,0.734,0.413,1.117,0.587c0.088,0.947,0.619,1.852,1.472,2.351
		c0.629,0.368,1.334,0.474,2,0.359c0.641,0.142,1.281,0.286,1.918,0.444c0.155,0.039,0.332,0.263,0.376,0.433
		c0.236,0.909,0.363,1.815,0.253,2.779c-0.163,1.423-0.05,2.885-0.291,4.29c-0.182,1.062-0.778,2.046-1.11,3.09
		c-0.3,0.944-0.493,1.922-0.765,3.01h5.818c-0.188-0.391-0.364-0.758-0.54-1.122c0.005-0.096-0.036-0.192-0.146-0.254
		c-0.493-0.279-0.986-0.558-1.479-0.837c0.217-0.508,0.316-1.082,0.305-1.606c-0.003-0.121-0.008-0.242-0.014-0.364
		c0.177-0.794,0.453-1.575,1.004-2.287c0.388-0.5,1.685-4.403,1.914-5.246c0.389,0.097,0.78,0.183,1.174,0.255
		c0.062,0.159,0.093,0.389,0.149,0.737c0.354,2.188,0.092,4.342-0.207,6.506c-0.106,0.768-0.082,1.558-0.066,2.337
		c0.015,0.755,0.327,1.116,1.08,1.183c0.547,0.048,1.113-0.007,1.659-0.09c0.301-0.046,1.455-0.031,1.617,0.255
		c0.102,0.18,0.909,0.115,0.986-0.069c0.461-1.098-0.961-2.015-2.077-2.511c-0.174-0.077-0.366-0.362-0.362-0.547
		c0.019-0.856,0.012-1.73,0.19-2.56c0.199-0.93,0.674-1.802,0.869-2.732c0.242-1.163,0.863-1.442,1.985-1.389
		c0.607,0.029,1.22-0.076,1.847-0.194c0.399,0.997,0.794,1.998,1.123,3.015c0.007,0.023,0.015,0.046,0.022,0.07
		c0.057,0.704,0.026,1.419,0.072,2.124c0.043,0.669-0.133,1.151-0.765,1.47c-0.224,0.113-0.39,0.39-0.512,0.628
		c-0.034,0.067,0.184,0.262,0.286,0.398c0.637,0.555,1.273,1.11,1.91,1.666c0.074-0.023,0.147-0.046,0.221-0.069
		c0.03-0.871,0.291-1.616,0.781-2.234c0.034-0.024,0.068-0.049,0.104-0.072c0.094-0.059,0.161-0.132,0.207-0.211
		c0.375-0.126,0.471-0.6,0.288-0.904c0.027-0.733,0.032-1.466,0.011-2.197c0.088-0.559,0.188-1.117,0.198-1.678
		c0.018-1.095,0.034-1.094,1.044-1.795c-0.126,0.711-0.233,1.321-0.345,1.954c0.247-0.069,0.717,3.893,0.82,5.04
		c-0.021,0.066-0.036,0.135-0.044,0.204c-0.02,0.173,0.023,0.345,0.106,0.497c0.029,0.286,0.063,0.572,0.069,0.88
		c-0.141,0.197-0.103,0.459,0.032,0.648c-0.017,0.94,0.571,1.4,1.438,1.024c0.124-0.054,0.178-0.266,0.265-0.406
		c0.04,0.127,0.081,0.253,0.124,0.389h1.322c-0.173-0.417-0.33-0.743-0.445-1.083c-0.157-0.463-0.302-0.932-0.413-1.407
		c-0.052-0.224-0.073-0.455-0.093-0.687c0-0.044-0.003-0.088-0.012-0.135c-0.005-0.06-0.01-0.12-0.016-0.179
		c-0.041-0.397-0.106-0.794-0.107-1.192c-0.002-1.174-0.019-2.351,0.056-3.521c0.032-0.505,0.284-0.994,0.422-1.494
		c0.358-1.303,0.945-2.471,1.759-3.569c0.76-1.025,1.313-2.207,1.458-3.505c0.063-0.562,0.35-0.857,0.829-0.951
		c0.858-0.169,1.726-0.35,2.596-0.387c2.397-0.101,4.812-0.07,7.146-0.691c2.469-0.656,4.919-1.395,7.356-2.163
		c3.893-1.227,7.834-2.243,11.866-2.886c0.63-0.101,1.272-0.135,1.91-0.175c1.917-0.12,2.884,0.28,3.595,1.634
		c0.034,0.581,0.171,1.158,0.59,1.557c0.507,0.483,1.167,0.695,1.817,0.373c0.21-0.104,0.172-0.326,0.039-0.453
		c0.152-0.138,0.171-0.303,0.093-0.237c-0.077,0.066-0.222,0.082-0.33,0.086c0.223-0.143,0.263-0.371,0.173-0.295
		c-0.095,0.082-0.303,0.089-0.403,0.088c-0.422-0.283-0.631-0.752-0.573-1.235c0.353,0.209,0.705,0.417,1.058,0.626
		c-0.008,0.014-0.011,0.032-0.021,0.044c-0.051,0.06,0.037,0.061,0.143-0.011c0.022,0.003,0.045,0.017,0.068,0.015
		c0,0.012,0,0.022-0.001,0.036c-0.018,0.047-0.024,0.096-0.02,0.146c-0.013,0.061-0.032,0.119-0.065,0.158
		c-0.049,0.057,0.028,0.059,0.126-0.001c0.029,0.038,0.067,0.066,0.116,0.085c-0.011,0.025-0.018,0.054-0.034,0.072
		c-0.063,0.074,0.083,0.059,0.217-0.075c0.122-0.037,0.202-0.129,0.21-0.244c0.04-0.044,0.071-0.099,0.084-0.159
		c0.013-0.015,0.026-0.033,0.038-0.052C147.606,81.285,146.975,80.463,146.316,79.813z M104.404,103.636
		c-0.013-0.006-0.026-0.012-0.039-0.018c0.017,0.004,0.033,0.008,0.05,0.012C104.412,103.632,104.408,103.634,104.404,103.636z"/>
</g>
</svg>
