<?xml version="1.0" encoding="iso-8859-1"?>
<!-- Generator: Adobe Illustrator 17.1.0, SVG Export Plug-In . SVG Version: 6.00 Build 0)  -->
<!DOCTYPE svg PUBLIC "-//W3C//DTD SVG 1.1//EN" "http://www.w3.org/Graphics/SVG/1.1/DTD/svg11.dtd">
<svg version="1.1" id="Capa_1" xmlns="http://www.w3.org/2000/svg" xmlns:xlink="http://www.w3.org/1999/xlink" x="0px" y="0px"
	 viewBox="0 0 150 150" style="enable-background:new 0 0 150 150;" xml:space="preserve">
<g>
<path style="fill:#1D1D1B;" d="M141.916,41.537c-0.054,0.012-0.13-0.006-0.169-0.045c-0.866-0.842-1.691-1.663-2.55-2.446
	c-0.109-0.099-0.424-0.017-0.626,0.042c-0.32,0.093-0.626,0.258-0.943,0.348c-0.053,0.015-0.13-0.005-0.172-0.041l-2.443-2.124
	c-0.014-0.012-0.029-0.023-0.043-0.033c-0.024-0.017-0.07-0.066-0.107-0.106c-0.179-0.193-0.463-0.296-0.764-0.157
	c-0.597,0.277-1.195,0.553-1.792,0.83c-0.05,0.023-0.125,0.014-0.171-0.017c-0.299-0.206-0.661-0.315-1.054-0.271
	c-0.348,0.039-0.664,0.188-0.916,0.41c-0.041,0.037-0.095,0.028-0.137-0.007c-0.079-0.068-0.186-0.095-0.253-0.07
	c-0.052,0.019-0.105,0.084-0.158,0.1c-3.519,1.051-6.645,2.824-9.273,4.665c-0.045,0.032-0.099,0.098-0.12,0.148
	c-0.521,1.233-0.903,2.141-1.289,3.048c-0.773,1.816-1.466,3.672-2.35,5.431c-0.637,1.268-1.267,2.734-2.925,2.97
	c-0.858,0.122-1.764-0.067-2.646-0.15c-0.473-0.044-0.946-0.131-1.406-0.249c-1.48-0.38-2.938-0.876-4.435-1.157
	c-2.98-0.56-5.984-0.988-8.972-1.507c-1.498-0.26-2.972-0.771-4.475-0.858c-1.742-0.101-3.522,0.013-5.252,0.263
	c-0.43,0.062-0.859,0.134-1.288,0.21c-0.054,0.01-0.142,0.012-0.197,0.007c-0.36-0.033-0.725,0.009-1.078,0.149
	c-0.098,0.039-0.192,0.079-0.284,0.121c-0.05,0.023-0.136,0.051-0.19,0.063c-1.168,0.244-2.332,0.514-3.495,0.777
	c-0.993,0.224-1.979,0.525-2.926,0.898c-1.447,0.57-2.819,1.347-4.292,1.829c-2.163,0.707-4.393,1.208-6.581,1.842
	c-1.393,0.403-2.749,0.94-4.148,1.32c-1.713,0.466-3.46,0.805-5.178,1.252c-0.614,0.16-1.17,0.538-1.783,0.707
	c-1.984,0.546-3.993,1.001-5.969,1.57c-1.104,0.318-2.136,0.89-3.245,1.18c-3.103,0.812-6.194,1.649-9.246,2.646
	c-2.135,0.697-4.358,1.122-6.513,1.764c-0.98,0.292-1.863,1.075-2.84,1.183c-2.434,0.269-4.414,1.697-6.688,2.379
	c-1.805,0.541-3.363,1.892-5.042,2.866c-3.135,1.817-5.591,4.444-7.854,7.156c-1.471,1.762-2.317,4.067-3.335,6.181
	c-1.296,2.69-1.615,5.579-1.347,8.522c0.047,0.513,0.459,0.992,0.732,1.485c0.027,0.048,0.07,0.05,0.098,0.003
	c0.302-0.495,0.752-0.972,0.817-1.497c1.201-9.62,6.902-15.684,15.429-19.426c5.446-2.389,11.222-3.674,17.143-3.94
	c7.051-0.317,14.123-0.529,21.174-0.342c3.803,0.101,7.587,1.103,11.37,1.752c1.421,0.244,2.474,1.044,2.724,2.551
	c0.054,0.322-0.195,0.928-0.453,1.031c-2.437,0.974-3.865,3.003-5.537,4.859c-1.341,1.489-3.012,2.818-4.784,3.745
	c-2.034,1.065-2.553,2.766-2.803,4.681c-0.355,2.729-0.576,5.476-0.809,8.22c-0.134,1.579-0.269,3.168-0.217,4.747
	c0.021,0.633,0.417,1.363,0.86,1.849c1.067,1.168,2.194,2.305,3.432,3.283c0.77,0.607,1.759,0.983,2.701,1.314
	c1.202,0.422,2.443,0.779,3.696,0.994c0.592,0.101,1.244-0.146,1.936-0.268c0.054-0.01,0.087-0.061,0.072-0.114
	c-0.45-1.612-1.849-2.29-3.099-3.08c-0.594-0.375-1.282-0.602-1.935-0.879c-1.871-0.796-2.861-2.165-2.955-4.234
	c-0.054-1.203-0.511-2.419-0.403-3.593c0.221-2.395,0.591-4.792,1.142-7.131c0.167-0.71,1.026-1.436,1.747-1.808
	c4.419-2.282,8.927-4.355,13.747-5.704c1.41-0.395,2.706-1.2,4.054-1.816c0.236-0.108,0.473-0.216,0.599-0.274
	c0.05-0.023,0.092,0.002,0.091,0.057c-0.006,1.224-0.113,2.518,0.025,3.785c0.296,2.721-0.384,5.229-1.463,7.659
	c-0.453,1.021-0.56,1.95-0.06,2.987c1.287,2.667,2.494,5.372,3.777,8.04c1.181,2.458,2.352,4.926,3.682,7.302
	c0.32,0.572,1.215,1.01,1.916,1.144c1.618,0.308,3.279,0.514,4.924,0.532c1.551,0.017,3.105-0.266,4.658-0.404
	c1.444-0.128,2.889-0.24,4.649-0.385c0.055-0.005,0.064-0.034,0.018-0.065c-1.014-0.709-1.933-1.363-2.862-1.992
	c-0.046-0.031-0.083-0.101-0.093-0.155c-0.031-0.177-0.13-0.34-0.296-0.423c-0.382-0.191-0.765-0.382-1.147-0.573
	c-0.049-0.025-0.119-0.078-0.162-0.113c-0.155-0.127-0.36-0.192-0.548-0.114c-0.225,0.094-0.451,0.189-0.676,0.283
	c-0.051,0.021-0.132,0.019-0.181-0.006c-1.89-0.954-4.19-0.992-6.352-1.01c-0.055,0-0.126-0.036-0.159-0.081
	c-0.59-0.799-1.148-1.583-1.763-2.317c-2.61-3.116-3.646-6.797-3.897-10.756c-0.033-0.523,0.059-1.112,0.279-1.584
	c1.955-4.198,3.948-8.378,5.941-12.558c0.16-0.337,0.395-0.64,0.607-0.951c1.238-1.814,2.538-3.155,5.1-3.364
	c4.35-0.356,8.727-0.996,12.758-2.934c0.161-0.078,0.44-0.084,0.582,0.006c0.182,0.115,0.421,0.252,0.615,0.393
	c0.045,0.032,0.068,0.083,0.054,0.112s-0.013,0.03,0.007,0.005c0.02-0.024,0.074-0.014,0.114,0.023
	c0.103,0.095,0.17,0.188,0.165,0.274c-0.022,0.444,0.517,2.674,0.339,3.337c-0.014,0.053,0.008,0.103,0.061,0.117
	c0.121,0.031,0.315,0.08,0.608,0.154c0.054,0.014,0.056,0.046,0.007,0.072c-0.372,0.198-0.629,0.335-1.096,0.584
	c-0.049,0.026-0.047,0.062,0.005,0.081c0.717,0.263,1.266,0.464,1.857,0.681c0.052,0.019,0.05,0.044-0.004,0.056
	c-0.469,0.104-0.892,0.197-1.419,0.314c-0.054,0.012-0.062,0.05-0.017,0.082c1.145,0.824,2.21,0.408,2.512-0.765
	c0.282-1.09-0.202-2.808-0.789-4.332c-0.02-0.052-0.006-0.061,0.032-0.02c0.571,0.615,1.304,1.4,1.443,1.817
	c0.017,0.052,0.064,0.083,0.116,0.065c0.118-0.041,0.306-0.107,0.592-0.206c0.052-0.018,0.072,0.007,0.046,0.056
	c-0.201,0.37-0.34,0.626-0.593,1.091c-0.026,0.049-0.005,0.078,0.049,0.065c0.744-0.176,1.312-0.31,1.925-0.455
	c0.054-0.013,0.066,0.009,0.028,0.049c-0.334,0.345-0.635,0.656-1.011,1.044c-0.038,0.04-0.024,0.075,0.031,0.078
	c1.41,0.057,2.068-0.878,1.675-2.023c-0.558-1.625-3.405-3.492-4.977-4.447c-0.047-0.029-0.052-0.082-0.011-0.119
	c1.053-0.954,2.083-1.863,3.04-2.832c0.387-0.392,0.736-0.982,0.792-1.514c0.275-2.645,1.699-4.577,3.685-6.154
	c1.467-1.165,3.01-2.234,4.529-3.349c0.045-0.033,0.101-0.019,0.128,0.03c1.205,2.244,2.067,2.343,3.429,0.304
	c0.031-0.046,0.085-0.049,0.122-0.008c0.343,0.387,0.647,0.769,1.002,1.095c0.364,0.334,0.951,0.935,1.154,0.835
	c0.542-0.266,1.009-0.791,1.363-1.311c0.686-1.007,1.228-2.113,1.933-3.104c0.198-0.279,0.76-0.438,1.146-0.422
	c1.418,0.056,2.835,0.319,4.246,0.279c0.771-0.021,1.565-0.425,2.275-0.798c0.236-0.124,0.42-0.773,0.301-1.031
	c-0.096-0.207-0.428-0.41-0.725-0.481c-0.054-0.013-0.075-0.053-0.045-0.095l0.054-0.076c0.079-0.112,0.02-0.279-0.09-0.343
	c-0.126-0.074-0.264-0.021-0.343,0.09c-0.082,0.115-0.163,0.231-0.245,0.347c-0.032,0.045-0.102,0.083-0.157,0.083
	c-0.019,0-0.039-0.001-0.058-0.001c-0.055-0.001-0.074-0.029-0.04-0.06c0.025-0.022,0.046-0.038,0.066-0.054
	c0.108-0.083,0.166-0.214,0.09-0.343c-0.052-0.088-0.181-0.157-0.283-0.115c-0.059,0.024-0.118,0.048-0.177,0.073
	c-0.031,0.013-0.059,0.031-0.082,0.052c-0.04,0.037-0.103,0.091-0.155,0.109c-0.18,0.06-0.361,0.12-0.541,0.18
	c-0.052,0.017-0.138,0.023-0.192,0.011c-0.104-0.023-0.208-0.05-0.31-0.077c-0.053-0.015-0.05-0.042-0.016-0.086
	c0.115-0.146-0.019-0.441-0.27-0.404c-0.233,0.034-0.466,0.068-0.698,0.102c-0.055,0.008-0.14-0.002-0.191-0.024
	c-0.044-0.019-0.089-0.039-0.133-0.058c-0.05-0.022-0.058-0.073-0.033-0.123c0.101-0.205-0.081-0.415-0.259-0.374
	c-0.054,0.012-0.131,0.059-0.183,0.078c-0.046,0.017-0.092,0.033-0.138,0.05c-0.052,0.019-0.135,0.014-0.184-0.012
	c-0.038-0.02-0.077-0.04-0.115-0.06c-0.049-0.026-0.053-0.077-0.031-0.127c0.027-0.061,0.026-0.128,0.004-0.189
	c-0.018-0.052-0.045-0.133-0.065-0.185c-0.031-0.083-0.105-0.143-0.224-0.132c-0.215,0.021-0.431,0.042-0.646,0.063
	c-0.055,0.005-0.138-0.011-0.186-0.037c-0.246-0.132-0.493-0.262-0.742-0.388c-0.049-0.025-0.083-0.089-0.075-0.144
	c0.006-0.042,0.013-0.084,0.019-0.127c0.008-0.055,0.059-0.097,0.114-0.094c0.266,0.012,0.531,0.026,0.797,0.04
	c0.055,0.003,0.111,0.042,0.142,0.077c0.017,0.02,0.039,0.037,0.067,0.052c0.124,0.065,0.248,0.131,0.372,0.196
	c0.086,0.046,0.168,0.037,0.234-0.001c0.048-0.028,0.095-0.067,0.118-0.074c0.014-0.004,0.028-0.009,0.042-0.015
	c0.066-0.03,0.133-0.06,0.199-0.09c0.05-0.023,0.102-0.018,0.123,0.005c0.013,0.013,0.028,0.025,0.046,0.033
	c0.146,0.064,0.292,0.127,0.438,0.191c0.076,0.033,0.157,0.038,0.226,0.008c0.051-0.022,0.099-0.056,0.12-0.059
	c0.013-0.002,0.026-0.005,0.039-0.01c0.163-0.066,0.327-0.133,0.49-0.199c0.051-0.021,0.127-0.009,0.169,0.027
	c0.118,0.101,0.237,0.203,0.355,0.304c0.078,0.067,0.182,0.091,0.272,0.055c0.051-0.02,0.121-0.079,0.168-0.108
	c0.156-0.094,0.302-0.174,0.447-0.251c0.049-0.026,0.113-0.01,0.146,0.035c0.082,0.114,0.163,0.229,0.245,0.343
	c0.079,0.111,0.217,0.164,0.343,0.09c0.014-0.008,0.027-0.018,0.039-0.029c0.02-0.018,0.043-0.042,0.056-0.051
	c0.008-0.005,0.015-0.011,0.023-0.017c0.193-0.158,0.386-0.316,0.58-0.475c0.043-0.035,0.122-0.066,0.178-0.07
	c0.01-0.001,0.02-0.001,0.03-0.002c0.055-0.003,0.084,0.036,0.09,0.09c0.004,0.032,0.015,0.063,0.035,0.09
	c0.063,0.084,0.125,0.167,0.188,0.251c0.082,0.109,0.215,0.165,0.343,0.09c0.011-0.006,0.021-0.015,0.031-0.024
	c0.016-0.015,0.044-0.037,0.063-0.05c0.011-0.007,0.022-0.016,0.032-0.026c0.258-0.265,0.516-0.529,0.775-0.794
	c0.023-0.024,0.039-0.048,0.05-0.074c0.019-0.045,0.049-0.12,0.083-0.163c0.127-0.158,0.222-0.327,0.246-0.474
	c0.296-1.762,0.252-1.807,1.604-2.601c0.048-0.028,0.071-0.093,0.051-0.144c-0.404-1.048-0.822-2.089-1.203-3.142
	C145.424,42.557,143.145,41.273,141.916,41.537z"/>
</g>
</svg>
