<?xml version="1.0" encoding="iso-8859-1"?>
<!-- Generator: Adobe Illustrator 17.1.0, SVG Export Plug-In . SVG Version: 6.00 Build 0)  -->
<!DOCTYPE svg PUBLIC "-//W3C//DTD SVG 1.1//EN" "http://www.w3.org/Graphics/SVG/1.1/DTD/svg11.dtd">
<svg version="1.1" id="Capa_1" xmlns="http://www.w3.org/2000/svg" xmlns:xlink="http://www.w3.org/1999/xlink" x="0px" y="0px"
	 viewBox="0 0 150 150" style="enable-background:new 0 0 150 150;" xml:space="preserve">
<g>
<path d="M146.897,52.325c-0.087-0.346-0.292-0.737-0.566-0.947c-1.109-0.846-1.711-2.037-2.277-3.241
	c-0.437-0.931-0.617-1.021-1.604-1.156c-0.909-0.124-1.687,0.142-2.512,0.391c-0.46,0.139-0.998,0.021-1.46,0.156
	c-0.6,0.175-1.16,0.487-1.736,0.741c-0.597,0.263-1.204,0.507-1.788,0.797c-1.239,0.616-2.468,1.254-3.699,1.888
	c-0.944,0.486-1.897,0.955-2.824,1.472c-1.099,0.614-2.179,1.262-3.257,1.912c-0.977,0.589-1.936,1.206-2.91,1.799
	c-1.608,0.979-3.211,1.968-4.838,2.916c-1.548,0.902-3.127,1.75-4.685,2.635c-1.339,0.761-2.659,1.556-4.002,2.31
	c-1.582,0.888-3.171,1.764-4.773,2.616c-1.27,0.675-2.543,1.35-3.853,1.941c-1.257,0.567-2.548,1.073-3.853,1.52
	c-1.611,0.552-3.233,1.097-4.887,1.496c-1.651,0.398-3.345,0.481-5.059,0.36c-0.59-0.041-1.136-0.172-1.664-0.355
	c-0.449-0.165-0.89-0.353-1.322-0.568c-0.042-0.021-0.083-0.036-0.125-0.048c-1.633-0.764-3.251-1.561-4.891-2.313
	c-0.729-0.335-1.502-0.574-2.251-0.868c-0.804-0.316-1.603-0.646-2.406-0.966c-0.114-0.046-0.239-0.065-0.359-0.097
	c-0.049,0.046-0.098,0.091-0.147,0.137c0.053,0.064-0.689-0.235-0.894-0.268c-0.85-0.137-1.708-0.222-2.575-0.327
	c-0.619,0.022-1.377,0.252-1.855,0.253c-0.356,0.001-0.734,0.1-1.063,0.243c-0.689,0.299-1.347,0.671-2.031,0.984
	c-0.255,0.117-0.552,0.136-0.818,0.232c-1.174,0.424-2.327,0.915-3.52,1.278c-1.694,0.515-3.385,0.963-5.211,0.935
	c-2.754-0.042-5.377-0.626-7.916-1.584c-2.533-0.956-5.042-1.993-7.495-3.138c-1.57-0.732-3.03-1.705-4.519-2.603
	c-2.74-1.653-5.459-3.34-8.199-4.994c-1.958-1.181-3.924-2.349-5.906-3.489c-2.747-1.579-5.613-2.894-8.663-3.779
	c-1.181-0.343-2.373-0.653-3.568-0.942c-0.005-0.001-0.01-0.001-0.016-0.002c-0.014-0.013-0.03-0.024-0.053-0.03
	c-1.542-0.423-3.117-0.613-4.715-0.567c-0.045,0.001-0.077,0.022-0.097,0.051c-0.38,0.009-0.733,0.043-0.996,0.113
	c0.21,0.085,0.323,0.166,0.439,0.173c5.22,0.277,9.932,2.143,14.424,4.653c5.303,2.963,10.132,6.614,14.875,10.384
	c4.459,3.543,8.905,7.114,13.733,10.148c2.602,1.635,5.358,3.023,8.026,4.556c1.913,1.099,3.8,2.244,5.682,3.396
	c0.25,0.153,0.426,0.453,0.591,0.714c0.396,0.626,0.771,1.267,1.144,1.907c0.105,0.18,0.207,0.37,0.262,0.568
	c0.481,1.74,0.963,3.48,1.412,5.229c0.067,0.262,0.009,0.578-0.062,0.851c-0.4,1.541-0.78,3.089-1.255,4.607
	c-0.251,0.802-0.727,1.531-1.021,2.323c-0.291,0.781-0.481,1.6-0.713,2.403c-0.159,0.549-0.325,1.096-0.468,1.65
	c-0.167,0.651,0.01,1.218,0.468,1.698c0.651,0.18,1.307,0.351,1.956,0.546c0.346,0.304,0.719,0.642,0.917,0.853
	c0.298,0.315,0.323-0.072,0.193-0.644c0.099-0.034,0.195-0.09,0.295-0.207c0.008-0.009,0.016-0.012,0.024-0.021
	c0.43,0.232,0.933,0.509,1.191,0.676c0.441,0.285,0.305-0.249-0.056-0.839c0.447,0.111,1.041,0.264,1.337,0.367
	c0.507,0.176,0.084-0.465-0.505-0.979c-0.089-0.078-0.183-0.113-0.279-0.13c0.008-0.038,0.007-0.083-0.017-0.146
	c-0.071-0.194-0.176-0.381-0.313-0.56c-0.635-0.833-0.878-1.832-0.813-2.787c0.103-1.508,0.292-3.039,1.162-4.376
	c0.438-0.673,0.739-1.435,1.18-2.105c0.817-1.24,1.032-2.57,0.797-4.011c-0.05-0.31-0.007-0.635-0.007-1.023
	c0.388,0.256,0.685,0.423,0.943,0.636c0.127,0.105,0.245,0.291,0.26,0.451c0.327,3.313,0.355,6.602-0.688,9.826
	c-0.157,0.487-0.146,1.055-0.094,1.573c0.029,0.291,0.304,0.557,0.469,0.834c0.075,0.029,0.15,0.057,0.226,0.086
	c0.105,0.036,0.211,0.064,0.316,0.094c0.483,0.327,1.242,0.85,1.588,1.14c0.413,0.347,0.328-0.25,0.027-0.985
	c0.113-0.012,0.227-0.028,0.339-0.052c0.51,0.202,1.134,0.455,1.451,0.611c0.513,0.253,0.299-0.308-0.166-0.899
	c0.497,0.064,1.158,0.155,1.491,0.228c0.557,0.123,0.054-0.484-0.624-0.961c-0.257-0.249-0.455-0.458-0.698-0.567
	c-0.535-0.24-0.685-0.639-0.722-1.155c-0.207-2.857,0.354-5.613,1.118-8.339c0.041-0.144,0.224-0.345,0.349-0.351
	c0.69-0.034,1.383-0.016,2.145-0.016c0,1.399,0.006,2.752-0.002,4.104c-0.008,1.227,0.115,2.462,0.869,3.446
	c1.339,1.748,2.801,3.402,4.188,5.114c0.238,0.294,0.365,0.679,0.543,1.023l-0.01-0.018c0.428,0.836-0.001,1.617-0.196,2.394
	c-0.176,0.704-0.167,0.956,0.544,1.021c0.299,0.027,0.602,0.046,0.905,0.059c0.437,0.308,0.92,0.659,1.178,0.879
	c0.398,0.341,0.35-0.183,0.09-0.884c0.224-0.011,0.446-0.032,0.667-0.057c0.43,0.177,0.871,0.365,1.123,0.492
	c0.491,0.247,0.334-0.243-0.072-0.811c0.061-0.034,0.123-0.063,0.185-0.101c0.46,0.063,0.976,0.139,1.258,0.203
	c0.491,0.111,0.184-0.338-0.35-0.785c-0.094-0.451-0.548-0.658-1.018-0.893c-0.317-0.159-0.576-0.435-0.97-0.744
	c0.005-0.001,0.01-0.002,0.015-0.004c0.528,0.206,1.409,0.555,1.806,0.751c0.513,0.253,0.299-0.308-0.166-0.899
	c0.497,0.064,1.159,0.155,1.491,0.228c0.57,0.126,0.032-0.513-0.669-0.994c-0.101-0.069-0.203-0.097-0.303-0.107
	c-0.006-0.055-0.003-0.104-0.025-0.169c-0.74-2.189-0.603-4.475-0.764-6.731c-0.101-1.413-0.394-2.811-0.563-4.22
	c-0.038-0.312,0.019-0.672,0.145-0.961c0.429-0.978,0.908-1.935,1.371-2.899c0.125-0.261,0.213-0.565,0.406-0.764
	c0.851-0.876,1.053-1.952,1.058-3.11c0.002-0.585-0.156-1.323,0.133-1.71c0.273-0.364,1.057-0.314,1.586-0.523
	c2.151-0.848,4.311-1.68,6.432-2.599c4.844-2.101,9.206-5.013,13.447-8.117c6.054-4.43,12.061-8.926,18.177-13.268
	c3.343-2.374,6.96-4.326,10.707-6.015c0.749-0.338,1.503-0.663,2.258-0.986c0.132-0.057,0.294-0.131,0.42-0.102
	c0.749,0.173,1.505,0.331,2.228,0.582c0.401,0.139,0.805,0.392,1.095,0.699c0.323,0.342,0.631,0.443,1.001,0.213
	c0.258-0.16,0.456-0.418,0.63-0.69C146.888,53.216,147.076,53.033,146.897,52.325z M79.515,96.824
	c-0.3-0.401-0.313-0.815-0.152-1.257c0.522-1.433,1.037-2.868,1.583-4.292c0.08-0.207,0.317-0.354,0.481-0.528
	c0.057,0.048,0.113,0.097,0.17,0.145c-0.026,0.164-0.064,0.326-0.075,0.491c-0.055,0.818-0.226,1.652-0.125,2.45
	c0.186,1.467,0.552,2.91,0.808,4.37c0.158,0.899,0.251,1.81,0.38,2.768C81.515,99.521,80.522,98.167,79.515,96.824z"/>
</g>
</svg>
