<?xml version="1.0" encoding="iso-8859-1"?>
<!-- Generator: Adobe Illustrator 17.1.0, SVG Export Plug-In . SVG Version: 6.00 Build 0)  -->
<!DOCTYPE svg PUBLIC "-//W3C//DTD SVG 1.1//EN" "http://www.w3.org/Graphics/SVG/1.1/DTD/svg11.dtd">
<svg version="1.1" id="Capa_1" xmlns="http://www.w3.org/2000/svg" xmlns:xlink="http://www.w3.org/1999/xlink" x="0px" y="0px"
	 viewBox="0 0 150 150" style="enable-background:new 0 0 150 150;" xml:space="preserve">
<g>
	<path d="M135.856,97.398c-4.249-3.974-11.238-6.304-14.528-9.457s-7.264-2.741-7.127-6.03c0.137-3.289-2.604-9.183-2.604-9.183
		c5.071-3.563,9.32,5.619,12.746,6.579c3.426,0.959,5.756-3.563,5.756-3.563h-1.919l-3.838-5.756c0,0,6.853,3.837,13.157,1.645
		c6.304-2.193-1.919-4.797-3.975-8.223s-8.223-9.731-8.223-9.731s-0.685-3.289-1.645-6.167s2.056-10.279-0.548-7.675
		c-2.423,2.423-2.591,6.384-2.603,6.924c0.22-3.013-3.153-7.326-3.153-6.101c0,1.233,1.645,2.33-0.137,4.249
		c-1.782,1.919-3.563,7.949-3.563,7.949c-11.512,1.371-9.731,8.223-20.421,6.304C82.542,57.241,78.431,61.764,75,60.942
		s-12.605-2.741-18.909-2.741s-7.675-1.782-7.675-1.782c-9.868-15.076-17.954-2.741-17.954-2.741s7.127-2.741,10.69,3.837
		c3.563,6.579-6.853,5.893-7.675,15.076c-0.822,9.183-7.401,12.746-10.005,11.101c-2.604-1.645-4.797-2.878-5.071-1.508
		c-0.274,1.371-4.797,5.071-9.183,6.99c-4.386,1.919-5.619,8.223-3.7,7.949s4.797-1.233,4.797-1.233
		c-0.822,1.782-0.822,9.183,2.33,3.426S26.625,88.9,33.751,91.093c7.127,2.193,10.416-4.386,13.842-7.264
		c3.426-2.878,10.416-10.416,23.299-0.548c12.883,9.868,17.817,3.015,23.573,4.934c5.756,1.919,1.919,3.838,2.056,5.345
		c0.137,1.508,10.142,12.335,13.294,14.939s3.426,6.03,8.634,10.416c5.208,4.386,10.279,1.919,10.416,1.234
		c0.137-0.685,0.822-0.685-3.974-3.563s-7.538-11.512-11.512-15.213c-3.975-3.7-6.853-13.979-6.853-13.979
		c1.645,2.604,3.838,5.893,6.167,6.167c2.33,0.274-0.137,0.959,10.964,3.289c11.101,2.33,12.472,11.375,19.324,7.401
		S140.104,101.372,135.856,97.398z"/>
</g>
</svg>
