<?xml version="1.0" encoding="iso-8859-1"?>
<!-- Generator: Adobe Illustrator 17.1.0, SVG Export Plug-In . SVG Version: 6.00 Build 0)  -->
<!DOCTYPE svg PUBLIC "-//W3C//DTD SVG 1.1//EN" "http://www.w3.org/Graphics/SVG/1.1/DTD/svg11.dtd">
<svg version="1.1" id="Capa_1" xmlns="http://www.w3.org/2000/svg" xmlns:xlink="http://www.w3.org/1999/xlink" x="0px" y="0px"
	 viewBox="0 0 150 150" style="enable-background:new 0 0 150 150;" xml:space="preserve">
<g>
	<path d="M44.647,84.748c-1.147,4.723-0.337,8.298,2.024,11.334c2.361,3.036-0.27,4.79-2.226,5.735s-2.699,1.552-2.834,2.901
		s1.687,6.612,2.564,7.489c0.877,0.877,2.834,2.766,4.115,4.723c1.282,1.956,2.968,0.675,2.968,0.675c1.214,0.945,2.429,0,2.429,0
		c2.159,1.012,3.441-0.405,3.441-0.405c1.079-1.282-1.214-2.631-1.214-2.631c-1.417-2.496-2.496-0.472-2.901-1.012
		c-0.405-0.54-0.742-0.607-2.901-3.103c-2.159-2.496,3.441-1.687,5.397-2.159c1.956-0.472,5.667-2.968,5.667-2.968
		c0,2.968,1.012,2.496,2.496,4.048s2.159,2.564,4.115,3.373c1.956,0.81,2.901,0.675,4.655,1.822s5.397,0.945,5.397,0.945
		c1.619,0.54,3.171,0,3.171,0c3.913,0,2.294-1.349,0.877-3.171c-1.417-1.822-4.25-0.27-5.532-1.147
		c-1.282-0.877-4.453-2.226-6.072-3.171s0-2.631,0-4.183s1.214-2.766,1.214-2.766h6.274c0,0,4.857-0.337,6.139,2.294
		c1.282,2.631,3.238,3.171,3.306,4.588c0.068,1.417-1.147,1.552-1.147,1.552c-2.699-0.742-2.766,3.576-2.766,3.576
		c3.306,4.385,9.715-1.822,9.715-1.822c7.421-0.675,6.881-11.604,6.881-11.604c1.484-1.079,3.846-3.913,5.397-6.477
		c1.552-2.564,5.937-4.52,9.85-2.631c3.913,1.889,4.588-1.282,4.588-1.282c1.349,0.202,1.754-1.552,1.754-1.552
		c1.754-1.956-1.349-2.429-1.417-7.286s-4.115-5.735-3.913-7.151c0.202-1.417,4.318-5.937,3.306-5.532
		c-0.883,0.353-4.593,2.197-5.522,2.66c-0.031-0.122-0.092-0.296-0.213-0.568c-0.54-1.214-6.477,2.631-6.477,2.631
		s-9.411,5.566-11.233,5.971c-1.822,0.405-1.619-0.81-3.845-0.607c-2.226,0.202-3.34,0.405-13.358-3.846
		c-10.019-4.25-28.266,2.585-28.266,2.585S35.98,53.349,48.123,43.331c12.143-10.018-4.098-18.366-8.045,3.491
		S45.794,80.026,44.647,84.748z"/>
</g>
</svg>
