<?xml version="1.0" encoding="iso-8859-1"?>
<!-- Generator: Adobe Illustrator 17.1.0, SVG Export Plug-In . SVG Version: 6.00 Build 0)  -->
<!DOCTYPE svg PUBLIC "-//W3C//DTD SVG 1.1//EN" "http://www.w3.org/Graphics/SVG/1.1/DTD/svg11.dtd">
<svg version="1.1" id="Capa_1" xmlns="http://www.w3.org/2000/svg" xmlns:xlink="http://www.w3.org/1999/xlink" x="0px" y="0px"
	 viewBox="0 0 150 150" style="enable-background:new 0 0 150 150;" xml:space="preserve">
<g>
	<path d="M19.528,48.991c-0.186,0.399,0.34,1.07,0.505,1.266c1.752,2.089,2.376,3.297,2.909,4.448
		c0.454,0.99,1.834,4.001,8.122,9.896c6.021,5.651,20.666,17.661,24.759,20.714c0.66,0.494,1.265,0.944,1.825,1.36
		c3.617,2.689,5.268,3.917,7.465,6.474c1.062,1.236,2.088,2.506,3.08,3.734c2.412,2.988,4.496,5.568,5.932,6.141
		c1.998,0.802,3.278,1.623,4.028,2.585c1.225,1.569,4.04,2.908,5.555,2.971c0.669,0.025,1.195,0.032,1.63,0.038
		c1.641,0.021,1.937,0.025,3.88,1.007c0.147,0.074,0.366,0.278,0.468,0.437c0.713,1.105,1.659,1.921,2.81,2.424
		c1.029,0.451,1.547,0.629,2.005,0.787c0.023,0.008,0.047,0.016,0.07,0.024c-1.787,0.213-3.77,0.611-5.695,0.997
		c-1.467,0.294-2.853,0.572-4.089,0.757c-0.648,0.096-1.068,0.151-1.349,0.188c-0.586,0.078-0.622,0.083-0.82,0.214
		c-0.132,0.088-0.407,0.272-1.444,0.7c-2.476,1.021-8.072,3.642-9.997,4.648c-0.154,0.081-0.433,0.142-0.598,0.117
		c-0.458-0.064-1.02-0.172-1.614-0.288c-1.318-0.255-2.958-0.573-4.395-0.573c-1.646,0-2.751,0.409-3.377,1.25
		c-0.162,0.218-0.105,0.39-0.073,0.454c0.084,0.167,0.291,0.238,0.521,0.168c0.236-0.07,0.448-0.142,0.648-0.208
		c0.573-0.192,1.025-0.344,1.682-0.344c0.677,0,1.55,0.167,2.749,0.525l0.155,0.046c1.282,0.378,2.494,0.736,3.38,0.755
		c0.12,0.002,0.244,0.089,0.287,0.202c0.041,0.106,0.165,0.43,0.468,0.43c0.209,0,0.396-0.157,0.657-0.452
		c0.018,0.017,0.036,0.033,0.047,0.045c0.098,0.096,0.225,0.146,0.365,0.146c0.374,0,0.789-0.36,1.082-0.938
		c0.107-0.208,0.258-0.33,0.317-0.302c0.115,0.16,0.25,0.241,0.401,0.241c0.291,0,0.519-0.279,0.936-0.87
		c0.023-0.032,0.04-0.051,0.045-0.061c0.02,0.01,0.047,0.026,0.069,0.039c0.103,0.061,0.243,0.144,0.436,0.144
		c0.304,0,0.614-0.212,0.975-0.667c0.192-0.239,0.267-0.267,0.255-0.245c0.062,0.047,0.167,0.127,0.322,0.127
		c0.244,0,0.483-0.186,0.854-0.66c0.078-0.1,0.206-0.263,0.328-0.414c0.058,0.101,0.169,0.184,0.348,0.184
		c0.204,0,0.625-0.103,1.917-0.987c0.377-0.26,0.879-0.4,1.365-0.536c0.596-0.166,1.158-0.323,1.492-0.699
		c0.149-0.168,0.367-0.241,0.727-0.241c0.176,0,0.36,0.017,0.545,0.033c0.321,0.029,0.642,0.055,0.934,0.014
		c0.478-0.066,3.312-0.296,5.376-0.458c-1.79,0.507-2.982,0.805-3.246,0.806c-0.13,0-0.241-0.008-0.344-0.016
		c-0.47-0.033-0.804-0.043-1.714,0.458c-0.721,0.399-0.969,0.454-1.209,0.506c-0.125,0.027-0.247,0.054-0.414,0.116
		c-0.128,0.049-0.257,0.108-0.309,0.239l-0.024,0.142c-0.067,0.046-0.207,0.129-0.498,0.263c-2.227,1.023-6.676,4.952-9.731,8.128
		c-0.733,0.761-0.933,0.78-1.678,0.851c-0.164,0.016-0.351,0.033-0.568,0.061c-0.339,0.04-0.824,0.071-1.389,0.106
		c-1.535,0.097-3.636,0.23-5.061,0.688c-1.29,0.412-1.395,0.744-1.361,0.958c0.016,0.1,0.1,0.331,0.549,0.331
		c0.24,0,0.55-0.065,0.872-0.182c0.715-0.261,2.592-0.313,4.1-0.354c0.9-0.025,1.75-0.048,2.266-0.111
		c0.743-0.092,0.958-0.036,1.187,0.036c0.161,0.05,0.342,0.106,0.695,0.106l0.166-0.002c0.166,0,0.304,0.01,0.422,0.019
		c0.619,0.045,0.839-0.068,1.079-0.653l0.095-0.239c0.218-0.552,0.308-0.78,0.712-0.934c0.499-0.196,0.778-0.625,1.117-1.144
		c0.057-0.088,0.235-0.158,0.413-0.163c0.621-0.017,0.878-0.553,1.048-1.074c0.034-0.105,0.181-0.23,0.364-0.311
		c0.422-0.185,0.693-0.585,0.979-1.009c0.2-0.295,0.406-0.601,0.613-0.816c0.014,0.004,0.053,0.025,0.081,0.041
		c0.071,0.039,0.159,0.087,0.271,0.111l0.08,0.009c0.304,0,0.564-0.298,1.194-1.407c0.073,0.046,0.159,0.07,0.252,0.07
		c0.418,0,0.887-0.461,1.044-1.027c0.136-0.488,0.729-0.837,1.108-0.864c0.073,0,0.154,0.012,0.237,0.023
		c0.19,0.027,0.384,0.042,0.527,0.006c0.418-0.104,1.045-0.29,1.651-0.579c0.163-0.078,0.468-0.157,0.686-0.194
		c2.085-0.361,12.101-3.052,13.406-4.393c0.389-0.401,0.644-0.711,0.831-0.938c0.361-0.44,0.426-0.52,0.765-0.52
		c0.115,0,0.252,0.011,0.422,0.031c0.102,0.011,0.115,0.045,0.124,0.065c0.172,0.42-0.744,2.185-2.828,4.745
		c-1.701,2.098-3.052,4.454-3.706,6.464c-0.328,1.017-0.438,1.522,0.389,2.847c0.398,0.644,1.108,2.447,1.794,4.19
		c0.577,1.466,1.173,2.981,1.654,4c0.096,0.205,0.269,0.464,0.385,0.539c0.019,0.03,0.047,0.151,0.032,0.298
		c-0.388,3.624-0.365,5.229,0.086,6.128c0.046,0.138-0.073,0.884-0.461,1.422c-0.235,0.327-0.477,0.486-0.784,0.451
		c-0.259-0.023-0.458-0.035-0.605-0.035c-0.162,0-0.463,0-0.547,0.242c-0.091,0.262,0.171,0.468,0.536,0.756
		c0.264,0.205,0.646,0.249,0.919,0.249c0.378,0,0.751-0.08,0.95-0.204c0.785-0.489,1.25-2.653,1.269-3.627
		c0.006-0.321-0.025-0.875-0.061-1.515c-0.064-1.157-0.153-2.741-0.068-3.862c0.008-0.106,0.134-0.254,0.286-0.337
		c0.208-0.113,0.317-0.262,0.327-0.443c0.014-0.256-0.178-0.503-0.643-0.871c0-0.074-0.001-0.187-0.055-0.315
		c-0.098-0.234-0.35-0.467-0.586-0.649c0.018-0.047,0.033-0.105,0.038-0.177c0.015-0.223-0.157-0.483-0.519-0.821
		c0.017-0.076,0.045-0.204-0.005-0.359c-0.045-0.14-0.161-0.301-0.402-0.552c0.19-0.083,0.258-0.211,0.281-0.306
		c0.068-0.284-0.174-0.548-0.481-0.882c-0.089-0.098-0.185-0.201-0.287-0.325c0.001,0,0.001,0,0.002-0.001
		c0.221-0.056,0.356-0.164,0.4-0.321c0.076-0.27-0.155-0.506-0.423-0.78l-0.138-0.142c-0.218-0.227-0.503-0.711-0.833-1.272
		c-0.241-0.409-0.511-0.868-0.83-1.359c0.022-0.015,0.047-0.031,0.071-0.047c0.33-0.216,0.417-0.677,0.33-1.027
		c-0.074-0.264-0.021-0.312,0.135-0.455c0.237-0.217,0.554-0.775,0.508-1.21c-0.021-0.241,0.036-0.354,0.257-0.508
		c0.31-0.219,0.625-0.543,0.675-1.283c0.358-0.051,0.762-0.54,1.651-1.654c0.318-0.399,0.687-0.861,1.102-1.347
		c-0.483,0.912-1.209,2.109-1.874,3.203c-1.002,1.651-1.868,3.077-1.978,3.601c-0.021,0.098-0.041,0.174-0.06,0.232
		c-0.079,0.249-0.09,0.449-0.032,0.613c0.022,0.065,0.049,0.146,0.081,0.246c0.378,1.19,4.149,7.081,5.758,9.126
		c0.124,0.157,0.323,0.324,0.517,0.38c0.002,0.031,0.002,0.076-0.002,0.139c-0.098,1.435,1.002,4.641,1.625,5.422
		c0.065,0.082,0.137,0.142,0.199,0.194c0.09,0.075,0.125,0.107,0.133,0.153c0.253,1.372,0.137,2.593-0.295,3.112
		c-0.173,0.208-0.395,0.31-0.677,0.31l-0.108-0.003c-0.063,0-0.114,0.008-0.159,0.025c-0.112,0.042-0.185,0.143-0.185,0.258
		c0,0.333,0.633,0.481,0.873,0.481l0.079-0.003c1.312-0.124,1.795-0.577,1.987-1.87c0.254-1.809-0.823-4.432-1.773-6.746
		c-0.2-0.487-0.393-0.956-0.562-1.385c0.003-0.018,0.036-0.066,0.057-0.099c0.051-0.079,0.116-0.177,0.144-0.309
		c0.066-0.302-0.189-0.679-0.896-1.311c0.002-0.004,0.005-0.008,0.007-0.012c0.022-0.035,0.046-0.074,0.07-0.118
		c0.055-0.1,0.062-0.217,0.021-0.331c-0.102-0.284-0.491-0.506-0.785-0.642c0.066-0.103,0.091-0.225,0.071-0.352
		c-0.043-0.269-0.292-0.559-0.665-0.776c-0.031-0.019-0.041-0.037-0.075-0.142c-0.024-0.075-0.055-0.169-0.117-0.267
		c-0.064-0.101-0.164-0.211-0.306-0.386c0.017-0.075,0.042-0.187,0.016-0.325c-0.078-0.413-0.693-0.867-0.86-1.011
		c0.012-0.063,0.029-0.15,0.022-0.257c-0.014-0.232-0.207-0.442-0.585-0.841c0.036-0.075,0.084-0.192,0.059-0.351
		c-0.026-0.168-0.154-0.354-0.417-0.6c0.003-0.005,0.006-0.011,0.01-0.017c0.022-0.039,0.047-0.083,0.071-0.134
		c0.149-0.316-0.203-0.537-0.509-0.715c0.013-0.027,0.029-0.06,0.046-0.095c0.091-0.184,0.098-0.412,0.019-0.625
		c-0.091-0.248-0.286-0.458-0.554-0.601c0.14-0.153,0.233-0.351,0.266-0.567l-0.247-0.038l0.299-0.006
		c0.06-0.035,0.143-0.082,0.226-0.169c0.141-0.149,0.194-0.403,0.183-0.886c0.002,0,0.005-0.001,0.009-0.002
		c0.058-0.019,0.123-0.04,0.193-0.076c0.246-0.125,0.252-0.445,0.255-0.555c0.004-0.012,0.045-0.051,0.068-0.072
		c0.077-0.073,0.182-0.172,0.226-0.341c0.033-0.128,0.025-0.287,0.017-0.487c-0.003-0.06-0.006-0.125-0.007-0.201
		c0.031-0.003,0.062-0.008,0.094-0.015c0.297-0.064,0.395-0.434,0.48-1.138c0.044-0.366,0.947-1.951,1.561-2.738
		c0.642-0.833,0.765-1.031,0.857-2.304c0.093-1.31,1.009-2.878,1.891-4.24c0.266-0.409,0.463-0.627,0.602-0.742
		c-0.017,0.028-0.033,0.058-0.049,0.09c-0.586,1.166-0.592,1.405-0.668,4.341l-0.013,0.505c-0.015,0.6-0.119,1.122-0.25,1.783
		c-0.194,0.979-0.436,2.197-0.487,4.239c-0.072,2.67,0.227,2.911,1.939,3.064c0.415,0.038,0.932,0.084,1.557,0.198
		c0.791,0.144,3.121,0.963,4.43,1.475c0.211,0.082,0.566,0.193,0.811,0.237c0.908,0.161,1.425,0.183,2.252,0.077
		c0.152-0.021,0.424-0.081,0.525-0.26l0.023-0.053c0.032-0.01,0.079-0.021,0.138-0.028l0.506-0.061
		c0.415-0.05,0.502-0.188,0.531-0.241c0.034-0.005,0.081-0.01,0.141-0.01l0.187-0.001c0.562,0,1.135,0.039,1.546,0.346
		c0.491,0.376,1.234,0.945,1.273,1.452c0.013,0.167-0.054,0.325-0.207,0.486c-0.125,0.133-0.249,0.375-0.129,0.769
		c0.074,0.244,0.252,0.33,0.396,0.33c0.157,0,0.307-0.095,0.414-0.26c0.099-0.153,0.208-0.291,0.312-0.421
		c0.416-0.521,0.886-1.11-0.016-2.097l-0.093-0.102c-1.015-1.111-1.395-1.527-3.012-1.617c-0.36-0.019-0.688-0.052-0.969-0.083
		c-0.126-0.014-0.256-0.118-0.28-0.195c-0.093-0.304-0.443-0.439-0.791-0.299c-0.421,0.169-1.018,0.262-1.678,0.262
		c-1.311,0-2.262-0.348-2.322-0.528c-0.033-0.108-0.132-0.436-0.452-0.436c-0.093,0-0.176,0.028-0.264,0.059
		c-0.217,0.073-0.484,0.114-0.872-0.086l-1.375-0.587c-0.147-0.062-0.35-0.066-0.56-0.045c-0.061,0.005-0.118,0.01-0.223,0.009
		c-0.102-0.008-0.255-0.145-0.329-0.292c-0.052-0.105-0.112-0.199-0.189-0.297c-0.075-0.095-0.056-0.283-0.033-0.452
		c0.041-0.294-0.04-0.666-0.218-1.019c-0.016-0.031-0.021-0.041,0.062-0.188l0.063-0.117c0.122-0.24,0.035-0.577-0.297-1.161
		c-0.6-1.054-0.452-2.279-0.362-3.02c0.03-0.281,0.26-0.783,0.481-1.268c0.211-0.464,0.431-0.943,0.52-1.319
		c0.016-0.069,0.029-0.148,0.042-0.232c0.24,0.661,0.49,1.31,0.742,1.965c0.265,0.687,0.532,1.38,0.792,2.101
		c0.142,0.383,0.528,1.637,0.784,2.467c0.136,0.442,0.24,0.778,0.263,0.84c0.604,1.534,1.059,2.159,1.569,2.159
		c0.103,0,0.203-0.027,0.296-0.081c0.887-0.505,2.113-0.573,3.195-0.573c0.477,0,0.967,0.015,1.46,0.03
		c0.506,0.016,1.015,0.031,1.516,0.031c1.214,0,2.089-0.096,2.837-0.311c0.161-0.046,0.466-0.08,0.696-0.094l0.225,0.012
		c0.053,0.003,0.098,0.004,0.134,0.004c0.066,0,0.27,0,0.339-0.184c0.014-0.036,0.022-0.081,0.015-0.131
		c0.08,0.006,0.207,0.029,0.399,0.095c0.336,0.116,0.538,0.037,0.609-0.046l0.043-0.064c0.034,0,0.072,0.004,0.112,0.011
		c0.271,0.046,0.583,0.087,0.897,0.128c0.565,0.074,1.15,0.151,1.498,0.258c0.21,0.062,0.365,0.094,0.48,0.118
		c0.073,0.015,0.155,0.032,0.17,0.04c0.016,0.019,0.042,0.09,0.077,0.211l0.044,0.157c0.117,0.418,0.201,0.72,0.519,0.968
		c0.319,0.255,0.416,0.332,0.553,0.332l0.139-0.009l0.075-0.092c0.099-0.121,0.073-0.25,0.021-0.506
		c-0.024-0.119-0.055-0.273-0.083-0.463c-0.044-0.302-0.062-0.54-0.076-0.731c-0.063-0.863-0.213-0.999-1.334-1.208
		c-0.406-0.074-0.852-0.147-1.298-0.221c-0.599-0.099-1.197-0.197-1.693-0.297c-0.11-0.022-0.228-0.151-0.244-0.289
		c-0.056-0.475-0.473-0.54-0.759-0.332c-0.447,0.324-0.749,0.489-0.897,0.489c-0.027,0-0.071,0-0.144-0.183
		c-0.086-0.216-0.25-0.345-0.441-0.345c-0.091,0-0.228,0.03-0.365,0.173c-0.135,0.141-0.453,0.471-0.656,0.486
		c-0.181,0.014-0.367,0.028-0.549,0.028l-0.078-0.007c-0.298-0.131-0.608-0.134-0.85-0.005c-0.049,0.026-0.082,0.036-0.099,0.039
		c-0.041,0.007-0.083,0.009-0.124,0.009l-0.156-0.002c-0.127,0-0.276,0.012-0.425,0.098c-0.042,0.024-0.081,0.038-0.11,0.038
		c-0.058-0.001-0.116-0.008-0.173-0.014c-0.206-0.021-0.406-0.024-0.569,0.035c-0.042,0.016-0.081,0.023-0.17,0.018
		c-0.265-0.057-0.577-0.089-0.809,0.012c-0.15,0.065-0.413,0.144-0.811,0.153l-0.856,0.023c-0.624,0-1.135-0.213-1.454-0.392
		c-0.149-0.084-0.373-0.312-0.489-0.472l-0.754-1.03c0.001-0.012,0.014-0.044,0.021-0.064c0.026-0.067,0.075-0.191,0.001-0.317
		c-0.005-0.008-0.011-0.017-0.018-0.026c0.019-0.086,0.024-0.2-0.033-0.323c-0.024-0.051-0.024-0.153-0.024-0.253
		c0-0.119-0.001-0.255-0.04-0.386c-0.028-0.095-0.075-0.187-0.142-0.276c-0.041-0.054-0.049-0.123-0.06-0.241
		c-0.008-0.087-0.018-0.177-0.043-0.269c-0.056-0.207-0.226-0.378-0.385-0.52c-0.048-0.043-0.08-0.151-0.11-0.255
		c-0.03-0.103-0.062-0.205-0.108-0.292c-0.03-0.059-0.071-0.122-0.123-0.194c-0.035-0.048-0.051-0.15-0.067-0.249
		c-0.02-0.125-0.042-0.266-0.113-0.396c-0.02-0.036-0.044-0.074-0.075-0.113c-0.046-0.061-0.074-0.145-0.106-0.242
		c-0.035-0.104-0.075-0.223-0.147-0.335l-0.053-0.082c-0.061-0.093-0.141-0.216-0.242-0.383c-0.495-0.821-0.788-1.62-0.987-2.223
		c-0.034-0.103-0.052-0.193-0.058-0.248c0.183-0.157,0.364-0.469,0.575-0.829c0.159-0.272,0.455-0.777,0.622-0.83
		c0.29,0,0.508,0.195,0.599,0.541c0.465,1.605,2.494,3.937,4.617,3.937c0.567,0,1.097-0.169,1.574-0.501
		c0.131-0.092,0.36-0.155,0.51-0.125c0.649,0.131,2.15,0.346,2.838,0.163c1.517-0.395,2.432-0.935,2.621-2.53
		c0.021-0.177,0.13-0.444,0.237-0.583c0.286-0.368,0.568-0.831,0.701-1.722c0.024-0.162,0.145-0.426,0.264-0.576
		c0.868-1.098,0.837-2.52,0.441-3.376c-0.25-0.541-0.641-0.892-1.093-0.991c1.01-0.931,2.284-1.499,2.938-1.499
		c0.147,0,0.229,0.031,0.253,0.058c0.487,0.532,1.067,0.636,1.513,0.286c0.203-0.155,0.434-0.332,0.368-0.576
		c-0.066-0.244-0.354-0.299-0.755-0.35c-0.173-0.021-0.361-0.054-0.558-0.087c-0.607-0.104-1.349-0.204-1.821-0.094l-0.141,0.03
		c-0.6,0.129-1.505,0.324-2.412,0.91c-0.095,0.061-0.27,0.07-0.31,0.024c-0.058-0.067-0.109-0.138-0.16-0.209
		c-0.213-0.296-0.478-0.664-1.148-0.664c-0.222,0-0.473,0.039-0.83,0.128c-0.089,0-0.174-0.046-0.202-0.109l-0.113-0.259
		c-0.478-1.109-1.073-2.489-4.117-3.185c-0.266-0.061-0.533-0.092-0.793-0.092c-2.11,0-3.396,1.97-3.934,3.01
		c-0.14-0.165-0.298-0.203-0.413-0.203c-0.388,0-0.8,0.422-1.394,1.43c-0.225-0.341-0.422-0.785-0.613-1.215
		c-0.431-0.974-0.877-1.98-1.768-2.123c-0.159-0.025-0.303-0.114-0.341-0.212c-0.59-1.494-1.402-2.091-1.939-2.486
		c-0.246-0.181-0.44-0.324-0.507-0.474c-0.054-0.125-0.079-0.26-0.105-0.402c-0.121-0.66-0.335-1.193-1.871-1.549
		c-0.648-0.148-1.098-0.32-1.337-0.511c-0.042-0.034-0.044-0.197,0.027-0.311c0.23-0.367,0.673-1.144,1.052-2.229
		c0.205-0.596,0.482-1.262,0.775-1.967c0.627-1.503,1.337-3.208,1.481-4.65c0.332-3.409,1.011-9.341,1.522-13.717
		c0.462-3.968,1.407-16.32,1.063-17.669c-0.204-0.786,0.076-1.587,0.462-2.696c0.174-0.501,0.373-1.069,0.549-1.712
		c2.61-9.479,5.319-26.921,4.768-34.363c-0.53-7.077-2.977-11.831-6.089-11.831c-1.201,0-2.381,0.71-3.507,2.11
		c-3.177,3.956-9.141,12.967-12.007,18.538C91.22,15.83,86.178,8.179,82.131,8.179c-1.258,0-2.966,0.745-3.955,4.296
		c-8.418,30.261-10.205,45.858-7.085,61.791c0.669,6.124,4.141,12.706,9.523,18.059c0.136,0.136,0.311,0.396,0.38,0.568l0.048,0.121
		c-0.518-0.407-1.008-0.885-1.599-1.462c-1.734-1.692-4.109-4.009-9.937-7.242c-7.001-3.89-26.469-16.485-32.312-22.658
		c-8.369-8.858-11.005-10.466-12.75-11.531c-0.485-0.296-0.869-0.53-1.287-0.87c-1.769-1.433-2.333-1.727-2.635-1.727
		c-0.141,0-0.259,0.065-0.323,0.178c-0.123,0.216-0.035,0.545,0.396,1.323c-0.378-0.223-0.572-0.256-0.693-0.256
		C19.73,48.768,19.594,48.849,19.528,48.991z"/>
</g>
</svg>
