<?xml version="1.0" encoding="iso-8859-1"?>
<!-- Generator: Adobe Illustrator 17.1.0, SVG Export Plug-In . SVG Version: 6.00 Build 0)  -->
<!DOCTYPE svg PUBLIC "-//W3C//DTD SVG 1.1//EN" "http://www.w3.org/Graphics/SVG/1.1/DTD/svg11.dtd">
<svg version="1.1" id="Capa_1" xmlns="http://www.w3.org/2000/svg" xmlns:xlink="http://www.w3.org/1999/xlink" x="0px" y="0px"
	 viewBox="0 0 150 150" style="enable-background:new 0 0 150 150;" xml:space="preserve">
<g>
	<path d="M86.906,62.759c13.852,3.669,28.877,2.76,42.186-2.552c6.335-2.528,12.459-6.187,16.401-11.753
		c0.743-1.05,1.416-2.193,1.627-3.461c0.189-1.138,0.043-2.091-0.348-2.888c-1.784-3.637-8.663-4.036-12.005-4.049
		c-15.559-0.059-31.124,1.568-46.335,4.844c-1.304,0.281-3.623,0.989-4.844,0.146c-1.496-1.034-0.851-2.703-0.077-3.892
		c0.806-1.239,1.295-2.651,1.337-4.135c0.062-2.192-0.957-3.457-1.854-5.292c-0.777-1.591-0.301-3.067,1.322-3.824
		c1.094-0.51,2.328-0.596,3.516-0.81c3.29-0.594,6.502-2.373,8.142-5.287c0.925-1.644,1.229-3.649,0.848-5.496
		c-0.302-1.465-1.542-4.368-3.426-4.144c-1.857,0.221-3.649,2.474-3.916,4.229c-0.16,1.058,0.215,2.239,1.105,2.832
		c0.874,0.582,2.401,0,3.15-0.593c0.292-0.231,0.509-0.593,0.468-0.964c-0.186-1.664-2.124-0.425-2.877,0
		c-0.441-0.759-0.464-1.723-0.035-2.491c1.86-3.327,4.452,1.01,4.364,3.159c-0.077,1.878-1.158,3.63-2.65,4.775
		c-1.716,1.316-3.786,1.688-5.836,2.146c-1.401,0.313-2.848,0.705-4.073,1.48c-1.083,0.685-2.096,2.44-3.405,0.969
		c-0.43-0.483-0.933-0.716-1.489-0.892c-0.948-0.301-1.9-0.569-2.881-0.611c0-0.02,0-0.04,0-0.06
		c-1.212-0.081-2.37,0.238-3.525,0.604c-0.556,0.176-1.06,0.409-1.489,0.892c-1.309,1.472-2.322-0.284-3.405-0.969
		c-1.226-0.775-2.672-1.167-4.073-1.48c-2.05-0.458-4.12-0.83-5.836-2.146c-1.491-1.145-2.573-2.897-2.65-4.775
		c-0.088-2.15,2.504-6.486,4.364-3.159c0.429,0.768,0.406,1.732-0.035,2.491c-0.754-0.425-2.691-1.663-2.877,0
		c-0.041,0.371,0.176,0.732,0.468,0.964c0.748,0.593,2.276,1.175,3.15,0.593c0.891-0.593,1.266-1.774,1.105-2.832
		c-0.266-1.755-2.059-4.008-3.916-4.229c-1.884-0.224-3.124,2.679-3.426,4.144c-0.38,1.847-0.077,3.852,0.848,5.496
		c1.64,2.913,4.852,4.693,8.142,5.287c1.188,0.214,2.422,0.3,3.516,0.81c1.623,0.756,2.099,2.233,1.322,3.824
		c-0.896,1.835-1.916,3.1-1.854,5.292c0.042,1.484,0.531,2.896,1.337,4.135c0.774,1.189,1.419,2.859-0.077,3.893
		c-1.221,0.844-3.54,0.135-4.844-0.146c-15.211-3.276-30.776-4.903-46.335-4.844c-3.341,0.013-10.22,0.411-12.005,4.049
		c-0.391,0.797-0.537,1.75-0.348,2.888c0.211,1.269,0.883,2.412,1.627,3.461c3.942,5.566,10.066,9.224,16.401,11.753
		c13.309,5.312,28.333,6.221,42.186,2.551c0.619-0.164,2.909-0.639,2.729,0.353c-0.149,0.821-2.97,1.441-3.651,1.686
		c-1.392,0.501-2.799,0.96-4.215,1.389c-5.682,1.721-11.498,2.938-17.259,4.353c-8.389,2.06-16.83,4.615-23.957,9.495
		c-1.653,1.131-3.249,2.407-4.386,4.056c-1.741,2.523-2.246,5.948,0.161,8.13c2.156,1.954,5.03,2.952,7.818,3.598
		c8.014,1.856,16.441,1.373,24.468-0.425c8.027-1.798,15.709-4.877,23.23-8.211c-0.095,1.908,0.356,3.789,1.53,5.325
		c0.24,0.314,0.515,0.631,0.57,1.022c0.138,0.968-1.232,2.212-1.418,3.281c-0.212,1.222-0.069,2.642,0.52,3.751
		c0.422,0.795,1.064,1.279,1.011,2.28c-0.041,0.779-0.385,1.504-0.699,2.218c-0.659,1.495-0.793,3.033,0.178,4.44
		c0.424,0.615,1.037,1.186,1.055,1.932c0.014,0.575-0.338,1.084-0.589,1.602c-1.156,2.388,0.188,3.578,0.76,5.722
		c0.289,1.085-0.323,1.808-0.548,2.795c-0.196,0.86-0.053,1.811,0.055,2.685c0.259,2.086,0.505,4.173,0.777,6.257
		c0.216,1.657,0.158,3.581,0.863,5.12c0.554,1.209,2.154,2.503,2.874,1.741c0.688,0.904,2.363-0.431,2.933-1.674
		c0.705-1.538,0.647-3.463,0.863-5.12c0.272-2.084,0.518-4.171,0.777-6.257c0.109-0.874,0.252-1.825,0.055-2.685
		c-0.225-0.987-0.838-1.71-0.548-2.795c0.572-2.145,1.916-3.335,0.76-5.722c-0.251-0.518-0.602-1.027-0.589-1.602
		c0.018-0.746,0.631-1.318,1.055-1.932c0.971-1.406,0.836-2.945,0.178-4.44c-0.314-0.714-0.658-1.439-0.699-2.218
		c-0.053-1.001,0.589-1.485,1.011-2.281c0.589-1.109,0.732-2.529,0.52-3.751c-0.186-1.069-1.556-2.313-1.418-3.281
		c0.056-0.391,0.331-0.708,0.57-1.022c1.173-1.536,1.624-3.417,1.53-5.325c7.521,3.333,15.202,6.412,23.23,8.211
		c8.027,1.798,16.454,2.282,24.468,0.425c2.788-0.646,5.663-1.644,7.818-3.598c2.407-2.182,1.902-5.607,0.161-8.13
		c-1.138-1.648-2.734-2.924-4.386-4.056c-7.128-4.88-15.569-7.435-23.957-9.495c-5.761-1.415-11.577-2.632-17.259-4.353
		c-1.416-0.429-2.823-0.888-4.215-1.389c-0.681-0.245-3.503-0.865-3.651-1.686C83.996,62.12,86.286,62.595,86.906,62.759z
		 M72.505,37.781c-0.421,0.509-0.962,0.906-1.609,1.112c-1.981,0.632-3.802-0.543-4.416-2.401c-0.729-2.208-0.132-5.724,2.683-5.917
		c2.035-0.139,3.957,1.495,4.314,3.461C73.709,35.306,73.346,36.765,72.505,37.781z M79.104,38.96
		c-0.647-0.206-1.188-0.604-1.609-1.112c-0.841-1.015-1.203-2.475-0.973-3.745c0.357-1.967,2.279-3.6,4.314-3.461
		c2.816,0.193,3.412,3.709,2.683,5.917C82.906,38.417,81.084,39.592,79.104,38.96z"/>
</g>
</svg>
