<?xml version="1.0" encoding="iso-8859-1"?>
<!-- Generator: Adobe Illustrator 17.1.0, SVG Export Plug-In . SVG Version: 6.00 Build 0)  -->
<!DOCTYPE svg PUBLIC "-//W3C//DTD SVG 1.1//EN" "http://www.w3.org/Graphics/SVG/1.1/DTD/svg11.dtd">
<svg version="1.1" id="Capa_1" xmlns="http://www.w3.org/2000/svg" xmlns:xlink="http://www.w3.org/1999/xlink" x="0px" y="0px"
	 viewBox="0 0 150 150" style="enable-background:new 0 0 150 150;" xml:space="preserve">
<g>
	<path d="M145.652,103.859c-0.011-0.018-0.022-0.038-0.035-0.06c-0.042-0.072-0.092-0.155-0.147-0.239
		c-0.109-0.167-0.244-0.325-0.4-0.468l-5.59-5.107c-0.079-0.072-0.138-0.134-0.175-0.177c-0.01-0.049-0.026-0.096-0.048-0.137
		c-0.079-0.146-0.223-0.249-0.395-0.285c-0.056-0.035-0.167-0.116-0.289-0.228l-7.428-6.782c-2.799-2.534-5.971-5.407-3.311-9.028
		c0.521-0.709,1.103-1.932,1.023-3.042c-0.328-4.596-1.476-8.449-3.509-11.781c-0.281-0.46-0.568-0.917-0.855-1.373
		c-1.384-2.2-2.691-4.278-3.336-6.742c-0.047-0.179-0.138-0.324-0.227-0.456c-0.302-0.453-0.982-0.372-1.278,0.199l-0.111,0.212
		l-3.401-7.099c-0.174-0.36-0.55-0.799-0.961-0.664c-0.25,0.083-0.41,0.324-0.478,0.718l-3.15-7.757
		c-0.214-0.525-0.639-0.806-0.997-0.687c-0.376,0.128-0.528,0.577-0.387,1.143l2.453,9.863c-0.016-0.031-0.031-0.062-0.047-0.092
		c-1.07-2.099-2.177-4.27-3.343-6.367c-1.661-2.986-3.211-5.529-4.738-7.771c-0.503-0.739-1.243-1.28-1.958-1.802
		c-0.176-0.129-0.353-0.258-0.526-0.39c-0.228-0.174-0.883-0.432-1.204-0.111c-0.273,0.274-0.236,0.759,0.091,1.207l1.199,1.643
		c-1.122-1.08-2.532-2.508-3.281-3.45c-0.146-0.184-0.444-0.492-0.8-0.492c-0.104,0-0.25,0.045-0.334,0.104
		c-0.309,0.218-0.34,0.659-0.083,1.18l0.7,1.419l-0.721-0.596c-0.157-0.129-0.464-0.347-0.758-0.347
		c-0.13,0-0.306,0.067-0.399,0.158c-0.159,0.155-0.349,0.512,0.169,1.162l0.398,0.499c0.543,0.685,1.104,1.392,1.725,2.04
		c0.311,0.324,0.677,0.577,1.032,0.821c0.417,0.287,0.812,0.558,1.041,0.898c0.502,0.75,0.74,1.263,0.843,1.578
		c-0.09-0.088-0.191-0.207-0.294-0.359c-0.399-0.594-0.921-1.084-1.425-1.559l-0.184-0.173c-0.248-0.234-0.519-0.448-0.789-0.661
		c-0.383-0.301-0.746-0.586-1.021-0.923c-0.808-0.988-1.592-2.028-2.351-3.035c-0.475-0.63-0.95-1.26-1.434-1.883
		c-0.359-0.463-0.745-0.906-1.156-1.377l-0.263-0.302c-0.497-0.573-1.102-0.481-1.24,0.046c-0.036,0.135-0.085,0.32,0.017,0.522
		c0.391,0.771,0.762,1.555,1.132,2.339c0.843,1.783,1.715,3.627,2.827,5.293c0.38,0.569,0.757,1.168,1.131,1.794
		c-0.13-0.095-0.263-0.22-0.331-0.318c-0.903-1.316-1.832-2.443-2.84-3.445c-0.335-0.333-0.776-0.531-1.166-0.705l-0.274-0.125
		C91.73,40.192,91.485,40.096,91.24,40c-0.366-0.143-0.711-0.278-1.01-0.464c-0.355-0.222-0.682-0.504-1.027-0.803
		c-0.198-0.171-0.396-0.342-0.598-0.501c-0.138-0.11-0.285-0.148-0.543-0.126c-0.14,0.013-0.331,0.124-0.416,0.236
		c-0.045,0.06-0.078,0.125-0.102,0.193c-2.555-2.208-4.188-3.183-5.552-3.333c-0.018-0.002-0.094-0.006-0.112-0.006
		c-0.302,0-0.547,0.147-0.655,0.394c-0.113,0.257-0.044,0.559,0.183,0.805l0.591,0.637c1.408,1.515,2.746,2.953,3.841,4.703
		c-0.193-0.059-0.439-0.175-0.572-0.274c-0.669-0.5-1.402-1.008-2.353-1.258c-0.358-0.092-0.687,0.029-0.838,0.299
		c-0.047,0.083-0.074,0.174-0.081,0.269c-0.645-0.712-1.405-1.261-2.261-1.634c-0.241-0.105-0.594-0.291-0.767-0.421L72.68,34.01
		c-0.148-0.11-0.44-0.296-0.731-0.296c-0.149,0-0.364,0.093-0.459,0.208c-0.247,0.298-0.145,0.73,0.272,1.155l0.316,0.321
		c0.49,0.496,0.98,0.993,1.455,1.504c0.17,0.184,0.34,0.368,0.508,0.554c-0.121-0.065-0.26-0.112-0.412-0.112
		c-0.106,0-0.293,0.059-0.379,0.122c-0.333,0.244-0.35,0.75-0.044,1.23l0.58,0.896c-0.14,0.087-0.277,0.179-0.411,0.276
		c-0.163,0.119-0.34,0.19-0.347,0.2c-0.055-0.013-0.221-0.102-0.344-0.227c-1.522-1.548-2.805-2.753-4.039-3.793
		c-0.388-0.327-0.914-0.408-1.216-0.179c-0.144,0.108-0.234,0.272-0.255,0.459c-0.029,0.258,0.077,0.549,0.289,0.8l0.657,0.78
		l-4.54-1.953c-0.462-0.199-1.011-0.104-1.247,0.229c-0.239,0.338-0.16,0.865,0.188,1.252l1.842,2.053
		c-0.086-0.012-0.171-0.024-0.256-0.037c-0.151-0.022-0.299-0.043-0.532-0.065c-0.217,0-0.401,0.094-0.538,0.176
		c-0.384,0.23-0.522,0.733-0.31,1.119c0.069,0.126,0.169,0.287,0.331,0.407c0.033,0.025,0.067,0.049,0.102,0.072
		c-0.11-0.008-0.198-0.03-0.245-0.05c-0.848-0.347-1.597-0.528-2.241-0.538c-0.316,0-0.578,0.152-0.699,0.408
		c-0.125,0.264-0.074,0.577,0.138,0.836l0.196,0.245l-4.955-2.503c-0.201-0.102-0.418-0.157-0.611-0.157
		c-0.354,0-0.532,0.18-0.607,0.288c-0.23,0.333-0.102,0.809,0.319,1.183l1.566,1.39c-0.483-0.204-0.964-0.419-1.436-0.629
		c-1.9-0.849-3.866-1.728-6.111-1.971c-0.018-0.002-0.099-0.006-0.117-0.006c-0.296,0-0.54,0.14-0.65,0.375
		c-0.055,0.117-0.151,0.428,0.148,0.79l1.162,1.406l-7.733-3.771c-0.488-0.238-1.048-0.125-1.245,0.257
		c-0.198,0.386,0.014,0.888,0.495,1.167l5.802,3.377c0.135,0.079,0.325,0.309,0.377,0.457l0.18,0.51l-0.291-0.135
		c-1.012-0.469-2.025-0.938-3.049-1.384c-0.511-0.222-1.031-0.424-1.551-0.626c-0.708-0.275-1.439-0.559-2.123-0.89
		c-0.421-0.204-0.812-0.488-1.226-0.789c-0.302-0.219-0.604-0.438-0.922-0.63c-0.429-0.26-0.879-0.478-1.315-0.688l-0.134-0.065
		c-0.14-0.068-0.41-0.182-0.648-0.182c-0.184,0-0.436,0.13-0.523,0.292c-0.119,0.219-0.138,0.582,0.443,1.061l1.992,1.643
		l-2.771-1.556c-0.135-0.076-0.401-0.203-0.67-0.203c-0.297,0-0.454,0.154-0.521,0.247c-0.215,0.296-0.118,0.725,0.261,1.147
		c0.173,0.192,0.348,0.382,0.536,0.558c0.347,0.324,0.705,0.638,1.063,0.952c0.702,0.616,1.428,1.252,2.038,1.947
		c0.378,0.432,0.679,0.951,1.005,1.544c-0.215-0.104-0.427-0.207-0.637-0.309c-1.414-0.687-2.75-1.335-4.125-1.859
		c-1.406-0.535-2.874-0.949-4.292-1.35c-0.464-0.131-0.927-0.262-1.39-0.397c-0.162-0.047-0.324-0.072-0.469-0.072
		c-0.474,0-0.635,0.271-0.682,0.385c-0.14,0.336,0.057,0.729,0.527,1.049c1.857,1.268,3.685,2.818,5.58,4.734
		c-0.245,0.071-0.485,0.158-0.716,0.259c-0.124,0.054-0.247,0.078-0.268,0.101l-0.272-0.142c-1.232-0.615-2.195-0.975-3.12-1.165
		c-0.943-0.194-1.538,0.133-1.788,0.417c-0.333,0.379-0.453,0.939-0.356,1.665c0.025,0.196,0.039,0.394,0.051,0.608l-3.275-0.277
		c-0.014-0.001-0.12-0.006-0.134-0.006c-0.498,0-0.869,0.23-0.945,0.588c-0.09,0.429,0.277,0.815,0.62,1.016l1.187,0.695
		l-2.133-0.001c-0.574,0-0.946,0.204-1.021,0.561c-0.08,0.38,0.261,0.773,0.472,0.974l3.056,2.917
		c-0.007-0.002-0.014-0.005-0.021-0.008c-1.256-0.564-2.597-1.162-3.962-1.717c-0.767-0.312-1.52-0.593-2.286-0.593
		c-0.879,0-1.616,0.387-2.191,1.151c-0.172,0.228-0.225,0.509-0.146,0.771c0.083,0.272,0.293,0.486,0.578,0.585l1.571,0.551
		c-0.043,0.039-0.086,0.077-0.129,0.116c-0.207,0.187-0.321,0.446-0.312,0.713c0.008,0.268,0.139,0.521,0.358,0.694
		c0.116,0.092,0.23,0.186,0.335,0.29c0.134,0.132,0.258,0.275,0.382,0.418l0.096,0.202c-0.317,0.386-0.59,0.808-0.811,1.254
		c-0.015,0.031-0.06,0.057-0.105,0.055c-1.876-0.504-3.883-0.562-5.629-0.576c-0.545,0-0.671,0.317-0.701,0.453
		c-0.036,0.17-0.024,0.487,0.46,0.704l3.542,1.587L9.34,63.074c-0.012-0.001-0.107-0.004-0.119-0.004
		c-0.525,0-0.894,0.246-0.938,0.623c-0.047,0.386,0.282,0.745,0.82,0.893l3.35,0.918c-0.265,0.155-0.495,0.336-0.652,0.594
		c-0.22,0.361-0.123,0.811-0.023,1.138l-2.761,0.078c-0.555,0.015-0.96,0.285-1.01,0.673c-0.051,0.409,0.317,0.8,0.707,0.974
		c0.365,0.163,0.75,0.279,1.123,0.391c0.602,0.181,1.177,0.354,1.66,0.709L9.8,70.239c-0.319,0.034-0.563,0.201-0.669,0.458
		c-0.105,0.257-0.05,0.546,0.153,0.794l0.744,0.913c-0.297-0.106-0.586-0.197-0.885-0.268c-0.339-0.082-0.756-0.047-1.169,0.013
		c-0.29,0.042-0.528,0.2-0.653,0.435c-0.125,0.234-0.124,0.52,0.008,0.794c0.184,0.381,0.373,0.774,0.674,1.109
		c0.229,0.254,0.515,0.436,0.768,0.596c0.237,0.151,0.461,0.293,0.589,0.459c0.168,0.219,0.262,0.548,0.361,0.897l0.489-0.11
		l-0.53,0.211c-0.285,0.123-0.553,0.24-0.803,0.24c-0.001,0-0.003,0-0.005,0c-0.677-0.053-1.344-0.202-2.051-0.359l-0.387-0.086
		c-0.494-0.109-0.994,0.058-1.159,0.406c-0.172,0.363,0.018,0.833,0.461,1.145l2.32,1.571c-0.477,0.287-1.096,0.403-1.748,0.525
		c-0.928,0.174-1.979,0.372-2.874,1.109c-0.256,0.21-0.36,0.497-0.277,0.766c0.084,0.275,0.342,0.458,0.688,0.489
		c1.276,0.117,2.297,0.618,3.257,1.266c-0.374-0.02-0.733,0.134-0.93,0.411C5.55,84.9,6.007,85.584,6.5,86.068l-0.307-0.005
		c-0.497,0-0.898,0.377-0.977,0.918c-0.048,0.336-0.3,0.493-0.779,0.762c-0.351,0.198-0.749,0.422-1.044,0.803
		c-0.187,0.241-0.226,0.532-0.105,0.779c0.126,0.257,0.349,0.42,0.81,0.406l0.223-0.019c0.523-0.042,1.065-0.084,1.483-0.389
		c0.737-0.538,1.189-0.496,1.988,0.253c1.633,1.531,3.61,2.375,5.88,2.51c-0.191,0.004-0.385,0.006-0.583,0.009
		c-0.474,0.006-0.948,0.012-1.42,0.04c-0.453,0.026-1.833,0.107-1.976,1.65c-0.094,1.019,0.456,1.643,1.634,1.855
		c0.896,0.161,1.795,0.303,2.695,0.445c0.715,0.113,1.431,0.226,2.145,0.349c0.188,0.032,0.375,0.074,0.574,0.124
		c-0.19,0.142-0.298,0.338-0.304,0.558c-0.007,0.279,0.153,0.528,0.44,0.685l1.134,0.619c1.291,0.707,2.626,1.438,3.969,2.104
		c1.001,0.498,1.806,0.716,2.51,0.652c0.667-0.055,1.357-0.083,2.049-0.083c4.066,0,8.041,0.967,11.447,1.874
		c1.865,0.496,2.923,1.72,4.122,3.667c1.301,2.114,2.637,3.608,4.763,5.327c0.278,0.226,0.74,0.445,1.073,0.511
		c0.032,0.006,0.163,0.02,0.196,0.02c0.435,0,0.856-0.282,1.024-0.685l0.282-0.67c0.783,1.19,1.8,1.52,3.368,0.985
		c0.156-0.052,0.851,0.019,1.168,0.243c0.306,0.217,0.671,0.438,1.061,0.438c0.658,0,0.982-0.6,1.089-0.797
		c0.273-0.505,0.541-0.573,0.768-0.573c0.193,0,0.432,0.061,0.71,0.181c0.424,0.183,0.87,0.291,1.342,0.404l0.228,0.055
		c0.346,0.083,0.664-0.022,0.831-0.271c0.08-0.119,0.192-0.374,0.043-0.738c-0.264-0.645-0.229-0.689-0.114-0.834
		c0.115-0.147,0.29-0.368,0.432-0.753c0.425-1.15,1.458-3.943,0.09-5.386c1.293-0.129,2.597-0.133,3.97-0.137
		c1.371-0.004,2.787-0.008,4.191-0.15l23.385-2.356c0.527-0.053,1.231-0.182,2.045-0.332c1.539-0.282,3.454-0.634,5.09-0.634
		c1.612,0,2.646,0.346,3.07,1.027c1.751,2.809,6.359,7.153,9.594,7.567c0.633,0.081,1.258,0.344,1.921,0.622
		c0.324,0.137,0.648,0.272,0.975,0.389c0.067,0.024,0.136,0.053,0.206,0.083c0.228,0.097,0.486,0.206,0.772,0.206
		c0.024,0,0.127-0.007,0.152-0.011l0.24-0.035c1.236-0.181,2.513-0.367,3.747-0.699c0.631-0.17,1.64-0.684,1.836-1.405
		c0.042-0.156,0.096-0.315,0.151-0.476c0.278-0.818,0.659-1.939-0.449-2.988c-2.132-2.021-4.531-4.044-7.615-5.151
		c-0.373-0.135-0.745-0.367-1.02-0.636c-0.231-0.228-0.301-0.393-0.288-0.472c0.016-0.096,0.165-0.263,0.536-0.444
		c0.824-0.402,1.639-0.825,2.454-1.247c0.982-0.509,1.964-1.019,2.963-1.492c0.686-0.324,1.408-0.625,2.105-0.625
		c0.001,0,0.002,0,0.003,0c4.142,0.125,7.692,1.434,10.552,3.887c1.23,1.055,2.446,2.126,3.663,3.196
		c1.712,1.507,3.482,3.064,5.263,4.553c1.199,1.001,1.914,1.568,2.673,1.568c0.29,0,0.571-0.083,0.861-0.256l0.283-0.166
		c0.203-0.118,0.424-0.247,0.58-0.346c0.143-0.09,0.277-0.197,0.402-0.316c0.245-0.237,0.515-0.599,0.624-0.757
		c0.131-0.192,0.249-0.422,0.282-0.526c0.016-0.048,0.068-0.212,0.099-0.369c0.015-0.072,0.03-0.171,0.045-0.274
		c0.014-0.09,0.028-0.183,0.042-0.255c0.059-0.293,0.023-0.514-0.108-0.674C145.725,103.918,145.69,103.886,145.652,103.859z"/>
</g>
</svg>
