<?xml version="1.0" encoding="iso-8859-1"?>
<!-- Generator: Adobe Illustrator 17.1.0, SVG Export Plug-In . SVG Version: 6.00 Build 0)  -->
<!DOCTYPE svg PUBLIC "-//W3C//DTD SVG 1.1//EN" "http://www.w3.org/Graphics/SVG/1.1/DTD/svg11.dtd">
<svg version="1.1" id="Capa_1" xmlns="http://www.w3.org/2000/svg" xmlns:xlink="http://www.w3.org/1999/xlink" x="0px" y="0px"
	 viewBox="0 0 150 150" style="enable-background:new 0 0 150 150;" xml:space="preserve">
<g>
<path d="M4.305,123.169c2.187-4.622,21.142-15.775,21.401-18.447c-6.248,4.528-9.017,2.152-10.962,2.908
	c-7.598,2.996-12.628-1.997-12.723-2.074c0.491-0.147,14.948-4.118,18.074-8.314c29.741-46.036,54.843-29.208,59.299-36.85
	c28.992-69.562,58.053-34.299,59.499-33.085c0.417,0.346,0.656,0.533,0.713,0.559c0.021,0.009,5.844,1.776,6.101,6.051l-0.063,0.445
	c-0.006,0.022,1.713,2.012,2.243,3.683c0.715,2.254-3.202,0.513-4.417-0.726c-0.973-0.667-1.649-0.942-2.032-0.814
	c-0.13,0.607,1.051,4.642,0.24,6.352c-2.004-0.782-5.255-6.754-5.255-6.754c-1.183-1.78-1.195-4.522-1.253-4.402
	c-0.241-0.205-0.682-0.635-1.33-1.289C98.894,4.418,89.237,78.037,83.725,88.722c0.413,1.164,21.634,17.142,6.529,34.633
	c0.447-9.674-20.23-20.14-11.262-30.512c-3.076,2.907-0.983,1.877-9.259,5.377c-0.436-0.718-2.891,13.537-15.401,18.025
	c-1.206,0.363-2.325,0.872-3.357,1.518c-3.24,2.646-9.794,3.254-9.95,3.175c7.894-6.659,14.262-18.249,13.307-17.605
	c-3.583,2.417-7.403,2.972-7.436,2.997c-0.076,0.067-3.922,9.182-10.822,12.64c-3.075,0.834-12.62,7.088-12.717,7.173
	c-0.397-6.257,8.85-16.726,17.056-18.683c-3.376,0.229-3.967,0.319-6.545-0.053C34.25,108.292,22.481,125.011,4.305,123.169z"/>
</g>
</svg>
