<?xml version="1.0" encoding="iso-8859-1"?>
<!-- Generator: Adobe Illustrator 17.1.0, SVG Export Plug-In . SVG Version: 6.00 Build 0)  -->
<!DOCTYPE svg PUBLIC "-//W3C//DTD SVG 1.1//EN" "http://www.w3.org/Graphics/SVG/1.1/DTD/svg11.dtd">
<svg version="1.1" id="Capa_1" xmlns="http://www.w3.org/2000/svg" xmlns:xlink="http://www.w3.org/1999/xlink" x="0px" y="0px"
	 viewBox="0 0 150 150" style="enable-background:new 0 0 150 150;" xml:space="preserve">
<g>
	<path d="M8.727,99.604c1.233-1.447,2.519-2.857,3.657-4.377c1.463-1.952,2.587-4.105,3.469-6.394
		c0.865-2.247,1.875-4.439,2.784-6.67c0.394-0.966,0.705-1.967,1.031-2.96c0.209-0.637,0.636-1.044,1.352-1.383
		c0,0.381,0.003,0.687,0,0.993c-0.05,4.684-0.12,9.368-0.143,14.052c-0.011,2.263,0.634,4.431,1.119,6.618
		c0.161,0.727,0.378,1.441,0.57,2.16c0.353,1.326,0.135,2.604-0.245,3.896c-0.559,1.902-1.044,3.825-1.561,5.739
		c-0.345,1.279-0.75,2.546-1.022,3.841c-0.625,2.977-0.48,5.973-0.062,8.962c0.221,1.576,0.449,3.138-0.039,4.717
		c-0.19,0.616-0.326,1.285-0.301,1.922c0.046,1.169,0.83,1.925,1.989,2.046c1.108,0.116,2.219,0.224,3.331,0.275
		c1.456,0.067,2.918,0.152,4.372,0.09c1.75-0.075,3.492-0.308,5.239-0.446c0.487-0.039,0.568-0.307,0.514-0.693
		c-0.077-0.549-0.174-1.095-0.27-1.679c0.08-0.04,0.167-0.093,0.261-0.128c0.787-0.291,1.122-1.04,0.666-1.752
		c-0.442-0.69-0.996-1.317-1.548-1.928c-0.505-0.559-1.146-1.006-1.597-1.601c-0.678-0.897-1.282-1.857-1.842-2.834
		c-0.487-0.85-0.376-1.808-0.121-2.693c0.416-1.434,0.8-2.906,1.458-4.233c0.686-1.384,1.56-2.718,2.57-3.886
		c1.275-1.475,2.776-2.755,4.17-4.129c1.416-1.394,2.383-3.041,2.834-4.991c0.177-0.766,0.408-1.521,0.661-2.266
		c0.046-0.134,0.322-0.281,0.482-0.27c1.835,0.118,3.666,0.314,5.502,0.387c1.193,0.048,2.394-0.073,3.591-0.117
		c0.3-0.011,0.602-0.009,0.902-0.02c2.4-0.084,4.809-0.069,7.196-0.29c1.587-0.147,3.071-0.827,4.495-1.576
		c1.018-0.536,2.059-1.028,3.117-1.553c0.692,0.702,1.065,1.572,1.291,2.515c0.699,2.922,0.911,5.905,1.09,8.891
		c0.095,1.579,0.259,3.158,0.256,4.737c-0.003,1.751-0.189,3.5-0.241,5.252c-0.028,0.94,0.146,1.89,0.077,2.824
		c-0.117,1.572-0.318,3.141-0.562,4.7c-0.08,0.51-0.396,0.985-0.615,1.471c-0.595,1.316-0.46,2.476,0.44,3.321
		c0.181,0.17,0.479,0.316,0.718,0.307c2.565-0.098,5.128-0.247,7.693-0.345c1.648-0.063,3.299-0.072,4.949-0.08
		c0.219-0.001,0.497,0.085,0.648,0.233c0.585,0.568,1.325,0.569,2.04,0.579c2.043,0.029,4.086,0.011,6.13,0.009
		c0.852-0.001,1.708,0.043,2.554-0.026c0.558-0.045,1.105-0.244,1.651-0.394c0.308-0.085,0.596-0.249,0.907-0.31
		c1.298-0.252,1.315-0.54,1.061-1.873c-0.084-0.44-0.501-0.821-0.778-1.22c-0.26-0.375-0.524-0.749-0.813-1.103
		c-0.097-0.119-0.303-0.145-0.411-0.259c-0.965-1.011-2.073-1.913-2.633-3.247c-0.139-0.33-0.219-0.697-0.259-1.054
		c-0.28-2.489-0.636-4.974-0.781-7.471c-0.11-1.894,0.068-3.804,0.096-5.707c0.023-1.591-0.02-3.183,0.03-4.773
		c0.059-1.884,0.081-3.779,0.306-5.646c0.359-2.974,0.314-5.947,0.16-8.916c-0.13-2.509-0.475-5.007-0.693-7.513
		c-0.016-0.19,0.171-0.485,0.348-0.591c1.927-1.149,3.865-2.282,5.812-3.396c2.181-1.247,4.376-2.471,6.78-3.826
		c0.414,0.477,0.889,1.054,1.395,1.601c0.45,0.485,0.947,0.926,1.4,1.408c0.581,0.617,1.169,1.231,1.695,1.893
		c0.515,0.648,0.951,0.889,1.356,0.614c0.468-0.317,0.602-1.204,0.25-1.757c-0.136-0.213-0.294-0.418-0.472-0.597
		c-1.36-1.374-1.988-3.153-2.71-4.881c-0.066-0.158-0.137-0.314-0.255-0.582c0.816-0.382,1.629-0.777,2.455-1.142
		c0.566-0.25,1.142-0.485,1.729-0.679c1.1-0.364,1.934-1.081,2.669-1.935c0.455-0.528,1.047-0.826,1.635-0.431
		c1.441,0.967,3.106,0.991,4.71,1.29c0.084,0.016,0.174,0.015,0.252,0.045c0.331,0.128,0.698,0.274,0.903-0.129
		c0.112-0.22,0.057-0.526,0.091-0.967c0.308-0.425,0.963-0.26,1.536-0.328c0.634-0.076,1.277-0.142,1.914-0.119
		c0.458,0.017,0.92,0.153,1.362,0.293c2.738,0.868,5.552,1.136,8.364,0.684c1.899-0.305,3.844-0.669,5.477-1.865
		c1.084-0.794,2.075-1.65,2.329-3.061c0.053-0.289,0.008-0.596-0.097-0.998c-2.81,2.596-6.197,2.571-9.771,2.51
		c0.925-0.921,2.393-1.199,2.288-2.909c-1.227,0.449-2.365,0.886-3.518,1.281c-1.258,0.431-2.533,0.783-3.917,0.168
		c0.72-0.255,1.421-0.624,2.163-0.744c2.58-0.416,4.431-1.817,5.881-3.933c0.928-1.355,1.644-2.779,2.107-4.348
		c0.488-1.653,0.475-3.342,0.4-5.034c-0.092-2.063-0.953-3.92-1.618-5.829c-0.684-1.964-1.062-4.001-0.809-6.062
		c0.265-2.151,0.98-4.193,2.133-6.057c0.515-0.832,0.976-1.702,1.544-2.495c1.092-1.525,2.564-2.555,4.362-3.112
		c0.505-0.156,0.999-0.352,1.506-0.5c0.47-0.137,0.409-0.567,0.286-0.779c-0.479-0.829-0.32-1.713-0.338-2.582
		c-0.019-0.863-0.579-1.355-1.241-0.873c-1.09,0.795-2.373,0.902-3.552,1.355c-2.345,0.901-4.436,2.254-6.214,4
		c-1.853,1.819-3.48,3.813-4.462,6.308c-0.819,2.082-1.822,4.106-2.195,6.32c-0.421,2.503-0.375,5.02,0.129,7.535
		c0.243,1.211,0.261,2.472,0.305,3.713c0.011,0.32-0.207,0.694-0.418,0.966c-0.623,0.803-1.295,1.567-1.829,2.205
		c-1.058-0.365-2.04-0.74-3.043-1.04c-1.013-0.302-1.935-0.731-2.771-1.394c-0.665-0.528-1.431-0.925-2.13-1.412
		c-1.225-0.851-2.417-1.75-3.652-2.584c-0.866-0.585-1.759-1.138-2.679-1.633c-1.501-0.808-3.018-1.59-4.557-2.322
		c-1.426-0.677-2.979-0.595-4.486-0.464c-2.104,0.183-4.109,0.788-5.938,1.88c-1.628,0.972-3.237,1.976-4.861,2.955
		c-0.89,0.536-1.875,0.688-2.899,0.666c-0.573-0.012-1.154-0.067-1.718,0.003c-0.916,0.114-1.583-0.474-2.334-0.775
		c-1.763-0.707-3.559-1.183-5.452-1.35c-1.509-0.133-3.007-0.384-4.515-0.536c-2.452-0.247-4.89-0.216-7.203,0.777
		c-1.349,0.579-2.645,1.281-3.996,1.852c-0.355,0.15-0.846,0.093-1.247,0.006c-1.562-0.339-3.11-0.741-4.669-1.097
		c-1.389-0.317-2.793-0.568-4.174-0.915c-2.504-0.63-4.856,0.105-7.197,0.789c-1.698,0.496-3.367,1.114-5.005,1.785
		c-1.161,0.476-2.291,1.064-3.36,1.722c-1.737,1.069-3.508,2.119-5.091,3.393c-1.709,1.376-3.287,2.936-4.795,4.535
		c-1.344,1.424-2.552,2.982-3.75,4.536c-0.908,1.178-1.793,2.391-2.527,3.679c-0.949,1.666-1.81,3.392-2.567,5.153
		c-0.434,1.007-0.594,2.132-0.867,3.207c-0.289,1.138-0.526,2.29-0.856,3.415c-0.51,1.737-1.054,3.465-1.634,5.18
		c-0.464,1.373-0.969,2.734-1.517,4.076c-0.466,1.144-1.006,2.258-1.536,3.375c-0.733,1.546-1.415,3.122-2.256,4.609
		c-0.7,1.237-1.52,2.429-2.439,3.511c-0.483,0.567-1.344,0.794-1.949,1.282c-0.912,0.736-1.573,1.667-1.767,3.086
		c0.659-0.302,1.204-0.507,1.705-0.79C7.138,101.524,7.922,100.548,8.727,99.604z M79.154,120.92
		c0.338-0.679,0.538-1.454,0.659-2.208c0.34-2.105,0.616-4.22,0.899-6.334c0.237-1.771,0.45-3.545,0.674-5.318
		c0.043,0.003,0.086,0.007,0.129,0.01c0.294,1.219,0.595,2.437,0.881,3.657c0.484,2.066,0.594,4.144,0.323,6.258
		c-0.157,1.226-0.354,2.513,0.216,3.673c0.684,1.39,0.529,2.778,0.243,4.189c-0.17,0.841-0.412,1.667-0.671,2.694
		c-0.346-0.418-0.565-0.666-0.766-0.928c-0.645-0.847-1.264-1.714-1.928-2.546C79.056,123.122,78.522,122.19,79.154,120.92z"/>
</g>
</svg>
