<?xml version="1.0" encoding="iso-8859-1"?>
<!-- Generator: Adobe Illustrator 17.1.0, SVG Export Plug-In . SVG Version: 6.00 Build 0)  -->
<!DOCTYPE svg PUBLIC "-//W3C//DTD SVG 1.1//EN" "http://www.w3.org/Graphics/SVG/1.1/DTD/svg11.dtd">
<svg version="1.1" id="Capa_1" xmlns="http://www.w3.org/2000/svg" xmlns:xlink="http://www.w3.org/1999/xlink" x="0px" y="0px"
	 viewBox="0 0 150 150" style="enable-background:new 0 0 150 150;" xml:space="preserve">
<g>
<path d="M145.534,71.977c-0.238-0.368-0.361-0.81-0.542-1.216c-0.674-1.516-1.234-1.848-2.883-1.78
	c-0.341,0.014-0.708-0.029-1.026-0.146c-2.719-1.001-5.553-1.065-8.398-1.073c-4.627-0.013-8.973,1.405-13.331,2.69
	c-5.165,1.523-10.437,2.539-15.725,3.46c-2.744,0.478-5.552,0.572-8.324,0.905c-3.423,0.411-6.845,0.841-10.255,1.353
	c-4.01,0.603-8.03,0.659-12.075,0.606C67.072,76.7,61.176,77,55.477,78.726c-3.941,1.193-7.938,2.073-11.995,2.714
	c-4.242,0.67-8.497,1.224-12.789,1.471c-3.89,0.224-7.781,0.422-11.665,0.725c-2.662,0.208-5.286,0.611-7.872,1.411
	c-1.79,0.554-3.744,0.577-5.625,0.838c-0.372,0.051-0.75,0.077-1.112,0.165c-0.095,0.023-0.183,0.076-0.269,0.136
	c-0.137,0.095-0.232,0.226-0.215,0.291c0.017,0.065,0.24,0.122,0.497,0.126c0.155,0.003,0.31,0.002,0.464-0.012
	c3.106-0.277,6.218-0.503,9.315-0.862c3.186-0.369,6.373-0.397,9.563-0.236c5.533,0.279,11.068,0.542,16.592,0.951
	c3.74,0.277,7.445,0.861,11.084,1.85c0.804,0.219,1.636,0.359,2.473,0.464c0.566,0.27,1.179,0.378,1.803,0.515
	c0.512,0.112,0.924,0.37,1.265,0.713c0.403,0.655,0.579,1.316,1.319,1.752c0.039,0.023,0.076,0.022,0.114,0.039
	c0.14,0.11,0.302,0.199,0.511,0.227c0.766,0.1,1.306,0.897,1.788,1.421c0.406,0.441,0.879,0.791,1.402,1.08
	c0.327,0.18,0.677,0.288,1.033,0.366c-0.034,1.209-0.068,2.417-0.131,3.624c-0.061,1.16-0.377,2.308-0.608,3.456
	c-0.177,0.88-0.386,1.753-0.61,2.729c-0.062,0.269-0.014,0.575,0.106,0.683c0.12,0.108,0.44,0.189,0.716,0.18
	c0.964-0.03,3.008-0.102,3.258-0.173c0.099-0.028,0.182-0.06,0.249-0.089c0.134-0.059,0.203-0.36,0.084-0.609
	c-0.169-0.353-0.449-0.559-0.822-0.648c-0.269-0.064-0.459-0.273-0.417-0.546c0.031-0.204,0.067-0.396,0.137-0.575
	c0.683-1.734,0.9-3.704,2.549-4.957c0.274-0.208,0.399-0.626,0.564-0.962c0.152-0.31,0.289-0.628,0.442-0.98
	c0.11-0.253,0.374-0.315,0.609-0.169c1.251,0.78,2.631,0.714,3.971,0.584c5.077-0.494,10.118-1.19,14.8-3.416
	c0.116-0.055,0.237-0.099,0.37-0.145c0.207-0.071,0.358,0.094,0.337,0.369c-0.045,0.591-0.087,1.122-0.119,1.653
	c-0.104,1.766-0.494,3.534,0.227,5.277c0.384,0.928,0.709,1.882,1.019,2.839c0.085,0.263,0.075,0.686-0.001,0.952
	c-0.084,0.297-0.177,0.69-0.203,1.057c-0.019,0.276-0.023,0.594-0.074,0.713c-0.052,0.119,0.125,0.265,0.396,0.316
	c0.607,0.115,1.634,0.276,2.234,0.181c0.892-0.141,1.644-0.036,2.208,0.029c0.564,0.065,0.151-0.855-0.478-0.947
	c-0.399-0.058-0.629-0.232-0.631-0.667c-0.002-0.438,0.018-0.881-0.036-1.313c-0.115-0.927-0.268-1.849-0.41-2.772
	c-0.47-3.042-0.706-6.101-0.651-9.179c0.006-0.328,0.132-0.7,0.321-0.969c0.537-0.767,1.144-1.484,1.704-2.235
	c0.208-0.28,0.454-0.579,0.526-0.904c0.245-1.101,1.074-1.363,2.006-1.511c2.431-0.385,4.864-0.753,7.292-1.151
	c3.544-0.58,7.083-1.215,10.391-2.683c1.409-0.626,2.748-1.419,4.092-2.183c3.739-2.127,7.641-3.916,11.637-5.482
	c1.307-0.512,2.771-0.786,4.177-0.847c1.981-0.086,3.984,0.034,5.959,0.244c1.379,0.147,2.729,0.58,4.086,0.91
	c0.175,0.043,0.344,0.111,0.511,0.187c0.252,0.113,0.595,0.029,0.746-0.203C146.289,73.62,146.214,73.032,145.534,71.977z"/>
</g>
</svg>
