<?xml version="1.0" encoding="iso-8859-1"?>
<!-- Generator: Adobe Illustrator 17.1.0, SVG Export Plug-In . SVG Version: 6.00 Build 0)  -->
<!DOCTYPE svg PUBLIC "-//W3C//DTD SVG 1.1//EN" "http://www.w3.org/Graphics/SVG/1.1/DTD/svg11.dtd">
<svg version="1.1" id="Capa_1" xmlns="http://www.w3.org/2000/svg" xmlns:xlink="http://www.w3.org/1999/xlink" x="0px" y="0px"
	 viewBox="0 0 150 150" style="enable-background:new 0 0 150 150;" xml:space="preserve">
<g>
	<path d="M9.973,113.313c-0.617,0.976-1.3,1.91-1.959,2.86c-0.766,1.104-0.705,2.258-0.137,3.396
		c1.063,2.131,2.935,3.454,4.886,4.643c0.963,0.587,2.02,1.019,3.125,1.426c0.24,0.089,0.352-0.031,0.257-0.27
		c-0.824-2.089-0.77-3.727-0.176-5.093c0.102-0.235,0.406-0.458,0.654-0.526c0.389-0.107,0.769-0.246,1.138-0.411
		c0.234-0.105,0.614-0.27,0.856-0.356c2.134-0.762,4.236-1.554,6.378-2.216c1.919-0.593,3.786-0.289,5.62,0.598
		c3.928,1.899,7.838,3.858,11.872,5.508c6.048,2.472,12.414,3.047,18.898,2.567c1.512-0.112,3.018-0.258,4.513-0.456
		c0.254-0.034,0.472,0.145,0.496,0.4c0.053,0.567,0.139,1.133,0.257,1.696c0.053,0.251-0.105,0.47-0.356,0.522
		c-1.755,0.363-2.792,1.756-3.545,3.572c-0.161,0.389-0.381,0.767-0.638,1.1c-0.725,0.939-0.931,1.776,0.176,2.625
		c0.239,0.184,0.291,0.758,0.25,1.133c-0.107,0.963-0.282,1.919-0.455,2.953c-0.042,0.253,0.124,0.517,0.364,0.608
		c0.795,0.299,1.59,0.714,2.213,0.533c0.555-0.161,0.918-0.983,1.362-1.715c0.133-0.219,0.425-0.27,0.635-0.124
		c0.52,0.361,1.034,0.717,1.499,1.04c0.211,0.146,0.533,0.122,0.719-0.054c1.308-1.232,2.575-2.427,4.023-3.792
		c0.187-0.176,0.132-0.288-0.121-0.25c-1.417,0.21-2.636,0.39-3.963,0.586c-0.254,0.038-0.448-0.14-0.435-0.396
		c0.062-1.233,0.107-2.38,0.224-3.52c0.02-0.193,0.472-0.491,0.715-0.482c0.547,0.02,1.092,0.127,1.699,0.234
		c0.253,0.044,0.425,0.282,0.384,0.535c-0.117,0.725-0.229,1.418-0.344,2.132c-0.041,0.253,0.128,0.407,0.368,0.316
		c1.653-0.623,2.408-2.011,3.264-3.39c0.135-0.218,0.065-0.49-0.161-0.611c-0.86-0.459-1.708-0.912-2.661-1.422
		c-0.226-0.121-0.291-0.389-0.144-0.6c0.39-0.56,0.759-1.091,1.108-1.592c0.098-0.118,0.185-0.246,0.265-0.38
		c0.065-0.094,0.13-0.187,0.194-0.279c0.107-0.154,0.171-0.273,0.141-0.265c-0.029,0.008,0.042-0.171,0.158-0.399
		c0.179-0.351,0.359-0.701,0.538-1.052c0.117-0.228,0.348-0.256,0.543-0.09c0.358,0.305,0.776,0.535,1.228,0.677
		c0.245,0.077,0.638,0.199,0.87,0.308c1.361,0.638,2.829,1.289,4.247,2.035c1.694,0.892,1.993,2.585,2.083,4.266
		c0.055,1.013-0.78,1.479-1.604,1.922c-1.146,0.616-2.341,1.219-3.309,2.062c-1.251,1.09-1.197,1.927-0.298,3.327
		c0.156,0.243,0.14,0.713,0.02,1.001c-1.201,2.864-1.212,2.859,1.025,4.982c0.387,0.368,0.775,0.735,1.279,1.212
		c0.186,0.176,0.292,0.116,0.238-0.134c-0.214-0.984-0.387-1.79-0.568-2.593c-0.321-1.424-0.222-1.943,0.785-2.923
		c0.184-0.179,0.525-0.226,0.755-0.113c0.454,0.223,0.929,0.456,1.467,0.72c0.23,0.113,0.378,0.049,0.332-0.144
		c-0.034-0.144-0.059-0.247-0.088-0.348c-0.709-2.458-0.608-2.85,1.808-3.734c0.24-0.088,0.458,0.05,0.485,0.305
		c0.171,1.624,0.34,3.219,0.504,4.814c0.032,0.308,0.038,0.618,0.064,0.926c0.14,1.655,0.722,2.31,2.338,2.566
		c0.234,0.037,0.545-0.042,0.739-0.18c0.928-0.661,1.836-1.351,2.912-2.157c0.205-0.154,0.165-0.298-0.091-0.321
		c-0.975-0.085-1.792-0.129-2.586-0.29c-0.341-0.069-0.86-0.497-0.868-0.775c-0.067-2.083-0.043-4.169-0.04-6.355
		c0-0.256,0.196-0.393,0.439-0.313c0.377,0.124,0.764,0.249,1.093,0.463c0.281,0.184,0.53,0.628,0.545,0.966
		c0.031,0.718-0.044,1.44-0.108,2.354c-0.018,0.256,0.127,0.327,0.321,0.159c1.302-1.126,2.408-2.11,2.971-3.597
		c0.248-0.654,0.199-1.024-0.525-1.345c-1.481-0.657-3.001-1.299-4.325-2.21c-0.686-0.472-1.099-1.34-1.736-2.301
		c-0.142-0.214-0.056-0.394,0.2-0.408c1.689-0.094,3.119-0.173,4.599-0.255c0.256-0.014,0.37-0.211,0.246-0.436
		c-0.623-1.125-1.369-2.184-1.095-3.654c0.047-0.252,0.25-0.293,0.44-0.121c0.879,0.791,1.816,0.918,2.812,0.62
		c0.246-0.074,0.443-0.201,0.451-0.257c0.006-0.042,0.009-0.081-0.01-0.099c-1.871-1.787-2.228-4.089-1.016-6.977
		c0.001-0.003,0.003-0.007,0.004-0.01c0.003-0.006,0.195-0.093,0.437-0.178c1.361-0.477,2.73-0.472,4.277,0
		c1.472,0.559,2.255,1.676,2.835,3.749c0.766,2.737,0.847,5.489-0.23,8.19c-0.546,1.369-1.334,2.544-2.595,3.36
		c-0.215,0.139-0.205,0.313,0.037,0.395c2.271,0.775,4.612,0.749,6.315-3.025c0.105-0.234,0.229-0.224,0.293,0.025
		c0.071,0.272,0.128,0.485,0.133,0.7c0.062,2.954,1.239,5.434,3.402,7.364c3.32,2.961,7.08,4.95,11.724,4.638
		c4.105-0.275,8.919-4.018,9.701-7.681c0.61-2.858,0.182-5.61-1.299-8.161c-0.212-0.364-0.493-0.69-0.757-1.022
		c-0.051-0.064-0.121-0.114-0.226-0.186c-0.134-0.092-0.183,0.03-0.109,0.275c0.226,0.743,0.454,1.38,0.544,2.036
		c0.395,2.884-1.483,5.528-4.625,6.652c-2.583,0.924-4.905,0.111-6.813-1.477c-1.473-1.227-2.536-2.958-3.722-4.509
		c-0.201-0.263-0.271-0.628-0.307-1.051c-0.022-0.255,0.09-0.294,0.254-0.096c1.885,2.282,4.172,2.005,6.702,1.252
		c0.246-0.073,0.304-0.289,0.131-0.478c-0.935-1.022-1.775-1.932-2.6-2.855c-1.396-1.561-2.394-3.392-2.731-5.422
		c-0.171-1.031-0.473-1.919-0.89-2.683c-0.123-0.225-0.311-0.594-0.411-0.83c-0.687-1.619-1.656-3.092-2.841-4.367
		c-0.175-0.188-0.43-0.512-0.573-0.725c-0.461-0.688-0.952-1.286-1.481-1.824c-0.18-0.183-0.392-0.528-0.537-0.74
		c-0.12-0.177-0.281-0.34-0.486-0.481c-1.258-0.864-2.556-1.663-3.887-2.397c-0.224-0.124-0.568-0.354-0.77-0.512
		c-1.608-1.258-3.372-2.298-5.242-3.093c-0.236-0.1-0.222-0.2,0.032-0.23c4.334-0.509,8.567-1.435,12.84-2.846
		c0.244-0.08,0.233-0.133-0.022-0.114c-3.189,0.233-6.087,0.521-8.991,0.604c-1.184,0.034-2.37,0.002-3.557-0.048
		c-0.256-0.011-0.385-0.224-0.188-0.388c0.395-0.328,1.063-0.482,1.501-0.645c0.484-0.18,0.967-0.359,1.45-0.539
		c0.24-0.089,0.643-0.162,0.899-0.167c5.819-0.111,11.342-1.953,16.77-4.307c0.235-0.102,0.219-0.162-0.035-0.131
		c-2.258,0.274-4.512,0.664-6.776,0.731c-1.468,0.043-2.937,0.065-4.406,0.075c-0.256,0.002-0.506-0.165-0.599-0.353
		s-0.167-0.349-0.123-0.382c0.027-0.02,0.054-0.039,0.081-0.058c0.44-0.305,0.885-0.604,1.354-0.861
		c0.575-0.315,1.155-0.584,1.753-0.816c0.239-0.093,0.64-0.199,0.891-0.25c0.62-0.126,1.239-0.275,1.855-0.452
		c4.142-1.186,7.889-3.226,11.672-5.253c0.226-0.121,0.209-0.165-0.039-0.099c-4.094,1.089-8.219,1.872-12.386,2.376
		c-0.254,0.031-0.579-0.02-0.74-0.076c-0.161-0.055-0.16-0.222,0.011-0.413c0.464-0.516,0.92-1.04,1.366-1.572
		c0.165-0.196,0.5-0.402,0.749-0.461c6.868-1.613,13.167-4.843,18.784-10.087c0.187-0.175,0.146-0.236-0.09-0.138
		c-0.696,0.29-1.344,0.547-1.966,0.852c-4.359,2.138-8.872,3.779-13.499,5.05c-0.247,0.068-0.33-0.05-0.187-0.263
		c0.461-0.685,0.907-1.379,1.339-2.083c0.134-0.219,0.438-0.462,0.682-0.542c0.619-0.204,1.237-0.408,1.855-0.607
		c6.144-1.973,10.646-6.394,15.197-10.681c0.187-0.176,0.295-0.372,0.243-0.438c-0.053-0.066-0.277-0.018-0.5,0.106
		c-0.667,0.371-1.336,0.738-1.995,1.122c-2.17,1.264-4.41,2.63-6.802,3.432c-0.41,0.138-4.497,1.323-4.102,0.11
		c0.403-1.228,1.735-2.125,2.654-2.953c1.697-1.528,3.394-3.056,5.091-4.584c1.132-0.857,2.218-1.782,3.235-2.813
		c3.8-3.849,6.656-8.387,9.722-12.775c0.147-0.21,0.21-0.426,0.141-0.483s-0.279,0.037-0.469,0.209
		c-1.338,1.216-2.677,2.431-4.015,3.647c-4.263,3.876-8.818,7.323-13.647,10.366c-0.217,0.137-0.346,0.044-0.29-0.206
		c0.08-0.354,0.156-0.71,0.228-1.066c0.014-0.07,0.028-0.139,0.04-0.209c0.021-0.115,0.163-0.373,0.321-0.576
		c0.457-0.587,0.914-1.173,1.37-1.76c0.157-0.202,0.451-0.492,0.651-0.652c1.813-1.453,3.347-3.239,4.514-5.27
		c0.128-0.222,0.36-0.564,0.524-0.762c5.5-6.664,8.505-14.428,9.542-23.308c0.03-0.255-0.049-0.28-0.173-0.055
		c-1.747,3.163-3.308,6.106-4.99,8.978c-3.181,5.432-6.897,10.419-11.33,14.795c-0.182,0.18-0.513,0.426-0.743,0.538
		c-0.377,0.184-0.766,0.342-1.164,0.474c-0.243,0.08-0.521,0.051-0.617-0.05c-0.096-0.101-0.052-0.344,0.1-0.55
		c1.82-2.455,3.354-5.084,4.59-7.874c0.104-0.234,0.296-0.602,0.43-0.82c2.757-4.495,4.753-9.37,6.517-14.352
		c0.077-0.218,0.228-0.488,0.162-0.666c-0.964-2.593-0.223-5.279-0.418-7.917c-0.369-4.959-2.601-9.073-5.263-13.056
		c-0.367-0.549-0.753-1.085-1.236-1.58c-0.179-0.184-0.275-0.122-0.201,0.123c0.457,1.506,0.948,3.004,1.336,4.528
		c1.585,6.236,2.401,12.505,0.884,18.903c-0.807,3.405-2.684,6.205-4.644,9.001c-3.294,4.699-6.991,8.96-12.144,11.726
		c-2.757,1.48-5.468,3.052-8.264,4.456c-9.325,4.681-18.229,10.036-26.598,16.257c-3.063,2.073-5.986,4.355-8.695,6.866
		c-0.188,0.174-0.252,0.128-0.146-0.105c0.847-1.877,1.551-3.777,1.879-5.844c0.04-0.253-0.011-0.432-0.108-0.404
		c-0.096,0.028-0.15,0.041-0.163,0.071c-0.655,1.564-1.771,2.798-2.841,4.066c-0.166,0.196-0.366,0.16-0.452-0.082
		c-0.211-0.595-0.429-1.187-0.651-1.778c-0.09-0.24-0.068-0.618,0.048-0.847c1.723-3.373,3.086-6.869,3.861-10.601
		c0.052-0.251,0.037-0.479-0.029-0.51c-0.067-0.03-0.209,0.133-0.313,0.367c-0.138,0.311-0.275,0.622-0.456,0.906
		c-1.421,2.238-2.849,4.473-4.287,6.7c-0.139,0.215-0.332,0.198-0.432-0.038c-0.297-0.699-0.602-1.395-0.914-2.087
		c-0.105-0.234-0.122-0.618-0.037-0.86c1.566-4.447,2.735-8.993,3.282-13.731c0.03-0.255-0.016-0.486-0.099-0.516
		c-0.083-0.03-0.218,0.142-0.296,0.386c-0.157,0.493-0.305,0.99-0.522,1.451c-1.364,2.905-2.732,5.808-4.112,8.705
		c-0.11,0.231-0.294,0.234-0.411,0.006c-0.633-1.235-1.292-2.456-1.976-3.663c-0.126-0.223-0.188-0.607-0.137-0.858
		c0.619-3.096,1.056-6.228,1.331-9.39c0.089-1.025,0.032-2.062,0.018-3.215c-0.003-0.256-0.072-0.268-0.157-0.026
		c-1.098,3.128-2.163,6.164-3.217,9.168c-0.085,0.242-0.264,0.262-0.401,0.045c-0.505-0.795-1.021-1.582-1.548-2.362
		c-0.144-0.212-0.227-0.589-0.188-0.842c0.809-5.198,1.109-10.418,0.616-15.711c-0.024-0.255-0.137-0.474-0.25-0.489
		c-0.113-0.015-0.237,0.178-0.27,0.432c-0.079,0.61-0.141,1.225-0.305,1.812c-0.913,3.262-1.83,6.523-2.761,9.78
		c-0.071,0.246-0.254,0.281-0.41,0.078c-0.59-0.766-1.192-1.522-1.805-2.269c-0.163-0.198-0.287-0.566-0.28-0.822
		c0.194-6.527-0.632-12.944-2.728-19.277c-0.081-0.243-0.08-0.243-0.014,0.004c0.922,3.494-0.141,9.808-0.742,13.433
		c-0.042,0.253-0.283,0.487-0.539,0.479c-1.261-0.04-2.299-0.875-2.887-2.075c-0.636-1.298-0.715-2.786-0.851-4.225
		c-0.502-5.337-1.946-10.584-4.244-15.428c-0.11-0.232-0.181-0.211-0.156,0.044c0.499,5.1,0.952,10.279,0.014,15.304
		c-0.047,0.252-0.18,0.268-0.292,0.038c-3.933-8.121-7.866-16.242-11.799-24.363c-0.112-0.231-0.162-0.214-0.113,0.038
		c1.128,5.751,2.257,11.503,3.385,17.254c0.049,0.252-0.077,0.331-0.278,0.172c-3.903-3.084-6.632-7.623-7.523-12.518
		c-0.046-0.252-0.067-0.25-0.062,0.006c0.032,1.699-0.055,5.467,0.724,6.889c0.123,0.225,0.124,0.229-0.067,0.058
		c-0.235-0.211-0.47-0.421-0.705-0.632c-0.191-0.171-0.446-0.492-0.569-0.716c-0.732-1.33-1.471-2.653-2.265-3.942
		c-1.416-2.3-2.819-4.648-4.549-6.705c-1.617-1.923-3.589-3.548-5.435-5.28c-0.187-0.175-0.402-0.257-0.483-0.18
		s-0.04,0.317,0.092,0.537c0.976,1.635,1.972,3.258,2.91,4.915c4.559,8.053,8.038,16.524,9.906,25.623
		c1.418,6.91,1.142,13.827,0.251,20.763c-0.705,5.489-1.631,10.929-3.616,16.123c-0.482,1.261-1.139,2.455-1.774,3.741
		c-0.114,0.23-0.039,0.545,0.163,0.703c0.952,0.744,1.937,1.534,2.969,2.254c0.196,0.137,0.697-0.026,0.987-0.182
		c1.731-0.927,3.437-1.9,5.162-2.838c0.128-0.07,0.271-0.112,0.417-0.147c0.239-0.057,0.453-0.067,0.479-0.024
		c0.025,0.043-0.107,0.217-0.296,0.391c-0.144,0.132-0.288,0.264-0.432,0.396c-0.189,0.173-0.146,0.244,0.097,0.163
		c2.071-0.694,4.156-1.135,6.348-1.052c4.917,0.187,9.411,5.961,8.144,10.515c-0.602,2.164-2.108,3.665-3.849,4.934
		c-3.586,2.616-7.748,3.969-11.908,5.319c-2.241,0.727-4.465,1.511-6.712,2.217c-3.952,1.241-5.488,4.378-6.295,8.041
		c-0.156,0.707-0.233,1.432-0.258,2.174c-0.009,0.256-0.079,0.661-0.129,0.912c-0.103,0.515-0.097,1.06,0.032,1.599
		c0.051,0.212,0.102,0.423,0.153,0.635c0.06,0.249,0.001,0.629-0.134,0.847C10.275,112.83,10.125,113.072,9.973,113.313z"/>
</g>
</svg>
