<?xml version="1.0" encoding="iso-8859-1"?>
<!-- Generator: Adobe Illustrator 17.1.0, SVG Export Plug-In . SVG Version: 6.00 Build 0)  -->
<!DOCTYPE svg PUBLIC "-//W3C//DTD SVG 1.1//EN" "http://www.w3.org/Graphics/SVG/1.1/DTD/svg11.dtd">
<svg version="1.1" id="Capa_1" xmlns="http://www.w3.org/2000/svg" xmlns:xlink="http://www.w3.org/1999/xlink" x="0px" y="0px"
	 viewBox="0 0 150 150" style="enable-background:new 0 0 150 150;" xml:space="preserve">
<g>
	<path d="M133.123,53.61c-2.171-2.048-4.336-4.106-6.6-6.048c-2.181-1.871-4.393-3.733-6.763-5.348
		c-1.961-1.337-4.175-2.303-6.272-3.443c-1.068-0.58-2.145-1.147-3.183-1.777c-1.173-0.712-2.164-1.603-2.937-2.787
		c-1.794-2.748-4.225-4.862-7.045-6.499c-1.841-1.067-3.772-1.976-5.653-2.976c-0.454-0.242-0.867-0.561-1.258-0.924
		c1.548-0.309,2.918,0.025,4.195,0.911c-0.594-1.687-2.093-2.508-3.399-3.51c0.02-0.07,0.04-0.141,0.06-0.211
		c1.121,0.221,2.243,0.443,3.33,0.657c-0.144-0.529-0.562-1.101-1.573-1.783c-3.64-2.457-7.628-3.767-12.059-3.42
		c-1.568,0.123-3.152,0.276-4.678,0.632c-3.193,0.745-6.361,1.608-9.521,2.488c-0.658,0.183-1.268,0.607-1.845,1.001
		c-3.118,2.128-6.265,4.219-9.312,6.446c-2.754,2.013-4.791,4.703-6.662,7.533c-2.628,3.976-3.41,8.342-2.967,13.012
		c0.163,1.718,0.211,3.446,0.345,5.167c0.237,3.031-1.146,5.222-3.669,6.657c-2.538,1.443-5.219,1.507-7.835,0.114
		c-1.574-0.839-2.561-2.234-3.223-3.852c-1.399-3.417-1.586-6.911-0.215-10.347c1.334-3.342,2.878-6.601,4.34-9.892
		c1.792-4.034,3.651-8.038,5.015-12.251c1.201-3.71,1.254-7.359-0.196-11.018c-1.151-2.905-3.103-4.946-6.071-6.002
		c-3.96-1.409-8-1.744-12.163-1.167c-2.826,0.392-4.869,1.82-6.316,4.195c-0.643,1.055-1.289,2.121-1.798,3.243
		c-0.982,2.164-2.201,4.183-3.483,6.173c-0.346,0.538-0.633,1.115-0.991,1.645c-1.112,1.643-1.211,3.413-0.529,5.2
		c0.819,2.149,1.681,4.29,2.679,6.36c0.557,1.156,1.406,2.175,2.169,3.224c0.18,0.247,0.541,0.362,0.818,0.538
		c0.172-0.297,0.47-0.586,0.491-0.894c0.069-0.975,0.152-1.975,0.018-2.935c-0.486-3.497,0.518-6.6,2.226-9.591
		c0.648-1.136,1.437-1.965,2.655-2.428c0.956-0.364,1.866-0.853,2.83-1.191c1.893-0.664,3.281-1.948,4.494-3.474
		c0.411-0.517,0.815-1.041,1.223-1.56c0.494-0.629,1.157-0.921,1.942-0.965c1.436-0.081,2.743,0.358,3.967,1.051
		c0.914,0.517,1.19,1.429,1.226,2.4c0.076,2.035-0.074,4.04-0.757,5.993c-1.113,3.184-2.425,6.273-3.892,9.313
		c-2.492,5.164-4.79,10.42-6.599,15.873c-1.01,3.041-0.909,6.15-0.339,9.241c0.284,1.541,0.665,3.1,1.271,4.538
		c1.208,2.867,3.482,4.779,6.267,6.011c5.366,2.374,10.749,2.188,16.052-0.242c2.591-1.187,4.584-3.154,6.463-5.245
		c1.27-1.413,2.665-2.696,4.598-3.078c1.121-0.221,2.284-0.269,3.431-0.309c0.758-0.026,1.393,0.42,1.742,1.044
		c0.682,1.221,1.369,2.462,1.84,3.772c1,2.786,1.439,5.709,1.673,8.647c0.307,3.848,0.591,7.702,0.724,11.558
		c0.075,2.166-0.091,4.35-0.299,6.512c-0.171,1.781,0.041,3.517,0.454,5.204c0.861,3.516,0.947,7.085,1.047,10.666
		c0.113,4.073,0.263,8.145,0.411,12.216c0.186,5.139,0.391,10.277,0.573,15.415c0.026,0.743-0.003,1.49-0.057,2.232
		c-0.039,0.546-0.368,0.752-0.938,0.822c-2.942,0.36-5.88,0.755-8.812,1.183c-0.237,0.035-0.441,0.103-0.622,0.193
		c-1.474,0.058-2.948,0.117-4.421,0.175c-1.046,0.041-1.921,0.843-1.921,1.921c0,0.671,0.382,1.309,0.942,1.655
		c0.225,0.691,0.808,1.252,1.752,1.255c2.784,0.01,5.569,0.02,8.353,0.03c0.866,0.247,1.819,0.427,2.683,0.305
		c1.442-0.204,2.907-0.554,4.243-1.122c2.781-1.181,3.591-5.07,1.683-7.41c-0.224-0.275-0.377-0.687-0.393-1.042
		c-0.113-2.556-0.152-5.115-0.272-7.671c-0.25-5.327-0.588-10.65-0.789-15.978c-0.133-3.515-0.136-7.038-0.1-10.556
		c0.01-1.003,0.407-1.996,0.539-3.006c0.2-1.537,0.389-3.08,0.465-4.627c0.148-3.047-0.315-6.019-1.023-8.99
		c-0.086-0.359-0.156-0.721-0.219-1.085c0.611,0.819,1.282,1.596,2.016,2.327c0.507,0.504,1.242,0.665,1.894,0.481
		c0.23-0.033,0.461-0.11,0.685-0.241c0.852-0.499,1.285-1.766,0.689-2.629c-0.753-1.091-1.255-2.416-1.334-3.471
		c-0.03-0.397-0.047-0.795-0.025-1.193c0.01-0.188,0.021-0.376,0.042-0.563c0.005-0.03,0.01-0.066,0.018-0.112
		c0.123-0.656,0.307-1.286,0.562-1.903c0.101-0.244,0.124-0.5,0.087-0.749c0.805-0.221,1.618-0.418,2.419-0.633
		c1.728-0.463,3.455-0.927,5.182-1.39c6.442-1.728,12.883-3.456,19.325-5.184c0.329,0.097,0.685,0.109,1.031,0.008
		c0.965-0.281,1.929-0.562,2.894-0.843c0.299,0.182,0.645,0.283,0.999,0.283h0.192c0.508,0,1-0.204,1.359-0.563
		c0.359-0.359,0.563-0.851,0.563-1.359c0-0.142-0.018-0.282-0.048-0.419c-0.002-0.505-0.128-1.013-0.427-1.421
		c-0.26-0.355-0.546-0.718-0.957-0.914c-0.483-0.231-0.721-0.297-1.257-0.341c-0.072-0.006-0.145-0.003-0.219,0.004
		c-1.534-0.904-3.068-1.808-4.602-2.712c1.296-0.461,2.597-0.893,3.916-1.26c9.54-2.657,18.672-1.588,27.266,3.46
		c0.378,0.222,0.74,0.47,1.11,0.706c0.059-0.038,0.117-0.076,0.176-0.114c-0.323-0.726-0.587-1.485-0.979-2.171
		C136.186,56.59,134.674,55.074,133.123,53.61z M83.18,68.324c-1.951,0.523-3.924,0.995-5.856,1.582
		c-1.278,0.388-2.693,0.911-3.748,1.805c-0.213-1.853-0.425-3.707-0.632-5.561c-0.102-0.911-0.198-1.826-0.225-2.741
		c-0.03-1.015,0.357-1.416,1.375-1.415c1.257,0.002,2.517,0.15,3.771,0.104c2.787-0.103,5.573-0.259,8.355-0.449
		c2.128-0.145,4.25-0.38,6.376-0.557c0.222-0.018,7.829-0.828,7.169-1.052c0.45-0.159,0.898-0.321,1.345-0.485
		c1.538,0.906,3.076,1.813,4.615,2.719C98.21,64.292,90.695,66.308,83.18,68.324z"/>
</g>
</svg>
