<?xml version="1.0" encoding="iso-8859-1"?>
<!-- Generator: Adobe Illustrator 17.1.0, SVG Export Plug-In . SVG Version: 6.00 Build 0)  -->
<!DOCTYPE svg PUBLIC "-//W3C//DTD SVG 1.1//EN" "http://www.w3.org/Graphics/SVG/1.1/DTD/svg11.dtd">
<svg version="1.1" id="Capa_1" xmlns="http://www.w3.org/2000/svg" xmlns:xlink="http://www.w3.org/1999/xlink" x="0px" y="0px"
	 viewBox="0 0 150 150" style="enable-background:new 0 0 150 150;" xml:space="preserve">
<g>
	<path d="M7.655,36.329c-0.082-0.205-0.2-0.377-0.326-0.56c-0.059-0.086-0.123-0.179-0.191-0.287
		c-0.102-0.161-0.282-0.247-0.478-0.23c-0.19,0.021-0.352,0.149-0.416,0.33c-0.396,1.117-0.372,2.098-0.308,3.088
		c0.12,1.854,1.075,3.318,2.762,4.237c1.336,0.727,2.772,0.865,4.124,0.906l0.348,0.01c0.637,0.019,1.273,0.036,1.874,0.088
		c0.015,0.005,0.04,0.019,0.063,0.034c0.045,0.725,0.506,1.163,1.372,1.303c0.76,0.124,1.526,0.217,2.293,0.299
		c2.808,0.298,5.082,1.411,6.953,3.403c1.342,1.431,2.378,3.139,3.38,4.79c0.218,0.36,0.437,0.72,0.658,1.078
		c1.691,2.73,3.386,5.459,5.091,8.181c0.789,1.26,1.946,2.081,3.346,2.375c1.035,0.218,2.091,0.391,3.112,0.558
		c0.378,0.062,0.756,0.124,1.135,0.188c-0.717,1.007-1.436,2.012-2.154,3.017c-1.761,2.463-3.522,4.926-5.249,7.412
		c-4.209,6.061-8.076,12.188-11.494,18.213c-4.021,7.088-6.881,13.139-9.002,19.043c-1.125,3.134-1.778,5.766-2.056,8.284
		c-0.384,3.479,0.004,7.111,1.155,10.795c0.588,1.883,1.46,3.31,2.667,4.36c2.291,1.995,5.067,2.589,8.254,1.755
		c2.921-0.761,5.54-2.098,8.188-3.517c6.801-3.643,12.595-7.169,17.712-10.781c1.522-1.074,3.028-2.218,4.485-3.322l0.222-0.17
		c0.336-0.235,0.671-0.473,1.005-0.712c0.378-0.271,0.76-0.547,1.143-0.827l0.116,0.186c0.102,0.161,0.282,0.253,0.475,0.231
		c0.72-0.073,1.281-0.415,1.819-0.757c-0.349,0.372-0.718,0.799-0.953,1.39c-0.069,0.176-0.035,0.375,0.091,0.517
		s0.32,0.197,0.502,0.151c0.276-0.073,0.512-0.181,0.72-0.308c-0.114,0.203-0.21,0.424-0.275,0.67
		c-0.047,0.178,0.007,0.366,0.141,0.492s0.327,0.166,0.5,0.11c0.265-0.088,0.493-0.212,0.696-0.355
		c-0.034,0.046-0.067,0.092-0.1,0.138l-0.237,0.327c-0.162,0.22-0.117,0.53,0.102,0.695l0.173,0.132
		c0.145,0.112,0.339,0.137,0.508,0.063c0.264-0.116,0.491-0.266,0.694-0.434c-0.102,0.204-0.184,0.426-0.235,0.671
		c-0.036,0.172,0.021,0.351,0.15,0.47c0.13,0.121,0.312,0.162,0.481,0.112c0.189-0.056,0.444-0.146,0.667-0.317
		c-0.072,0.215-0.125,0.441-0.15,0.687c-0.019,0.188,0.069,0.37,0.229,0.471c0.159,0.103,0.361,0.105,0.523,0.01
		c0.177-0.104,0.333-0.224,0.472-0.353c-0.002,0.007-0.004,0.015-0.005,0.021l-0.074,0.282c-0.063,0.227,0.04,0.467,0.248,0.577
		l0.164,0.086c0.2,0.104,0.446,0.062,0.6-0.105c0.013-0.014,0.026-0.026,0.039-0.04c-0.002,0.018-0.003,0.036-0.005,0.055
		c-0.016,0.195,0.085,0.383,0.258,0.478c0.172,0.095,0.385,0.079,0.542-0.04c0.386-0.292,0.651-0.65,0.857-1.023
		c-0.099,0.366-0.153,0.753-0.104,1.178c0.021,0.188,0.147,0.348,0.326,0.412c0.178,0.065,0.377,0.023,0.515-0.106
		c0.623-0.589,0.869-1.318,1.107-2.022c0.06-0.177,0.119-0.354,0.186-0.528l0.013,0.003l-0.007,0.035
		c-0.076,0.366-0.148,0.716-0.203,1.067c-0.053,0.344-0.088,0.69-0.123,1.036l-0.045,0.438c-0.029,0.263,0.152,0.503,0.413,0.548
		l0.228,0.039c0.194,0.033,0.388-0.05,0.498-0.212c0.103-0.151,0.188-0.307,0.261-0.464c0.013,0.14,0.045,0.268,0.074,0.384
		l0.037,0.158c0.046,0.235,0.416,0.4,0.658,0.4c0.003,0,0.006,0,0.009,0c0.14-0.003,0.271-0.063,0.363-0.166
		c0.006,0.033,0.012,0.065,0.019,0.099c0.037,0.179,0.167,0.323,0.342,0.377c0.174,0.057,0.365,0.01,0.496-0.118
		c0.084-0.082,0.159-0.166,0.223-0.252l0.005,0.05c0.024,0.264,0.486,0.479,0.711,0.449c0.165-0.005,0.315-0.091,0.404-0.227
		c0.085,0.134,0.232,0.226,0.402,0.233l0.271,0.012c0.208,0.006,0.383-0.102,0.471-0.28c0.347-0.71,0.348-1.437,0.35-2.139
		c0-0.234,0-0.46,0.014-0.68h0.081l0,0.033c-0.003,0.39-0.005,0.767,0.006,1.145c0.029,0.957,0.083,1.516,0.83,1.858
		c0.154,0.071,0.334,0.059,0.478-0.034c0.102-0.065,0.176-0.165,0.209-0.278c0.018,0.032,0.036,0.064,0.055,0.097
		c0.094,0.156,0.271,0.25,0.447,0.243c0.182-0.007,0.346-0.111,0.429-0.274c0.04-0.079,0.074-0.158,0.104-0.239
		c0.026,0.05,0.053,0.099,0.075,0.148c0.102,0.225,0.532,0.292,0.77,0.228c0.204-0.056,0.35-0.234,0.366-0.444l0.002-0.018
		c0.099,0.119,0.244,0.188,0.405,0.183c0.173-0.007,0.331-0.103,0.417-0.254c0.142-0.25,0.22-0.487,0.238-0.721
		c0.082,0.172,0.181,0.341,0.302,0.503c0.116,0.156,0.312,0.228,0.505,0.19l0.243-0.052c0.259-0.056,0.431-0.305,0.39-0.566
		l-0.396-2.536c0.068,0.172,0.128,0.354,0.19,0.541c0.219,0.661,0.467,1.411,1.168,1.945c0.165,0.126,0.389,0.138,0.564,0.029
		c0.176-0.108,0.268-0.313,0.23-0.517c-0.093-0.51-0.232-0.999-0.382-1.475c0.228,0.57,0.542,1.151,1.192,1.556
		c0.173,0.106,0.394,0.1,0.559-0.021c0.088-0.064,0.151-0.154,0.183-0.254c0.045,0.027,0.094,0.048,0.147,0.061
		c0.151,0.035,0.31-0.001,0.431-0.099l0.278-0.224c0.163-0.13,0.228-0.348,0.163-0.547l-0.052-0.165
		c0.134,0.115,0.287,0.22,0.464,0.31c0.156,0.081,0.342,0.072,0.491-0.021c0.149-0.093,0.238-0.256,0.235-0.432
		c-0.004-0.264-0.049-0.503-0.121-0.724c0.133,0.109,0.281,0.209,0.446,0.291s0.362,0.067,0.513-0.04l0.177-0.126
		c0.222-0.157,0.277-0.464,0.124-0.688l-0.326-0.479c0.235,0.205,0.5,0.384,0.817,0.517c0.175,0.071,0.376,0.04,0.52-0.084
		l0.163-0.142c0.204-0.176,0.231-0.482,0.062-0.692l-0.268-0.331c0.158,0.12,0.331,0.228,0.523,0.317
		c0.182,0.084,0.398,0.051,0.548-0.084l0.205-0.186c0.195-0.176,0.221-0.472,0.059-0.679l-0.242-0.311
		c0.153,0.084,0.322,0.153,0.509,0.2c0.168,0.044,0.345-0.005,0.469-0.124l0.153-0.148c0.188-0.183,0.203-0.48,0.034-0.681
		l-0.912-1.078c0.001,0,0.002,0.001,0.004,0.002c0.525,0.343,1.12,0.73,1.876,0.775c0.201,0.015,0.37-0.086,0.464-0.251l0.114-0.202
		c0.011,0.009,0.022,0.018,0.033,0.025c1.442,1.117,2.934,2.271,4.436,3.365c6.31,4.599,13.177,8.828,20.993,12.927
		c2.266,1.188,4.924,2.512,7.81,3.173c0.717,0.164,1.437,0.248,2.14,0.248c3.291,0,6.131-1.836,7.597-4.909
		c1.345-2.818,1.716-5.832,1.889-8.143c0.374-5-1.05-9.625-2.491-13.489c-1.871-5.018-4.187-10-6.885-14.808
		c-2.021-3.602-4.432-7.837-6.982-11.95c-3.693-5.955-7.98-12.226-13.107-19.169c-0.189-0.256-0.373-0.515-0.564-0.787
		c0.36-0.061,0.721-0.118,1.082-0.176c1.005-0.161,2.044-0.327,3.061-0.551c0.834-0.185,1.882-0.513,2.574-1.426
		c0.59-0.778,1.277-1.703,1.895-2.657c0.617-0.951,1.217-1.913,1.818-2.875c0.521-0.835,1.043-1.671,1.575-2.499
		c0.343-0.534,0.682-1.071,1.021-1.607c0.984-1.559,2.001-3.17,3.104-4.668c1.678-2.276,4.053-3.637,7.061-4.046l0.817-0.104
		c0.694-0.087,1.413-0.176,2.117-0.316c0.387-0.076,1.117-0.508,1.132-1.063c0.004-0.162,0.037-0.209,0.037-0.209
		c0.051-0.041,0.301-0.054,0.42-0.06c0.347-0.017,0.694-0.027,1.042-0.039c0.772-0.025,1.571-0.052,2.359-0.136
		c2.083-0.221,3.572-1.049,4.554-2.531c1.102-1.665,0.958-3.483,0.64-5.201c-0.037-0.198-0.159-0.311-0.24-0.385l-0.078-0.076
		c-0.11-0.119-0.274-0.185-0.432-0.154c-0.161,0.021-0.301,0.119-0.376,0.263l-0.175,0.325c-0.123,0.224-0.235,0.432-0.333,0.647
		c-1.109,2.474-2.809,3.961-5.196,4.546c-1.359,0.333-2.725,0.638-4.091,0.943c-1.093,0.244-2.187,0.488-3.277,0.747
		c-1.846,0.437-3.38,1.252-4.562,2.422l-0.783,0.771c-1.014,0.992-2.062,2.02-2.998,3.124c-2.518,2.976-5.209,6.195-7.831,9.584
		c-1.251,1.617-2.746,2.422-4.704,2.53c-0.291,0.016-0.583,0.022-0.876,0.029c-1.15,0.025-2.335,0.051-3.459,0.633l-2.576-3.433
		c-0.509-0.727-1.02-1.452-1.534-2.176c-0.33-0.463-0.648-0.843-0.923-1.099l-0.564-0.752h0.857c0.252,0,0.465-0.188,0.496-0.438
		l0.022-0.175c0.033-0.259-0.14-0.499-0.395-0.552l-0.634-0.133c-0.454-0.096-0.908-0.191-1.364-0.278
		c-0.188-0.036-0.352-0.162-0.438-0.3h2.575c0.255,0,0.485-0.338,0.513-0.591c0.027-0.244-0.128-0.472-0.365-0.537l-0.14-0.042
		c-0.139-0.043-0.279-0.084-0.423-0.104c-0.669-0.095-1.338-0.182-2.022-0.262c-0.173-0.021-0.352-0.041-0.422-0.037
		c-0.01-0.052-0.02-0.104-0.029-0.157c0.272-0.029,0.546-0.048,0.821-0.067c0.827-0.06,1.683-0.12,2.517-0.435
		c0.209-0.079,0.34-0.286,0.322-0.509l-0.013-0.148c-0.023-0.258-0.239-0.455-0.498-0.455h-3.436l-0.054-0.278l2.993-0.703
		c0.258-0.061,0.424-0.312,0.378-0.573l-0.052-0.292c-0.046-0.265-0.296-0.449-0.557-0.409l-2.946,0.383l2.811-0.848
		c0.256-0.077,0.383-0.434,0.317-0.693l-0.044-0.172c-0.065-0.253-0.315-0.406-0.574-0.367l-3.207,0.587l-0.038-0.105
		c0.204-0.057,0.408-0.108,0.611-0.16c0.869-0.222,1.769-0.45,2.578-0.995c0.167-0.112,0.25-0.314,0.211-0.512
		c-0.039-0.197-0.193-0.353-0.39-0.393c-0.225-0.048-0.449-0.059-0.667-0.037c0.187-0.205,0.354-0.438,0.5-0.697l0.848-1.492
		c0.481-0.844,0.962-1.688,1.433-2.538c0.992-1.791,1.981-3.584,2.971-5.377c1.867-3.385,3.734-6.77,5.624-10.142
		c0.881-1.57,2.013-3.361,3.734-4.736c0.501-0.401,0.899-0.5,1.42-0.365c1.446,0.379,2.992,0.387,4.607,0.019
		c2.699-0.613,5.29-1.634,7.687-2.645c1.212-0.512,2.072-1.371,2.557-2.556c0.159-0.389,0.287-0.789,0.414-1.189l0.169-0.521
		c0.076-0.227-0.019-0.476-0.227-0.594l-0.231-0.132c-0.189-0.107-0.427-0.08-0.587,0.068c-0.096,0.088-0.194,0.174-0.292,0.261
		c-0.24,0.211-0.488,0.429-0.709,0.686c-0.253,0.294-0.46,0.614-0.66,0.924l-0.157,0.24c-0.305,0.461-0.672,0.691-1.192,0.75
		c-1.115,0.127-2.229,0.261-3.344,0.395c-1.964,0.236-3.928,0.474-5.896,0.667c-1.636,0.163-3.163,0.603-4.539,1.309
		c-1.524,0.781-2.445,2.185-3.188,3.438c-0.929,1.566-1.822,3.186-2.686,4.751c-0.428,0.776-0.856,1.553-1.29,2.325l-0.281,0.51
		c-0.625,1.143-1.216,2.222-2.288,2.918c-0.343,0.223-0.492,0.655-0.541,0.831c-0.158,0.571-0.518,0.988-1.048,1.476l-0.287,0.263
		c-0.608,0.554-1.237,1.126-1.702,1.828c-1.131,1.711-2.193,3.503-3.219,5.234l-0.398,0.671c-0.059,0.1-0.095,0.146-0.102,0.161
		c-0.452-0.131-1.007-0.114-1.554-0.06c-0.138,0.014-0.276,0.027-0.414,0.036l0.69-0.781c0.169-0.191,0.167-0.479-0.005-0.668
		l-0.153-0.166c-0.175-0.188-0.463-0.213-0.669-0.059l-1.008,0.765l0.857-1.063c0.167-0.206,0.143-0.506-0.053-0.684l-0.174-0.158
		c-0.188-0.171-0.472-0.173-0.663-0.008l-0.577,0.498l0.329-0.549c0.133-0.222,0.075-0.509-0.134-0.661L91.559,36.7
		c-0.208-0.149-0.498-0.119-0.668,0.074l-0.242,0.274c0.057-0.14,0.046-0.296-0.023-0.424c0.644-0.501,1.061-1.216,1.17-2.029
		c0.105-0.787-0.099-1.57-0.555-2.175c0.417-0.063,0.822-0.13,1.221-0.225c2.192-0.519,3.429-2.368,3.076-4.604
		c-0.256-1.624-1.184-2.991-2.837-4.18c-2.457-1.765-5.34-2.458-8.546-2.054c-0.049,0.006-0.092,0.011-0.084,0.06
		c-0.001-0.001-0.021-0.031-0.049-0.132c-0.495-1.764-2.108-2.69-3.854-2.192c-0.468,0.134-0.876,0.385-1.272,0.629l-0.092,0.057
		c-0.042,0.003-0.084,0.008-0.126,0.012c-2.364-2.268-5.092-2.232-7.428,0.075c-1.043-0.665-1.802-0.953-2.49-0.953
		c-1.33,0-2.146,1.141-2.811,2.446c-0.059-0.004-0.118-0.009-0.176-0.014c-4.326-0.438-7.568,0.726-10.01,3.557
		c-1.11,1.287-1.544,2.793-1.256,4.354c0.273,1.476,1.316,2.47,3.101,2.957c0.398,0.108,0.795,0.168,1.183,0.218
		c-0.194,0.292-0.378,0.601-0.489,0.955c-0.379,1.219,0.05,2.418,1.067,3.226c-0.074,0.129-0.089,0.287-0.033,0.431l-0.241-0.273
		c-0.172-0.197-0.466-0.227-0.674-0.07l-0.18,0.135c-0.206,0.153-0.261,0.438-0.13,0.657l0.34,0.569l-0.583-0.505
		c-0.2-0.172-0.5-0.159-0.685,0.029l-0.174,0.178c-0.181,0.183-0.143,0.536,0.021,0.733l0.802,0.97l-1.018-0.768
		c-0.211-0.157-0.507-0.127-0.679,0.072l-0.14,0.161c-0.166,0.19-0.165,0.474,0.003,0.661l0.647,0.729
		c-0.296-0.021-0.604-0.041-0.936-0.058c-0.188,0-0.384,0.038-0.565,0.111c-0.24,0.094-0.425,0.029-0.555-0.214l-0.266-0.5
		c-0.375-0.709-0.764-1.441-1.188-2.145c-1.125-1.868-2.401-3.985-4.399-5.538c-0.083-0.064-0.238-0.185-0.265-0.239
		c-0.412-1.132-1.207-1.921-1.975-2.684l-0.253-0.252c-0.099-0.1-0.183-0.238-0.237-0.335l-0.517-0.901
		c-0.485-0.844-0.97-1.687-1.427-2.545l-0.419-0.793c-1.071-2.027-2.18-4.124-3.594-6.017c-0.963-1.29-1.913-2.085-3.08-2.578
		c-1.665-0.702-3.396-0.884-5.07-1.06c-1.733-0.183-3.462-0.398-5.192-0.614c-0.95-0.119-1.901-0.238-2.852-0.351
		c-0.494-0.06-0.853-0.302-1.163-0.788c-0.266-0.416-0.589-0.9-0.969-1.335c-0.198-0.229-0.43-0.392-0.654-0.55
		c-0.084-0.06-0.168-0.119-0.249-0.182c-0.207-0.162-0.545-0.084-0.721,0.106l-0.096,0.103c-0.115,0.124-0.161,0.296-0.121,0.46
		c0.417,1.711,1.067,3.404,2.993,4.197c1.811,0.747,3.65,1.423,5.049,1.929c3.012,1.086,5.341,1.311,7.867,0.72
		c0.192,0,0.514,0.133,0.767,0.316c1.287,0.936,2.385,2.237,3.454,4.094c1.658,2.882,3.262,5.758,4.748,8.436
		c0.747,1.348,1.482,2.7,2.218,4.054c0.624,1.147,1.248,2.295,1.878,3.438c0.825,1.496,1.675,2.977,2.525,4.458
		c0.124,0.215,0.264,0.41,0.421,0.586c-0.132-0.019-0.269-0.014-0.408-0.007l-0.144,0.005c-0.244,0-0.454,0.183-0.494,0.424
		l-0.035,0.204c-0.044,0.25,0.105,0.493,0.348,0.566l3.081,0.928l-0.034,0.09l-3.193-0.602c-0.26-0.05-0.516,0.114-0.578,0.373
		l-0.047,0.197c-0.051,0.214,0.044,0.437,0.234,0.548c0.693,0.405,1.446,0.589,2.175,0.766c0.291,0.071,0.571,0.14,0.845,0.22
		l-3.076-0.393c-0.269-0.035-0.512,0.147-0.557,0.412l-0.048,0.281c-0.045,0.26,0.12,0.51,0.376,0.571l3.004,0.717
		c-0.013,0.078-0.025,0.156-0.032,0.234c-0.01,0.104-0.027,0.136-0.052,0.104c-0.032,0-0.067-0.003-0.106-0.007
		c-0.715-0.077-1.439-0.098-2.139-0.117l-0.332-0.008c-0.205,0-0.41,0.019-0.615,0.037l-0.283,0.024
		c-0.255,0.018-0.461,0.373-0.471,0.628c-0.009,0.218,0.125,0.416,0.33,0.49c0.834,0.301,1.69,0.367,2.518,0.432
		c0.295,0.022,0.589,0.045,0.882,0.079c0,0.058,0.004,0.095,0.013,0.1c-0.065,0.031-0.33,0.062-0.562,0.087l-0.313,0.028
		c-0.173,0.015-0.346,0.028-0.516,0.054c-0.395,0.059-0.789,0.123-1.182,0.188l-0.464,0.077c-0.255,0.041-0.437,0.271-0.418,0.528
		l0.014,0.188c0.021,0.26,0.238,0.46,0.499,0.46h2.573c-0.104,0.169-0.277,0.277-0.517,0.324c-0.456,0.089-0.911,0.187-1.366,0.284
		l-0.553,0.118c-0.262,0.056-0.434,0.308-0.39,0.571l0.03,0.18c0.042,0.239,0.25,0.414,0.493,0.414h0.843l-5.562,7.405
		c-0.152-0.039-0.3-0.079-0.445-0.118c-0.549-0.147-1.068-0.287-1.603-0.372c-0.572-0.093-1.148-0.103-1.706-0.112l-0.318-0.006
		c-2.156-0.048-3.744-0.858-4.998-2.551c-1.841-2.483-3.914-5.078-6.338-7.933c-0.852-1.002-1.788-1.948-2.694-2.864
		c-0.651-0.658-1.303-1.317-1.928-2c-1.49-1.628-3.36-2.698-5.556-3.182c-0.514-0.113-1.028-0.23-1.542-0.347
		c-1.29-0.294-2.625-0.597-3.952-0.842C11.029,40.896,8.792,39.193,7.655,36.329z"/>
</g>
</svg>
