<?xml version="1.0" encoding="iso-8859-1"?>
<!-- Generator: Adobe Illustrator 17.1.0, SVG Export Plug-In . SVG Version: 6.00 Build 0)  -->
<!DOCTYPE svg PUBLIC "-//W3C//DTD SVG 1.1//EN" "http://www.w3.org/Graphics/SVG/1.1/DTD/svg11.dtd">
<svg version="1.1" id="Capa_1" xmlns="http://www.w3.org/2000/svg" xmlns:xlink="http://www.w3.org/1999/xlink" x="0px" y="0px"
	 viewBox="0 0 150 150" style="enable-background:new 0 0 150 150;" xml:space="preserve">
<g>
	<path d="M20.143,82.419c1.981,0.231,3.974,0.357,5.964,0.505c2.675,0.198,5.372,0.234,8.02,0.616
		c1.272,0.184,2.409,1.18,3.684,1.492c1.787,0.437,3.642,0.613,5.476,0.84c2.561,0.317,3.269,1.069,3.097,3.621
		c-0.356,5.301-1.208,10.518-2.822,15.594c-0.101,0.317-0.195,0.646-0.359,0.932c-1.238,2.162-1.136,4.57-1.425,6.936
		c-0.477,3.912,0.032,7.944-1.375,11.744c-0.057,0.155-0.154,0.357-0.101,0.481c0.75,1.761-0.384,3.293-0.607,4.929
		c-0.339,2.481-0.666,4.934-0.122,7.432c0.358,1.645,1.134,1.913,2.792,0.649c0.248,0.954,0.456,1.831,0.707,2.695
		c0.247,0.849,0.538,1.686,0.855,2.67c1.698-1.263,1.706-2.866,1.722-4.568c0.153,0.365,0.352,0.719,0.451,1.098
		c0.393,1.508,0.753,3.025,1.128,4.538c0.056,0.226,0.086,0.479,0.212,0.662c0.151,0.219,0.401,0.527,0.593,0.517
		c0.206-0.01,0.504-0.313,0.574-0.545c0.355-1.172,0.649-2.363,1.007-3.711c0.981,1.379,0.748,3.196,1.718,4.45
		c0.1-0.018,0.201-0.037,0.301-0.055c0.351-1.782,0.701-3.565,1.052-5.347c0.093-0.02,0.186-0.039,0.279-0.059
		c0.455,0.769,0.91,1.537,1.365,2.306c0.114-0.051,0.228-0.103,0.342-0.154c0.099-1.707,0.197-3.414,0.302-5.239
		c0.696,0.523,1.363,1.025,2.031,1.526c0.103-0.036,0.206-0.073,0.309-0.109c-0.076-0.475-0.153-0.95-0.2-1.244
		c0.292-0.449,0.68-0.8,0.759-1.211c0.29-1.498,0.251-1.505,1.742-1.092c0.125,0.034,0.258,0.039,0.469,0.07
		c0.357-0.757,0.904-1.447-0.21-1.964c0.324-0.783,0.649-1.385,1.54-1.609c0.364-0.091,0.802-0.67,0.836-1.06
		c0.032-0.362-0.429-0.767-0.72-1.226c0.708-0.714,1.053-2.177,2.661-1.602c-0.163-1.253-0.308-2.376-0.472-3.636
		c0.64-0.049,1.268-0.096,2.148-0.163c-0.387-0.485-0.635-0.796-0.934-1.171c0.774-0.88,0.811-1.844-0.074-2.809
		c0.596,0.055,1.099,0.175,1.588,0.131c1.357-0.12,1.497-0.464,0.598-1.756c0.57-0.222,1.123-0.381,1.614-0.653
		c0.24-0.133,0.535-0.498,0.505-0.718c-0.079-0.576,0.005-0.999,0.566-1.228c0.7-0.286,0.684-1.004,0.4-1.328
		c-0.747-0.855-0.351-1.195,0.414-1.409c0.033-0.132,0.059-0.175,0.047-0.195c-1.008-1.639,0.27-2.068,1.356-2.633
		c0.087-0.045,0.089-0.544-0.029-0.645c-0.53-0.452-0.349-0.793,0.09-1.127c0.51-0.388,0.674-0.768,0.392-1.451
		c-0.135-0.327,0.285-0.884,0.524-1.524c-0.167-0.436-0.927-1.062-0.098-1.875c0.101-0.099-0.058-0.462-0.098-0.709
		c0.386-0.051,0.731-0.096,1.11-0.146c-0.663-1.171-0.663-1.171,0.302-2.322c-0.142-0.164-0.273-0.353-0.441-0.5
		c-0.171-0.149-0.378-0.256-0.606-0.406c0.053-0.168,0.056-0.369,0.157-0.463c0.606-0.565,1.014-1.103,0.043-1.713
		c-0.11-0.069-0.217-0.372-0.167-0.428c0.582-0.664,0.227-1.079-0.281-1.57c-0.138-0.133-0.037-0.792,0.157-0.937
		c0.607-0.452,1.311-0.774,2.039-1.181c-0.304-0.383-0.705-0.888-1.28-1.612c1.066-0.181,1.948-0.332,2.909-0.495
		c-0.244-0.3-0.463-0.569-0.727-0.895c0.918-0.858,2.043-0.828,3.101-0.839c1.282-0.013,2.565,0.143,3.849,0.209
		c0.292,0.015,0.621,0.039,0.876-0.073c1.718-0.753,3.289,0.053,4.863,0.488c1.223,0.338,2.36,0.975,3.565,1.392
		c1.62,0.561,3.254,1.099,4.911,1.535c2.096,0.551,4.224,0.978,6.333,1.482c1.427,0.341,2.83,0.813,4.273,1.047
		c0.759,0.123,1.667,0.551,2.379-0.271c0.072-0.083,0.312-0.039,0.471-0.024c1.885,0.185,4.567-1.503,5.175-3.273
		c0.062-0.182,0.105-0.395,0.074-0.579c-0.202-1.203-0.209-1.202,0.634-2.181c-0.592-0.682-0.66-1.402-0.281-2.29
		c0.416-0.975-0.615-3.111-1.459-3.74c-0.327-0.244-0.54-0.887-0.504-1.324c0.101-1.228-0.315-2.135-1.489-2.551
		c-0.776-0.275-1.603-0.407-2.406-0.604c-0.917-0.225-1.848-0.68-2.748-0.627c-1.815,0.107-3.615,0.482-5.419,0.762
		c-4.964,0.77-9.956,1.398-14.878,2.381c-2.754,0.55-5.067-0.663-7.575-1.102c-0.168-0.029-0.385-0.167-0.454-0.313
		c-0.685-1.449-1.688-2.471-3.369-2.648c-0.121-0.013-0.234-0.101-0.355-0.156c0.312-0.505,0.607-0.984,1.006-1.629
		c-0.391-0.211-0.733-0.396-1.075-0.581c0.061-0.076,0.122-0.152,0.183-0.228c0.577,0,1.163,0.058,1.729-0.025
		c0.276-0.041,0.608-0.298,0.732-0.548c0.068-0.139-0.182-0.562-0.391-0.688c-0.926-0.561-1.888-1.061-2.979-1.66
		c0.199-0.203,0.427-0.485,0.704-0.707c0.361-0.29,0.795-0.493,1.136-0.801c0.897-0.811,0.884-0.826-0.082-1.522
		c-0.485-0.349-0.524-1.878-0.034-2.338c0.386-0.362,0.689-0.616,0.591-1.313c-0.058-0.408,0.688-0.931,1.173-1.526
		c-0.424-0.762-0.354-1.574,0.541-2.274c0.155-0.121,0.101-0.791-0.086-1.013c-0.445-0.53-0.448-0.943,0.062-1.361
		c0.614-0.504,0.464-0.953,0.08-1.55c-0.183-0.284-0.164-0.92,0.039-1.191c0.784-1.044,0.858-1.223-0.194-1.962
		c-0.763-0.536-0.862-0.917-0.101-1.492c0.125-0.095,0.189-0.533,0.116-0.588c-0.991-0.732-0.28-1.303,0.145-1.906
		c0.056-0.079,0.091-0.174,0.15-0.291c-0.679-0.857-1.433-1.675-2.004-2.606c-0.187-0.304,0.103-0.9,0.204-1.556
		c-0.108-0.055-0.429-0.188-0.718-0.373c-0.265-0.17-0.72-0.436-0.692-0.587c0.056-0.309,0.336-0.623,0.602-0.84
		c0.557-0.454,1.164-0.846,1.588-1.147c-0.442-0.651-0.741-1.233-1.175-1.686c-0.32-0.334-0.814-0.501-1.282-0.772
		c0.297-1.171,0.438-2.332-0.426-3.446c-0.429-0.552,0.096-0.913,0.619-1.201c0.383-0.212,0.835-0.544,0.958-0.921
		c0.192-0.584-0.352-0.69-0.824-0.851c-0.264-0.09-0.466-0.484-0.606-0.783c-0.168-0.357-0.24-0.759-0.393-1.277
		c0.12-0.078,0.391-0.238,0.643-0.423c0.827-0.606,0.828-1.163,0.014-1.758c-0.605-0.443-0.766-1.41-0.345-2.065
		c0.141-0.219,0.276-0.442,0.409-0.656c-0.759-0.393-1.815-0.601-2.094-1.182c-0.271-0.564,0.254-1.511,0.456-2.406
		c-1.874-0.38-1.334-1.874-1.269-3.402c-0.966,0.14-1.846,0.268-2.637,0.382c0.276-1.582,0.557-3.188,0.837-4.794
		c-0.064-0.083-0.128-0.167-0.192-0.25c-0.624,0.445-1.247,0.891-2.111,1.507c0.075-1.27,0.095-2.373,0.216-3.466
		c0.12-1.08,0.342-2.149,0.512-3.176c-1.924,1.717-3.088,4.214-4.823,6.329c0.946-3.437,2.725-6.748,1.642-10.452
		c-0.128-0.05-0.256-0.099-0.384-0.149c-1.77,3.659-3.54,7.317-5.31,10.976c-0.069-0.03-0.138-0.06-0.207-0.09
		c0.519-1.511,1.039-3.022,1.634-4.754c-0.738,0.231-1.019,0.181-1.501,0.332c1.077-1.147,2.033-2.043,2.113-3.721
		c0.072-1.513,0.015-3.032-0.17-4.6c-2.153,3.417-3.056,7.345-4.658,11.238c0.139-1.97,0.262-3.675,0.36-5.381
		c0.002-0.037-0.284-0.091-0.253-0.082c0.101-1.169,0.198-2.29,0.294-3.411c-0.134-0.043-0.267-0.086-0.401-0.129
		c-0.327,0.643-0.761,1.255-0.961,1.936c-0.748,2.554-1.517,5.11-2.091,7.706c-0.516,2.335-0.765,4.728-1.179,7.087
		c-0.172,0.979-0.596,1.926-0.685,2.907c-0.209,2.315-0.234,4.647-0.436,6.963c-0.109,1.245-0.426,2.472-0.652,3.707
		c-0.572,3.131-1.195,6.254-1.683,9.399c-0.122,0.785,0.252,1.635,0.297,2.46c0.267,4.873,0.036,9.727-0.65,14.558
		c-0.365,2.572-0.569,5.184-1.175,7.699c-0.837,3.473-2.546,6.452-6.056,7.95c-0.568,0.242-1.222,0.362-1.843,0.39
		c-3.458,0.151-6.919,0.353-10.378,0.346c-2.659-0.005-5.316-0.33-7.977-0.443c-1.845-0.079-3.651-0.19-5.327,1.086
		c-0.749,0.571-2.021,0.53-3.069,0.616c-1.675,0.138-3.361,0.151-5.042,0.217c-0.002,0.119-0.004,0.238-0.007,0.357
		c1.366,0.076,2.74,0.084,4.095,0.244C15.229,81.71,17.678,82.132,20.143,82.419z"/>
</g>
</svg>
