<?xml version="1.0" encoding="iso-8859-1"?>
<!-- Generator: Adobe Illustrator 17.1.0, SVG Export Plug-In . SVG Version: 6.00 Build 0)  -->
<!DOCTYPE svg PUBLIC "-//W3C//DTD SVG 1.1//EN" "http://www.w3.org/Graphics/SVG/1.1/DTD/svg11.dtd">
<svg version="1.1" id="Capa_1" xmlns="http://www.w3.org/2000/svg" xmlns:xlink="http://www.w3.org/1999/xlink" x="0px" y="0px"
	 viewBox="0 0 150 150" style="enable-background:new 0 0 150 150;" xml:space="preserve">
<g>
	<path d="M23.012,6.357c0.568,0.368,0.919,0.781,0.838,1.56c-0.04,0.38,0.227,0.942,0.54,1.187c2.861,2.242,4.769,5.394,7.478,7.779
		c0.542,0.477,0.992,1.056,0.661,1.904c-0.077,0.197,0.052,0.505,0.153,0.732c0.14,0.314,0.312,0.624,0.523,0.895
		c1.284,1.653,2.6,3.281,3.869,4.944c0.573,0.751,1.021,1.598,1.602,2.343c0.725,0.93,1.555,1.776,2.292,2.698
		c1.13,1.414,2.187,2.887,3.335,4.286c1.087,1.325,2.378,2.5,3.341,3.905c0.715,1.043,1.586,2.116,1.539,3.545
		c-0.013,0.397,0.012,0.847,0.186,1.188c0.497,0.975,0.5,2.046,0.751,3.062c0.288,1.17,0.486,2.309,0.34,3.494
		c-0.181,1.476,0.722,2.633,1.11,3.94c0.114,0.385,0.324,0.75,0.386,1.14c0.361,2.276,1.176,4.388,2.232,6.42
		c0.979,1.884,1.887,3.81,2.947,5.647c0.55,0.953,1.409,1.721,2.042,2.632c0.752,1.084,1.495,2.191,2.077,3.369
		c0.294,0.595,0.308,1.371,0.297,2.062c-0.012,0.77-0.191,1.537-0.304,2.305c-0.138,0.938-0.13,1.935-0.474,2.79
		c-0.238,0.593-0.906,1.076-1.481,1.46c-3.667,2.443-7.38,4.818-11.041,7.271c-1.747,1.17-3.419,2.454-5.113,3.703
		c-0.298,0.22-0.644,0.475-0.781,0.794c-0.74,1.727-2.378,2.53-3.683,3.67c-1.281,1.118-2.617,2.176-3.896,3.297
		c-0.461,0.405-1.092,0.915-0.504,1.591c0.607,0.697,1.227,0.141,1.745-0.248c2.238-1.68,4.425-3.428,6.693-5.065
		c1.751-1.264,3.608-2.38,5.394-3.596c1.262-0.859,2.403-1.941,3.754-2.607c0.942-0.464,2.162-0.582,3.233-0.505
		c1.126,0.081,1.56,2.046,0.83,3.279c-1.903,3.215-4.164,6.158-6.787,8.816c-1.801,1.825-3.642,3.612-5.465,5.415
		c-0.062,0.061-0.125,0.12-0.184,0.183c-0.442,0.475-0.793,1.042-0.313,1.613c0.467,0.555,1.087,0.284,1.545-0.098
		c1.305-1.088,2.602-2.187,3.852-3.337c3.013-2.774,6.063-5.513,8.973-8.391c2.684-2.654,5.209-5.47,7.798-8.22
		c0.474-0.503,0.872-1.089,1.396-1.531c0.334-0.282,0.834-0.518,1.259-0.516c1.586,0.006,3.177,0.064,4.755,0.214
		c0.728,0.069,1.453,0.345,2.136,0.63c0.315,0.132,0.674,0.47,0.762,0.785c0.547,1.954,2.224,3.178,3.094,4.91
		c0.807,1.608,2.294,2.447,3.683,3.411c0.258,0.18,0.579,0.366,0.701,0.628c0.43,0.924,1.244,1.297,2.095,1.693
		c0.879,0.409,1.707,0.929,2.56,1.393c1.29,0.702,2.588,1.389,3.874,2.098c2.039,1.123,4.003,2.412,6.128,3.336
		c1.41,0.614,2.343,1.706,3.505,2.56c0.18,0.133,0.328,0.326,0.451,0.517c1.139,1.761,2.231,3.553,3.413,5.285
		c1.021,1.495,2.163,2.907,3.207,4.387c0.429,0.608,0.693,1.334,1.122,1.942c0.444,0.629,1.011,1.17,1.498,1.771
		c0.251,0.31,0.43,0.676,0.667,0.998c0.695,0.944,1.411,1.872,2.1,2.819c0.353,0.485,0.661,1.003,0.999,1.5
		c0.485,0.711,0.934,1.456,1.492,2.106c0.243,0.284,0.726,0.353,1.083,0.551c0.352,0.195,0.812,0.351,1,0.66
		c1.335,2.189,2.648,4.393,3.893,6.634c0.684,1.23,1.168,2.571,1.856,3.798c0.249,0.444,0.845,0.686,1.255,1.051
		c0.301,0.268,0.617,0.55,0.819,0.889c0.247,0.415,0.328,0.93,0.58,1.341c0.343,0.56,0.776,0.525,0.981-0.09
		c0.227-0.68,0.469-1.402,0.462-2.104c-0.032-3.35-0.355-6.673-1.13-9.944c-0.258-1.089-0.394-2.207-0.656-3.294
		c-0.358-1.479-0.741-2.955-1.188-4.409c-0.971-3.16-1.983-6.309-2.991-9.457c-0.528-1.647-1.105-3.279-1.623-4.929
		c-0.438-1.398-0.696-2.865-1.26-4.207c-0.788-1.875-1.83-3.641-2.681-5.492c-0.839-1.825-1.575-3.698-2.357-5.549
		c-1.001-2.369-2.212-4.599-4.657-5.764c-0.946-0.451-2.019-0.645-3.042-0.924c-4.254-1.159-8.401-2.586-12.481-4.291
		c-3.009-1.257-4.319-3.54-5.151-6.365c-0.39-1.323-0.768-2.657-1.03-4.009c-0.402-2.083,0.552-3.916,1.336-5.725
		c0.997-2.297,2.482-4.239,4.632-5.647c1.585-1.037,3.079-2.212,4.641-3.346c-2.575-0.387-4.458,1.258-6.664,1.838
		c-0.853,0.225-1.654,0.44-2.603,0.284c-1.774-0.292-3.387,0.525-4.97,1.204c-0.053,0.023-0.095,0.047-0.13,0.073
		c-1.229-0.464-2.607-0.442-3.852,0.003c0.016-0.029,0.033-0.062,0.056-0.101c-0.899-0.367-1.796-0.692-2.658-1.092
		c-2.669-1.239-4.981-2.997-7.078-5.035c-1.301-1.265-1.615-2.969-1.755-4.675c-0.32-3.907-0.592-7.819-0.838-11.731
		c-0.068-1.089-0.023-2.19,0.052-3.28c0.08-1.171-0.408-2.143-0.972-3.081c-0.946-1.574-2.261-2.796-3.705-3.932
		c-1.624-1.278-3.177-2.663-4.641-4.122c-1.929-1.923-3.986-3.627-6.318-5.065c-2.618-1.615-5.067-3.502-7.615-5.234
		c-1.737-1.181-3.503-2.319-5.281-3.437c-1.482-0.932-2.988-1.829-4.504-2.705C31.358,7.3,27.459,5.645,23.303,4.621
		C23.136,4.58,22.942,4.5,22.798,4.548c-0.335,0.114-0.647,0.295-0.969,0.449c0.139,0.266,0.236,0.57,0.429,0.789
		C22.462,6.019,22.747,6.185,23.012,6.357z"/>
</g>
</svg>
