<?xml version="1.0" encoding="iso-8859-1"?>
<!-- Generator: Adobe Illustrator 17.1.0, SVG Export Plug-In . SVG Version: 6.00 Build 0)  -->
<!DOCTYPE svg PUBLIC "-//W3C//DTD SVG 1.1//EN" "http://www.w3.org/Graphics/SVG/1.1/DTD/svg11.dtd">
<svg version="1.1" id="Capa_1" xmlns="http://www.w3.org/2000/svg" xmlns:xlink="http://www.w3.org/1999/xlink" x="0px" y="0px"
	 viewBox="0 0 150 150" style="enable-background:new 0 0 150 150;" xml:space="preserve">
<g>
	<path d="M8.479,96.484c0.213,0.369,0.267,0.829,0.401,1.245c0.262,0.814,0.444,1.669,0.819,2.428
		c0.434,0.88,0.845,1.788,1.596,2.498c0.592,0.56,1.043,1.268,1.597,1.873c0.732,0.8,1.496,1.571,2.268,2.332
		c0.105,0.104,0.338,0.105,0.512,0.108c0.586,0.011,1.175-0.028,1.76,0.006c0.784,0.047,1.548,0.019,2.352,0.244
		c0.85,0.238,1.842,0.267,2.776-0.12c0.458-0.19,1.041-0.151,1.558-0.108c1.055,0.089,2.125,0.164,3.148,0.41
		c0.789,0.19,1.509,0.655,2.277,0.953c0.495,0.192,1.028,0.286,1.533,0.455c0.552,0.185,1.089,0.412,1.636,0.611
		c0.414,0.15,0.829,0.296,1.25,0.421c0.531,0.157,1.082,0.255,1.599,0.447c0.371,0.138,0.697,0.394,1.049,0.586
		c0.276,0.151,0.551,0.308,0.843,0.421c0.424,0.163,0.873,0.262,1.291,0.438c0.406,0.171,0.781,0.412,1.176,0.609
		c0.3,0.149,0.613,0.274,0.917,0.416c0.783,0.365,1.556,0.755,2.351,1.093c0.688,0.292,1.407,0.508,2.098,0.792
		c0.43,0.177,0.824,0.437,1.25,0.627c0.38,0.169,0.802,0.252,1.168,0.444c0.571,0.301,1.097,0.686,1.666,0.99
		c0.378,0.202,0.795,0.335,1.202,0.478c0.254,0.089,0.522,0.137,0.786,0.204c0.235-0.061,0.494-0.155,0.76-0.192
		c0.718-0.101,0.908-0.507,0.562-1.138c-0.412-0.75-0.738-1.55-1.185-2.277c-0.279-0.453-0.714-0.809-1.075-1.212
		c-0.116-0.129-0.22-0.268-0.329-0.402c0.242-0.144,0.469-0.361,0.729-0.414c0.391-0.081,0.81-0.015,1.209-0.069
		c0.507-0.068,1.01-0.293,1.508-0.273c0.848,0.035,1.714,0.122,2.525,0.354c0.594,0.17,1.105,0.62,1.666,0.923
		c0.637,0.344,1.332,0.727,2.039,0.422c0.721-0.312,1.227-0.912,1.237-1.787c0.001-0.081,0.015-0.161,0.033-0.34
		c1.009,0.123,2.049-0.286,3.032,0.295c0.109,0.065,0.277,0.039,0.418,0.042c0.931,0.017,1.864-0.005,2.792,0.053
		c1.572,0.098,3.144,0.227,4.711,0.382c0.624,0.062,1.28,0.129,1.845,0.37c0.866,0.37,1.825,0.568,2.549,1.265
		c0.17,0.163,0.611,0.2,0.851,0.104c0.514-0.205,1.078-0.448,1.426-0.846c0.21-0.24,0.225-0.927,0.029-1.193
		c-0.621-0.845-1.434-1.458-2.558-1.609c-0.46-0.062-0.872-0.437-1.323-0.63c-0.373-0.16-0.762-0.299-1.157-0.383
		c-0.749-0.159-1.512-0.25-2.26-0.409c-0.945-0.201-1.881-0.443-2.822-0.667c-0.039-0.009-0.079-0.016-0.119-0.021
		c-1.056-0.135-2.111-0.281-3.169-0.4c-1.285-0.144-2.6-0.146-3.855-0.421c-2.439-0.534-4.893-0.145-7.334-0.292
		c-0.484-0.029-0.974,0.018-1.456-0.03c-1.086-0.107-2.181-0.189-3.248-0.4c-0.725-0.144-1.409-0.49-2.137-0.755
		c-0.43-0.846,0.333-1.241,0.77-1.712c0.858-0.925,1.861-1.725,2.657-2.696c0.538-0.656,0.848-1.507,1.217-2.291
		c0.197-0.418,0.976-0.661,1.428-0.383c0.114,0.07,0.221,0.176,0.345,0.201c0.728,0.152,1.484,0.213,2.184,0.446
		c0.659,0.22,1.264,0.606,1.886,0.934c0.521,0.275,1.034,0.563,1.543,0.859c0.473,0.275,0.926,0.585,1.406,0.847
		c0.5,0.273,0.987,0.514,1.588,0.623c2.348,0.423,4.706,0.393,7.066,0.301c1.282-0.05,2.6-0.088,3.822-0.421
		c0.776-0.211,1.531-0.158,2.281-0.301c0.938-0.179,1.863-0.428,2.794-0.645c0.078-0.018,0.161-0.018,0.24-0.031
		c0.852-0.14,1.714-0.238,2.553-0.435c0.566-0.133,1.093-0.426,1.649-0.613c0.493-0.166,1.012-0.259,1.503-0.43
		c0.546-0.19,1.073-0.433,1.61-0.651c0.351-0.142,0.7-0.287,1.055-0.42c0.706-0.264,1.483-0.416,2.1-0.816
		c0.43-0.279,1.049-0.356,1.293-0.98c0.084-0.215,0.573-0.385,0.869-0.373c0.286,0.012,0.625,0.227,0.831,0.452
		c0.527,0.58,0.952,1.254,1.491,1.821c0.856,0.899,1.645,1.867,2.759,2.504c0.606,0.347,1.115,0.863,1.672,1.298
		c0.044,0.034,0.112,0.041,0.171,0.052c0.646,0.122,1.293,0.243,1.939,0.364c0.025,0.073,0.05,0.145,0.075,0.218
		c-0.219,0.174-0.419,0.385-0.662,0.511c-0.297,0.155-0.624,0.263-0.95,0.348c-0.595,0.156-1.203,0.26-1.796,0.422
		c-0.734,0.201-1.458,0.441-2.188,0.66c-0.076,0.023-0.16,0.019-0.239,0.033c-0.731,0.132-1.468,0.244-2.191,0.411
		c-0.265,0.061-0.548,0.209-0.738,0.401c-0.488,0.493-1.056,0.67-1.738,0.711c-0.99,0.059-1.982,0.171-2.955,0.356
		c-0.44,0.084-0.829,0.417-1.255,0.605c-0.386,0.17-0.783,0.327-1.19,0.432c-0.936,0.242-1.644,0.826-2.286,1.497
		c-0.118,0.124-0.069,0.408-0.103,0.666c1.043,0,2.075,0.182,2.999-0.057c0.751-0.194,1.52-0.094,2.218-0.322
		c1.778-0.581,3.581-0.348,5.373-0.27c0.635,0.028,1.252,0.408,1.881,0.617c0.434,0.144,0.865,0.318,1.312,0.396
		c1.204,0.209,2.389,0.587,3.638,0.45c0.321-0.035,0.647-0.028,0.97-0.031c0.652-0.006,1.18-0.285,1.7-0.66
		c0.616-0.445,1.298-0.799,1.929-1.225c0.363-0.245,0.661-0.586,1.029-0.82c0.149-0.095,0.409-0.034,0.615-0.015
		c0.106,0.01,0.203,0.095,0.31,0.13c0.828,0.27,1.727,0.415,2.468,0.836c0.819,0.466,1.625,0.755,2.535,0.604
		c0.47-0.078,0.913-0.333,1.362-0.523c0.578-0.244,1.101-0.697,1.794-0.497c0.272,0.078,0.53,0.294,0.793,0.291
		c0.348-0.003,0.69-0.208,1.042-0.239c0.539-0.047,1.089-0.059,1.627-0.011c0.542,0.048,1.082,0.293,1.613,0.266
		c1.346-0.07,2.762-0.024,4.005-0.449c0.981-0.336,1.729,0.096,2.577,0.127c1.119,0.041,2.278,0.098,3.333,0.426
		c1.026,0.319,2.101,0.577,3.025,1.262c0.735,0.544,1.658,0.833,2.496,1.241c0.699,0.341,1.384,0.711,2.094,1.028
		c0.646,0.289,1.361,0.448,1.965,0.802c0.818,0.48,1.574,1.073,2.327,1.655c0.34,0.263,0.951,0.182,1.112-0.211
		c0.074-0.182,0.18-0.351,0.238-0.461c-0.087-0.36-0.152-0.678-0.242-0.989c-0.222-0.766-0.72-1.338-1.347-1.794
		c-0.772-0.56-1.561-1.098-2.353-1.628c-0.513-0.343-1.032-0.682-1.573-0.978c-0.739-0.403-1.502-0.761-2.254-1.14
		c-0.709-0.357-1.445-0.672-2.118-1.087c-0.727-0.449-1.396-0.992-2.091-1.495c0.001-0.005,0.003-0.01,0.004-0.015
		c0.14-0.107,0.282-0.214,0.425-0.322c0.493-0.1,0.991-0.188,1.464-0.347c0.887-0.299,1.849-0.43,2.574-1.133
		c0.28-0.271,0.665-0.435,1.009-0.636c0.14-0.082,0.294-0.207,0.438-0.281c1.332,0.083,2.562,0.799,3.406,1.837
		c0.32,0.393,0.901,0.437,1.351,0.243c0.064-0.009,0.129-0.019,0.192-0.027c0.022-0.042,0.044-0.083,0.067-0.123
		c0.038-0.029,0.074-0.059,0.107-0.092c0.29-0.29,0.383-0.644,0.332-0.991c0.031-0.891-0.813-1.898-1.694-1.988
		c-1.359-0.951-3.057-1.417-4.713-1.243c-1.592,0.167-3.005,0.839-4.323,1.686c-0.105,0.046-0.209,0.092-0.315,0.137
		c-0.126,0.054-0.271,0.079-0.408,0.087c-0.323,0.019-0.649-0.001-0.97,0.03c-1.248,0.118-2.522,0.13-3.736,0.407
		c-1.543,0.352-2.562-0.403-3.513-1.358c-0.628-0.63-1.144-1.372-1.709-2.064c-0.025-0.031-0.055-0.063-0.064-0.1
		c-0.138-0.545-0.269-1.091-0.409-1.635c-0.229-0.892-0.455-1.786-0.696-2.674c-0.113-0.417-0.217-0.845-0.402-1.231
		c-0.268-0.556-0.573-1.101-0.922-1.609c-0.378-0.551-0.796-1.082-1.251-1.571c-0.495-0.532-0.99-1.046-1.708-1.349
		c-0.864-0.365-1.639-0.932-2.48-1.358c-0.407-0.207-0.892-0.258-1.314-0.443c-0.639-0.279-1.256-0.611-1.879-0.926
		c-0.301-0.152-0.602-0.306-0.89-0.48c-0.548-0.331-1.063-0.724-1.636-1c-0.427-0.205-0.856-0.363-1.116-0.786
		c-0.13-0.211-0.256-0.425-0.352-0.584c0.62-0.343,1.097-0.621,1.587-0.872c0.3-0.153,0.641-0.231,0.928-0.402
		c0.661-0.395,1.344-0.774,1.938-1.257c0.937-0.761,1.844-1.568,2.696-2.422c0.609-0.611,1.179-1.289,1.638-2.017
		c0.577-0.917,1.004-1.927,1.533-2.877c0.463-0.831,0.865-1.669,1.074-2.612c0.161-0.724,0.434-1.435,0.746-2.11
		c0.442-0.955,1.158-1.717,1.927-2.43c0.659-0.612,1.383-1.183,1.913-1.895c0.515-0.692,0.842-1.53,1.211-2.323
		c0.645-1.386,1.407-2.697,2.619-3.652c0.5-0.394,1.168-0.571,1.75-0.864c0.621-0.312,1.234-0.64,1.846-0.97
		c0.499-0.269,0.997-0.539,1.483-0.829c0.499-0.297,0.979-0.624,1.475-0.926c0.299-0.182,0.608-0.348,0.92-0.507
		c1.005-0.516,1.922-1.157,2.685-1.99c0.634-0.693,1.198-1.451,1.845-2.13c0.479-0.502,1.085-0.884,1.559-1.39
		c0.606-0.647,1.159-1.349,1.325-2.269c0.093-0.514,0.274-1.019,0.314-1.536c0.061-0.786-0.338-1.452-0.625-2.162
		c-0.293-0.727-0.717-1.409-1.274-1.804c-0.94-0.665-1.613-1.637-2.721-2.127c-0.685-0.303-1.304-0.68-2.079-0.684
		c-0.19-0.001-0.376-0.114-0.57-0.144c-0.308-0.048-0.65-0.169-0.925-0.086c-0.295,0.089-0.591,0.158-0.887,0.21
		c-1.41-0.209-2.835-0.297-4.263-0.273c-0.296-0.249-0.573-0.633-0.827-0.927c-0.747-0.865-1.278-1.95-2.29-2.541
		c-0.806-0.471-1.512-1.128-2.475-1.344c-0.568-0.128-1.087-0.507-1.655-0.59c-0.642-0.094-1.349-0.309-1.961,0.183
		c-0.056,0.045-0.147,0.059-0.223,0.062c-1.009,0.04-1.72,0.636-2.381,1.299c-0.541,0.544-1.061,1.112-1.558,1.696
		c-0.227,0.266-0.384,0.593-0.562,0.899c-0.462,0.799-0.932,1.594-1.374,2.404c-0.596,1.095-1.674,1.177-2.726,1.392
		c-2.125,0.434-4.283,0.203-6.411,0.412c-0.78,0.077-1.591,0.387-2.298,0.883c-0.549,0.384-1.198,0.647-1.833,0.879
		c-0.75,0.273-1.534,0.454-2.304,0.674c-0.038,0.011-0.08,0.009-0.12,0.014c-1.16,0.138-2.327,0.234-3.476,0.43
		c-0.751,0.128-1.477,0.403-2.214,0.612c-0.039,0.011-0.075,0.029-0.115,0.036c-0.751,0.141-1.535,0.188-2.245,0.443
		c-0.993,0.356-2.052,0.163-3.005,0.441c-0.785,0.229-1.538,0.21-2.306,0.235c-1.213,0.04-2.43,0.066-3.642,0.011
		c-2.022-0.092-4.063-0.117-6.051-0.443c-0.972-0.159-1.984-0.056-2.891-0.346c-1.473-0.472-2.956-0.182-4.425-0.335
		c-0.946-0.098-1.894-0.274-2.838-0.255c-1.13,0.022-2.29,0.088-3.37,0.382c-0.621,0.169-1.237,0.186-1.841,0.328
		c-0.991,0.234-1.821,0.768-2.483,1.557c-0.941,1.12-1.857,2.264-2.85,3.337c-0.728,0.788-1.531,1.516-2.357,2.204
		c-0.7,0.584-1.48,1.073-2.226,1.602c-0.414,0.293-0.832,0.579-1.248,0.869c-0.593,0.156-1.146,0.464-1.583,0.937
		c-2.331,2.516-4.663,5.036-7.13,7.42c-1.229,1.188-2.487,2.349-3.794,3.451c-0.326,0.275-0.654,0.548-0.986,0.816
		c-0.006,0.005-0.014,0.011-0.021,0.017c-0.157,0.042-0.294,0.128-0.396,0.311c-0.197,0.154-0.384,0.3-0.384,0.303
		c-0.216,0.163-0.433,0.324-0.651,0.484c-0.75,0.266-1.366,0.721-1.88,1.292c-1.24,0.798-2.528,1.534-3.787,2.31
		c-0.207,0.016-0.413,0.088-0.616,0.247c-0.059,0.046-0.143,0.067-0.219,0.083c-0.665,0.143-1.341,0.246-1.993,0.433
		c-0.521,0.149-1.012,0.401-1.519,0.604c-0.366,0.147-0.746,0.263-1.1,0.435c-1.016,0.493-2.045,0.966-3.022,1.528
		c-0.742,0.427-1.492,0.898-2.089,1.499c-0.538,0.541-0.897,1.27-1.287,1.944c-0.261,0.452-0.439,0.952-0.649,1.433
		c-0.04,0.091-0.074,0.195-0.071,0.291c0.033,1.055-0.662,1.729-1.246,2.48c-0.493,0.633-0.964,1.3-1.331,2.011
		c-0.433,0.839-0.735,1.745-1.11,2.616c-0.335,0.779-0.757,1.527-1.014,2.329c-0.155,0.483-0.042,1.045-0.092,1.568
		c-0.079,0.806-0.359,1.632-0.25,2.407C8.013,94.758,8.011,95.675,8.479,96.484z M90.752,95.321c0.061-0.038,0.122-0.074,0.18-0.115
		c0,0,0.001,0.001,0.001,0.001c-0.047,0.078-0.094,0.155-0.141,0.232c-0.034-0.014-0.07-0.026-0.106-0.038
		C90.708,95.375,90.731,95.349,90.752,95.321z"/>
</g>
</svg>
