<?xml version="1.0" encoding="iso-8859-1"?>
<!-- Generator: Adobe Illustrator 17.1.0, SVG Export Plug-In . SVG Version: 6.00 Build 0)  -->
<!DOCTYPE svg PUBLIC "-//W3C//DTD SVG 1.1//EN" "http://www.w3.org/Graphics/SVG/1.1/DTD/svg11.dtd">
<svg version="1.1" id="Capa_1" xmlns="http://www.w3.org/2000/svg" xmlns:xlink="http://www.w3.org/1999/xlink" x="0px" y="0px"
	 viewBox="0 0 150 150" style="enable-background:new 0 0 150 150;" xml:space="preserve">
<g>
	<path d="M149.013,25.95c-1.48-2.049-3.516-3.087-6.05-3.087c-1.4,0-2.625,0.326-3.282,0.501l-0.139,0.037
		c-0.108,0.028-0.341,0.027-0.461-0.003c-0.174-0.043-0.354-0.087-0.555-0.14c-0.19-0.05-0.492-0.076-0.677-0.056
		c-3.182,0.33-5.206,1.381-6.415,2.01l-0.285,0.147c-0.086,0.044-0.274,0.071-0.402,0.047c-0.22-0.04-0.664-0.109-1.189-0.122
		c-0.692,0-4.972,1.846-6.434,2.659c-0.084,0.047-0.271,0.083-0.437,0.085c-0.104,0.001-0.194,0.015-0.274,0.031
		c-0.279,0.057-0.488,0.115-0.621,0.172c-0.836,0.356-2.674,1.302-3.548,1.858c-0.12,0.076-0.336,0.171-0.472,0.208
		c-0.888,0.238-1.732,0.69-2.51,1.343c-0.092,0.077-0.283,0.163-0.401,0.182c-1.138,0.177-1.938,0.541-2.521,0.807
		c-0.163,0.074-0.307,0.14-0.435,0.189c-0.64,0.251-1.349,1.109-1.666,1.576c-0.054,0.079-0.204,0.179-0.32,0.214
		c-0.556,0.168-1.271,0.625-1.897,1.04c-0.101,0.067-0.312,0.137-0.456,0.166c-0.215,0.042-0.456,0.117-0.718,0.222
		c-0.213,0.086-0.509,0.268-0.565,0.303c-0.282,0.176-0.653,0.388-1.059,0.619c-0.939,0.536-2.004,1.143-2.682,1.697
		c-0.126,0.104-0.327,0.251-0.451,0.323l-0.134,0.077c-1.462,0.837-2.973,1.703-4.026,2.556c-0.112,0.091-0.32,0.225-0.456,0.292
		c-0.822,0.413-1.56,0.99-2,1.334c-0.154,0.121-0.276,0.217-0.364,0.275c-0.54,0.38-0.854,0.747-1.157,1.101
		c-0.459,0.536-0.893,1.042-2.109,1.66c-0.152,0.078-0.398,0.227-0.547,0.342l-2.582,2.003l-0.437,0.374
		c-1.266,1.079-2.102,1.792-2.815,2.832c-0.081,0.119-0.241,0.313-0.35,0.414l-2.3,2.145c-0.109,0.103-0.297,0.249-0.445,0.366
		c-0.722,0.565-1.472,1.501-2.134,2.327c-0.298,0.371-0.573,0.715-0.812,0.98c-0.122,0.137-0.296,0.354-0.392,0.504l-0.581,0.914
		l-0.378,0.494c-0.107,0.14-0.262,0.387-0.336,0.571c-0.419,1.031-0.809,2.742-0.923,3.31c-0.013,0.059-0.04,0.157-0.073,0.281
		c-0.038,0.14-0.085,0.311-0.132,0.498c-0.022,0.086-0.125,0.207-0.212,0.249c-0.538,0.256-0.999,0.585-1.291,0.816
		c-0.044,0.033-0.139,0.041-0.171,0.016c-0.339-0.254-0.798-0.578-1.332-0.833c-0.085-0.04-0.189-0.163-0.211-0.247
		c-0.047-0.188-0.094-0.359-0.132-0.499c-0.033-0.125-0.061-0.222-0.072-0.276c-0.115-0.572-0.505-2.284-0.924-3.314
		c-0.074-0.184-0.229-0.432-0.336-0.571l-0.365-0.476l-0.594-0.931c-0.096-0.151-0.27-0.368-0.393-0.505
		c-0.238-0.266-0.514-0.609-0.812-0.98c-0.662-0.826-1.412-1.761-2.151-2.341c-0.126-0.099-0.316-0.248-0.428-0.353l-2.301-2.144
		c-0.107-0.101-0.268-0.295-0.349-0.414c-0.714-1.04-1.55-1.753-2.815-2.832l-3.019-2.377c-0.148-0.115-0.395-0.264-0.547-0.342
		c-1.217-0.617-1.65-1.124-2.109-1.66c-0.303-0.354-0.617-0.721-1.163-1.105c-0.082-0.054-0.204-0.15-0.358-0.271
		c-0.44-0.345-1.178-0.921-2.001-1.335c-0.133-0.067-0.342-0.2-0.454-0.291c-1.052-0.852-2.56-1.716-4.019-2.553l-0.144-0.083
		c-0.123-0.07-0.323-0.218-0.45-0.322c-0.678-0.554-1.742-1.162-2.682-1.697c-0.406-0.231-0.777-0.443-1.06-0.619
		c-0.123-0.078-0.382-0.229-0.564-0.304c-0.26-0.105-0.501-0.179-0.716-0.222c-0.145-0.028-0.355-0.098-0.458-0.165
		c-0.625-0.415-1.339-0.871-1.896-1.04c-0.118-0.036-0.269-0.136-0.321-0.214c-0.318-0.468-1.027-1.326-1.668-1.578
		c-0.127-0.049-0.271-0.115-0.434-0.189c-0.583-0.266-1.383-0.63-2.521-0.807c-0.118-0.019-0.31-0.105-0.4-0.181
		c-0.776-0.652-1.621-1.104-2.511-1.344c-0.137-0.037-0.354-0.131-0.472-0.207c-0.875-0.557-2.712-1.503-3.547-1.858
		c-0.134-0.057-0.343-0.115-0.621-0.171c-0.079-0.017-0.169-0.03-0.275-0.031c-0.165-0.002-0.353-0.039-0.438-0.085
		c-1.461-0.813-5.74-2.659-6.443-2.659c-0.515,0.012-0.959,0.082-1.18,0.122c-0.121,0.021-0.315-0.003-0.4-0.047l-0.283-0.146
		c-1.21-0.629-3.234-1.682-6.418-2.011c-0.19-0.021-0.487,0.006-0.676,0.056c-0.2,0.052-0.382,0.097-0.557,0.14
		c-0.118,0.031-0.353,0.032-0.46,0.003l-0.139-0.037c-0.657-0.175-1.882-0.501-3.282-0.501c-2.534,0-4.569,1.039-6.05,3.087
		c-0.222,0.305-0.191,0.646,0.08,0.911c0.17,0.169,0.528,0.226,0.788,0.14c0.16-0.055,0.398-0.157,0.628-0.411
		c0.074-0.082,1.846-2.013,3.897-2.179c0.837-0.069,2.828,0.139,3.611,0.219l0.361,0.035c2.23,0.174,4.85,0.761,7.573,1.698
		c0.131,0.045,0.316,0.161,0.391,0.243c0.056,0.062,0.099,0.116,0.136,0.163c0.105,0.132,0.205,0.256,0.406,0.304l0.124,0.028
		c1.093,0.251,4.399,1.012,7.573,2.459c-0.015,0.104-0.044,0.354,0.195,0.466c2.034,0.93,2.971,1.246,3.962,1.58
		c0.335,0.113,0.672,0.226,1.058,0.366c0.86,0.312,2.075,0.92,2.499,1.252c0.594,0.471,2.109,1.23,3.446,1.9
		c0.703,0.353,1.311,0.657,1.655,0.856c0.391,0.225,0.843,0.546,1.279,0.857c0.698,0.497,1.357,0.966,1.86,1.131
		c0.42,0.141,2.286,1.221,3.894,2.186c0.089,0.053,0.219,0.172,0.323,0.268l0.094,0.085c0.067,0.06,0.133,0.103,0.215,0.156
		c0.131,0.084,0.31,0.2,0.657,0.525c0.552,0.522,3.168,2.294,3.644,2.526c0.454,0.225,0.901,0.591,1.295,0.915
		c0.146,0.12,0.284,0.232,0.406,0.326c0.455,0.353,2.188,1.558,2.274,1.618c0.279,0.167,1.018,0.736,1.557,1.151l3.328,2.785
		c0.121,0.102,0.307,0.277,0.415,0.392l0.807,0.856c0.331,0.353,0.635,0.676,0.873,0.925c0.38,0.4,0.682,0.706,1.015,1.044
		c0.253,0.256,0.524,0.531,0.859,0.878l2.15,2.26c0.476,0.432,1.043,0.963,1.215,1.242c0.198,0.333,0.476,0.637,0.769,0.96
		c0.111,0.122,0.227,0.249,0.344,0.383c0.083,0.096,0.181,0.292,0.2,0.404l0.026,0.148c0.054,0.309,0.104,0.601,0.254,0.775
		c0.038,0.046,0.078,0.124,0.121,0.207c0.069,0.132,0.154,0.296,0.286,0.451c0.133,0.155,0.237,0.313,0.267,0.402l0.046,0.141
		c0.247,0.759,0.707,2.171,0.898,2.909c0.021,0.08,0.015,0.15,0.04,0.13c-0.035,0.03-0.07,0.063-0.115,0.109
		c-0.159,0.178-0.323,0.9-0.325,0.911c-0.014,0.086-0.113,0.21-0.2,0.319c-0.131,0.164-0.267,0.332-0.286,0.538
		c-0.105,1.036-0.059,1.814-0.024,2.383c0.02,0.318,0.041,0.68,0.017,0.738c-0.383,0.038-0.502,0.452-0.641,0.933
		c-0.115,0.403-0.26,0.904-0.57,1.257c-0.192,0.219-0.188,0.523,0.009,0.74c0.164,0.181,0.394,0.512,0.548,1.056
		c0.052,0.188,0.08,0.349,0.093,0.468c-0.355-0.088-0.666-0.188-0.941-0.277c-0.353-0.114-0.657-0.212-0.937-0.247
		c-0.231-0.029-0.613-0.045-1.055-0.065l-0.476-0.021c-0.141-0.007-0.382-0.049-0.525-0.092l-1.841-0.552
		c-0.198-0.044-0.596-0.252-1.184-0.618c-0.083-0.051-0.152-0.173-0.147-0.219c0.063-0.668,0.571-2.179,0.816-2.748
		c0.926-2.193,1.715-3.693,1.73-3.725c0.575-1.311,1.001-2.604,1.014-3.078c0.009-0.458-0.159-0.839-0.307-1.12
		c-0.045-0.083-0.084-0.274-0.097-0.464c-0.033-0.517-0.244-1.354-0.383-1.781c-0.068-0.211-0.295-0.377-0.508-0.37
		c-0.177-0.531-0.511-1.201-0.984-1.781c-0.121-0.148-0.327-0.212-0.485-0.149c-0.001-0.001-0.002-0.002-0.003-0.004
		c-0.129-0.167-0.274-0.356-0.386-0.557c-0.267-0.477-0.627-0.731-0.987-0.986c-0.29-0.203-0.686-0.04-0.72,0.288
		c-0.005,0.051-0.008,0.104-0.009,0.159c-0.58-0.415-0.649-0.561-0.654-0.572c-0.062-0.215-0.181-0.962,0.013-1.345
		c0.083-0.162,0.09-0.3,0.022-0.411c-0.078-0.126-0.228-0.178-0.416-0.129c-0.749,0.193-1.161,0.866-1.223,1.996
		c-0.032,0.491,0.611,1.478,1.743,2.28c0.019,0.014,0.054,0.081,0.074,0.121c0.052,0.099,0.116,0.221,0.238,0.303l0.073,0.048
		c0.171,0.109,0.488,0.313,1.055,0.827c0.025,0.023,0.046,0.051,0.061,0.075c-0.021,0.034-0.036,0.072-0.04,0.107
		c-0.014,0.124,0.055,0.199,0.148,0.303c0.053,0.056,0.195,0.19,0.377,0.36c0.331,0.31,1.105,1.035,1.195,1.216
		c0.133,0.264,0.025,1.093-0.383,2.956c-0.082,0.371-0.393,1.237-0.753,2.241c-0.865,2.409-2.05,5.708-2.016,7.308
		c0.005,0.433,0.136,1.094,0.73,1.788c0.306,0.357,0.8,0.697,1.391,0.955c0.168,0.073,0.442,0.154,0.615,0.194l1.539,0.354
		c0.633,0.099,1.405,0.208,2.113,0.307c0.872,0.123,1.86,0.261,1.974,0.297c0.063,0.034,0.142,0.061,0.194,0.064
		c0.01,0.01,0.033,0.053,0.036,0.114l0.007,0.172c0.001,0.035-0.047,0.09-0.104,0.104c-0.692,0.174-1.157,0.58-1.53,0.906
		c-0.44,0.384-0.725,0.619-1.154,0.354c-0.279-0.173-0.621-0.043-0.701,0.261c-0.118,0.454-0.314,1.466-0.301,3.139l-0.339-0.062
		c-0.075-0.013-0.17-0.04-0.265-0.065c-0.112-0.031-0.226-0.061-0.313-0.076c-0.421-0.074-1.232-0.119-2.117-0.119
		c-1.951,0-3.054,0.17-3.276,0.506c-0.366,0.551-0.337,1.1-0.315,1.501c0.009,0.177,0.018,0.33-0.01,0.433
		c-0.053,0.203-0.071,0.714-0.106,1.758c-0.037,1.117-0.088,2.646-0.223,4.301c-0.081,1.029-0.176,2.041-0.262,2.957
		c-0.143,1.526-0.256,2.732-0.25,3.407c0.003,0.265,0.17,0.528,0.348,0.637c-0.54,1.285-1.679,2.859-2.487,3.931
		c-0.07,0.092-0.24,0.222-0.356,0.272c-0.098,0.042-0.195,0.086-0.301,0.136c-0.691,0.342-1.438,0.804-2.224,1.375
		c-0.102,0.077-0.202,0.159-0.302,0.24c-0.146,0.119-0.286,0.234-0.417,0.319c-0.206,0.134-0.434,0.296-0.515,0.511
		c-0.196,0.512,0.055,1.013,0.746,1.488c0.25,0.171,0.645,0.093,0.792-0.159c0.168-0.292,0.289-0.675,0.292-0.833
		c0.002-0.051-0.001-0.117-0.005-0.192c-0.006-0.131-0.015-0.311,0.013-0.414c0.015-0.051,0.038-0.096,0.063-0.133
		c0,0,0,0.001,0,0.002c0.013,0.084,0.026,0.174,0.049,0.258c0.082,0.307,0.522,0.4,0.783,0.184c0.979-0.802,1.871-1.33,2.384-1.412
		c0.182-0.029,0.663-0.104,2.765-4.981c0.072,0.005,0.146-0.01,0.213-0.04c0.145-0.064,0.236-0.215,0.316-0.521
		c0.213-0.793,0.575-6.268,0.418-8.973c-0.149-2.432-0.062-3.296,0.03-3.777c0.012-0.058,0.086-0.123,0.137-0.123
		c0.752,0,2.6,0.202,2.693,0.215c0.109,0.045,0.144,0.095,0.209,0.196c0.06,0.09,0.133,0.201,0.27,0.311
		c0.336,0.265,0.747,0.347,1.11,0.42c0.167,0.033,0.329,0.065,0.473,0.115c0.032,0.011,0.098,0.108,0.097,0.194
		c-0.012,1.517,0.033,7.646,0.074,10.817c0.001,0.086-0.065,0.223-0.129,0.266c-0.17,0.114-0.381,0.244-0.614,0.388
		c-0.599,0.37-1.344,0.83-1.899,1.319l-0.838,0.648c-2.003,1.544-3.228,2.516-3.35,2.987c-0.018,0.065-0.046,0.159-0.08,0.273
		c-0.247,0.826-0.761,2.545-0.357,3.343c0.132,0.258,0.334,0.616,0.562,1.019c0.319,0.565,0.682,1.206,0.979,1.799
		c0.065,0.13,0.155,0.364,0.196,0.513l0.902,3.211l0.099,0.258c0.201,0.526,0.429,1.124,0.474,1.644
		c0.046,0.561,0.595,4.292,0.876,5.489c0.035,0.148,0.031,0.294,0.015,0.33c-0.077,0.134-0.095,0.242-0.082,0.328
		c-1.46,0.685-1.67,0.991-1.74,1.094c-0.222,0.319-0.269,0.55-0.303,0.719c-0.027,0.137-0.04,0.183-0.088,0.231
		c-0.253,0.207-1.812,0.811-2.753,0.866c-0.089,0-0.257-0.054-0.418-0.134c-0.386-0.195-0.989-0.397-1.389-0.357
		c-0.626,0.062-1.519,1.998-1.526,2.017c-0.377,0.929,0.177,1.306,0.431,1.425c0.23,0.108,0.625,0.119,0.949,0.064
		c0.157-0.026,0.28-0.12,0.337-0.255c0.06-0.142,0.036-0.311-0.062-0.451c-0.085-0.121-0.161-0.238-0.253-0.38l-0.054-0.083
		c-0.01-0.023-0.003-0.084,0.026-0.172c0.027,0.097,0.085,0.187,0.193,0.256c0.188,0.119,0.729,0.286,1.341,0.286
		c0.653,0,1.233-0.187,1.679-0.547c0,0.001,0,0.001,0,0.002c0.022,0.276,0.227,0.476,0.484,0.476c0.02,0,0.101-0.01,0.119-0.014
		c0.955-0.225,1.715-0.683,2.141-1.291c0.149-0.217,0.14-0.518-0.03-0.892c-0.002-0.004-0.003-0.008-0.004-0.012
		c0.054,0.003,0.116,0.01,0.207,0.02c0.099,0.01,0.308,0.204,0.407,0.297l0.057,0.052c0.046,0.039,0.132,0.069,0.191,0.069
		c0.493,0,2.234-1.648,2.61-3.314c0.036-0.154,0.121-0.31,0.175-0.347l0.061-0.041c0.098-0.065,0.199-0.135,0.31-0.246
		c0.194-0.194,0.239-0.536,0.184-0.759c-0.16-0.641-0.341-1.242-0.535-1.787c-0.658-1.819-1.878-4.99-3.121-7.977l-0.952-2.234
		c-0.129-0.292-0.276-0.625-0.408-0.915c-0.035-0.08-0.028-0.237,0.014-0.324l0.084-0.171c0.088-0.18,0.234-0.482,0.258-0.519
		c0.065-0.017,0.133-0.041,0.202-0.071c0.155-0.069,0.396-0.272,0.443-0.312l1.026-0.88c0.101-0.086,0.269-0.166,0.345-0.176
		c0.08-0.011,0.166-0.022,0.26-0.04c0.354-0.065,1.74-0.866,2.565-1.411c0.183,2.65,0.435,4.701,0.748,6.097l0.132,0.595
		c1.029,4.655,2.584,11.69,8.401,12.181l0.246-0.001c5.796-0.489,7.351-7.524,8.38-12.18l0.132-0.595
		c0.312-1.393,0.564-3.438,0.748-6.088c0.838,0.543,2.214,1.337,2.564,1.401c0.095,0.018,0.181,0.029,0.261,0.04
		c0.076,0.011,0.244,0.09,0.345,0.176l1.026,0.88c0.047,0.04,0.288,0.243,0.444,0.312c0.067,0.029,0.104,0.044,0.158,0.05
		c0.066,0.057,0.213,0.359,0.301,0.539l0.083,0.171c0.043,0.087,0.05,0.244,0.016,0.323c-0.133,0.292-0.28,0.625-0.411,0.919
		l-0.95,2.233c-1.243,2.985-2.463,6.156-3.121,7.976c-0.194,0.544-0.375,1.145-0.535,1.786c-0.056,0.223-0.01,0.565,0.185,0.76
		c0.109,0.11,0.209,0.179,0.306,0.243l0.064,0.044c0.053,0.037,0.138,0.193,0.173,0.345c0.377,1.667,2.118,3.315,2.611,3.315
		c0.062,0,0.151-0.032,0.197-0.074l0.051-0.047c0.1-0.093,0.309-0.287,0.465-0.303c0.047-0.005,0.096-0.011,0.149-0.014
		c-0.001,0.004-0.002,0.008-0.004,0.012c-0.17,0.375-0.18,0.675-0.029,0.894c0.425,0.606,1.185,1.064,2.14,1.29
		c0.019,0.004,0.1,0.014,0.119,0.014c0.256,0,0.459-0.197,0.484-0.47c0.448,0.353,1.026,0.539,1.679,0.539
		c0.612,0,1.152-0.167,1.342-0.287c0.106-0.068,0.164-0.156,0.191-0.252c0.031,0.085,0.039,0.143,0.03,0.164l-0.057,0.088
		c-0.092,0.142-0.168,0.259-0.253,0.38c-0.098,0.141-0.121,0.309-0.062,0.451c0.057,0.136,0.18,0.229,0.336,0.255
		c0.127,0.021,0.27,0.035,0.409,0.035c0.219,0,0.4-0.033,0.539-0.099c0.256-0.119,0.81-0.497,0.433-1.425
		c-0.008-0.02-0.9-1.955-1.528-2.018c-0.371-0.032-1.001,0.164-1.387,0.357c-0.16,0.081-0.329,0.135-0.426,0.135
		c-0.001,0-0.001,0-0.001,0c-0.933-0.055-2.491-0.659-2.728-0.85c-0.064-0.064-0.077-0.11-0.104-0.247
		c-0.034-0.169-0.081-0.4-0.302-0.718c-0.071-0.105-0.281-0.411-1.741-1.096c0.014-0.085-0.005-0.193-0.081-0.325
		c-0.018-0.039-0.021-0.184,0.014-0.333c0.281-1.196,0.83-4.928,0.876-5.488c0.045-0.521,0.272-1.119,0.474-1.645l1.002-3.471
		c0.04-0.148,0.13-0.382,0.195-0.512c0.298-0.593,0.66-1.233,0.979-1.799c0.229-0.403,0.431-0.761,0.562-1.02
		c0.403-0.797-0.11-2.516-0.357-3.342c-0.034-0.114-0.062-0.208-0.079-0.271c-0.123-0.474-1.348-1.445-3.351-2.989l-0.826-0.638
		c-0.567-0.499-1.312-0.959-1.911-1.329c-0.233-0.144-0.444-0.274-0.614-0.388c-0.063-0.042-0.13-0.178-0.129-0.264
		c0.041-3.186,0.086-9.301,0.073-10.785c-0.001-0.085,0.062-0.194,0.098-0.209c0.148-0.059,0.325-0.097,0.512-0.138
		c0.351-0.076,0.747-0.162,1.072-0.418c0.136-0.109,0.209-0.22,0.269-0.31c0.065-0.101,0.1-0.151,0.17-0.184
		c0.133-0.025,1.98-0.228,2.75-0.228c0.033,0,0.107,0.065,0.119,0.123c0.093,0.481,0.18,1.346,0.03,3.778
		c-0.157,2.705,0.205,8.179,0.417,8.971c0.081,0.307,0.173,0.458,0.317,0.522c0.068,0.03,0.14,0.045,0.213,0.04
		c2.102,4.877,2.583,4.953,2.764,4.981c0.514,0.083,1.405,0.611,2.385,1.413c0.262,0.217,0.701,0.125,0.784-0.185
		c0.021-0.083,0.035-0.172,0.048-0.257c0-0.001,0-0.001,0-0.002c0.025,0.036,0.048,0.08,0.062,0.128
		c0.028,0.108,0.02,0.288,0.014,0.419c-0.004,0.075-0.007,0.141-0.005,0.188c0.003,0.163,0.124,0.546,0.293,0.837
		c0.146,0.251,0.542,0.33,0.792,0.158c0.691-0.476,0.941-0.977,0.745-1.488c-0.083-0.216-0.31-0.377-0.515-0.511
		c-0.131-0.085-0.271-0.201-0.417-0.319c-0.1-0.081-0.2-0.164-0.306-0.243c-0.781-0.568-1.528-1.03-2.224-1.374
		c-0.102-0.048-0.199-0.093-0.296-0.133c-0.118-0.051-0.286-0.179-0.357-0.272c-0.809-1.071-1.946-2.645-2.527-3.957
		c0.218-0.083,0.385-0.346,0.388-0.612c0.006-0.674-0.107-1.88-0.25-3.406c-0.086-0.916-0.181-1.927-0.262-2.958
		c-0.135-1.654-0.186-3.184-0.223-4.3c-0.035-1.044-0.054-1.555-0.106-1.758c-0.027-0.103-0.019-0.256-0.01-0.433
		c0.021-0.401,0.051-0.95-0.315-1.501c-0.223-0.336-1.325-0.506-3.276-0.506c-0.885,0-1.696,0.045-2.117,0.119
		c-0.088,0.015-0.201,0.045-0.313,0.076c-0.095,0.025-0.189,0.052-0.266,0.065l-0.332,0.066c0.008-1.677-0.188-2.689-0.307-3.144
		c-0.08-0.303-0.424-0.43-0.702-0.259c-0.433,0.268-0.715,0.029-1.152-0.355c-0.374-0.326-0.839-0.731-1.531-0.905
		c-0.058-0.014-0.105-0.069-0.104-0.135l0.006-0.142c0.002-0.06,0.035-0.11-0.001-0.097c0.091-0.021,0.169-0.048,0.21-0.072
		c0.135-0.045,1.123-0.184,1.995-0.307c0.708-0.099,1.48-0.208,2.13-0.31l1.522-0.35c0.173-0.04,0.447-0.121,0.615-0.194
		c0.591-0.258,1.085-0.597,1.39-0.954c0.596-0.694,0.727-1.355,0.731-1.786c0.034-1.602-1.15-4.901-2.016-7.311
		c-0.36-1.003-0.671-1.87-0.753-2.241c-0.408-1.863-0.516-2.691-0.383-2.956c0.09-0.18,0.864-0.905,1.195-1.215
		c0.182-0.17,0.324-0.304,0.393-0.377c0.078-0.086,0.146-0.162,0.133-0.286c-0.003-0.031-0.021-0.068-0.042-0.104
		c0.014-0.024,0.036-0.053,0.062-0.078c0.565-0.513,0.883-0.717,1.054-0.827l0.073-0.048c0.122-0.082,0.187-0.205,0.238-0.303
		c0.021-0.04,0.057-0.107,0.075-0.121c1.132-0.803,1.775-1.79,1.744-2.278c-0.062-1.132-0.475-1.805-1.224-1.998
		c-0.19-0.049-0.339,0.002-0.416,0.129c-0.067,0.111-0.061,0.249,0.021,0.41c0.194,0.384,0.076,1.131,0.016,1.341
		c-0.007,0.016-0.077,0.165-0.656,0.588c-0.001-0.059-0.003-0.114-0.009-0.167c-0.034-0.331-0.409-0.51-0.731-0.282
		c-0.349,0.246-0.709,0.5-0.977,0.979c-0.11,0.2-0.256,0.389-0.385,0.556c-0.001,0.001-0.002,0.002-0.003,0.004
		c-0.152-0.06-0.364,0.001-0.484,0.149c-0.47,0.575-0.802,1.236-0.983,1.781c-0.209-0.013-0.44,0.158-0.509,0.369
		c-0.14,0.429-0.351,1.265-0.384,1.782c-0.013,0.189-0.052,0.38-0.097,0.464c-0.147,0.281-0.315,0.662-0.307,1.121
		c0.013,0.472,0.438,1.766,1.021,3.092c0.008,0.015,0.797,1.516,1.724,3.71c0.244,0.567,0.752,2.078,0.815,2.747
		c0.005,0.045-0.064,0.167-0.147,0.218c-0.588,0.365-0.985,0.573-1.201,0.622l-1.822,0.546c-0.145,0.043-0.386,0.085-0.527,0.092
		l-0.475,0.021c-0.441,0.02-0.823,0.036-1.055,0.065c-0.279,0.035-0.584,0.133-0.937,0.247c-0.275,0.089-0.586,0.189-0.936,0.299
		c0.007-0.142,0.035-0.302,0.086-0.488c0.155-0.546,0.385-0.877,0.549-1.059c0.197-0.217,0.201-0.521,0.009-0.74
		c-0.311-0.354-0.455-0.854-0.57-1.257c-0.139-0.48-0.258-0.895-0.618-0.914c-0.047-0.077-0.025-0.438-0.006-0.757
		c0.034-0.568,0.081-1.347-0.024-2.381c-0.02-0.208-0.155-0.376-0.286-0.54c-0.087-0.109-0.187-0.233-0.201-0.323
		c-0.001-0.007-0.165-0.729-0.334-0.918c-0.042-0.042-0.076-0.066-0.073-0.056c-0.006-0.016-0.016-0.088,0.007-0.173
		c0.189-0.732,0.648-2.139,0.895-2.894l0.051-0.156c0.03-0.091,0.132-0.245,0.267-0.403c0.132-0.155,0.217-0.319,0.286-0.451
		c0.043-0.083,0.083-0.161,0.116-0.202c0.155-0.18,0.205-0.472,0.259-0.781l0.026-0.149c0.02-0.111,0.117-0.307,0.2-0.403
		c0.117-0.135,0.232-0.262,0.344-0.384c0.293-0.323,0.57-0.627,0.767-0.957c0.174-0.282,0.741-0.814,1.23-1.258l2.135-2.246
		c0.337-0.349,0.608-0.624,0.861-0.88c0.333-0.338,0.635-0.645,1.014-1.043c0.239-0.25,0.543-0.574,0.874-0.926l0.808-0.856
		c0.107-0.115,0.293-0.29,0.414-0.392l2.944-2.49l0.384-0.294c0.539-0.415,1.277-0.984,1.57-1.161
		c0.073-0.051,1.806-1.256,2.259-1.607c0.124-0.095,0.262-0.207,0.408-0.327c0.394-0.324,0.841-0.69,1.294-0.915
		c0.477-0.232,3.093-2.004,3.644-2.525c0.349-0.326,0.527-0.441,0.658-0.526c0.082-0.053,0.147-0.096,0.215-0.156l0.094-0.085
		c0.104-0.096,0.234-0.215,0.324-0.268c1.606-0.964,3.473-2.045,3.892-2.185c0.504-0.166,1.163-0.635,1.861-1.131
		c0.437-0.311,0.889-0.632,1.279-0.857c0.345-0.199,0.952-0.503,1.655-0.856c1.337-0.67,2.853-1.43,3.445-1.899
		c0.425-0.333,1.64-0.942,2.5-1.253c0.386-0.14,0.723-0.253,1.058-0.366c0.991-0.334,1.928-0.65,3.963-1.581
		c0.212-0.099,0.212-0.308,0.194-0.466c3.176-1.447,6.48-2.207,7.573-2.458l0.125-0.029c0.2-0.047,0.3-0.171,0.405-0.303
		c0.037-0.046,0.08-0.1,0.137-0.163c0.073-0.082,0.259-0.197,0.39-0.243c2.724-0.937,5.343-1.524,7.573-1.698l0.361-0.035
		c0.783-0.081,2.779-0.288,3.611-0.219c2.052,0.166,3.823,2.097,3.897,2.178c0.229,0.254,0.468,0.357,0.629,0.412
		c0.08,0.027,0.174,0.042,0.271,0.042c0.211,0,0.399-0.066,0.517-0.182C149.204,26.595,149.234,26.254,149.013,25.95z
		 M52.729,105.963c0.001-0.001,0.003-0.001,0.004-0.002l0.016,0.016L52.729,105.963z M97.645,106.001
		C97.645,106.001,97.645,106.001,97.645,106.001L97.645,106.001L97.645,106.001z"/>
</g>
</svg>
