<?xml version="1.0" encoding="iso-8859-1"?>
<!-- Generator: Adobe Illustrator 17.1.0, SVG Export Plug-In . SVG Version: 6.00 Build 0)  -->
<!DOCTYPE svg PUBLIC "-//W3C//DTD SVG 1.1//EN" "http://www.w3.org/Graphics/SVG/1.1/DTD/svg11.dtd">
<svg version="1.1" id="Capa_1" xmlns="http://www.w3.org/2000/svg" xmlns:xlink="http://www.w3.org/1999/xlink" x="0px" y="0px"
	 viewBox="0 0 150 150" style="enable-background:new 0 0 150 150;" xml:space="preserve">
<g>
	<path d="M143.162,48.886c-0.828-1.414-1.39-2.989-2.003-4.52c-0.189-0.472-0.113-1.043-0.243-1.547
		c-0.855-3.299-1.568-6.648-2.666-9.865c-0.698-2.047-1.891-3.949-3.024-5.818c-1-1.649-2.138-3.235-3.381-4.709
		c-0.788-0.935-1.87-1.625-2.836-2.405c-2.701-2.181-5.134-4.519-4.815-8.823c-1.221,2.019-0.909,4.304,0.716,6.808
		c1.243,1.915,2.594,3.76,4.211,6.089c-1.481-0.848-3.305-1.323-3.436-2.089c-0.25-1.46-1.473-1.241-2.091-1.722
		c-3.979-3.098-4.044-3.014-5.888-7.607c-0.617,1.865-0.175,4.321,1.213,5.871c2.151,2.402,4.409,4.708,6.564,7.106
		c3.138,3.492,6.262,7.005,7.924,11.932c-1.312-0.17-2.398-0.311-3.579-0.464c0.006-2.894,0.02-5.717-2.813-7.668
		c-1.339,2.037-1.787,3.965-0.831,6.048c0.672,1.465,0.52,2.389-0.653,3.805c-1.886,2.276-3.041,5.151-4.559,7.741
		c-1.683,2.871-3.111,5.989-5.293,8.421c-0.927,1.032-1.966,3.26-4.279,2.671c-0.186-0.047-0.516,0.149-0.666,0.328
		c-1.928,2.287-4.779,2.119-7.307,2.879c-1.834,0.552-3.84,1.273-5.184,2.54c-2.139,2.016-4.51,3.035-7.312,3.457
		c-4.141,0.624-8.262,1.38-12.407,1.972c-1.079,0.154-2.229-0.001-3.321-0.175c-2.76-0.438-5.522-0.892-8.253-1.478
		c-4.132-0.887-8.312-1.662-12.329-2.933c-2.514-0.796-4.779-0.267-7.138,0.094c-3.929,0.602-7.844,1.295-11.762,1.966
		c-0.353,0.06-0.685,0.241-1.358,0.486c2.957,1.21,5.539,0.552,8.156,0.161c3.099-0.464,6.224-0.792,9.348-1.036
		c1.724-0.135,2.276,0.384,2.862,2.153c-0.876,0.203-1.738,0.442-2.613,0.598c-3.003,0.538-5.161,2.839-5.345,5.912
		c-0.171,2.836-0.755,5.515-3.799,6.445c-1.506,0.46-3.493,0.637-4.855,0.029c-3.632-1.62-6.411-1.589-9.823,1.119
		c-3.933,3.122-8.701,5.221-13.199,7.587c-1.612,0.848-3.485,1.223-5.266,1.713c-0.362,0.1-0.975-0.124-1.256-0.411
		c-1.797-1.834-2.953-0.538-4.117,0.775c-0.297,0.336-0.545,0.715-0.786,1.034c0.077,0.211,0.096,0.419,0.167,0.438
		c3.5,0.936,7.006,2.316,10.629,0.638c2.965-1.373,5.957-2.735,8.763-4.396c3.708-2.195,7.42-3.535,11.937-1.454
		c-2.868,3.085-5.65,6.277-8.66,9.239c-1.795,1.767-4.294,2.895-5.828,4.825c-1.187,1.493-2.262,1.121-3.636,1.388
		c-1.377,0.267-2.515,1.771-3.758,2.733c0.104,0.224,0.207,0.449,0.31,0.673c2.503-0.15,5.016-0.217,7.504-0.502
		c0.694-0.079,1.388-0.72,1.958-1.24c3.447-3.142,7.016-6.173,10.228-9.542c2.388-2.506,5.012-3.081,8.308-2.89
		c7.201,0.418,14.421,0.611,21.635,0.675c2.349,0.021,4.705-0.706,6.364-2.623c0.814-0.941,1.547-0.598,2.433-0.232
		c11.636,4.801,23.259,4.055,34.82-0.237c1.877-0.697,3.496-2.178,5.397-2.701c1.826-0.502,3.895-0.478,5.803-0.247
		c3.111,0.376,6.249,0.71,9.338,1.228c1.202,0.476,2.405,0.953,3.607,1.429c0.011,0.009,0.023,0.018,0.034,0.026
		c-0.734,0.78-1.469,1.559-2.203,2.339c-0.101,0.107-0.185,0.217-0.256,0.33c-1.662,0.578-3.391,1.054-5.03,1.667
		c-0.711,0.266-1.607,0.33-2.105,0.811c-1.346,1.3-2.875,0.882-4.214,0.429c-1.075-0.364-1.791-0.421-2.645,0.326
		c-1.491,1.304-3.047,2.535-4.825,4.003c2.426,1.059,4.264,1.204,6.341,0.424c1.966-0.738,4.139-0.902,6.188-1.444
		c5.384-1.426,10.576-3.136,15.835-4.966c0.251-0.089,0.462-0.212,0.64-0.358c0.605-0.137,1.168-0.423,1.552-0.888
		c0.512-0.621,0.811-1.245,0.869-2.054c0.042-0.577-0.127-1.193-0.427-1.684c-0.444-0.728-1.291-1.085-2.093-0.928
		c-1.239-0.998-2.478-1.996-3.717-2.994c-0.191-0.154-0.397-0.278-0.611-0.372c-3.393-2.886-7.332-4.308-11.884-4.278
		c-0.301,0.002-0.603-0.143-0.839-0.203c0.498-4.715,1.802-8.911,4.669-12.76c2.035-2.732,3.107-6.175,4.654-9.279
		c1.262-2.533,2.053-2.92,4.821-2.222c1.947,0.491,3.82,1.315,5.783,1.694c1.096,0.211,2.549,0.18,3.417-0.389
		c1.475-0.968,2.699-2.46,1.388-4.444C145.319,51.827,144.079,50.453,143.162,48.886z"/>
</g>
</svg>
