<?xml version="1.0" encoding="iso-8859-1"?>
<!-- Generator: Adobe Illustrator 17.1.0, SVG Export Plug-In . SVG Version: 6.00 Build 0)  -->
<!DOCTYPE svg PUBLIC "-//W3C//DTD SVG 1.1//EN" "http://www.w3.org/Graphics/SVG/1.1/DTD/svg11.dtd">
<svg version="1.1" id="Capa_1" xmlns="http://www.w3.org/2000/svg" xmlns:xlink="http://www.w3.org/1999/xlink" x="0px" y="0px"
	 viewBox="0 0 150 150" style="enable-background:new 0 0 150 150;" xml:space="preserve">
<g>
	<path d="M13.822,120.74c0.58,0.681,1.177,1.347,1.814,1.969c0.695,0.68,1.539,1.223,2.366,1.746
		c0.526,0.333,1.14,0.529,1.723,0.766c0.803,0.328,1.613,0.64,2.424,0.95c0.101,0.039,0.224,0.018,0.336,0.033
		c0.753,0.101,1.507,0.299,2.257,0.284c0.309-0.006,0.618-0.02,0.928-0.04c2.536,0.297,5.122,0.096,7.565-0.687
		c1.173-0.376,1.917-1.556,1.58-2.782c-0.317-1.151-1.608-1.956-2.782-1.58c-0.474,0.152-0.955,0.288-1.442,0.391
		c-0.033,0.007-0.066,0.013-0.099,0.02c-1.248,0.011-2.495,0.015-3.74-0.041c-0.733-0.033-1.454-0.363-2.178-0.567
		c-0.395-0.112-0.777-0.276-1.177-0.361c-0.986-0.211-1.774-0.784-2.623-1.283c-1.425-0.838-2.426-2.093-3.478-3.287
		c-0.513-0.582-0.774-1.389-1.132-2.102c-0.33-0.658-0.678-1.312-0.94-1.997c-0.199-0.52-0.28-1.085-0.404-1.632
		c-0.208-0.919-0.412-1.839-0.609-2.761c-0.035-0.164-0.041-0.336-0.042-0.505c-0.01-1.357-0.065-2.716-0.007-4.07
		c0.041-0.955,0.187-1.913,0.378-2.851c0.145-0.71,0.375-1.419,0.679-2.077c0.33-0.715,0.832-1.349,1.185-2.055
		c0.693-1.384,1.789-2.433,2.881-3.466c0.637-0.602,1.448-1.019,2.181-1.518c0.623-0.423,1.227-0.879,1.877-1.255
		c0.528-0.305,1.118-0.503,1.671-0.766c0.594-0.283,1.171-0.599,1.766-0.877c0.369-0.173,0.76-0.3,1.14-0.451
		c0.539-0.214,1.069-0.451,1.617-0.638c0.472-0.162,0.97-0.249,1.444-0.405c0.505-0.167,0.997-0.378,1.494-0.57
		c0.067-0.026,0.133-0.054,0.201-0.076c0.674-0.217,1.342-0.453,2.023-0.644c0.576-0.161,1.175-0.242,1.748-0.412
		c0.285-0.084,0.563-0.191,0.84-0.301c6.42-1.38,12.678-3.387,18.738-5.929c0.467,0.315,0.955,0.591,1.452,0.869
		c0.75,0.421,1.543,0.687,2.323,1.015c0.48,0.202,0.975,0.333,1.467,0.467c0.469,0.183,0.947,0.344,1.431,0.478
		c0.343,0.095,0.689,0.145,1.033,0.156c1.548,0.257,3.115,0.233,4.686,0.213c0.581-0.008,0.839,0.222,1.111,0.763
		c0.324,0.646,0.292,1.27,0.212,1.885c-0.095,0.729-0.371,1.436-0.584,2.148c-0.101,0.34-0.252,0.664-0.352,1.004
		c-0.073,0.251,0.037,0.667-0.379,0.611c-0.237-0.032-0.521-0.271-0.644-0.494c-0.406-0.736-0.817-1.473-1.463-2.012
		c-0.649-0.541-2.235-0.798-3.137-0.259c-0.511,0.306-0.722,0.704-0.873,1.202c-0.109,0.361-0.343,0.766-0.263,1.087
		c0.218,0.884,0.366,1.823,1.392,2.289c0.387,0.176,0.753,0.338,1.131,0.262c0.535-0.107,0.923,0.198,1.293,0.42
		c0.174,0.104,0.19,0.615,0.129,0.91c-0.034,0.168-0.365,0.384-0.569,0.391c-0.922,0.032-1.856-0.097-2.767,0.007
		c-1.516,0.173-2.664,1.038-2.307,2.774c0.137,0.667,0.367,1.528,1.073,1.794c0.737,0.278,1.465,0.787,2.433,0.254
		c0.571-0.314,1.125-0.556,1.571-1.055c0.163-0.181,0.527-0.182,0.853-0.283c0.268,0.587,0.202,0.656-0.359,0.928
		c-1.215,0.588-2.432,1.251-3.089,2.476c-0.248,0.463-0.181,1.199-0.025,1.745c0.138,0.483,0.577,0.892,0.92,1.302
		c0.5,0.598,1.754,0.644,2.431,0.35c0.784-0.341,1.248-0.972,1.79-1.537c0.229-0.239,0.352-0.597,0.469-0.92
		c0.156-0.429,0.26-0.877,0.377-1.285c0.327,0.084,0.556,0.172,0.792,0.196c0.106,0.011,0.198,0.036,0.276,0.072
		c-0.066,0.765-0.061,1.535,0.033,2.292c0.023,0.183,0.051,0.371,0.085,0.561c0.006,0.042,0.011,0.084,0.016,0.126
		c0.004,0.033,0.015,0.066,0.028,0.098c0.033,0.155,0.071,0.31,0.115,0.463c0.05,0.321,0.169,0.597,0.328,0.849
		c0.214,0.415,0.502,0.778,0.892,1.034c0.074,0.077,0.148,0.155,0.22,0.234c0.06-0.016,0.119-0.023,0.176-0.026
		c0.099,0.04,0.202,0.075,0.311,0.102c0.146,0.037,0.291,0.06,0.433,0.071c0.263,0.086,0.546,0.147,0.899,0.027
		c0.947-0.321,1.638-0.902,2.012-1.596c0.403-0.748,0.806-1.669,0.24-2.701c-0.369-0.674-0.824-1.156-1.398-1.59
		c-0.481-0.363-0.539-1.004-0.146-1.481c0.05-0.06,0.094-0.126,0.136-0.193c0.234-0.12,0.428-0.33,0.53-0.637
		c0.12-0.063,0.258-0.101,0.359-0.078c0.752,0.167,1.485,0.422,2.24,0.578c0.472,0.097,0.97,0.064,1.455,0.107
		c0.761,0.067,1.429-0.165,1.942-0.708c0.252-0.266,0.47-0.638,0.534-0.993c0.096-0.53,0.077-1.089,0.048-1.633
		c-0.059-1.088-0.711-1.717-1.709-2.158c-0.65-0.288-1.264-0.295-1.895-0.241c-0.404,0.035-0.792,0.282-1.182,0.446
		c-0.19,0.08-0.368,0.185-0.539,0.273c-0.444-0.872-0.624-1.743-1.088-2.528c-0.246-0.415-0.281-1.143,0.184-1.707
		c0.438-0.533,0.731-1.183,1.129-1.753c0.389-0.557,0.854-1.06,1.239-1.619c0.304-0.442,0.539-0.931,0.804-1.4
		c0.301-0.532,0.675-1.039,0.878-1.607c0.164-0.458,0.141-0.989,0.161-1.489c0.015-0.394,0.078-0.839-0.073-1.174
		c-0.323-0.717-0.24-1.539-0.822-2.216c-0.488-0.568-0.954-1.16-1.555-1.581c-0.829-0.581-1.521-1.347-2.507-1.731
		c-0.94-0.367-1.83-0.868-2.731-1.332c-0.549-0.282-1.077-0.604-1.614-0.909c-0.016-0.009-0.033-0.019-0.051-0.023
		c-0.496-0.133-0.992-0.265-1.654-0.441c0.206-0.433,0.322-0.888,0.596-1.206c0.515-0.596,0.981-1.293,1.772-1.564
		c0.966-0.331,1.924-0.905,2.989-0.29c0.062,0.036,0.146,0.032,0.22,0.045c0.767,0.126,1.542,0.212,2.296,0.391
		c0.512,0.121,0.992,0.373,1.487,0.565c0.052,0.02,0.106,0.036,0.16,0.047c0.701,0.131,1.431,0.175,2.096,0.406
		c1.632,0.569,3.298,0.254,4.949,0.299c0.918,0.025,1.78-0.263,2.615-0.636c0.576-0.257,1.177-0.461,1.741-0.742
		c0.249-0.124,0.424-0.388,0.647-0.572c0.218-0.181,0.432-0.369,0.648-0.554c0.335-0.162,0.668-0.335,0.999-0.522
		c0.128-0.073,0.256-0.148,0.383-0.224c-0.271,1.771-0.58,3.537-0.924,5.296c-0.086,0.439-0.175,0.878-0.265,1.316
		c-0.064,0.148-0.129,0.297-0.19,0.446c-0.167,0.408-0.256,0.848-0.405,1.265c-0.167,0.466-0.369,0.92-0.544,1.384
		c-0.057,0.152-0.076,0.317-0.117,0.475c-0.087,0.332-0.185,0.661-0.264,0.995c-0.03,0.125-0.078,0.291-0.024,0.385
		c0.334,0.575,0.62,1.205,1.069,1.677c0.37,0.389,0.935,0.603,1.429,0.863c0.646,0.34,1.299,0.671,1.968,0.962
		c0.407,0.177,0.862,0.241,1.272,0.411c0.726,0.301,1.438,0.637,2.147,0.977c0.091,0.043,0.18,0.19,0.187,0.294
		c0.053,0.803,0.475,1.408,1.043,1.985c-0.332,0.329-0.671,0.645-0.988,0.983c-0.599,0.64-0.795,1.411-0.781,2.279
		c0.012,0.717,0.104,1.362,0.785,1.759c0.151,0.088,0.322,0.185,0.489,0.193c0.506,0.026,1.015,0.015,1.523,0.013
		c0.825-0.004,1.226-0.662,1.629-1.196c0.257-0.341,0.26-0.881,0.345-1.339c0.024-0.13-0.076-0.28-0.103-0.424
		c-0.028-0.147-0.095-0.326-0.041-0.442c0.03-0.064,0.065-0.118,0.103-0.164c0.059-0.019,0.117-0.04,0.174-0.062
		c0.179,0.382,0.531,0.575,0.93,0.611c0.003,0.181-0.007,0.365,0.011,0.545c0.085,0.854,0.331,1.652,0.901,2.317
		c0.341,0.397,1.055,0.539,1.696,0.49c0.535,0.081,1.085-0.041,1.499-0.451c0.282-0.279,0.453-0.617,0.53-0.974
		c0.057-0.123,0.087-0.267,0.093-0.402c0.017-0.392,0.006-0.786,0.006-1.154c0.489,0.106,0.926,0.266,1.368,0.285
		c1.133,0.048,1.313,0.066,2.083-1.246c0.28-0.477,0.297-0.906,0.258-1.358c-0.017-0.201-0.112-0.434-0.251-0.669
		c-0.003-0.231-0.04-0.464-0.116-0.693c-0.247-0.74-0.992-0.911-1.556-0.696c-0.579-0.134-1.182-0.02-1.802-0.187
		c0.152-0.514,0.282-1.002,0.451-1.477c0.026-0.073,0.228-0.109,0.352-0.118c0.3-0.021,0.603-0.023,0.904-0.021
		c1.006,0.007,1.739-0.514,2.393-1.209c0.555-0.589,0.74-1.271,0.679-2.07c-0.041-0.527-0.956-1.588-1.427-1.833
		c-0.603-0.314-1.199-0.298-1.821-0.313c-1.073-0.026-1.93,0.806-2.19,1.734c-0.166,0.592-0.865,0.831-1.344,0.467
		c-0.164-0.125-0.389-0.171-0.647-0.279c-0.03-0.436-0.02-0.859,0.179-1.373c0.299-0.773,0.429-1.671,0.378-2.5
		c-0.041-0.663-0.418-1.421-1.09-1.678c-0.528-0.202-1.242-0.217-1.772-0.028c-0.557,0.198-1.248,0.322-1.596,0.947
		c-0.158,0.285-0.497,0.546-0.503,0.824c-0.022,1.01-0.313,2.058,0.263,3.02c0.016,0.026-0.003,0.073-0.007,0.124
		c-0.455,0.353-0.688-0.139-0.943-0.314c-1.041-0.714-0.898-1.832-0.661-2.802c0.231-0.944,0.789-1.806,1.19-2.71
		c0.277-0.623,0.519-1.262,0.8-1.884c0.169-0.375,0.412-0.718,0.57-1.098c0.171-0.41,0.255-0.856,0.425-1.267
		c0.155-0.377,0.361-0.736,0.566-1.091c0.233-0.401,0.481-0.793,0.74-1.178c0.266-0.396,0.537-0.791,0.834-1.164
		c0.627-0.787,1.257-1.573,1.917-2.333c0.605-0.698,1.247-1.366,1.881-2.039c0.152-0.161,0.404-0.259,0.492-0.442
		c0.252-0.53,0.787-0.689,1.219-0.724c0.434-0.035,0.909,0.232,1.251,0.628c0.618,0.714,1.253,1.417,1.921,2.085
		c0.581,0.581,1.318,0.891,2.072,1.234c0.908,0.414,1.895,0.029,2.747,0.522c0.127,0.073,0.385-0.101,0.588-0.136
		c0.271-0.047,0.548-0.064,0.821-0.103c0.909-0.128,1.838-0.185,2.722-0.414c0.812-0.21,1.572-0.615,2.36-0.922
		c0.658-0.257,1.336-0.469,1.981-0.754c0.487-0.215,0.934-0.521,1.405-0.776c0.565-0.307,1.14-0.597,1.705-0.905
		c0.411-0.225,0.825-0.448,1.216-0.706c0.64-0.423,1.279-0.851,1.887-1.318c1.236-0.948,2.508-1.843,3.695-2.865
		c0.818-0.704,1.604-1.43,2.384-2.173c0.958-0.913,1.87-1.851,2.655-2.926c0.553-0.758,1.001-1.544,1.384-2.402
		c0.537-1.206,0.256-2.425,0.205-3.627c-0.03-0.71-0.311-1.455-0.648-2.096c-0.413-0.786-0.875-1.558-1.811-1.941
		c-0.698-0.285-1.292-0.819-1.958-1.195c-0.352-0.198-0.766-0.282-1.142-0.44c-0.135-0.057-0.269-0.119-0.402-0.181
		c-0.126-0.062-0.253-0.122-0.38-0.18c-0.135-0.064-0.27-0.127-0.406-0.187c-0.254-0.111-0.51-0.223-0.77-0.318
		c-0.147-0.061-0.294-0.121-0.44-0.182c-0.905-0.374-1.832-0.696-2.78-0.938c-2.05-0.524-4.171-0.806-6.294-0.833
		c-0.227-0.051-0.455-0.095-0.682-0.129c-0.388-0.107-0.79-0.162-1.207-0.163c-0.085,0.012-0.171,0.023-0.257,0.035
		c-1.175-0.037-2.347,0.062-3.51,0.13c-0.822,0.048-1.694,0.128-2.527,0.279c-0.666,0.121-1.305,0.384-1.957,0.583
		c-0.396,0.12-0.786,0.273-1.191,0.348c-1.212,0.224-2.225,0.909-3.256,1.492c-0.727,0.412-1.262,1.16-1.89,1.75
		c-0.448,0.421-0.619,0.919-0.738,1.536c-0.143,0.742-0.637,1.409-0.882,2.14c-0.257,0.767-0.822,1.222-1.38,1.734
		c-0.421,0.386-0.927,0.308-1.236,0.146c-0.774-0.408-1.541-0.876-1.911-1.784c-0.189-0.464-0.578-0.844-0.853-1.278
		c-0.168-0.265-0.279-0.567-0.436-0.84c-0.477-0.828-0.948-1.661-1.454-2.472c-0.412-0.661-0.858-1.302-1.309-1.938
		c-0.737-1.039-1.129-2.177-0.98-3.457c0.027-0.232,0.212-0.446,0.325-0.668c0.149,0.087,0.316,0.154,0.445,0.265
		c0.411,0.355,0.808,0.725,1.21,1.09c0.401,0.363,0.848,0.621,1.407,0.626c0.377,0.003,0.756,0.03,1.13,0.001
		c0.847-0.065,1.411-0.582,1.912-1.216c0.512-0.649,0.451-1.428,0.272-2.087c-0.147-0.541-0.656-1.024-1.095-1.437
		c-0.669-0.63-1.529-0.766-2.424-0.666c-0.142,0.016-0.276,0.113-0.418,0.125c-0.273,0.023-0.552,0.039-0.823,0.007
		c-0.194-0.023-0.377-0.131-0.602-0.215c-0.124-0.489-0.256-1.01-0.427-1.684c0.815-0.111,1.494-0.272,2.175-0.282
		c1-0.014,1.725-0.492,2.352-1.13c0.158-0.103,0.307-0.226,0.443-0.372c0.773-0.835,0.991-2.045,0.417-3.064
		c-0.568-1.008-1.816-1.731-2.985-1.325c-0.293,0.102-0.561,0.237-0.798,0.402c-0.423,0.233-0.978,0.309-1.309,0.745
		c-0.201,0.266-0.429,0.546-0.517,0.857c-0.23,0.803-0.456,0.966-1.342,0.805c-0.144-0.736,0.187-1.401,0.855-1.657
		c0.57-0.219,0.831-0.699,1.189-1.147c0.43-0.538,0.218-1.155,0.46-1.707c0.138-0.315-0.203-0.859-0.372-1.282
		c-0.093-0.232-0.257-0.446-0.422-0.639c-0.803-0.936-1.894-0.795-2.891-0.596c-0.456,0.091-0.887,0.612-1.2,1.035
		c-0.456,0.615-0.73,1.342-0.685,2.137c0.01,0.182,0.133,0.355,0.185,0.537c0.044,0.158,0.106,0.33,0.081,0.484
		c-0.072,0.45-0.187,0.893-0.267,1.342c-0.5,0.375-1.036,0.603-1.52,0.387c-0.255-0.238-0.481-0.529-0.572-0.72
		c-0.433-0.905-0.159-1.876-0.359-2.775c-0.189-0.853-0.583-1.646-1.377-2.237c-0.571-0.426-1.228-0.546-1.814-0.868
		c-0.105-0.058-0.268-0.063-0.388-0.031c-1.041,0.278-1.974,0.636-2.549,1.708c-0.447,0.833-0.356,1.665-0.204,2.44
		c0.151,0.768,0.728,1.438,1.398,1.91c0.126,0.089,0.264,0.162,0.405,0.229c0.375,0.337,0.784,0.644,1.188,0.939
		c0.083,0.061,0.174,0.102,0.269,0.129c0.029,0.067,0.05,0.135,0.058,0.201c0.063,0.518-0.005,1.025-0.216,1.569
		c-0.016,0.042-0.033,0.08-0.051,0.118c-0.113,0.134-0.208,0.28-0.283,0.434c-0.122,0.126-0.263,0.217-0.433,0.288
		c-1.254-0.415-2.643-0.329-3.862,0.186c-0.919,0.146-1.618,0.695-2.124,1.504c-0.204,0.326-0.114,0.836-0.157,1.262
		c-0.129,1.27,0.502,2.289,1.475,2.842c0.74,0.421,1.675,0.729,2.724,0.266c0.682-0.301,1.277-0.625,1.814-1.109
		c0.192-0.173,0.394-0.336,0.517-0.439c0.672,0.773,1.258,1.433,1.825,2.109c0.093,0.111,0.149,0.289,0.149,0.436
		c-0.001,0.829-0.006,1.659-0.051,2.487c-0.013,0.246-0.2,0.478-0.242,0.727c-0.115,0.674,0.16,1.217,0.464,1.827
		c0.309,0.621,0.877,1.072,1.246,1.645c-0.017,0.201,0.024,0.417,0.146,0.638c0.04,0.072,0.074,0.147,0.102,0.223
		c-0.052,0.265-0.168,0.511-0.352,0.691c-0.217,0.212-0.478,0.354-0.755,0.424c-0.308-0.064-0.615-0.132-0.922-0.197
		c-0.125-0.027-0.25-0.063-0.376-0.074c-0.07-0.006-0.141-0.012-0.211-0.018c-0.146-0.042-0.289-0.05-0.423-0.031
		c-1.238-0.081-2.489-0.102-3.682-0.377c-1.63-0.377-3.243-0.207-4.86-0.216c-1.22-0.007-2.449,0.157-3.66,0.343
		c-0.924,0.142-1.857,0.35-2.725,0.685c-1.104,0.427-2.149,1.008-3.215,1.53c-1.123,0.55-2.083,1.334-2.98,2.185
		c-0.581,0.55-1.089,1.18-1.609,1.791c-0.542,0.636-1.088,1.273-1.579,1.948c-0.326,0.448-0.538,0.976-0.836,1.445
		c-0.35,0.549-0.75,1.066-1.107,1.611c-0.311,0.474-0.582,0.974-0.889,1.451c-0.277,0.429-0.594,0.832-0.866,1.264
		c-0.296,0.47-0.539,0.974-0.844,1.438c-0.355,0.54-0.74,1.063-1.139,1.572c-0.211,0.268-0.464,0.509-0.726,0.731
		c-0.555,0.471-0.999,0.319-1.153-0.392c-0.139-0.642-0.224-1.298-0.388-1.933c-0.162-0.628-0.396-1.238-0.592-1.857
		c-0.034-0.106-0.042-0.222-0.052-0.334c-0.084-1.016-0.467-1.928-0.951-2.81c-0.172-0.313-0.261-0.669-0.407-0.997
		c-0.232-0.521-0.469-1.039-0.723-1.549c-0.21-0.42-0.426-0.84-0.679-1.236c-0.333-0.521-0.703-1.017-1.058-1.523
		c-0.441-0.629-0.845-1.289-1.334-1.879c-0.443-0.535-0.959-1.014-1.476-1.482c-0.617-0.56-1.222-1.156-1.921-1.598
		c-0.583-0.369-1.291-0.544-1.948-0.794c-0.303-0.115-0.625-0.308-0.924-0.284c-1.341,0.109-2.496,0.529-3.238,1.813
		c-0.469,0.812-1.16,1.494-1.73,2.25c-0.309,0.41-0.579,0.85-0.856,1.283c-0.294,0.459-0.577,0.926-0.865,1.389l-0.153-0.016
		c0-0.153-0.053-0.332,0.008-0.455c0.453-0.904,0.359-1.76,0.007-2.695c-0.184-0.488-0.527-0.761-0.819-1.104
		c-0.349-0.41-1.691-0.456-2.227-0.272c-0.503,0.173-0.943,0.383-1.234,0.823c-0.208,0.315-0.441,0.649-0.518,1.005
		c-0.098,0.452-0.051,0.936-0.066,1.406c-0.021,0.655,0.258,1.177,0.625,1.709c0.294,0.426,0.417,0.969,0.615,1.459
		c-0.835,0.39-1.079,0.188-1.239-0.625c-0.254-1.292-0.622-2.538-1.892-3.307c-0.988-0.598-2.468-0.397-3.173,0.496
		c-0.632,0.8-0.811,1.706-0.62,2.642c0.134,0.656,0.518,1.27,1.135,1.63c0.31,0.181,0.692,0.233,1.025,0.379
		c0.276,0.121,0.564,0.26,0.774,0.465c0.085,0.083,0.046,0.417-0.053,0.545c-0.616,0.791-1.798,0.584-2.254-0.338
		c-0.131-0.265-0.406-0.477-0.655-0.661c-0.669-0.495-1.457-0.379-2.221-0.39c-0.634-0.009-1.126,0.253-1.562,0.691
		c-0.378,0.379-0.651,0.793-0.65,1.349c0,0.094,0.004,0.191-0.013,0.282c-0.253,1.332,0.643,2.026,1.527,2.71
		c0.127,0.099,0.368,0.038,0.55,0.081c0.224,0.053,0.439,0.143,0.661,0.206c0.12,0.034,0.255,0.085,0.368,0.06
		c0.404-0.089,0.8-0.211,1.201-0.313c0.5-0.128,1.001-0.25,1.573-0.392c0.083,0.034,0.166,0.069,0.248,0.103
		c0.003,0.582,0.019,1.026-0.009,1.464c-0.018,0.286-0.806,0.893-1.136,0.905c-1.364,0.049-2.423,0.736-3.184,1.768
		c-0.666,0.904-0.692,2.107-0.32,3.08c0.288,0.75,0.926,1.54,1.964,1.61c0.119,0.008,0.233,0.088,0.35,0.133
		c0.118,0.045,0.25,0.149,0.352,0.124c1.149-0.278,2.223-0.727,2.937-1.719c0.238-0.331,0.286-0.799,0.426-1.202
		c0.116-0.334,0.326-0.587,0.562-0.819c0.3-0.11,0.543-0.344,0.665-0.638c0.333-0.364,0.674-0.328,1.05-0.215
		c0.144,0.043,0.281,0.113,0.441,0.198c0.114,0.386,0.228,0.771,0.341,1.157c-0.006,0.742-0.01,1.485-0.023,2.227
		c-0.022,1.234,0.482,2.223,1.417,2.997c0.125,0.103,0.354,0.081,0.535,0.115c0.057,0.011,0.115,0.022,0.172,0.032
		c1.43,0.499,3.209-0.048,4.073-1.291c0.05-0.068,0.098-0.139,0.142-0.213c0.357-0.601,0.664-1.332,0.375-2.081
		c-0.082-0.707-0.367-1.386-0.878-1.902c-0.208-0.292-0.477-0.529-0.84-0.689c-0.233-0.102-0.559-0.347-0.562-0.531
		c-0.004-0.263,0.187-0.613,0.405-0.78c0.809-0.617,1.668-1.17,2.501-1.757c0.408-0.288,0.787-0.621,1.207-0.89
		c0.231-0.148,0.515-0.216,0.892-0.359c0.02,0.002,0.041,0.005,0.061,0.007c0.097,0.3,0.221,0.634,0.304,0.978
		c0.048,0.197,0.008,0.414,0.031,0.62c0.12,1.066,0.204,2.138,0.387,3.193c0.161,0.925,0.391,1.845,0.674,2.741
		c0.17,0.54,0.378,1.071,0.602,1.594c0.344,1.56,0.833,3.091,1.457,4.555c-0.042,0.053-0.085,0.104-0.128,0.152
		c-0.515,0.582-1.081,1.134-1.692,1.613c-0.432,0.339-0.98,0.526-1.465,0.802c-0.236,0.135-0.467,0.28-0.698,0.425l-6.29,2.938
		c-0.608,0.236-1.215,0.473-1.808,0.744c-0.659,0.301-1.287,0.67-1.932,1.003l-0.33,0.154c-0.053,0.008-0.105,0.018-0.158,0.026
		c-0.458,0.072-0.911,0.288-1.323,0.58c-0.213,0.081-0.424,0.166-0.629,0.263c-0.408,0.192-0.79,0.437-1.18,0.668
		c-2.007,0.937-4.013,1.874-6.02,2.811c-0.274,0.04-0.542,0.136-0.784,0.297c-8.571,5.679-14.92,15.46-13.916,26.05
		C7.932,111.932,10.046,116.993,13.822,120.74z"/>
</g>
</svg>
