<?xml version="1.0" encoding="iso-8859-1"?>
<!-- Generator: Adobe Illustrator 17.1.0, SVG Export Plug-In . SVG Version: 6.00 Build 0)  -->
<!DOCTYPE svg PUBLIC "-//W3C//DTD SVG 1.1//EN" "http://www.w3.org/Graphics/SVG/1.1/DTD/svg11.dtd">
<svg version="1.1" id="Capa_1" xmlns="http://www.w3.org/2000/svg" xmlns:xlink="http://www.w3.org/1999/xlink" x="0px" y="0px"
	 viewBox="0 0 150 150" style="enable-background:new 0 0 150 150;" xml:space="preserve">
<g>
<path d="M146.193,38.253c-0.166-0.622-0.527-0.721-1.064-0.289c-0.086,0.069-0.196,0.054-0.252-0.041
	c-0.198-0.337-0.397-0.676-0.603-1.026c-0.056-0.095-0.118-0.257-0.16-0.351c-0.025-0.056-0.056-0.11-0.094-0.161
	c-0.028-0.038-0.057-0.075-0.086-0.112c-0.049-0.061-0.134-0.185-0.19-0.281c-0.222-0.377-0.455-0.774-0.706-1.203
	c-0.056-0.095-0.189-0.183-0.299-0.197c-1.317-0.165-2.917-0.365-4.544-0.569c-0.11-0.014-0.261-0.091-0.351-0.154
	c-0.174-0.121-0.393-0.197-0.658-0.202c-3.757-0.074-7.559,0.87-10.82,2.751c-3.343,1.928-5.852,4.708-8.017,7.863
	c-3.852,5.612-8.345,13.673-16.464,11.856c-2.389-0.535-4.623-1.528-6.924-2.338c-2.102-0.74-4.247-1.36-6.425-1.829
	c-4.371-0.94-8.862-1.393-13.333-1.277c-3.474,0.09-6.931,0.491-10.321,1.198c-0.108,0.023-0.278,0.009-0.383-0.026
	c-0.217-0.071-0.516-0.154-0.56-0.12c-0.714,0.553-1.527,0.564-2.389,0.674c-0.439,0.056-1.132,0.399-1.442,0.568
	c-0.097,0.053-0.199,0.022-0.262-0.061s-0.199-0.12-0.303-0.082c-0.33,0.118-0.659,0.236-0.989,0.354
	c-0.104,0.037-0.241-0.009-0.339-0.06c-0.257-0.134-0.735-0.186-0.838-0.022c-0.391,0.622-1.439,0.894-2.138,0.797
	c-0.498-0.069-1.048,0.211-1.569,0.358c-0.371,0.104-0.725,0.274-1.099,0.363c-1.466,0.35-2.986,0.546-4.392,1.058
	c-0.347,0.126-0.695,0.216-1.044,0.287c-0.108,0.022-0.261-0.026-0.351-0.09c-0.286-0.203-0.645-0.294-0.974-0.158
	c-5.253,2.16-10.941,1.003-16.361,0.253c-2.929-0.405-5.949-0.701-8.885-0.435c-0.11,0.01-0.289,0.005-0.398-0.009
	c-1.703-0.218-3.395,0.037-5.087,0.294c-3.463,0.525-6.797,1.453-9.911,3.102c-1.247,0.661-1.902,1.772-2.388,3.006
	c-0.26,0.659,0.355,1.331,1.039,1.573c0.663,0.235,1.235,0.726,1.849,1.103c0.107,0.066,0.285,0.197,0.323,0.166
	c0.626-0.504,1.126,0.222,1.709,0.163c0.41-0.042,0.86,0.121,1.24,0.011c1.364-0.395,2.772-0.727,4.039-1.34
	c2.193-1.06,4.29-2.316,6.432-3.48c0.994-0.54,1.998-1.06,3.003-1.578c0.107-0.055,0.263-0.068,0.381-0.038
	c1.129,0.287,2.253,0.593,3.382,0.883c1.514,0.388,3.025,0.791,4.547,1.144c2.604,0.603,5.205,1.229,7.828,1.736
	c2.124,0.41,4.289,0.61,6.419,0.992c2.888,0.519,5.871,0.737,8.488,2.249c0.945,0.546,1.902,1.117,2.506,2.107
	c0.871,1.428,2.042,2.32,3.817,2.488c2.085,0.197,2.978,1.195,3.332,3.228c0.209,1.202,0.495,2.392,0.648,3.6
	c0.043,0.344-0.153,0.882-0.423,1.075c-2.454,1.75-3.726,4.263-4.551,7.034c-0.584,1.961-1.778,3.502-3.162,4.896
	c-1.493,1.504-3.037,2.953-4.926,4.015c-1.375,0.773-1.981,2.224-2.241,3.705c-0.445,2.53-1.107,4.994-2.277,7.264
	c-0.499,0.968-1.515,1.677-2.619,1.988c-0.362,0.102-0.806-0.092-1.228-0.208c-0.106-0.029-0.212,0.042-0.204,0.152
	c0.054,0.685,0.937,1.426,1.889,1.427c0.928,0.001,1.042,0.305,0.886,1.265c-0.176,1.081-0.141,2.197-0.182,3.299
	c-0.005,0.151,0.033,0.355,0.133,0.45c0.84,0.804,0.748,1.739,0.429,2.787c-0.032,0.106,0.03,0.193,0.14,0.186
	c0.864-0.055,1.311-0.592,1.685-1.31c0.051-0.098,0.134-0.101,0.195-0.009c0.876,1.319,2.131,0.904,3.36,0.794
	c0.789-0.07,1.595,0.048,2.465,0.106c0.11,0.007,0.151-0.063,0.092-0.156c-0.069-0.107-0.141-0.219-0.215-0.333
	c-0.06-0.093-0.079-0.259-0.108-0.366c-0.023-0.086-0.08-0.165-0.18-0.223c-0.021-0.012-0.042-0.023-0.064-0.034
	c-0.036-0.018-0.12-0.103-0.201-0.178c-0.41-0.382-0.988-0.479-1.561-0.555c-1.287-0.169-1.531-0.29-1.643-1.588
	c-0.076-0.88,0.111-1.787,0.212-2.678c0.099-0.868,0.334-1.731,0.341-2.598c0.019-2.524,0.748-4.867,1.675-7.168
	c0.145-0.361,0.407-0.677,0.629-1.005c0.252-0.373,0.646-0.701,0.759-1.11c0.629-2.28,2.394-3.657,4.011-5.139
	c1.933-1.771,4.111-3.188,6.5-4.281c1.857-0.85,3.704-1.72,5.544-2.604c0.335-0.161,0.629-0.405,1.075-0.718
	c0.09-0.063,0.185-0.027,0.211,0.081c0.327,1.341,0.764,2.57,0.849,3.823c0.123,1.819-0.003,3.66-0.111,5.487
	c-0.042,0.701-0.25,1.419-0.518,2.074c-0.952,2.331-0.957,4.668,0.221,6.857c0.703,1.306,0.577,2.577,0.507,3.903
	c-0.032,0.605-0.102,1.212-0.209,1.809c-0.082,0.455-0.227,0.899-0.375,1.426c-0.03,0.106,0.036,0.187,0.145,0.166
	c0.585-0.116,1-0.56,1.419-1.264c0.056-0.095,0.1-0.083,0.103,0.027c0.014,0.599,0.082,1.03-0.021,1.417
	c-0.323,1.223,0.344,2.081,0.953,2.985c0.189,0.28,0.4,0.593,0.446,0.912c0.122,0.864,0.598,1.131,1.422,1.123
	c1.009-0.01,2.019,0.091,3.028,0.131c0.236,0.009,0.5,0.028,0.706-0.062c0.838-0.361,1.634-0.387,2.366,0.124
	c0.091,0.063,0.208,0.046,0.273-0.043c1.007-1.38,2.023-0.51,3.182,0.137c0.096,0.054,0.126,0.021,0.063-0.07
	c-0.812-1.149-1.763-1.73-2.946-1.815c-0.11-0.008-0.117-0.043-0.011-0.073c0.41-0.115,0.855-0.096,1.263,0.083
	c0.467,0.205,0.874-0.483,0.403-0.689c-0.722-0.317-1.499-0.332-2.188-0.053c-0.102,0.042-0.226,0.08-0.279,0.078
	c-0.032-0.001-0.064-0.003-0.097-0.004c-0.182-0.006-0.367,0.076-0.548,0.067c-2.188-0.101-2.495-0.407-3.348-2.487
	c-0.905-2.207-2.009-4.342-2.401-6.72c-0.192-1.165-0.193-2.36-0.309-3.539c-0.055-0.56-0.185-1.111-0.269-1.669
	c-0.018-0.121,0.013-0.249,0.025-0.374c0.072-0.758,0.244-1.522,0.199-2.273c-0.215-3.664,0.42-7.137,2.151-10.392
	c0.561-1.056,1.262-2.072,1.615-3.195c0.48-1.53,0.813-3.134,0.967-4.73c0.105-1.09,0.705-1.453,1.534-1.765
	c0.483-0.182,0.952-0.273,1.397,0.097c0.085,0.07,0.089,0.209,0.021,0.296c-0.69,0.884-1.228,1.831-0.734,3.052
	c0.041,0.102,0.123,0.103,0.176,0.006c0.334-0.617,0.646-1.192,0.956-1.764c0.053-0.097,0.142-0.156,0.199-0.132
	s0.118,0.132,0.135,0.241c0.034,0.22,0.067,0.434,0.096,0.618c0.017,0.109,0.082,0.124,0.145,0.034
	c0.794-1.131,1.598-2.277,2.403-3.424c0.063-0.09,0.176-0.139,0.251-0.108s0.118,0.143,0.097,0.252
	c-0.251,1.273-0.423,2.527,0.911,3.426c0.092,0.062,0.134,0.025,0.097-0.079c-0.631-1.779,0.42-3.085,1.269-4.589
	c0.054-0.096,0.113-0.088,0.134,0.021c0.097,0.521,0.183,0.978,0.279,1.492c0.02,0.109,0.126,0.207,0.235,0.22
	c0.223,0.026,0.476,0.056,0.75,0.088c0.11,0.013,0.223,0.11,0.226,0.221c0.02,0.601-0.631,0.873-1.095,1.242
	c-0.356,0.283-0.731,0.55-1.038,0.869c-0.076,0.08-0.167,0.175-0.198,0.215s-0.102,0.15-0.159,0.245
	c-0.127,0.21-0.22,0.445-0.265,0.719c-0.056,0.34-0.03,0.694-0.017,0.983c0.005,0.11,0.074,0.143,0.157,0.071
	c0.708-0.614,1.363-1.316,2.163-1.752c0.774-0.422,1.175-1.426,2.079-1.616c0.108-0.023,0.238,0.03,0.288,0.102
	s0.02,0.183-0.068,0.249c-0.499,0.379-0.995,0.762-1.5,1.133c-1.268,0.932-1.942,2.87-1.456,4.435
	c0.033,0.105,0.089,0.104,0.12-0.003c0.076-0.266,0.131-0.456,0.183-0.647c0.273-0.99,0.801-1.778,1.746-2.249
	c0.162-0.081,0.338-0.192,0.435-0.337c0.725-1.094,1.847-1.642,2.956-2.226c0.343-0.18,0.623-0.48,0.928-0.729
	c0.428-0.349,0.861-0.694,1.279-1.056c0.433-0.375,0.85-0.77,1.275-1.154c0.366-0.331,0.732-0.66,1.098-0.99
	C98.45,74.02,98.561,74,98.615,74.05s0.053,0.168-0.003,0.264c-0.117,0.202-0.231,0.407-0.368,0.594
	c-0.708,0.961-1.41,1.928-2.15,2.864c-1.003,1.268-1.158,2.648-0.605,4.127c0.093,0.248,0.263,0.467,0.501,0.659
	c0.086,0.069,0.157,0.03,0.153-0.08c-0.012-0.291-0.021-0.583-0.051-0.872c-0.115-1.086,0.389-1.882,1.136-2.596
	c0.277-0.265,0.569-0.583,0.686-0.932c0.453-1.358,1.465-2.253,2.346-3.311c0.983-1.179,2.65-2.18,2.22-4.178
	c-0.007-0.034-0.003-0.07,0.003-0.096c0.013-0.052,0.092-0.009,0.196-0.047c1.224-0.444,2.368-0.76,3.385-1.31
	c0.568-0.307,0.911-1.048,1.319-1.62c0.149-0.208,0.212-0.488,0.277-0.745c0.605-2.409,2.463-3.385,4.624-3.843
	c4.142-0.878,6.939-3.336,8.744-7.065c1.214-2.509,2.318-5.08,3.689-7.5c1.048-1.85,2.217-3.647,4.091-4.908
	c1.222-0.822,2.476-1.259,3.867-1.216c3.339,0.103,5.564,1.793,8.609,3.214c1.01,0.471,1.96,0.371,2.652-0.343
	c0.077-0.079,0.058-0.198-0.036-0.256c-0.015-0.009-0.03-0.019-0.046-0.028c-0.094-0.057-0.082-0.116,0.025-0.146
	c0.088-0.025,0.168-0.057,0.231-0.099c0.268-0.179-0.386-0.212-0.954-0.681c-0.085-0.07-0.153-0.15-0.16-0.17
	c-0.004-0.012-0.008-0.024-0.013-0.035c-0.004-0.009-0.006-0.025-0.009-0.041c-0.004-0.023,0.075-0.008,0.182,0.019
	c0.136,0.035,0.279,0.051,0.423,0.033c0.314-0.039,0.149-0.119-0.125-0.349c-0.085-0.071-0.193-0.21-0.248-0.306l-0.163-0.287
	c-0.055-0.096-0.013-0.152,0.095-0.143c0.064,0.005,0.13,0.005,0.195-0.003c0.378-0.047,0.065-0.153-0.301-0.513
	c-0.079-0.077-0.138-0.201-0.14-0.269s0.062-0.11,0.144-0.107c0.049,0.002,0.099,0.001,0.149-0.005
	c0.336-0.042,0.126-0.125-0.182-0.394c-0.083-0.073-0.153-0.227-0.167-0.337c-0.009-0.077-0.02-0.149-0.033-0.214
	c-0.021-0.108,0.021-0.142,0.117-0.087c0.169,0.097,0.414,0.226,0.683,0.366c0.098,0.051,0.188,0.18,0.2,0.29
	c0.024,0.225,0.04,0.305,0.204,0.108c0.018-0.022,0.034-0.045,0.049-0.069c0.025-0.039,0.111-0.037,0.195,0.007
	c0.084,0.044,0.174,0.169,0.192,0.278c0.067,0.419,0.018,0.655,0.239,0.39c0.042-0.05,0.076-0.104,0.106-0.16
	c0.05-0.094,0.122-0.099,0.174-0.002c0.048,0.09,0.106,0.199,0.153,0.288c0.052,0.098,0.111,0.264,0.125,0.374
	c0.047,0.355,0.025,0.536,0.227,0.293c0.041-0.049,0.075-0.102,0.104-0.157c0.049-0.092,0.128-0.1,0.191-0.01
	c0.002,0.003,0.004,0.005,0.006,0.008c0.063,0.091,0.113,0.255,0.105,0.365c-0.036,0.492-0.184,0.813,0.045,0.712
	c0.078-0.034,0.156-0.093,0.233-0.165c0.081-0.076,0.187-0.07,0.263,0.011c0.319,0.339,0.642,0.264,0.923-0.2
	c0.309-0.512,0.561-1.059,0.859-1.65c0.05-0.099,0.006-0.205-0.097-0.246c-1.357-0.535-1.477-1.786-1.844-2.64
	C146.176,38.695,146.246,38.454,146.193,38.253z"/>
</g>
</svg>
