<?xml version="1.0" encoding="iso-8859-1"?>
<!-- Generator: Adobe Illustrator 17.1.0, SVG Export Plug-In . SVG Version: 6.00 Build 0)  -->
<!DOCTYPE svg PUBLIC "-//W3C//DTD SVG 1.1//EN" "http://www.w3.org/Graphics/SVG/1.1/DTD/svg11.dtd">
<svg version="1.1" id="Capa_1" xmlns="http://www.w3.org/2000/svg" xmlns:xlink="http://www.w3.org/1999/xlink" x="0px" y="0px"
	 viewBox="0 0 150 150" style="enable-background:new 0 0 150 150;" xml:space="preserve">
<g>
	<path d="M30.724,108.953c0.68,1.354,0.778,2.759,0.67,4.238c-0.094,1.281-0.086,2.574-0.032,3.858
		c0.03,0.705,0.251,1.402,0.385,2.103c0.168-0.334,0.248-0.649,0.335-0.963c0.585-2.094,1.451-4.107,1.696-6.297
		c0.28-2.501,0.304-4.948-0.987-7.187C31.19,97.6,35.984,93.317,39.83,88.276c-0.055,2.531-0.059,5.064-0.067,7.596
		c-0.016,4.462-0.387,8.884-1.339,13.251c-0.545,2.502-0.625,5.032-0.232,7.561c0.228,1.466,0.284,2.915-0.021,4.37
		c-1.004,4.796-1.383,9.682-2.114,14.517c-0.071,0.471,0.058,0.75,0.421,1.057c0.984,0.83,1.146,1.284,0.488,2.58
		c-0.133,0.262-0.254,0.539-0.319,0.824c-0.077,0.334,0.005,0.596,0.362,0.801c0.472,0.271,0.949,0.431,1.476,0.336
		c0.725-0.131,1.438-0.324,2.162-0.464c0.382-0.074,0.449-0.286,0.34-0.604c-0.052-0.151-0.113-0.317-0.221-0.428
		c-0.463-0.477-0.939-0.941-1.421-1.4c-0.348-0.331-0.551-0.694-0.521-1.205c0.05-0.874,0.035-1.751,0.063-2.626
		c0.092-2.862,0.142-5.726,0.299-8.585c0.192-3.509,0.515-7.009,1.06-10.484c0.105-0.67,0.168-1.38,0.448-1.98
		c0.424-0.914,0.697-1.847,0.878-2.829c0.344-1.866,0.725-3.725,1.468-5.485c1.161-2.748,2.645-5.307,4.508-7.638
		c0.303-0.379,0.577-0.77,0.837-1.166c0.133,0.234,0.301,0.44,0.501,0.616c-0.033,0.145-0.047,0.296-0.01,0.422
		c0.648,2.224,1.194,4.468,1.318,6.792c0.124,2.325-0.01,4.623-0.776,6.85c-0.064,0.187-0.094,0.416-0.05,0.604
		c0.738,3.163,1.637,6.282,2.794,9.317c1.965,5.153,3.92,10.306,5.018,15.735c0.052,0.256,0.186,0.367,0.449,0.399
		c0.337,0.041,0.669,0.129,1.001,0.207c0.814,0.191,1.196,0.946,0.694,1.684c-0.335,0.491-0.282,0.589,0.237,0.892
		c0.114,0.066,0.239,0.126,0.367,0.151c1.086,0.207,2.155,0.042,3.221-0.162c0.216-0.041,0.28-0.17,0.181-0.395
		c-0.65-1.487-1.143-1.798-2.755-1.717c-0.011,0-0.022-0.018-0.059-0.05c0.345-0.986,0.12-1.923-0.323-2.845
		c-0.398-0.828-0.76-1.674-1.128-2.516c-2.094-4.789-3.993-9.64-4.729-14.861c-0.292-2.071-0.531-4.138-0.313-6.242
		c0.119-1.154,0.392-2.197,1.116-3.126c0.244-0.313,0.397-0.738,0.472-1.134c0.416-2.194,1.087-4.308,1.932-6.369
		c0.324-0.792,0.669-1.579,1.018-2.394c0.318-0.119,0.61-0.307,0.84-0.581c0.034-0.041,0.066-0.089,0.101-0.131
		c0.22,0.003,0.438,0.018,0.659,0.012c0.059-0.001,0.117-0.006,0.176-0.008c1.699,0.148,3.395,0.031,5.039-0.332
		c0.035-0.005,0.07-0.007,0.106-0.013c1.791-0.269,3.423-0.882,4.834-1.931c0.864-0.512,1.685-1.109,2.457-1.778
		c-0.305,0.786-0.643,1.566-0.792,2.381c-0.317,1.725-0.268,3.482-0.081,5.232c0.161,1.504,0.295,3.011,0.396,4.52
		c0.124,1.838-0.234,3.633-0.574,5.425c-0.286,1.51-0.41,3.024-0.21,4.554c0.104,0.794,0.251,1.582,0.341,2.377
		c0.257,2.266,0.103,4.53-0.025,6.798c-0.147,2.605-0.48,5.197-0.42,7.817c0.061,2.725,0.289,5.413,1.131,8.024
		c0.067,0.211,0.02,0.494-0.062,0.71c-0.196,0.52-0.056,0.722,0.506,0.7c0.334-0.013,0.672,0.027,1.008,0.044
		c-0.232,0.263-0.486,0.391-0.697,0.569c-0.104,0.088-0.195,0.283-0.171,0.406c0.022,0.117,0.185,0.245,0.315,0.296
		c0.232,0.091,0.483,0.142,0.731,0.184c1.065,0.185,2.134,0.241,3.206,0.077c-0.037-1.615-0.048-1.602-1.217-2.652
		c-0.26-0.233-0.485-0.567-0.591-0.897c-0.216-0.675-0.324-1.383-0.504-2.071c-0.418-1.592-0.861-3.186-0.882-4.842
		c-0.022-1.824-0.052-3.655,0.08-5.472c0.208-2.882,0.479-5.764,0.854-8.628c0.368-2.82,0.884-5.621,1.363-8.425
		c0.546-3.199,1.075-6.402,1.702-9.585c0.54-2.746,1.206-5.468,1.817-8.2c0.034-0.15,0.074-0.298,0.111-0.447
		c0.086,0.054,0.107,0.104,0.111,0.154c0.213,2.973,0.484,5.944,0.609,8.921c0.063,1.489-0.185,2.989-0.219,4.485
		c-0.082,3.634-0.134,7.269-0.171,10.903c-0.012,1.171,0.002,2.348,0.103,3.514c0.254,2.969,0.53,5.937,0.861,8.898
		c0.287,2.563,0.668,5.115,0.99,7.674c0.048,0.384,0.21,0.553,0.584,0.612c0.696,0.109,1.05,0.635,1.269,1.223
		c0.297,0.798,0.357,1.638,0.211,2.46c0.517,0.126,1,0.257,1.491,0.361c0.691,0.147,1.382,0.313,2.082,0.397
		c0.485,0.058,0.741-0.182,0.731-0.678c-0.008-0.402-0.044-0.877-0.26-1.186c-0.648-0.932-1.564-1.542-2.677-1.822
		c-0.254-0.064-0.514-0.106-0.769-0.157c-0.029-0.247-0.054-0.467-0.082-0.687c-0.22-1.81-0.472-3.617-0.65-5.431
		c-0.233-2.361-0.422-4.727-0.6-7.093c-0.117-1.553-0.227-3.109-0.252-4.665c-0.022-1.378,0.087-2.758,0.118-4.138
		c0.085-3.873,0.326-7.735,0.811-11.58c0.34-2.697,0.888-5.347,1.827-7.908c0.311-0.848,0.649-1.698,0.833-2.577
		c0.58-2.763,0.786-5.574,0.993-8.384c0.077-1.05,0.097-2.117,0.314-3.14c0.22-1.037,0.617-2.042,1.002-3.035
		c0.249-0.641,0.249-1.276,0.152-1.92c-0.21-1.398-0.903-2.591-1.668-3.746c-0.352-0.532-0.726-1.049-1.063-1.589
		c-0.078-0.124-0.11-0.343-0.055-0.471c0.438-1.005,0.856-2.024,1.37-2.991c1.887-3.547,3.754-7.106,5.73-10.603
		c2.592-4.587,4.543-9.419,5.82-14.522c0.819-3.278,1.417-6.6,1.982-9.935c0.575-3.4,1.396-6.759,2.136-10.131
		c0.206-0.938,0.472-1.866,0.776-2.777c0.085-0.255,0.393-0.6,0.616-0.613c0.805-0.047,1.633-0.063,2.422,0.079
		c1.654,0.298,3.283,0.407,4.938,0.011c0.597-0.143,1.235-0.191,1.85-0.165c1.375,0.059,2.751,0.165,4.121,0.302
		c0.966,0.097,1.767-0.214,2.579-0.844c-0.283-0.346-0.488-0.712-0.793-0.948c-0.762-0.588-1.537-1.175-2.367-1.658
		c-1.421-0.827-2.889-1.572-4.335-2.355c-1.165-0.63-2.157-1.395-2.729-2.676c-0.411-0.92-1.204-1.357-2.305-1.292
		c-0.777,0.046-1.568,0.189-2.368-0.038c-0.472-0.134-0.84-0.341-1.143-0.697c-0.521-0.613-0.57-1.377-0.673-2.126
		c-0.144-1.047-0.328-1.202-1.377-1.205c-0.044,0-0.091,0.003-0.133-0.009c-0.571-0.169-0.97,0.153-1.346,0.494
		c-0.371,0.336-0.337,1.045,0.073,1.334c0.41,0.29,0.833,0.582,1.292,0.777c0.801,0.341,1.364,0.92,1.853,1.593
		c-0.452,0.889-0.908,1.133-1.835,0.935c-0.43-0.092-0.871-0.205-1.26-0.4c-0.479-0.24-0.818-0.118-1.129,0.244
		c-0.984,1.146-2.007,2.263-2.936,3.453c-1.473,1.885-2.57,3.995-3.303,6.266c-0.673,2.085-1.221,4.211-1.822,6.319
		c-1.205,4.228-2.582,8.388-4.919,12.156c-0.506,0.817-1.04,1.627-1.647,2.37c-2.736,3.342-5.912,6.258-9.161,9.073
		c-2.824,2.446-5.83,4.682-8.76,7.004c-0.383,0.303-0.842,0.521-1.186,0.86c-0.45,0.443-0.799,0.987-1.229,1.453
		c-0.996,1.078-1.998,2.15-3.03,3.192c-0.36,0.363-0.792,0.674-1.234,0.934c-2.629,1.548-5.531,2.419-8.423,3.287
		c-2.569,0.771-5.075,1.651-7.234,3.3c-0.564,0.431-1.219,0.818-1.616,1.378c-0.91,1.286-1.72,2.621-2.232,4.162
		c-0.504,1.515-0.912,3.045-1.229,4.59c-0.062,0.098-0.118,0.206-0.162,0.327c-1.696,4.649-5.703,7.869-8.512,11.827
		c-1.778,2.505-2.518,5.39-2.467,8.313c-0.548,1.194-0.574,2.484-0.22,3.713C29.523,106.645,30.146,107.802,30.724,108.953z"/>
</g>
</svg>
