<?xml version="1.0" encoding="iso-8859-1"?>
<!-- Generator: Adobe Illustrator 17.1.0, SVG Export Plug-In . SVG Version: 6.00 Build 0)  -->
<!DOCTYPE svg PUBLIC "-//W3C//DTD SVG 1.1//EN" "http://www.w3.org/Graphics/SVG/1.1/DTD/svg11.dtd">
<svg version="1.1" id="Capa_1" xmlns="http://www.w3.org/2000/svg" xmlns:xlink="http://www.w3.org/1999/xlink" x="0px" y="0px"
	 viewBox="0 0 150 150" style="enable-background:new 0 0 150 150;" xml:space="preserve">
<g>
<path d="M119.123,71.505c-3.4-2.825-7.341-5.416-9.939-9.05c-3.295-4.607,0.037-6.52,0.037-11.193
	c-5.725,0-6.523,9.056-4.905,12.994c2.273,5.495,7.927,8.412,11.839,12.578c8.207,8.742,3.221,26.669-10.55,24.864
	c-5.376-0.705-10.185-6.321-14.215-9.529c-4.081-3.256-8.33-5.892-12.974-8.245c-4.588-2.324-9.486-3.403-14.162-5.446
	c-5.81-2.527-6.19-8.524-4.961-14.052c2.822-12.691,14.166-23.474,11.468-37.241C68.435,15.323,56.75,6.676,45.011,5.914
	c-4.435-0.285-6.232,1.998-8.865,5.252c-3.628,4.468,3.831,5.374,6.957,4.711c5.575-1.182,9.33-0.382,12.463,4.924
	c3.525,5.965,2.073,13.094-1.72,18.618c-5.172,8.336-10.745,16.449-16.11,24.662c-2.232,3.416-3.715,7.4-4.623,11.363
	c-0.711,3.113-1.134,6.396-0.947,9.595c0.154,2.606,1.081,5.076,0.015,7.6c-2.083,4.959,5.529,8.065,1.274,12.581
	c-3.785,4.017-9.833,4.089-11.428,10.041c-0.554,2.066-1.083,4.721-3.324,5.632c-0.449,0.182-0.839,0.475-1.135,0.818
	c-2.255-0.285-4.772,1.229-3.318,1.541c1.225,0.263,2.733,0.78,3.538,1.069c0.165,0.084,0.35,0.159,0.573,0.211
	c0.746,0.183,1.21,0.668,1.624,1.21c-0.223,0.693-0.39,1.58-0.174,2.385c0.263,0.976,1.269,0.339,2.22-0.45
	c0.128,0.044,0.244,0.101,0.39,0.126c1.668,0.283,2.199,0.496,3.218,1.537c-0.132,1.176-0.067,2.417,0.61,3.037
	c1.5,1.375,0.803,0.003,3.714-4.177v0c2.098-2.457,4.132-6.415,4.887-7.286c2.521-2.904,8.982-7.425,11.311-2.188
	c1.401,3.182,1.187,6.124,1.326,9.514c0.22,4.862-1.595,6.174-4.023,9.119c-1.304,1.289-3.219,3.474-3.012,5.028
	c0.248,1.864,0.55,1.052,3.472-0.711c0.482,0.2,1.026,0.369,1.598,0.512c-0.32,1.082-0.453,2.144-0.1,2.868
	c0.876,1.802,0.857,0.7,3.541-2.301c0.808,0.08,1.515,0.117,2.003,0.125c-1.057,2.964-1.688,3.4,0.129,3.259
	c1.469-0.114,3.096-2.18,4.109-3.71c3-0.574,6.346-1.749,6.346-3.851c0-1.564-0.68-3.031-0.68-4.595c0-2.261,0.629-4.42,0.478-6.697
	c-0.206-3.119-1.065-6.147-0.996-9.29c4.605,1.43,9.341,2.369,14.078,3.236c-1.231,2.099-0.074,6.011-2.17,7.574
	c-1.121,1.215-3.837,1.433-5.191,2.855c-2.607,0.043-5.06,1.657-3.387,2.015c0.949,0.203,2.038,0.529,2.978,0.836
	c0.56,0.643,1.64,0.894,2.448,1.041c0.619,0.111,1.281,0.903,1.838,1.436c-0.261,0.86-0.439,1.926-0.178,2.897
	c0.509,1.887,3.195-0.951,4.511-2.026c0.647,0.546,0.863,1.577,1.368,2.369c0.247,0.388,0.86,0.578,1.616,0.658
	c-0.248,1.644-0.262,3.527,0.706,4.414c1.822,1.67,1.109,0.151,4.252-4.609c2.277-0.226,4.768-3.586,5.496-5.656
	c0.444-1.266,0.69-3.164,0.129-4.418c-0.693-1.547-2.2-3.088-0.826-4.644c2.423-2.734,3.98-3.199,7.397-2.687
	c17.911,2.776,34.42-12.266,35.346-29.906C131.253,84.044,125.993,77.211,119.123,71.505z"/>
</g>
</svg>
