<?xml version="1.0" encoding="iso-8859-1"?>
<!-- Generator: Adobe Illustrator 17.1.0, SVG Export Plug-In . SVG Version: 6.00 Build 0)  -->
<!DOCTYPE svg PUBLIC "-//W3C//DTD SVG 1.1//EN" "http://www.w3.org/Graphics/SVG/1.1/DTD/svg11.dtd">
<svg version="1.1" id="Capa_1" xmlns="http://www.w3.org/2000/svg" xmlns:xlink="http://www.w3.org/1999/xlink" x="0px" y="0px"
	 viewBox="0 0 150 150" style="enable-background:new 0 0 150 150;" xml:space="preserve">
<g>
	<path d="M144.195,72.653c-1.512,0.744-3.011,1.514-4.51,2.285c-0.252,0.13-0.505,0.259-0.757,0.389
		c1.242-0.805,2.508-1.618,3.773-2.391c0.867-0.529,1.484-0.954,1.539-1.593c0.049-0.573-0.366-1.057-1.099-1.698
		c-0.78-0.682-1.687-1.209-2.564-1.719c-0.257-0.149-0.513-0.298-0.766-0.451c-7.71-4.652-16.197-9.182-25.998-10.807
		c-3.83-0.635-7.776-0.888-11.592-1.133c-1.691-0.108-3.383-0.217-5.069-0.357c-0.337-0.029-0.679-0.021-1.005-0.014l-0.017,0
		l-0.939-3.428c-0.055-0.2-0.227-0.345-0.433-0.366c-0.202-0.015-0.403,0.088-0.497,0.272l-0.674,1.339l-1.665-2.954
		c-0.086-0.153-0.246-0.249-0.421-0.254c-0.172-0.007-0.34,0.082-0.435,0.23l-1.604,2.5l-1.971-2.353
		c-0.108-0.128-0.276-0.197-0.441-0.175c-0.167,0.02-0.313,0.122-0.389,0.273l-1.518,3.034l-2.682-3.574
		c-0.081-0.109-0.203-0.179-0.338-0.196c-0.132-0.015-0.27,0.022-0.375,0.106l-0.435,0.35c-0.091,0.073-0.153,0.176-0.177,0.291
		l-0.409,2.03l-1.896-1.997c-0.117-0.124-0.289-0.179-0.456-0.147c-0.167,0.032-0.307,0.146-0.37,0.305l-1.06,2.633l-2.392-2.545
		c-0.115-0.123-0.287-0.18-0.451-0.15c-0.166,0.029-0.306,0.14-0.373,0.295l-0.985,2.292l-1.451-1.231
		c-0.158-0.134-0.381-0.157-0.563-0.058l-0.093,0.043c-0.128,0.055-0.368,0.157-0.437,0.436c-0.504,1.98-0.79,2.037-0.821,2.037
		c-0.061,0-0.412-0.069-1.379-1.441c-0.156-0.222-0.356-0.377-0.548-0.528c-0.076-0.059-0.153-0.12-0.229-0.186
		c-0.126-0.111-0.301-0.151-0.463-0.106s-0.292,0.169-0.343,0.329l-0.72,2.248l-1.741-1.432c-0.126-0.104-0.297-0.138-0.455-0.095
		c-0.158,0.045-0.284,0.166-0.336,0.321l-0.678,2.008L60.4,53.553c-0.12-0.102-0.279-0.142-0.435-0.106
		c-0.153,0.035-0.281,0.141-0.345,0.285l-0.898,2.025c-0.206-0.146-0.407-0.287-0.604-0.425c-0.724-0.507-1.407-0.986-2.03-1.508
		c-2.768-2.322-6.034-3.023-9.753-2.086c-4.34,1.093-8.354,2.849-11.93,5.221c-2.645,1.753-3.829,3.831-3.725,6.539
		c0.065,1.721,0.795,2.949,2.367,3.983c0.459,0.303,0.911,0.606,1.344,0.939c-0.592,0.07-1.113,0.104-1.594,0.104
		c-1.53,0-2.724-0.333-3.759-1.048c-1.881-1.299-3.726-2.729-5.51-4.112c-1.044-0.81-2.089-1.62-3.147-2.41L19.776,60.5
		c-1.303-0.979-2.65-1.992-4.092-2.816c-2.561-1.465-4.212-1.234-6.406,0.914C-1.189,68.84,1.062,82.692,7.583,91.228
		c0.43,0.562,0.985,1.117,1.749,1.748c1.39,1.148,2.62,1.683,3.873,1.683c0,0,0,0,0,0c1.182,0,2.368-0.474,3.731-1.49l1.818-1.35
		c2.398-1.777,4.878-3.615,7.232-5.538c3.062-2.5,6.503-3.128,10.67-1.943c1.126,0.32,2.242,0.681,3.357,1.042
		c0.307,0.1,0.615,0.199,0.922,0.297c-0.241,0.061-0.482,0.12-0.725,0.176c-4.502,1.041-6.697,4.021-5.872,7.973
		c0.841,4.031,3.806,6.739,7.379,6.739c0.539,0,1.087-0.063,1.631-0.187c1.975-0.449,3.835-1.409,5.634-2.337l0.638-0.328
		c1.619-0.829,3.213-1.756,4.755-2.653c0.792-0.461,1.584-0.921,2.381-1.371c0.913-0.514,1.672-0.485,2.58,0.091
		c7.474,4.742,15.903,6.589,25.837,5.649c1.646-0.156,3.298-0.222,4.896-0.286c0.428-0.018,0.851-0.035,1.267-0.053
		c-0.132,0.286-0.268,0.573-0.404,0.861c-0.586,1.241-1.193,2.525-1.577,3.879c-0.608,2.143-0.388,4.445,0.637,6.659
		c0.729,1.576,1.941,2.516,3.241,2.516c0.695,0,1.726-0.265,2.694-1.527c2.294-2.99,4.63-6.242,6.171-9.759
		c1.397-3.191,3.004-4.587,6.139-5.334c3.585-0.855,7.101-2.196,10.5-3.492c1.519-0.579,3.037-1.158,4.565-1.697
		c1.727-0.609,3.465-1.184,5.204-1.755c7.63-2.504,13.6-6.353,18.252-11.769c0.57-0.664,0.963-1.731,1-2.719
		c0.035-0.927-0.188-1.668-0.644-2.141C146.462,72.132,145.391,72.066,144.195,72.653z"/>
</g>
</svg>
