<?xml version="1.0" encoding="iso-8859-1"?>
<!-- Generator: Adobe Illustrator 17.1.0, SVG Export Plug-In . SVG Version: 6.00 Build 0)  -->
<!DOCTYPE svg PUBLIC "-//W3C//DTD SVG 1.1//EN" "http://www.w3.org/Graphics/SVG/1.1/DTD/svg11.dtd">
<svg version="1.1" id="Capa_1" xmlns="http://www.w3.org/2000/svg" xmlns:xlink="http://www.w3.org/1999/xlink" x="0px" y="0px"
	 viewBox="0 0 150 150" style="enable-background:new 0 0 150 150;" xml:space="preserve">
<g>
<path style="fill:#1D1D1B;" d="M6.452,26.263c0.093-0.146,0.208-0.39,0.26-0.555c0.185-0.59,0.586-0.998,1.048-1.372
	c0.645-0.523,1.286-1.052,1.911-1.598c0.827-0.723,1.597-1.517,2.463-2.189c1.078-0.836,2.16-1.692,3.498-2.109
	c0.072-0.022,0.128-0.089,0.196-0.129c0.7-0.416,1.406-0.82,2.096-1.252c0.185-0.116,0.38-0.287,0.46-0.479
	c0.099-0.238,0.087-0.523,0.114-0.788c0.093-0.941,0.29-1.851,0.808-2.663c0.122-0.192,0.471-0.44,0.699-0.625
	c0.134-0.109,0.345-0.2,0.514-0.164c0.714,0.15,1.423,0.32,2.143,0.411c0.533,0.068,1.086,0.009,1.627-0.032
	c1.295-0.098,4.02-0.601,5.045-0.597c0.173,0.001,0.324-0.11,0.36-0.279c0.135-0.638,0.461-1.12,0.732-0.872
	c0.5,0.458,2.299,1.241,2.934,1.163c1.397-0.173,1.742-0.118,3.139,0.036c1.415,0.156,2.688,0.754,4.012,1.192
	c1.033,0.342,1.969,0.843,2.506,1.868c0.034,0.065,0.106,0.115,0.169,0.16c1.626,1.149,3.216,2.341,4.629,3.755
	c0.306,0.306,0.723,0.503,1.022,0.815c2.028,2.11,3.442,4.628,4.719,7.228c0.523,1.064,1.002,2.15,1.521,3.281
	c0.072,0.157,0.245,0.202,0.388,0.105c2.007-1.377,4.194-2.163,6.432-2.802c3.07-0.877,6.212-0.852,9.368-0.648
	c2.634,0.17,5.275,0.24,7.909,0.407c1.537,0.098,3.036-0.012,4.535-0.364c0.697-0.164,1.432-0.207,2.152-0.223
	c1.739-0.038,3.386,0.467,5.035,0.94c0.618,0.177,1.237,0.421,1.868,0.469c1.99,0.151,3.985,0.223,5.978,0.325
	c2.813,0.144,5.546,0.592,8.111,1.864c1.743,0.864,3.145,2.125,4.428,3.533c0.622,0.682,1.138,1.465,1.668,2.226
	c0.208,0.298,0.441,0.405,0.785,0.376c0.877-0.075,1.757-0.125,2.634-0.208c3.069-0.29,6.139-0.568,9.204-0.895
	c1.625-0.173,3.235-0.535,4.863-0.634c1.625-0.099,3.272-0.07,4.895,0.074c1.651,0.146,3.201,0.777,4.735,1.396
	c0.346,0.139,0.709,0.267,1.012,0.476c0.593,0.411,1.11,0.941,1.728,1.303c1.052,0.617,1.31,1.695,1.496,2.697
	c0.277,1.494-0.269,2.938-0.912,4.262c-0.841,1.732-1.914,3.328-3.569,4.429c-0.144,0.096-0.29,0.188-0.437,0.279
	c-0.147,0.092-0.294,0.141-0.328,0.11c-0.034-0.032-0.022-0.191,0.029-0.356c0.031-0.101,0.064-0.201,0.105-0.298
	c0.568-1.361,1.205-2.702,1.431-4.176c0.197-1.283,0.222-1.667-1.327-1.729c-2.057-0.082-4.121-0.236-6.152,0.251
	c-1.373,0.329-2.81,0.539-4.085,1.102c-3.784,1.671-7.504,3.489-11.244,5.259c-0.13,0.062-0.275,0.22-0.301,0.355
	c-0.157,0.819-0.275,1.645-0.417,2.466c-0.244,1.41-0.431,2.834-0.761,4.224c-0.367,1.543-0.856,3.057-1.311,4.578
	c-1.321,4.414-2.594,8.844-4.002,13.231c-0.805,2.51-1.647,5.024-2.936,7.351c-0.274,0.495-0.529,1.003-0.747,1.524
	c-0.235,0.559-0.342,1.141-0.096,1.74c0.496,1.207,0.951,2.432,1.48,3.624c0.637,1.433,1.164,2.89,1.235,4.47
	c0.051,1.13,0.019,2.265,0.073,3.395c0.167,3.503,0.334,7.007,0.551,10.508c0.093,1.495-0.114,2.911-0.704,4.281
	c-0.777,1.806-1.571,3.605-2.018,5.534c-0.643,2.774-1.295,5.547-1.981,8.31c-0.256,1.033-0.59,2.051-0.948,3.054
	c-0.114,0.319-0.146,0.571-0.048,0.89c0.379,1.236,0.729,2.481,0.429,3.796c-0.084,0.368-0.245,0.744-0.217,1.105
	c0.07,0.923-0.446,1.647-0.732,2.446c-0.153,0.428-0.505,0.667-0.975,0.713c-0.064,0.006-0.127,0.022-0.189,0.041
	c-0.102,0.031-0.228-0.014-0.285-0.099c-0.034-0.051-0.073-0.102-0.119-0.143c-0.408-0.36-0.507-0.822-0.445-1.33
	c0.044-0.358,0.167-0.709,0.184-1.067c0.026-0.534,0.015-1.07,0.01-1.605c-0.001-0.173-0.033-0.317-0.073-0.322
	c-0.039-0.005-0.12,0.122-0.186,0.282c-0.503,1.213-1.254,2.249-2.229,3.14c-0.533,0.487-1.023,0.988-1.842,0.85
	c-0.115-0.019-0.28,0.107-0.385,0.205c-0.464,0.433-1.009,0.725-1.626,0.538c-0.326-0.099-0.612-0.331-0.925-0.557
	c-0.14-0.101-0.342-0.067-0.446,0.071c-0.069,0.091-0.145,0.192-0.23,0.304c-0.104,0.138-0.191,0.108-0.188-0.065
	c0.014-0.858,0.14-1.632,0.493-2.369c0.075-0.156,0.005-0.271-0.168-0.267c-0.218,0.005-0.411,0.009-0.596,0.051
	c-0.284,0.065-0.549,0.207-0.824,0.314c-1.006,0.393-1.885,0.311-2.354-0.52c-0.085-0.151-0.254-0.214-0.405-0.129
	c-0.25,0.141-0.494,0.279-0.731,0.413c-0.151,0.085-0.272,0.013-0.25-0.159c0.111-0.856,0.619-1.625,1.449-2.048
	c0.571-0.291,1.166-0.605,1.784-0.717c1.337-0.243,2.21-1.122,3.115-2c1.115-1.081,2.253-2.139,3.376-3.212
	c0.131-0.125,0.281-0.263,0.342-0.425c0.329-0.883,0.635-1.775,0.945-2.665c0.049-0.142,0.092-0.286,0.142-0.451
	c0.049-0.166-0.019-0.211-0.159-0.11c-0.661,0.477-1.039,0.505-1.54,0.097c-0.134-0.109-0.337-0.115-0.465,0
	c-0.131,0.118-0.264,0.237-0.397,0.356c-0.129,0.116-0.285,0.076-0.306-0.096c-0.041-0.328,0.041-0.653,0.243-0.932
	c0.263-0.362,0.587-0.697,0.941-0.972c0.469-0.365,0.993-0.66,1.492-0.986c1.017-0.664,1.93-1.411,2.183-2.694
	c0.012-0.06,0.049-0.115,0.073-0.173c0.624-1.494,1.244-2.986,1.205-4.657c-0.04-1.727-0.242-3.396-1.107-4.954
	c-0.947-1.705-1.812-3.456-2.676-5.206c-0.878-1.777-1.812-3.536-2.541-5.375c-1.494-3.772-2.174-7.739-2.571-11.764
	c-0.157-1.594-0.323-3.198-0.665-4.758c-0.27-1.23-0.582-2.444-0.671-3.705c-0.016-0.226-0.047-0.452-0.076-0.657
	c-0.024-0.171-0.169-0.249-0.324-0.172c-1.175,0.58-2.307,1.175-3.478,1.682c-1.077,0.466-2.193,0.877-3.417,0.648
	c-0.129-0.024-0.26-0.035-0.435-0.049c-0.172-0.014-0.225,0.083-0.121,0.221c0.16,0.21,0.287,0.379,0.42,0.542
	c0.588,0.716,1.248,1.383,1.757,2.151c0.795,1.198,0.834,2.657,1.132,4.01c0.388,1.763,0.458,3.597,0.86,5.356
	c0.553,2.42,1.268,4.804,1.957,7.19c0.354,1.225,0.255,2.397-0.226,3.544c-0.462,1.101-1.001,2.171-1.456,3.274
	c-0.624,1.511-0.73,3.151-1.11,4.723c-0.154,0.637,0.039,1.062,0.443,1.509c0.577,0.639,1.15,1.289,1.64,1.994
	c0.263,0.379,0.295,0.82,0.148,1.23c-0.059,0.163-0.209,0.164-0.302,0.019c-0.084-0.131-0.167-0.262-0.254-0.398
	c-0.093-0.146-0.264-0.159-0.41-0.066c-0.31,0.198-0.603,0.168-0.883-0.062c-0.189-0.155-0.31-0.39-0.477-0.574
	c-0.077-0.085-0.161-0.164-0.25-0.245c-0.128-0.116-0.253-0.168-0.279-0.117c-0.028,0.054-0.039,0.073-0.044,0.093
	c-0.393,1.505-0.785,3.01-1.173,4.516c-0.018,0.071-0.01,0.153,0.004,0.226c0.118,0.618,0.217,1.24,0.367,1.85
	c0.222,0.904,0.125,1.779-0.155,2.649c-0.072,0.224-0.205,0.448-0.204,0.672c0.002,1.005-0.702,1.614-1.278,2.276
	c-0.168,0.194-0.557,0.204-0.849,0.278c-0.072,0.018-0.146,0.025-0.22,0.029c-0.123,0.006-0.289-0.114-0.351-0.276
	c-0.331-0.852-0.184-1.707,0.257-2.561c0.053-0.103,0.044-0.238,0.03-0.402c-0.015-0.172-0.109-0.206-0.225-0.078
	c-0.162,0.178-0.3,0.325-0.402,0.494c-0.533,0.884-1.313,1.518-2.108,2.139c-0.371,0.29-0.784,0.359-1.248,0.238
	c-0.154-0.04-0.374-0.015-0.505,0.07c-0.922,0.598-1.677,0.511-2.305-0.316c-0.105-0.138-0.27-0.153-0.385-0.023
	c-0.049,0.055-0.097,0.11-0.145,0.164c-0.115,0.13-0.224,0.226-0.245,0.215c-0.021-0.011-0.019-0.157,0.006-0.329
	c0.046-0.32,0.091-0.643,0.139-0.977c0.024-0.171-0.054-0.287-0.174-0.257c-0.076,0.018-0.147,0.035-0.218,0.049
	c-0.882,0.168-1.336-0.041-1.807-0.781c-0.058-0.091-0.285-0.159-0.388-0.12c-0.2,0.077-0.389,0.183-0.586,0.295
	c-0.15,0.085-0.257,0.014-0.221-0.155c0.153-0.72,0.507-1.304,1.217-1.615c0.555-0.243,1.152-0.412,1.746-0.538
	c1.117-0.237,2.027-0.792,2.783-1.633c0.598-0.666,1.176-1.355,1.824-1.97c0.449-0.426,0.802-0.821,0.994-1.462
	c0.697-2.336,1.496-4.641,2.264-6.955c0.584-1.76,1.244-3.496,1.456-5.36c0.112-0.982-0.017-1.866-0.674-2.651
	c-1.222-1.46-2.43-2.932-3.625-4.415c-1.458-1.81-3.084-3.502-3.994-5.699c-0.667-1.61-1.398-3.195-2.026-4.82
	c-0.319-0.826-0.599-1.643-1.192-2.332c-0.223-0.26-0.335-0.637-0.433-0.979c-0.242-0.846-0.436-1.706-0.675-2.553
	c-0.038-0.135-0.107-0.262-0.18-0.388c-0.087-0.149-0.202-0.256-0.26-0.238c-0.058,0.018-0.083,0.172-0.057,0.343
	c0.065,0.426,0.126,0.853,0.21,1.276c0.092,0.461,0.414,0.919-0.039,1.365c-0.032,0.032-0.024,0.117-0.016,0.174
	c0.131,0.959-0.156,1.84-0.552,2.683c-0.242,0.514-0.666,0.79-1.239,0.872c-0.171,0.024-0.216-0.07-0.094-0.185
	c0.082-0.077,0.15-0.151,0.185-0.238c0.148-0.371,0.3-0.759,0.329-1.15c0.013-0.17-0.273-0.361-0.42-0.544
	c-0.098-0.122-0.206-0.239-0.287-0.373c-0.463-0.77-0.409-1.561-0.069-2.354c0.133-0.311,0.131-0.59,0.043-0.819
	c-0.062-0.162-0.201-0.137-0.257,0.027c-0.133,0.392-0.275,0.797-0.387,1.21c-0.234,0.867-0.636,1.643-1.227,2.311
	c-0.268,0.303-0.597,0.503-0.955,0.568c-0.17,0.031-0.231-0.092-0.13-0.233c0.219-0.305,0.44-0.608,0.633-0.928
	c0.074-0.123,0.094-0.367,0.02-0.476c-0.603-0.894-0.473-1.753,0.082-2.596c0.283-0.429,0.382-0.854,0.276-1.381
	c-0.076-0.375,0.014-0.793,0.079-1.183c0.056-0.337,0.272-0.668,0.255-0.994c-0.045-0.871-0.002-1.712,0.272-2.552
	c0.163-0.501-0.08-0.804-0.586-0.923c-0.367-0.086-0.737-0.166-1.1-0.264c-2.86-0.777-5.589-1.911-8.297-3.095
	c-1.217-0.532-2.342-1.211-3.253-2.204c-0.103-0.112-0.236-0.224-0.377-0.27c-2.405-0.792-4.617-1.989-6.814-3.221
	c-0.069-0.039-0.142-0.07-0.228-0.105c-0.128-0.053-0.193,0.039-0.145,0.205c0.115,0.401,0.214,0.753,0.325,1.102
	c0.3,0.941,0.038,1.76-0.622,2.425c-0.391,0.394-0.87,0.737-1.369,0.98c-0.917,0.448-1.875,0.814-2.822,1.197
	c-0.37,0.15-0.749,0.275-1.146,0.411c-0.164,0.056-0.312,0.241-0.323,0.414c-0.034,0.526-0.001,1.074,0.298,1.595
	c0.232,0.405,0.345,0.846,0.195,1.314c-0.198,0.613-0.022,1.141,0.352,1.631c0.104,0.137,0.202,0.286,0.269,0.443
	c0.346,0.813,0.377,1.608-0.128,2.384c-0.075,0.115-0.096,0.343-0.031,0.456c0.239,0.42,0.503,0.824,0.757,1.218
	c0.094,0.145,0.028,0.255-0.141,0.218c-0.377-0.084-0.742-0.275-0.98-0.617c-0.537-0.769-1.001-1.59-1.479-2.399
	c-0.137-0.231-0.25-0.476-0.365-0.72c-0.074-0.157-0.212-0.164-0.295-0.013c-0.122,0.219-0.229,0.422-0.396,0.546
	c-0.429,0.316-0.358,0.701-0.261,1.092c0.04,0.16,0.117,0.311,0.202,0.472c0.081,0.153,0.003,0.252-0.157,0.188
	c-0.357-0.143-0.616-0.39-0.751-0.766c-0.154-0.427-0.286-0.869-0.365-1.315c-0.066-0.377-0.05-0.769-0.057-1.154
	c-0.006-0.345-0.014-0.693,0.017-1.036c0.027-0.294,0.118-0.582,0.163-0.875c0.096-0.63,0.18-1.262,0.27-1.894
	c0.029-0.201,0.074-0.401,0.092-0.603c0.038-0.438,0.055-0.878,0.096-1.315c0.114-1.212,0.807-2.086,1.69-2.841
	c0.451-0.385,0.91-0.761,1.316-1.095c0.133-0.11,0.178-0.325,0.1-0.479c-0.566-1.112-1.135-2.188-1.655-3.287
	c-1.072-2.263-1.199-4.594-0.447-6.983c0.176-0.561,0.325-1.139,0.401-1.72c0.164-1.243,0.253-2.497,0.418-3.74
	c0.045-0.339,0.001-0.597-0.181-0.876c-1.588-2.436-3.165-4.88-4.758-7.313c-0.068-0.105-0.285-0.183-0.415-0.163
	c-0.45,0.07-0.891,0.196-1.338,0.288c-0.694,0.143-1.318,0.062-1.88-0.446c-0.916-0.828-1.593-1.804-2.046-2.948
	c-0.05-0.126-0.181-0.301-0.286-0.31c-0.657-0.054-1.319-0.107-1.977-0.085c-1.679,0.057-3.357,0.161-5.036,0.231
	c-0.422,0.017-0.853-0.075-1.27-0.029c-1.189,0.129-2.372,0.308-3.559,0.459c-1.653,0.211-3.303,0.457-4.961,0.606
	c-0.948,0.085-1.911-0.027-2.865,0.011c-1.4,0.057-2.475-0.514-3.273-1.618C7.898,36.887,7.444,35.8,7.15,34.644
	c-0.086-0.34-0.048-0.773-0.553-0.87c-0.072-0.014-0.153-0.17-0.167-0.269c-0.21-1.489-0.734-2.94-0.55-4.478
	c0.009-0.074,0.019-0.205-0.014-0.219c-0.429-0.2-0.163-0.46-0.069-0.701C6.036,27.5,6.097,26.823,6.452,26.263z"/>
</g>
</svg>
