<?xml version="1.0" encoding="iso-8859-1"?>
<!-- Generator: Adobe Illustrator 17.1.0, SVG Export Plug-In . SVG Version: 6.00 Build 0)  -->
<!DOCTYPE svg PUBLIC "-//W3C//DTD SVG 1.1//EN" "http://www.w3.org/Graphics/SVG/1.1/DTD/svg11.dtd">
<svg version="1.1" id="Capa_1" xmlns="http://www.w3.org/2000/svg" xmlns:xlink="http://www.w3.org/1999/xlink" x="0px" y="0px"
	 viewBox="0 0 150 150" style="enable-background:new 0 0 150 150;" xml:space="preserve">
<g>
	<path d="M144.414,59.928c0.02-0.266,0.04-0.532,0.06-0.798c0.35-4.834,0.41-10.081-2.758-14.077
		c-1.304-1.645-3.131-2.967-5.224-3.359c-2.47-0.463-4.936,0.14-7.178,1.19c-0.037,0.017-0.074,0.035-0.11,0.053
		c-0.737-0.184-1.503-0.271-2.286-0.256c-2.203,0.043-4.371,0.707-6.301,1.753c-3.867,2.096-6.817,5.654-8.458,9.708
		c-1.903,4.702-2.16,10.011-1.246,14.969c0.43,2.335,1.23,4.677,2.892,6.434c1.476,1.56,3.385,2.575,5.287,3.519
		c0.967,0.479,1.942,0.947,2.878,1.484c0.929,0.532,1.897,1.11,2.59,1.944c0.382,0.46,0.651,1.018,0.666,1.581
		c-0.557,0.78-1.373,1.343-2.374,1.373c-0.031,0.001-0.061,0.004-0.09,0.009c-0.265-0.424-0.574-0.827-0.905-1.203
		c-0.337-0.382-0.725-0.7-1.243-0.85c-1.551-0.447-3.101-0.505-4.668-0.092c-0.255,0.067-0.531,0.088-0.796,0.081
		c-1.436-0.04-2.872-0.111-4.309-0.138c-0.71-0.013-1.421,0.079-2.131,0.068c-2.589-0.041-5.177-0.132-7.765-0.151
		c-1.264-0.009-2.531,0.078-3.793,0.173c-0.349,0.026-0.68,0.248-1.026,0.362c-0.181,0.06-0.374,0.109-0.563,0.114
		c-0.196,0.006-0.393-0.066-0.59-0.071c-2.328-0.06-4.656-0.135-6.984-0.189l5.027-0.062c-2.597-0.024-5.195-0.015-7.792,0.01
		c-0.278-0.004-0.556-0.008-0.835-0.01c-1.173-0.011-2.346-0.015-3.519-0.014c-0.457-0.083-0.881-0.248-1.29-0.527
		c-1.056-0.722-2.113-1.443-3.185-2.141c-1.856-1.207-3.755-2.349-5.576-3.605c-1.731-1.195-3.417-2.461-4.899-3.973
		c-0.497-0.507-1.035-0.978-1.579-1.435c-1.955-1.642-3.814-3.376-5.401-5.386c-1.031-1.306-2.044-2.628-3.114-3.901
		c-0.757-0.901-1.528-1.804-2.571-2.408h-1.11c-0.297,0.228-0.651,0.411-0.876,0.696c-0.266,0.337-0.489,0.346-0.777,0.098
		c-0.52-0.448-1.154-0.437-1.777-0.437c-0.149,0-0.354,0.101-0.436,0.221c-0.375,0.549-0.815,1.083-1.048,1.692
		c-0.015,0.041-0.03,0.081-0.046,0.122c-0.752-0.895-1.521-1.792-2.557-2.392h-1.11c-0.297,0.228-0.651,0.411-0.875,0.696
		c-0.267,0.337-0.489,0.346-0.777,0.098c-0.52-0.448-1.154-0.437-1.777-0.437c-0.149,0-0.354,0.101-0.436,0.221
		c-0.375,0.549-0.815,1.083-1.048,1.692c-0.703,1.841-1.322,3.715-1.972,5.576c-0.674,1.927-1.35,3.854-2.018,5.782
		c-0.205,0.592-0.194,0.594-0.781,0.456c-0.033-0.008-0.076,0.024-0.201,0.068c0.155,0.307,0.301,0.595,0.45,0.89
		c-0.037,0.019-0.072,0.042-0.11,0.055c-0.234,0.075-0.469,0.148-0.704,0.221c0.154,0.188,0.308,0.375,0.49,0.597
		c-0.182,0.43-0.395,0.908-0.587,1.395c-0.138,0.352-0.287,0.599-0.702,0.295c-0.063-0.046-0.203,0.012-0.307,0.022
		c0.021,0.104,0.017,0.223,0.069,0.309c0.1,0.166,0.231,0.313,0.371,0.496c-0.164,0.094-0.31,0.155-0.429,0.25
		c-0.167,0.133-0.313,0.291-0.468,0.439c0.168,0.091,0.336,0.183,0.557,0.303c-0.243,0.617-0.526,1.281-0.763,1.961
		c-0.118,0.337-0.265,0.463-0.625,0.349c-0.178-0.056-0.388-0.01-0.584-0.01c-0.014,0.04-0.028,0.079-0.042,0.119
		c0.184,0.194,0.369,0.387,0.569,0.598c-0.32,0.136-0.605,0.258-0.891,0.379c0.007,0.046,0.014,0.091,0.021,0.137
		c0.186,0.041,0.38,0.061,0.553,0.132c0.108,0.044,0.259,0.162,0.263,0.251c0.01,0.299-0.404,0.703-0.711,0.712
		c-0.074,0.002-0.148,0.005-0.221,0.007l-1.954,0.024c-5.347-0.291-10.698-0.363-16.051-0.248c-2.005,0.043-3.883,0.581-5.379,2.01
		c-0.727,0.694-1.287,1.511-1.003,2.614c0.112,0.436,0.177,0.913,0.404,1.286c1.216,1.999,2.88,3.458,5.132,4.239
		c1.811,0.628,3.593,1.325,5.469,1.763c2.65,0.619,5.307,1.145,8.041,1.169c0.178,0.001,0.356,0.044,0.534,0.067l-0.002,0.084
		l-1.341,0.161c-0.006,0.042-0.012,0.085-0.018,0.127c0.361,0.211,0.722,0.422,1.086,0.635c-0.554,0.53-1.352,0.403-1.833,1.076
		c0.489,0.039,0.882,0.07,1.282,0.102c-0.177,0.757-0.41,0.959-1.079,0.988c-0.227,0.01-0.458-0.003-0.682,0.028
		c-0.125,0.017-0.242,0.103-0.362,0.158c0.081,0.121,0.137,0.287,0.25,0.353c0.192,0.112,0.429,0.146,0.632,0.242
		c0.146,0.069,0.268,0.188,0.4,0.284c-0.109,0.137-0.192,0.32-0.333,0.402c-0.306,0.177-0.641,0.304-0.965,0.447
		c-0.227,0.1-0.457,0.192-0.776,0.326c0.205,0.169,0.325,0.268,0.448,0.37c-0.022,0.035-0.05,0.068-0.067,0.105
		c-0.054,0.12-0.104,0.241-0.156,0.362c0.132,0.017,0.265,0.053,0.396,0.046c0.19-0.01,0.379-0.05,0.611-0.083
		c-0.257,0.406-0.444,0.788-0.713,1.097c-0.182,0.208-0.468,0.414-0.73,0.448c-1.071,0.139-2.149,0.222-3.226,0.304
		c-0.905,0.069-1.83,0.017-2.712,0.191c-0.674,0.133-1.33,0.229-2.013,0.212c-1.154-0.03-2.07,0.633-3.049,1.097
		c-0.272,0.129-0.319,0.362,0.057,0.501c-0.137,0.395-0.171,0.748,0.341,0.881c0.025,0.007,0.055,0.085,0.046,0.122
		c-0.078,0.35,0.203,0.339,0.347,0.261c0.204-0.109,0.458-0.303,0.5-0.501c0.11-0.523,0.441-0.829,0.865-1.038
		c0.497-0.245,1.015-0.479,1.647-0.37c-0.198,0.478,0.057,0.585,0.409,0.575c0.496-0.014,0.99-0.055,1.486-0.08
		c0.14-0.007,0.281,0.004,0.422,0.002c0.434-0.005,0.925,0.116,1.29-0.045c0.367-0.162,0.728-0.217,1.09-0.227
		c-0.148,0.131-0.123,0.307,0.183,0.42c-0.137,0.395-0.171,0.748,0.341,0.881c0.025,0.007,0.055,0.085,0.046,0.122
		c-0.078,0.35,0.203,0.339,0.347,0.261c0.204-0.109,0.458-0.303,0.5-0.501c0.093-0.444,0.346-0.732,0.681-0.936v0.28
		c0.156-0.042,0.317-0.072,0.466-0.132c0.132-0.053,0.25-0.14,0.374-0.211l0.036,0.062c-0.133,0.142-0.266,0.284-0.397,0.424
		c0.155,0.338,0.377,0.302,0.605,0.156c0.273-0.174,0.536-0.351,0.75-0.577c0.084,0.082,0.233,0.105,0.406,0.101
		c0.496-0.014,0.99-0.055,1.486-0.08c0.14-0.007,0.281,0.004,0.422,0.002c0.434-0.005,0.925,0.116,1.29-0.045
		c0.669-0.295,1.319-0.236,1.996-0.195c0.414,0.025,0.831,0.005,1.193,0.005v0.49c0.156-0.042,0.317-0.072,0.466-0.132
		c0.132-0.053,0.25-0.14,0.374-0.211l0.036,0.062c-0.133,0.142-0.266,0.284-0.397,0.424c0.155,0.338,0.377,0.302,0.605,0.156
		c0.513-0.328,0.994-0.661,1.167-1.324c0.123-0.474,0.385-0.914,0.601-1.361c0.884-1.84,1.778-3.675,2.659-5.516
		c0.147-0.307,0.287-0.617,0.421-0.93c0.057,0.023,0.117,0.043,0.18,0.061c0.53,0.153,1.059,0.312,1.579,0.496
		c0.13,0.046,0.238,0.186,0.329,0.303c0.337,0.437,0.774,0.714,1.317,0.788c0.408,0.055,0.822,0.063,1.234,0.086
		c1.646,0.089,3.297,0.121,4.937,0.276c2.229,0.211,4.454,0.328,6.69,0.157c0.472-0.036,0.971-0.078,1.068,0.59
		c0.004,0.024,0.068,0.04,0.037,0.023c0.212-0.109,0.369-0.249,0.538-0.265c0.507-0.048,1.027-0.112,1.529-0.056
		c1.884,0.21,3.768,0.278,5.665,0.29c1.613,0.01,3.251,0.093,4.828,0.399c1.359,0.263,2.717,0.432,4.086,0.56
		c0.835,0.078,1.678,0.094,2.506,0.217c0.927,0.138,1.84,0.363,2.759,0.553c0.174,0.036,0.346,0.083,0.519,0.126
		c-0.235,0.865-0.655,1.234-1.444,1.311c-0.198,0.02-0.398,0.035-0.593,0.072c-1.123,0.216-2.237,0.518-3.37,0.636
		c-1.289,0.135-2.382,0.798-3.591,1.133c-0.398,0.11-0.377,0.508-0.388,0.813c-0.006,0.158,0.161,0.334,0.275,0.483
		c0.107,0.139,0.246,0.253,0.371,0.378c0.105,0.104,0.21,0.208,0.314,0.312c0.067-0.125,0.188-0.249,0.192-0.376
		c0.013-0.376,0.17-0.651,0.467-0.864c0.266-0.19,0.507-0.423,0.792-0.576c0.546-0.294,1.086-0.622,1.769-0.348
		c0.232,0.093,0.537,0.053,0.799,0.014c0.275-0.041,0.534-0.186,0.808-0.23c0.935-0.148,1.871-0.308,2.813-0.395
		c1.089-0.101,1.552-0.798,1.795-1.734c0.087-0.336,0.292-0.469,0.608-0.484c1.105-0.053,2.184,0.077,3.246,0.398
		c0.415,0.125,0.857,0.23,1.286,0.229c1.665-0.007,3.331-0.037,4.995-0.103c2.743-0.109,5.479-0.386,8.233-0.238
		c1.099,0.059,2.21-0.023,3.312-0.095c1.7-0.112,3.254-0.719,4.806-1.396c1.575-0.687,2.372-1.957,2.974-3.438
		c0.041-0.1,0.069-0.205,0.104-0.307c0.043-0.016,0.085-0.031,0.128-0.047c0.159,0.252,0.322,0.501,0.474,0.756
		c0.13,0.218,0.065,0.365-0.171,0.465c-0.248,0.104-0.49,0.225-0.727,0.354c-0.348,0.19-0.374,0.476-0.01,0.616
		c0.397,0.153,0.879,0.316,1.262,0.222c0.574-0.14,1.091-0.358,1.664-0.025c0.103,0.06,0.29,0.03,0.417-0.017
		c0.423-0.156,0.84-0.331,1.252-0.513c0.246-0.109,0.481-0.245,0.72-0.368c0.014,0.192-0.027,0.31-0.086,0.417
		c-0.306,0.557-0.629,1.106-0.924,1.669c-0.25,0.478-0.478,0.969-0.701,1.46c-0.132,0.292,0.062,0.488,0.29,0.567
		c0.106,0.037,0.347-0.093,0.416-0.212c0.203-0.346,0.32-0.743,0.526-1.087c0.315-0.526,0.677-1.023,1.018-1.533
		c0.07,0.173,0.082,0.338,0.051,0.494c-0.133,0.664-0.289,1.323-0.414,1.989c-0.046,0.246-0.06,0.508-0.027,0.754
		c0.013,0.1,0.186,0.24,0.295,0.248c0.095,0.007,0.252-0.126,0.292-0.231c0.085-0.222,0.11-0.467,0.162-0.702
		c0.163-0.735,0.328-1.469,0.521-2.336c0.144,0.33,0.308,0.542,0.32,0.761c0.064,1.19,0.16,2.387-0.294,3.538
		c-0.077,0.196-0.161,0.419-0.136,0.615c0.022,0.172,0.158,0.397,0.307,0.469c0.238,0.115,0.441-0.044,0.521-0.293
		c0.06-0.188,0.102-0.385,0.123-0.581c0.116-1.062,0.222-2.125,0.332-3.188c0.082,0.986,0.115,1.979,0.178,2.969
		c0.017,0.266-0.143,0.733,0.248,0.737c0.363,0.003,0.325-0.469,0.345-0.767c0.029-0.425,0.004-0.854,0.028-1.28
		c0.013-0.22,0.133-0.44,0.117-0.655c-0.059-0.818-0.152-1.633-0.235-2.449c-0.022-0.217,0.058-0.307,0.279-0.388
		c0.554-0.202,1.09-0.453,1.626-0.701c0.3-0.139,0.584-0.311,0.922-0.493c0.141,0.809,0.261,1.58,0.413,2.344
		c0.149,0.753,0.318,1.503,0.506,2.247c0.03,0.12,0.218,0.295,0.319,0.286c0.792-0.066,1.581-0.172,2.372-0.264
		c0.125-0.014,0.264-0.062,0.373-0.025c0.447,0.153,0.842,0.032,1.225-0.186c0.625-0.356,1.216-0.323,1.791,0.118
		c0.131,0.101,0.301,0.151,0.362,0.181c0.247-0.416,0.453-0.763,0.685-1.153c-0.803-0.209-1.65-0.406-2.526-0.12
		c-0.538,0.175-1.005,0.471-1.657,0.273c-0.471-0.143-1.044,0.007-1.564,0.077c-0.338,0.045-0.442-0.063-0.499-0.382
		c-0.208-1.174-0.437-2.344-0.677-3.512c-0.111-0.539-0.07-0.662,0.413-0.963c0.164-0.102,0.33-0.227,0.443-0.38
		c0.447-0.603,0.877-1.219,1.308-1.834c0.228-0.324,0.501-0.63,0.658-0.987c0.449-1.024,0.91-2.049,1.252-3.111
		c0.382-1.185,0.667-2.405,0.934-3.622c0.059-0.27,0.093-0.497,0.228-0.656c0.645-0.15,1.252-0.448,1.771-0.861
		c0.843-0.491,1.494-1.309,1.628-2.294c0.007-0.051,0.012-0.101,0.017-0.152c0.247-0.396,0.444-0.824,0.583-1.27
		c0.655-2.104-0.061-4.343-1.285-6.096c-1.36-1.949-3.222-3.39-4.902-5.041c-1.564-1.536-2.802-3.295-3.473-5.399
		c-1.349-4.228-0.68-8.868,1.49-12.702c2.21-3.905,5.701-7.058,9.597-9.237c0.279-0.156,0.563-0.308,0.852-0.454
		c0.505,0.154,0.995,0.368,1.46,0.65c4.313,2.621,4.745,8.201,5.01,12.724c0.048,0.821,1.33,0.826,1.281,0
		c-0.261-4.449-0.661-9.522-4.183-12.729c-0.604-0.55-1.269-1.004-1.978-1.358c1.446-0.559,2.977-0.89,4.524-0.745
		c2.127,0.199,3.961,1.377,5.271,3.03c3.144,3.965,2.758,9.326,2.401,14.067C143.071,60.752,144.352,60.746,144.414,59.928z
		 M32.944,98.385c-0.487,0.229-1.037,0.278-1.405,0.791c0.489,0.039,0.882,0.07,1.282,0.102c-0.177,0.757-0.41,0.959-1.079,0.988
		c-0.227,0.01-0.458-0.003-0.682,0.028c-0.125,0.017-0.242,0.103-0.362,0.158c0.081,0.121,0.137,0.287,0.25,0.353
		c0.192,0.112,0.429,0.146,0.632,0.242c0.146,0.069,0.268,0.188,0.4,0.284c-0.109,0.137-0.192,0.32-0.333,0.402
		c-0.306,0.177-0.641,0.304-0.965,0.447c-0.227,0.1-0.457,0.192-0.776,0.326c0.205,0.169,0.325,0.268,0.448,0.37
		c-0.022,0.035-0.05,0.068-0.067,0.105c-0.054,0.12-0.104,0.241-0.156,0.362c0.132,0.017,0.266,0.053,0.397,0.046
		c0.19-0.01,0.379-0.05,0.611-0.083c-0.257,0.406-0.444,0.788-0.713,1.097c-0.182,0.208-0.468,0.414-0.73,0.448
		c-1.071,0.139-2.149,0.222-3.226,0.304c-0.905,0.069-1.83,0.017-2.712,0.191c-0.174,0.034-0.347,0.066-0.52,0.094
		c0.093-0.188,0.192-0.375,0.282-0.564c0.884-1.84,1.778-3.675,2.659-5.516c0.244-0.51,0.471-1.029,0.678-1.555
		c0.187-0.477,0.303-0.548,0.826-0.516c1.434,0.088,2.868,0.161,4.303,0.233c0.136,0.007,0.273,0.008,0.412,0.007
		c0.182,0.106,0.365,0.213,0.547,0.32V98.385z M40.122,81.494c-0.118,0.337-0.265,0.463-0.625,0.349
		c-0.178-0.056-0.388-0.01-0.584-0.01c-0.014,0.04-0.028,0.079-0.042,0.119c0.184,0.194,0.369,0.387,0.569,0.598
		c-0.32,0.136-0.605,0.258-0.891,0.379c0.007,0.046,0.014,0.091,0.021,0.137c0.186,0.041,0.38,0.061,0.553,0.132
		c0.108,0.044,0.26,0.162,0.263,0.251c0.007,0.208-0.19,0.466-0.415,0.607l-6.56,0.081c0.444-1.139,0.826-2.203,1.271-3.239
		c0.667-1.552,1.383-3.083,2.069-4.626c0.338-0.761,0.675-1.524,0.978-2.299c0.351-0.896,0.668-1.807,0.994-2.713
		c0.371-1.028,0.737-2.057,1.104-3.086c0.487-1.366,0.972-2.732,1.457-4.099c0.109-0.306,0.25-0.38,0.521-0.138
		c0.126,0.113,0.323,0.216,0.481,0.207c0.4-0.022,0.644,0.142,0.819,0.482c0.285,0.556,0.748,0.918,1.322,1.139
		c0.776,0.299,1.517,0.639,2.223,1.054c-0.131,0.379-0.261,0.758-0.394,1.136c-0.674,1.927-1.35,3.854-2.018,5.782
		c-0.205,0.592-0.194,0.594-0.781,0.456c-0.033-0.008-0.076,0.024-0.201,0.068c0.155,0.307,0.301,0.595,0.45,0.89
		c-0.037,0.019-0.072,0.042-0.11,0.055c-0.234,0.075-0.469,0.148-0.704,0.221c0.154,0.188,0.308,0.375,0.49,0.597
		c-0.182,0.43-0.396,0.908-0.587,1.395c-0.138,0.352-0.287,0.599-0.702,0.295c-0.063-0.046-0.203,0.012-0.307,0.022
		c0.021,0.104,0.017,0.223,0.069,0.309c0.1,0.166,0.231,0.313,0.371,0.496c-0.164,0.094-0.31,0.155-0.429,0.25
		c-0.167,0.133-0.313,0.291-0.468,0.439c0.168,0.091,0.336,0.183,0.557,0.303C40.642,80.151,40.359,80.814,40.122,81.494z
		 M41.08,84.03c0.426-1.099,0.799-2.129,1.23-3.133c0.667-1.552,1.383-3.083,2.069-4.626c0.338-0.761,0.675-1.524,0.978-2.299
		c0.351-0.896,0.668-1.807,0.994-2.713c0.371-1.028,0.737-2.057,1.104-3.086c0.004-0.01,0.007-0.02,0.011-0.03
		c1.811,1.546,3.557,3.15,5.092,4.965c1.751,2.071,3.415,4.216,5.116,6.329c0.713,0.885,1.431,1.766,2.137,2.657
		c0.425,0.537,0.834,1.087,1.292,1.69L41.08,84.03z M62.19,77.211c-1.731-1.195-3.417-2.461-4.899-3.973
		c-0.497-0.507-1.035-0.978-1.579-1.435c-1.955-1.642-3.814-3.376-5.401-5.386c-0.514-0.651-1.023-1.305-1.537-1.956
		c0.046-0.129,0.092-0.259,0.138-0.388c0.109-0.306,0.25-0.38,0.521-0.138c0.126,0.113,0.323,0.216,0.481,0.207
		c0.4-0.022,0.644,0.142,0.818,0.482c0.285,0.556,0.748,0.918,1.322,1.139c1.367,0.527,2.627,1.18,3.775,2.153
		c1.905,1.615,3.747,3.286,5.356,5.19c1.751,2.071,3.415,4.216,5.116,6.329c0.244,0.303,0.489,0.606,0.734,0.909
		C65.414,79.309,63.772,78.303,62.19,77.211z M123.436,46.695c-1.729,1.443-3.294,3.088-4.578,4.941
		c-2.557,3.691-3.881,8.167-3.289,12.657c0.288,2.182,1.012,4.344,2.257,6.172c1.397,2.051,3.354,3.543,5.099,5.273
		c1.562,1.548,3.202,3.6,3.122,5.932c-0.007,0.211-0.032,0.427-0.073,0.641c-0.568-0.959-1.52-1.732-2.476-2.339
		c-1.64-1.042-3.429-1.804-5.139-2.719c-1.608-0.861-3.243-1.882-4.301-3.409c-1.382-1.995-1.901-4.443-2.166-6.819
		c-0.281-2.512-0.296-5.083,0.12-7.582c0.755-4.538,2.804-8.837,6.32-11.878c1.612-1.394,3.507-2.515,5.56-3.116
		c1.084-0.317,2.239-0.508,3.378-0.481C125.918,44.768,124.636,45.695,123.436,46.695z"/>
</g>
</svg>
