<?xml version="1.0" encoding="iso-8859-1"?>
<!-- Generator: Adobe Illustrator 17.1.0, SVG Export Plug-In . SVG Version: 6.00 Build 0)  -->
<!DOCTYPE svg PUBLIC "-//W3C//DTD SVG 1.1//EN" "http://www.w3.org/Graphics/SVG/1.1/DTD/svg11.dtd">
<svg version="1.1" id="Capa_1" xmlns="http://www.w3.org/2000/svg" xmlns:xlink="http://www.w3.org/1999/xlink" x="0px" y="0px"
	 viewBox="0 0 150 150" style="enable-background:new 0 0 150 150;" xml:space="preserve">
<g>
	<path d="M142.776,13.143c-0.82-0.193-1.79-0.399-2.911-0.623c-2.025-0.448-4.102-0.646-6.229-0.582
		c-2.119,0.061-4.232,0.322-6.324,0.793c-2.093,0.47-4.145,1.094-6.156,1.879c-2.011,0.782-3.917,1.673-5.711,2.668l-52.63,20.089
		l-4.07,1.876l-2.306,1.39l-2.121,1.278l-0.754,0.454c-3.519,2.12-6.843,4.313-9.969,6.583c-3.127,2.268-6.129,4.848-9.014,7.745
		c-0.116,0.154-0.378,0.452-0.779,0.884c-0.403,0.435-0.871,0.952-1.407,1.555c-0.536,0.6-1.118,1.239-1.739,1.914
		c-0.621,0.675-1.206,1.302-1.748,1.889c-0.547,0.583-1.029,1.101-1.445,1.546c-0.42,0.442-0.695,0.731-0.835,0.856
		c-0.053,0.119-0.21,0.276-0.455,0.467c-0.251,0.192-0.407,0.309-0.469,0.346l-5.796,3.492c-0.185,0.112-0.269,0.253-0.248,0.436
		c0.024,0.18,0.08,0.349,0.174,0.505c0.17,0.282,0.439,0.441,0.805,0.479c0.366,0.04,0.622,0.183,0.774,0.435
		c0.151,0.251,0.185,0.551,0.095,0.903c-0.088,0.353-0.22,0.732-0.402,1.141c-0.068,0.386-0.237,0.746-0.508,1.079
		c-0.1,0.192-0.189,0.33-0.263,0.416c-0.074,0.091-0.125,0.182-0.152,0.284c-0.11,0.24-0.3,0.565-0.564,0.981
		c-0.364,0.606-0.819,1.371-1.374,2.302c-0.549,0.935-1.079,1.851-1.585,2.753c-0.5,0.907-0.963,1.718-1.385,2.444
		c-0.419,0.726-0.68,1.178-0.779,1.368c-0.885,1.514-1.576,3.122-2.078,4.818c-0.496,1.687-0.851,3.43-1.059,5.223
		c-0.2,1.794-0.264,3.589-0.188,5.383c0.072,1.797,0.255,3.527,0.532,5.199c-0.119,0.159-0.311,0.445-0.575,0.862
		c-0.262,0.414-0.552,0.857-0.867,1.326c-0.318,0.471-0.609,0.911-0.871,1.329c-0.265,0.414-0.454,0.698-0.575,0.859
		c-0.014,0.052-0.086,0.203-0.234,0.462c-0.146,0.258-0.3,0.542-0.477,0.863c-0.171,0.318-0.348,0.63-0.53,0.933
		c-0.182,0.303-0.319,0.547-0.423,0.734c-0.135,0.206-0.287,0.484-0.467,0.827c-0.176,0.344-0.35,0.696-0.518,1.052
		c-0.171,0.358-0.301,0.692-0.392,1.007c-0.089,0.309-0.088,0.546,0.005,0.699c0.02,0.034,0.055,0.057,0.103,0.069
		c0.645,0.211,1.33,0.408,2.059,0.591c0.731,0.182,1.436,0.238,2.122,0.164c0.243,2.038,0.745,4.008,1.505,5.904
		c0.757,1.895,1.677,3.742,2.754,5.53l0.086,0.142c0.076,0.127,0.154,0.243,0.232,0.34c0.086,0.102,0.161,0.214,0.237,0.34
		l0.114,0.189c0.315,0.236,0.603,0.277,0.85,0.128c0.218-0.131,0.363-0.286,0.431-0.452c0.071-0.169,0.177-0.492,0.318-0.965
		c0.116-0.451,0.236-0.93,0.359-1.434c0.126-0.499,0.182-0.794,0.175-0.878l1.736-16.517l0.367-1.314
		c0.024-0.1,0.387-0.649,1.09-1.654c0.704-0.999,1.554-2.163,2.548-3.492c1-1.33,2.017-2.691,3.06-4.088
		c1.039-1.402,1.897-2.536,2.568-3.412c4.01-5.069,8.405-9.698,13.18-13.882c4.78-4.185,9.915-7.932,15.411-11.244l0.706-0.426
		c0.44-0.265,0.884-0.518,1.334-0.774c0.452-0.246,0.704-0.391,0.769-0.43l31.657-15.029l-0.049,0.355
		c-0.082,0.136-0.246,0.415-0.486,0.839c-0.237,0.422-0.483,0.854-0.729,1.301c-0.241,0.446-0.477,0.876-0.697,1.289
		c-0.222,0.412-0.367,0.702-0.435,0.873c0.005,0.082-0.098,0.272-0.301,0.567c-0.208,0.295-0.263,0.521-0.168,0.679
		c0.149,0.248,0.521,0.388,1.114,0.417c0.599,0.028,1.037,0.062,1.318,0.108c-0.016,0.393-0.179,0.876-0.477,1.443
		c-0.301,0.566-0.492,0.959-0.575,1.18c-0.012,0.05,0.021,0.137,0.099,0.265c0.092,0.153,0.262,0.212,0.513,0.168
		c0.255-0.043,0.517-0.141,0.794-0.287c0.279-0.145,0.626-0.364,1.046-0.659c1.224-0.738,2.253-1.628,3.084-2.662
		c0.834-1.036,1.588-2.147,2.267-3.327c0.682-1.179,1.333-2.384,1.959-3.618c0.629-1.233,1.341-2.394,2.144-3.479l1.603-0.966
		c1.632-0.983,3.278-1.908,4.936-2.782c1.658-0.87,3.322-1.805,4.988-2.809l0.845-0.509c0.347-0.209,0.682-0.419,1.001-0.634
		c0.318-0.214,0.608-0.402,0.857-0.552l0.423-0.255c0.451-0.315,1.156-0.796,2.109-1.459c0.95-0.659,1.923-1.351,2.922-2.081
		c0.991-0.729,1.93-1.411,2.81-2.047c0.878-0.634,1.457-1.083,1.732-1.333c0.14-0.125,0.433-0.388,0.876-0.784
		c0.446-0.396,0.971-0.878,1.575-1.432c0.608-0.559,1.248-1.14,1.937-1.744c0.686-0.606,1.33-1.186,1.934-1.746
		c0.607-0.556,1.139-1.042,1.601-1.446c0.462-0.405,0.777-0.681,0.948-0.827c0.125-0.076,0.412-0.279,0.852-0.607
		c0.443-0.331,0.925-0.687,1.445-1.065c0.523-0.378,1.012-0.74,1.471-1.076c0.461-0.343,0.752-0.55,0.875-0.624
		c0.484-0.336,1.096-0.813,1.838-1.432c0.743-0.616,1.422-1.297,2.047-2.035c0.625-0.739,1.091-1.513,1.398-2.317
		c0.308-0.807,0.248-1.556-0.169-2.248C144.28,13.883,143.596,13.33,142.776,13.143z"/>
</g>
</svg>
