<?xml version="1.0" encoding="iso-8859-1"?>
<!-- Generator: Adobe Illustrator 17.1.0, SVG Export Plug-In . SVG Version: 6.00 Build 0)  -->
<!DOCTYPE svg PUBLIC "-//W3C//DTD SVG 1.1//EN" "http://www.w3.org/Graphics/SVG/1.1/DTD/svg11.dtd">
<svg version="1.1" id="Capa_1" xmlns="http://www.w3.org/2000/svg" xmlns:xlink="http://www.w3.org/1999/xlink" x="0px" y="0px"
	 viewBox="0 0 150 150" style="enable-background:new 0 0 150 150;" xml:space="preserve">
<g>
	<path d="M146.74,97.479c-2.3-1.088-4.183-1.978-6.028-2.851c-0.303-0.143-0.498-0.398-0.435-0.569
		c0.063-0.171,0.381-0.364,0.709-0.432c1.401-0.289,2.801-0.578,4.202-0.867c0.329-0.068,0.589-0.328,0.581-0.582
		c-0.008-0.254-0.286-0.459-0.621-0.459h-10.605c-0.336,0-0.672-0.232-0.752-0.518c-0.08-0.286,0.095-0.648,0.39-0.809
		c3.345-1.818,6.69-3.637,10.034-5.455c0.295-0.16,0.453-0.55,0.354-0.87c-0.021-0.069-0.043-0.137-0.064-0.206
		c-0.099-0.32-0.448-0.532-0.778-0.472c-4.287,0.776-8.582,1.554-13.06,2.365c-0.33,0.06-0.384-0.061-0.121-0.269
		c2.944-2.332,5.805-4.599,8.661-6.861c0.263-0.208,0.376-0.532,0.253-0.723s-0.464-0.222-0.762-0.068
		c-3.209,1.653-6.419,3.306-9.628,4.96c-0.298,0.154-0.577,0.213-0.622,0.132c-0.046-0.081,0.104-0.343,0.335-0.587
		c2.216-2.342,4.432-4.683,6.649-7.025c0.231-0.244,0.29-0.614,0.132-0.827s-0.509-0.231-0.784-0.039
		c-1.852,1.293-3.704,2.586-5.556,3.879c-0.275,0.192-0.563,0.303-0.643,0.248c-0.08-0.055,0.01-0.324,0.2-0.6
		c0.962-1.398,1.925-2.796,2.887-4.194c0.19-0.276,0.127-0.664-0.141-0.865c-0.025-0.019-0.05-0.038-0.076-0.057
		c-0.268-0.201-0.688-0.183-0.937,0.042c-1.335,1.201-2.709,2.438-4.472,4.024c-0.249,0.224-0.341,0.158-0.204-0.148
		c0.664-1.488,1.16-2.6,1.631-3.656c0.137-0.306,0.09-0.669-0.104-0.81c-0.194-0.141-0.547-0.066-0.79,0.165
		c-0.741,0.705-1.495,1.397-2.19,2.145c-3.093,3.334-6.198,6.659-9.217,10.06c-1.433,1.613-3.078,2.036-5.159,1.751
		c-2.196-0.301-4.423-0.377-6.897-0.546c-0.335-0.023-0.395-0.215-0.16-0.455c0.771-0.789,0.934-1.482-0.226-1.747
		c-0.327-0.075-0.442-0.309-0.25-0.584c1.435-2.056,2.549-3.963,3.464-6.285c1.532-3.889,2.024-7.686,2.118-11.618
		c0.084-3.516-0.339-7.057-0.725-10.566c-0.367-3.341-0.316-6.95-1.641-9.906c-1.632-3.64-0.487-7.156-1.098-10.559
		c-0.285-1.588,1.052-4.062-1.345-5.432c-0.311-0.178,0.198-1.789,0.145-3.16c-0.013-0.335-0.226-0.382-0.42-0.108l-1.559,2.194
		c-0.194,0.273-0.501,0.436-0.685,0.364c-0.184-0.073-0.247-0.39-0.14-0.708l1.283-3.824c0.107-0.318,0.081-0.627-0.057-0.69
		c-0.138-0.063-0.385,0.122-0.551,0.414c-1.701,2.992-3.402,5.984-5.102,8.976c-0.166,0.292-0.461,0.474-0.659,0.408
		c-0.198-0.066-0.281-0.381-0.185-0.703c1.083-3.621,2.166-7.242,3.248-10.863c0.096-0.321,0.092-0.612-0.009-0.649
		c-0.101-0.037-0.28,0.187-0.399,0.501c-0.994,2.609-1.989,5.218-2.983,7.827c-0.12,0.313-0.152,0.304-0.078-0.023
		c1.045-4.6,1.358-9.336,0.906-14.135c-0.073-0.773-1.288-0.78-1.215,0c0.597,6.338-0.142,12.597-2.206,18.544
		c-0.11,0.317-0.128,0.311-0.041-0.013c0.879-3.276,1.274-6.628,1.167-9.983c0.014-1.271-0.031-2.55-0.153-3.839
		c-0.009-0.096-0.036-0.177-0.077-0.247c-0.072-0.125-0.218-0.458-0.277-0.789c-0.313-1.77-0.764-3.529-1.363-5.265
		c-0.116-0.335-0.418-0.45-0.69-0.406c-0.331,0.053-0.481,0.326-0.493,0.305s-0.017-0.008-0.01,0.029
		c0.007,0.037-0.011,0.139-0.008,0.231c0.001,0.051,0.01,0.106,0.03,0.164c0.026,0.076,0.05,0.152,0.074,0.228
		c0.039,0.126,0.103,0.391,0.149,0.591c0.028,0.12,0.058,0.24,0.094,0.357c1.533,5.052,1.757,10.144,0.839,15.08
		c-0.016,0.08-0.034,0.16-0.051,0.24c-0.029,0.132-0.037-0.031-0.026-0.367c0.175-5.22-1.165-10.404-3.969-15.003
		c-0.407-0.668-1.458-0.058-1.049,0.613c2.679,4.392,3.963,9.302,3.812,14.261c-0.01,0.335-0.103,0.346-0.21,0.028
		c-0.266-0.79-0.588-1.564-0.967-2.318c-0.151-0.3-0.365-0.797-0.474-1.114c-0.985-2.877-2.352-5.6-4.115-8.154
		c-0.442-0.64-1.496-0.033-1.049,0.613c0.951,1.378,1.782,2.805,2.5,4.279c0.147,0.302,0.25,0.554,0.236,0.559
		c-0.014,0.005-0.33,0.098-0.458,0.408c-0.081,0.196-0.07,0.431,0.103,0.637c0.121,0.143,0.238,0.288,0.352,0.435
		c0.19,0.244,0.458,0.691,0.597,0.997c1.681,3.695,2.374,7.685,2.084,11.64c-0.025,0.335-0.06,0.334-0.077-0.001
		c-0.186-3.537-1.055-7.045-2.596-10.378c-0.329-0.711-1.376-0.093-1.049,0.613c2.196,4.749,2.921,9.865,2.204,14.89
		c-0.047,0.332-0.174,0.86-0.274,1.18c-2.847,9.167-4.842,18.567-7.921,27.652c-1.736,5.123-3.155,10.271-6.295,14.959
		c-5.37,8.016-15.957,10.593-23.994,5.129c-5.433-3.694-10.899-3.057-14.406,1.99c-0.191,0.276-0.566,0.651-0.85,0.829
		c-0.662,0.416-1.325,0.831-1.987,1.247c-0.028,0.017-0.053,0.037-0.077,0.059c-0.039,0.036-0.377,0.191-0.418,0.524
		c-0.04,0.324,0.153,0.701,0.576,0.735c1.627,0.13,3.255,0.26,4.882,0.391c0.334,0.027,0.851,0.165,1.154,0.31
		c2.266,1.079,4.58,2.181,7.017,3.342c0.303,0.144,0.367,0.466,0.108,0.68c-2.738,2.265-6.108-0.857-8.744,0.985
		c-0.275,0.192-0.405,0.652-0.328,0.979c0.115,0.49,0.248,1.054,0.404,1.72c0.077,0.327-0.132,0.569-0.466,0.54
		c-3.376-0.296-6.635-0.703-9.899-0.743c-1.526-0.019-3.043,0.892-4.6,1.199c-1.045,0.206-2.156,0.16-3.231,0.107
		c-2.119-0.104-4.235-0.276-6.829-0.461c-0.335-0.024-0.493,0.204-0.353,0.509c0.371,0.808,0.647,1.41,0.98,2.136
		c0.14,0.305-0.018,0.552-0.354,0.552H5.567c-0.336,0-0.446,0.219-0.246,0.488c0.618,0.835,1.061,1.433,1.544,2.086
		c0.2,0.27,0.09,0.504-0.245,0.523c-1.088,0.061-2.073,0.116-3.233,0.18c-0.335,0.019-0.437,0.246-0.243,0.52
		c0.338,0.479,0.562,0.851,0.891,1.039c6.677,3.799,13.791,6.187,21.529,6.426c0.999,0.031,2.086-0.006,2.998-0.358
		c5.489-2.123,10.964-4.286,16.392-6.559c3.703-1.55,7.29-3.376,11.004-4.896c0.768-0.314,1.971-0.039,2.798,0.345
		c4.584,2.128,9.127,4.345,13.658,6.585c8.065,3.986,16.529,3.222,25.01,2.114c3.208-0.419,6.398-0.996,9.581-1.581
		c2.125-0.391,3.397,0.111,3.914,2.467c0.263,1.199,1.056,2.281,1.715,3.393c0.171,0.289,0.551,0.427,0.862,0.3
		c0.029-0.012,0.058-0.024,0.088-0.036c0.311-0.126,0.497-0.493,0.417-0.819c-0.436-1.773-0.879-3.576-1.398-5.69
		c-0.08-0.326,0.089-0.451,0.38-0.284c0.861,0.496,1.686,0.948,2.447,1.489c0.479,0.34,0.764,0.94,1.196,1.363
		c1.228,1.204,2.896,2.364,4.116,0.728c0.63-0.846-0.055-2.901-0.545-4.266c-0.234-0.653-0.998-1.115-1.569-1.816
		c-0.212-0.26-0.085-0.41,0.232-0.298c2.928,1.037,5.889,2.086,9.392,3.328c0.316,0.112,0.434-0.031,0.264-0.32
		c-1.229-2.085-2.253-3.821-3.497-5.93c-0.17-0.289-0.054-0.429,0.261-0.313c3.356,1.243,6.024,2.232,8.646,3.203
		c0.315,0.117,0.697-0.029,0.854-0.326c0.01-0.018,0.02-0.037,0.029-0.055c0.157-0.296,0.079-0.715-0.174-0.935
		c-0.784-0.679-1.597-1.383-2.588-2.241c-0.254-0.22-0.191-0.354,0.14-0.3c2.372,0.386,4.443,0.722,6.487,1.055
		c0.331,0.054,0.664-0.023,0.744-0.172c0.079-0.149-0.095-0.4-0.389-0.561c-0.911-0.499-1.823-0.999-2.735-1.498
		c-0.294-0.161-0.526-0.457-0.518-0.662c0.008-0.204,0.286-0.37,0.622-0.37h6.685c0.336,0,0.654-0.201,0.711-0.449
		c0.057-0.248-0.152-0.542-0.468-0.656c-2.401-0.871-4.802-1.741-7.203-2.612c-0.315-0.114-0.566-0.33-0.559-0.48
		c0.007-0.151,0.283-0.299,0.617-0.33c3.237-0.302,6.509-0.608,10.369-0.968c0.334-0.031,0.37-0.193,0.08-0.362
		c-1.179-0.686-2.015-1.173-2.891-1.683c-0.29-0.169-0.257-0.353,0.073-0.413c0.86-0.154,1.698-0.305,2.882-0.517
		C147.021,97.787,147.043,97.622,146.74,97.479z"/>
</g>
</svg>
