<?xml version="1.0" encoding="iso-8859-1"?>
<!-- Generator: Adobe Illustrator 17.1.0, SVG Export Plug-In . SVG Version: 6.00 Build 0)  -->
<!DOCTYPE svg PUBLIC "-//W3C//DTD SVG 1.1//EN" "http://www.w3.org/Graphics/SVG/1.1/DTD/svg11.dtd">
<svg version="1.1" id="Capa_1" xmlns="http://www.w3.org/2000/svg" xmlns:xlink="http://www.w3.org/1999/xlink" x="0px" y="0px"
	 viewBox="0 0 150 150" style="enable-background:new 0 0 150 150;" xml:space="preserve">
<g>
<path d="M16.21,62.069c0.209-0.089,0.195-0.167-0.032-0.17c-1.043-0.012-2.059,0.091-3.059,0.281c-1.1,0.21-2.181,0.525-3.266,0.81
	c-0.93,0.245-1.855,0.506-2.782,0.763c-0.219,0.061-0.418,0.021-0.445-0.087c-0.027-0.109,0.115-0.281,0.319-0.379
	c3.348-1.609,7.011-2.122,10.621-2.932c0.221-0.05,0.217-0.091-0.01-0.091h-3.988c-0.227,0-0.415-0.067-0.42-0.15
	s0.166-0.209,0.385-0.271c1.79-0.51,3.654-0.541,5.493-0.72c0.226-0.022,0.527-0.184,0.692-0.339
	c0.15-0.141,0.303-0.246,0.452-0.239c1.841,0.08,3.685,0.17,5.519,0.355c1.415,0.143,2.819,0.396,4.226,0.614
	c0.224,0.035,0.387-0.005,0.363-0.088c-0.024-0.083,0.124-0.225,0.329-0.324c0.162-0.079,0.323-0.144,0.476-0.128
	c1.898,0.201,3.792,0.441,5.684,0.696c1.151,0.155,2.297,0.345,3.444,0.525c0.088,0.014,0.171,0.015,0.242,0.005
	c0.133-0.018,0.179-0.226,0.067-0.302c-0.06-0.04-0.136-0.077-0.221-0.105c-0.619-0.199-1.239-0.398-1.858-0.597
	c-0.216-0.069-0.209-0.155,0.017-0.174c2.19-0.189,4.187,0.765,6.495,1.105c0.225,0.033,0.265-0.063,0.089-0.206
	c-0.37-0.301-0.673-0.548-0.956-0.779c-0.176-0.143-0.283-0.321-0.24-0.396s0.243-0.053,0.445,0.051
	c1.183,0.605,2.365,1.209,3.545,1.813c0.202,0.103,0.412,0.084,0.469-0.043c0.057-0.127,0.256-0.128,0.444-0.001
	c1.62,1.085,3.192,2.147,4.779,3.186c0.358,0.235,0.769,0.398,1.173,0.552c0.657,0.25,1.333,0.451,1.99,0.702
	c0.205,0.078,0.363,0.27,0.56,0.379c0.929,0.516,1.863,1.025,2.791,1.533c0.199,0.109,0.389,0.14,0.425,0.065
	s0.218-0.032,0.404,0.099c0.995,0.699,1.935,1.432,2.97,1.99c1.403,0.757,2.355,2.086,4.013,2.595
	c1.522,0.468,2.837,1.616,4.237,2.475c0.234,0.144,0.452,0.315,0.777,0.56c0.181,0.137,0.254,0.078,0.161-0.129
	c-0.039-0.086-0.072-0.161-0.103-0.229c-0.093-0.207-0.132-0.42-0.086-0.475c0.046-0.055,0.239-0.003,0.432,0.117
	c0.438,0.273,0.876,0.546,1.319,0.811c0.226,0.135,0.618,0.397,0.684,0.335c0.584-0.548,0.913,0.039,1.321,0.244
	c0.402,0.203,0.8,0.413,1.226,0.636c0.098,0.052,0.191,0.057,0.261,0.024c0.136-0.063,0.132-0.378,0.268-0.443
	c0.071-0.034,0.165-0.03,0.264,0.019c0.755,0.379,1.467,0.737,2.173,1.091c0.203,0.102,0.393,0.144,0.424,0.093
	c0.031-0.05-0.068-0.226-0.222-0.394c-0.118-0.129-0.237-0.257-0.355-0.386c-0.154-0.167-0.244-0.349-0.201-0.406
	c0.043-0.057,0.239-0.016,0.439,0.092c0.828,0.446,1.657,0.891,2.485,1.337c0.073,0.039,0.143,0.069,0.205,0.088
	c0.118,0.036,0.219-0.121,0.175-0.254c-0.024-0.073-0.057-0.155-0.096-0.234c-0.08-0.16-0.159-0.32-0.239-0.48
	c-0.101-0.203-0.143-0.415-0.094-0.473c0.03-0.036,0.122-0.04,0.236-0.017c0.132,0.026,0.396,0.143,0.599,0.229
	c0.851,0.361,1.702,0.723,2.553,1.084c0.209,0.089,0.397,0.114,0.42,0.057c0.023-0.057-0.072-0.249-0.213-0.427
	c-0.137-0.175-0.275-0.349-0.412-0.524c-0.14-0.178-0.212-0.373-0.159-0.435s0.267-0.045,0.478,0.037
	c0.629,0.246,1.258,0.491,1.887,0.737c0.211,0.083,0.4,0.116,0.421,0.074s-0.086-0.212-0.238-0.38
	c-0.096-0.105-0.202-0.223-0.329-0.363c-0.153-0.168-0.101-0.249,0.116-0.181c0.662,0.208,1.208,0.38,1.779,0.56
	c0.217,0.068,0.304-0.038,0.196-0.238c-0.153-0.281-0.296-0.544-0.468-0.86c-0.108-0.199-0.015-0.327,0.208-0.286
	c0.712,0.133,1.317,0.246,1.99,0.371c0.223,0.042,0.282-0.063,0.132-0.233c-0.214-0.242-0.394-0.446-0.561-0.635
	c-0.15-0.17-0.243-0.357-0.206-0.417c0.037-0.06,0.249-0.091,0.475-0.068c0.481,0.049,0.969,0.099,1.49,0.151
	c0.226,0.023,0.298-0.105,0.161-0.287c-0.073-0.097-0.142-0.188-0.212-0.281c-0.137-0.181-0.066-0.359,0.158-0.397
	c0.021-0.004,0.041-0.007,0.061-0.01c0.224-0.038,0.29-0.213,0.149-0.39c-0.026-0.032-0.051-0.063-0.075-0.094
	c-0.142-0.177-0.097-0.414,0.098-0.53c0.69-0.41,1.304-0.786,1.937-1.126c1.773-0.951,3.559-1.877,5.339-2.815
	c0.083-0.044,0.229-0.117,0.223-0.161c-0.115-0.9,0.514-0.547,0.927-0.563c0.302-0.011,0.603-0.028,0.915-0.045
	c0.227-0.012,0.343-0.194,0.261-0.405c-0.022-0.057-0.045-0.115-0.069-0.176c-0.083-0.211,0.029-0.339,0.25-0.285
	c0.687,0.169,1.304,0.321,1.917,0.472c0.22,0.054,0.388-0.061,0.374-0.257c-0.014-0.196,0.155-0.32,0.374-0.259
	c0.573,0.159,1.184,0.384,1.377,0.191c0.579-0.58,0.885-0.068,1.276,0.057c0.322,0.103,0.629,0.249,0.948,0.399
	c0.206,0.096,0.341-0.008,0.301-0.229c-0.04-0.221,0.1-0.337,0.313-0.259c0.59,0.217,1.137,0.418,1.724,0.634
	c0.213,0.078,0.321-0.031,0.241-0.243c-0.06-0.159-0.117-0.312-0.182-0.485c-0.08-0.213,0.031-0.33,0.248-0.262
	c0.612,0.192,1.146,0.36,1.707,0.535c0.217,0.068,0.321-0.047,0.233-0.256c-0.028-0.066-0.056-0.134-0.088-0.208
	c-0.088-0.209,0.016-0.324,0.233-0.256c1.304,0.409,2.491,0.78,3.657,1.146c0.217,0.068,0.3-0.037,0.187-0.233
	c-0.051-0.089-0.11-0.191-0.179-0.312c-0.113-0.197-0.039-0.276,0.165-0.178c0.474,0.228,0.863,0.414,1.235,0.593
	c0.205,0.098,0.383-0.006,0.398-0.232c0.017-0.257,0.205-0.387,0.422-0.321c0.481,0.146,0.933,0.284,1.423,0.434
	c0.217,0.066,0.28-0.026,0.142-0.205c-0.235-0.304-0.448-0.579-0.667-0.862c-0.139-0.18-0.073-0.369,0.147-0.424
	c0.368-0.091,0.706-0.175,1.069-0.265c0.22-0.055,0.26-0.22,0.089-0.369c-0.18-0.157-0.347-0.302-0.546-0.475
	c-0.171-0.149-0.153-0.365,0.041-0.483c0.328-0.199,0.638-0.387,0.943-0.573c0.194-0.118,0.285-0.284,0.204-0.37
	c-0.081-0.087-0.302-0.157-0.493-0.157s-0.346-0.184-0.34-0.411c0.01-0.423,0.026-0.818-0.014-1.207
	c-0.172-1.705-0.04-3.395-0.914-5.073c-0.485-0.931-0.81-2.435,0.058-3.628c0.008-0.011-0.014-0.045-0.042-0.084
	c-0.031-0.043-0.231-0.026-0.448,0.04c-0.758,0.229-1.519,0.458-2.28,0.688c-0.217,0.066-0.431,0.042-0.478-0.052
	c-0.047-0.094,0.053-0.293,0.223-0.443c0.781-0.691,1.572-1.391,2.446-2.164c0.17-0.15,0.124-0.272-0.103-0.272H118.8
	c-0.227,0-0.273-0.122-0.094-0.262c1.796-1.417,3.819-1.858,5.965-2.317c0.222-0.048,0.265-0.209,0.092-0.356
	c-1.596-1.359-3.249-2.316-5.15-2.822c-0.219-0.058-0.216-0.122,0.01-0.138c3.739-0.27,6.173,2.167,8.855,4.238
	c0.18,0.139,0.281,0.071,0.225-0.149c-0.275-1.075-0.55-2.15-0.825-3.225c-0.056-0.22-0.03-0.425,0.06-0.459
	c0.089-0.033,0.308,0.051,0.475,0.205c1.107,1.02,1.656,2.444,2.286,3.761c0.654,1.366,1.637,1.474,1.669,1.389
	c0.02-0.053,0.044-0.102,0.075-0.145c0.193-0.272,0.891-0.4,1.267-0.28c0.62,0.197,1.312,0.522,1.708,1.009
	c1.787,2.2,3.049,4.669,3.535,7.505c0.09,0.523,0.349,1.082,0.694,1.484c0.731,0.853,1.179,1.802,1.029,2.895
	c-0.091,0.661-0.365,1.296-0.601,1.937c-0.079,0.213-0.215,0.364-0.311,0.335c-0.096-0.029-0.174-0.236-0.174-0.463v-0.242
	c0-0.227-0.164-0.328-0.368-0.229c-1.261,0.615-1.361,0.501-2.481-0.775c-0.305-0.348-0.625-0.756-1.027-0.934
	c-1.918-0.85-3.851-1.675-5.813-2.416c-0.823-0.311-1.448,0.202-1.513,1.08c-0.037,0.51-0.044,1.027-0.011,1.538
	c0.141,2.168,0.292,4.335,0.458,6.501c0.167,2.175-0.624,3.881-2.64,4.758c-1.515,0.658-2.176,1.839-2.569,2.945
	c-0.076,0.214-0.018,0.537,0.126,0.712c0.366,0.446,0.697,0.801,0.892,1.218c0.572,1.227,1.54,1.5,2.756,1.355
	c0.235-0.028,0.497-0.046,0.715,0.025c2.225,0.728,4.382,0.146,6.554-0.287c0.82-0.163,1.185-0.706,1.409-1.414
	c0.387-1.226,0.729-2.468,1.148-3.684c0.638-1.848,2.29-2.599,4.142-1.923c0.213,0.078,0.207,0.222-0.007,0.296
	c-0.578,0.198-1.144,0.365-1.635,0.659c-0.469,0.281-1.203,1.034-1.123,1.171c0.481,0.823,0.182,1.515-0.143,2.223
	c-0.095,0.206-0.007,0.287,0.19,0.175c0.602-0.343,1.149-0.689,1.744-0.903c0.763-0.275,1.585-0.4,2.389-0.543
	c1.635-0.291,3.494,0.289,4.16,2.155c0.054,0.151,0.126,0.297,0.202,0.44c0.106,0.201,0.191,0.502,0.191,0.672
	s-0.128,0.176-0.288,0.015c-0.257-0.256-0.516-0.509-0.735-0.794c-1.016-1.317-3.324-1.416-4.581-0.283
	c-0.169,0.152-0.099,0.283,0.128,0.273c3.4-0.15,5.351,1.244,4.925,3.661c-0.039,0.224-0.169,0.235-0.263,0.028
	c-0.236-0.526-0.429-0.998-0.712-1.408c-0.191-0.276-0.599-0.525-0.932-0.559c-1.442-0.147-2.901-0.204-4.033,0.951
	c-0.297,0.304-0.531,0.67-0.86,1.137c-0.131,0.186-0.059,0.365,0.164,0.408c0.57,0.108,1.082,0.215,1.599,0.271
	c1.253,0.136,2.281,0.566,2.927,1.751c0.518,0.951,0.988,1.895,1.026,2.981c0.008,0.227-0.111,0.26-0.238,0.072
	c-0.447-0.661-0.86-1.312-1.345-1.904c-0.587-0.717-1.366-0.865-1.927-0.477c-0.187,0.129-0.463,0.203-0.667,0.106
	c-0.121-0.058-0.242-0.115-0.363-0.173c-0.205-0.098-0.42-0.135-0.481-0.083c-0.061,0.052-0.008,0.247,0.118,0.436
	c1.796,2.703,3.536,5.424,2.833,8.888c-0.045,0.222-0.113,0.218-0.149-0.006c-0.478-2.965-2.166-5.176-4.478-7.049
	c-0.176-0.143-0.205-0.113-0.069,0.068c1.611,2.149,2.06,4.464,1.145,7.093c-0.075,0.214-0.184,0.306-0.24,0.212
	c-0.052-0.085-0.084-0.137-0.076-0.18c0.432-2.191-1.019-3.63-2.126-5.167c-0.849-1.179-1.877-2.227-2.805-3.351
	c-0.356-0.43-0.631-0.326-1.025-0.034c-0.808,0.596-1.649,1.148-2.587,1.595c-0.205,0.098-0.272,0.017-0.147-0.172
	c0.027-0.041,0.055-0.083,0.085-0.128c0.126-0.189,0.056-0.275-0.155-0.192c-0.987,0.389-1.892,0.746-2.785,1.098
	c-0.211,0.083-0.421,0.073-0.469-0.023c-0.048-0.096,0.066-0.276,0.255-0.402c0.24-0.161,0.48-0.322,0.721-0.484
	c0.188-0.127,0.323-0.267,0.301-0.315c-0.022-0.047-0.214-0.026-0.429,0.048c-1.18,0.405-2.359,0.811-3.539,1.216
	c-0.209,0.072-0.486,0.174-0.624,0.174c-0.11,0-0.194-0.031-0.22-0.09c-0.042-0.099,0.067-0.295,0.244-0.437
	c0.338-0.271,0.677-0.543,1.015-0.814c0.177-0.142,0.295-0.302,0.264-0.357c-0.031-0.055-0.234-0.051-0.453,0.009
	c-0.913,0.251-1.827,0.502-2.74,0.753c-0.219,0.06-0.415,0.056-0.438-0.01s0.129-0.188,0.339-0.274
	c0.498-0.204,0.997-0.407,1.495-0.611c0.103-0.042,0.154-0.091,0.152-0.133c-0.006-0.118-0.351-0.128-0.57-0.151
	c-1.584-0.166-3.231,0.103-4.92-0.737c-0.203-0.101-0.178-0.216,0.048-0.24c0.833-0.088,1.538-0.163,2.223-0.236
	c0.226-0.024,0.412-0.093,0.417-0.154c0.003-0.038-0.063-0.095-0.167-0.151c-0.113-0.061-0.384-0.149-0.593-0.22
	c-1.135-0.386-2.274-0.772-3.431-1.165c-0.215-0.073-0.487,0.024-0.607,0.216c-0.906,1.447-1.881,3.003-2.829,4.515
	c-0.06,0.096-0.095,0.225-0.102,0.355c-0.012,0.206,0.139,0.525,0.234,0.725c0.838,1.748,1.655,3.453,2.43,5.071
	c0.098,0.205,0.36,0.348,0.585,0.319c1.32-0.166,2.604-0.328,3.989-0.502c0.225-0.028,0.466-0.226,0.558-0.434
	c0.068-0.154,0.16-0.303,0.29-0.352c1.452-0.546,2.943-0.992,4.42-1.47c0.503-0.163,1.042-0.254,1.503-0.497
	c0.985-0.52,2.332-0.332,3.16,0.592c0.354,0.395,0.643,0.847,0.896,1.336c0.104,0.202,0.025,0.271-0.166,0.148
	c-0.382-0.246-0.763-0.494-1.161-0.712c-0.197-0.107-0.472-0.161-0.689-0.119c-0.145,0.028-0.284,0.091-0.421,0.162
	c-0.202,0.104-0.292,0.359-0.207,0.57c0.068,0.168,0.144,0.326,0.267,0.426c0.551,0.444,0.878,0.96,0.946,1.701
	c0.021,0.226-0.125,0.288-0.294,0.137c-0.194-0.174-0.372-0.333-0.544-0.486c-0.059-0.053-0.118-0.1-0.171-0.137
	c-0.099-0.07-0.206,0.012-0.172,0.132c0.018,0.064,0.043,0.137,0.074,0.212c0.082,0.203,0.173,0.428,0.287,0.71
	c0.085,0.21-0.012,0.302-0.217,0.204c-0.292-0.139-0.534-0.255-0.772-0.368c-0.205-0.098-0.483-0.029-0.655,0.119
	c-0.84,0.721-1.99,0.523-3.016,0.519c-2.295-0.009-4.191,1.072-6.282,1.883c-0.212,0.082-0.302,0.309-0.198,0.511
	c0.08,0.155,0.148,0.29,0.208,0.429c0.74,1.713,1.463,3.435,2.224,5.139c0.156,0.35,0.381,0.733,0.684,0.945
	c2.767,1.942,5.53,3.893,8.36,5.74c0.85,0.555,1.88,1.014,2.873,1.13c2.098,0.245,4.201,0.363,6.163,1.253
	c0.146,0.066,0.336,0.059,0.503,0.052c1.563-0.071,2.245,0.262,2.582,1.436c0.061,0.212,0.116,0.483,0.117,0.601
	c0.002,0.116-0.02,0.193-0.057,0.193c-0.057,0-0.226-0.137-0.378-0.305c-0.208-0.23-0.42-0.465-0.646-0.715
	c-0.152-0.169-0.376-0.151-0.499,0.04c-0.155,0.24-0.288,0.444-0.412,0.636c-0.123,0.191-0.316,0.345-0.429,0.345
	s-0.388-0.025-0.613-0.057c-1.389-0.195-2.777-0.405-4.17-0.568c-2.505-0.293-5.015-0.545-7.522-0.822
	c-0.65-0.072-1.258-0.403-1.019-1.091c0.27-0.78-0.168-1.052-0.606-1.409c-0.504-0.41-1.021-0.803-1.536-1.201
	c-1.867-1.441-3.734-2.881-5.441-4.198c-0.18-0.139-0.491-0.171-0.695-0.071c-0.817,0.399-1.506,0.735-2.266,1.106
	c-0.204,0.1-0.256,0.035-0.113-0.141c0.305-0.375,0.56-0.675,0.761-1.007c0.151-0.249,0.177-0.579,0.237-0.877
	c0.284-1.419-0.747-2.301-1.454-3.244c-1.873-2.5-4.09-4.422-7.532-4.34c-2.572,0.062-2.859,0.404-2.975-1.929
	c-0.011-0.221-0.015-0.56-0.142-0.676c-0.074-0.068-0.176-0.104-0.286-0.092c-0.218,0.024-0.294-0.11-0.165-0.297
	c0.234-0.34,0.428-0.611,0.585-0.902c0.416-0.771,0.499-1.385-0.278-2.152c-0.872-0.861-1.425-2.042-2.145-3.065
	c-0.204-0.289-0.521-0.495-0.758-0.764c-0.565-0.642-1.248-0.072-1.814-0.195c-1.582-0.345-3.117-0.899-4.676-1.351
	c-0.487-0.141-0.989-0.294-1.49-0.316c-1.84-0.082-3.684-0.08-5.523-0.169c-2.386-0.116-4.809-0.069-7.147-0.485
	c-4.632-0.825-9.271-1.824-13.316-4.4c-4.609-2.935-9.083-6.081-13.687-9.023c-2.576-1.646-5.177-3.348-7.977-4.526
	c-5.298-2.229-10.935-3.119-16.683-3.109c-4.173,0.007-8.307,0.374-12.239,1.695c-0.215,0.072-0.539,0.026-0.743-0.075
	c-0.236-0.118-0.477-0.187-0.693-0.14c-1.162,0.252-2.334,0.514-3.446,0.922c-1.724,0.633-3.384,1.441-5.108,2.075
	c-1.277,0.47-2.652,0.69-3.633,1.769c-0.056,0.061-0.157,0.081-0.268,0.092c-0.159,0.015-0.287-0.063-0.287-0.177
	s0.102-0.297,0.228-0.41c0.076-0.069,0.15-0.139,0.218-0.215c2.143-2.421,4.612-4.324,7.753-5.344
	C12.688,63.659,14.435,62.821,16.21,62.069z"/>
</g>
</svg>
