<?xml version="1.0" encoding="iso-8859-1"?>
<!-- Generator: Adobe Illustrator 17.1.0, SVG Export Plug-In . SVG Version: 6.00 Build 0)  -->
<!DOCTYPE svg PUBLIC "-//W3C//DTD SVG 1.1//EN" "http://www.w3.org/Graphics/SVG/1.1/DTD/svg11.dtd">
<svg version="1.1" id="Capa_1" xmlns="http://www.w3.org/2000/svg" xmlns:xlink="http://www.w3.org/1999/xlink" x="0px" y="0px"
	 viewBox="0 0 150 150" style="enable-background:new 0 0 150 150;" xml:space="preserve">
<g>
	<path d="M139.573,129.716c-0.666-0.41-1.372-0.778-2.1-1.06c-1.541-0.597-2.6-1.684-2.986-3.238
		c-0.565-2.279-2.331-3.285-4.245-3.535c-3.68-0.48-5.977-2.926-7.938-5.488c-1.463-1.912-2.016-4.537-1.109-7.105
		c0.209-0.593,0.226-1.071-0.013-1.764c-0.3-0.867,0.034-1.967,0.144-2.961c1.078-9.752,4.924-18.468,10.025-26.712
		c0.482-0.779,0.964-1.557,1.451-2.332c1.251-1.993,1.766-4.145,2.06-6.508c0.622-4.998,0.809-10.066,2.331-14.948
		c1.573-5.046,1.459-10.189,0.539-15.385c-0.475-2.684-0.367-5.467-0.645-8.193c-0.636-6.253-2.097-12.297-5.149-17.843
		c-1.36-2.471-2.948-4.821-4.513-7.173c-0.645-0.969-1.408-1.993-2.874-1.453c-0.771,0.284-1.797,2.247-1.734,3.313
		c0.018,0.302,0.168,0.608,0.136,0.899c-0.067,0.612-0.212,1.215-0.328,1.822c-0.173,0.909-0.4,1.812-0.507,2.728
		c-0.099,0.847-0.074,1.71-0.096,2.566c-0.025,0.999-0.098,2.001-0.047,2.996c0.084,1.652,0.192,3.235-0.634,4.828
		c-0.446,0.861-0.196,2.059-0.396,3.078c-0.211,1.075-0.607,2.112-0.882,3.175c-0.414,1.596-0.87,3.187-1.169,4.806
		c-0.522,2.817-0.854,5.671-1.42,8.479c-0.739,3.667-1.651,7.299-2.443,10.956c-0.339,1.565-0.534,3.161-0.853,4.731
		c-0.11,0.541-0.419,1.039-0.599,1.569c-0.309,0.913-0.593,1.834-0.873,2.756c-0.049,0.162,0.022,0.37-0.047,0.517
		c-0.907,1.918-1.833,3.826-2.746,5.741c-0.496,1.04-0.98,2.087-1.46,3.134c-0.09,0.196-0.117,0.421-0.209,0.616
		c-1.934,4.072-3.996,8.09-5.779,12.227c-1.968,4.566-3.301,9.313-3.887,14.308c-0.598,5.09-1.596,10.137-2.546,15.179
		c-0.292,1.549-0.964,3.034-1.538,4.518c-0.37,0.958-1.728,1.469-2.786,1.222c-5.604-1.308-11.227-2.722-17.005-2.622
		c-3.46,0.06-6.901,0.922-10.36,1.352c-10.466,1.3-20.93,2.614-31.406,3.827c-7.381,0.855-14.777,1.014-22.159-0.09
		c-0.387-0.058-0.78-0.08-1.172-0.091c-0.113-0.003-0.229,0.089-0.63,0.26c0.562,0.397,0.905,0.803,1.324,0.909
		c1.852,0.465,3.72,0.875,5.594,1.245c1.569,0.31,3.188,0.413,4.727,0.826c3.542,0.952,7.062,0.574,10.617,0.162
		c2.967-0.344,5.952-0.617,8.935-0.696c1.13-0.03,2.26,0.678,3.419,0.856c1.261,0.194,2.556,0.191,3.837,0.224
		c1.463,0.038,2.928,0.012,4.391,0.029c1.565,0.019,3.162-0.137,4.686,0.128c2.468,0.43,4.89,1.134,7.327,1.736
		c2.431,0.601,4.855,1.233,7.289,1.826c1.717,0.419,3.444,0.802,5.17,1.181c0.245,0.054,0.561,0.089,0.765-0.018
		c0.943-0.497,1.464-0.151,1.678,0.946c1.094-0.331,2.081-0.63,3.069-0.929c0.076,0.115,0.153,0.23,0.229,0.345
		c-4.187,2.809-8.299,5.739-12.582,8.393c-4.312,2.671-9.235,3.841-14.215,4.771c0.023,0.208,0.046,0.416,0.069,0.625
		c1.111,0.166,2.271,0.622,3.322,0.441c2.578-0.444,5.104-1.186,7.653-1.799c0.509-0.122,0.936-0.368,1.449,0.283
		c0.277,0.352,1.221,0.286,1.85,0.233c1.561-0.132,3.109-0.424,4.67-0.535c0.981-0.07,1.978,0.072,2.968,0.113
		c0.386,0.016,0.866,0.169,1.146,0c2.325-1.411,4.915-0.882,7.37-0.915c3.955-0.053,7.923,0.169,11.872,0.452
		c3.855,0.276,7.494-0.409,11.007-1.921c4.689-2.019,9.478-3.687,14.473-4.83c2.8-0.641,5.616-1.339,8.036-3.207
		c2.167-1.672,4.755-1.71,7.341-0.766c1.286,0.47,2.608,0.842,4.183,1.344C142.22,132.104,141.185,130.706,139.573,129.716z"/>
</g>
</svg>
