<?xml version="1.0" encoding="iso-8859-1"?>
<!-- Generator: Adobe Illustrator 17.1.0, SVG Export Plug-In . SVG Version: 6.00 Build 0)  -->
<!DOCTYPE svg PUBLIC "-//W3C//DTD SVG 1.1//EN" "http://www.w3.org/Graphics/SVG/1.1/DTD/svg11.dtd">
<svg version="1.1" id="Capa_1" xmlns="http://www.w3.org/2000/svg" xmlns:xlink="http://www.w3.org/1999/xlink" x="0px" y="0px"
	 viewBox="0 0 150 150" style="enable-background:new 0 0 150 150;" xml:space="preserve">
<g>
	<path d="M143.136,76.163c-3.366-0.961-3.661-1.599-2.79-5.201c0.762-3.152,0.646-3.014-2.198-4.487
		c-2.489-1.289-5.194-2.584-5.647-5.971c-0.069-0.517-0.782-1.082-1.33-1.379c-5.523-2.992-11.094-5.897-16.61-8.9
		c-4.848-2.639-10.13-3.89-15.409-5.299c-5.397-1.441-10.695-3.315-15.929-5.284c-4.363-1.641-7.992-1.048-11.905,1.595
		c-5.553,3.751-11.463,7.004-17.373,10.187c-7.392,3.981-14.951,7.65-22.397,11.532c-0.665,0.347-1.029,1.273-1.532,1.929
		c0.177,0.251,0.354,0.503,0.532,0.754c-2.687,0.361-5.381,1.022-8.057,0.953c-1.263-0.032-2.682-1.271-3.695-2.295
		c-2.506-2.533-4.722-5.355-7.257-7.856c-1.014-1-2.559-1.461-3.927-2.202c-0.273,0.628-0.447,0.827-0.42,0.994
		c0.702,4.398-0.385,8.581-1.204,12.859c-0.54,2.821-0.318,5.881,0.074,8.764c0.609,4.474,2.323,8.822,0.946,13.605
		c2.596-0.188,4.44-1.084,5.771-2.979c1.652-2.353,3.272-4.73,4.972-7.047c2.579-3.515,6.424-4.731,10.608-3.433
		c0.329,0.102,0.886,0.165,0.94,0.357c0.921,3.303,4.241,3.339,6.52,4.647c5.819,3.342,11.939,6.164,17.717,9.57
		c2.734,1.612,4.911,4.145,7.43,6.149c2.385,1.898,4.8,3.782,7.357,5.433c3.315,2.141,7.069,1.47,10.702,1.159
		c4.881-0.418,9.552-1.692,14.019-3.714c1.012-0.459,2.047-0.873,3.088-1.263c5.613-2.103,11.232-4.191,17.457-6.511
		c-0.519,1.623-0.862,2.699-1.206,3.775c-0.604,1.886,0.746,4.012,2.723,3.944c0.64-0.022,1.583-0.884,1.791-1.549
		c0.318-1.014,0.234-2.204,0.105-3.294c-0.129-1.086-0.524-2.141-0.877-3.494c4.638-2.014,9.271-3.969,13.847-6.046
		c1.518-0.689,2.867-1.743,4.34-2.542c2.43-1.319,4.906-2.555,7.348-3.853c0.784-0.417,1.721-0.765,2.233-1.421
		C144.547,77.508,144.614,76.585,143.136,76.163z"/>
</g>
</svg>
