<?xml version="1.0" encoding="iso-8859-1"?>
<!-- Generator: Adobe Illustrator 17.1.0, SVG Export Plug-In . SVG Version: 6.00 Build 0)  -->
<!DOCTYPE svg PUBLIC "-//W3C//DTD SVG 1.1//EN" "http://www.w3.org/Graphics/SVG/1.1/DTD/svg11.dtd">
<svg version="1.1" id="Capa_1" xmlns="http://www.w3.org/2000/svg" xmlns:xlink="http://www.w3.org/1999/xlink" x="0px" y="0px"
	 viewBox="0 0 150 150" style="enable-background:new 0 0 150 150;" xml:space="preserve">
<g>
	<path d="M132.827,40.227c-1.329-0.732-2.948-1.161-4.467-1.27c-2.26-0.164-4.551,0.065-6.828,0.157
		c-1.74,0.07-3.479,0.235-5.219,0.268c-2.013,0.039-3.553-0.851-4.846-2.419c-4.772-5.787-10.51-10.149-17.798-12.141
		c-0.143-0.039-0.325-0.099-0.406-0.135c-0.049-0.022-0.098-0.044-0.147-0.065c-1.055-0.457-2.169-0.881-3.139-1.475
		c-0.127-0.077-0.192-0.14-0.15-0.135c0.042,0.005,0.05-0.11,0.039-0.258c-0.015-0.2,0.003-0.385,0.046-0.559
		c0.036-0.144,0.18-0.329,0.29-0.429c0.284-0.258,0.536-0.563,0.743-0.907c0.027-0.044,0.054-0.088,0.081-0.132
		c0.046-0.072,0.172-0.211,0.282-0.31c0.161-0.146,0.321-0.294,0.471-0.449c0.724-0.748,1.378-1.564,2.217-2.54
		c0.097-0.113,0.151-0.207,0.12-0.211c-0.031-0.004,0.036-0.086,0.15-0.181c0.613-0.507,1.264-0.973,1.95-1.399
		c0.085-0.053,0.166-0.108,0.242-0.165c0.119-0.089,0.322-0.213,0.457-0.274c0.469-0.213,0.928-0.477,1.349-0.723
		c1.447-0.846,1.431-1.164,0.387-2.452c-3.277-4.044-7.592-6.295-12.618-7.338c-0.729-0.151-1.455-0.315-2.212-0.353
		c-0.148-0.007-0.384-0.043-0.529-0.072c-0.462-0.092-0.947-0.076-1.406,0.054c-0.038,0.011-0.072,0.024-0.104,0.039
		c-0.055,0.026-0.218,0.074-0.345,0.152c-0.352,0.216-0.525,0.71-0.107,1.037c0.034,0.026,0.067,0.053,0.1,0.08
		c0.054,0.045,0.117,0.202,0.136,0.349c0.255,1.924-0.129,3.846-1.004,5.516c-0.069,0.131-0.207,0.327-0.306,0.438
		c-0.909,1.026-1.861,2.029-2.908,2.921c-0.225,0.192-0.454,0.379-0.686,0.562c-0.116,0.092-0.226,0.173-0.243,0.183
		c-0.01,0.006-0.021,0.011-0.031,0.017c-0.048,0.024-0.091,0.051-0.127,0.081c-0.065,0.052-0.199,0.181-0.318,0.27
		c-2.125,1.588-4.45,2.939-6.65,4.441c-1.478,1.009-2.961,2.012-4.393,3.083c-2.052,1.534-2.721,3.572-2.058,6.057
		c0.447,1.673,0.87,3.354,1.335,5.174c0.037,0.144,0.072,0.381,0.078,0.529c0.088,2.104,0.176,4.208,0.264,6.311
		c0.006,0.148-0.037,0.278-0.097,0.288c-0.06,0.01-0.11,0.138-0.112,0.286c-0.056,4.299-0.382,8.603-2.203,12.786
		c-0.059,0.136-0.005,0.307,0.123,0.382c5.01,2.942,10.127,5.149,15.859,5.412c0.148,0.007,0.383,0.048,0.524,0.094
		c0.359,0.116,0.718,0.232,1.077,0.349c0.408,0.132,0.681-0.123,0.755-0.446c0.033-0.145,0.082-0.377,0.08-0.525
		c-0.002-0.116-0.044-0.239-0.14-0.36c-0.587-0.743-1.173-1.486-1.76-2.23c-0.092-0.116-0.171-0.255-0.186-0.307
		c-0.009-0.033-0.021-0.063-0.037-0.09c-1.056-1.754-0.856-3.615-0.474-5.482c0.076-0.371,0.129-0.738,0.157-1.103
		c0.011-0.148,0.056-0.381,0.108-0.52c0.494-1.315,1.196-2.557,2.052-3.698c0.089-0.119,0.281-0.189,0.426-0.156
		c2.941,0.662,5.751,1.944,8.099,3.851c0.759,0.616,1.668,1.389,2.489,2.268c0.101,0.109,0.246,0.3,0.325,0.426
		c0.11,0.178,0.219,0.356,0.324,0.537c0.075,0.128,0.18,0.344,0.235,0.482c0.218,0.555,0.393,1.142,0.527,1.758
		c0.446,2.051,0.687,4.103,0.686,6.139c0,0.148-0.104,0.332-0.229,0.411c-0.207,0.129-0.414,0.258-0.62,0.387
		c-0.126,0.079-0.233,0.134-0.24,0.124c-0.006-0.01-0.125,0.023-0.265,0.073c-2.622,0.954-5.117,1.938-7.666,2.751
		c-4.115,1.312-7.872,3.192-10.895,6.346c-2.089,2.179-3.587,4.678-4.016,7.722c-0.047,0.336-0.046,0.678,0.004,1.038
		c0.021,0.147,0.102,0.159,0.174,0.029c0.564-1.013,1.197-1.954,1.893-2.829c0.093-0.116,0.234-0.231,0.306-0.276
		c0.041-0.026,0.081-0.057,0.119-0.095c3.697-3.597,9.272-3.951,13.325-1.248c0.124,0.082,0.294,0.248,0.384,0.367
		c0.176,0.233,0.352,0.466,0.528,0.699c0.089,0.118,0.074,0.297-0.034,0.398c-2.126,1.98-4.371,3.847-6.732,5.513
		c-4.565,3.22-9.26,6.313-14.161,8.98c-3.267,1.778-6.997,2.7-10.505,4.044c-1.954,0.749-3.881,1.569-5.819,2.361
		c-0.137,0.056-0.24,0.214-0.229,0.353s0.14,0.262,0.288,0.276c1.636,0.147,3.272,0.295,4.908,0.442
		c0.148,0.013,0.152,0.056,0.01,0.097c-2.983,0.86-5.775,2.245-8.254,4.073c-0.119,0.088-0.319,0.221-0.447,0.296
		c-6.63,3.888-12.999,8.146-18.689,13.388c-7.161,6.597-13.242,13.963-16.455,23.35c-0.312,0.911-0.72,1.789-1.095,2.679
		c-0.058,0.137-0.02,0.335,0.083,0.441l0.083,0.086c0.103,0.107,0.288,0.128,0.413,0.048c1.645-1.06,3.294-2.111,4.923-3.194
		c0.238-0.159,0.42-0.466,0.53-0.744c2.164-5.45,5.974-9.617,10.407-13.276c4.011-3.311,8.458-5.843,13.464-7.363
		c0.948-0.288,1.549-0.16,2.155,0.659c3.549,4.804,6.877,9.725,8.74,15.48c0.102,0.315,0.248,0.616,0.457,1.098
		c0.059,0.136,0.145,0.133,0.192-0.008c1.149-3.432,1.842-6.669,1.685-10.002c-0.108-2.308-0.55-4.606-0.934-6.893
		c-0.236-1.409-0.695-2.78-0.963-4.185c-0.751-3.933-0.008-6.228,2.836-8.448c0.117-0.091,0.324-0.212,0.46-0.27
		c1.113-0.47,2.271-0.836,3.459-1.089c0.145-0.031,0.192,0.043,0.108,0.165c-0.208,0.3-0.404,0.614-0.588,0.947
		c-0.072,0.13-0.008,0.253,0.138,0.279c0.259,0.047,0.428,0.088,0.589,0.069c3.108-0.368,6.219-0.713,9.314-1.169
		c0.452-0.067,1.01-0.597,1.201-1.048c0.879-2.073,2.4-3.207,4.563-3.755c0.07-0.018,0.14-0.036,0.209-0.055
		c0.115-0.031,0.328-0.073,0.475-0.094c7.894-1.132,15.722-2.919,23.262-5.501c4.035-1.382,8.203-3.282,11.58-5.973
		c0.116-0.093,0.322-0.127,0.461-0.076c5.135,1.862,10.486,2.404,16.222,1.24c0.146-0.029,0.172-0.133,0.066-0.237
		c-0.112-0.11-0.168-0.171-0.234-0.184c-4.574-0.862-8.235-3.11-11.358-6.222c-0.105-0.105-0.13-0.295-0.059-0.425
		c0.333-0.61,0.629-1.245,0.886-1.906c0.054-0.138,0.121-0.223,0.154-0.188c0.032,0.035,0.132-0.032,0.221-0.15
		c6.533-8.586,6.94-17.987,4.665-28.289c-0.032-0.145,0.027-0.178,0.139-0.08c2.037,1.8,3.281,0.121,4.742-0.613
		c5.9-2.964,11.583-2.081,16.942,1.313c1.9,1.204,3.454,2.957,5.158,4.468c0.313,0.278,0.601,0.585,1.086,0.812
		c0.134,0.063,0.216-0.014,0.176-0.156c-0.209-0.741-0.423-1.48-0.621-2.224C144.411,49.154,139.52,43.912,132.827,40.227z"/>
</g>
</svg>
