<?xml version="1.0" encoding="iso-8859-1"?>
<!-- Generator: Adobe Illustrator 17.1.0, SVG Export Plug-In . SVG Version: 6.00 Build 0)  -->
<!DOCTYPE svg PUBLIC "-//W3C//DTD SVG 1.1//EN" "http://www.w3.org/Graphics/SVG/1.1/DTD/svg11.dtd">
<svg version="1.1" id="Capa_1" xmlns="http://www.w3.org/2000/svg" xmlns:xlink="http://www.w3.org/1999/xlink" x="0px" y="0px"
	 viewBox="0 0 150 150" style="enable-background:new 0 0 150 150;" xml:space="preserve">
<g>
	<path d="M21.047,69.412c0.174,0.329,0.329,0.668,0.527,1.088c0.074,0.157,0.013,0.214-0.138,0.128
		c-1.52-0.869-2.927-1.673-4.327-2.474c-0.151-0.086-0.371-0.055-0.492,0.07c-0.041,0.042-0.081,0.084-0.122,0.126
		c-0.121,0.125-0.144,0.345-0.053,0.493c0.679,1.107,1.29,2.272,2.11,3.262c0.791,0.954,1.776,1.799,2.811,2.489
		c3.189,2.125,6.375,4.271,9.705,6.158c1.367,0.774,3.094,0.918,4.663,1.328c11.949,3.126,8.942,1.832,16.779,9.445
		c0.663,0.644,1.133,1.628,1.352,2.536c0.15,0.622-0.159,1.458-0.493,2.074c-1.7,3.136-4.494,5.256-7.13,7.522
		c-0.188,0.162-0.191,0.568-0.232,0.867c-0.29,2.115-0.673,4.225-0.809,6.35c-0.078,1.223,0.081,2.524,0.439,3.696
		c0.483,1.578,1.223,3.083,1.924,4.586c0.743,1.592,1.558,2.014,3.362,1.719c0.171-0.028,0.302-0.196,0.299-0.37
		c-0.045-3.327,2.054-5.524,4.292-7.728c2.43-2.393,5.271-2.513,8.271-2.067c0.172,0.026,0.358,0.181,0.411,0.346
		c1.216,3.782,0.278,7.586,0.187,11.374c-0.048,1.986-0.14,3.982-0.008,5.96c0.189,2.821-0.628,5.265-2.332,7.456
		c-0.906,1.164-1.774,1.292-2.687,0.149c-0.795-0.996-1.371-2.195-1.893-3.372c-0.593-1.337-1.336-1.672-2.183-0.867
		c-0.126,0.12-0.084,0.277,0.074,0.349c0.925,0.426,1.245,1.008,0.493,2.122c-0.225,0.333-0.007,1.275,0.331,1.62
		c0.818,0.832,1.789,1.514,2.798,2.306c0.136,0.107,0.108,0.224-0.063,0.252c-2.426,0.401-4.499-0.329-6.457-1.55
		c-1.952-1.217-3.72-0.494-4.072,1.571c-0.029,0.171,0.081,0.241,0.231,0.154c0.512-0.297,1.051-0.61,1.593-0.925
		c0.15-0.087,0.363-0.111,0.476-0.054c0.113,0.058,0.164,0.24,0.132,0.41c-0.228,1.224,0.522,1.47,1.524,1.607
		c0.925,0.126,1.815,0.493,2.735,0.683c0.776,0.161,1.568,0.247,2.419,0.576c0.162,0.062,0.156,0.162-0.01,0.212
		c-0.527,0.161-1.052,0.325-1.582,0.478c-1.301,0.377-2.644,0.648-3.895,1.148c-1.042,0.417-1.763,1.186-1.681,2.383
		c0.012,0.173,0.138,0.412,0.261,0.535c0.074,0.074,0.148,0.148,0.222,0.222c0.123,0.123,0.241,0.083,0.263-0.09
		c0.117-0.939,0.192-1.383,1.907-1.176c2.091,0.253,4.597-0.897,6.546-2.064c2.042-1.222,3.891-1.739,6.15-1.081
		c1.148,0.334,2.353,0.482,3.539,0.671c0.292,0.046,0.733,0.037,0.9-0.141c1.425-1.513,2.41-0.817,3.323,0.61
		c0.094,0.146,0.209,0.134,0.246-0.036c0.318-1.452-0.51-2.207-1.507-2.562c-0.983-0.35-2.219-0.535-3.191-0.258
		c-1.8,0.513-3.048-0.054-4.096-1.079c-0.124-0.121-0.144-0.343-0.051-0.49c2.284-3.579,4.508-7.063,6.731-10.545
		c0.094-0.146,0.091-0.346-0.007-0.445c-0.097-0.099-0.047-0.123,0.111-0.052c0.292,0.131,0.609,0.273,1.024,0.459
		c0.159,0.071,0.283-0.012,0.279-0.186c-0.02-0.765-0.038-1.431-0.056-2.121c-0.005-0.174,0.104-0.23,0.243-0.126
		c0.323,0.243,0.628,0.472,0.929,0.699c0.139,0.104,0.389,0.16,0.559,0.125c0.006-0.001,0.012-0.003,0.018-0.004
		c0.17-0.036,0.29-0.205,0.269-0.377c-0.118-0.946-0.236-1.893-0.355-2.851c-0.021-0.172,0.101-0.295,0.275-0.291
		c1.409,0.032,2.245-0.845,1.917-2.087c-0.53-1.999-1.273-3.941-1.81-5.938c-0.203-0.753-0.174-1.568-0.216-2.397
		c-0.009-0.173,0.115-0.272,0.281-0.221c0.143,0.044,0.282,0.087,0.434,0.133c0.166,0.051,0.263-0.044,0.218-0.211
		c-0.073-0.267-0.14-0.51-0.206-0.75c-0.046-0.168,0.058-0.299,0.231-0.293c0.806,0.025,1.573,0.049,2.419,0.075
		c0.174,0.005,0.353,0.145,0.399,0.313c1.625,5.808,3.007,11.593-1.607,16.986c-0.113,0.132-0.322,0.155-0.463,0.054
		c-0.612-0.437-1.331-0.95-2.28-1.627c-0.141-0.101-0.25-0.042-0.243,0.131c0.022,0.592,0.018,0.806,0.052,1.012
		c0.104,0.615,0.502,1.629,0.3,1.764c-0.538,0.36-1.245,0.466-1.918,0.625c-0.169,0.04-0.319-0.063-0.336-0.236
		c-0.01-0.093-0.019-0.186-0.028-0.279c-0.018-0.173-0.126-0.209-0.242-0.08c-0.27,0.299-0.553,0.613-0.896,0.992
		c-0.116,0.129-0.073,0.266,0.095,0.306c0.703,0.167,1.289,0.305,1.948,0.462c0.169,0.04,0.206,0.173,0.06,0.267
		c-1.33,0.848-3.586-0.496-4.079,2.017c-0.033,0.17,0.092,0.299,0.265,0.289c1.398-0.078,2.834,0.023,4.111-0.381
		c2.685-0.849,4.724-0.241,6.51,1.871c0.72,0.851,1.423,2.078,3.118,1.295c0.158-0.073,0.272-0.002,0.262,0.171
		c-0.033,0.584-0.061,1.059-0.084,1.479c-0.01,0.173,0.112,0.258,0.258,0.164c0.918-0.589,1.212-1.792,0.393-2.917
		c-0.521-0.715-1.399-1.186-2.159-1.704c-0.554-0.377-1.25-0.564-1.758-0.986c-1.779-1.479-1.681-1.953-0.046-3.524
		c1.643-1.579,3.098-3.353,4.659-5.02c0.216-0.231,0.52-0.379,0.995-0.675c0.147-0.092,0.294-0.307,0.33-0.477
		c0.099-0.465,0.232-1.098,0.377-1.781c0.036-0.17,0.172-0.216,0.304-0.103c0.289,0.249,0.555,0.478,0.854,0.735
		c0.132,0.113,0.27,0.068,0.317-0.099c0.065-0.228,0.12-0.402,0.107-0.572c-0.111-1.45,0.582-2.561,1.399-3.661
		c0.167-0.225,0.041-0.715-0.035-1.065c-0.211-0.974-0.458-1.94-0.709-2.971c-0.041-0.169,0.058-0.257,0.221-0.197
		c0.228,0.084,0.463,0.17,0.758,0.278c0.163,0.06,0.254-0.027,0.204-0.193c-0.34-1.121-0.638-2.102-0.969-3.191
		c-0.051-0.166,0.02-0.214,0.156-0.107c0.173,0.135,0.318,0.249,0.452,0.354c0.137,0.107,0.327,0.167,0.425,0.133
		c0.098-0.033,0.144-0.198,0.103-0.366c-0.181-0.752-0.363-1.505-0.545-2.261c-0.041-0.169,0.044-0.383,0.191-0.475
		c1.149-0.71,2.442-1.267,2.838-2.881c0.084-0.342,1.019-0.953,1.373-1.135c2.351-1.21,4.847-2.168,7.363-3.008
		c0.668-0.223,1.592,0.184,2.36,0.423c2.581,0.805,5.102,1.851,7.728,2.443c2.038,0.46,4.025-0.193,5.777-1.462
		c2.153-1.559,4.433-2.949,6.536-4.57c2.506-1.932,4.879-4.037,7.317-6.057c1.475-1.223,2.992-2.396,4.44-3.65
		c1.444-1.251,2.85-2.549,4.219-3.882c0.474-0.461,0.781-1.092,1.176-1.638c0.403-0.559,0.785-1.138,1.238-1.655
		c0.511-0.583,1.215-1.032,1.597-1.68c0.237-0.402,0.202-0.964,0.096-1.519c-0.033-0.171,0.001-0.432,0.08-0.587
		c0.761-1.503,0.512-1.785-1.027-3.012c-1.622-1.293-3.192-1.333-4.96-0.575c-6.3,2.698-12.608,5.376-18.903,8.086
		c-8.139,3.503-8.144,3.708-16.915,3.295c-5.09-0.24-10.141-0.222-15.18,0.247c-0.173,0.016-0.193-0.043-0.045-0.134
		c0.886-0.545,1.754-1.119,2.604-1.722c0.142-0.101,0.385-0.238,0.544-0.308c1.475-0.645,2.93-1.343,4.409-1.982
		c0.461-0.199,0.989-0.269,1.494-0.338c2.369-0.321,4.27-1.302,5.296-3.604c0.11-0.246,0.396-0.42,0.616-0.609
		c0.434-0.373,1.077-0.648,1.278-1.116c0.453-1.059,0.868-2.017,1.954-2.659c0.257-0.151,0.128-0.956,0.109-1.692
		c-0.005-0.174,0.134-0.359,0.291-0.433c0.774-0.366,1.077-0.997,0.786-2.284c-0.201-0.889,0.894-1.998,1.08-3.066
		c0.296-1.701,1.048-3.382,0.212-5.205c-0.387-0.846-0.277-1.918-0.407-2.885c-0.298-2.213-0.459-4.461-0.977-6.622
		c-0.207-0.863-0.974-1.593-1.491-2.232c-0.109-0.135-0.091-0.35,0.031-0.472c0.437-0.437,0.89-0.89,1.345-1.345
		c0.123-0.123,0.123-0.322,0-0.445c-0.502-0.503-1.01-1.01-1.553-1.554c-0.123-0.123-0.105-0.301,0.041-0.394
		c0.439-0.28,0.978-0.603,1.438-1.014c0.309-0.276,0.58-0.773,0.567-1.16c-0.008-0.222-0.594-0.503-0.963-0.617
		c-0.552-0.172-1.13-0.262-1.786-0.388c-0.171-0.033-0.194-0.144-0.054-0.246c1.087-0.787,2.085-1.509,3.075-2.226
		c0.141-0.102,0.248-0.32,0.239-0.487s-0.152-0.338-0.32-0.382c-0.935-0.245-1.876-0.492-2.877-0.755
		c-0.168-0.044-0.198-0.172-0.065-0.284c0.709-0.602,1.452-1.204,2.144-1.86c0.922-0.874,0.813-1.564-0.419-1.88
		c-0.929-0.239-1.988-0.299-2.924-0.111c-1.821,0.365-3.603,0.929-5.534,1.462c-0.167,0.046-0.191-0.002-0.053-0.107
		c8.576-6.513,9.044-6.884,9.173-8.612c0.013-0.173-0.106-0.253-0.263-0.178c-4.598,2.198-9.243,4.419-13.889,6.64
		c-0.157,0.075-0.185,0.036-0.061-0.086c4.556-4.53,9.639-8.522,12.619-14.546c0.077-0.156,0.023-0.201-0.119-0.101
		c-4.821,3.426-9.489,6.742-14.153,10.057c-0.142,0.101-0.321,0.126-0.401,0.055c-0.08-0.07-0.058-0.238,0.049-0.375
		c1.307-1.67,2.644-3.317,3.901-5.024c1.885-2.559,3.782-5.116,5.518-7.776c0.639-0.979,0.925-2.187,1.331-3.318
		c0.059-0.163,0.01-0.394-0.113-0.517v0c-0.123-0.123-0.321-0.121-0.442,0.004c-4.255,4.387-8.51,8.775-12.765,13.162
		c-0.121,0.125-0.233,0.191-0.252,0.149c-0.018-0.042,0.039-0.197,0.129-0.346c2.221-3.71,4.494-7.39,6.632-11.147
		c1.279-2.246,1.128-4.741,0.725-7.208c-0.02-0.124-0.118-0.236-0.303-0.385c-0.135-0.109-0.263-0.05-0.283,0.122
		c-0.773,6.617-5.793,10.415-9.747,14.966c-0.114,0.131-0.15,0.109-0.082-0.051c1.86-4.386,3.391-8.793,2.067-13.325
		c-0.049-0.167-0.143-0.17-0.204-0.007c-1.015,2.676-1.914,5.644-3.305,8.358c-1.417,2.765-3.324,5.28-5.156,7.856
		c-0.101,0.142-0.174,0.116-0.163-0.057c0.312-4.887,1.099-9.786-1.882-14.2c-0.097-0.144-0.168-0.118-0.152,0.055
		c0.087,0.955,0.207,1.91,0.222,2.866c0.064,4.035-0.84,7.839-2.322,11.613c-2.062,5.253-4.037,10.571-4.614,16.266
		c-0.07,0.688-0.26,1.363-0.443,2.186c-0.038,0.17-0.14,0.187-0.23,0.039c-0.434-0.712-0.82-1.346-1.315-2.158
		c-0.09-0.148-0.213-0.137-0.281,0.023c-0.259,0.604-0.533,1.041-0.501,1.453c0.137,1.798,0.229,3.632,0.668,5.368
		c0.714,2.818,1.715,5.563,2.537,8.355c0.125,0.425,0.182,0.852,0.395,1.169c0.097,0.144,0.164,0.347,0.106,0.49
		c-0.058,0.143-0.105,0.258-0.105,0.258c-0.054,0.166-0.108,0.332-0.163,0.499c-0.054,0.165-0.229,0.249-0.391,0.187
		c-0.274-0.105-0.546-0.211-0.804-0.328c-0.483-0.22-1.252-0.214-1.461-0.566c-1.132-1.912-2.655-1.817-4.449-1.104
		c-0.161,0.064-0.267-0.019-0.236-0.19c0.228-1.26,0.5-2.417,0.573-3.586c0.038-0.609-0.21-1.236-0.387-1.858
		c-0.048-0.167-0.214-0.26-0.38-0.209c-0.623,0.194-1.254,0.368-1.846,0.632c-0.333,0.148-0.607,0.432-0.992,0.767
		c-0.131,0.114-0.245,0.061-0.24-0.112c0.058-2.175,1.17-4.251-0.1-6.365c-0.09-0.149-0.28-0.175-0.415-0.066
		c-0.558,0.453-1.061,0.862-1.618,1.315c-0.135,0.11-0.246,0.058-0.248-0.116c-0.017-1.525-0.033-2.936-0.049-4.34
		c-0.002-0.174-0.126-0.362-0.277-0.42c-0.151-0.058-0.372-0.006-0.495,0.117c-1.023,1.023-2.047,2.046-3.07,3.07
		c-0.123,0.123-0.27,0.175-0.328,0.117c-0.058-0.058-0.076-0.243-0.039-0.413c0.406-1.879,0.812-3.758,1.219-5.637
		c0.037-0.17-0.054-0.38-0.203-0.47c-0.052-0.031-0.104-0.063-0.156-0.094c-0.149-0.09-0.375-0.07-0.509,0.041
		c-0.703,0.585-1.463,1.121-2.034,1.814c-1.653,2.008-3.212,4.092-4.804,6.149c-0.106,0.137-0.298,0.193-0.427,0.123
		s-0.184-0.257-0.124-0.42c0.254-0.687,0.489-1.383,0.792-2.047c1.042-2.275,2.154-4.519,3.156-6.811
		c0.193-0.442,0.143-0.99,0.018-1.577c-0.036-0.17-0.187-0.227-0.328-0.125c-3.808,2.761-5.308,7.337-8.704,10.537
		c-0.126,0.119-0.194,0.077-0.152-0.091c0.232-0.916,0.406-1.857,0.764-2.721c1.242-2.996,2.607-5.941,3.839-8.94
		c0.243-0.592,0.221-1.292,0.138-2.002c-0.02-0.172-0.167-0.252-0.321-0.171c-2.273,1.206-3.429,3.314-4.793,5.19
		c-1.337,1.838-2.487,3.811-3.708,5.734c-0.093,0.147-0.251,0.233-0.352,0.193c-0.101-0.04-0.142-0.208-0.093-0.374
		c1.399-4.715,2.798-9.43,4.197-14.145c0.05-0.167-0.04-0.358-0.198-0.428c-0.05-0.022-0.101-0.044-0.151-0.066
		c-0.159-0.07-0.398-0.039-0.531,0.073c-4.398,3.697-5.411,9.604-8.908,14.075c-0.107,0.137-0.19,0.105-0.188-0.069
		c0.01-0.897-0.064-1.813,0.138-2.664c0.846-3.566,1.853-7.094,2.689-10.661c0.209-0.891,0.112-1.853,0.111-2.793
		c0-0.174-0.129-0.361-0.293-0.418c-0.005-0.002-0.011-0.004-0.017-0.006c-0.164-0.057-0.389,0.003-0.507,0.131
		c-0.537,0.584-1.127,1.135-1.536,1.798c-2.729,4.422-4.034,9.401-5.472,14.323c-0.265,0.908-0.453,1.839-0.728,3.014
		c-0.04,0.169-0.132,0.179-0.202,0.02c-1.091-2.489-1.271-4.786-0.918-7.154c0.408-2.746,0.827-5.49,1.248-8.234
		c0.086-0.558,0.189-1.114,0.289-1.67c0.031-0.171-0.081-0.346-0.249-0.391c-0.033-0.009-0.065-0.017-0.098-0.026
		c-0.168-0.045-0.392,0.029-0.507,0.159c-0.462,0.52-1.007,1.009-1.24,1.617c-1.041,2.725-2.043,5.473-2.879,8.266
		c-0.658,2.2-1.081,4.47-1.593,6.713c-0.039,0.169-0.169,0.325-0.291,0.348c-0.122,0.023-0.244-0.097-0.273-0.269
		c-0.607-3.608-1.213-7.216-1.82-10.824c-0.029-0.171-0.193-0.321-0.366-0.334c-0.03-0.002-0.06-0.004-0.09-0.007
		c-0.173-0.013-0.361,0.109-0.423,0.271c-0.321,0.836-0.718,1.658-0.87,2.523c-0.807,4.589-0.669,9.2,0.144,13.762
		C14.743,55.482,17.446,62.612,21.047,69.412z"/>
</g>
</svg>
