<?xml version="1.0" encoding="iso-8859-1"?>
<!-- Generator: Adobe Illustrator 17.1.0, SVG Export Plug-In . SVG Version: 6.00 Build 0)  -->
<!DOCTYPE svg PUBLIC "-//W3C//DTD SVG 1.1//EN" "http://www.w3.org/Graphics/SVG/1.1/DTD/svg11.dtd">
<svg version="1.1" id="Capa_1" xmlns="http://www.w3.org/2000/svg" xmlns:xlink="http://www.w3.org/1999/xlink" x="0px" y="0px"
	 viewBox="0 0 150 150" style="enable-background:new 0 0 150 150;" xml:space="preserve">
<g>
	<path d="M137.601,42.861c-1.993-0.833-5.041-0.122-6.54,1.423c-0.483,0.498-1.057,0.955-1.672,1.271
		c-2.603,1.337-5.261,2.57-7.847,3.939c-0.79,0.418-1.379,0.547-2.206,0.102c-1.623-0.874-3.146-0.93-4.589,0.59
		c-0.492,0.519-1.511,0.575-2.308,0.757c-0.949,0.216-1.579-0.189-1.984-1.096c-0.146-0.326-0.584-0.527-0.901-0.768
		c-0.714-0.542-1.268-0.296-1.308,0.514c-0.066,1.331-0.792,1.399-1.858,1.369c-5.47-0.153-10.772,0.996-16.058,2.211
		c-0.812,0.187-1.371,0.067-2.047-0.467c-0.534-0.422-1.392-0.698-2.066-0.632c-2.693,0.262-5.38,0.626-8.053,1.056
		c-5.368,0.864-10.715,0.724-16.047-0.224c-8.092-1.439-16.171-2.956-24.268-4.366c-5.078-0.884-10.102-0.327-15.065,0.908
		c-3.705,0.921-7.512,1.635-10.778,3.726c-1.332,0.853-2.512,2.088-3.456,3.374c-2.047,2.788-3.173,6.037-4.075,9.35
		c-0.191,0.702-0.193,1.456-0.321,2.507c0.876-0.297,1.459-0.495,2.049-0.696c0.005,0.008,0.056,0.055,0.047,0.082
		c-1.731,5.429,0.362,10.639,0.953,15.93c0.066,0.59,0.619,1.126,1.108,1.964c-0.839,1.252-1.757,2.757-2.811,4.16
		c-1.498,1.992-1.654,3.791-0.53,5.966c0.691,1.338,1.162,2.787,1.803,4.153c0.334,0.711,0.849,1.334,1.232,2.025
		c0.164,0.296,0.202,0.662,0.393,1.331c0.269,0.093,0.876,0.304,1.483,0.515c-0.007,0.129-0.014,0.259-0.021,0.388
		c0,0-1.299,2.652,6.308,2.118l4.404-0.311c0,0,0.354-0.811-0.24-2.099c-0.49-0.958-0.697-1.728-1.184-2.224
		c-0.605-0.616-1.425-1.031-2.18-1.488c-2.556-1.548-2.943-4.674-0.766-6.709c0.508-0.475,1.195-0.758,1.669-1.049
		c-0.052,0.512-0.025,1.453-0.259,2.324c-0.523,1.948,0.072,3.271,1.727,4.436c1.462,1.028,2.92,2.275,2.461,4.604
		c0,0-0.494,2.048,0.307,1.981c0.801-0.067-3.937,3.87,11.21,2.803l1.179-0.089c0,0,0.887-0.074,1.4-1.216
		c0.874-1.945-1.179-2.594-2.466-3.383c-0.444-0.272-0.966-0.524-1.253-0.927c-0.925-1.298-1.842-2.618-2.59-4.021
		c-0.348-0.654-0.626-1.66-0.367-2.263c0.776-1.807,1.833-3.494,2.841-5.341c4.337,2.623,8.817,4.241,13.773,4.628
		c5.143,0.401,10.256,1.055,15.429,0.413c2.908-0.361,5.833-0.644,8.759-0.783c2.308-0.11,2.312,0.012,2.659,2.262
		c0.115,0.747,0.324,1.49,0.345,2.239c0.049,1.671,0.23,3.384-0.059,5.005c-0.31,1.734-1.498,3.337-0.304,5.146
		c0,0,0.355,0.867,1.957,1c1.601,0.133,14.613-0.133,17.483,0c2.869,0.133,2.542-1.169,2.799-1.385
		c1.617-1.303,1.467-2.195-0.479-3.31c-3.844-2.203-4.727-4.66-2.244-8.926c1.11-1.908,2.065-3.906,3.15-5.829
		c0.309-0.547,0.739-1.141,1.269-1.428c1.669-0.903,2.789-2.247,3.794-3.821c0.669-1.049,1.694-1.88,2.602-2.764
		c0.845-0.823,1.717-1.622,2.635-2.362c0.43-0.347,0.969-0.652,1.502-0.761c1.959-0.397,3.937-0.698,5.905-1.051
		c0.388-0.07,0.906-0.086,1.122-0.335c1.807-2.096,4.218-1.355,6.46-1.484c2.333-0.134,4.125,1.173,6.097,2.063
		c1.147,0.518,2.409,0.799,3.64,1.105c1.288,0.32,2.595,0.573,3.905,0.792c0.642,0.107,1.373,0.255,1.946,0.052
		c0.663-0.234,1.325-0.747,1.711-1.324c0.121-0.181-0.646-0.966-1.023-1.463c-0.156-0.206-0.354-0.381-0.609-0.651
		c0.507-0.483,1.155-0.854,1.385-1.4c0.171-0.406-0.197-1.04-0.383-1.813c0.762-1.075,1.702-2.4,2.666-3.76
		c-0.858-0.695-1.501-0.671-2.15-0.056c-0.516,0.489-1.092,0.92-1.57,1.441c-0.767,0.838-1.536,0.803-2.254,0.031
		c-0.258-0.278-0.354-0.749-0.424-1.149c-0.097-0.558-0.099-1.132-0.142-1.699c-0.57,0.208-1.145,0.408-1.709,0.631
		c-0.157,0.062-0.285,0.196-0.605,0.425c-0.453-0.614-0.952-1.16-1.303-1.789c-1.755-3.149-2.61-6.424-1.133-9.94
		c0.2-0.477,0.52-0.933,0.882-1.304c0.263-0.27,0.868-0.632,1.009-0.529c1.81,1.328,3.651-0.885,5.455,0.1
		c0.644,0.352,1.425,0.451,2.076,0.793c0.694,0.364,1.165,0.719,1.692-0.306c0.067-0.13,0.204-0.224,0.372-0.301
		c2.04,7.401-4.382,13.995,0.188,9.73c3.45-3.22,3.567-8.581,3.308-11.596c0.028-0.017,0.053-0.041,0.082-0.056
		c1.522-0.804,2.731-3.943,1.794-5.387C143.486,47.33,141.213,44.371,137.601,42.861z M81.599,106.703
		c-0.641-0.857-1.116-2.026-1.17-3.082c-0.055-1.075,0.364-2.264,1.875-2.854c0.669,2.76,1.316,5.432,1.965,8.109
		C83.343,108.15,82.259,107.585,81.599,106.703z"/>
</g>
</svg>
