<?xml version="1.0" encoding="iso-8859-1"?>
<!-- Generator: Adobe Illustrator 17.1.0, SVG Export Plug-In . SVG Version: 6.00 Build 0)  -->
<!DOCTYPE svg PUBLIC "-//W3C//DTD SVG 1.1//EN" "http://www.w3.org/Graphics/SVG/1.1/DTD/svg11.dtd">
<svg version="1.1" id="Capa_1" xmlns="http://www.w3.org/2000/svg" xmlns:xlink="http://www.w3.org/1999/xlink" x="0px" y="0px"
	 viewBox="0 0 150 150" style="enable-background:new 0 0 150 150;" xml:space="preserve">
<g>
	<path d="M137.338,33.865c-0.544-0.684-0.974-1.467-1.395-2.239c-0.408-0.748-0.661-1.585-1.114-2.3
		c-0.803-1.269-1.71-2.471-2.563-3.708c-0.36-0.522-0.717-1.046-1.078-1.578c-0.592-0.874-0.555-1.834,0.044-1.623
		c0.6,0.211,0.901,0.097,0.626-0.237c-0.173-0.211-0.365-0.392-0.591-0.505c-0.469-0.236-1.052-0.274-1.592-0.332
		c-1.331-0.142-1.455-0.225-1.723-1.54c-0.1-0.49-0.166-0.989-0.203-1.487c-0.018-0.244-0.019-0.489-0.016-0.756
		c0.005-0.418-0.851-0.276-1.787,0.484c-0.573,0.466-1.064,0.979-1.448,1.619c-0.429,0.714-0.922,1.393-1.431,2.052
		c-0.122,0.157-0.459,0.295-0.635,0.24c-1.456-0.453-2.92-0.362-4.397-0.176c-1.324,0.167-2.65,0.385-3.979,0.421
		c-1.696,0.046-2.708-0.738-3.317-2.322c-0.039-0.1-0.082-0.198-0.144-0.337c-0.083-0.185-0.411,0.673,0.057,1.76
		c0.468,1.087,0.035,1.882-1.08,1.318s-1.661-1.108-1.503-0.749c0.097,0.22,0.209,0.427,0.342,0.62
		c0.14,0.204,0.3,0.395,0.469,0.586c0.274,0.311-1.596,0.877-3.275-0.596s-1.989-2.841-2.02-1.826
		c-0.019,0.61,0.105,1.2,0.363,1.788c0.77,1.754,2.25,2.666,3.99,3.22c0.354,0.113,0.717,0.2,1.107,0.286
		c0.617,0.137,0.36,0.877-0.77,1.209c-1.13,0.332-1.582,0.694-0.972,0.95c0.611,0.256,0.397,1.138-0.479,1.967
		c-0.536,0.507-1.069,0.996-1.632,1.449c-1.109,0.893-2.236,1.758-3.474,2.408c-2.071,1.087-3.559,1.427-2.931,1.773
		c0.379,0.209,0.765,0.405,1.158,0.585c0.938,0.428,1.09,0.883,0.435,1.727c-0.835,1.074-2.002,1.494-3.323,1.549
		c-0.167,0.007-0.335,0.008-0.503,0.006c-0.278-0.002-0.51,0.053-0.517,0.124c-0.008,0.071,0.799,0.298,1.799,0.506
		s1.591,1.759,0.602,3.065c-0.989,1.305-1.841,1.881-1.146,2.17c0.695,0.289,0.746,0.712,0.114,0.945
		c-0.632,0.234-0.832,0.611-0.446,0.842c0.386,0.232-0.078,1.1-1.187,1.704c-0.673,0.366-1.371,0.667-2.086,0.933
		c-4.418,1.643-9.041,2.358-13.691,2.864c-5.549,0.604-11.112,1.09-16.671,1.6c-4.393,0.403-8.511,1.605-11.971,4.424
		c-1.879,1.53-3.669,3.216-5.254,5.044c-1.24,1.429-2.531,1.965-4.412,1.939c-2.755-0.038-5.541,0.118-8.265,0.522
		c-4.381,0.649-8.029,2.73-10.535,6.48c-1.548,2.316-3.002,4.701-4.402,7.11c-1.173,2.019-2.15,4.152-3.32,6.172
		c-1.26,2.175-3.136,3.358-5.75,3.097c-0.04-0.004-0.082,0.008-0.164,0.029c-0.089,0.023,0.675,0.462,1.797,0.597
		c0.68,0.082,1.356,0.059,2.04-0.019c0.679-0.077,1.337-0.208,1.954-0.451c1.034-0.408,1.935-0.616,1.839-0.009
		c-0.059,0.371-0.239,0.701-0.493,0.98c-0.797,0.874-1.622,1.779-2.6,2.418c-0.678,0.443-1.394,0.83-2.11,1.195
		c-1.194,0.608-0.749,1.269,0.962,0.975c1.711-0.295,2.496,0.965,0.963,2.51c-0.914,0.921-1.994,1.688-3.091,2.432
		c-1.108,0.751-2.27,1.374-3.493,1.839c-2.042,0.776-1.588,1.3,1.141,0.877c1.654-0.256,3.233-0.767,4.749-1.511
		c2.479-1.216,4.607-1.427,3.852-0.158c-0.756,1.269,0.233,1.591,2.553,0.452c2.32-1.14,4.204-2.004,3.799-1.113
		s1.15,0.855,3.186-0.825s3.548-2.155,2.88-0.818c-0.668,1.337-1.303,2.208-1.115,2.123c0.131-0.059,0.236-0.108,0.334-0.167
		c2.371-1.43,4.045-3.463,5.101-6.003c1.391-3.349,1.17-6.725,0.013-10.071c-0.786-2.275-1.777-4.482-2.492-6.777
		c-1.145-3.667,0.51-6.84,4.115-8.196c2.539-0.955,4.787-0.056,5.985,2.373c0.223,0.453,0.246,0.85,0.095,1.354
		c-0.958,3.208-1.175,6.373,0.696,9.385c0.3,0.483,0.515,1.021,0.744,1.545c1.177,2.681,1.059,5.15-1.212,7.259
		c-0.175,0.162-0.313,0.361-0.483,0.528c-2.054,2.028-4.102,4.062-6.172,6.074c-0.881,0.856-1.027,1.763-0.573,2.917
		c0.661,1.683,1.296,3.392,1.736,5.142c1.212,4.815,1.402,9.621-0.548,14.33c-0.02,0.048-0.025,0.102-0.032,0.18
		c-0.009,0.101,0.371-0.141,0.851-0.54c0.48-0.399,0.909-0.699,0.957-0.67c0.048,0.029-0.027,0.497-0.168,1.044
		c-0.085,0.331-0.174,0.66-0.274,0.986c-0.266,0.865-0.563,1.719-0.856,2.576c-0.23,0.674,0.021,0.973,0.704,1.137
		c3.178,0.763,6.391,1.137,9.653,0.868c0.893-0.074,1.788-0.301,2.646-0.572c1.003-0.318,1.055-0.541,0.372-1.314
		c-0.567-0.642-1.177-1.255-1.829-1.809c-0.708-0.601-1.426-1.191-2.147-1.778c-1.194-0.972-2.018-1.812-1.838-1.879
		c0.18-0.067-0.242-0.434-0.943-0.82s-0.749-0.991-0.718-1.584c0.018-0.338-0.152-0.668-0.322-1.013
		c-0.417-0.851-0.891-1.711-1.094-2.622c-0.383-1.717-0.467-3.505-0.9-5.207c-0.545-2.143,0.413-3.576,1.874-4.879
		c0.053-0.048,0.105-0.097,0.158-0.145c3.311-2.956,6.709-5.821,9.91-8.892c0.953-0.914,1.895-1.839,2.831-2.77
		c1.551-1.543,3.138-2.493,3.634-2.198c0.495,0.295,1.345,0.875,1.664,1.51c0.19,0.379,0.333,0.784,0.437,1.208
		c0.22,0.898,0.378,1.825,0.431,2.747c0.166,2.894-0.687,5.501-2.319,7.882c-0.3,0.437-0.673,0.998-0.627,1.464
		c0.063,0.638,0.181,1.271,0.319,1.921c0.224,1.053,0.784,1.427,1.418,1.407c0.366-0.012,0.707,0.161,1.047,0.413
		c0.556,0.412,1.134,0.793,1.681,1.215c1.388,1.069,2.436,2.346,2.554,4.199c0.026,0.4,0.15,0.796,0.245,1.19
		c0.371,1.534,0.794,3.051,1.729,4.36c0.222,0.311,0.465,0.6,0.781,0.841c0.506,0.386,0.941,0.207,0.829-0.159
		c-0.073-0.239-0.131-0.456-0.149-0.676c-0.024-0.29,0.055-0.779,0.227-0.852c0.285-0.122,0.738-0.079,1.019,0.077
		c0.285,0.158,0.473,0.522,0.66,0.822c0.88,1.413,0.784,3.02,0.87,4.585c0.06,1.083,0.034,1.169,1.092,1.184
		c2.62,0.036,5.247,0.088,7.86-0.068c1.379-0.082,2.76-0.505,4.09-0.929c0.938-0.299,1.021-0.701,0.287-1.37
		c-1.069-0.973-2.218-1.878-3.42-2.682c-0.607-0.406-1.24-0.772-1.886-1.129c-1.062-0.588-1.842-1.277-1.74-1.546
		s-1.724-0.547-3.502-1.791c-0.72-0.504-1.312-1.293-2.602-2.927c-0.849-1.076-1.749-2.056-3.07-2.603
		c-0.869-0.36-1.611-0.98-1.913-1.929c-0.571-1.795-0.942-3.606-0.154-5.449c0.262-0.613,0.459-1.254,0.716-1.869
		c1.98-4.754,3.968-9.505,5.95-14.258c0.046-0.111,0.084-0.226,0.124-0.35c0.062-0.195,0.1-0.356,0.084-0.359
		c-0.015-0.003,0.146-0.271,0.36-0.598c0.214-0.327,1.608-0.419,3.119-0.25c0.91,0.102,1.823,0.191,2.739,0.26
		c4.876,0.368,9.739,0.942,14.62,1.194c4.286,0.221,8.589,0.13,12.884,0.158c2.666,0.017,5.267,0.32,7.792,1.268
		c2.387,0.897,4.831,1.642,7.233,2.502c0.984,0.352,1.93,0.815,2.879,1.259c0.475,0.222,0.752,0.62,0.597,1.166
		c-0.454,1.599-0.885,3.209-1.43,4.777c-0.185,0.531-0.586,1.161-1.059,1.388c-1.882,0.901-3.836,1.35-5.798,0.139
		c-0.112-0.069-0.231-0.129-0.351-0.186c-0.198-0.094-0.396-0.137-0.439-0.096c-0.043,0.041,0.178,0.6,0.494,1.249
		c0.316,0.649,0.433,1.141,0.26,1.099c-0.127-0.031-0.22-0.053-0.313-0.078c-1.452-0.399-2.182-0.212-2.888,1.099
		c-0.856,1.588-1.573,3.255-2.269,4.922c-0.241,0.577-0.303,1.254-0.331,1.89c-0.039,0.895,0.222,1.116,1.059,0.852
		c2.112-0.666,4.249-1.287,6.292-2.131c0.944-0.39,1.876-0.79,2.824-1.075c1.599-0.48,3.14-0.894,3.337-1.531
		c0.121-0.391,0.242-0.771,0.376-1.146c0.361-1.004,0.865-1.967,1.126-2.994c0.275-1.08,0.598-2.128,1.018-3.127
		c0.705-1.676,1.809-2.668,2.049-2.434c0.145,0.141,0.289,0.283,0.433,0.424c0.024,0.023,0.049,0.043,0.075,0.063
		c0.043,0.032,0.215,0.218,0.363,0.431c0.092,0.132,0.17,0.267,0.228,0.409c0.746,1.846,0.895,3.789,0.787,5.761
		c-0.033,0.598-0.357,0.816-0.895,0.706c-0.341-0.07-0.678-0.153-1.02-0.242c-0.56-0.145-1.141,0.322-0.942,1.001
		c0.119,0.407,0.307,0.797,0.473,1.188c0.579,1.358,0.64,2.698,0.408,4.182c-0.465,2.975,0.016,5.879,1.668,8.445
		c0.945,1.467,1.248,1.294,2.04-0.007c0.923-1.516,1.596-3.188,2.344-4.807c0.143-0.309,0.262-0.628,0.375-0.95
		c0.188-0.533,0.621-0.891,0.971-0.798s0.491-0.599,0.313-1.546c-0.11-0.588-0.218-1.152-0.333-1.714
		c-0.127-0.622-0.159-0.951,0.034-1.116c0.488-0.418,1.004-1.264,0.587-2.576c-0.247-0.777-0.614-1.497-1.274-2.108
		c-0.272-0.252-0.495-0.592-0.648-0.933c-0.402-0.896-0.794-1.796-1.121-2.709c-0.547-1.524-0.155-3.478-0.147-4.452
		c0.008-0.974-0.546-1.769-0.551-1.947c-0.003-0.121-0.026-0.233-0.083-0.307c-0.053-0.069-0.109-0.135-0.166-0.202
		c-0.093-0.11-0.246-0.42-0.404-0.656c-0.094-0.14-0.206-0.271-0.336-0.388c-0.189-0.17-0.378-0.34-0.567-0.51
		c-0.313-0.282-0.565-0.589-0.564-0.687c0.001-0.059,0.001-0.118-0.001-0.178c-0.01-0.259-0.101-0.627-0.284-0.747
		c-1.213-0.799-2.388-1.727-3.716-2.268c-2.386-0.973-4.394-2.478-6.39-4.023c-0.983-0.761-1.004-0.868-0.496-1.988
		c1.232-2.714,2.484-5.419,3.785-8.1c0.387-0.799,0.527-1.576,0.316-2.414c-0.447-1.779-0.995-3.537-1.352-5.334
		c-0.219-1.104-0.433-2.328-0.179-3.385c0.866-3.604,1.144-7.252,1.211-10.931c0.034-1.885,0.013-3.771,0.03-5.656
		c0.01-1.187,0.738-1.78,1.794-1.458c0.314,0.096,0.609,0.266,0.895,0.433c0.925,0.542,1.835,1.11,2.763,1.647
		c2.723,1.576,5.447,3.151,8.186,4.699c0.333,0.188,0.833,0.393,1.129,0.274c1-0.4,1.902-0.214,2.835,0.16
		c0.278,0.111,0.608,0.113,0.916,0.121c1.025,0.025,1.114-0.056,1.054-1.074c-0.032-0.556,0.154-0.861,0.695-1.084
		c0.305-0.126,0.595-0.513,0.699-0.843c0.123-0.392-0.008-0.857,0.054-1.278c0.19-1.297-0.251-2.18-1.197-3.186
		C141.35,39.042,139.375,36.421,137.338,33.865z"/>
</g>
</svg>
