<?xml version="1.0" encoding="iso-8859-1"?>
<!-- Generator: Adobe Illustrator 17.1.0, SVG Export Plug-In . SVG Version: 6.00 Build 0)  -->
<!DOCTYPE svg PUBLIC "-//W3C//DTD SVG 1.1//EN" "http://www.w3.org/Graphics/SVG/1.1/DTD/svg11.dtd">
<svg version="1.1" id="Capa_1" xmlns="http://www.w3.org/2000/svg" xmlns:xlink="http://www.w3.org/1999/xlink" x="0px" y="0px"
	 viewBox="0 0 150 150" style="enable-background:new 0 0 150 150;" xml:space="preserve">
<g>
	<path d="M144.833,58.902c-0.588-1.493-1.518-2.794-2.5-4.069c-0.804-1.045-1.462-2.206-2.152-3.335
		c-0.683-1.118-1.324-2.262-1.982-3.395c-0.607-1.044-1.2-2.097-1.823-3.132c-0.311-0.516-0.675-1-1.096-1.617
		c0.574-0.105,1.093-0.2,1.604-0.293c-0.248-0.767,0.686-0.966,0.707-1.669c-0.802-0.28-0.669-1.076-0.994-2.032
		c-0.383-0.407-0.43-0.641,0.003-0.994c-0.294-0.802-0.867-1.265-1.721-1.304c-0.539-0.025-0.865-0.257-1.127-0.712
		c-0.359-0.622-0.385-0.607-1.036-0.629c-0.382-0.413-0.729-0.789-1.078-1.162c-0.035-0.038-0.111-0.059-0.119-0.098
		c-0.115-0.567-0.48-0.751-1.042-0.603c0-0.568,0.025-1.063-0.012-1.554c-0.015-0.201-0.136-0.41-0.257-0.583
		c-0.148-0.212-0.344-0.39-0.532-0.595c-0.485,0.268-0.964,0.589-1.487,0.802c-0.361,0.147-0.78,0.155-1.176,0.208
		c-0.331,0.045-0.667,0.1-0.998,0.089c-0.351-0.012-0.699-0.097-1.049-0.151c-0.067-0.01-0.167-0.059-0.197-0.032
		c-0.577,0.547-1.452-0.088-2.052,0.542c-0.176,0.184-0.666,0.231-1.026-0.045c-0.16-0.122-0.45-0.098-0.682-0.098
		c-0.481,0.001-0.971-0.018-1.441,0.064c-0.362,0.064-0.729,0.222-1.041,0.422c-0.598,0.385-0.972,0.435-1.411,0.052
		c-0.176,0.324-0.367,0.641-0.809,0.335c-0.045-0.031-0.234,0.079-0.306,0.165c-0.372,0.448-0.834,0.487-1.391,0.548
		c-0.337,0.037-0.731-0.08-1.053,0.101c-0.186,0.105-0.375,0.236-0.504,0.402c-0.243,0.314-0.47,0.391-0.699,0.105
		c-0.24,0.057-0.438,0.101-0.634,0.151c-0.083,0.021-0.217,0.038-0.234,0.088c-0.175,0.518-0.634,0.671-1.072,0.829
		c-0.34,0.122-0.702,0.18-1.055,0.267c-0.094,0.023-0.25,0.023-0.27,0.075c-0.279,0.7-0.848,0.485-1.391,0.577
		c-0.406,0.069-0.966,0.046-1.341,0.527c-0.186,0.238-0.74,0.243-1.131,0.255c-1.053,0.032-2.107,0.011-3.142,0.011
		c-0.039,0.049-0.081,0.085-0.074,0.097c0.387,0.8-0.315,1.366-0.436,2.055c-0.073,0.414-0.348,0.648-0.658,0.896
		c-0.234,0.187-0.358,0.504-0.577,0.715c-0.542,0.521-0.982,1.15-1.864,1.247c-0.385,0.043-0.712,0.112-1.116,0.029
		c-0.311-0.064-0.68,0.234-1.034,0.272c-0.387,0.041-0.729,0.062-0.949,0.451c-0.048,0.085-0.267,0.09-0.41,0.102
		c-0.577,0.048-1.163,0.067-1.502,0.656c-0.512-0.383-0.668-0.289-1.008,0.304c-0.147,0.256-0.546,0.368-0.829,0.547
		c-0.118,0.075-0.306,0.135-0.337,0.239c-0.121,0.408-0.386,0.406-0.629,0.431c-0.418,0.284-0.836,0.567-1.276,0.866
		c0.1,0.167,0.408,0.419,0.103,0.837c-0.132,0.181,0.892,1.821,1.131,1.919c0.115,0.047,0.218,0.122,0.412,0.233
		c-0.194,0.065-0.286,0.125-0.375,0.122c-1.032-0.029-2.063-0.086-3.095-0.098c-1.292-0.014-2.584,0.019-3.876,0.009
		c-0.622-0.005-1.244-0.075-1.867-0.089c-0.401-0.009-0.804,0.03-1.206,0.047c-0.227,0.01-0.455,0.021-0.682,0.031
		c-0.239,0.01-0.658-0.321-0.585,0.31c0.002,0.021-0.27,0.106-0.415,0.108c-0.93,0.01-1.86,0.005-2.79,0.005
		c-5.31-0.001-10.619,0.011-15.928-0.02c-0.787-0.005-1.574-0.208-2.36-0.329c-1.983-0.304-3.965-0.617-5.948-0.917
		c-1.656-0.25-3.312-0.498-4.971-0.726c-0.738-0.101-1.485-0.137-2.225-0.227c-1.195-0.146-2.386-0.312-3.579-0.469
		c-0.943-0.124-1.884-0.333-2.828-0.352c-1.502-0.03-2.957-0.32-4.421-0.586c-0.443-0.081-0.893-0.139-1.342-0.166
		c-0.871-0.053-1.746-0.053-2.616-0.12c-0.517-0.04-1.028-0.167-1.475-0.244c-0.159,0.136-0.329,0.387-0.555,0.459
		c-1.018,0.321-2.048,0.61-3.083,0.871c-0.687,0.174-1.417,0.206-2.079,0.439c-0.785,0.277-1.506,0.731-2.277,1.054
		c-1.156,0.483-2.352,0.873-3.49,1.393c-0.605,0.277-1.145,0.717-1.676,1.132c-0.901,0.704-1.811,1.405-2.645,2.184
		c-0.989,0.923-1.911,1.919-2.84,2.905c-0.167,0.177-0.186,0.487-0.34,0.682c-0.188,0.238-0.418,0.474-0.682,0.612
		c-0.453,0.238-0.715,0.851-0.65,1.36c0.039,0.305-0.133,0.648-0.25,0.959c-0.3,0.794-0.639,1.574-0.93,2.37
		C6.597,63,6.258,63.98,5.94,64.966c-0.268,0.831-0.383,1.732-0.771,2.498c-0.398,0.785-0.27,1.596-0.401,2.387
		c-0.064,0.387,0.064,0.871,0.263,1.221c0.318,0.559,0.08,1.073,0.021,1.597c-0.054,0.485-0.286,0.955-0.306,1.437
		c-0.038,0.939-0.078,1.861-0.543,2.714c-0.058,0.106,0.007,0.288,0.034,0.431c0.051,0.267,0.226,0.567,0.153,0.79
		c-0.275,0.841-0.632,1.656-0.95,2.484c-0.048,0.125-0.087,0.269-0.075,0.399c0.069,0.796,0.206,1.589,0.219,2.385
		c0.019,1.126-0.065,2.252-0.076,3.379c-0.006,0.694,0.025,1.39,0.073,2.083c0.043,0.622,0.136,1.24,0.198,1.86
		c0.049,0.497,0.153,0.948,0.405,1.413c0.269,0.496,0.294,1.12,0.443,1.684c0.162,0.614,0.019,1.304,0.481,1.848
		c0.073,0.086,0.045,0.27,0.042,0.407c-0.007,0.349,0.042,0.568,0.493,0.634c0.346,0.05,0.653,0.349,0.984,0.525
		c0.099,0.053,0.244,0.118,0.328,0.083c0.49-0.204,1.013-0.25,1.39-0.786c0.41-0.585,0.344-1.205,0.512-1.804
		c0.33-1.179,0.117-2.357,0.2-3.53c0.006-0.086,0.002-0.223,0.05-0.247c0.895-0.468,0.555-1.246,0.462-1.929
		c-0.134-0.987-0.307-1.971-0.521-2.943c-0.182-0.828-0.467-1.633-0.666-2.459c-0.129-0.535-0.252-1.086-0.261-1.632
		c-0.017-0.942-0.087-1.922,0.135-2.819c0.182-0.736,0.052-1.328-0.123-1.995c-0.063-0.24,0.094-0.617,0.273-0.824
		c0.36-0.414,0.806-0.755,1.29-1.192c0.265,0.774,0.516,1.424,0.709,2.09c0.288,0.995,0.536,2.001,0.796,3.004
		c0.039,0.15,0.043,0.308,0.07,0.461c0.094,0.53-0.239,1.099,0.371,1.599c0.297,0.244,0.3,0.897,0.355,1.375
		c0.083,0.72,0.091,1.449,0.139,2.174c0.012,0.188,0.045,0.375,0.085,0.559c0.311,1.453,0.06,2.885-0.081,4.333
		c-0.054,0.56,0.032,1.115-0.267,1.639c-0.246,0.431-0.469,0.879-0.667,1.334c-0.177,0.408-0.243,0.877-0.473,1.247
		c-0.401,0.647-0.813,1.327-1.37,1.826c-0.396,0.354-1.025,0.481-1.573,0.623c-0.435,0.112-0.714,0.272-0.799,0.745
		c-0.09,0.496-0.299,0.974-0.355,1.471c-0.069,0.614-0.028,1.239-0.046,1.859c-0.006,0.221-0.045,0.442-0.068,0.663
		c-0.176,1.76,0.18,3.489,0.312,5.231c0.082,1.076,0.174,2.153,0.209,3.231c0.088,2.69,0.191,5.382,0.202,8.073
		c0.008,1.921-0.088,3.845-0.212,5.762c-0.062,0.956,0.165,1.788,0.55,2.644c0.255,0.566,0.346,1.263-0.077,1.815
		c-0.431,0.562-0.291,1.222-0.448,1.827c-0.055,0.214-0.009,0.455-0.009,0.683c0.001,0.555,0.368,0.88,0.925,0.935
		c1.065,0.104,2.123,0.321,3.19,0.368c1.28,0.056,2.567,0.011,3.848-0.05c0.471-0.022,0.968-0.142,1.393-0.344
		c0.876-0.416,1.28-0.855,0.502-1.687c-1.063-1.138-2.154-2.251-3.239-3.369c-0.077-0.079-0.203-0.109-0.179-0.097
		c-0.091-0.432-0.11-0.795-0.244-1.108c-0.365-0.854-0.373-1.743-0.409-2.647c-0.038-0.95-0.222-1.894-0.288-2.844
		c-0.072-1.03-0.113-2.064-0.111-3.096c0.001-1.206,0.074-2.412,0.091-3.619c0.005-0.397-0.065-0.796-0.104-1.193
		c-0.005-0.05-0.015-0.121-0.048-0.142c-0.465-0.303-0.582-0.727-0.361-1.21c0.187-0.408,0.26-0.847,0.47-1.264
		c0.263-0.522,0.632-0.94,0.915-1.427c0.135-0.232,0.134-0.541,0.212-0.809c0.042-0.143,0.084-0.323,0.19-0.402
		c0.285-0.213,0.46-0.426,0.334-0.811c-0.032-0.097,0.083-0.25,0.146-0.37c0.367-0.707,0.73-1.415,1.111-2.115
		c0.6-1.104,1.212-2.201,1.82-3.3c0.514-0.929,1.026-1.858,1.55-2.781c0.107-0.189,0.284-0.338,0.397-0.525
		c0.126-0.209,0.202-0.449,0.326-0.66c0.566-0.966,1.124-1.939,1.725-2.883c0.146-0.229,0.447-0.36,0.676-0.536
		c0.046,0.036,0.092,0.073,0.138,0.109c-0.069,0.839-0.063,1.692-0.222,2.513c-0.281,1.453-0.297,2.962-0.928,4.346
		c-0.395,0.866-0.758,1.752-1.057,2.655c-0.21,0.634-0.289,1.312-0.424,1.97c-0.01,0.051-0.019,0.113,0.001,0.157
		c0.413,0.885,0.142,2.02,1.024,2.745c0.148,0.122,0.134,0.424,0.241,0.617c0.578,1.052,1.182,2.089,1.75,3.147
		c0.174,0.323,0.237,0.703,0.391,1.039c0.239,0.521,0.594,1.001,0.756,1.541c0.472,1.568,1.305,2.978,1.901,4.49
		c0.14,0.355,0.42,0.653,0.589,1c0.111,0.228,0.115,0.505,0.207,0.745c0.447,1.163,0.871,2.336,1.372,3.476
		c0.477,1.086,0.963,2.18,1.586,3.183c0.423,0.681,1.034,1.278,1.66,1.79c0.795,0.65,0.644,1.034,0.154,1.622
		c-0.189,0.227-0.37,0.464-0.532,0.712c-0.611,0.931-0.279,1.684,0.691,2.092c0.187,0.079,0.434,0.017,0.654,0.017
		c1.442,0,2.884,0,4.325,0c1.312,0,2.623,0,3.935,0c0.037-0.062,0.075-0.123,0.112-0.185c-0.492-0.894-0.884-1.865-1.5-2.664
		c-1.095-1.421-2.382-2.695-3.478-4.116c-0.58-0.752-0.945-1.674-1.372-2.537c-0.712-1.438-1.418-2.88-2.083-4.339
		c-0.468-1.027-0.845-2.095-1.299-3.129c-0.481-1.098-1.023-2.169-1.503-3.267c-0.464-1.062-0.587-2.177-0.44-3.331
		c0.055-0.434-0.036-0.891,0.046-1.318c0.229-1.183,0.483-2.363,0.788-3.528c0.185-0.708,0.623-1.372,0.696-2.081
		c0.094-0.913,0.589-1.672,0.74-2.549c0.049-0.284,0.33-0.525,0.394-0.81c0.174-0.78,0.275-1.576,0.429-2.361
		c0.214-1.095,0.412-2.195,0.688-3.275c0.27-1.056,0.612-2.096,0.956-3.132c0.266-0.802,0.572-1.591,0.886-2.375
		c0.114-0.284,0.327-0.527,0.45-0.809c0.083-0.191,0.084-0.416,0.126-0.625c0.019-0.097,0.025-0.206,0.075-0.287
		c0.351-0.576,0.73-1.135,1.058-1.723c0.104-0.186,0.022-0.474,0.121-0.666c0.208-0.404,0.456-0.793,0.732-1.155
		c0.153-0.201,1.383-0.169,1.638,0.008c0.702,0.486,1.34,1.141,2.114,1.425c0.935,0.343,1.688,0.785,2.208,1.628
		c0.081,0.13,0.205,0.277,0.341,0.322c0.505,0.166,0.593,0.526,0.531,0.984c-0.007,0.051-0.01,0.141,0.013,0.152
		c0.527,0.245,1.059,0.673,1.589,0.672c0.669-0.002,1.271-0.172,1.91,0.269c0.5,0.345,1.156,0.459,1.723,0.718
		c0.185,0.085,0.305,0.307,0.461,0.46c0.11,0.108,0.215,0.265,0.348,0.299c1.1,0.283,2.203,0.556,3.312,0.803
		c0.757,0.169,1.52,0.326,2.288,0.423c0.866,0.11,1.741,0.178,2.614,0.204c0.643,0.019,1.289-0.093,1.933-0.088
		c2.059,0.017,4.073-0.307,6.092-0.667c1.141-0.203,2.306-0.265,3.46-0.395c1.222-0.138,2.449-0.254,3.663-0.444
		c0.324-0.051,0.599-0.366,0.919-0.509c0.434-0.194,0.878-0.41,1.339-0.488c0.519-0.087,1.065,0.006,1.593-0.044
		c0.662-0.063,1.317-0.191,2.084-0.308c0.051,0.202,0.252,0.538,0.183,0.803c-0.3,1.146-0.213,2.418-1.112,3.383
		c-0.22,0.236-0.329,0.621-0.388,0.955c-0.267,1.511-0.932,2.88-1.468,4.297c-0.382,1.011-0.681,2.054-1.049,3.071
		c-0.205,0.567-0.467,1.113-0.715,1.663c-0.514,1.14-1.195,2.235-1.504,3.428c-0.247,0.952-0.542,1.965-0.317,3.022
		c0.118,0.555,0.004,1.131-0.317,1.679c-0.234,0.399-0.225,0.934-0.375,1.392c-0.214,0.656-0.422,1.322-0.723,1.94
		c-0.713,1.468-1.466,2.918-2.229,4.361c-0.441,0.833-0.969,1.622-1.386,2.465c-0.167,0.337-0.144,0.767-0.207,1.156
		c-0.165,1.023,0.32,1.714,1.013,2.432c0.562,0.582,1.204,1.253,1.122,2.223c-0.008,0.097,0.025,0.222,0.085,0.296
		c0.405,0.497,0.031,0.811-0.235,1.181c-0.57,0.794-1.11,1.61-1.705,2.478c3.028,2.102,6.3,2.01,9.764,1.728
		c-0.334-0.632-0.566-1.254-0.951-1.76c-0.775-1.018-1.633-1.973-2.457-2.955c-0.031-0.037-0.074-0.07-0.088-0.113
		c-0.269-0.803-0.554-1.602-0.794-2.414c-0.246-0.832-0.511-1.667-0.64-2.52c-0.071-0.469-0.004-1.05,0.224-1.455
		c0.541-0.963,0.569-2.044,0.871-3.058c0.289-0.967,0.403-1.997,0.785-2.921c0.228-0.552,0.272-1.14,0.522-1.66
		c0.126-0.262,0.477-0.411,0.627-0.669c0.594-1.015,1.588-1.722,2.075-2.832c0.465-1.061,1.045-2.073,1.607-3.089
		c0.679-1.228,1.413-2.425,2.08-3.659c0.249-0.461,0.355-0.997,0.565-1.482c0.129-0.299,0.081-0.832,0.763-0.653
		c-0.1,0.859-0.199,1.715-0.299,2.571c-0.018,0.154-0.078,0.315-0.051,0.461c0.14,0.768,0.305,1.532,0.454,2.299
		c0.036,0.187,0.063,0.379,0.063,0.568c0.004,3.587,0.011,7.173-0.006,10.76c-0.003,0.593-0.163,1.185-0.17,1.778
		c-0.006,0.45,0.02,0.946,0.201,1.344c0.412,0.904,0.915,1.768,1.408,2.632c0.251,0.44,0.566,0.843,0.839,1.272
		c0.247,0.389,0.15,0.747-0.1,1.109c-0.285,0.413-0.552,0.841-0.791,1.282c-0.062,0.114-0.009,0.304,0.024,0.452
		c0.104,0.472,0.187,0.938-0.201,1.503c0.803,0.175,1.556,0.335,2.307,0.504c0.705,0.159,1.404,0.345,2.113,0.486
		c0.559,0.111,1.127,0.229,1.693,0.239c0.906,0.015,1.814-0.05,2.721-0.096c0.341-0.017,0.893-0.546,1.183-1.134
		c-0.767-0.883-1.562-1.792-2.348-2.707c-0.793-0.923-1.679-1.788-2.337-2.8c-0.59-0.908-0.939-1.975-1.368-2.983
		c-0.596-1.4-0.629-2.884-0.634-4.377c-0.006-1.611-0.102-3.222-0.083-4.832c0.01-0.788,0.152-1.582,0.303-2.36
		c0.16-0.822,0.31-1.668,0.639-2.427c0.239-0.551,0.522-1.08,0.618-1.674c0.13-0.802,0.259-1.609,0.312-2.419
		c0.075-1.152,0.055-2.309,0.121-3.462c0.12-2.103,0.274-4.204,0.413-6.306c0.002-0.035,0.011-0.073,0.001-0.105
		c-0.406-1.34,0.482-2.211,1.134-3.174c0.143-0.211,0.222-0.465,0.335-0.698c0.288-0.593,0.949-0.471,1.409-0.735
		c0.49-0.281,0.973-0.573,1.459-0.861c0.103-0.061,0.2-0.176,0.306-0.184c1.181-0.084,1.857-0.984,2.684-1.641
		c0.366-0.291,0.567-0.773,1.158-0.813c0.211-0.014,0.418-0.385,0.587-0.621c0.202-0.281,0.337-0.61,0.542-0.888
		c0.708-0.957,0.77-2.101,0.924-3.209c0.1-0.721,0.068-1.46,0.131-2.188c0.012-0.136,0.169-0.297,0.301-0.38
		c0.827-0.524,1.811-0.773,2.506-1.548c0.284-0.317,0.799-0.413,1.155-0.681c1.175-0.885,2.314-1.818,3.49-2.701
		c0.482-0.361,1.042-0.618,1.535-0.965c0.484-0.34,1.13-0.648,1.337-1.128c0.234-0.542,0.616-0.864,0.989-1.208
		c0.775-0.715,1.536-1.417,1.913-2.442c0.118-0.321,0.365-0.444,0.749-0.396c0.549,0.068,0.845-0.396,1.193-0.719
		c0.103-0.096,0.152-0.247,0.244-0.359c0.341-0.417,0.692-0.826,1.033-1.242c0.283-0.346,0.608-0.59,1.026-0.805
		c0.515-0.264,1.063-0.524,1.368-1.185c0.345-0.749,1.247-0.752,1.977-0.829c0.842-0.09,1.64,0.086,2.236,0.783
		c0.083,0.098,0.232,0.144,0.355,0.203c1.209,0.583,2.308,1.435,3.716,1.537c0.623,0.575,1.614,0.518,2.137,1.335
		c0.236,0.369,0.791,0.53,1.195,0.795c0.357,0.234,0.727,0.456,1.053,0.729c0.455,0.38,0.883,0.733,1.511,0.861
		c0.396,0.081,0.728,0.465,1.095,0.703c0.58,0.376,1.183,0.721,1.74,1.128c0.197,0.144,0.324,0.419,0.421,0.659
		c0.375,0.922,0.57,1.983,1.73,2.298c0.819,0.222,1.628,0.215,2.457-0.072c0.736-0.254,1.112-0.767,1.418-1.421
		c0.17-0.364,0.478-0.52,0.923-0.63c0.557-0.138,1.1-0.524,1.535-0.925c0.901-0.83,1.607-1.809,1.942-3.028
		c0.246-0.897,0.148-1.778-0.106-2.624C145.923,61.952,145.425,60.407,144.833,58.902z"/>
</g>
</svg>
