<?xml version="1.0" encoding="iso-8859-1"?>
<!-- Generator: Adobe Illustrator 17.1.0, SVG Export Plug-In . SVG Version: 6.00 Build 0)  -->
<!DOCTYPE svg PUBLIC "-//W3C//DTD SVG 1.1//EN" "http://www.w3.org/Graphics/SVG/1.1/DTD/svg11.dtd">
<svg version="1.1" id="Capa_1" xmlns="http://www.w3.org/2000/svg" xmlns:xlink="http://www.w3.org/1999/xlink" x="0px" y="0px"
	 viewBox="0 0 150 150" style="enable-background:new 0 0 150 150;" xml:space="preserve">
<g>
	<path d="M85.831,34.958c-8.797,2.051-16.453,6.282-21.917,14.625c-1.33-2.794-2.312-5.158-3.542-7.385
		c-4.152-7.524-12.089-9.956-19.741-6.026c-1.696,0.871-3.419,1.913-4.737,3.26c-4.761,4.865-10.416,8.207-16.389,11.025
		c-0.111-0.004-0.23,0.013-0.358,0.062c-5.181,1.974-16.945,4.433-14.787,12.39c0.315,1.16,2.115,0.667,1.799-0.496
		c-1.069-3.942,2.893-6.292,7.012-7.886c5.124-0.801,10.488-1.668,15.884-2.313c5.185-0.62,9.403,1.705,11.423,6.349
		c7.457,17.144,19.341,30.68,32.49,43.538c4.346,7.527,6.6,16.1,6.517,24.897c-0.013,1.369,1.791,1.565,2.332,0.599
		c0.188,0.72,0.377,1.44,0.566,2.159c0.364,1.388,2.32,1.003,2.434-0.207c0.25,0.538,0.499,1.075,0.748,1.613
		c0.11,0.237,0.261,0.396,0.431,0.499c0.071,0.227,0.14,0.461,0.212,0.687c0.052,0.162,0.126,0.296,0.216,0.411
		c0.272,0.611,0.997,1.072,1.778,0.695c0.236-0.114,0.447-0.252,0.645-0.401c0.325,1.271,0.649,2.542,0.973,3.814
		c0.21,0.824,0.982,1.021,1.603,0.797c0.369,1.167,0.738,2.333,1.106,3.5c0.114,0.427,0.229,0.854,0.341,1.282
		c0.047-0.008,0.093-0.016,0.14-0.024c0.025,0.033,0.053,0.059,0.081,0.088c0.006,0.033,0.013,0.065,0.019,0.098
		c0.274,1.579,2.672,0.907,2.399-0.661c-0.882-5.073-2.138-10.055-3.737-14.915c-0.979-6.48-2.06-12.934-3.655-19.258
		c-2.367-9.384-6.396-18.392-10.181-27.359c-2.391-5.666-2.682-6.802,1.702-9.707c0.729-0.079,1.454-0.182,2.178-0.299
		c0.48-0.012,0.96-0.023,1.44-0.035c-0.057,0.038-0.112,0.076-0.17,0.115c1.855-0.05,3.69-0.13,5.506-0.244l0.365-0.009
		c0.104-0.003,0.192-0.027,0.292-0.036c16.822-1.137,32.007-5.321,45.928-17.05c-2.507,0-3.639-0.049-4.766,0.008
		c-6.981,0.352-13.962,0.697-20.938,1.122c-0.401,0.024-0.82,0.064-1.239,0.116h-3.972c9.632-7.028,18.717-14.749,26.777-23.758
		c4.161-4.651,7.836-9.746,11.621-14.722c0.994-1.307,1.569-2.933,1.509-5.247c-1.34,0.631-2.798,1.091-4.002,1.919
		C123.654,23.943,105.184,30.447,85.831,34.958z"/>
</g>
</svg>
