<?xml version="1.0" encoding="iso-8859-1"?>
<!-- Generator: Adobe Illustrator 17.1.0, SVG Export Plug-In . SVG Version: 6.00 Build 0)  -->
<!DOCTYPE svg PUBLIC "-//W3C//DTD SVG 1.1//EN" "http://www.w3.org/Graphics/SVG/1.1/DTD/svg11.dtd">
<svg version="1.1" id="Capa_1" xmlns="http://www.w3.org/2000/svg" xmlns:xlink="http://www.w3.org/1999/xlink" x="0px" y="0px"
	 viewBox="0 0 150 150" style="enable-background:new 0 0 150 150;" xml:space="preserve">
<g>
	<path d="M145.844,62.783c0.161-2.043-0.508-3.303-2.389-4.14c-1.835-0.816-3.77-0.879-5.676-0.538
		c-4.128,0.738-8.268,1.234-12.466,1.119c-1.885-0.051-3.769-0.212-5.654-0.227c-4.223-0.034-8.164,0.928-11.88,3.054
		c-1.018,0.582-2.563,0.493-3.825,0.351c-4.474-0.502-8.959-1.002-13.387-1.798c-5.731-1.031-10.933-3.207-15.326-7.284
		c-1.942-1.803-4.498-2.953-6.806-4.348c-0.503-0.304-1.14-0.389-1.851-0.618c0.064,0.764,0.135,1.29,0.148,1.818
		c0.039,1.541-0.591,2.048-2.062,1.505c-1.226-0.453-2.382-1.094-3.571-1.648c-2.919-1.361-5.776-2.886-8.775-4.041
		c-0.704-0.271-1.412-0.533-2.121-0.792c-3.358-1.5-6.828-2.72-10.45-3.513c-0.031-0.01-0.062-0.02-0.092-0.03
		c-0.784-0.253-0.977-0.687-1.138-1.345c-1.375-5.613-3.513-10.894-7.511-15.161c-1.744-1.862-3.911-3.34-5.96-4.893
		c-0.448-0.339-1.365-0.521-1.792-0.283c-0.362,0.201-0.364,1.108-0.462,1.713c-0.279,1.73-0.453,3.48-0.801,5.195
		c-0.686,3.38-0.718,6.73-0.117,10.138c0.24,1.361,1.049,2.457,1.247,3.612c-2.614,1.012-5.25,1.875-7.746,3.036
		c-3.421,1.59-6.18,4.03-8.114,7.311c-0.69,1.17-1.564,2.032-2.822,2.625c-0.65,0.306-1.523,1.109-1.49,1.635
		c0.037,0.579,0.906,1.321,1.577,1.607c4.036,1.721,8.303,1.906,12.58,1.419c6.535-0.745,12.233-3.544,17.394-7.522
		c1.089-0.84,2.12-0.88,3.388-0.211c6.808,3.593,12.655,8.431,17.767,14.094c4.254,4.713,7.958,9.923,12.235,14.613
		c2.604,2.855,5.83,5.144,8.785,7.679c0.431,0.369,0.904,0.689,1.284,0.976c-1.533,6.971-6.01,11.966-10.821,16.745
		c-0.7,0.695-1.416,1.376-2.082,2.102c-1.204,1.311-1.088,2.64,0.381,3.654c1.341,0.926,2.868,1.196,4.447,0.967
		c0.544-0.018,1.026-0.13,1.441-0.321c0.372-0.111,0.733-0.24,1.082-0.387c0.268-0.087,0.524-0.205,0.764-0.358
		c1.54-0.809,2.826-2.007,3.862-3.551c3.036-4.525,6.631-8.559,10.539-12.342c0.86-0.833,1.604-0.918,2.703-0.563
		c3.647,1.178,7.397,1.824,11.245,1.805c3.927-0.019,7.588-1.2,11.213-2.544c0.368-0.136,0.734-0.278,1.205-0.456
		c0.436,4.328,2.651,7.518,5.541,10.401c1.208,1.205,2.288,2.62,3.093,4.119c0.713,1.329,1.103,2.88,1.382,4.381
		c0.294,1.583,1.138,2.16,2.275,1.059c0.893-0.864,1.65-2.07,1.998-3.262c1.309-4.487-0.532-8.145-3.57-11.247
		c-2.146-2.192-3.526-4.697-4.231-7.636c-0.218-0.912-0.112-1.581,0.768-2.189c3.193-2.207,5.338-5.411,7.79-8.333
		c3.956-4.714,8.757-8.266,14.692-10.158c1.518-0.484,2.698-1.401,3.2-2.986c0.254-0.801,0.309-1.522-0.433-2.235
		C146.039,64.165,145.797,63.368,145.844,62.783z"/>
</g>
</svg>
