<?xml version="1.0" encoding="iso-8859-1"?>
<!-- Generator: Adobe Illustrator 17.1.0, SVG Export Plug-In . SVG Version: 6.00 Build 0)  -->
<!DOCTYPE svg PUBLIC "-//W3C//DTD SVG 1.1//EN" "http://www.w3.org/Graphics/SVG/1.1/DTD/svg11.dtd">
<svg version="1.1" id="Capa_1" xmlns="http://www.w3.org/2000/svg" xmlns:xlink="http://www.w3.org/1999/xlink" x="0px" y="0px"
	 viewBox="0 0 150 150" style="enable-background:new 0 0 150 150;" xml:space="preserve">
<g>
	<path d="M9.894,84.795c0.246,0.126,0.229,0.262-0.042,0.318c-1.033,0.211-1.831,0.416-2.638,0.465
		c-0.773,0.047-1.555-0.049-2.364-0.119c-0.275-0.024-0.38,0.151-0.216,0.374c2.22,3.033,5.872,3.343,10.48,0.939
		c0.245-0.128,0.46-0.012,0.43,0.263c-0.07,0.628-0.486,1.141-2.645,3.677c-0.179,0.21-0.102,0.413,0.173,0.435
		c2.161,0.178,4.049-0.481,5.724-1.561c1.871-1.206,3.68-2.586,5.251-4.156c1.052-1.051,1.938-2.267,2.826-3.482
		c0.163-0.223,0.386-0.199,0.522,0.042c0.152,0.268,0.323,0.524,0.513,0.763c0.172,0.216,0.323,0.6,0.304,0.875
		c-0.35,5.378-3.814,10.258-8.972,12.147c-3.621,1.326-3.624,1.326-3.463,5.162c0.216,5.136,0.39,10.275,0.715,15.404
		c0.039,0.609,0.902,1.658,1.397,1.666c2.744,0.047,5.516,0.011,8.229-0.36c1.466-0.2,2.011-1.962,1.447-3.426
		c-0.728-1.886-2.412-2.907-4.874-2.913c-0.276-0.001-0.5-0.212-0.499-0.488c0.004-0.888,0.017-1.773-0.006-2.658
		c-0.057-2.17,0.892-3.807,2.778-4.769c2.624-1.339,5.312-2.556,7.993-3.779c3.357-1.53,6.541-3.286,9.001-6.139
		c0.828-0.961,2.072-0.814,2.446,0.519c0.476,1.696,0.872,3.657,0.467,5.298c-0.506,2.054-1.83,3.915-2.865,5.825
		c-0.436,0.805-0.668,1.351,0.228,2.097c3.764,3.137,7.506,6.307,11.137,9.596c1.232,1.116,2.457,1.763,4.102,1.63
		c1.708-0.138,3.429-0.166,5.126-0.388c2.017-0.265,2.555-1.441,1.608-3.278c-0.27-0.524-0.584-1.028-0.917-1.515
		c-0.957-1.396-2.193-2.018-3.777-1.078c-1.014,0.602-1.68,0.423-2.387-0.49c-1.741-2.248-3.544-4.447-5.407-6.761
		c-0.173-0.215-0.12-0.501,0.115-0.646c5.92-3.654,7.702-9.171,7.749-15.973c0.002-0.276,0.197-0.393,0.443-0.269
		c4.792,2.412,9.184,1.737,13.398-1.366c0.222-0.164,0.393-0.077,0.397,0.199c0.048,3.245,1.213,6.359-0.404,9.458
		c-0.3,0.575,0.156,1.546,0.263,2.334c0.154,1.133,0.308,2.267,0.472,3.472c0.037,0.274-0.154,0.532-0.426,0.579
		c-0.327,0.056-0.556,0.096-0.786,0.127c-4.178,0.566-6.372,4.608-4.586,8.454c0.753,1.623,1.528,1.837,3.077,0.959
		c2.602-1.475,5.342-2.743,7.789-4.437c0.961-0.665,1.414-2.194,1.881-3.413c0.734-1.919,1.207-3.938,1.938-5.858
		c0.491-1.29,1.178-2.506,1.926-3.997c0.124-0.247,0.333-0.252,0.47-0.013c3.142,5.5,6.112,10.738,9.135,15.944
		c0.442,0.76,1.054,1.422,1.627,2.106c0.177,0.212,0.458,0.213,0.631-0.002c0.45-0.557,0.926-1.147,1.538-1.905
		c0.173-0.215,0.464-0.223,0.651-0.019c1.7,1.858,3.663,3.828,5.332,6.022c0.926,1.218,1.751,1.869,3.304,1.787
		c2.361-0.125,4.732-0.076,7.098-0.065c1.477,0.007,1.917-0.739,1.524-2.048c-0.709-2.364-2.129-4.206-4.307-5.387
		c-0.486-0.264-1.252-0.496-1.679-0.296c-1.6,0.752-2.423-0.291-3.294-1.229c-1.891-2.037-3.831-4.039-5.571-6.2
		c-0.696-0.864-0.896-2.12-1.36-3.18c-1.653-3.782-3.377-7.535-4.968-11.343c-1.136-2.718-2.129-5.495-3.123-8.119
		c-0.098-0.258-0.017-0.623,0.179-0.817c1.364-1.348,2.619-2.667,4.004-3.831c0.45-0.378,1.36-0.428,2.007-0.318
		c6.264,1.066,11.934,3.724,17.304,6.957c1.334,0.803,2.158,2.582,3,4.037c0.912,1.576,1.548,3.309,2.345,4.954
		c0.652,1.347,1.741,2.033,3.267,1.989c0.251-0.007,0.503-0.011,0.755-0.013c0.276-0.002,0.621,0.011,0.769,0.019
		c0.088,0.005,0.178,0.007,0.267,0.007c0.092,0,0.184-0.003,0.274-0.008c0.152-0.008,0.308-0.022,0.348-0.022
		c0.024,0,0.048,0,0.072,0c3.248-0.028,5.19-1.517,5.636-4.705c0.465-3.324,1.464-6.124,4.77-7.7
		c1.553-0.741,2.149-2.364,2.217-4.016c0.064-1.552,0.949-2.258,2.186-2.865c4.273-2.098,4.863-2.833,4.253-7.57
		c-0.218-1.697-0.563-3.384-0.978-5.058c-0.051-0.295-0.127-0.586-0.225-0.872c-0.354-1.348-0.747-2.687-1.153-4.013
		c-0.656-2.143-1.278-2.231-3.297-1.16c-1.982,1.051-3.905,2.215-5.896,3.248c-1.736,0.901-2.66,0.694-3.396-1.077
		c-0.615-1.48-0.88-3.105-1.305-4.87c-0.065-0.268-0.218-0.285-0.339-0.037c-0.454,0.933-0.919,1.891-1.366,2.81
		c-0.121,0.248-0.301,0.242-0.403-0.015c-0.365-0.921-0.777-1.96-1.288-3.249c-0.102-0.257-0.23-0.244-0.284,0.027
		c-0.188,0.958-0.283,1.619-0.506,2.234c-0.111,0.308-0.34,0.574-0.571,0.839c-0.181,0.208-0.497,0.246-0.727,0.092
		c-0.349-0.234-0.703-0.464-0.858-0.79c-0.315-0.666-0.372-1.463-0.489-2.212c-0.092-0.591-0.135-1.19-0.218-2.064
		c-0.026-0.275-0.163-0.304-0.304-0.066c-0.495,0.836-0.897,1.515-1.263,2.133c-0.141,0.238-0.463,0.346-0.71,0.222
		c-3.663-1.826-3.742-5.74-5.345-8.873c-0.126-0.246-0.26-0.216-0.282,0.059c-0.062,0.797-0.099,1.599-0.28,2.368
		c-0.085,0.363-0.349,0.684-0.607,1.006c-0.173,0.216-0.443,0.226-0.637,0.03c-0.393-0.398-0.841-0.804-0.794-1.142
		c0.174-1.275,0.605-2.514,0.759-3.982c0.029-0.275-0.107-0.331-0.29-0.124c-0.585,0.663-1.17,1.325-1.752,1.984
		c-0.183,0.207-0.441,0.18-0.578-0.06c-0.498-0.874-1.099-1.93-1.712-3.007c-0.137-0.24-0.344-0.398-0.464-0.354
		s-0.192,0.302-0.163,0.577c0.039,0.354,0.078,0.709,0.117,1.068c0.03,0.274-0.171,0.484-0.437,0.41
		c-1.752-0.493-2.802-2.843-3.339-6.928c-0.036-0.274-0.141-0.288-0.239-0.03c-0.372,0.982-0.743,1.963-1.11,2.933
		c-0.098,0.258-0.271,0.265-0.387,0.014c-0.42-0.905-0.86-1.853-1.404-3.026c-0.116-0.25-0.258-0.234-0.316,0.036
		c-0.195,0.909-0.338,1.578-0.47,2.196c-0.058,0.27-0.248,0.516-0.425,0.549c-0.177,0.034-0.402-0.148-0.502-0.405
		c-0.74-1.889-1.487-3.795-2.321-5.92c-0.101-0.257-0.234-0.248-0.297,0.021c-0.291,1.239-0.548,2.336-0.821,3.499
		c-0.063,0.269-0.262,0.317-0.443,0.109c-0.953-1.098-1.809-2.084-2.654-3.057c-0.181-0.209-0.411-0.306-0.514-0.218
		c-0.103,0.089-0.12,0.375-0.039,0.639c0.108,0.352,0.222,0.721,0.353,1.145c0.081,0.264-0.036,0.351-0.263,0.194
		c-1.11-0.769-2.111-1.462-3.319-2.298c-0.227-0.157-0.334-0.075-0.239,0.184c0.334,0.91,0.594,1.62,0.87,2.373
		c0.095,0.259-0.029,0.369-0.276,0.245c-2.179-1.091-4.214-2.11-6.573-3.292c-0.247-0.124-0.347-0.022-0.224,0.225
		c0.784,1.585,1.406,2.842,2.01,4.064c0.123,0.247,0.119,0.548-0.008,0.67c-0.127,0.122-0.425,0.113-0.667-0.021
		c-1.377-0.762-2.765-1.531-4.279-2.369c-0.241-0.134-0.373-0.028-0.294,0.236c0.272,0.9,0.528,1.75,0.779,2.581
		c0.08,0.264-0.074,0.428-0.343,0.365c-1.025-0.239-2.083-0.485-3.147-0.733c-0.269-0.063-0.516-0.02-0.552,0.095
		s0.11,0.347,0.328,0.517c0.497,0.39,1.005,0.788,1.564,1.226c0.217,0.17,0.169,0.32-0.107,0.334
		c-1.264,0.065-2.378,0.122-3.472,0.178c-0.276,0.014-0.569,0.154-0.654,0.311c-0.085,0.158,0.047,0.383,0.295,0.504
		c0.224,0.109,0.471,0.229,0.775,0.377c0.248,0.121,0.225,0.227-0.05,0.241c-13.772,0.718-24.26,7.79-34.408,15.466
		c-3.558,2.692-6.923,5.739-9.919,9.039c-1.896,2.089-2.958,4.938-4.371,7.459c-1.425,2.544-3.282,4.671-6.052,5.732
		c-4.13,1.581-7.367,0.613-10.842-3.107c-0.188-0.202-0.399-0.153-0.459,0.116c-0.325,1.456,0.022,2.12,2.471,5.345
		c0.167,0.22,0.079,0.409-0.197,0.397c-2.496-0.111-4.485-1.818-6.78-5.793c-0.138-0.239-0.306-0.217-0.356,0.055
		C3.246,78.8,5.494,82.537,9.894,84.795z"/>
</g>
</svg>
