<?xml version="1.0" encoding="iso-8859-1"?>
<!-- Generator: Adobe Illustrator 17.1.0, SVG Export Plug-In . SVG Version: 6.00 Build 0)  -->
<!DOCTYPE svg PUBLIC "-//W3C//DTD SVG 1.1//EN" "http://www.w3.org/Graphics/SVG/1.1/DTD/svg11.dtd">
<svg version="1.1" id="Capa_1" xmlns="http://www.w3.org/2000/svg" xmlns:xlink="http://www.w3.org/1999/xlink" x="0px" y="0px"
	 viewBox="0 0 150 150" style="enable-background:new 0 0 150 150;" xml:space="preserve">
<g>
	<path d="M7.904,59.952c0.121,0.31,0.238,0.62,0.373,0.933c0.041,0.83,0.066,1.661,0.172,2.482c0.105,0.81,0.385,1.595,0.533,2.402
		c0.129,0.702,0.046,1.469,0.293,2.117c0.564,1.475,1.172,2.951,1.95,4.32c0.841,1.477,1.87,2.85,2.866,4.234
		c1.444,2.007,3.6,3.112,5.653,4.337c1.143,0.682,2.283,1.374,3.468,1.977c0.726,0.37,1.524,0.605,2.305,0.856
		c1.922,0.617,3.852,1.21,5.78,1.807c0.226,0.07,0.461,0.135,0.696,0.151c1.522,0.103,3.047,0.284,4.569,0.266
		c2.965-0.033,5.931,0.325,8.901-0.125c1.432-0.217,2.91-0.131,4.367-0.183c0.953-0.034,1.907-0.084,2.86-0.099
		c1.112-0.018,2.227-0.065,3.335,0.004c3.952,0.244,7.908,0.456,11.849,0.825c3.514,0.329,7.036,0.71,10.505,1.341
		c2.041,0.371,3.992,1.253,5.971,1.942c2.108,0.733,3.854,2.095,5.735,3.247c3.099,1.898,5.444,4.462,7.548,7.328
		c0.173,0.235,0.369,0.471,0.47,0.738c0.863,2.281,1.899,4.505,2.25,6.953c0.177,1.236,0.449,2.461,0.578,3.702
		c0.401,3.858,0.003,7.638-1.422,11.259c-0.856,2.175-1.757,4.344-2.832,6.415c-0.639,1.23-1.699,2.235-2.498,3.391
		c-1.767,2.556-3.799,4.931-6.278,6.735c-1.638,1.192-3.296,2.581-5.454,2.999c-0.828,0.16-1.598,0.675-2.361,1.09
		c-0.272,0.148-0.445,0.477-0.664,0.723c0.026,0.085,0.053,0.17,0.079,0.256c0.474,0.006,0.966,0.098,1.419,0.004
		c2.564-0.532,4.937-1.51,6.91-3.276c2.233-1.999,4.546-3.929,6.596-6.104c1.518-1.609,2.779-3.494,3.96-5.378
		c1.483-2.366,2.5-4.972,3.604-7.543c1.501-3.497,1.702-7.022,1.263-10.69c-0.211-1.762-0.122-3.595-0.58-5.285
		c-1.456-5.368-3.901-10.183-8.573-13.536c-2.096-1.504-4.209-2.987-6.372-4.392c-0.858-0.557-1.833-1.006-2.818-1.283
		c-3.628-1.021-7.275-1.977-10.929-2.906c-5.284-1.343-10.654-2.176-16.076-2.749c-2.704-0.286-5.39-0.442-8.109-0.34
		c-2.489,0.094-4.987,0.04-7.479-0.026c-2.355-0.063-4.725-0.087-7.058-0.376c-4.737-0.587-9.331-1.838-13.292-4.568
		c-2.372-1.635-4.639-3.5-5.831-6.374c-1.102-2.657-1.48-5.346-1.114-8.154c0.271-2.07,0.472-4.178,1.037-6.174
		c0.768-2.714,1.493-5.47,3.175-7.853c1.942-2.752,4.564-4.634,7.433-6.261c0.335-0.19,0.563-0.567,0.847-0.851
		c0.127-0.128,0.251-0.316,0.406-0.352c0.852-0.202,1.713-0.368,2.573-0.542c0.18-0.037,0.364-0.051,0.544-0.087
		c1.304-0.259,2.615-0.491,3.909-0.796c0.573-0.135,1.103-0.444,1.669-0.62c0.272-0.085,0.592-0.103,0.873-0.052
		c0.931,0.167,1.846,0.469,2.781,0.551c1.065,0.092,2.148-0.056,3.218,0.005c1.988,0.114,3.969,0.329,5.957,0.45
		c0.738,0.045,1.487-0.025,2.226-0.099c1.298-0.129,2.565-0.288,3.789,0.441c0.494,0.294,1.157,0.304,1.843,0.467
		c-0.39,0.377-0.75,0.744-1.129,1.09c-1.428,1.3-2.444,2.922-3.114,4.675c-0.314,0.821-0.014,1.91,0.128,2.86
		c0.104,0.701,0.447,1.362,0.608,2.059c0.97,4.199,4.928,7.538,7.098,11.221c0.202,0.344,0.408,0.721,0.362,1.117
		c-0.047,0.396-0.477,0.762-0.836,0.589c0.484,0.705,1.643,0.641,2.246,0.036s0.739-1.545,0.637-2.394
		c-0.283-2.366-2.056-4.242-3.736-5.932c3.713,3.446,8.525,8.619,13.757,9.395c-0.019,0.699-0.039,1.398-0.058,2.097
		c0.964,0.101,1.714-1.01,1.575-1.969c-0.14-0.959-0.88-1.718-1.66-2.292c-1.483-1.093-3.221-1.774-4.839-2.656
		c-1.618-0.881-3.188-2.046-3.953-3.722c3.128,1.919,6.612,3.256,10.221,3.921c0,0.377,0.619,0.987,0.875,1.227
		c1.069-1.223-0.247-3.247-1.491-4.064c-1.435-0.941-3.207-1.163-4.899-1.449c-1.692-0.286-3.47-0.711-4.683-1.927
		c1.312,1.315,7.307,1.789,8.961,1.18c0.412,0.571,0.864,1.232,1.312,1.669c0.485-1.049-0.017-2.079-0.949-2.807
		c-1.543-0.981-3.26-1.626-5.125-1.787c-0.871-0.075-1.735-0.227-2.6-0.359c-0.143-0.022-0.274-0.121-0.411-0.184
		c0.263-0.331,0.5-0.629,0.8-1.007c0.108,0.22,0.234,0.477,0.38,0.776c0.479-0.1,0.691-0.421,0.542-0.853
		c-0.132-0.383-0.349-0.79-0.647-1.052c-1.21-1.065-2.114-1.121-3.478-0.308c-1.026,0.611-1.17,0.621-2.602,0.147
		c1.012-0.559,1.999-1.061,2.943-1.635c1.713-1.039,3.485-2.01,5.07-3.221c1.222-0.934,2.196-2.194,3.316-3.345
		c0.237,0.027,0.612,0.012,0.944,0.123c0.341,0.114,0.644,0.345,0.957,0.536c0.18,0.11,0.363,0.368,0.515,0.348
		c1.215-0.166,2.225,0.534,3.335,0.786c1.196,0.272,2.337,0.653,3.566,0.272c0.101-0.031,0.218-0.088,0.308-0.063
		c5.569,1.566,11.249,1.308,16.93,1.038c0.154-0.007,0.31,0.009,0.555,0.017c-0.073,0.501-0.2,0.962-0.198,1.423
		c0.014,2.786-0.013,5.576,0.124,8.357c0.065,1.319,0.755,2.474,1.673,3.458c0.286,0.306,0.562,0.645,0.747,1.016
		c0.567,1.137,1.346,2.073,2.3,2.92c0.643,0.571,1.079,1.371,1.636,2.044c0.181,0.218,0.453,0.36,0.823,0.644
		c0.001,0.17,0.005,0.528,0.008,0.887c1.257-0.125,1.671-1.392,1.214-3.238c0.287,0.38,0.587,0.751,0.858,1.142
		c0.314,0.455,0.614,0.921,0.898,1.394c0.266,0.444,0.505,0.904,0.813,1.462c-0.022,0.043-0.142,0.194-0.182,0.363
		c-0.097,0.41,0.18,0.646,0.463,0.406c0.416-0.353,0.895-0.828,0.992-1.322c0.306-1.55-0.241-2.885-1.438-3.917
		c-0.626-0.54-1.306-1.019-1.961-1.525c0.046-0.081,0.092-0.162,0.139-0.243c0.698,0.291,1.393,0.592,2.098,0.868
		c0.325,0.127,0.669,0.204,1.148,0.345c-0.002-0.012,0.034,0.208,0.07,0.435c0.607-0.202,0.828-1.029,0.481-1.773
		c-0.546-1.169-1.562-1.689-2.77-1.88c-0.732-0.116-1.48-0.129-2.212-0.249c-0.309-0.051-0.593-0.258-0.888-0.393
		c0.01-0.073,0.019-0.145,0.029-0.218c0.971-0.217,1.943-0.435,2.989-0.669c0.123,0.173,0.29,0.406,0.511,0.716
		c0.186-1.482-0.427-2.625-1.43-2.636c-0.73-0.007-1.473,0.15-2.189,0.322c-0.429,0.103-0.818,0.375-1.283,0.599
		c-0.303-1.226-0.651-2.073-0.161-3.151c0.799-1.758,1.319-3.641,1.977-5.465c0.091-0.252,0.298-0.462,0.452-0.691
		c0.268,0.197,0.645,0.335,0.786,0.599c1,1.871,1.964,3.761,2.908,5.662c0.236,0.475,0.429,0.845,0.929,0.45
		c0.53,0.45,1.001,0.85,1.41,1.197c0.946,0.62,1.897,1.143,2.729,1.814c1,0.806,0.691,2.009,0.715,3.093
		c-0.348,0.253-0.695,0.506-1.042,0.759c0.045,0.065,0.09,0.13,0.135,0.195c1.075-0.194,1.911-0.777,2.45-1.761
		c0.347-0.633,0.79-1.099,1.646-1.338c-0.284,1.931-1.63,3.303-2.064,5.208c1.96-0.547,2.682-2.116,3.509-3.722
		c-0.383,1.655-0.766,3.311-1.167,5.048c0.834-0.455,1.652-1.015,2.037-1.89c0.373-0.848,0.464-1.82,0.776-2.707
		c-0.123,1.844-0.745,3.527-1.657,5.084c1.854-0.363,3.495-0.815,3.219-3.579c-0.005-0.053-0.019-0.11-0.006-0.159
		c0.566-2.142-0.833-3.234-2.281-4.32c-0.508-0.381-0.91-0.918-1.444-1.247c-1.059-0.651-2.154-1.254-3.277-1.787
		c-1.182-0.562-1.879-1.347-1.93-2.729c-0.044-1.197-0.278-2.386-0.425-3.58c-0.029-0.232-0.042-0.465-0.063-0.707
		c1.106,0.242,1.857,1.137,1.945,2.186c0.018,0.218,0.29,0.414,0.533,0.572c0.002,1.178,0.002,1.178,0.672,1.261
		c0.035,0.326,0.071,0.652,0.117,1.07c0.313-0.171,0.514-0.28,0.717-0.391c0.6,1.198,0.6,1.198,1.571,0.439
		c0.016,0.497,0.031,0.963,0.047,1.429c0.064,0.016,0.129,0.032,0.193,0.049c0.384-0.469,0.768-0.938,1.167-1.425
		c0.204,0.502,0.366,0.901,0.529,1.299c0.343-0.293,0.687-0.585,1.088-0.927c0.082,0.447,0.158,0.865,0.275,1.503
		c0.556-0.919,0.983-1.625,1.529-2.526c0.211,0.573,0.345,0.937,0.479,1.3c0.076,0.027,0.151,0.055,0.227,0.082
		c0.368-0.704,0.737-1.409,1.105-2.113c0.079,0.03,0.157,0.061,0.236,0.091c0.021,0.437,0.041,0.874,0.062,1.311
		c0.083,0.027,0.166,0.054,0.249,0.081c0.474-0.736,0.949-1.471,1.489-2.31c0.251,0.432,0.435,0.748,0.687,1.182
		c0.363-1.149,0.45-2.296,1.563-3.041c0.059,0.499,0.101,0.858,0.143,1.217c0.066,0.008,0.132,0.017,0.199,0.025
		c0.344-0.822,0.688-1.644,1.104-2.636c0.251,0.442,0.396,0.699,0.604,1.065c0.627-0.723,0.229-1.987,1.514-2.331
		c0.004,0.314,0.008,0.633,0.012,0.951c0.088-0.005,0.175-0.009,0.263-0.014c0.3-0.573,0.6-1.147,0.931-1.78
		c0.219,0.26,0.376,0.448,0.672,0.8c0.052-1.256,0.873-1.774,1.653-2.301c0.32-0.216,0.712-0.38,1.092-0.44
		c0.992-0.158,1.995-0.242,2.993-0.367c0.154-0.019,0.343-0.059,0.442-0.16c0.979-0.997,2.062-1.948,2.228-3.448
		c0.05-0.45-0.05-0.963-0.232-1.382c-0.295-0.679-0.716-1.303-1.08-1.952c-0.413-0.735-0.77-1.41-0.657-2.377
		c0.075-0.641-0.385-1.515-0.879-2.015c-0.862-0.872-2.058-1.421-2.896-2.31c-1.517-1.611-3.34-2.602-5.319-3.314
		c-0.749-1.248-1.738-3.091-2.175-4.768c-0.75-2.875-0.088-3.101-2.544-4.175c-2.456-1.075-14.331,6.3-22.706,2.425
		S102.25,23.75,93,17.75s-2.75,1-23.375-0.625C49.903,15.571-3.526,29.677,7.787,59.658C7.788,59.76,7.823,59.859,7.904,59.952z"/>
</g>
</svg>
