<?xml version="1.0" encoding="iso-8859-1"?>
<!-- Generator: Adobe Illustrator 17.1.0, SVG Export Plug-In . SVG Version: 6.00 Build 0)  -->
<!DOCTYPE svg PUBLIC "-//W3C//DTD SVG 1.1//EN" "http://www.w3.org/Graphics/SVG/1.1/DTD/svg11.dtd">
<svg version="1.1" id="Capa_1" xmlns="http://www.w3.org/2000/svg" xmlns:xlink="http://www.w3.org/1999/xlink" x="0px" y="0px"
	 viewBox="0 0 150 150" style="enable-background:new 0 0 150 150;" xml:space="preserve">
<g>
<path d="M136.351,45.334c-1.872-2.421-1.569-3.035-4.261-1.639c-3.498,0.493-7.108-3.524-10.457-4.262
	c-4.551-1.004-8.936,0.358-12.719,2.917c-4.249,2.879-6.588,7.705-12.127,7.554c-5.057-0.141-9.837-0.606-14.836,0.545
	c-10.417,2.399-18.221,9.41-28.009,13.128c-6.395,2.428-12.716,3.066-19.448,3.066c-5.749,0-11.493,0-17.241,0
	c-6.798,0-11.177,4.277-11.177,11.473c1.209-0.524,2.037-3.017,3.295-4.081c1.195-1.013,2.302-0.869,3.787-0.869
	c3.137,0,6.075,0.428,9.099,1.162c6.771,1.645,13.544,3.289,20.319,4.933c3.381,0.823,6.932,0.978,10.347,1.709
	c2.045,0.437,4.119,1.054,6.211,1.229c2.745,0.227,4.139,1.484,6.409,2.802c0.188,0.181,1.017,0.131,1.308,0.327
	c-0.291,0.973-0.714,1.879-1.27,2.727c-1.153,1.768-2.782,3.284-4.662,4.223c-2.489,1.237-1.792,4.225-3.041,6.344
	c-1.248,2.116-3.875,4.791-3.875,7.392c0.44,0,1.009-0.124,1.376-0.359c0.943,1.583,1.244,5.246,3.12,5.246c1.288,0,2.573,0,3.86,0
	c0.041,0.034,0.067,0.055,0.067,0.055s1.573,0.128,2.723,0.485c0.72,0.224,0.239-0.681-0.692-1.36c0.396,0,0.792,0,1.188,0
	c0.218,0.052,0.433,0.108,0.636,0.171c0.679,0.211,0.492-0.388-0.142-1.057c0.208,0.048,0.415,0.099,0.609,0.159
	c1.023,0.318-0.379-1.638-2.051-1.993c-0.763-0.484-1.771-0.78-2.778-1.2c-2-0.826,0.091-6.227,0.976-7.337
	c2.773-3.485,6.606-5.169,10.513-7.266c-1.617,5.409,3.929,3.143,6.885,4.917c1.888,1.289,4.269,4.337,6.625,5.32
	c0.428,0.491,1.133,1.343,1.627,2.166c0.61,1.016,0.686-1.495-0.216-3.191c0.076,0,0.185,0.021,0.308,0.049
	c0.023,0.115,0.04,0.189,0.04,0.189s1.551,1.655,2.482,3.206c0.6,1,0.779-0.754,0.271-2.572c0.356,0.08,0.697,0.135,0.992,0.138
	c0.233,0.313,0.464,0.644,0.66,0.971c0.433,0.722,0.594-0.339,0.329-1.622c0.026-0.214-0.006-0.482-0.127-0.832
	c-0.176-0.509-0.465-0.942-0.817-1.335c-0.066-0.081-0.136-0.155-0.209-0.226c-1.37-1.376-3.518-2.277-4.424-4.229
	c-0.9-1.735-5.603-1.68-7.252-2.433c-2.359-1.08,0.509-5.125,1.534-6.564c1.594-2.242,3.662-4.149,5.651-6.04
	c1.667-1.585,8.413-1.314,10.882-1.957c2.42-0.631,5.411-2.74,7.871-2.74c2.82,0,4.515,3.772,7.541,3.772
	c-0.102-0.43,0-0.964,0-1.409c2.72,1.224,4.308,0.445,5.497,3.117c-0.017,0.218-0.016,0.387-0.016,0.387s0.612,1.113,0.915,2.102
	c0.085,0.278,0.189,0.24,0.276,0.026c0.303-0.074,0.64-0.273,0.98-0.555c0.143,0.34,0.282,0.7,0.389,1.051
	c0.255,0.834,0.653-0.575,0.533-2.021c0.091-0.117,0.179-0.237,0.264-0.36c0.203,0.416,0.478,1.02,0.652,1.59
	c0.289,0.944,0.803-1.672,0.07-2.936c0.324-0.841,0.377-1.642-0.091-2.109c-0.756-0.757-1.333-2.561-2.044-2.799
	c-1.846-0.612-4.371-0.48-5.461-2.41c0.774,0.066,1.592,0.395,2.36,0.395c0-3.387-5.385-3.541-7.539-3.541
	c0-3.167,0.56-6.39,2.049-9.215c0.761-1.446,3.139-5.34,5.096-5.34c2.852,0,3.936,3.308,5.719,4.944
	c0.833,0.767,1.953,1.154,2.901,1.761c2.336,1.487,5.85,4.8,8.789,4.8c4.632,0-3.441-9.432-4.294-10.523
	c1.658-1.105,12.816,7.878,12.816-0.327C143.923,50.584,138.894,48.253,136.351,45.334z"/>
</g>
</svg>
