<?xml version="1.0" encoding="iso-8859-1"?>
<!-- Generator: Adobe Illustrator 17.1.0, SVG Export Plug-In . SVG Version: 6.00 Build 0)  -->
<!DOCTYPE svg PUBLIC "-//W3C//DTD SVG 1.1//EN" "http://www.w3.org/Graphics/SVG/1.1/DTD/svg11.dtd">
<svg version="1.1" id="Capa_1" xmlns="http://www.w3.org/2000/svg" xmlns:xlink="http://www.w3.org/1999/xlink" x="0px" y="0px"
	 viewBox="0 0 150 150" style="enable-background:new 0 0 150 150;" xml:space="preserve">
<g>
	<path d="M113.07,65.875c2.04,2.696,4.715,5.279,8.014,6.307c1.808,0.563,3.714,0.083,5.541,0.452
		c1.118,0.226,1.622,0.849,2.56,1.29c0.45,0.211,0.318,0.891,0.965,0.705c0.571-0.164,0.828-0.956,0.601-1.452
		c-0.153-0.335-0.448-0.729-0.869-1.223c-1.088-1.276-2.648-2.139-4.181-2.762c-2.307-0.938-4.796-1.486-6.909-2.804
		c-5.337-3.329-7.252-10.873-13.024-13.371c-1.295-0.561-2.714-0.823-3.961-1.485c-2.028-1.077-4.889-7.041-4.203-9.307
		c0.998-3.3,4.666-4.482,2.896-8.438c-1.106-2.473-1.634-5.358-2.445-7.95c-0.99-3.167-1.605-6.601-0.577-9.843
		c0.873-2.751,7.644-9.904,4.358-12.216c-5.664,5.486-8.119,14.069-6.214,21.72c0.601,2.412,1.597,4.718,2.091,7.153
		c0.339,1.668,0.731,4.654-0.392,6.141c-1.529,2.024-2.536-0.829-3.878,0.731c-0.384,0.446-0.707,0.713-1.002,0.849
		c0.818-1.101,1.307-2.456,1.307-3.908c0-3.606-3.009-6.616-6.616-6.616c-0.179,0-0.357,0.01-0.533,0.024
		c0.541-0.976,0.209-1.481-0.793-2.126c-1.44-0.926-4.8-2.433-3.26-4.486c0.449-0.599,1.113-0.993,1.764-1.363
		c1.746-0.993,3.571-1.96,4.87-3.493c1.33-1.569,1.993-3.616,2.221-5.66c0.127-1.139,0.808-9.564-2.136-7.421
		c-1.238,0.901-1.447,2.255-0.487,3.476c0.14,0.178,0.29,0.347,0.449,0.516c0.002,0.09,0.02,0.186,0.057,0.288
		c0.964,2.656-0.409,5.229-2.179,7.175c-1.155,1.27-2.448,2.433-3.764,3.567C82,21.18,80.703,22.23,79.855,23.533
		c-0.867,0.059-1.744,0.1-2.555-0.097c-0.772-0.187-1.545-0.299-2.299-0.295c-0.755-0.005-1.528,0.107-2.299,0.295
		c-0.811,0.197-1.688,0.156-2.555,0.097C69.297,22.23,68,21.18,66.658,20.347c-1.316-1.134-2.609-2.297-3.764-3.567
		c-1.77-1.947-3.143-4.52-2.179-7.175c0.037-0.102,0.055-0.198,0.057-0.288c0.159-0.169,0.31-0.339,0.449-0.516
		c0.96-1.221,0.751-2.575-0.487-3.476c-2.943-2.143-2.263,6.282-2.136,7.421c0.228,2.044,0.891,4.091,2.221,5.66
		c1.299,1.532,3.123,2.5,4.87,3.493c0.651,0.37,1.315,0.764,1.764,1.363c1.54,2.053-1.82,3.56-3.26,4.486
		c-1.003,0.645-1.334,1.15-0.793,2.126c-0.176-0.015-0.353-0.024-0.533-0.024c-3.606,0-6.616,3.01-6.616,6.616
		c0,1.452,0.488,2.807,1.307,3.908c-0.294-0.135-0.618-0.403-1.002-0.849c-1.342-1.56-2.349,1.293-3.878-0.731
		c-1.123-1.487-0.731-4.473-0.392-6.141c0.495-2.436,1.491-4.741,2.091-7.153c1.905-7.651-0.55-16.234-6.214-21.72
		c-3.286,2.312,3.485,9.465,4.358,12.216c1.029,3.241,0.414,6.676-0.577,9.843c-0.811,2.592-1.339,5.477-2.445,7.95
		c-1.769,3.956,1.898,5.138,2.896,8.438c0.685,2.266-2.175,8.229-4.203,9.307c-1.247,0.662-2.665,0.925-3.961,1.485
		c-5.773,2.498-7.688,10.042-13.024,13.371c-2.113,1.318-4.602,1.867-6.909,2.804c-1.533,0.623-3.093,1.486-4.181,2.762
		c-0.421,0.494-0.717,0.888-0.869,1.223c-0.226,0.496,0.031,1.288,0.601,1.452c0.647,0.186,0.515-0.494,0.965-0.705
		c0.938-0.44,1.442-1.064,2.56-1.29c1.827-0.369,3.732,0.111,5.541-0.452c3.299-1.028,5.974-3.611,8.014-6.307
		c2.703-3.573,4.772-7.686,8.101-10.684c1.42,1.527-0.908,3.706-1.626,5.123c-1.051,2.073-1.925,4.233-2.647,6.441
		c-1.411,4.316-2.235,8.812-2.65,13.329c-0.409,4.454-0.431,8.934-0.284,13.402c0.128,3.878-0.334,8.826,1.053,12.477
		c0.835,2.197-0.659,3.784-1.613,5.612c-0.97,1.859-1.745,3.819-2.316,5.836c-1.141,4.034-1.463,8.305-0.885,12.46
		c0.152,1.096,0.361,2.24,0,3.285c-0.656,1.9-2.83,2.694-4.616,3.616c-2.115,1.092-3.977,2.672-5.397,4.583
		c-0.711,0.957-1.337,2.118-1.112,3.288c0.198,1.031,1.421,1.964,2.354,1.416c-0.298-0.284-0.642-0.72-0.684-1.15
		c-0.16-1.652,2.246-2.609,3.384-3.31c2.025-1.247,4.033-2.524,6.05-3.786c1.48-0.926,4.123-1.9,4.668-3.73
		c0.377-1.266-0.785-3.727-1.009-5.03c-0.808-4.705-0.223-9.641,1.662-14.026c0.179-0.415,0.423-0.873,0.863-0.98
		c0.822-0.199,1.997,5.455,2.311,6.312c0.863,2.362,1.925,4.652,3.162,6.842c2.471,4.377,5.64,8.362,9.353,11.75
		c2.912,2.657,7.21,6.6,11.259,7.191c4.211,0.614,7.414-3.08,8.373-6.833c0.127-0.497,0.229-0.998,0.315-1.501
		c0.085,0.503,0.188,1.003,0.315,1.501c0.959,3.752,4.161,7.447,8.373,6.833c4.049-0.591,8.347-4.534,11.259-7.191
		c3.713-3.388,6.882-7.373,9.353-11.75c1.237-2.19,2.299-4.479,3.162-6.842c0.313-0.858,1.489-6.511,2.311-6.312
		c0.439,0.106,0.684,0.564,0.863,0.98c1.886,4.386,2.47,9.321,1.662,14.026c-0.224,1.303-1.385,3.764-1.009,5.03
		c0.545,1.83,3.188,2.804,4.668,3.73c2.016,1.262,4.024,2.538,6.05,3.786c1.138,0.701,3.544,1.658,3.384,3.31
		c-0.042,0.43-0.386,0.865-0.684,1.15c0.933,0.547,2.156-0.385,2.354-1.416c0.225-1.171-0.401-2.332-1.112-3.288
		c-1.42-1.91-3.282-3.491-5.397-4.583c-1.786-0.922-3.96-1.716-4.616-3.616c-0.361-1.046-0.152-2.19,0-3.285
		c0.578-4.155,0.256-8.425-0.885-12.46c-0.57-2.017-1.345-3.978-2.316-5.836c-0.955-1.828-2.448-3.415-1.613-5.612
		c1.387-3.652,0.926-8.599,1.053-12.477c0.147-4.468,0.126-8.948-0.284-13.402c-0.415-4.517-1.238-9.013-2.65-13.329
		c-0.722-2.208-1.596-4.368-2.647-6.441c-0.718-1.417-3.046-3.596-1.626-5.123C108.298,58.189,110.367,62.302,113.07,65.875z"/>
</g>
</svg>
