<?xml version="1.0" encoding="iso-8859-1"?>
<!-- Generator: Adobe Illustrator 17.1.0, SVG Export Plug-In . SVG Version: 6.00 Build 0)  -->
<!DOCTYPE svg PUBLIC "-//W3C//DTD SVG 1.1//EN" "http://www.w3.org/Graphics/SVG/1.1/DTD/svg11.dtd">
<svg version="1.1" id="Capa_1" xmlns="http://www.w3.org/2000/svg" xmlns:xlink="http://www.w3.org/1999/xlink" x="0px" y="0px"
	 viewBox="0 0 150 150" style="enable-background:new 0 0 150 150;" xml:space="preserve">
<g>
	<path d="M64.926,123.644c-0.008,0.036-0.015,0.073-0.018,0.102C64.9,123.826,64.909,123.769,64.926,123.644z"/>
	<path d="M52.875,114.113c-0.014-0.022-0.06-0.055-0.12-0.095C52.851,114.113,52.912,114.168,52.875,114.113z"/>
	<path d="M115.645,99.225c0.113-0.832-0.062-1.35-0.281-2.004l-0.125-0.376c-0.28-0.854-0.802-1.943-1.066-2.409
		c-0.035-0.062-0.054-0.106-0.063-0.136c0.055-0.044,0.091-0.109,0.096-0.184c0.001-0.025,0.032-0.65-0.26-1.366
		c-0.232-0.562-0.62-1.061-0.829-1.328c-0.054-0.069-0.097-0.124-0.121-0.16c-0.051-0.076-0.129-0.181-0.206-0.28
		c0.072-0.057,0.11-0.15,0.091-0.247c-0.001-0.003-0.056-0.269-0.084-0.51c-0.043-0.302-0.216-1.006-0.566-1.517
		c-0.212-0.306-0.564-0.716-0.813-0.997l0.141-0.031c0.066-0.016,0.123-0.057,0.158-0.114c0.035-0.059,0.045-0.128,0.027-0.193
		c-0.025-0.1-0.264-0.979-0.562-1.376l-0.198-0.269c-0.34-0.466-0.668-0.906-0.932-1.2c0.079,0.006,0.131-0.021,0.18-0.069
		c0.082-0.079,0.101-0.204,0.045-0.303c-0.034-0.061-0.836-1.488-1.122-1.873c-0.373-0.49-0.6-0.948-0.595-1.103
		c0.004-0.092,0.008-0.196-0.012-0.196c0,0,0,0-0.001,0c0.004-0.001,0.033-0.013,0.145-0.015c0.242,0,0.704,0.153,1.204,0.584
		c0.441,0.38,1.026,0.72,1.051,0.734c0.087,0.05,0.193,0.042,0.273-0.016c0.08-0.059,0.117-0.159,0.096-0.257
		c-0.007-0.027-0.046-0.179-0.209-0.469c-0.099-0.18-0.367-0.45-0.797-0.878c-0.253-0.251-0.518-0.514-0.709-0.732
		c-0.239-0.277-0.877-1.143-1.335-1.979c-0.334-0.616-0.577-1.23-0.707-1.561c-0.004-0.012-0.009-0.022-0.013-0.032l0.272,0.108
		c0.111,0.043,0.235,0.006,0.302-0.095c0.065-0.099,0.052-0.23-0.032-0.314c-0.011-0.012-1.158-1.164-1.393-1.451
		c-0.103-0.132-0.186-0.368-0.273-0.617c-0.09-0.255-0.191-0.543-0.346-0.826c-0.126-0.221-0.285-0.602-0.454-1.004
		c-0.237-0.566-0.506-1.209-0.779-1.649c-0.233-0.37-0.443-0.726-0.638-1.054c-0.191-0.323-0.367-0.62-0.534-0.881
		c-0.292-0.447-0.952-1.388-1.368-1.747l-0.196-0.166c-0.267-0.23-0.478-0.412-0.793-0.412c-0.073,0-0.103-0.038-0.26-0.478
		c-0.186-0.521-0.651-0.991-0.983-1.298c-0.409-0.383-0.784-0.688-1.559-0.855c-0.328-0.07-0.824-0.2-1.135-0.284
		c0.013-0.022,0.022-0.039,0.027-0.045c0.086-0.045,0.164-0.175,0.161-0.272c-0.013-0.332-0.632-0.611-0.638-0.613l-0.08-0.036
		c-0.069-0.032-0.138-0.062-0.217-0.082c0.027-0.068,0.02-0.131,0.014-0.158c-0.029-0.139-0.168-0.222-0.349-0.27
		c0.038-0.066,0.045-0.13,0.044-0.173c-0.006-0.209-0.196-0.321-0.254-0.351c-0.032-0.017-0.072-0.026-0.108-0.027
		c-0.003,0-0.286-0.014-0.72-0.321c-0.247-0.175-0.468-0.243-0.63-0.294c-0.201-0.062-0.201-0.062-0.209-0.152
		c-0.023-0.246,0.071-1.14,0.163-2.003c0.059-0.545,0.12-1.124,0.165-1.648c0.054-0.648,0.088-1.054,0.107-1.513
		c0.026-0.56,0.007-1.122-0.007-1.239c-0.016-0.132-0.04-0.634-0.052-0.893c0.213-0.116,0.58-0.323,0.705-0.428
		c0.014-0.012,0.059-0.018,0.095-0.022c0.096-0.014,0.295-0.041,0.363-0.247c0.054-0.149,0.02-0.281-0.1-0.379
		c0.008-0.02,0.017-0.04,0.023-0.058c0.041-0.095,0.091-0.213,0.121-0.362c0.051-0.052,0.129-0.131,0.166-0.311
		c0.183-0.095,0.308-0.351,0.394-0.806c0.078-0.417,0.155-0.857,0.169-1.283c0.33,0.051,0.59-0.117,0.882-0.387
		c0.34-0.309,0.991-1.006,1.535-2.206c0.433-0.966,0.803-2.665,1.048-3.789c0.074-0.34,0.138-0.632,0.188-0.839
		c0.147-0.587,0.311-0.973,0.469-1.346c0.079-0.185,0.154-0.363,0.225-0.557c0.134-0.383,0.362-0.665,0.515-0.852
		c0.064-0.08,0.113-0.143,0.141-0.189c0.098-0.173,0.042-0.305,0.013-0.354c-0.103-0.178-0.371-0.204-0.573-0.047
		c-0.083,0.062-0.607,0.277-1.047,0.316c-0.165,0-0.306-0.096-0.459-0.57c-0.089-0.264-0.079-0.933,0.026-1.786
		c0.064-0.466,0.372-1.713,0.631-2.564c0.232-0.764,0.648-1.639,0.817-1.983c0.078-0.154,0.043-0.272,0.015-0.329
		c-0.035-0.07-0.151-0.157-0.229-0.171c-0.087-0.019-0.177,0.018-0.234,0.085c-0.001,0.001-0.314,0.371-0.479,0.535
		c-0.138,0.138-0.611,0.381-0.839,0.498l-0.094,0.048c-0.036,0.014-0.482,0.033-0.736-0.065c0.004-0.008,0.008-0.017,0.012-0.026
		c0.015-0.033,0.053-0.095,0.101-0.175c0.117-0.196,0.294-0.492,0.41-0.789c0.271-0.677,0.216-1.512,0.089-1.893
		c-0.068-0.193-0.175-0.273-0.288-0.32c-0.004-0.069,0.006-0.168,0.023-0.218c0.148-0.095,0.177-0.249,0.223-0.512
		c0.028-0.158,0.069-0.39,0.148-0.732l0.119-0.512c0.179-0.75,0.333-1.398,0.296-1.818c-0.044-0.477-0.165-0.69-0.263-0.861
		l-0.034-0.062c-0.05-0.085-0.11-0.149-0.172-0.198c0.064-0.116,0.131-0.251,0.155-0.351c0.044-0.175,0.435-2.11,0.517-2.619
		c0.074-0.46,0.002-1.011-0.172-1.312c-0.091-0.155-0.212-0.258-0.332-0.318c0.086-0.388,0.261-1.196,0.381-1.912
		c0.167-1.005,0.19-1.527,0.19-1.942c0-0.228-0.083-0.48-0.236-0.716c-0.078-0.113-0.169-0.217-0.233-0.285
		c0.016-0.372,0.068-1.625,0.092-2.738c0.014-0.656-0.001-1.263-0.01-1.613c-0.003-0.118-0.005-0.206-0.005-0.256
		c0-0.481-0.072-0.831-0.249-1.208C99.248,9.296,99.15,9.057,99.044,8.8c-0.227-0.549-0.37-0.891-0.452-1.015
		c-0.103-0.15-0.307-0.326-0.437-0.43c0.012-0.183,0.019-0.52-0.039-0.929c-0.046-0.351-0.099-0.748-0.415-1.148
		c-0.256-0.322-0.522-0.537-0.897-0.72C96.348,4.346,95.9,4.24,95.422,4.236c-0.483,0-1.118,0.293-1.245,0.354
		c-0.229,0.116-0.478,0.341-0.506,0.366c-0.083,0.076-0.105,0.199-0.053,0.3c0.051,0.101,0.164,0.154,0.275,0.129
		c0.004-0.001,0.182-0.04,0.455-0.082c0.25-0.038,0.519-0.061,0.916,0.018c0.397,0.082,0.731,0.261,1.019,0.543
		c0.21,0.216,0.26,0.511,0.317,0.85c0.048,0.29-0.028,0.541-0.11,0.67c-0.029,0.048-0.06,0.083-0.079,0.104
		c-0.014-0.017-0.028-0.038-0.046-0.062c-0.057-0.076-0.122-0.164-0.225-0.257c-0.103-0.096-0.238-0.108-0.345-0.108l-0.12,0.013
		c-0.138-0.046-0.301,0.04-0.332,0.18c-0.045,0.197,0.12,0.275,0.229,0.327c0.077,0.036,0.189,0.089,0.19,0.073
		c0.016,0.04,0.024,0.203,0.034,0.393l0.005,0.094c0.016,0.408,0.127,0.648,0.282,0.981l0.125,0.273
		c0.124,0.278,0.346,0.638,0.58,1.019c0.221,0.357,0.448,0.727,0.614,1.057c0.234,0.472,0.312,1.24,0.364,1.749
		c0.021,0.21,0.04,0.385,0.062,0.501c0.082,0.405,0.157,1.135,0.139,1.35c-0.003,0.034-0.007,0.057-0.011,0.07
		c-0.069,0.045-0.113,0.122-0.113,0.209v0.172c-0.062-0.051-0.146-0.07-0.226-0.046c-0.097,0.027-0.168,0.11-0.18,0.211
		c0,0-0.021,0.168-0.023,0.319c-0.051,0.023-0.093,0.062-0.118,0.113c-0.032,0.062-0.036,0.135-0.012,0.2
		c0.001,0.003,0.102,0.274,0.158,0.502c0.068,0.28,0.208,0.914,0.305,1.515c0.183,1.179,0.121,1.402,0.111,1.432
		c-0.046,0.123-0.074,0.286-0.091,0.421c-0.076,0-0.133,0.006-0.162,0.014c-0.154,0.024-0.337,0.123-0.333,0.426
		c-0.01,0.025-0.061,0.088-0.104,0.128c-0.056,0.051-0.085,0.125-0.081,0.2s0.043,0.146,0.104,0.189
		c0.036,0.026,0.094,0.087,0.091,0.136c-0.061,0.038-0.102,0.101-0.112,0.171c-0.011,0.071,0.009,0.143,0.055,0.198
		c0.002,0.002,0.057,0.067,0.095,0.127c-0.008,0.038-0.026,0.102-0.047,0.15c-0.031,0.077-0.022,0.165,0.024,0.234
		c0.017,0.025,0.039,0.048,0.063,0.065c-0.01,0.013-0.018,0.027-0.024,0.042c-0.035,0.075-0.03,0.163,0.013,0.234
		c0.002,0.004,0.214,0.356,0.229,0.697c0.022,0.405,0.041,0.953,0.041,1.156c0,0.084-0.01,0.126,0.009,0.122
		c-0.044,0.007-0.637,0.109-0.805,0.306c-0.043,0.05-0.161,0.217-0.014,0.413c-0.057,0.092-0.111,0.21-0.089,0.425
		c0.012,0.146,0.037,0.274,0.072,0.447l0.054,0.273c0.029,0.156,0.09,0.388,0.152,0.627c0.069,0.263,0.143,0.536,0.173,0.725
		c0.051,0.279,0.028,1.043,0.004,1.319c-0.054,0.017-0.132,0.056-0.383,0.02c-0.014-0.036-0.036-0.069-0.065-0.096
		c-0.054-0.048-0.123-0.07-0.193-0.063l-0.162,0.017c-0.093,0.01-0.172,0.071-0.206,0.158s-0.017,0.187,0.045,0.257
		c0.001,0.002,0.11,0.129,0.136,0.319c-0.076,0.048-0.121,0.133-0.117,0.224l0.021,0.377l-0.02,0.247
		c-0.003,0.03-0.003,0.03-0.053,0.098c-0.088,0.118-0.236,0.317-0.43,0.842c-0.199,0.55-0.471,1.199-0.691,1.654
		c-0.133,0.272-0.26,0.482-0.289,0.52c-0.021,0.026-0.038,0.045-0.05,0.057c-0.041-0.074-0.067-0.192-0.074-0.241
		c0.001-0.055-0.017-0.11-0.053-0.156c-0.172-0.221-0.329-0.488-0.458-0.778c-0.168-0.363-0.283-0.743-0.316-1.049
		c-0.062-0.462-0.035-0.966-0.034-0.971c0.005-0.103-0.052-0.197-0.146-0.24c-0.093-0.044-0.202-0.025-0.277,0.046
		c-0.014,0.013-0.138,0.134-0.236,0.331l-0.041,0.073c-0.078,0.132-0.176,0.295-0.252,0.808c-0.075,0.582-0.025,1.055,0.087,1.673
		c0.089,0.505,0.184,0.742,0.246,0.899l0.041,0.104c-0.004,0.011-0.024,0.041-0.065,0.102c-0.105,0.159-0.086,0.286-0.051,0.517
		c0.019,0.119,0.045,0.291,0.073,0.55c0.04,0.363,0.077,0.567,0.105,0.729c0.027,0.148,0.048,0.259,0.058,0.445
		c0.008,0.135,0.025,0.47,0.048,0.889c0.041,0.781,0.097,1.85,0.138,2.445c0.036,0.588,0.146,1.867,0.231,2.859
		c0.048,0.56,0.089,1.026,0.104,1.229c0.026,0.33,0.119,0.721,0.202,1.065c0.056,0.232,0.107,0.452,0.114,0.562
		c0.016,0.185,0.036,0.684,0.049,1.011c-0.245-0.037-0.579-0.085-0.777-0.098c-0.374,0-1.119,0.296-1.468,0.455
		c-0.426,0.209-0.67,0.351-1.054,0.571c-0.061,0-0.196-0.13-0.287-0.216c-0.086-0.082-0.174-0.165-0.265-0.229
		c-0.301-0.214-1.795-1.196-2.202-1.456c-0.392-0.251-1.309-0.839-2.039-1.224c-0.725-0.384-1.565-1.046-1.961-1.467
		c-0.706-0.738-1.171-1.194-1.511-1.482c-0.369-0.303-0.593-0.416-0.869-0.517c-0.06-0.023-0.152-0.04-0.259-0.053
		c0.02-0.014,0.039-0.027,0.059-0.04c0.422-0.282,0.722-0.662,0.914-1.159c0.244-0.622,0.25-1.399,0.017-1.933
		c-0.25-0.573-0.605-0.991-1.057-1.242c-0.382-0.215-0.722-0.243-0.883-0.257l-0.156-0.015c-0.095-0.007-0.253-0.02-0.287-0.037
		c-0.019-0.019-0.032-0.054-0.042-0.099c0.084,0.022,0.166,0.043,0.221,0.048c0.011,0.001,0.065,0.005,0.076,0.005
		c0.128,0,0.24-0.042,0.34-0.078c0.079-0.03,0.153-0.058,0.227-0.065l0.403-0.032c0.482-0.039,1.283-0.105,1.562-0.105
		c0.289,0.003,0.394-0.257,0.439-0.389c0.045,0.027,0.097,0.056,0.149,0.066c0.099,0.028,0.382,0.09,0.745,0.115
		c0.187,0.013,0.348,0.057,0.442,0.087l0.042,0.104c0.033,0.081,0.107,0.14,0.194,0.152l0.382,0.059
		c0.076,0.303,0.267,0.286,0.359,0.271c0.081,0.023,0.271,0.124,0.365,0.175c0.069,0.036,0.131,0.069,0.17,0.087
		c0.235,0.118,0.434-0.056,0.504-0.145c0.016-0.019,0.038-0.046,0.04-0.049c0.041-0.016,0.085-0.025,0.127-0.035
		c0.137-0.032,0.307-0.073,0.431-0.224c0.011-0.013,0.031-0.023,0.079-0.045c0.077-0.034,0.183-0.081,0.286-0.198
		c0.167-0.2,0.479-0.896,0.838-1.858c0.42-1.124,0.339-2.1,0.221-2.824c-0.098-0.604-0.186-0.88-0.237-1.045
		c-0.013-0.041-0.023-0.074-0.034-0.117c-0.091-0.295-0.33-0.314-0.544-0.332c-0.035-0.005-0.069-0.007-0.102-0.007
		c-0.151,0-0.502,0.057-0.502,0.576c0,0.202-0.18,0.503-0.428,0.919l-0.048,0.081c-0.299,0.497-0.674,1.194-0.766,1.699
		c-0.052,0.28,0.042,0.401,0.149,0.49c0.021,0.016,0.05,0.041,0.05,0.233c0,0.229,0.041,0.651,0.071,0.932h-0.21
		c-0.113,0-0.215-0.045-0.434-0.146c-0.181-0.083-0.413-0.19-0.751-0.308c-0.789-0.281-1.146-0.218-1.377-0.235
		c-0.099-0.008-0.209-0.105-0.306-0.192c-0.05-0.044-0.097-0.084-0.134-0.11c-0.063-0.047-0.184-0.109-0.502-0.109
		c-0.327,0-0.753,0.064-1.113,0.168c-0.297,0.089-0.64,0.316-0.922,0.534c0.038-0.251-0.003-0.745-0.06-1.356l-0.024-0.271
		c-0.016-0.17-0.056-0.457-0.101-0.775c-0.069-0.49-0.155-1.1-0.162-1.4c-0.021-0.431-0.062-0.995-0.195-1.54
		c-0.137-0.547-0.339-1.001-1.708-1.87c-1.337-0.852-2.026-1.094-2.524-1.218c-0.312-0.078-0.686-0.071-1.049-0.046
		c-0.136,0.011-0.271,0.021-0.406,0.021c-0.268,0-0.662-0.001-1.034-0.012c-0.356,0.011-0.75,0.012-1.019,0.012
		c-0.135,0-0.271-0.01-0.406-0.021c-0.365-0.026-0.735-0.032-1.048,0.046c-0.498,0.124-1.188,0.366-2.524,1.218
		c-1.369,0.868-1.571,1.323-1.709,1.871c-0.132,0.54-0.173,1.105-0.195,1.545c-0.007,0.295-0.093,0.905-0.161,1.396
		c-0.045,0.317-0.085,0.604-0.101,0.775l-0.024,0.27c-0.057,0.608-0.097,1.102-0.06,1.358c-0.282-0.22-0.626-0.448-0.925-0.537
		c-0.358-0.103-0.784-0.167-1.11-0.167c-0.318,0-0.438,0.062-0.497,0.105c-0.042,0.03-0.089,0.07-0.139,0.114
		c-0.097,0.087-0.207,0.185-0.303,0.192c-0.245,0.02-0.591-0.045-1.378,0.234c-0.34,0.118-0.572,0.226-0.753,0.309
		c-0.22,0.101-0.321,0.146-0.434,0.146h-0.21c0.03-0.28,0.071-0.702,0.071-0.932c0-0.193,0.029-0.218,0.05-0.233
		c0.107-0.09,0.2-0.211,0.148-0.489c-0.093-0.51-0.468-1.206-0.765-1.699l-0.052-0.086c-0.246-0.414-0.424-0.713-0.424-0.915
		c0-0.52-0.352-0.576-0.503-0.576c-0.031,0-0.065,0.002-0.124,0.008c-0.19,0.017-0.429,0.036-0.525,0.345
		c-0.007,0.029-0.018,0.062-0.03,0.103c-0.052,0.166-0.139,0.442-0.236,1.046c-0.118,0.725-0.199,1.7,0.22,2.823
		c0.357,0.963,0.671,1.658,0.844,1.864c0.099,0.112,0.204,0.159,0.28,0.193c0.05,0.022,0.069,0.032,0.081,0.046
		c0.123,0.149,0.292,0.189,0.429,0.223c0.042,0.01,0.085,0.02,0.119,0.031c0.01,0.007,0.032,0.034,0.048,0.053
		c0.053,0.066,0.152,0.188,0.327,0.188c0.059,0,0.118-0.015,0.17-0.041c0.046-0.021,0.109-0.054,0.18-0.091
		c0.097-0.052,0.294-0.156,0.36-0.175c0.021,0.004,0.04,0.006,0.057,0.006c0.058,0,0.24-0.021,0.304-0.276l0.384-0.059
		c0.087-0.013,0.161-0.071,0.194-0.152l0.042-0.104c0.095-0.03,0.256-0.074,0.443-0.087c0.358-0.025,0.636-0.084,0.726-0.11
		c0.067-0.015,0.122-0.044,0.168-0.071c0.044,0.13,0.137,0.386,0.479,0.386c0.001,0,0.003,0,0.005,0
		c0.205,0,1.025,0.068,1.516,0.108l0.396,0.032c0.081,0.008,0.155,0.035,0.234,0.064c0.099,0.037,0.211,0.079,0.339,0.079
		c0.008,0,0.059-0.003,0.065-0.004c0.066-0.006,0.149-0.026,0.234-0.049c-0.009,0.044-0.021,0.076-0.035,0.092
		c-0.043,0.024-0.202,0.037-0.297,0.044l-0.189,0.018c-0.128,0.011-0.467,0.039-0.847,0.253c-0.452,0.251-0.809,0.669-1.058,1.242
		c-0.234,0.533-0.229,1.311,0.014,1.934c0.193,0.496,0.492,0.875,0.915,1.159c0.02,0.013,0.038,0.026,0.058,0.039
		c-0.104,0.013-0.194,0.028-0.25,0.051c-0.284,0.104-0.508,0.217-0.88,0.522c-0.336,0.285-0.801,0.741-1.508,1.48
		c-0.396,0.42-1.237,1.083-1.959,1.465c-0.749,0.395-1.673,0.988-2.065,1.241c-0.399,0.254-1.883,1.23-2.178,1.439
		c-0.091,0.064-0.178,0.146-0.264,0.229c-0.088,0.084-0.22,0.21-0.302,0.21c-0.002,0-0.005,0-0.007-0.001
		c-0.362-0.213-0.606-0.354-1.039-0.566c-0.366-0.167-1.084-0.449-1.51-0.449c-0.001,0-0.003,0-0.005,0
		c-0.166,0.011-0.484,0.057-0.724,0.095c0.013-0.328,0.033-0.829,0.05-1.018c0.006-0.103,0.058-0.322,0.113-0.554
		c0.082-0.346,0.176-0.736,0.201-1.068c0.016-0.204,0.057-0.684,0.105-1.254c0.085-0.989,0.193-2.25,0.23-2.832
		c0.041-0.597,0.097-1.664,0.138-2.444c0.022-0.42,0.04-0.756,0.049-0.895c0.009-0.185,0.029-0.295,0.057-0.446
		c0.028-0.161,0.065-0.364,0.106-0.726c0.027-0.258,0.054-0.43,0.072-0.549c0.035-0.23,0.055-0.357-0.078-0.557
		c-0.015-0.021-0.035-0.052-0.028-0.087l0.031-0.079c0.062-0.157,0.157-0.395,0.246-0.898c0.112-0.62,0.162-1.092,0.085-1.678
		c-0.074-0.509-0.172-0.673-0.25-0.804l-0.041-0.073c-0.099-0.197-0.223-0.318-0.236-0.331c-0.075-0.071-0.186-0.088-0.277-0.047
		c-0.093,0.043-0.15,0.139-0.146,0.241c0.001,0.005,0.026,0.509-0.035,0.977c-0.032,0.3-0.147,0.68-0.317,1.047
		c-0.126,0.284-0.283,0.552-0.456,0.774c-0.035,0.045-0.053,0.1-0.053,0.153c-0.006,0.045-0.03,0.153-0.076,0.241
		c-0.014-0.013-0.03-0.031-0.051-0.058c-0.026-0.033-0.153-0.243-0.286-0.516c-0.219-0.449-0.497-1.113-0.692-1.656
		c-0.193-0.523-0.341-0.722-0.43-0.84c-0.05-0.068-0.05-0.068-0.053-0.099l-0.019-0.215l0.02-0.408
		c0.004-0.091-0.041-0.176-0.116-0.223c0.024-0.19,0.134-0.318,0.134-0.318c0.063-0.07,0.082-0.17,0.048-0.258
		s-0.114-0.149-0.208-0.159l-0.161-0.017c-0.069-0.007-0.14,0.016-0.192,0.063c-0.031,0.027-0.054,0.062-0.067,0.099
		c-0.002,0-0.005,0.001-0.009,0.002c-0.146,0.008-0.319-0.008-0.374-0.024c-0.023-0.258-0.047-1.035,0.005-1.324
		c0.029-0.184,0.103-0.456,0.172-0.719c0.063-0.24,0.124-0.472,0.153-0.628l0.056-0.284c0.033-0.167,0.058-0.292,0.07-0.431
		c0.021-0.204-0.025-0.32-0.088-0.431c0.149-0.192,0.027-0.363-0.014-0.411c-0.167-0.197-0.785-0.298-0.771-0.295
		c-0.008-0.011-0.027-0.053-0.027-0.135c0-0.203,0.02-0.751,0.041-1.158c0.016-0.339,0.228-0.691,0.229-0.695
		c0.043-0.071,0.048-0.159,0.013-0.234c-0.007-0.016-0.016-0.029-0.024-0.043c0.024-0.018,0.046-0.039,0.063-0.064
		c0.046-0.069,0.055-0.157,0.023-0.234c-0.018-0.043-0.038-0.109-0.047-0.15c0.039-0.06,0.094-0.126,0.096-0.128
		c0.045-0.056,0.058-0.127,0.047-0.197c-0.012-0.07-0.059-0.134-0.119-0.172c0.011-0.048,0.068-0.108,0.103-0.133
		c0.062-0.043,0.103-0.113,0.107-0.189s-0.025-0.15-0.081-0.202c-0.044-0.04-0.094-0.102-0.101-0.102
		c0-0.329-0.183-0.428-0.317-0.448c-0.048-0.012-0.106-0.017-0.182-0.018c-0.018-0.136-0.047-0.301-0.094-0.428
		c-0.028-0.08-0.035-0.47,0.114-1.423c0.104-0.654,0.255-1.316,0.304-1.515c0.058-0.229,0.158-0.501,0.159-0.504
		c0.024-0.065,0.025-0.137-0.007-0.199c-0.027-0.054-0.069-0.094-0.124-0.116c-0.003-0.15-0.022-0.316-0.022-0.316
		c-0.011-0.101-0.103-0.181-0.2-0.208c-0.067-0.022-0.145-0.008-0.206,0.024v-0.154c0-0.086-0.044-0.163-0.112-0.208
		c-0.003-0.015-0.008-0.039-0.011-0.077c-0.02-0.208,0.056-0.937,0.138-1.345c0.022-0.115,0.042-0.293,0.063-0.505
		c0.052-0.507,0.13-1.273,0.364-1.743c0.165-0.33,0.393-0.698,0.611-1.055c0.235-0.382,0.458-0.742,0.582-1.022l0.125-0.273
		c0.155-0.332,0.267-0.572,0.283-0.977l0.005-0.095c0.009-0.188,0.018-0.353-0.007-0.353c0.042-0.028,0.15-0.078,0.227-0.114
		c0.117-0.056,0.277-0.132,0.233-0.329c-0.026-0.114-0.128-0.195-0.245-0.195c-0.039,0-0.058,0.006-0.051,0.007l-0.009,0.153
		l-0.061-0.155l-0.087-0.002c-0.106,0-0.242,0.013-0.342,0.105c-0.105,0.096-0.172,0.184-0.229,0.261
		c-0.017,0.022-0.031,0.042-0.044,0.058c-0.023-0.021-0.053-0.056-0.081-0.103c-0.081-0.127-0.157-0.378-0.11-0.666
		c0.059-0.341,0.108-0.636,0.315-0.849c0.289-0.284,0.623-0.463,1.017-0.546c0.407-0.077,0.652-0.059,0.94-0.015
		c0.254,0.039,0.432,0.078,0.436,0.079c0.109,0.025,0.224-0.028,0.275-0.129c0.053-0.101,0.03-0.224-0.054-0.3
		c-0.027-0.025-0.277-0.25-0.511-0.369c-0.122-0.059-0.757-0.352-1.256-0.352c-0.464,0.004-0.91,0.109-1.369,0.324
		c-0.369,0.18-0.637,0.394-0.896,0.719c-0.315,0.401-0.368,0.8-0.416,1.155c-0.056,0.404-0.048,0.739-0.036,0.921
		c-0.13,0.104-0.334,0.279-0.438,0.432c-0.081,0.123-0.233,0.485-0.457,1.025c-0.104,0.253-0.2,0.485-0.256,0.604
		c-0.176,0.376-0.248,0.726-0.248,1.207c0,0.05-0.002,0.137-0.005,0.254c-0.009,0.351-0.024,0.958-0.01,1.615
		c0.022,1.113,0.075,2.366,0.092,2.738c-0.065,0.069-0.157,0.174-0.236,0.289c-0.151,0.23-0.234,0.483-0.234,0.712
		c0,0.412,0.023,0.933,0.192,1.942c0.086,0.517,0.218,1.179,0.38,1.912c-0.121,0.061-0.242,0.163-0.334,0.319
		c-0.171,0.297-0.244,0.86-0.17,1.311c0.082,0.509,0.473,2.444,0.517,2.619c0.024,0.1,0.091,0.234,0.155,0.351
		c-0.062,0.051-0.125,0.117-0.177,0.205l-0.032,0.058c-0.097,0.172-0.217,0.385-0.26,0.86c-0.037,0.418,0.117,1.066,0.296,1.816
		l0.119,0.512c0.079,0.343,0.12,0.574,0.148,0.732c0.047,0.267,0.075,0.423,0.223,0.512c0.019,0.055,0.028,0.159,0.03,0.214
		c-0.109,0.043-0.224,0.121-0.296,0.327c-0.127,0.376-0.183,1.211,0.089,1.888c0.116,0.297,0.292,0.593,0.409,0.788
		c0.048,0.081,0.086,0.143,0.104,0.185c0.003,0.008,0.006,0.016,0.01,0.022c-0.138,0.053-0.33,0.086-0.52,0.086
		c-0.132,0-0.202-0.017-0.208-0.019l-0.104-0.054c-0.228-0.116-0.701-0.359-0.838-0.496c-0.164-0.165-0.479-0.536-0.479-0.537
		c-0.058-0.068-0.146-0.1-0.234-0.084c-0.078,0.014-0.194,0.101-0.229,0.171c-0.028,0.057-0.063,0.175,0.017,0.334
		c0.169,0.342,0.585,1.219,0.816,1.978c0.26,0.858,0.566,2.105,0.631,2.562c0.105,0.857,0.115,1.526,0.024,1.793
		c-0.151,0.469-0.291,0.566-0.487,0.566c-0.001,0-0.003,0-0.004,0c-0.406-0.038-0.931-0.253-1.015-0.316
		c-0.197-0.154-0.469-0.13-0.571,0.048c-0.029,0.049-0.085,0.181,0.015,0.356c0.025,0.044,0.074,0.106,0.139,0.186
		c0.151,0.188,0.38,0.47,0.515,0.854c0.069,0.19,0.145,0.368,0.223,0.552c0.159,0.373,0.323,0.76,0.47,1.348
		c0.051,0.205,0.113,0.492,0.187,0.826c0.245,1.128,0.617,2.833,1.052,3.803c0.542,1.2,1.193,1.897,1.531,2.204
		c0.355,0.328,0.599,0.428,0.884,0.389c0.012,0.414,0.09,0.86,0.169,1.283c0.086,0.456,0.212,0.712,0.406,0.854
		c0.024,0.131,0.103,0.21,0.184,0.287c0,0.125,0.05,0.243,0.091,0.338c0.006,0.015,0.014,0.032,0.021,0.049
		c-0.116,0.11-0.148,0.239-0.099,0.383c0.07,0.211,0.27,0.238,0.365,0.252c0.037,0.005,0.082,0.011,0.098,0.024
		c0.122,0.103,0.489,0.31,0.702,0.427c-0.014,0.297-0.037,0.772-0.052,0.892c-0.014,0.117-0.033,0.68-0.007,1.238
		c0.019,0.431,0.05,0.813,0.098,1.394l0.01,0.121c0.045,0.523,0.106,1.103,0.165,1.647c0.092,0.863,0.187,1.757,0.163,2.005
		c-0.008,0.088-0.008,0.088-0.209,0.15c-0.161,0.051-0.383,0.119-0.63,0.294c-0.434,0.307-0.716,0.321-0.714,0.321
		c-0.039,0-0.077,0.009-0.112,0.026c-0.059,0.03-0.25,0.143-0.255,0.352c-0.002,0.042,0.005,0.104,0.047,0.172
		c-0.183,0.048-0.323,0.131-0.353,0.271c-0.006,0.027-0.014,0.09,0.014,0.158c-0.08,0.02-0.147,0.051-0.218,0.083l-0.077,0.035
		c-0.007,0.002-0.626,0.281-0.639,0.613c-0.004,0.114,0.058,0.219,0.143,0.26c0.011,0.01,0.025,0.031,0.042,0.059
		c-0.311,0.084-0.805,0.213-1.132,0.283c-0.772,0.166-1.147,0.473-1.558,0.854c-0.332,0.307-0.797,0.775-0.996,1.332
		c-0.145,0.406-0.174,0.444-0.247,0.444c-0.315,0-0.526,0.182-0.793,0.412l-0.2,0.17c-0.415,0.357-1.074,1.297-1.364,1.745
		c-0.167,0.259-0.343,0.556-0.534,0.879c-0.194,0.328-0.404,0.684-0.639,1.055c-0.272,0.44-0.543,1.084-0.781,1.652
		c-0.168,0.401-0.326,0.779-0.453,1.004c-0.152,0.279-0.254,0.567-0.344,0.821c-0.088,0.25-0.171,0.486-0.271,0.613
		c-0.237,0.292-1.385,1.444-1.396,1.456c-0.084,0.084-0.098,0.216-0.032,0.314c0.066,0.1,0.19,0.136,0.302,0.095l0.271-0.108
		c-0.003,0.007-0.006,0.015-0.009,0.022c-0.13,0.331-0.372,0.948-0.711,1.569c-0.455,0.835-1.094,1.701-1.334,1.979
		c-0.192,0.221-0.458,0.484-0.71,0.735c-0.43,0.427-0.697,0.697-0.796,0.876c-0.164,0.291-0.203,0.442-0.21,0.47
		c-0.021,0.098,0.016,0.198,0.096,0.257c0.081,0.059,0.187,0.066,0.273,0.016c0.024-0.015,0.609-0.354,1.052-0.734
		c0.5-0.431,0.961-0.584,1.211-0.584c0.062,0.001,0.095,0.007,0.11,0.003c0.008,0.044,0.011,0.132,0.015,0.219
		c0.005,0.144-0.222,0.602-0.598,1.095c-0.283,0.382-1.085,1.81-1.119,1.87c-0.056,0.099-0.037,0.224,0.045,0.303
		c0.049,0.047,0.102,0.06,0.18,0.069c-0.264,0.295-0.591,0.734-0.931,1.198l-0.2,0.271c-0.298,0.396-0.537,1.276-0.562,1.375
		c-0.018,0.065-0.008,0.136,0.027,0.193c0.035,0.059,0.092,0.1,0.158,0.115l0.142,0.032c-0.249,0.28-0.603,0.691-0.815,0.998
		c-0.349,0.509-0.521,1.213-0.565,1.521c-0.028,0.234-0.083,0.501-0.084,0.504c-0.02,0.097,0.019,0.191,0.091,0.248
		c-0.076,0.099-0.154,0.202-0.204,0.277c-0.024,0.037-0.066,0.091-0.119,0.158c-0.21,0.269-0.599,0.768-0.832,1.333
		c-0.293,0.715-0.261,1.34-0.26,1.366c0.005,0.073,0.041,0.139,0.096,0.182c-0.01,0.029-0.028,0.074-0.063,0.137
		c-0.265,0.466-0.786,1.555-1.067,2.411l-0.123,0.371c-0.222,0.655-0.396,1.174-0.282,2.005c0.149,1.151,0.243,1.506,0.442,1.653
		c0.063,0.045,0.126,0.113,0.107,0.277l-0.014,0.082c-0.037,0.208-0.105,0.595-0.002,1.071c0.113,0.503,0.439,1.081,0.776,1.375
		c0.599,0.516,0.966,0.571,1.262,0.615c0.048,0.007,0.096,0.015,0.148,0.024c0.382,0.066,1.104-0.201,1.178-0.229
		c0.112-0.043,0.178-0.161,0.156-0.279c-0.022-0.118-0.126-0.204-0.246-0.204c-0.11,0-0.229-0.003-0.344-0.008
		c0.146-0.062,0.257-0.126,0.28-0.139c0.102-0.06,0.148-0.182,0.113-0.293c-0.037-0.112-0.146-0.189-0.263-0.173
		c-0.005,0.001-0.135,0.013-0.319,0.013c-0.553,0-0.97-0.107-1.116-0.29c-0.33-0.405-0.354-1.156-0.229-1.367
		c0.049-0.081,0.146-0.113,0.232-0.125l0.051,0.229c0.026,0.12,0.113,0.208,0.263,0.195c0.124-0.009,0.222-0.107,0.23-0.231
		c0.001-0.003,0.026-0.356,0.085-0.641c0.073-0.36,0.067-1.009-0.067-1.468c-0.119-0.428-0.32-2.17-0.234-2.722
		c0.065-0.45,0.201-0.919,0.292-1.229c0.029-0.103,0.054-0.187,0.07-0.25c0.038-0.155,0.168-0.387,0.23-0.488
		c0.06,0.041,0.132,0.071,0.221,0.071c0.029,0,0.101-0.013,0.129-0.023c0.226-0.083,0.407-0.413,0.493-0.599
		c0.011-0.04,0.255-0.998,0.222-1.585c-0.034-0.601,0.026-0.745,0.054-0.77c0.089-0.066,0.156-0.148,0.211-0.215
		c0.004-0.005,0.008-0.01,0.013-0.015c0.033,0.021,0.074,0.039,0.126,0.055c0.091,0.032,0.188,0.062,0.288,0.062
		c0.199,0,0.347-0.118,0.403-0.319l0.044-0.136c0.092-0.279,0.207-0.627,0.181-1.298c-0.021-0.539,0.178-1.147,0.258-1.37
		c0.025,0.069,0.055,0.14,0.09,0.199c0.099,0.164,0.238,0.243,0.337,0.264c0.121,0.023,0.24-0.041,0.283-0.156
		c0.028-0.075,0.109-0.306,0.111-0.499c0.057-0.016,0.107-0.052,0.141-0.101c0.038-0.057,0.052-0.127,0.037-0.193l-0.006-0.029
		c0.073-0.038,0.125-0.11,0.134-0.198c0.044-0.463,0.138-1.265,0.203-1.452c0.085-0.268,0.443-1.213,0.441-1.214
		c0.055-0.102,0.153-0.224,0.184-0.239l0.062-0.002c0,0,0.027,0.019,0.065,0.121c0.082,0.208,0.106,0.451,0.106,0.454
		c0.012,0.118,0.104,0.212,0.223,0.224c0.112,0.012,0.229-0.06,0.265-0.172c0.184-0.576,0.781-2.478,0.781-2.778
		c0-0.146,0.041-0.384,0.097-0.637c0.147,0.671,0.327,1.451,0.4,1.647c0.117,0.316,0.235,0.772,0.236,0.776
		c0.03,0.115,0.117,0.197,0.255,0.188c0.118-0.006,0.216-0.095,0.234-0.212c0.137-0.885,0.355-2.263,0.398-2.436
		c0.021-0.091,0.052-0.24,0.081-0.393c0.241,0.31,0.548,0.707,0.702,0.913c0.274,0.361,1.211,1.754,1.329,1.985
		c0.126,0.263,0.284,0.484,0.291,0.493c0.065,0.093,0.183,0.129,0.291,0.089c0.105-0.04,0.172-0.146,0.161-0.258
		c-0.003-0.026-0.064-0.649-0.316-1.406c-0.176-0.528-0.57-1.427-0.719-1.766l-0.054-0.122c-0.039-0.096-0.038-0.186,0.005-0.31
		l0.032-0.102c0.054-0.183,0.128-0.433,0.403-0.646c0.422-0.321,0.672-0.867,0.742-1.618c0.09-0.835,0.229-1.479,0.413-1.919
		c0.256-0.613,0.382-1.925,0.388-1.979l0.092-0.947c0.002-0.021,0.001-0.044-0.002-0.064c-0.057-0.348-0.16-1.347,0.041-1.792
		l0.034-0.075c0.01-0.021,0.019-0.041,0.027-0.062c-0.042,0.572-0.054,1.111-0.014,1.389l0.058,0.418
		c0.117,0.854,0.474,3.449,0.456,3.745c-0.084,0.744-0.187,1.233-0.306,1.454c-0.232,0.436-0.299,0.863-0.302,0.882
		c-0.015,0.099,0.03,0.197,0.115,0.25c0.119,0.073,0.313,0.226,0.377,0.34c0.029,0.05,0.065,0.101,0.104,0.152
		c0.15,0.206,0.179,0.273,0.084,0.415c-0.132,0.201-0.585,1.073-0.214,1.348c0.029,0.021,0.071,0.045,0.124,0.072
		c0.215,0.111,0.378,0.223,0.362,0.545c-0.015,0.26-0.034,0.447-0.052,0.612c-0.023,0.23-0.043,0.419-0.043,0.688
		c0,0.1-0.003,0.274-0.006,0.489c-0.019,1.128-0.029,2.164,0.045,2.456c0.092,0.368,0.113,0.463,0.113,0.676
		c0,0.185,0.07,0.29,0.116,0.359c0.035,0.054,0.049,0.073,0.039,0.174c-0.028,0.306,0.031,0.64,0.089,0.964l0.036,0.206
		c0.021,0.124,0.052,0.258,0.084,0.397c0.063,0.277,0.13,0.563,0.13,0.847c0,0.44,0,0.641-0.217,0.877
		c-0.182,0.206-2.215,2.849-2.452,4.173c-0.218,1.204-0.232,1.567-0.079,1.948c0.037,0.089,0.003,0.264-0.028,0.419
		c-0.043,0.221-0.089,0.449,0.026,0.679c0.124,0.252,0.203,0.442,0.09,0.602c-0.046,0.066-0.095,0.096-0.163,0.137
		c-0.197,0.117-0.376,0.261-0.399,0.728c-0.012,0.25-0.078,0.49-0.148,0.746c-0.082,0.3-0.175,0.641-0.191,1.042l-0.029,0.66
		c-0.018,0.396-0.031,0.702-0.031,0.848c0,0.062-0.028,0.151-0.058,0.246c-0.045,0.145-0.097,0.309-0.097,0.498
		c0,0.116,0.005,0.244,0.01,0.393c0.008,0.204,0.017,0.451,0.017,0.77c0,0.507-0.078,0.826-0.079,0.829
		c-0.029,0.118,0.029,0.24,0.141,0.29l0.095,0.042c-0.029,0.165-0.062,0.374-0.062,0.465c0,0.111,0.048,0.193,0.087,0.259
		c0.045,0.077,0.084,0.144,0.069,0.299c-0.027,0.315-0.222,0.709-0.224,0.713c-0.044,0.088-0.012,0.191,0.051,0.268
		c0.028,0.034,0.069,0.06,0.113,0.073c-0.027,0.134-0.071,0.311-0.11,0.422c-0.03,0.085-0.067,0.265-0.105,0.459
		c-0.039,0.199-0.092,0.472-0.136,0.571c-0.033,0.079-0.072,0.13-0.121,0.194c-0.06,0.077-0.126,0.164-0.185,0.299
		c-0.094,0.217-0.253,0.687-0.253,0.687c-0.028,0.081-0.012,0.171,0.042,0.238c0.055,0.066,0.142,0.099,0.225,0.09
		c0.007,0,0.387-0.028,0.508-0.015c-0.002,0.098-0.021,0.256-0.05,0.395c-0.009,0.043-0.006,0.088,0.009,0.13
		c0.032,0.096,0.08,0.274,0.08,0.354c0,0.094-0.054,0.557-0.092,0.856c-0.006,0.043,0.001,0.088,0.018,0.128l0.102,0.24
		c-0.061,0.427-0.16,1.084-0.198,1.221c-0.05,0.175-0.012,0.309,0.014,0.397c0.02,0.068,0.026,0.095,0.019,0.128
		c-0.051,0.17-0.171,0.568-0.31,0.791c-0.159,0.252-0.513,1.013-0.609,1.312c-0.079,0.237-0.71,1.388-0.931,1.732
		c-0.214,0.344-0.574,1.059-0.59,1.089c-0.035,0.071-0.035,0.155,0.001,0.227c0.037,0.071,0.105,0.12,0.185,0.133l0.183,0.028
		c0.065,0.011,0.132-0.006,0.187-0.046c0.053-0.039,0.089-0.099,0.099-0.164c0.007-0.045,0.028-0.106,0.053-0.148
		c0.024,0.132,0.026,0.362,0.027,0.487c0.002,0.281,0.004,0.436,0.109,0.544c0.032,0.032,0.131,0.131,0.286,0.131
		c0.145,0,0.269-0.08,0.424-0.213c0.146-0.127,0.53-0.237,0.736-0.297l0.089-0.025c0.022-0.006,0.05-0.009,0.081-0.01
		c-0.19,0.705-0.458,1.655-0.531,1.819l-0.642,1.409c-0.03,0.066-0.03,0.144,0.001,0.21c0.048,0.102,0.163,0.22,0.328,0.22
		c0.13,0,0.247-0.07,0.349-0.213c0.152-0.222,0.556-0.683,0.738-0.847c-0.205,0.455-0.634,1.689-0.727,2.059
		c-0.12,0.465-0.133,1.396-0.133,1.775c0,0.174,0.059,0.551,0.065,0.594c0.013,0.082,0.066,0.152,0.142,0.188
		c0.074,0.035,0.162,0.032,0.234-0.013l0.098-0.059c-0.231,0.535-0.327,1.245-0.319,2.303c0,0.569,0.118,1.133,0.124,1.156
		c0.021,0.097,0.096,0.172,0.191,0.192l0.347,0.075c-0.012,0.244-0.032,0.637-0.051,0.82l-0.027,0.215
		c-0.098,0.737-0.193,1.555-0.085,1.909c0.046,0.148,0.062,0.265,0.078,0.361c0.025,0.171,0.05,0.331,0.169,0.466
		c0.075,0.16,0.139,1.181,0.139,2.228c0,0.122-0.004,0.232-0.008,0.341c-0.015,0.453-0.029,0.88,0.198,1.867
		c0.281,1.206,0.376,1.438,0.483,1.649c0.028,0.059,0.055,0.1,0.078,0.136c0.033,0.053,0.049,0.076,0.049,0.276
		c0,0.263,0.095,0.535,0.178,0.775c0.044,0.126,0.089,0.256,0.098,0.335c0.037,0.263,0.173,0.317,0.281,0.317
		c0.306,0,0.306-0.399,0.306-0.691l-0.003-0.254c-0.003-0.197-0.007-0.442-0.002-0.479l0.076-0.011
		c0.015,0.027,0.047,0.125,0.072,0.204c0.06,0.187,0.143,0.442,0.275,0.684c0.179,0.323,0.533,0.649,0.865,0.649
		c0.123,0,0.233-0.043,0.319-0.123c0.275-0.255,0.379-0.817,0.417-1.244c0.013-0.137-0.088-0.257-0.224-0.271
		c-0.151-0.016-0.259,0.086-0.273,0.221c-0.014,0.113-0.056,0.309-0.176,0.337c-0.07-0.011-0.268-0.194-0.383-0.464
		c-0.073-0.164-0.091-0.203-0.014-0.516c0.106-0.459-0.102-0.98-0.285-1.439c-0.059-0.147-0.115-0.286-0.154-0.412
		c-0.151-0.48-0.539-2.554-0.567-3.124c-0.011-0.198-0.025-0.385-0.038-0.549c-0.018-0.226-0.038-0.481-0.04-0.496
		c0.182-0.134,0.17-0.286,0.135-0.383c0.107-0.126,0.08-0.462-0.011-1.595c-0.021-0.269-0.041-0.506-0.046-0.632
		c-0.005-0.095-0.017-0.213-0.028-0.338c-0.017-0.164-0.042-0.434-0.039-0.604c0.078,0.039,0.154,0.091,0.191,0.122
		c0.066,0.054,0.155,0.069,0.239,0.043c0.081-0.027,0.144-0.095,0.163-0.179c0.01-0.041,0.089-0.428-0.123-1.436
		c-0.124-0.597-0.353-1.1-0.52-1.467c-0.085-0.187-0.19-0.419-0.19-0.488l-0.002-0.112c-0.002-0.086-0.006-0.263,0.012-0.37
		c0.346,0.199,0.574,0.444,0.577,0.447c0.062,0.066,0.155,0.092,0.246,0.072c0.089-0.023,0.158-0.093,0.181-0.183
		c0.004-0.016,0.095-0.4,0.005-1.035c-0.088-0.632-0.329-1.354-0.459-1.74c-0.136-0.407-0.238-0.9-0.275-1.32
		c-0.017-0.173-0.001-0.317,0.027-0.42c0.035,0.059,0.094,0.101,0.163,0.114c0.093,0.017,0.188-0.016,0.246-0.091l0.123-0.156
		c0.025-0.032,0.043-0.069,0.05-0.11l0.053-0.292c0.069-0.095,0.197-0.301,0.311-0.639c0.098-0.295,0.445-0.986,0.653-1.4
		c0.081-0.163,0.146-0.291,0.175-0.354c0.039-0.087,0.075-0.168,0.105-0.233l0.089,0.015c0.211,0.182,1.003,0.863,1.354,1.179
		c0.387,0.349,0.536,0.555,0.665,0.795c0.121,0.221,0.158,0.414,0.158,0.416c0.026,0.134,0.148,0.225,0.291,0.2l0.118-0.021
		c0.127-0.023,0.215-0.139,0.204-0.268c-0.037-0.426-0.083-0.742-0.138-0.945c0.039,0.027,0.081,0.056,0.124,0.086
		c0.481,0.335,1.209,0.842,1.481,1.088c0.395,0.355,0.735,0.733,0.739,0.736c0.064,0.072,0.164,0.102,0.256,0.073
		c0.093-0.027,0.161-0.104,0.177-0.2c0.005-0.03,0.116-0.773-0.67-1.692c-0.615-0.719-1.118-1.293-1.519-1.73
		c0.074-0.022,0.137-0.077,0.165-0.152c0.038-0.1,0.018-0.206-0.065-0.274c-0.084-0.109-0.51-0.911-0.949-1.754
		c0.04-0.002,0.08-0.013,0.117-0.034c0.109-0.064,0.153-0.202,0.102-0.318l-0.44-0.979c0.361,0.406,0.925,1.134,0.932,1.142
		c0.067,0.087,0.181,0.116,0.288,0.08c0.103-0.04,0.167-0.144,0.158-0.254l-0.048-0.588c0.067-0.055,0.135-0.13,0.164-0.226
		c0.028-0.091,0.02-0.186-0.018-0.251c-0.054-0.12-0.14-0.377-0.14-0.379c-0.032-0.097-0.12-0.164-0.223-0.171l-0.381-0.022
		l-0.513-0.991l0.302,0.31c0.092,0.094,0.239,0.101,0.34,0.017c0.101-0.085,0.118-0.232,0.041-0.338l-0.103-0.143
		c0.088,0.099,0.175,0.197,0.261,0.295c0.089,0.099,0.234,0.112,0.34,0.032c0.07-0.054,0.104-0.14,0.097-0.223
		c0.169,0.104,0.203,0.104,0.251,0.104c0.097,0,0.187-0.057,0.228-0.143c0.041-0.085,0.025-0.195-0.031-0.27
		c-0.027-0.035-0.09-0.141-0.162-0.268c0.039-0.018,0.075-0.045,0.102-0.082c0.061-0.082,0.065-0.193,0.011-0.28l-0.145-0.231
		c0.003-0.002,0.006-0.004,0.009-0.006c0.068-0.044,0.11-0.119,0.113-0.2c0.001-0.03,0.019-0.629-0.202-1.137
		c0.011-0.005,0.021-0.011,0.031-0.018c0.104-0.072,0.139-0.21,0.08-0.322l-0.71-1.354c0.083,0.046,0.188,0.04,0.269-0.02
		c0.105-0.078,0.132-0.226,0.061-0.336l-0.81-1.246c0.004-0.004,0.008-0.008,0.012-0.012c0.075-0.077,0.092-0.195,0.041-0.291
		c0,0-0.55-1.037-0.918-1.773c-0.364-0.735-1.119-2.956-1.326-4.199c-0.201-1.203-0.562-2.19-0.627-2.359
		c0.396,0.071,0.886,0.036,1.209-0.093c0.312-0.125,1.234-0.841,1.48-1.033c0.155,0.796,1.563,4.463,2.249,6.079
		c0.564,1.343,3.201,7.309,4.842,9.812c1.401,2.126,3.102,4.447,5.09,5.537c1.118,0.614,1.73,0.888,2.049,1.009l-0.406,0.912
		c-0.053,0.12-0.005,0.26,0.11,0.322c0.117,0.061,0.26,0.023,0.329-0.087l0.633-1.001l0.765,0.249
		c-0.017,0.329-0.032,1.001,0.071,1.538c0.152,0.765,0.53,1.245,0.547,1.266c0.054,0.067,0.138,0.103,0.221,0.093
		c0.001,0.114,0.081,0.216,0.196,0.241c0.138,0.029,0.261-0.051,0.295-0.179l0.457-1.699c0.052,0.515,0.128,1.429,0.191,2.265
		c0.01,0.131,0.118,0.231,0.249,0.231c0.001,0,0.002,0,0.003,0c0.131-0.001,0.239-0.104,0.247-0.236l0.019-0.338
		c0.099,0.295,0.22,0.481,0.227,0.492c0.058,0.089,0.166,0.132,0.269,0.106c0.104-0.025,0.179-0.113,0.189-0.219l0.026-0.268
		c0.003,0,0.007,0.001,0.011,0.001c0.092,0.014,0.185-0.039,0.233-0.118l0.258,0.804c0.04,0.121,0.158,0.193,0.287,0.169
		c0.124-0.024,0.211-0.139,0.2-0.266l-0.046-0.559c0.028,0.015,0.055,0.025,0.08,0.032l0.048,0.928
		c0.007,0.121,0.099,0.221,0.219,0.235c0.133,0.015,0.234-0.059,0.271-0.174l0.034-0.111c-0.001,0.104,0.062,0.199,0.163,0.236
		c0.088,0.033,0.188,0.012,0.255-0.049c0.093,0.082,0.23,0.088,0.326,0.008l0.444-0.364l0.312,0.016l0.165,0.539
		c0.028,0.093,0.107,0.16,0.203,0.174c0.016,0.002,0.034,0.003,0.044,0.003l-0.076,1.143c-0.009,0.127,0.079,0.24,0.205,0.263
		c0.127,0.024,0.248-0.053,0.284-0.176l0.453-1.537l0.453,1.537c0.036,0.123,0.159,0.2,0.284,0.176
		c0.125-0.022,0.214-0.136,0.205-0.263l-0.076-1.143c0.013,0,0.028-0.001,0.043-0.003c0.096-0.014,0.176-0.081,0.204-0.174
		l0.166-0.539l0.312-0.016l0.444,0.364c0.097,0.08,0.235,0.074,0.325-0.008c0.069,0.062,0.168,0.082,0.255,0.049
		c0.101-0.037,0.164-0.133,0.163-0.237l0.034,0.112c0.036,0.115,0.145,0.189,0.271,0.174c0.12-0.015,0.212-0.114,0.219-0.235
		l0.048-0.928c0.025-0.007,0.052-0.018,0.08-0.032l-0.046,0.559c-0.011,0.127,0.076,0.241,0.2,0.266
		c0.129,0.021,0.248-0.048,0.287-0.169l0.258-0.805c0.045,0.074,0.126,0.12,0.214,0.12c0.011,0,0.023-0.002,0.031-0.002l0.026,0.268
		c0.011,0.105,0.086,0.193,0.189,0.219c0.103,0.025,0.211-0.019,0.269-0.106c0.007-0.011,0.127-0.196,0.227-0.493l0.019,0.339
		c0.008,0.132,0.116,0.235,0.247,0.236c0.001,0,0.002,0,0.003,0c0.131,0,0.239-0.101,0.249-0.231
		c0.063-0.837,0.14-1.752,0.191-2.265l0.457,1.699c0.034,0.128,0.157,0.207,0.295,0.179c0.115-0.025,0.195-0.127,0.196-0.241
		c0.081,0.012,0.167-0.026,0.22-0.093c0.017-0.021,0.395-0.501,0.547-1.267c0.104-0.536,0.088-1.208,0.072-1.537l0.765-0.249
		l0.633,1.001c0.069,0.11,0.212,0.146,0.329,0.087c0.115-0.062,0.163-0.203,0.11-0.322l-0.406-0.912
		c0.317-0.121,0.931-0.395,2.049-1.009c1.988-1.09,3.688-3.411,5.09-5.538c1.646-2.511,4.277-8.47,4.841-9.81
		c0.688-1.618,2.098-5.293,2.25-6.081c0.244,0.192,1.167,0.909,1.48,1.034c0.319,0.126,0.781,0.168,1.208,0.093
		c-0.056,0.148-0.423,1.144-0.627,2.359c-0.206,1.242-0.961,3.463-1.325,4.199c-0.368,0.736-0.919,1.772-0.919,1.773
		c-0.051,0.096-0.034,0.213,0.041,0.291c0.004,0.004,0.008,0.008,0.013,0.012l-0.81,1.246c-0.071,0.11-0.045,0.258,0.061,0.336
		c0.081,0.061,0.186,0.066,0.269,0.02l-0.71,1.354c-0.059,0.112-0.024,0.25,0.08,0.322c0.01,0.007,0.02,0.013,0.03,0.018
		c-0.22,0.506-0.202,1.105-0.201,1.137c0.003,0.081,0.045,0.156,0.113,0.2c0.003,0.002,0.006,0.004,0.009,0.006l-0.145,0.231
		c-0.055,0.087-0.05,0.198,0.011,0.28c0.026,0.037,0.062,0.064,0.102,0.082c-0.071,0.126-0.133,0.229-0.156,0.261
		c-0.062,0.075-0.079,0.188-0.038,0.275c0.042,0.087,0.132,0.144,0.229,0.144c0.047,0,0.082,0,0.251-0.105
		c-0.008,0.084,0.026,0.169,0.097,0.224c0.105,0.08,0.251,0.066,0.34-0.032c0.084-0.096,0.17-0.192,0.257-0.29l-0.1,0.138
		c-0.077,0.105-0.06,0.253,0.041,0.338c0.101,0.084,0.248,0.077,0.34-0.017l0.304-0.312l-0.514,0.993l-0.381,0.022
		c-0.103,0.007-0.19,0.074-0.223,0.171c0,0.002-0.086,0.259-0.131,0.36c-0.046,0.082-0.056,0.178-0.027,0.27
		c0.03,0.096,0.098,0.171,0.165,0.226l-0.048,0.588c-0.009,0.11,0.056,0.214,0.158,0.254c0.107,0.037,0.221,0.008,0.289-0.08
		c0.006-0.008,0.569-0.736,0.931-1.143l-0.44,0.98c-0.052,0.116-0.008,0.254,0.102,0.318c0.037,0.021,0.077,0.032,0.117,0.034
		c-0.438,0.841-0.859,1.639-0.931,1.733c-0.077,0.069-0.121,0.197-0.085,0.295c0.028,0.074,0.091,0.13,0.166,0.151
		c-0.503,0.551-1.073,1.211-1.52,1.731c-0.785,0.919-0.674,1.662-0.669,1.692c0.016,0.096,0.085,0.173,0.177,0.2
		c0.094,0.026,0.192-0.002,0.256-0.073c0.004-0.004,0.344-0.381,0.739-0.736c0.272-0.247,1.005-0.757,1.489-1.094
		c0.041-0.028,0.079-0.056,0.116-0.081c-0.055,0.203-0.101,0.52-0.138,0.946c-0.011,0.129,0.077,0.244,0.204,0.268l0.118,0.021
		c0.14,0.025,0.265-0.066,0.291-0.2c0-0.002,0.037-0.195,0.16-0.418c0.127-0.238,0.276-0.444,0.663-0.793
		c0.351-0.315,1.144-0.997,1.354-1.178l0.089-0.016c0.03,0.066,0.067,0.146,0.106,0.235c0.028,0.062,0.097,0.198,0.183,0.37
		c0.204,0.408,0.548,1.093,0.645,1.383c0.112,0.338,0.241,0.543,0.311,0.639l0.052,0.292c0.007,0.04,0.024,0.078,0.05,0.11
		l0.123,0.156c0.059,0.075,0.153,0.109,0.246,0.091c0.071-0.015,0.132-0.06,0.167-0.121c0.024,0.106,0.041,0.253,0.024,0.428
		c-0.038,0.423-0.142,0.916-0.275,1.319c-0.13,0.389-0.373,1.113-0.459,1.739c-0.09,0.636,0,1.02,0.004,1.035
		c0.021,0.09,0.091,0.16,0.181,0.184c0.088,0.021,0.184-0.005,0.246-0.072c0.002-0.003,0.222-0.237,0.578-0.445
		c0.017,0.106,0.013,0.281,0.011,0.367l-0.002,0.113c0,0.069-0.105,0.302-0.19,0.489c-0.166,0.367-0.395,0.869-0.518,1.465
		c-0.214,1.008-0.135,1.396-0.125,1.437c0.02,0.084,0.082,0.151,0.163,0.179c0.082,0.026,0.172,0.011,0.238-0.043
		c0.039-0.031,0.116-0.085,0.193-0.123c0.003,0.17-0.022,0.44-0.039,0.605c-0.012,0.125-0.023,0.242-0.028,0.339
		c-0.005,0.122-0.023,0.354-0.045,0.617c-0.092,1.128-0.119,1.472-0.01,1.604c-0.035,0.096-0.045,0.241,0.121,0.375
		c0.004,0.099-0.013,0.314-0.028,0.508c-0.013,0.164-0.027,0.351-0.038,0.55c-0.029,0.567-0.417,2.642-0.567,3.124
		c-0.039,0.125-0.096,0.265-0.154,0.411c-0.184,0.46-0.393,0.98-0.284,1.444c0.076,0.308,0.059,0.347-0.018,0.515
		c-0.112,0.266-0.31,0.449-0.36,0.462c-0.139-0.03-0.183-0.226-0.196-0.34c-0.016-0.136-0.14-0.231-0.274-0.22
		c-0.136,0.015-0.235,0.136-0.223,0.272c0.04,0.428,0.146,0.99,0.416,1.242c0.087,0.081,0.198,0.124,0.32,0.124
		c0.347,0,0.691-0.336,0.866-0.649c0.133-0.241,0.216-0.497,0.275-0.684c0.025-0.079,0.058-0.177,0.065-0.195l0.06-0.034
		c0.027,0.072,0.024,0.319,0.021,0.519l-0.002,0.25c0,0.292,0,0.691,0.306,0.691c0.108,0,0.244-0.055,0.281-0.322
		c0.009-0.074,0.054-0.204,0.098-0.33c0.083-0.24,0.177-0.513,0.177-0.775c0-0.199,0.016-0.223,0.05-0.275
		c0.023-0.037,0.05-0.078,0.075-0.131c0.11-0.217,0.205-0.448,0.487-1.656c0.226-0.986,0.211-1.413,0.196-1.865
		c-0.004-0.109-0.008-0.22-0.008-0.342c0-1.047,0.063-2.067,0.12-2.201c0.139-0.161,0.163-0.322,0.188-0.493
		c0.016-0.097,0.032-0.213,0.079-0.362c0.105-0.351,0.012-1.162-0.085-1.895c-0.014-0.101-0.023-0.18-0.028-0.227
		c-0.02-0.186-0.039-0.577-0.051-0.821l0.347-0.075c0.096-0.021,0.171-0.096,0.191-0.192c0.006-0.023,0.124-0.587,0.124-1.154
		c0.008-1.06-0.088-1.769-0.32-2.305l0.099,0.059c0.072,0.045,0.16,0.048,0.234,0.013c0.075-0.035,0.129-0.105,0.142-0.188
		c0.007-0.043,0.065-0.42,0.065-0.594c0-0.379-0.013-1.311-0.134-1.773c-0.096-0.383-0.51-1.562-0.72-2.038
		c0.202,0.171,0.586,0.61,0.734,0.827c0.1,0.14,0.216,0.21,0.346,0.21c0.166,0,0.28-0.118,0.328-0.22
		c0.031-0.066,0.031-0.144,0.001-0.21l-0.64-1.408c-0.074-0.165-0.342-1.115-0.533-1.82c0.031,0,0.059,0.004,0.076,0.008
		l0.094,0.027c0.206,0.06,0.591,0.17,0.739,0.299c0.153,0.131,0.277,0.211,0.422,0.211c0.155,0,0.254-0.099,0.288-0.133
		c0.104-0.106,0.105-0.261,0.107-0.543c0-0.125,0.002-0.357,0.027-0.488c0.021,0.038,0.043,0.096,0.052,0.15
		c0.01,0.065,0.045,0.125,0.099,0.164c0.054,0.04,0.121,0.057,0.187,0.046l0.184-0.028c0.079-0.012,0.147-0.062,0.185-0.133
		c0.036-0.071,0.036-0.155,0.001-0.227c-0.016-0.03-0.377-0.746-0.592-1.092c-0.226-0.354-0.849-1.489-0.928-1.728
		c-0.098-0.3-0.451-1.061-0.61-1.312c-0.14-0.224-0.26-0.622-0.307-0.78c-0.012-0.045-0.005-0.071,0.015-0.14
		c0.025-0.088,0.064-0.222,0.015-0.396c-0.038-0.138-0.138-0.795-0.198-1.222l0.102-0.24c0.017-0.04,0.023-0.085,0.018-0.129
		c-0.038-0.299-0.093-0.762-0.093-0.855c0-0.08,0.048-0.255,0.081-0.354c0.015-0.042,0.018-0.088,0.009-0.132
		c-0.029-0.14-0.049-0.3-0.053-0.394c0.122-0.015,0.504,0.015,0.511,0.015c0.084,0.009,0.17-0.023,0.225-0.09
		c0.054-0.067,0.07-0.157,0.043-0.238c0,0-0.16-0.47-0.254-0.686c-0.06-0.135-0.125-0.222-0.184-0.298
		c-0.05-0.065-0.089-0.116-0.124-0.201c-0.042-0.095-0.095-0.367-0.134-0.566c-0.038-0.194-0.075-0.374-0.104-0.456
		c-0.038-0.11-0.082-0.28-0.109-0.412c0.051-0.013,0.098-0.041,0.132-0.084c0.062-0.076,0.074-0.183,0.03-0.271
		c-0.055-0.108-0.201-0.448-0.224-0.714c-0.015-0.154,0.024-0.221,0.069-0.298c0.038-0.065,0.086-0.146,0.086-0.258
		c0-0.091-0.033-0.299-0.062-0.464l0.096-0.043c0.111-0.05,0.17-0.172,0.141-0.29c-0.001-0.003-0.079-0.322-0.079-0.829
		c0-0.318,0.009-0.565,0.017-0.77c0.005-0.148,0.01-0.276,0.01-0.393c0-0.189-0.052-0.354-0.097-0.498
		c-0.029-0.095-0.058-0.185-0.058-0.246c0-0.137-0.013-0.417-0.029-0.78l-0.031-0.728c-0.017-0.4-0.109-0.74-0.191-1.039
		c-0.07-0.256-0.137-0.498-0.148-0.749c-0.023-0.467-0.202-0.61-0.399-0.728c-0.068-0.041-0.117-0.07-0.166-0.141
		c-0.112-0.156-0.032-0.347,0.109-0.632c0.099-0.195,0.053-0.424,0.01-0.645c-0.031-0.155-0.065-0.33-0.028-0.421
		c0.153-0.379,0.139-0.743-0.08-1.945c-0.236-1.324-2.27-3.968-2.455-4.179C99.5,91.578,99.5,91.377,99.5,90.938
		c0-0.282,0.066-0.568,0.13-0.845c0.033-0.141,0.064-0.275,0.085-0.399l0.036-0.206c0.058-0.324,0.117-0.658,0.089-0.964
		c-0.01-0.101,0.004-0.121,0.039-0.174c0.046-0.069,0.116-0.175,0.116-0.359c0-0.216,0.023-0.318,0.112-0.675
		c0.074-0.293,0.063-1.329,0.045-2.457c-0.003-0.215-0.006-0.39-0.006-0.489c0-0.27-0.02-0.459-0.043-0.69
		c-0.017-0.164-0.036-0.352-0.051-0.607c-0.016-0.324,0.146-0.436,0.361-0.548c0.053-0.027,0.096-0.052,0.123-0.072
		c0.371-0.273-0.08-1.146-0.213-1.351c-0.094-0.139-0.065-0.206,0.084-0.411c0.039-0.053,0.076-0.104,0.106-0.157
		c0.062-0.109,0.256-0.263,0.375-0.336c0.085-0.053,0.13-0.151,0.115-0.25c-0.003-0.018-0.068-0.446-0.302-0.884
		c-0.176-0.325-0.272-1.164-0.305-1.44l-0.007-0.059c-0.012-0.247,0.345-2.841,0.462-3.692l0.058-0.421
		c0.041-0.28,0.028-0.82-0.014-1.393c0.011,0.024,0.021,0.048,0.033,0.073l0.029,0.063c0.201,0.446,0.098,1.445,0.041,1.793
		c-0.003,0.021-0.004,0.043-0.002,0.064l0.092,0.946c0.006,0.056,0.132,1.367,0.388,1.981c0.185,0.438,0.323,1.083,0.413,1.915
		c0.07,0.755,0.319,1.3,0.739,1.619c0.276,0.214,0.352,0.464,0.405,0.646l0.033,0.104c0.043,0.124,0.044,0.214,0.007,0.305
		l-0.041,0.094c-0.151,0.343-0.552,1.253-0.734,1.799c-0.252,0.757-0.312,1.38-0.315,1.406c-0.011,0.112,0.056,0.219,0.162,0.258
		c0.104,0.04,0.224,0.003,0.291-0.09c0.006-0.009,0.163-0.23,0.286-0.487c0.12-0.235,1.059-1.628,1.334-1.992
		c0.153-0.206,0.459-0.602,0.7-0.912c0.03,0.153,0.061,0.304,0.082,0.396c0.042,0.171,0.262,1.549,0.398,2.434
		c0.019,0.117,0.116,0.206,0.234,0.212c0.15,0.008,0.225-0.072,0.255-0.188c0.001-0.004,0.119-0.46,0.236-0.775
		c0.073-0.196,0.253-0.978,0.4-1.648c0.056,0.253,0.097,0.49,0.097,0.637c0,0.301,0.598,2.202,0.781,2.778
		c0.036,0.113,0.148,0.186,0.265,0.172c0.118-0.012,0.211-0.105,0.223-0.224c0-0.003,0.024-0.246,0.109-0.461
		c0.034-0.096,0.062-0.114,0.111-0.115c0.044,0.02,0.141,0.138,0.185,0.214c0,0,0.367,0.971,0.455,1.25
		c0.063,0.18,0.158,0.981,0.202,1.445c0.009,0.087,0.061,0.159,0.134,0.197l-0.006,0.029c-0.015,0.066,0.011,0.141,0.049,0.197
		c0.029,0.043,0.077,0.078,0.128,0.097c0.001,0.192,0.083,0.424,0.111,0.499c0.043,0.115,0.165,0.179,0.283,0.156
		c0.099-0.021,0.239-0.1,0.34-0.266c0.034-0.059,0.062-0.128,0.088-0.197c0.08,0.222,0.278,0.828,0.257,1.37
		c-0.026,0.669,0.089,1.018,0.182,1.297l0.043,0.132c0.058,0.206,0.205,0.324,0.404,0.324c0.1,0,0.197-0.03,0.279-0.06
		c0.055-0.017,0.099-0.036,0.135-0.058c0.005,0.005,0.009,0.011,0.014,0.016c0.054,0.066,0.121,0.147,0.197,0.205
		c0.039,0.033,0.1,0.178,0.065,0.779c-0.032,0.586,0.212,1.544,0.24,1.632c0.067,0.138,0.249,0.468,0.474,0.55
		c0.028,0.011,0.101,0.024,0.131,0.024c0.088,0,0.16-0.029,0.22-0.07c0.062,0.102,0.193,0.332,0.231,0.49
		c0.016,0.059,0.039,0.14,0.067,0.237c0.091,0.312,0.229,0.784,0.295,1.242c0.088,0.559-0.112,2.277-0.234,2.716
		c-0.136,0.462-0.142,1.111-0.067,1.472c0.059,0.283,0.084,0.637,0.085,0.64c0.009,0.124,0.107,0.223,0.23,0.231
		c0.138,0.013,0.236-0.075,0.263-0.195l0.051-0.229c0.086,0.012,0.183,0.044,0.23,0.123c0.127,0.213,0.103,0.964-0.228,1.37
		c-0.146,0.181-0.564,0.289-1.117,0.289c-0.185,0-0.314-0.012-0.319-0.013c-0.12-0.016-0.226,0.061-0.263,0.173
		c-0.035,0.112,0.012,0.233,0.113,0.293c0.023,0.013,0.134,0.076,0.284,0.139c-0.115,0.005-0.235,0.008-0.347,0.008
		c-0.12,0-0.224,0.086-0.246,0.204c-0.021,0.118,0.044,0.236,0.156,0.279c0.073,0.028,0.762,0.304,1.182,0.229
		c0.048-0.009,0.096-0.017,0.144-0.023c0.311-0.046,0.663-0.099,1.264-0.616c0.337-0.294,0.662-0.871,0.774-1.375
		c0.104-0.473,0.035-0.858-0.001-1.066l-0.014-0.083c-0.02-0.167,0.043-0.235,0.114-0.284
		C115.4,100.729,115.494,100.374,115.645,99.225z M79.654,123.259l0.063-0.016l0.034,0.59L79.654,123.259z M66.949,123.243
		l0.063,0.016l-0.098,0.577L66.949,123.243z"/>
</g>
</svg>
