<?xml version="1.0" encoding="iso-8859-1"?>
<!-- Generator: Adobe Illustrator 17.1.0, SVG Export Plug-In . SVG Version: 6.00 Build 0)  -->
<!DOCTYPE svg PUBLIC "-//W3C//DTD SVG 1.1//EN" "http://www.w3.org/Graphics/SVG/1.1/DTD/svg11.dtd">
<svg version="1.1" id="Capa_1" xmlns="http://www.w3.org/2000/svg" xmlns:xlink="http://www.w3.org/1999/xlink" x="0px" y="0px"
	 viewBox="0 0 150 150" style="enable-background:new 0 0 150 150;" xml:space="preserve">
<g>
	<path d="M4.463,85.979c0.595,0.425,1.189,0.85,1.784,1.276c0.811,0.58,2.03,0.144,2.498-0.655c0.179-0.306,0.248-0.621,0.241-0.927
		c0.237-0.155,0.446-0.387,0.595-0.732c2.265-5.246,4.53-10.492,6.795-15.738c4.331,1.42,8.662,2.84,12.992,4.259
		c-0.103,1.26-0.163,2.533-0.163,3.82c0,7.806,1.743,15.154,4.887,21.603c-3.792,2-7.604,3.975-11.316,6.111
		c-1.728,0.995-3.121,3.135-2.654,5.194c0.742,3.269,2.445,6.361,3.975,9.395l4.194,13.513v0.173c0,0.081,0.014,0.158,0.024,0.235
		c-1.744,1.435-3.488,2.869-5.231,4.303c-1.82,1.497,0.779,4.065,2.582,2.582c1.422-1.17,2.844-2.34,4.266-3.51
		c1.634,0.668,3.694,0.338,4.822-1.104c0.541-0.692,0.691-1.401,0.285-2.212l-0.608-1.217c-0.109-0.219-0.289-0.392-0.492-0.536
		c-2.156-4.554-4.311-9.109-6.467-13.664c-0.948-3.053-1.895-6.105-2.843-9.158c3.802-2.17,7.605-4.341,11.407-6.512
		c6.625,10.985,17.648,18.749,31.22,20.619c1.944,0.268,5.516-13.096,7.741-14.882c2.225,1.786,5.797,15.15,7.741,14.882
		c13.572-1.87,24.594-9.634,31.22-20.619c3.802,2.171,7.605,4.341,11.407,6.512c-0.948,3.053-1.895,6.105-2.843,9.158
		c-2.156,4.555-4.311,9.109-6.467,13.664c-0.203,0.145-0.383,0.317-0.492,0.536l-0.608,1.217c-0.406,0.812-0.256,1.521,0.285,2.212
		c1.128,1.442,3.188,1.771,4.822,1.104c1.422,1.17,2.844,2.339,4.266,3.51c1.803,1.483,4.402-1.085,2.582-2.582
		c-1.744-1.434-3.487-2.869-5.231-4.303c0.01-0.078,0.024-0.155,0.024-0.235v-0.173l4.194-13.513
		c1.53-3.034,3.233-6.125,3.975-9.395c0.467-2.059-0.925-4.199-2.654-5.194c-3.711-2.136-7.524-4.112-11.316-6.111
		c3.144-6.45,4.887-13.797,4.887-21.603c0-1.287-0.06-2.56-0.163-3.82c4.331-1.42,8.662-2.84,12.992-4.259
		c2.265,5.246,4.53,10.492,6.795,15.738c0.149,0.345,0.358,0.577,0.595,0.732c-0.007,0.306,0.062,0.62,0.241,0.927
		c0.468,0.799,1.687,1.235,2.498,0.655c0.595-0.426,1.189-0.851,1.784-1.276c0.808-0.578,1.193-1.58,0.655-2.498
		c-0.468-0.799-1.687-1.235-2.498-0.655c-0.061,0.043-0.122,0.087-0.183,0.13c-2.367-5.482-4.735-10.965-7.102-16.448
		c0.102-0.958-0.729-2.025-1.827-2.11c-1.266-0.8-2.822-0.837-4.54-0.358c-3.444,0.961-6.854,2.477-10.218,3.962
		c-1.574-7.711-5.036-14.733-9.927-20.528c1.651-1.246,3.302-2.492,4.953-3.738c2.213-0.888,4.426-1.776,6.638-2.664
		c0.43-0.172,0.732-0.453,0.93-0.782c0.579-0.366,0.916-1.031,0.595-1.89c-0.427-1.142-0.854-2.284-1.281-3.425
		c0.35-1.85,0.701-3.7,1.051-5.549c2.104-1.409,4.087-2.979,5.947-4.695c0.587-0.439,1.174-0.878,1.761-1.317
		c0.428-0.319,0.654-0.734,0.737-1.164c0.286-0.305,0.576-0.606,0.855-0.919c1.561-1.751-1.012-4.343-2.582-2.582
		c-1.057,1.185-2.168,2.299-3.322,3.357l-6.062,4.531c-0.168,0.125-0.295,0.268-0.405,0.417c-0.835,0.529-1.684,1.042-2.56,1.521
		c-0.555,0.304-0.821,0.755-0.883,1.229c-0.104,0.312-0.102,0.681,0.053,1.093c0.548,1.465,1.096,2.93,1.644,4.395
		c-0.114,0.602-0.228,1.203-0.342,1.805c-1.522,1.149-3.044,2.298-4.567,3.447c-2.356,0.945-4.712,1.891-7.068,2.836
		c-4.298-3.99-9.36-7.164-14.935-9.299c1.301-1.373,2.05-2.924,2.05-4.573c0-3.932-4.187-7.326-10.272-8.975
		c-0.148-0.517-0.296-1.035-0.443-1.552c-0.073-0.256-0.202-0.482-0.365-0.676c-0.118-0.478-0.405-0.911-0.858-1.167
		c1.177-0.98,2.102-2.264,2.674-3.748c0.424-1.1-1.342-1.572-1.76-0.486c-0.707,1.834-2.142,3.191-3.905,3.903
		c-0.906-0.041-1.812-0.081-2.719-0.121v-0.041c-0.152,0.007-0.304,0.013-0.456,0.021c-0.152-0.007-0.304-0.014-0.456-0.021v0.041
		c-0.906,0.04-1.812,0.081-2.719,0.121c-1.763-0.712-3.198-2.069-3.905-3.903c-0.419-1.086-2.185-0.615-1.76,0.486
		c0.572,1.484,1.497,2.767,2.674,3.748c-0.453,0.255-0.74,0.688-0.858,1.167c-0.163,0.194-0.292,0.42-0.365,0.676
		c-0.148,0.517-0.296,1.034-0.443,1.552c-6.085,1.648-10.272,5.043-10.272,8.975c0,1.649,0.748,3.2,2.05,4.573
		c-5.575,2.135-10.637,5.309-14.935,9.299c-2.356-0.946-4.712-1.891-7.068-2.836c-1.522-1.149-3.044-2.298-4.567-3.447
		c-0.114-0.602-0.228-1.203-0.342-1.805c0.548-1.465,1.096-2.929,1.644-4.395c0.154-0.413,0.156-0.781,0.053-1.093
		c-0.062-0.474-0.328-0.925-0.883-1.229c-0.876-0.48-1.725-0.992-2.56-1.521c-0.11-0.149-0.237-0.292-0.405-0.417l-6.062-4.531
		c-1.154-1.059-2.265-2.172-3.322-3.357c-1.57-1.761-4.143,0.831-2.582,2.582c0.279,0.313,0.569,0.614,0.855,0.919
		c0.083,0.43,0.31,0.845,0.737,1.164c0.587,0.439,1.174,0.878,1.761,1.317c1.86,1.716,3.843,3.286,5.947,4.695
		c0.35,1.849,0.701,3.699,1.051,5.549c-0.427,1.142-0.854,2.284-1.281,3.425c-0.321,0.859,0.016,1.524,0.595,1.89
		c0.198,0.328,0.5,0.609,0.93,0.782c2.213,0.888,4.426,1.776,6.638,2.664c1.651,1.246,3.302,2.492,4.953,3.738
		c-4.891,5.795-8.354,12.817-9.927,20.528c-3.365-1.484-6.774-3-10.218-3.962c-1.718-0.479-3.273-0.442-4.54,0.358
		c-1.098,0.084-1.929,1.151-1.827,2.11c-2.367,5.482-4.735,10.965-7.102,16.448c-0.061-0.043-0.122-0.087-0.183-0.13
		c-0.811-0.58-2.03-0.145-2.498,0.655C3.27,84.399,3.656,85.401,4.463,85.979z"/>
</g>
</svg>
