<?xml version="1.0" encoding="iso-8859-1"?>
<!-- Generator: Adobe Illustrator 17.1.0, SVG Export Plug-In . SVG Version: 6.00 Build 0)  -->
<!DOCTYPE svg PUBLIC "-//W3C//DTD SVG 1.1//EN" "http://www.w3.org/Graphics/SVG/1.1/DTD/svg11.dtd">
<svg version="1.1" id="Capa_1" xmlns="http://www.w3.org/2000/svg" xmlns:xlink="http://www.w3.org/1999/xlink" x="0px" y="0px"
	 viewBox="0 0 150 150" style="enable-background:new 0 0 150 150;" xml:space="preserve">
<g>
	<path d="M116.517,67.141c0-0.146,0-0.146,0.028-0.238l0.02-0.062c0.04-0.113,0.073-0.229,0.086-0.498
		c0.023-0.402,0.054-0.736,0.075-0.825c0.011-0.041,0.028-0.081,0.045-0.124c0.038-0.095,0.085-0.214,0.1-0.355
		c0.016-0.155-0.012-0.342-0.028-0.433c0.059-0.375-0.122-0.881-0.414-1.137c-0.056-0.047-0.103-0.093-0.148-0.137
		c-0.155-0.151-0.316-0.308-0.628-0.343c-0.067-0.007-0.135-0.011-0.197-0.011c-0.095,0-0.383,0-0.487,0.229
		c-0.067,0.147-0.024,0.311,0.13,0.487c0.283,0.316,0.514,0.436,0.724,0.531c0.045,0.021,0.094,0.103,0.129,0.163
		c0.033,0.057,0.067,0.114,0.114,0.157c-0.044-0.023-0.086-0.053-0.128-0.093c-0.157-0.162-0.405-0.354-0.526-0.439
		c-0.125-0.085-0.279-0.142-0.296-0.147c-0.075-0.027-0.162-0.016-0.228,0.031c-0.066,0.047-0.106,0.123-0.106,0.204v0.201
		c0,0.042,0.01,0.082,0.03,0.118c0.028,0.053,0.181,0.324,0.394,0.448c0.052,0.032,0.11,0.064,0.167,0.096
		c0.079,0.044,0.211,0.117,0.239,0.151c0.038,0.049,0.047,0.071,0.053,0.074c-0.011,0.015-0.053,0.063-0.152,0.042
		c-0.079-0.025-0.159-0.043-0.232-0.06c-0.051-0.011-0.121-0.026-0.13-0.029l-0.135-0.088c-0.067-0.044-0.149-0.052-0.225-0.025
		c-0.075,0.028-0.131,0.089-0.153,0.166l-0.049,0.172c-0.013,0.048-0.012,0.099,0.003,0.146c0.018,0.053,0.128,0.329,0.59,0.493
		c0.191,0.071,0.312,0.161,0.409,0.232c-0.007,0.003-0.014,0.007-0.021,0.011c-0.114,0.063-0.16,0.206-0.104,0.325
		c0,0.001,0.047,0.103,0.06,0.267c0.006,0.075,0.003,0.133,0.001,0.177c-0.005,0.087-0.013,0.24,0.117,0.346
		c0.003,0.009,0.006,0.02,0.01,0.034c-0.068,0.002-0.133,0.031-0.18,0.083c-0.02,0.022-0.194,0.226-0.127,0.45
		c-0.01,0.047-0.102,0.156-0.157,0.223c-0.089,0.116-0.147,0.298-0.159,0.334c-0.007,0.023-0.011,0.048-0.011,0.073
		c0,0.044-0.005,0.096-0.003,0.128c-0.138-0.009-0.291,0.036-0.435,0.154c-0.219,0.189-0.618,0.533-0.809,0.722
		c-0.223,0.224-0.285,0.373-0.303,0.466c-0.017,0.006-0.071,0.011-0.15,0.018c-0.019,0.002-0.038,0.006-0.056,0.012
		c-0.214,0.052-0.429,0.172-0.606,0.338c-0.077,0.072-0.184,0.154-0.298,0.243c-0.25,0.194-0.535,0.414-0.696,0.647
		c-0.104,0.15-0.19,0.258-0.254,0.337c-0.057,0.07-0.098,0.124-0.137,0.154l-0.072,0.022c-0.144,0.049-0.355,0.16-0.545,0.41
		c-0.091,0.124-0.349,0.417-0.599,0.7c-0.158,0.179-0.312,0.354-0.422,0.484c-0.138,0.164-0.261,0.325-0.36,0.454
		c-0.083,0.108-0.145,0.192-0.167,0.209c-0.072,0.018-0.207,0.049-0.333,0.197c-0.086,0.099-0.132,0.2-0.168,0.281
		c-0.023,0.052-0.043,0.096-0.102,0.164c-0.031,0.037-0.095,0.113-0.128,0.118c-0.114-0.053-0.171-0.102-0.251-0.17
		c-0.05-0.042-0.102-0.086-0.168-0.133c-0.171-0.119-0.517-0.345-0.718-0.455c-0.095-0.05-0.218-0.105-0.334-0.156
		c-0.108-0.048-0.209-0.091-0.266-0.125c-0.073-0.042-0.138-0.06-0.187-0.073c-0.05-0.014-0.05-0.014-0.061-0.027
		c-0.111-0.149-0.355-0.396-0.608-0.614c-0.175-0.151-0.552-0.512-0.844-0.791l-0.458-0.438c-0.228-0.223-0.511-0.5-0.866-0.747
		c-0.244-0.168-0.494-0.398-0.715-0.602c-0.164-0.151-0.312-0.287-0.428-0.372c-0.139-0.106-0.274-0.202-0.403-0.294
		c-0.119-0.084-0.231-0.164-0.337-0.245c-0.08-0.062-0.194-0.154-0.314-0.252c-0.218-0.177-0.458-0.371-0.579-0.45l-0.089-0.054
		c-0.012-0.007-0.026-0.015-0.04-0.024c0.037-0.034,0.084-0.063,0.138-0.096c0.142-0.086,0.337-0.205,0.402-0.494
		c0.015-0.07,0.026-0.134,0.036-0.195c0.032-0.201,0.043-0.251,0.157-0.322c0.304-0.19,0.433-0.283,0.558-0.647l0.132-0.355
		c0.04-0.107-0.008-0.214-0.102-0.279c-0.039-0.027-0.066-0.04-0.134-0.039c0.02-0.065,0.055-0.146,0.116-0.241
		c0.114-0.183,0.185-0.247,0.395-0.438l0.115-0.105c0.05-0.045,0.087-0.083,0.121-0.118c0.065-0.067,0.101-0.104,0.225-0.17
		c0.276-0.151,0.376-0.296,0.446-0.437l0.084-0.185c0.05-0.111,0.013-0.242-0.089-0.311c-0.053-0.036-0.116-0.049-0.176-0.04
		c0.04-0.15,0.11-0.402,0.206-0.542c0.072-0.104,0.164-0.184,0.245-0.254c0.072-0.062,0.135-0.117,0.183-0.188
		c0.017-0.026,0.034-0.055,0.051-0.085c0.029-0.052,0.063-0.111,0.087-0.12c0.229-0.077,0.378-0.295,0.495-0.502
		c0.111-0.203,0.117-0.365,0.117-0.395c0-0.125-0.094-0.231-0.218-0.248c-0.027-0.004-0.056-0.002-0.082,0.003
		c0.063-0.203,0.218-0.513,0.279-0.575l0.059-0.056c0.152-0.144,0.407-0.384,0.484-0.7c0.062-0.25,0.092-0.375,0.319-0.739
		c0.103-0.163,0.251-0.382,0.411-0.618c0.242-0.357,0.509-0.753,0.693-1.06c0.193-0.324,0.572-0.829,0.849-1.198
		c0.147-0.196,0.268-0.357,0.326-0.444c0.055-0.082,0.114-0.145,0.167-0.203c0.115-0.125,0.245-0.266,0.278-0.492
		c0.006-0.042,0.009-0.08,0.012-0.121c0.245-0.062,0.574-0.275,0.707-0.366c0.176-0.115,0.238-0.128,0.236-0.128
		c0.074,0,0.151,0.013,0.156,0.014c0.098,0.017,0.193-0.024,0.248-0.104c0.055-0.081,0.059-0.186,0.01-0.269l-0.081-0.137
		c-0.037-0.063-0.104-0.107-0.177-0.12c0,0-0.182-0.042-0.492,0.044c-0.268,0.082-0.567,0.276-0.697,0.391
		c-0.04,0.036-0.11,0.062-0.185,0.067c0.003-0.006,0.006-0.012,0.008-0.018c0.065-0.149,0.131-0.297,0.178-0.392
		c0.048-0.094,0.112-0.204,0.113-0.205c0.065-0.111,0.035-0.253-0.068-0.329s-0.248-0.06-0.333,0.035l-0.226,0.252
		c-0.052-0.217-0.126-0.477-0.261-0.693c-0.112-0.19-0.459-0.559-0.718-0.587c-0.349-0.041-0.623,0.043-0.816,0.277
		c-0.162,0.199-0.239,0.347-0.248,0.364c-0.057,0.111-0.022,0.246,0.08,0.317c0.103,0.072,0.243,0.056,0.327-0.036
		c0.037-0.04,0.137-0.123,0.274-0.114c0.23,0.079,0.343,0.172,0.43,0.354l0.103,0.214c0.052,0.105,0.105,0.214,0.112,0.26
		c0.006,0.04,0.018,0.087,0.031,0.136c0.009,0.035,0.023,0.089,0.036,0.091c-0.104,0.063-0.203,0.156-0.236,0.386
		c-0.038,0.245-0.097,0.472-0.174,0.664c-0.073,0.2-0.491,1.156-0.69,1.521c-0.204,0.369-0.671,1.122-0.838,1.369
		c-0.066,0.1-0.155,0.258-0.247,0.42c-0.059,0.104-0.136,0.242-0.204,0.34c0.019-0.111,0.035-0.215,0.035-0.272
		c0-0.138-0.121-0.268-0.259-0.268c-0.208,0-0.391,0.302-0.511,0.56c-0.11,0.252-0.098,0.604-0.086,0.743
		c0.011,0.147-0.054,0.516-0.141,0.811c-0.043-0.049-0.105-0.084-0.193-0.087c-0.031-0.071-0.094-0.125-0.173-0.144
		c-0.112-0.026-0.23,0.03-0.281,0.134c0,0-0.137,0.284-0.195,0.429c-0.022,0.061-0.049,0.152-0.077,0.251
		c-0.032,0.114-0.067,0.241-0.104,0.332c-0.048,0.119-0.071,0.283-0.093,0.441c-0.011,0.079-0.027,0.198-0.037,0.226
		c-0.013,0.028-0.026,0.062-0.04,0.098c-0.016,0.043-0.046,0.123-0.042,0.13c-0.032,0-0.065-0.005-0.099-0.009
		c-0.283-0.034-0.471,0.073-0.542,0.179c-0.095,0.137-0.096,0.271-0.087,0.379c-0.001,0.001-0.002,0.002-0.002,0.002
		c-0.063,0.053-0.168,0.141-0.19,0.318c-0.011,0.074,0.001,0.145,0.011,0.208c0.002,0.016,0.006,0.036,0.008,0.054
		c-0.205,0.132-0.201,0.35-0.194,0.446c-0.017,0.045-0.035,0.081-0.071,0.153l-0.105,0.217c-0.073,0.156-0.09,0.295-0.104,0.397
		c-0.001,0.007-0.001,0.014-0.002,0.021c-0.069-0.055-0.153-0.071-0.227-0.071c-0.294,0-0.367,0.208-0.413,0.334
		c-0.035,0.081-0.055,0.179-0.074,0.275c-0.009,0.042-0.015,0.083-0.024,0.112c-0.042,0.056-0.067,0.124-0.095,0.2
		c-0.025,0.068-0.053,0.145-0.092,0.203c-0.006,0.01-0.042,0.03-0.069,0.044c-0.101,0.056-0.269,0.15-0.322,0.403
		c-0.023,0.121-0.052,0.154-0.088,0.195c-0.048,0.054-0.127,0.146-0.135,0.316c0,0.017-0.002,0.049-0.005,0.092
		c-0.001-0.008-0.002-0.017-0.003-0.024c-0.038-0.238-0.094-0.386-0.1-0.402c-0.035-0.091-0.12-0.153-0.216-0.16
		c-0.099-0.006-0.189,0.044-0.236,0.129c-0.047,0.085-0.065,0.18-0.081,0.265c-0.006,0.032-0.006,0.067-0.001,0.057
		c-0.058,0.078-0.066,0.159-0.059,0.229c-0.009,0.009-0.017,0.018-0.022,0.026c-0.031,0.043-0.05,0.094-0.061,0.146
		c-0.047-0.008-0.094-0.016-0.137-0.023l-0.114-0.025c-0.172-0.04-0.433-0.099-0.811-0.099l-0.111,0.001
		c-0.514,0.02-1.527,0.151-1.968,0.241l-0.382,0.08c-0.54,0.112-1.28,0.266-1.499,0.333c-0.442,0.137-0.655,0.174-0.797,0.164
		c-0.074-0.012-0.199-0.071-0.332-0.133c-0.162-0.075-0.363-0.169-0.589-0.236l-0.073-0.021c-0.308-0.09-0.729-0.212-0.849-0.286
		c0-0.001-0.009-0.032,0.018-0.135c0.077-0.303,1.184-3.488,1.377-4.03c0.029-0.082,0.086-0.233,0.165-0.44
		c0.221-0.582,0.631-1.664,1.051-2.899c0.373-1.099,0.825-2.609,0.935-3.05c0.196-0.754,0.499-1.742,0.742-2.535
		c0.112-0.366,0.209-0.683,0.274-0.905c0.198-0.688,0.855-2.647,1.205-3.519l0.324-0.787c0.363-0.878,0.815-1.972,1.037-2.585
		c0.097-0.274,0.223-0.595,0.35-0.919c0.263-0.67,0.512-1.304,0.571-1.674c0.033-0.204,0.054-0.402,0.074-0.587
		c0.03-0.286,0.056-0.532,0.118-0.702c0.039-0.106,0.103-0.246,0.175-0.405c0.146-0.323,0.329-0.724,0.423-1.091
		c0.055-0.215,0.167-0.552,0.294-0.939c0.184-0.557,0.393-1.188,0.533-1.745c0.186-0.739,0.621-2.469,0.672-2.619
		c0.011-0.034,0.029-0.068,0.048-0.109c0.064-0.132,0.162-0.333,0.227-0.7c0.035-0.183,0.062-0.28,0.095-0.396
		c0.051-0.181,0.115-0.405,0.229-1.004c0.207-1.105,0.364-2.589,0.394-2.877c0.019-0.192,0.04-0.302,0.064-0.424
		c0.04-0.202,0.085-0.43,0.134-1.03l0.031-0.346c0.059-0.66,0.071-0.797,0.056-1.321c-0.008-0.293,0.007-0.448,0.028-0.683
		c0.021-0.231,0.049-0.537,0.071-1.104c0.033-0.706,0.027-1.398,0.021-2.069c-0.004-0.438-0.008-0.858,0-1.25
		c0.012-0.715-0.064-1.087-0.115-1.333c-0.019-0.092-0.036-0.167-0.041-0.239c-0.007-0.139-0.007-0.29-0.007-0.448
		c0-0.166,0-0.339-0.008-0.514l-0.005-0.118c-0.011-0.247-0.018-0.41-0.167-1.622l-0.067-0.561c-0.128-1.076-0.22-1.854-0.542-3.428
		c-0.397-1.941-0.837-3.755-1.24-5.106c-0.394-1.327-1.124-3.617-1.414-4.285c-0.288-0.66-0.967-1.532-1.241-1.788
		c-0.25-0.233-0.772-0.72-1.481-1.012c-0.745-0.307-1.122-0.191-1.176-0.176c-0.096,0.028-0.166,0.11-0.178,0.209l-0.017,0.135
		c-0.007,0.052,0.003,0.106,0.029,0.152c0.034,0.061,0.153,0.218,0.521,0.346c0.192,0.072,0.501,0.407,0.706,0.629
		c0.073,0.079,0.14,0.152,0.2,0.212c0.134,0.133,0.191,0.376,0.208,0.503c-0.041,0.187,0.117,0.365,0.237,0.501
		c0.029,0.032,0.054,0.057,0.057,0.056c0.003,0.009,0.006,0.023,0.008,0.039c-0.11,0.015-0.219,0.031-0.219,0.031
		c-0.122,0.019-0.21,0.124-0.21,0.247c0,0.205,0.192,0.308,0.511,0.479c0.042,0.022,0.081,0.042,0.11,0.059c0,0.007,0,0.015,0,0.023
		c-0.019-0.001-0.045-0.003-0.047-0.003c-0.173,0-0.25,0.104-0.276,0.148c-0.045,0.078-0.04,0.222,0.005,0.299
		c0.044,0.076,0.127,0.123,0.215,0.124c0.044,0,0.107,0.01,0.115,0.012c0.02,0.016,0.033,0.032,0.048,0.05
		c0.04,0.045,0.092,0.107,0.192,0.18c-0.109,0.009-0.202,0.087-0.226,0.195c-0.026,0.12-0.001,0.28,0.262,0.374
		c-0.003,0.009-0.008,0.017-0.012,0.024c-0.06,0.11-0.029,0.247,0.071,0.321c0.154,0.114,0.392,0.329,0.434,0.431
		c0.076,0.192,0.1,0.665,0.058,0.74c-0.034,0-0.074-0.009-0.109-0.024c-0.049-0.021-0.107-0.062-0.169-0.102
		c-0.159-0.105-0.323-0.213-0.495-0.213c-0.215,0-0.3,0.117-0.331,0.186c-0.094,0.21,0.086,0.413,0.163,0.499l0.085,0.093
		c0.126,0.134,0.169,0.187,0.169,0.307c0,0.309,0.112,0.442,0.298,0.663l0.143,0.172c0.262,0.322,0.38,0.567,0.606,1.477
		c0.207,0.845,0.507,2.167,0.735,3.89c0.224,1.682,0.292,3.279,0.205,4.749c-0.104,1.782-0.375,2.491-0.583,2.77
		c-0.181,0.239-0.294,0.354-0.617,0.45c-0.117,0.036-0.232,0.057-0.34,0.078c-0.259,0.049-0.526,0.101-0.718,0.312
		c-0.19,0.208-0.192,0.391-0.159,0.508c0.051,0.184,0.211,0.317,0.478,0.396c0.055,0.016,0.115,0.03,0.178,0.044
		c0.281,0.065,0.599,0.14,0.885,0.532c0.375,0.527,0.375,1.737,0.375,2.134c0,0.566-0.295,3.586-1.132,5.857
		c-0.912,2.477-1.701,4.284-2.413,5.524c-0.737,1.276-1.847,2.756-2.288,3.216c-0.334,0.353-0.556,0.532-0.667,0.532c0,0,0,0,0,0
		c0,0-0.051-0.043-0.051-0.043c-0.054-0.06-0.143-0.159-0.299-0.196c-0.144-0.038-0.413-0.168-0.522-0.354
		c-0.049-0.085-0.083-0.166-0.115-0.244c-0.071-0.168-0.152-0.359-0.35-0.556c-0.23-0.228-0.453-0.471-0.526-0.705
		c-0.096-0.313-0.181-0.407-0.358-0.581c-0.115-0.113-0.336-0.473-0.352-0.562c0-0.28-0.317-0.613-0.564-0.584
		c0-0.074-0.033-0.145-0.09-0.192c0,0-0.439-0.367-0.601-0.487c-0.051-0.037-0.113-0.086-0.18-0.14
		c-0.141-0.113-0.301-0.242-0.451-0.327l-0.1-0.058c-0.154-0.092-0.3-0.179-0.45-0.179c-0.162,0-0.291,0.104-0.327,0.252
		c-0.081,0.277,0.179,0.583,0.539,1.008l0.154,0.183c0.116,0.146,0.315,0.44,0.495,0.786c0.298,0.564,0.568,1.222,0.635,1.43
		l0.104,0.344c0.258,0.867,0.548,1.82,0.723,2.168c0.054,0.111,0.119,0.342,0.188,0.586c0.05,0.175,0.104,0.365,0.164,0.549
		c0.038,0.118,0.078,0.234,0.116,0.346c0.104,0.305,0.223,0.649,0.203,0.785c-0.03,0.224-0.155,0.504-0.288,0.8
		c-0.121,0.272-0.247,0.553-0.333,0.854c-0.136,0.471-0.32,1.066-0.46,1.516l-0.226,0.727c-0.145,0.468-0.364,1.176-0.511,1.474
		c-0.071,0.14-0.135,0.24-0.188,0.32c-0.107,0.166-0.199,0.309-0.178,0.525c-0.008,0.164-0.333,0.958-0.507,1.384
		c-0.082,0.199-0.154,0.376-0.2,0.498c-0.054,0.14-0.135,0.327-0.227,0.537c-0.224,0.515-0.502,1.155-0.617,1.632
		c-0.051,0.209-0.124,0.389-0.208,0.596c-0.167,0.41-0.374,0.919-0.542,1.945c-0.234,1.463-0.742,3.328-1.04,4.017
		c-0.35,0.809-1.051,1.894-1.875,2.904c-0.784,0.962-1.371,1.459-1.481,1.549c-0.508,0.417-0.784,1.217-0.899,1.635
		c-0.026-0.003-0.054-0.005-0.082-0.005c-0.01,0-0.072,0.004-0.083,0.005c-0.097,0.012-0.188,0.059-0.277,0.104
		c-0.023,0.012-0.054,0.028-0.083,0.041c-0.044-0.106-0.094-0.269-0.13-0.386c-0.042-0.139-0.082-0.261-0.113-0.347
		c-0.003-0.119-0.024-0.259-0.224-0.417c-0.056-0.044-0.069-0.064-0.069-0.084c-0.005-0.043-0.012-0.093-0.04-0.188
		c-0.03-0.117-0.063-0.247-0.227-0.351c0.139-0.118,0.293-0.275,0.332-0.314c0.086-0.088,0.095-0.226,0.02-0.325
		c-0.058-0.075-0.147-0.11-0.241-0.095c-0.01-0.039-0.018-0.078-0.022-0.105c-0.019-0.135-0.146-0.207-0.279-0.197
		c-0.021,0.003-0.041,0.008-0.06,0.016c0.06-0.146,0.101-0.287,0.058-0.437c-0.055-0.146-0.132-0.297-0.132-0.297
		c-0.056-0.107-0.18-0.161-0.296-0.124l-0.114,0.035c-0.064-0.177-0.146-0.279-0.158-0.293c-0.065-0.078-0.174-0.108-0.269-0.077
		c-0.097,0.031-0.166,0.118-0.173,0.22c-0.016,0.218-0.038,0.46-0.062,0.663c-0.002-0.004-0.004-0.009-0.007-0.013
		c-0.08-0.16-0.254-0.429-0.52-0.429c-0.131,0-0.315,0.065-0.449,0.375c-0.166,0.384-0.241,0.828-0.29,1.122
		c-0.001,0.006-0.002,0.012-0.003,0.018c-0.011,0-0.022,0.001-0.033,0.003c-0.001-0.007-0.002-0.014-0.003-0.021
		c-0.049-0.294-0.124-0.738-0.291-1.122c-0.133-0.311-0.317-0.375-0.449-0.375c-0.266,0-0.439,0.269-0.518,0.425
		c-0.003,0.006-0.006,0.011-0.009,0.017c-0.023-0.203-0.046-0.445-0.062-0.663c-0.007-0.102-0.076-0.188-0.173-0.22
		c-0.093-0.03-0.203,0-0.269,0.077c-0.012,0.014-0.093,0.115-0.157,0.293l-0.114-0.035c-0.115-0.037-0.24,0.016-0.295,0.124
		c0,0-0.079,0.152-0.139,0.316c-0.036,0.128,0,0.26,0.055,0.397c-0.017-0.006-0.034-0.01-0.053-0.012
		c-0.128-0.016-0.258,0.079-0.277,0.214c-0.004,0.027-0.012,0.066-0.021,0.104c-0.091-0.015-0.184,0.019-0.242,0.096
		c-0.075,0.098-0.066,0.237,0.02,0.325c0.039,0.04,0.198,0.201,0.339,0.32c-0.168,0.089-0.203,0.227-0.241,0.376
		c-0.02,0.063-0.026,0.113-0.032,0.177c0,0.001-0.013,0.02-0.068,0.064c-0.201,0.159-0.222,0.299-0.227,0.444
		c-0.029,0.061-0.069,0.182-0.111,0.321c-0.036,0.116-0.085,0.276-0.131,0.385c-0.029-0.013-0.06-0.029-0.083-0.041
		c-0.088-0.045-0.18-0.092-0.272-0.104c-0.012-0.001-0.075-0.006-0.086-0.006c-0.028,0-0.056,0.002-0.082,0.005
		c-0.115-0.417-0.392-1.218-0.9-1.635c-0.11-0.09-0.696-0.586-1.48-1.55c-0.824-1.008-1.524-2.094-1.875-2.904
		c-0.297-0.689-0.805-2.553-1.041-4.018c-0.167-1.026-0.375-1.536-0.541-1.945c-0.084-0.208-0.157-0.386-0.208-0.595
		c-0.115-0.479-0.395-1.122-0.619-1.637c-0.091-0.209-0.171-0.394-0.225-0.532c-0.047-0.123-0.119-0.299-0.2-0.499
		c-0.175-0.427-0.5-1.221-0.508-1.371c0.022-0.229-0.07-0.373-0.177-0.539c-0.052-0.081-0.116-0.18-0.186-0.318
		c-0.148-0.3-0.367-1.008-0.512-1.476l-0.212-0.68c-0.141-0.455-0.334-1.076-0.475-1.563c-0.086-0.302-0.212-0.583-0.333-0.854
		c-0.132-0.296-0.257-0.576-0.288-0.803c-0.02-0.133,0.098-0.477,0.202-0.78c0.039-0.113,0.079-0.23,0.117-0.348
		c0.061-0.186,0.115-0.376,0.165-0.552c0.069-0.243,0.134-0.473,0.187-0.581c0.176-0.35,0.466-1.303,0.723-2.169l0.103-0.343
		c0.067-0.209,0.338-0.866,0.637-1.433c0.18-0.345,0.379-0.638,0.491-0.781l0.158-0.188c0.36-0.425,0.62-0.731,0.542-0.997
		c-0.039-0.161-0.168-0.264-0.33-0.264c-0.15,0-0.296,0.087-0.451,0.179l-0.101,0.059c-0.147,0.083-0.306,0.211-0.447,0.324
		c-0.067,0.054-0.129,0.104-0.185,0.145c-0.157,0.117-0.597,0.484-0.597,0.484c-0.057,0.047-0.053,0.071-0.053,0.145
		c-0.304,0.038-0.602,0.351-0.601,0.619c-0.017,0.102-0.237,0.461-0.389,0.61c-0.137,0.135-0.225,0.233-0.321,0.544
		c-0.073,0.236-0.296,0.479-0.526,0.706c-0.197,0.196-0.278,0.386-0.349,0.554c-0.033,0.078-0.066,0.159-0.115,0.243
		c-0.11,0.188-0.379,0.318-0.516,0.354c-0.163,0.038-0.252,0.138-0.306,0.197l-0.058,0.043c-0.104,0-0.326-0.179-0.662-0.534
		c-0.44-0.458-1.549-1.938-2.287-3.214c-0.714-1.244-1.503-3.052-2.413-5.525c-0.837-2.271-1.132-5.291-1.132-5.857
		c0-0.397,0-1.607,0.374-2.132c0.288-0.395,0.606-0.469,0.886-0.535c0.063-0.015,0.123-0.029,0.179-0.045
		c0.265-0.079,0.425-0.212,0.477-0.396c0.032-0.117,0.031-0.299-0.159-0.508c-0.193-0.21-0.46-0.262-0.718-0.311
		c-0.108-0.021-0.223-0.042-0.342-0.079c-0.322-0.095-0.435-0.21-0.614-0.446c-0.209-0.282-0.48-0.991-0.584-2.772
		c-0.089-1.492-0.022-3.045,0.205-4.749c0.227-1.718,0.528-3.043,0.735-3.89c0.226-0.909,0.344-1.155,0.607-1.478l0.143-0.172
		c0.186-0.22,0.298-0.353,0.298-0.662c0-0.119,0.043-0.172,0.168-0.306l0.084-0.092c0.077-0.087,0.258-0.29,0.165-0.5
		c-0.031-0.07-0.116-0.187-0.331-0.187c-0.172,0-0.336,0.108-0.495,0.213c-0.062,0.041-0.12,0.081-0.17,0.103
		C55,8.926,54.959,8.935,54.919,8.959c-0.035-0.099-0.011-0.572,0.063-0.761c0.04-0.096,0.257-0.302,0.436-0.435
		c0.099-0.073,0.129-0.209,0.071-0.319c-0.004-0.008-0.008-0.017-0.012-0.026c0.263-0.094,0.288-0.254,0.262-0.374
		c-0.024-0.108-0.116-0.187-0.226-0.195c0.1-0.073,0.153-0.134,0.192-0.18c0.015-0.018,0.028-0.034,0.036-0.042
		c0.02-0.01,0.083-0.019,0.127-0.02c0.088,0,0.169-0.047,0.214-0.123c0.045-0.077,0.051-0.222,0.006-0.299
		c-0.025-0.044-0.106-0.159-0.323-0.144c0-0.009,0-0.017,0-0.024c0.03-0.017,0.069-0.037,0.11-0.059
		c0.319-0.171,0.512-0.274,0.512-0.479c0-0.124-0.089-0.228-0.21-0.247c0,0-0.112-0.017-0.223-0.032c0-0.006,0-0.011,0-0.012
		c0.014-0.021,0.041-0.05,0.069-0.082c0.12-0.136,0.277-0.314,0.237-0.501c0.017-0.127,0.074-0.37,0.21-0.505
		c0.058-0.059,0.125-0.131,0.198-0.21c0.205-0.222,0.514-0.557,0.7-0.627c0.374-0.13,0.493-0.287,0.526-0.348
		c0.026-0.046,0.036-0.1,0.029-0.152l-0.017-0.135c-0.013-0.099-0.083-0.181-0.179-0.209c-0.053-0.015-0.433-0.131-1.175,0.176
		c-0.711,0.293-1.231,0.779-1.481,1.012c-0.273,0.255-0.953,1.127-1.242,1.789c-0.289,0.666-1.019,2.956-1.413,4.284
		c-0.402,1.353-0.842,3.166-1.239,5.106c-0.321,1.572-0.414,2.348-0.541,3.422l-0.068,0.566c-0.15,1.212-0.157,1.375-0.167,1.622
		l-0.005,0.12c-0.008,0.173-0.008,0.346-0.008,0.512c0,0.158,0,0.309-0.007,0.443c-0.005,0.076-0.021,0.152-0.041,0.244
		c-0.05,0.246-0.126,0.618-0.114,1.333c0.008,0.39,0.004,0.809,0,1.246c-0.006,0.671-0.013,1.366,0.02,2.071
		c0.023,0.568,0.051,0.874,0.072,1.105c0.021,0.236,0.036,0.39,0.028,0.683c-0.015,0.525-0.003,0.663,0.056,1.322l0.031,0.344
		c0.05,0.602,0.095,0.831,0.134,1.032c0.024,0.123,0.046,0.232,0.065,0.425c0.018,0.173,0.178,1.729,0.393,2.876
		c0.113,0.598,0.177,0.823,0.229,1.003c0.033,0.116,0.061,0.213,0.095,0.394c0.065,0.369,0.163,0.57,0.227,0.702
		c0.02,0.041,0.037,0.075,0.049,0.113c0.046,0.136,0.434,1.673,0.643,2.5l0.029,0.115c0.141,0.559,0.35,1.192,0.535,1.752
		c0.127,0.384,0.238,0.718,0.292,0.933c0.094,0.366,0.277,0.768,0.424,1.091c0.072,0.159,0.136,0.299,0.175,0.405
		c0.062,0.169,0.088,0.416,0.118,0.701c0.02,0.186,0.041,0.384,0.073,0.586c0.06,0.372,0.308,1.005,0.572,1.676
		c0.127,0.324,0.252,0.644,0.35,0.92c0.218,0.605,0.666,1.686,1.024,2.555l0.335,0.814c0.351,0.871,1.008,2.831,1.206,3.521
		c0.065,0.225,0.165,0.549,0.279,0.922c0.242,0.788,0.543,1.769,0.737,2.516c0.111,0.443,0.562,1.954,0.936,3.052
		c0.419,1.236,0.83,2.319,1.051,2.9c0.079,0.207,0.136,0.357,0.165,0.439c0.2,0.564,1.302,3.734,1.377,4.03
		c0.026,0.103,0.018,0.133-0.004,0.148c-0.097,0.06-0.515,0.182-0.821,0.271l-0.08,0.023c-0.225,0.066-0.426,0.161-0.588,0.236
		c-0.133,0.062-0.258,0.121-0.369,0.134c-0.104,0-0.319-0.029-0.761-0.166c-0.219-0.067-0.959-0.221-1.5-0.333l-0.383-0.08
		c-0.438-0.089-1.452-0.22-1.968-0.24l-0.109-0.001c-0.379,0-0.64,0.06-0.812,0.099l-0.113,0.025
		c-0.043,0.008-0.091,0.016-0.137,0.023c-0.011-0.052-0.03-0.103-0.061-0.146c-0.006-0.009-0.013-0.018-0.021-0.026
		c0.008-0.064,0.004-0.14-0.044-0.201c-0.009-0.023-0.013-0.054-0.019-0.087c-0.016-0.083-0.033-0.178-0.08-0.263
		c-0.047-0.085-0.137-0.137-0.235-0.129c-0.097,0.006-0.182,0.068-0.217,0.159c-0.006,0.016-0.062,0.165-0.101,0.406
		c-0.001,0.006-0.001,0.013-0.002,0.02c-0.003-0.044-0.005-0.077-0.005-0.095c-0.007-0.167-0.087-0.258-0.135-0.312
		c-0.037-0.042-0.065-0.074-0.089-0.201c-0.053-0.247-0.221-0.341-0.322-0.397c-0.026-0.015-0.062-0.035-0.071-0.047
		c-0.037-0.055-0.065-0.131-0.09-0.199c-0.028-0.076-0.053-0.145-0.095-0.201c-0.008-0.029-0.015-0.069-0.023-0.11
		c-0.019-0.097-0.039-0.196-0.093-0.325c-0.027-0.078-0.1-0.286-0.394-0.286c-0.073,0-0.156,0.016-0.227,0.076
		c-0.001-0.009-0.002-0.018-0.003-0.026c-0.013-0.102-0.031-0.241-0.104-0.399l-0.101-0.207c-0.038-0.078-0.057-0.114-0.069-0.173
		c0.001-0.085,0.005-0.302-0.2-0.435c0.002-0.018,0.005-0.038,0.008-0.054c0.01-0.062,0.022-0.133,0.012-0.204
		c-0.023-0.182-0.128-0.27-0.19-0.322c0,0-0.001-0.001-0.003-0.003c0.008-0.084,0.016-0.23-0.085-0.376
		c-0.074-0.109-0.262-0.215-0.543-0.182c-0.033,0.004-0.066,0.009-0.074,0.022c-0.021-0.02-0.05-0.1-0.066-0.143
		c-0.014-0.037-0.027-0.071-0.037-0.093c-0.012-0.033-0.029-0.152-0.04-0.23c-0.022-0.159-0.045-0.323-0.094-0.445
		c-0.037-0.089-0.072-0.217-0.105-0.332c-0.027-0.097-0.053-0.187-0.078-0.254c-0.056-0.14-0.193-0.423-0.193-0.423
		c-0.051-0.104-0.168-0.161-0.281-0.134c-0.079,0.018-0.143,0.073-0.173,0.144c-0.088,0.003-0.15,0.038-0.193,0.087
		c-0.086-0.294-0.152-0.664-0.14-0.811c0.011-0.139,0.024-0.49-0.089-0.749c-0.119-0.253-0.303-0.554-0.509-0.554
		c-0.138,0-0.259,0.129-0.259,0.268c0,0.057,0.016,0.163,0.036,0.276c0.001,0.005,0.001,0.01,0.002,0.015
		c-0.064-0.104-0.145-0.249-0.207-0.358c-0.091-0.162-0.181-0.321-0.249-0.424c-0.163-0.239-0.628-0.99-0.836-1.365
		c-0.192-0.353-0.61-1.3-0.694-1.529c-0.075-0.188-0.134-0.415-0.171-0.655c-0.035-0.237-0.137-0.329-0.228-0.347
		c-0.001-0.024,0.016-0.091,0.027-0.131c0.013-0.05,0.025-0.098,0.031-0.139c0.006-0.044,0.06-0.153,0.112-0.258l0.101-0.21
		c0.089-0.186,0.203-0.279,0.479-0.367c0.085,0,0.19,0.083,0.226,0.121c0.084,0.094,0.225,0.111,0.327,0.039
		c0.104-0.071,0.139-0.208,0.082-0.319c-0.008-0.017-0.085-0.165-0.249-0.365c-0.192-0.231-0.473-0.314-0.813-0.275
		c-0.261,0.028-0.607,0.397-0.718,0.583c-0.136,0.221-0.212,0.487-0.263,0.697l-0.226-0.252c-0.085-0.095-0.229-0.111-0.333-0.035
		c-0.104,0.075-0.134,0.217-0.069,0.328c0.001,0.001,0.065,0.112,0.111,0.202c0.048,0.098,0.115,0.247,0.182,0.399
		c0.002,0.004,0.004,0.009,0.007,0.014c-0.075-0.005-0.146-0.031-0.188-0.069c-0.126-0.112-0.425-0.306-0.7-0.39
		c-0.297-0.083-0.486-0.042-0.486-0.043c-0.072,0.013-0.14,0.057-0.177,0.121l-0.081,0.137c-0.049,0.084-0.045,0.188,0.01,0.269
		c0.056,0.08,0.149,0.121,0.248,0.104c0.005,0,0.082-0.014,0.147-0.014c0.006,0.001,0.067,0.013,0.24,0.126
		c0.13,0.09,0.439,0.291,0.71,0.367c0.002,0.035,0.006,0.076,0.012,0.123c0.033,0.226,0.163,0.367,0.277,0.491
		c0.054,0.058,0.112,0.121,0.167,0.203c0.059,0.087,0.18,0.249,0.327,0.445c0.276,0.369,0.655,0.873,0.849,1.198
		c0.184,0.306,0.451,0.702,0.693,1.06c0.16,0.236,0.309,0.456,0.41,0.616c0.228,0.367,0.258,0.492,0.323,0.754
		c0.074,0.304,0.33,0.544,0.482,0.688l0.057,0.054c0.061,0.062,0.216,0.374,0.279,0.575c-0.027-0.005-0.054-0.006-0.082-0.003
		c-0.125,0.016-0.218,0.123-0.218,0.248c0,0.03,0.005,0.192,0.118,0.398c0.116,0.204,0.265,0.422,0.491,0.498
		c0.027,0.01,0.061,0.069,0.091,0.121l0.053,0.088c0.046,0.067,0.108,0.121,0.18,0.184c0.081,0.07,0.172,0.15,0.244,0.252
		c0.097,0.142,0.167,0.394,0.207,0.544c-0.062-0.009-0.123,0.004-0.176,0.04c-0.102,0.068-0.139,0.199-0.089,0.311l0.088,0.192
		c0.067,0.134,0.167,0.279,0.444,0.431c0.122,0.065,0.158,0.102,0.223,0.169c0.033,0.034,0.07,0.072,0.118,0.115l0.114,0.104
		c0.211,0.192,0.283,0.256,0.399,0.442c0.051,0.08,0.086,0.154,0.107,0.219c-0.048,0.001-0.096,0.016-0.137,0.044
		c-0.094,0.065-0.132,0.186-0.092,0.293l0.131,0.349c0.127,0.371,0.256,0.463,0.561,0.654c0.113,0.07,0.125,0.12,0.156,0.32
		c0.01,0.061,0.02,0.126,0.036,0.197c0.065,0.288,0.26,0.406,0.403,0.493c0.049,0.03,0.094,0.057,0.135,0.098
		c-0.013,0.008-0.026,0.016-0.038,0.022l-0.091,0.055c-0.119,0.078-0.358,0.271-0.576,0.449c-0.121,0.098-0.235,0.19-0.314,0.252
		c-0.105,0.08-0.217,0.16-0.335,0.244c-0.13,0.092-0.266,0.188-0.403,0.293c-0.118,0.087-0.266,0.222-0.43,0.374
		c-0.221,0.204-0.472,0.435-0.718,0.604c-0.354,0.247-0.637,0.523-0.865,0.746l-0.444,0.425c-0.293,0.281-0.68,0.65-0.857,0.804
		c-0.252,0.218-0.498,0.464-0.608,0.612c-0.012,0.016-0.012,0.016-0.062,0.029c-0.048,0.013-0.114,0.031-0.187,0.074
		c-0.056,0.033-0.157,0.077-0.265,0.125c-0.117,0.051-0.24,0.106-0.339,0.158c-0.19,0.104-0.537,0.331-0.715,0.454
		c-0.065,0.046-0.117,0.089-0.167,0.132c-0.077,0.065-0.138,0.117-0.255,0.173c-0.029-0.009-0.093-0.085-0.159-0.162
		c-0.023-0.028-0.044-0.072-0.067-0.124c-0.037-0.082-0.083-0.182-0.167-0.279c-0.128-0.149-0.262-0.182-0.322-0.183
		c-0.035-0.034-0.097-0.117-0.18-0.225c-0.099-0.129-0.222-0.29-0.361-0.455c-0.109-0.129-0.263-0.304-0.42-0.482
		c-0.25-0.285-0.509-0.578-0.602-0.705c-0.188-0.248-0.399-0.358-0.542-0.407l-0.087-0.012c-0.025-0.042-0.067-0.095-0.124-0.166
		c-0.063-0.08-0.15-0.187-0.254-0.337c-0.161-0.232-0.445-0.452-0.696-0.646c-0.114-0.089-0.221-0.171-0.298-0.243
		c-0.183-0.171-0.405-0.293-0.627-0.343l-0.001,0.006c-0.023-0.009-0.048-0.015-0.073-0.017c-0.034-0.003-0.08-0.007-0.078,0.013
		c-0.055-0.13-0.121-0.278-0.337-0.495c-0.189-0.187-0.588-0.531-0.812-0.724c-0.136-0.112-0.275-0.162-0.423-0.15
		c-0.006-0.04-0.01-0.087-0.01-0.128c0-0.024-0.004-0.049-0.011-0.073c-0.011-0.036-0.07-0.218-0.186-0.366
		c-0.029-0.036-0.12-0.144-0.133-0.154c0.069-0.261-0.104-0.464-0.125-0.487c-0.042-0.046-0.111-0.072-0.181-0.077
		c0.003-0.014,0.006-0.026,0.009-0.036c0.132-0.102,0.124-0.26,0.119-0.349c-0.002-0.045-0.006-0.103,0.001-0.181
		c0.013-0.161,0.059-0.263,0.059-0.263c0.058-0.119,0.014-0.262-0.102-0.327c-0.007-0.004-0.014-0.008-0.021-0.011
		c0.097-0.072,0.218-0.161,0.404-0.23c0.465-0.165,0.576-0.44,0.593-0.494c0.015-0.047,0.016-0.099,0.002-0.146l-0.049-0.172
		c-0.022-0.077-0.079-0.138-0.153-0.166c-0.075-0.027-0.157-0.019-0.224,0.025l-0.123,0.081c-0.021,0.01-0.091,0.025-0.142,0.037
		c-0.073,0.016-0.152,0.034-0.252,0.06c-0.063,0-0.119-0.028-0.126-0.028c0-0.008,0.01-0.039,0.048-0.088
		c0.03-0.035,0.162-0.108,0.241-0.152c0.057-0.032,0.115-0.063,0.163-0.093c0.216-0.127,0.369-0.397,0.397-0.45
		c0.02-0.037,0.03-0.077,0.03-0.119v-0.201c0-0.081-0.04-0.157-0.106-0.204c-0.066-0.047-0.15-0.057-0.228-0.032
		c-0.018,0.006-0.173,0.062-0.297,0.148c-0.119,0.083-0.366,0.274-0.518,0.431c-0.046,0.044-0.09,0.076-0.138,0.101
		c0.05-0.044,0.083-0.102,0.117-0.158c0.035-0.06,0.083-0.142,0.127-0.162c0.212-0.096,0.442-0.216,0.728-0.534
		c0.152-0.174,0.195-0.337,0.128-0.485c-0.104-0.229-0.392-0.229-0.487-0.229c-0.062,0-0.129,0.004-0.199,0.011
		c-0.31,0.035-0.47,0.191-0.625,0.343c-0.044,0.043-0.092,0.09-0.151,0.14c-0.29,0.253-0.47,0.759-0.411,1.134
		c-0.017,0.091-0.045,0.279-0.029,0.433c0.014,0.142,0.062,0.261,0.1,0.356c0.017,0.042,0.034,0.083,0.043,0.115
		c0.022,0.095,0.053,0.43,0.077,0.831c0.014,0.272,0.047,0.388,0.086,0.501l0.022,0.071c0.025,0.081,0.025,0.081,0.025,0.227
		c0,0.147,0.054,0.259,0.093,0.341c0.021,0.042,0.038,0.079,0.055,0.104c-0.008,0.011-0.045,0.069-0.051,0.081
		c-0.088,0.169,0.015,0.329,0.135,0.514c0.045,0.07,0.096,0.147,0.133,0.224c0.207,0.404,0.331,0.552,0.493,0.585
		c0.007,0.001,0.019,0.004,0.032,0.007c-0.016,0.163-0.011,0.399,0.193,0.581c0.073,0.062,0.315,0.237,0.557,0.41
		c0.216,0.154,0.431,0.308,0.515,0.376c0.051,0.04,0.11,0.08,0.168,0.12c0.078,0.053,0.208,0.143,0.227,0.168
		c0.066,0.185,0.176,0.25,0.292,0.318c0.035,0.021,0.076,0.045,0.126,0.078c0.76,0.508,1.608,1.113,1.691,1.204
		c0.035,0.156,0.07,0.317,0.291,0.512c0.075,0.068,0.323,0.28,0.597,0.514c0.34,0.29,0.721,0.615,0.853,0.735
		c0.242,0.227,0.474,0.551,0.498,0.646c0.049,0.227,0.289,0.404,0.522,0.576l0.142,0.107c0.111,0.086,0.218,0.125,0.314,0.148
		c0.04,0.595,0.344,0.724,0.598,0.724c0.105,0,0.218-0.023,0.346-0.072c0.78-0.301,1.075-0.73,1.449-1.273l0.085-0.124
		c0.207-0.302,0.555-0.633,0.891-0.953c0.282-0.27,0.575-0.548,0.787-0.813c0.332-0.416,2.375-2.089,3.248-2.804
		c0.275-0.226,0.457-0.375,0.478-0.396c0.042-0.039,0.186-0.115,0.228-0.142l0.031,0.094c0.094,0.287,0.168,0.514,0.329,0.681
		c0.089,0.1,0.498,0.936,0.598,1.84c0.084,0.818,0.42,2.063,0.69,3.064L54.07,75.7c0.298,1.109,0.584,2.16,0.818,2.824
		c0.23,0.651,0.598,1.786,1.039,3.493c0.113,0.432,0.217,0.899,0.321,1.367c0.096,0.434,0.193,0.866,0.296,1.271
		c0.203,0.822,0.436,1.524,0.538,1.832l0.044,0.137c0.152,0.475,0.361,1.125,0.771,1.384c0.037,0.023,0.062,0.041,0.077,0.054
		c0,0.001,0,0.001,0,0.002c-0.021,0.086-0.055,0.229-0.023,0.448c0.094,0.623,0.579,0.857,1.701,1.179
		c0.357,0.104,1.384,0.337,2.122,0.473c1.336,0.242,2.725,0.428,3.229,0.492c0.034,0.307,0.1,0.903,0.149,1.294
		c0.041,0.317-0.061,0.547-0.168,0.789c-0.049,0.112-0.096,0.219-0.127,0.323c-0.052,0.169-0.072,0.329-0.095,0.499
		c-0.026,0.203-0.056,0.433-0.147,0.755c-0.053,0.193-0.099,0.439,0.015,0.629c0.107,0.181,0.292,0.224,0.456,0.262
		c0.06,0.015,0.125,0.029,0.193,0.054c0.11,0.039,0.208,0.082,0.3,0.122c0.23,0.102,0.448,0.196,0.734,0.196
		c0.158,0,0.418-0.027,0.672-0.056c0.192-0.021,0.381-0.042,0.532-0.047c0.009,0.052,0.035,0.1,0.074,0.137
		c0.064,0.06,0.156,0.084,0.239,0.059c0.001,0,0.153-0.052,0.294-0.033c-0.002,0.114-0.052,0.324-0.079,0.435l-0.015,0.059
		c-0.012-0.003-0.024-0.006-0.035-0.008c-0.158-0.036-0.367-0.006-0.537,0.081c-0.054,0.027-0.144,0.072-0.142,0.086
		c-0.205-0.153-0.571-0.319-0.891-0.319l-0.271-0.001c-0.306,0-0.771,0.005-1.285,0.046c-0.903,0.075-1.282,0.658-1.533,1.22
		c-0.176,0.397-0.238,0.809-0.304,1.243c-0.026,0.173-0.053,0.354-0.09,0.546c-0.042,0.007-0.105,0.011-0.15,0.015
		c-0.127,0.009-0.284,0.021-0.44,0.074c-0.139,0.051-0.277,0.086-0.45,0.131c-0.218,0.057-0.488,0.127-0.869,0.251
		c-0.39,0.126-0.819,0.223-1.197,0.308c-0.294,0.066-0.555,0.126-0.744,0.186c-0.445,0.14-0.593,0.25-0.793,0.399
		c-0.217,0.157-0.252,0.295-0.218,0.456c-0.018,0.021-0.101,0.076-0.167,0.12c-0.07,0.045-0.151,0.099-0.242,0.164
		c-0.317,0.222-0.692,0.812-1.115,1.506l-0.06,0.098c-0.142,0.233-0.371,0.669-0.638,1.18c-0.335,0.639-0.715,1.362-1.068,1.966
		c-0.15,0.255-0.378,0.688-0.646,1.197c-0.375,0.712-0.841,1.599-1.275,2.332c-0.478,0.807-0.952,1.407-1.131,1.633l-0.08,0.102
		c-0.191,0.262-0.24,0.392-0.29,0.558c-0.024,0.055-0.172,0.242-0.317,0.403c-0.079,0.087-0.086,0.219-0.017,0.313
		c0.07,0.096,0.196,0.131,0.304,0.082c0,0,0.096-0.043,0.22-0.119l-0.158,0.291c-0.22,0.406-0.483,0.894-0.537,0.989
		c-0.113,0.192-0.128,0.433-0.047,0.713c0.033,0.119,0.021,0.168-0.012,0.218c-0.034,0.049-0.183,0.178-0.292,0.271
		c-0.123,0.105-0.254,0.219-0.357,0.323c-0.24,0.242-0.283,0.37-0.201,0.661c0.038,0.161,0.035,0.272-0.087,0.396
		c-0.13,0.131-0.292,0.26-0.448,0.385c-0.111,0.089-0.219,0.176-0.313,0.26c-0.239,0.216-0.333,0.389-0.333,0.617
		c0,0.029,0.003,0.065,0.007,0.106c0.012,0.126,0.017,0.222-0.044,0.301c-0.086,0.112-0.266,0.265-0.41,0.386
		c-0.084,0.071-0.162,0.137-0.224,0.196c-0.182,0.185-0.408,0.413-0.408,0.698c0,0.162,0,0.211-0.114,0.374
		c-0.081,0.118-0.262,0.411-0.453,0.72c-0.175,0.283-0.358,0.581-0.479,0.766c-0.148,0.227-0.384,0.518-0.573,0.751
		c-0.13,0.161-0.244,0.302-0.309,0.396c-0.08,0.119-0.385,0.484-0.607,0.751c-0.175,0.21-0.323,0.388-0.351,0.43
		c-0.05,0.074-0.064,0.15-0.062,0.22c-0.091,0.037-0.201,0.088-0.327,0.151c-0.045,0.022-0.082,0.045-0.117,0.067
		c-0.013,0.009-0.024,0.016-0.035,0.021c0.013-0.028,0.027-0.057,0.042-0.08l0.238-0.355c0.073-0.109,0.049-0.257-0.056-0.337
		c-0.105-0.081-0.253-0.064-0.34,0.033l-0.253,0.29c-0.17,0.194-0.267,0.663-0.176,0.891c0.099,0.218,0.304,0.317,0.617,0.26
		c0.175-0.037,0.37-0.168,0.554-0.3l0.036-0.026c0.022,0,0.11,0.006,0.326,0.072l-0.021,0.1c-0.048,0.179-0.09,0.407,0.012,0.85
		c0.086,0.381,0.37,0.41,0.454,0.41c0.281,0,0.56-0.256,0.613-0.308c0.02-0.02,0.037-0.042,0.049-0.067l0.228-0.451
		c0.058-0.115,0.019-0.256-0.09-0.324c-0.108-0.067-0.252-0.043-0.332,0.06c-0.078,0.103-0.188,0.242-0.278,0.35
		c-0.008-0.105-0.008-0.235,0.003-0.319c0.02-0.139-0.006-0.231-0.031-0.307c0.34-0.022,0.384-0.371,0.398-0.488
		c0.004-0.035,0.011-0.089,0.02-0.109c0.065-0.156,0.267-0.583,0.491-1.049c0.326-0.681,1.259-2.171,1.664-2.735
		c0.104,0.098,0.256,0.146,0.378,0.123c0.244-0.061,0.242-0.321,0.241-0.478c0-0.077-0.001-0.165,0.014-0.237
		c0.032-0.169,0.207-0.588,0.315-0.812c0.019-0.039,0.043-0.083,0.07-0.131c0.052,0.068,0.17,0.127,0.252,0.127
		c0.113,0,0.231-0.053,0.357-0.107c0.049-0.021,0.097-0.044,0.125-0.052c0.394-0.092,0.333-0.6,0.301-0.854
		c-0.017-0.141-0.012-0.318,0.14-0.663c0.092-0.206,0.18-0.378,0.255-0.511c0,0.083-0.022,0.198-0.043,0.271
		c-0.034,0.113,0.016,0.234,0.118,0.291c0.106,0.056,0.232,0.035,0.309-0.054c0.007-0.008,0.174-0.199,0.316-0.441
		c0.182-0.306,0.129-0.67,0.055-1.175c-0.038-0.263,0.013-0.36,0.097-0.522c0.041-0.077,0.082-0.159,0.12-0.261
		c0.007-0.021,0.015-0.04,0.021-0.055c0.045,0.036,0.082,0.107,0.092,0.138c0.034,0.102,0.128,0.171,0.235,0.172
		c0.001,0,0.001,0,0.002,0c0.106,0,0.201-0.066,0.236-0.167l0.11-0.313c0.009-0.024,0.014-0.051,0.014-0.077
		c0.017-0.694,0.061-1.526,0.103-1.659c0.012-0.036,0.022-0.054,0.025-0.058c0.007,0,0.015,0,0.021,0.001
		c-0.001,0.057-0.007,0.125-0.017,0.187c-0.019,0.127,0.062,0.247,0.187,0.278s0.252-0.036,0.296-0.157
		c0.026-0.074,0.093-0.186,0.122-0.203c0.375-0.099,0.457-0.695,0.457-0.915c0.009-0.169,0.373-1.142,0.587-1.639
		c0.141-0.322,0.7-1.423,1.1-2.003c0.404-0.58,1.667-2.538,1.898-2.917c0.244-0.391,0.512-1.069,0.657-1.436
		c0.072-0.187,0.129-0.309,0.175-0.404c0.06-0.127,0.099-0.217,0.125-0.322c0.039-0.152,0.093-0.16,0.145-0.152
		c0.198,0.018,0.279-0.019,0.344-0.043c0.039-0.015,0.064-0.024,0.147-0.024c0.034,0,0.034,0,0.079,0.032
		c0.118,0.086,0.234,0.183,0.59,0.127c0.481-0.069,0.8-0.203,1.138-0.344l0.137-0.058c0.275-0.111,0.868-0.222,1.3-0.303
		l0.346-0.066c0.144-0.028,0.268-0.048,0.37-0.061c-0.107,0.657-0.32,2.26-0.287,4.394c0.045,2.536,0.471,4.635,0.725,5.889
		l0.07,0.345c0.171,0.871,0.327,1.769,0.391,2.148c-0.267,0.125-0.776,0.365-1.053,0.513c-0.224,0.119-0.516,0.29-0.824,0.471
		c-0.221,0.129-0.451,0.264-0.669,0.387c-0.56,0.319-1.268,0.85-1.522,1.062c-0.283,0.236-0.26,0.46-0.238,0.676
		c0.009,0.087,0.02,0.193,0.014,0.332c-0.008,0.161-0.025,0.193-0.03,0.186c-0.053,0.024-0.134,0.061-0.223,0.14
		c-0.327,0.286-0.438,1.378-0.471,1.834c-0.047,0.668-0.069,3.229-0.069,3.915c0,0.238-0.01,0.764-0.021,1.383
		c-0.024,1.296-0.055,2.909-0.025,3.342c0.042,0.582-0.308,2.65-0.37,2.889c-0.048,0.179-0.199,0.477-0.253,0.576
		c-0.037,0.068-0.041,0.15-0.008,0.222s0.096,0.124,0.172,0.141c0.105,0.026,0.264,0.009,0.47-0.167c0,0,0.083-0.035,0.205-0.019
		c-0.014,0.124-0.048,0.308-0.074,0.443l-0.023,0.128c-0.019,0.104-0.066,0.229-0.116,0.364c-0.094,0.259-0.202,0.552-0.202,0.831
		c0,0.244,0.064,0.393,0.192,0.444c-0.018,0.139-0.064,0.343-0.11,0.46c-0.024,0.066-0.089,0.203-0.161,0.359
		c-0.159,0.341-0.275,0.595-0.315,0.738c-0.076,0.255,0.017,0.396,0.078,0.491c0.024,0.037,0.043,0.066,0.058,0.108
		c0.037,0.108-0.066,0.243-0.137,0.323c-0.216,0.261-0.283,0.407-0.347,0.548l-0.038,0.083c-0.022,0.042-0.046,0.081-0.07,0.12
		c-0.083,0.135-0.186,0.302-0.207,0.562c-0.01,0.138,0.021,0.247,0.094,0.324c0.042,0.046,0.116,0.1,0.233,0.106
		c-0.01,0.042-0.025,0.097-0.047,0.168c-0.077,0.256-0.343,0.771-0.472,1.006c-0.067,0.119-0.149,0.297-0.086,0.47
		c0.027,0.073,0.089,0.172,0.186,0.19c0.003,0.006,0.08,0.143-0.019,0.753c-0.119,0.735-0.303,1.405-0.548,1.991
		c-0.253,0.606-0.486,1.004-0.734,1.252c-0.255,0.256-0.257,0.449-0.23,0.718c0.009,0.084,0.009,0.084-0.164,0.236
		c-0.097,0.084-0.238,0.135-0.377,0.135c-0.036,0-0.069-0.004-0.091-0.005c-0.015-0.015-0.035-0.073-0.038-0.114
		c-0.008-0.126-0.109-0.226-0.235-0.232c-0.139-0.022-0.237,0.081-0.26,0.204c0,0-0.028,0.155-0.028,0.339
		c0,0.461,0.242,0.66,0.446,0.746c0.333,0.137,0.644-0.09,0.847-0.275l0.093-0.084c0.083-0.075,0.138-0.077,0.122-0.082
		c0.078,0.023,0.156,0.006,0.218-0.04c0.063-0.047,0.1-0.121,0.101-0.199c0-0.032,0.004-0.069,0.011-0.103
		c0.005,0.004,0.011,0.008,0.017,0.013c-0.004,0.09-0.066,0.292-0.144,0.459c-0.015,0.032-0.023,0.069-0.023,0.105v0.157
		c0,0.106,0.068,0.201,0.168,0.236c0.101,0.033,0.212,0.002,0.278-0.082c0.072-0.093,0.198-0.266,0.226-0.381
		c0.011-0.04,0.028-0.147,0.045-0.27c0.019-0.137,0.038-0.297,0.058-0.354c0.016-0.038,0.048-0.086,0.082-0.142
		c0.064-0.104,0.145-0.233,0.192-0.364c0.063-0.174,0.277-0.78,0.354-1.268c0.036-0.256,0.104-0.548,0.168-0.82
		c0.048-0.206,0.093-0.402,0.123-0.567l0.055-0.31c0.078-0.436,0.175-0.977,0.195-1.197c0.019-0.233,0.147-0.711,0.174-0.768
		c0.14-0.105,0.19-0.31,0.19-0.452c0-0.122-0.032-0.226-0.095-0.301c-0.002-0.084,0.031-0.273,0.051-0.392l0.017-0.1
		c0.012-0.079,0.024-0.154,0.036-0.225c0.005,0.006,0.01,0.012,0.015,0.017c0.103,0.11,0.327,0.193,0.515-0.094
		c0.126-0.188,0.142-0.581,0.097-0.78c-0.023-0.104-0.065-0.183-0.125-0.236c-0.024-0.077-0.061-0.317-0.064-0.812
		c0.003,0.005,0.005,0.009,0.008,0.014c0.056,0.096,0.173,0.294,0.374,0.294c0.254,0,0.311-0.271,0.334-0.386
		c0.005-0.025,0.009-0.051,0.018-0.077c0.036-0.116,0.021-0.243,0.005-0.391c-0.013-0.115-0.03-0.255-0.02-0.409
		c0.012-0.185,0.019-0.441,0.025-0.698c0.005-0.215,0.011-0.431,0.02-0.601c0.058,0.011,0.122,0,0.174-0.032
		c0.079-0.048,0.125-0.135,0.12-0.227l-0.044-0.881c-0.019-0.35-0.08-0.466-0.209-0.573c-0.019-0.059-0.021-0.281-0.023-0.43
		c-0.002-0.155-0.004-0.315-0.018-0.454c0.02,0.002,0.039,0.005,0.056,0.009c0.012,0.068,0.012,0.198,0.012,0.289
		c0,0.345,0.214,0.437,0.34,0.437c0.093,0,0.176-0.041,0.233-0.105c0.006,0.001,0.011,0.002,0.016,0.004
		c0.082,0.019,0.169,0,0.231-0.058c0.062-0.057,0.092-0.142,0.079-0.225c-0.001-0.011-0.176-1.085-0.27-2.012
		c-0.051-0.545-0.048-1.363-0.046-2.086c0.001-0.519,0.003-0.999-0.015-1.326c-0.041-0.73,0.051-1.79,0.085-2.193
		c0.009-0.104,0.025-0.259,0.043-0.423c0.032-0.303,0.067-0.637,0.067-0.77c0-0.046,0.005-0.14,0.012-0.268
		c0.023-0.435,0.066-1.243,0.014-1.892c-0.048-0.603-0.124-0.859-0.179-1.047c-0.02-0.067-0.037-0.123-0.048-0.196
		c-0.098-0.522-0.083-0.733-0.047-0.841c0.012-0.009,0.06-0.022,0.095-0.032c0.062-0.018,0.127-0.037,0.212-0.077
		c0.057-0.032,0.096-0.072,0.125-0.102l0.066-0.019c0.066,0.031,0.203,0.086,0.478,0.008c0.42-0.123,1.165-0.616,1.169-0.619
		c0.172-0.104,1.73-0.569,2.059-0.614l0.061-0.009c0.007,0.027,0.015,0.062,0.025,0.105c0.099,0.42,0.332,1.404,0.67,2.459
		c0.491,1.541,1,2.778,1.604,3.893c0.549,1,1.1,1.783,1.901,2.702c0.473,0.535,1.264,1.083,1.736,1.41l0.38,0.269
		c0.607,0.432,0.887,0.625,1.014,0.668c0.082,0.028,0.166,0.029,0.246,0.03c0.039-0.002,0.104,0,0.098-0.024
		c0.109,0.312,0.454,0.464,1.269,0.759c0.427,0.155,0.694,0.237,0.925,0.308c0.169,0.052,0.318,0.098,0.5,0.163
		c0.376,0.139,0.906,0.153,1.116,0.153l0.081-0.001c0.069-0.002,0.134-0.033,0.18-0.084c0.013-0.016,0.024-0.031,0.033-0.049
		c0.009,0.018,0.021,0.034,0.034,0.049c0.046,0.052,0.111,0.082,0.18,0.084l0.081,0.001c0.21,0,0.74-0.015,1.116-0.152
		c0.183-0.067,0.332-0.112,0.501-0.164c0.23-0.071,0.497-0.152,0.923-0.308c0.819-0.296,1.163-0.448,1.235-0.725
		c0.021-0.009,0.091-0.01,0.132-0.01c0.081-0.001,0.164-0.002,0.243-0.029c0.129-0.043,0.407-0.236,1.01-0.665l0.387-0.272
		c0.473-0.327,1.264-0.875,1.737-1.411c0.799-0.916,1.35-1.699,1.901-2.702c0.604-1.116,1.113-2.353,1.603-3.892
		c0.34-1.058,0.572-2.043,0.671-2.463c0.01-0.041,0.018-0.075,0.024-0.102l0.061,0.009c0.329,0.045,1.888,0.51,2.057,0.612
		c0.007,0.005,0.752,0.498,1.175,0.622c0.267,0.071,0.408,0.022,0.475-0.009l-0.073-0.241c0,0,0,0,0,0l0.139,0.26
		c0.028,0.029,0.067,0.069,0.143,0.111c0.067,0.03,0.132,0.05,0.194,0.067c0.035,0.01,0.083,0.023,0.102,0.055
		c0.03,0.085,0.044,0.296-0.055,0.827c-0.01,0.064-0.027,0.119-0.046,0.186c-0.056,0.188-0.131,0.445-0.179,1.049
		c-0.052,0.648-0.009,1.457,0.014,1.892c0.007,0.128,0.012,0.222,0.012,0.268c0,0.133,0.035,0.465,0.068,0.767
		c0.018,0.165,0.035,0.321,0.043,0.426l0.006,0.069c0.03,0.348,0.12,1.403,0.08,2.125c-0.017,0.326-0.016,0.805-0.015,1.322
		c0.002,0.724,0.005,1.543-0.046,2.087c-0.094,0.929-0.269,2.003-0.27,2.014c-0.014,0.083,0.016,0.168,0.079,0.225
		c0.062,0.058,0.149,0.076,0.231,0.058c0.004-0.002,0.01-0.003,0.016-0.004c0.058,0.064,0.141,0.105,0.233,0.105
		c0.126,0,0.34-0.092,0.34-0.437c0-0.091,0-0.221,0.012-0.288c0.016-0.003,0.034-0.005,0.056-0.007
		c-0.013,0.136-0.016,0.295-0.018,0.45c-0.002,0.148-0.005,0.372-0.032,0.425c-0.121,0.114-0.182,0.229-0.201,0.58l-0.044,0.88
		c-0.005,0.092,0.037,0.18,0.116,0.228c0.056,0.034,0.121,0.046,0.179,0.031c0.009,0.171,0.014,0.383,0.019,0.595
		c0.007,0.26,0.013,0.518,0.025,0.704c0.01,0.154-0.006,0.294-0.02,0.409c-0.016,0.147-0.031,0.274,0.007,0.397
		c0.007,0.02,0.011,0.045,0.016,0.07c0.024,0.115,0.08,0.386,0.334,0.386c0.201,0,0.318-0.198,0.375-0.295
		c0.002-0.004,0.005-0.008,0.007-0.012c-0.003,0.494-0.04,0.734-0.064,0.811c-0.06,0.055-0.102,0.134-0.125,0.236
		c-0.045,0.199-0.03,0.593,0.095,0.776c0.192,0.292,0.414,0.207,0.517,0.098c0.005-0.005,0.01-0.011,0.015-0.017
		c0.012,0.069,0.024,0.145,0.037,0.229l0.017,0.101c0.02,0.116,0.052,0.303,0.05,0.386c-0.062,0.075-0.096,0.179-0.095,0.301
		c0,0.143,0.05,0.348,0.158,0.421c0.058,0.089,0.187,0.565,0.206,0.802c0.02,0.218,0.117,0.755,0.194,1.188l0.057,0.318
		c0.029,0.164,0.074,0.358,0.122,0.563c0.063,0.274,0.132,0.566,0.168,0.827c0.073,0.464,0.271,1.038,0.353,1.264
		c0.048,0.13,0.127,0.259,0.192,0.363c0.034,0.056,0.066,0.104,0.08,0.137c0.023,0.064,0.042,0.229,0.061,0.365
		c0.017,0.119,0.033,0.224,0.042,0.256c0.031,0.124,0.155,0.297,0.227,0.389c0.048,0.062,0.122,0.097,0.197,0.097
		c0.027,0,0.055-0.005,0.081-0.014c0.101-0.034,0.169-0.13,0.169-0.236v-0.157c0-0.036-0.008-0.072-0.023-0.105
		c-0.076-0.163-0.139-0.368-0.143-0.459c0.006-0.005,0.011-0.009,0.017-0.013c0.006,0.033,0.01,0.07,0.011,0.103
		c0,0.078,0.027,0.154,0.09,0.201c0.062,0.047,0.132,0.062,0.208,0.043c0.006,0,0.06,0.002,0.148,0.081l0.089,0.08
		c0.204,0.188,0.509,0.413,0.849,0.275c0.203-0.086,0.444-0.285,0.444-0.746c0-0.184-0.028-0.339-0.028-0.339
		c-0.023-0.123-0.137-0.209-0.258-0.203c-0.125,0.006-0.227,0.104-0.237,0.229c-0.004,0.043-0.023,0.102-0.03,0.111
		c-0.146,0.028-0.345-0.012-0.511-0.156c-0.137-0.121-0.137-0.121-0.128-0.207c0.026-0.267,0.023-0.46-0.231-0.716
		c-0.248-0.248-0.48-0.646-0.734-1.252c-0.246-0.587-0.43-1.257-0.548-1.991c-0.089-0.554-0.035-0.718-0.059-0.721
		c0.14-0.056,0.2-0.151,0.226-0.223c0.063-0.173-0.02-0.352-0.085-0.467c-0.13-0.238-0.396-0.756-0.473-1.011
		c-0.022-0.07-0.037-0.124-0.047-0.166c0.117-0.007,0.191-0.061,0.233-0.106c0.073-0.077,0.104-0.187,0.094-0.326
		c-0.021-0.259-0.124-0.426-0.207-0.561c-0.024-0.039-0.048-0.078-0.068-0.115l-0.042-0.09c-0.064-0.141-0.131-0.286-0.354-0.555
		c-0.064-0.07-0.167-0.206-0.13-0.314c0.014-0.042,0.033-0.071,0.057-0.108c0.062-0.095,0.154-0.237,0.079-0.487
		c-0.042-0.147-0.157-0.4-0.315-0.741c-0.073-0.156-0.137-0.294-0.164-0.364c-0.045-0.117-0.093-0.327-0.114-0.454
		c0.131-0.05,0.197-0.199,0.197-0.446c0-0.279-0.107-0.572-0.202-0.831c-0.05-0.136-0.098-0.261-0.116-0.364l-0.023-0.124
		c-0.025-0.137-0.06-0.322-0.074-0.447c0.12-0.015,0.205,0.019,0.205,0.019c0.205,0.176,0.364,0.192,0.469,0.167
		c0.076-0.018,0.14-0.069,0.172-0.141s0.029-0.153-0.008-0.222c-0.054-0.1-0.205-0.396-0.252-0.575
		c-0.062-0.238-0.412-2.301-0.37-2.89c0.03-0.433,0-2.048-0.024-3.345c-0.012-0.617-0.021-1.142-0.021-1.38
		c0-0.685-0.021-3.243-0.069-3.915c-0.033-0.456-0.144-1.547-0.468-1.832c-0.091-0.081-0.171-0.117-0.229-0.128
		c-0.002-0.004-0.019-0.044-0.027-0.198c-0.006-0.139,0.005-0.245,0.014-0.333c0.022-0.216,0.045-0.439-0.238-0.676
		c-0.254-0.213-0.961-0.742-1.524-1.063c-0.218-0.123-0.448-0.258-0.67-0.388c-0.308-0.18-0.599-0.351-0.822-0.469
		c-0.277-0.147-0.787-0.388-1.054-0.513c0.064-0.38,0.22-1.277,0.391-2.147l0.07-0.346c0.254-1.254,0.68-3.353,0.725-5.89
		c0.034-2.133-0.179-3.735-0.286-4.393c0.102,0.013,0.226,0.032,0.37,0.061l0.345,0.066c0.433,0.08,1.026,0.191,1.299,0.303
		l0.14,0.058c0.337,0.142,0.656,0.274,1.139,0.345c0.349,0.044,0.47-0.042,0.588-0.128c0.044-0.032,0.044-0.032,0.079-0.032
		c0.083,0,0.109,0.01,0.147,0.024c0.053,0.02,0.125,0.048,0.249,0.048c0.027,0,0.059-0.002,0.109-0.006c0.034,0,0.091,0,0.13,0.151
		c0.027,0.107,0.067,0.196,0.126,0.322c0.045,0.097,0.103,0.22,0.176,0.408c0.2,0.506,0.431,1.075,0.654,1.431
		c0.229,0.376,1.49,2.33,1.899,2.919c0.379,0.55,0.935,1.625,1.1,2.004c0.215,0.496,0.579,1.468,0.588,1.637
		c0,0.222,0.082,0.818,0.45,0.914c0.034,0.019,0.098,0.121,0.13,0.207c0.044,0.119,0.175,0.186,0.296,0.156
		c0.125-0.032,0.205-0.152,0.186-0.279c-0.009-0.061-0.015-0.131-0.017-0.188c0.006-0.002,0.011-0.003,0.017-0.005
		c0,0.001,0.014,0.015,0.031,0.064c0.042,0.133,0.085,0.965,0.103,1.659c0,0.026,0.005,0.053,0.014,0.077l0.11,0.313
		c0.035,0.101,0.13,0.167,0.236,0.167c0.001,0,0.002,0,0.003,0c0.107-0.001,0.201-0.07,0.235-0.172
		c0.006-0.02,0.036-0.082,0.092-0.137c0.006,0.016,0.014,0.034,0.021,0.057c0.037,0.099,0.078,0.181,0.118,0.258
		c0.084,0.162,0.135,0.26,0.097,0.522c-0.074,0.505-0.127,0.869,0.054,1.174c0.143,0.243,0.311,0.435,0.318,0.442
		c0.076,0.088,0.205,0.108,0.309,0.054c0.103-0.058,0.152-0.178,0.118-0.291c-0.021-0.07-0.042-0.183-0.042-0.269
		c0.075,0.132,0.163,0.303,0.253,0.508c0.152,0.345,0.157,0.523,0.139,0.675c-0.03,0.244-0.091,0.752,0.296,0.843
		c0.035,0.009,0.082,0.031,0.131,0.053c0.126,0.055,0.245,0.107,0.357,0.107c0.082,0,0.199-0.059,0.251-0.127
		c0.027,0.048,0.051,0.092,0.07,0.13c0.109,0.226,0.283,0.645,0.316,0.819c0.014,0.067,0.014,0.155,0.013,0.232
		c-0.001,0.155-0.003,0.415,0.245,0.478c0.121,0.025,0.272-0.028,0.375-0.124c0.405,0.565,1.338,2.056,1.663,2.734
		c0.223,0.467,0.425,0.894,0.493,1.054c0.007,0.017,0.014,0.07,0.018,0.105c0.015,0.117,0.058,0.466,0.398,0.488
		c-0.025,0.074-0.051,0.168-0.031,0.306c0.012,0.085,0.012,0.217,0.003,0.322c-0.082-0.099-0.198-0.245-0.278-0.351
		c-0.079-0.104-0.224-0.128-0.332-0.061c-0.109,0.068-0.148,0.209-0.09,0.324l0.228,0.451c0.013,0.025,0.029,0.048,0.049,0.067
		c0.053,0.052,0.333,0.308,0.613,0.308c0.085,0,0.369-0.029,0.455-0.409c0.103-0.443,0.06-0.672,0.012-0.851l-0.14,0.004
		c0.004-0.013,0.008-0.025,0.012-0.039l0.136-0.044c0.187-0.087,0.274-0.093,0.275-0.106l0.057,0.04
		c0.185,0.131,0.379,0.263,0.556,0.3c0.303,0.058,0.514-0.038,0.621-0.271c0.085-0.216-0.011-0.685-0.182-0.879l-0.252-0.289
		c-0.087-0.1-0.235-0.114-0.34-0.034s-0.129,0.228-0.056,0.337l0.231,0.346c0.017,0.027,0.033,0.06,0.047,0.091
		c-0.01-0.006-0.021-0.014-0.035-0.022c-0.035-0.022-0.071-0.045-0.112-0.064c-0.128-0.065-0.239-0.117-0.332-0.154
		c0.002-0.068-0.012-0.145-0.062-0.218c-0.029-0.044-0.175-0.221-0.35-0.43c-0.224-0.268-0.53-0.633-0.613-0.758
		c-0.062-0.089-0.174-0.228-0.303-0.388c-0.19-0.234-0.426-0.526-0.575-0.753c-0.123-0.188-0.309-0.488-0.485-0.773
		c-0.189-0.307-0.368-0.596-0.45-0.715c-0.112-0.161-0.112-0.21-0.112-0.372c0-0.284-0.226-0.513-0.414-0.703
		c-0.057-0.055-0.133-0.119-0.217-0.19c-0.145-0.122-0.325-0.273-0.413-0.388c-0.06-0.078-0.056-0.173-0.043-0.299
		c0.004-0.042,0.007-0.078,0.007-0.107c0-0.226-0.097-0.404-0.334-0.618c-0.093-0.083-0.202-0.17-0.313-0.26
		c-0.155-0.124-0.317-0.254-0.445-0.382c-0.124-0.127-0.127-0.233-0.078-0.439c0.072-0.25,0.028-0.378-0.211-0.62
		c-0.104-0.104-0.235-0.219-0.358-0.324c-0.109-0.094-0.258-0.222-0.288-0.265c-0.036-0.055-0.048-0.104-0.015-0.222
		c0.082-0.283,0.066-0.523-0.044-0.711c-0.057-0.102-0.327-0.601-0.549-1.011l-0.147-0.272c0.119,0.073,0.219,0.118,0.219,0.118
		c0.109,0.049,0.235,0.013,0.305-0.081c0.069-0.096,0.062-0.227-0.016-0.314c-0.145-0.161-0.292-0.349-0.324-0.426
		c-0.043-0.144-0.092-0.273-0.284-0.535l-0.077-0.098c-0.179-0.227-0.653-0.826-1.133-1.637c-0.435-0.735-0.902-1.624-1.278-2.338
		c-0.267-0.507-0.493-0.938-0.643-1.19c-0.353-0.604-0.733-1.327-1.068-1.966c-0.266-0.506-0.495-0.943-0.64-1.182l-0.062-0.1
		c-0.421-0.691-0.796-1.282-1.109-1.5c-0.094-0.068-0.175-0.122-0.245-0.167c-0.066-0.044-0.149-0.099-0.147-0.11
		c0.014-0.171-0.021-0.309-0.267-0.487c-0.171-0.128-0.32-0.238-0.765-0.378c-0.189-0.06-0.45-0.119-0.744-0.186
		c-0.378-0.085-0.807-0.182-1.196-0.307c-0.382-0.125-0.652-0.195-0.87-0.252c-0.172-0.045-0.311-0.08-0.452-0.132
		c-0.153-0.053-0.311-0.064-0.438-0.073c-0.046-0.004-0.109-0.008-0.15-0.015c-0.036-0.188-0.063-0.369-0.09-0.543
		c-0.066-0.436-0.129-0.848-0.305-1.246c-0.25-0.562-0.628-1.145-1.534-1.22c-0.513-0.041-0.978-0.046-1.284-0.046l-0.271,0.001
		c-0.321,0-0.687,0.166-0.856,0.307c-0.033-0.001-0.123-0.046-0.177-0.073c-0.17-0.087-0.379-0.117-0.537-0.081
		c-0.012,0.002-0.024,0.005-0.036,0.008l-0.014-0.059c-0.027-0.11-0.077-0.32-0.079-0.435c0.139-0.02,0.292,0.033,0.294,0.033
		c0.083,0.022,0.169,0.028,0.232-0.031c0.053-0.05,0.077-0.101,0.073-0.165c0.128,0.003,0.331,0.025,0.539,0.048
		c0.254,0.028,0.515,0.056,0.673,0.056c0.286,0,0.504-0.096,0.735-0.196c0.091-0.04,0.189-0.083,0.299-0.122
		c0.068-0.024,0.134-0.039,0.193-0.054c0.164-0.038,0.349-0.081,0.456-0.262c0.113-0.189,0.068-0.436,0.015-0.632
		c-0.091-0.319-0.121-0.55-0.147-0.753c-0.022-0.169-0.043-0.329-0.094-0.496c-0.032-0.106-0.078-0.213-0.127-0.325
		c-0.107-0.243-0.209-0.473-0.169-0.789c0.049-0.391,0.115-0.987,0.149-1.294c0.504-0.064,1.893-0.25,3.229-0.492
		c0.74-0.136,1.766-0.37,2.121-0.473c1.123-0.32,1.607-0.556,1.702-1.18c0.028-0.195,0.003-0.331-0.023-0.45
		c0.016-0.012,0.04-0.029,0.076-0.053c0.409-0.258,0.618-0.906,0.77-1.38l0.045-0.14l0.02-0.06c0.087-0.265,0.32-0.968,0.518-1.771
		c0.104-0.406,0.2-0.839,0.296-1.272c0.104-0.468,0.208-0.936,0.322-1.368c0.443-1.715,0.81-2.846,1.039-3.492
		c0.235-0.67,0.521-1.718,0.818-2.825l0.107-0.399c0.269-0.996,0.603-2.235,0.687-3.047c0.1-0.907,0.509-1.742,0.601-1.845
		c0.158-0.163,0.231-0.388,0.325-0.672l0-0.073c0.075,0,0.219,0.076,0.262,0.116c0.021,0.021,0.199,0.167,0.47,0.39
		c0.874,0.716,2.922,2.393,3.255,2.81c0.212,0.266,0.504,0.544,0.787,0.814c0.335,0.32,0.683,0.651,0.89,0.954l0.084,0.121
		c0.374,0.544,0.669,0.973,1.451,1.275c0.126,0.048,0.239,0.071,0.344,0.071c0.251,0,0.552-0.126,0.594-0.722
		c0.086-0.021,0.2-0.059,0.321-0.152l0.139-0.104c0.233-0.172,0.473-0.35,0.522-0.58c0.023-0.092,0.256-0.416,0.496-0.64
		c0.133-0.122,0.515-0.447,0.854-0.737c0.274-0.234,0.522-0.445,0.595-0.511c0.204-0.181,0.251-0.33,0.288-0.49
		c0.146-0.151,0.855-0.665,1.695-1.228c0.05-0.034,0.092-0.058,0.126-0.078c0.116-0.068,0.226-0.133,0.285-0.303
		c0.026-0.041,0.156-0.13,0.234-0.184c0.059-0.04,0.117-0.08,0.174-0.125c0.078-0.063,0.291-0.215,0.505-0.369
		c0.243-0.174,0.488-0.35,0.565-0.416c0.203-0.181,0.205-0.419,0.189-0.577c0.013-0.003,0.026-0.005,0.034-0.007
		c0.162-0.033,0.281-0.175,0.493-0.588c0.036-0.072,0.086-0.149,0.131-0.219c0.12-0.185,0.224-0.344,0.141-0.505
		c-0.02-0.043-0.043-0.073-0.041-0.094c0.002-0.023,0.02-0.06,0.04-0.102C116.463,67.4,116.517,67.289,116.517,67.141z
		 M97.122,68.543c0.212,0,0.475,0.034,0.667,0.063c-0.017,0.056-0.036,0.112-0.055,0.156c-0.076,0.176-0.308,0.712-0.375,1.303
		c-0.036,0.285-0.088,0.829-0.141,1.369c-0.05,0.525-0.101,1.045-0.134,1.312c-0.057,0.482-0.355,1.569-0.499,2.091l-0.034,0.125
		c-0.056,0.205-0.205,0.679-0.37,1.209c-0.237,0.759-0.507,1.62-0.601,1.994c-0.053,0.212-0.147,0.594-0.257,1.044
		c-0.218,0.889-0.5,2.043-0.665,2.67c-0.254,0.97-0.477,2.036-0.53,2.539c-0.034,0.369-0.007,1.04,0.013,1.529
		c0.007,0.185,0.014,0.333,0.014,0.41c0,0.199-0.075,0.217-0.12,0.228c-0.176,0.04-0.718,0.04-1.009,0.04
		c-0.056,0-0.181,0.021-0.362,0.056c-0.388,0.073-1.037,0.197-1.852,0.225c-0.852,0.032-1.681,0.153-2.079,0.212
		c-0.092,0.014-0.158,0.023-0.191,0.026c-0.006,0.001-0.012,0.002-0.019,0.002c0.071-0.134,0.117-0.237,0.174-0.366
		c0.039-0.087,0.083-0.186,0.145-0.316c0.155-0.332,0.332-0.892,0.354-1.336c0.008-0.156-0.041-1.68-0.456-1.936
		c-0.127-0.076-0.127-0.089-0.131-0.187c0.03-0.076,0.254-0.245,0.361-0.326l0.088-0.066c0.209-0.164,0.25-0.365,0.274-0.486
		c0.004-0.023,0.007-0.045,0.005-0.049c0.024-0.03,0.122-0.103,0.187-0.15c0.108-0.08,0.219-0.163,0.291-0.249
		c0.104-0.124,0.106-0.247,0.093-0.337c0.151-0.113,0.257-0.228,0.657-0.729c0.468-0.588,0.671-0.895,0.638-1.155l-0.033-0.375
		c0.114-0.081,0.218-0.222,0.235-0.45c0.018-0.199-0.002-0.535-0.021-0.861c-0.011-0.185-0.021-0.355-0.021-0.466
		c0-0.22,0.059-0.33,0.108-0.423c0.084-0.158,0.112-0.4-0.014-0.574c-0.02-0.041-0.048-0.226-0.024-0.472
		c0.006-0.081,0.103-0.145,0.211-0.208c0.038-0.022,0.069-0.042,0.094-0.06c0.089-0.068,0.124-0.148,0.147-0.202
		c0.02-0.044,0.028-0.065,0.09-0.106c0.256-0.175,0.536-0.425,0.666-0.958c0.132-0.555-0.055-0.98-0.24-1.4l-0.034-0.078
		c-0.161-0.36-0.213-0.494-0.159-0.669c0.045-0.145,0.311-0.584,0.505-0.905c0.158-0.261,0.307-0.508,0.379-0.654
		c0.196-0.38,0.315-0.874,0.36-1.203c0.016-0.095,0.035-0.12,0.035-0.12c0.011-0.008,0.055-0.02,0.107-0.033
		c0.057-0.017,0.266-0.063,0.529-0.122c0.465-0.104,1.102-0.246,1.407-0.334c0.444-0.126,1.089-0.211,1.499-0.236L97.122,68.543z
		 M55.82,68.545c0.411,0.025,1.055,0.11,1.498,0.236c0.306,0.088,0.942,0.23,1.407,0.334c0.264,0.059,0.473,0.105,0.55,0.127
		c0.032,0.008,0.077,0.02,0.086,0.027c0,0,0.02,0.024,0.035,0.115c0.046,0.335,0.166,0.829,0.36,1.206
		c0.074,0.149,0.223,0.396,0.381,0.658c0.194,0.321,0.459,0.759,0.504,0.903c0.054,0.177,0.001,0.31-0.159,0.67l-0.039,0.087
		c-0.181,0.412-0.367,0.837-0.235,1.393c0.13,0.532,0.41,0.782,0.668,0.958c0.06,0.041,0.069,0.061,0.088,0.105
		c0.023,0.053,0.058,0.134,0.149,0.204c0.022,0.017,0.054,0.036,0.091,0.058c0.108,0.063,0.205,0.127,0.212,0.215
		c0.023,0.239-0.005,0.424-0.021,0.459c-0.128,0.18-0.101,0.421-0.01,0.593c0.043,0.081,0.102,0.191,0.102,0.41
		c0,0.11-0.011,0.281-0.021,0.467c-0.02,0.325-0.04,0.661-0.022,0.856c0.018,0.231,0.122,0.373,0.236,0.454l-0.034,0.374
		c-0.033,0.263,0.162,0.557,0.639,1.156c0.4,0.503,0.505,0.616,0.656,0.729c-0.012,0.08-0.014,0.208,0.093,0.337
		c0.072,0.086,0.184,0.169,0.292,0.249c0.065,0.048,0.163,0.121,0.177,0.135c0.008,0.019,0.01,0.041,0.015,0.064
		c0.024,0.12,0.064,0.322,0.275,0.487l0.086,0.065c0.108,0.081,0.332,0.249,0.358,0.301c0,0.123,0,0.137-0.131,0.214
		c-0.411,0.254-0.46,1.777-0.452,1.934c0.022,0.446,0.199,1.006,0.354,1.338c0.061,0.128,0.105,0.227,0.144,0.312
		c0.057,0.128,0.103,0.231,0.175,0.368c-0.006,0-0.013-0.001-0.02-0.002c-0.032-0.003-0.097-0.013-0.188-0.026
		c-0.398-0.059-1.227-0.18-2.081-0.212c-0.814-0.027-1.463-0.151-1.851-0.225c-0.182-0.035-0.307-0.056-0.363-0.056
		c-0.291,0-0.833,0-1.008-0.04c-0.045-0.011-0.12-0.028-0.12-0.228c0-0.077,0.006-0.225,0.014-0.408
		c0.02-0.49,0.047-1.162,0.012-1.533c-0.052-0.501-0.274-1.567-0.529-2.537c-0.161-0.613-0.434-1.73-0.65-2.611
		c-0.116-0.476-0.216-0.882-0.271-1.103c-0.093-0.373-0.362-1.231-0.599-1.989c-0.167-0.532-0.316-1.009-0.372-1.214l-0.036-0.131
		c-0.143-0.521-0.44-1.604-0.497-2.087c-0.034-0.267-0.085-0.792-0.136-1.321c-0.051-0.536-0.104-1.075-0.139-1.354
		c-0.068-0.594-0.299-1.129-0.377-1.309c-0.018-0.043-0.037-0.098-0.054-0.153c0.192-0.03,0.455-0.063,0.667-0.063L55.82,68.545z"/>
</g>
</svg>
