<?xml version="1.0" encoding="iso-8859-1"?>
<!-- Generator: Adobe Illustrator 17.1.0, SVG Export Plug-In . SVG Version: 6.00 Build 0)  -->
<!DOCTYPE svg PUBLIC "-//W3C//DTD SVG 1.1//EN" "http://www.w3.org/Graphics/SVG/1.1/DTD/svg11.dtd">
<svg version="1.1" id="Capa_1" xmlns="http://www.w3.org/2000/svg" xmlns:xlink="http://www.w3.org/1999/xlink" x="0px" y="0px"
	 viewBox="0 0 150 150" style="enable-background:new 0 0 150 150;" xml:space="preserve">
<g>
	<path d="M4.088,97.233l0.277-0.107c0.27-0.105,0.494-0.192,0.612-0.219c0.004,0.024,0.01,0.059,0.016,0.107
		c0.018,0.108,0.07,0.437,0.358,0.437c0.147,0,0.251-0.094,0.382-0.212c0.083-0.075,0.188-0.17,0.323-0.255
		c0.375-0.233,0.715-0.336,1.573-0.321c-0.039,0.109-0.045,0.219,0.005,0.324c0.077,0.161,0.331,0.319,1.104,0.087
		c1.12-0.333,2.728-0.776,3.781-0.776h0c0.304,0.002,0.452,0.02,0.526,0.029c0.041,0.005,0.067,0.007,0.085,0.007
		c0.123,0,0.255-0.121,0.274-0.243c0.009-0.059,0.09-0.169,0.224-0.303c2.151-2.161,3.206-5.688,3.773-7.582
		c0.074-0.247,0.14-0.469,0.2-0.658c0.35-1.115,1.817-3.973,2.936-6.105l1.902,0.518c0.31,0.022,0.649,0.05,1.019,0.08
		c1.147,0.093,2.646,0.215,4.486,0.279c-0.092,0.089-0.156,0.179-0.216,0.263c-0.112,0.157-0.187,0.261-0.445,0.335
		c-0.536,0.156-0.809,0.345-0.886,0.615c-0.094,0.327,0.157,0.607,0.359,0.832c0.08,0.089,0.229,0.256,0.234,0.309
		c-0.16,0.204-0.34,0.435-0.247,0.693c0.114,0.312,0.55,0.457,1.722,0.708l0.142,0.028c-0.186,0.512-0.354,0.891-0.488,1.1
		c-0.643,0.963-0.877,1.458-0.91,2.326c-0.021,0.657-0.277,0.891-0.623,1.208c-0.29,0.27-0.746,1.118-0.586,1.522
		c0.019,0.047,0.044,0.088,0.076,0.123c-0.654,1.137-0.848,1.718-0.785,2.304c0.041,0.406-0.97,2.553-1.316,2.904
		c-0.309,0.317-0.339,0.685-0.367,1.041c-0.011,0.131-0.021,0.268-0.048,0.412c-0.053,0.29-0.067,0.309-0.175,0.458
		c-0.063,0.086-0.148,0.203-0.27,0.403c-0.316,0.514-0.339,0.744-0.336,1.012v0.054c-0.015,0.007-0.032,0.016-0.046,0.021
		c-0.142,0.065-0.476,0.218-0.382,0.697c0.023,0.124-0.101,0.286-0.245,0.473c-0.205,0.267-0.46,0.599-0.453,1.055
		c0.012,0.718-0.54,1.217-1.004,1.509c-1.317,0.821-6.589,4.84-7.387,5.747c-0.505,0.582-0.666,0.951-0.537,1.231
		c0.092,0.202,0.312,0.304,0.653,0.304c0.072,0,0.151-0.004,0.241-0.013c0.281-0.031,0.498-0.319,0.824-0.755
		c0.283-0.377,0.625-0.834,1.083-1.224c0.145,0.253,0.348,0.5,0.663,0.5c0.305,0,0.618-0.231,1.014-0.748
		c0.372-0.481,1.062-1.026,1.731-1.552c0.736-0.581,1.434-1.13,1.807-1.651c0.171-0.031,0.346-0.048,0.518-0.065
		c0.847-0.085,1.808-0.181,1.81-1.877c0.002-1.414,1.354-4.213,2.248-6.065c0.241-0.499,0.455-0.942,0.613-1.294
		c0.476-1.06,2.588-6.22,4.385-10.875c1.279,0.164,2.693,0.244,4.315,0.244c6.021,0,15.605-1.148,31.126-3.268
		c-0.854,1.606-1.053,1.956-1.234,1.956c-0.044,0-0.093-0.006-0.149-0.012c-0.201-0.022-0.514-0.023-0.829-0.028
		c-0.744-0.011-1.625-0.042-2.512,0.233c-0.735-0.244-1.644-0.395-2.395-0.395c-0.76,0-1.288,0.144-1.568,0.427
		c-0.454,0.451-0.617,0.78-0.512,1.035c0.078,0.187,0.283,0.401,1.239,0.152c1.16-0.303,1.742-0.442,2.765-0.214
		c-0.01,0.106,0.003,0.219,0.076,0.319c0.131,0.181,0.368,0.205,0.561,0.205c0.306,0,0.803-0.071,1.664-0.238
		c0.578-0.112,1.177-0.104,1.615-0.073c0.909,0.066,1.335-0.094,1.835-0.998c0.688-1.233,1.267-2.367,1.451-2.729
		c0.461-0.071,1.683-0.346,3.864-0.871c1.847,0.612,3.165,0.265,3.641-0.896c1.392-0.345,2.742-0.684,3.819-0.956
		c-0.324,0.152-0.667,0.312-1.014,0.474c-3.811,1.778-7.005,3.289-7.481,3.771c-0.692,0.696-0.48,1.218-0.326,1.599
		c0.04,0.097,0.077,0.19,0.1,0.281c-0.514,1.371-1.041,5.557-1.391,8.343c-0.124,0.99-0.222,1.771-0.274,2.042
		c-0.186,0.965-0.244,1.05-0.895,1.293c-0.118,0.044-0.276,0.1-0.461,0.164c-1.661,0.58-2.666,1.001-2.953,1.45
		c-0.914,0.152-3.045,1.067-3.552,2.669c-0.026,0.082-0.008,0.172,0.048,0.238c0.057,0.066,0.14,0.095,0.229,0.084
		c0.394-0.061,0.721,0.021,0.833,0.204c0.04,0.066,0.108,0.109,0.185,0.118c0.076,0.008,0.153-0.019,0.207-0.073
		c0.154-0.157,0.327-0.375,0.528-0.629c0.425-0.538,1-1.263,1.477-1.431l0.123,0.061c0.45,0.227,0.569,0.26,1.345-0.052
		c0.31-0.129,0.756-0.392,1.227-0.671c0.727-0.43,1.631-0.964,2.06-0.999c0.332-0.026,0.6-0.16,0.775-0.385
		c0.293-0.377,0.245-0.885,0.211-1.084c-0.054-0.323-0.071-0.666-0.058-0.851c0.075-0.01,0.181-0.062,0.224-0.114
		c0.116-0.139,0.134-0.361,0.051-0.909c0.077-0.014,0.146-0.052,0.199-0.109c0.167-0.179,0.144-0.482,0.095-1.146
		c-0.018-0.246-0.04-0.54-0.056-0.884c0.227-0.191,0.267-0.754,0.333-1.687c0.044-0.618,0.094-1.318,0.211-1.811
		c0.142-0.595,0.258-1.145,0.36-1.626c0.177-0.834,0.359-1.696,0.49-1.819c1.12-0.667,3.172-1.259,4.983-1.781
		c1.3-0.375,2.528-0.729,3.288-1.073c0.45-0.205,1.098-0.403,1.848-0.632c2.199-0.672,5.523-1.688,8.967-4.358
		c0.183-0.141,0.346-0.273,0.5-0.399c0.982,1.038,1.979,2.15,2.717,2.974c0.672,0.75,1.158,1.293,1.353,1.47
		c0.155,0.14,0.253,0.26,0.334,0.359c0.223,0.271,0.385,0.437,0.888,0.437c0.115,0,0.253-0.009,0.423-0.027
		c1.394-0.152,2.408-0.21,3.064-0.15c0.702,0.067,0.988-0.186,1.566-0.689c0.16-0.139,0.347-0.302,0.579-0.49
		c0.706,0.058,1.269,0.231,1.685,0.358c0.228,0.07,0.417,0.127,0.569,0.152c0.103,0.018,0.199-0.029,0.252-0.114
		c0.114-0.182,0.655-1.111,0.12-1.489c-0.036-0.025-0.077-0.041-0.121-0.045l-0.745-0.071c-1.83-0.18-2.425-0.212-3.379,0.367
		c-0.953,0.578-2.265,0.783-3.1,0.783c-0.116,0-0.212,0.003-0.295,0.006l-0.153,0.003c-0.203,0-0.22,0-0.77-0.634
		c-0.172-0.195-0.526-0.575-0.971-1.054c-0.866-0.93-2.035-2.186-2.911-3.199c0.369-0.446,0.577-0.875,0.684-1.409
		c0.122-0.028,0.233-0.069,0.341-0.119c0.648,1.716,1.466,2.598,3.793,2.738c-0.132,0.219-0.198,0.426-0.11,0.606
		c0.051,0.104,0.169,0.229,0.441,0.229c0.263,0,0.812-0.097,2.534-0.927l1.062,0.039c-0.134,0.276-0.156,0.517-0.061,0.707
		c0.056,0.113,0.204,0.302,0.569,0.302c0.363,0,0.871-0.193,1.47-0.558c0.529-0.07,1.042-0.106,1.523-0.106
		c1.311,0,2.211,0.257,2.934,0.463c0.746,0.213,1.368,0.356,1.941,0.152c1.043,1.349,2.272,3.385,3.361,5.189
		c0.854,1.416,1.592,2.638,2.038,3.182c1.008,1.231,1.413,1.502,2.657,1.426c0.634-0.045,1.461,0.127,2.182,0.274
		c0.559,0.114,1.086,0.221,1.471,0.221c0.127,0,0.513,0,0.695-0.274c0.072-0.108,0.1-0.235,0.084-0.385
		c0.495,0.037,0.945,0.214,1.383,0.386c0.271,0.106,0.527,0.207,0.787,0.272c0.327,0.082,0.634-0.156,0.748-0.579
		c0.093-0.346,0.044-0.805-0.284-0.995c-0.472-0.269-1.635-0.388-3.77-0.388c-0.525,0-1.028,0.007-1.448,0.014
		c-0.299,0.004-0.556,0.008-0.749,0.008c-1.277,0-2.115-0.418-2.803-1.397c-0.244-0.346-0.636-0.887-1.1-1.528
		c-1.459-2.016-3.9-5.389-4.276-6.221l-0.031-0.067c-0.501-1.11-0.601-1.238-1.943-1.412c-1.305-0.169-3.897-0.276-5.631-0.282
		c-0.261-0.406-0.869-1.254-1.379-1.254c-0.13,0-0.245,0.05-0.333,0.145c-0.128,0.139-0.189,0.364-0.188,0.7
		c-0.707,0.099-0.731,0.044-1.241-0.416c-0.162-0.145-0.576-0.482-0.929-0.482c-0.152,0-0.28,0.062-0.362,0.175
		c-0.071,0.099-0.1,0.228-0.086,0.388c-1.339-0.115-1.937-0.519-2.36-1.163l1.079-0.332l0.262-0.125
		c0.006,0.012,0.012,0.023,0.019,0.035c0.113,0.195,0.348,0.307,0.645,0.307c0.352,0,1.096-0.159,2.234-1.184
		c1.108,1.29,2.791,0.702,5.745-2.183l0.811-1.23c1.039-1.144,1.359-1.916,1.642-2.598c0.25-0.602,0.465-1.122,1.144-1.814
		c0.467-0.478,0.89-0.963,1.298-1.434c0.888-1.021,1.654-1.902,2.475-2.226c0.932-0.371,1.851-1.485,2.824-2.666
		c1.32-1.6,2.687-3.259,4.109-3.141c0.577,0.047,1.179,0.071,1.789,0.071c3.839,0,7.876-0.947,11.319-1.874
		c4.229-1.141,9.039-4.184,12.554-7.939c0.091-0.098,0.09-0.25-0.003-0.345c-0.092-0.095-0.244-0.102-0.345-0.013
		c-4.125,3.635-9.935,6.505-12.543,7.179c-2.276,0.587-7.3,1.582-11.695,1.582c-0.273,0-0.542-0.004-0.804-0.012
		c3.694-1.382,8.389-3.976,11.078-6.969c0.175-0.195,0.395-0.422,0.646-0.684c1.575-1.636,4.506-4.68,5.777-9.235
		c0.037-0.133-0.04-0.27-0.172-0.308c-0.135-0.042-0.271,0.039-0.309,0.17c-0.294,1.006-3.557,6.113-6.709,9.307
		c-3.056,3.091-7.613,5.677-12.513,7.102c-0.514-0.09-1.101,0.217-1.772,0.584c-0.384,0.21-0.782,0.428-1.21,0.591l-0.455,0.177
		c-0.701,0.277-1.087,0.43-1.842,0.43l-0.209-0.002c-3.044,0-3.832,2.154-3.961,2.595c-0.44,0.374-3.051,1.222-4.12,1.516
		c-2.034,0.562-3.773,1.18-5.308,1.725c-3.157,1.122-5.414,1.91-7.625,1.321c-0.52-0.074-1.107-0.112-1.745-0.112
		c-2.713,0-5.739,0.664-6.888,1.51c-1.172,0.86-1.658,0.696-2.583,0.569c-0.242-0.034-0.507-0.07-0.809-0.099
		c-1.606-0.151-3.75,0.536-5.377,1.129c-1.601,0.584-6.058,1.921-8.187,2.288l-2.648,0.371l-0.298-0.182
		c-3.095-1.887-6.019-3.67-7.251-4.513c-1.459-0.997-3.409-2.186-5.294-3.335c-2.535-1.545-5.155-3.144-6.712-4.346
		c-0.713-0.551-1.062-0.931-1.317-1.209c-0.569-0.621-0.772-0.777-2.578-1.019c-0.079-0.014-0.157,0.016-0.212,0.073
		c-0.055,0.057-0.08,0.136-0.067,0.214c0.006,0.036,0.013,0.07,0.021,0.101c-0.86-0.1-1.229,0.474-1.446,1.125
		c-0.712-0.592-1.518-1.186-2.532-1.658c-0.787-1.412-1.659-1.753-2.665-2.147c-0.348-0.137-0.708-0.277-1.09-0.474
		c-0.086-0.044-0.19-0.036-0.267,0.024c-0.071,0.054-0.106,0.142-0.095,0.23c-1.013,0.137-1.411,0.625-2.194,2.469
		c-1.022,2.396-6.094,14.702-8.425,20.731l-0.398,1.063c-1.196,0.272-2.476,0.567-2.475,0.568l-1.608,0.239
		c-2.793,1.084-3.286,1.429-3.273,1.856c0.011,0.395,0.489,0.549,1.28,0.806c0.379,0.123,0.809,0.262,1.285,0.459l2.945,0.811
		c-0.487,0.947-0.989,1.746-1.398,2.399c-0.648,1.033-1.005,1.602-0.844,1.993c0.019,0.044,0.047,0.094,0.091,0.141
		c-0.14,0.213-0.32,0.451-0.496,0.683c-0.578,0.763-0.896,1.211-0.73,1.546c0.028,0.056,0.074,0.117,0.151,0.163
		c-0.345,0.567-0.425,0.968-0.485,1.274c-0.072,0.359-0.107,0.539-0.517,0.819c-0.388,0.266-0.312,0.595-0.266,0.792
		c0.043,0.187,0.058,0.25-0.142,0.379c-0.412,0.26-0.456,0.486-0.468,0.734c-0.008,0.15-0.014,0.269-0.276,0.506
		c-0.588,0.536-0.65,0.811-0.56,1.13c0.018,0.062,0.04,0.139-0.412,0.482c-0.287,0.22-0.353,0.391-0.344,0.586
		c-0.095,0.059-0.373,0.173-1.11,0.393c-0.84,0.251-1.606,0.374-2.343,0.374c-0.509,0-0.948-0.058-1.334-0.108
		c-1.214-0.159-2.126-0.313-3.884,1.472c-0.083,0.084-0.095,0.214-0.031,0.312S3.979,97.276,4.088,97.233z M43.137,59.941
		c-0.578-0.454-1.094-0.887-1.567-1.298c0.229,0.071,0.489,0.14,0.791,0.21c1.293,0.301,4.362,2.826,5.258,3.769
		c0.436,0.46,0.986,1.008,1.646,1.642C46.468,62.354,44.208,60.786,43.137,59.941z M51.035,70.978l-2.936,0.412
		c-2.063,0.42-6.588,1.206-11.379,2.037l-2.059,0.358l0.312-0.941c0.539-1.692,1.554-4.409,2.413-6.458
		c0.524-1.247,1.035-3.135,1.528-4.96c0.156-0.577,0.312-1.154,0.469-1.713c0.812,0.71,1.689,1.5,2.364,2.208
		C43.096,63.336,49.209,69.358,51.035,70.978z M23.182,75.853l0.213-0.509c0.781-2.764,2.255-7.657,3.356-9.381
		c1.197-1.877,3.554-8.294,4.117-10.079c0.469-1.47,0.864-1.689,1.058-1.689c0.144,0,0.315,0.1,0.511,0.297
		c0.809,0.805,1.293,0.982,2.798,1.429c0.551,0.684,1.664,1.65,2.854,2.678c-0.506,2.059-1.517,4.802-2.586,7.702
		c-0.822,2.231-1.673,4.537-2.309,6.589l-0.464,1.229c-3.372,0.593-6.35,1.119-8.652,1.556L23.182,75.853z"/>
</g>
</svg>
