<?xml version="1.0" encoding="iso-8859-1"?>
<!-- Generator: Adobe Illustrator 17.1.0, SVG Export Plug-In . SVG Version: 6.00 Build 0)  -->
<!DOCTYPE svg PUBLIC "-//W3C//DTD SVG 1.1//EN" "http://www.w3.org/Graphics/SVG/1.1/DTD/svg11.dtd">
<svg version="1.1" id="Capa_1" xmlns="http://www.w3.org/2000/svg" xmlns:xlink="http://www.w3.org/1999/xlink" x="0px" y="0px"
	 viewBox="0 0 150 150" style="enable-background:new 0 0 150 150;" xml:space="preserve">
<g>
	<path d="M137.208,6.237c-2.201,1.561-4.094,3.453-5.833,5.508c-1.608,1.9-2.244,4.19-2.696,6.564
		c-0.214,1.125-0.67,1.447-1.902,1.41c-0.827-0.025-1.227-0.476-1.382-1.466c-0.418-2.673-1.669-4.851-3.922-6.391
		c-2.22-1.518-4.397-3.079-6.217-5.086c-0.224-0.247-0.556-0.398-0.813-0.576c-1.043,0.974-0.745,2.199-0.77,3.243
		c-0.057,2.358,0.553,4.608,1.693,6.705c0.921,1.694,1.942,3.386,3.725,4.182c1.305,0.582,1.581,1.364,1.381,2.566
		c-0.058,0.35-0.216,0.683-0.291,1.031c-0.273,1.278-0.613,2.549-0.771,3.842c-0.158,1.291,0.233,2.612-0.191,3.912
		c-0.201,0.617-0.261,1.281-0.376,1.926c-0.311,1.741-0.989,3.315-2.211,4.606c-1.576,1.666-3.698,2.371-5.758,3.177
		c-2.78,1.088-5.382,2.469-7.682,4.411c-1.769,1.494-3.508,3.073-5.463,4.287c-2.813,1.747-5.81,3.197-8.727,4.777
		c-4.227,2.289-7.752,5.398-10.757,9.133c-2.198,2.732-3.809,5.798-5.244,8.969c-1.295,2.861-2.258,5.85-2.727,8.942
		c-0.414,2.732-0.502,5.494-0.287,8.291c0.24,3.125,0.177,6.288,0.035,9.425c-0.129,2.85-0.958,5.587-2.025,8.23
		c-1.608,3.982-3.835,7.581-6.651,10.835c-3.096,3.577-6.721,6.453-10.912,8.637c-3.652,1.903-7.67,2.409-11.641,3.1
		c-2.623,0.457-5.255,0.861-7.877,1.325c-1.795,0.317-3.577,0.711-5.37,1.042c-2.706,0.5-5.414,0.983-8.125,1.456
		c-1.176,0.205-2.367,0.333-3.539,0.557c-1.663,0.317-3.405,0.446-4.855,1.851c0.597,0.122,1.098,0.314,1.597,0.309
		c1.417-0.014,2.833-0.163,4.249-0.157c1.993,0.008,3.986,0.173,5.978,0.156c8.844-0.073,17.691,0.252,26.532-0.317
		c2.163-0.139,4.297-0.293,6.436-0.71c2.466-0.48,4.758-1.368,6.93-2.541c5.164-2.789,9.195-6.896,12.708-11.5
		c2.38-3.119,4.535-6.409,6.758-9.646c0.417-0.608,0.761-0.489,1.136-0.063c0.277,0.314,0.491,0.686,0.714,1.043
		c0.786,1.259,1.899,2.34,2.176,3.877c0.301,1.675,0.652,3.348,0.828,5.038c0.161,1.548,0.344,3.152,0.114,4.67
		c-0.499,3.301-1.202,6.57-0.931,9.938c0.063,0.781,0.332,1.616,1.104,1.812c1.022,0.26,2.125,0.325,3.186,0.283
		c2.026-0.081,4.024-0.794,6.081-0.234c1.062,0.29,2.144,0.511,3.196,0.831c1.206,0.367,2.471,0.359,3.682,0.895
		c0.861,0.381,2.034,0.129,3.057,0.039c0.511-0.045,1.158-0.227,1.463-0.586c0.661-0.777,1.313-1.231,2.34-0.815
		c0.078,0.032,0.181,0.002,0.271,0.005c1.6,0.058,3.2,0.121,4.801,0.172c0.314,0.01,0.629-0.028,1.161-0.054
		c-1.065-2.121-2.582-3.46-4.596-4.093c-2.608-0.819-5.261-1.458-8.012-1.725c-2.649-0.257-5.27-0.807-7.905-1.212
		c-0.988-0.152-1.811-1.185-1.597-2.176c0.506-2.342,1.238-4.597,2.601-6.615c0.597-0.884,1.122-1.832,1.562-2.805
		c1.281-2.832,2.497-5.69,4.327-8.238c0.42-0.585,0.783-0.608,1.095-0.102c0.903,1.467,1.927,2.906,2.534,4.498
		c0.931,2.44,1.678,4.971,2.253,7.519c0.274,1.213,0.06,2.566-0.092,3.836c-0.151,1.269-0.562,2.508-0.723,3.777
		c-0.044,0.346,0.313,0.9,0.643,1.102c0.541,0.332,1.198,0.51,1.828,0.653c1.72,0.392,3.45,0.738,5.179,1.089
		c0.47,0.095,0.981,0.06,1.418,0.228c3.087,1.186,6.311,1.436,9.566,1.392c0.803-0.011,1.664-0.116,2.266-0.851
		c0.134-0.164,0.491-0.23,0.733-0.209c2.062,0.184,4.121,0.398,6.181,0.605c0.251,0.025,0.501,0.069,0.84,0.117
		c-0.058-1.054-0.665-1.577-1.345-2.035c-0.572-0.385-1.298-0.624-1.727-1.124c-1.479-1.727-3.448-2.022-5.52-2.127
		c-1.057-0.053-2.115-0.106-3.17-0.189c-2.906-0.23-5.809-0.51-8.717-0.696c-0.965-0.062-1.492-0.498-1.755-1.359
		c-0.87-2.84-0.196-5.545,1.007-8.078c1.167-2.455,2.021-4.97,2.457-7.637c0.474-2.894,0.939-5.79,1.365-8.691
		c0.257-1.747,0.566-3.504,0.606-5.262c0.043-1.859-0.184-3.726-0.334-5.586c-0.111-1.376-0.207-2.761-0.455-4.115
		c-0.388-2.117-0.936-4.204-1.329-6.32c-0.094-0.504,0.01-1.168,0.281-1.593c0.855-1.337,1.803-2.619,2.79-3.863
		c0.178-0.224,0.851-0.359,1.06-0.209c2.306,1.66,3.345,3.352,1.99,6.432c-0.364,0.828-0.499,1.539,0.028,2.256
		c0.461,0.627,1.017,1.184,1.539,1.765c0.056,0.062,0.168,0.126,0.239,0.113c1.046-0.197,2.101-0.365,3.126-0.644
		c0.239-0.065,0.445-0.494,0.541-0.795c0.619-1.952,0.521-3.824-0.615-5.604c-1.529-2.397-3.026-4.814-4.506-7.242
		c-0.181-0.297-0.338-0.785-0.217-1.055c0.378-0.842,0.885-1.626,1.36-2.423c0.341-0.572,0.568-0.519,0.942,0.061
		c0.762,1.179,1.578,2.336,2.489,3.402c0.683,0.799,1.557,1.433,2.333,2.155c1.754,1.63,1.838,4.458,0.32,6.271
		c-0.442,0.527-0.811,1.37-0.74,2.017c0.136,1.247,0.709,2.424,1.749,3.225c0.276,0.213,0.914,0.307,1.17,0.135
		c1.066-0.719,1.929-1.676,1.921-3.055c-0.015-2.267-0.102-4.535-0.21-6.8c-0.035-0.739-0.043-1.575-0.386-2.185
		c-0.74-1.317-1.647-2.549-2.564-3.756c-0.86-1.133-1.75-2.258-1.904-3.709c-0.167-1.576-0.218-3.167-0.25-4.753
		c-0.025-1.241-0.071-2.511,1.027-3.448c0.232-0.198,0.352-0.547,0.479-0.846c1.003-2.345,1.711-4.773,1.918-7.322
		c0.226-2.783-0.025-5.53-0.731-8.237c-0.065-0.252,0.111-0.566,0.176-0.852c0.09-0.021,0.181-0.042,0.271-0.062
		c1.158,1.427,2.693,1.337,4.247,1.153c1.467-0.174,2.639-1.81,2.327-3.242c-0.12-0.55-0.291-1.091-0.374-1.646
		c-0.169-1.126-0.348-2.256-0.425-3.391c-0.141-2.075-0.337-4.16-0.258-6.231c0.039-1.034,0.11-2.014-0.236-2.995
		c-0.119-0.338-0.349-0.681-0.337-1.015c0.063-1.839-0.989-2.983-2.386-3.888c-0.716-0.464-0.705-0.852-0.146-1.421
		c1.424-1.45,2.559-3.06,2.985-5.118c0.326-1.572,0.676-3.162,1.257-4.65c0.339-0.868,0.497-1.683,0.444-2.569
		C138.453,6.265,137.772,5.837,137.208,6.237z"/>
</g>
</svg>
