<?xml version="1.0" encoding="iso-8859-1"?>
<!-- Generator: Adobe Illustrator 17.1.0, SVG Export Plug-In . SVG Version: 6.00 Build 0)  -->
<!DOCTYPE svg PUBLIC "-//W3C//DTD SVG 1.1//EN" "http://www.w3.org/Graphics/SVG/1.1/DTD/svg11.dtd">
<svg version="1.1" id="Capa_1" xmlns="http://www.w3.org/2000/svg" xmlns:xlink="http://www.w3.org/1999/xlink" x="0px" y="0px"
	 viewBox="0 0 150 150" style="enable-background:new 0 0 150 150;" xml:space="preserve">
<g>
	<path d="M128.607,32.335c-0.4-0.58-0.915-1.08-1.346-1.577c0.488-1.079,1.239-0.509,1.959-0.297
		c0.128-0.261,0.243-0.495,0.364-0.74c-0.928-0.297-1.792-0.554-2.642-0.852c-0.909-0.319-1.699-0.814-2.292-1.607
		c-0.229-0.306-0.524-0.707-0.848-0.772c-1.747-0.352-3.523-0.684-5.302-0.369c-0.725,0.128-1.587,0.416-2.037,0.935
		c-0.554,0.638-1.06,1.308-1.699,1.878c-0.508,0.243-0.976,0.563-1.386,0.948c-0.039-0.052-0.078-0.104-0.118-0.156
		c-0.255-0.327-0.542-0.753-0.542-1.133c0-1.597-0.982-2.275-2.252-2.382c-0.97-0.082-1.98-0.021-2.9-0.281
		c-0.909-0.258-1.242,0.301-1.7,0.772c-0.148,0.152-0.235,0.362-0.358,0.556c-0.975-0.628-1.945-1.261-2.924-1.881
		c-1.199-0.76-2.241-1.674-2.586-3.11c-0.15-0.627-0.519-0.861-1.049-0.994c-1.966-0.492-3.929-0.998-5.903-1.454
		c-0.938-0.217-0.704-0.364-1.214,0.611c-0.035,0.067-0.059,0.139-0.062,0.149c-1.472-0.612-3.062-0.674-4.502-1.079
		c-0.149-0.924-0.247-1.812-0.442-2.679c-0.597-2.66-2.043-4.746-4.362-6.195c-1.957-1.223-3.951-2.388-5.891-3.636
		c-0.777-0.5-1.46-1.138-2.415-1.308c-0.834-0.149-1.66-0.35-2.498-0.477c-0.559-0.085-1.13-0.082-1.719-0.12v0.89
		c0.191,0.082,0.367,0.157,0.607,0.26c-0.172,0.197-0.287,0.448-0.47,0.517c-1.03,0.389-2.066,0.768-3.118,1.089
		c-2.072,0.631-4.175,1.174-6.109,2.186c-2.111,1.104-3.659,2.693-4.258,5.064c-0.058,0.229,0.057,0.511,0.122,0.76
		c0.122,0.468,0.413,0.943,0.374,1.393c-0.104,1.197-0.353,2.38-0.529,3.572c-0.083,0.563-0.13,1.132-0.209,1.842
		c0.473-0.402,0.768-0.709,1.118-0.929c0.219-0.137,0.526-0.197,0.783-0.173c0.082,0.008,0.198,0.404,0.178,0.61
		c-0.086,0.865-0.197,1.728-0.341,2.585c-0.157,0.935,0,1.331,0.769,1.853c0.176,0.12,0.426,0.361,0.397,0.494
		c-0.039,0.18-0.313,0.309-0.567,0.529c0.155,0.423,0.292,0.985,0.553,1.482c1.525,2.898,3.546,5.41,6.121,7.435
		c0.761,0.598,1.18,1.264,1.249,2.225c-0.506-0.115-0.977-0.238-1.456-0.324c-0.328-0.06-0.637-0.117-0.853,0.31
		c-0.437,0.861-0.994,1.661-1.414,2.528c-1.419,2.931-2.539,5.98-3.478,9.095c-0.126,0.419-0.262,0.834-0.4,1.248l-1.59,1.664
		c0.044-0.3,0.067-0.612,0.033-0.954c-0.255,0.283-0.425,0.45-0.57,0.636c-1.079,1.386-2.449,2.445-3.957,3.293
		c-2.12,1.193-4.315,2.25-6.448,3.422c-1.06,0.582-2.051,1.29-3.085,1.948c0.204,0.254,0.348,0.433,0.427,0.577
		c-5.14,2.274-9.793,5.599-13.532,9.823c-4.487,5.07-7.828,11.257-9.162,17.924c-1.199,5.992-1.012,12.158,0.522,18.075
		c0.905,3.488,2.31,6.812,4.13,9.897c0.343,0.719,0.674,1.414,1.021,2.1c0.055,0.109,0.246,0.151,0.377,0.219
		c0.035,0.018,0.073,0.034,0.113,0.049c0.363,0.529,0.739,1.049,1.127,1.561c0.085,0.168,0.165,0.338,0.233,0.512
		c0.173,0.439,0.362,0.675,0.675,0.642c0.065,0.08,0.13,0.159,0.196,0.239c0.491,0.847,0.885,1.695,1.474,2.372
		c1.957,2.25,4.514,3.538,7.347,4.373c1.159,0.342,2.498,0.322,3.347,1.431c0.152,0.199,0.382,0.346,0.596,0.487
		c1.334,0.879,2.654,1.782,4.02,2.609c0.224,0.136,0.457,0.26,0.696,0.379c1.372,1.282,2.882,2.402,4.533,3.199
		c0.016,0.085,0.032,0.17,0.045,0.257c0.019,0.122,0.21,0.281,0.346,0.31c1,0.219,2,0.466,3.013,0.597
		c1.379,0.177,2.769,0.269,4.156,0.377c0.693,0.054,1.182,0.272,1.234,1.077c0.021,0.323,0.157,0.655,0.31,0.946
		c0.106,0.202,0.309,0.448,0.507,0.49c0.79,0.167,1.592,0.308,2.397,0.375c1.807,0.151,3.621,0.21,5.425,0.389
		c1.349,0.134,2.617,0.556,3.697,1.441c0.425,0.348,0.868,0.702,1.359,0.935c0.888,0.423,1.822,0.75,2.73,1.134
		c0.505,0.214,0.988,0.424,1.572,0.35c0.945-0.12,1.899-0.181,2.85-0.249c1.272-0.091,2.546-0.159,3.818-0.257
		c0.12-0.009,0.273-0.136,0.335-0.25c0.128-0.238,0.205-0.503,0.246-0.611c-1.114-0.936-2.149-1.854-3.241-2.699
		c-0.402-0.312-0.937-0.453-1.537-0.731c-0.028-0.172-0.081-0.504-0.143-0.889c0.433,0,0.759-0.04,1.071,0.008
		c0.759,0.115,1.362,0.477,1.776,1.159c0.169,0.278,0.418,0.569,0.703,0.701c0.928,0.433,1.885,0.807,2.839,1.184
		c1.465,0.58,2.995,0.865,4.565,0.917c0.179,0.006,0.511-0.177,0.524-0.297c0.068-0.665,0.145-1.349,0.058-2.005
		c-0.155-1.17-0.909-2.066-1.544-3.017c-0.6-0.898-1.133-1.84-1.674-2.776c-0.055-0.094,0.013-0.38,0.072-0.396
		c0.172-0.046,0.417-0.067,0.546,0.025c0.22,0.157,0.385,0.399,0.555,0.619c1.046,1.354,3.052,1.964,4.651,1.404
		c0.05-0.017,0.082-0.083,0.151-0.158c-0.332-0.679-0.614-1.404-1.018-2.051c-0.782-1.253-1.596-2.49-2.464-3.684
		c-0.944-1.298-2.241-2.178-3.727-2.748c-2.339-0.896-4.713-0.677-7.063-0.056c-0.741,0.196-1.471,0.421-2.194,0.667
		c1.011-1.129,1.942-2.328,2.782-3.587c1.081-0.976,2.133-1.985,3.159-3.018c1.318-1.326,2.38-2.856,3.28-4.5
		c0.171-0.313,0.516-0.531,0.781-0.793c0.063,0.042,0.127,0.084,0.191,0.126c0.156-0.85,0.411-1.696,0.448-2.552
		c0.082-1.911,0.062-3.824-0.141-5.724c0.41-0.315,0.81-0.642,1.202-0.979c0.064,0.359,0.128,0.718,0.197,1.08
		c0.434-0.033,0.679,0.042,0.714,0.563c0.038,0.557,0.242,1.112,0.424,1.65c0.618,1.828,1.813,3.273,3.089,4.677
		c0.879,0.967,1.684,2.003,2.494,3.03c0.759,0.962,1.098,2.254,2.315,2.86c0.384,0.191,0.722,0.483,1.057,0.759
		c0.625,0.514,1.275,0.981,1.251,1.965c-0.012,0.483,0.241,0.985,0.429,1.457c0.487,1.226,0.993,2.445,1.52,3.654
		c0.086,0.197,0.302,0.345,0.476,0.493c0.507,0.43,1.125,0.772,1.513,1.289c0.558,0.744,0.815,0.96,1.702,0.792
		c0.289-0.055,0.575-0.22,0.855-0.205c0.562,0.031,0.699-0.325,0.85-0.736c0.311-0.85,0.604-1.709,0.977-2.532
		c0.458-1.01,0.75-1.04,1.638-0.368c1.387,1.049,2.789,2.078,4.191,3.106c0.178,0.13,0.4,0.201,0.626,0.31
		c0.245-1.828-0.109-3.51-0.57-5.122c0.719-0.472,1.107-0.037,1.513,0.352c1.001,0.959,2.178,1.367,3.552,1.181
		c0.177-1.123-0.212-1.994-1.102-2.753c-0.586-0.499-1.216-1.021-1.589-1.669c-0.286-0.497-0.451-0.741-1.078-0.77
		c-1.865-0.087-3.724-0.319-5.588-0.437c-0.443-0.028-0.769-0.129-1.029-0.471c-0.143-0.189-0.294-0.372-0.438-0.56
		c-1.034-1.35-1.615-2.858-1.825-4.474c0.602,0.254,1.158,0.632,1.675,1.142c0.057,0.171,0.134,0.336,0.229,0.495
		c0.36,0.603,0.874,1.125,1.37,1.635c0.677,0.696,0.784,0.686,1.369,0.385c0.213,0.02,0.426,0.006,0.628-0.049
		c0.559-0.154,0.945-0.526,1.146-0.993c0.306-0.286,0.551-0.531,0.827-0.732c1.171-0.856,2.472-0.696,3.769-0.411
		c1.506,0.33,3.006,0.691,4.509,1.039c0.056-0.049,0.112-0.099,0.168-0.148c-0.721-2.195-1.442-4.389-2.175-6.62
		c1.121-0.15,2.178-0.291,3.279-0.438c-0.489-1.674-1.666-2.653-3.214-3.215c-1.552-0.563-3.144-1.014-4.701-1.565
		c-1.323-0.468-2.546-1.105-3.26-2.415c-0.055-0.1-0.171-0.167-0.289-0.278c-0.001,0.022-0.001,0.041-0.002,0.063
		c-0.597-0.867-1.12-1.778-1.568-2.732c-0.407-1.091-0.713-2.212-0.916-3.359c-0.011-0.116-0.024-0.23-0.039-0.343
		c0.021-0.006,0.043-0.011,0.064-0.017c-0.109-1.451-0.17-2.907-0.342-4.35c-0.177-1.488-0.368-2.985-0.723-4.437
		c-0.672-2.749-1.463-5.469-2.21-8.2c-0.112-0.409-0.213-0.823-0.749-0.924c-0.154-0.029-0.31-0.233-0.398-0.394
		c-1.278-2.343-2.516-4.709-3.825-7.035c-0.861-1.53-1.8-3.033-3.129-4.209c-0.172-0.477-0.409-0.931-0.707-1.345
		c0.546-0.155,1.09-0.32,1.635-0.478c0.435-0.125,0.639-0.331,0.713-0.783c0.06-0.364,0.106-0.813,0.603-0.919
		c2.509-0.534,4.911-1.402,7.31-2.291c0.997-0.369,1.664-0.831,2.082-1.932c0.724-1.907,1.917-3.586,3.903-4.404
		c0.723-0.298,1.057-0.72,1.192-1.416c0.022-0.115,0.077-0.223,0.116-0.335c0.357-1.021,0.959-1.765,2.116-1.851
		c0.045-0.18,0.082-0.331,0.121-0.482c0.413-1.595,0.496-3.187,0.2-4.827c-0.102-0.561-0.24-1.11-0.399-1.65
		c0.445-0.243,0.89-0.486,1.335-0.728c0.048,0.105,0.096,0.211,0.145,0.318c0.806-0.699,1.694-0.702,2.547-0.827
		c0.817-0.119,1.677-0.151,2.239-0.89c0.175-0.23,0.243-0.545,0.427-0.765c0.957-1.144,1.944-2.263,2.905-3.404
		c1.166-1.383,1.605-2.963,1.164-4.735c-0.205-0.823-0.495-1.625-0.759-2.476c0.297-0.032,0.578-0.062,0.933-0.1
		C129.287,33.569,129.005,32.912,128.607,32.335z"/>
</g>
</svg>
