<?xml version="1.0" encoding="iso-8859-1"?>
<!-- Generator: Adobe Illustrator 17.1.0, SVG Export Plug-In . SVG Version: 6.00 Build 0)  -->
<!DOCTYPE svg PUBLIC "-//W3C//DTD SVG 1.1//EN" "http://www.w3.org/Graphics/SVG/1.1/DTD/svg11.dtd">
<svg version="1.1" id="Capa_1" xmlns="http://www.w3.org/2000/svg" xmlns:xlink="http://www.w3.org/1999/xlink" x="0px" y="0px"
	 viewBox="0 0 150 150" style="enable-background:new 0 0 150 150;" xml:space="preserve">
<g>
	<path d="M140.75,39.233c-1.341-2.261-3.263-3.919-5.272-5.507c-0.791-0.625-1.788-1.025-2.476-1.736
		c-1.242-1.282-2.709-2.145-4.283-2.912c-0.497-0.242-0.932-0.669-1.307-1.09c-0.679-0.763-1.239-1.635-1.944-2.372
		c-2.004-2.094-4.433-3.566-7.055-4.777c-1.528-0.706-3.323-0.996-4.402-2.614c-0.31,2.054,1.698,2.493,2.53,3.86
		c-0.302,0.065-0.532,0.173-0.75,0.152c-1.42-0.132-2.835-0.325-4.257-0.431c-1.309-0.098-2.633-0.037-3.933-0.19
		c-0.911-0.107-1.793-0.457-2.798-0.727c0.114,0.138,0.176,0.219,0.243,0.293c0.07,0.077,0.138,0.158,0.219,0.22
		c2.211,1.699,4.739,2.648,7.472,3.025c2.513,0.346,4.713,1.209,6.308,3.287c0.405,0.528,0.295,0.948-0.362,1.082
		c-1.5,0.304-2.694,0.985-3.38,2.437c-0.167,0.353-0.532,0.64-0.861,0.884c-1.187,0.88-2.43,1.686-3.59,2.598
		c-1.647,1.296-3.302,2.593-4.834,4.018c-1.316,1.225-2.42,2.676-3.696,3.948c-2.541,2.533-5.687,3.801-9.231,3.795
		c-2.553-0.005-5.114-0.312-7.654-0.619c-1.563-0.189-2.955,0.121-4.327,0.794c-1.215,0.596-2.417,1.235-3.681,1.706
		c-0.916,0.342-1.934,0.4-2.886,0.657c-1.575,0.425-3.17,0.293-4.713,0.023c-1.507-0.264-2.948-0.881-4.433-1.292
		c-1.243-0.344-2.507-0.614-3.761-0.916c-0.86-0.208-1.712-0.464-2.582-0.612c-1.332-0.226-2.688-0.324-4.014-0.579
		c-1.015-0.195-1.985-0.705-3-0.797c-2.279-0.207-4.574-0.241-6.863-0.346c-0.258-0.012-0.518-0.003-0.773-0.035
		c-1.89-0.243-3.778-0.499-5.668-0.74c-1.353-0.173-2.366,0.524-3.301,1.358c-0.867,0.773-1.679,1.608-2.553,2.373
		c-0.746,0.654-1.646,1.156-2.3,1.885c-1.692,1.885-3.122,4.011-5.153,5.582c-1.319,1.021-2.613,2.083-3.99,3.02
		c-1.031,0.702-2.132,1.261-2.936,2.283c-1.268,1.61-1.978,3.486-2.789,5.324c-1.003,2.275-1.82,4.703-4.412,5.741
		c0.305,0.353,0.48,0.62-0.022,0.919c-1.321,0.787-2.624,1.561-4.204,0.625c-0.143-0.084-0.378-0.011-0.566-0.011
		c0.524,0.495,0.965,1.109,1.563,1.423c0.606,0.318,1.053,0.521,0.657,1.232c0.299,0.131,0.552,0.242,0.726,0.318
		c-0.256,0.537-0.46,0.966-0.744,1.562c2.215-0.777,2.541-0.7,2.94,0.613c0.649-0.218,1.468-0.926,1.705,0.645
		c0.719-0.645,1.281-1.194,1.898-1.673c0.16-0.124,0.686-0.101,0.714-0.024c0.325,0.887,0.686,0.485,1.075,0.073
		c0.118-0.125,0.264-0.223,0.449-0.377c0.379,0.656,0.769,0.633,1.232,0.125c0.343-0.376,0.754-0.693,1.15-1.017
		c0.149-0.122,0.398-0.315,0.505-0.265c0.979,0.45,1.4-0.485,1.628-0.929c0.334-0.65,0.805-0.764,1.388-1.002
		c0.092,0.235,0.219,0.432,0.244,0.641c0.22,1.875,0.543,3.749,0.604,5.63c0.1,3.125,0.14,6.258-0.739,9.323
		c-0.807,2.813-2.099,5.237-4.792,6.687c-0.212,0.114-0.443,0.384-0.476,0.609c-0.196,1.338-0.379,2.681-0.484,4.029
		c-0.19,2.43-0.323,4.864-0.476,7.297c-0.153,2.445-0.405,4.87-1.308,7.18c-0.078,0.2-0.019,0.487,0.054,0.707
		c0.414,1.243,0.963,2.453,1.248,3.723c0.261,1.16,0.806,2.308,0.49,3.567c-0.037,0.149,0.145,0.474,0.294,0.528
		c1.372,0.496,2.141,1.573,2.854,2.755c0.244,0.405,0.668,0.774,1.097,0.977c0.703,0.334,1.461,0.636,2.225,0.743
		c1.926,0.272,3.91,0.723,5.761-0.895c-1.281-1.205-2.509-2.386-3.769-3.533c-0.729-0.664-1.578-1.209-2.252-1.921
		c-1.154-1.218-1.599-2.817-1.974-4.393c-0.247-1.037-0.328-2.129-0.343-3.199c-0.012-0.892,0.158-1.79,0.29-2.679
		c0.236-1.582,0.48-3.163,0.765-4.736c0.34-1.875,1.325-3.489,2.179-5.152c0.092-0.178,0.284-0.457,0.392-0.441
		c0.192,0.029,0.441,0.212,0.518,0.393c0.444,1.044,0.953,2.078,1.24,3.168c0.748,2.845,1.096,5.763,1.261,8.695
		c0.115,2.034,0.094,4.075,0.191,6.11c0.014,0.307,0.28,0.666,0.53,0.886c0.687,0.607,1.512,1.074,2.128,1.74
		c1.029,1.111,1.446,2.494,1.372,4.021c-0.011,0.232,0.046,0.56,0.2,0.691c0.946,0.801,1.452,1.842,1.831,2.99
		c0.196,0.596,0.316,1.325,1.087,1.506c0.901,0.211,1.732,0.703,2.728,0.558c0.66-0.096,1.361-0.111,2.015,0.003
		c1.117,0.194,1.88-0.407,2.665-0.904c-0.966-1.288-1.909-2.529-2.835-3.784c-0.861-1.166-1.749-2.317-2.538-3.531
		c-0.422-0.648-0.592-1.456-0.997-2.117c-1.139-1.857-2.51-3.579-2.722-5.884c-0.13-1.414-0.462-2.809-0.658-4.219
		c-0.152-1.089-0.198-2.194-0.353-3.282c-0.268-1.881-0.193-3.747,0.381-5.546c0.369-1.155,1.107-2.044,2.474-2.226
		c0.476-0.063,0.967-0.337,1.36-0.635c0.917-0.696,1.82-1.422,2.653-2.215c1.01-0.962,1.943-2.006,2.908-3.015
		c0.321-0.335,0.644-0.534,1.12-0.227c2.289,1.473,4.866,2.046,7.523,2.249c2.908,0.223,5.813-0.07,8.655-0.641
		c2.599-0.523,5.183-1.203,7.697-2.045c3.767-1.262,7.459-2.744,11.196-4.096c2.093-0.757,4.172-1.625,6.332-2.111
		c2.492-0.56,2.078-0.856,2.592,1.158c0.013,0.05,0.017,0.102,0.021,0.154c0.209,2.76,0.473,5.518,0.609,8.282
		c0.128,2.577,0.135,5.161,0.163,7.742c0.008,0.767-0.107,1.534-0.144,2.303c-0.11,2.315-0.235,4.63-0.303,6.947
		c-0.077,2.589-0.576,5.105-1.293,7.576c-0.324,1.118,0.34,1.79,0.792,2.683c0.379-0.427,0.657-0.942,1.111-0.268
		c0.027,0.041,0.119,0.086,0.149,0.07c0.921-0.496,0.995,0.375,1.243,0.823c0.866,1.568,1.583,3.226,2.552,4.724
		c0.433,0.67,1.298,1.412,2.02,1.471c1.589,0.131,3.212-0.147,4.82-0.273c0.135-0.011,0.261-0.134,0.479-0.253
		c-0.385-0.504-0.775-0.966-1.104-1.468c-0.121-0.184-0.101-0.461-0.145-0.695c0.214-0.005,0.475-0.094,0.634-0.003
		c1.283,0.733,2.638,0.523,3.961,0.266c0.732-0.142,1.414-0.542,2.169-0.846c-1.756-1.667-2.861-3.715-4.03-5.714
		c-0.95-1.623-0.984-3.463-1.069-5.258c-0.152-3.217,0.154-6.413,0.594-9.601c0.278-2.016,0.598-4.02,1.4-5.898
		c0.566-1.323,0.284-2.608-0.008-3.894c-0.257-1.13-0.671-2.225-0.929-3.355c-0.59-2.586-0.495-5.131,0.645-7.574
		c0.148-0.317,0.304-0.718,0.576-0.876c1.484-0.867,2.64-2.043,3.417-3.559c0.316-0.617,0.591-1.319,0.629-1.997
		c0.054-0.951,0.336-1.739,0.932-2.455c0.776-0.933,1.163-1.991,1.136-3.231c-0.044-1.994-0.061-3.991,0.005-5.984
		c0.046-1.399,0.205-2.859,1.109-3.973c1.01-1.245,1.529-2.664,2.046-4.129c1.196-3.391,2.403-6.779,3.696-10.134
		c0.571-1.481,1.378-2.876,2.676-3.874c1.053-0.81,1.896-0.759,2.641,0.309c1.631,2.339,3.7,3.974,6.552,4.38
		c1.408,0.201,2.864,0.23,4.284,0.132c1.046-0.073,1.176-0.586,0.577-1.505c-0.111-0.171-0.31-0.287-0.407-0.462
		c-0.159-0.287-0.269-0.603-0.409-0.929c0.414-0.085,0.685-0.165,0.961-0.194c1.247-0.129,2.492-0.305,3.742-0.346
		c1.209-0.04,1.946,0.724,1.724,1.694c-0.088,0.384-0.355,0.727-0.534,1.092c-0.044,0.09-0.115,0.25-0.083,0.281
		c0.401,0.38,0.072,0.6-0.142,0.893c-0.372,0.509-0.691,1.057-1.129,1.739c1.022-0.171,1.163-0.01,1.025,0.714
		c-0.232,1.216-0.431,2.437-0.684,3.878c0.646-0.535,1.055-0.39,1.198,0.05c0.14,0.433,0.107,0.94,0.066,1.407
		c-0.04,0.463-0.361,0.97-0.243,1.361c0.181,0.599,0.635,1.115,0.973,1.666c0.064-0.025,0.128-0.049,0.192-0.074
		c-0.097-0.458-0.52-1.046,0.463-1.083c-0.159-0.232-0.339-0.402-0.401-0.607c-0.097-0.323-0.281-0.815-0.137-0.983
		c0.607-0.704,0.396-1.428,0.255-2.184c-0.088-0.47-0.09-0.931,0.503-1.131c0.107-0.036,0.245-0.213,0.238-0.316
		c-0.035-0.536,0.073-0.994,0.455-1.406c0.121-0.13,0.055-0.421,0.107-0.63c0.092-0.37,0.128-0.789,0.334-1.086
		c0.225-0.325,0.616-0.535,0.945-0.804c-1.094-0.928-1.3-1.893-0.988-3.374c0.234-1.112,0.905-1.727,1.929-2.033
		c0.82-0.245,1.027-0.616,0.88-1.434c-0.127-0.708-0.415-1.406,0.054-2.152c0.346-0.549,0.103-1.095-0.362-1.567
		C142.191,40.904,141.303,40.164,140.75,39.233z"/>
</g>
</svg>
