<?xml version="1.0" encoding="iso-8859-1"?>
<!-- Generator: Adobe Illustrator 17.1.0, SVG Export Plug-In . SVG Version: 6.00 Build 0)  -->
<!DOCTYPE svg PUBLIC "-//W3C//DTD SVG 1.1//EN" "http://www.w3.org/Graphics/SVG/1.1/DTD/svg11.dtd">
<svg version="1.1" id="Capa_1" xmlns="http://www.w3.org/2000/svg" xmlns:xlink="http://www.w3.org/1999/xlink" x="0px" y="0px"
	 viewBox="0 0 150 150" style="enable-background:new 0 0 150 150;" xml:space="preserve">
<g>
<path d="M117.844,66.367c-6.17,0.648-12.352,0.937-18.556,0.421c-4.644-0.386-9.008-1.759-13.233-3.614
	c-2.936-1.29-5.794-2.756-8.712-4.087c-3.599-1.642-7.407-1.863-11.267-1.419c-6.188,0.712-11.916,2.961-17.625,5.303
	c-3.224,1.323-6.495,2.579-9.832,3.568c-1.91,0.566-3.848,0.829-5.795,0.885c-0.11,0.003-0.248-0.015-0.309-0.029
	c-0.036-0.009-0.073-0.015-0.111-0.018c-0.348-0.024-0.695-0.049-1.043-0.073c-0.067-0.005-0.132,0.004-0.193,0.024
	c-0.103,0.033-0.262,0.087-0.373,0.082c-1.49-0.06-2.982-0.224-4.466-0.453c-0.109-0.017-0.176-0.125-0.233-0.211
	c-0.031-0.046-0.081-0.08-0.155-0.092c-1.25-0.201-2.504-0.344-3.762-0.434c-0.11-0.008-0.288-0.03-0.397-0.05
	c-4.011-0.736-8.011-1.544-12.034-2.209c-1.182-0.195-2.45,0.139-3.73,0.272c-0.11,0.011-0.193,0.035-0.186,0.054
	s-0.076,0.048-0.185,0.067c-0.483,0.085-0.954,0.212-1.382,0.395c-0.102,0.044-0.268,0.109-0.374,0.141
	c-0.166,0.05-0.332,0.101-0.498,0.151c-0.025,0.005-0.05,0.009-0.074,0.016c-0.283,0.078-0.452,0.323-0.467,0.595
	c-0.006,0.11-0.007,0.286-0.004,0.397c0.003,0.107,0.029,0.207,0.073,0.297c0.048,0.1,0.145,0.251,0.228,0.324
	c0.014,0.013,0.029,0.025,0.045,0.036c0.089,0.066,0.22,0.176,0.286,0.264c0.102,0.137,0.253,0.296,0.458,0.403
	c0.259,0.134,0.206-0.015,0.152-0.302c-0.021-0.109-0.006-0.205,0.026-0.213s0.099,0.05,0.162,0.122
	c0.037,0.042,0.077,0.083,0.122,0.121c0.197,0.168,0.206,0.061,0.214-0.168c0.004-0.11,0.03-0.205,0.055-0.211
	s0.087,0.05,0.146,0.118c0.035,0.04,0.073,0.079,0.116,0.115c0.191,0.162,0.205,0.068,0.213-0.146
	c0.004-0.11,0.078-0.214,0.163-0.229s0.198,0.039,0.261,0.111c0.037,0.042,0.077,0.083,0.122,0.122
	c0.19,0.162,0.205,0.069,0.213-0.144c0.004-0.11,0.064-0.209,0.132-0.222s0.153-0.005,0.191,0.004
	c0.022,0.005,0.045,0.008,0.07,0.008c0.031,0,0.066,0,0.103,0.001c0.057,0.001,0.034,0.058-0.04,0.141
	c-0.04,0.045-0.077,0.092-0.109,0.144c-0.059,0.094,0.002,0.171,0.112,0.161c0.3-0.029,0.598-0.057,0.891-0.085
	c0.11-0.011,0.227,0.026,0.242,0.09c0.014,0.064-0.061,0.175-0.159,0.226c-0.188,0.098-0.41,0.158-0.545,0.196
	c-0.025,0.007-0.082,0.062-0.16,0.147c-0.075,0.081-0.217,0.115-0.313,0.06c-0.403-0.23-0.597-0.529-0.584-0.15
	c0.008,0.237,0.092,0.447,0.174,0.599c0.052,0.097,0.019,0.143-0.081,0.095c-0.468-0.224-0.69-0.591-0.675-0.187
	c0.003,0.099,0.021,0.19,0.046,0.275c0.031,0.106-0.009,0.142-0.099,0.078c-0.272-0.191-0.403-0.341-0.392-0.029
	c0.005,0.146,0.039,0.281,0.084,0.4c0.039,0.103,0.01,0.128-0.071,0.052c-0.325-0.309-0.442-0.623-0.513-0.259
	c-0.005,0.024-0.005,0.046-0.006,0.069c0,0.038-0.069,0.128-0.13,0.22c-0.335,0.508,0.128,1.139,0.776,1.256
	c1.361,0.247,2.731-1.429,3.999-1.899c0.559-0.169,1.117-0.339,1.676-0.508c0.106-0.032,0.279-0.038,0.386-0.013
	c1.198,0.281,2.569,0.629,3.961,0.87c8.36,1.448,16.727,2.857,25.09,4.286c2.324,0.397,4.647,0.802,6.966,1.233
	c0.301,0.056,0.672,0.215,0.838,0.449c1.681,2.375,4.022,3.827,6.687,4.809c0.569,0.21,0.792,0.459,0.843,1.084
	c0.091,1.121,0.422,2.225,0.488,3.346c0.068,1.147-0.516,1.746-1.619,2.163c-0.644,0.244-1.269,0.578-1.833,0.971
	c-0.038,0.026-0.07,0.063-0.098,0.105c-0.044,0.067-0.115,0.203-0.169,0.299c-0.152,0.269-0.345,0.655-0.326,0.848
	c0.026,0.254,0.261-0.112,0.819-0.442c0.095-0.056,0.135-0.015,0.09,0.086c-0.112,0.252-0.204,0.513-0.19,0.668
	c0.03,0.33,0.333-0.226,1.07-0.636c0.097-0.054,0.141-0.01,0.103,0.094c-0.063,0.17-0.104,0.327-0.094,0.433
	c0.033,0.368,0.401-0.368,1.336-0.773c0.157-0.073,0.301-0.14,0.442-0.205c0.1-0.046,0.204,0.003,0.224,0.111
	c0.149,0.799-0.059,1.363,0.205,1.175c0.195-0.139,0.417-0.631,0.55-0.962c0.041-0.103,0.113-0.266,0.162-0.365
	c0.846-1.706,1.486-3.465,1.603-5.438c0.007-0.11,0.044-0.116,0.085-0.013c0.108,0.274,0.21,0.55,0.34,0.812
	c0.393,0.791,0.756,1.602,1.221,2.35c0.609,0.981,0.377,2.833-0.522,3.541c-0.095,0.074-0.233,0.215-0.296,0.19
	c-1.024-0.413-1.744,0.565-2.674,0.568c-0.252,0.001-0.442,0.048-0.59,0.125c-0.031,0.014-0.931,0.436-1.07,0.724
	c-0.079,0.165,0.095,0.125,0.435,0.091c0.11-0.011,0.195,0.027,0.193,0.08c-0.002,0.053-0.045,0.175-0.088,0.277
	c-0.05,0.118-0.082,0.225-0.077,0.302c0.014,0.225,0.211-0.008,0.645-0.279c0.094-0.058,0.262-0.113,0.372-0.126
	c0.318-0.038,0.634-0.072,0.946-0.099c0.11-0.009,0.152,0.061,0.099,0.158c-0.117,0.214-0.214,0.435-0.205,0.57
	c0.014,0.217,0.193,0.007,0.592-0.252c0.093-0.06,0.253-0.138,0.354-0.183c0.301-0.134,0.593-0.291,0.901-0.338
	c1.478-0.223,2.447-1.246,2.624-2.779c0.08-0.692,0.276-1.37,0.354-2.062c0.037-0.323-0.045-0.673-0.13-0.996
	c-0.43-1.622-0.878-3.24-1.307-4.812c-0.029-0.107,0.033-0.221,0.138-0.257c1.962-0.656,3.733-1.22,5.478-1.853
	c0.829-0.301,1.622-0.715,2.399-1.138c0.454-0.247,0.777-0.279,1.083,0.187c0.167,0.255,0.384,0.478,0.587,0.707
	c1.656,1.867,1.952,3.867,0.715,6.019c-0.055,0.096-0.132,0.195-0.198,0.284c-0.208,0.281-0.659,0.935-0.837,1.351
	c-0.011,0.026-0.019,0.052-0.023,0.077c-0.008,0.044-0.044,0.137-0.094,0.208c-0.03,0.042-0.061,0.085-0.091,0.127
	c-0.73,0.871-1.632,1.416-2.918,1.466c-1.015,0.04-1.451,0.67-1.457,1.63c-0.001,0.11,0.089,0.171,0.194,0.136
	c0.265-0.089,0.534-0.179,0.806-0.27c0.105-0.035,0.129,0.004,0.062,0.092c-0.07,0.093-0.122,0.181-0.141,0.253
	c-0.088,0.329,0.416-0.125,1.293-0.244c0.109-0.015,0.209,0.068,0.222,0.178c0.016,0.14,0.032,0.277,0.049,0.42
	c0.013,0.11,0.079,0.129,0.152,0.046c1.062-1.192,2.629-1.727,3.923-1.242c0.103,0.039,0.134,0.003,0.079-0.092
	c-0.532-0.921-0.094-1.458,0.505-1.934c0.087-0.069,0.136-0.128,0.107-0.136c-0.029-0.008,0.006-0.082,0.077-0.167
	c0.592-0.721,1.045-1.535,1.352-2.431c0.008-0.023,0.012-0.045,0.014-0.066c0.003-0.037,0.022-0.153,0.05-0.259
	c0.332-1.236,0.498-2.765,0.188-3.238c-0.803-1.228-0.953-2.569-0.979-4.098c-0.002-0.11,0.088-0.194,0.198-0.188
	c1.389,0.081,2.774,0.151,4.155,0.268c0.162,0.014,0.337,0.3,0.442,0.495c0.305,0.565,0.539,1.17,0.871,1.717
	c0.89,1.468,2.102,2.241,3.916,2.495c2.127,0.298,4.189,1.097,6.259,1.745c1.225,0.384,2.405,0.91,3.615,1.346
	c1.847,0.666,3.187,2.414,3.267,4.344c0.007,0.176-0.149,0.371-0.259,0.538c-0.183,0.28-0.515,0.524-0.566,0.82
	c-0.26,1.508-1.517,1.552-2.591,1.758c-0.877,0.169-1.56,0.485-2.037,1.351c-0.053,0.097-0.007,0.145,0.096,0.104
	c0.252-0.099,0.476-0.186,0.724-0.284c0.103-0.04,0.14,0.004,0.086,0.101c-0.148,0.267-0.324,0.627-0.305,0.811
	c0.017,0.172,0.133,0.059,0.378-0.135c0.087-0.069,0.234-0.137,0.326-0.155s0.129,0.05,0.095,0.155
	c-0.032,0.095-0.05,0.181-0.043,0.244c0.031,0.312,0.375-0.312,1.25-0.656c0.014-0.005,0.026-0.011,0.037-0.016
	c0.02-0.009,0.109-0.038,0.197-0.065c0.053-0.016,0.106-0.034,0.158-0.054c1.153-0.442,2.45-0.767,3.349-1.536
	c0.917-0.784,1.21-2.048,0.756-3.378c-0.331-0.968-0.524-2.004-0.626-3.025c-0.144-1.442-0.971-2.247-2.257-2.566
	c-1.698-0.42-2.968-1.4-4.057-2.698c-1.43-1.705-3.125-3.029-5.465-3.699c-0.106-0.03-0.12-0.106-0.031-0.171
	c1.416-1.031,2.517-2.051,4.525-1.682c12.057,2.215,23.74,0.768,35.034-3.967c6.962-2.919,14.162-5.131,21.415-7.182
	c0.375-0.106,0.744-0.232,1.086-0.47c0.091-0.063,0.071-0.104-0.038-0.084c-1.351,0.256-2.702,0.506-4.051,0.773
	C134.599,64.052,126.263,65.484,117.844,66.367z"/>
</g>
</svg>
