<?xml version="1.0" encoding="iso-8859-1"?>
<!-- Generator: Adobe Illustrator 17.1.0, SVG Export Plug-In . SVG Version: 6.00 Build 0)  -->
<!DOCTYPE svg PUBLIC "-//W3C//DTD SVG 1.1//EN" "http://www.w3.org/Graphics/SVG/1.1/DTD/svg11.dtd">
<svg version="1.1" id="Capa_1" xmlns="http://www.w3.org/2000/svg" xmlns:xlink="http://www.w3.org/1999/xlink" x="0px" y="0px"
	 viewBox="0 0 150 150" style="enable-background:new 0 0 150 150;" xml:space="preserve">
<g>
	<path d="M137.058,36.262c-3.938-2.608-8.103-4.882-12.234-7.186c-2.245-1.252-3.933-2.94-5.141-5.186
		c-1.617-3.006-4.127-5.065-7.46-5.586c-2.789-0.436-5.565,0.209-7.971,1.912c-0.917,0.65-1.894,1.219-2.79,1.895
		c-0.415,0.313-0.703,0.796-0.853,0.972c-1.808,1.548-3.399,2.937-5.022,4.289c-0.682,0.568-1.468,1.014-2.137,1.596
		c-0.5,0.435-0.887,0.998-1.644,1.875c-0.722,0.441-1.928,1.226-3.179,1.931c-1.653,0.931-3.279,1.961-5.038,2.63
		c-0.917,0.349-2.183,0.478-2.913-0.829c-0.83-1.488-1.887-2.852-2.673-4.36c-0.949-1.82-2.771-2.447-4.321-3.429
		c-1.608-1.018-3.318-1.875-5.181-2.913c0.259,0.531,0.471,0.963,0.678,1.386c-1.35-0.538-2.722-1.086-4.332-1.728
		c0.279,0.667,0.456,1.09,0.756,1.808c-2.422-0.679-4.611-1.293-6.8-1.906c-0.056,0.148-0.111,0.297-0.167,0.445
		c0.379,0.192,0.757,0.383,1.332,0.674c-2.437,0.177-4.68,0.34-6.924,0.503c-0.008,0.082-0.017,0.165-0.025,0.247
		c0.232,0.059,0.464,0.118,0.983,0.249c-0.896,0.216-1.535,0.418-2.189,0.513c-0.65,0.094-1.34-0.015-1.968,0.143
		c-0.603,0.152-1.138,0.558-1.723,0.805c-2.431,1.028-4.869,2.042-7.31,3.045c-0.192,0.079-0.443,0.093-0.649,0.051
		c-2.833-0.574-5.224,0.21-7.579,1.893c-1.491,1.065-3.446,1.474-5.174,2.221c-0.659,0.285-1.345,0.602-1.873,1.068
		c-0.487,0.43-0.781,1.079-1.159,1.632c0.737,0.091,1.496,0.335,2.208,0.238c1.317-0.179,2.607-0.559,4.089-0.495
		c-4.974,3.591-9.189,7.669-11.945,13.054c0.141,0.158,0.282,0.316,0.422,0.475c0.796-0.752,1.591-1.505,2.406-2.276
		c0.198,0.655,0.374,1.237,0.549,1.816c-0.009,0.006-0.017,0.013-0.026,0.018c-0.393,0.535-0.785,1.071-1.181,1.603
		c-2.248,3.026-4.762,5.897-6.651,9.132c-1.185,2.03-2.106,4.227-3.348,6.286c-2.017,3.345-3.681,6.929-5.217,10.53
		c-0.86,2.015-1.258,4.248-1.683,6.419c-0.261,1.331,1.373,2.574,3.251,2.67c0.482,0.025,0.967,0.004,1.488,0.004
		c-0.091,1.187-0.17,2.207-0.241,3.13c2.838,2.011,5.236,0.254,7.728-0.753c1.537-0.621,3.094-1.19,4.75-1.823
		c0.337,2.602,2.026,3.408,4.174,2.409c1.653-0.769,3.281-1.591,4.955-2.407c4.599,7.162,9.131,14.346,13.799,21.44
		c0.229,1.747,0.459,3.494,0.688,5.241c0.002,0.013,0.006,0.026,0.008,0.039l-0.054,0.012c0.02,0.204,0.096,0.4,0.216,0.588
		c0.201,0.479,0.564,0.847,1.084,0.977c1.888,1.188,5.108,1.864,4.624,1.864c-0.669,0-0.892-0.112-2.006,0.223s0,2.341,0,2.341
		c0.669-1.561,1.895-0.223,3.79-0.334c1.895-0.111,4.682,1.561,4.682,1.561c2.229-0.223,1.226,0.557,0.557,1.895
		c-0.669,1.338-1.115,1.895-1.115,1.895c1.338,0.223,2.118-0.446,2.118-0.446c0.601-0.676,0.797-1.756,1.032-1.809
		c-0.024,0.032-0.041,0.054-0.041,0.054c0.059,0.01,0.115,0.016,0.171,0.022c0.08,0.109,0.172,0.337,0.287,0.729
		c0.557,1.895,0.111,1.449,1.338,2.341c1.226,0.892,2.118,1.895,2.229,2.675c0.111,0.78,0.823,0.938,0.823,0.938
		c-0.575-1.385,0.626-2.721-1.612-5.656c1.91,1.443,3.378,2.493,3.773,4.482c0.068,0.34,0.327,0.793,0.615,0.914
		c1.536,0.642,0.425,1.465,0.24,2.217l-0.049,0.672l1.236-1.328c0.678-1.694-0.064-3.783-1.266-5.176
		c0.012-0.979-0.064-2.178-1.44-3.982c1.91,1.443,3.378,2.493,3.773,4.482c0.068,0.34,0.327,0.793,0.615,0.914
		c1.536,0.642,0.425,1.465,0.24,2.217l-0.049,0.672l1.236-1.328c0.699-1.746-0.109-3.913-1.376-5.303
		c-2.692-2.955-5.943-5.185-9.244-7.329c-1.298-0.843-2.927-1.175-4.506-1.778c0,0-6.504-1.217-6.569-2.931
		c-0.176-4.613-0.93-9.365,1.122-13.831c0.131-0.286,0.198-0.676,0.119-0.971c-1.121-4.194,0.284-8.155,1.125-12.157
		c0.469-2.229,1.009-4.453,1.705-6.619c0.281-0.872,0.984-1.66,1.638-2.351c1.656-1.747,3.389-3.421,5.099-5.117
		c0.393-0.39,0.804-0.762,1.223-1.124c3.099-2.683,6.22-5.343,9.289-8.06c0.57-0.504,0.833-1.372,1.426-1.829
		c0.886-0.683,1.677-2.051,3.152-0.93c0.133,0.101,0.445,0.04,0.646-0.03c2.139-0.744,4.287-1.467,6.397-2.288
		c0.542-0.211,1.027-0.687,1.421-1.142c1.995-2.302,3.879-4.704,5.949-6.935c1.177-1.268,2.625-2.286,3.97-3.394
		c1.372-1.13,2.648-2.444,4.177-3.304c3.158-1.778,6.398-3.442,9.727-4.866c1.107-0.474,2.591-0.094,3.902-0.059
		c2.256,0.06,4.514,0.118,6.765,0.259c0.675,0.042,1.501,0.162,1.973,0.574c3.386,2.957,6.693,6.003,10.034,9.012
		c3.236,2.915,6.482,5.82,9.899,8.542c-7.16-8.57-15.035-16.417-23.723-23.456c0.089-0.199,0.177-0.398,0.266-0.597
		c1.318,0.171,2.732,0.093,3.94,0.553c8.829,3.364,17.344,7.292,24.027,14.282c0.105,0.11,0.269,0.163,0.808,0.045
		c-0.42-0.867-0.634-1.963-1.296-2.561C142.265,40.384,139.811,38.086,137.058,36.262z M22.156,49.699
		c0.701-2.251,2.229-3.944,3.667-5.698C25.392,46.442,24.13,48.315,22.156,49.699z M63.054,121.044
		c0.059,0.202,0.105,0.372,0.145,0.525c-0.305-0.239-0.612-0.475-0.922-0.706C62.565,120.181,62.692,119.815,63.054,121.044z
		 M60.044,118.703c1.823-0.182,1.484,0.307,0.935,1.222c-1.006-0.706-2.029-1.387-3.06-2.057c-0.294-0.191-0.606-0.353-0.929-0.5
		C58.539,117.803,60.044,118.703,60.044,118.703z M53.579,114.913c-0.669,0-0.892-0.111-2.006,0.223
		c-0.242,0.073-0.375,0.227-0.441,0.419c-1.129-0.309-2.43-0.739-3.302-1.256c0.094-0.205,0.138-0.431,0.107-0.666
		c-0.094-0.716-0.188-1.433-0.282-2.149C47.862,113.628,54.247,114.913,53.579,114.913z M46.343,93.547
		c-0.322,0.754-0.336,1.702-0.278,2.545c0.245,3.554,0.571,7.102,0.867,10.652c-0.213-0.479-0.586-0.847-1.126-0.958
		c-2.368-3.73-4.723-7.469-7.107-11.188c-1.107-1.727-2.317-3.375-2.418-5.56c-0.047-1.022-0.366-2.03-0.536-3.048
		c-0.4-2.393-0.16-2.542,2.145-3.424c1.682-0.644,3.345-1.524,4.764-2.624c2.623-2.032,5.062-4.302,7.966-6.807
		c0.224,1.068,0.614,1.869,0.51,2.599C50.258,81.86,48.781,87.829,46.343,93.547z"/>
</g>
</svg>
