<?xml version="1.0" encoding="iso-8859-1"?>
<!-- Generator: Adobe Illustrator 17.1.0, SVG Export Plug-In . SVG Version: 6.00 Build 0)  -->
<!DOCTYPE svg PUBLIC "-//W3C//DTD SVG 1.1//EN" "http://www.w3.org/Graphics/SVG/1.1/DTD/svg11.dtd">
<svg version="1.1" id="Capa_1" xmlns="http://www.w3.org/2000/svg" xmlns:xlink="http://www.w3.org/1999/xlink" x="0px" y="0px"
	 viewBox="0 0 150 150" style="enable-background:new 0 0 150 150;" xml:space="preserve">
<g>
	<path d="M147.223,77.386c-0.23-0.046-0.463-0.098-0.696-0.151c-0.914-0.207-1.906-0.397-2.687-0.219
		c-1.586,0.361-3.136,0.959-4.636,1.538c-0.473,0.183-0.945,0.365-1.42,0.541c-0.158,0.059-0.433-0.004-0.553-0.126l-0.37-0.381
		c-0.119-0.123-0.156-0.366-0.08-0.52c0.237-0.483,0.47-0.97,0.702-1.456c0.669-1.401,1.359-2.851,2.189-4.173
		c0.741-1.181,0.968-2.026,0.734-2.741c-0.239-0.731-0.968-1.306-2.363-1.862c-10.219-4.072-20.205-8.208-29.683-12.291
		c-0.672-0.29-1.174-0.992-1.705-1.736c-0.408-0.57-0.83-1.161-1.357-1.593c-3.939-3.231-5.599-7.268-7.354-11.542
		c-1.097-2.67-2.231-5.432-3.978-8.068c-0.916-1.384-3.27-2.717-5.546-4.006c-0.936-0.53-1.903-1.078-2.729-1.607
		c-0.168-0.108-0.236-0.138-0.315-0.138l-0.178,0.003l-0.062,0.16c-0.068,0.179,0.066,0.3,0.209,0.429
		c6.319,5.664,7.87,9.991,9.511,14.572c0.713,1.991,1.45,4.05,2.604,6.265c0.024,0.047,0.027,0.083,0.02,0.099
		s-0.038,0.033-0.09,0.039c-1.398,0.169-2.69,0.319-3.908,0.46c-2.9,0.335-5.406,0.625-7.878,1.021
		c-1.057,0.169-2.114,0.464-3.137,0.75c-1.51,0.421-3.07,0.857-4.595,0.866l-0.612,0.004c-0.401,0.003-0.811,0.006-1.223,0.006
		c-2.676,0-5.711-0.109-7.863-1.414c-3.002-1.819-6.162-2.704-9.66-2.704c-3.569,0-7.088,0.927-10.06,1.834
		c-4.404,1.345-8.799,2.869-13.45,4.483c-2,0.693-4.061,1.408-6.214,2.141c-0.312,0.106-0.369,0.314-0.379,0.399
		c-0.01,0.085-0.002,0.3,0.278,0.475l15.496,9.626c-2.621,0.748-4.939,1.111-7.086,1.111c-2.787,0-5.28-0.6-7.622-1.834
		c-3.667-1.934-7.315-4.06-10.844-6.117c-2.357-1.374-4.794-2.794-7.217-4.146c-1.249-0.697-2.58-1.247-4.121-1.884
		c-0.647-0.268-1.336-0.552-2.074-0.871c-0.395-0.168-0.818,0.06-0.896,0.476C1.754,66.863,2.412,79.958,3.108,93.823
		c0.021,0.425,0.415,0.705,0.823,0.591c0.943-0.265,1.866-0.504,2.77-0.739c2.281-0.592,4.437-1.15,6.476-2.01
		c2.397-1.011,4.763-2.201,7.049-3.351c2.118-1.065,4.309-2.167,6.515-3.122c6.372-2.757,12.137-2.732,18.702,0.107l-10.845,3.646
		c-0.369,0.124-0.637,0.524-0.61,0.912l0.249-0.017l-0.241,0.12c0.024,0.368,0.294,0.764,0.628,0.921
		c1.566,0.741,3.15,1.525,4.682,2.283c3.847,1.902,7.823,3.87,11.906,5.355c1.255,0.457,2.58,0.688,3.939,0.688
		c3.647,0,7.099-1.602,10.436-3.151c0.466-0.217,0.929-0.432,1.389-0.64c3.027-1.375,5.742-2.015,8.545-2.015
		c0.909,0,1.817,0.065,2.776,0.198c3.97,0.55,7.893,0.804,12.436,1.098c1.789,0.116,3.652,0.236,5.615,0.382
		c-6.221,3.811-8.829,9.213-8.205,16.978c0.698,8.677-1.612,14.067-7.724,18.023c-0.274,0.177-0.291,0.356-0.257,0.474
		c0.035,0.118,0.144,0.259,0.468,0.26h0.095c11.241,0,14.946-7.953,18.528-15.645l0.066-0.142c2.178-4.676,3.334-9.903,4.453-14.958
		l0.34-1.53c0.504-2.259,1.249-2.75,3.381-3.167l1.16-0.226c6.589-1.286,13.403-2.616,19.775-4.89
		c4.958-1.77,9.68-4.431,14.246-7.005c1.044-0.588,2.088-1.177,3.133-1.754c0.769-0.425,1.164-1.44,1.546-2.422
		c0.106-0.274,0.213-0.548,0.327-0.808c0.086-0.194,0.085-0.393-0.003-0.56C147.59,77.54,147.429,77.426,147.223,77.386z"/>
</g>
</svg>
