<?xml version="1.0" encoding="iso-8859-1"?>
<!-- Generator: Adobe Illustrator 17.1.0, SVG Export Plug-In . SVG Version: 6.00 Build 0)  -->
<!DOCTYPE svg PUBLIC "-//W3C//DTD SVG 1.1//EN" "http://www.w3.org/Graphics/SVG/1.1/DTD/svg11.dtd">
<svg version="1.1" id="Capa_1" xmlns="http://www.w3.org/2000/svg" xmlns:xlink="http://www.w3.org/1999/xlink" x="0px" y="0px"
	 viewBox="0 0 150 150" style="enable-background:new 0 0 150 150;" xml:space="preserve">
<g>
<path d="M143.347,68.221c-0.429-1.273-1.128-2.392-1.993-3.413c-0.452-0.533-0.86-1.109-1.346-1.608
	c-0.557-0.573-1.161-1.104-1.778-1.613c-0.631-0.52-1.297-0.997-1.958-1.478c-0.21-0.153-0.448-0.272-0.682-0.389
	c-1.377-0.688-2.738-1.415-4.143-2.041c-1.044-0.465-2.146-0.801-3.225-1.189c-0.523-0.188-1.048-0.369-1.577-0.539
	c-0.498-0.16-0.998-0.313-1.502-0.451c-0.901-0.245-1.802-0.493-2.711-0.706c-0.621-0.145-1.255-0.232-1.883-0.345
	c-0.725-0.13-1.446-0.296-2.176-0.382c-0.891-0.105-1.79-0.155-2.687-0.209c-0.52-0.031-1.042-0.038-1.563-0.03
	c-0.655,0.011-1.309,0.049-1.963,0.076c-0.033,0.001-0.066,0.009-0.098,0.005c-1.36-0.152-2.707,0.121-4.063,0.139
	c-1.198,0.016-2.395,0.223-3.587,0.393c-1.024,0.146-2.042,0.324-3.056,0.527c-1.543,0.308-3.102,0.506-4.663,0.687
	c-0.096,0.011-0.223,0.054-0.286,0.01c-0.336-0.233-0.608-0.05-0.89,0.104c-0.239,0.131-0.479,0.172-0.755,0.091
	c-0.142-0.041-0.329-0.014-0.47,0.044c-0.522,0.214-1.041,0.285-1.57,0.044c-0.398-0.182-0.738,0.059-1.079,0.175
	c-0.171,0.058-0.294,0.079-0.453,0.018c-0.153-0.058-0.31-0.104-0.47-0.137c-0.289-0.059-0.572-0.118-0.817,0.15
	c-0.06,0.066-0.237,0.06-0.35,0.037c-0.318-0.064-0.615-0.174-0.945,0.022c-0.119,0.071-0.348-0.014-0.517-0.062
	c-0.239-0.068-0.455-0.122-0.708-0.005c-0.149,0.069-0.37,0.069-0.528,0.013c-0.223-0.079-0.384-0.018-0.541,0.106
	c-0.414,0.328-0.853,0.37-1.331,0.157c-0.182-0.081-0.366-0.102-0.564,0.008c-0.097,0.054-0.274,0.067-0.365,0.014
	c-0.414-0.242-0.764-0.063-1.096,0.148c-0.227,0.143-0.453,0.18-0.699,0.134c-0.157-0.029-0.313-0.079-0.46-0.141
	c-0.421-0.18-0.803-0.244-1.256,0.001c-0.424,0.229-0.921,0.295-1.41,0.072c-0.312-0.142-0.639-0.255-0.966-0.358
	c-0.112-0.035-0.257-0.029-0.367,0.013c-0.214,0.08-0.447,0.16-0.611,0.308c-0.285,0.256-0.643,0.194-0.962,0.286
	c-0.121,0.035-0.346-0.016-0.41-0.108c-0.181-0.257-0.477-0.262-0.702-0.406c-0.222-0.142-0.408-0.085-0.607,0.025
	c-0.04,0.022-0.102,0.065-0.138,0.092c-0.711,0.538-1.463,0.42-2.229,0.129c-0.305-0.116-0.614-0.22-0.917-0.328
	c-0.321,0.339-0.728,0.486-1.157,0.586c-0.075,0.018-0.162,0.028-0.235,0.008c-0.577-0.153-1.152-0.317-1.729-0.469
	c-0.087-0.023-0.201-0.03-0.276,0.008c-0.247,0.125-0.511,0.242-0.713,0.424c-0.262,0.236-0.562,0.265-0.814,0.127
	c-0.458-0.252-0.951-0.333-1.445-0.439c-0.096-0.02-0.223-0.025-0.276-0.088c-0.216-0.253-0.426-0.158-0.649-0.027
	c-0.155,0.091-0.324,0.163-0.467,0.269c-0.361,0.267-0.382,0.288-0.724,0.071c-0.268-0.17-0.532-0.298-0.86-0.295
	c-0.159,0.001-0.33-0.045-0.476-0.112c-0.616-0.285-1.138-0.054-1.694,0.304c-0.201-0.116-0.42-0.252-0.649-0.369
	c-0.108-0.055-0.271-0.136-0.348-0.094c-0.503,0.278-0.93,0.004-1.323-0.209c-0.272-0.147-0.479-0.15-0.73-0.04
	c-0.18,0.079-0.374,0.132-0.542,0.23c-0.25,0.145-0.478,0.192-0.728,0.002c-0.071-0.054-0.203-0.096-0.276-0.066
	c-0.339,0.138-0.56-0.062-0.797-0.238c-0.092-0.068-0.193-0.124-0.287-0.191c-0.309-0.219-0.609-0.332-0.995-0.128
	c-0.481,0.254-0.978,0.136-1.469-0.04c-0.743-0.266-1.522-0.352-2.298-0.48c-0.927-0.153-1.866-0.133-2.791-0.307
	c-0.472-0.089-0.98-0.032-1.467,0.014c-0.488,0.046-0.969,0.161-1.453,0.245c-0.064,0.011-0.141,0.047-0.191,0.025
	c-0.507-0.217-0.898,0.054-1.257,0.33c-0.894,0.687-0.893,0.486-1.629,0.171c-0.18-0.077-0.373-0.123-0.557-0.189
	c-0.67-0.241-1.172,0.053-1.603,0.523c-0.283,0.309-0.629,0.439-1.03,0.513c-0.364,0.067-0.683-0.006-0.989-0.18
	c-0.316-0.18-0.6-0.206-0.89,0.07c-0.175,0.167-0.415,0.266-0.594,0.431c-0.209,0.191-0.447,0.318-0.698,0.411
	c-0.24,0.054-0.479,0.109-0.717,0.166c-0.171-0.013-0.353-0.075-0.528-0.088c-0.406-0.029-0.813-0.06-1.219-0.051
	c-0.126,0.003-0.27,0.115-0.37,0.213c-0.186,0.182-0.352,0.387-0.516,0.59c-0.022,0.027-0.044,0.053-0.066,0.078
	c-0.445,0.143-0.887,0.299-1.324,0.468c-0.011-0.002-0.022-0.004-0.033-0.007c-0.466-0.108-0.817,0.004-1.105,0.405
	c-0.041,0.056-0.093,0.105-0.15,0.15c-0.418,0.196-0.831,0.411-1.233,0.646c-0.384,0.128-0.785,0.211-1.185,0.296
	c-0.134,0.028-0.314,0.095-0.368,0.199c-0.159,0.308-0.394,0.417-0.722,0.476c-0.542,0.097-0.913,0.479-1.259,0.882
	c-0.293,0.34-0.442,0.342-0.738-0.015c-0.196-0.237-0.352-0.507-0.533-0.758c-0.2-0.279-0.437-0.402-0.802-0.275
	c-0.423,0.146-0.875-0.1-1.07-0.524c-0.082-0.178-0.165-0.356-0.238-0.538c-0.14-0.35-0.409-0.487-0.771-0.499
	c-0.671-0.021-0.873-0.161-1.101-0.806c-0.121-0.343-0.3-0.567-0.692-0.585c-0.417-0.019-0.702-0.239-0.848-0.635
	c-0.134-0.365-0.262-0.733-0.411-1.092c-0.054-0.131-0.135-0.274-0.246-0.356c-0.539-0.397-0.844-0.965-1.089-1.552
	c-0.522-1.254-0.891-2.543-1.047-3.912c-0.125-1.097-0.186-2.185-0.145-3.28c0.069-1.874,0.684-3.558,1.914-4.982
	c0.181-0.21,0.375-0.399,0.581-0.567c0.098-0.053,0.198-0.104,0.298-0.153c0.111-0.054,0.223-0.107,0.336-0.157
	c0.027-0.011,0.053-0.022,0.08-0.032c0.51-0.197,1.034-0.356,1.571-0.462c0.145-0.029,0.29-0.056,0.436-0.078
	c0.005-0.001,0.009-0.001,0.013-0.002c0.033-0.004,0.066-0.008,0.099-0.012c0.264-0.027,0.53-0.047,0.795-0.053
	c0.266-0.005,0.532-0.004,0.797,0.013c0.147,0.009,0.294,0.019,0.441,0.035c0.045,0.005,0.09,0.01,0.135,0.015
	c0.519,0.081,1.028,0.201,1.527,0.363c0.504,0.163,1.049-0.078,1.34-0.494c0.062,0.012,0.126,0.02,0.191,0.023
	c0.825,0.041,1.651,0.056,2.477,0.047c-0.01,0.048,1.153-0.028,1.151-0.03c0.018-0.001,0.005,0.006,0.005,0.006
	c0.051,0.073,1.182-0.071,1.581-0.104c0.449-0.037,0.898-0.081,1.346-0.133c0.467-0.055,0.945-0.091,1.404-0.193
	c0.559-0.123,1.054-0.398,1.408-0.793c0.377-0.127,0.647-0.41,0.835-0.813c0.164-0.351,0.327-0.702,0.493-1.052
	c0.02-0.041,0.049-0.09,0.087-0.109c0.393-0.194,0.328-0.51,0.243-0.845c-0.056-0.221-0.118-0.452-0.107-0.675
	c0.049-1.019-0.869-2.005-1.85-2.334c-0.609-0.204-1.2-0.216-1.832-0.147c-0.579,0.063-1.175-0.051-1.76-0.029
	c-0.566,0.022-1.046-0.223-1.553-0.391c-0.046-0.015-0.085-0.071-0.128-0.071c-0.878,0.007-1.674-0.465-2.542-0.457
	c-0.494,0.005-1.008-0.04-1.489,0.166c-0.102,0.043-0.222,0.047-0.335,0.057c-0.454,0.04-0.909,0.077-1.364,0.111
	c-0.224,0.017-0.45,0.016-0.674,0.034c-0.767,0.061-1.498,0.257-2.23,0.496c-0.937,0.306-1.865,0.618-2.737,1.083
	c-1.112,0.593-2.206,1.206-3.224,1.965c-0.97,0.723-1.785,1.58-2.574,2.481c-0.66,0.753-1.164,1.587-1.62,2.478
	c-0.443,0.866-0.718,1.789-1.088,2.677c-0.184,0.441-0.194,0.953-0.292,1.431c-0.163,0.798-0.295,1.599-0.394,2.402
	c-1.58,4.448-0.64,9.675,1.164,13.93c1.847,4.357,4.96,8.171,8.844,10.874c0.024,0.153,0.002,0.323-0.088,0.52
	c-0.01,0.18-0.019,0.361-0.027,0.541c-0.033,0.11-0.051,0.228-0.051,0.355c0,0.084,0.01,0.168,0.029,0.252
	c-0.034,1.302,0.015,2.6,0.294,3.887c0.015,0.07,0.021,0.144,0.02,0.219c-0.015,0.101-0.03,0.202-0.043,0.303
	c-0.011,0.083-0.021,0.166-0.029,0.249c-0.14,0.839-0.284,1.677-0.434,2.514c-0.069,0.385-0.216,0.763-0.229,1.148
	c-0.033,0.949-0.338,1.832-0.593,2.726c-0.307,1.076-0.49,2.174-0.625,3.279c-0.106,0.861-0.146,1.73-0.221,2.596
	c-0.013,0.151-0.043,0.3-0.092,0.444c-0.155,0.455-0.361,0.897-0.468,1.362c-0.326,1.404-0.599,2.82-0.918,4.226
	c-0.494,2.172-1.001,4.341-1.522,6.506c-0.138,0.571-0.364,1.112-0.663,1.631c-0.378,0.656-0.521,1.402-0.662,2.143
	c-0.169,0.892-0.458,1.753-0.952,2.512c-0.267,0.41-0.567,0.794-0.753,1.251c-0.042,0.104-0.117,0.212-0.112,0.315
	c0.006,0.125,0.021,0.257,0.04,0.389c-0.146,0.412-0.321,1.067-0.085,1.383c0.155,0.207,0.413,0.111,0.69-0.063
	c0.145,0.139,0.318,0.254,0.529,0.331c0.179,0.065,0.326,0.211,0.501,0.293c0.019,0.009,0.039,0.015,0.058,0.024
	c0.062,0.29,0.166,0.586,0.347,0.754c0.3,0.278,0.555-0.13,0.817-0.457c0.144,0.006,0.29,0.001,0.439-0.018
	c0.14-0.017,0.289,0.048,0.434,0.048c0.105,0,0.21-0.009,0.315-0.014c0.159,0.341,0.441,0.836,0.789,0.987
	c0.462,0.201,0.515-0.559,0.726-0.955l0.071-0.093c0.135-0.002,0.264-0.027,0.385-0.121c0.206-0.16,0.43-0.275,0.66-0.371
	c0.302,0.317,0.781,0.739,1.156,0.678c0.473-0.078,0.202-0.939,0.154-1.483c0.496-0.553,0.464-1.175,0.272-1.829
	c-0.181-0.617-0.274-1.228-0.08-1.875c0.144-0.482,0.106-1.023,0.28-1.489c0.264-0.711,0.249-1.391,0.054-2.098
	c-0.032-0.117-0.009-0.256,0.015-0.379c0.13-0.656,0.242-1.318,0.411-1.964c0.173-0.663,0.371-1.324,0.619-1.962
	c0.58-1.494,1.221-2.964,1.785-4.464c0.216-0.574,0.323-1.197,0.42-1.807c0.114-0.712,0.397-1.32,0.822-1.901
	c0.482-0.657,0.879-1.376,1.325-2.06c0.673-1.034,1.213-2.137,1.725-3.256c0.126,0.041,0.253,0.079,0.381,0.115l0.603,0.496
	c0.412,0.34,0.95,0.46,1.409,0.238c0.033,0.068,0.064,0.142,0.095,0.219c0.721,1.788,1.483,3.56,2.231,5.338
	c0.202,0.48,0.38,0.972,0.767,1.349c0.05,0.049,0.066,0.15,0.07,0.227c0.02,0.488,0.06,0.978,0.04,1.466
	c-0.057,1.341,0.069,2.685-0.125,4.026c-0.105,0.726-0.082,1.47-0.139,2.205c-0.061,0.783-0.144,1.563-0.227,2.344
	c-0.013,0.121-0.049,0.251-0.113,0.352c-0.398,0.622-0.77,1.256-0.945,1.982c-0.21,0.875-0.375,1.761-0.617,2.627
	c-0.188,0.674-0.453,1.328-0.704,1.984c-0.187,0.489-0.469,0.949-0.594,1.451c-0.066,0.268-0.104,0.541-0.105,0.811
	c-0.109,0.253-0.515,1.271-0.203,1.687c0.205,0.274,0.591,0.023,0.963-0.249c0.301,0.154,0.498,0.418,0.719,0.658
	c0.02,0.022,0.05,0.035,0.072,0.056c0.058,0.325,0.165,0.682,0.371,0.874c0.283,0.262,0.526-0.087,0.772-0.402
	c0.221,0.014,0.438,0.001,0.629-0.074c0.219-0.086,0.389-0.058,0.596,0.018c0.158,0.341,0.442,0.85,0.797,1.004
	c0.462,0.201,0.515-0.559,0.726-0.955l0.048-0.063c0.145-0.074,0.286-0.166,0.422-0.287c0.078-0.07,0.193-0.111,0.298-0.137
	c0.121-0.029,0.244-0.053,0.366-0.079c0.303,0.315,0.771,0.719,1.137,0.658c0.448-0.074,0.226-0.854,0.16-1.399
	c0.171-0.161,0.343-0.322,0.515-0.483c0.256-0.239,0.281-0.55,0.249-0.864c-0.044-0.439-0.113-0.876-0.179-1.313
	c-0.127-0.846-0.171-1.682,0.088-2.522c0.238-0.772,0.245-1.574,0.162-2.375c-0.003-0.032-0.008-0.067-0.021-0.096
	c-0.452-0.968-0.14-1.914,0.086-2.86c0.189-0.793,0.368-1.59,0.585-2.376c0.265-0.959,0.577-1.905,0.843-2.863
	c0.087-0.312,0.096-0.647,0.132-0.972c0.042-0.39,0.07-0.782,0.113-1.172c0.012-0.111,0.033-0.232,0.088-0.326
	c0.341-0.593,0.369-1.253,0.38-1.904c0.009-0.519-0.023-1.049-0.248-1.538c-0.261-0.565-0.165-1.148-0.112-1.733
	c0.071-0.781,0.124-1.563,0.185-2.345c0.005-0.06,0.009-0.121,0.012-0.186c0.237,0.085,0.477,0.164,0.719,0.234
	c0.002,0.009,0.004,0.017,0.005,0.026c0.133,0.774,0.198,1.559,0.327,2.333c0.252,1.511,0.686,2.965,1.435,4.313
	c0.074,0.134,0.136,0.274,0.19,0.417c0.575,1.517,1.316,2.972,1.718,4.554c0.168,0.665,0.312,1.336,0.465,1.992
	c-0.443,0.477-0.67,1.071-0.916,1.653c-0.274,0.647-0.529,1.303-0.813,1.946c-0.337,0.761-0.861,1.375-1.49,1.919
	c-0.278,0.24-0.482,0.575-0.685,0.89c-0.292,0.455-0.579,0.902-0.97,1.289c-0.236,0.233-0.404,0.555-0.544,0.863
	c-0.198,0.437-0.089,0.575,0.385,0.58c0.015,0.337-0.403,0.549-0.23,0.955c0.19,0.444,0.561,0.293,0.893,0.339
	c0.069,0.369-0.131,0.766,0.15,1.108c0.226,0.011,0.423-0.043,0.635-0.154c0.514-0.269,1.136-0.429,1.838-0.111
	c0.008,0.041,0.021,0.088,0.025,0.136c0.054,0.707,0.391,0.859,1.005,0.46c0.271-0.176,0.544-0.349,0.83-0.499
	c0.108-0.057,0.263-0.088,0.378-0.058c0.325,0.085,0.62,0.022,0.893-0.139c0.672-0.395,1.44-0.417,2.173-0.537
	c0.542-0.089,0.897-0.382,1.19-0.77c0.265-0.351,0.435-0.761,0.42-1.231c-0.018-0.573-0.03-1.149,0.006-1.721
	c0.046-0.714,0.186-1.403,0.5-2.07c0.339-0.721,0.569-1.495,0.835-2.249c0.036-0.101,0.009-0.226,0.004-0.339
	c-0.024-0.506-0.044-1.012-0.077-1.518c-0.022-0.341-0.077-0.681-0.094-1.022c-0.042-0.85-0.085-1.7-0.101-2.551
	c-0.023-1.177-0.059-2.356-0.02-3.531c0.033-0.978,0.155-1.954,0.258-2.929c0.111-1.057,0.22-2.112,0.103-3.176
	c-0.014-0.13-0.007-0.263-0.004-0.435c1.49,0.122,2.995,0.068,4.487-0.148c0.065-0.009,0.126-0.026,0.185-0.048
	c0.059,0.229,0.125,0.472,0.167,0.72c0.146,0.857,0.294,1.713,0.619,2.524c0.127,0.318,0.255,0.641,0.425,0.936
	c0.796,1.377,1.53,2.784,2.133,4.257c0.359,0.877,0.738,1.747,1.075,2.633c0.186,0.488,0.31,1,0.452,1.504
	c0.129,0.456,0.252,0.914,0.364,1.375c0.067,0.278,0.034,0.538-0.135,0.794c-0.225,0.34-0.438,0.696-0.6,1.069
	c-0.167,0.387-0.308,0.796-0.388,1.21c-0.267,1.379-0.79,2.65-1.721,3.696c-0.463,0.521-0.858,1.01-0.914,1.727
	c-0.011,0.146-0.159,0.28-0.238,0.423c-0.337,0.61-0.58,1.248-0.534,1.961c0.011,0.173-0.007,0.367,0.199,0.466
	c0.222,0.107,0.402,0.05,0.584-0.099c0.154-0.126,0.331-0.224,0.498-0.335c0.042,0.027,0.045,0.03,0.087,0.057
	c-0.039,0.207-0.081,0.413-0.117,0.62c-0.044,0.252-0.044,0.498,0.189,0.665c0.222,0.159,0.451,0.054,0.653-0.042
	c0.219-0.105,0.439-0.233,0.617-0.397c0.354-0.327,0.76-0.412,1.222-0.381c0.314,0.021,0.632-0.007,1.001-0.015
	c0.037,0.16,0.097,0.39,0.144,0.623c0.055,0.272,0.218,0.435,0.481,0.497c0.267,0.062,0.48-0.039,0.647-0.248
	c0.204-0.256,0.398-0.521,0.614-0.767c0.342-0.388,0.515-0.37,0.87,0.009c0.209,0.223,0.435,0.446,0.693,0.604
	c0.302,0.185,0.445,0.103,0.603-0.22c0.039-0.08,0.069-0.164,0.091-0.25c0.177-0.705,0.634-1.157,1.247-1.529
	c0.37-0.225,0.733-0.52,0.734-1.07c0.001-0.297,0.125-0.609,0.25-0.888c0.201-0.451,0.269-0.892,0.155-1.382
	c-0.072-0.31-0.067-0.642-0.068-0.964c-0.002-0.898,0.051-1.79,0.194-2.683c0.11-0.689,0.056-1.386-0.202-2.075
	c-0.185-0.493-0.205-1.055-0.256-1.588c-0.092-0.967-0.158-1.937-0.21-2.907c-0.068-1.253-0.138-2.507-0.151-3.762
	c-0.007-0.65,0.112-1.302,0.169-1.953c0.028-0.324,0.018-0.653,0.071-0.972c0.162-0.977,0.156-1.958,0.105-2.94
	c-0.029-0.554-0.107-1.105-0.158-1.657c-0.037-0.401-0.085-0.802-0.096-1.203c-0.014-0.532-0.16-1.031-0.323-1.53
	c-0.051-0.155-0.098-0.312-0.144-0.469c-0.203-0.693-0.021-1.083,0.577-1.505c0.412-0.29,0.803-0.63,1.134-1.009
	c1.041-1.191,1.83-2.54,2.396-4.02c0.566-1.479,1.327-2.848,2.304-4.079c2.257-1.933,4.542-3.833,6.814-5.749
	c1.184-0.752,2.384-1.477,3.601-2.175c1.388-0.695,2.795-1.354,4.212-1.988c0.711-0.318,1.425-0.631,2.14-0.938
	c0.365-0.157,0.731-0.313,1.097-0.467c0.031-0.013,0.059-0.025,0.072-0.03c0.086-0.036,0.173-0.072,0.259-0.109
	c0.173-0.072,0.345-0.144,0.518-0.216c1.438-0.599,2.882-1.187,4.325-1.774c0.171-0.07,0.323-0.143,0.455-0.245
	c0.25-0.085,0.5-0.171,0.749-0.257c1.328-0.46,2.649-0.94,3.99-1.359c1.198-0.375,2.415-0.69,3.629-1.012
	c1.436-0.381,2.87-0.771,4.318-1.103c1.033-0.237,2.085-0.391,3.13-0.57c0.918-0.158,1.837-0.306,2.758-0.445
	c0.435-0.066,0.874-0.112,1.313-0.146c1.011-0.079,2.024-0.135,3.035-0.221c1.525-0.131,3.03,0.037,4.528,0.289
	c1.16,0.195,2.326,0.365,3.471,0.623c1.927,0.436,3.847,0.912,5.711,1.568c1.001,0.353,1.959,0.824,2.941,1.233
	c1.172,0.488,2.23,1.177,3.273,1.884c1.39,0.942,2.63,2.05,3.619,3.423c0.285,0.395,0.639,0.739,0.941,1.123
	c0.222,0.282,0.404,0.596,0.618,0.885c0.134,0.18,0.294,0.34,0.476,0.547C143.474,68.713,143.427,68.458,143.347,68.221z"/>
</g>
</svg>
