<?xml version="1.0" encoding="iso-8859-1"?>
<!-- Generator: Adobe Illustrator 17.1.0, SVG Export Plug-In . SVG Version: 6.00 Build 0)  -->
<!DOCTYPE svg PUBLIC "-//W3C//DTD SVG 1.1//EN" "http://www.w3.org/Graphics/SVG/1.1/DTD/svg11.dtd">
<svg version="1.1" id="Capa_1" xmlns="http://www.w3.org/2000/svg" xmlns:xlink="http://www.w3.org/1999/xlink" x="0px" y="0px"
	 viewBox="0 0 150 150" style="enable-background:new 0 0 150 150;" xml:space="preserve">
<g>
	<path d="M146.497,41.518c-3.087-1.431-5.36-3.851-9.016-3.345c-3.631,0.502-7.423,2.51-10.585,4.295
		c-5.529,3.123-11.619,7.33-15.151,12.662c-3.466,5.231-8.393,10.932-14.229,13.454c-5.976,2.583-13.231,0.059-18.911-1.894
		c-3.558-1.224-7.085-3.06-10.807-3.705c-3.33-0.576-6.891-0.421-10.204,0.207c-7.472,1.416-13.548,6.194-19.48,10.634
		c-3.093,2.311-6.645,3.587-10.223,4.924c-3.074,1.147-5.827,2.691-8.686,4.278C13.823,86.025,5.14,90.082,3.089,96.51
		c-2.449,7.667,5.577,11.008,11.723,11.008c3.972,0.009,7.866-0.428,11.78-1.084c1.922-0.323,3.93-0.573,5.806-1.115
		c1.62-0.465,3.184-1.372,4.903-1.434c5.455-0.201,10.802-2.137,16.333-2.137c3.751,0,7.506,0,11.259,0
		c5.283,0,10.867,1.119,15.968,2.426c4.161,1.067,8.218,2.521,12.101,4.362c1.172,0.556,6.071,4.407,7.391,3.086
		c1.817-1.814-14.618-8.735-16.445-9.302c-6.525-2.023-13.319-3.344-20.129-3.893c-8.353-0.674-16.313,0.469-24.587,1.269
		c-6.446,0.648-12.565,3.065-19.181,3.065c-2.968,0-5.916-0.306-7.963-2.782c-2.473-2.993,0.781-5.843,3.286-7.255
		c2.447-1.377,5.037-2.315,7.849-2.411c3.488-0.12,6.803-1.265,10.278-1.522c2.953-0.219,5.928-0.289,8.87-0.655
		c2.812-0.35,2.938,0.761,3.444,3.311c0.515,2.559,3.118,3.467,5.663,3.764c0.225,0.18,0.417,0.357,0.526,0.511
		c0.29,0.41,0.616,0.316,0.434-0.427c0.144,0.009,0.287,0.018,0.427,0.024c0.328,0.154,0.623,0.317,0.791,0.472
		c0.375,0.347,0.674,0.173,0.315-0.546c-0.005-0.307-0.037-0.618-0.101-0.92c0.159,0.04,0.303,0.085,0.409,0.138
		c0.689,0.348,0.913-0.385-1.371-1.77c-0.066-0.05-0.128-0.102-0.201-0.146c-0.769-0.447-1.321-0.885-1.262-1.854
		c0.056-1.203,2.491-2.232,3.532-2.232c1.445,0,0.092,2.225-0.153,3.173c-0.939,0.165,0.598,2.102,0.598,2.082
		c0,2.86,0.914,2.479,3.566,2.479c1.245,0,2.333,0.219,3.484,0.29c0.628,0.19,1.813,0.58,2.244,0.948
		c0.411,0.351,0.709,0.121,0.214-0.689c0.546,0.078,1.109,0.19,1.405,0.352c0.617,0.336,0.875-0.235-0.769-1.438
		c0.41-0.042,0.8-0.057,1.048-0.002c0.764,0.171,0.798-0.619-1.869-1.414c-0.55-0.164-0.95-0.233-1.248-0.245
		c-0.81-0.471-1.692-0.852-1.741-1.322c-0.129-1.216,0.674-3.372,1.897-3.778c2.193-0.741,4.772,0.07,7.148-0.071
		c0.554-0.034,4.636-0.782,5.045,0.032c0,1.638-0.199,3.271-0.199,4.937c0.411,0.987,1.639,1.113,2.664,1.23
		c1.375,0.161,1.593,1.612,3.247,1.715c1.25,0.079,2.487,0.193,3.733,0.243c0.653,0.209,1.573,0.54,1.94,0.854
		c0.411,0.351,0.709,0.121,0.214-0.689c0.546,0.078,1.109,0.19,1.405,0.352c0.537,0.293,0.801-0.103-0.225-1.005
		c0.047-0.161,0.047-0.317,0.009-0.467c0.19-0.003,0.365,0.003,0.495,0.032c0.764,0.171,0.798-0.619-1.869-1.414
		c-0.086-0.026-0.16-0.043-0.239-0.065c-0.343-0.168-0.667-0.297-0.887-0.379c-1.973-0.741-1.515-4.528,0.506-4.499
		c3.935,0.06,7.774-1.934,10.856-4.217c3.227-2.39,6.052-5.74,7.89-9.318c1.617-3.158,3.86-5.964,5.782-8.979
		c3.688-5.789,7.837-12.276,13.287-16.61c3.821-3.057,8.725-5.146,13.667-5.146c2.086,0,4.169,0,6.253,0
		C146.011,45.432,148.781,42.563,146.497,41.518z"/>
</g>
</svg>
