<?xml version="1.0" encoding="iso-8859-1"?>
<!-- Generator: Adobe Illustrator 17.1.0, SVG Export Plug-In . SVG Version: 6.00 Build 0)  -->
<!DOCTYPE svg PUBLIC "-//W3C//DTD SVG 1.1//EN" "http://www.w3.org/Graphics/SVG/1.1/DTD/svg11.dtd">
<svg version="1.1" id="Capa_1" xmlns="http://www.w3.org/2000/svg" xmlns:xlink="http://www.w3.org/1999/xlink" x="0px" y="0px"
	 viewBox="0 0 150 150" style="enable-background:new 0 0 150 150;" xml:space="preserve">
<g>
	<path d="M27.988,90.538c0.032,0.537,0.16,1.071,0.167,1.607c0.023,1.635-0.084,3.277,0.026,4.906
		c0.278,4.112,0.179,8.242,1.028,12.328c0.523,2.519,0.499,5.152,0.733,7.733c0.175,1.935,0.371,3.867,0.557,5.797
		c0.597-0.104,0.597-0.104,1.4-2.085c0.112,0.488,0.228,0.81,0.253,1.138c0.093,1.203,0.167,2.409,0.226,3.614
		c0.04,0.809,0.375,1.312,0.98,1.302c0.696,2.232,1.276,4.277,1.991,6.273c0.213,0.594,0.486,1.352,1.574,1.153
		c0.315-0.058,0.82,0.946,1.243,1.46c0.981,1.19,1.346,2.834,2.877,3.632c2.468,1.286,4.616,3.19,7.501,3.671
		c0.613,0.102,1.138,0.707,1.712,1.068c0.595,0.374,1.193,1.098,1.928,0.481c0.422-0.355,0.585-1.019,0.87-1.554
		c0.983,0.292,2.16,0.733,3.378,0.976c1.1,0.22,2.545,0.698,3.302,0.218c1.376-0.873,2.843-0.184,4.154-0.796
		c0.434-0.203,1.059,0.031,1.594,0.007c1.193-0.055,2.367-0.063,3.268-1.13c0.972-1.151,2.504-0.944,3.8-1.304
		c0.348-0.097,0.774-0.097,1.023-0.308c0.215-0.182,0.294-0.596,0.32-0.916c0.068-0.841-0.295-1.727,0.746-2.352
		c0.727-0.437,1.38-1.117,1.285-2.165c-0.016-0.17,0.206-0.42,0.381-0.54c1.421-0.974,1.884-2.598,2.647-3.996
		c0.206-0.378-0.108-1.051-0.212-1.583c-0.115-0.589-0.294-1.168-0.389-1.76c-0.154-0.965-0.269-1.936-0.387-2.906
		c-0.04-0.327-0.096-0.669-0.042-0.986c0.254-1.51-0.163-1.99-1.681-2.53c-0.522-0.186-0.883-0.951-1.21-1.514
		c-0.262-0.452-0.303-1.029-0.546-1.497c-0.78-1.505-2.022-2.127-3.712-1.818c-0.735,0.134-1.263-0.118-1.752-0.736
		c-1.8-2.273-6.147-2.632-8.603-1.74c-1.004,0.365-2.103,0.46-3.152,0.707c-1.013,0.238-2.207,0.204-2.498,1.606
		c-0.032,0.154-0.303,0.284-0.488,0.375c-0.635,0.313-1.295,0.577-1.92,0.908c-1.292,0.685-1.642,1.893-1.786,3.237
		c-0.051,0.479-0.209,0.977-0.439,1.4c-1.05,1.935-1.139,4.029-1.079,6.149c0.005,0.184,0.169,0.442,0.332,0.53
		c1.39,0.757,0.798,2.157,1.363,3.517c-1.167-0.44-2.016-0.759-2.865-1.079c0.012-0.067,0.024-0.134,0.036-0.201
		c0.638,0,1.276,0,1.955,0c0.059-1.038-0.652-1.203-1.313-1.339c-1.116-0.229-2.27-0.364-2.41-1.918
		c0.26-0.045,0.532-0.034,0.737-0.146c0.163-0.089,0.335-0.327,0.335-0.499c0-0.172-0.17-0.414-0.332-0.506
		c-1.403-0.795-2.849-1.52-4.217-2.37c-0.353-0.219-0.474-0.81-0.702-1.231c0.381-0.002,0.763-0.001,1.144-0.008
		c0.176-0.003,0.351-0.02,0.58-0.034c-0.089-0.344-0.157-0.609-0.232-0.901c0.387-0.17,0.742-0.326,1.223-0.538
		c-1.579-1.354-3.733-1.975-4.571-4.096c0.536-0.251,1.045-0.49,1.742-0.816c-0.296-0.457-0.525-0.887-0.824-1.261
		c-1.165-1.456-2.466-2.833-2.927-4.714c-0.197-0.804-0.091-1.726-0.437-2.442c-0.682-1.408-0.339-2.845-0.375-4.264
		c-0.019-0.745,0.335-1.492,0.4-2.248c0.124-1.436,0.075-2.89,0.257-4.317c0.251-1.973,0.686-3.922,0.971-5.892
		c0.288-1.996,1.395-3.83,1.049-5.966c-0.108-0.665,0.261-1.406,0.401-2.114c0.301-1.525,0.113-3.01-0.161-4.533
		c-0.133-0.737,0.33-1.581,0.54-2.446c0.097,0.006,0.292-0.033,0.438,0.035c2.312,1.076,4.596,2.214,6.929,3.241
		c2.713,1.194,5.463,2.305,8.207,3.427c0.699,0.286,1.01,0.831,1.461,1.39c0.843,1.044,2.074,1.897,3.309,2.475
		c2.045,0.958,5.333-0.686,6.088-2.089c0.684-1.272,1.503-2.618,1.199-4.24c-0.134-0.712,0.397-0.73,0.928-0.704
		c1.619,0.079,3.24,0.171,4.86,0.18c0.391,0.002,0.794-0.278,1.173-0.466c1.297-0.642,2.579-1.314,3.88-1.948
		c1.17-0.57,2.368-1.305,3.281-2.052c1.56-1.277,2.982-3.009,2.972-5.38c-0.003-0.653,0.349-1.323,0.621-1.95
		c0.069-0.159,0.452-0.241,0.696-0.253c1.175-0.061,2.36-0.012,3.526-0.144c1.163-0.132,2.735,0.733,3.375,1.714
		c0.759,1.163,1.537,2.544,2.671,3.17c1.243,0.687,2.9,0.811,4.379,0.82c1.097,0.007,1.496-1.895,0.7-3.102
		c-0.456-0.69-1.038-1.296-1.438-2.091c0.372,0.356,0.754,0.701,1.114,1.069c0.582,0.594,1.203,1.213,2.087,0.713
		c0.698-0.395,0.607-1.79-0.155-2.535c-0.606-0.593-1.031-1.074-0.365-1.952c0.187-0.246-0.022-1.088-0.319-1.351
		c-0.939-0.831-2.059-1.456-3.008-2.277c-0.825-0.714-1.714-1.478-2.214-2.413c-0.797-1.489-2.098-2.356-3.39-3.222
		c-0.744-0.499-1.724-0.646-2.597-0.952c-0.028-0.159-0.056-0.317-0.084-0.476c0.357-0.218,0.713-0.437,1.071-0.654
		c0.994-0.604,2.043-1.138,2.948-1.854c0.253-0.2,0.081-0.933,0.108-1.422c0.091-1.621,1.281-2.182,2.58-2.405
		c0.748-0.128,1.264-0.467,1.876-0.822c1.051-0.609,2.239-0.976,3.35-1.487c0.588-0.27,1.2-0.552,1.688-0.963
		c1.344-1.132,2.672-2.29,3.914-3.531c0.461-0.461,0.797-1.147,0.957-1.788c0.393-1.574,2.065-2.683,1.629-4.538
		c-0.072-0.307-0.138-0.63-0.287-0.901c-0.543-0.989-1.004-1.875-0.085-3.001c0.354-0.434,0.052-1.361,0.179-2.038
		c0.074-0.393,0.342-0.986,0.636-1.064c1.946-0.518,2.769-2.25,4.005-3.53c0.241-0.25,0.488-0.5,0.691-0.781
		c0.693-0.962,1.393-1.921,2.043-2.913c0.646-0.985,1.358-1.955,1.82-3.027c0.724-1.682,1.492-3.402,1.811-5.183
		c0.302-1.686,0.372-3.549-0.029-5.195c-0.711-2.923-2.194-3.019-4.931-2.775c-3.095,0.276-5.204,2.425-7.589,4.031
		c-2.022,1.361-4.283,2.19-6.63,2.477c-1.445,0.176-2.985-0.429-4.483-0.679c-0.751-0.125-1.502-0.263-2.257-0.357
		c-1.26-0.157-2.523-0.29-3.786-0.423c-2.653-0.279-5.281-0.545-7.93,0.253c-2.061,0.621-3.858,1.743-5.803,2.567
		c-0.477,0.202-1.261-0.06-1.802-0.321c-1.423-0.686-2.735-1.446-3.926-2.631c-1.379-1.372-3.098-2.651-5.355-2.573
		c-0.776,0.027-1.568-0.41-2.344-0.385c-1.45,0.046-2.919,0.161-4.331,0.47c-0.88,0.193-1.739,0.8-1.551,1.943
		c0.185,1.13,0.379,2.291,0.806,3.343c0.729,1.794,1.266,3.597,1.417,5.542c0.2,2.561,0.626,5.079,2.659,7.1
		c-1.896,0.991-3.757,1.753-5.869,2.047c-1.953,0.271-3.829,1.055-5.776,1.41c-1.888,0.344-3.238,1.409-4.602,2.63
		c-1.165,1.043-2.743,1.684-3.735,2.847c-1.586,1.86-4.376,2.758-4.68,5.68c-0.03,0.289-0.23,0.674-0.468,0.809
		c-1.386,0.787-2.026,2.187-2.906,3.391c-0.043,0.059-0.105,0.11-0.131,0.175c-0.907,2.289-1.886,4.554-2.695,6.877
		c-0.838,2.407-1.564,4.857-2.236,7.316c-0.399,1.46-0.65,2.966-0.874,4.465c-0.412,2.761-0.742,5.534-1.129,8.299
		c-0.381,2.726-0.89,5.438-1.155,8.174c-0.203,2.09-0.155,4.209-0.139,6.315C27.765,87.37,27.894,88.955,27.988,90.538z
		 M52.641,133.604c0.925,0.022,1.928,0.067,2.739-0.275c0.269-0.113,0.734-0.731,1.204-1.048c-0.249-0.613-0.484-1.192-0.78-1.921
		c0.504,0.276,0.821,0.45,1.344,0.737c0.035-0.475,0.069-0.749,0.073-1.023c0.011-0.706,0.027-1.412,0.007-2.117
		c-0.05-1.707,1.739-2.868,1.381-4.67c-0.014-0.07,0.186-0.176,0.277-0.273c0.349-0.371,0.65-0.804,1.049-1.107
		c0.808-0.612,1.364-1.424,2.771-1.168c2.016,0.368,3.534,1.324,4.816,2.747c0.68,0.755,0.791,1.714,0.385,2.763
		c-0.469,1.211-0.893,2.476-1.074,3.755c-0.22,1.562-1.301,3.173-2.785,3.698c-1.084,0.383-2.144,0.833-3.232,1.203
		c-1.881,0.64-3.73,1.494-5.793,1.216c-0.351-0.047-0.962-0.547-0.95-0.568c0.482-0.899-0.212-0.802-0.727-0.987
		c-0.901-0.323-1.759-0.765-2.635-1.156C51.395,133.36,52.015,133.59,52.641,133.604z"/>
</g>
</svg>
