<?xml version="1.0" encoding="iso-8859-1"?>
<!-- Generator: Adobe Illustrator 17.1.0, SVG Export Plug-In . SVG Version: 6.00 Build 0)  -->
<!DOCTYPE svg PUBLIC "-//W3C//DTD SVG 1.1//EN" "http://www.w3.org/Graphics/SVG/1.1/DTD/svg11.dtd">
<svg version="1.1" id="Capa_1" xmlns="http://www.w3.org/2000/svg" xmlns:xlink="http://www.w3.org/1999/xlink" x="0px" y="0px"
	 viewBox="0 0 150 150" style="enable-background:new 0 0 150 150;" xml:space="preserve">
<g>
	<path d="M147.232,81.507c-1.502,0.49-3.211,0.463-4.654-0.222c-0.846-0.402-1.678-0.956-2.572-1.201
		c0.514-0.596,0.179-0.865,0.179-0.865s-4.05-1.12-10.34-0.172c-6.291,0.948-8.186-2.93-8.789-3.792s-2.189-1.543-2.189-1.543
		c-0.369-0.48-0.963-0.786-1.454-1.172c-0.067-0.053-0.14-0.098-0.206-0.153c-1.102-0.918-2.175-1.874-3.311-2.748
		c-1.703-1.312-3.39-2.66-5.193-3.823c-2.393-1.543-5.114-2.458-7.758-3.44c-2.532-0.941-5.233-1.428-7.862-2.106
		c-0.955-0.246-1.926-0.436-2.87-0.717c-0.293-0.087-0.665-0.345-0.746-0.604c-0.129-0.412-0.297-0.416-0.617-0.313
		c-0.52,0.167-0.541,0.151-0.719-0.392c-0.171-0.524-0.265-0.593-0.772-0.373c-0.431,0.187-0.737,0.087-1.03-0.239
		c-0.141-0.157-0.318-0.282-0.519-0.456c-0.083,0.294-0.135,0.481-0.202,0.718c-0.202-0.116-0.369-0.195-0.517-0.3
		c-0.28-0.2-0.531-0.311-0.834-0.007c-0.067,0.067-0.334,0.007-0.46-0.072c-0.218-0.138-0.397-0.338-0.63-0.545
		c-0.196,0.52-0.464,0.421-0.764,0.215c-0.416-0.286-0.839-0.56-1.34-0.893c0.041,0.249,0.062,0.375,0.1,0.608
		c-0.544-0.381-1.007-0.705-1.471-1.029h-0.259c0.057,0.216,0.115,0.433,0.188,0.708c-0.148-0.089-0.242-0.142-0.334-0.2
		c-0.214-0.135-0.358-0.094-0.486,0.137c-0.42,0.76-0.426,0.757-1.057,0.122c-0.425-0.428-0.531-0.458-1.04-0.146
		c-0.338,0.207-0.661,0.224-1.022,0.099c-0.216-0.075-0.443-0.116-0.77-0.198c0.168,0.287,0.272,0.465,0.437,0.747
		c-0.237-0.101-0.376-0.156-0.511-0.22c-0.388-0.183-0.769-0.385-1.166-0.547c-0.12-0.049-0.39-0.031-0.411,0.024
		c-0.195,0.518-0.589,0.354-0.94,0.296c-0.495-0.081-0.985-0.188-1.477-0.284c-0.012,0.033-0.024,0.067-0.036,0.1
		c0.13,0.118,0.26,0.235,0.391,0.353c-0.011,0.016-0.022,0.031-0.033,0.047c-0.475-0.177-0.949-0.355-1.48-0.553
		c0.089,0.147,0.138,0.227,0.205,0.338c-0.437,0.143-0.844,0.275-1.298,0.423c0.133,0.161,0.208,0.253,0.328,0.399
		c-0.571-0.174-1.081-0.329-1.666-0.507c0.09,0.192,0.135,0.289,0.206,0.44c-0.489-0.074-0.927-0.14-1.489-0.226
		c0.22,0.184,0.333,0.278,0.534,0.445c-0.484,0.083-0.869,0.164-1.259,0.211c-0.405,0.049-0.814,0.064-1.28,0.099
		c0.12,0.236,0.216,0.423,0.366,0.717c-0.922-0.168-1.735-0.315-2.647-0.481c0.116,0.286,0.178,0.438,0.265,0.652
		c-0.228,0.04-0.432,0.071-0.634,0.113c-0.499,0.104-1.071,0.027-1.356,0.633c-0.058,0.122-0.32,0.224-0.475,0.209
		c-0.447-0.044-0.887-0.157-1.332-0.231c-0.139-0.023-0.383-0.059-0.411-0.004c-0.18,0.356-0.415,0.211-0.648,0.11
		c-0.377-0.163-0.75-0.333-1.163-0.517c-0.017,0.186-0.028,0.305-0.041,0.451c-0.327-0.025-0.624-0.055-0.922-0.066
		c-0.124-0.005-0.336-0.004-0.36,0.055c-0.168,0.404-0.424,0.201-0.668,0.131c-0.674-0.192-1.342-0.411-2.026-0.553
		c-0.225-0.047-0.543,0.047-0.728,0.193c-0.224,0.176-0.152,0.463,0.011,0.701c0.042,0.061,0.043,0.151,0.079,0.294
		c-0.554-0.11-1.056-0.211-1.603-0.32v0.512c-0.289-0.06-0.541-0.095-0.783-0.166c-0.508-0.148-1.005-0.336-1.519-0.459
		c-0.172-0.041-0.385,0.049-0.57,0.11c-0.14,0.046-0.271,0.21-0.395,0.199c-0.454-0.042-0.903-0.141-1.356-0.206
		c-0.308-0.045-0.619-0.07-1.011-0.113c0.159,0.279,0.252,0.442,0.367,0.642c-0.167,0.021-0.266,0.051-0.361,0.043
		c-1.084-0.099-2.179-0.139-3.249-0.322c-1.521-0.26-3.016-0.67-4.537-0.935c-2.024-0.353-4.001-0.967-6.099-0.92
		c-1.809,0.041-3.632-0.019-5.371,0.517c-2.649,0.817-5.265,1.744-7.893,2.629c-0.704,0.237-1.385,0.617-2.106,0.717
		c-2.63,0.365-5.208,0.932-7.746,1.705c-1.046,0.318-2.102,0.605-3.154,0.906c0.005,0.021,0.01,0.042,0.015,0.064
		c0.515-0.089,1.03-0.179,1.545-0.268c0.012,0.039,0.024,0.078,0.036,0.117c-0.548,0.374-1.096,0.748-1.645,1.122
		c0.018,0.029,0.036,0.058,0.054,0.087c0.402-0.112,0.804-0.223,1.205-0.335c0.023,0.04,0.046,0.079,0.069,0.119
		c-0.839,0.789-1.678,1.577-2.517,2.366v0.172c0.543-0.118,1.086-0.237,1.629-0.355c0.006,0.035,0.012,0.07,0.018,0.105l0.679-0.801
		c0.039,0.02,0.078,0.04,0.116,0.06c-0.078,0.28-0.147,0.563-0.237,0.838c-0.424,1.291-0.858,2.578-1.277,3.871
		c-0.046,0.142-0.02,0.307-0.034,0.593c0.29-0.205,0.471-0.313,0.629-0.449c0.326-0.281,0.616-0.612,0.967-0.854
		c0.245-0.17,0.561-0.278,0.858-0.32c0.245-0.035,0.379,0.143,0.193,0.387c-0.156,0.205-0.336,0.392-0.504,0.588
		c-0.21,0.247-0.419,0.496-0.628,0.744c0.022,0.033,0.045,0.066,0.067,0.099c0.535-0.225,1.069-0.451,1.604-0.676
		c0.032,0.038,0.064,0.076,0.095,0.115c-0.178,0.403-0.356,0.806-0.534,1.208c0.024,0.017,0.049,0.034,0.073,0.051l0.728-0.443
		c0.028,0.023,0.056,0.045,0.084,0.068c-0.167,0.648-0.334,1.295-0.501,1.943c0.043,0.025,0.086,0.05,0.128,0.075
		c0.695-0.377,1.135-1.126,1.927-1.411c-0.068,0.517-0.195,0.993-0.324,1.468c-0.12,0.442-0.254,0.88-0.356,1.325
		c-0.056,0.243,0.075,0.384,0.315,0.263c0.573-0.287,1.132-0.601,1.695-0.907c0.175-0.095,0.345-0.198,0.517-0.297
		c0.025,0.03,0.051,0.061,0.076,0.091c-0.217,0.454-0.435,0.908-0.652,1.361c0.031,0.028,0.062,0.057,0.093,0.085
		c0.454-0.345,0.908-0.691,1.361-1.036l0.098,0.076c-0.064,0.179-0.109,0.368-0.195,0.537c-0.39,0.766-0.812,1.516-1.18,2.293
		c-0.206,0.434-0.364,0.898-0.474,1.365c-0.066,0.28,0.044,0.562,0.437,0.644c0.103-0.277,0.2-0.536,0.297-0.795
		c0.024,0.004,0.048,0.007,0.073,0.011v0.904c0.552,0.044,0.549,0.045,0.596,0.593c0.015,0.172,0.056,0.342,0.085,0.513
		c0.31-1.657,1.442-2.718,2.5-3.83c0.055,0.025,0.11,0.049,0.166,0.074c-0.252,0.916-0.504,1.832-0.756,2.748
		c0.04,0.016,0.08,0.033,0.12,0.049c0.363-0.585,0.726-1.169,1.09-1.754c0.027,0.012,0.054,0.023,0.081,0.035
		c-0.076,0.386-0.151,0.772-0.227,1.159c0.047,0.019,0.094,0.038,0.141,0.057c0.656-0.912,1.311-1.825,1.967-2.737
		c0.037,0.023,0.074,0.045,0.111,0.068c-0.687,1.483-1.374,2.966-2.061,4.449c0.039,0.022,0.077,0.044,0.116,0.066
		c0.496-0.692,0.992-1.383,1.488-2.075c0.033,0.02,0.067,0.04,0.1,0.06c-0.054,0.16-0.111,0.319-0.163,0.479
		c-0.187,0.57-0.405,1.134-0.541,1.716c-0.044,0.189,0.06,0.524,0.209,0.625c0.347,0.234,0.538,0.456,0.351,0.886
		c0.528-0.812,1.057-1.625,1.585-2.437c0.05,0.024,0.1,0.048,0.15,0.071l-0.492,2.355c0.038,0.021,0.076,0.042,0.114,0.063
		c0.204-0.263,0.407-0.527,0.611-0.79c0.05,0.025,0.101,0.05,0.151,0.074c0.059,0.183,0.106,0.371,0.18,0.547
		c0.058,0.138,0.149,0.261,0.226,0.391c0.113-0.096,0.257-0.173,0.333-0.292c0.2-0.314,0.369-0.647,0.553-0.971
		c0.201-0.354,0.404-0.706,0.606-1.058c0.045,0.014,0.09,0.027,0.135,0.041c-0.102,0.868-0.204,1.737-0.306,2.605
		c0.054,0.017,0.107,0.033,0.161,0.05c0.352-0.422,0.705-0.845,1.057-1.267c0.044,0.02,0.088,0.039,0.132,0.059
		c0.081,0.521,0.163,1.043,0.262,1.682c0.209-0.286,0.341-0.466,0.472-0.646c0.027,0.012,0.053,0.023,0.08,0.035v1.283l0.095,0.022
		c0.44-0.741,0.881-1.481,1.321-2.222c0.057,0.014,0.113,0.028,0.17,0.042c0.012,0.244,0.041,0.489,0.033,0.733
		c-0.022,0.658,0.256,1.197,0.655,1.685c0.276,0.338,0.413,0.311,0.54-0.099c0.292-0.943,0.568-1.891,0.86-2.834
		c0.059-0.191,0.163-0.367,0.298-0.665c0.166,0.534,0.289,0.93,0.449,1.444c0.229-0.379,0.385-0.638,0.542-0.898
		c0.055,0.014,0.11,0.028,0.166,0.042v3.018c0.04,0.004,0.081,0.008,0.121,0.013c0.184-0.202,0.368-0.404,0.579-0.636
		c0.185,0.35,0.338,0.64,0.491,0.929c0.048-0.005,0.095-0.01,0.143-0.015c0.251-0.989,0.502-1.977,0.754-2.966
		c0.066,0.001,0.131,0.003,0.197,0.004c0.137,0.353,0.255,0.715,0.419,1.055c0.09,0.187,0.255,0.338,0.387,0.505
		c0.035-0.021,0.069-0.042,0.104-0.063c0.071,0.566,0.141,1.133,0.212,1.699l0.12-0.001c0.185-0.542,0.37-1.084,0.555-1.626
		l0.119,0.006c0.203,0.494,0.407,0.987,0.61,1.481c0.051-0.004,0.101-0.008,0.152-0.011c0.271-0.538,0.543-1.076,0.814-1.614
		l0.121,0.017c0.118,0.483,0.236,0.966,0.385,1.574c0.298-0.363,0.505-0.615,0.757-0.923c0.185,0.429,0.338,0.782,0.536,1.24
		c0.261-0.419,0.457-0.732,0.672-1.077c0.106,0.112,0.162,0.156,0.2,0.213c0.289,0.44,0.367,0.461,0.71,0.067
		c0.253-0.29,0.447-0.63,0.687-0.932c0.08-0.1,0.229-0.216,0.334-0.205c0.085,0.009,0.169,0.189,0.22,0.308
		c0.053,0.123,0.068,0.263,0.108,0.436c1.072-0.503,2.262-0.654,3.136-1.522c-0.085,0.306-0.171,0.612-0.256,0.919
		c0.031,0.023,0.062,0.047,0.093,0.07c0.44-0.371,0.881-0.741,1.321-1.112l0.126,0.085c-0.061,0.619-0.123,1.238-0.184,1.857
		c0.045,0.013,0.089,0.025,0.134,0.038c0.407-0.598,0.814-1.196,1.221-1.795c0.045,0.019,0.09,0.037,0.135,0.056v1.507
		c0.04,0.017,0.079,0.034,0.119,0.051c0.226-0.28,0.453-0.56,0.679-0.839c0.041,0.014,0.082,0.027,0.124,0.041v1.094
		c0.045,0.013,0.09,0.027,0.134,0.04c0.246-0.327,0.479-0.665,0.744-0.975c0.141-0.165,0.339-0.282,0.51-0.421
		c0.115,0.173,0.24,0.341,0.343,0.521c0.128,0.225,0.237,0.46,0.42,0.819c0.382-0.591,0.685-1.061,1.061-1.643
		c0.049,0.386,0.081,0.637,0.113,0.888c0.041,0.01,0.082,0.021,0.124,0.031l1.351-2.13c0.049,0.018,0.098,0.037,0.147,0.055
		c0.033,0.47,0.066,0.941,0.099,1.411c0.044,0.012,0.089,0.023,0.134,0.035c0.372-0.695,0.743-1.389,1.144-2.137
		c0.118,0.188,0.189,0.3,0.302,0.479c0.362-0.634,0.694-1.216,1.084-1.9c0.115,0.463,0.193,0.772,0.27,1.081
		c0.055,0.018,0.11,0.036,0.165,0.055c0.623-0.833,1.247-1.665,1.944-2.597c0.072,0.344,0.114,0.548,0.156,0.751l0.099,0.003
		c0.238-0.578,0.475-1.156,0.752-1.83c0.033,0.27,0.051,0.418,0.081,0.658c0.206-0.15,0.343-0.251,0.486-0.355
		c0.071,0.061,0.125,0.106,0.178,0.154c0.442,0.404,0.506,0.406,0.966,0c0.21-0.185,0.414-0.379,0.621-0.568
		c0.026,0.018,0.052,0.035,0.078,0.053c-0.229,0.565-0.458,1.13-0.687,1.694c0.049,0.036,0.097,0.072,0.146,0.109
		c0.703-0.53,1.406-1.06,2.109-1.59c0.016,0.021,0.032,0.041,0.049,0.061c-0.457,0.586-0.914,1.172-1.371,1.758l0.101,0.125
		c0.5-0.148,0.999-0.297,1.499-0.445c0.025,0.041,0.049,0.083,0.074,0.124c-0.268,0.489-0.535,0.977-0.803,1.466
		c0.035,0.031,0.071,0.062,0.106,0.094c0.532-0.321,1.065-0.642,1.597-0.964c-0.18,0.387-0.427,0.685-0.664,0.989
		c-0.236,0.302-0.462,0.612-0.692,0.918c0.035,0.038,0.071,0.076,0.106,0.114c0.461-0.181,0.923-0.362,1.385-0.543
		c0.013,0.025,0.027,0.051,0.04,0.076c-0.35,0.359-0.701,0.717-1.051,1.076c0.021,0.038,0.042,0.076,0.062,0.113
		c0.345-0.02,0.691-0.04,1.169-0.067c-0.281,0.562-0.515,1.032-0.782,1.566c0.235-0.035,0.384-0.057,0.558-0.083
		c0.011,0.216,0.021,0.419,0.032,0.628c0.473-0.382,0.919-0.743,1.365-1.103c0.051,0.042,0.102,0.083,0.153,0.125
		c-0.299,0.491-0.572,1.001-0.904,1.469c-0.356,0.503-0.774,0.961-1.151,1.449c-0.12,0.155-0.196,0.343-0.354,0.627
		c0.466-0.101,0.783-0.17,1.227-0.267c-0.263,0.397-0.446,0.673-0.667,1.008c0.263-0.038,0.438-0.063,0.696-0.1
		c-0.335,0.588-0.631,1.108-0.927,1.627c0.028,0.027,0.057,0.053,0.085,0.08c0.31-0.137,0.62-0.273,0.93-0.41
		c0.028,0.033,0.055,0.065,0.083,0.098c-0.44,0.73-0.879,1.46-1.319,2.19c0.042,0.002,0.085,0.004,0.128,0.006
		c0.032,0.18,0.109,0.365,0.089,0.539c-0.099,0.868-0.232,1.732-0.338,2.6c-0.208,1.713,0.576,3.169,2.092,3.906h1.379
		c0.793-0.183,1.597-0.327,2.375-0.557c1.097-0.325,1.226-0.744,0.589-1.672c-0.016-0.024-0.031-0.048-0.049-0.071
		c-0.765-0.959-0.798-2.084-0.729-3.231c0.002-0.033,0.043-0.064,0.042-0.062c0.767,0.717,1.539,1.421,2.287,2.149
		c0.244,0.237,0.475,0.512,0.626,0.812c0.234,0.464,0.595,0.7,1.082,0.728c0.801,0.046,1.606,0.1,2.405,0.059
		c0.52-0.026,1.047-0.169,1.541-0.342c0.482-0.169,0.556-0.541,0.27-0.963c-0.072-0.107-0.165-0.2-0.233-0.309
		c-0.534-0.847-1.133-1.662-1.573-2.556c-0.352-0.716-0.393-1.531-0.125-2.349c0.856,0.691,0.856,0.692,1.286-0.311
		c0.017-0.039,0.028-0.082,0.047-0.12c0.14-0.288,0.28-0.575,0.462-0.948c0.19,0.301,0.318,0.505,0.504,0.8
		c0.132-0.535,0.237-0.959,0.342-1.384l0.102,0.005c0.19,0.477,0.38,0.954,0.57,1.43c0.042-0.003,0.085-0.006,0.128-0.009
		c0.128-0.414,0.255-0.829,0.398-1.291c0.125,0.27,0.226,0.489,0.327,0.708c0.043,0.003,0.087,0.006,0.13,0.009l1.348-2.708
		l0.107,0.043c0.035,0.225,0.069,0.449,0.104,0.674c0.052,0.023,0.104,0.047,0.155,0.07c0.822-1.029,1.645-2.059,2.517-3.152
		c0.036,0.245,0.056,0.386,0.093,0.637c1.443-1.579,2.75-3.117,3.424-5.113c0.086,0.218,0.158,0.427,0.108,0.601
		c-0.287,1.003-0.392,2.097-1.367,2.776c0.033,0.04,0.067,0.079,0.1,0.119c0.874-0.51,1.748-1.019,2.623-1.529
		c0.007,0.011,0.015,0.022,0.022,0.033c-0.371,0.351-0.742,0.702-1.113,1.053c0.026,0.037,0.052,0.074,0.078,0.111
		c0.431-0.031,0.862-0.062,1.367-0.098c-0.128,0.366-0.227,0.649-0.351,1.003c0.281-0.129,0.478-0.219,0.775-0.356
		c-0.74,1.266-1.75,2.21-2.345,3.422c0.032,0.041,0.065,0.083,0.097,0.124c0.375-0.1,0.75-0.2,1.125-0.3
		c-0.148,0.195-0.324,0.336-0.509,0.466c-0.283,0.199-0.379,0.42-0.111,0.703c0.238,0.251,0.178,0.484-0.037,0.718
		c-0.237,0.258-0.461,0.526-0.691,0.79c0.022,0.034,0.044,0.068,0.066,0.102c0.396-0.089,0.792-0.178,1.188-0.267
		c-0.168,0.313-0.396,0.543-0.623,0.775c-0.235,0.241-0.145,0.374,0.15,0.428c0.093,0.017,0.19,0.016,0.321,0.025v0.919
		c0.239-0.088,0.42-0.154,0.653-0.24c-0.089,0.358-0.203,0.667-0.236,0.984c-0.097,0.91-0.511,1.695-0.951,2.465
		c-0.348,0.609-0.587,0.643-1.177,0.244c-0.237-0.161-0.46-0.344-0.695-0.508c-0.11-0.077-0.234-0.136-0.436-0.251
		c0.037,0.282,0.028,0.475,0.089,0.642c0.265,0.724,0.523,1.452,0.835,2.156c0.27,0.61,0.744,1.043,1.371,1.302
		c0.949,0.393,1.941,0.519,2.95,0.417c0.977-0.099,2.241-1.258,2.344-2.148c0.093-0.803,0.435-1.44,1.042-1.956
		c1.171-0.994,2.336-1.995,3.51-2.984c0.434-0.366,0.894-0.7,1.33-1.063c0.198-0.165,0.31-0.104,0.457,0.071
		c0.362,0.43,0.425,0.432,0.883,0.11c0.273-0.192,0.542-0.391,0.813-0.586c0.032,0.024,0.064,0.049,0.095,0.073l-0.32,1.06
		c0.042,0.028,0.084,0.057,0.126,0.085l0.569-0.719c0.046,0.022,0.092,0.044,0.138,0.066c0.036,0.565,0.072,1.13,0.114,1.784
		c0.327-0.204,0.552-0.345,0.883-0.552c-0.155,0.542-0.279,0.977-0.404,1.411c0.02,0.006,0.04,0.012,0.059,0.017
		c0.149-0.188,0.297-0.376,0.485-0.612c0.068,0.399,0.121,0.707,0.174,1.014c0.047,0.003,0.093,0.006,0.14,0.009
		c0.181-0.319,0.349-0.646,0.546-0.954c0.305-0.477,0.567-0.556,0.975-0.17c0.684,0.648,1.316,1.353,1.949,2.054
		c0.347,0.385,0.409,0.837,0.177,1.319c-0.182,0.378-0.145,0.745,0.071,1.106c0.269,0.45,0.672,0.714,1.173,0.789
		c0.58,0.087,1.139,0.22,1.761,0c0.423-0.149,0.962,0.011,1.446,0.059c0.655,0.065,1.307,0.165,1.962,0.227
		c0.139,0.013,0.288-0.072,0.432-0.112c-0.048-0.129-0.081-0.267-0.148-0.386c-0.069-0.124-0.185-0.222-0.254-0.346
		c-0.243-0.433-0.573-0.847-0.69-1.313c-0.243-0.973-0.61-1.831-1.398-2.497c-0.381-0.322-0.339-0.64,0.022-1.043
		c0.119,0.058,0.242,0.118,0.435,0.212c0.139-0.451,0.262-0.871,0.399-1.286c0.038-0.114,0.112-0.218,0.176-0.322
		c0.059-0.096,0.177-0.184,0.182-0.281c0.022-0.362,0.009-0.726,0.009-1.09c0.039-0.003,0.077-0.007,0.116-0.01
		c0.022,0.046,0.039,0.095,0.067,0.136c0.031,0.045,0.071,0.083,0.11,0.128c-0.049-1.056-0.292-2.022-1.015-2.828
		c0.158,0.093,0.316,0.187,0.474,0.28c0.041-0.031,0.081-0.062,0.122-0.093c-0.141-0.282-0.251-0.585-0.428-0.842
		c-0.292-0.425-0.635-0.815-0.94-1.232c-0.118-0.161-0.193-0.354-0.312-0.578c0.317-0.029,0.536-0.048,0.919-0.083
		c-0.588-0.809-1.105-1.521-1.642-2.26c0.153,0.018,0.235,0.027,0.322,0.037c-0.192-0.544-0.711-0.834-0.768-1.477
		c-0.041-0.455-0.483-0.874-0.788-1.38c1.229-0.374,2.402-0.735,3.576-1.088c0.899-0.271,1.818-0.418,2.758-0.329
		c0.318,0.03,0.734,0.039,0.923,0.235c0.572,0.591,1.272,1.185,2.009,1.464c1.472,0.556,3.269,0.968,4.29,2.204
		c1.091,1.321,6.32,2.299,8.043,1.006c1.724-1.293,4.998-1.81,6.032-2.499c1.034-0.689,5.515-0.172,5.515-0.172
		s0.505-0.169,1.154-0.642c1.301,0.056,2.496,1.154,3.703,1.536c1.455,0.46,3.012,0.462,4.464-0.012
		C147.911,82.1,147.709,81.351,147.232,81.507z"/>
</g>
</svg>
