<?xml version="1.0" encoding="iso-8859-1"?>
<!-- Generator: Adobe Illustrator 17.1.0, SVG Export Plug-In . SVG Version: 6.00 Build 0)  -->
<!DOCTYPE svg PUBLIC "-//W3C//DTD SVG 1.1//EN" "http://www.w3.org/Graphics/SVG/1.1/DTD/svg11.dtd">
<svg version="1.1" id="Capa_1" xmlns="http://www.w3.org/2000/svg" xmlns:xlink="http://www.w3.org/1999/xlink" x="0px" y="0px"
	 viewBox="0 0 150 150" style="enable-background:new 0 0 150 150;" xml:space="preserve">
<g>
	<path d="M145.736,101.297c-0.986-0.973-1.398-2.187-1.606-3.51c-0.071-0.447-0.197-0.889-0.334-1.321
		c-0.141-0.442-0.39-0.804-0.811-1.06c-0.181-0.111-0.335-0.359-0.388-0.573c-0.365-1.477-0.714-2.959-1.042-4.445
		c-0.329-1.488-0.684-2.973-0.926-4.475c-0.375-2.319-0.704-4.647-0.979-6.981c-0.307-2.604-0.557-5.215-0.778-7.828
		c-0.086-1.02-0.02-2.052-0.043-3.078c-0.005-0.222-0.062-0.457-0.15-0.662c-0.622-1.437-1.243-2.875-1.898-4.297
		c-0.225-0.489-0.552-0.93-0.825-1.398c-0.409-0.7-0.801-1.411-1.219-2.105c-0.249-0.413-0.533-0.805-0.807-1.203
		c-0.427-0.621-0.853-1.242-1.289-1.856c-0.139-0.195-0.312-0.366-0.465-0.552c-0.187-0.229-0.371-0.461-0.553-0.694
		c-0.096-0.123-0.165-0.275-0.281-0.374c-0.949-0.815-1.88-1.654-2.867-2.421c-1.605-1.247-3.244-2.451-4.879-3.659
		c-0.307-0.227-0.667-0.38-0.995-0.579c-2.163-1.312-4.458-2.258-6.966-2.703c-1.158-0.206-2.271-0.661-3.426-0.898
		c-2.158-0.443-4.308-0.227-6.373,0.466c-1.81,0.607-3.592,1.023-5.54,1.006c-2.115-0.018-4.145-0.304-6.135-0.938
		c-1.273-0.405-2.509-0.929-3.766-1.385c-1.231-0.446-2.463-0.889-3.705-1.305c-0.627-0.211-1.148-0.529-1.561-1.06
		c-0.525-0.675-1.117-1.297-1.642-1.972c-0.746-0.959-1.724-1.459-2.911-1.603c-2.532-0.307-5.063-0.619-7.594-0.927
		c-0.127-0.015-0.256-0.017-0.385-0.019c-0.879-0.016-1.759-0.027-2.639-0.042c-0.831-0.584-1.662-1.167-2.493-1.751
		c-0.447-0.313-1.001-0.355-1.508-0.208C65.655,34.375,65.12,34,64.333,34c-0.607,0-1.066,0.226-1.387,0.564
		c-0.264-0.142-0.575-0.231-0.946-0.231c-0.173,0-0.332,0.02-0.481,0.054C61.2,33.961,60.697,33.667,60,33.667
		c-0.137,0-0.26,0.019-0.382,0.04c-0.54-0.213-1.08-0.426-1.619-0.64c-0.382-0.151-0.787-0.127-1.158,0.013
		c-0.667-0.171-1.408-0.008-1.921,0.506c-0.111,0.111-0.222,0.222-0.333,0.333c-0.03,0.03-0.052,0.066-0.08,0.098
		C54.448,34.013,54.395,34,54.333,34c-0.466,0-0.845,0.134-1.143,0.348c-0.599,0.037-1.046,0.299-1.344,0.67
		C51.786,35.013,51.731,35,51.667,35c-1.119,0-1.743,0.754-1.891,1.606c-0.332-0.097-0.683-0.108-1.017,0.025
		c-0.556,0.221-1.112,0.442-1.668,0.663c-0.726,0.289-1.284,0.847-1.429,1.558c-0.51,0.498-0.689,1.27-0.538,1.967
		c-0.238,0.212-0.43,0.398-0.555,0.542c-0.804,0.926-1.553,1.901-2.393,2.792c-1.175,1.247-2.166,2.602-2.845,4.181
		c-0.109,0.254-0.302,0.481-0.488,0.692c-0.24,0.272-0.333,0.564-0.352,0.929c-0.016,0.309-0.099,0.665-0.279,0.907
		c-1.097,1.473-2.171,2.971-3.369,4.361c-1.102,1.279-1.833,2.693-2.201,4.326c-0.111,0.492-0.381,0.909-0.847,1.175
		c-0.508,0.291-1.006,0.597-1.292,1.148c-0.036,0.07-0.219,0.117-0.313,0.093c-0.233-0.058-0.451-0.175-0.682-0.245
		c-0.311-0.094-0.626-0.185-0.946-0.236c-0.117-0.018-0.349,0.067-0.36,0.132c-0.021,0.131,0.038,0.315,0.131,0.414
		c0.112,0.12,0.678,1.344,1.324,2.242c-0.467,0.335-1.023,0.698-1.672,1.055c-0.803,0.44-1.745,0.87-2.813,1.188
		c-1.067,0.318-2.259,0.533-3.532,0.528c-0.909-0.001-1.859-0.109-2.819-0.342c-1.183-0.868-2.309-1.88-3.356-2.994l-0.217-0.23
		l-0.109-0.115l-0.102-0.112l-0.408-0.45c-0.269-0.308-0.54-0.616-0.798-0.932c-0.52-0.629-1.013-1.273-1.469-1.932
		c-0.91-1.318-1.67-2.704-2.157-4.123c-0.247-0.708-0.407-1.425-0.492-2.133c-0.076-0.708-0.066-1.407,0.05-2.072
		c0.113-0.665,0.329-1.293,0.626-1.861c0.297-0.568,0.673-1.073,1.091-1.509c0.84-0.874,1.83-1.466,2.754-1.861
		c0.929-0.394,1.799-0.598,2.522-0.707c0.725-0.105,1.305-0.119,1.699-0.112c0.099,0.003,0.186,0.005,0.261,0.007
		c0.075,0.004,0.138,0.008,0.189,0.011c0.102,0.006,0.155,0.009,0.155,0.009s-0.052-0.007-0.153-0.022
		c-0.051-0.007-0.114-0.016-0.188-0.026c-0.075-0.008-0.162-0.017-0.261-0.028c-0.394-0.039-0.978-0.071-1.721-0.023
		c-0.742,0.053-1.646,0.189-2.642,0.521c-0.99,0.334-2.084,0.868-3.076,1.747c-0.494,0.439-0.957,0.966-1.343,1.579
		c-0.385,0.613-0.691,1.312-0.881,2.064c-0.194,0.752-0.269,1.552-0.247,2.362c0.031,0.809,0.15,1.63,0.36,2.436
		c0.415,1.615,1.123,3.182,1.983,4.669c0.431,0.744,0.901,1.47,1.397,2.178c0.08,0.115,0.162,0.228,0.244,0.341
		c-0.845-0.692-1.657-1.455-2.426-2.273l-0.217-0.23l-0.109-0.115l-0.102-0.112l-0.409-0.45c-0.269-0.308-0.54-0.616-0.798-0.932
		c-0.52-0.629-1.013-1.273-1.469-1.932c-0.91-1.318-1.67-2.704-2.157-4.123C4.6,52.51,4.439,51.793,4.354,51.085
		c-0.076-0.708-0.066-1.407,0.05-2.072c0.113-0.665,0.329-1.293,0.625-1.861c0.297-0.568,0.673-1.073,1.091-1.509
		c0.84-0.874,1.83-1.466,2.754-1.861c0.929-0.394,1.799-0.598,2.522-0.707c0.725-0.105,1.305-0.119,1.699-0.112
		c0.099,0.003,0.186,0.005,0.261,0.007c0.075,0.004,0.138,0.008,0.189,0.011c0.102,0.006,0.155,0.009,0.155,0.009
		s-0.052-0.007-0.154-0.022c-0.051-0.007-0.114-0.016-0.188-0.026c-0.075-0.008-0.162-0.017-0.261-0.028
		c-0.394-0.039-0.978-0.071-1.721-0.023c-0.742,0.053-1.646,0.189-2.642,0.521c-0.99,0.334-2.084,0.868-3.077,1.747
		c-0.494,0.439-0.957,0.966-1.343,1.579c-0.385,0.613-0.691,1.312-0.881,2.064c-0.194,0.752-0.269,1.552-0.247,2.362
		c0.031,0.809,0.15,1.63,0.36,2.436c0.415,1.615,1.123,3.183,1.983,4.669c0.431,0.744,0.901,1.47,1.397,2.178
		c0.247,0.356,0.506,0.702,0.764,1.05l0.402,0.52l0.101,0.13l0.099,0.123l0.198,0.247c1.088,1.359,2.31,2.644,3.66,3.776
		c1.351,1.129,2.85,2.093,4.442,2.79c0.705,0.312,1.429,0.566,2.158,0.764c1.008,0.719,2.082,1.341,3.201,1.832
		c1.589,0.703,3.274,1.114,4.896,1.245c1.23,0.103,2.42,0.042,3.526-0.122c0.001,0.039,0.002,0.077,0,0.116
		c-0.036,0.732,0.153,1.368,0.4,2.027c0.105,0.282-0.002,0.642,0.098,0.929c0.233,0.669,0.574,1.273,0.598,2.04
		c0.018,0.558,0.432,1.101,0.66,1.655c0.046,0.112,0.098,0.255,0.067,0.36c-0.15,0.507-0.075,0.977,0.128,1.455
		c0.085,0.199,0.065,0.442,0.098,0.664c0.027,0.181,0.021,0.38,0.098,0.537c0.157,0.318,0.387,0.605,0.181,0.988
		c-0.022,0.041-0.01,0.13,0.021,0.164c0.585,0.64,0.045,1.378,0.185,2.051c0.116,0.558-0.11,1.097,0.034,1.686
		c0.114,0.466,0.158,1.016,0.081,1.559c-0.099,0.695,0.002,1.418,0.019,2.129c0.002,0.099,0.052,0.211,0.019,0.294
		c-0.248,0.632-0.041,1.261-0.016,1.892c0.026,0.66-0.002,1.321,0.025,1.981c0.018,0.435,0.054,0.876,0.148,1.299
		c0.148,0.672,0.324,1.34,0.536,1.995c0.505,1.559,1.397,2.812,2.785,3.751c1.856,1.257,3.856,1.859,6.091,1.695
		c0.725-0.053,1.452-0.091,2.179-0.115c0.673-0.023,1.202-0.349,1.652-0.795c0.448-0.445,0.292-0.953-0.295-1.165
		c-0.133-0.048-0.264-0.167-0.342-0.288c-0.316-0.491-0.635-0.982-0.909-1.497c-0.511-0.959-1.742-0.877-2.313-0.027
		c-0.49,0.728-0.653,0.724-1.466,0.397c-1.047-0.422-1.43-1.291-1.634-2.289c-0.231-1.128-0.276-2.272-0.095-3.406
		c0.281-1.76,0.5-3.519,0.603-5.303c0.114-1.975,0.468-3.936,0.627-5.91c0.123-1.519,0.122-3.049,0.15-4.575
		c0.029-1.547,0.307-3.013,1.044-4.403c0.388-0.733,0.6-1.561,0.882-2.349c0.11-0.307,0.164-0.637,0.294-0.935
		c0.308-0.703,0.454-1.423,0.455-2.197c0.001-1.247,0.752-2.013,1.847-2.414c1.068-0.392,2.174-0.679,3.269-0.994
		c0.103-0.03,0.285,0.037,0.362,0.121c0.49,0.535,1.057,1.031,1.418,1.646c0.915,1.554,2.381,2.162,4.014,2.457
		c1.485,0.268,2.997,0.38,4.489,0.613c1.208,0.189,2.42,0.395,3.601,0.707c0.985,0.26,1.638,1.019,1.933,1.962
		c0.437,1.397,0.919,2.814,1.082,4.256c0.325,2.872,0.279,5.754-0.728,8.528c-0.152,0.42-0.414,0.804-0.643,1.194
		c-0.474,0.808-1.005,1.585-1.428,2.418c-0.456,0.897-0.921,1.77-1.693,2.44c-0.096,0.084-0.205,0.17-0.263,0.279
		c-1.037,1.92-2.333,3.733-2.499,6.015c-0.086,1.19,0.17,2.325,0.568,3.434c0.163,0.455,0.301,0.931,0.546,1.341
		c0.28,0.468,0.618,0.926,1.019,1.29c0.662,0.602,1.42,1.096,2.089,1.691c0.475,0.423,0.91,0.907,1.287,1.419
		c0.405,0.549,0.474,1.191,0.501,1.893c0.09,2.311,1.097,4.126,3.623,4.115c1.412-0.006,2.826-0.037,4.237,0.012
		c1.166,0.041,2.328,0.189,3.493,0.275c0.311,0.023,0.628,0.018,0.938-0.017c0.912-0.103,1.476-0.531,1.47-1.429
		c-0.008-1.378,0.477-2.662,0.571-4.008c0.075-1.081,0.051-2.168,0.124-3.249c0.139-2.047,0.42-4.079,0.428-6.141
		c0.004-1.094,0.333-2.186,0.522-3.278c0.026-0.153,0.073-0.308,0.142-0.446c0.548-1.091,0.77-2.254,0.826-3.465
		c0.013-0.285,0.139-0.583,0.278-0.84c0.391-0.727,0.814-1.436,1.229-2.15c0.093-0.16,0.175-0.345,0.313-0.455
		c1.023-0.815,1.339-2.014,1.766-3.161c0.198-0.531,0.447-1.045,0.704-1.551c0.146-0.288,0.403-0.395,0.721-0.241
		c2.609,1.26,5.414,2.003,8.099,3.062c1.496,0.59,3.004,1.149,4.499,1.741c0.977,0.387,1.92,0.871,2.917,1.192
		c0.816,0.262,1.683,0.392,2.538,0.492c0.408,0.048,0.641,0.189,0.845,0.521c0.885,1.443,1.347,3.037,1.623,4.682
		c0.092,0.547,0.033,1.145-0.077,1.695c-0.414,2.067-0.731,4.17-1.366,6.17c-0.602,1.894-1.095,3.865-2.285,5.539
		c-0.674,0.948-1.575,1.617-2.537,2.195c-0.902,0.542-1.234,1.284-1.161,2.284c0.045,0.615,0.552,1.221,1.173,1.267
		c1.828,0.135,3.654,0.067,5.439-0.367c1.477-0.359,2.968-0.369,4.459-0.279c1.034,0.062,1.372-0.042,1.734-1.017
		c0.272-0.732,0.504-1.484,0.689-2.242c0.085-0.348-0.031-0.74,0.023-1.1c0.262-1.732,0.534-3.463,0.838-5.188
		c0.157-0.893,0.363-1.779,0.587-2.658c0.472-1.851,1.304-3.524,2.614-4.927c0.542-0.58,1.266-0.864,2.044-0.987
		c1.039-0.164,1.962-0.568,2.761-1.26c0.331-0.288,0.689-0.545,0.97-0.766c0.662,0.335,1.301,0.572,1.842,0.951
		c1.198,0.838,2.41,1.678,3.483,2.662c0.428,0.393,0.578,1.151,0.721,1.774c0.125,0.544,0.227,1.029,0.58,1.514
		c0.379,0.52,0.604,1.193,0.753,1.833c0.337,1.442,0.644,2.896,0.853,4.361c0.187,1.31,0.235,2.64,0.32,3.962
		c0.014,0.212-0.104,0.433-0.157,0.65c-0.125,0.519-0.307,1.033-0.356,1.56c-0.059,0.634,0.265,0.944,0.91,0.989
		c0.341,0.024,0.684,0.005,1.027,0.008c2.254,0.019,4.507,0.042,6.76,0.056c0.284,0.002,0.573-0.012,0.85-0.069
		c0.662-0.137,0.934-0.728,0.645-1.343c-0.264-0.562-0.316-1.155-0.274-1.768c0.016-0.236-0.01-0.488-0.076-0.715
		c-0.357-1.214-0.78-2.41-1.09-3.636c-0.343-1.358-0.782-2.7-0.869-4.115c-0.017-0.281-0.092-0.564-0.175-0.836
		c-0.231-0.763-0.259-1.518-0.142-2.317c0.123-0.841,0.051-1.708,0.116-2.559c0.25-3.216,0.485-6.434,0.331-9.659
		c-0.086-1.791-0.342-3.574-0.517-5.362c-0.055-0.566-0.094-1.133-0.05-1.717c0.197,0.811,0.399,1.62,0.591,2.432
		c0.862,3.659,1.72,7.319,2.583,10.978c0.049,0.207,0.154,0.403,0.187,0.612c0.086,0.539,0.202,1.083,0.206,1.625
		c0.009,1.258,0.283,2.437,0.971,3.489c0.528,0.807,1.085,1.602,1.705,2.34c0.505,0.601,1.171,1.025,1.925,1.309
		c0.359,0.135,0.678,0.38,1.015,0.576c0.033-0.027,0.067-0.054,0.101-0.081c-0.087-0.213-0.144-0.446-0.268-0.636
		C146.3,102.013,146.057,101.614,145.736,101.297z M30.545,69.109c-0.004,0.001-0.008,0.002-0.011,0.004
		c-0.911,0.272-1.914,0.468-2.981,0.516c0.784-0.242,1.502-0.524,2.15-0.813c0.366-0.164,0.709-0.332,1.031-0.499
		C30.742,68.576,30.641,68.852,30.545,69.109z M69.675,102.237c-0.285-0.037-0.572-0.067-0.855-0.115
		c-0.079-0.013-0.148-0.082-0.221-0.125c-0.391-0.23-0.808-0.428-1.164-0.703c-0.229-0.177-0.43-0.444-0.538-0.713
		c-0.162-0.405-0.217-0.851-0.344-1.271c-0.13-0.428-0.023-0.767,0.345-1.002c0.838-0.532,1.687-1.048,2.602-1.615
		c0.028,0.26,0.06,0.468,0.072,0.677c0.071,1.35,0.145,2.701,0.199,4.052C69.78,101.692,69.708,101.965,69.675,102.237z"/>
</g>
</svg>
