<?xml version="1.0" encoding="iso-8859-1"?>
<!-- Generator: Adobe Illustrator 17.1.0, SVG Export Plug-In . SVG Version: 6.00 Build 0)  -->
<!DOCTYPE svg PUBLIC "-//W3C//DTD SVG 1.1//EN" "http://www.w3.org/Graphics/SVG/1.1/DTD/svg11.dtd">
<svg version="1.1" id="Capa_1" xmlns="http://www.w3.org/2000/svg" xmlns:xlink="http://www.w3.org/1999/xlink" x="0px" y="0px"
	 viewBox="0 0 150 150" style="enable-background:new 0 0 150 150;" xml:space="preserve">
<g>
	<path d="M142.46,53.976c-2.467-0.384-4.466-1.637-6.58-2.755c-1.301-0.688-2.717-1.154-4.068-1.75
		c-0.359-0.158-0.682-0.41-0.997-0.651c-0.445-0.342-0.836-0.76-1.302-1.067c-2.01-1.323-3.317-1.062-4.552,1.013
		c-1.587,2.667-3.969,4.505-6.41,6.264c-3.484,2.51-7.526,3.419-11.695,3.168c-4.098-0.246-8.177-0.938-12.242-1.575
		c-9.26-1.449-18.447-3.503-27.868-3.618c-6.47-0.079-12.735,0.947-18.667,3.808c-5.017,2.419-8.604,6.472-12.47,10.227
		c-1.906,1.852-3.608,3.921-5.579,5.696c-1.344,1.209-2.946,2.161-4.516,3.085c-8.121,4.776-13.029,12.062-16.711,20.522
		c-5.02,11.531-4.602,23.178-1.556,35.002c0.217,0.842,0.405,1.701,0.729,2.503c0.191,0.473,0.68,1.23,0.933,1.191
		c0.569-0.087,1.36-0.472,1.555-0.944c0.738-1.786,1.522-3.615,1.838-5.502c0.834-4.993,1.409-10.029,2.133-15.041
		c0.577-3.989,2.039-7.666,4.066-11.136c0.305-0.522,0.616-1.103,0.69-1.686c0.63-4.997,3.675-8.541,7.132-11.793
		c1.367-1.287,3.017-2.269,4.479-3.461c1.282-1.045,2.418-0.849,3.536,0.198c1.119,1.048,2.297,2.046,3.318,3.184
		c1.266,1.412,2.746,2.152,4.647,2.341c6.052,0.6,12.078,0.105,18.102-0.337c0.651-0.048,1.779-0.807,1.771-1.219
		c-0.022-1.135-0.417-2.464-1.824-2.66c-1.934-0.269-3.903-0.416-5.854-0.394c-0.91,0.01-1.283-0.185-1.522-1.023
		c-0.265-0.926-0.673-1.81-1.09-2.897c6.048-2.104,12.082-2.308,18.236-1.383c4.029,0.606,8.104,0.913,12.131,1.533
		c2.154,0.332,4.223,1.279,6.377,1.519c2.288,0.255,4.685,0.3,6.941-0.096c3.709-0.652,7.34-1.747,11.011-2.628
		c1.185-0.284,1.906,0.404,2.186,1.423c0.782,2.845,2.245,5.299,4.438,7.199c1.551,1.343,3.307,2.546,5.156,3.422
		c1.643,0.778,3.84-0.206,4.792-1.758c0.186-0.304,0.208-0.972,0.002-1.206c-0.784-0.893-1.615-1.783-2.573-2.476
		c-1.18-0.854-3.041-1.212-3.649-2.314c-1.125-2.038-1.941-4.305-2.071-6.793c-0.113-2.165,0.795-3.363,2.467-4.437
		c4.152-2.666,8.229-5.449,12.361-8.146c2.125-1.387,4.51-1.983,7.017-2.369c3.199-0.492,5.784-2.288,7.761-4.784
		C145.798,57.689,144.549,54.301,142.46,53.976z"/>
</g>
</svg>
