<?xml version="1.0" encoding="iso-8859-1"?>
<!-- Generator: Adobe Illustrator 17.1.0, SVG Export Plug-In . SVG Version: 6.00 Build 0)  -->
<!DOCTYPE svg PUBLIC "-//W3C//DTD SVG 1.1//EN" "http://www.w3.org/Graphics/SVG/1.1/DTD/svg11.dtd">
<svg version="1.1" id="Capa_1" xmlns="http://www.w3.org/2000/svg" xmlns:xlink="http://www.w3.org/1999/xlink" x="0px" y="0px"
	 viewBox="0 0 150 150" style="enable-background:new 0 0 150 150;" xml:space="preserve">
<g>
	<path d="M144.991,75.099c-0.737-0.71-1.826-3.467-2.557-4.184c-0.091-0.089-0.172-0.265-0.151-0.382
		c0.212-1.174-0.475-1.958-1.168-2.737c-0.475-0.535-0.967-1.056-1.47-1.603c1.273-0.771,1.669-2.027,1.944-3.352
		c0.004-0.018-0.001-0.038,0.002-0.057c0.159-1.063,0.164-0.939-0.936-0.895c-1.649,0.065-3.128,0.635-4.647,1.157
		c-0.548,0.188-1.192,0.133-1.792,0.128c-0.911-0.008-1.821-0.073-2.732-0.106c-1.155-0.042-2.31-0.113-3.465-0.107
		c-2.775,0.015-5.549,0.086-8.323,0.098c-1.115,0.005-2.234-0.046-3.345-0.144c-0.994-0.088-1.986-0.428-2.968-0.39
		c-2.839,0.11-5.581-0.404-8.315-1.039c-2.902-0.675-5.77-1.577-8.707-1.989c-2.313-0.325-4.709-0.059-7.067-0.047
		c-0.299,0.001-0.599,0.068-0.898,0.072c-4.238,0.058-8.414,0.514-12.4,2.062c-1.771,0.688-3.512,1.452-5.26,2.199l-0.041,0.206
		c-0.471-0.381-0.937-0.77-1.407-1.153c-1.789-1.459-3.576-2.921-5.371-4.37c-2.374-1.917-4.764-3.809-7.13-5.738
		c-2.281-1.86-4.953-2.833-7.424-4.26c-0.479-0.276-0.996-0.47-1.502-0.681c-1.568-0.653-3.186-1.03-4.854-1.178
		c-1.458-0.13-2.91-0.349-4.367-0.505c-1.334-0.143-2.672-0.246-4.007-0.38c-1.237-0.125-2.473-0.26-3.709-0.404
		c-1.438-0.167-2.879-0.308-4.31-0.533c-1.942-0.305-3.882-0.636-5.81-1.035c-1.952-0.404-3.859-1.023-5.492-2.367
		c-1.014-0.835-2.059-1.599-2.892-2.751c-0.55-0.76-1.548-1.135-2.387-1.582c-0.652-0.348-1.392-0.022-1.824,0.644
		c-0.1,0.154-0.216,0.297-0.296,0.462c-0.339,0.696-0.777,1.363-0.969,2.11c-0.186,0.722-0.081,1.534-0.163,2.298
		c-0.19,1.768,0.354,3.384,0.861,4.972c0.438,1.373,1.49,2.301,2.542,3.025c1.476,1.015,3.061,1.833,4.631,2.66
		c1.178,0.621,2.393,1.155,3.613,1.666c0.743,0.311,1.512,0.612,2.291,0.724c1.14,0.164,2.3,0.161,3.451,0.219
		c1.832,0.092,3.668,0.127,5.497,0.278c1.171,0.097,2.351,0.265,3.493,0.564c2.753,0.72,5.503,1.466,8.221,2.337
		c2.017,0.646,3.979,1.509,5.968,2.267c1.512,0.577,2.829,1.58,4.192,2.477c1.488,0.979,2.961,1.993,4.4,3.062
		c3.199,2.376,6.619,4.263,10.114,5.989c0.867,0.428,1.737,0.849,2.605,1.275l-0.077,0.38c0.118,0.044,0.213,0.351,0.196,0.529
		c-0.163,1.673,0.638,2.879,1.836,3.906c0.159,0.136,0.3,0.292,0.446,0.443c0.469,0.487,0.433,0.62,0.005,1.129
		c-0.626,0.745-1.433,1.125-2.346,1.35c-0.095,0.023-0.238,0.114-0.246,0.186c-0.179,1.592-0.7,3.199-0.087,4.778
		c0.271,0.696,0.781,1.306,1.221,1.928c0.452,0.639,0.906,1.289,1.443,1.854c0.579,0.61,1.311,1.077,1.871,1.7
		c0.528,0.587,1.206,0.937,1.888,1.073c1.037,0.207,2.125,0.181,3.192,0.195c0.233,0.003,0.466-0.017,0.7-0.046l-0.007,0.025
		c0.002,0,0.01-0.001,0.025-0.003c0.018-0.001,0.045-0.002,0.079-0.004c0.07-0.003,0.172-0.004,0.296-0.003
		c0.247,0.002,0.58,0.016,0.907,0.058c0.327,0.041,0.646,0.114,0.861,0.222c0.054,0.027,0.101,0.055,0.14,0.085
		c0.039,0.029,0.072,0.059,0.094,0.087c0.049,0.055,0.063,0.099,0.066,0.098c0,0,0.001-0.011,0.003-0.032
		c0.002-0.021,0.005-0.053,0-0.093c-0.002-0.042-0.014-0.091-0.031-0.147c-0.018-0.056-0.044-0.118-0.078-0.182
		c-0.034-0.065-0.076-0.132-0.124-0.199c-0.048-0.069-0.102-0.136-0.16-0.205c-0.089-0.104-0.188-0.208-0.291-0.307
		c0.191,0.008,0.404,0.023,0.614,0.05c0.327,0.041,0.646,0.114,0.861,0.222c0.054,0.027,0.101,0.055,0.14,0.085
		c0.039,0.029,0.072,0.059,0.094,0.087c0.049,0.055,0.063,0.099,0.066,0.098c0,0,0.001-0.011,0.003-0.032
		c0.002-0.021,0.005-0.053,0-0.093c-0.002-0.042-0.014-0.091-0.031-0.147c-0.018-0.056-0.044-0.118-0.078-0.182
		c-0.034-0.065-0.076-0.132-0.124-0.199c-0.048-0.069-0.102-0.136-0.16-0.205c-0.117-0.137-0.251-0.273-0.39-0.401
		c-0.184-0.17-0.374-0.325-0.55-0.461c0.275,0.043,0.535,0.11,0.718,0.202c0.054,0.027,0.101,0.055,0.14,0.085
		c0.039,0.029,0.072,0.059,0.094,0.087c0.049,0.055,0.063,0.099,0.066,0.098c0,0,0.001-0.011,0.003-0.032
		c0.002-0.021,0.005-0.053,0-0.093c-0.002-0.042-0.014-0.091-0.031-0.147c-0.018-0.056-0.044-0.118-0.078-0.182
		c-0.034-0.065-0.076-0.132-0.124-0.199c-0.048-0.069-0.102-0.136-0.16-0.205c-0.117-0.137-0.251-0.273-0.39-0.401
		c-0.112-0.103-0.225-0.2-0.338-0.292c-0.111-0.126-0.257-0.238-0.385-0.364c-0.853-0.839-1.783-0.286-2.668-0.135
		c-0.281,0.048-0.474,0.067-0.687-0.092c-0.496-0.371-0.992-0.743-1.559-1.168c0.86-0.417,1.618-0.798,2.388-1.154
		c1.32-0.612,2.639-1.225,3.973-1.805c0.68-0.295,1.384-0.541,2.093-0.76c0.202-0.062,0.57-0.028,0.66,0.102
		c0.116,0.168,0.081,0.489,0.021,0.721c-0.198,0.774-0.441,1.536-0.651,2.307c-0.024,0.09,0.022,0.226,0.081,0.306
		c0.348,0.475,0.699,0.948,1.07,1.405c0.55,0.68,1.273,1.124,2.118,1.296c1.498,0.304,3.002,0.592,4.516,0.796
		c1.416,0.191,2.847,0.266,4.271,0.391c0.127,0.011,0.263-0.008,0.381,0.03c0.491,0.158,0.931,0.111,1.271-0.111
		c0.232,0.008,0.511,0.025,0.786,0.063c0.167,0.023,0.333,0.053,0.483,0.092c0.075,0.02,0.148,0.041,0.214,0.065
		c0.067,0.023,0.128,0.05,0.183,0.078c0.055,0.028,0.103,0.058,0.143,0.088c0.039,0.031,0.074,0.061,0.096,0.09
		c0.025,0.028,0.041,0.054,0.05,0.072c0.011,0.018,0.016,0.028,0.016,0.028s0.001-0.011,0.003-0.032
		c0.002-0.022,0.004-0.054-0.001-0.095c-0.002-0.043-0.015-0.093-0.033-0.15c-0.018-0.057-0.045-0.12-0.081-0.186
		c-0.035-0.066-0.078-0.135-0.128-0.203c-0.049-0.07-0.105-0.139-0.165-0.208c-0.099-0.115-0.211-0.228-0.327-0.338
		c0.205,0.009,0.437,0.027,0.667,0.058c0.167,0.023,0.333,0.053,0.483,0.092c0.075,0.02,0.148,0.041,0.214,0.065
		c0.067,0.023,0.128,0.05,0.183,0.078c0.055,0.028,0.103,0.058,0.143,0.088c0.039,0.031,0.074,0.061,0.096,0.09
		c0.025,0.028,0.041,0.054,0.05,0.072c0.011,0.018,0.016,0.028,0.016,0.028s0.001-0.011,0.003-0.032
		c0.002-0.022,0.004-0.054-0.001-0.095c-0.002-0.043-0.015-0.093-0.032-0.15c-0.018-0.057-0.045-0.12-0.081-0.186
		c-0.035-0.066-0.078-0.135-0.128-0.203c-0.049-0.07-0.105-0.139-0.165-0.208c-0.12-0.139-0.258-0.277-0.401-0.407
		c-0.19-0.173-0.388-0.333-0.568-0.471c0.028-0.002,0.057-0.004,0.087-0.007c0.091,0.017,0.18,0.035,0.264,0.057
		c0.075,0.02,0.148,0.041,0.214,0.065c0.067,0.023,0.128,0.05,0.183,0.078c0.055,0.028,0.103,0.058,0.143,0.088
		c0.039,0.031,0.074,0.061,0.096,0.09c0.025,0.028,0.041,0.054,0.05,0.072c0.011,0.018,0.016,0.028,0.016,0.028
		s0.001-0.011,0.003-0.032c0.002-0.022,0.004-0.054-0.001-0.095c-0.002-0.043-0.015-0.093-0.033-0.15
		c-0.018-0.057-0.045-0.12-0.081-0.186c-0.035-0.066-0.078-0.135-0.128-0.203c-0.049-0.07-0.105-0.139-0.165-0.208
		c-0.12-0.139-0.258-0.277-0.401-0.407c-0.286-0.261-0.592-0.494-0.828-0.662c-0.118-0.084-0.219-0.152-0.291-0.2
		c-0.037-0.024-0.067-0.042-0.087-0.055c-0.023-0.014-0.036-0.021-0.034-0.02l-0.003,0.01c-0.007-0.003-0.013-0.006-0.021-0.008
		c-0.44-0.076-0.905-0.032-1.359-0.01c-1.818,0.087-3.651,0.349-5.402-0.544c0.794-1.296,1.473-2.643,1.735-4.153
		c0.169-0.975,0.304-1.958,0.413-2.942c0.095-0.855,0.24-0.958,1.13-0.747c0.275,0.065,0.577,0.012,0.867,0.026
		c0.637,0.03,1.277,0.046,1.911,0.109c0.89,0.09,1.774,0.232,2.664,0.323c0.391,0.04,0.79,0.007,1.174,0.007
		c-0.068,1.076-0.147,2.088-0.191,3.102c-0.055,1.249-0.134,2.501-0.1,3.748c0.024,0.891,0.161,1.79,0.351,2.663
		c0.242,1.111,1.127,1.609,2.128,1.909c0.572,0.171,1.175,0.428,1.744,0.383c1.165-0.092,2.366,0.183,3.5-0.311
		c0.194-0.084,0.421-0.091,0.635-0.129c0.178,0.007,0.41,0.024,0.638,0.06c0.238,0.037,0.469,0.098,0.624,0.182
		c0.039,0.021,0.072,0.043,0.1,0.065c0.028,0.022,0.052,0.045,0.067,0.066c0.034,0.041,0.044,0.073,0.046,0.072
		c-0.002,0,0.007-0.032,0-0.091c-0.002-0.03-0.011-0.065-0.025-0.106c-0.014-0.04-0.033-0.085-0.059-0.13
		c-0.102-0.185-0.294-0.39-0.499-0.57c0,0-0.001-0.001-0.001-0.001c0.163,0.009,0.356,0.026,0.548,0.056
		c0.238,0.037,0.469,0.098,0.624,0.182c0.039,0.021,0.072,0.043,0.1,0.065c0.028,0.022,0.052,0.045,0.067,0.066
		c0.034,0.041,0.044,0.073,0.046,0.072c-0.002,0,0.007-0.032,0-0.091c-0.002-0.03-0.011-0.065-0.025-0.106
		c-0.014-0.04-0.033-0.085-0.059-0.13c-0.102-0.185-0.294-0.39-0.499-0.57c-0.178-0.157-0.364-0.297-0.52-0.407
		c0.013,0.002,0.026,0.003,0.038,0.005c0.238,0.037,0.469,0.098,0.624,0.182c0.039,0.021,0.072,0.043,0.1,0.065
		c0.028,0.022,0.052,0.045,0.067,0.066c0.034,0.041,0.044,0.073,0.046,0.072c-0.002,0,0.007-0.032,0-0.091
		c-0.002-0.03-0.011-0.065-0.025-0.106c-0.014-0.04-0.033-0.085-0.059-0.13c-0.077-0.14-0.207-0.292-0.354-0.436
		c0.08-0.07,0.233-0.075,0.35-0.112c-0.131-0.411-0.165-0.328-1.216-0.761c-0.521-0.214-0.967-0.52-1.57-0.47
		c-0.546,0.045-1.099,0.01-1.649,0.01c-0.496-1.562,0.148-2.847,0.895-4.087c0.581-0.965,1.258-1.873,1.855-2.83
		c0.186-0.298,0.345-0.289,0.643-0.216c1.571,0.382,2.527,1.476,3.274,2.798c0.67,1.187,1.304,2.396,1.924,3.61
		c0.147,0.288,0.16,0.641,0.258,0.957c0.043,0.139,0.114,0.299,0.224,0.385c1.118,0.872,2.301,1.67,3.358,2.609
		c1.16,1.031,2.482,1.265,3.938,1.146c1.439-0.118,2.879-0.226,4.312-0.393c0.014-0.002,0.028-0.004,0.043-0.007
		c0.027,0.001,0.055,0.001,0.086,0.003c0.18,0.007,0.423,0.024,0.66,0.062c0.238,0.037,0.469,0.098,0.624,0.182
		c0.039,0.021,0.072,0.043,0.1,0.065c0.028,0.022,0.052,0.045,0.067,0.066c0.034,0.041,0.044,0.073,0.046,0.072
		c-0.002,0,0.007-0.032,0-0.091c-0.002-0.03-0.011-0.065-0.025-0.106c-0.014-0.04-0.033-0.085-0.059-0.13
		c-0.102-0.185-0.294-0.391-0.499-0.57c0,0-0.001-0.001-0.001-0.001c0.163,0.009,0.356,0.025,0.547,0.056
		c0.238,0.037,0.469,0.098,0.624,0.182c0.039,0.021,0.072,0.043,0.1,0.065c0.028,0.022,0.052,0.045,0.067,0.066
		c0.034,0.041,0.044,0.073,0.046,0.072c-0.002,0,0.007-0.032,0-0.091c-0.002-0.03-0.011-0.065-0.025-0.106
		c-0.014-0.04-0.033-0.085-0.059-0.13c-0.102-0.185-0.294-0.39-0.499-0.57c-0.178-0.157-0.364-0.297-0.52-0.407
		c0.013,0.002,0.026,0.003,0.038,0.005c0.238,0.037,0.469,0.098,0.624,0.182c0.039,0.021,0.072,0.043,0.1,0.065
		c0.028,0.022,0.052,0.045,0.067,0.066c0.034,0.041,0.044,0.073,0.046,0.072c-0.002,0,0.007-0.032,0-0.091
		c-0.002-0.03-0.011-0.065-0.025-0.106c-0.014-0.04-0.033-0.085-0.059-0.13c-0.102-0.185-0.294-0.391-0.499-0.57
		c-0.205-0.181-0.424-0.343-0.593-0.459c-0.059-0.04-0.111-0.075-0.155-0.104c-0.849-0.639-1.831-0.806-2.981-0.586
		c-0.752,0.144-1.54,0.114-2.312,0.13c-0.385,0.008-0.903-0.514-0.883-0.896c0.097-1.813,0.173-3.629,0.345-5.436
		c0.093-0.978,0.338-1.944,0.562-2.905c0.073-0.315,0.263-0.62,0.456-0.888c0.586-0.816,1.167-1.64,1.823-2.4
		c0.199-0.231,0.63-0.36,0.957-0.364c1.022-0.012,2.044,0.081,3.066,0.087c0.717,0.004,1.434-0.08,2.152-0.102
		c0.596-0.018,1.193-0.011,1.789,0.001c0.162,0.003,0.381,0.015,0.473,0.116c0.426,0.463,0.766-0.264,1.293-0.246
		c1.09,0.037,2.22-0.165,3.264,0.058c1.214,0.26,0.802,0.811,1.998,0.855c1.321,0.049,3.767,0.757,4.255-0.453
		c0.344-0.853,0.862-0.878,0.873-1.748c0.001-0.108-0.174-0.215-0.163-0.257C145.428,75.552,145.218,75.317,144.991,75.099z"/>
</g>
</svg>
