<?xml version="1.0" encoding="iso-8859-1"?>
<!-- Generator: Adobe Illustrator 17.1.0, SVG Export Plug-In . SVG Version: 6.00 Build 0)  -->
<!DOCTYPE svg PUBLIC "-//W3C//DTD SVG 1.1//EN" "http://www.w3.org/Graphics/SVG/1.1/DTD/svg11.dtd">
<svg version="1.1" id="Capa_1" xmlns="http://www.w3.org/2000/svg" xmlns:xlink="http://www.w3.org/1999/xlink" x="0px" y="0px"
	 viewBox="0 0 150 150" style="enable-background:new 0 0 150 150;" xml:space="preserve">
<g>
	<path d="M119.502,75.237c-2.74,0.587-5.623,1.093-8.438,0.89c-1.385-0.1-2.763-0.581-4.092-1.268
		c-2.449-1.267-4.782-4.011-6.649-5.586c-3.135-2.646-6.264-5.304-9.483-7.846c-2.125-1.678-4.48-3.052-7.143-3.69
		c-1.925-0.461-3.905-0.688-5.861-1.018c-3.926-0.663-7.867-1.08-11.86-0.873c-5.49,0.284-10.694,1.718-15.65,4.009
		c-5.362,2.479-10.67,5.078-15.973,7.684c-1.768,0.869-3.592,0.953-5.489,0.858c-1.85-0.092-3.705-0.173-5.555-0.125
		c-1.968,0.051-3.62,0.886-4.918,2.394c-0.888,1.032-1.871,1.991-2.685,3.077c-1.27,1.695-2.991,2.688-4.871,3.516
		c-1.833,0.807-3.644,1.667-5.45,2.535c-0.502,0.241-0.958,0.582-1.418,0.903c-1,0.697-1.066,0.899-0.765,2.09
		c0.813,3.21,4.305,5.073,7.418,3.842c1.413-0.559,2.728-1.374,4.069-2.106c1.21-0.661,2.394-1.369,3.593-2.052
		c0.576-0.328,1.168-0.321,1.812-0.173c0.641,0.148,1.314,0.155,1.973,0.228c0.147,0.016,0.307,0.013,0.437,0.072
		c3.851,1.76,7.871,2.95,12.058,3.576c0.034,0.005,0.063,0.045,0.273,0.205c-1.352,1.026-2.633,1.999-3.939,2.99
		c0.478,0.273,0.997,0.569,1.552,0.885c-0.306,0.553-0.607,1.097-0.908,1.641c0.054,0.043,0.109,0.086,0.163,0.128
		c0.418-0.311,0.796-0.729,1.265-0.903c0.461-0.171,1.014-0.095,1.52-0.126c0.175,0.629,0.313,1.123,0.473,1.7
		c0.241-0.568,0.445-1.048,0.639-1.507c1.187-0.029,1.888,0.528,2.277,1.612c0.155-0.586,0.285-1.181,0.47-1.757
		c0.238-0.741,0.591-0.843,1.179-0.341c0.358,0.305,0.67,0.663,1.106,1.101c0.18-0.603,0.256-1.048,0.45-1.434
		c0.126-0.25,0.422-0.584,0.647-0.589c2.815-0.058,5.432-0.963,8.039-1.871c1.606-0.559,3.197-0.474,4.786-0.111
		c3.96,0.904,7.993,1.092,12.023,1.269c3.537,0.155,7.08,0.253,10.619,0.22c2.344-0.022,4.686-0.318,7.143-0.5
		c0.015,1.745-0.963,3.634-0.077,5.593c0.255-0.363,0.511-0.658,0.687-0.995c0.211-0.403,0.489-0.449,0.901-0.376
		c1.134,0.202,1.135,0.185,1.35,1.317c0.062,0.329,0.138,0.655,0.348,1.02c0.228-0.52,0.461-1.038,0.683-1.561
		c0.132-0.313,0.265-0.588,0.695-0.515c0.388,0.066,0.822-0.033,0.963,0.532c0.108,0.435,0.314,0.845,0.491,1.302
		c0.258-0.768,0.502-1.493,0.745-2.219c0.079,0,0.158,0.001,0.238,0.001c0.482,0.725,0.964,1.451,1.445,2.176
		c0.044-0.01,0.087-0.019,0.131-0.029c-0.028-0.447-0.049-0.894-0.086-1.341c-0.036-0.442-0.094-0.835,0.503-1.022
		c0.234-0.073,0.415-0.471,0.52-0.758c0.1-0.274,0.109-0.598,0.091-0.897c-0.087-1.435,0.573-2.458,1.849-2.971
		c1.996-0.803,3.919-2.877,6.005-3.329c0,0,28.48-3.677,14.827,7.206c-8.771,6.992,6.965,25.579,20.123,12.124
		C163.417,76.796,130.658,72.848,119.502,75.237z"/>
</g>
</svg>
