<?xml version="1.0" encoding="iso-8859-1"?>
<!-- Generator: Adobe Illustrator 17.1.0, SVG Export Plug-In . SVG Version: 6.00 Build 0)  -->
<!DOCTYPE svg PUBLIC "-//W3C//DTD SVG 1.1//EN" "http://www.w3.org/Graphics/SVG/1.1/DTD/svg11.dtd">
<svg version="1.1" id="Capa_1" xmlns="http://www.w3.org/2000/svg" xmlns:xlink="http://www.w3.org/1999/xlink" x="0px" y="0px"
	 viewBox="0 0 150 150" style="enable-background:new 0 0 150 150;" xml:space="preserve">
<g>
	<path d="M142.709,116.93c-5.65,0.801-11.151,0.023-16.634-1.17c-3.792-0.825-7.584-1.665-11.342-2.629
		c-1.506-0.387-2.922-1.124-4.442-1.727c0.88-2.883,0.362-5.35-0.804-7.756c-1.202-2.479-1.956-5.273-3.563-7.442
		C97.82,85.267,87.909,76.419,75.247,70.992c-3.415-1.464-6.071-3.629-7.844-6.971c-1.736-3.272-3.65-6.457-5.631-9.589
		c-2.29-3.621-4.58-7.262-7.163-10.673c-2.332-3.079-3.089-6.679-4.214-10.193c-0.697-2.18-1.514-4.321-2.292-6.475
		c-1.086-3.01-3.26-4.79-6.302-5.649c-2.019-0.57-4.007-1.25-6.009-1.881l-4.595,0.153c-3.981,1.689-8.061,1.756-12.257,0.936
		c-2.292-0.448-3.488,0.946-2.924,3.234c0.192,0.777,0.538,1.61,1.062,2.195c2.387,2.666,4.918,5.205,7.269,7.901
		c0.615,0.705,1.131,1.839,1.064,2.728c-0.17,2.275-0.697,4.523-1.075,6.783c-0.406,2.427-1.271,4.886-1.107,7.275
		c0.301,4.388,1.087,8.758,1.898,13.092c0.81,4.33,2.009,8.587,2.82,12.917c0.439,2.342,0.949,4.87,0.51,7.137
		c-1.06,5.471-2.742,10.818-4,16.255c-0.475,2.053-1.41,3.616-3.203,4.607c-2.996,1.656-6.003,3.292-9.012,4.926
		c-0.463,0.085-0.874,0.303-1.161,0.63c-1.81,0.982-3.62,1.964-5.429,2.948l0.024,0.707c9.731-0.905,19.463-1.813,29.195-2.71
		c1.656-0.152,2.605-1.007,3.195-2.578c0.92-2.451,2.043-4.826,3.153-7.402c2.588,2.583,5.613,4.047,8.931,5.06
		c8.263,2.523,16.729,3.875,25.313,4.589c1.914,0.159,3.829,0.296,5.745,0.433c0.483,0.233,0.967,0.467,1.45,0.7
		c-0.633,0.413-1.284,0.7-1.964,0.815c-6.254,1.053-12.288,3.259-18.711,3.444c-2.998,0.087-5.995,0.383-8.98,0.697
		c-1.205,0.126-2.38,0.551-3.568,0.84l0.097,0.526c1.077,0.066,2.179,0.011,3.226,0.225c1.586,0.324,3.148,1.098,4.711,1.265
		c0.21,0.127,0.469,0.201,0.783,0.183l3.473-0.198c8.862-0.117,17.723-0.344,26.581-0.632c2.261-0.074,4.635-0.284,6.281-2.29
		c0.155-0.189,0.496-0.278,0.764-0.312c1.797-0.226,3.596-0.424,5.121-0.6c0.826,0.826,1.439,1.997,2.269,2.179
		c6.251,1.374,12.505,3.121,18.998,1.55c1.353-0.327,2.688-0.482,4.008-0.48c1.295,0.177,2.593,0.332,3.893,0.471
		c0.989,0.237,1.97,0.557,2.945,0.963l7.069-0.236c1.363-0.477,2.727-0.948,4.088-1.431c1.204-0.428,2.404-0.868,3.606-1.302
		l-0.012-0.353C145.793,117.226,144.2,116.719,142.709,116.93z"/>
</g>
</svg>
