<?xml version="1.0" encoding="iso-8859-1"?>
<!-- Generator: Adobe Illustrator 17.1.0, SVG Export Plug-In . SVG Version: 6.00 Build 0)  -->
<!DOCTYPE svg PUBLIC "-//W3C//DTD SVG 1.1//EN" "http://www.w3.org/Graphics/SVG/1.1/DTD/svg11.dtd">
<svg version="1.1" id="Capa_1" xmlns="http://www.w3.org/2000/svg" xmlns:xlink="http://www.w3.org/1999/xlink" x="0px" y="0px"
	 viewBox="0 0 150 150" style="enable-background:new 0 0 150 150;" xml:space="preserve">
<g>
	<path d="M109.04,41.14c-3.792-5.412-8.529-9.79-14.051-13.354c-2.776-1.791-5.443-3.845-8.42-5.211
		c-8.257-3.788-16.061-8.325-23.596-13.364c-2.577-1.723-5.436-2.59-8.504-2.841c-0.213-0.017-0.424-0.071-0.636-0.107h-2.205
		c-0.208,0.042-0.415,0.102-0.625,0.123c-2.085,0.208-4.049,0.776-5.912,1.769c-3.843,2.049-6.769,5.035-9.083,8.672
		c-0.239,0.376-0.458,0.764-0.709,1.185c0.331,0.096,0.62,0.181,0.874,0.255c-0.541,0.842-0.905,1.787-1.061,2.773
		c-2.035,1.158-3.492,2.871-4.336,5.144c-0.377,0.661-0.629,1.356-0.758,2.085c-0.105,0.145-0.208,0.293-0.308,0.444
		c-0.159,0.242-0.499,0.426-0.792,0.505c-0.727,0.196-1.479,0.296-2.21,0.478c-0.283,0.071-0.536,0.261-0.803,0.396l0.075,0.201
		c0.975-0.155,1.949-0.311,3.018-0.481c-0.294,0.608-0.497,1.107-0.773,1.563c-0.123,0.203-0.37,0.392-0.599,0.458
		c-0.766,0.219-1.554,0.363-2.324,0.571c-0.228,0.061-0.425,0.237-0.636,0.359c0.032,0.075,0.064,0.15,0.096,0.226
		c1.021-0.219,2.043-0.439,3.149-0.676c-0.157,0.606-0.263,1.067-0.401,1.518c-0.037,0.122-0.146,0.273-0.256,0.312
		c-0.91,0.32-1.827,0.617-2.742,0.922v0.649c0.909-0.369,1.818-0.739,2.855-1.16c0,0.672-0.01,1.142,0.002,1.612
		c0.056,2.279,0.961,3.502,3.13,4.208c1.022,0.333,2.063,0.454,3.124,0.172c1.387-0.369,2.211-1.348,2.313-2.775
		c0.011-0.15,0.01-0.302,0.008-0.453c0.379,0.385,0.805,0.721,1.27,0.994c0.002,0.001,0.005,0.003,0.007,0.004
		c1.638,1.662,3.733,2.527,6.064,2.943c0.421,0.221,0.873,0.393,1.355,0.503c0.652,0.148,1.305,0.295,1.957,0.443
		c-0.057-0.001-0.113-0.003-0.17-0.003c0.07,0.331,0.557,1.037,1.325,1.979c-0.133,0.396-0.184,0.82-0.159,1.244
		c-0.786,1.8-1.314,3.751-1.636,5.752c-0.812,5.048-0.698,10.077,0.653,15.019c0.427,1.563,1.079,3.103,1.872,4.517
		c1.083,1.929,2.984,2.532,4.87,1.811c1.934-0.739,3.057-2.772,2.875-4.797c-0.311-3.459-0.497-6.929-0.729-10.395
		c-0.045-0.668-0.151-1.349-0.068-2.003c0.036-0.282,0.033-0.54-0.001-0.783c0.085-0.166,0.137-0.363,0.139-0.591l0.012-1.485
		c2.396,2.324,4.752,4.448,6.351,5.639c0.008-0.073,0.016-0.144,0.025-0.216c0.087,0.087,0.173,0.173,0.26,0.26
		c0.178,0.178,0.366,0.342,0.562,0.497c-0.007,0.138-0.015,0.276-0.02,0.415c-0.097,2.741-0.201,5.482-0.219,8.224
		c-0.01,1.558,0.216,3.103,0.9,4.54c1.14,2.397,3.466,3.093,5.725,1.702c1.487-0.916,2.476-2.253,3.21-3.81
		c0.094-0.199,0.184-0.399,0.276-0.598c0.219,0.171,0.439,0.341,0.658,0.512c0.078,0.077,0.158,0.15,0.238,0.222
		c0.017,0.136,0.083,0.26,0.205,0.399c1.783,2.026,3.526,4.088,5.334,6.091c2.721,3.016,5.533,5.951,8.215,9
		c1.927,2.191,3.016,4.782,3.299,7.732c0.426,4.436,1.422,8.774,2.469,13.098c0.03,0.126,0.035,0.263,0.089,0.377
		c0.81,1.715,0.217,3.064-0.838,4.525c-3.136,4.343-6.161,8.771-8.711,13.496c-1.187,2.199-2.093,4.503-2.276,7.034
		c-0.23,3.192,1.123,5.606,3.692,7.386c2.832,1.961,6.034,3.062,9.353,3.836c3.581,0.836,7.209,1.166,10.873,0.682
		c2.72-0.359,5.282-1.15,7.313-3.128c1.379-1.342,2.154-3.067,2.875-4.804c1.201-2.893,1.741-5.953,2.235-9.029
		c0.648-4.034,0.779-8.08,0.527-12.149c-0.218-3.52,0.301-6.981,0.805-10.448c0.803-5.52,1.328-11.066,1.535-16.643
		c0.166-4.455,0.099-8.903-0.291-13.343C119.211,62.106,115.956,51.01,109.04,41.14z"/>
</g>
</svg>
