<?xml version="1.0" encoding="iso-8859-1"?>
<!-- Generator: Adobe Illustrator 17.1.0, SVG Export Plug-In . SVG Version: 6.00 Build 0)  -->
<!DOCTYPE svg PUBLIC "-//W3C//DTD SVG 1.1//EN" "http://www.w3.org/Graphics/SVG/1.1/DTD/svg11.dtd">
<svg version="1.1" id="Capa_1" xmlns="http://www.w3.org/2000/svg" xmlns:xlink="http://www.w3.org/1999/xlink" x="0px" y="0px"
	 viewBox="0 0 150 150" style="enable-background:new 0 0 150 150;" xml:space="preserve">
<g>
	<path d="M145.455,63.704c-0.312-0.589-0.824-1.107-1.543-1.482c-1.911-0.997-3.837-2.004-5.85-2.754
		c-1.132-0.422-2.317-0.574-3.513-0.551c-0.784-0.156-1.625-0.15-2.476-0.013c-0.513,0.083-1.027,0.164-1.541,0.237
		c-0.209,0.026-0.418,0.052-0.628,0.077c-0.916,0.106-1.833,0.202-2.753,0.276c-1.97,0.158-3.945,0.258-5.921,0.27
		c-0.287,0.002-0.574-0.003-0.861-0.005c-0.067-0.017-0.135-0.034-0.202-0.051c-0.324-0.083-0.648-0.176-0.963-0.29
		c-1.137-0.412-2.325-0.73-3.391-1.282c-1.334-0.692-2.593-1.542-3.833-2.398c-0.745-0.514-1.338-1.255-2.096-1.743
		c-1.564-1.007-3.194-1.912-4.794-2.863c-1.189-0.706-2.325-1.527-3.575-2.098c-1.264-0.576-2.629-0.942-3.968-1.338
		c-2.399-0.709-4.802-1.403-7.22-2.045c-4.379-1.163-8.738-2.426-13.164-3.376c-3.383-0.727-6.849-1.091-10.292-1.508
		c-1.73-0.21-3.49-0.172-5.236-0.258c-1.77-0.087-3.547-0.338-5.308-0.252c-4.071,0.2-8.031,1.061-11.912,2.319
		c-4.813,1.559-9.296,3.831-13.719,6.237c-1.819,0.99-3.599,2.053-5.412,3.055c-0.559,0.309-1.171,0.522-1.755,0.787
		c-2.484,1.127-4.753,2.551-6.603,4.604c-0.366,0.406-0.926,0.728-1.457,0.879c-2.165,0.614-4.162,1.443-5.811,3.086
		c-0.89,0.887-2.031,1.548-3.129,2.194c-1.801,1.06-2.375,2.495-2.348,4.622c0.029,2.311,0.931,3.947,2.617,5.213
		c1.102,0.827,2.265,1.714,3.793,1.716c0.246,0,0.498,0.178,0.735,0.297c1.611,0.807,3.121,1.778,5.001,2.022
		c1.361,0.177,2.228-0.566,3.219-1.136c0.701-0.403,1.355-0.894,2.004-1.382c1.836-1.38,3.592-0.846,5.465,0.017
		c1.563,0.721,3.229,1.321,4.914,1.638c1.105,0.208,2.321-0.26,3.491-0.283c1.224-0.023,2.461,0.054,3.674,0.221
		c0.93,0.128,0.977,1.108,0.923,1.698c-0.23,2.504,0.568,4.812,1.72,6.841c0.796,1.401,2.374,2.462,3.792,3.382
		c1.999,1.296,4.136,2.4,6.289,3.43c1.118,0.535,2.318,1.058,3.673,0.731c0.968-0.234,1.301-0.763,0.92-1.675
		c-0.191-0.456-0.349-0.925-0.639-1.705c0.869,0.311,1.755,0.568,2.653,0.773c-0.043,0.012-0.086,0.022-0.13,0.034
		c0.741,0.151,1.476,0.377,2.225,0.437c1.806,0.145,3.623,0.339,5.427,0.274c1.825-0.066,2.339-1.055,1.648-2.738
		c-1.508-3.675-4.286-6.088-7.778-7.783c-0.575-0.279-1.16-0.537-1.736-0.817c-0.11-0.053-0.193-0.16-0.246-0.466
		c0.801,0.081,1.602,0.177,2.404,0.241c1.903,0.151,3.806,0.37,5.712,0.407c2.111,0.04,4.239,0.035,6.335-0.186
		c2.021-0.213,4.035-0.633,6.01-1.127c3.706-0.928,7.372-2.013,11.074-2.956c1.813-0.462,3.657-0.838,5.51-1.088
		c1.502-0.203,3.041-0.119,4.556-0.244c0.726-0.06,1.434-0.323,2.155-0.471c2.066-0.425,4.134-0.839,6.202-1.253
		c0.062-0.012,0.158,0.055,0.196,0.027c0.084-0.061,0.169-0.115,0.255-0.168c0.14-0.037,0.28-0.08,0.418-0.135
		c0.417-0.164,0.839-0.312,1.267-0.442c1.082-0.154,2.212-0.032,3.294-0.188c0.053-0.008,0.105-0.022,0.159-0.04l3.403-0.089
		c0.013,0.002,0.027,0.003,0.041,0.004c0.154,0.023,0.309,0.046,0.463,0.071c0.481,0.08,0.962,0.163,1.441,0.255
		c0.602,0.116,1.204,0.237,1.806,0.36c1.702,1.144,4.2,1.977,5.178,1.022c0.219,0.038,0.439,0.076,0.659,0.112
		c0.104,0.07,0.211,0.142,0.328,0.22c-0.001-0.059-0.002-0.113-0.003-0.168c0.105,0.017,0.211,0.034,0.317,0.05
		c-0.024,0.042-0.047,0.083-0.072,0.127c1.703,0.165,3.307,0.341,4.915,0.471c1.062,0.086,2.193,0.352,3.178,0.096
		c1.365-0.355,2.67-1.038,3.913-1.739c1.929-1.089,3.723-2.372,5.413-3.837c1.103-0.956,1.584-2.215,1.426-3.373
		C145.776,64.35,145.655,63.998,145.455,63.704z M66.73,87.736c0.055,0.066,0.108,0.13,0.164,0.197
		c-0.06-0.003-0.114-0.005-0.169-0.008C66.729,87.861,66.731,87.798,66.73,87.736z"/>
</g>
</svg>
