<?xml version="1.0" encoding="iso-8859-1"?>
<!-- Generator: Adobe Illustrator 17.1.0, SVG Export Plug-In . SVG Version: 6.00 Build 0)  -->
<!DOCTYPE svg PUBLIC "-//W3C//DTD SVG 1.1//EN" "http://www.w3.org/Graphics/SVG/1.1/DTD/svg11.dtd">
<svg version="1.1" id="Capa_1" xmlns="http://www.w3.org/2000/svg" xmlns:xlink="http://www.w3.org/1999/xlink" x="0px" y="0px"
	 viewBox="0 0 150 150" style="enable-background:new 0 0 150 150;" xml:space="preserve">
<g>
	<path d="M5.373,139.179c3.713,0.489,7.557,1.489,11.168,0.979c14.037-1.981,27.907-4.966,41.346-9.535
		c7.701-2.618,15.189-5.874,22.724-8.961c2.071-0.848,3.674-0.482,5.313,0.854c0.591,0.482,1.613,1.128,2.109,0.919
		c2.956-1.245,5.208,0.157,7.509,1.628c0.477,0.305,1.021,0.505,1.534,0.751c0,0.002,0,0.004,0,0.006
		c2.479,1.959,5.218,3.226,8.3,1.785c1.095-0.512,2.009-1.847,2.476-3.017c0.151-0.378-1.308-1.549-2.176-2.145
		c-1.037-0.712-2.253-1.159-3.327-1.823c-0.501-0.446-1.003-0.891-1.505-1.337c-0.541-0.871-0.273-1.78,0.833-2.826
		c2.872-2.715,5.785-5.398,8.827-7.917c2.263-1.873,5.596-0.964,7.126,1.75c0.572,1.015,0.879,2.208,1.57,3.12
		c0.614,0.81,1.765,2.007,2.374,1.849c1.015-0.263,2.181-1.308,2.589-2.307c1.565-3.838,0.555-7.391-1.984-10.481
		c-1.104-1.344-2.317-2.585-2.337-4.101c0.084-0.36,0.149-0.725,0.194-1.094c0.152-0.422,0.392-0.865,0.758-1.339
		c0.237-0.308,0.124-1.203-0.163-1.545c-0.38-0.454-0.667-0.916-0.884-1.384c-0.12-0.484-0.272-0.966-0.448-1.443
		c-0.256-1.458,0.002-2.981,0.328-4.576c0.146-0.715,0.266-1.437,0.377-2.16c0.747-3.916,1.494-7.833,2.242-11.749
		c1.484-4.31,3.651-8.406,5.464-12.615c3.469-8.052,7.259-15.987,10.262-24.209c2.22-6.078,3.038-12.556,1.051-19.018
		c-0.311-1.01-0.756-1.978-1.082-2.818c-2.396,3.329-4.471,6.718-7.038,9.681c-6.516,7.519-15.062,11.945-24.478,14.49
		c-5.767,1.558-11.775,2.292-17.714,3.116c-3.405,0.472-6.892,0.318-10.334,0.564c-5.215,0.373-10.158-0.844-15.087-2.305
		c-3.115-0.923-6.262-1.74-9.413-2.533c-3.437-0.865-5.101-0.185-7.072,2.743c-1.594,2.367-4.592,3.365-6.892,1.766
		c-3.893-2.705-7.544-5.759-11.278-8.69c-0.546-0.428-1.06-0.897-1.572-1.367c-2.155-3.04-3.86-6.408-5.024-9.998
		c-0.784-4.063-1.356-8.165-2.006-12.186c-1.347,2.237-1.649,5.011-1.351,7.775c1.215,11.247,6.598,19.805,16.644,25.287
		c1.976,1.078,3.857,2.332,5.773,3.519c0.118,0.074,0.158,0.275,0.14,0.242c-1.088,1.181-2.113,2.311-3.158,3.422
		c-0.435,0.462-0.845,1.143-1.381,1.283c-4.212,1.098-4.688,2.714-3.411,7.807c1.312,5.23,3.272,10.301,4.526,15.543
		c1.513,6.325,1.44,12.771,0.612,19.233c-1.363,10.633-5.538,20.15-12.039,28.477c-5.334,6.833-11.947,12.287-20.9,14.003
		c-0.597,0.115-1.095,0.749-1.639,1.141C4.354,138.041,4.799,139.103,5.373,139.179z M106.688,125.24
		c-0.109,0.075-0.219,0.158-0.33,0.246c0.031-0.235,0.024-0.47-0.023-0.697C106.451,124.943,106.567,125.095,106.688,125.24z
		 M119.387,112.038c-0.328-0.616-0.644-1.242-0.985-1.843C118.802,110.752,119.133,111.369,119.387,112.038z M97.036,125.265
		c0.013,0.172,0.025,0.345,0.038,0.517c-0.274-0.431-0.517-0.853-0.732-1.268C96.573,124.764,96.804,125.014,97.036,125.265z"/>
</g>
</svg>
