<?xml version="1.0" encoding="iso-8859-1"?>
<!-- Generator: Adobe Illustrator 17.1.0, SVG Export Plug-In . SVG Version: 6.00 Build 0)  -->
<!DOCTYPE svg PUBLIC "-//W3C//DTD SVG 1.1//EN" "http://www.w3.org/Graphics/SVG/1.1/DTD/svg11.dtd">
<svg version="1.1" id="Capa_1" xmlns="http://www.w3.org/2000/svg" xmlns:xlink="http://www.w3.org/1999/xlink" x="0px" y="0px"
	 viewBox="0 0 150 150" style="enable-background:new 0 0 150 150;" xml:space="preserve">
<g>
<path d="M142.316,52.646c-0.912-0.633-1.864-1.206-2.779-1.835c-0.624-0.428-1.239-0.615-1.999-0.346
	c-0.258,0.091-0.648-0.042-0.926-0.178c-1.028-0.502-2.019-0.476-3.066-0.022c-2.118,0.918-3.966,2.223-5.729,3.696
	c-1.34,1.119-2.784,2.114-4.18,3.166c-1.344,1.013-2.896,1.435-4.536,1.656c-2.8,0.379-5.561-0.08-8.341-0.264
	c-2.835-0.188-5.683-0.2-8.526-0.23c-1.927-0.02-3.856,0.027-5.781,0.113c-1.421,0.063-2.847,0.167-4.252,0.379
	c-2.606,0.393-5.203,0.846-7.793,1.332c-3.653,0.685-7.13,1.957-10.614,3.218c-5.528,2-11.149,3.527-17.003,4.419
	c-6.848,1.043-13.484,0.269-20.152-1.033c-3.719-0.726-7.419-1.599-11.168-2.103c-6.008-0.809-11.999-0.677-17.868,1.143
	c-1.618,0.502-3.278,0.869-4.923,1.286c-0.161,0.041-0.278,0.145-0.263,0.232s0.16,0.142,0.324,0.125
	c0.695-0.07,1.4-0.102,2.072-0.268c4.114-1.012,8.299-1.466,12.51-1.207c2.587,0.159,5.159,0.705,7.714,1.201
	c2.178,0.424,4.313,1.064,6.482,1.541c5.145,1.132,10.262,2.457,15.459,3.258c4.205,0.648,8.507,0.765,12.772,0.89
	c2.778,0.081,5.568-0.29,8.354-0.377c3.565-0.112,6.867,0.787,9.81,2.846c0.458,0.32,0.865,0.714,1.241,1.055
	c0.123,0.111,0.135,0.3,0.025,0.424c-0.412,0.464-0.779,0.881-1.152,1.292c-0.794,0.876-1.56,1.782-2.402,2.609
	c-0.648,0.637-1.345,1.252-2.108,1.737c-3.07,1.95-5.059,4.765-6.574,7.985c-0.475,1.009-1.473,2.05-1.367,2.979
	c0.116,1.017,0.202,2.123,0.491,3.153c0.225,0.799,0.443,1.601,0.663,2.402c0.044,0.16,0.146,0.285,0.228,0.28
	s0.155-0.144,0.163-0.309c0.032-0.662,0.064-1.324,0.096-1.986c0.008-0.165,0.06-0.334,0.117-0.378s0.152,0.046,0.225,0.195
	c0.795,1.633,2.221,2.051,3.893,2.07c0.166,0.002,0.312-0.072,0.32-0.16c0.006-0.063,0.004-0.124-0.028-0.154
	c-0.455-0.42-1.364-0.862-1.326-1.208c0.002-0.014,0-0.025-0.001-0.036c-0.003-0.02,0.129-0.007,0.29,0.034
	c0.419,0.106,0.838,0.249,0.98,0.418c0.288,0.346,0.781-0.743-2.227-2.09c-0.151-0.068-0.282-0.254-0.31-0.417
	c-0.13-0.744-0.532-1.508-0.389-2.175c0.253-1.179,0.814-2.337,1.456-3.373c0.618-0.997,1.39-1.971,2.302-2.694
	c1.006-0.797,2.214-1.372,3.396-1.909c2.027-0.921,4.133-1.561,6.362-1.903c1.196-0.184,2.362-0.887,2.859-2.178
	c0.366-0.95,1.031-1.334,2.006-1.458c0.725-0.092,1.431-0.363,2.136-0.586c0.501-0.159,0.763-0.073,1.036,0.454
	c0.43,0.83,0.954,1.641,1.579,2.333c1.074,1.188,1.882,2.5,2.429,4c0.893,2.448,1.857,4.843,3.453,6.974
	c0.677,0.904,0.989,2.081,1.336,2.986c0.059,0.155,0.222,0.354,0.361,0.444c0.32,0.207,0.55,0.336,0.725,0.519
	c0.987,1.033,1.953,2.085,3.031,3.247c0.113,0.121,0.241,0.091,0.259-0.074c0.116-1.049-0.712-1.63-0.974-2.416
	c-0.052-0.157,0.06-0.248,0.215-0.189c0.558,0.211,1.08,0.45,1.624,0.522c0.322,0.043,0.652,0.025,0.974-0.008
	c0.165-0.017,0.318-0.001,0.358,0.021c0.022,0.012,0.048,0.019,0.078,0.02c0.69,0.019,1.379,0.038,2.069,0.056
	c0.141,0.004,0.215-0.153,0.154-0.268c-0.372-0.709-1.005-1.203-1.756-1.408c-0.16-0.044-0.34-0.121-0.412-0.174
	c-0.048-0.036-0.096-0.061-0.144-0.072c-0.644-0.146-1.297-0.251-1.951-0.354c-0.164-0.026-0.168-0.086-0.008-0.13
	c0.474-0.128,0.963-0.212,1.286-0.138c0.706,0.163-0.712-1.224-2.899-1.102c-0.165,0.009-0.352-0.037-0.418-0.113
	s-0.181-0.259-0.276-0.395c-0.167-0.239-0.377-0.451-0.621-0.618c-0.137-0.094-0.334-0.264-0.427-0.401
	c-0.189-0.277-0.376-0.554-0.557-0.836c-1.286-1.988-2.049-4.191-2.699-6.452c-0.732-2.548-1.356-5.105-1.257-7.78
	c0.009-0.247,0.114-0.611,0.292-0.711c1.001-0.563,2.049-1.043,3.061-1.588c1.422-0.767,2.956-0.983,4.54-1.008
	c1.481-0.024,2.966-0.005,4.439-0.124c0.752-0.061,1.48-0.398,2.226-0.58c0.285-0.07,0.58-0.104,0.87-0.141
	c0.164-0.021,0.312,0.093,0.339,0.256c0.41,2.487,2.325,3.867,3.699,5.603c0.633,0.8,1.23,1.64,1.743,2.52
	c0.154,0.263,0.133,0.628,0.208,0.985c0.034,0.162,0.138,0.162,0.2,0.009c0.04-0.098,0.081-0.202,0.127-0.314
	c0.062-0.154,0.163-0.154,0.226-0.001c0.2,0.486,0.38,0.926,0.557,1.357c0.063,0.153,0.168,0.262,0.236,0.243
	s0.097-0.166,0.067-0.328c-0.114-0.606-0.227-1.213-0.341-1.819c-0.03-0.163-0.001-0.322,0.066-0.354s0.188,0.058,0.269,0.202
	c0.304,0.534,0.617,1.085,1.004,1.765c0.082,0.144,0.157,0.127,0.148-0.038c-0.049-0.96-0.555-1.603-0.985-2.371
	c-0.081-0.145-0.023-0.199,0.122-0.118c0.376,0.209,0.698,0.388,1.009,0.56c0.145,0.08,0.283,0.124,0.309,0.097
	s-0.04-0.151-0.137-0.285c-0.219-0.302-0.425-0.628-0.721-0.789c-2.341-1.276-3.175-3.74-4.609-5.728
	c-0.09-0.125-0.165-0.394-0.098-0.479c0.427-0.543,0.885-1.061,1.408-1.666c0.108-0.125,0.257-0.108,0.331,0.04
	c0.439,0.88,0.771,1.647,1.227,2.33c0.299,0.449,0.78,0.917,1.274,1.07c1.718,0.532,3.482,0.914,5.217,1.395
	c0.286,0.079,0.545,0.34,0.76,0.57c0.25,0.269,0.469,0.568,0.691,0.863c0.1,0.132,0.229,0.212,0.287,0.179s0.04-0.176-0.04-0.321
	c-0.148-0.268-0.297-0.535-0.445-0.803c-0.08-0.145-0.119-0.31-0.086-0.369s0.178-0.046,0.325,0.031
	c0.554,0.288,1.108,0.576,1.661,0.864c0.147,0.076,0.293,0.112,0.327,0.081s-0.038-0.147-0.161-0.258
	c-0.45-0.405-0.913-0.822-1.472-1.324c-0.123-0.111-0.095-0.161,0.063-0.112c0.767,0.238,1.41,0.437,2.035,0.631
	c0.158,0.049,0.315,0.031,0.35-0.04s-0.059-0.185-0.21-0.255c-0.728-0.336-1.464-0.676-2.273-1.05
	c-0.15-0.069-0.145-0.167,0.012-0.217c0.348-0.111,0.665-0.212,0.975-0.311c0.158-0.05,0.278-0.152,0.267-0.228
	s-0.152-0.123-0.318-0.111c-0.222,0.016-0.444,0.031-0.654,0.09c-1.106,0.31-2.141,0.133-3.183-0.304
	c-0.843-0.354-1.725-0.621-2.602-0.885c-0.499-0.15-0.778-0.404-0.719-0.948c0.006-0.058-0.009-0.118-0.011-0.178
	c-0.027-1.221-0.271-2.49-0.018-3.651c0.249-1.146,0.98-2.194,1.543-3.262c0.157-0.299,0.422-0.662,0.713-0.75
	c3.805-1.158,6.398-3.983,9.134-6.601c1.218-1.166,2.667-1.526,4.276-1.495c0.109,0.002,0.249,0.05,0.321,0.127
	c0.433,0.462,0.895,0.588,1.386,0.544c0.165-0.015,0.309,0.038,0.369,0.118c0.033,0.044,0.077,0.085,0.135,0.119
	c2.31,1.379,4.621,2.758,6.932,4.136c0.049,0.029,0.096,0.047,0.143,0.057c0.083,0.017,0.171,0.006,0.193,0.012
	s0.046-0.002,0.052-0.018s0.143-0.092,0.219-0.239c0.011-0.021,0.02-0.042,0.027-0.064c0.055-0.156,0.016-0.335,0.023-0.387
	c0.004-0.032,0.007-0.064,0.006-0.096c0-0.017-0.003-0.034-0.006-0.052c-0.005-0.028,0.005-0.074,0.022-0.1
	c0.009-0.014,0.018-0.029,0.027-0.049c0.372-0.842-0.368-1.234-0.248-1.012c0.02,0.038,0.015,0.091-0.008,0.155
	c-0.029,0.083-0.079,0.131-0.09,0.113c-0.006-0.01-0.014-0.02-0.025-0.028c-0.037-0.026-0.074-0.051-0.111-0.076
	c-0.061-0.041-0.128-0.214-0.215-0.355c-0.125-0.201-0.297-0.256-0.234-0.139c0.009,0.016,0.012,0.036,0.012,0.058
	c-0.001,0.033-0.091-0.01-0.199-0.088c-0.108-0.078-0.229-0.26-0.324-0.377c-0.104-0.128-0.212-0.153-0.165-0.054
	c0.008,0.017,0.011,0.038,0.009,0.061c-0.003,0.034-0.077,0.025-0.156-0.019c-0.08-0.043-0.174-0.212-0.275-0.344
	c-0.118-0.154-0.25-0.189-0.193-0.084c0.014,0.027,0.014,0.062,0.005,0.103c-0.013,0.057-0.062,0.089-0.095,0.074
	s-0.027-0.159-0.044-0.323c-0.048-0.449-0.433-0.627-0.343-0.461c0.031,0.058,0.003,0.153-0.055,0.262
	c-0.072,0.135-0.164,0.225-0.182,0.216s0.016-0.145,0.018-0.311c0.008-0.494-0.4-0.717-0.316-0.54
	c0.013,0.028,0.011,0.065-0.001,0.107c-0.017,0.058-0.033-0.039-0.089-0.195c-0.111-0.31-0.373-0.418-0.297-0.277
	c0.049,0.09-0.046,0.272-0.175,0.456c-0.095,0.136-0.199,0.23-0.218,0.22s0.023-0.14,0.048-0.304
	c0.098-0.625-0.443-0.896-0.338-0.703c0.041,0.076-0.019,0.217-0.117,0.369c-0.089,0.14-0.185,0.172-0.211,0.086
	c-0.025-0.086-0.017-0.285-0.029-0.45c-0.032-0.442-0.4-0.634-0.32-0.465c0.016,0.034,0.012,0.079-0.005,0.131
	c-0.024,0.07-0.148,0.022-0.264-0.096c-0.139-0.142-0.28-0.282-0.399-0.433c-0.103-0.13-0.043-0.2,0.112-0.14
	c0.4,0.154,0.8,0.308,1.199,0.463c0.155,0.06,0.254,0.154,0.208,0.2c-0.033,0.034-0.067,0.055-0.1,0.057
	c-0.151,0.008,0.047,0.161,0.342,0.12c0.164-0.022,0.357-0.066,0.449-0.03s0.132,0.13,0.072,0.199
	c-0.046,0.053-0.092,0.085-0.136,0.085c-0.175,0,0.107,0.219,0.483,0.111c0.159-0.046,0.31-0.114,0.363-0.094
	s0.048,0.145-0.034,0.265c-0.066,0.096-0.133,0.161-0.196,0.161c-0.16,0,0.06,0.179,0.386,0.129
	c0.164-0.025,0.256-0.058,0.214-0.015c-0.031,0.031-0.063,0.05-0.094,0.052c-0.195,0.01,0.189,0.26,0.616,0.026
	c0.145-0.079,0.252-0.176,0.271-0.168s-0.014,0.129-0.099,0.258c-0.069,0.104-0.14,0.175-0.206,0.175
	c-0.209,0.001,0.232,0.309,0.708,0.004c0.14-0.089,0.248-0.186,0.275-0.176s0.008,0.101-0.061,0.189
	c-0.054,0.069-0.109,0.113-0.16,0.113c-0.188,0.001,0.149,0.252,0.565,0.084c0.154-0.062,0.279-0.146,0.31-0.134
	s0.015,0.128-0.059,0.246c-0.059,0.095-0.121,0.159-0.182,0.162c-0.189,0.01,0.166,0.247,0.577,0.05
	c0.149-0.072,0.295-0.145,0.357-0.112s0.066,0.165-0.014,0.281c-0.065,0.093-0.131,0.156-0.192,0.156
	c-0.193,0.001,0.168,0.264,0.6,0.065c0.15-0.069,0.278-0.15,0.315-0.131s0.016,0.16-0.071,0.301
	c-0.075,0.122-0.154,0.208-0.227,0.208c-0.207,0.001,0.223,0.302,0.694,0.012c0.141-0.087,0.271-0.171,0.322-0.144
	s0.161-0.068,0.224-0.221c0.588-1.427-0.317-3.348-1.44-4.267C144.819,54.343,143.556,53.507,142.316,52.646z"/>
</g>
</svg>
