<?xml version="1.0" encoding="iso-8859-1"?>
<!-- Generator: Adobe Illustrator 17.1.0, SVG Export Plug-In . SVG Version: 6.00 Build 0)  -->
<!DOCTYPE svg PUBLIC "-//W3C//DTD SVG 1.1//EN" "http://www.w3.org/Graphics/SVG/1.1/DTD/svg11.dtd">
<svg version="1.1" id="Capa_1" xmlns="http://www.w3.org/2000/svg" xmlns:xlink="http://www.w3.org/1999/xlink" x="0px" y="0px"
	 viewBox="0 0 150 150" style="enable-background:new 0 0 150 150;" xml:space="preserve">
<g>
<path style="fill:#1D1D1B;" d="M137.965,78.303c-1.769,0.25-3.529,0.57-5.288,0.886c-0.883,0.158-1.751,0.393-2.634,0.556
	c-1.043,0.192-2.097,0.325-3.139,0.518c-1.014,0.188-2.018,0.423-3.029,0.63c-0.587,0.12-1.213,0.137-1.758,0.357
	c-0.821,0.332-1.636,0.183-2.462,0.191c-0.725,0.007-1.459,0.047-2.172,0.169c-0.906,0.155-1.861-0.301-2.727,0.24
	c-0.014,0.009-0.051-0.006-0.07-0.02c-0.542-0.388-1.076-0.229-1.631-0.014c-0.188,0.073-0.433,0.011-0.651-0.006
	c-0.113-0.009-0.226-0.019-0.338-0.03c-0.165-0.016-0.332-0.037-0.373-0.044c-0.024-0.004-0.049-0.006-0.075-0.007
	c-0.058-0.003-0.115-0.006-0.173-0.009c-0.102-0.01-0.204-0.02-0.307-0.029c-0.212-0.018-0.428-0.004-0.638-0.033
	c-0.372-0.05-0.739-0.139-1.111-0.18c-0.316-0.035-0.72,0.094-0.94-0.059c-0.526-0.366-1.028-0.2-1.57-0.171
	c-0.446,0.024-0.958-0.026-1.338-0.233c-0.539-0.294-1.007-0.546-1.654-0.349c-0.508,0.155-1.027,0.159-1.336-0.468
	c-0.084-0.171-0.402-0.275-0.631-0.32c-0.719-0.142-1.595,0.143-2.008-0.792c-0.017-0.038-0.194,0.013-0.286-0.013
	c-0.888-0.248-1.897-0.213-2.443-1.211c-0.165-0.302-0.268-0.094-0.97-0.101c-0.64-0.007-1.456-0.224-1.864-0.659
	c-0.403-0.43-0.724-0.731-1.302-0.797c-0.443-0.051-0.897-0.124-1.308-0.286c-0.353-0.139-0.827-0.35-0.941-0.646
	c-0.342-0.889-1.116-0.916-1.823-1.137c-0.38-0.119-0.945-0.204-1.072-0.472c-0.328-0.69-0.837-0.988-1.63-1.071
	c-0.165-0.017-0.336-0.151-0.415-0.297c-0.474-0.875-1.424-0.28-1.615-0.602c-0.458-0.771-1.243-1.049-1.883-0.941
	c-0.97,0.163-1.491-0.388-2.102-0.83c-0.454-0.328-0.852-0.637-1.462-0.604c-0.231,0.013-0.524-0.19-0.705-0.375
	c-0.446-0.458-0.915-0.723-1.589-0.584c-0.264,0.054-0.733,0.027-0.822-0.128c-0.55-0.962-1.423-0.786-2.278-0.781
	c-0.279,0.002-0.719-0.065-0.811-0.243c-0.468-0.908-1.242-0.748-2.013-0.71c-0.233,0.011-0.635-0.014-0.68-0.13
	c-0.241-0.624-0.654-0.766-1.11-0.792c-0.165-0.009-0.349-0.014-0.411-0.022c-0.037-0.005-0.074-0.009-0.112-0.011
	c-0.268-0.017-0.544-0.039-0.826-0.064c-0.165-0.015-0.358-0.149-0.466-0.275c-0.402-0.47-0.941-0.335-1.483-0.31
	c-0.293,0.013-0.66-0.027-0.877-0.194c-0.544-0.418-1.108-0.475-1.757-0.395c-0.311,0.039-0.76,0.001-0.947-0.193
	c-0.521-0.544-1.137-0.533-1.737-0.391c-0.695,0.164-1.341,0.408-1.87-0.318c-0.05-0.068-0.231-0.047-0.352-0.055
	c-0.921-0.059-1.915,0.689-2.769-0.273c-0.089-0.1-0.438-0.016-0.647,0.048c-0.331,0.101-0.64,0.276-0.97,0.382
	c-0.171,0.055-0.456,0.11-0.539,0.023c-0.655-0.691-1.218-0.143-1.821,0.075c-0.279,0.101-0.66,0.237-0.878,0.127
	c-0.696-0.352-1.274-0.244-1.885,0.175c-0.064,0.044-0.14,0.09-0.22,0.132c-0.125,0.066-0.283,0.116-0.345,0.132
	s-0.154,0.035-0.204,0.03c-0.032-0.003-0.062-0.01-0.088-0.023c-0.673-0.315-1.198-0.087-1.758,0.234
	c-0.201,0.115-0.455,0.151-0.69,0.19c-0.514,0.084-1.033,0.145-1.549,0.219c-0.346,0.05-0.694,0.171-1.034,0.148
	c-0.499-0.033-0.95,0.025-1.403,0.298c-0.142,0.086-0.38,0.176-0.546,0.184c-0.23,0.011-0.46,0.021-0.691,0.032
	c-0.166,0.008-0.417-0.037-0.565-0.091c-0.089-0.032-0.179-0.062-0.27-0.088c-0.21-0.06-0.474-0.121-0.67,0.019
	c-0.135,0.096-0.313,0.243-0.479,0.251c-0.21,0.01-0.42,0.019-0.63,0.029c-0.166,0.008-0.422-0.045-0.584-0.08
	c-0.344-0.073-0.687-0.01-1.068,0.074c-0.961,0.21-1.979-0.268-2.961,0.102c-0.035,0.013-0.1-0.02-0.138-0.049
	c-0.543-0.419-1.109-0.366-1.665-0.178c-0.157,0.053-0.368,0.002-0.495-0.105c-0.471-0.397-1.006-0.428-1.499-0.061
	c-0.133,0.099-0.245,0.066-0.295-0.092c-0.235-0.736-0.804-0.901-1.578-0.766c-0.161,0.028-0.362-0.207-0.553-0.303
	c-0.335-0.167-0.672-0.331-1.017-0.475c-0.151-0.064-0.349-0.037-0.481-0.121c-0.665-0.426-1.302-0.895-1.976-1.304
	c-0.24-0.146-0.569-0.138-0.836-0.25c-0.786-0.329-1.557-0.697-2.344-1.024c-0.595-0.247-1.21-0.449-1.81-0.685
	c-0.31-0.122-0.596-0.312-0.912-0.406c-0.834-0.247-1.68-0.458-2.52-0.686c-0.046-0.013-0.082-0.06-0.128-0.077
	c-0.375-0.14-0.751-0.277-1.127-0.413c-0.346-0.125-0.694-0.242-1.038-0.372c-0.204-0.077-0.394-0.206-0.603-0.249
	c-0.833-0.174-1.718-0.206-2.498-0.51c-1.416-0.552-2.719-0.255-4.077,0.165c-0.706,0.218-1.171,0.651-1.489,1.239
	c-0.214,0.397-0.543,0.678-0.408,1.36c0.173,0.872,0.071,1.081,0.998,1.156c1.836,0.148,3.689,0.23,5.498,0.55
	c3.984,0.705,7.513,2.512,10.895,4.684c3.552,2.28,7.532,3.479,11.629,4.364c2.086,0.45,4.17,0.956,6.198,1.614
	c0.833,0.27,1.588,0.777,2.311,1.226c0.141,0.087,0.281,0.29,0.319,0.451c0.146,0.618,0.36,1.204,0.642,1.752
	c0.076,0.147,0.146,0.281,0.153,0.304c0.004,0.013,0.008,0.027,0.013,0.041c0.338,0.993,0.949,1.758,1.682,2.402
	c0.124,0.109,0.305,0.305,0.406,0.436c0.055,0.071,0.111,0.14,0.169,0.207c0.108,0.126,0.225,0.356,0.263,0.517
	c0.128,0.544,0.334,1.034,0.649,1.279c0.131,0.102,0.319,0.26,0.388,0.41c0.095,0.207,0.193,0.413,0.298,0.615
	c0.289,0.554,0.298,1.068-0.096,1.576c-0.387,0.497-0.728,1.034-1.153,1.495c-0.219,0.237-0.648,0.55-0.86,0.476
	c-0.657-0.23-1.399-0.448-1.612-1.24c-0.043-0.16-0.092-0.167-0.133-0.007c-0.072,0.278-0.122,0.549-0.14,0.821
	c-0.011,0.162,0.039,0.387,0.149,0.489c0.292,0.269,0.615,0.506,1.034,0.828c0.131,0.101,0.109,0.22-0.051,0.261
	c-0.336,0.086-0.572,0.136-0.785,0.234c-0.204,0.094-0.389,0.23-0.62,0.392c-0.136,0.095-0.114,0.156,0.051,0.139
	c0.367-0.038,0.68-0.07,0.978-0.101c0.165-0.017,0.303,0.007,0.308,0.053s-0.095,0.169-0.224,0.274
	c-0.142,0.115-0.284,0.231-0.425,0.346c-0.129,0.105-0.097,0.191,0.064,0.156c0.2-0.044,0.379-0.125,0.56-0.199
	c0.315-0.129,0.641-0.356,0.954-0.343c0.574,0.024,1.004-0.098,1.392-0.545c0.147-0.169,0.37-0.272,0.591-0.376
	c0.15-0.071,0.293-0.098,0.325-0.052s-0.016,0.197-0.105,0.337c-0.111,0.175-0.222,0.349-0.333,0.524
	c-0.089,0.14-0.139,0.284-0.113,0.322s0.174,0.02,0.329-0.039c0.205-0.078,0.412-0.158,0.626-0.24
	c0.155-0.059,0.245,0.023,0.203,0.183c-0.008,0.031-0.017,0.062-0.025,0.095c-0.043,0.16,0.052,0.25,0.211,0.206
	c0.533-0.15,1.026-0.26,1.464-0.481c0.413-0.208,0.7-0.653,1.098-0.907c0.797-0.508,1.637-0.948,2.451-1.431
	c0.95-0.564,2.06-0.908,2.663-1.963c0.086-0.15,0.368-0.276,0.553-0.267c1.783,0.078,3.44-0.473,5.103-0.992
	c0.222-0.069,0.421-0.233,0.614-0.374c0.044-0.032,0.086-0.066,0.129-0.1c0.07-0.057,0.043,0.002-0.053,0.138
	c-0.705,1.003-1.531,2.76-1.042,5.124C60.583,91.083,60,91,59.917,92.417c-0.083,1.417-0.252,3.042-0.272,3.667
	c-0.005,0.15,0.019,0.452,0.018,0.822c0,0.166-0.06,0.423-0.13,0.573c-0.189,0.404-0.403,0.794-0.65,1.157
	c-0.093,0.137-0.246,0.167-0.335,0.073c-0.089-0.094-0.278-0.103-0.41-0.004c-0.338,0.255-0.597,0.586-0.775,0.981
	c-0.068,0.151-0.244,0.281-0.41,0.286c-2.578,0.071-2.595,0.628-3.077,1.07c-0.273,0.25,0.537,0.084,1.361,0
	c0.165-0.017,0.184,0.043,0.042,0.128l-0.909,0.544c-0.149,0.089-0.129,0.28-0.023,0.371c0.066,0.046,0.127,0.061,0.197,0.041
	c0.028-0.008,0.055-0.016,0.083-0.023c0.046-0.013,0.217-0.031,0.383-0.04c0.114-0.006,0.229-0.013,0.345-0.019
	c0.165-0.009,0.245,0.108,0.198,0.266c-0.217,0.731-0.052,1.311,0.162,0.869c0.158-0.326,0.657-0.691,1.113-0.972
	c0.141-0.087,0.389-0.13,0.554-0.111c1.047,0.124,2.046-0.049,2.791-0.718c1.259-1.133,2.221-2.607,3.241-3.986
	c0.214-0.289,0.148-0.803,0.167-1.216c0.025-0.544-0.117-1.127,0.031-1.629c0.317-1.074,0.712-2.136,1.189-3.148
	c0.856-1.815,1.409-3.673,1.275-5.704c-0.015-0.231,0.132-0.535,0.303-0.706c0.579-0.58,1.223-1.096,1.801-1.678
	c0.318-0.319,0.578-0.44,1.04-0.263c0.595,0.227,1.239,0.322,1.859,0.487c0.131,0.035,0.298,0.1,0.359,0.203
	c0.404,0.688,0.915,1.349,1.146,2.095c0.062,0.201,0.13,0.396,0.202,0.587c0.059,0.155,0.092,0.398,0.143,0.529
	c0.028,0.072,0.073,0.143,0.139,0.21c0.011,0.012,0.023,0.023,0.035,0.034c0.019,0.019,0.093,0.155,0.172,0.301
	c0.874,1.63,2.202,2.834,4.014,3.643c1.211,0.54,2.2,1.307,2.421,2.767c0.188,1.237,0.951,2.378,0.508,3.727
	c-0.167,0.508-0.634,1.018-1.169,1.031c-0.157,0.004-0.347,0.039-0.503,0.107c-0.152,0.066-0.372,0.205-0.527,0.265
	c-1.131,0.439-1.601,1.441-1.047,1.135c0.109-0.06,0.26-0.104,0.432-0.136c0.163-0.03,0.279-0.008,0.258,0.034
	s-0.147,0.094-0.271,0.143c-0.07,0.027-0.141,0.063-0.216,0.11c-0.938,0.59-0.719,1.495-0.406,1.113
	c0.116-0.141,0.415-0.294,0.747-0.432c0.153-0.063,0.367-0.093,0.473-0.063c0.064,0.018,0.127,0.04,0.187,0.065
	c0.047,0.02,0.094,0.035,0.14,0.049c0.079,0.024,0.095,0.169,0.055,0.33c-0.168,0.675-0.007,1.175,0.196,0.755
	c0.109-0.226,0.383-0.469,0.693-0.691c0.135-0.097,0.382-0.166,0.547-0.175c1.002-0.054,1.965-0.451,2.932-0.729
	c0.634-0.182,1.361-2.099,1.287-2.783c-0.093-0.862-0.22-1.744-0.129-2.596c0.158-1.482-0.247-2.609-1.474-3.515
	c-0.912-0.674-1.63-1.585-1.823-2.75c-0.24-1.452-1.078-2.548-2.12-3.439c-0.715-0.611-0.601-1.226-0.47-1.932
	c0.045-0.243,0.185-0.469,0.221-0.712c0.077-0.512,0.374-0.595,0.802-0.466c0.547,0.166,1.086,0.358,1.637,0.506
	c1.205,0.324,2.418,0.62,3.624,0.942c1.784,0.477,3.551,1.021,5.349,1.434c1.672,0.384,3.373,0.647,5.066,0.937
	c2.579,0.443,5.149,1.026,7.748,1.24c0.928,0.077,1.867,0.045,2.808-0.029c0.165-0.013,0.43,0.003,0.594,0.031
	c2.311,0.395,4.759-0.135,7.045-0.831c0.158-0.048,0.419-0.109,0.583-0.134c0.193-0.03,0.387-0.061,0.58-0.093
	c0.087-0.015,0.175-0.029,0.262-0.044c0.145-0.025,0.315-0.037,0.38-0.038c0.038,0,0.077-0.003,0.118-0.009
	c1.322-0.199,2.63-0.459,3.924-0.776c0.161-0.039,0.424-0.089,0.588-0.111c3.476-0.469,6.889-1.361,10.157-2.675
	c0.07-0.028,0.123-0.07,0.163-0.119c0.07-0.088,0.119-0.203,0.167-0.226s0.133-0.058,0.19-0.077s0.223-0.098,0.371-0.173
	c0.834-0.425,1.688-0.799,2.555-1.139c0.368-0.116,0.741-0.217,1.122-0.297c0.093-0.02,0.173-0.051,0.241-0.092
	c0.123-0.075,0.315-0.221,0.473-0.274c2.112-0.701,4.286-1.212,6.502-1.527c0.023-0.003,0.043-0.008,0.063-0.015
	c0.034-0.011,0.193-0.04,0.356-0.071c0.472-0.091,0.929-0.254,1.389-0.276c0.848-0.041,1.695-0.121,2.542-0.19
	c0.165-0.013,0.3-0.081,0.3-0.151s-0.133-0.131-0.299-0.136c-1.126-0.036-2.254-0.114-3.375-0.06
	C140.82,77.941,139.387,78.102,137.965,78.303z M50.396,83.145c-0.495,0.434-0.945,0.915-1.352,1.443
	c-0.101,0.131-0.177,0.105-0.174-0.061c0.017-0.747,0.057-1.538,0.1-2.356c0.009-0.165,0.138-0.243,0.288-0.173
	c0.383,0.179,0.775,0.362,1.179,0.55c0.15,0.07,0.253,0.189,0.229,0.266C50.643,82.889,50.521,83.035,50.396,83.145z"/>
</g>
</svg>
