<?xml version="1.0" encoding="iso-8859-1"?>
<!-- Generator: Adobe Illustrator 17.1.0, SVG Export Plug-In . SVG Version: 6.00 Build 0)  -->
<!DOCTYPE svg PUBLIC "-//W3C//DTD SVG 1.1//EN" "http://www.w3.org/Graphics/SVG/1.1/DTD/svg11.dtd">
<svg version="1.1" id="Capa_1" xmlns="http://www.w3.org/2000/svg" xmlns:xlink="http://www.w3.org/1999/xlink" x="0px" y="0px"
	 viewBox="0 0 150 150" style="enable-background:new 0 0 150 150;" xml:space="preserve">
<g>
<path style="fill:#1D1D1B;" d="M2.706,55.662c0.38,0.322,0.109,0.771,0.22,1.148c0.047,0.16,0.041,0.321,0.269,0.305
	c0.022-0.002,0.049,0.023,0.07,0.039c0.299,0.242,0.392,0.223,0.527-0.109c0.129,0.163,0.063,0.492,0.395,0.482
	c0.232-0.007,0.199-0.182,0.225-0.328c0.04,0.008,0.081,0.014,0.122,0.02c0.053,0.135,0.104,0.27,0.177,0.391
	c0.044,0.074,0.177,0.146,0.255,0.133c0.079-0.014,0.176-0.123,0.202-0.209c0.026-0.088,0.042-0.178,0.056-0.278
	c0.086-0.001,0.172-0.002,0.258-0.004c0.024,0.038,0.05,0.073,0.078,0.104c0.09,0.1,0.224,0.16,0.338,0.237
	c0.056-0.098,0.116-0.193,0.165-0.294c0.008-0.016,0.013-0.034,0.018-0.055l0.176,0c0.188,0.226,0.36,0.432,0.53,0.637
	c0.199-0.164,0.217-0.179,0.303-0.639l0.228-0.001c0.205,0.209,0.361,0.522,0.769,0.31c0.025-0.183,0.052-0.376,0.08-0.582
	c0.105,0.092,0.2,0.164,0.279,0.251c0.037,0.041,0.073,0.121,0.057,0.165c-0.067,0.186-0.153,0.364-0.235,0.553
	c0,0-0.024,0.007-0.033-0.001c-0.262-0.251-0.36-0.229-0.521,0.127c-0.049,0.108-0.083,0.223-0.128,0.344
	c-0.08-0.072-0.148-0.133-0.277-0.249C7.175,58.46,7.055,58.725,6.931,59c-0.461-0.412-0.409,0.205-0.596,0.356
	c-0.312-0.255-0.46-0.174-0.601,0.307c-0.329-0.032-0.352-0.019-0.482,0.278c-0.227-0.015-0.521,0.305-0.567,0.646
	c-0.029,0.215-0.06,0.384-0.217,0.583c-0.155,0.196-0.141,0.574-0.107,0.861c0.072,0.59,0.408,0.948,0.994,1.18
	c1.299,0.514,2.504,0.243,3.701-0.282c0.319-0.14,0.603-0.358,0.917-0.509c0.679-0.325,1.355-0.665,2.057-0.934
	c0.841-0.322,1.698-0.608,2.566-0.848c0.555-0.153,1.138-0.225,1.714-0.276c0.828-0.073,1.664-0.067,2.491-0.151
	c0.22-0.022,0.429-0.136,0.642-0.235c0.045-0.015,0.09-0.032,0.134-0.05c0.044-0.018,0.087-0.037,0.13-0.057
	c0.218-0.071,0.448-0.134,0.674-0.14c0.601-0.016,1.203-0.011,1.804,0.013c0.199,0.008,0.417,0.059,0.589,0.155
	c0.528,0.297,1.048,0.613,1.552,0.949c0.197,0.132,0.346,0.337,0.514,0.511c0.362,0.373,0.743,0.731,1.078,1.127
	c0.498,0.586,0.964,1.199,1.441,1.802c0.028,0.035,0.056,0.069,0.083,0.104c0.42,0.885,0.923,1.731,1.504,2.523
	c0.024,0.239,0.012,0.485,0.016,0.721c0.013,0.937,0.209,1.835,0.433,2.732c0.062,0.248,0.139,0.497,0.246,0.729
	c0.241,0.52,0.06,1.027-0.005,1.541c-0.087,0.686-0.212,1.366-0.11,2.071c0.048,0.33-0.079,0.683-0.109,1.027
	c-0.026,0.301-0.022,0.604-0.04,0.906c-0.016,0.262-0.048,0.523-0.065,0.785c-0.046,0.711-0.088,1.422-0.132,2.13
	c-0.692,0.322-1.17,0.912-1.751,1.374c-0.546,0.434-1.127,0.826-1.716,1.199c-0.359,0.227-0.793,0.341-1.138,0.583
	c-0.506,0.356-1.092,0.491-1.649,0.705c-0.566,0.217-1.144,0.403-1.727,0.569c-0.285,0.081-0.598,0.059-0.885,0.133
	c-0.364,0.093-0.718,0.227-1.07,0.362c-0.477,0.182-0.97,0.346-1.322,0.745c-0.181,0.205-0.366,0.415-0.5,0.65
	c-0.24,0.42-0.391,0.885-0.308,1.369c0.072,0.419,0.022,0.463,0.363,0.444c0.295-0.479,0.532-0.93,0.833-1.333
	c0.217-0.29,0.57-0.37,0.931-0.311c0.466,0.075,0.891-0.021,1.298-0.251c0.366-0.206,0.742-0.394,1.113-0.59
	c0.018,0.027,0.036,0.054,0.054,0.081c-0.27,0.192-0.524,0.412-0.812,0.569c-0.743,0.407-1.511,0.769-2.248,1.186
	c-0.221,0.125-0.411,0.326-0.475,0.629c-0.038,0.181-0.215,0.334-0.337,0.495c-0.31,0.406-0.566,0.839-0.662,1.348
	c-0.052,0.278-0.105,0.559-0.113,0.84c-0.01,0.348,0.153,0.541,0.538,0.691c0.114-0.301,0.238-0.598,0.339-0.903
	c0.136-0.414,0.32-0.74,0.779-0.914c0.54-0.204,0.993-0.567,1.359-1.035c0.355-0.454,0.747-0.872,1.336-1.053
	c0.183-0.056,0.327-0.238,0.49-0.36c0.263-0.198,0.527-0.394,0.791-0.592c0.018,0.02,0.035,0.041,0.053,0.061
	c-0.369,0.447-0.737,0.895-1.108,1.342c-0.46,0.555-0.921,1.12-1.16,1.804c-0.123,0.351-0.172,0.768-0.108,1.13
	c0.045,0.254,0.311,0.493,0.527,0.684c0.108,0.096,0.251-0.026,0.274-0.197c0.026-0.193,0.075-0.385,0.087-0.578
	c0.031-0.5,0.304-0.809,0.732-1.031c0.154-0.08,0.308-0.21,0.397-0.357c0.163-0.271,0.3-0.564,0.406-0.863
	c0.11-0.31,0.312-0.525,0.563-0.716c0.11-0.084,0.248-0.18,0.287-0.298c0.092-0.285,0.33-0.414,0.526-0.593
	c0.459-0.417,0.955-0.805,1.265-1.356c0.111-0.198,0.312-0.205,0.465-0.31c0.378-0.26,0.761-0.515,1.119-0.801
	c0.653-0.521,1.437-0.783,2.174-1.14c0.445-0.215,0.902-0.406,1.337-0.64c0.346-0.186,0.736-0.362,0.977-0.651
	c0.288-0.345,0.446-0.802,0.645-1.217c0.175-0.366,0.343-0.737,0.491-1.115c0.331-0.842,0.634-1.693,0.796-2.589
	c0.062-0.346,0.338-0.502,0.661-0.601c0.017,0.007,0.035,0.014,0.052,0.021c0.067,0.157,0.154,0.238,0.362,0.214
	c0.172-0.02,0.385,0.048,0.532,0.148c0.321,0.218,0.684,0.208,1.036,0.282c0.348,0.073,0.675,0.247,1.023,0.324
	c0.526,0.116,1.06,0.21,1.595,0.27c0.433,0.049,0.878,0.007,1.309,0.064c0.194,0.025,0.411,0.154,0.545,0.302
	c0.331,0.366,0.661,0.745,0.915,1.165c0.487,0.801,0.925,1.632,1.375,2.455c0.18,0.33,0.015,0.654-0.049,0.979
	c-0.073,0.367-0.135,0.736-0.199,1.105c-0.113,0.643-0.202,1.292-0.342,1.929c-0.183,0.83-0.407,1.651-0.615,2.476
	c-0.011,0.043-0.042,0.081-0.064,0.122c-0.202,0.376-0.397,0.756-0.612,1.124c-0.069,0.119-0.177,0.233-0.294,0.304
	c-0.512,0.309-1.009,0.669-1.562,0.875c-0.332,0.124-0.418,0.483-0.783,0.552c-0.543,0.102-0.977-0.084-1.22-0.501
	c-0.117-0.202-0.294-0.241-0.44-0.193c-0.085,0.028-0.148,0.259-0.144,0.397c0.031,0.89,0.625,1.356,1.371,1.605
	c0.529,0.176,1.096,0.045,1.623-0.152c0.603-0.225,1.055-0.651,1.482-1.114c0.104-0.113,0.24-0.196,0.361-0.293
	c0.024,0.012,0.048,0.024,0.071,0.036c-0.042,0.162-0.06,0.336-0.13,0.485c-0.276,0.594-0.566,1.181-0.856,1.768
	c-0.036,0.073-0.098,0.139-0.162,0.191c-0.393,0.317-0.79,0.627-1.183,0.945c-0.048,0.039-0.078,0.104-0.11,0.161
	c-0.253,0.453-0.583,0.822-1.14,0.828c-0.307,0.004-0.614-0.083-0.921-0.129c-0.002-0.026-0.004-0.052-0.006-0.078
	c-0.071,0.102-0.143,0.203-0.247,0.352c0.172,0.169,0.343,0.406,0.572,0.548c0.408,0.252,0.861,0.343,1.357,0.3
	c0.867-0.075,1.477-0.554,1.99-1.189c0.348-0.43,0.651-0.896,0.974-1.346c0.037,0.013,0.074,0.025,0.111,0.038
	c-0.06,0.341-0.104,0.686-0.183,1.022c-0.067,0.283-0.306,0.445-0.553,0.529c-0.285,0.097-0.349,0.335-0.473,0.552
	c0.462,0.214,0.92,0.292,1.353,0.001c0.368-0.247,0.729-0.531,0.883-0.962c0.228-0.639,0.439-1.287,0.604-1.945
	c0.208-0.825,0.364-1.662,0.539-2.495c0.197-0.943,0.398-1.885,0.578-2.831c0.048-0.253-0.032-0.536,0.041-0.777
	c0.229-0.756,0.503-1.499,0.76-2.247c0.027,0.002,0.054,0.003,0.082,0.005c0.277,1.166,0.581,2.325,0.823,3.498
	c0.247,1.199,0.437,2.41,0.644,3.617c0.103,0.6,0.172,1.206,0.285,1.803c0.081,0.425-0.148,0.741-0.33,1.065
	c-0.418,0.743-0.702,1.527-0.855,2.366c-0.143,0.782-0.352,1.546-0.708,2.267c-0.139,0.281-0.168,0.614-0.289,0.906
	c-0.286,0.69-0.568,1.385-0.906,2.05c-0.359,0.706-0.78,1.381-1.174,2.069c-0.014,0.024-0.023,0.06-0.044,0.071
	c-0.503,0.247-0.611,0.839-1.026,1.167c-0.409,0.324-0.76,0.741-1.206,0.991c-0.268,0.15-0.678,0.109-1.011,0.063
	c-0.343-0.048-0.666-0.19-0.961,0.113c-0.041,0.042-0.119,0.063-0.182,0.066c-0.875,0.052-1.482,0.516-1.912,1.247
	c-0.137,0.233-0.287,0.463-0.383,0.713c-0.07,0.182-0.121,0.408,0.108,0.553c0.132,0.084,0.227,0.095,0.306-0.085
	c0.061-0.139,0.18-0.253,0.307-0.355c-0.301,0.505-0.375,1.05-0.347,1.611c0.005,0.097,0.119,0.235,0.212,0.266
	c0.075,0.025,0.214-0.063,0.291-0.135c0.201-0.188,0.378-0.402,0.575-0.594c0.381-0.371,0.798-0.302,1.243-0.114
	c0.369,0.156,0.747,0.126,1.114-0.053c0.566-0.276,1.137-0.541,1.708-0.806c0.047-0.022,0.11-0.015,0.165-0.012
	c0.516,0.03,1.011-0.02,1.429-0.409c0.01,0.395-0.044,0.504-0.53,0.696c-0.275,0.109-0.572,0.168-0.839,0.292
	c-0.228,0.106-0.384,0.286-0.294,0.583c0.019,0.061-0.026,0.167-0.076,0.221c-0.345,0.375-0.539,0.827-0.691,1.304
	c-0.117,0.367-0.116,0.734-0.039,1.106c0.026,0.128,0.027,0.271,0.088,0.379c0.066,0.117,0.176,0.254,0.291,0.282
	c0.078,0.019,0.249-0.116,0.29-0.217c0.143-0.358,0.188-0.754,0.516-1.027c0.244-0.203,0.478-0.385,0.821-0.368
	c0.403,0.021,0.719-0.171,0.954-0.48c0.258-0.337,0.531-0.653,0.841-0.933c0.478-0.021,0.944-0.34,1.055-0.826
	c0.004-0.019,0.009-0.039,0.014-0.058c0.049-0.068,0.096-0.137,0.141-0.204c0.271-0.399,0.473-0.853,0.785-1.213
	c0.341-0.393,0.402-0.845,0.48-1.313c0.072-0.433,0.144-0.867,0.246-1.293c0.038-0.158,0.11-0.334,0.359-0.322
	c0.057,0.003,0.169-0.194,0.18-0.305c0.048-0.52,0.028-1.053,0.269-1.536c0.085-0.17,0.228-0.311,0.317-0.48
	c0.15-0.283,0.359-0.568,0.398-0.871c0.087-0.657,0.264-1.272,0.537-1.872c0.255-0.56,0.471-1.136,0.712-1.702
	c0.07-0.163,0.163-0.316,0.252-0.471c0.277-0.485,0.591-0.953,0.821-1.459c0.135-0.297,0.164-0.652,0.196-0.985
	c0.092-0.932,0.143-1.867,0.244-2.798c0.083-0.77,0.2-1.537,0.326-2.301c0.112-0.674,0.251-1.344,0.39-2.013
	c0.145-0.7,0.45-1.331,0.761-1.975c0.56-1.158,1-2.37,1.222-3.65c0.067-0.386,0.159-0.767,0.239-1.151
	c0.206-0.986,0.156-1.971-0.005-2.957c-0.07-0.431-0.12-0.866-0.189-1.374c0.483,0.246,0.901,0.484,1.34,0.675
	c0.355,0.154,0.726,0.302,1.104,0.363c0.58,0.092,1.171,0.121,1.759,0.15c0.532,0.026,1.007-0.217,1.504-0.362
	c0.628-0.183,1.261-0.349,1.896-0.504c0.074-0.018,0.218,0.054,0.257,0.124c0.297,0.537,0.59,1.077,0.857,1.63
	c0.166,0.344,0.255,0.728,0.435,1.064c0.184,0.343,0.45,0.64,0.656,0.972c0.333,0.537,0.647,1.087,0.969,1.631
	c0.014,0.023,0.03,0.051,0.052,0.061c0.599,0.257,0.87,0.871,1.358,1.249c0.234,0.181,0.449,0.388,0.682,0.572
	c0.226,0.179,0.462,0.346,0.696,0.514c0.129,0.092,0.255,0.195,0.398,0.259c0.767,0.344,1.415,0.862,2.057,1.39
	c0.375,0.308,0.778,0.583,1.134,0.911c0.576,0.531,1.136,1.079,1.676,1.645c0.406,0.425,0.777,0.885,1.149,1.341
	c0.342,0.42,0.688,0.841,0.989,1.289c0.39,0.58,0.403,1.248,0.364,1.922c-0.012,0.207,0.006,0.43,0.072,0.625
	c0.227,0.67,0.173,1.35,0.105,2.029c-0.054,0.534-0.175,1.062-0.218,1.596c-0.062,0.786-0.096,1.574-0.107,2.362
	c-0.003,0.177,0.108,0.377,0.22,0.527c0.116,0.154,0.27,0.067,0.396-0.004c0.064,0.372-0.127,1.037-0.405,1.37
	c-0.038,0.046-0.048,0.117-0.068,0.177c-0.078,0.231-0.155,0.462-0.233,0.693c-0.081,0.157-0.163,0.313-0.244,0.47
	c-0.315,0.285-0.446,0.7-0.697,1.03c-0.234,0.308-0.479,0.488-0.891,0.407c-0.481-0.096-0.889,0.163-1.045,0.607
	c-0.019,0.054-0.07,0.118-0.121,0.136c-0.644,0.236-1.087,0.723-1.363,1.299c-0.195,0.408-0.202,0.913-0.25,1.38
	c-0.02,0.196,0.154,0.336,0.353,0.37c0.19,0.032,0.23-0.13,0.298-0.264c0.119-0.232,0.224-0.487,0.4-0.67
	c0.183-0.191,0.442-0.311,0.67-0.459c0.021-0.013,0.057-0.011,0.083-0.005c0.262,0.062,0.523,0.126,0.806,0.195
	c-0.148,0.15-0.296,0.357-0.494,0.487c-0.428,0.28-0.585,0.737-0.825,1.144c-0.338,0.574-0.383,1.173-0.183,1.8
	c0.006,0.018,0.014,0.037,0.013,0.055c-0.013,0.182,0.017,0.367,0.227,0.386c0.248,0.023,0.302-0.194,0.324-0.38
	c0.062-0.538,0.438-0.865,0.798-1.198c0.068-0.063,0.208-0.073,0.313-0.067c0.985,0.059,1.777-0.296,2.297-1.138
	c0.265-0.429,0.636-0.705,1.036-0.972c0.197-0.132,0.365-0.309,0.562-0.44c0.149-0.099,0.326-0.157,0.49-0.234
	c0.023,0.021,0.046,0.042,0.069,0.063c-0.024,0.049-0.044,0.104-0.065,0.159c-0.038,0.036-0.076,0.072-0.116,0.107
	c-0.11,0.097-0.19,0.215-0.245,0.344c-0.296,0.326-0.394,0.728-0.373,1.182c0.005,0.118,0.058,0.234,0.081,0.353
	c0.02,0.103,0.032,0.207,0.04,0.311c0.048,0.627-0.06,1.284,0.23,1.866c0.136,0.273,0.412,0.483,0.648,0.695
	c0.056,0.05,0.228,0.025,0.309-0.026c0.067-0.042,0.121-0.178,0.108-0.262c-0.08-0.515-0.023-1.005,0.235-1.461
	c0.062-0.11,0.141-0.224,0.24-0.296c0.251-0.181,0.481-0.377,0.61-0.665c0.039-0.087,0.074-0.179,0.087-0.272
	c0.028-0.211,0.044-0.424,0.071-0.635c0.416-0.516,0.706-1.14,0.836-1.791c0.008-0.018,0.018-0.036,0.026-0.054
	c0.183-0.408,0.365-0.827,0.465-1.26c0.08-0.345,0.057-0.72,0.04-1.08c-0.011-0.227-0.11-0.448-0.144-0.676
	c-0.058-0.393-0.095-0.79-0.142-1.184c-0.004-0.034-0.012-0.079-0.035-0.098c-0.233-0.196-0.199-0.485-0.209-0.729
	c-0.052-1.284-0.063-2.571-0.113-3.855c-0.017-0.446-0.134-0.888-0.155-1.334c-0.015-0.332,0.047-0.668,0.082-1.001
	c0.075-0.711,0.187-1.42,0.217-2.133c0.013-0.314-0.13-0.636-0.211-0.952c-0.144-0.561-0.294-1.123-0.531-1.653
	c-0.145-0.323-0.339-0.625-0.508-0.937c-0.476-0.876-0.988-1.734-1.417-2.632c-0.514-1.077-0.965-2.184-1.431-3.284
	c-0.587-1.386-0.793-2.875-1.162-4.321c-0.115-0.45-0.309-0.884-0.506-1.307c-0.248-0.533-0.491-1.078-0.818-1.563
	c-0.337-0.498-0.771-0.93-1.166-1.387c-0.227-0.263-0.463-0.519-0.686-0.768c-0.15-0.072-0.315-0.135-0.461-0.227
	c-0.203-0.129-0.391-0.28-0.595-0.429c0.153-0.366,0.307-0.724,0.453-1.086c0.345-0.856,0.508-1.756,0.635-2.665
	c0.027-0.193,0.009-0.412,0.096-0.574c0.113-0.21,0.284-0.411,0.477-0.553c0.582-0.427,1.167-0.858,1.789-1.221
	c9.444-5.526,20.669-10.995,31.84-10.956c6.948,0.024,13.777,2.266,19.793,5.743c6.883,3.978,12.771,9.455,17.85,15.518
	c0.119,0.143,0.231,0.292,0.339,0.444c0.614,0.865,1.23,1.729,1.835,2.601c0.244,0.351,0.383,0.401,0.759,0.202
	c0.178-0.094,0.279-0.455,0.164-0.7c-0.318-0.679-0.645-1.353-0.982-2.023c-0.213-0.424-0.441-0.841-0.677-1.253
	c-0.108-0.188-0.26-0.351-0.378-0.534c-8.52-13.18-23.15-24.321-39.03-26.085c-11.659-1.295-23.403,2.363-35.097,1.43
	c-4.745-0.379-9.403-1.509-14.144-1.936c-5.549-0.5-10.202,0.702-15.333,2.556c-0.88,0.318-1.747,0.675-2.614,1.028
	c-0.214,0.087-0.4,0.249-0.618,0.321c-0.432,0.143-0.871,0.314-1.318,0.351c-0.483,0.04-0.839,0.302-1.222,0.513
	c-0.465,0.256-0.894,0.577-1.334,0.877c-0.061,0.042-0.095,0.125-0.117,0.156c-0.545-0.426-1.097-0.844-1.632-1.283
	c-0.176-0.144-0.324-0.33-0.46-0.515c-0.277-0.376-0.7-0.641-0.81-1.15c-0.039-0.182-0.226-0.34-0.365-0.491
	c-0.372-0.403-0.746-0.804-1.136-1.19c-0.202-0.201-0.439-0.366-0.659-0.549c-0.161-0.134-0.323-0.267-0.48-0.404
	c-0.508-0.444-1.174-0.468-1.776-0.649c-0.665-0.2-1.351-0.33-2.027-0.494c-0.051-0.012-0.12-0.034-0.141-0.073
	c-0.164-0.298-0.434-0.291-0.708-0.246c-0.298,0.049-0.576,0.103-0.848-0.126c-0.112-0.094-0.322-0.081-0.489-0.096
	c-1.108-0.103-2.213-0.048-3.317,0.073c-0.372,0.041-0.746,0.067-1.119,0.103c-0.23,0.023-0.459,0.07-0.689,0.076
	c-0.202,0.005-0.435,0.024-0.603-0.062c-0.412-0.212-0.828-0.08-1.236-0.069c-0.654,0.018-1.309,0.158-1.957,0.125
	c-0.765-0.04-1.482,0.081-2.198,0.311c-1.503,0.483-3.001,0.98-4.514,1.431c-0.789,0.235-1.535,0.544-2.232,0.977
	c-0.319,0.198-0.651,0.386-0.933,0.629c-0.121,0.104-0.131,0.338-0.194,0.512c-0.021,0.059-0.035,0.139-0.079,0.167
	c-0.624,0.403-0.832,1.054-1.013,1.713c-0.061,0.223-0.043,0.469-0.061,0.704C2.707,55.626,2.698,55.655,2.706,55.662z"/>
</g>
</svg>
