<?xml version="1.0" encoding="iso-8859-1"?>
<!-- Generator: Adobe Illustrator 17.1.0, SVG Export Plug-In . SVG Version: 6.00 Build 0)  -->
<!DOCTYPE svg PUBLIC "-//W3C//DTD SVG 1.1//EN" "http://www.w3.org/Graphics/SVG/1.1/DTD/svg11.dtd">
<svg version="1.1" id="Capa_1" xmlns="http://www.w3.org/2000/svg" xmlns:xlink="http://www.w3.org/1999/xlink" x="0px" y="0px"
	 viewBox="0 0 150 150" style="enable-background:new 0 0 150 150;" xml:space="preserve">
<g>
<path style="fill:#1D1D1B;" d="M15.552,44.633c0.055,0.077,0.423,0.022,0.579-0.08c0.429-0.28,0.808-0.636,1.231-0.926
	c0.787-0.54,1.593-1.054,2.389-1.581c0.524-0.346,1.047-0.695,1.619-0.994c0.147-0.077,0.195-0.022,0.103,0.116
	c-0.652,0.986-1.318,1.963-1.929,2.974c-0.142,0.236-0.181,0.534-0.228,0.827c-0.026,0.164,0.076,0.273,0.24,0.252
	c0.261-0.033,0.524-0.064,0.76-0.159c0.288-0.116,0.527-0.361,0.775-0.564c0.942-0.774,1.88-1.552,2.934-2.425
	c0.128-0.106,0.234-0.056,0.199,0.106c-0.106,0.487-0.424,0.858-0.222,1.287c0.071,0.15,0.288,0.179,0.429,0.092
	c1.688-1.042,2.904-2.624,4.326-3.956c0.121-0.113,0.261-0.075,0.31,0.083c0.009,0.03,0.019,0.06,0.028,0.089
	c0.049,0.158,0.216,0.244,0.375,0.198c0.151-0.044,0.297-0.092,0.4-0.188c0.744-0.688,1.463-1.404,2.187-2.113
	c0.118-0.116,0.248-0.185,0.288-0.155c0.04,0.03,0.033,0.183-0.02,0.34c-0.055,0.162-0.107,0.325-0.124,0.492
	c-0.012,0.116,0.008,0.236,0.034,0.356c0.036,0.162,0.196,0.267,0.359,0.237c0.126-0.023,0.246-0.054,0.328-0.127
	c0.581-0.517,1.121-1.08,1.685-1.617c0.271-0.258,0.554-0.503,0.908-0.816c0.124-0.11,0.197-0.067,0.163,0.095
	c-0.079,0.372-0.143,0.652-0.179,0.935c-0.02,0.157,0.003,0.42,0.093,0.466c0.144,0.073,0.407,0.073,0.535-0.017
	c0.295-0.207,0.567-0.463,0.797-0.742c0.341-0.412,0.655-0.847,0.974-1.278c0.099-0.133,0.212-0.221,0.252-0.198
	c0.04,0.024,0.039,0.172-0.008,0.33c-0.062,0.211-0.124,0.422-0.134,0.635c-0.01,0.211,0.07,0.518,0.221,0.62
	c0.142,0.097,0.445,0.027,0.645-0.051c0.185-0.071,0.356-0.178,0.531-0.289c0.14-0.088,0.29-0.028,0.346,0.128
	c0.261,0.729,0.553,0.725,1.155,0.099c0.229-0.238,0.429-0.396,0.769-0.147c0.135,0.099,0.418,0.137,0.558,0.062
	c0.612-0.326,1.205-0.019,1.803,0.002c0.127,0.004,0.25,0.121,0.377,0.18c0.131,0.061,0.3,0.2,0.393,0.161
	c0.613-0.253,1.21-0.113,1.814,0.011c0.371,0.076,0.741,0.161,1.115,0.21c1.368,0.18,2.733,0.416,4.107,0.501
	c1.641,0.102,3.29,0.08,4.935,0.093c1.129,0.009,2.259,0.001,3.388-0.032c0.214-0.006,0.426-0.068,0.638-0.13
	c0.159-0.046,0.303,0.055,0.318,0.22c0.22,2.367,0.222,4.685-0.206,6.974c-0.15,0.804-0.618,1.559-1.005,2.303
	c-0.109,0.21-0.428,0.349-0.68,0.441c-2.314,0.839-4.638,1.654-6.951,2.496c-0.316,0.115-0.634,0.293-0.878,0.521
	c-0.45,0.42-0.926,0.743-1.406,0.798c-0.165,0.019-0.337,0.127-0.385,0.286c-0.008,0.027-0.016,0.053-0.024,0.079
	c-0.047,0.159-0.13,0.28-0.186,0.27c-0.055-0.009-0.128-0.131-0.162-0.274c-0.034-0.142-0.198-0.227-0.326-0.123
	c-0.282,0.229-0.472,0.641-0.915,0.679c-0.165,0.014-0.297,0.108-0.297,0.274c0,0.352,0,0.71,0,1.069
	c0,0.166,0.037,0.307,0.083,0.316s0.089-0.119,0.107-0.284c0.053-0.482,0.202-0.92,0.835-1.155c0.155-0.058,0.237,0.041,0.176,0.195
	c-0.073,0.182-0.135,0.339-0.194,0.486c-0.062,0.154-0.007,0.197,0.124,0.095c0.063-0.05,0.127-0.099,0.19-0.149
	c0.13-0.102,0.268-0.153,0.306-0.114c0.038,0.039-0.016,0.175-0.121,0.304c-0.17,0.207-0.34,0.414-0.51,0.622
	c-0.105,0.128-0.222,0.197-0.261,0.153c-0.039-0.043-0.158,0.023-0.267,0.147c-0.374,0.423-0.764,0.835-1.066,1.303
	c-0.084,0.131-0.018,0.359,0.087,0.575c0.073,0.149,0.177,0.131,0.214-0.031c0.031-0.139,0.065-0.286,0.103-0.456
	c0.037-0.162,0.139-0.18,0.228-0.041c0.112,0.174,0.213,0.331,0.332,0.516c0.09,0.139,0.146,0.119,0.141-0.046
	c-0.02-0.577,0.137-0.909,0.808-0.779c0.076,0.015,0.22-0.316,0.33-0.487c0.286-0.444,0.571-0.889,0.866-1.348
	c0.09-0.139,0.213-0.128,0.279,0.023c0.126,0.29,0.236,0.523,0.297,0.768c0.237,0.956,0.476,1.914,0.652,2.882
	c0.337,1.853,0.667,3.709,1.511,5.414c0.187,0.377,0.539,0.67,0.8,1.013c0.087,0.115,0.14,0.261,0.188,0.399
	c0.265,0.755,0.503,1.52,0.793,2.265c0.102,0.263,0.256,0.505,0.406,0.749c0.087,0.141,0.209,0.242,0.277,0.222
	s0.123-0.172,0.123-0.338c0-0.313,0-0.626,0-0.939c0-0.166,0.05-0.313,0.111-0.329c0.061-0.016,0.164,0.096,0.229,0.248
	c0.173,0.405,0.344,0.809,0.521,1.212c0.547,1.247,1.072,2.505,1.663,3.731c0.176,0.366,0.32,0.978,0.882,0.821
	c0.144-0.04,0.123-0.761,0.131-1.171c0.003-0.163-0.033-0.327-0.035-0.507c-0.002-0.166,0.097-0.177,0.173-0.03
	c0.213,0.408,0.424,0.816,0.643,1.22c0.698,1.293,1.4,2.584,2.103,3.874c0.062,0.114,0.12,0.243,0.216,0.321
	c0.062,0.05,0.132,0.089,0.206,0.125c0.12,0.058,0.261,0.008,0.313-0.112c0.035-0.079,0.061-0.157,0.051-0.229
	c-0.079-0.565-0.186-1.126-0.229-1.731c-0.012-0.165,0.06-0.187,0.153-0.05c0.182,0.268,0.365,0.535,0.54,0.807
	c0.925,1.437,1.845,2.876,2.769,4.314c0.07,0.109,0.127,0.256,0.229,0.309c0.322,0.165,0.696,0.456,0.989,0.398
	c0.479-0.095,0.305-0.571,0.241-0.93c-0.012-0.066-0.015-0.134-0.016-0.208c-0.002-0.116,0.037-0.2,0.09-0.19
	c0.036,0.007,0.065,0.014,0.094,0.025c0.208,0.079,0.415,0.159,0.622,0.239c0.155,0.06,0.312-0.022,0.363-0.179
	c0.088-0.27,0.185-0.542,0.135-0.783c-0.12-0.581-0.323-1.182-0.643-1.676c-0.314-0.483-0.2-0.973-0.247-1.443
	c-0.017-0.165,0.076-0.312,0.241-0.327c0.246-0.022,0.474-0.039,0.487-0.099c0.058-0.289,0.009-0.623-0.08-0.915
	c-0.162-0.535-0.361-1.059-0.567-1.625c-0.057-0.156,0.032-0.268,0.197-0.262c0.689,0.026,0.761-0.158,0.612-0.878
	c-0.052-0.253-0.125-0.502-0.172-0.756c-0.027-0.145-0.046-0.291-0.066-0.449c-0.021-0.164,0.1-0.31,0.25-0.381
	c0.322-0.152,0.306-0.448,0.135-0.854c-0.14-0.332-0.209-0.695-0.297-1.082c-0.037-0.162,0.065-0.294,0.225-0.339
	c0.483-0.136,0.521-0.526,0.439-0.992c-0.075-0.423-0.324-0.88,0.291-1.157c0.101-0.046,0.133-0.358,0.112-0.536
	c-0.051-0.437-0.132-0.871-0.211-1.328c-0.028-0.163,0.076-0.347,0.204-0.452c0.31-0.254,0.374-0.633,0.309-1.139
	c-0.067-0.524,0.171-1.083,0.133-1.617c-0.037-0.521-0.167-1.036-0.263-1.445c-0.038-0.161-0.023-0.419,0.028-0.577
	c0.142-0.438,0.255-0.79,0.374-1.14c0.252-0.738,0.116-1.612,0.835-2.196c0.143-0.117,0.168-0.503,0.105-0.725
	c-0.115-0.411,0.033-0.608,0.349-0.767c0.148-0.074,0.293,0.016,0.316,0.18c0.099,0.695,0.217,1.362,0.252,2.033
	c0.282,5.509,0.583,11.018,0.795,16.53c0.148,3.848,0.194,7.701,0.232,11.552c0.044,4.411,0.096,8.823,0.02,13.233
	c-0.062,3.588-0.249,7.176-0.501,10.756c-0.118,1.671-0.493,3.328-0.802,4.981c-0.209,1.116-0.515,2.213-0.761,3.322
	c-0.13,0.586-0.411,1.225-0.285,1.761c0.169,0.718-0.166,1.299-0.169,1.941c-0.001,0.127,0.143,0.256,0.301,0.399
	c0.123,0.111,0.179,0.339,0.135,0.498c-0.047,0.171-0.097,0.35-0.148,0.533c-0.044,0.16-0.187,0.373-0.302,0.492
	c-0.375,0.39-0.616,0.908-0.665,1.469c-0.009,0.1,0.016,0.18,0.061,0.24c0.084,0.112,0.237,0.214,0.31,0.294
	c0.073,0.08,0.17,0.132,0.182,0.156c0.012,0.025,0.122,0.011,0.249-0.032c0.082-0.028,0.159-0.061,0.21-0.117
	c0.064-0.07,0.12-0.149,0.177-0.239c0.088-0.139,0.184-0.291,0.223-0.335c0.039-0.044,0.03,0.048-0.004,0.21
	c-1.165,5.535,0.238,4.419,0.368,4.243c0.098-0.133,0.179-0.107,0.176,0.059c-0.014,0.833-0.106,1.65-0.138,2.453
	c-0.007,0.166-0.037,0.431-0.072,0.593l-0.366,1.695c-0.073,0.338,0.262,0.542,0.511,0.474c0.16-0.043,0.234-0.14,0.256-0.076
	s0.146,0.03,0.253-0.096c0.653-0.774,0.427-1.796,0.68-2.803c0.04-0.161,0.086-0.153,0.088,0.013
	c0.007,0.816,0.038,1.513-0.009,2.206c-0.143,2.119-0.296,4.237-0.449,6.356c-0.155,1.205-0.31,2.411-0.464,3.616
	c-0.021,0.164-0.099,0.344-0.134,0.426c-0.02,0.046-0.031,0.098-0.032,0.158c-0.001,0.121,0,0.242,0.001,0.362
	c0.002,0.166-0.012,0.433-0.034,0.598c-0.025,0.198-0.051,0.396-0.076,0.594c-0.01,0.078,0.001,0.143,0.026,0.196
	c0.048,0.099,0.148,0.27,0.161,0.435c0.02,0.265,0.044,0.529,0.071,0.794c0.017,0.165,0.029,0.416,0.025,0.561
	c-0.003,0.088-0.005,0.175-0.008,0.263c-0.005,0.169,0.017,0.361,0.095,0.505c0.058,0.105,0.136,0.2,0.219,0.291
	c0.111,0.123,0.305,0.137,0.437,0.036c0.113-0.086,0.213-0.174,0.232-0.277c0.208-1.118,0.467-2.241,0.515-3.371
	c0.211-4.904,0.857-6.193,0.873-3.446c0.005,0.861,0.004,1.722,0.001,2.583c0,0.166-0.041,0.342-0.065,0.408
	c-0.014,0.038-0.022,0.08-0.022,0.125c0.002,1.126,0.003,2.252,0.005,3.378c0,0.11,0.038,0.196,0.096,0.258
	c0.108,0.113,0.293,0.2,0.371,0.282c0.059,0.062,0.123,0.105,0.172,0.103c0.147-0.005,0.389-0.178,0.416-0.314
	c0.052-0.264,0.115-0.529,0.179-0.795c0.039-0.161,0.13-0.337,0.165-0.417c0.019-0.045,0.031-0.097,0.031-0.156c0,0,0-0.059,0-0.132
	s0.029-0.264,0.058-0.427c0.079-0.437,0.125-0.872,0.093-1.3c-0.377-5.117-0.431-13.179-0.395-12.12
	c0.005,0.147,0.058,0.292,0.117,0.437c0.062,0.154,0.114,0.302,0.127,0.327s0.03,0.104,0.065,0.165s0.153,0.211,0.236,0.355
	c0.006,0.01,0.011,0.02,0.017,0.029c0.083,0.143,0.197,0.242,0.255,0.219c0.057-0.023,0.157-0.164,0.21-0.321
	c0.524-1.538,0.084-3.15,0.14-4.808c0.006-0.166,0.111-0.205,0.226-0.086c0.158,0.164,0.298,0.319,0.455,0.496
	c0.11,0.124,0.223,0.094,0.259-0.068c0.087-0.394,0.174-0.695,0.168-0.994c-0.002-0.078-0.004-0.156-0.008-0.234
	c-0.005-0.129,0.006-0.317,0.001-0.419s-0.04-0.316-0.053-0.482c-0.032-0.44-0.072-0.881-0.108-1.321
	c-0.019-0.227-0.087-0.435-0.109-0.652c-0.016-0.165,0.061-0.381,0.128-0.481c0.04-0.061,0.08-0.121,0.12-0.182
	c0.097-0.147,0.139-0.314,0.137-0.482c-0.003-0.166,0.005-0.422,0.019-0.587c0.009-0.109,0.001-0.221-0.027-0.332
	c-0.044-0.173-0.088-0.346-0.131-0.52c-0.019-0.075-0.047-0.145-0.083-0.21c-0.061-0.11-0.162-0.315-0.201-0.476
	c-0.026-0.108-0.053-0.215-0.079-0.322c-0.039-0.161,0.051-0.355,0.183-0.455c0.188-0.143,0.106-0.213-0.127-0.586
	c-0.143-0.228-0.087-0.595-0.078-0.898c0.014-0.437,0.125-0.876,0.093-1.307c-0.072-0.964-0.172-1.93-0.326-2.884
	c-0.127-0.785-0.313-1.566-0.533-2.331c-1.357-4.708-1.3-9.535-1.243-14.364c0.057-4.781,0.058-9.563,0.167-14.342
	c0.1-4.391,0.224-8.785,0.492-13.168c0.324-5.29,0.812-10.57,1.232-15.854c0.031-0.387,0.057-0.8,0.481-0.795
	c0.166,0.002,0.284,0.187,0.292,0.353c0.037,0.821,0.413,1.497,0.867,2.165c0.127,0.187,0.035,0.568-0.038,0.838
	c-0.117,0.433-0.221,0.831,0.228,0.984c0.157,0.053,0.259,0.187,0.218,0.347c-0.101,0.392-0.193,0.76-0.301,1.123
	c-0.117,0.392-0.159,0.743,0.131,0.933c0.139,0.091,0.27,0.244,0.235,0.406c-0.162,0.761-0.682,1.488-0.22,2.304
	c0.082,0.144,0.126,0.375,0.067,0.529c-0.106,0.275-0.228,0.588-0.258,0.909c-0.029,0.314,0.192,0.645,0.262,0.977
	c0.057,0.267,0.096,0.551,0.069,0.82c-0.043,0.433-0.108,0.854,0.364,0.954c0.162,0.035,0.25,0.146,0.19,0.301
	c-0.125,0.323-0.243,0.63-0.363,0.936c-0.301,0.767-0.233,1.03,0.484,1.162c0.163,0.03,0.252,0.17,0.196,0.325
	c-0.075,0.207-0.148,0.408-0.217,0.611c-0.146,0.426-0.321,0.847-0.415,1.285c-0.042,0.195,0.04,0.576,0.144,0.607
	c0.2,0.059,0.459-0.064,0.688-0.128c0.048-0.013,0.09-0.047,0.166-0.069c0.095-0.028,0.136,0.106,0.085,0.264
	c-0.208,0.64-0.408,1.282-0.638,1.914c-0.212,0.583-0.195,0.788,0.35,0.992c0.155,0.058,0.246,0.222,0.197,0.381
	c-0.201,0.654-0.393,1.311-0.618,1.955c-0.159,0.455-0.408,0.879-0.564,1.334c-0.053,0.155-0.005,0.427,0.105,0.533
	c0.103,0.099,0.413,0.132,0.522,0.049c0.426-0.323,0.813-0.698,1.204-1.065c0.071-0.066,0.133-0.142,0.207-0.213
	c0.119-0.113,0.214-0.035,0.174,0.126c-0.135,0.54-0.279,1.079-0.371,1.626c-0.024,0.145,0.02,0.302,0.071,0.459
	c0.051,0.158,0.212,0.238,0.369,0.185c0.15-0.05,0.294-0.106,0.371-0.211c1.054-1.423,2.075-2.871,3.105-4.311
	c0.081-0.113,0.159-0.228,0.263-0.33c0.118-0.116,0.203-0.051,0.153,0.107c-0.058,0.187-0.115,0.374-0.133,0.565
	c-0.009,0.097,0.015,0.197,0.047,0.298c0.051,0.158,0.223,0.251,0.384,0.211c0.121-0.03,0.236-0.068,0.321-0.141
	c0.188-0.163,0.3-0.417,0.435-0.638c1.038-1.708,2.073-3.417,3.142-5.18c0.086-0.142,0.191-0.128,0.235,0.032
	c0.053,0.193,0.104,0.374,0.154,0.555c0.044,0.16,0.036,0.416-0.022,0.571c-0.067,0.181-0.136,0.376-0.162,0.577
	c-0.013,0.1,0.019,0.206,0.061,0.314c0.06,0.154,0.223,0.214,0.364,0.133c0.093-0.054,0.177-0.112,0.217-0.193
	c0.787-1.564,1.548-3.141,2.316-4.715c0.059-0.122,0.117-0.244,0.198-0.361c0.095-0.136,0.199-0.086,0.194,0.079
	c-0.005,0.188-0.009,0.375,0.017,0.559c0.012,0.084,0.052,0.164,0.1,0.243c0.076,0.125,0.23,0.168,0.343,0.096
	c0.076-0.048,0.143-0.1,0.17-0.168c0.399-1.003,0.786-2.011,1.144-3.029c0.168-0.477,0.291-0.969,0.498-1.461
	c0.064-0.153,0.156-0.143,0.194,0.018c0.047,0.198,0.094,0.395,0.141,0.593c0.038,0.161,0.127,0.298,0.198,0.305
	c0.071,0.007,0.183-0.11,0.256-0.259c0.142-0.285,0.294-0.568,0.351-0.869c0.212-1.112,0.414-2.226,0.613-3.341
	c0.029-0.163,0.112-0.415,0.175-0.568c0.301-0.73,0.414-1.513,0.401-2.308c-0.003-0.166-0.004-0.339,0.005-0.387
	c0.005-0.029,0.01-0.058,0.016-0.088c0.096-0.531,0.192-1.062,0.32-1.586c0.028-0.114,0.092-0.218,0.17-0.342
	c0.089-0.14,0.236-0.147,0.334-0.014c0.113,0.154,0.204,0.278,0.295,0.402c0.203,0.26,0.405,0.519,0.608,0.779
	c0.102,0.131,0.18,0.371,0.196,0.536c0.033,0.346,0.166,0.6,0.717,0.578c0.098-0.004,0.208,0.301,0.323,0.591
	c0.061,0.154,0.17,0.256,0.242,0.23c0.072-0.026,0.11,0.067,0.084,0.209c-0.026,0.142-0.016,0.271,0.022,0.289
	c0.038,0.018,0.131-0.088,0.217-0.229c0.098-0.161,0.191-0.322,0.175-0.471c-0.071-0.67-0.377-1.255-0.836-1.771
	c-0.367-0.412-0.789-0.833-0.636-1.441c0.04-0.161,0.242-0.266,0.397-0.206c0.479,0.188,0.583,0.627,0.646,1.105
	c0.022,0.164,0.106,0.183,0.176,0.032c0.26-0.564,0.109-0.853-0.382-1.26c-0.251-0.208-0.786-0.235-0.74-0.796
	c0.005-0.061-0.537-0.232-0.827-0.236c-0.446-0.006-0.663-0.241-0.834-0.591c-0.36-0.735-0.963-1.101-1.753-1.294
	c-0.834-0.204-1.649-0.505-2.452-0.817c-1.209-0.47-2.372-1.079-3.608-1.456c-1.375-0.419-1.949-1.487-2.185-2.658
	c-0.321-1.597-0.358-3.252-0.506-4.882c-0.078-0.859-0.115-1.722-0.206-2.58c-0.097-0.909,0.203-1.059,1.078-0.969
	c0.714,0.073,1.435,0.607,2.192,0.126c0.074-0.047,0.235,0.034,0.353,0.066c0.145,0.039,0.301,0.153,0.429,0.125
	c0.99-0.215,1.923,0.037,2.858,0.301c0.059,0.017,0.134,0.017,0.191-0.004c1.167-0.434,2.389-0.321,3.597-0.402
	c1.328-0.089,2.644-0.44,3.97-0.47c0.661-0.015,1.254-0.484,1.939-0.208c0.118,0.047,0.311-0.12,0.476-0.155
	c0.231-0.05,0.468-0.077,0.703-0.097c0.105-0.009,0.239,0.072,0.315,0.031c0.48-0.261,0.911-0.147,1.399,0.026
	c0.154,0.054,0.383-0.106,0.641-0.263c0.142-0.086,0.363-0.058,0.485,0.053c0.157,0.143,0.345,0.307,0.56,0.418
	c0.388,0.2,0.616,0.051,0.693-0.309c0.034-0.162,0.141-0.226,0.278-0.132c0.201,0.138,0.366,0.255,0.548,0.327
	c0.237,0.093,0.589,0.213,0.747,0.108c0.175-0.117,0.218-0.472,0.258-0.733c0.014-0.093-0.004-0.19-0.011-0.299
	c-0.011-0.165,0.124-0.199,0.24-0.08c0.54,0.558,1.079,1.117,1.621,1.673c0.105,0.108,0.216,0.232,0.35,0.285
	c0.167,0.066,0.418,0.148,0.525,0.072c0.108-0.077,0.151-0.357,0.108-0.517c-0.09-0.333-0.217-0.655-0.34-0.979
	c-0.059-0.155-0.067-0.315-0.02-0.356c0.048-0.041,0.184,0.019,0.304,0.133c0.504,0.478,1.009,0.956,1.51,1.436
	c0.232,0.222,0.429,0.496,0.693,0.666c0.17,0.11,0.454,0.137,0.646,0.074c0.084-0.027,0.072-0.37,0.091-0.57
	c0.005-0.053-0.004-0.108-0.018-0.208c-0.017-0.115,0.072-0.118,0.194-0.006c0.571,0.519,1.075,0.972,1.569,1.434
	c0.487,0.455,0.927,0.544,1.32,0.196c0.124-0.11,0.297-0.129,0.415-0.014c0.547,0.533,1.087,1.061,1.629,1.587
	c0.618,0.6,1.212,1.229,1.869,1.784c0.303,0.256,0.661,0.551,1.155,0.365c0.155-0.058,0.195-0.254,0.109-0.396
	c-0.562-0.922-1.116-1.832-1.67-2.741c-0.086-0.141-0.14-0.276-0.119-0.3c0.021-0.024,0.131,0.052,0.248,0.169
	c0.074,0.074,0.149,0.147,0.227,0.216c0.711,0.623,1.446,1.221,2.135,1.868c0.659,0.619,1.248,1.314,1.912,1.926
	c0.488,0.449,1.037,0.837,1.586,1.212c0.125,0.086,0.5,0.058,0.521-0.002c0.069-0.196,0.11-0.478,0.016-0.644
	c-0.597-1.054-1.231-2.086-1.857-3.124c-0.163-0.27-0.335-0.535-0.566-0.896c-0.089-0.14-0.039-0.197,0.114-0.132
	c0.377,0.159,0.672,0.264,0.917,0.438c0.705,0.5,1.362,1.067,2.06,1.578c0.867,0.635,1.737,1.269,2.646,1.839
	c0.171,0.107,0.414,0.099,0.655,0.094c0.166-0.003,0.267-0.127,0.237-0.29c-0.035-0.192-0.073-0.383-0.179-0.521
	c-0.968-1.273-1.973-2.519-2.963-3.776c-0.037-0.047-0.069-0.099-0.099-0.152c-0.05-0.088-0.064-0.192-0.031-0.232
	c0.033-0.04,0.169,0.004,0.304,0.1c0.571,0.404,1.14,0.811,1.721,1.201c0.265,0.178,0.553,0.339,0.854,0.438
	c0.151,0.05,0.391-0.011,0.517-0.113c0.066-0.054,0.02-0.339-0.062-0.461c-0.384-0.574-0.762-1.158-1.209-1.682
	c-2.335-2.736-4.928-5.212-7.637-7.568c-0.442-0.464-0.892-0.921-1.349-1.37c-0.118-0.116-0.079-0.21,0.087-0.21
	c0.044,0,0.088,0,0.134,0c0.166,0,0.221-0.109,0.13-0.247c-0.102-0.155-0.183-0.28-0.293-0.369
	c-1.569-1.253-3.155-2.485-4.725-3.736c-0.733-0.584-1.394-1.274-2.175-1.78c-1.239-0.802-2.524-1.532-3.815-2.285
	c-0.143-0.084-0.325-0.22-0.415-0.297c-0.089-0.077-0.016-0.242-0.094-0.388c-0.147-0.276-0.805-0.623-1.254-0.686
	c-0.164-0.023-0.417-0.043-0.569-0.11c-0.958-0.423-4.16-1.765-5.763-2.058c-0.372-0.068-0.573,0.203-0.1-0.251
	c0.356-0.342,0.148-0.188-0.63-0.387c-0.16-0.041-0.118-0.087-0.043-0.235c0.062-0.123,0.006-0.285-0.117-0.366
	c-0.179-0.119-0.425-0.259-0.611-0.225c-1.11,0.202-2.134-0.027-3.144-0.48c-1.465-0.657-2.976-1.123-4.584-0.555
	c-1.303,0.46-2.589,0.971-3.877,1.472c-0.564,0.219-1.116,0.467-1.673,0.704c-1.51,0.643-2.966,0.292-4.319-0.395
	c-1.715-0.87-3.403-1.814-5.016-2.86c-1.06-0.688-1.358-1.931-1.519-3.114c-0.214-1.576-0.911-2.961-1.572-4.357
	c-0.319-0.673-0.809-1.18-1.385-1.593C77.089,4.939,76.89,4.764,76.77,4.65c-0.355-0.337-0.788-0.572-1.27-0.663
	c-0.163-0.031-0.424-0.083-0.583-0.129c-0.677-0.195-1.384-0.244-2.09-0.194c-1.809,0.128-3.592,0.445-5.224,1.327
	c-0.637,0.344-1.287,0.664-1.931,0.997c-0.147,0.076-0.393,0.178-0.55,0.232c-1.277,0.434-2.496,1.039-3.617,1.809
	c-0.175,0.12-0.296,0.274-0.37,0.441c-0.066,0.152-0.112,0.312-0.153,0.342c-0.025,0.018-0.049,0.037-0.073,0.055
	c-0.346,0.271-0.36,0.595,0.002,0.975c0.536,0.563,1.165,0.778,1.908,0.811c0.67,0.029,1.338,0.097,2.007,0.146
	c1.452,0.106,2.761,0.677,4.028,1.321c1.059,0.537,1.04,1.821-0.007,2.413c-1.279,0.724-2.581,1.408-3.879,2.098
	c-0.781,0.416-1.547,0.875-2.366,1.201c-1.06,0.421-2.178,0.387-3.242-0.013c-1.799-0.676-3.588-1.383-5.362-2.121
	c-1.472-0.612-2.937-0.684-4.416-0.09c-0.121,0.048-0.24,0.1-0.359,0.154c-0.151,0.068-0.406,0.114-0.571,0.128
	c-0.181,0.015-0.361,0.054-0.538,0.122c-0.35,0.134-0.698,0.272-1.046,0.412c-0.154,0.062-0.342,0.12-0.414,0.147
	s-0.227,0.115-0.361,0.171s-0.37,0.045-0.536,0.052c-0.503,0.022-1.193,0.465-1.534,0.738c-0.129,0.103-0.331,0.266-0.483,0.334
	c-1.058,0.477-3.246,1.425-3.91,1.726c-0.478,0.217-6.663,3.368-8.163,4.455c-0.563,0.408-0.974,1.021-1.511,1.473
	c-1.06,0.891-2.214,1.675-3.224,2.617c-0.729,0.68-1.277,1.55-1.925,2.32c-0.249,0.296-0.536,0.565-0.831,0.816
	c-3.247,2.762-6.032,5.952-8.615,9.325c-0.159,0.208-0.236,0.478-0.319,0.744c-0.049,0.158,0.036,0.263,0.201,0.247
	c0.272-0.027,0.546-0.05,0.781-0.159c0.405-0.187,0.748-0.507,1.121-0.765c0.13-0.09,0.263-0.177,0.424-0.232
	c0.157-0.054,0.209,0.046,0.104,0.174c-0.53,0.646-1.07,1.285-1.571,1.952c-0.333,0.444-0.622,0.929-0.861,1.429
	C15.361,44.155,15.434,44.467,15.552,44.633z M75.218,145.812c-0.042,0.005-0.036,0,0.007-0.024c0.043-0.024,0.069-0.039,0.069-0.02
	S75.26,145.807,75.218,145.812z M72.525,146.07c-0.019-0.075,0.007-0.114,0.059-0.102c0.052,0.012,0.069,0.064,0.037,0.126
	C72.589,146.157,72.544,146.145,72.525,146.07z"/>
</g>
</svg>
