<?xml version="1.0" encoding="iso-8859-1"?>
<!-- Generator: Adobe Illustrator 17.1.0, SVG Export Plug-In . SVG Version: 6.00 Build 0)  -->
<!DOCTYPE svg PUBLIC "-//W3C//DTD SVG 1.1//EN" "http://www.w3.org/Graphics/SVG/1.1/DTD/svg11.dtd">
<svg version="1.1" id="Capa_1" xmlns="http://www.w3.org/2000/svg" xmlns:xlink="http://www.w3.org/1999/xlink" x="0px" y="0px"
	 viewBox="0 0 150 150" style="enable-background:new 0 0 150 150;" xml:space="preserve">
<g>
	<path d="M7.375,98.214c2.738-0.159,5.489-0.32,8.324-0.484c0.843-0.049,1.86,0.509,2.232,1.266
		c1.766,3.598,1.184,4.774-2.813,7.627c-1.858,1.326-3.824,2.505-5.648,3.874c-0.367,0.275-0.669,0.636-0.955,1.02
		c-0.462,0.621-0.622,1.412-0.365,1.762s1.086,0.344,1.85-0.013c3.186-1.488,6.377-2.978,9.619-4.491
		c0.765-0.357,1.64-0.361,1.961-0.014c0.186,0.201,0.387,0.413,0.599,0.613c2.066,1.95,5.58,3.707,5.849,5.872
		c0.32,2.578-2.159,5.493-3.388,8.279c-0.284,0.644-0.534,1.303-0.779,1.964c-0.293,0.792-0.203,1.633,0.205,1.88
		c0.408,0.247,1.148-0.099,1.654-0.775c1.944-2.594,3.887-5.188,5.825-7.775c0.506-0.675,1.566-1.007,2.367-0.742
		c1.704,0.565,3.465,1.149,5.268,1.747c0.801,0.266,1.345,1.157,1.215,1.991c-0.49,3.14-0.975,6.252-1.459,9.36
		c-0.13,0.834,0.278,1.51,0.911,1.51s1.376-0.645,1.659-1.44c1.112-3.118,2.217-6.217,3.269-9.168
		c0.283-0.795,1.191-1.525,2.029-1.631c3.136-0.397,6.192-0.785,9.35-1.185c0.837-0.106,1.761,0.447,2.062,1.235
		c1.158,3.03,2.332,6.1,3.508,9.176c0.301,0.788,0.975,1.311,1.503,1.167c0.529-0.144,0.845-0.937,0.706-1.769
		c-0.613-3.677-1.226-7.353-1.836-11.01c-0.139-0.833,0.41-1.682,1.229-1.886c4.816-1.2,5.257-0.845,10.045,2.16
		c1.142,0.717,2.532,1.037,3.905,1.385c0.818,0.208,1.625,0.093,1.813-0.297c0.188-0.39-0.178-1.151-0.818-1.701
		c-1.765-1.515-3.579-3.073-5.668-4.867c-0.64-0.55-0.605-1.396,0.079-1.89c1.582-1.143,2.92-2.109,4.144-2.994
		c0.684-0.494,1.76-0.452,2.389,0.11c2.352,2.1,4.385,4.072,7.156,4.293c0.841,0.067,1.788-0.374,2.115-0.77
		c0.327-0.396,0.037-1.118-0.647-1.613c-1.971-1.425-3.946-2.853-5.949-4.301c-0.684-0.494-0.71-1.329-0.057-1.864
		c1.99-1.629,3.566-2.92,5.054-4.139c0.653-0.535,1.49-0.356,1.804,0.427c0.994,2.479,1.742,5.246,4.88,6.844
		c0.752,0.383,1.223-0.077,0.988-0.887c-0.795-2.738-1.489-5.042-2.089-7.371c-0.928-3.6,0.14-5.93,3.48-7.41
		c0.772-0.342,1.362,0.142,1.303,0.984c-0.245,3.541-0.072,6.97,2.345,9.851c0.543,0.646,1.177,0.422,1.265-0.418
		c0.246-2.347,0.202-4.67,0.294-6.987c0.128-3.239,0.363-6.487,4.135-7.487c0.816-0.216,1.399,0.417,1.292,1.255
		c-0.493,3.849-0.525,7.616,1.666,10.837c0.475,0.698,1.272,1.178,1.675,1.151c0.403-0.027,0.729-0.732,0.729-1.576v-9.191
		c0-0.844,0.302-1.593,0.674-1.672c0.372-0.08,1.057,0.422,1.574,1.089c0.71,0.917,1.423,1.834,1.633,2.854
		c0.543,2.63,0.808,5.312,1.038,7.582c0.085,0.84-0.3,1.607-0.825,1.832c-0.318,0.136-0.62,0.304-0.896,0.509
		c-1.158,0.859-1.897,1.805-2.353,3.18c-0.448,1.348,0.081,3.416,1.232,4.316c0.009,0.007,0.018,0.014,0.027,0.021
		c0.015,0.011,0.342,0.667,1.035,1.15c1.238,0.862,3.092,0.997,4.844,0.967c6.061-0.101,9.607-3.901,12.657-8.552
		c1.074-1.638,2.334-3.776,3.959-4.308c3.667-1.199,5.696-3.717,7.385-6.672c0.419-0.733,0.733-1.532,0.733-1.768
		c0-0.236,0.331-1.035,0.545-1.851c0.686-2.622-0.181-5.512-2.27-7.261c-0.647-0.542-1.839-1.262-2.657-1.469
		c-0.675-0.17-1.432-0.188-2.276-0.027c-2.78,0.531-3.946,2.352-3.757,5.705c0.047,0.843-0.339,1.052-0.956,0.477
		c-1.084-1.012-1.981-1.848-2.934-2.738c-0.617-0.576-0.498-1.333,0.267-1.691c2.015-0.943,3.846-1.8,5.868-2.746
		c0.764-0.358,0.841-1.074,0.079-1.437c-2.331-1.108-4.221-0.379-6.229,0.293c-1.704,0.57-3.665,2.351-5.427,0.438
		c-0.572-0.621-0.419-1.795,0.114-2.449c2.148-2.638,4.359-5.353,6.578-8.077c0.533-0.655,0.772-1.372,0.534-1.604
		s-1.085-0.212-1.852,0.141c-3.789,1.745-6.379,5.024-9.052,8.11c-0.553,0.638-1.695,1.048-2.479,0.735
		c-2.594-1.034-2.832-3.238-2.147-6.067c0.628-2.589,1.024-5.24,1.415-7.879c0.06-0.406,0.029-0.825-0.027-1.247
		c-0.09-0.686-0.535-1.303-0.988-1.38c-0.453-0.077-1.029,0.51-1.288,1.314c-1.172,3.637-2.357,7.313-3.647,11.312
		c-0.259,0.803-1.149,1.385-1.988,1.299c-1.292-0.131-2.698-0.273-4.185-0.424c-0.84-0.085-1.52-0.838-1.52-1.682V58.766
		c0-0.844-0.345-1.59-0.771-1.666c-0.426-0.076-0.934,0.527-1.154,1.342c-0.756,2.803-1.638,5.592-1.976,8.444
		c-0.612,5.161-0.5,5.639-5.215,6.113c-0.84,0.084-1.668-0.526-1.849-1.35c-0.767-3.494-1.542-7.031-2.32-10.573
		c-0.181-0.824-0.658-1.479-1.065-1.46c-0.407,0.019-0.789,0.716-0.853,1.557c-0.142,1.845-0.286,3.69-0.395,5.537
		c-0.037,0.628,0.08,1.27,0.163,1.9c0.9,6.832,0.964,7.3-4.942,9.872c-0.774,0.337-1.71-0.007-2.089-0.761
		c-1.584-3.155-3.178-6.328-4.772-9.504c-0.379-0.754-1.001-1.282-1.39-1.179c-0.389,0.103-0.596,0.861-0.47,1.696
		c0.289,1.915,0.563,3.833,0.972,5.721c0.237,1.094,0.899,2.095,1.369,3.138c2.134,4.738,2.327,5.167-1.773,7.354
		c-0.745,0.397-1.805,0.198-2.364-0.435c-2.32-2.629-4.671-5.293-7.026-7.962c-0.558-0.633-1.106-0.465-1.084,0.379
		c0.118,4.564,3.316,7.438,5.821,10.837c0.501,0.679,0.327,1.675-0.341,2.191c-1.704,1.316-3.411,2.635-5.321,4.11
		c-0.668,0.516-1.517,0.322-1.896-0.432c-1.643-3.27-3.296-6.56-4.951-9.853c-0.379-0.754-0.93-1.252-1.23-1.113
		c-0.3,0.139-0.678,0.927-0.705,1.771c-0.117,3.731,1.785,7.007,3.216,10.417c0.327,0.778,0.028,1.851-0.629,2.382
		c-0.803,0.649-1.626,1.314-2.553,2.063c-0.656,0.53-1.332,0.291-1.509-0.534c-0.738-3.439-1.425-6.636-2.104-9.801
		c-0.177-0.825-0.653-1.449-1.063-1.395c-0.41,0.055-0.742,0.784-0.742,1.628v9.835c0,0.844-0.684,1.528-1.528,1.528h-5.164
		c-0.844,0-1.313-0.65-1.047-1.451c1.147-3.457,2.123-6.401,3.076-9.272c0.266-0.801,0.236-1.563-0.068-1.701
		c-0.303-0.138-1.124,0.128-1.74,0.704c-2.468,2.309-3.525,5.607-4.814,8.778c-0.318,0.782-1.122,0.965-1.708,0.357
		c-1.256-1.305-0.867-1.803,1.257-4.476c1.161-1.461,2.34-2.907,3.886-4.816c0.531-0.656,0.273-1.194-0.559-1.052
		c-3.097,0.526-4.815,2.489-6.826,4.418c-0.609,0.584-1.17,0.35-1.223-0.492c-0.081-1.284-0.157-2.48-0.236-3.721
		c-0.053-0.842,0.579-1.63,1.413-1.761c2.346-0.367,4.615-0.722,6.869-1.075c0.834-0.131,1.517-0.568,1.527-0.976
		c0.01-0.409-0.656-0.86-1.487-1.008c-1.608-0.286-3.216-0.573-4.827-0.86c-0.831-0.148-1.576-0.953-1.512-1.795
		c0.245-3.204,2.257-4.674,5.918-4.107c2.886,0.447,5.733,1.145,8.614,1.634c0.483,0.082,0.979,0.088,1.479,0.074
		c0.819-0.023,1.558-0.401,1.65-0.837s-0.48-1.009-1.279-1.281c-3.339-1.134-6.676-2.267-10.006-3.398
		c-0.799-0.271-1.202-1.135-0.764-1.857c1.516-2.502,3.763-3.242,6.423-1.978c3.091,1.47,6.106,3.102,9.19,4.588
		c0.489,0.236,1.045,0.333,1.94,0.508c0.828,0.162,1.168-0.285,0.69-0.981c-3.09-4.5-7.576-6.111-11.704-8.486
		c-0.732-0.421-0.793-1.242-0.158-1.798c0.509-0.446,1.004-0.88,1.511-1.325c0.635-0.556,1.77-0.72,2.535-0.365
		c3.699,1.716,7.455,3.457,11.216,5.202c0.766,0.355,1.531,0.379,1.71,0.054c0.179-0.325-0.058-1.159-0.605-1.802
		c-2.647-3.106-6.349-4.865-10.071-6.751c-0.753-0.381-1.188-1.378-0.719-2.08c0.847-1.266,2.053-1.317,3.843-0.367
		c2.951,1.565,5.995,2.955,9.253,4.025c0.802,0.264,1.188-0.177,0.745-0.896c-2.106-3.422-5.591-5.126-9.015-6.893
		c-0.75-0.387-1.277-1.403-0.93-2.173c0.935-2.075,2.899-2.05,5.219-1.804c3.892,0.414,7.811,0.568,11.723,0.79
		c0.843,0.048,1.58-0.352,1.648-0.898c0.068-0.546-0.55-1.112-1.38-1.265c-4.193-0.771-8.442-1.552-13.208-2.428
		c-0.83-0.153-1.111-0.837-0.629-1.53c4.812-6.899,9.31-13.351,13.79-19.774c0.483-0.692,0.689-1.433,0.461-1.655
		s-1.082-0.239-1.863,0.08c-4.661,1.898-7.13,6.466-10.532,9.996c-0.586,0.608-0.805,0.445-0.445-0.318
		c1.819-3.859,3.637-7.718,5.456-11.577c0.36-0.763,0.138-1.382-0.495-1.382s-1.555,0.548-2.064,1.221
		c-2.737,3.618-5.558,7.179-8.086,10.938c-1.925,2.862-3.14,6.323-6.911,7.418c-0.81,0.235-1.99-0.187-2.596-0.774
		c-2.065-2.003-4.24-4.112-6.431-6.236c-0.606-0.588-1.201-0.383-1.18,0.46c0.1,4.075,2.887,6.443,5.031,9.055
		c0.535,0.652,0.585,1.836-0.062,2.379c-1.046,0.879-2.084,0.588-3.493-0.519c-2.149-1.689-4.669-2.941-7.133-4.173
		c-0.365-0.182-0.83-0.163-1.32-0.096c-0.735,0.1-1.09,0.738-0.787,1.42c0.191,0.431,0.408,0.835,0.726,1.128
		c2.229,2.053,4.543,4.014,6.855,6c0.64,0.55,0.683,1.493,0.058,2.06c-1.368,1.239-1.828,1.063-4.223-0.107
		c-2.815-1.376-5.645-2.297-8.952-1.064c-0.791,0.295-0.782,0.951-0.035,1.342c2.615,1.368,5.226,2.734,7.814,4.088
		c0.748,0.391,1.119,1.358,0.659,2.066c-1.989,3.063-5.022,1.893-7.778,1.305c-3.118-0.665-6.068-0.629-9.006,1.26
		c-0.71,0.457-0.566,1.067,0.254,1.268c3.339,0.821,6.708,1.649,10.3,2.532c0.82,0.201,1.042,0.888,0.509,1.542
		c-2.535,3.113-4.661,5.787-9.451,3.936c-1.568-0.605-3.604,0.004-5.568,0.423c-0.825,0.176-1.534,0.601-1.57,1.017
		s0.587,0.96,1.392,1.214c2.505,0.79,4.987,1.573,7.334,2.314c0.805,0.254,1.321,1.133,1.049,1.932
		c-2.065,6.071-7.344,5.933-12.559,5.885c-0.844-0.008-1.465,0.397-1.389,0.894c0.076,0.496,0.793,1.096,1.602,1.339
		c2.03,0.611,4.061,1.222,6.096,1.833c0.808,0.243,1.513,1.123,1.556,1.966c0.377,7.386-0.894,8.712-8.583,11.066
		c-0.48,0.147-0.948,0.334-1.412,0.532c-0.767,0.327-1.387,0.937-1.387,1.358S6.532,98.263,7.375,98.214z M118.983,94.928
		c0.321-0.162,1.002,0.246,1.521,0.912c1.585,2.029,3.201,4.099,5.01,6.415c0.519,0.665,0.414,1.641-0.235,2.18
		c-0.461,0.382-0.974,0.809-1.539,1.277c-0.649,0.539-1.153,0.28-1.372-0.535c-0.367-1.366-1.234-2.591-2.454-3.398
		c-0.149-0.099-0.305-0.185-0.466-0.263c-0.267-0.129-0.555-0.892-0.632-1.732c-0.094-1.035-0.185-2.043-0.276-3.041
		C118.464,95.902,118.662,95.089,118.983,94.928z"/>
</g>
</svg>
