<?xml version="1.0" encoding="iso-8859-1"?>
<!-- Generator: Adobe Illustrator 17.1.0, SVG Export Plug-In . SVG Version: 6.00 Build 0)  -->
<!DOCTYPE svg PUBLIC "-//W3C//DTD SVG 1.1//EN" "http://www.w3.org/Graphics/SVG/1.1/DTD/svg11.dtd">
<svg version="1.1" id="Capa_1" xmlns="http://www.w3.org/2000/svg" xmlns:xlink="http://www.w3.org/1999/xlink" x="0px" y="0px"
	 viewBox="0 0 150 150" style="enable-background:new 0 0 150 150;" xml:space="preserve">
<g>
	<path d="M9.151,93.569c2.231-0.354,4.405-0.889,6.525-1.577c2.514-0.305,5.029-0.605,7.551-0.799
		c1.11-0.085,2.474,0.142,3.369,0.747c5.153,3.489,10.856,5.703,16.937,6.381c5.253,0.586,8.568,3.442,11.641,7.551
		c0.017-0.015,0.036-0.032,0.053-0.047c0.11,0.433,0.219,0.865,0.329,1.298c0.158,0.625,1.123,0.36,0.964-0.266
		c-0.15-0.594-0.301-1.188-0.452-1.783c0.317-0.282,0.654-0.583,1.025-0.914c0.346,0.314,0.71,0.643,1.115,1.011
		c0.207,0.815,0.413,1.631,0.619,2.446c0.158,0.625,1.123,0.36,0.964-0.266c-0.147-0.581-0.294-1.162-0.442-1.744
		c0.249-0.618,0.441-1.216,0.838-1.593c0.333-0.316,0.893-0.405,1.638-0.587c0.43,0.283,0.772,0.681,1.009,1.249
		c0.022,0.049,0.044,0.099,0.066,0.148c0.058,0.13,0.158,0.202,0.272,0.231c0.095,0.251,0.19,0.503,0.285,0.754
		c0.226,0.597,1.193,0.338,0.964-0.266c-1.063-2.812-2.127-5.624-3.19-8.436c3.929-0.92,7.868-1.875,11.828-2.736
		c1.202-0.261,2.576,0.042,3.682-0.393c3.993-1.57,6.865,0.703,9.67,2.771c2.621,1.932,4.928,4.288,7.411,6.412
		c0.453,0.388,1.064,0.695,1.646,0.805c0.726,0.138,1.461,0.232,2.194,0.356c0.779,0.357,1.448,0.929,1.905,1.676
		c0.335,0.549,1.201,0.047,0.864-0.505c-0.23-0.376-0.498-0.711-0.796-1.009c0.277-0.53,0.21-1.842,0.921-1.404
		c0.253,0.557,0.506,1.113,0.759,1.67c0.266,0.586,1.128,0.078,0.863-0.505c-0.162-0.356-0.323-0.711-0.485-1.067
		c0.022-0.449,0.021-0.863,0.007-1.257l0.979,1.148c0.419,0.491,1.123-0.219,0.707-0.707c-0.648-0.76-1.297-1.521-1.945-2.281
		c-0.59-2.15-2.209-3.304-5.41-4.398c5.995-7.652,14.713-9.932,23.722-11.611c0.049,0.375,0.098,0.751,0.161,1.229
		c1.464-1.438,2.884-2.834,4.264-4.19c0.388,0.636,0.798,1.307,1.264,2.072c2.096-2.638,3.385-3.25,4.582-1.745l0.52,7.036
		c0.047,0.639,1.048,0.644,1,0c-0.203-2.741-0.405-5.483-0.608-8.224c0.048-0.734,0.098-1.509,0.159-2.434
		c0.808,4.021,1.617,8.041,2.425,12.062c0.127,0.632,1.091,0.364,0.964-0.266c-0.778-3.871-1.556-7.741-2.335-11.612
		c0.696,0.471,1.336,0.905,1.943,1.317c0.835,1.321,1.473,2.762,1.894,4.319c0.168,0.622,1.133,0.358,0.964-0.266
		c-0.472-1.744-1.209-3.363-2.177-4.837c-0.529-1.298-1.081-2.652-1.634-4.01c0.005-0.004,0.01-0.007,0.016-0.011
		c1.216,2.164,2.432,4.328,3.648,6.492c0.316,0.562,1.18,0.058,0.864-0.505l-3.176-5.651c0.191,0.174,0.385,0.351,0.597,0.544
		c1.241,1.64,2.481,3.28,3.722,4.92c0.384,0.507,1.253,0.01,0.864-0.505c-1.439-1.902-2.878-3.805-4.318-5.707
		c-0.219-0.528-0.401-1.029-0.517-1.517c1.736,2.13,3.472,4.259,5.209,6.389c0.408,0.5,1.111-0.212,0.707-0.707
		c-1.981-2.43-3.962-4.859-5.943-7.289c0.031-0.139,0.082-0.278,0.129-0.417c1.356,1.563,2.712,3.126,4.067,4.69
		c0.423,0.488,1.127-0.222,0.707-0.707c-1.422-1.639-2.844-3.278-4.265-4.917l7.073-3.902c0.565-0.311,0.061-1.175-0.505-0.863
		c-1.719,0.948-3.437,1.896-5.155,2.844c0.937-0.754,1.874-1.508,2.811-2.261c0.503-0.404-0.21-1.107-0.707-0.707
		c-1.248,1.004-2.497,2.009-3.745,3.013c-0.704-0.84-1.099-1.652-1.304-2.447c1.663-2.052,3.326-4.103,4.99-6.155
		c0.402-0.496-0.301-1.208-0.707-0.707l-3.669,4.525c0.713-1.656,1.426-3.313,2.139-4.969c0.252-0.586-0.609-1.096-0.864-0.505
		c-0.543,1.261-1.086,2.523-1.629,3.784c0.402-1.368,0.947-2.723,1.103-4.114c0.123-0.435,0.246-0.869,0.37-1.304
		c0.176-0.622-0.789-0.885-0.964-0.266c-0.644,2.27-1.287,4.54-1.93,6.809c-0.003,0.008-0.007,0.017-0.01,0.025
		c-0.185-0.036-0.371-0.071-0.556-0.107c0.019-0.536,0.039-1.072,0.058-1.609l1.108-4.298c0.161-0.625-0.803-0.89-0.964-0.266
		c-0.202,0.785-0.405,1.57-0.607,2.354c-0.228,0.598-0.467,1.225-0.796,2.09c-0.134-2.117-0.268-4.234-0.402-6.351
		c-0.041-0.64-1.041-0.644-1,0l0.217,3.416c-0.621,0.167-1.347,0.56-1.734,0.344c-4.763-2.657-9.412-5.521-14.202-8.125
		c-8.219-4.468-16.93-4.518-25.594-1.847c-3.6,1.11-6.488,0.581-9.64-0.978c-8.027-3.97-16.542-5.835-25.516-5.346
		c-10.612,0.579-19.615,4.752-27.114,12.25c-0.548,0.548-1.198,0.995-1.801,1.489c-1.394,2.058-2.789,4.115-4.183,6.173
		c-1.314,7.579-3.283,15.159,0.354,22.971c-0.221,0.117-0.442,0.235-0.665,0.347c-2.367,0.822-4.579,1.573-6.763,2.373
		c-0.746,0.273-1.485,0.567-2.224,0.862c-0.956,0.22-1.922,0.417-2.905,0.573C4.645,89.252,5.998,94.07,9.151,93.569z"/>
</g>
</svg>
