<?xml version="1.0" encoding="iso-8859-1"?>
<!-- Generator: Adobe Illustrator 17.1.0, SVG Export Plug-In . SVG Version: 6.00 Build 0)  -->
<!DOCTYPE svg PUBLIC "-//W3C//DTD SVG 1.1//EN" "http://www.w3.org/Graphics/SVG/1.1/DTD/svg11.dtd">
<svg version="1.1" id="Capa_1" xmlns="http://www.w3.org/2000/svg" xmlns:xlink="http://www.w3.org/1999/xlink" x="0px" y="0px"
	 viewBox="0 0 150 150" style="enable-background:new 0 0 150 150;" xml:space="preserve">
<g>
	<path d="M145.451,115.504c-0.03-0.375-0.177-0.682-0.446-0.945c-0.864-0.843-1.73-1.684-2.577-2.543
		c-0.303-0.308-0.656-0.499-1.055-0.625c-0.251-0.079-0.507-0.146-0.761-0.216c-2.869-0.787-5.696-1.732-8.623-2.301
		c-0.195-0.038-0.383-0.156-0.553-0.269c-1.084-0.719-2.164-1.445-3.241-2.176c-0.153-0.104-0.32-0.219-0.417-0.37
		c-0.386-0.602-0.779-1.203-1.11-1.835c-0.699-1.336-1.261-2.753-2.058-4.024c-1.505-2.402-2.875-4.866-3.999-7.467
		c-0.12-0.277-0.256-0.546-0.379-0.822c-0.162-0.361-0.352-0.713-0.473-1.087c-0.546-1.685-1.074-3.376-1.604-5.066
		c-0.344-1.096-0.628-2.213-1.029-3.287c-0.925-2.475-2.167-4.81-3.281-7.201c-0.095-0.204-0.219-0.411-0.246-0.628
		c-0.105-0.841-0.246-1.687-0.244-2.53c0.003-1.621,0.077-3.243,0.155-4.863c0.113-2.363-0.036-4.712-0.332-7.054
		c-0.148-1.167-0.531-2.269-0.948-3.364c-0.13-0.343-0.187-0.728-0.205-1.097c-0.042-0.884-0.032-1.771-0.057-2.657
		c-0.053-1.899-0.363-3.749-1.089-5.515c-0.092-0.224-0.204-0.444-0.335-0.648c-0.355-0.556-0.708-1.119-1.369-1.312
		c-0.05-0.388,0.164-0.593,0.374-0.772c0.51-0.436,0.685-0.431,1.28-0.051c0.151,0.097,0.293,0.263,0.531,0.101
		c0.089-0.541,0.182-1.104,0.276-1.667c0.034-0.009,0.068-0.019,0.102-0.028c0.098,0.177,0.196,0.354,0.295,0.53
		c0.274-0.26,0.388-0.426,0.486-0.602c0.359-0.64,0.738-1.261,1.181-1.853c1.031-1.379,1.605-2.944,1.554-4.685
		c-0.016-0.534,0.148-0.879,0.593-1.163c0.541-0.345,0.885-0.855,1.066-1.48c0.201-0.692,0.339-1.388,0.315-2.115
		c-0.023-0.679-0.024-1.358,0.18-2.019c0.247-0.801,0.493-1.603,0.735-2.405c0.08-0.163,0.132-0.334,0.152-0.507
		c0.071-0.236,0.141-0.473,0.211-0.709c0.095-0.323,0.16-0.66,0.192-0.995c0.065-0.669-0.568-1.623-1.198-1.821
		c-0.895-0.281-1.774-0.263-2.629,0.169c-0.399,0.202-0.81,0.381-1.252,0.587c-0.228-0.39-0.434-0.742-0.643-1.1
		c0.189-0.171,0.348-0.316,0.571-0.518c-0.218-0.154-0.377-0.271-0.542-0.381c-0.61-0.408-1.263-0.764-1.822-1.232
		c-0.794-0.665-1.525-1.405-2.271-2.125c-0.613-0.592-1.386-0.887-2.152-1.2c-0.026-0.011-0.069,0.019-0.105,0.03
		c-0.053,0.106-0.106,0.211-0.172,0.34c-0.755-0.48-1.537-0.523-2.369-0.417c-0.879,0.112-1.766,0.109-2.64-0.112
		c-0.434-0.11-0.878-0.18-1.324-0.27c-0.051,0.1-0.096,0.162-0.114,0.231c-0.022,0.084-0.023,0.174-0.038,0.307
		c-0.634-0.298-1.232-0.56-1.937-0.565c-0.004,0.626-0.417,0.771-0.888,0.857c-0.259,0.047-0.517,0.104-0.774,0.165
		c-0.183,0.043-0.376,0.072-0.541,0.154c-1.052,0.523-2.02,1.173-2.893,1.961c-0.173,0.156-0.327,0.335-0.493,0.507
		c-0.177-0.216-0.314-0.384-0.509-0.623c-0.417,0.591-0.793,1.122-1.175,1.663c-0.146-0.13-0.266-0.236-0.413-0.367
		c-1.233,0.871-1.594,2.251-2.165,3.588c-0.5-0.347-0.979-0.64-1.411-0.991c-0.411-0.335-0.884-0.502-1.375-0.629
		c-0.589-0.152-1.022,0.204-1.03,0.786c-0.002,0.172,0.016,0.353,0.056,0.528c0.008,0.061,0.024,0.121,0.049,0.178
		c0.025,0.076,0.055,0.149,0.091,0.218c0.385,0.753,0.847,1.466,1.237,2.216c0.032,0.062,0.064,0.124,0.096,0.187
		c0.002,0.006,0.004,0.011,0.006,0.017c0.349,1,0.493,1.88,0.501,2.9c0.001,0.19,0.068,0.367,0.176,0.51
		c0.008,0.164,0.014,0.327,0.018,0.491c0.022,0.973,0.084,1.918,0.588,2.783c0.13,0.223,0.068,0.392-0.178,0.495
		c-0.261,0.109-0.516,0.23-0.775,0.343c-1.641,0.714-3.277,1.439-4.925,2.137c-1.042,0.441-2.073,0.887-2.901,1.693
		c-0.175,0.171-0.372,0.319-0.562,0.474c-0.576,0.471-1.229,0.763-1.941,1c-2.612,0.87-5.296,1.48-7.933,2.254
		c-2.204,0.647-4.432,1.213-6.497,2.264c-0.771,0.393-1.58,0.713-2.37,1.069c-0.171,0.077-0.348,0.15-0.504,0.253
		c-1.51,0.997-3.069,1.92-4.464,3.086c-0.635,0.531-1.269,1.086-1.977,1.506c-2.5,1.484-4.895,3.124-7.27,4.794
		c-0.771,0.542-1.516,1.121-2.283,1.668c-0.225,0.16-0.469,0.326-0.73,0.398c-1.756,0.49-3.389,1.246-4.944,2.19
		c-1.337,0.812-2.692,1.596-4.046,2.379c-0.239,0.138-0.509,0.249-0.778,0.307c-3.225,0.69-6.44,1.421-9.562,2.495
		c-1.6,0.551-3.209,1.121-4.724,1.865c-1.858,0.913-3.6,2.039-5.199,3.387c-1.013,0.854-1.963,1.743-2.827,2.752
		c-1.002,1.17-1.791,2.447-2.514,3.802c-1.095,2.053-1.762,4.256-2.328,6.473c-0.51,1.997-0.96,4.034-1.026,6.121
		c-0.028,0.885-0.158,1.769-0.157,2.653c0.001,0.941,0.101,1.882,0.161,2.822c0.028,0.433,0.022,0.872,0.102,1.296
		c0.325,1.742,0.682,3.476,1.407,5.109c0.252,0.567,0.423,1.172,0.696,1.728c0.883,1.8,1.93,3.497,3.257,5.01
		c0.199,0.227,0.365,0.482,0.563,0.708c0.373,0.424,0.738,0.858,1.143,1.249c1.112,1.071,2.243,2.122,3.383,3.197
		c-0.028,0.04-0.058,0.113-0.112,0.159c-0.641,0.555-1.26,1.14-1.936,1.649c-1.13,0.85-2.294,1.654-3.448,2.472
		c-0.829,0.588-1.47,1.299-1.569,2.365c-0.067,0.729-0.035,1.461,0.502,2.019c0.682,0.709,1.47,1.299,2.352,1.744
		c2.524,1.271,5.062,2.516,7.579,3.803c0.925,0.473,1.754,1.078,2.388,1.942c0.848,1.155,1.734,2.284,2.644,3.391
		c0.316,0.385,0.74,0.686,1.136,1c0.416,0.33,0.906,0.195,1.364,0.13c0.282-0.04,0.476-0.393,0.43-0.698
		c-0.033-0.222-0.099-0.441-0.163-0.657c-0.181-0.615-0.362-1.229-0.556-1.84c-0.08-0.251,0.012-0.345,0.283-0.371
		c0.084,0.167,0.172,0.33,0.25,0.497c0.491,1.06,0.977,2.123,1.474,3.181c0.078,0.165,0.173,0.357,0.317,0.45
		c0.447,0.29,0.908,0.485,1.482,0.271c0.645-0.24,0.844-0.435,0.886-1.122c0.004-0.064,0.027-0.126,0.035-0.162
		c0.339,0.117,0.628,0.258,0.933,0.314c0.881,0.161,1.614-0.391,1.319-1.299c-0.121-0.373-0.157-0.775-0.216-1.166
		c-0.177-1.172-0.499-2.32-0.506-3.521c-0.007-1.207-0.06-2.413-0.11-3.619c-0.034-0.828-0.327-1.504-1.175-1.816
		c-0.247-0.091-0.484-0.21-0.732-0.294c-0.75-0.253-1.492-0.539-2.257-0.732c-1.579-0.398-2.999-1.094-4.267-2.11
		c-0.154-0.123-0.317-0.233-0.481-0.352c0.608-0.634,0.608-0.633,1.327-0.344c0.105,0.042,0.21,0.09,0.319,0.115
		c1.614,0.374,3.222,0.779,4.846,1.106c1.386,0.279,2.791,0.469,4.213,0.387c0.958-0.055,1.918-0.116,2.871-0.225
		c1.44-0.165,2.872-0.362,4.265-0.815c1.082-0.352,2.095-0.844,3.128-1.299c1.896-0.836,3.595-1.981,5.176-3.307
		c1.026-0.861,1.98-1.794,2.875-2.797c1.733-1.945,3.386-3.955,4.984-6.009c0.769-0.989,1.642-1.867,2.562-2.707
		c0.302-0.276,0.653-0.466,1.038-0.621c-0.066,0.234-0.164,0.432-0.269,0.626c-0.631,1.159-1.348,2.28-1.874,3.485
		c-0.693,1.586-1.265,3.228-1.834,4.865c-0.488,1.403-0.512,2.846-0.135,4.285c0.048,0.183,0.186,0.359,0.323,0.497
		c0.27,0.272,0.618,0.402,0.987,0.513c0.664,0.198,1.311,0.088,1.955-0.045c1.568-0.325,3.127-0.689,4.697-1.004
		c0.682-0.137,1.384-0.287,2.07-0.258c1.07,0.045,2.139,0.201,3.198,0.374c1.602,0.262,3.207,0.471,4.831,0.525
		c1.173,0.039,2.226-0.352,3.215-0.922c0.573-0.33,0.631-1.139,0.115-1.44c-0.366-0.214-0.787-0.365-1.203-0.455
		c-0.717-0.156-1.458-0.2-2.171-0.37c-0.674-0.16-1.332-0.403-1.983-0.646c-0.325-0.121-0.34-0.517-0.046-0.703
		c0.157-0.099,0.337-0.188,0.517-0.218c0.576-0.096,1.154-0.196,1.736-0.234c1.467-0.095,2.937-0.151,4.404-0.236
		c0.599-0.034,1.085,0.147,1.534,0.559c1.152,1.058,2.331,2.086,3.506,3.119c0.532,0.467,1.144,0.658,1.869,0.636
		c0.781-0.024,1.347-0.688,0.953-1.461c-0.174-0.342-0.276-0.721-0.414-1.095c0.953-0.179,1.431-1.438,0.836-2.217
		c-1.271-1.668-2.603-3.279-4.147-4.703c-0.422-0.389-0.931-0.65-1.506-0.701c-0.757-0.067-1.517,0.017-2.239,0.234
		c-2.061,0.618-4.169,1.026-6.264,1.492c-0.2,0.044-0.41,0.074-0.614,0.068c-0.51-0.017-0.679-0.262-0.51-0.744
		c0.194-0.551,0.414-1.093,0.622-1.638c0.705-1.847,1.674-3.545,2.946-5.057c1.035-1.229,1.978-2.522,2.839-3.876
		c0.641-1.007,1.361-1.953,2.238-2.761c0.547-0.504,0.894-1.108,1.144-1.784c0.087-0.235,0.125-0.488,0.196-0.774
		c0.11,0.081,0.188,0.129,0.254,0.19c0.87,0.809,1.755,1.601,2.497,2.538c0.492,0.62,1.008,1.223,1.534,1.815
		c1.062,1.194,1.894,2.526,2.555,3.98c0.381,0.839,0.856,1.635,1.278,2.456c0.391,0.761,0.955,1.35,1.707,1.753
		c0.262,0.14,0.453,0.334,0.569,0.603c0.3,0.691,0.595,1.384,0.896,2.074c0.079,0.181,0.169,0.357,0.268,0.565
		c0.152-0.121,0.244-0.194,0.348-0.276c0.223,0.45,0.423,0.876,0.641,1.293c0.509,0.969,1.295,1.675,2.266,2.128
		c0.816,0.38,1.679,0.671,2.541,0.934c1.621,0.495,3.254,0.954,4.889,1.401c0.398,0.109,0.65,0.281,0.795,0.685
		c0.49,1.372,1.193,2.643,1.921,3.9c0.321,0.555,0.752,0.986,1.407,1.136c0.7,0.161,1.206-0.201,1.209-0.909
		c0.001-0.334-0.045-0.68-0.135-1.002c-0.328-1.18-0.685-2.352-1.028-3.528c-0.051-0.173-0.087-0.35-0.13-0.525
		c0.044-0.02,0.088-0.039,0.133-0.059c0.105,0.18,0.233,0.351,0.311,0.542c0.621,1.517,1.223,3.043,1.855,4.556
		c0.135,0.322,0.334,0.639,0.571,0.894c0.63,0.675,1.83,0.602,2.385-0.146c0.188-0.254,0.368-0.375,0.686-0.384
		c0.414-0.012,0.722-0.23,0.797-0.664c0.064-0.368,0.127-0.742,0.123-1.113c-0.003-0.295,0.016-0.528,0.226-0.772
		c0.187-0.217,0.349-0.518,0.377-0.796c0.051-0.521,0.053-1.062-0.023-1.58c-0.224-1.528-0.491-3.05-0.754-4.572
		c-0.034-0.199-0.125-0.392-0.213-0.577c-0.302-0.631-0.828-0.995-1.461-1.256c-3.223-1.331-6.388-2.791-9.523-4.318
		c-0.236-0.115-0.468-0.245-0.684-0.394c-0.869-0.6-1.732-1.208-2.593-1.82c-0.167-0.119-0.334-0.251-0.463-0.408
		c-0.818-0.994-1.489-2.084-2.089-3.221c-0.97-1.838-1.722-3.766-2.431-5.717c-1.333-3.666-2.595-7.359-4.176-10.93
		c-0.122-0.275-0.25-0.549-0.394-0.813c-0.873-1.607-1.753-3.21-2.627-4.816c-0.069-0.127-0.115-0.266-0.195-0.452
		c0.831-0.423,1.613-0.878,2.44-1.23c2.309-0.983,4.567-2.063,6.726-3.344c0.12-0.071,0.264-0.104,0.415-0.161
		c0.075,0.183,0.137,0.319,0.186,0.459c0.691,1.994,1.361,3.996,1.855,6.05c0.088,0.365,0.195,0.731,0.227,1.103
		c0.106,1.202,0.197,2.405,0.262,3.609c0.048,0.886,0.014,1.77-0.325,2.613c-0.077,0.192-0.142,0.39-0.195,0.59
		c-0.024,0.091-0.004,0.194-0.004,0.347c0.613-0.228,0.942-0.766,1.575-1.012v2.019c0.369-0.076,0.651-0.133,0.971-0.199
		c0.221,0.931,0.431,1.827,0.646,2.723c0.222,0.929,0.649,1.765,1.178,2.552c0.043,0.064,0.143,0.089,0.245,0.149
		c0.216-0.437-0.074-0.979,0.38-1.365c0.244,0.426,0.456,0.823,0.693,1.204c1.075,1.727,2.083,3.504,3.607,4.901
		c0.151,0.139,0.269,0.315,0.397,0.478c0.986,1.264,1.948,2.548,2.959,3.792c1.656,2.037,3.153,4.183,4.573,6.388
		c1.389,2.156,2.812,4.29,4.22,6.433c0.738,0.658,0.731,1.53,0.645,2.399c-0.099,0.999-0.067,1.991-0.026,2.991
		c0.026,0.633,0.205,1.13,0.676,1.533c0.171,0.146,0.338,0.304,0.528,0.421c1.795,1.111,3.602,2.202,5.39,3.325
		c0.7,0.44,1.408,0.891,2.022,1.438c0.593,0.529,1.278,0.661,2.002,0.807c0.869,0.175,1.515-0.929,1.349-1.542
		c-0.135-0.498-0.375-1.001-0.691-1.408c-0.388-0.5-0.872-0.941-1.371-1.336c-0.529-0.419-1.117-0.766-1.692-1.123
		c-0.361-0.224-0.664-0.485-0.876-0.938c0.168-0.092,0.314-0.233,0.472-0.247c0.316-0.029,0.65-0.04,0.956,0.031
		c1.872,0.43,3.74,0.879,5.605,1.337c0.232,0.057,0.456,0.178,0.662,0.304c0.949,0.58,1.88,1.191,2.839,1.754
		c0.599,0.351,1.234,0.64,1.857,0.948c0.404,0.199,0.839,0.207,1.273,0.146c0.844-0.118,1.146-0.743,0.719-1.47
		c-0.1-0.169-0.207-0.334-0.346-0.555c0.449,0.142,0.809,0.316,1.185,0.364c0.946,0.121,1.691-0.346,1.578-1.305
		c-0.013-0.112,0.032-0.291,0.113-0.344c0.328-0.218,0.505-0.536,0.665-0.873v-0.453c-0.177-0.344-0.278-0.727-0.588-1.003
		C145.478,115.841,145.462,115.649,145.451,115.504z M23.983,102.085c-1.282,1.302-2.617,2.553-3.665,4.072
		c-0.706,1.024-1.483,1.999-2.229,2.995c-0.11,0.147-0.23,0.287-0.396,0.493c-0.743-0.664-1.505-1.254-2.156-1.949
		c-0.954-1.017-1.828-2.108-2.736-3.169c-0.073-0.086-0.151-0.17-0.213-0.264c-1.146-1.765-2.042-3.652-2.653-5.663
		c-0.217-0.716-0.276-1.48-0.397-2.224c-0.353-2.177-0.255-4.356-0.07-6.542c0.198-2.339,0.725-4.614,1.285-6.882
		c0.161-0.653,0.488-1.263,0.714-1.902c0.552-1.56,1.484-2.919,2.286-4.346c0.063-0.113,0.158-0.212,0.25-0.304
		c0.787-0.787,1.574-1.574,2.37-2.352c0.146-0.142,0.322-0.261,0.501-0.361c1.134-0.637,2.269-1.271,3.41-1.894
		c0.245-0.134,0.511-0.242,0.78-0.32c0.994-0.292,1.983-0.608,2.993-0.835c0.954-0.214,1.937-0.292,2.894-0.494
		c1.127-0.238,2.2,0.087,3.375,0.162c-0.223,0.592-0.339,1.142-0.762,1.559c-0.228,0.225-0.446,0.461-0.659,0.701
		c-0.067,0.075-0.101,0.179-0.185,0.334c0.573-0.028,0.896-0.477,1.439-0.585c-0.498,1.064-0.887,2.095-1.134,3.302
		c0.62-0.31,0.803-0.884,1.322-1.22c-0.209,0.882-0.536,1.681-0.362,2.555c0.209,0.028,0.389,0.052,0.627,0.084
		c-0.034,0.645-0.067,1.275-0.105,1.994c0.329-0.048,0.589-0.086,0.883-0.129c-0.228,1.32-0.45,2.605-0.672,3.891
		c0.038,0.028,0.075,0.056,0.113,0.084c0.168-0.083,0.335-0.167,0.549-0.273c0.129,0.582,0.011,1.159,0.066,1.724
		c0.053,0.557,0.144,1.11,0.218,1.666c0.438,0.07,0.459-0.397,0.777-0.486c0.368,0.999-0.034,2.001,0.02,3.065
		c0.294-0.058,0.536-0.106,0.855-0.169c-0.241,0.516-0.45,0.965-0.693,1.485c0.536,0.051,0.778-0.409,1.242-0.462
		c0.058,0.215,0.129,0.441,0.178,0.671c0.225,1.05,0.45,2.097,0.423,3.184c-0.019,0.755-0.316,1.398-0.765,1.956
		c-0.641,0.796-1.41,1.449-2.306,1.971c-1.286,0.75-2.521,1.586-3.798,2.353c-1.133,0.681-2.222,1.422-3.264,2.234
		C24.213,101.89,24.088,101.978,23.983,102.085z M64.881,93.496c-0.649,1.17-1.298,2.341-1.936,3.517
		c-0.136,0.252-0.309,0.386-0.594,0.457c-0.803,0.201-1.597,0.439-2.394,0.667c-0.126,0.036-0.251,0.081-0.37,0.136
		c-1.606,0.741-3.015,1.776-4.341,2.932c-0.141,0.123-0.259,0.273-0.379,0.419c-1.605,1.952-3.205,3.907-4.816,5.854
		c-0.287,0.347-0.609,0.667-0.928,0.986c-0.253,0.253-0.534,0.478-0.788,0.73c-1.572,1.56-3.32,2.91-5.149,4.142
		c-0.85,0.572-1.811,1.006-2.766,1.39c-1.509,0.607-3.1,0.941-4.718,1.093c-1.614,0.151-3.232,0.16-4.856,0.064
		c-1.245-0.073-2.395-0.47-3.569-0.807c-0.101-0.029-0.197-0.078-0.311-0.124c0.044-0.081,0.059-0.142,0.097-0.173
		c0.93-0.765,1.808-1.587,2.841-2.232c3.778-2.359,7.697-4.453,11.724-6.349c0.733-0.345,1.474-0.672,2.221-0.985
		c0.872-0.365,1.596-0.932,2.184-1.652c0.531-0.649,0.817-1.439,1.05-2.238c0.57-1.953,1.168-3.9,1.671-5.87
		c0.288-1.128,0.428-2.295,0.606-3.45c0.391-2.537,0.542-5.097,0.692-7.656c0.005-0.088,0.026-0.174,0.051-0.338
		c0.141,0.127,0.239,0.202,0.32,0.291c0.92,1.012,1.459,2.182,1.485,3.568c0.002,0.131,0.062,0.26,0.13,0.528
		c0.272-0.364,0.457-0.611,0.68-0.911c0.153,0.184,0.275,0.341,0.408,0.488c0.304,0.334,0.602,0.674,0.923,0.992
		c0.316,0.312,0.339,0.3,0.688-0.013c0.083-0.075,0.168-0.147,0.271-0.238c0.154,0.081,0.308,0.15,0.448,0.238
		c0.897,0.565,1.877,0.956,2.84,1.387c0.702,0.314,1.417,0.361,2.156,0.292c0.468-0.044,0.933-0.123,1.4-0.184
		c0.067-0.009,0.136-0.001,0.259-0.001c-0.206,0.303-0.594,0.335-0.78,0.735c0.361,0,0.637,0.038,0.899-0.007
		c0.693-0.119,1.352,0.055,2.01,0.205c0.434,0.099,0.712,0.418,0.808,0.856C65.148,92.672,65.102,93.096,64.881,93.496z"/>
</g>
</svg>
