<?xml version="1.0" encoding="iso-8859-1"?>
<!-- Generator: Adobe Illustrator 17.1.0, SVG Export Plug-In . SVG Version: 6.00 Build 0)  -->
<!DOCTYPE svg PUBLIC "-//W3C//DTD SVG 1.1//EN" "http://www.w3.org/Graphics/SVG/1.1/DTD/svg11.dtd">
<svg version="1.1" id="Capa_1" xmlns="http://www.w3.org/2000/svg" xmlns:xlink="http://www.w3.org/1999/xlink" x="0px" y="0px"
	 viewBox="0 0 150 150" style="enable-background:new 0 0 150 150;" xml:space="preserve">
<g>
	<path d="M144.161,27.461c-0.432-0.222-0.895-0.384-1.332-0.598c-2.904-1.426-5.804-2.859-8.705-4.291
		c-0.023-0.012-0.031-0.054-0.067-0.121c0.348-0.271,0.701-0.55,1.058-0.823c0.297-0.228,0.432-0.529,0.296-0.878
		c-0.18-0.461-0.484-0.883-0.601-1.355c-0.257-1.031-1.161-1.398-1.896-1.893c-0.742-0.499-1.613-0.804-2.412-1.222
		c-0.493-0.258-0.975-0.544-1.432-0.861c-1.031-0.716-2.018-1.5-3.07-2.183c-1.518-0.986-3.233-1.334-5.022-1.405
		c-0.554-0.022-1.104-0.133-1.656-0.203h-1.476c-0.081,0.03-0.16,0.071-0.243,0.089c-1.439,0.324-2.899,0.574-4.313,0.983
		c-2.144,0.62-4.031,1.693-5.316,3.597c-0.264,0.392-0.403,0.873-0.571,1.324c-0.133,0.356-0.154,0.77-0.343,1.087
		c-0.437,0.733-0.92,1.444-1.432,2.127c-1.086,1.448-2.808,2.285-3.76,3.869c-1.613,1.142-3.236,2.292-5.119,2.93
		c-1.87,0.633-3.823,0.909-5.803,1.003c-0.496,0.024-1.086,0.148-1.441,0.451c-0.313,0.267-0.584,0.499-0.981,0.575
		c-1.093,0.21-2.195,0.383-3.277,0.64c-0.565,0.134-1.081,0.471-1.645,0.614c-1.513,0.383-3.036,0.73-4.562,1.054
		c-1.31,0.278-2.632,0.495-3.945,0.76c-1.054,0.213-2.103,0.457-3.153,0.69c-0.71,0.157-1.436,0.265-2.124,0.488
		c-2.227,0.721-4.46,1.373-6.836,1.344c-0.575-0.007-1.16,0.049-1.724,0.158c-1.087,0.21-2.157,0.459-3.222,0.81
		c-1.205,0.397-2.527,0.504-3.808,0.591c-2.046,0.138-4.1,0.162-6.151,0.215c-0.251,0.006-0.509-0.097-0.757-0.172
		c-1.063-0.32-1.839-1.029-2.541-1.855c-0.508-0.598-1.008-1.224-1.615-1.708c-0.521-0.416-1.176-0.677-1.793-0.958
		c-2.403-1.093-4.802-2.184-7.369-2.872c-1.634-0.438-3.263-0.748-4.958-0.656c-0.103,0.006-0.208-0.04-0.357-0.07
		c0.121-0.096,0.182-0.145,0.284-0.226c-1.146,0-2.243-0.119-3.305,0.025c-2.095,0.283-4.063,0.984-5.689,2.403
		c-0.771,0.673-1.657,1.317-2.165,2.169c-1.168,1.957-2.261,3.98-3.155,6.074c-1.049,2.457-1.913,5-2.74,7.543
		c-0.368,1.131-0.438,2.357-0.663,3.535c-0.157,0.819-0.359,1.63-0.521,2.448c-0.458,2.32-0.912,4.637-1.807,6.847
		c-0.277,0.683-0.425,1.442-0.498,2.179c-0.159,1.599-0.338,3.191-0.854,4.72c-0.703,2.083-1.437,4.157-3.691,5.13
		c-0.077,0.033-0.144,0.092-0.215,0.14v0.527c0.07,0.145,0.216,0.301,0.197,0.432c-0.071,0.472,0.175,0.643,0.567,0.784
		c1.08,0.388,2.003,0.085,2.808-0.633c2.235-1.991,3.955-4.35,4.744-7.266c1.107-4.092,2.251-8.182,3.134-12.325
		c0.694-3.255,1.659-6.421,2.575-9.607c0.168-0.584,0.372-1.158,0.53-1.745c0.644-2.399,1.554-4.622,3.604-6.228
		c0.825-0.646,1.689-0.984,2.718-1.06c1.626-0.121,3.092,0.319,4.526,1.047c1.669,0.847,2.893,2.173,4.112,3.529
		c0.672,0.747,1.367,1.503,2.443,1.503c-0.1,0.213-0.22,0.454-0.328,0.7c-0.109,0.249-0.156,0.542-0.318,0.746
		c-0.371,0.465-0.787,0.896-1.201,1.326c-1.039,1.08-1.94,2.266-2.582,3.619c-0.848,1.789-1.214,3.707-1.268,5.674
		c-0.044,1.593-0.047,3.185-0.437,4.744c-0.205,0.82-0.498,1.629-0.607,2.461c-0.149,1.142-0.126,2.305-0.24,3.452
		c-0.129,1.302-0.324,2.598-0.499,3.895c-0.103,0.759-0.301,1.513-0.32,2.273c-0.047,1.878-0.046,3.758-0.008,5.636
		c0.058,2.868,0.303,5.71,1.032,8.509c0.591,2.267,1.241,4.465,3.004,6.148c0.241,0.23,0.346,0.531-0.166,0.632
		c-0.121,0.024-0.228,0.135-0.336,0.213c-0.712,0.516-1.363,1.175-2.153,1.503c-0.574,0.238-0.743,0.62-0.957,1.055
		c-0.461,0.937-0.858,1.908-1.366,2.818c-0.739,1.326-1.573,2.598-2.328,3.915c-1.091,1.902-2.317,3.701-4.191,4.903
		c-1.331,0.854-2.567,1.805-3.788,2.808c-2.001,1.644-2.111,3.824-0.771,5.818c0.384,0.572,1.002,1.003,1.073,1.768
		c0.004,0.04,0.067,0.075,0.102,0.112c0.28,0.293,0.568,0.578,0.837,0.879c0.813,0.911,1.711,1.766,2.404,2.762
		c0.77,1.106,1.395,2.321,2.001,3.529c0.569,1.134,0.934,2.347,2.537,2.491c1.284,0.116,2.062-0.183,2.566-1.332
		c0.027-0.061,0.053-0.122,0.059-0.137c-0.209-0.356-0.865-0.206-0.807-0.882c0.883,0.065,1.73,0.073,2.558,0.203
		c0.904,0.142,1.829,0.299,2.673,0.632c0.784,0.309,1.557,0.41,2.357,0.339c0.471-0.042,1.1,0.139,1.3-0.596
		c0.019-0.07,0.344-0.1,0.513-0.072c0.142,0.024,0.276,0.148,0.395,0.251c0.742,0.644,1.56,0.502,2.367,0.196
		c0.191-0.073,0.399-0.322,0.444-0.525c0.24-1.075-0.481-2.716-1.41-3.273c-0.489-0.292-0.988-0.569-1.497-0.825
		c-0.672-0.337-1.358-0.645-2.039-0.966c-0.22-0.104-0.445-0.198-0.661-0.31c-0.524-0.272-1.045-0.551-1.566-0.83
		c-1.042-0.56-2.252-0.559-3.335-1.091c-1.071-0.526-1.919-1.243-2.752-2.035c-0.371-0.353-0.359-0.705-0.055-1.104
		c0.318-0.416,0.546-0.913,0.908-1.281c0.595-0.604,1.245-1.163,1.917-1.682c0.405-0.313,0.926-0.472,1.343-0.773
		c1.219-0.882,2.438-1.768,3.609-2.711c1.677-1.35,3.506-2.519,4.95-4.15c0.896-1.012,1.79-2.03,2.744-2.985
		c1.899-1.9,3.836-3.762,5.767-5.63c0.463-0.448,0.699-0.433,1.118,0.062c0.234,0.277,0.379,0.629,0.608,0.912
		c0.884,1.09,2.009,1.805,3.379,2.133c0.161,0.039,0.411,0.125,0.439,0.235c0.23,0.904,0.418,1.819,0.613,2.732
		c0.009,0.043-0.028,0.1-0.052,0.146c-0.501,0.965-0.61,2.002-0.516,3.061c0.096,1.076,0.244,2.146,0.375,3.219
		c0.055,0.449,0.118,0.898,0.187,1.345c0.197,1.289,0.415,2.575,0.594,3.867c0.098,0.71,0.089,1.436,0.209,2.141
		c0.207,1.218,0.292,2.419,0.035,3.645c-0.282,1.348-0.254,2.748-0.956,4.021c-0.376,0.681-0.497,1.508-0.687,2.281
		c-0.048,0.196,0.007,0.523,0.143,0.638c0.421,0.355,0.882,0.678,1.366,0.941c1.513,0.822,3.069,1.567,4.56,2.425
		c1.344,0.773,2.772,1.21,4.297,1.338c0.729,0.061,1.469-0.027,2.203-0.007c3.23,0.089,6.458,0.212,9.689,0.277
		c0.707,0.014,1.428-0.109,2.122-0.262c0.437-0.096,1.028-0.068,1.148-0.732c0.01-0.054,0.21-0.107,0.319-0.102
		c0.403,0.019,0.814,0.135,1.206,0.085c1.418-0.18,2.83-0.404,4.24-0.64c0.094-0.016,0.227-0.278,0.208-0.405
		c-0.1-0.683-0.531-1.116-1.156-1.367c-0.791-0.318-1.581-0.636-2.376-0.943c-1.461-0.565-2.939-1.064-4.502-1.286
		c-1.187-0.168-2.384-0.329-3.539-0.637c-1.918-0.511-3.867-0.567-5.826-0.613c-0.959-0.022-1.891-0.18-2.679-0.76
		c-0.244-0.18-0.461-0.49-0.543-0.781c-0.255-0.904,0.083-1.762,0.37-2.596c0.329-0.952,0.831-1.849,1.102-2.815
		c0.62-2.208,1.111-4.451,1.719-6.662c0.425-1.547,0.699-3.1,0.614-4.705c-0.056-1.051-0.122-2.102-0.21-3.151
		c-0.149-1.773,0.608-3.38,0.945-5.059c0.202-1.007,0.746-1.941,1.097-2.922c0.211-0.591,0.385-1.22,0.134-1.84
		c-0.455-1.122-0.551-2.291-0.603-3.484c-0.049-1.116-0.115-2.243-0.328-3.336c-0.234-1.2-0.703-2.34-1.592-3.24
		c-0.57-0.578-0.965-1.232-1.028-2.058c-0.007-0.085-0.011-0.233-0.047-0.243c-0.497-0.14-0.455-0.6-0.578-0.955
		c-0.497-1.441-1.035-2.871-1.463-4.333c-0.36-1.23-0.433-2.563-0.913-3.736c-0.013-0.032-0.025-0.064-0.038-0.095
		c0.898,0.071,1.795,0.064,2.694,0.143c0.818,0.147,1.615,0.367,2.393,0.66c0.825,0.39,1.604,0.859,2.337,1.408
		c-0.043-0.033-0.086-0.067-0.13-0.1c0.214,0.156,0.429,0.295,0.65,0.413c1.182,0.891,2.393,1.768,3.697,2.45
		c0.994,0.52,2.164,0.794,3.287,0.952c1.068,0.151,1.988,0.416,2.758,1.204c0.226,0.231,0.628,0.349,0.967,0.398
		c0.569,0.082,1.158,0.025,1.729,0.102c0.893,0.121,1.778,0.434,2.665,0.427c0.84-0.006,1.598,0.166,2.374,0.404
		c0.21,0.064,0.454,0.034,0.68,0.021c1.047-0.062,2.093-0.171,3.14-0.188c0.719-0.012,1.397,0.215,1.876,0.584
		c-0.085,0.634-0.179,1.161-0.224,1.692c-0.089,1.045-0.093,2.101-0.242,3.136c-0.116,0.803-0.422,1.576-0.605,2.371
		c-0.227,0.982-0.426,1.971-0.618,2.96c-0.262,1.348-0.543,2.694-0.741,4.052c-0.073,0.5-0.028,0.994-0.362,1.436
		c-0.134,0.177-0.148,0.456-0.181,0.694c-0.109,0.796-0.195,1.595-0.302,2.392c-0.141,1.055-0.396,2.106-0.419,3.162
		c-0.058,2.636-0.775,5.124-1.59,7.587c-0.442,1.335-1.173,2.578-1.565,3.923c-0.597,2.049-0.952,4.168-1.53,6.224
		c-0.285,1.015,0.028,1.954,0.037,2.927c0.001,0.155,0.123,0.322,0.22,0.461c0.576,0.823,1.378,1.178,2.375,1.196
		c1.681,0.031,3.356,0.147,5.032,0.3c1.149,0.105,2.31,0.091,3.466,0.103c0.291,0.003,0.609-0.04,0.869-0.16
		c0.803-0.371,1.548-0.258,2.299,0.137c0.635,0.334,1.489-0.027,1.527-0.518c-0.288-0.212-0.533-0.393-0.822-0.607
		c0.403-0.121,0.667-0.2,0.931-0.28c-0.148-0.324-0.285-0.654-0.45-0.969c-0.062-0.119-0.195-0.2-0.286-0.307
		c-0.815-0.957-1.958-1.367-3.073-1.8c-0.553-0.215-1.122-0.336-1.768-0.274c-0.667,0.064-1.368-0.152-2.043-0.294
		c-0.404-0.085-0.813-0.217-1.177-0.409c-0.689-0.362-0.857-0.846-0.574-1.576c0.363-0.934,0.713-1.878,1.146-2.78
		c0.985-2.056,2.06-4.07,3.02-6.138c1.159-2.496,2.254-5.022,3.337-7.552c0.291-0.681,0.458-1.419,0.642-2.141
		c0.184-0.722,0.247-1.48,0.485-2.181c0.891-2.617,1.859-5.207,2.743-7.826c0.387-1.148,0.642-2.34,0.957-3.512
		c0.053-0.008,0.105-0.017,0.158-0.025c0.158,0.279,0.388,0.54,0.459,0.84c0.127,0.535,0.179,1.091,0.226,1.641
		c0.086,1.012,0.119,2.029,0.227,3.039c0.047,0.436,0.141,0.907,0.359,1.277c0.496,0.841,1.011,1.659,1.183,2.643
		c0.077,0.445,0.202,0.881,0.296,1.323c0.228,1.068,0.553,2.129,0.643,3.208c0.072,0.859,0.333,1.587,0.758,2.3
		c0.113,0.19,0.193,0.418,0.222,0.637c0.222,1.674,0.425,3.351,0.643,5.026c0.024,0.185,0.103,0.362,0.152,0.544
		c0.37,1.353,0.818,2.691,1.085,4.063c0.229,1.175,0.249,2.391,0.719,3.519c0.291,0.699,0.291,1.414,0.189,2.16
		c-0.1,0.727-0.255,1.464,0.362,2.129c0.333,0.359,0.549,0.885,0.666,1.373c0.451,1.875,0.83,3.766,1.257,5.647
		c0.195,0.862,0.419,1.718,0.665,2.567c0.102,0.352,0.351,0.536,0.766,0.592c1.813,0.243,3.626,0.501,5.425,0.826
		c0.827,0.149,1.678,0.363,2.205,1.143h0.527c0.577-0.105,1.152-0.217,1.73-0.315c0.685-0.115,1.412-0.116,2.044-0.362
		c0.436-0.17,0.792-0.251,1.228-0.13c0.499,0.138,0.697-0.018,0.565-0.505c-0.078-0.291-0.33-0.536-0.513-0.796
		c-0.047-0.067-0.176-0.108-0.18-0.167c-0.037-0.594-0.557-0.766-0.92-1.068c-0.375-0.313-0.816-0.557-1.154-0.903
		c-1.375-1.408-3.117-2.142-4.936-2.717c-0.88-0.278-1.819-1.255-1.865-2.182c-0.134-2.681-0.361-5.365-0.343-8.046
		c0.03-4.371,0.222-8.741,0.354-13.111c0.025-0.824,0.079-1.647,0.136-2.47c0.119-1.712,0.307-3.421,0.355-5.135
		c0.033-1.187-0.131-2.379-0.188-3.57c-0.068-1.42-0.129-2.84-0.172-4.261c-0.059-1.962-0.21-3.94,0.265-5.866
		c0.561-2.275,1.22-4.525,1.849-6.783c0.34-1.219,0.786-2.399,0.923-3.683c0.178-1.678,0.493-3.342,0.78-5.007
		c0.236-1.37,0.56-2.725,0.769-4.098c0.215-1.414,0.36-2.839,0.494-4.263c0.089-0.949,0.125-1.905,0.147-2.859
		c0.025-1.115-0.095-2.243,0.037-3.344c0.135-1.133,1.382-2.174,2.338-2.174c0.856,0,0.987-0.135,1.012-1.026
		c-0.161-0.061-0.319-0.121-0.545-0.207c0.626-0.194,1.138-0.352,1.651-0.511c-0.013-0.036-0.025-0.073-0.038-0.109
		c-0.303-0.047-0.606-0.094-0.909-0.141c0.004-0.05,0.009-0.1,0.013-0.15h1.295c0-0.303-0.022-0.584,0.01-0.859
		c0.015-0.128,0.111-0.325,0.208-0.351c0.503-0.137,1.019-0.224,1.528-0.34c0.126-0.029,0.316-0.073,0.351-0.159
		c0.164-0.418,0.501-0.377,0.834-0.363c0.515,0.022,0.99-0.068,1.524-0.551c-0.477-0.044-0.812-0.074-1.22-0.111
		c0.32-0.205,0.585-0.363,0.837-0.539c1.99-1.39,4.172-2.005,6.54-1.313c1.364,0.399,2.47,0.041,3.572-0.654
		c0.177-0.112,0.38-0.2,0.523-0.346c0.815-0.829,1.462-1.865,0.887-3.034c-0.155-0.316-0.101-0.547,0.047-0.824
		c0.491-0.916,0.645-1.861,0.261-2.869c-0.083-0.217-0.064-0.519,0.019-0.741c0.124-0.33,0.346-0.623,0.526-0.931v-0.527
		C145.72,28.556,145.041,27.913,144.161,27.461z M58.671,60.25c-0.005-0.028-0.011-0.057-0.017-0.085
		c0.042-0.005,0.082-0.007,0.124-0.012C58.742,60.185,58.706,60.217,58.671,60.25z"/>
</g>
</svg>
