<?xml version="1.0" encoding="iso-8859-1"?>
<!-- Generator: Adobe Illustrator 17.1.0, SVG Export Plug-In . SVG Version: 6.00 Build 0)  -->
<!DOCTYPE svg PUBLIC "-//W3C//DTD SVG 1.1//EN" "http://www.w3.org/Graphics/SVG/1.1/DTD/svg11.dtd">
<svg version="1.1" id="Capa_1" xmlns="http://www.w3.org/2000/svg" xmlns:xlink="http://www.w3.org/1999/xlink" x="0px" y="0px"
	 viewBox="0 0 150 150" style="enable-background:new 0 0 150 150;" xml:space="preserve">
<g>
<path style="fill:#1D1D1B;" d="M146.531,43.365c-0.088-0.093-0.391,0.055-0.681,0.328c-2.224,2.098-4.56,4.098-6.571,6.384
	c-3.712,4.219-7.48,8.437-9.667,13.758c-0.209,0.509-0.992,1.199-1.408,1.136c-2.095-0.315-4.22-0.675-6.204-1.385
	c-1.041-0.372-1.925-1.401-2.684-2.298c-1.617-1.911-3.308-3.47-5.925-4.074c-2.83-0.653-5.749-1.46-8.249-2.872
	c-3.444-1.944-7.056-3.716-8.466-8.198c-1.884-5.987-5.04-11.42-10.071-15.418c-1.451-1.153-3.405-1.659-5.081-2.551
	c-0.327-0.174-0.58-0.488-0.875-0.85c-0.251-0.308-0.642-0.331-0.857-0.066c-0.131,0.161-0.262,0.32-0.394,0.476
	c-0.02,0.024-0.063,0.028-0.144,0.039c-0.083,0.012-0.346-0.229-0.588-0.544c-0.118-0.152-0.241-0.313-0.374-0.485
	c-0.243-0.315-0.561-0.272-0.711,0.097c-0.09,0.221-0.176,0.434-0.261,0.643c-0.15,0.368-0.403,0.798-0.565,0.96
	s-0.391-0.008-0.514-0.379c-0.074-0.225-0.155-0.447-0.258-0.657c-0.102-0.209-0.227-0.408-0.358-0.603
	c-0.216-0.322-0.51-0.521-0.654-0.447c-0.144,0.074-0.261,0.457-0.261,0.855c0,0.837,0,1.707,0,2.721
	c0,0.398-0.253,0.52-0.565,0.273c-0.717-0.567-1.341-1.06-2.089-1.652c-0.312-0.247-0.513-0.129-0.445,0.263
	c0.146,0.842,0.258,1.433,0.312,2.029c0.02,0.219,0.002,0.441-0.026,0.664c-0.046,0.365-0.354,0.643-0.685,0.618
	c-0.202-0.015-0.401-0.039-0.591-0.096c-0.44-0.131-0.864-0.316-1.556-0.602c-0.368-0.152-0.5,0.005-0.292,0.344
	c0.57,0.928,0.995,1.6,1.381,2.294c0.904,1.625,0.637,2.438-1.075,2.576c-0.396,0.032-0.496,0.252-0.203,0.521
	c0.363,0.334,0.682,0.622,0.815,0.979c0.271,0.727,0.404,1.506,0.548,2.28c0.073,0.391-0.174,0.778-0.554,0.896
	c-0.69,0.216-1.389,0.465-1.99,0.319c-1.969-0.481-3.872-1.252-5.775-1.974c-5.884-2.232-11.932-3.537-18.258-3.491
	c-2.511,0.018-5.024-0.194-7.537-0.249c-0.637-0.014-1.346,0.027-1.908,0.289c-3.476,1.617-6.87,3.338-9.69,6.06
	c-2.625,2.533-5.745,4.608-8.095,7.356c-2.302,2.692-4.067,5.893-5.769,9.032c-1.477,2.724-2.714,5.614-3.718,8.547
	c-0.725,2.12-1.102,4.415-1.269,6.66c-0.366,4.908-0.444,9.839,0.719,14.675c0.374,1.555,1.074,3.028,1.509,4.571
	c0.792,2.804,1.502,5.63,2.236,8.45c0.315,1.209,0.652,2.415,0.899,3.639c0.373,1.851,0.678,3.715,1.006,5.575
	c0.342,1.937,0.668,3.876,1.02,5.811c0.139,0.763,0.577,1.559,0.453,2.265c-0.348,1.98,0.788,2.237,2.265,2.249
	c2.983,0.024,5.973,0.152,8.946,0.007c0.004,0.002,0.016,0.008,0.016,0.008s2.941-0.125,5.066,0c1.018,0.06,0.207-0.684-1.196-1.406
	c0.589,0.006,1.187,0.021,1.732,0.053c1.401,0.083-0.65-1.353-2.962-2.163c-0.111-0.19-0.228-0.367-0.341-0.508
	c-1.312-1.632-3.024-3.011-3.239-5.375c-0.036-0.396,0.235-0.52,0.547-0.274c1.392,1.1,2.708,2.168,4.069,3.176
	c4.318,3.197,9.335,4.847,14.402,6.33c9.932,2.906,20.099,2.936,30.326,2.482c7.435-0.33,14.643-1.644,21.651-4.115
	c4.12-1.453,8.244-2.896,12.36-4.36c0.493-0.175,0.972-0.388,1.451-0.601c0.363-0.161,0.626-0.398,0.585-0.532
	c-0.041-0.134-0.385-0.161-0.768-0.054c-1.821,0.506-3.63,1.082-5.482,1.421c-5.291,0.97-10.592,1.909-15.917,2.67
	c-7.666,1.096-15.173-0.222-22.63-1.861c-1.74-0.383-2.816-1.542-3.753-3.184c-0.197-0.345-0.024-0.671,0.371-0.719
	c0.732-0.089,1.405-0.17,2.066-0.25c0.395-0.048,0.755-0.037,0.824-0.005c0.039,0.018,0.083,0.029,0.133,0.032
	c0.919,0.045,1.837,0.09,2.755,0.135c0.294,0.014,0.421-0.311,0.311-0.542c-0.386-0.81-1.15-1.326-1.985-1.469
	c-0.392-0.067-0.876-0.233-1.127-0.418c-0.141-0.104-0.302-0.201-0.483-0.294c-2.143-1.096-2.993-3.269-2.527-5.628
	c0.749-3.789,2.411-7.153,4.65-10.221c0.398-0.545,1.843-0.954,2.395-0.658c3.932,2.104,7.768,4.388,11.611,6.655
	c1.306,0.77,1.441,1.976,0.552,3.062c-1.072,1.309-2.227,2.552-3.45,3.871c-0.27,0.292-0.81,0.5-1.207,0.466
	c-0.422-0.036-0.843-0.073-1.265-0.109c-0.341-0.029-0.438,0.4-0.255,0.615c0.32,0.375,0.703,0.663,1.129,0.861
	c0.361,0.167,0.956,0.399,1.294,0.608c0.763,0.471,1.554,0.925,2.353,0.94c0.038,0.001,0.076,0.002,0.114,0.003
	c0.063,0.003,0.098,0.078,0.128,0.158c0.017,0.045,0.046,0.087,0.091,0.123c0.011,0.009,0.023,0.017,0.035,0.026
	c0.02,0.014-0.271,0.125-0.649,0.249c-0.641,0.21-1.282,0.419-1.923,0.629c-0.317,0.104-0.37,0.619,0,0.694
	c1.381,0.282,2.734,0.15,3.967-0.366c0.367-0.154,0.968-0.257,1.365-0.262c0.475-0.006,0.948-0.09,1.4-0.253
	c0.374-0.135,0.978-0.301,1.37-0.368c0.824-0.142,1.617-0.518,2.354-1.304c0.971-1.036,1.542-2.485,2.151-3.811
	c0.646-1.406,1.04-2.927,1.691-4.329c0.798-1.719,0.386-4.165-0.849-5.486c-2.616-2.796-5.14-5.678-7.695-8.53
	c-0.547-0.61-1.08-1.232-1.615-1.852c-0.26-0.301-0.205-0.727,0.131-0.939c3.469-2.191,7.183-3.114,11.331-1.308
	c1.611,0.701,3.242,0.639,4.864-0.176c4.185-2.103,8.414-2.51,12.81-0.476c2.109,0.976,4.343,0.682,6.677,0.372
	c3.667-0.487,7.264-1.787,11.118-0.98c2.52,0.528,4.8-0.724,6.855-2.167c0.714-0.501,1.39-1.056,2.179-1.683
	c0.311-0.248,0.784-0.208,1.053,0.085c0.625,0.681,1.274,1.388,2.092,2.28c0.269,0.293,0.463,0.209,0.448-0.188
	c-0.046-1.288,0.019-2.332-0.303-3.239c-1.036-2.912-2.34-5.729-3.446-8.618c-0.262-0.683-0.292-1.519-0.208-2.26
	c0.518-4.551,2.397-8.662,4.493-12.632c1.637-3.101,3.622-6.017,5.485-8.998C146.521,43.808,146.619,43.458,146.531,43.365z
	 M45.14,109.016c-0.191,0.071-0.272,0.108-0.333,0.087c-0.335-0.114-0.673-0.238-0.982-0.409
	c-5.449-3.002-8.466-7.914-10.669-13.497c-0.54-1.369-0.061-2.229,1.173-2.414c2.398-0.359,4.832-0.526,7.257-0.637
	c0.929-0.043,1.397,0.549,1.455,1.631c0.176,3.331,0.371,6.672,0.826,9.973c0.207,1.505,0.837,2.952,1.373,4.469
	C45.372,108.595,45.321,108.948,45.14,109.016z M75.523,107.582c-0.042-0.016-0.032-0.028,0.021-0.023
	c0.053,0.005,0.086,0.018,0.075,0.03S75.565,107.598,75.523,107.582z M135.302,76.638c-3.21,0.855-5.666-0.59-8.155-1.791
	c-0.358-0.173-0.334-0.364,0.06-0.417c2.808-0.375,5.48,0.016,8.172,1.611C135.721,76.244,135.687,76.536,135.302,76.638z"/>
</g>
</svg>
