<?xml version="1.0" encoding="iso-8859-1"?>
<!-- Generator: Adobe Illustrator 17.1.0, SVG Export Plug-In . SVG Version: 6.00 Build 0)  -->
<!DOCTYPE svg PUBLIC "-//W3C//DTD SVG 1.1//EN" "http://www.w3.org/Graphics/SVG/1.1/DTD/svg11.dtd">
<svg version="1.1" id="Capa_1" xmlns="http://www.w3.org/2000/svg" xmlns:xlink="http://www.w3.org/1999/xlink" x="0px" y="0px"
	 viewBox="0 0 150 150" style="enable-background:new 0 0 150 150;" xml:space="preserve">
<g>
	<path d="M144.292,20.36c-0.53,0.258-0.986,0.667-1.469,1.02c-0.791,0.578-1.559,1.191-2.381,1.722
		c-0.252,0.163-0.646,0.107-0.975,0.151c0.101-0.303,0.132-0.66,0.316-0.9c1.338-1.754,1.53-3.783,1.473-5.878
		c-0.005-0.166-0.017-0.358-0.101-0.488c-0.134-0.206-0.32-0.498-0.507-0.517c-0.192-0.019-0.482,0.203-0.604,0.398
		c-0.174,0.277-0.302,0.619-0.329,0.944c-0.119,1.405-0.872,2.528-1.575,3.675c-0.39,0.636-0.774,1.277-1.199,1.889
		c-0.202,0.291-0.457,0.575-0.751,0.764c-0.665,0.427-1.399,0.026-1.294-0.743c0.082-0.596,0.262-1.256,0.615-1.725
		c1.332-1.773,1.591-3.711,1.131-5.811c-0.094-0.43-0.175-0.862-0.262-1.293l-0.191-0.005c-0.15,0.541-0.261,1.096-0.458,1.619
		c-0.464,1.232-1.034,2.427-1.443,3.676c-0.865,2.647-2.947,4.28-4.921,5.989c-0.376,0.326-1.043,0.316-1.576,0.461
		c-0.078-0.52-0.25-1.048-0.204-1.556c0.034-0.37,0.302-0.76,0.559-1.062c1.513-1.776,2.496-3.808,3.061-6.06
		c0.11-0.441,0.344-0.863,0.38-1.306c0.023-0.273-0.151-0.709-0.363-0.812c-0.197-0.096-0.656,0.069-0.831,0.268
		c-0.309,0.351-0.512,0.804-0.721,1.233c-0.558,1.144-1.077,2.307-1.655,3.44c-0.122,0.24-0.432,0.385-0.655,0.573
		c-0.089-0.276-0.291-0.571-0.248-0.825c0.229-1.368-0.099-2.633-0.645-3.855c-0.104-0.232-0.492-0.56-0.619-0.511
		c-0.257,0.1-0.548,0.403-0.604,0.669c-0.102,0.483-0.072,1.002-0.047,1.503c0.136,2.702-0.852,5.147-1.778,7.593
		c-0.327,0.865-1.116,1.373-2.025,1.601c-0.559,0.14-1.128,0.288-1.699,0.324c-1.67,0.106-3.203,0.63-4.659,1.413
		c-0.577,0.31-1.138,0.46-1.792,0.236c-0.826-0.282-1.133,0.219-1.21,0.956c-0.113-0.029-0.215-0.024-0.242-0.067
		c-0.558-0.861-1.278-1.049-2.221-0.632c-0.231,0.102-0.806,0.003-0.818-0.07c-0.062-0.374-0.036-0.781,0.053-1.154
		c0.042-0.175,0.28-0.321,0.454-0.446c1.348-0.969,2.743-1.876,4.039-2.909c0.99-0.789,1.963-1.648,2.748-2.632
		c0.956-1.198,1.713-2.556,2.548-3.85c0.793-1.23,1.003-2.625,1.161-4.031c-0.081-0.071-0.163-0.142-0.244-0.212
		c-0.152,0.234-0.269,0.501-0.46,0.697c-2.568,2.631-5.077,5.325-7.752,7.842c-1.189,1.119-2.709,1.888-4.097,2.789
		c-0.274,0.178-0.62,0.275-0.946,0.337c-0.943,0.18-1.714-0.656-1.459-1.576c0.403-1.459,1.096-2.78,2.073-3.929
		c0.953-1.121,1.617-2.368,2.046-3.775c0.272-0.892,0.727-1.727,1.049-2.606c0.188-0.512,0.337-1.055,0.379-1.594
		c0.02-0.25-0.2-0.628-0.421-0.752c-0.153-0.086-0.554,0.102-0.736,0.279c-0.249,0.243-0.441,0.573-0.576,0.9
		c-0.804,1.948-1.877,3.711-3.202,5.368c-1.026,1.283-1.829,2.761-2.613,4.217c-0.725,1.345-2.121,2.283-3.651,2.22
		c-0.265-0.011-0.53-0.021-0.793-0.042c-1.505-0.124-2.009-0.539-2.461-1.991c-0.734-2.356-0.837-4.758-0.727-7.211
		c0.055-1.225-0.24-2.47-0.429-3.698c-0.053-0.341-0.242-0.697-0.466-0.964c-0.188-0.224-0.518-0.329-0.785-0.487
		c-0.104,0.272-0.298,0.544-0.297,0.816c0.004,1.009,0.136,2.021,0.096,3.027c-0.031,0.778-0.184,1.566-0.392,2.319
		c-0.345,1.245-0.322,2.467,0.015,3.697c0.083,0.301,0.254,0.586,0.286,0.889c0.027,0.252-0.091,0.519-0.144,0.78
		c-0.28-0.127-0.726-0.185-0.813-0.392c-0.658-1.569-1.22-3.178-1.864-4.754c-0.45-1.102-0.934-2.196-1.5-3.241
		c-0.241-0.446-0.72-0.844-1.333-0.53c-0.468,0.24-0.476,0.847-0.246,1.551c0.326,0.997,0.567,2.023,0.809,3.045
		c0.21,0.888,0.31,1.806,0.576,2.674c0.13,0.424,0.512,0.778,0.807,1.142c0.163,0.201,0.504,0.333,0.547,0.541
		c0.102,0.494,0.266,1.126,0.051,1.498c-0.305,0.527-0.947,0.195-1.359-0.041c-0.463-0.265-0.914-0.628-1.235-1.052
		c-1.539-2.029-3.031-4.095-4.542-6.145c-1.323-1.795-2.501-3.653-2.745-5.948c-0.025-0.233-0.06-0.546-0.213-0.669
		c-0.332-0.266-0.743-0.432-1.122-0.638c-0.15,0.325-0.439,0.654-0.429,0.974c0.082,2.635,0.66,5.16,2.095,7.397
		c0.863,1.346,1.91,2.574,2.853,3.871c0.132,0.182,0.139,0.455,0.203,0.687c-0.238-0.038-0.552,0.007-0.702-0.128
		c-0.839-0.756-1.628-1.567-2.452-2.339c-1.19-1.114-2.39-2.217-3.598-3.311c-0.41-0.371-0.855-0.328-1.202,0.083
		c-0.369,0.438-0.043,0.738,0.285,1.017c1.111,0.943,2.276,1.814,2.917,3.219c0.212,0.465,0.838,0.74,1.275,1.102
		c-0.016,0.069-0.032,0.138-0.048,0.208c-0.266-0.045-0.583-0.013-0.79-0.149c-0.66-0.435-1.448-0.813-1.881-1.428
		c-1.263-1.791-2.889-3.199-4.451-4.69c-0.421-0.401-0.625-1.038-0.899-1.582c-0.16-0.318-0.207-0.705-0.409-0.986
		c-0.118-0.163-0.508-0.302-0.658-0.225c-0.199,0.103-0.448,0.483-0.392,0.649c0.429,1.282,0.496,2.714,1.556,3.746
		c0.427,0.416,0.804,0.896,1.135,1.394c0.583,0.877,1.24,1.645,2.367,1.891c-0.031,0.085-0.062,0.171-0.093,0.256
		c-0.244-0.015-0.51,0.027-0.729-0.054c-1.53-0.57-3.05-1.167-4.575-1.752c-0.359-0.138-0.839-0.537-1.044-0.006
		c-0.112,0.29,0.226,0.797,0.448,1.153c0.107,0.173,0.403,0.255,0.629,0.324c1.56,0.475,2.616,1.677,3.832,2.647
		c0.13,0.103,0.136,0.362,0.199,0.548c-0.246,0.016-0.541,0.127-0.731,0.031c-1.115-0.563-2.201-1.184-3.308-1.765
		c-0.358-0.188-0.738-0.363-1.129-0.454c-0.501-0.117-0.951,0.062-1.066,0.6c-0.125,0.588,0.393,0.576,0.771,0.713
		c1.082,0.393,2.159,0.804,3.22,1.251c0.273,0.115,0.547,0.344,0.707,0.594c0.504,0.789,1.238,1.141,2.111,1.379
		c1.046,0.285,1.958,0.881,2.512,1.823c0.528,0.896,1.244,1.172,2.223,1.128c2.525-0.115,5.053-0.168,7.578-0.283
		c2.162-0.099,4.178,0.591,6.238,1.061c0.468,0.107,0.941,0.189,1.311,0.263c-0.28,0.343-0.737,0.679-0.852,1.106
		c-0.114,0.423,0.119,0.939,0.193,1.377c-3.704-0.726-7.494,0.062-11.26,0.519c-2.674,0.325-5.282,1.229-7.907,1.919
		c-1.69,0.445-3.359,0.972-5.028,1.459c0.126,0.091,0.36,0.258,0.593,0.426c0.002,0.062,0.005,0.123,0.007,0.185h-3.702
		c-0.014,0.091-0.029,0.183-0.043,0.274c0.314,0.168,0.627,0.337,1.042,0.56c-0.287,0.094-0.453,0.18-0.627,0.199
		c-1.374,0.155-2.378,0.961-3.324,1.87c-1.146,1.1-2.296,2.198-3.434,3.307c-2.067,2.015-4.532,3.008-7.425,2.985
		c-5.416-0.042-10.835-0.042-16.229-0.614c-1.332-0.141-2.644-0.47-3.965-0.708c-2.697-0.485-5.412-0.461-8.124-0.208
		c-1.645,0.154-3.294,0.35-4.914,0.67c-0.874,0.172-1.711,0.597-2.526,0.988c-1.831,0.881-3.486,2.005-4.846,3.553
		c-1.061,1.207-2.349,2.24-3.274,3.536c-1.084,1.518-1.937,3.212-2.795,4.878c-1.098,2.13-0.897,4.402-0.696,6.71
		c0.347,3.995,1.676,7.746,2.589,11.601c0.345,1.456,0.37,2.993,0.475,4.498c0.198,2.832,0.35,5.668,0.518,8.502
		c0.118,1.985-0.52,3.795-1.616,5.366C6.398,95.22,5.903,97.001,5.95,99.02c0.054,2.335-0.053,4.675,0.049,7.006
		c0.075,1.702,0.383,3.393,0.574,5.09c0.386,3.425,0.461,6.836,0.191,10.294c-0.244,3.128,0.04,6.299,0.097,9.45
		c0.011,0.639,0.315,1.063,0.977,1.127c0.667,0.065,0.822,0.434,0.76,1.04c-0.079,0.764-0.105,1.534-0.138,2.303
		c-0.026,0.611,0.252,1.068,0.779,1.365c0.292,0.165,0.587,0.37,0.905,0.437c2.355,0.494,4.704,0.749,7.037-0.437
		c-0.333-1.014-0.484-2.026-1.369-2.847c-0.542-0.503-0.783-1.408-0.988-2.177c-0.234-0.874-0.296-1.798-0.4-2.703
		c-0.183-1.602-0.576-3.124-1.337-4.561c-0.459-2.796-0.978-5.6-1.247-8.371c-0.104-1.076-0.181-2.157-0.201-3.238
		c0.116-0.941,0.276-1.879,0.468-2.814c0.113-0.552,0.429-1.065,0.67-1.588c0.662-1.436,1.333-2.867,2.098-4.51
		c0.343,1.58,0.69,2.936,0.926,4.311c0.052,0.305,0.104,0.611,0.156,0.916c0.078,1.002,0.243,1.997,0.5,2.972
		c0.347,2.096,0.682,4.194,0.992,6.296c0.15,1.016,0.037,2.068,0.098,3.1c0.177,3.025,0.33,6.053,0.598,9.07
		c0.122,1.371,0.594,2.034,1.977,2.112c0.923,0.052,1.135,0.33,1.036,1.275c-0.107,1.019-0.349,2.025-0.542,3.095
		c0.561,0.147,1.163,0.294,1.759,0.466c0.414,0.119,0.855,0.21,1.221,0.422c1.667,0.964,3.363,0.513,5.042,0.112
		c0.359-0.086,0.666-0.458,0.953-0.742c0.102-0.101,0.154-0.369,0.094-0.5c-0.307-0.676-0.623-1.355-1.012-1.984
		c-0.14-0.227-0.499-0.453-0.753-0.448c-0.637,0.013-0.86-0.352-0.973-0.852c-0.211-0.933-0.356-1.883-0.594-2.809
		c-0.454-1.767-0.908-3.536-1.454-5.276c-0.35-1.116-1.001-2.148-1.275-3.276c-0.572-2.356-1.126-4.733-1.423-7.134
		c-0.365-2.948,0.157-5.859,1.018-8.691c0.984-3.237,1.854-6.524,3.082-9.668c1.257-3.218,2.87-6.298,4.369-9.419
		c0.276-0.575,0.738-1.065,1.136-1.576c1.145-1.468,2.583-2.781,2.422-4.807c2.472,0.833,4.808,1.737,7.213,2.388
		c1.535,0.416,3.17,0.609,4.764,0.635c3.287,0.054,6.502-0.663,9.73-1.193c0.379-0.062,0.763-0.093,1.147-0.118
		c0.18-0.012,0.363,0.025,0.656,0.048c-0.623,0.813-1.187,1.549-1.785,2.33c0.242,0.154,0.455,0.289,0.743,0.473
		c-0.531,0.589-1.05,1.164-1.633,1.811c0.431,0.123,0.788,0.225,1.169,0.334c-0.214,0.429-0.468,0.818-0.604,1.244
		c-0.147,0.46-0.287,0.979,0.54,0.988c0.528,0.006,0.357,0.443,0.271,0.705c-0.29,0.89-0.644,1.759-0.937,2.649
		c-0.48,1.459-0.933,2.927-1.396,4.392c-0.19,0.601-0.106,1.148,0.355,1.599c0.063,0.061,0.115,0.122,0.16,0.184
		c-0.105,0.664-0.191,1.33-0.257,1.999c-0.147,0.393-0.256,0.794-0.22,1.17c0.249,2.6-0.561,4.985-1.263,7.412
		c-0.898,3.104-2.196,6.043-3.4,9.031c-1.114,2.765-1.702,5.751-2.393,8.671c-0.281,1.188,0.142,2.305,1.061,3.226
		c0.281,0.281,0.431,0.869,0.374,1.28c-0.289,2.087,0.239,3.021,2.288,3.568c0.922,0.246,1.918,0.526,2.833,0.411
		c1.276-0.16,2.508-0.676,3.911-1.084c-0.405-1.082-0.712-1.983-1.083-2.857c-0.178-0.42-0.454-0.791-1.044-0.713
		c-0.127,0.017-0.371-0.221-0.42-0.384c-0.102-0.34-0.094-0.711-0.159-1.064c-0.095-0.515-0.122-1.071-0.346-1.526
		c-0.339-0.686-0.471-1.373-0.315-2.096c1.036-4.818,2.053-9.642,3.169-14.442c0.005-0.022,0.013-0.045,0.018-0.067
		c0.009-0.025,0.02-0.049,0.028-0.074c0.079-0.237,0.159-0.473,0.238-0.71c0.257-0.604,0.617-1.184,1.005-1.697
		c1.754-2.313,2.753-5.006,3.974-7.586c0.188-0.397,0.131-0.953,0.063-1.417c-0.05-0.339-0.075-0.674-0.082-1.008
		c0.009-0.119,0.009-0.238,0-0.355c0.019-0.715,0.137-1.42,0.352-2.128c1.299-4.272,3.079-8.285,6.262-11.672
		c-0.116,1.145-0.187,2.234-0.344,3.31c-0.439,2.995-0.393,5.994-0.183,9.002c0.036,0.508-0.135,1.031-0.208,1.547
		c-0.161,1.138-0.315,2.276-0.483,3.413c-0.214,1.443,0.114,2.845,0.53,4.179c0.891,2.85,0.839,5.743,0.691,8.657
		c-0.201,3.966-0.414,7.931-0.608,11.898c-0.022,0.454,0.068,0.912,0.073,1.369c0.015,1.425,0.813,2.347,1.996,2.934
		c0.64,0.317,0.737,0.672,0.466,1.253c-0.122,0.261-0.234,0.529-0.326,0.802c-0.276,0.823-0.025,1.518,0.703,1.99
		c0.121,0.078,0.287,0.13,0.355,0.241c0.599,0.986,1.586,0.957,2.548,0.997c0.962,0.04,1.928,0.152,2.885,0.096
		c1.197-0.071,2.385-0.281,3.61-0.436c-0.373-1.917-1.609-3.149-3.156-4.114c-0.472-0.294-0.931-0.56-0.966-1.152
		c-0.131-2.187-1.082-4.125-1.825-6.125c-0.5-1.345-0.64-2.694-0.334-4.109c0.135-0.627,0.177-1.292,0.146-1.934
		c-0.051-1.077-0.124-2.154-0.193-3.231l0.289-6.507c0.026-0.06,0.05-0.12,0.078-0.178c0.502-1.029,0.691-2.079,0.864-3.167
		c0.09-0.569,0.187-1.148,0.379-1.688c0.559-1.575,0.387-3.173,0.284-4.785c-0.052-0.821,0.009-1.669,0.158-2.479
		c0.383-2.077,1.25-3.977,2.24-5.833c1.588-2.978,2.979-6.041,3.669-9.373c0.079-0.381,0.166-0.711,0.676-0.619
		c2.424,0.44,3.92-1.034,5.355-2.616c0.225-0.248,0.424-0.528,0.591-0.819c0.718-1.251,1.622-2.311,2.863-3.089
		c0.868-0.544,1.346-1.331,1.252-2.426c-0.3-3.498,1.336-6.204,3.617-8.622c0.953-1.011,2.094-1.742,3.396-2.26
		c1.605-0.639,3.172-1.375,4.759-2.059c0.218-0.094,0.46-0.129,0.758-0.21c0.499,2.728-0.249,5.423-0.065,8.106
		c1.841,0.46,3.612-0.196,4.755-1.625c0.66-0.825,0.998-1.611,0.913-2.741c-0.083-1.106,0.5-2.204,1.479-2.828
		c2.568-1.635,3.845-4.102,4.651-6.895c0.437-1.514,0.929-1.967,2.488-2.134c0.143-0.015,0.284-0.051,0.426-0.077
		c1.846-0.341,3.278,0.605,3.688,2.436c0.276,1.231,0.272,1.274,1.509,1.368c2.037,0.155,4.04,0.058,5.7-1.361
		c0.31-0.265,0.551-0.643,0.74-1.012c0.423-0.824,0.734-1.711,1.202-2.507c0.476-0.808,0.422-1.013-0.275-1.599
		c-0.351-0.294-0.644-0.89-0.632-1.34c0.038-1.403-0.331-2.708-0.723-4.015c-0.449-1.498-1.514-2.465-2.854-3.177
		c-1.588-0.844-3.166-1.707-4.762-2.535c-0.451-0.234-0.609-0.561-0.588-1.039c0.011-0.239-0.067-0.484-0.041-0.719
		c0.16-1.45-0.692-2.256-1.798-2.935c-0.057-0.035-0.114-0.071-0.171-0.106c-0.275-0.301-0.635-0.541-1.043-0.701
		c-0.033-0.013-0.066-0.026-0.099-0.039c-0.42-0.28-0.853-0.571-1.316-0.876c2.153-1.077,4.019-2.482,6.495-2.128
		c2.495,0.356,4.805-0.416,7.111-1.219c1.225-0.427,2.467-0.808,3.713-1.17c2.464-0.718,4.818-1.682,6.92-3.17
		c0.661-0.468,1.242-1.063,1.798-1.657c0.164-0.175,0.25-0.698,0.138-0.796C144.966,20.391,144.514,20.252,144.292,20.36z"/>
</g>
</svg>
