<?xml version="1.0" encoding="iso-8859-1"?>
<!-- Generator: Adobe Illustrator 17.1.0, SVG Export Plug-In . SVG Version: 6.00 Build 0)  -->
<!DOCTYPE svg PUBLIC "-//W3C//DTD SVG 1.1//EN" "http://www.w3.org/Graphics/SVG/1.1/DTD/svg11.dtd">
<svg version="1.1" id="Capa_1" xmlns="http://www.w3.org/2000/svg" xmlns:xlink="http://www.w3.org/1999/xlink" x="0px" y="0px"
	 viewBox="0 0 150 150" style="enable-background:new 0 0 150 150;" xml:space="preserve">
<g>
	<path d="M31.652,110.63c-0.317,0.646-0.6,1.31-0.881,1.975c-0.395,0.934-0.768,1.814-1.239,2.638
		c-1.07,1.865-2.353,3.865-3.921,6.113c-1.023,1.468-2.14,2.922-3.219,4.328c-0.415,0.542-0.831,1.083-1.242,1.626
		c-0.197,0.261-0.573,0.757-0.572,1.456c-1.644,1.094-3.062,2.639-4.436,4.83c-1.072,1.71-2.076,3.488-3.048,5.209
		c-0.415,0.733-0.829,1.468-1.249,2.197c-0.079,0.137-0.121,0.267-0.138,0.325c-0.138,0.434,0.035,0.916,0.436,1.157
		c0.161,0.098,0.34,0.145,0.517,0.145c0.312,0,0.617-0.146,0.812-0.414c0.366-0.507,0.73-1.021,1.098-1.536
		c0.811-1.141,1.648-2.32,2.515-3.445c1.759-2.284,3.772-4.455,5.957-6.431c0.055-0.032,0.118-0.052,0.181-0.076
		c0.138-0.054,0.276-0.11,0.484-0.222c0.22-0.112,0.551-0.282,0.779-0.638c0.676-1.059,1.354-2.114,2.034-3.17
		c2-3.108,4.067-6.322,6.002-9.553c0.697-1.162,1.201-2.418,1.689-3.632c0.276-0.688,0.553-1.377,0.864-2.046
		c3.045-6.533,6.114-13.056,9.184-19.577c0.048-0.101,0.13-0.206,0.211-0.271c1.06-0.84,2.132-1.664,3.206-2.468
		c0.054-0.033,0.116-0.052,0.176-0.076c0.158-0.062,0.355-0.14,0.554-0.272c0.3-0.2,0.71-0.474,1-0.9
		c3.283-4.831,6.558-9.67,9.831-14.508l6.223-9.18l0.146,0.061c0.254,0.105,0.541,0.102,0.793-0.011
		c0.251-0.113,0.445-0.324,0.535-0.585c0.028-0.079,0.062-0.158,0.097-0.238c0.114-0.266,0.257-0.596,0.279-0.994
		c0.147-2.601,0.832-5.062,1.558-7.666c0.119-0.429,0.238-0.857,0.356-1.29l0.631,0.312c0.979,0.482,1.957,0.965,2.924,1.468
		c1.475,0.769,2.942,1.552,4.416,2.338l1.203,0.64l-0.118,0.735c-0.178,1.116-0.36,2.264-0.548,3.409
		c-0.141,0.864-0.066,1.651,0.229,2.404c0.102,0.26,0.137,0.606,0.091,0.886c-0.808,4.89-1.297,10.213-1.497,16.274
		c-0.024,0.735-0.165,1.482-0.312,2.273c-0.069,0.371-0.139,0.742-0.197,1.114c-0.036,0.235-0.079,0.471-0.121,0.706
		c-0.089,0.499-0.182,1.015-0.227,1.55c-0.062,0.729,0.208,1.193,0.445,1.453c0.248,0.272,0.715,0.598,1.525,0.603
		c0.312-0.035,0.574-0.126,0.765-0.349c0.191-0.224,0.275-0.52,0.229-0.81l-0.029-0.168c-0.012-0.067-0.025-0.133-0.031-0.197
		c-0.016-0.187-0.049-0.381-0.083-0.574c-0.032-0.18-0.081-0.452-0.064-0.531c0.961-2.755,1.146-5.591,1.325-8.333
		c0.059-0.895,0.117-1.789,0.202-2.68c0.218-2.267,0.415-4.535,0.611-6.804c0.127-1.454,0.253-2.908,0.378-4.32
		c0.015-0.052,0.041-0.101,0.064-0.151l0.081-0.185c0.027-0.065,0.062-0.129,0.098-0.193c0.125-0.236,0.298-0.561,0.324-0.967
		c0.075-1.189,0.127-2.38,0.178-3.579c0.214,0.041,0.438,0.015,0.637-0.082c0.122-0.06,0.229-0.142,0.315-0.241
		c0.434,0.142,0.86,0.032,1.13-0.159c0.255,0.396,0.522,0.803,0.848,1.188c0.075,0.089,0.079,0.102,0.071,0.224l-0.163,2.698
		c-0.11,1.854-0.221,3.708-0.356,5.56c-0.039,0.53-0.13,1.064-0.226,1.629c-0.065,0.38-0.13,0.76-0.179,1.142
		c-0.047,0.354-0.176,1.351,0.673,1.931l1.081,5.732c0.515,2.73,1.028,5.46,1.549,8.188c0.832,4.363,1.679,8.725,2.53,13.085
		c0.207,1.057,0.422,2.112,0.637,3.168c0.309,1.519,0.618,3.037,0.902,4.561c0.368,1.964,1.405,3.543,2.35,4.869l1.478,2.072
		c0.239,0.336,0.659,0.49,1.061,0.39l0.192-0.047c0.46-0.109,0.781-0.524,0.771-0.996c-0.002-0.092,0-0.185,0.003-0.278
		c0.007-0.275,0.015-0.589-0.057-0.929c-0.249-1.176-0.934-2.008-1.674-2.829c-0.195-0.215-0.289-0.393-0.312-0.489l-0.178-0.738
		c-0.772-3.218-1.571-6.545-2.29-9.827c-0.661-3.021-1.269-6.114-1.856-9.104l-0.165-0.838c-0.548-2.788-1.081-5.578-1.614-8.368
		l-1.486-7.766c0-0.002,0.01-0.032,0.059-0.11c0.296-0.484,0.431-1.115,0.412-1.928c-0.018-0.754-0.056-1.507-0.094-2.261
		c-0.047-0.93-0.095-1.859-0.1-2.789c-0.009-1.944,0.077-3.922,0.153-5.662c0.005-0.041,0.057-0.179,0.185-0.348
		c0.361-0.479,0.734-0.952,1.111-1.422c0.027,0.819,0.076,1.654,0.211,2.485c0.235,1.438,1.174,1.95,1.975,1.95
		c0.426-0.001,0.878-0.133,1.344-0.394c0.566-0.317,1.126-0.757,1.762-1.385c0.493-0.487,0.971-0.99,1.448-1.493
		c0.551-0.581,1.102-1.162,1.678-1.716c0.979-0.939,2.033-1.824,3.054-2.679c0.303,0.722,0.592,1.409,0.87,2.1
		c-0.386,0.329-0.548,0.827-0.616,1.206c-0.14,0.779-0.281,1.611-0.346,2.47c-0.041,0.557,0.139,1.171,0.471,1.604
		c0.479,0.624,0.784,1.138,0.805,1.726c-0.825,0.088-1.679,0.179-2.519,0.315c-0.659,0.107-1.643,0.292-2.574,0.666
		c-0.998,0.4-1.718,1.072-2.082,1.944c-0.365,0.875-0.336,1.864,0.083,2.861c0.308,0.732,0.726,1.479,1.315,2.352
		c0.722,1.068,1.461,2.124,2.201,3.18c0.545,0.778,1.09,1.556,1.628,2.339c2.266,3.299,3.261,6.651,3.043,10.249
		c-0.102,1.662-0.129,3.345-0.155,4.973l-0.012,0.669c-0.011,0.657,0.061,1.291,0.135,1.885c0.155,1.223,1.058,1.284,1.237,1.284
		c0.455,0,0.798-0.25,1.016-0.438c1.002-0.865,1.504-2.061,1.451-3.455c-0.019-0.491-0.03-0.983-0.042-1.476
		c-0.037-1.562-0.076-3.176-0.34-4.761c-0.404-2.429-0.368-4.828-0.329-7.369c0.012-0.786,0.023-1.573,0.021-2.36l-0.001-0.262
		c3.267,3.943,6.541,7.88,9.814,11.816l1.415,1.7c0.398,0.48,0.932,1.122,1.832,1.348c0.004,0.004,0.007,0.006,0.009,0.008
		c0.295,0.258,0.586,0.52,0.877,0.782c0.631,0.568,1.283,1.155,1.973,1.698c2.472,1.944,5.401,3.462,8.707,4.511
		c1.299,0.412,2.599,0.784,3.863,1.106c0.48,0.121,1.104,0.139,1.729,0.114c0.6-0.021,1.329-0.517,1.417-1.201
		c0.055-0.455-0.14-0.907-0.573-1.342c-0.283-0.285-0.625-0.366-0.893-0.43c-0.332-0.085-0.667-0.16-1.002-0.232l-0.695-0.147
		c-1.226-0.254-2.384-0.493-3.431-1.103c-0.785-0.457-1.641-0.677-2.468-0.889c-0.368-0.095-0.736-0.188-1.044-0.285
		c-0.045-0.026-0.086-0.063-0.13-0.099c-0.085-0.067-0.171-0.135-0.258-0.193l-0.475-0.315c-0.284-0.188-0.569-0.377-0.854-0.574
		c-0.168-0.115-0.335-0.238-0.481-0.379c-0.262-0.251-0.516-0.509-0.77-0.767l-0.408-0.412c-0.059-0.059-0.124-0.111-0.163-0.136
		c-0.531-0.492-1.109-0.861-1.669-1.22c-0.748-0.478-1.454-0.93-1.935-1.618c-0.63-0.901-1.407-1.662-2.16-2.396
		c-0.414-0.405-0.829-0.81-1.214-1.236c-2.389-2.652-4.765-5.315-7.151-7.991l-2.26-2.531c0.098-0.212,0.166-0.425,0.213-0.636
		c0.13,0.208,0.279,0.376,0.401,0.515l0.133,0.152c0.248,0.304,0.816,0.394,1.197,0.29c0.416-0.111,0.714-0.477,0.739-0.906
		l0.018-0.269c0.016-0.221,0.03-0.44,0.035-0.661c0.006-0.278-0.009-0.548-0.04-0.811c0.68,0.427,1.332,0.914,2.017,1.426
		c0.328,0.245,0.656,0.491,0.988,0.729l2.902,2.089c2.797,2.014,5.595,4.027,8.406,6.024c0.411,0.291,0.859,0.43,1.255,0.552
		c0.137,0.042,0.272,0.083,0.406,0.133c0.081,0.03,0.166,0.053,0.269,0.073l0.751,0.358c1.373,0.657,2.747,1.314,4.115,1.982
		l0.171,0.088c0.405,0.211,1.057,0.501,1.76,0.337c0.076,0.02,0.152,0.038,0.223,0.05c2.754,0.463,5.204,0.829,7.792,0.614
		c0.731-0.062,1.396-0.354,2.059-0.645c0.308-0.136,0.527-0.416,0.583-0.748c0.057-0.331-0.057-0.669-0.303-0.898
		c-0.759-0.71-1.795-0.946-2.771-0.636c-0.843,0.267-1.923,0.219-3.106,0.104l-0.199-0.019c-1.068-0.103-2.161-0.26-3.218-0.412
		l-0.121-0.008c-0.038-0.017-0.075-0.041-0.113-0.063c-0.071-0.041-0.143-0.082-0.216-0.119l-0.137-0.075
		c-0.153-0.087-0.308-0.17-0.467-0.229c-1.492-0.558-2.984-1.111-4.477-1.665l-1.154-0.429c-0.832-0.849-1.816-1.382-2.77-1.899
		c-0.208-0.112-0.415-0.225-0.619-0.34c-4.175-2.354-8.076-5.295-11.851-8.139l-0.671-0.506c-0.002-0.017-0.003-0.035-0.005-0.055
		c-0.111-1.081-0.294-2.156-0.471-3.196l-0.082-0.486c-0.074-0.447-0.16-0.892-0.245-1.323c0.199,0.027,0.424,0.093,0.658,0.162
		c0.161,0.047,0.322,0.094,0.483,0.133c2.589,0.629,5.287,1.278,8.089,1.202c0.517-0.015,1.018-0.083,1.489-0.204
		c0.937-0.24,1.584-0.706,1.924-1.385c0.342-0.684,0.325-1.491-0.051-2.399c-0.588-1.424-1.574-2.605-3.015-3.614
		c-2.604-1.823-5.589-2.592-7.899-3.059c-0.721-0.146-1.45-0.25-2.179-0.354l-0.162-0.023c-0.14-0.478-0.308-0.937-0.472-1.383
		c-0.119-0.324-0.238-0.648-0.344-0.978c-0.07-0.216-0.104-0.442-0.142-0.669c-0.015-0.085-0.028-0.171-0.042-0.246
		c0.006-0.204-0.004-0.417-0.016-0.629c-0.013-0.244-0.032-0.611,0.008-0.698c0.049-0.062,0.252-0.192,0.387-0.279
		c0.241-0.155,0.516-0.331,0.759-0.58c1.44-1.476,2.014-3.388,1.657-5.53c-0.462-2.784-1.559-5.271-3.259-7.389l-0.639-0.802
		c-0.491-0.62-0.981-1.238-1.491-1.842c-1.598-1.887-3.705-2.826-5.742-3.734c-0.322-0.144-0.646-0.287-0.972-0.438
		c-0.132-0.062-0.372-0.107-0.518-0.107c-1.017,0-1.86-0.521-2.838-1.124c-0.209-0.129-0.418-0.258-0.63-0.383
		c-0.724-0.427-1.513-0.605-2.274-0.778c-0.314-0.071-0.629-0.142-0.931-0.231c-0.213-0.064-0.479-0.145-0.632-0.244
		c-0.436-0.28-0.863-0.572-1.291-0.863c-0.49-0.335-0.98-0.669-1.482-0.988c-0.324-0.206-0.656-0.334-0.948-0.447
		c-0.103-0.039-0.203-0.078-0.299-0.119c-0.469-0.206-1.018-0.021-1.27,0.425c-0.05,0.09-0.086,0.185-0.106,0.28
		c-0.195-0.015-0.392-0.021-0.589-0.021l-0.283,0.005c-0.494,0.017-0.902,0.394-0.958,0.885c-0.057,0.492,0.255,0.951,0.732,1.08
		l0.51,0.135c0.089,0.023,0.177,0.047,0.265,0.069c-0.065,0.428,0.152,0.855,0.548,1.049l0.705,0.344
		c0.73,0.355,1.525,0.741,2.314,1.153c0.016,0.038,0.03,0.077,0.046,0.113l0.047,0.111c0.01,0.022,0.02,0.044,0.028,0.066
		c-1.293,0.26-2.585,0.512-3.849,0.75c-0.042,0-0.084-0.007-0.127-0.011c-0.039-0.005-0.078-0.008-0.12-0.012
		c-0.402-1.556-0.744-2.749-1.104-3.852c-0.198-0.607-0.523-1.22-0.966-1.818c-0.556-0.753-1.14-0.911-1.532-0.911
		c-0.275,0-1.204,0.103-1.605,1.43c-0.289,0.963-0.428,1.938-0.518,2.681c-0.077,0.647-0.107,1.274-0.138,1.937
		c-0.076-0.001-0.154-0.001-0.228,0c-0.421-1.248-0.835-2.499-1.25-3.749c-0.442-1.333-0.884-2.667-1.334-3.998
		c-0.232-0.688-0.496-1.271-0.805-1.785c-0.661-1.101-2.068-1.183-2.841-0.16c-0.414,0.546-0.77,1.163-1.024,1.783
		c-0.872,2.107-1.903,4.904-2.239,8.046c-0.662,0.097-1.322,0.208-1.983,0.319c-0.864,0.146-1.729,0.292-2.597,0.402
		c-0.521,0.068-1.055,0.047-1.587,0.03c-0.221-0.007-0.441-0.014-0.661-0.016c-0.703-0.007-1.407-0.028-2.111-0.051
		c-1.632-0.052-3.322-0.08-4.672,0.011l-1.573,0.113c-2.622,0.191-5.326,0.392-7.982,0.277c-1.089-0.047-2.178-0.103-3.267-0.157
		c-1.79-0.092-3.581-0.183-5.373-0.235c-1.15-0.031-2.31,0.058-3.422,0.146l-0.464,0.036c-0.827,0.062-1.545,0.413-2.132,1.041
		c-0.054,0.053-0.251,0.14-0.427,0.152c-0.817,0.058-1.636,0.075-2.455,0.094c-0.413,0.009-0.825,0.018-1.237,0.032
		c-0.277,0.009-0.572,0.049-0.873,0.116c-1.326,0.292-1.625,1.195-1.478,1.879c0.099,0.46,0.389,0.862,0.717,1.15
		c-0.16,0.175-0.3,0.368-0.438,0.564l-0.132,0.184c-0.203,0.275-0.252,0.637-0.127,0.957c0.124,0.319,0.404,0.553,0.741,0.618
		l0.232,0.05c0.24,0.055,0.481,0.104,0.728,0.124c0.084,0.007,0.17,0.009,0.256,0.009c0.001,0,0.001,0,0.001,0
		c0.12,0,0.242-0.005,0.364-0.011c0.22-0.013,0.43,0.002,0.439,0.005c1.287,0.452,2.563,0.511,3.53,0.511
		c0.455,0,0.911-0.015,1.366-0.029l0.63-0.019c0.336-0.008,0.695-0.083,1.066-0.224c0.406-0.151,0.916-0.104,1.548-0.003
		c0.773,0.124,1.56,0.134,2.235,0.134l0.62-0.001l0.278,0.001c0.308,0,0.617-0.024,0.927-0.051c0.388-0.033,0.779-0.074,1.15-0.017
		c2.102,0.333,4.211,0.349,6.252,0.364c0.944,0.007,1.889,0.014,2.831,0.052c0.763,0.031,1.524,0.05,2.285,0.05
		c2.369,0,4.438-0.187,6.325-0.569c1.616-0.329,3.287-0.337,4.761-0.344c1.37-0.007,2.754-0.077,4.091-0.146
		c0.139-0.007,0.277-0.014,0.416-0.021c-0.128,0.473-0.259,0.948-0.396,1.422c-0.002,0.002-0.005,0.004-0.007,0.005
		c-0.533,0.353-1.068,0.7-1.604,1.048l-2.2,1.432c-1.239,0.806-2.479,1.61-3.703,2.438c-0.188,0.127-0.354,0.191-0.489,0.191
		c-0.053,0-0.213,0-0.543-0.26l-0.098-0.096c-0.213-0.2-0.502-0.297-0.794-0.266c-0.29,0.031-0.553,0.188-0.718,0.431l-0.119,0.171
		c-0.096,0.136-0.169,0.243-0.232,0.353c-1.182,2.046-3.009,3.552-5.749,4.74c-0.601,0.261-1.16,0.604-1.654,0.907
		c-0.299,0.184-1.185,0.729-1.056,1.907c-0.014,0.024-0.03,0.05-0.042,0.062c-0.713,0.749-1.402,1.522-2.092,2.295
		c-1.995,2.236-3.88,4.349-6.314,5.921l-0.724,0.464c-0.377,0.234-1.137,0.707-1.112,1.803c-0.056,0.071-0.136,0.165-0.196,0.235
		c-0.146,0.169-0.299,0.35-0.433,0.542c-0.165,0.237-0.22,0.534-0.15,0.814c0.117,0.467-0.18,1.057-0.522,1.741
		c-0.163,0.325-0.328,0.657-0.467,1c-0.162,0.4-0.049,0.86,0.282,1.14c0.329,0.279,0.803,0.312,1.171,0.086
		c0.233-0.146,0.357-0.209,0.423-0.237c0.065,0.036,0.19,0.119,0.429,0.307c0.419,0.327,1.022,0.27,1.373-0.134l0.271-0.319
		c0.182-0.216,0.363-0.433,0.56-0.637c0.173-0.18,0.399-0.405,0.64-0.581c0.01,0.016,0.021,0.032,0.032,0.051
		c0.158,0.25,0.42,0.418,0.714,0.456c0.3,0.037,0.591-0.056,0.809-0.256l0.161-0.149c0.125-0.116,0.248-0.23,0.374-0.343
		l0.562-0.504c1.196-1.08,2.326-2.101,3.694-2.769c0.013-0.006,0.024-0.012,0.036-0.017c0.22,0.209,0.523,0.305,0.824,0.267
		c0.306-0.042,0.574-0.222,0.729-0.488c0.308-0.528,0.729-0.905,1.242-1.21c-1.301,4.577-3.021,8.945-4.408,12.313
		c-0.731,1.778-1.563,3.562-2.367,5.288c-0.404,0.868-0.81,1.736-1.204,2.609c-0.182,0.401-0.367,0.837-0.489,1.298
		c-0.201,0.755-0.12,1.238,0.18,1.682l-0.212,0.431c-0.734,1.498-1.473,3.004-2.167,4.423c-0.035,0.037-0.078,0.068-0.145,0.122
		c-0.2,0.162-0.404,0.318-0.607,0.475c-0.403,0.31-0.819,0.629-1.216,0.994c-1.655,1.529-3.616,2.626-5.994,3.354
		c-2.797,0.857-6.856,3.484-8.482,5.173c-0.333,0.346-0.373,0.879-0.096,1.271c0.277,0.392,0.795,0.529,1.231,0.332l0.136-0.059
		c0.113-0.047,0.242-0.101,0.383-0.198c2.049-1.429,4.438-2.624,7.748-3.876c0.739-0.279,1.489-0.527,2.24-0.776
		c0.557-0.185,1.112-0.368,1.664-0.564c0.018-0.006,0.035-0.013,0.053-0.02l-0.414,0.834
		C35.805,102.233,33.721,106.428,31.652,110.63z M55.957,60.806c0.021-0.06,0.038-0.104,0.053-0.139
		c0.046,0.006,0.107,0.016,0.188,0.034c0.482,0.112,1.073,0.001,1.459-0.271c0.373-0.261,0.734-0.537,1.096-0.814
		c0.467-0.356,0.908-0.694,1.369-0.994c1.696-1.102,3.405-2.184,5.115-3.265l-0.833,2.165c-0.407,1.062-0.813,2.126-1.201,3.198
		c-0.105,0.296-0.295,0.997,0.05,1.559c-0.015,0.021-0.03,0.043-0.046,0.065c-1.13,1.645-2.256,3.292-3.382,4.939
		c-2.242,3.282-4.562,6.676-6.877,9.985c-1.332,1.905-2.741,3.812-4.104,5.655c-0.197,0.267-0.394,0.533-0.591,0.8
		c2.172-6.469,4.347-12.937,6.521-19.403L55.957,60.806z M74.102,31.029l0.502-2.335l0.638,2.258L74.102,31.029z M82.617,47.339
		c0.234-0.139,0.455-0.258,0.688-0.37c0.184,0.53,0.121,1.038-0.2,1.63c-0.102,0.188-0.205,0.385-0.299,0.589
		C82.754,48.561,82.688,47.943,82.617,47.339z M74.016,51.06l4.638-1.691c0.037,0.848-0.01,1.706-0.059,2.599
		c-0.023,0.424-0.048,0.855-0.062,1.289L74.016,51.06z M111.518,58.88c-0.002-0.015-0.004-0.03-0.006-0.045
		c3.622,0.443,6.237,1.602,8.354,3.67c0.325,0.318,0.635,0.735,0.896,1.209c0.079,0.145,0.085,0.229,0.082,0.244
		c-0.009,0.017-0.079,0.09-0.271,0.15c-0.301,0.095-0.582,0.15-0.839,0.165c-2.062,0.121-4.11-0.452-6.09-1.005
		c-0.216-0.061-0.428-0.138-0.641-0.213c-0.432-0.155-0.879-0.314-1.383-0.387c-0.056-0.008-0.134-0.092-0.301-0.29
		c-0.095-0.111-0.205-0.242-0.34-0.372c0.233-0.244,0.466-0.576,0.519-0.987C111.592,60.324,111.598,59.605,111.518,58.88z
		 M98.001,69.037c0.073-0.157,0.434-0.376,1.206-0.474c1.226-0.155,2.431-0.432,3.597-0.698l0.529-0.12
		c0.171,0.923,0.33,1.795,0.349,2.658c0.019,0.881-0.048,1.763-0.119,2.697c-0.028,0.372-0.057,0.744-0.079,1.117l-0.208,3.382
		c-0.042-0.068-0.085-0.136-0.128-0.204c-0.841-1.313-1.707-2.609-2.574-3.906c-0.733-1.095-1.466-2.19-2.182-3.296
		C97.993,69.578,97.933,69.186,98.001,69.037z"/>
</g>
</svg>
