<?xml version="1.0" encoding="iso-8859-1"?>
<!-- Generator: Adobe Illustrator 17.1.0, SVG Export Plug-In . SVG Version: 6.00 Build 0)  -->
<!DOCTYPE svg PUBLIC "-//W3C//DTD SVG 1.1//EN" "http://www.w3.org/Graphics/SVG/1.1/DTD/svg11.dtd">
<svg version="1.1" id="Capa_1" xmlns="http://www.w3.org/2000/svg" xmlns:xlink="http://www.w3.org/1999/xlink" x="0px" y="0px"
	 viewBox="0 0 150 150" style="enable-background:new 0 0 150 150;" xml:space="preserve">
<g>
	<path d="M5.922,110.521c0.201,0.036,0.399,0.053,0.607,0.053c1.546,0,3.349-0.96,7.299-3.062c0.653-0.348,1.364-0.727,2.142-1.136
		c1.525-0.807,3.507-1.676,5.605-2.596c4.256-1.866,8.657-3.796,10.05-5.555c2.136-2.702,16.917-18.46,19.702-20.243
		c0.647-0.616,1.13-3.165,1.614-8.524c0.166-1.836,0.456-4.029,0.862-6.52c0.625-0.158,1.24-0.324,1.85-0.492
		c-0.128,0.762-0.269,1.617-0.419,2.528c-0.785,4.776-1.859,11.308-2.771,13.863c-1.762,2.01-4.968,6.253-8.07,10.357
		c-2.696,3.568-5.243,6.938-6.466,8.336c-2.756,3.153-8.192,6.102-10.806,7.519c-4.542,2.469-8.474,4.266-9.201,4.533
		c-0.239,0.087-0.299,0.264-0.275,0.401c0.082,0.463,1.229,0.716,1.795,0.716c0.262,0,0.489-0.039,0.674-0.115
		c1.376-0.567,1.78-0.786,2.758-1.313c0.881-0.476,2.211-1.194,5.131-2.645c4.726-2.309,8.865-5.264,10.803-7.713
		c0.355-0.449,0.96-1.24,1.732-2.25c3.566-4.66,10.986-14.357,13.348-15.866c0.459-0.438,0.806-2.388,1.38-5.798
		c0.282-1.674,0.573-3.404,0.9-4.917c0.504-2.323,1.055-5.031,1.686-8.272c3.744-1.127,7.103-2.362,10.071-3.454
		c1.224-0.45,2.387-0.878,3.423-1.239c-0.072,0.576-0.145,1.047-0.226,1.463c-1.228,6.358-3.456,19.79-3.619,20.772
		c-0.47,0.673-0.983,1.441-1.536,2.307c-2.851,2.826-5.339,5.75-7.746,8.577c-1.781,2.093-3.624,4.257-5.556,6.306
		c-3.578,4.029-7.814,5.933-11.105,7.141c-0.024,0.009-0.047,0.021-0.067,0.038c-0.203,0.158-0.583,0.225-0.917,0.284
		c-0.459,0.081-0.856,0.151-0.992,0.457c-0.076,0.171-0.044,0.368,0.093,0.587c0.291,0.462,0.702,0.707,1.188,0.707
		c0.467,0,0.977-0.229,1.423-0.627c4.372-2.197,9.234-4.915,12.146-8.411c2.734-3.279,5.157-5.903,7.378-8.215
		c-1.15,1.986-2.285,4.001-3.392,5.965c-1.57,2.787-3.053,5.419-4.343,7.558c-4.236,5.129-8.494,7.687-10.54,8.917
		c-1.026,0.616-1.325,0.805-1.393,1.049c-0.042,0.145-0.003,0.307,0.11,0.458c0.167,0.223,0.543,0.461,1.096,0.461
		c0.265,0,0.543-0.055,0.828-0.162c0.028-0.011,0.054-0.026,0.077-0.046c0.676-0.594,1.618-1.339,2.708-2.201
		c3.119-2.467,7.391-5.845,8.996-8.611c3.237-5.58,5.761-9.856,7.789-13.293c1.236-2.095,2.28-3.865,3.144-5.36
		c1.152-1.257,1.814-2.105,2.214-2.836c0.643-1.171,1.281-4.019,2.02-7.316c0.4-1.784,0.813-3.629,1.284-5.489
		c0.903-3.558,2.083-7.782,3.175-11.365c2.338,1.272,3.852,2.632,4.967,3.634l0.111,0.1c0.177,0.947,0.442,2.221,0.725,3.083
		c0.248,0.74,0.938,2.563,2.005,3.512c0.214,0.19,0.501,0.287,0.854,0.287c0.839,0,1.875-0.554,2.254-0.774
		c0.454,0.32,1.925,1.259,2.825,1.067c1.141-0.242,3.125-2.532,3.829-4.13c0.063-0.142,0.116-0.283,0.161-0.424
		c0.936-0.597,1.493-1.233,1.943-1.748c0.399-0.455,0.714-0.815,1.149-1c0.074-0.032,0.128-0.097,0.146-0.175
		c0.116-0.517,0.203-1.008,0.263-1.489c0.386,0.339,0.746,0.599,1.058,0.763c0.929,1.257,2.012,2.1,3.221,2.507
		c1.2,4.323,4.678,16.856,5.301,19.16c0.742,2.748,2.526,4.45,2.569,4.484c0.015,0.021,1.525,2.123,3.707,4.125
		c5.713,5.23,19.736,17.787,26.542,21.428c1.713,0.917,3.407,1.634,4.42,1.871c0.489,0.117,1.071-0.429,1.28-0.807
		c0.163-0.295,0.119-0.482,0.055-0.585c-0.115-0.187-0.351-0.222-0.87-0.3c-0.936-0.14-2.679-0.401-4.86-1.745
		c-3.366-2.076-10.854-7.653-16.218-12.337c-6.142-5.372-12.535-12.448-12.572-12.483c-0.02-0.032-2.004-3.261-3.881-9.199
		c-1.163-3.681-2.492-8.41-3.75-13.349c0.461-0.012,0.916-0.089,1.356-0.231c1.193,3.254,2.552,7.006,3.598,9.895
		c0.565,1.561,1.039,2.869,1.339,3.688c0.348,1.37,2.842,2.815,3.199,3.016c0.349,0.396,3.771,4.268,5.626,5.892
		c0.833,0.73,1.605,1.421,2.347,2.086c3.87,3.467,6.927,6.205,13.505,9.738c3.572,1.224,7.055,1.407,8.813,1.407
		c0.265,0,0.515-0.004,0.746-0.011l0.113-0.002c0.458,0,0.939,0.083,1.326,0.15c0.275,0.048,0.492,0.085,0.648,0.085
		c0.094,0,0.229-0.012,0.325-0.113c0.047-0.05,0.086-0.162,0.082-0.23c-0.071-1.108-0.576-1.325-1.424-1.325
		c-0.164,0-0.346,0.007-0.547,0.015c-0.175,0.006-0.364,0.014-0.569,0.017c-4.112,0.063-6.685-0.379-9.731-1.72
		c-2.269-0.994-2.992-1.594-4.432-2.788c-0.948-0.787-2.129-1.766-4.208-3.247c-7.832-5.577-12.515-12.357-12.596-12.466
		c-0.009-0.009-0.961-0.936-2.39-4.034c-1.399-3.036-2.735-6.69-3.927-9.989c1.621,0.714,3.951,1.641,6.626,2.403
		c2.59,0.739,4.942,1.551,7.217,2.335c2.779,0.958,5.405,1.864,8.067,2.493c0.711,0.412,3.421,1.341,3.752,1.413
		c0.578,0.121,2.691,0.205,2.781,0.209c0.103,0.009,0.206-0.061,0.244-0.162c0.038-0.101,0.007-0.215-0.076-0.283
		c-0.044-0.036-1.1-0.882-2.612-1.199c-0.218-0.045-0.459-0.099-0.703-0.152c-0.812-0.179-1.555-0.351-1.832-0.326
		c-2.107-0.673-4.434-1.502-6.896-2.379c-2.928-1.043-5.957-2.122-8.742-2.978c-2.828-0.869-5.775-2.455-7.139-3.236
		c0.104-0.15,0.177-0.334,0.221-0.556c0.594,0.084,1.248,0.126,1.95,0.126c3.316,0,7.269-0.955,9.645-1.773
		c1.741-0.599,4.412-1.9,6.768-3.049c1.565-0.763,2.917-1.422,3.616-1.686c2.068-0.776,3.69-0.93,4.47-1.004
		c0.356-0.034,0.476-0.045,0.564-0.103c0.094-0.06,0.146-0.188,0.116-0.295c-0.061-0.208-0.284-0.208-0.499-0.208
		c-1.058,0-4.275,0.363-5.956,1.261c-2.129,1.144-7.125,3.444-9.804,4.306c-3.569,1.149-6.4,1.39-8.146,1.39
		c-1.31,0-2.26-0.136-2.767-0.277c-0.022-0.138-0.057-0.36-0.091-0.585c-0.045-0.289-0.074-0.476-0.094-0.598
		c1.412-0.461,5.614-1.951,7.24-2.74c4.49-2.184,10.1-5.026,11.327-6.17c1.783-1.663,4.395-2.74,4.42-2.75
		c0.064-0.026,0.115-0.078,0.139-0.142c0.025-0.064,0.021-0.137-0.009-0.199c-0.035-0.071-0.126-0.191-0.35-0.191
		c-0.672,0-3.04,1.312-4.553,2.398c-0.973,0.701-4.603,3.192-10.483,5.809c-4.083,1.817-7.253,2.531-8.374,2.746
		c-0.926-1.922-2.328-3.691-3.787-4.775c-0.9-2.773-1.561-4.937-1.881-6.042c-0.237-0.825-1.125-2.529-2.353-2.529
		c-0.231,0-0.46,0.061-0.682,0.181c-1.086,0.59-2.924,3.455-4.313,5.828c-1.52-1.418-3.266-2.227-5.193-2.405
		c-1.633-0.153-3.018-0.293-4.234-0.418c-1.307-1.992-2.896-4.197-3.344-4.506c-0.292-0.201-0.866-0.321-1.535-0.321
		c-0.411,0-1.787,0.058-2.255,0.802c-0.024,0.038-0.052,0.091-0.085,0.189c-0.346-0.522-0.556-0.833-0.556-0.833
		c-0.041-0.061-0.106-0.1-0.178-0.108c-0.023-0.003-0.565-0.066-1.224-0.066c-1.233,0-2.009,0.221-2.306,0.658
		c-0.264,0.387-0.288,2.037-0.313,5.433l-0.011,1.248c-0.971-0.225-2.433-0.536-4.316-0.862c-0.729-1.579-1.432-3.18-2.054-4.597
		c-0.986-2.246-1.512-3.432-1.74-3.734c-0.643-0.845-1.323-1.273-2.021-1.273c-0.592,0-1.071,0.307-1.402,0.615
		c-0.402-0.565-1.306-0.775-2.043-0.775c-0.69,0-1.265,0.176-1.537,0.471c-0.634,0.688-1.291,3.182-2.125,8.072
		c-6.028,0.066-10.958,1.168-14.57,1.975c-4.493,1.003-8.07,2.621-8.902,4.024c-0.196,0.33-0.25,0.651-0.163,0.955
		c0.104,0.36-0.341,0.819-0.857,1.35c-0.858,0.883-1.926,1.981-1.468,3.592c0.214,0.754,1.36,0.851,2.335,0.851
		c0.951,0,2.167-0.108,3.453-0.222c1.549-0.138,3.305-0.293,4.961-0.293c0.679,0,1.295,0.025,1.861,0.078
		c-3.484,0.974-7.066,2.611-7.637,4.093c-0.135,0.351-0.1,0.691,0.102,0.983c0.744,1.083,5.651,1.2,7.727,1.2
		c3.642,0,7.538-0.327,10.511-0.878c-0.115,0.962-0.23,1.98-0.346,3.014c-0.47,4.178-0.955,8.497-1.654,10.486
		c-4.32,3.66-16.644,17.024-19.347,20.118c-1.853,2.117-7.283,4.459-11.249,6.17c-1.629,0.703-3.037,1.31-4.004,1.808l-1.575,0.812
		c-2.686,1.386-4.807,2.481-5.477,2.737c-0.262,0.098-0.642,0.146-1.162,0.146c-0.373,0-0.76-0.024-1.112-0.045
		c-0.624-0.039-1.094-0.057-1.321,0.021c-0.153,0.052-0.244,0.197-0.23,0.367C4.478,109.451,5.42,110.434,5.922,110.521z
		 M59.18,40.411c-0.322,1.267-0.674,3.052-1.05,5.312l-0.182-0.012c-0.191-0.014-0.382-0.027-0.57-0.038
		c0.676-2.772,1.214-4.771,1.48-5.612C58.937,40.141,59.041,40.254,59.18,40.411z M60.846,45.933
		c0.202-1.054,0.384-1.99,0.546-2.777c0.704,0.909,1.517,1.976,2.387,3.131C62.748,46.149,61.781,46.032,60.846,45.933z
		 M77.988,43.821c0.077-0.193,0.162-0.338,0.253-0.428c0.294,0.173,0.74,0.554,1.375,1.376c-0.419-0.051-0.787-0.098-1.11-0.141
		C78.33,44.35,78.157,44.081,77.988,43.821z M74.301,43.834c0.311,0.384,0.801,1.11,1.41,2.093
		c-0.067,0.534-0.139,1.094-0.214,1.676c-0.364,0.221-0.784,0.447-1.252,0.671l-0.002-0.027
		C74.104,46.608,73.92,44.419,74.301,43.834z M73.944,56.285c-0.171,0.646-0.342,1.209-0.519,1.711
		c-0.365,1.034-0.823,2.528-1.371,4.468c0.453-2.27,0.917-4.376,1.289-6.004C73.55,56.398,73.75,56.339,73.944,56.285z"/>
</g>
</svg>
