<?xml version="1.0" encoding="iso-8859-1"?>
<!-- Generator: Adobe Illustrator 17.1.0, SVG Export Plug-In . SVG Version: 6.00 Build 0)  -->
<!DOCTYPE svg PUBLIC "-//W3C//DTD SVG 1.1//EN" "http://www.w3.org/Graphics/SVG/1.1/DTD/svg11.dtd">
<svg version="1.1" id="Capa_1" xmlns="http://www.w3.org/2000/svg" xmlns:xlink="http://www.w3.org/1999/xlink" x="0px" y="0px"
	 viewBox="0 0 150 150" style="enable-background:new 0 0 150 150;" xml:space="preserve">
<g>
	<path d="M101.057,57.932c1.976,0,5.899-0.074,6.613-0.355c2.005-0.791,3.834-1.967,5.604-3.104
		c0.559-0.359,1.117-0.718,1.681-1.065c4.471-2.753,9.358-4.791,14.525-6.055c0.561-0.137,1.691-0.242,3.001-0.364
		c4.371-0.406,8.086-0.859,9.274-2.304c0.298-0.362,0.427-0.769,0.382-1.208c-0.024-0.24-0.217-0.429-0.458-0.448
		c-2.434-0.194-5.164,0.262-7.766,0.699c-0.622,0.104-1.23,0.207-1.819,0.296c-5.827,0.889-10.356,2.226-14.252,4.208
		c-1.088,0.554-2.159,1.175-3.194,1.777c-1.902,1.104-3.869,2.247-5.956,2.962c-1.12,0.384-2.192,0.57-3.279,0.571
		c-2.17,0-4.101-0.757-6.145-1.558c-1.44-0.564-2.929-1.148-4.527-1.481c-0.051-0.043-0.149-0.223-0.208-0.33
		c-0.051-0.093-0.102-0.184-0.152-0.263c-2.143-3.367-2.673-5.384-0.406-9.169c3.909-6.522,9.285-12.382,15.547-16.946
		c3.266-2.38,6.767-4.415,10.406-6.047c0.08-0.036,8.017-3.788,7.877-5.686c-0.018-0.237-0.149-0.665-0.832-0.857
		c-0.204-0.057-0.424-0.086-0.654-0.086c-1.96,0-4.519,2.081-6.777,3.916c-0.921,0.749-1.792,1.457-2.398,1.818
		c-3.598,2.145-7.417,3.929-11.351,5.302c-3.144,1.097-5.941,3.172-8.804,6.53c-0.419,0.491-0.969,1.344-1.605,2.332
		c-1.375,2.132-3.674,5.699-5.153,5.699c0,0,0,0,0,0c-0.844-0.056-1.607-0.61-2.445-1.274c-0.266-0.21-0.555-0.421-0.85-0.636
		c-0.748-0.545-1.518-1.106-1.998-1.738c0.824-0.405,1.883-0.453,2.996-0.504c1.007-0.046,2.048-0.094,2.995-0.431
		c0.807-0.33,4.842-2.691,5.077-4.689c0.047-0.405-0.032-0.985-0.681-1.45c-0.258-0.186-0.584-0.279-0.97-0.279
		c-0.977,0-2.265,0.604-3.511,1.188c-0.969,0.454-1.972,0.924-2.595,0.931c-2.265,0-4.352-1.047-5.445-2.734
		c-0.736-1.137-0.973-2.644-0.616-3.933c0.093-0.336,0.449-0.819,0.793-1.287c0.604-0.819,1.228-1.666,1.095-2.485
		c-0.197-1.217-1.166-1.506-1.945-1.738c-0.827-0.247-1.481-0.441-1.681-1.489c-0.451-2.364,1.372-3.608,3.302-4.926
		c1.635-1.116,3.325-2.27,3.448-4.168c0.01-0.155-0.053-0.307-0.17-0.409c-0.118-0.103-0.277-0.144-0.428-0.114
		c-1.495,0.304-3.068,1.727-4.732,3.233c-1.862,1.686-3.827,3.427-5.184,3.079c-0.452-0.381-1.1-0.457-1.669-0.191l-0.127,0.059
		c-0.041,0.009-0.082,0.023-0.12,0.043c-1.381,0.7-3.481-1.158-5.486-2.977c-1.667-1.513-3.24-2.942-4.736-3.246
		c-0.152-0.029-0.311,0.011-0.428,0.114c-0.118,0.102-0.18,0.253-0.17,0.409c0.123,1.899,1.813,3.053,3.448,4.168
		c1.93,1.318,3.753,2.562,3.302,4.926c-0.2,1.047-0.854,1.242-1.681,1.489c-0.779,0.232-1.748,0.521-1.945,1.738
		c-0.133,0.82,0.491,1.667,1.094,2.485c0.344,0.467,0.7,0.95,0.793,1.287c0.357,1.29,0.122,2.796-0.615,3.933
		c-1.093,1.686-3.179,2.734-5.536,2.734c-0.001,0-0.001,0-0.001,0c-0.531-0.007-1.533-0.477-2.502-0.931
		c-1.246-0.584-2.534-1.188-3.511-1.188c-0.385,0-0.711,0.094-0.97,0.279c-0.649,0.465-0.729,1.045-0.681,1.45
		c0.235,1.999,4.271,4.36,5.099,4.698c0.925,0.329,1.966,0.376,2.973,0.422c1.112,0.051,2.172,0.099,2.996,0.504
		c-0.481,0.632-1.25,1.193-1.999,1.739c-0.294,0.214-0.583,0.425-0.849,0.636c-0.838,0.664-1.601,1.218-2.494,1.276
		c-1.43,0-3.731-3.57-5.105-5.702c-0.636-0.987-1.186-1.84-1.604-2.331c-2.863-3.358-5.661-5.433-8.804-6.53
		c-3.935-1.374-7.754-3.157-11.351-5.302c-0.606-0.361-1.477-1.069-2.398-1.818c-2.258-1.835-4.817-3.916-6.777-3.916
		c-0.23,0-0.45,0.029-0.654,0.086c-0.683,0.193-0.814,0.62-0.832,0.857c-0.139,1.898,7.797,5.65,7.877,5.686
		c3.64,1.633,7.141,3.667,10.406,6.047c6.262,4.564,11.638,10.424,15.547,16.946c2.268,3.784,1.738,5.802-0.405,9.169
		c-0.05,0.08-0.101,0.17-0.152,0.263c-0.059,0.107-0.157,0.287-0.127,0.295c-1.679,0.368-3.168,0.952-4.608,1.516
		c-2.044,0.801-3.975,1.558-6.145,1.558c-1.086,0-2.159-0.187-3.279-0.571c-2.087-0.715-4.054-1.858-5.956-2.962
		c-1.036-0.602-2.106-1.223-3.195-1.777c-3.896-1.981-8.425-3.318-14.252-4.208c-0.589-0.09-1.198-0.192-1.82-0.297
		c-2.602-0.436-5.331-0.89-7.765-0.698c-0.24,0.02-0.433,0.208-0.458,0.448c-0.044,0.439,0.084,0.846,0.382,1.208
		c1.188,1.445,4.904,1.898,9.274,2.304c1.31,0.122,2.44,0.227,3.001,0.364c5.167,1.265,10.054,3.302,14.525,6.055
		c0.564,0.347,1.123,0.707,1.682,1.065c1.769,1.137,3.597,2.312,5.603,3.103c0.713,0.281,4.637,0.355,6.612,0.355
		c1.562,0,3.372-0.032,4.667-0.152c-1.104,1.285-2.05,2.583-3.04,3.939c-0.339,0.464-0.683,0.936-1.04,1.416
		c-1.805,2.427-3.602,4.858-5.383,7.302c-4.289,5.882-7.7,10.756-10.736,15.339c-7.926,11.968-13.576,22.381-17.782,32.769
		c-1.626,4.016-3.042,8.661-1.209,12.657c1.618,3.53,5.559,5.722,10.285,5.722c1.26,0,2.495-0.164,3.67-0.486
		c3.466-0.952,6.106-3.127,8.659-5.231c1.832-1.51,3.724-3.068,5.885-4.124c0.985,1.323-0.303,4.052-0.873,5.259
		c-0.185,0.391-0.571,1.07-1.019,1.857c-2.243,3.944-4.382,7.961-3.771,9.953c0.143,0.466,0.438,0.82,0.851,1.024
		c0.229,0.113,0.505,0.035,0.643-0.18c1.935-3.039,3.717-6.937,5.289-10.376l0.641-1.4c0.421-0.914,0.775-2.026,1.151-3.204
		c0.628-1.971,1.278-4.008,2.273-5.206c0.553-0.666,1.463-1.122,2.426-1.605c0.781-0.392,1.589-0.797,2.31-1.357
		c0.913-0.709,1.745-1.519,2.549-2.301c0.71-0.691,1.445-1.405,2.219-2.032c0.318-0.257,0.665-0.321,1.101-0.204
		c5.185,9.377,11.331,13.147,19.416,11.996c5.568-0.792,9.75-4.843,12.433-12.042c0.259,0.003,0.477,0.083,0.683,0.25
		c0.774,0.627,1.509,1.342,2.22,2.033c0.804,0.782,1.636,1.591,2.548,2.3c0.72,0.561,1.528,0.965,2.31,1.357
		c0.963,0.483,1.873,0.939,2.426,1.605c0.995,1.197,1.645,3.234,2.273,5.205c0.375,1.178,0.73,2.29,1.151,3.204l0.641,1.4
		c1.572,3.439,3.354,7.337,5.289,10.376c0.095,0.148,0.256,0.231,0.422,0.231c0.074,0,0.15-0.017,0.221-0.052
		c0.413-0.204,0.708-0.558,0.851-1.024c0.611-1.992-1.527-6.009-3.771-9.953c-0.448-0.787-0.834-1.467-1.019-1.857
		c-0.569-1.207-1.858-3.936-0.873-5.259c2.162,1.056,4.053,2.614,5.885,4.124c2.553,2.104,5.193,4.279,8.659,5.231
		c1.175,0.323,2.41,0.486,3.67,0.486c4.726,0,8.667-2.192,10.285-5.722c1.832-3.997,0.417-8.641-1.209-12.657
		c-4.206-10.388-9.855-20.801-17.782-32.769c-3.03-4.575-6.441-9.449-10.736-15.339c-1.781-2.444-3.578-4.875-5.383-7.302
		c-0.356-0.479-0.7-0.95-1.038-1.413c-0.99-1.357-1.937-2.656-3.042-3.942C97.686,57.9,99.495,57.932,101.057,57.932
		C101.057,57.932,101.057,57.932,101.057,57.932z"/>
</g>
</svg>
