<?xml version="1.0" encoding="iso-8859-1"?>
<!-- Generator: Adobe Illustrator 17.1.0, SVG Export Plug-In . SVG Version: 6.00 Build 0)  -->
<!DOCTYPE svg PUBLIC "-//W3C//DTD SVG 1.1//EN" "http://www.w3.org/Graphics/SVG/1.1/DTD/svg11.dtd">
<svg version="1.1" id="Capa_1" xmlns="http://www.w3.org/2000/svg" xmlns:xlink="http://www.w3.org/1999/xlink" x="0px" y="0px"
	 viewBox="0 0 150 150" style="enable-background:new 0 0 150 150;" xml:space="preserve">
<g>
	<path d="M6.709,57.251c-0.383,0.221-0.765,0.441-1.146,0.649c-0.644,0.351-1.375,1.189-1.485,1.987
		c-0.25,1.807-0.246,3.63-0.214,5.017c0.015,0.65,0.712,1.216,1.126,1.496c1.253,0.845,1.813,1.798,1.817,3.088
		c0.005,1.675,1.92,3.556,4.018,3.947c0.444,0.083,0.893,0.117,1.328,0.15c0.075,0.006,0.151,0.012,0.227,0.018
		c0.49,2.289,1.118,2.735,3.482,2.735l0.141,0c0.448,0,0.767,0.089,0.876,0.244c0.094,0.133,0.079,0.391-0.042,0.726
		c-0.053,0.147-0.034,0.311,0.051,0.442c0.085,0.131,0.227,0.215,0.382,0.226l3.663,0.271l-0.416,1.168
		c-0.06,0.168-0.025,0.355,0.09,0.491c0.115,0.135,0.295,0.202,0.47,0.168c0.246-0.044,0.478-0.096,0.701-0.146
		c0.651-0.146,1.171-0.172,1.742-0.203c0.508-0.031,0.982-0.018,1.085,0.115c0.044,0.058,0.171,0.31-0.051,1.153
		c-0.315,1.197,0.594,2.422,2.212,2.979c0.313,0.108,0.656,0.196,1.007,0.285c1.234,0.315,2.401,0.612,2.754,1.916
		c0.071,0.262,0.336,0.418,0.601,0.355c0.355-0.087,0.711-0.196,1.067-0.306c0.743-0.229,1.444-0.444,2.119-0.444l0.105,0.001
		c0.518,0.019,1.094,0.319,1.761,0.667c0.361,0.188,0.747,0.389,1.172,0.574c0.144,0.062,0.309,0.054,0.445-0.023
		c0.049-0.028,0.248-0.118,0.757-0.118c1.262,0,2.605,0.497,2.745,0.709c0.031,0.192,0.171,0.349,0.358,0.401
		c0.665,0.187,1.344,0.282,2.021,0.282c2.136,0,3.954-0.902,5.713-1.774c0.61-0.303,1.191-0.591,1.768-0.832l3.388,4.153
		c0.161,0.198,0.443,0.244,0.658,0.104c0.262-0.168,0.529-0.363,0.802-0.562c0.604-0.441,1.228-0.897,1.897-1.12
		c0.654-0.217,1.424-0.23,2.239-0.244c0.401-0.007,0.815-0.014,1.239-0.043c0.231-0.016,0.421-0.189,0.458-0.417
		c0.092-0.552,0.399-1.07,2.011-1.122l0.101-0.001c0.5,0,0.915,0.119,1.179,0.331c-1.948,6.778-6.275,12.254-9.837,16.273
		l-1.273,1.372c-0.739,0.796-1.479,1.591-2.203,2.384c-0.89,0.931-1.785,1.851-2.674,2.764c-1.013,1.042-2.019,2.075-2.999,3.105
		c-0.285,0.3-0.362,0.719-0.202,1.093c0.276,0.645,1.175,0.851,1.666,0.335c0.959-1.009,1.941-2.02,2.93-3.038
		c1.893-1.949,3.85-3.964,5.695-6.015c0.298-0.3,0.593-0.603,0.882-0.913c2.75-2.957,4.981-5.496,6.934-8.279
		c0.819-1.167,1.262-2.577,1.691-3.941c0.198-0.631,0.396-1.263,0.631-1.869l0.146-0.38c0.259-0.679,0.503-1.32,0.86-1.884
		c0.11-0.175,0.389-0.333,0.658-0.485c0.019-0.011,0.038-0.021,0.057-0.033c0.017,0.021,0.034,0.042,0.05,0.063
		c0.208,0.258,0.404,0.502,0.455,0.722c0.158,0.689,0.275,1.409,0.388,2.106c0.158,0.976,0.322,1.984,0.604,2.957
		c0.675,2.328,1.498,4.755,2.589,7.638c0.556,1.469,1.183,2.881,1.848,4.375l0.515,1.162c0.159,0.363,0.756,0.363,0.915,0
		l0.515-1.162c0.665-1.495,1.292-2.907,1.848-4.375c1.091-2.883,1.914-5.311,2.589-7.638c0.283-0.973,0.446-1.982,0.604-2.958
		c0.113-0.696,0.229-1.417,0.388-2.105c0.051-0.221,0.247-0.465,0.455-0.723c0.017-0.021,0.033-0.042,0.05-0.063
		c0.019,0.011,0.038,0.022,0.057,0.033c0.269,0.152,0.547,0.31,0.658,0.485c0.356,0.564,0.601,1.206,0.86,1.885l0.146,0.379
		c0.235,0.606,0.433,1.238,0.631,1.869c0.429,1.364,0.872,2.774,1.691,3.941c1.952,2.783,4.184,5.323,6.934,8.28
		c0.288,0.31,0.583,0.613,0.864,0.895c1.862,2.069,3.82,4.084,5.712,6.033c0.989,1.019,1.971,2.029,2.93,3.038
		c0.194,0.204,0.446,0.316,0.71,0.316c0.404,0,0.788-0.262,0.955-0.651c0.161-0.374,0.083-0.793-0.202-1.093
		c-0.98-1.031-1.986-2.064-2.999-3.105c-0.889-0.914-1.784-1.833-2.667-2.756c-0.732-0.801-1.472-1.597-2.211-2.393l-1.266-1.364
		c-3.569-4.026-7.896-9.503-9.844-16.281c0.264-0.212,0.679-0.331,1.179-0.331l0.1,0.001c1.613,0.052,1.92,0.57,2.012,1.122
		c0.038,0.228,0.228,0.401,0.458,0.417c0.424,0.029,0.838,0.036,1.239,0.043c0.815,0.014,1.585,0.027,2.239,0.244
		c0.669,0.222,1.294,0.678,1.897,1.12c0.273,0.2,0.54,0.394,0.802,0.562c0.215,0.139,0.498,0.092,0.658-0.104l3.388-4.153
		c0.576,0.241,1.158,0.529,1.768,0.832c1.759,0.873,3.577,1.775,5.713,1.775c0.677,0,1.356-0.095,2.021-0.282
		c0.188-0.053,0.314-0.168,0.346-0.36c0.152-0.253,1.496-0.75,2.758-0.75c0.509,0,0.708,0.09,0.757,0.118
		c0.137,0.077,0.302,0.085,0.445,0.023c0.425-0.186,0.811-0.386,1.172-0.574c0.667-0.348,1.244-0.648,1.761-0.667l0.105-0.001
		c0.675,0,1.376,0.216,2.119,0.444c0.356,0.11,0.712,0.219,1.067,0.306c0.261,0.062,0.53-0.093,0.601-0.355
		c0.353-1.304,1.52-1.601,2.754-1.916c0.351-0.089,0.693-0.177,1.007-0.285c1.618-0.556,2.527-1.781,2.212-2.979
		c-0.222-0.843-0.096-1.095-0.051-1.152c0.103-0.134,0.578-0.145,1.085-0.116c0.541,0.032,1.073,0.055,1.742,0.203
		c0.223,0.05,0.455,0.102,0.701,0.146c0.17,0.031,0.354-0.033,0.47-0.168c0.115-0.136,0.149-0.323,0.09-0.491l-0.416-1.168
		l3.663-0.271c0.156-0.011,0.297-0.095,0.382-0.226c0.085-0.131,0.104-0.294,0.051-0.442c-0.121-0.335-0.136-0.593-0.042-0.726
		c0.109-0.155,0.428-0.244,0.893-0.244l0.124,0c2.365,0,2.992-0.446,3.482-2.735c0.076-0.006,0.151-0.012,0.227-0.018
		c0.435-0.033,0.883-0.068,1.328-0.15c2.098-0.391,4.013-2.272,4.018-3.947c0.004-1.291,0.564-2.243,1.817-3.088
		c0.414-0.28,1.111-0.846,1.126-1.496c0.032-1.386,0.036-3.209-0.214-5.017c-0.11-0.797-0.841-1.636-1.484-1.986
		c-0.381-0.208-0.763-0.428-1.146-0.649c-1.467-0.845-2.983-1.719-4.624-2.028c-4.537-0.856-8.577-1.32-12.351-1.419
		c-1.193-0.031-2.385-0.054-3.577-0.077c-5.166-0.101-10.508-0.205-15.731-0.985c-3.41-0.51-6.903-0.79-10.282-1.061
		c-1.507-0.121-3.013-0.242-4.517-0.383c-0.407-0.038-0.814-0.072-1.221-0.106c-0.888-0.074-1.805-0.151-2.695-0.271
		c-0.129-0.017-0.308-0.124-0.499-0.293c0.015-0.041,0.027-0.075,0.025-0.08c0.232-0.14,0.463-0.285,0.695-0.43
		c0.785-0.491,1.597-0.998,2.372-1.302c0.913-0.223,1.85-0.355,2.756-0.482l0.279-0.04c2.689-0.382,4.982-1.298,7.008-2.798
		c3.522-2.608,5.708-6.818,5.848-11.263c0.008-0.277-0.086-0.532-0.268-0.719c-0.186-0.192-0.455-0.302-0.738-0.302
		c-0.575,0-1.021,0.425-1.039,0.989c-0.155,4.947-3.394,9.509-8.058,11.353l-0.162,0.063c-0.461,0.113-0.929,0.211-1.396,0.31
		c-0.685,0.144-1.392,0.293-2.022,0.475l-0.26,0.042c-3.062,0.5-6.524,1.066-7.833,4.509c-0.663,0.317-1.36,0.344-2.249,0.344
		c-0.001,0-0.002,0-0.004,0c-1.086-0.002-1.99-0.354-2.615-1.018c-0.641-0.68-0.945-1.635-0.88-2.763
		c0.004-0.075,0.096-1.843-0.691-2.036c-1.402-0.344-1.952-1.492-2.436-2.504l-0.156-0.323c-0.062-0.125-0.174-0.219-0.309-0.258
		c-0.132-0.039-0.279-0.02-0.399,0.053L75,42.606l-0.261-0.157c-0.121-0.072-0.266-0.092-0.399-0.053
		c-0.135,0.039-0.247,0.133-0.309,0.258l-0.156,0.323c-0.484,1.013-1.034,2.16-2.436,2.504c-0.788,0.193-0.696,1.961-0.691,2.037
		c0.064,1.128-0.24,2.083-0.88,2.763c-0.625,0.664-1.529,1.015-2.688,1.018c-0.823,0-1.516-0.027-2.18-0.344
		c-1.309-3.442-4.771-4.009-7.833-4.509l-0.205-0.03c-0.685-0.194-1.393-0.343-2.077-0.487c-0.467-0.099-0.934-0.197-1.413-0.319
		l-0.145-0.054c-4.664-1.844-7.902-6.406-8.058-11.353c-0.018-0.564-0.464-0.989-1.039-0.989c-0.283,0-0.553,0.11-0.738,0.302
		c-0.181,0.187-0.276,0.442-0.268,0.719c0.14,4.444,2.326,8.655,5.848,11.263c2.026,1.5,4.318,2.416,7.008,2.798l0.279,0.04
		c0.906,0.127,1.843,0.26,2.694,0.463c0.837,0.323,1.649,0.831,2.434,1.321c0.231,0.145,0.463,0.29,0.652,0.397
		c0.019,0.021,0.043,0.066,0.065,0.115c-0.19,0.168-0.368,0.273-0.496,0.291c-0.89,0.12-1.808,0.197-2.695,0.271
		c-0.407,0.034-0.814,0.068-1.221,0.106c-1.504,0.141-3.01,0.262-4.517,0.383c-3.379,0.271-6.873,0.551-10.282,1.061
		c-5.223,0.78-10.565,0.884-15.731,0.985c-1.192,0.023-2.384,0.046-3.577,0.077c-3.773,0.099-7.813,0.562-12.351,1.419
		C9.693,55.532,8.176,56.406,6.709,57.251z"/>
</g>
</svg>
