<?xml version="1.0" encoding="iso-8859-1"?>
<!-- Generator: Adobe Illustrator 17.1.0, SVG Export Plug-In . SVG Version: 6.00 Build 0)  -->
<!DOCTYPE svg PUBLIC "-//W3C//DTD SVG 1.1//EN" "http://www.w3.org/Graphics/SVG/1.1/DTD/svg11.dtd">
<svg version="1.1" id="Capa_1" xmlns="http://www.w3.org/2000/svg" xmlns:xlink="http://www.w3.org/1999/xlink" x="0px" y="0px"
	 viewBox="0 0 150 150" style="enable-background:new 0 0 150 150;" xml:space="preserve">
<g>
	<path d="M139.374,98.523c-0.978-2.214-1.997-4.415-2.87-6.671c-1.13-2.92-1.075-2.941-0.208-6.06
		c0.871-3.13-0.021-5.73-2.442-7.121c-1.198-0.688-1.53-0.559-2.135,0.734c-0.594,1.268-1.2,2.532-1.862,3.766
		c-0.322,0.6-0.781,1.126-1.425,2.036c-0.674-1.264-1.141-2.284-1.737-3.221c-0.807-1.269-1.494-2.751-2.625-3.646
		c-2.029-1.604-3.526-1.598-4.951,0.472c-0.873,1.268-1.554,2.683-2.184,4.093c-0.24,0.538-0.346,0.902-1.027,0.961
		c-2.787,0.238-5.53,0.614-8.263,1.371c-1.439,0.399-3.252-0.159-4.799-0.615c-5.559-1.637-11.179-2.681-16.971-1.823
		c-10.201,1.511-16.746,7.583-20.541,16.898c-1.978,4.856-2.835,9.906-2.063,15.145c0.161,1.091,0.56,2.147,0.843,3.221
		c0.099,0.375,0.192,0.751,0.279,1.104c-5.879,1.278-12.092,1.896-17.806-0.19c-5.527-2.018-9.948-6.449-10.407-12.496
		c-0.504-6.63,4.007-12.77,8.282-17.333c4.865-5.193,10.514-9.639,14.454-15.645c7.639-11.647,8.778-26.834,1.581-38.931
		c-1.534-2.579-3.428-4.902-5.589-6.916c-0.265-0.421-0.654-0.778-1.127-1.027c-0.021-0.011-0.042-0.021-0.062-0.031
		c-6.732-5.67-15.72-8.451-24.61-6.702c-7.841,1.542-14.713,6.219-18.776,13.109c-0.163,0.276-0.236,0.577-0.241,0.882
		c-0.897,1.08-1.264,2.509-1.063,4.04c0.338,2.57,2.516,4.27,4.981,4.575c5.441,0.674,8.02-4.812,11.349-7.932
		c6.956-6.518,17.125-7.864,25.621-3.81c2.317,2.072,4.297,4.535,5.8,7.201c3.154,5.593,4.188,12.004,3.397,18.343
		c-0.841,6.744-3.822,12.993-8.172,18.168c-4.59,5.461-10.393,9.783-14.74,15.464c-4.177,5.458-7.123,12.617-5.662,19.561
		c1.358,6.455,6.438,11.274,12.355,13.769c6.642,2.801,14.056,2.289,21.009,0.82l0.026,0.25c0.441-0.08,1.035,0.037,1.401,0.289
		c5.504,3.802,11.614,4.594,18.092,3.836c2.814-0.329,5.499,0.265,7.976,1.705c0.369,0.214,0.823,0.282,1.335,0.45l0.174-1.279
		c0.63,0.13,1.179,0.242,1.899,0.39c-0.001-0.396-0.003-0.761-0.004-1.189c0.467,0.009,0.946,0.019,1.532,0.031
		c-0.208-0.488-0.392-0.92-0.629-1.478c0.404,0.085,0.723,0.153,1.416,0.299c-0.442-0.713-0.62-1.329-1.027-1.595
		c-1.261-0.823-2.573-1.592-3.943-2.21c-0.475-0.214-1.199-0.011-1.768,0.15c-1.028,0.29-2.013,0.734-3.041,1.026
		c-0.393,0.112-0.854-0.017-1.331-0.187c2.382-1.586,3.819-4.41,7.074-4.749c1.658-0.172,3.259-0.862,4.902-1.246
		c0.372-0.087,0.871,0.023,1.209,0.22c0.564,0.328,1.097,0.749,1.554,1.217c3.204,3.276,7.338,4.936,11.406,6.763
		c1.129,0.507,1.98,1.632,3.016,2.523c0.101-0.354,0.239-0.839,0.429-1.506c0.794,0.332,1.565,0.653,2.343,0.978
		c0.574-1.33-0.709-2.042-1.454-3.25l2.693,0.367c-0.371-0.627-0.604-1.478-1.156-1.83c-0.58-0.371-1.465-0.265-2.586-0.417
		c0.661-0.389,0.979-0.576,1.356-0.798c-1.027-1.072-2.211-0.67-3.224-0.262c-1.215,0.49-2.197,0.315-3.013-0.578
		c-0.92-1.008-0.899-2.262-0.55-3.505c0.252-0.898,0.829-0.522,1.372-0.308c1.298,0.511,2.585,1.063,3.916,1.47
		c0.646,0.198,1.386,0.064,2.073,0.162c0.598,0.085,1.241,0.173,1.754,0.457c0.98,0.542,1.882,1.224,2.816,1.848
		c0.136-0.093,0.273-0.186,0.409-0.278c-0.292-0.738-0.585-1.476-0.87-2.193c1.089-0.16,2.113,0.364,3.36,1.85l0.191-1.402
		c0.437,0.101,0.843,0.195,1.261,0.292c0.038-1.409-1.373-2.909-2.706-2.913c-0.41-0.001-0.821,0.091-1.231,0.092
		c-3.45,0.009-4.977-1.148-5.8-4.521c-0.1-0.408,0.163-1.044,0.467-1.391c2.896-3.307,6.694-4.462,10.956-4.549
		c1.855-0.038,3.679-0.154,5.295,1.026c0.271,0.198,0.71,0.249,1.065,0.232c1.439-0.07,2.88-0.157,4.313-0.306
		c2.473-0.258,3.222-1.423,2.295-3.678C141.198,102.408,140.241,100.485,139.374,98.523z"/>
</g>
</svg>
