<?xml version="1.0" encoding="iso-8859-1"?>
<!-- Generator: Adobe Illustrator 17.1.0, SVG Export Plug-In . SVG Version: 6.00 Build 0)  -->
<!DOCTYPE svg PUBLIC "-//W3C//DTD SVG 1.1//EN" "http://www.w3.org/Graphics/SVG/1.1/DTD/svg11.dtd">
<svg version="1.1" id="Capa_1" xmlns="http://www.w3.org/2000/svg" xmlns:xlink="http://www.w3.org/1999/xlink" x="0px" y="0px"
	 viewBox="0 0 150 150" style="enable-background:new 0 0 150 150;" xml:space="preserve">
<g>
	<path d="M143.792,102.834c-3.63-7.902-9.186-14.46-14.743-21.003c-5.49-6.463-12.504-9.695-20.988-8.729
		c-0.131,0.015-0.26,0.042-0.391,0.06c-1.196-0.085-2.391,0.155-3.425,0.817c-1.829,0.589-3.635,1.354-5.426,2.029
		c-3.401,1.283-6.649,2.981-10.076,4.178c-4.299,1.503-8.448,0.778-12.171-1.843c-2.28-1.604-4.289-3.633-6.674-5.037
		c-3.505-2.063-7.155-3.942-10.915-5.482c-1.527-0.625-3.691-0.651-5.232-0.067c-2.496,0.946-3.857-0.289-5.398-1.678
		c-6.074-5.472-12.174-10.917-18.23-16.409c-1.837-1.666-3.627-3.381-5.421-5.093c-0.646-2.136-2.398-3.834-4.571-4.398
		c-0.729-0.708-1.458-1.417-2.186-2.125c-0.698-1.348-1.797-2.413-3.18-3.086c-0.235-0.228-0.472-0.455-0.708-0.683l-0.192-0.217
		c-0.349-1.068-1.133-1.919-2.121-2.397c-0.033-0.037-0.065-0.074-0.098-0.111c-0.131-0.148-0.306-0.168-0.458-0.113
		c-0.038-0.012-0.073-0.029-0.112-0.039c-0.281-0.271-0.562-0.542-0.843-0.813c-0.611-0.69-1.221-1.381-1.832-2.071
		c-0.001-0.001-0.002-0.001-0.002-0.002c-0.482-0.725-1.355-1.195-2.277-1.057c-0.228,0.034-0.328,0.188-0.335,0.359
		c-0.077,0.156-0.073,0.35,0.084,0.514c0.365,0.383,0.731,0.765,1.097,1.148c3.788,4.589,7.46,9.283,11.466,13.673
		c7.594,8.323,15.422,16.432,23.156,24.629c0.895,0.949,1.754,1.94,2.723,2.807c1.815,1.625,1.865,4.148-0.202,5.584
		c-1.709,1.187-1.499,2.424-0.826,4.002c0.662,1.551,1.459,3.136,1.666,4.773c0.747,5.895,3.599,10.615,7.568,14.847
		c0.601,0.641,1.131,1.916,0.901,2.647c-0.453,1.437-1.825,1.429-3.125,0.953c-0.436-0.16-0.881-0.434-1.317-0.425
		c-0.99,0.02-1.977,0.182-2.965,0.287c0.169,1.159-0.017,2.552,0.567,3.436c2.902,4.388,9.878,5.139,13.689,1.406
		c1.364-1.337,2.331-1.472,3.96-0.676c1.865,0.912,3.868,1.655,5.893,2.094c1.745,0.378,2.468,1.365,2.843,2.898
		c0.658,2.688,2.056,4.778,3.939,6.437c0.393,0.553,0.951,0.974,1.603,1.238c0.589,0.399,1.209,0.768,1.858,1.11
		c2.754,1.452,5.585,1.678,8.364-0.213c0.638-0.434,1.576-0.474,2.39-0.593c4.498-0.655,7.324-7.25,4.692-10.99
		c-1.039-1.477-2.49-1.448-3.607,0.05c-0.783,1.05-1.68,3-2.382,2.937c-2.045-0.183-4.018-1.176-6.027-2.238
		c5.566-1.564,9.42-5.09,12.983-8.927c2.665-2.207,5.021-4.768,7.076-7.641c1.685-1.762,3.395-3.502,5.256-5.056
		c3.715-3.102,8.003-3.528,12.436-1.586c0.322,0.141,0.609,0.297,0.866,0.464c0.028,0.029,0.058,0.06,0.086,0.089
		c0.227,0.234,0.465,0.414,0.706,0.566c1.127,1.22,0.932,2.827-0.671,4.373c-1.051,1.013-2.331,1.788-3.506,2.673
		c-2.058,1.55-3.519,3.435-4.392,5.614c-0.837,0.638-1.03,1.723-0.743,2.635c-0.107,0.608-0.18,1.232-0.212,1.876
		c-0.045,0.928,0.67,1.893,1.035,2.842c0.614-0.61,1.163-1.31,1.858-1.805c0.85-0.605,1.771-1.24,2.755-1.491
		c1.101-0.281,2.309-0.182,3.47-0.184c2.767-0.004,5.415-0.309,7.421-2.889c1.74,3.041,4.393,3.834,7.528,4.029
		c1.061,0.066,2.308,1.133,3.001,2.085c0.836,1.147,1.629,1.797,3.042,1.525v-2.888c0.548-0.772,0.693-1.835,0-2.752V102.834z"/>
</g>
</svg>
