<?xml version="1.0" encoding="iso-8859-1"?>
<!-- Generator: Adobe Illustrator 17.1.0, SVG Export Plug-In . SVG Version: 6.00 Build 0)  -->
<!DOCTYPE svg PUBLIC "-//W3C//DTD SVG 1.1//EN" "http://www.w3.org/Graphics/SVG/1.1/DTD/svg11.dtd">
<svg version="1.1" id="Capa_1" xmlns="http://www.w3.org/2000/svg" xmlns:xlink="http://www.w3.org/1999/xlink" x="0px" y="0px"
	 viewBox="0 0 150 150" style="enable-background:new 0 0 150 150;" xml:space="preserve">
<g>
	<path d="M138.989,56.034c0.055-0.156-0.009-0.362-0.143-0.46c-11.463-8.352-23.15-16.275-37.403-19.233
		c-1.229-0.255-2.424-0.681-3.656-0.914c-5.822-1.102-10-2.959-10.474-10.372c-0.49-7.673-5.065-13.84-12.286-19.246
		c-0.133-0.099-0.198-0.051-0.147,0.107c0.614,1.92,0.768,3.03,1.323,3.877c3.426,5.232,2.987,11.111,2.932,16.909
		c-0.039,4.122-3.164,5.58-6.39,6.544c-6.917,2.067-13.902,3.908-20.858,5.846c-8.349,2.326-15.892,5.701-19.243,15.461
		c-0.054,0.157-0.184,0.184-0.293,0.06c-6.24-7.124-12.139-13.858-18.021-20.574c-0.364-0.415-0.741-0.846-0.88-0.879
		c-0.086-0.02-0.178-0.018-0.254,0.014c-0.23,0.093-0.46,0.186-0.689,0.279c-0.381,0.154-0.802,0.317-0.841,0.434
		c-0.022,0.067-0.014,0.144,0.029,0.214C21.299,49.924,19.11,64.63,6.735,79.14c-0.107,0.126-0.067,0.192,0.092,0.144
		c11.834-3.531,17.84-14.241,28.97-15.775c0.164-0.023,0.177,0.018,0.029,0.093c-4.586,2.314-4.633,6.075-2.484,9.562
		c2.855,4.634,6.25,9.025,9.95,13.024c4.475,4.837,9.434,9.242,14.366,13.628c1.089,0.968,3.505,1.963,4.35,1.428
		c3.984-2.522,7.732-1.572,11.712-0.314c2.873,0.908,5.867,1.432,9.761,2.336c0.161,0.037,0.236,0.19,0.166,0.34
		c-3.241,6.925-6.301,13.221-9.127,19.621c-1.582,3.583-2.641,7.393-4.159,11.008c-1.25,2.976-0.734,5.839,2.067,6.703
		c1.657,0.512,5.157-0.924,5.995-2.474c3.622-6.703,6.913-13.642,9.61-20.765c1.293-3.415,0.824-7.464,1.521-11.156
		c0.219-1.16,1.626-2.992,2.504-3c14.742-0.135,23.669-9.208,32.01-19.804c4.792-6.088,10.586-11.391,15.987-16.993
		c0.806-0.836,1.881-1.413,3.16-2.306c0.136-0.095,0.14-0.255,0.009-0.357C137.795,59.884,137.681,59.729,138.989,56.034z"/>
</g>
</svg>
