<?xml version="1.0" encoding="iso-8859-1"?>
<!-- Generator: Adobe Illustrator 17.1.0, SVG Export Plug-In . SVG Version: 6.00 Build 0)  -->
<!DOCTYPE svg PUBLIC "-//W3C//DTD SVG 1.1//EN" "http://www.w3.org/Graphics/SVG/1.1/DTD/svg11.dtd">
<svg version="1.1" id="Capa_1" xmlns="http://www.w3.org/2000/svg" xmlns:xlink="http://www.w3.org/1999/xlink" x="0px" y="0px"
	 viewBox="0 0 150 150" style="enable-background:new 0 0 150 150;" xml:space="preserve">
<g>
	<path d="M146.701,44.55c-3.671-0.162-7.34-0.359-11.007-0.59c-0.425-0.027-0.902-0.263-1.231-0.547
		c-0.447-0.385-0.935-0.515-1.45-0.554c-0.047-0.219-0.094-0.438-0.141-0.658c0.025-0.043,0.051-0.086,0.072-0.131
		c0.081-0.18,0.105-0.496,0-0.619c-0.081-0.096-0.238-0.127-0.399-0.156c-0.563-1.069-1.656-1.803-2.845-2.089
		c0.097-0.042,0.201-0.086,0.316-0.136c-0.492-0.632-0.937-1.234-1.426-1.797c-0.072-0.083-0.358,0.018-0.544,0.034
		c0.028,0.214,0.028,0.436,0.09,0.64c0.083,0.275,0.213,0.535,0.323,0.802c-0.022-0.005-0.045-0.01-0.067-0.016
		c-0.193-0.151-0.401-0.289-0.623-0.408c-0.222-0.119-0.451-0.215-0.684-0.291c-0.635-0.935-1.118-1.189-2.086-0.932
		c-0.383-0.558-0.896-1.034-1.525-1.37c-1.388-0.742-3.031-0.64-4.316,0.115c-0.127-0.087-0.26-0.168-0.399-0.243
		c-0.487-0.26-1.005-0.415-1.528-0.477c0.076-0.336,0.155-0.686,0.242-1.067c-0.324-0.014-0.465-0.065-0.54-0.015
		c-0.503,0.332-0.999,0.628-1.555,0.112c-0.407-0.377-0.774-0.804-1.215-1.135c-0.306-0.229-0.694-0.38-1.069-0.478
		c-0.503-0.131-1.029-0.171-1.542-0.263c-0.109-0.019-0.239-0.164-0.305-0.134c-1.023,0.469-1.713-0.123-2.411-0.824
		c-0.341,0.468-0.649,0.876-0.941,1.296c-0.417,0.6-0.689,0.563-1.203,0.088c-0.627-0.58-1.357-1.051-2.053-1.554
		c-0.07-0.051-0.238-0.032-0.326,0.017c-0.921,0.511-1.638-0.02-2.217-0.571c-0.839-0.798-1.773-1.164-2.897-1.173
		c-0.109,1.479-0.663,1.711-2.033,1.009c-0.771-0.395-1.62-0.64-2.491-0.974c-0.106,0.151-0.233,0.333-0.468,0.669
		c-1.087-0.422-2.208-0.856-3.448-1.337c0.042,0.669,0.083,1.309,0.114,1.798c-1.047-0.386-2.105-0.733-3.125-1.168
		c-0.741-0.316-1.432-0.749-2.228-1.175c-0.031,0.041-0.176,0.233-0.431,0.569c-0.446-0.522-0.796-1.04-1.252-1.433
		c-0.342-0.294-0.82-0.431-1.24-0.633c-0.237-0.115-0.482-0.215-0.718-0.332c-0.249-0.124-0.491-0.26-0.736-0.391
		c-0.051,0.061-0.102,0.122-0.153,0.184c0.099,0.245,0.199,0.491,0.312,0.772c-0.513,0.397-0.86,0.129-1.16-0.264
		c-0.264-0.345-0.47-0.738-0.754-1.064c-0.452-0.518-0.951-0.988-1.641-0.603c-0.444-0.478-0.827-0.892-1.21-1.305
		c-0.07,0.052-0.14,0.105-0.21,0.157c0.015,0.271,0.029,0.542,0.061,1.117c-0.95-0.421-1.824-0.665-2.521-1.159
		c-0.672-0.475-1.162-1.208-1.726-1.82c-0.136,0.1-0.219,0.131-0.221,0.166c-0.048,1.319-0.171,1.566-1.555,1.681
		c-1.088,0.09-2.2-0.103-3.3-0.179c-0.201-0.014-0.5-0.173-0.582-0.092c-0.834,0.822-1.85,0.165-2.741,0.382
		c-0.805,0.197-1.573,0.548-2.376,0.757c-0.361,0.094-0.772,0.033-1.155-0.003c-0.371-0.035-0.739-0.117-1.104-0.198
		c-0.816-0.18-1.445,0.186-2.038,0.673c-0.067,0.055-0.147,0.108-0.229,0.129c-1.504,0.385-2.995,0.836-4.516,1.129
		c-2.341,0.451-4.445,1.404-6.405,2.723c-0.093,0.063-0.216,0.167-0.223,0.26c-0.127,1.755-1.771,1.962-2.859,2.503
		c-0.92,0.457-1.789,0.776-2.601,1.525c-1.194,1.1-2.743,1.804-4.072,2.772c-0.633,0.461-1.046,1.218-1.666,1.705
		c-0.933,0.732-2.003,1.29-2.936,2.023c-0.981,0.771-1.917,1.614-2.782,2.513c-0.65,0.676-1.199,1.463-1.705,2.256
		c-0.194,0.304-0.096,0.781-0.228,1.143c-0.095,0.262-0.379,0.681-0.529,0.66c-0.757-0.104-0.937,0.414-0.88,0.891
		c0.096,0.812,0.012,1.472-0.695,1.972c-0.09,0.064-0.092,0.252-0.169,0.488c0.267-0.063,0.437-0.103,0.737-0.174
		c-0.16,0.217-0.229,0.338-0.323,0.434c-0.422,0.425-0.861,0.803-0.345,1.497c0.093,0.125-0.226,0.729-0.492,0.912
		c-0.715,0.49-1.388,0.981-1.663,1.849c-0.039,0.123-0.044,0.257-0.097,0.58c0.416-0.398,0.686-0.658,0.957-0.917
		c0.081,0.06,0.161,0.121,0.242,0.181c-1.027,1.68-2.803,2.909-3.103,5.087l1.101-1.015c0.078,0.044,0.155,0.088,0.233,0.132
		c-0.34,0.698-0.617,1.437-1.037,2.084c-0.421,0.648-0.961,1.187,0.029,1.802c0.119,0.074,0.148,0.545,0.036,0.7
		c-0.858,1.192-0.345,2.506-0.46,3.954c0.378-0.414,0.635-0.696,1.096-1.202c0.087,0.516,0.257,0.854,0.167,1.095
		c-0.583,1.571-0.218,3.178-0.264,4.769c-0.017,0.594-0.065,1.246-0.319,1.764c-1.311,2.683-3.16,4.957-5.424,6.908
		c-1.703,1.467-3.293,3.032-4.774,4.75c-2.103,2.438-3.633,5.178-5.223,7.937c-0.943,1.636-1.551,3.358-2.005,5.091
		c-0.548,2.091-0.666,4.311-0.81,6.487c-0.185,2.79,0.685,5.422,1.463,8.06c0.453,1.535,0.797,3.102,1.211,4.65
		c0.097,0.363,0.215,0.747,0.426,1.05c1.164,1.671,2.378,3.308,3.539,4.981c0.698,1.006,1.301,2.078,2.008,3.078
		c0.341,0.483,0.789,0.906,1.246,1.287c0.94,0.784,1.871,1.593,2.892,2.259c1.469,0.959,3.021,1.791,4.528,2.694
		c1.566,0.938,3.367,0.877,5.071,1.238c2.06,0.437,3.885-0.182,5.706-1.075c1.599-0.784,1.972-2.199,2.018-3.713
		c0.038-1.228-0.65-2.275-1.676-2.917c-0.396-0.248-1.184-0.199-1.616,0.037c-0.394,0.215-0.634,0.842-0.786,1.335
		c-0.16,0.52,0.061,1.396-0.23,1.586c-0.615,0.401-1.452,0.609-2.203,0.624c-2.117,0.042-3.862-0.916-5.408-2.297
		c-0.257-0.23-0.59-0.377-0.893-0.553c-1.349-0.781-2.495-1.765-3.406-3.057c-0.873-1.238-1.901-2.366-2.806-3.584
		c-0.652-0.878-1.391-1.754-1.782-2.751c-0.985-2.51-1.899-5.06-2.635-7.652c-0.431-1.518-0.61-3.147-0.638-4.73
		c-0.034-1.885,0.337-3.737,0.737-5.609c0.621-2.901,2.408-5.137,3.7-7.647c0.459-0.891,1.403-1.55,2.181-2.254
		c1.768-1.602,3.528-3.217,5.372-4.728c1.348-1.105,2.799-2.09,4.254-3.055c0.812-0.538,1.698-0.994,2.605-1.348
		c0.409-0.16,0.96,0.085,1.428,0.017c0.27-0.039,0.494-0.35,0.753-0.514c0.417-0.264,0.846-0.507,1.269-0.759
		c0.068,0.062,0.137,0.124,0.205,0.186c-0.102,0.316-0.204,0.631-0.304,0.942c0.403-0.193,0.766-0.367,1.14-0.547
		c0.034,1.114,0.057,1.89,0.08,2.665c0.086,0.011,0.173,0.023,0.259,0.034c0.344-0.321,0.682-0.651,1.034-0.963
		c0.925-0.82,1.62-0.564,2.142,0.552c0.581,1.241,0.836,2.619,1.993,3.629c1.097,0.958,0.47,2.277,0.122,3.453
		c-0.181,0.611-0.431,1.224-0.476,1.848c-0.121,1.689,0.692,2.935,2.024,3.907c0.534,0.39,0.827,0.207,1.115-0.288
		c0.477-0.82,0.622-1.628,0.089-2.483c-0.136-0.218-0.2-0.48-0.302-0.735c0.384-0.016,0.943,0.088,1.025-0.065
		c0.268-0.498,0.432-1.079,0.507-1.646c0.146-1.101,0.42-1.37,1.549-1.263c0.258,0.024,0.506,0.144,0.765,0.186
		c0.592,0.096,1.107,0.143,1.108-0.748c0-0.538,0.207-1.08,0.351-1.612c0.199-0.734,0.771-0.768,1.398-0.726
		c0.637,0.043,1.285,0.114,1.912,0.039c0.817-0.098,1.484-0.473,1.778-1.348c0.094-0.279,0.385-0.493,0.646-0.81
		c-0.197-0.135-0.405-0.23-0.546-0.387c-0.142-0.159-0.315-0.383-0.305-0.569c0.067-1.176,1.405-2.213,2.59-2.044
		c0.086,0.012,0.181,0.08,0.253,0.06c0.759-0.215,1.513-0.447,2.271-0.664c0.215-0.062,0.438-0.122,0.659-0.131
		c0.459-0.018,0.927,0.05,1.378-0.009c0.779-0.103,1.526-0.317,2.259,0.24c0.407,0.309,0.789,0.171,1.045-0.358
		c0.462-0.956,1.023-1.225,2.055-1.073c0.154,0.023,0.364,0.12,0.417,0.24c0.046,0.104-0.072,0.304-0.155,0.438
		c-0.171,0.277-0.367,0.538-0.564,0.822c0.951-0.304,1.761-0.514,2.529-0.826c0.51-0.207,0.934-0.697,1.449-0.803
		c0.398-0.082,0.916,0.17,1.311,0.395c0.523,0.298,0.912,0.446,1.5,0.034c0.522-0.367,1.208-0.547,1.848-0.672
		c0.183-0.036,0.648,0.397,0.662,0.634c0.009,0.149,0.012,0.298,0.019,0.447c-0.267,0.829-0.301,1.744-0.058,2.638
		c0.037,0.137,0.075,0.274,0.112,0.412c0.001,0.188,0.002,0.377,0.004,0.564c0.012,0.006,0.026,0.012,0.039,0.018
		c-0.042,1.037-0.084,2.073-0.125,3.11c-0.194,0.163-0.441,0.288-0.673,0.388c-0.618,0.268-1.26,0.483-1.639,0.625
		c-0.558,0.105-0.872,0.164-1.186,0.222c0.147,0.24,0.295,0.48,0.575,0.935c-0.046,0.425-0.428,0.864-1.069,1.155
		c-1.055,0.478-1.376,0.983-1.073,1.579c0.279,0.549,1.195,0.53,2.055,0.091c1.185-0.605,2.406-1.145,3.633-1.661
		c0.663-0.279,1.649,0.322,1.89,1.231c0.233,0.88,0.737,0.898,1.37,0.6c0.661-0.312,1.242-0.867,1.926-1.034
		c0.745-0.182,1.58-0.121,2.357-0.019c1.141,0.151,2.078,1.022,3.316,0.956c0.608-0.032,1.01-0.235,1.259-0.76
		c0.371-0.781,0.919-0.812,1.577-0.388c0.639,0.411,1.248,0.877,1.919,1.226c0.319,0.166,0.751,0.116,1.131,0.164
		c-0.035-0.312-0.053-0.627-0.108-0.936c-0.235-1.316-1.19-2.002-2.138-2.696c-0.031-0.745-0.529-1.524-1.288-1.664
		c-0.151-0.201-0.341-0.381-0.563-0.528c-1.184-0.784-1.773-2.132-1.79-3.496c0.157-0.058,0.302-0.144,0.434-0.246
		c0.926,0.33,1.756,0.888,2.464,1.629c0.111,0.177,0.214,0.333,0.327,0.481c0.692,0.902,1.366,1.824,2.129,2.664
		c0.345,0.38,0.836,0.802,1.305,0.891c0.147,0.228,0.361,0.432,0.658,0.591c0.041,0.022,0.081,0.037,0.122,0.056
		c0.238,0.413,0.635,0.733,1.126,0.835c0.354,0.074,0.709,0.147,1.064,0.221c0.494,0.103,0.99-0.01,1.382-0.277
		c0.281,0.146,0.561,0.298,0.84,0.454c0.403,0.225,0.952,0.198,1.436,0.267c0.373,0.053,0.749,0.083,1.125,0.11
		c0.159,0.011,0.363,0.05,0.479-0.015c0.057,0.028,0.114,0.052,0.171,0.073c0.07,0.05,0.144,0.099,0.227,0.143
		c2,1.068,3.656-2.033,1.657-3.101c-0.081-0.043-0.162-0.078-0.241-0.108c-0.069-0.05-0.142-0.098-0.224-0.141
		c-0.04-0.021-0.08-0.039-0.119-0.056c-0.02-0.035-0.04-0.07-0.062-0.104c-0.134-0.456-0.381-0.869-0.729-1.227
		c-0.022-0.53-0.29-1.048-0.902-1.375c-0.444-0.237-0.871-0.268-1.245-0.162c-0.142-0.265-0.365-0.505-0.687-0.691
		c-0.335-0.194-0.671-0.387-1.006-0.581l0.063-0.152l-0.594-0.318c-0.595-0.501-1.288-0.887-2.073-1.135
		c0.698-0.488,1.162-1.129,2.035-0.626c0.074,0.043,0.169,0.086,0.249,0.077c1.025-0.12,2.075-0.151,3.061-0.418
		c0.504-0.137,0.876-0.722,1.336-1.068c0.561-0.422,1.042-0.868,1.085-1.636c0.009-0.158,0.128-0.415,0.243-0.444
		c0.721-0.183,0.908-0.769,1.195-1.343c0.24-0.481,0.651-0.324,0.876,0.086c0.215,0.391,0.466,0.787,0.919,0.512
		c0.227-0.138,0.354-0.605,0.352-0.922c-0.003-0.758,0.479-1.188,1.002-1.522c0.497-0.318,0.788,0.038,0.945,0.537
		c0.367,1.163,0.376,1.158,1.536,0.726c0.442-0.165,0.888-0.32,1.333-0.476c0.443-0.155,0.719-0.067,1.001,0.388
		c0.41,0.661,0.981,1.22,1.469,1.834c0.347,0.437,0.651,0.909,1.01,1.335c0.201,0.24,0.5,0.395,0.709,0.63
		c0.456,0.512,0.888,1.045,1.318,1.579c0.468,0.582,0.861,1.24,1.397,1.749c1.077,1.024,2.156,2.078,3.375,2.912
		c0.902,0.617,2.029,0.906,3.055,1.34c0.181,0.077,0.362,0.153,0.543,0.23c0.463,0.198,0.925,0.4,1.391,0.592
		c0.16,0.066,0.344,0.079,0.494,0.159c1.268,0.676,3.02,0.522,4.042-0.439c0.245-0.23,0.373-0.65,0.433-1.003
		c0.408-2.377,0.786-4.76,1.167-7.141c0.036-0.228,0.017-0.464,0.042-0.694c0.103-0.947,0.213-1.894,0.323-2.84
		c0.017-0.145,0.103-0.306,0.063-0.428c-0.069-0.208-0.112-0.415-0.137-0.62c0.277-1.526,0.555-3.052,0.832-4.578
		c1-0.464,1.228-1.39,1.444-2.33c0.045-0.197-0.013-0.536,0.086-0.584c0.938-0.456,0.547-1.491,0.972-2.167
		c0.133-0.211,0.043-0.549,0.116-0.813c0.083-0.299,0.211-0.591,0.361-0.863c0.141-0.256,0.351-0.473,0.502-0.724
		c0.478-0.795,0.381-1.555-0.01-2.387c-0.246-0.525-0.147-1.095,0.454-1.53c0.957-0.694,1.174-1.775,1.424-2.883
		c0.194-0.861,0.348-1.87,1.377-2.319c1.132-0.495,2.215-1.113,3.368-1.546c0.879-0.33,1.858-0.385,2.752-0.686
		c2.084-0.701,3.328-2.267,4.088-4.254C148.536,45.24,147.833,44.6,146.701,44.55z M133.246,43.944
		c-0.026-0.121-0.052-0.242-0.078-0.364c0.066,0.064,0.132,0.129,0.2,0.195C133.326,43.831,133.286,43.887,133.246,43.944z"/>
</g>
</svg>
