<?xml version="1.0" encoding="iso-8859-1"?>
<!-- Generator: Adobe Illustrator 17.1.0, SVG Export Plug-In . SVG Version: 6.00 Build 0)  -->
<!DOCTYPE svg PUBLIC "-//W3C//DTD SVG 1.1//EN" "http://www.w3.org/Graphics/SVG/1.1/DTD/svg11.dtd">
<svg version="1.1" id="Capa_1" xmlns="http://www.w3.org/2000/svg" xmlns:xlink="http://www.w3.org/1999/xlink" x="0px" y="0px"
	 viewBox="0 0 150 150" style="enable-background:new 0 0 150 150;" xml:space="preserve">
<g>
	<path d="M132.174,68.837c-1.148-0.384-2.321-1.32-3.02-2.322c-6.866-9.849-14.55-18.876-24.698-25.55
		c-7.385-4.857-15.608-7.107-24.297-7.955c-8.17-0.797-16.277-0.132-24.358,1.079c-4.892,0.733-7.24-0.459-9.442-4.903
		c-2.435-4.913-3.22-10.234-3.72-15.61c-0.225-2.416-0.924-2.887-3.031-1.682c-3.77,2.156-5.333,5.786-5.424,9.807
		c-0.13,5.701,0.108,11.431,0.564,17.118c0.311,3.873-0.249,7.048-2.823,10.26c-4.703,5.867-9.313,11.825-13.323,18.186
		c-0.439-0.306-0.879-0.612-1.318-0.918c-0.694-0.909-1.472-1.884-2.152-2.925c-0.913-1.397-1.746-1.647-2.99-0.316
		C8.375,67.141,6.988,74.955,8.872,80.46c0.138,1.122,0.533,2.209,1.184,3.134c-2.505,5.724-4.488,11.632-5.166,17.958
		c-0.311,2.902,0.146,5.893,0.335,8.839c0.108,1.672,0.466,3.328,0.57,4.999c0.202,3.256,4.045,6.846,7.249,6.339
		c2.079-0.329,4.411-0.801,6.026-2.012c6.508-4.881,13.921-8.146,20.865-12.235c3.264-1.922,6.26-4.187,8.99-6.922
		c1.276-0.973,2.383-2.165,3.252-3.515c11.756,1.112,24.51-3.343,31.276-11.296c1.451-1.706,2.588-3.772,3.471-5.842
		c0.826-1.937,0.094-2.727-2.021-2.74c-3.634-0.022-7.269-0.006-10.903-0.006v0.259c-1.62,0-3.24,0.006-4.86,0.009
		c1.495-0.497,2.941-1.098,4.307-1.881c1.813-0.735,3.498-1.884,5.182-3.38c3.627-3.223,7.796-6.085,12.176-8.16
		c4.989-2.363,9.843-2.848,14.519-1.974c0.854,0.269,1.716,0.581,2.591,0.939c0.618,0.253,1.257,0.348,1.891,0.317
		c2.817,1.052,5.56,2.559,8.219,4.404c0.488,0.339,0.962,0.699,1.426,1.073c-0.035,0.333-0.07,0.666-0.105,0.999
		c-0.027,0.013-0.055,0.027-0.082,0.04c-0.467,2.988-2.794,4.577-4.648,6.516c-2.391,2.5-4.487,5.141-3.638,8.912
		c0.275,1.223,0.872,2.387,1.423,3.528c0.172,0.355,0.702,0.785,1.022,0.751c0.32-0.034,0.776-0.574,0.84-0.949
		c0.475-2.772,2.875-2.64,4.74-3.607c1.729-0.897,3.46-0.645,5.028-1.237c0.913-0.345,1.408-1.796,2.112-2.856
		c0.047,0.037,0.094,0.075,0.141,0.11c0.988,2.559,3.346,3.025,5.826,2.589c3.744-0.659,6.659,1.108,9.553,2.873
		c1.038,0.633,1.657,1.954,2.855,3.442c0.319-1.336,0.695-2.182,0.697-3.029C145.24,77.764,140.766,71.714,132.174,68.837z"/>
</g>
</svg>
