<?xml version="1.0" encoding="iso-8859-1"?>
<!-- Generator: Adobe Illustrator 17.1.0, SVG Export Plug-In . SVG Version: 6.00 Build 0)  -->
<!DOCTYPE svg PUBLIC "-//W3C//DTD SVG 1.1//EN" "http://www.w3.org/Graphics/SVG/1.1/DTD/svg11.dtd">
<svg version="1.1" id="Capa_1" xmlns="http://www.w3.org/2000/svg" xmlns:xlink="http://www.w3.org/1999/xlink" x="0px" y="0px"
	 viewBox="0 0 150 150" style="enable-background:new 0 0 150 150;" xml:space="preserve">
<g>
	<path d="M120.842,81.654c-3.143-9.899-7.28-19.317-13.916-27.466c-1.809-2.222-3.505-4.539-5.202-6.849
		c-3.425-4.66-5.417-9.993-6.239-15.611c-0.803-5.493-1.978-10.801-4.181-15.896c-0.278-0.642-0.241-1.585,0.008-2.256
		c0.618-1.666,2.231-3.382,1.997-4.845c-0.335-2.095,0.493-3.165,1.588-4.48c0.163-0.195,0.223-0.476,0.26-0.776
		c0.055-0.455-0.275-0.914-0.736-1.028c-0.313-0.078-0.612-0.122-0.844-0.018c-4.163,1.867-8.64,3.324-12.302,5.921
		c-2.655,1.882-4.973,2.706-7.847,1.781c-4.794-1.542-9.459-1.307-14.183,0.257c-0.901,0.298-2.208,0.285-3.004-0.161
		c-4.58-2.563-9.076-5.276-13.594-7.949c-0.431-0.255-0.984-0.461-1.234-0.461c-0.25,0-0.306,0.378-0.139,0.85
		c0.195,0.553,0.395,1.102,0.704,1.582c1.12,1.74,3.111,3.086,2.061,5.681c-0.177,0.438,0.293,1.421,0.754,1.787
		c2.578,2.045,1.973,4.881,1.287,7.2c-1.258,4.25-1.612,8.503-0.897,12.75c0.561,3.333-0.242,6.181-1.331,9.212
		c-0.9,2.503-1.46,5.222-1.612,7.878c-0.241,4.22-0.254,8.485,0.076,12.697c0.352,4.485,1.084,8.954,1.893,13.385
		c0.822,4.508,2.024,8.947,2.892,13.448c0.452,2.344-0.056,5.059,0.953,7.061c1.159,2.3,1.194,4.431,1.064,6.744
		c-0.281,5.033,0.302,9.966,3.612,13.915c3.015,3.597,5.321,7.835,9.562,10.421c2.678,1.632,2.448,3.879-0.401,5.388
		c-1.9,1.006-4.074,1.514-6.15,2.165c-2.532,0.794-4.113,2.995-3.944,5.641c0.12,1.879,1.11,2.932,3.374,3.511
		c0.485,0.124,0.633-0.127,0.339-0.532c-1.695-2.346-1.753-3.573-0.166-4.726c0.405-0.294,0.833-0.083,0.954,0.403
		c0.418,1.674,0.976,1.729,3.123,0.996c0.762-0.26,1.526-0.516,2.202-0.742c0.475-0.159,1.074,0.057,1.337,0.482
		c0.379,0.612,0.722,1.166,1.054,1.7c0.264,0.425,0.586,0.722,0.72,0.663c0.134-0.059,0.243-0.513,0.243-1.013v-2.448
		c0-0.501,0.21-0.559,0.469-0.131c0.242,0.4,0.45,0.743,0.668,1.105c0.259,0.428,0.756,0.489,1.11,0.135
		c0.784-0.784,1.478-1.482,2.181-2.17c0.637-0.624,1.282-1.241,1.927-1.858c0.362-0.346,0.618-0.217,0.447,0.253
		c-0.111,0.304-0.247,0.585-0.369,0.872c-1.789,4.211-0.523,8.59,3.26,11.165c0.136,0.093,0.326,0.107,0.527,0.104
		c0.302-0.005,0.284-0.319-0.014-0.721c-1.119-1.507-1.848-3.132-1.341-5.222c0.118-0.487,0.534-0.542,0.956-0.273
		c1.155,0.739,1.943-0.156,2.644-1.14c0.874-1.226,1.682-2.505,2.442-3.805c0.952-1.628,2.25-2.857,4.191-2.419
		c2.232,0.504,4.637,1.025,5.318,3.828c0.421,1.733,1.38,2.971,3.229,3.404c0.317,0.074,0.611,0.247,0.972,0.467
		c0.427,0.261,0.461,0.708,0.069,1.019c-0.432,0.343-0.776,0.616-1.14,0.861c-0.327,0.22-0.671,0.413-1.073,0.637
		c-0.438,0.243-0.385,0.474,0.115,0.492c3.568,0.127,4.383-0.753,4.678-4.385c0.117-1.447,0.061-2.908,0.035-4.211
		c-0.01-0.5,0.247-0.593,0.566-0.207c1.917,2.316,4.08,4.856,6.109,7.499c1.199,1.562,2.663,2.465,4.565,2.539
		c2.106,0.081,4.217,0.036,6.534,0.024c0.5-0.002,0.851-0.404,0.783-0.9c-0.584-4.286-1.069-8.046-1.638-11.793
		c-0.301-1.981-0.205-3.761,0.715-5.667c1.302-2.7,2.331-5.568,3.154-8.455c2.34-8.203,2.756-16.612,2.512-25.083
		c-0.014-0.5,0.287-0.697,0.675-0.438c0.388,0.259,0.644,0.067,0.571-0.429c-0.259-1.764-0.492-3.354-0.734-5.004
		c-0.073-0.495,0.165-0.62,0.531-0.279c0.05,0.047,0.099,0.092,0.147,0.137c0.366,0.342,0.779,0.57,0.923,0.51
		c0.144-0.06,0.196-0.509,0.13-1.006C121.564,85.442,121.421,83.479,120.842,81.654z"/>
</g>
</svg>
