<?xml version="1.0" encoding="iso-8859-1"?>
<!-- Generator: Adobe Illustrator 17.1.0, SVG Export Plug-In . SVG Version: 6.00 Build 0)  -->
<!DOCTYPE svg PUBLIC "-//W3C//DTD SVG 1.1//EN" "http://www.w3.org/Graphics/SVG/1.1/DTD/svg11.dtd">
<svg version="1.1" id="Capa_1" xmlns="http://www.w3.org/2000/svg" xmlns:xlink="http://www.w3.org/1999/xlink" x="0px" y="0px"
	 viewBox="0 0 150 150" style="enable-background:new 0 0 150 150;" xml:space="preserve">
<g>
	<path d="M125.957,65.534c-7.238-14.206-19.941-21.549-35.282-24.669c-0.697-0.142-1.418-0.378-2.016-0.75
		c-5.097-3.175-10.45-5.607-16.541-6.12c-0.376-0.032-0.701-0.878-1.016-1.367c-0.399-0.619-0.647-1.383-1.162-1.872
		c-4.129-3.927-9.292-5.97-14.617-7.513c-3.168-0.918-6.503-1.57-9.789-1.7c-5.537-0.219-9.235,2.976-10.384,8.389
		c-0.286,1.347-0.694,2.784-0.493,4.096c0.531,3.479-1.243,5.683-3.639,7.702c-8.467,7.138-16.924,14.289-25.372,21.45
		c-0.802,0.68-1.516,1.465-1.911,2.637c0.115-0.341,1.513-0.933,1.844-1.141c0.723-0.454,1.442-0.913,2.158-1.377
		c0.416-0.269,0.825-0.549,1.239-0.821c2.262,0.453,8.214-2.802,17.309-7.657c16.259-8.679,17.735-5.701,17.735-5.701
		c2.342,1.777,7.018,8.102,7.289,10.39c0.512,4.327,1.094,8.693,2.239,12.881c0.928,3.392,3.45,5.834,6.811,7.248
		c0.645,0.271,1.262,0.74,1.738,1.26c3.735,4.082,8.198,7.172,13.075,9.708c3.612,1.879,5.22,5.591,4.276,9.653
		c-0.271,1.166-0.617,2.501-0.309,3.583c1.122,3.948-0.302,7.399-1.84,10.806c-1.158,2.565-2.445,5.11-3.997,7.45
		c-2.431,3.663-6.406,3.61-10.243,3.794c-0.885,0.042-4.197,1.949-5.072,2.206c0.702,0.611,3.803,0.204,4.561,0.282
		c2.271,0.234,4.582,0.084,7.046,0.084c-0.125,1.674-1.663,1.658-1.337,7.363c2.249-0.094,3.198-2.26,8.272-8.358
		c2.802,1.753,6.338-1.089,9.612,1.276c0.226-0.183,0.801-0.649,1.376-1.115c0.127,0.099,0.254,0.197,0.381,0.296
		c-1.689,2.242-3.378,4.484-5.067,6.725c0.166,0.235-1.046,1.176,0.009,2.661c1.064-2.137,3.604-3.105,4.849-4.08
		c2.3-1.803,4.465-1.639,6.763-0.235c1.729,1.056,3.212,3.564,5.425,4.315c-0.802-1.506,0.815-5.397-2.209-5.917
		c-3.644-4.867-4.223-10.008-1.82-15.554c1.247-2.878,2.698-5.705,3.57-8.698c0.827-2.84,1.355-5.86,1.393-8.809
		c0.036-2.795,0.318-4.678,3.432-5.749c2.553-0.878,4.83-2.666,7.092-4.247c1.344-0.939,2.335-0.899,3.709-0.067
		c3.613,2.191,7.333,4.206,10.694,6.113c0.978-0.542,1.59-1.117,2.268-1.212c1.687-0.236,3.404-0.299,5.11-0.343
		c1.419-0.037,2.921,0.177,2.719-1.721c1.683,0.948,3.134,2.209,4.78,2.565c1.609,0.348,3.418-0.226,5.139-0.396
		c0.169-0.36,0.339-0.719,0.509-1.079c-1.234-1.011-2.599-1.9-3.68-3.054C135.942,82.055,130.427,74.308,125.957,65.534z
		 M97.428,97.283c-0.219,0.675-0.792,1.237-1.005,1.913c-0.547,1.738-1.609,3.619-1.326,5.245c0.516,2.973-0.098,5.614-0.915,8.339
		c-0.886,2.955-1.713,5.928-2.579,8.889c-0.709,2.423-2.358,3.546-4.882,3.335c-0.725-0.061-1.447-0.171-2.171-0.245
		c-2.939-0.298-5.119-3.19-4.41-6.081c0.579-2.359,1.2-4.743,2.141-6.972c2.463-5.832,4.767-11.588-0.094-17.073
		c4.577,0,8.755,0.176,12.908-0.068C97.461,94.426,98.189,94.936,97.428,97.283z"/>
</g>
</svg>
