<?xml version="1.0" encoding="iso-8859-1"?>
<!-- Generator: Adobe Illustrator 17.1.0, SVG Export Plug-In . SVG Version: 6.00 Build 0)  -->
<!DOCTYPE svg PUBLIC "-//W3C//DTD SVG 1.1//EN" "http://www.w3.org/Graphics/SVG/1.1/DTD/svg11.dtd">
<svg version="1.1" id="Capa_1" xmlns="http://www.w3.org/2000/svg" xmlns:xlink="http://www.w3.org/1999/xlink" x="0px" y="0px"
	 viewBox="0 0 150 150" style="enable-background:new 0 0 150 150;" xml:space="preserve">
<g>
	<path d="M146.588,97.907c-1.26-1.172-2.807-1.878-4.382-2.499c-1.594-0.628-3.229-1.15-4.829-1.764
		c-0.382-0.146-0.767-0.412-1.026-0.725c-0.635-0.767-1.373-1.31-2.351-1.559c-1.744-0.444-3.382-1.289-5.227-1.352
		c-0.868-0.029-1.737-0.075-2.601-0.154c-0.243-0.022-0.517-0.136-0.699-0.297c-0.583-0.513-1.093-1.117-1.708-1.584
		c-0.304-0.231-0.834-0.401-1.159-0.293c-0.265,0.089-0.449,0.615-0.542,0.979c-0.111,0.437-0.097,0.908-0.121,1.364
		c-0.042,0.822-0.205,1.055-1.004,1.123c-1.162,0.1-2.339,0.096-3.244,1.02c-0.067,0.069-0.306,0.015-0.442-0.039
		c-0.467-0.184-0.915-0.422-1.389-0.583c-0.262-0.089-0.609-0.172-0.836-0.073c-0.985,0.432-1.925,0.125-2.674-0.373
		c-3.63-2.414-7.786-3.318-11.909-4.345c-0.529-0.132-1.038-0.346-1.552-0.532c-2.445-0.885-4.877-1.809-7.338-2.647
		c-1.553-0.529-3.14-0.535-4.698,0.081c-0.317,0.125-0.67,0.164-0.984,0.295c-1.461,0.611-2.971,0.581-4.439,0.168
		c-2.633-0.741-5.316-1.4-7.832-2.444c-5.855-2.431-11.379-5.536-16.711-8.954c-1.428-0.916-2.576-2.257-3.929-3.305
		c-1.858-1.44-3.772-2.81-5.692-4.167c-3.397-2.4-7.066-4.277-10.945-5.792c-1.338-0.523-2.486-1.52-3.743-2.263
		c-1.573-0.931-3.207-1.764-4.743-2.75c-1.59-1.021-3.151-2.105-4.622-3.289c-2.441-1.964-4.822-4.005-7.188-6.059
		c-2.283-1.981-4.021-4.425-5.695-6.918c-1.323-1.971-2.361-4.104-3.034-6.352c-0.467-1.558-0.722-3.219-0.262-4.916
		c1.676-6.191,8.923-13.39,15.775-11.915c0.002,0,0.003,0.001,0.005,0.001c0.481,0.104,0.96,0.223,1.427,0.381
		c0.191,0.065,0.383,0.13,0.571,0.203c0.013,0.005,0.025,0.01,0.036,0.014c0.723,0.336,1.424,0.723,2.076,1.182
		c0.084,0.058,0.167,0.118,0.249,0.178c0.134,0.11,0.267,0.221,0.395,0.336c0.3,0.27,0.594,0.547,0.867,0.843
		c0.137,0.148,0.273,0.296,0.403,0.45c0.055,0.066,0.182,0.231,0.24,0.305c0.161,0.226,0.316,0.457,0.46,0.695
		c0.241,0.402,0.47,0.812,0.664,1.239c0,0.002,0.001,0.004,0.002,0.006c0.072,0.193,0.144,0.387,0.205,0.584
		c0.123,0.398,0.236,0.801,0.315,1.21c0.021,0.105,0.041,0.21,0.06,0.315c0.012,0.106,0.027,0.243,0.032,0.309
		c0.033,0.486,0.05,0.973,0.025,1.46c-0.011,0.208-0.021,0.417-0.043,0.625c-0.002,0.023-0.004,0.043-0.006,0.062
		c-0.136,0.772-0.329,1.537-0.614,2.269c-0.045,0.098-0.091,0.196-0.139,0.293c-0.094,0.185-0.188,0.37-0.292,0.549
		c-0.177,0.303-0.362,0.602-0.564,0.889c-0.055,0.071-0.114,0.145-0.147,0.182c-0.135,0.153-0.27,0.306-0.414,0.451
		c-0.21,0.211-0.425,0.417-0.65,0.612c-0.112,0.082-0.349,0.261-0.431,0.315c-0.169,0.11-0.339,0.22-0.514,0.32
		c-0.253,0.145-0.509,0.284-0.771,0.411c-0.042,0.004-0.724,0.274-0.892,0.323c-0.387,0.113-0.778,0.216-1.175,0.286
		c-0.054,0.01-0.108,0.018-0.162,0.027c-0.005,0.001-0.009,0.001-0.013,0.001c-0.2,0.017-0.401,0.033-0.602,0.039
		c-0.401,0.01-0.803,0.01-1.203-0.026c-0.05-0.005-0.129-0.016-0.206-0.027c-0.12-0.022-0.24-0.045-0.36-0.074
		c-0.393-0.093-0.777-0.206-1.157-0.341c-1.589-0.562-3.378,0.622-3.801,2.158c-0.471,1.712,0.572,3.24,2.158,3.801
		c3.977,1.407,8.944,0.654,12.31-1.911c1.679-1.28,3.157-2.776,4.127-4.682c0.985-1.935,1.566-3.967,1.714-6.136
		c0.278-4.063-1.216-8.046-3.92-11.061c-2.733-3.048-6.503-4.856-10.541-5.317c-7.097-0.812-12.198,2.683-16.138,8.188
		c-1.874,2.618-3.223,5.442-3.866,8.67c-0.506,2.538-0.016,4.889,0.643,7.205c1.539,5.407,4.594,10.003,8.357,14.097
		c1.74,1.894,3.786,3.514,5.746,5.198c2.097,1.801,4.198,3.608,6.408,5.264c1.475,1.105,3.145,1.948,4.727,2.911
		c0.231,0.141,0.456,0.294,0.716,0.462c-0.172,0.217-0.302,0.404-0.454,0.571c-1.51,1.668-2.657,3.585-3.333,5.701
		c-0.595,1.863-0.777,3.815-0.629,5.818c0.342,4.624,2.114,8.709,4.435,12.619c0.339,0.57,0.655,1.157,1.035,1.698
		c0.816,1.159,1,2.481,0.819,3.805c-0.363,2.647-0.857,5.277-1.297,7.913c-0.203,1.218-0.399,2.437-0.607,3.654
		c-0.242,1.421,0.318,2.646,0.949,3.844c1.459,2.77,2.867,5.571,4.44,8.276c0.906,1.556,1.449,3.202,1.823,4.919
		c0.347,1.592,0.951,2.998,2.282,4.004c0.333,0.252,0.702,0.457,1.045,0.678c0.471-0.19,0.981-0.397,1.491-0.603
		c-0.015,0.065-0.029,0.129-0.044,0.194c0.813,0.175,1.626,0.349,2.544,0.546c0.001,0.005,0.03,0.197,0.085,0.565
		c0.28-0.367,0.474-0.62,0.674-0.881c1.047-0.05,2.162,0.393,3.238-0.46v1.161c0.054,0.016,0.109,0.032,0.164,0.048
		c0.539-0.87,1.077-1.74,1.657-2.676v2.027c1.005-0.652,1.25-2.623,0.241-3.665c-0.405-0.418-0.758-0.909-1.04-1.419
		c-0.629-1.138-1.495-2.016-2.653-2.593c-1.646-0.82-2.745-2.142-3.614-3.726c-1.596-2.91-2.81-5.951-3.317-9.244
		c-0.316-2.054,0.261-3.968,1-5.919c1.125,1.31,2.129,2.619,3.278,3.785c1.697,1.724,3.499,3.344,5.249,5.015
		c0.195,0.186,0.351,0.415,0.516,0.632c1.377,1.81,2.389,3.83,3.416,5.847c0.706,1.386,1.792,2.32,3.448,2.439
		c1.29,0.093,2.577,0.244,3.862,0.398c0.158,0.019,0.296,0.211,0.465,0.341c0.312-0.055,0.692-0.185,1.069-0.176
		c0.802,0.019,1.259-0.236,1.58-0.992c0.039-0.093,0.094-0.18,0.272-0.25v1.745c0.827-0.425,1.048-1.022,0.95-2.509
		c2.644,0.636,5.3,1.235,7.636,2.708c2.767,1.745,5.87,2.754,8.813,4.114c2.133,0.986,4.37,0.724,6.593,0.761
		c0.454,0.008,0.985,0.024,1.348,0.251c4.145,2.585,8.758,3.987,13.385,5.35c0.916,0.27,1.884,0.36,2.827,0.543
		c2.287,0.444,4.396,1.388,6.507,2.329c1.089,0.485,2.207,0.872,3.548,0.548c-0.146,0.834,0.369,1.234,0.876,1.575
		c0.75,0.504,1.482,1.053,2.466,1.087c1.179,0.04,2.357,0.157,3.533,0.258c0.15,0.013,0.292,0.131,0.506,0.233
		c0.134-0.199,0.293-0.438,0.459-0.686c1.192,0.035,2.418,0.171,3.601-0.383c0.014,0.106,0.035,0.268,0.036,0.274
		c1.379-0.505,2.76-1.011,4.216-1.544c0.114,0.398,0.202,0.708,0.291,1.018c0.059,0.001,0.118,0.001,0.177,0.002
		c0.053-0.428,0.103-0.858,0.162-1.285c0.062-0.447,0.133-0.894,0.199-1.34l0.196-0.029c0.162,0.606,0.324,1.211,0.533,1.989
		c0.146-0.375,0.312-0.65,0.354-0.942c0.137-0.95-0.04-1.866-0.733-2.545c-0.921-0.903-1.874-1.793-2.916-2.547
		c-0.764-0.553-1.655-0.996-2.555-1.28c-1.555-0.492-3.167-0.804-4.745-1.225c-1.521-0.405-3.027-0.863-4.545-1.277
		c-0.571-0.156-1.171-0.211-1.735-0.386c-0.561-0.174-1.17-0.339-1.624-0.684c-1.649-1.257-3.243-2.589-4.998-4.006
		c0.953,0,1.72,0.065,2.472-0.012c2.069-0.213,4.128-0.522,6.197-0.722c1.777-0.172,3.545-0.016,5.328,0.147
		c1.167,0.107,1.644,1.025,2.544,1.357c0.679,0.251,1.332,0.682,2.027,0.759c1.856,0.205,3.728,0.286,5.596,0.362
		c0.481,0.02,0.968-0.19,1.458-0.235c0.18-0.017,0.377,0.135,0.606,0.226c0.422-0.592,1.74-0.448,1.697-1.753
		c0.066,0.03,0.133,0.06,0.199,0.091c0.045,0.454,0.09,0.908,0.135,1.354c0.653-0.485,0.736-1.63,0.105-2.46
		c-1.509-1.984-3.249-3.696-5.647-4.593c-0.079-0.029-0.151-0.075-0.441-0.221c0.626-0.302,1.083-0.587,1.579-0.75
		c2.012-0.662,4.095-1.032,6.201-0.996c1.094,0.019,2.179,0.454,3.271,0.688c1.071,0.23,2.135,0.316,3.085-0.387
		c0.957-0.707,1.213-1.796,1.45-2.864c0.038-0.169-0.352-0.412-0.494-0.65c-0.099-0.166-0.202-0.411-0.151-0.572
		c0.26-0.818,0.571-1.62,0.862-2.428c0.015-0.042,0.002-0.099,0.026-0.133c0.911-1.305,0.278-2.751,0.35-4.128
		C147.052,98.525,146.826,98.128,146.588,97.907z"/>
</g>
</svg>
