<?xml version="1.0" encoding="iso-8859-1"?>
<!-- Generator: Adobe Illustrator 17.1.0, SVG Export Plug-In . SVG Version: 6.00 Build 0)  -->
<!DOCTYPE svg PUBLIC "-//W3C//DTD SVG 1.1//EN" "http://www.w3.org/Graphics/SVG/1.1/DTD/svg11.dtd">
<svg version="1.1" id="Capa_1" xmlns="http://www.w3.org/2000/svg" xmlns:xlink="http://www.w3.org/1999/xlink" x="0px" y="0px"
	 viewBox="0 0 150 150" style="enable-background:new 0 0 150 150;" xml:space="preserve">
<g>
	<path d="M120.887,70.264c-1.46-4.407-3.226-8.71-5.238-12.893c-4.016-8.352-9.013-16.236-14.766-23.498
		C93.784,24.91,85.61,18.998,74.856,15.247c-2.183-0.761-5.612-0.919-7.532-2.041c-7.905-4.62-16.536-7.54-25.771-8.845
		c-8.569-1.211-16.247,3.52-19.224,11.446c-0.194,0.517-0.393,1.057-0.455,1.205c-0.037,0.088-0.069,0.179-0.093,0.275l-0.254,1.01
		c-0.135,0.536-0.431,1.081-0.643,1.243c-0.125,0.095-0.247,0.199-0.366,0.313c-2.041,1.954-0.81,4.883,0.271,7.049
		c1.166,2.336,2.982,4.369,4.657,6.417c0.282,0.345,0.752,0.538,1.244,0.712c0.521,0.185,1.018,0.228,1.122,0.074
		s0.035-0.618-0.153-1.036c-0.113-0.252-0.228-0.503-0.349-0.752c-0.126-0.259-0.239-0.512-0.339-0.76
		c-0.173-0.426-0.128-0.773,0.064-0.781c0.115-0.004,0.23-0.014,0.345-0.032c0.253-0.039,0.505-0.077,0.758-0.116
		c0.419-0.064,0.955-0.019,1.217,0.03c0.151,0.028,0.311,0.04,0.48,0.033c2.441-0.105,4.947-0.58,7.25-1.392
		c0.19-0.067,0.349-0.146,0.479-0.235c0.244-0.166,0.672-0.341,1.036-0.402c0.209-0.035,0.423-0.098,0.639-0.192
		c0,0,0.011-0.005,0.025-0.011s0.02,0.01,0.013,0.036c-0.006,0.026,0.375,0.272,0.851,0.551c0.957,0.559,1.855,1.083,2.754,1.609
		c0.593,0.336,1.183,0.677,1.772,1.02c0.477,0.278,0.849,0.734,0.842,1.018c-0.005,0.168-0.007,0.34-0.006,0.515
		c0.03,5.729,4.059,12.36,9.129,15.49c0.47,0.29,1.19,0.809,1.594,1.186c0.605,0.564,1.225,1.113,1.86,1.644
		c0.424,0.354,0.96,1.039,1.19,1.542c0.538,1.174,1.077,2.349,1.615,3.523c0.23,0.502,0.547,1.338,0.707,1.866
		c0.529,1.738,1.065,3.473,1.643,5.194c0.176,0.524-0.125,0.91-0.677,0.918c-2.068,0.028-4.054,0.611-5.773,1.651
		c-0.472,0.286-1.26,0.426-1.79,0.27c-4.774-1.415-9.548-2.829-14.323-4.244c-3.099-0.918-4.413,3.907-1.329,4.821
		c4.05,1.2,8.1,2.4,12.15,3.6c0.53,0.157,0.881,0.431,0.888,0.626c0.007,0.195,0.042,0.79,0.156,1.33
		c0.157,0.748,0.603,1.382,1.499,1.845c0.1,0.052,0.201,0.1,0.5,0.243c0.277,0.133,0.467,0.174,0.423,0.091s0.103-0.177,0.243-0.327
		c0.076-0.081,0.135-0.189,0.168-0.327c0.106-0.436,0.248-0.833,0.42-1.196c0.237-0.499,0.834-0.764,1.237-0.645
		c0.403,0.12,0.708,0.669,0.818,1.21c0.053,0.262,0.13,0.518,0.23,0.767c0.207,0.512,0.613,1.324,0.989,1.729
		c0.079,0.085,0.164,0.163,0.256,0.231c0.442,0.331,1.056,0.432,1.229,0.507c0.103,0.045,0.209,0.086,0.318,0.124
		c0.082,0.028,0.158,0.041,0.23,0.041c0.129,0.001,0.358,0.021,0.53,0.018c0.172-0.004,0.87-0.241,0.884-0.793
		c0-0.006,0-0.013,0-0.02c0.001-0.552-0.845-1.079-1.061-1.587c-0.007-0.016-0.014-0.032-0.02-0.048
		c-0.211-0.51,0.15-0.83,0.68-0.674c4.615,1.367,9.229,2.735,13.844,4.102c0.238,0.071,0.464,0.105,0.679,0.109
		c0.381,0.008,0.755,0.328,0.761,0.847c0.003,0.306-0.016,0.618-0.062,0.936c-0.037,0.253,0.043,0.467,0.181,0.623
		c0.245,0.278,0.778,0.465,1.052,0.439c0.147-0.014,0.295-0.087,0.424-0.24c0.223-0.263,0.426-0.537,0.608-0.82
		c0.299-0.464,0.909-0.72,1.427-0.528c1.25,0.463,3.449,1.283,4.698,1.749c0.517,0.193,0.979,0.796,1.034,1.346
		c0.824,8.216,2.223,16.374,4.224,24.405c0.008,0.03,0.017,0.057,0.028,0.084c0.018,0.045,0.103,0.576,0.528,0.929
		c0.944,0.782,2.825,0.358,2.878-1.266c0.04-1.211-0.189-2.354-0.396-3.542c-0.114-0.654-0.3-1.526-0.073-2.183
		c0.003-0.01,0.686-1.104,0.673-0.692c-0.005,0.142,0.007,0.274,0.031,0.397c0.042,0.216,0.183,0.82,0.26,1.367
		c0.922,6.547,2.277,13.026,4.287,19.396c2.412,7.644,5.672,14.852,11.489,20.605c0.622,0.615,1.333,1.141,2.038,1.673
		c0.441,0.332,0.928,0.503,1.095,0.371c0.167-0.132,0.227-0.623,0.132-1.095c-0.06-0.296-0.139-0.58-0.291-0.817
		c-1.564-2.436-8.072-13.592-4.843-16.465c0.406-0.36,0.756-0.424,1.057-0.302c0.511,0.209,0.738,0.863,0.792,1.066
		c0.033,0.123,0.066,0.245,0.102,0.367c1.517,5.246,3.496,10.328,7.053,14.574c1.2,1.432,2.67,2.638,4.075,3.898
		c0.411,0.369,0.925,0.527,1.154,0.344c0.23-0.183,0.268-0.754,0.083-1.274c-0.116-0.328-0.246-0.647-0.429-0.932
		c-7.321-11.433-10.742-24.207-12.342-37.447c-0.606-11.048-1.212-22.095-1.818-33.143c-0.03-0.551,0.34-0.789,0.825-0.525
		c4.67,2.543,9.168,5.46,13.493,8.879c0.433,0.343,0.494,0.274,0.304-0.245C122.251,78.326,121.347,71.653,120.887,70.264z
		 M75.088,67.061c-0.375,0.799-0.937,1.54-1.681,2.234c-0.404,0.377-1.209,0.702-1.741,0.851c-0.307,0.086-0.609,0.191-0.905,0.314
		c-0.51,0.212-1.079,0.385-1.301,0.319c-0.222-0.066-0.417-0.265-0.457-0.439c-0.04-0.174,0.154-0.521,0.348-0.861
		c0.105-0.183,0.205-0.397,0.303-0.638c0.36-0.882,1.102-1.601,1.543-2.459c0.227-0.44,0.453-0.882,0.674-1.326
		c0.245-0.495,0.526-1.007,0.632-1.144c0.064-0.082,0.126-0.166,0.186-0.253l1.614-2.338c0.314-0.455,0.625-0.805,0.694-0.783
		c0.07,0.022,0.126,0.065,0.123,0.099c-0.001,0.02-0.003,0.04-0.003,0.06c0,0,0,0.09,0,0.201c0,0.111-0.059,0.174-0.133,0.142
		c-0.074-0.033-0.07,0.095,0.004,0.288s0.129,0.8,0.129,1.352v1.752c0,0.293,0.028,0.58,0.081,0.859
		C75.287,65.762,75.323,66.561,75.088,67.061z M85.29,75.556c-0.82-0.306-1.64-0.612-2.46-0.918c-0.517-0.193-1.178-0.66-1.546-0.97
		c-0.368-0.31-0.481-0.871-0.188-1.34c0.705-1.126,1.409-2.255,2.097-3.394c0.223-0.37,0.41-0.706,0.559-1.015
		c0.24-0.497,0.592-1.286,0.78-1.771s0.483-1.293,0.694-1.803c0.117-0.284,0.219-0.576,0.304-0.874
		c0.151-0.531,0.249-0.968,0.29-0.958c0.041,0.01,0.067,0.466,0.062,1.019c-0.035,3.797,0.07,7.59,0.286,11.376
		C86.199,75.459,85.807,75.749,85.29,75.556z"/>
</g>
</svg>
