<?xml version="1.0" encoding="iso-8859-1"?>
<!-- Generator: Adobe Illustrator 17.1.0, SVG Export Plug-In . SVG Version: 6.00 Build 0)  -->
<!DOCTYPE svg PUBLIC "-//W3C//DTD SVG 1.1//EN" "http://www.w3.org/Graphics/SVG/1.1/DTD/svg11.dtd">
<svg version="1.1" id="Capa_1" xmlns="http://www.w3.org/2000/svg" xmlns:xlink="http://www.w3.org/1999/xlink" x="0px" y="0px"
	 viewBox="0 0 150 150" style="enable-background:new 0 0 150 150;" xml:space="preserve">
<g>
	<path d="M4.076,113.271c0.08,0.432,0.239,0.839,0.461,1.211c0.411,0.792,1.009,1.487,1.763,1.99
		c0.499,0.332,1.029,0.249,1.416-0.024c0.556-0.225,0.958-0.801,0.647-1.514c-0.018-0.04-0.026-0.083-0.04-0.124
		c1.207-1.612,2.87-2.768,4.846-3.257c2.551-0.418,5.09-0.849,7.617-1.324c5.494-1.032,10.951-2.268,16.42-3.432
		c1.157-0.246,2.299-0.567,3.713-0.92c1.213,4.84,4.354,7.916,9.23,8.953c2.167,0.461,4.45,0.351,6.669,0.603
		c3.282,0.372,6.545,0.927,9.831,1.233c3.119,0.29,6.357-0.073,9.371,0.609c8.725,1.975,17.56,2.521,26.441,2.671
		c2.293,0.039,4.738-0.024,6.867-0.756c6.504-2.236,13.043-2.232,19.757-1.428c2.63,0.315,5.377-0.27,8.061-0.542
		c0.716-0.073,1.396-0.501,2.416-0.89c-2.203-0.669-3.953-1.2-5.703-1.732c0.056-0.226,0.112-0.451,0.168-0.677l7.805,1.112
		c0.059-0.22,0.119-0.441,0.178-0.661c-0.569-0.314-1.138-0.628-1.673-0.924c1.113-0.656,0.415-2.165-1.221-2.441
		c-0.865-0.146-1.736-0.251-3.139-0.451c1.491-0.201,2.473-0.334,3.626-0.489c-0.309-0.313-0.402-0.495-0.512-0.506
		c-4.969-0.502-9.937-1.309-14.913-1.362c-3.145-0.033-5.541-1.451-7.983-2.824c-0.897-0.504-1.098-2.247-1.763-3.757
		c1.289-0.592,2.425-1.114,3.769-1.73c-0.515-0.898-1.054-1.839-1.696-2.957c0.913-0.449,1.809-0.89,2.853-1.404
		c-0.439-0.639-0.862-1.255-1.006-1.465c1.958-2.032,3.827-3.972,5.833-6.054c-0.188-0.195-0.632-0.656-1.336-1.386
		c1.31,0.122,2.208,0.206,3.567,0.332c-0.639-0.77-0.995-1.201-1.466-1.769l2.119,0.302c2.769-6.204,0.471-17.288-4.102-19.852
		c2.476-1.649,8.137-1.983,11.328-0.665c0.222,0.092,0.432,0.211,0.654,0.303c3.537,1.462,7.074,2.922,10.726,4.119
		c-5.007-3.797-10.881-5.687-16.635-7.984c4.03,0.908,8.059,1.816,12.089,2.723c0.055-0.223,0.11-0.445,0.165-0.668
		c-6.651-1.597-13.303-3.194-19.036-4.57c5.981,0.262,12.912,0.565,19.843,0.869c0.018-0.313,0.036-0.626,0.054-0.94
		c-8.523-0.516-17.045-1.032-25.568-1.548c6.837-0.817,13.748-1.312,20.193-4.024c-0.028-0.209-0.056-0.418-0.083-0.627
		c-2.654,0.321-5.315,0.596-7.962,0.972c-7.67,1.089-15.324,2.297-23.004,3.309c-6.542,0.862-12.408-1.388-18-4.457
		c-1.046-0.574-1.817-1.647-2.718-2.487c2.368-5.153,1.028-5.998,8.666-5.508c-1.29-0.537-2.562-1.124-3.876-1.596
		c-1.273-0.458-2.589-0.798-3.87-1.525c3.207,0.11,6.414,0.219,9.621,0.329c0.046-0.227,0.092-0.454,0.138-0.681
		c-4.531-0.944-9.061-1.887-13.593-2.831c4.283-0.506,8.593-1.015,12.903-1.525c-0.01-0.214-0.021-0.427-0.031-0.64
		c-5.963-1.553-12.031-0.573-18.127-0.499c5.712-1.627,11.4-3.221,16.052-7.216c-7.346-0.127-13.839,3.572-20.89,4.76
		c5.495-2.676,10.938-5.345,14.882-10.462c-0.96,0.261-1.978,0.397-2.869,0.807c-2.977,1.372-5.955,2.755-8.85,4.29
		c-8.616,4.57-17.242,9.126-25.747,13.896c-1.919,1.076-3.687,2.775-4.94,4.59c-1.298,1.879-0.086,3.704,1.931,4.901
		c8.663,5.141,16.676,11.108,22.349,19.623c1.048,1.573,1.595,3.725,1.688,5.643c0.291,5.986-1.249,11.641-3.747,17.532
		c-0.644-1.342-0.852-2.463-1.524-3.065c-4.524-4.049-11.121-4.581-16.552-1.837c-11.344,5.733-22.743,11.36-34.185,16.896
		c-2.567,1.242-5.382,1.996-8.12,2.855c-2.341,0.734-3.118,2.157-2.358,4.012C3.993,112.896,4.029,113.085,4.076,113.271z"/>
</g>
</svg>
