<?xml version="1.0" encoding="iso-8859-1"?>
<!-- Generator: Adobe Illustrator 17.1.0, SVG Export Plug-In . SVG Version: 6.00 Build 0)  -->
<!DOCTYPE svg PUBLIC "-//W3C//DTD SVG 1.1//EN" "http://www.w3.org/Graphics/SVG/1.1/DTD/svg11.dtd">
<svg version="1.1" id="Capa_1" xmlns="http://www.w3.org/2000/svg" xmlns:xlink="http://www.w3.org/1999/xlink" x="0px" y="0px"
	 viewBox="0 0 150 150" style="enable-background:new 0 0 150 150;" xml:space="preserve">
<g>
	<path d="M144.164,62.929c-0.739,0.203-1.282,1.049-1.027,1.808c0.083,0.246,0.146,0.495,0.191,0.75
		c0.03,0.339,0.029,0.678-0.003,1.016c-0.068,0.392-0.175,0.774-0.317,1.146c-0.124,0.269-0.265,0.531-0.427,0.779
		c-0.05,0.077-0.101,0.153-0.154,0.228c-0.012,0.016-0.028,0.038-0.046,0.061c-0.094,0.113-0.19,0.224-0.293,0.329
		c-0.127,0.131-0.259,0.259-0.398,0.378c-0.029,0.024-0.058,0.049-0.086,0.073c-0.037,0.027-0.078,0.057-0.104,0.075
		c-0.271,0.184-0.554,0.343-0.85,0.48c-0.407,0.155-0.827,0.268-1.257,0.341c-0.5,0.051-1.001,0.049-1.501-0.002
		c-0.534-0.088-1.056-0.231-1.56-0.428c-0.401-0.183-0.788-0.399-1.148-0.655c-0.042-0.03-0.083-0.06-0.125-0.09
		c-0.066-0.054-0.132-0.109-0.196-0.165c0.141-0.079,0.28-0.161,0.415-0.249c1.187-0.772,2.265-1.862,2.824-3.181
		c0.348-0.821,0.586-1.623,0.633-2.521c0.039-0.743-0.049-1.552-0.339-2.244c-0.307-0.731-0.688-1.42-1.305-1.94
		c-0.589-0.497-1.245-0.903-1.999-1.101c-1.481-0.389-3.116-0.023-4.18,1.117c-0.992,1.063-1.433,2.461-1.536,3.888
		c-0.095,1.311,0.128,2.702,0.565,3.939c0.017,0.047,0.034,0.094,0.052,0.141c-0.199-0.055-0.396-0.12-0.589-0.194
		c-0.277-0.127-0.546-0.271-0.802-0.438c-0.087-0.057-0.173-0.115-0.258-0.175c-0.053-0.046-0.247-0.203-0.305-0.257
		c-0.142-0.131-0.28-0.266-0.409-0.41c-0.056-0.062-0.222-0.274-0.257-0.314c-0.015-0.022-0.031-0.045-0.046-0.067
		c-0.284-0.606-0.44-1.256-0.508-1.94c-0.025-0.25,0.028-0.346,0.285-0.416c1.54-0.418,2.459-1.8,2.281-3.345
		c-0.237-2.058-1.902-3.501-3.98-3.478c-0.6,0.007-1.199,0.103-1.8,0.148c-0.084,0.006-0.188-0.023-0.258-0.072
		c-0.472-0.333-0.917-0.71-1.409-1.009c-1.754-1.063-3.54-2.074-5.282-3.156c-1.632-1.014-3.211-2.112-4.836-3.138
		c-2.663-1.68-5.46-3.091-8.446-4.117c-2.707-0.93-5.487-1.489-8.34-1.69c-1.57-0.111-3.141-0.203-4.711-0.305
		c-1.693-0.11-3.384-0.242-5.078-0.328c-1.776-0.09-3.555-0.164-5.333-0.196c-2.4-0.044-4.8-0.046-7.201-0.057
		c-2.384-0.01-4.768,0.022-7.151-0.021c-2.333-0.042-4.665-0.154-6.998-0.238c-0.162-0.006-0.324-0.029-0.485-0.044H56.36
		c-0.112,0.015-0.223,0.036-0.335,0.044c-0.822,0.053-1.644,0.091-2.465,0.158c-1.47,0.12-2.913,0.404-4.341,0.766
		c-2.051,0.52-4.04,1.227-6,2.016c-2.913,1.173-5.748,2.517-8.557,3.917c-1.18,0.588-2.343,1.211-3.532,1.781
		c-1.554,0.745-3.138,1.428-4.687,2.184c-2.893,1.412-5.666,3.031-8.29,4.901c-1.349,0.961-2.644,1.987-3.856,3.116
		c-0.506,0.471-0.984,0.972-1.476,1.459c-0.133,0.131-0.257,0.246-0.484,0.196c-1.343-0.295-2.677-0.621-3.934-1.192
		c-0.25-0.114-0.473-0.309-0.678-0.498c-0.202-0.187-0.344-0.441-0.552-0.619c-0.337-0.289-0.68-0.592-1.069-0.795
		c-0.519-0.269-1.066-0.017-1.265,0.532c-0.087,0.241-0.133,0.504-0.152,0.76c-0.025,0.345-0.006,0.694-0.006,1.049
		c-0.062-0.004-0.126-0.012-0.19-0.013c-0.514-0.005-0.82,0.293-0.782,0.807c0.018,0.247,0.088,0.497,0.177,0.73
		c0.258,0.68,0.66,1.282,1.167,1.789c0.794,0.795,1.453,1.688,2.094,2.603c0.199,0.285,0.445,0.543,0.698,0.784
		c0.73,0.696,1.63,1.055,2.604,1.246c0.419,0.082,0.843,0.151,1.085,0.562c0.046,0.078,0.063,0.184,0.061,0.277
		c-0.006,0.301-0.072,0.607-0.033,0.901c0.093,0.692,0.217,1.381,0.358,2.065c0.246,1.193,0.583,2.371,0.618,3.6
		c0.023,0.822-0.073,1.617-0.632,2.274c-0.231,0.272-0.488,0.523-0.882,0.556c-0.665,0.055-1.057,0.41-1.156,1.077
		c-0.024,0.16-0.113,0.23-0.287,0.221c-0.427-0.021-0.772,0.136-1.03,0.49c-0.174,0.238-0.427,0.362-0.723,0.335
		c-0.355-0.032-0.708-0.093-1.062-0.144c-0.817-0.118-0.884,0.226-0.722,0.843c0.167,0.636,0.385,1.258,0.564,1.89
		c0.056,0.198,0.084,0.411,0.086,0.618c0.008,0.667-0.054,1.339,0.007,2.001c0.116,1.26,0.837,2.109,2.216,2.033
		c0.327-0.018,0.598,0.059,0.865,0.24c0.428,0.289,0.833,0.593,1.067,1.095c-0.179,0.144-0.36,0.281-0.533,0.429
		c-0.264,0.225-0.301,0.493-0.065,0.741c0.632,0.664,1.398,1.082,2.323,1.17c0.681,0.065,1.348-0.058,2.015-0.172
		c1.13-0.192,2.262-0.232,3.359,0.141c2.006,0.683,4.053,1.129,6.173,1.234c1.04,0.052,2.073-0.001,3.1-0.14
		c1.426-0.193,2.798-0.582,4.094-1.217c0.667-0.327,1.363-0.371,2.036-0.1c0.614,0.247,1.194,0.585,1.779,0.901
		c0.709,0.383,1.424,0.672,2.256,0.434c0.47-0.135,0.652-0.038,0.944,0.383c0.613,0.881,0.764,1.889,0.79,2.925
		c0.02,0.767-0.022,1.536,0.011,2.302c0.031,0.706,0.123,1.41,0.19,2.115c0.015,0.158,0.086,0.328,0.047,0.47
		c-0.318,1.166-0.637,2.333-0.995,3.487c-0.286,0.922-0.737,1.743-1.53,2.358c-0.297,0.23-0.528,0.573-0.717,0.905
		c-0.149,0.262-0.28,0.539-0.418,0.81c-0.416,0.818-0.894,1.586-1.578,2.297c0.288,0.132,0.532,0.29,0.799,0.359
		c1.634,0.421,3.221,0.227,4.726-0.495c0.449-0.215,0.829-0.33,1.312-0.163c0.35,0.121,0.676-0.013,0.885-0.346
		c0.09-0.144,0.198-0.286,0.251-0.444c0.142-0.428,0.282-0.859,0.381-1.298c0.196-0.863,0.373-1.73,0.54-2.599
		c0.255-1.324,0.608-2.608,1.317-3.776c0.387-0.638,0.751-1.295,0.92-2.035c0.066-0.29,0.107-0.586,0.16-0.881
		c0.041-0.004,0.073-0.012,0.105-0.008c0.601,0.059,0.986,0.406,1.183,0.951c0.159,0.442,0.271,0.901,0.4,1.353
		c0.211,0.741,0.517,1.417,1.155,1.905c0.294,0.225,0.599,0.467,0.808,0.765c0.806,1.153,1.869,1.858,3.273,2.035
		c0.065,0.008,0.126,0.066,0.185,0.107c0.18,0.125,0.346,0.275,0.538,0.376c0.791,0.416,1.588,0.821,2.388,1.22
		c0.055,0.027,0.183,0.001,0.219-0.045c0.139-0.178,0.298-0.36,0.373-0.567c0.458-1.278,0.208-2.453-0.597-3.513
		c-0.209-0.276-0.516-0.477-0.795-0.728c0.088-0.04,0.185-0.099,0.29-0.13c0.257-0.076,0.523-0.123,0.775-0.21
		c0.349-0.119,0.45-0.353,0.298-0.686c-0.246-0.539-0.676-0.892-1.217-1.102c-0.355-0.138-0.729-0.228-1.087-0.357
		c-0.092-0.033-0.173-0.126-0.235-0.21c-0.207-0.277-0.368-0.6-0.614-0.835c-0.285-0.273-0.641-0.471-0.965-0.703
		c-0.182-0.131-0.327-0.28-0.351-0.528c-0.069-0.719,0.197-1.274,0.796-1.668c0.347-0.228,0.698-0.45,1.055-0.662
		c0.899-0.533,1.655-1.207,2.177-2.127c0.21-0.37,0.508-0.655,0.9-0.831c1.354-0.607,2.516-1.493,3.611-2.476
		c0.165-0.148,0.317-0.298,0.549-0.337c0.377-0.063,0.749-0.159,1.128-0.2c1.451-0.155,2.902-0.081,4.348,0.057
		c1.061,0.102,2.119,0.245,3.178,0.372c1.382,0.166,2.761,0.35,4.145,0.498c1.223,0.131,2.448,0.253,3.676,0.328
		c1.483,0.09,2.968,0.092,4.452-0.032c1.21-0.102,2.409-0.265,3.583-0.578c2.261-0.603,4.547-1.035,6.891-1.156
		c1.727-0.09,3.438-0.007,5.13,0.358c0.772,0.167,1.53,0.381,2.207,0.812c0.133,0.085,0.196,0.182,0.213,0.351
		c0.106,1.036,0.209,2.074,0.353,3.105c0.181,1.3,0.396,2.596,0.32,3.914c-0.039,0.671-0.192,1.315-0.532,1.909
		c-0.987,1.722-1.977,3.443-2.939,5.179c-0.457,0.824-0.886,1.667-1.058,2.61c-0.024,0.134,0.004,0.289-0.053,0.403
		c-0.309,0.617-0.625,1.232-0.963,1.833c-0.169,0.3-0.391,0.57-0.612,0.885c0.748,0.117,1.45,0.242,2.157,0.333
		c0.956,0.123,1.917,0.185,2.87-0.03c0.851-0.191,1.545-0.597,1.873-1.465c0.007-0.018,0.036-0.028,0.042-0.031
		c0.161,0.112,0.304,0.235,0.466,0.322c0.443,0.236,1.191,0.011,1.147-0.688c-0.028-0.451,0.044-0.91,0.087-1.364
		c0.114-1.198,0.407-2.352,0.868-3.463c0.819-1.975,2.145-3.581,3.688-5.023c0.166-0.155,0.397-0.258,0.616-0.334
		c0.398-0.137,0.81-0.234,1.216-0.349c0.461-0.131,0.833-0.388,1.025-0.836c0.21-0.491,0.424-0.987,0.562-1.5
		c0.128-0.473,0.159-0.973,0.232-1.463c0.549-0.061,1.281,0.251,1.596,0.712c0.197,0.288,0.341,0.613,0.547,0.893
		c0.248,0.338,0.537,0.646,0.807,0.968c0.175,0.208,0.395,0.394,0.513,0.631c0.56,1.126,0.647,2.361,0.731,3.585
		c0.051,0.756,0.002,1.518,0.01,2.277c0.009,0.889,0.008,1.779,0.059,2.666c0.02,0.343-0.034,0.647-0.189,0.932
		c-0.343,0.628-0.704,1.246-1.063,1.865c-0.284,0.489-0.242,0.593,0.323,0.686c1.386,0.23,2.764,0.171,4.115-0.206
		c0.897-0.25,1.715-0.643,2.057-1.612c0.171,0.069,0.332,0.149,0.502,0.198c0.399,0.115,0.648-0.057,0.702-0.468
		c0.068-0.525-0.052-1.023-0.252-1.499c-0.676-1.607-1.288-3.232-1.491-4.98c-0.1-0.865-0.075-1.722,0.151-2.57
		c0.203-0.761,0.611-1.414,1.036-2.062c0.198-0.302,0.396-0.619,0.297-0.999c-0.046-0.177,0.001-0.284,0.096-0.417
		c0.424-0.596,0.664-1.26,0.439-1.978c-0.167-0.537-0.426-1.052-0.694-1.549c-0.453-0.839-0.919-1.669-1.075-2.626
		c-0.023-0.143-0.029-0.326,0.039-0.442c0.949-1.613,1.914-3.217,2.872-4.825c0.812-1.364,1.625-2.734,2.093-4.26
		c0.462-1.505,0.832-3.038,1.277-4.549c0.69-2.342,1.022-4.731,1.08-7.161c0.524,0.289,1.078,0.517,1.649,0.675
		c0.817,0.226,1.67,0.308,2.515,0.252c0.147,0.184,0.3,0.363,0.462,0.537c1.003,1.081,2.257,1.891,3.649,2.374
		c2.734,0.949,5.973,0.484,8.116-1.53c1.952-1.833,2.922-4.824,2.05-7.409C145.716,63.197,144.969,62.707,144.164,62.929z
		 M134.473,65.725c-0.116,0.11-0.234,0.217-0.358,0.318c-0.03,0.022-0.059,0.044-0.078,0.058c-0.08,0.056-0.16,0.112-0.243,0.164
		c-0.236,0.15-0.48,0.284-0.732,0.404c-0.045-0.091-0.088-0.183-0.13-0.275c-0.273-0.687-0.468-1.4-0.582-2.13
		c-0.059-0.539-0.071-1.078-0.018-1.617c0.059-0.346,0.146-0.685,0.268-1.014c0.059-0.124,0.122-0.245,0.195-0.361
		c0.032-0.051,0.065-0.102,0.099-0.153c0.019-0.023,0.038-0.045,0.053-0.061c0.07-0.075,0.141-0.148,0.218-0.215
		c0.093-0.062,0.189-0.117,0.288-0.168c0.093-0.03,0.187-0.056,0.282-0.076c0.12-0.006,0.24-0.006,0.36,0.002
		c0.158,0.033,0.312,0.076,0.464,0.13c0.129,0.063,0.254,0.132,0.374,0.211c0.026,0.017,0.052,0.035,0.078,0.053
		c0.052,0.044,0.103,0.089,0.151,0.137c0.073,0.071,0.143,0.145,0.209,0.222c0.089,0.133,0.167,0.27,0.237,0.413
		c0.077,0.214,0.135,0.432,0.177,0.655c0.023,0.286,0.02,0.572-0.006,0.857c-0.061,0.336-0.152,0.663-0.272,0.983
		c-0.142,0.305-0.308,0.599-0.503,0.874c-0.02,0.027-0.055,0.073-0.086,0.113c-0.03,0.036-0.061,0.072-0.092,0.107
		C134.713,65.483,134.597,65.608,134.473,65.725z"/>
</g>
</svg>
