<?xml version="1.0" encoding="iso-8859-1"?>
<!-- Generator: Adobe Illustrator 17.1.0, SVG Export Plug-In . SVG Version: 6.00 Build 0)  -->
<!DOCTYPE svg PUBLIC "-//W3C//DTD SVG 1.1//EN" "http://www.w3.org/Graphics/SVG/1.1/DTD/svg11.dtd">
<svg version="1.1" id="Capa_1" xmlns="http://www.w3.org/2000/svg" xmlns:xlink="http://www.w3.org/1999/xlink" x="0px" y="0px"
	 viewBox="0 0 150 150" style="enable-background:new 0 0 150 150;" xml:space="preserve">
<g>
	<path d="M110.863,39.602c-0.87-4.442-0.794-9.086-1.529-13.563c-0.999-6.086-3.082-12.273-7.524-16.551
		c-5.51-5.307-13.735-5.81-19.869-1.308c-0.565,0.414-0.726,1.397-1.034,2.136c-0.097,0.233-0.177,0.474-0.258,0.733
		c-0.128,0.41-0.341,0.835-0.478,0.946c-0.083,0.067-0.165,0.134-0.248,0.201c-0.048,0.039-0.092,0.082-0.134,0.128
		c-0.068,0.075-0.504,0.364-0.989,0.629c-1.687,0.922-3.392,1.781-4.863,2.937c-0.93,0.731-1.55,1.857-2.214,2.927
		c-0.292,0.469-0.463,0.916-0.358,1.015c0.105,0.099,0.632,0.105,1.178,0.018c0.401-0.064,0.794-0.144,1.151-0.306
		c6.588-2.985,13.745,1.446,14.125,8.667c0.228,4.328-1.694,8.47-3.886,12.208c-1.596,2.721-3.697,7.219-6.27,9.115
		c-2.213,1.631-4.617,1.462-7.024,2.943c-5.456,3.356-9.332,10.524-12.536,15.834c-3.135,5.195-5.912,10.6-9.174,15.714
		c-3.051,4.784-7.192,8.624-10.504,13.002c-0.333,0.44-0.399,1.199-0.226,1.723c0.147,0.443,0.307,0.977,0.418,1.438
		c0.13,0.537,0.604,1.025,1.062,1.333c2.789,1.877-6.57,9.071-9.506,11.491c-0.426,0.351-0.311,0.72,0.238,0.777
		c7.454,0.771,15.707-1.558,22.286-4.201c0.68-0.273,1.312-0.682,1.934-1.078c1.12-0.713,2.203-1.484,3.323-2.197
		c1.194-0.76,11.648-0.83,10.495,1.457c-2.891,5.733,0.172,11.663,1.131,17.433c0.391,2.349,0.002,4.231-0.416,6.079
		c-0.122,0.539-0.662,1.041-1.205,1.141c-2.013,0.371-3.835,0.943-2.419,1.693c1.103,0.584,1.882,1.302,2.416,1.942
		c0.354,0.424,0.626,1.255,0.718,1.8c0.34,2.031,1.099,4.121,1.783,6.015c0.188,0.519,0.578,0.563,0.862,0.089
		c2.385-3.975,3.003-6.272,7.842-5.188c3.187,0.713,6.433,1.681,9.625,2.358c0.541,0.115,0.616-0.063,0.169-0.388
		c-1.597-1.162-3.186-2.344-4.862-3.387c-0.469-0.292-0.43-0.369,0.116-0.291c2.877,0.411,3.616-1.994,5.296-2.977
		c0.477-0.279,0.49-0.269-0.053-0.168c-2.411,0.446-4.852,0.82-7.286,0.583c-7.186-0.699-9.328-6.559-8.15-13.309
		c0.614-3.52,3.808-15.159,7.453-16.558c1.806-0.693,3.874,0.654,4.675,2.414c0.802,1.759,0.676,3.782,0.551,5.711
		c-0.125,1.929-0.215,3.961,0.644,5.693c0.771,1.554,2.201,2.653,3.37,3.935c1.169,1.281,2.139,3.023,1.662,4.69
		c-0.428,1.499-1.946,2.479-3.482,2.742c-1.209,0.207-2.439,0.053-3.652-0.177c-0.543-0.103-0.745,0.196-0.321,0.55
		c2.96,2.472,10.121,0.134,8.614,5.477c-0.312,1.104-0.563,2.226-0.83,3.376c-0.125,0.538,0.18,0.788,0.661,0.517
		c2.019-1.134,3.303-2.667,2.989-5.256c-0.038-0.315,11.658,3.179,12.411,3.422c0.907,0.293,1.863,0.439,2.922,0.624
		c0.544,0.095,0.855-0.247,0.664-0.765c-0.548-1.491-1.231-2.503-2.941-2.807c-1.632-0.291-3.256-0.78-4.827-1.337
		c-0.521-0.184-0.493-0.351,0.059-0.323c2.945,0.146,9.078,0.831,9.09-2.204c0.002-0.552-0.615-0.907-1.156-0.797
		c-1.041,0.213-2.088,0.456-3.13,0.433c-3.918-0.088-8.367,0.605-11.325-1.989c-2.901-2.543-3.559-8.141-3.318-11.7
		c1.226-18.136,19.435-28.01,24.676-44.923c2.532-8.173,0.475-15.503-3.783-22.639C113.545,45.702,111.671,43.727,110.863,39.602z"
		/>
</g>
</svg>
