<?xml version="1.0" encoding="iso-8859-1"?>
<!-- Generator: Adobe Illustrator 17.1.0, SVG Export Plug-In . SVG Version: 6.00 Build 0)  -->
<!DOCTYPE svg PUBLIC "-//W3C//DTD SVG 1.1//EN" "http://www.w3.org/Graphics/SVG/1.1/DTD/svg11.dtd">
<svg version="1.1" id="Capa_1" xmlns="http://www.w3.org/2000/svg" xmlns:xlink="http://www.w3.org/1999/xlink" x="0px" y="0px"
	 viewBox="0 0 150 150" style="enable-background:new 0 0 150 150;" xml:space="preserve">
<g>
	<path d="M143.303,77.306c-0.013-0.042-0.022-0.083-0.03-0.121c0.048,0.026,0.102,0.057,0.161,0.092l0.138,0.082
		c0.144,0.086,0.238,0.121,0.324,0.12c0.1,0,0.213-0.07,0.252-0.162c0.082-0.19-0.079-0.36-0.175-0.462l-0.525-0.556
		c-0.075-0.08-0.138-0.154-0.186-0.214c0.016,0.001,0.035,0.002,0.058,0.004c0.239,0,0.328-0.146,0.355-0.21
		c0.05-0.115,0.058-0.307-0.187-0.565l-0.26-0.276c-0.032-0.034-0.055-0.064-0.072-0.09c0.095-0.049,0.171-0.123,0.215-0.216
		c0.012-0.025,0.021-0.052,0.028-0.079c0.001,0.001,0.002,0.002,0.004,0.002l0.308,0.153c0.292,0.146,0.507,0.092,0.591-0.092
		c0.064-0.14,0.017-0.303-0.141-0.482c-0.065-0.076-0.132-0.15-0.2-0.225l-0.136-0.153c0.021-0.065,0.022-0.136,0.002-0.205
		c-0.045-0.16-0.201-0.308-0.416-0.394c-0.127-0.052-0.238-0.125-0.292-0.157c0.293-0.107,0.236-0.45,0.213-0.556
		c0.017-0.047,0.132-0.145,0.316-0.153c0.046,0.008,0.093,0.019,0.14,0.028c0.266,0.063,0.492-0.021,0.58-0.207
		c0.035-0.074,0.093-0.273-0.112-0.521c-0.222-0.269-0.481-0.506-0.731-0.736c-0.306-0.281-0.595-0.547-0.804-0.85
		c-0.025-0.036-0.049-0.073-0.071-0.11l0.437,0.138c0.346,0.107,0.611,0.093,0.733-0.06c0.023-0.029,0.041-0.071,0.051-0.115
		c0.011-0.002,0.024-0.003,0.039-0.003c0.207,0,0.312-0.119,0.341-0.229c0.034-0.128,0-0.323-0.354-0.523
		c-0.112-0.064-0.224-0.124-0.333-0.184c-0.495-0.267-0.922-0.497-1.169-0.97c-0.019-0.035-0.021-0.055-0.039-0.034l-0.099-0.219
		c0,0,0.001-0.001,0.002-0.001l0.163,0.222c0.259,0.056,0.467-0.028,0.54-0.211c0.031-0.076,0.076-0.279-0.169-0.516
		c-0.212-0.205-0.453-0.383-0.687-0.555c-0.225-0.166-0.457-0.338-0.706-0.533c0.005-0.003,0.028-0.014,0.072-0.015l0.159-0.003
		c0.67,0,1.283,0.137,1.742,0.255c0.42,0.106,0.602-0.043,0.647-0.137c0.026-0.052,0.073-0.19-0.05-0.353
		c-0.013-0.018-0.031-0.055-0.047-0.091c-0.062-0.135-0.154-0.337-0.422-0.465l-0.085-0.04c-0.046-0.022-0.089-0.043-0.129-0.063
		c0.103-0.066,0.122-0.167,0.125-0.205c0.021-0.265-0.301-0.352-0.474-0.398c-0.498-0.136-0.993-0.275-1.487-0.414
		c-0.047-0.014-0.092-0.033-0.131-0.054c0.003-0.01,0.006-0.019,0.008-0.025c0.016-0.065,0.031-0.233-0.186-0.38
		c-0.033-0.021-0.065-0.046-0.093-0.069c0.132-0.134,0.169-0.369,0.082-0.611c0.007-0.006,0.053-0.027,0.175-0.03
		c0.429,0.033,0.82,0.091,1.202,0.182c0.389,0.091,0.582,0.142,0.715,0.098c0.092-0.03,0.169-0.125,0.18-0.221
		c0.013-0.117-0.013-0.256-0.478-0.545c-0.402-0.251-0.805-0.505-1.204-0.76l0.715-0.021c0.5-0.017,0.776-0.026,0.776-0.304
		c0-0.234-0.209-0.282-0.717-0.396c-0.885-0.196-1.771-0.393-2.663-0.583c0.137,0.007,0.277,0.028,0.391,0.048
		c0.177,0.03,0.408,0.062,0.527,0.062c0.138,0,0.291-0.119,0.291-0.257c0-0.198-0.139-0.241-0.444-0.334l-0.246-0.076
		c-0.334-0.107-0.594-0.235-0.771-0.381c-0.034-0.027-0.055-0.055-0.069-0.077c0.069-0.052,0.115-0.129,0.123-0.219
		c0.018-0.185-0.124-0.361-0.352-0.439c-0.057-0.02-0.099-0.039-0.128-0.055c0.023-0.183-0.088-0.412-0.458-0.615l-0.029-0.017
		l0.044,0.014c0.251,0.075,0.376,0.111,0.473,0.111c0.097,0,0.218-0.067,0.259-0.156c0.072-0.154,0.026-0.326-0.427-0.658
		c-0.01-0.008-0.02-0.015-0.029-0.022l0.408,0.055c0.219,0.029,0.41,0.045,0.503,0.045c0.138,0,0.309-0.121,0.309-0.259
		c0-0.222-0.182-0.277-0.709-0.407l-0.944-0.23c-0.675-0.165-1.349-0.33-2.022-0.497c-0.113-0.027-0.209-0.056-0.285-0.08
		c0.086-0.143,0.089-0.334,0.014-0.511c0.741,0.121,1.478,0.247,2.213,0.375c0.09,0.016,0.393,0.065,0.533,0.065
		c0.138,0,0.287-0.119,0.287-0.257c0-0.178-0.151-0.236-0.233-0.268c-0.083-0.032-0.22-0.085-0.402-0.146
		c0.327,0,0.635,0,0.635-0.285c0-0.171-0.123-0.246-0.359-0.321c0.008-0.012,0.015-0.024,0.021-0.037
		c0.032-0.068,0.03-0.159-0.004-0.227c-0.033-0.068-0.089-0.181-0.661-0.307c-0.593-0.13-1.188-0.263-1.782-0.396
		c0.451-0.064,0.608-0.161,0.608-0.361c0-0.036-0.006-0.067-0.017-0.097c0.202-0.033,0.366-0.099,0.366-0.295
		c0-0.208-0.153-0.266-0.686-0.434c-0.618-0.193-1.238-0.392-1.861-0.591c-0.027-0.009-0.053-0.017-0.078-0.025
		c0.005-0.002,0.011-0.004,0.017-0.007c0.302-0.122,0.603-0.245,0.904-0.369c0.551-0.228,0.648-0.298,0.648-0.473
		c0-0.138-0.147-0.257-0.285-0.257c-0.106,0-0.324,0.031-0.542,0.078l-0.14,0.029c-0.599,0.13-1.296,0.28-1.886,0.211
		c-0.151-0.019-0.304-0.09-0.386-0.147c0.052-0.022,0.133-0.043,0.232-0.043h0.54c0.37,0,0.516-0.172,0.53-0.333
		c0.003-0.031,0.005-0.148-0.093-0.242c0.143-0.041,0.285-0.083,0.426-0.124c0.605-0.178,0.667-0.288,0.697-0.341
		c0.043-0.077,0.043-0.181,0-0.257c-0.078-0.138-0.217-0.175-0.706-0.188c-0.828-0.021-1.59-0.143-2.47-0.393
		c-0.064-0.019-0.094-0.067-0.075-0.048c0.04-0.021,0.082-0.041,0.123-0.058c0.14-0.058,0.271-0.099,0.36-0.126
		c0.144-0.045,0.306-0.095,0.306-0.288c0-0.204-0.156-0.262-0.566-0.386c0.166-0.055,0.342-0.096,0.526-0.123
		c0.206-0.029,0.439-0.062,0.433-0.303s-0.24-0.262-0.447-0.281l-1.249-0.115c-0.277-0.025-0.721-0.114-0.988-0.196
		c-0.199-0.062-0.398-0.124-0.598-0.185c0.126-0.057,0.155-0.121,0.171-0.159c0.031-0.069,0.028-0.16-0.006-0.229
		c-0.027-0.053-0.07-0.135-0.369-0.225c0.098-0.003,0.196-0.005,0.294-0.008l0.208-0.005c0.397-0.011,0.582-0.086,0.638-0.259
		c0.002-0.007,0.004-0.014,0.005-0.021c0.219-0.04,0.358-0.114,0.417-0.224c0.037-0.07,0.038-0.166,0.003-0.237
		c-0.034-0.07-0.091-0.188-0.665-0.297c-1.146-0.216-2.289-0.428-3.43-0.639c0.104-0.056,0.154-0.126,0.154-0.238
		c0-0.201-0.179-0.267-0.357-0.298c0.001-0.001,0.003-0.002,0.004-0.002c0.141-0.063,0.273-0.1,0.356-0.122
		c0.105-0.029,0.282-0.078,0.282-0.276c0-0.141-0.071-0.212-0.196-0.249c0.318-0.075,0.707-0.133,1.114-0.161l0.186-0.012
		c0.398-0.026,0.58-0.038,0.58-0.285c0-0.256-0.221-0.278-0.756-0.334c-0.591-0.06-1.183-0.116-1.774-0.172l0.048-0.011
		c0.104-0.021,0.419-0.089,0.413-0.354c-0.006-0.265-0.324-0.316-0.428-0.334l-1.09-0.18c0.167-0.006,0.333-0.008,0.494-0.01
		c0.535-0.007,0.78-0.011,0.78-0.288c0-0.206-0.21-0.278-0.391-0.342c-0.124-0.046-0.354-0.133-0.681-0.133
		c-0.001,0-0.003,0-0.004,0c-0.782,0.027-1.64,0.053-2.61,0.055c0.108-0.052,0.221-0.1,0.336-0.141l0.2-0.071
		c0.317-0.111,0.425-0.148,0.487-0.266c0.04-0.075,0.038-0.177-0.004-0.251c-0.044-0.077-0.104-0.183-0.701-0.215l-0.086-0.004
		c0.08-0.053,0.13-0.127,0.116-0.245c-0.027-0.229-0.244-0.24-0.454-0.253l-0.209-0.012c-0.346-0.019-0.691-0.038-1.037-0.061
		c0.194-0.1,0.34-0.187,0.292-0.385c-0.05-0.211-0.251-0.211-0.463-0.211h-1.707c0.236-0.139,0.535-0.257,0.824-0.372
		c0.254-0.1,0.516-0.204,0.746-0.324c0.149-0.078,0.281-0.164,0.378-0.228c0.038-0.025,0.068-0.046,0.09-0.059
		c0.099-0.031,0.175-0.123,0.179-0.23c0.003-0.099,0.011-0.305-0.688-0.355c-0.437-0.033-0.96,0.01-1.46,0.051
		c-0.17,0.015-0.339,0.028-0.504,0.04c0.25-0.16,0.394-0.297,0.426-0.409c0.021-0.076,0.004-0.174-0.043-0.236
		c-0.091-0.12-0.242-0.12-0.299-0.12c-0.098,0-0.251,0.018-0.429,0.046c-0.638,0.101-1.461,0.072-2.33,0.016
		c-0.274-0.018-0.552-0.035-0.835-0.047c-0.113-0.004-0.194-0.017-0.246-0.028c-0.006-0.019-0.014-0.036-0.024-0.051
		c-0.044-0.069-0.133-0.157-0.39-0.187c0.081-0.026,0.161-0.052,0.242-0.078c0.101-0.033,0.409-0.133,0.374-0.396
		c-0.03-0.222-0.266-0.267-0.402-0.277c0.052-0.015,0.104-0.029,0.157-0.045c0.246-0.069,0.472-0.127,0.514-0.135
		c0.136,0,0.251-0.108,0.254-0.244c0.004-0.168-0.032-0.223-0.254-0.251v-0.005c-0.007,0-0.015,0.001-0.025,0.002
		c-0.103-0.012-0.242-0.019-0.429-0.028l-0.41-0.02c-0.024-0.001-0.047-0.002-0.069-0.003c0.114-0.158,0.084-0.29,0.054-0.357
		c-0.043-0.096-0.214-0.258-0.608-0.17l-0.6,0.133c0.109-0.078,0.186-0.177,0.149-0.322c-0.069-0.271-0.375-0.208-0.486-0.224
		c0.006-0.056-0.003-0.111-0.028-0.162c-0.035-0.07-0.107-0.152-0.262-0.183l0.108-0.076c0.227-0.157,0.388-0.251,0.43-0.27
		c0.125-0.034,0.257-0.159,0.257-0.276c0-0.138-0.151-0.258-0.29-0.258c-0.085,0-0.289,0.023-0.527,0.061
		c-0.965,0.153-2.204,0.286-3.299,0.143c-0.066-0.009-0.094-0.038-0.069-0.05l0.057-0.04c0.182-0.124,0.348-0.238,0.427-0.278
		c0.107-0.045,0.2-0.157,0.188-0.269c-0.017-0.151-0.153-0.271-0.357-0.201c-0.073,0.016-0.218,0.044-0.395,0.075
		c-0.979,0.173-1.958,0.351-2.938,0.53c0.125-0.074,0.238-0.151,0.325-0.211c0.044-0.031,0.081-0.057,0.105-0.071
		c0.089-0.029,0.162-0.105,0.178-0.199c0.038-0.224-0.182-0.299-0.313-0.345c-0.026-0.009-0.052-0.021-0.074-0.032
		c0.038-0.062,0.099-0.147,0.188-0.244l0.115-0.125c0.223-0.241,0.189-0.429,0.15-0.519c-0.034-0.078-0.151-0.28-0.543-0.205
		c-0.378,0.069-0.747,0.153-1.117,0.238c-0.78,0.178-1.585,0.361-2.54,0.393l0.181-0.146c0.083-0.066,0.306-0.243,0.228-0.467
		c-0.021-0.061-0.13-0.272-0.545-0.16c-0.101,0.027-0.201,0.056-0.302,0.083c0.192-0.144,0.221-0.204,0.233-0.23
		c0.036-0.078,0.03-0.176-0.016-0.248c-0.046-0.071-0.155-0.122-0.24-0.122c-0.133,0-0.385,0.073-0.525,0.117l-0.733,0.232
		c-0.256,0.082-0.699,0.151-0.966,0.151h-0.266c-0.063,0-0.124-0.001-0.18-0.002l0.906-0.465c0.266-0.138,0.441-0.215,0.423-0.219
		c0.066,0,0.132-0.027,0.179-0.074s0.076-0.111,0.076-0.178c0-0.307-0.482-0.331-0.629-0.331c-0.031,0-0.063,0.001-0.095,0.004
		c-0.492,0.032-1.233,0.23-2.207,0.592c0.265-0.414,0.265-0.438,0.265-0.513c0-0.138-0.117-0.253-0.255-0.253
		c-0.05,0-0.118,0-0.583,0.239l-0.914,0.474c0.066-0.187,0.06-0.354-0.019-0.478c-0.093-0.146-0.271-0.208-0.473-0.153
		c-0.033,0.01-0.061,0.014-0.092,0.015c-0.045-0.113-0.156-0.204-0.327-0.204c-0.099,0-0.204,0.03-0.299,0.07l0.37-0.329
		c0.286-0.255,0.45-0.418,0.487-0.484c0.044-0.077,0.044-0.18-0.001-0.257c-0.079-0.136-0.229-0.136-0.279-0.136
		c-0.136,0-0.352,0.036-0.476,0.059c-0.083,0.016-0.158,0.024-0.255,0.025c-0.051-0.057-0.156-0.1-0.229-0.1
		c-0.151,0-0.365,0.097-0.517,0.178l-0.235,0.124c-0.751,0.397-1.505,0.797-2.258,1.2c-0.009,0.005-0.018,0.01-0.026,0.015
		c-0.009-0.028-0.021-0.051-0.032-0.068c-0.055-0.086-0.148-0.14-0.261-0.148l0.151-0.169c0.061-0.068,0.245-0.276,0.149-0.488
		c-0.081-0.181-0.288-0.237-0.58-0.1c-0.445,0.206-1.045,0.533-1.544,0.896c-0.05-0.14-0.214-0.207-0.388-0.171
		c0.063-0.097,0.135-0.181,0.209-0.266c0.26-0.3,0.393-0.508,0.393-0.617c0-0.138-0.116-0.252-0.254-0.252
		c-0.074,0-0.119,0.011-0.55,0.24l0.027-0.064c0.083-0.2,0.084-0.362,0.004-0.483c-0.119-0.179-0.366-0.197-0.621,0
		c-0.146,0.113-0.281,0.228-0.415,0.341c-0.284,0.242-0.552,0.471-0.917,0.66l0.039-0.088c0.033-0.074,0.131-0.3,0.013-0.48
		c-0.104-0.16-0.309-0.198-0.591-0.082c-0.081,0.033-0.164,0.062-0.294,0.074c0.182-0.32,0.18-0.449,0.119-0.554
		c-0.044-0.077-0.134-0.129-0.223-0.129c0,0,0,0,0,0c0.014-0.062,0.023-0.118,0.023-0.161c0-0.138-0.125-0.264-0.263-0.264
		c-0.198,0-0.422,0.259-0.569,0.454c-0.063,0.084-0.124,0.165-0.193,0.246c0.001-0.074-0.012-0.155-0.064-0.226
		c-0.047-0.063-0.16-0.12-0.239-0.12c-0.126,0-0.249,0.072-0.387,0.228c-0.134,0.15-0.268,0.311-0.402,0.472
		c-0.364,0.437-0.74,0.888-1.193,1.219c-0.004-0.006-0.015-0.036-0.01-0.093l0.043-0.476c0.057-0.607,0.017-0.651-0.048-0.723
		c-0.047-0.052-0.117-0.083-0.188-0.083c-0.151,0-0.214,0.106-0.288,0.229c-0.049,0.082-0.122,0.204-0.217,0.33
		c-0.236,0.312-0.58,0.619-0.956,0.838l0.185-0.427c0.123-0.285,0.139-0.444,0.058-0.567c-0.088-0.133-0.294-0.162-0.449-0.036
		l-0.239,0.197l0.005-0.019c0.057-0.202,0.044-0.353-0.038-0.462c-0.047-0.062-0.168-0.122-0.247-0.122
		c-0.126,0-0.25,0.07-0.375,0.216c-0.164,0.19-0.312,0.391-0.46,0.592c-0.177,0.24-0.345,0.469-0.541,0.678
		c0.032-0.136,0.083-0.45-0.062-0.636c-0.062-0.078-0.152-0.123-0.249-0.123c-0.039,0-0.114,0.019-0.149,0.036
		c-0.016,0.008-0.032,0.017-0.047,0.025c-0.006-0.011-0.012-0.021-0.02-0.029C80.16,28.599,80.074,28.56,80,28.56
		c-0.089,0-0.208,0.026-0.495,0.333l-0.251,0.27c-0.044,0.048-0.087,0.09-0.127,0.127l0.082-0.247
		c0.066-0.199,0.059-0.357-0.023-0.47c-0.047-0.064-0.168-0.127-0.249-0.127c-0.129,0-0.255,0.076-0.375,0.228
		c-0.06,0.076-0.116,0.154-0.172,0.232c-0.111,0.152-0.216,0.298-0.361,0.429c0.119-0.553,0.081-0.6,0.019-0.678
		c-0.048-0.059-0.121-0.094-0.197-0.094c-0.165,0-0.21,0.089-0.362,0.384l-0.12,0.23c-0.076,0.142-0.181,0.325-0.301,0.513
		l0.053-0.308c0.035-0.198,0.011-0.345-0.075-0.446c-0.048-0.057-0.172-0.114-0.246-0.114c-0.128,0-0.253,0.069-0.382,0.214
		c-0.236,0.264-0.44,0.519-0.639,0.768c-0.425,0.53-0.827,1.032-1.466,1.516c0.096-0.726,0.34-1.257,0.599-1.819
		c0.1-0.217,0.199-0.433,0.289-0.659c0.067-0.17,0.125-0.407,0.013-0.571c-0.047-0.069-0.164-0.133-0.247-0.133
		c-0.085,0-0.166,0.034-0.239,0.102c-0.037,0.033-0.068,0.057-0.091,0.073c-0.189-0.145-0.453-0.061-0.701,0.302l-0.167,0.245
		c-0.09,0.132-0.193,0.265-0.283,0.372c-0.052-0.211-0.215-0.309-0.37-0.309c-0.057,0-0.129,0.012-0.21,0.056
		c0.041-0.176,0.104-0.46,0.104-0.556c0-0.138-0.132-0.267-0.27-0.267c-0.054,0-0.18,0-0.554,0.294l-0.779,0.609
		c-0.115,0.09-0.239,0.192-0.35,0.287l0.146-0.656c0.123-0.551,0.123-0.583,0.123-0.611c0-0.138-0.115-0.252-0.253-0.252
		c-0.115,0-0.31,0.124-0.579,0.367c-0.379,0.341-0.696,0.721-1.003,1.088c-0.467,0.559-0.95,1.136-1.66,1.586
		c-0.177,0.113-0.378,0.186-0.482,0.212c0.026-0.074,0.062-0.166,0.107-0.271l0.064-0.148c0.054-0.125,0.142-0.279,0.229-0.434
		c0.102-0.18,0.203-0.36,0.264-0.507c0.125-0.298,0.21-0.65,0.3-1.023c0.052-0.214,0.104-0.433,0.167-0.647l0.056-0.189
		c0.094-0.317,0.127-0.436,0.127-0.522c0-0.285-0.155-0.386-0.289-0.386c-0.16,0-0.219,0.108-0.317,0.289
		c-0.045,0.083-0.104,0.191-0.174,0.306c-0.179,0.292-0.408,0.569-0.629,0.838c-0.091,0.109-0.181,0.219-0.268,0.328
		s-0.169,0.211-0.244,0.301c0.068-0.224,0.137-0.446,0.207-0.67c0.05-0.159,0.083-0.324-0.009-0.45
		c-0.047-0.063-0.141-0.111-0.22-0.111c-0.155,0-0.268,0.124-0.367,0.258c-0.713,0.962-1.425,1.929-2.135,2.892l-0.093,0.126
		c0.126-0.543,0.301-1.057,0.472-1.557c0.123-0.36,0.245-0.719,0.349-1.085c0.058-0.2,0.047-0.349-0.031-0.452
		c-0.047-0.062-0.153-0.116-0.232-0.116c-0.138,0-0.261,0.09-0.377,0.273c-0.137,0.215-0.244,0.432-0.347,0.641
		c-0.178,0.364-0.337,0.688-0.635,0.937l0.153-0.295c0.129-0.248,0.092-0.406,0.038-0.495c-0.11-0.183-0.359-0.211-0.616-0.022
		c-0.516,0.375-0.934,0.889-1.376,1.433c-0.415,0.51-0.842,1.034-1.362,1.446c0.161-0.343,0.349-0.665,0.531-0.979
		c0.117-0.201,0.233-0.401,0.342-0.604c0.044-0.083,0.266-0.502,0.266-0.632c0-0.138-0.145-0.286-0.283-0.286
		c-0.086,0-0.122,0-0.605,0.385l-0.224,0.178c-0.191,0.153-0.442,0.372-0.605,0.526c-0.001-0.011-0.002-0.023-0.003-0.038
		c-0.006-0.216,0.052-0.412,0.194-0.655c0.185-0.316,0.225-0.496,0.142-0.64c-0.033-0.059-0.084-0.101-0.153-0.123
		c-0.004-0.05-0.002-0.125,0.015-0.221l0.024-0.135c0.106-0.605,0.067-0.651,0.003-0.729c-0.047-0.057-0.12-0.09-0.193-0.09
		c-0.201,0-0.242,0.146-0.316,0.414l-0.081,0.281c-0.249,0.825-0.681,1.449-1.208,1.739C58.001,30.121,58,30.08,58,30.035V28.92
		c0-0.506,0-0.784-0.285-0.784c-0.249,0-0.281,0.217-0.36,0.741c-0.147,0.975-0.351,1.948-0.836,2.461
		c-0.027,0.029-0.056,0.057-0.083,0.082c0.031-0.161,0.092-0.344,0.185-0.555c0.188-0.428,0.176-0.591,0.102-0.705
		c-0.01-0.017-0.022-0.03-0.035-0.044c0.053-0.141,0.009-0.24-0.023-0.288c-0.046-0.069-0.158-0.126-0.241-0.126
		c-0.046,0-0.188,0-0.452,0.23c-0.42,0.368-0.777,0.81-1.121,1.237c-0.103,0.127-0.205,0.253-0.308,0.377
		c-0.078,0.096-0.134,0.085-0.166,0.001c-0.158-0.427-0.279-1.069-0.34-1.808c-0.016-0.19-0.037-0.451-0.29-0.451
		c-0.25,0-0.274,0.258-0.292,0.446l-0.117,1.263c-0.019,0.208-0.222,0.489-0.413,0.66c-0.204,0.184-0.423,0.436-0.628,0.72
		c0.154-0.649,0.307-1.3,0.46-1.949l0.063-0.27c0.113-0.479,0.014-0.604-0.023-0.652c-0.016-0.021-0.039-0.04-0.063-0.057
		c0-0.049,0.006-0.12,0.021-0.211l0.104-0.631c0.102-0.609,0.07-0.646,0.002-0.728c-0.047-0.056-0.119-0.089-0.192-0.089
		c-0.2,0-0.239,0.133-0.333,0.454l-0.071,0.238c-0.296,0.966-0.833,1.752-1.352,2.513c-0.166,0.242-0.333,0.488-0.494,0.741
		l0.214-0.805c0.154-0.574,0.129-0.639,0.059-0.729c-0.047-0.062-0.123-0.1-0.201-0.1c-0.149,0-0.215,0.055-0.516,0.594
		c-0.283,0.506-0.568,1.011-0.854,1.515l-0.412,0.729c0.031-0.336,0.144-0.692,0.261-1.066c0.103-0.327,0.209-0.665,0.272-1.02
		c0.03-0.172,0.087-0.588-0.035-0.732c-0.047-0.057-0.12-0.091-0.194-0.091c-0.207,0-0.264,0.153-0.431,0.685l-0.035,0.11
		c-0.031-0.09-0.097-0.166-0.235-0.166c-0.192,0-0.258,0.126-0.456,0.665c-0.249,0.676-0.502,1.352-0.755,2.023
		c-0.007-0.139-0.037-0.225-0.098-0.288c-0.113-0.119-0.325-0.081-0.414,0.018c-0.037-0.385-0.115-0.592-0.34-0.592
		c-0.143,0-0.255,0.046-0.493,0.657l-0.157,0.402l-0.074-0.234c-0.174-0.554-0.234-0.683-0.432-0.683
		c-0.224,0-0.246,0.111-0.369,0.728c-0.081,0.405-0.174,0.716-0.288,0.948v0.001c-0.04-0.454-0.074-1.135-0.101-2.027
		c-0.016-0.533-0.023-0.776-0.298-0.776c-0.21,0-0.265,0.154-0.422,0.691l-0.582,1.969c-0.027-0.238-0.186-0.265-0.255-0.265
		c-0.19,0-0.237,0.141-0.314,0.373c-0.028,0.085-0.062,0.19-0.103,0.303c-0.067,0.184-0.14,0.349-0.212,0.514
		c-0.06,0.137-0.12,0.273-0.178,0.42c-0.107,0.273-0.233,0.427-0.252,0.442c-0.294,0.013-0.572,0.28-0.692,0.666
		c-0.112,0.361-0.241,0.693-0.369,1.021l-0.143,0.373l-0.354-1.447c-0.078-0.313-0.276-0.426-0.435-0.426
		c-0.086,0-0.299,0.034-0.419,0.35c-0.229,0.606-0.406,1.537-0.535,2.217l-0.024,0.129c-0.021,0.114-0.052,0.219-0.081,0.301
		c-0.123-0.083-0.309-0.078-0.46,0.028c0.015-0.071,0.033-0.148,0.053-0.233c0.136-0.585,0.059-0.683,0.017-0.734
		c-0.047-0.061-0.123-0.097-0.199-0.097c-0.182,0-0.257,0.155-0.292,0.286c-0.003-0.015-0.006-0.029-0.008-0.046l-0.034-0.203
		c-0.021-0.128-0.071-0.427-0.33-0.427c-0.265,0-0.307,0.305-0.325,0.435l-0.1,0.721c-0.037-0.161-0.115-0.324-0.308-0.324
		c-0.036,0-0.098,0.007-0.158,0.052c-0.089-0.562-0.209-0.615-0.278-0.646c-0.094-0.042-0.224-0.018-0.295,0.055
		c-0.069,0.07-0.122,0.164-0.117,0.672c0.005,0.444-0.014,0.759-0.061,1.021c-0.019,0.103-0.044,0.2-0.068,0.283
		c-0.028-0.022-0.057-0.049-0.087-0.08c-0.117-0.121-0.235-0.273-0.343-0.44c-0.131-0.204-0.324-0.325-0.517-0.325
		c-0.169,0-0.374,0.101-0.443,0.383c-0.099,0.403-0.104,0.947-0.109,1.474c-0.002,0.219-0.004,0.433-0.013,0.627l-0.502-1.312
		c-0.121-0.318-0.31-0.365-0.412-0.365c-0.074,0-0.323,0.031-0.386,0.433c-0.046,0.293-0.05,0.559-0.052,0.793
		c-0.005,0.43-0.009,0.77-0.264,1.14c-0.013,0.019-0.025,0.036-0.038,0.054v-1.232c0-0.411-0.039-0.674-0.116-0.78
		c-0.047-0.065-0.137-0.113-0.217-0.113c-0.234,0-0.319,0.237-0.387,0.646c-0.104,0.628-0.21,1.26-0.318,1.892l-0.008-0.057
		c-0.053-0.387-0.247-0.444-0.358-0.444c-0.124,0-0.288,0.069-0.366,0.399c-0.172,0.729-0.276,1.823-0.36,2.703l-0.054,0.56
		c-0.015,0.149-0.047,0.277-0.072,0.36c-0.037-0.036-0.08-0.086-0.12-0.152c-0.231-0.382-0.447-0.883-0.591-1.373
		c-0.116-0.396-0.169-0.575-0.388-0.575c-0.058,0-0.117,0.025-0.163,0.064c-0.015-0.005-0.033-0.013-0.054-0.022
		c-0.174-0.088-0.356-0.04-0.446,0.1c-0.089,0.138-0.076,0.334,0.052,0.614c0.173,0.377,0.336,0.733,0.326,1.153
		c-0.003,0.129-0.141,0.27-0.197,0.27c-0.202-0.137-0.415-0.468-0.542-0.841l-0.05-0.152c-0.074-0.226-0.127-0.389-0.327-0.389
		c-0.077,0-0.154,0.047-0.205,0.112c0-0.003-0.001-0.005-0.006-0.006c-0.073,0-0.173-0.019-0.276-0.052l-0.104-0.032
		c-0.251-0.08-0.461-0.027-0.579,0.128c-0.067,0.09-0.131,0.252-0.055,0.518c0.17,0.589,0.222,1.336,0.271,2.059
		c0.013,0.192,0.026,0.386,0.042,0.575c0.005,0.07-0.015,0.119-0.036,0.143l-0.084,0.006c-0.618-0.255-0.897-0.881-1.193-1.544
		c-0.07-0.156-0.14-0.313-0.215-0.465l-0.134-0.268c-0.044-0.086-0.082-0.158-0.102-0.204c-0.039-0.104-0.142-0.211-0.247-0.211
		c-0.138,0-0.251,0.117-0.251,0.255c0,0.024,0.012,0.074,0.023,0.11c0.016,0.076,0.042,0.217,0.073,0.389l0.231,1.345
		c-0.023-0.03-0.045-0.062-0.065-0.094c-0.074-0.118-0.134-0.236-0.181-0.327c-0.084-0.163-0.122-0.237-0.21-0.28
		c-0.104-0.056-0.251-0.021-0.323,0.07c-0.055,0.071-0.112,0.145,0.03,0.694l0.223,0.864c0.06,0.232,0.051,0.44,0.042,0.473
		c-0.008,0.011-0.017,0.021-0.025,0.029c-0.062-0.052-0.143-0.132-0.21-0.232c-0.117-0.177-0.205-0.38-0.298-0.595
		c-0.037-0.086-0.074-0.172-0.114-0.259c-0.057-0.122-0.116-0.237-0.164-0.331c-0.038-0.073-0.068-0.131-0.079-0.156
		c-0.029-0.11-0.128-0.2-0.243-0.2c-0.138,0-0.25,0.117-0.25,0.255c0,0.012,0.001,0.026,0.003,0.041
		c0.004,0.062,0.014,0.226,0.025,0.436c0.023,0.433,0.046,0.866,0.073,1.3c-0.053-0.067-0.12-0.14-0.24-0.14
		c-0.075,0-0.149,0.035-0.196,0.094c-0.072,0.089-0.097,0.147,0.024,0.729l0.062,0.297c0.025,0.121,0.049,0.235,0.067,0.324
		c-0.041-0.003-0.081-0.015-0.117-0.032c-0.066-0.033-0.139-0.084-0.228-0.159c-0.136-0.114-0.25-0.168-0.361-0.168
		c-0.081,0-0.205,0.062-0.251,0.129c-0.104,0.146-0.056,0.336-0.01,0.465l0.288,0.836c-0.128-0.207-0.235-0.386-0.254-0.419
		c-0.044-0.078-0.136-0.133-0.226-0.133c-0.227,0-0.286,0.225-0.331,0.461c-0.159-0.096-0.339-0.099-0.455-0.011
		c-0.021-0.011-0.047-0.025-0.077-0.046c-0.099-0.071-0.184-0.104-0.27-0.104c-0.083,0-0.197,0.059-0.244,0.127
		c-0.05,0.073-0.059,0.155-0.05,0.232c-0.245-0.096-0.275-0.096-0.314-0.096c-0.081,0-0.158,0.04-0.205,0.105
		c-0.047,0.064-0.111,0.154,0.083,0.735c0.04,0.12,0.082,0.238,0.123,0.356c0.112,0.319,0.22,0.627,0.299,0.976
		C20.251,54.05,20.222,54.02,20.195,54c-0.042-0.03-0.131-0.061-0.183-0.061c-0.062,0-0.124,0.02-0.176,0.059
		c-0.021-0.028-0.042-0.058-0.065-0.089l-0.289-0.4c-0.146-0.204-0.241-0.362-0.269-0.416c-0.023-0.113-0.124-0.199-0.245-0.199
		c-0.138,0-0.25,0.112-0.25,0.25v0.855c-0.041-0.057-0.106-0.116-0.215-0.116c-0.072,0-0.143,0.032-0.19,0.087
		c-0.063,0.072-0.105,0.12-0.026,0.724c0.039,0.291,0.076,0.582,0.112,0.873c-0.038-0.06-0.073-0.122-0.105-0.189
		c-0.087-0.184-0.163-0.343-0.35-0.343c-0.28,0-0.28,0.305-0.28,0.469c0,0.083-0.019,0.11-0.057,0.091
		c-0.177-0.074-0.396-0.242-0.457-0.436c0,0-0.034-0.105-0.034-0.106c-0.042-0.132-0.12-0.378-0.346-0.378
		c-0.068,0-0.145,0.033-0.192,0.082c-0.088,0.09-0.103,0.222-0.098,0.403c0.017,0.59,0.034,1.179,0.054,1.763
		c-0.24,0.028-0.426,0.305-0.44,0.666c-0.013,0.339,0.027,0.717,0.083,1.096l-0.056-0.072c-0.168-0.217-0.26-0.36-0.285-0.406
		c-0.029-0.106-0.127-0.188-0.242-0.188c-0.099,0-0.303,0-0.33,0.699c-0.032,0.812,0.239,1.791,0.478,2.656l0.039,0.141
		c-0.169-0.244-0.314-0.533-0.457-0.814c-0.07-0.14-0.139-0.277-0.211-0.41l-0.145-0.256c-0.052-0.092-0.095-0.166-0.114-0.207
		c-0.027-0.112-0.126-0.2-0.244-0.2c-0.119,0-0.182,0.051-0.22,0.135c-0.138-0.226-0.221-0.399-0.229-0.374
		c0-0.21-0.303-0.327-0.44-0.169c-0.117,0.135-0.094,0.522-0.075,0.66c0.032,0.231,0.099,0.504,0.205,0.835
		c0.059,0.185,0.096,0.33,0.115,0.42c-0.003,0.004-0.005,0.007-0.008,0.01c-0.085,0.119-0.079,0.299-0.054,0.44
		c-0.011-0.011-0.023-0.021-0.035-0.03c-0.101-0.082-0.234-0.155-0.371-0.229c-0.162-0.087-0.329-0.177-0.399-0.275
		c-0.269-0.372-0.573-0.809-0.792-1.271l-0.076-0.164c-0.155-0.334-0.202-0.435-0.321-0.486c-0.108-0.046-0.25-0.006-0.316,0.091
		c-0.077,0.113-0.071,0.223,0.113,0.687l0.229,0.576c0.246,0.619,0.491,1.237,0.738,1.853c-0.027-0.021-0.053-0.042-0.08-0.064
		c-0.477-0.393-0.533-0.393-0.609-0.393c-0.083,0-0.163,0.043-0.209,0.112c-0.071,0.105-0.083,0.17,0.146,0.728
		c0.299,0.727,0.599,1.452,0.898,2.175c-0.601-0.408-1.188-1.049-1.457-1.6c-0.043-0.088-0.082-0.175-0.115-0.252
		c-0.104-0.234-0.16-0.364-0.298-0.411c-0.095-0.034-0.25,0.007-0.316,0.082c-0.016,0.019-0.03,0.038-0.041,0.059
		c-0.226-0.201-0.325-0.158-0.426-0.088c-0.015-0.012-0.031-0.025-0.048-0.042c-0.101-0.091-0.204-0.137-0.306-0.137
		c-0.081,0-0.211,0.066-0.258,0.132c-0.085,0.118-0.093,0.287-0.022,0.501c0.224,0.674,0.59,1.353,0.908,1.875
		c-0.01-0.01-0.02-0.02-0.03-0.029c-0.152-0.144-0.248-0.197-0.354-0.197c-0.09,0-0.188,0.056-0.233,0.135
		c-0.085,0.15-0.004,0.312,0.087,0.464l0.247,0.411c0.886,1.479,1.775,2.964,2.667,4.442c-0.445-0.255-0.652-0.574-0.871-0.91
		c-0.197-0.304-0.401-0.617-0.77-0.878c-0.12-0.088-0.241-0.098-0.322-0.098l-0.18,0.008c-0.058,0-0.125-0.008-0.204-0.057
		l-1.38-0.954c-0.15-0.104-0.245-0.144-0.336-0.144c-0.097,0-0.204,0.065-0.245,0.153c-0.085,0.182,0.063,0.357,0.151,0.463
		l0.362,0.43l-0.776-0.552c-0.142-0.101-0.244-0.145-0.339-0.145c-0.097,0-0.21,0.069-0.251,0.156
		c-0.089,0.188,0.066,0.377,0.142,0.469c0.554,0.673,1.307,1.386,2.036,2.074c0.958,0.905,1.948,1.842,2.488,2.688
		c0.027,0.043,0.053,0.086,0.078,0.128c-0.437-0.13-0.782-0.356-1.148-0.597c-0.15-0.099-0.3-0.196-0.456-0.288
		c-0.12-0.07-0.223-0.104-0.315-0.104c-0.097,0-0.241,0.084-0.282,0.172c-0.065,0.14-0.02,0.303,0.135,0.486
		c0.595,0.711,1.295,1.373,1.972,2.013c0.468,0.443,0.951,0.899,1.396,1.369c-0.071,0.031-0.126,0.087-0.154,0.161
		c-0.089,0.234,0.145,0.443,0.221,0.513l0.209,0.182c0.13,0.112,0.26,0.224,0.385,0.349c0.07,0.07,0.112,0.141,0.133,0.188
		c-0.025,0.03-0.045,0.062-0.055,0.092c-0.069,0.214,0.099,0.479,0.252,0.663c0.34,0.409,0.828,1.022,1.188,1.675l-0.192-0.125
		c-0.34-0.221-0.595-0.24-0.731-0.082c-0.019,0.021-0.034,0.053-0.046,0.088c-0.025-0.002-0.058-0.007-0.101-0.018
		c-0.099-0.025-0.176-0.037-0.237-0.037c-0.111,0-0.257,0.089-0.288,0.195c-0.04,0.137,0.023,0.26,0.187,0.364l0.188,0.125
		c-0.07,0.012-0.167,0.017-0.266,0.002c-0.11-0.019-0.214-0.045-0.324-0.071l-0.069-0.018c-0.448-0.109-0.529,0.15-0.537,0.198
		c-0.048,0.255,0.248,0.369,0.345,0.407c0.079,0.03,0.156,0.061,0.229,0.099c0.045,0.024,0.082,0.065,0.108,0.107
		c-0.156,0.027-0.283,0.087-0.283,0.269c0,0.06,0,0.158,0.413,0.609l0.075,0.082c0.256,0.277,0.483,0.523,0.652,0.89
		c-0.232-0.177-0.474-0.358-0.77-0.512c-0.29-0.148-0.528-0.082-0.595,0.117c-0.037,0.109-0.028,0.28,0.223,0.472
		c0.146,0.111,0.299,0.207,0.452,0.304c0.188,0.118,0.368,0.231,0.527,0.369c-0.244-0.1-0.434-0.044-0.513,0.118
		c-0.102,0.204,0.06,0.417,0.113,0.487c0.138,0.183,0.28,0.358,0.423,0.534c0.269,0.331,0.522,0.644,0.747,1
		c0.112,0.18,0.185,0.381,0.211,0.486c-0.065,0.021-0.132,0.064-0.166,0.11c-0.036,0.05-0.144,0.199,0.016,0.676
		c0.442,1.324,1,3.502,1.118,5.279c0.016,0.238-0.057,0.428-0.078,0.455c-0.239,0.165-0.263,0.535-0.163,0.816
		c0.005,0.014,0.009,0.026,0.012,0.038c-0.075,0.033-0.145,0.092-0.168,0.157c-0.049,0.135,0.004,0.27,0.158,0.4
		c0.031,0.026,0.061,0.127,0.039,0.157c-0.183,0.264-0.197,0.542-0.04,0.719c-0.127,0.08-0.199,0.193-0.198,0.316
		c0,0.089,0.039,0.17,0.122,0.244c-0.061,0.036-0.095,0.085-0.113,0.117c-0.088,0.161-0.012,0.338,0.055,0.495
		c0.021,0.048-0.014,0.115-0.026,0.127c-0.254,0.125-0.349,0.224-0.349,0.364c0,0.062,0.047,0.152,0.089,0.198
		c0.047,0.053,0.134,0.149,0.138,0.289c0.014,0.55-0.417,1.627-0.692,2.177c-0.408,0.819-0.939,1.58-1.453,2.315
		c-0.667,0.955-1.357,1.942-1.811,3.095c-0.124,0.314-0.19,0.824-0.183,1.136l0.039,1.73c0.007,0.31,0.128,0.867,0.431,1.13
		c0.146,0.127,0.31,0.233,0.471,0.338c0.168,0.108,0.326,0.211,0.473,0.354c0.231,0.229,0.547,0.54,0.894,0.618
		c0.885,0.198,1.687,0.295,2.452,0.295c2.532,0,4.189-1.079,6.108-2.329c0.251-0.164,0.507-0.33,0.77-0.498
		c0.219-0.14,0.624-0.295,0.886-0.34l1.817-0.316c0.311-0.053,0.781-0.182,1.072-0.293l1.536-0.593
		c0.097-0.037,0.2-0.058,0.291-0.058c0.069,0,0.106,0.013,0.097,0.001c0.062,0.074,0.148,0.16,0.276,0.16
		c0.082-0.001,0.17-0.047,0.217-0.114c0.092-0.134,0.03-0.296,0.008-0.342c0.004-0.026,0.066-0.127,0.22-0.199
		c0.173-0.082,0.477-0.097,0.586-0.041c0.121,0.062,0.224,0.092,0.314,0.092c0.086,0,0.223-0.067,0.268-0.141
		c0.028-0.045,0.063-0.131,0.031-0.246c0.036-0.036,0.112-0.095,0.233-0.145l0.554-0.226c0.201-0.085,0.508-0.058,0.571-0.014
		c0.062,0.041,0.145,0.09,0.243,0.09c0.07,0,0.165-0.041,0.212-0.093c0.105-0.115,0.092-0.259,0.069-0.513
		c-0.003-0.038-0.008-0.085,0.345-0.206c0.274-0.093,1.541-0.445,1.817-0.517c0.233-0.06,0.503-0.082,0.789-0.106
		c0.164-0.015,0.33-0.028,0.494-0.05c0.366-0.049,0.84-0.294,1.07-0.446l0.371-0.246c0.213-0.141,0.605-0.275,0.857-0.294
		l0.902-0.065c0.291-0.021,0.777-0.083,1.089-0.151c0.242-0.052,0.491-0.107,0.743-0.164c0.262-0.059,0.528-0.119,0.797-0.177
		c0.324-0.07,0.717-0.286,0.843-0.563c0.033-0.073,0.238-0.228,0.472-0.259l0.237-0.03c0.234-0.029,0.475-0.061,0.703-0.103
		c0.101-0.02,0.204-0.035,0.293-0.04c-0.013,0.022-0.029,0.042-0.049,0.055c-0.146,0.099-0.271,0.185-0.288,0.346
		c-0.003,0.039,0.006,0.087,0.023,0.133c-0.053,0.071-0.079,0.173-0.052,0.252c0.035,0.101,0.159,0.177,0.266,0.177
		c0.034,0,0.122,0,0.429-0.088l0.364-0.104c0.471-0.134,0.92-0.262,1.401-0.433c-0.098,0.095-0.203,0.185-0.312,0.276
		c-0.109,0.094-0.218,0.187-0.321,0.285c-0.176,0.169-0.234,0.33-0.174,0.479c0.075,0.188,0.296,0.249,0.592,0.123l0.169-0.074
		c0.483-0.211,0.964-0.422,1.446-0.629c0.001,0,0.003-0.001,0.004-0.002c-0.097,0.242-0.225,0.461-0.338,0.654
		c-0.295,0.506-0.295,0.585-0.295,0.627c0,0.066,0.032,0.132,0.079,0.179s0.116,0.075,0.182,0.075c0.154,0,0.54-0.152,0.584-0.17
		c0.481-0.193,0.914-0.409,1.35-0.632c-0.054,0.13-0.112,0.317-0.012,0.468c0.046,0.069,0.17,0.134,0.254,0.134
		c0.107,0,0.22-0.051,0.354-0.158l0.2-0.158l-0.018,0.382c-0.028,0.604,0.017,0.65,0.08,0.716c0.047,0.05,0.115,0.079,0.184,0.079
		c0.168,0,0.229-0.13,0.289-0.256c0.04-0.086,0.1-0.215,0.182-0.347c0.047-0.075,0.1-0.146,0.159-0.211
		c0.08-0.087,0.186-0.146,0.271-0.184c-0.007,0.014-0.015,0.027-0.023,0.041l-0.514,0.891c-0.086,0.148-0.162,0.319-0.075,0.47
		c0.044,0.078,0.146,0.136,0.235,0.136c0.117,0,0.225-0.067,0.361-0.226c0.168-0.195,0.329-0.423,0.464-0.659
		c0.099-0.173,0.169-0.275,0.21-0.332c0.001,0.007,0.001,0.016,0.001,0.023c-0.014,0.206-0.023,0.343,0.077,0.45
		c0.058,0.062,0.165,0.1,0.246,0.084c0.008,0.031,0.015,0.071,0.015,0.122c-0.001,0.432-0.195,0.731-0.42,1.079l-0.07,0.108
		c-0.086,0.135-0.173,0.311-0.087,0.467c0.044,0.08,0.148,0.141,0.24,0.141c0.118,0,0.23-0.068,0.365-0.225
		c0.085-0.099,0.166-0.199,0.247-0.299c0.114-0.142,0.225-0.278,0.343-0.406l-0.073,0.192c-0.079,0.207-0.109,0.35-0.026,0.471
		c0.046,0.067,0.135,0.114,0.217,0.114c0.151,0,0.248-0.117,0.334-0.236c0.146-0.203,0.432-0.523,0.638-0.715l0.275-0.256
		c0.042-0.039,0.076-0.05,0.083-0.052c0.004,0.003,0.017,0.022,0.025,0.065c0.098,0.549,0.115,1.265,0.132,1.926
		c0.009,0.39,0.173,0.472,0.309,0.472c0.266,0,0.314-0.319,0.33-0.424c0.037-0.24,0.047-0.471,0.056-0.688
		c0.018-0.411,0.031-0.735,0.228-0.962c0.097-0.112,0.261-0.188,0.381-0.225c-0.017,0.051-0.037,0.107-0.061,0.171l-0.047,0.125
		c-0.076,0.203-0.102,0.334-0.022,0.448c0.047,0.067,0.13,0.111,0.212,0.111c0.167,0,0.258-0.14,0.352-0.309
		c0.069-0.124,0.136-0.244,0.221-0.354c0.033-0.042,0.07-0.064,0.101-0.075c0.059,0.179,0.205,0.244,0.325,0.244
		c0.144,0,0.293-0.087,0.456-0.265l-0.185-0.169l0.209,0.103c-0.048,0.133-0.096,0.27-0.143,0.408
		c-0.067,0.195-0.055,0.372,0.036,0.499c0.133,0.187,0.404,0.207,0.643,0.025c0.187-0.142,0.364-0.315,0.517-0.508l-0.031,1.002
		c-0.006,0.206,0.023,0.323,0.104,0.405c0.047,0.049,0.133,0.086,0.201,0.086c0.211,0,0.319-0.222,0.371-0.329
		c0.541-1.121,1.031-1.383,2.255-1.779l-0.357,0.46c-0.061,0.067-0.123,0.137-0.184,0.209c-0.095,0.111-0.118,0.221-0.07,0.325
		c0.041,0.089,0.138,0.149,0.236,0.149c0.072,0,0.159-0.017,0.431-0.22c0.464-0.348,0.801-0.575,1.554-0.665
		c-0.034,0.088-0.095,0.219-0.189,0.369c-0.139,0.223-0.282,0.452-0.399,0.724c-0.108,0.251-0.045,0.409,0.002,0.482
		c0.128,0.195,0.417,0.206,0.657-0.005c0.266-0.235,0.489-0.505,0.704-0.766c0.074-0.09,0.146-0.178,0.22-0.263
		c-0.036,0.084-0.047,0.172,0,0.262c0.043,0.082,0.138,0.138,0.23,0.138c0.116,0,0.208-0.068,0.35-0.202l0.231-0.22
		c-0.014,0.071-0.009,0.144,0.03,0.212c0.085,0.146,0.283,0.187,0.481,0.032c-0.013,0.06-0.009,0.121,0.022,0.184
		c0.043,0.083,0.14,0.142,0.233,0.142c0.101,0,0.188-0.048,0.348-0.19l0.316-0.278c0.055-0.048,0.108-0.093,0.158-0.133
		c-0.003,0.011-0.007,0.021-0.011,0.032c-0.134,0.387-0.322,0.713-0.521,1.059c-0.107,0.186-0.213,0.369-0.31,0.562
		c-0.098,0.193-0.11,0.354-0.035,0.476c0.045,0.074,0.173,0.144,0.26,0.144c0.12,0,0.24-0.062,0.367-0.19
		c0.224-0.224,0.421-0.47,0.612-0.707c0.104-0.129,0.207-0.258,0.315-0.384l0.197-0.225c0.042,0.092,0.068,0.16,0.072,0.16
		c0,0.18,0.127,0.32,0.289,0.32c0.077,0,0.152-0.037,0.2-0.098c0.065-0.085,0.091-0.143-0.019-0.597
		c0.053,0.08,0.101,0.164,0.146,0.245c0.156,0.281,0.232,0.423,0.232,0.413c0,0.066,0.027,0.134,0.074,0.181
		c0.092,0.092,0.251,0.093,0.328,0.033c0.124,1.026,0.067,1.871-0.184,2.852c-0.127,0.497-0.152,0.64-0.152,0.718
		c0,0.075,0.057,0.195,0.116,0.242c0.044,0.036,0.157,0.073,0.214,0.073c0.04,0,0.08-0.006,0.118-0.019
		c-0.104,0.278-0.255,0.466-0.414,0.664c-0.083,0.104-0.166,0.206-0.243,0.32c-0.103,0.151-0.296,0.22-0.48,0.186
		c-0.039-0.007-0.078-0.012-0.177-0.018c-0.405,0-0.839,0.338-0.991,0.654c-0.057,0.119-0.098,0.229-0.125,0.338
		c-0.099,0.398,0.172,0.923,0.378,1.178c0.75,0.924,2.234,1.901,4,1.818c0.349-0.019,0.857-0.163,1.147-0.261
		c0.219-0.073,0.608-0.098,0.787-0.056c0.1,0.024,0.221,0.037,0.35,0.037c0.133,0,0.473-0.016,0.745-0.161l0.06-0.031
		c0.103-0.056,0.209-0.112,0.361-0.194c0,0,0.005,0.021-0.013,0.063c-0.494,1.161-1.827,1.503-3.238,1.865l-0.274,0.07
		c-0.217,0.057-0.621,0.199-0.754,0.375c-0.058,0.075-0.075,0.215-0.033,0.3c0.088,0.178,0.311,0.178,0.384,0.178
		c0.082,0,0.186-0.009,0.306-0.029h0.003c-0.233,0.168-0.489,0.271-0.756,0.378c-0.578,0.231-1.233,0.493-1.772,1.46
		c-0.146,0.264-0.273,0.672-0.22,0.909c0.062,0.284,0.458,0.364,0.82,0.168l-0.23,0.622c-0.245,0.654-0.131,0.768-0.064,0.833
		c0.189,0.194,0.608-0.075,0.814-0.322l0.117-0.142c0.07-0.086,0.14-0.172,0.215-0.254c0.051-0.056,0.125-0.064,0.166-0.064
		c0.089,0,0.177,0.039,0.229,0.101l0.099,0.122c0.283,0.351,0.527,0.654,1.225,0.669l0.102,0.001c0.078,0,0.149-0.002,0.212-0.004
		l0.017,0.134c0.023,0.2,0.118,0.674,0.481,0.733c0.014,0.003,0.069,0.007,0.083,0.007c0.299,0,0.554-0.252,0.653-0.489
		c0.026,0,0.1,0.007,0.227,0.072c0.25,0.129,0.499,0.191,0.761,0.191c0.449,0,0.84-0.187,1.218-0.366
		c0.34-0.162,0.662-0.314,1.053-0.314c0.002,0,0.004,0,0.006,0c0.109,0.003,0.246,0.063,0.403,0.135
		c0.327,0.146,0.812,0.321,1.339,0.205c1.22-0.255,2.717-1.221,3.122-2.739c0.014-0.051,0.028-0.093,0.041-0.125
		c0.261,0.101,0.591-0.107,0.687-0.465c0.1-0.377,0.111-0.813,0.121-1.235c0.004-0.18,0.009-0.359,0.02-0.531
		c0.009-0.14,0.1-0.259,0.086-0.28c0.333,0.191,0.746-0.016,0.774-0.29c0.18,0.099,0.375,0.068,0.49-0.072
		c0.1-0.122,0.128-0.312,0.078-0.557c-0.018-0.089-0.014-0.151-0.006-0.187c0.009,0.001,0.016,0.001,0.019,0.001
		c0.2,0,0.297-0.1,0.337-0.159c0.035-0.052,0.081-0.154,0.045-0.302c0.097,0.015,0.208,0.03,0.326,0.039
		c0.091,0.007,0.183,0.011,0.277,0.011l0.094-0.001c0.207-0.005,0.377-0.09,0.481-0.239c0.113-0.163,0.132-0.387,0.052-0.616
		c-0.03-0.085-0.048-0.166-0.057-0.257c-0.001-0.014-0.002-0.026-0.002-0.037c0.118,0.059,0.312,0.024,0.38-0.104
		c0.086-0.161-0.013-0.334-0.143-0.527c-0.048-0.071-0.094-0.146-0.135-0.224c-0.028-0.053-0.013-0.093-0.001-0.112
		c0.01-0.017,0.022-0.025,0.103-0.046l0.065,0.01c0.145,0.022,0.274,0.055,0.368,0.077c0.103,0.024,0.154,0.037,0.206,0.037
		c0.067,0,0.142-0.029,0.189-0.077c0.066-0.069,0.119-0.123,0.037-0.764l-0.055-0.423c0,0.001,0.001,0.003,0.002,0.004
		c0.022,0.044,0.044,0.089,0.064,0.138c0.06,0.142,0.099,0.275,0.125,0.365c0.037,0.127,0.088,0.301,0.285,0.301
		c0.073,0,0.147-0.035,0.194-0.09c0.107-0.125,0.131-0.47,0.091-0.73c-0.024-0.159-0.065-0.306-0.111-0.446
		c0.035,0.034,0.066,0.061,0.092,0.074c0.036,0.019,0.081,0.029,0.122,0.029c0.245,0,0.316-0.242,0.369-0.719
		c0.066-0.605,0.142-1.111,0.231-1.547c0.023,0.221,0.088,0.345,0.275,0.345c0.267,0,0.288-0.254,0.331-0.762l0.044-0.487
		c0-0.009,0.001-0.018,0.002-0.026c0.209,0.073,0.45-0.223,0.599-0.477c0.263-0.446,0.453-0.993,0.614-1.542
		c0.042,0.06,0.105,0.101,0.204,0.101c0.248,0,0.278-0.265,0.299-0.441l0.022-0.194c0.031-0.261,0.164-0.677,0.291-0.908
		l0.521-0.957c0.163-0.345,0.387-1.225,0.55-1.867c0.054-0.213,0.098-0.389,0.125-0.485c0.156-0.136,0.284-0.579,0.143-2.563
		c-0.005-0.068,0.016-0.096,0.021-0.099l0.062,0.021c0.542,0.326,1.016,0.491,1.408,0.491c0.371,0,0.611-0.146,0.742-0.293
		c0.556,0.003,2.866,0.029,5.794,0.062c5.708,0.065,13.525,0.155,15.67,0.155c0.417,0,0.58,0,0.662-0.027
		c0.311-0.04,2.064-0.083,2.457-0.089c0.062,0.037,0.201,0.133,0.384,0.278c0.138,0.109,0.342,0.102,0.512,0.063
		c0.095-0.02,0.177-0.039,0.232-0.011c0.813,0.399,1.773,1.058,2.444,1.679c0.139,0.128-0.003,0.316-0.051,0.372
		c-0.072,0.085-0.138,0.173-0.203,0.26l-0.071,0.095c-0.123,0.162-0.481,0.291-0.728,0.307l-0.129,0.007
		c-0.309,0.019-0.805,0.118-1.116,0.265c-1.71,0.808-2.687,2.107-2.901,3.865c-0.048,0.386,0.101,0.847,0.423,0.919
		c0.019,0.004,0.078,0.01,0.096,0.01c0.275,0,0.587-0.251,0.773-0.499c0.178-0.238,0.355-0.477,0.538-0.723
		c0.014,0.025,0.029,0.052,0.044,0.078c0.118,0.2,0.267,0.365,0.442,0.491c0.188,0.137,0.305,0.344,0.304,0.539
		c-0.001,0.247,0.062,0.437,0.187,0.563c0.271,0.272,0.777,0.149,1.351-0.087c0,0,0.236-0.001,0.454,0.026
		c0.101,0.013,0.206,0.025,0.308,0.033c0.176,0.015,0.265,0.033,0.309,0.046c0.065,0.255,0.392,0.459,0.804,0.464
		c0.792,0,1.721-0.312,2.758-0.93c0.114-0.067,0.203-0.096,0.256-0.104c0.184,0.214,0.585,0.232,0.714,0.232
		c0.035,0,0.071-0.001,0.146-0.006c0.236-0.015,0.449-0.029,0.677-0.062c0.292-0.042,0.67-0.175,0.794-0.337
		c0.172-0.221,0.083-0.76,0.062-0.865c-0.119-0.637-0.253-1.358-0.163-2.029c0.008-0.062,0.02-0.119,0.033-0.171
		c0.021,0.03,0.041,0.064,0.06,0.101c0.108,0.211,0.188,0.446,0.273,0.695l0.145,0.415c0.045,0.127,0.082,0.227,0.088,0.228
		c0,0.177,0.127,0.315,0.289,0.315c0.076,0,0.15-0.036,0.198-0.095c0.115-0.144,0.055-0.523,0.008-0.736
		c-0.07-0.321-0.167-0.589-0.262-0.848c-0.055-0.149-0.108-0.295-0.153-0.444l0.159,0.239c0.142,0.213,0.23,0.369,0.257,0.425
		c0.032,0.244,0.353,0.352,0.485,0.17c0.074-0.101,0.089-0.159-0.089-0.732l-0.032-0.103c-0.008-0.028-0.012-0.052-0.015-0.068
		c0.35,0.2,0.592,0.215,0.703,0.026c0.013,0.001,0.024,0.002,0.033,0.002c0.274,0,0.477-0.33,0.549-0.637l0.017-0.075
		c0.029-0.125,0.071-0.312,0.111-0.338l0.095-0.06c0.197-0.12,0.42-0.257,0.383-0.663c-0.019-0.199,0.045-0.357,0.141-0.598
		l0.035-0.087c0.033-0.082,0.062-0.161,0.088-0.23c0.016,0.011,0.032,0.022,0.048,0.035c0.083,0.062,0.163,0.093,0.243,0.093
		c0.071,0,0.176-0.047,0.223-0.101c0.104-0.115,0.107-0.28,0.079-0.524c-0.021-0.184-0.008-0.359,0.044-0.571
		c0.025-0.104,0.077-0.146,0.091-0.146c0.292,0.196,0.709,0.107,0.709-0.386c0-0.061,0.002-0.116,0.006-0.166
		c0.276,0.228,0.325,0.237,0.405,0.237c0.08,0,0.156-0.039,0.203-0.103c0.079-0.107,0.08-0.177-0.092-0.729l-0.03-0.098
		c-0.022-0.07-0.01-0.131,0.065-0.172c0.059,0.016,0.113,0.038,0.171,0.07c0.222,0.123,0.343,0.168,0.449,0.168
		c0.079,0,0.191-0.052,0.238-0.114c0.028-0.037,0.055-0.093,0.058-0.167c0.075,0.047,0.138,0.096,0.182,0.13
		c0.074,0.057,0.132,0.102,0.225,0.102c0.075,0,0.148-0.035,0.196-0.093c0.07-0.086,0.095-0.145-0.014-0.687
		c0.068,0.11,0.137,0.151,0.239,0.151c0.281,0,0.283-0.293,0.283-0.665c0.024,0.021,0.048,0.042,0.071,0.065
		c0.11,0.11,0.201,0.229,0.322,0.386c0.14,0.18,0.283,0.271,0.424,0.271c0.074,0,0.188-0.053,0.236-0.109
		c0.052-0.062,0.079-0.141,0.079-0.238c0.019,0.008,0.04,0.018,0.064,0.03c0.121,0.061,0.217,0.089,0.304,0.089
		c0.096,0,0.239-0.081,0.281-0.168c0.097-0.203-0.068-0.407-0.13-0.484c-0.155-0.193-0.268-0.348-0.362-0.547l1.174,0.608
		c0.128,0.066,0.227,0.098,0.312,0.098c0.103,0,0.234-0.082,0.271-0.178c0.082-0.211-0.113-0.388-0.196-0.463l-0.088-0.08
		c-0.021-0.02-0.043-0.039-0.064-0.059c0.131,0.066,0.263,0.132,0.395,0.197c0.124,0.062,0.221,0.091,0.305,0.091
		c0.098,0,0.232-0.078,0.273-0.167c0.092-0.2-0.076-0.395-0.147-0.479c-0.167-0.194-0.333-0.389-0.498-0.586
		c-0.035-0.041-0.067-0.081-0.096-0.119l0.452,0.152c0.354,0.117,0.523-0.019,0.564-0.159c0.068-0.239-0.183-0.396-0.266-0.448
		c-0.193-0.121-0.408-0.231-0.628-0.345c-0.472-0.242-0.96-0.492-1.247-0.902c0,0,0.001,0,0.001,0.001l1.293,0.398
		c0.203,0.062,0.467,0.136,0.571,0.136c0.138,0,0.262-0.116,0.262-0.254c0-0.127-0.025-0.185-0.545-0.548l-0.439-0.305l0.504,0.138
		c0.186,0.051,0.405,0.009,0.596-0.035c0.103-0.024,0.203-0.04,0.334-0.044c0.119,0.021,0.257,0.066,0.394,0.114
		c0.072,0.024,0.44,0.151,0.578,0.151s0.262-0.116,0.262-0.254c0-0.167-0.089-0.228-0.59-0.498c-0.153-0.081-0.264-0.17-0.316-0.223
		c0.029-0.18-0.073-0.415-0.438-0.639l-0.354-0.216c-0.032-0.02-0.062-0.039-0.09-0.058c0.108,0.007,0.206,0.011,0.279,0.011
		c0.095,0,0.382,0,0.382-0.265c0-0.19-0.146-0.24-0.348-0.309c-0.028-0.01-0.06-0.021-0.093-0.032
		c0.02-0.03,0.032-0.066,0.038-0.106c0.037-0.261-0.26-0.347-0.419-0.393l-0.248-0.072c-0.158-0.046-0.315-0.091-0.473-0.137
		c0.174-0.018,0.387-0.071,0.5-0.224c0.066-0.09,0.085-0.201,0.053-0.307c-0.037-0.117-0.147-0.289-0.675-0.572
		c-0.036-0.02-0.071-0.039-0.108-0.063l0.631,0.025c0.239,0.009,0.606,0.137,0.739,0.295l0.056,0.07
		c0.063,0.085,0.127,0.179,0.188,0.27c0.12,0.177,0.223,0.33,0.323,0.413c0.16,0.134,0.372,0.112,0.464-0.02
		c0.094-0.135,0.05-0.31-0.006-0.465c-0.028-0.076-0.051-0.15-0.07-0.217c0.128,0.027,0.304-0.05,0.356-0.161
		c0.094-0.199-0.056-0.416-0.176-0.562l-0.375-0.448c-0.066-0.078-0.131-0.157-0.19-0.229c0.131-0.027,0.254-0.096,0.254-0.267
		c0-0.201-0.176-0.247-0.305-0.281c-0.09-0.024-0.226-0.06-0.373-0.116c-0.059-0.022-0.115-0.049-0.165-0.075
		c-0.028-0.016-0.054-0.032-0.077-0.05c0.043-0.004,0.09-0.006,0.141-0.006c0,0,0,0,0.001,0c0.482,0.007,0.745,0.171,1.108,0.397
		l0.219,0.135c0.261,0.155,0.626,0.281,0.814,0.281c0.116,0,0.219-0.058,0.285-0.158c0.106-0.163,0.098-0.43-0.02-0.695
		c-0.275-0.615-0.694-1.117-1.1-1.603c-0.239-0.286-0.464-0.556-0.653-0.839c-0.021-0.032-0.042-0.064-0.062-0.096
		c0.158,0.095,0.284,0.215,0.428,0.356c0.287,0.283,0.417,0.285,0.474,0.285c0,0,0.001,0,0.001,0c0.082,0,0.177-0.048,0.224-0.114
		c0.015-0.021,0.026-0.05,0.034-0.081c0.046,0.002,0.112,0.002,0.178,0.013l0.281,0.043c0.449,0.072,0.526-0.184,0.543-0.253
		c0.021-0.082,0.034-0.293-0.284-0.461c-0.158-0.082-0.331-0.153-0.503-0.224c-0.258-0.104-0.502-0.203-0.669-0.326
		c0.074,0.015,0.143,0.037,0.215,0.069l0.07,0.032c0.229,0.104,0.345,0.154,0.452,0.154c0.087,0,0.179-0.057,0.234-0.133
		c0.035-0.009,0.068-0.047,0.283,0.049c0.076,0.044,0.151,0.094,0.222,0.142c0.188,0.124,0.354,0.229,0.571,0.228
		c0.086-0.012,0.376-0.066,0.466-0.247c0.097-0.198-0.033-0.324-0.422-0.702c-0.224-0.219-0.411-0.446-0.541-0.658
		c-0.032-0.052-0.047-0.097-0.053-0.129c0.075-0.027,0.137-0.081,0.174-0.155c0.106-0.209-0.031-0.469-0.164-0.649
		c-0.256-0.35-0.511-0.695-0.766-1.039c-0.131-0.178-0.234-0.419-0.262-0.564c0.041,0.025,0.084,0.052,0.129,0.079
		c0.49,0.306,0.979,0.607,1.47,0.909c0.273,0.169,0.5,0.136,0.608-0.038c0.115-0.186,0.003-0.411-0.034-0.485l-0.619-1.24
		c0.271,0.137,0.542,0.273,0.814,0.411c0.122,0.062,0.219,0.091,0.306,0.091c0.095,0,0.235-0.079,0.278-0.163
		c0.099-0.197-0.058-0.406-0.117-0.485C144.158,78.958,143.54,78.076,143.303,77.306z"/>
</g>
</svg>
