<?xml version="1.0" encoding="iso-8859-1"?>
<!-- Generator: Adobe Illustrator 17.1.0, SVG Export Plug-In . SVG Version: 6.00 Build 0)  -->
<!DOCTYPE svg PUBLIC "-//W3C//DTD SVG 1.1//EN" "http://www.w3.org/Graphics/SVG/1.1/DTD/svg11.dtd">
<svg version="1.1" id="Capa_1" xmlns="http://www.w3.org/2000/svg" xmlns:xlink="http://www.w3.org/1999/xlink" x="0px" y="0px"
	 viewBox="0 0 150 150" style="enable-background:new 0 0 150 150;" xml:space="preserve">
<g>
	<path d="M143.458,82.573c-1.222-0.658-1.503-0.334-2.21,0.596c-0.275,0.361-0.613,0.692-0.98,0.958
		c-0.179,0.129-0.489,0.076-0.74,0.106c0.012-0.25-0.059-0.548,0.051-0.743c0.685-1.208,1.41-2.394,2.124-3.585
		c0.079-0.132,0.273-0.332,0.244-0.372c-0.779-1.032,0.306-1.595,0.576-2.357c0.07-0.196,0.132-0.396,0.197-0.594
		c-0.06-0.06-0.12-0.12-0.18-0.179c-0.244,0.236-0.492,0.466-0.729,0.708c-0.515,0.524-1,1.082-1.552,1.562
		c-0.139,0.121-0.53,0.071-0.725-0.041c-0.099-0.057-0.048-0.432-0.009-0.653c0.031-0.174,0.162-0.329,0.223-0.501
		c0.216-0.61,0.855-1.228-0.038-1.835c-0.073-0.05,0.014-0.338,0.029-0.548c-1.141,0.644-1.19,0.59-1.37-1.627
		c-0.281,0.445-0.449,0.731-0.637,1.004c-0.206,0.299-0.401,0.615-0.66,0.863c-0.117,0.113-0.492,0.166-0.546,0.094
		c-0.121-0.163-0.192-0.438-0.147-0.636c0.175-0.768,0.403-1.524,0.62-2.318c-1.053,0.125-1.117,0.022-0.943-0.939
		c0.064-0.354-0.044-0.746-0.104-1.115c-0.071-0.445-0.173-0.885-0.261-1.323c-0.488,0.096-1.082,0.236-1.683,0.297
		c-0.063,0.006-0.233-0.45-0.25-0.699c-0.038-0.563-0.012-1.131-0.012-1.858c-0.491,0.421-0.747,0.69-1.051,0.883
		c-0.198,0.125-0.466,0.137-0.703,0.2c-0.07-0.278-0.238-0.576-0.188-0.831c0.087-0.443,0.309-0.86,0.474-1.291
		c-0.489-0.588-0.999-0.702-1.629-0.253c-0.245,0.174-0.558,0.252-0.841,0.374c0.017-0.312,0.023-0.626,0.053-0.937
		c0.017-0.177,0.069-0.351,0.106-0.528c-0.538-0.2-1.101-0.319-0.713-1.155c0.104-0.225-0.247-0.661-0.357-0.925
		c-0.321,0.102-0.686,0.344-0.919,0.252c-0.198-0.078-0.258-0.538-0.353-0.837c-0.129-0.407-0.234-0.822-0.369-1.3
		c-0.354,0.447-0.58,0.856-0.918,1.116c-0.263,0.202-0.754,0.388-0.986,0.27c-0.219-0.111-0.337-0.636-0.313-0.965
		c0.055-0.758,0.224-1.507,0.347-2.26c-0.081-0.054-0.162-0.108-0.243-0.162c-0.203,0.229-0.381,0.49-0.616,0.679
		c-0.311,0.251-0.667,0.447-1.004,0.667c-0.178-0.325-0.356-0.651-0.525-0.959c-0.041,0.07-0.107,0.307-0.264,0.425
		c-0.231,0.173-0.606,0.427-0.774,0.346c-0.235-0.113-0.453-0.496-0.472-0.778c-0.062-0.912-0.019-1.831-0.039-2.747
		c-0.005-0.218-0.098-0.434-0.151-0.652c-0.077,0.01-0.155,0.019-0.232,0.029c0,0.319,0,0.637,0,0.952
		c-0.535-0.257-0.535-0.257-0.841-2.246c-0.034,0.497-0.013,0.744-0.077,0.967c-0.059,0.204-0.21,0.381-0.32,0.57
		c-0.19-0.139-0.489-0.241-0.55-0.423c-0.165-0.491-0.228-1.016-0.341-1.572c-0.035,0.176-0.015,0.374-0.105,0.476
		c-0.305,0.345-0.649,0.655-0.979,0.978c-0.105-0.385-0.259-0.765-0.305-1.157c-0.053-0.46-0.013-0.93-0.013-1.322
		c-0.376,0.149-0.88,0.523-1.114,0.397c-0.294-0.159-0.369-0.726-0.494-1.017c-0.233,0.155-0.543,0.362-0.853,0.569
		c-0.148-0.306-0.295-0.612-0.384-0.796c-0.353,0.153-0.853,0.564-1.17,0.453c-0.312-0.109-0.465-0.737-0.637-1.158
		c-0.146-0.36-0.219-0.749-0.354-1.231c-0.109,0.15-0.159,0.203-0.191,0.266c-0.198,0.388-0.392,0.778-0.587,1.168
		c-0.274-0.356-0.589-0.689-0.815-1.074c-0.632-1.078-1.181-2.195-2.208-3.003c-0.278-0.219-0.29-0.776-0.358-0.98
		c-0.183,0.344-0.428,0.807-0.674,1.271c-0.311-0.358-0.622-0.716-0.881-1.015c-0.349-0.039-0.734-0.083-1.232-0.139
		c0.01-0.016-0.055,0.176-0.187,0.287c-0.149,0.124-0.384,0.27-0.536,0.23c-0.153-0.04-0.297-0.278-0.363-0.459
		c-0.267-0.733-0.502-1.477-0.886-2.171c0.044,0.325,0.142,0.654,0.117,0.973c-0.023,0.3-0.176,0.59-0.272,0.885
		c-0.273-0.202-0.568-0.382-0.812-0.615c-0.122-0.116-0.153-0.328-0.246-0.544c-0.134,0.12-0.24,0.217-0.431,0.389
		c-0.066-0.352-0.114-0.607-0.162-0.862c-0.027,0-0.055,0.001-0.082,0.001c-0.019,0.257-0.037,0.514-0.067,0.924
		c-0.685-1.039-1.292-1.962-1.958-2.972c-0.262,1.137,1.133,2.185-0.078,3.251c-0.529-0.563-1.025-1.091-1.539-1.637
		c-0.36,0.457-0.678,1.074-1.271,0.229c-0.336-0.478-0.744-0.906-1.208-1.311c0.044,0.123,0.12,0.244,0.127,0.369
		c0.022,0.366,0.017,0.734,0.022,1.101c-0.381-0.198-0.882-0.307-1.111-0.617c-0.269-0.365-0.324-0.722-0.96-0.67
		c-0.325,0.026-0.697-0.53-1.027-0.806c-0.053,0.207-0.047,0.543-0.211,0.721c-0.154,0.167-0.488,0.168-0.755,0.245
		c0,0.026-0.007,0.082,0.001,0.135c0.066,0.456,0.136,0.912,0.204,1.367c-0.414-0.2-0.919-0.309-1.222-0.617
		c-0.625-0.634-1.142-1.374-1.539-1.867c-0.464,0.19-0.788,0.323-1.112,0.456c-0.034-0.081-0.067-0.162-0.101-0.243
		c-0.012,0.06-0.028,0.119-0.034,0.179c-0.043,0.477,0.09,1.213-0.159,1.38c-0.619,0.417-0.752-0.417-1.039-0.729
		c-0.432-0.469-0.733-1.058-1.09-1.597c-0.743,0.563-0.8,0.549-1.739-0.251c0.208,0.431,0.474,0.845,0.607,1.299
		c0.108,0.371,0.057,0.789,0.077,1.186c-0.39-0.076-0.873-0.033-1.154-0.25c-0.875-0.674-1.687-1.43-2.518-2.162
		c-0.084,0.24-0.169,0.48-0.254,0.72c-0.474-0.223-0.948-0.445-1.457-0.685c-1.072,0.834-1.11,0.831-2.336-0.354
		c0.254,0.721,0.448,1.255,0.63,1.792c0.078,0.231,0.189,0.471,0.182,0.704c-0.007,0.22-0.103,0.485-0.255,0.63
		c-0.072,0.068-0.408-0.047-0.554-0.166c-0.713-0.578-1.403-1.185-2.045-1.734c-0.149,0.019-0.479,0.114-0.798,0.087
		c-0.53-0.045-1.069-0.121-1.576-0.276c-0.413-0.126-0.784-0.386-1.175-0.588c-0.649,1.108-0.78,1.065-2.005-0.776
		c-0.206,0.465-0.284,1.036-0.593,1.221c-0.266,0.158-0.795-0.126-1.271-0.228c-0.248,0.545-0.736,0.455-1.252,0.071
		c-0.223-0.165-0.398-0.392-0.613-0.57c-0.466-0.385-0.943-0.757-1.311-1.05c-0.466,0.351-0.72,0.555-0.991,0.736
		c-0.049,0.033-0.213-0.069-0.237-0.039c-0.183,0.229-0.463,0.7-0.494,0.683c-0.43-0.229-0.828-0.519-1.226-0.805
		c-0.124-0.089-0.224-0.21-0.361-0.343c-0.157,0.117-0.328,0.245-0.519,0.387c0.1,0.197,0.269,0.379,0.269,0.562
		c0,0.352-0.097,0.703-0.153,1.055c-0.296-0.11-0.609-0.19-0.885-0.338c-0.401-0.214-0.775-0.477-1.163-0.719
		c-0.391,0.933-0.665,1.012-1.604,0.508c-0.771-0.414-1.552-0.808-2.499-1.3c0.153,0.705,1.374,0.964,0.26,1.65
		c-0.191-0.087-0.462-0.209-0.766-0.348c-0.467,0.622-0.933,1.047-1.775,0.463c-0.218-0.151-0.814,0.242-1.271,0.397
		c-0.085,0.747-0.746,1.139-1.749,0.73c-0.917-0.373-1.571-0.561-1.864,0.662c-0.026,0.108-0.441,0.209-0.652,0.173
		c-1.085-0.185-2.163-0.415-3.375-0.655c0.241,0.435,0.44,0.871,0.708,1.26c0.338,0.49,0.119,0.74-0.346,0.728
		c-0.513-0.014-1.021-0.265-1.534-0.273c-0.509-0.008-1.02,0.164-1.531,0.247c-0.538,0.087-1.076,0.187-1.617,0.233
		c-0.462,0.039-0.93,0.008-1.422,0.008c-0.192,0.425-0.292,0.999-0.633,1.298c-0.317,0.278-0.891,0.262-1.438,0.396
		c-0.113,0.163-0.327,0.473-0.554,0.802c0.082,0,0.221-0.036,0.33,0.007c0.273,0.108,0.533,0.252,0.797,0.381
		c-0.201,0.198-0.378,0.53-0.607,0.57c-1.055,0.186-2.129,0.262-3.187,0.436c-0.471,0.078-0.912,0.331-1.381,0.437
		c-0.487,0.11-0.993,0.138-1.447,0.196c0.378,0.221,0.813,0.437,1.197,0.722c0.13,0.097,0.196,0.38,0.166,0.557
		c-0.021,0.121-0.245,0.263-0.399,0.298c-1.237,0.279-2.48,0.536-3.879,0.833c0.285,0.133,0.492,0.166,0.584,0.287
		c0.177,0.231,0.288,0.513,0.427,0.774c-0.258,0.119-0.512,0.333-0.773,0.341c-1.01,0.032-1.877,0.241-2.531,1.136
		c-0.177,0.242-0.771,0.221-1.177,0.243c-0.455,0.024-0.914-0.04-1.394,0.019c0.752,0.084,1.518,0.038,1.948,0.869
		c0.349,0.674,0.257,1.117-0.503,1.331c-1.085,0.306-2.193,0.531-3.425,0.822c0.582,0.027,1.043,0.018,1.493,0.086
		c0.161,0.025,0.359,0.213,0.417,0.372c0.039,0.108-0.096,0.37-0.22,0.434c-0.896,0.462-1.809,0.891-2.716,1.33
		c-0.048-0.076-0.096-0.153-0.144-0.229c-0.063,0.164-0.222,0.363-0.177,0.486c0.573,1.553-0.754,1.348-1.517,1.658
		c-0.134,0.055-0.286,0.067-0.492,0.113c0.412,0.436,1.577,0.208,1.135,1.126c-0.193,0.401-1.012,0.501-1.585,0.755
		c-0.068,1.258-1.668,0.463-2.151,1.344c0.023,0.009,0.12,0.022,0.189,0.073c0.252,0.185,0.496,0.383,0.742,0.576
		c-0.292,0.177-0.565,0.414-0.881,0.519c-0.772,0.258-1.565,0.456-2.351,0.678c0.032,0.145,0.065,0.29,0.097,0.434
		c0.313-0.069,0.625-0.182,0.941-0.196c0.595-0.027,1.197-0.032,1.783,0.048c0.09,0.012,0.245,0.702,0.142,0.78
		c-0.463,0.352-0.995,0.623-1.526,0.873c-0.424,0.199-0.881,0.326-1.512,0.553c0.816,0.585,1.053,0.91,0.229,1.363
		c-0.349,0.192-0.762,0.92-0.646,1.186c0.421,0.961-0.338,0.991-0.811,1.205c-0.353,0.16-0.773,0.174-1.037,0.227
		c-0.254,0.446-0.481,0.842-0.705,1.235c0.488,0.01,1.085-0.025,1.12,0.787c0.033,0.771-0.201,1.279-1.029,1.516
		c-0.6,0.171-1.139,0.556-1.644,1.009c0.449-0.066,0.898-0.187,1.346-0.18c0.304,0.005,0.606,0.189,0.908,0.293
		c-0.125,0.288-0.197,0.62-0.389,0.854c-0.209,0.255-0.528,0.42-0.796,0.622c0.472,0.876,0.285,1.245-1.026,2.084
		c0.306,0.157,0.895,0.347,0.881,0.473c-0.041,0.379-0.268,0.771-0.512,1.088c-0.24,0.312-0.591,0.539-0.72,0.652
		c0.313,0.55,0.73,0.958,0.724,1.359c-0.006,0.442-0.402,0.878-0.372,1.035c0.14,0.285,0.438,0.598,0.394,0.851
		c-0.282,1.632,0.384,3.519-1.331,4.795c0.435-0.02,0.77-0.035,1.104-0.051c-0.066,0.474-0.132,0.948-0.203,1.455
		c0.246-0.131,0.494-0.292,0.764-0.398c0.255-0.1,0.533-0.143,0.801-0.211c0.052,0.293,0.232,0.642,0.133,0.871
		c-0.417,0.97-0.917,1.904-1.415,2.91c0.388,0,0.729,0.092,0.981-0.019c0.539-0.236,0.957-0.388,1.033,0.422
		c0.003,0.031-0.002,0.086,0.01,0.09c1.825,0.617,0.222,1.261-0.036,1.81c-0.262,0.557-0.739,1.013-1.003,1.626
		c0.543-0.237,1.071-0.527,1.637-0.687c0.239-0.068,0.556,0.138,0.837,0.219c-0.101,0.256-0.169,0.532-0.31,0.763
		c-0.325,0.531-0.686,1.04-0.954,1.623c0.625-0.84,1.496-0.862,2.364-0.758c0.513,0.061,0.563,0.428,0.235,0.799
		c-0.135,0.153-0.337,0.247-0.441,0.321c0.29,0.205,0.571,0.405,0.853,0.605c-0.307,0.171-0.605,0.36-0.924,0.505
		c-0.22,0.099-0.468,0.136-0.782,0.222c0.97,1.151-0.685,1.067-0.804,1.904c0.506-0.111,0.941-0.183,1.363-0.303
		c0.636-0.182,0.896,0.017,0.861,0.64c0.236,0.171,0.514,0.374,0.793,0.576c-0.5,0.493-0.999,0.986-1.484,1.466
		c0.168,0.268,0.458,0.726,0.696,1.105c0.49-0.037,0.888-0.067,1.286-0.097c-0.016,0.348-0.032,0.697-0.05,1.081
		c0.336-0.138,0.669-0.31,1.021-0.413c0.998-0.293,0.803,0.788,1.258,1.102c0.39,0.269,1.31-0.442,1.279,0.743
		c-0.006,0.255,0.627,0.476,0.834,0.798c0.495,0.768,0.908,1.588,1.361,2.383c0.295,0.517,0.602,1.028,0.975,1.662
		c0.41-0.107,0.866-0.221,1.32-0.344c0.405-0.11,1.168,0.683,1.209,1.37c0.033,0.552-0.009,1.123-0.122,1.664
		c-0.169,0.814,0.19,1.214,0.911,1.008c0.907-0.259,1.612,0.078,2.343,0.452c0.809,0.414,1.536,0.478,2.431,0.052
		c0.575-0.274,1.386-0.051,1.888-0.051c0.519-0.581,0.872-1.159,1.382-1.507c0.975-0.665,0.891,0.715,1.76,0.947
		c-0.26-0.759-0.38-1.429-0.702-1.983c-0.662-1.139-1.636-1.824-3.013-2.04c-0.619-0.097-1.208-0.645-1.703-1.104
		c-0.122-0.112,0.076-0.763,0.297-1.019c0.936-1.078,2.256-1.498,3.569-1.893c0.165-0.049,0.557,0.099,0.56,0.165
		c0.01,0.326-0.075,0.655-0.109,0.875c0.314,0.028,0.795,0.222,1.078,0.063c0.502-0.281,0.762-0.344,0.878,0.178
		c0.242-0.096,0.502-0.198,0.761-0.301c0.161,0.496,0.322,0.992,0.5,1.536c0.675-0.298,1.46-0.677,2.268-0.996
		c1.227-0.483,1.6-0.238,1.863,1.036c0.067,0.328,0.354,0.612,0.555,0.939c0.13-0.089,0.231-0.12,0.262-0.184
		c0.274-0.576,0.03-1.55,1.151-1.468c0.668,0.049,1.342,0.157,2.003,0.108c0.603-0.044,1.219-0.199,1.779-0.427
		c0.417-0.169,0.719-0.623,1.136-0.784c0.394-0.152,0.871-0.086,1.311-0.116c-0.005,0.342,0.009,0.687-0.023,1.026
		c-0.016,0.166-0.118,0.323-0.204,0.542c0.43,0.046,0.861,0.093,1.292,0.139c-0.056,0.414-0.111,0.828-0.178,1.323
		c0.351-0.123,0.77-0.328,1.212-0.404c0.25-0.043,0.537,0.123,0.872,0.212c0.227-0.24,0.577-0.658,0.982-1.014
		c0.149-0.131,0.557-0.221,0.625-0.142c0.153,0.181,0.295,0.535,0.214,0.718c-0.191,0.434-0.516,0.809-0.825,1.265
		c0.107,0.206,0.255,0.493,0.302,0.583c0.418-0.623,0.861-1.366,1.404-2.028c0.128-0.157,0.611-0.103,0.899-0.026
		c0.268,0.072,0.494,0.304,0.836,0.53c-0.334-1.594-0.221-2.979,1.133-3.95c0.247-0.177,0.604-0.2,0.911-0.295
		c0.065,0.276,0.12,0.554,0.198,0.826c0.121,0.42,0.259,0.835,0.376,1.21c0.413-0.512,0.735-1.027,1.175-1.406
		c0.195-0.168,0.642-0.121,0.942-0.044c0.087,0.022,0.116,0.49,0.081,0.74c-0.14,0.995-0.352,1.924,0.287,2.914
		c0.584,0.908,0.763,2.071,1.307,3.015c0.625,1.086,0.779,2.469,1.966,3.221c0.226,0.143,0.571,0.459,0.531,0.603
		c-0.455,1.637,1.59,2.119,1.606,3.526c0,0.072,0.323,0.108,0.438,0.219c0.18,0.174,0.41,0.385,0.44,0.605
		c0.067,0.48,0.021,0.976,0.021,1.468c0.913,0.033,1.478,0.387,1.71,1.222c0.047,0.17,0.263,0.397,0.421,0.414
		c0.997,0.108,0.954,0.86,1.064,1.565c0.261,1.661,1.972,3.776,3.66,4.047c0.149,0.024,0.345,0.05,0.457-0.022
		c0.921-0.59,1.783-0.369,2.707,0.044c0.396,0.177,0.931,0.033,1.401,0.06c0.318,0.019,0.634,0.082,0.837,0.11
		c1.017-0.535,2.013-1.058,3.008-1.582c0.013,0.062,0.025,0.125,0.039,0.187c0.25-0.335,0.501-0.67,0.916-1.224
		c-0.616-0.407-1.389-0.889-2.127-1.419c-0.254-0.182-0.4-0.506-0.633-0.727c-0.178-0.169-0.404-0.297-0.625-0.409
		c-0.76-0.385-1.545-0.726-2.284-1.148c-0.243-0.139-0.426-0.451-0.539-0.725c-0.079-0.191-0.072-0.516,0.045-0.659
		c0.107-0.13,0.42-0.147,0.633-0.124c1.167,0.125,2.328,0.313,3.497,0.412c1.335,0.113,2.394-0.512,3.218-1.489
		c0.234-0.277,0.265-0.78,0.255-1.175c-0.003-0.108-0.487-0.258-0.763-0.295c-0.925-0.123-1.628-1.259-1.295-2.105
		c0.064-0.164,0.018-0.374,0.012-0.562c-0.036-1.047-0.211-2.115-0.057-3.133c0.083-0.548,0.731-1.011,1.192-1.599
		c0.375,0.338,0.707,0.636,0.987,0.888c0.087-0.372,0.123-1.058,0.279-1.087c0.482-0.089,1.011,0.073,1.626,0.151
		c0.676-0.728,0.676-0.728,1.562,0.119c0.152-0.987,0.272-1.036,1.46-0.586c0.385-0.875,1.893-0.442,3.044,0.955
		c0.064-0.786,0.298-1.176,1.032-0.618c0.052-0.47,0.018-1.014,0.803-0.622c0.276,0.138,0.649,0.09,0.978,0.112
		c0.409,0.027,0.82,0.039,1.388,0.065c0.232-0.029,0.713-0.239,1.049-0.1c0.659,0.272,0.933,0.169,1.196-0.503
		c0.439-1.125,1.218-1.407,2.068-0.906c0.802-0.823,1.672-0.904,2.7-0.191c-0.136-0.456-0.229-0.766-0.375-1.257
		c0.534,0.04,0.955,0.072,1.376,0.103c0.003-0.849,0.003-0.849,2.234-0.213c0.358-0.691,1.841-1.05,2.41-0.457
		c0.978,1.02,2.26,0.911,3.455,1.181c0.853,0.193,1.679,0.497,2.52,0.745c0.526,0.155,1.09,0.228,1.578,0.461
		c1.031,0.492,2.292,0.263,3.218,1.168c0.365,0.357,1.086,0.339,1.638,0.516c2.15,0.69,4.108,1.886,6.455,2.108
		c1.014,0.096,1.994,0.889,2.923,1.471c1.65,1.034,3.362,1.908,5.352,1.787c1.187-0.072,2.433,0.012,3.43-1.047
		c0.484-0.514,0.761-0.935,0.837-1.617c0.213-1.919-0.639-3.428-1.63-4.961c-0.926-1.433-1.842-2.924-2.417-4.514
		c-0.441-1.219-0.336-2.633-0.495-3.958c-0.056-0.471-0.21-0.932-0.254-1.404c-0.036-0.385-0.029-0.79,0.052-1.166
		c0.322-1.495,0.68-2.982,1.026-4.472c0.027-0.119,0.124-0.256,0.09-0.349c-0.389-1.072,0.344-1.73,0.923-2.474
		c-0.966-1.415,0.212-2.364,0.8-3.37c-0.319-0.394-0.575-0.71-0.87-1.074c-0.175,0.059-0.456,0.255-0.615,0.182
		c-0.21-0.096-0.444-0.4-0.448-0.618c-0.004-0.238,0.241-0.482,0.38-0.721c0.645-1.113,1.24-2.259,1.956-3.325
		c0.408-0.607,1.004-1.092,1.536-1.611c0.353-0.344,0.743-0.65,1.063-1.071c-0.111,0.042-0.222,0.116-0.334,0.121
		c-0.335,0.014-0.672,0.002-1.008-0.001c0.091-0.324,0.088-0.732,0.289-0.957C141.287,84.832,142.39,83.702,143.458,82.573z"/>
</g>
</svg>
