<?xml version="1.0" encoding="iso-8859-1"?>
<!-- Generator: Adobe Illustrator 17.1.0, SVG Export Plug-In . SVG Version: 6.00 Build 0)  -->
<!DOCTYPE svg PUBLIC "-//W3C//DTD SVG 1.1//EN" "http://www.w3.org/Graphics/SVG/1.1/DTD/svg11.dtd">
<svg version="1.1" id="Capa_1" xmlns="http://www.w3.org/2000/svg" xmlns:xlink="http://www.w3.org/1999/xlink" x="0px" y="0px"
	 viewBox="0 0 150 150" style="enable-background:new 0 0 150 150;" xml:space="preserve">
<g>
	<path d="M132.761,120.952c-0.235-0.298-0.715-0.398-0.968-0.688c-0.881-1.014-1.734-2.054-2.541-3.127
		c-0.148-0.196-0.123-0.628-0.022-0.89c1.075-2.783,2.231-5.537,3.236-8.344c0.181-0.507-0.074-1.313-0.388-1.819
		c-0.459-0.742-0.53-1.285-0.169-2.135c0.336-0.79,0.242-1.783,0.251-2.687c0.007-0.657-0.127-1.316,0.062-2.06
		c0.205,0.351,0.409,0.703,0.615,1.055c1.251-0.917,1.048-3.962-0.339-5.169c1.897-0.503,1.995-0.95,1.05-2.743
		c-0.327-0.62-0.139-1.516-0.169-2.286c-0.025-0.631,0.093-1.295-0.066-1.887c-0.23-0.858-0.611-1.62,0.647-1.992
		c0.233-0.069,0.527-0.558,0.492-0.811c-0.214-1.519-0.467-3.037-0.806-4.533c-0.271-1.195-0.685-2.357-1.023-3.49
		c0.242-0.295,0.889-0.734,0.898-1.187c0.011-0.506-0.555-1.025-0.972-1.703c-0.361,0.561-0.541,0.839-0.72,1.118
		c0.561-1.745,1.162-3.465-0.606-5.004c1.393-0.984,0.786-1.607-0.148-1.992c-0.11-0.974-0.204-1.81-0.298-2.645l-0.428-0.006
		c-0.24,0.279-0.479,0.558-0.986,1.148c0.25-1.243,0.359-2.1,0.6-2.919c0.397-1.346-0.262-1.436-1.493-1.023
		c0-0.698,0.011-1.239-0.003-1.779c-0.013-0.511-0.052-1.021-0.101-1.937c-0.554,0.623-0.796,0.895-1.031,1.158
		c-0.109-0.094-0.178-0.138-0.173-0.151c0.418-0.976-0.134-1.49-0.74-2.223c-0.976-1.179-1.621-2.633-2.391-3.979
		c-0.099-0.172-0.103-0.398-0.151-0.6c-0.114-0.485-0.087-1.081-0.366-1.438c-1.353-1.734-2.787-3.405-4.194-5.098
		c-0.327-0.394-1.191-0.515-0.662-1.355c0.059-0.093-0.105-0.423-0.25-0.531c-1.232-0.925-2.492-1.811-3.724-2.736
		c-0.638-0.48-1.213-1.044-1.855-1.519c-1.972-1.46-3.963-2.896-5.948-4.339c-0.04-0.029-0.099-0.05-0.147-0.045
		c-1.566,0.142-2.347-1.017-3.461-1.813c-1.886-1.347-4.095-2.304-6.268-3.175c-3.474-1.393-7.279-2.159-10.452-4.026
		c-1.681-0.989-3.43,0.105-4.77-1.169c-0.331-0.315-0.871-0.433-1.334-0.58c-0.427-0.135-0.88-0.185-1.377-0.037
		c-1.201-2.056-2.928-2.014-5.054-0.962c-0.313-2.075-2.21-1.739-3.448-2.486c-1.525-0.921-2.668-2.471-3.986-3.739
		c-0.636-0.612-1.223-1.32-1.964-1.765c-0.564-0.339-1.549-0.677-1.979-0.414c-1.533,0.938-2.279-0.071-3.217-0.919
		c-1.409-1.274-2.864-2.383-4.987-1.394c-0.367,0.171-1.375-0.237-1.569-0.631c-0.779-1.59-1.253-3.332-2.05-4.912
		c-0.393-0.779-1.138-1.662-1.91-1.904c-1.257-0.393-2.503-0.296-3.401,1.231c-1.042,1.77-2.606,3.224-3.759,4.939
		c-1.306,1.943-2.699,3.915-3.509,6.079c-0.685,1.829-2.321,2.113-3.533,2.878c-2.22,1.401-4.619,2.48-6.491,4.423
		c-0.615,0.638-1.603,0.899-2.315,1.465c-4.455,3.534-6.847,8.462-9.136,13.485c-0.828,1.818-1.899,3.552-3.051,5.19
		c-1.019,1.45-1.508,2.96-1.257,4.673c0.093,0.637,0.319,1.54,0.775,1.788c1.623,0.882,1.577,2.623,2.351,3.927
		c1.19,2.007,2.602,3.824,5.021,4.517c0.728,0.209,1.65,0.38,2.073,0.901c1.76,2.168,4.212,2.519,6.685,2.68
		c1.16,0.076,1.527,0.734,2.123,1.472c1.076,1.333,0.732,2.639,0.443,4.093c-0.106,0.532,0.514,1.261,0.906,1.828
		c0.685,0.991,0.462,1.639-0.714,1.838c-4.202,0.713-5.691,2.762-6.279,7.209c-0.49,3.703,1.083,5.956,3.933,7.771
		c0.252,0.16,0.41,0.462,0.632,0.677c0.865,0.839,1.5,1.746,3.125,1.006c0.971-0.442,2.436,0.191,3.677,0.356
		c0.496,0.066,0.986,0.172,1.478,0.259c0.214,0.569,0.422,1.12,0.665,1.764c0.513-0.353,0.906-0.624,1.357-0.935
		c0.062,0.031,0.124,0.062,0.187,0.091c0.006,0.013,0.012,0.027,0.017,0.04c-0.042-0.015-0.035-0.01,0.004,0.01
		c0.106,0.252,0.193,0.465,0.293,0.669c0.2,0.407,0.416,0.807,0.625,1.209c0.322-0.283,0.838-0.538,1.016-0.842
		c0.086,0.054,0.174,0.104,0.258,0.16c0.074,0.05,0.176,0.125,0.282,0.206c-0.013,0.716,0.226,1.547,0.736,2.524
		c0.249-0.265,0.485-0.516,0.902-0.961c0.115,0.14,0.249,0.31,0.353,0.44c0.034,0.051,0.07,0.101,0.103,0.152
		c0.032,0.41,0.056,0.738,0.073,1.065c0.038,0.774-0.249,1.832,0.15,2.266c0.947,1.03,1.518,2.018,0.925,3.638
		c1.799-0.291,3.064-0.675,3.266-2.466c0.003-0.024,0.002-0.051,0.003-0.076c0.036,0.015,0.072,0.028,0.107,0.042
		c0.132,0.17,0.265,0.339,0.411,0.497c-0.355,1.053-0.656,2.126-0.949,3.2c-0.037,0.137,0.181,0.491,0.242,0.482
		c0.269-0.04,0.673-0.104,0.761-0.288c0.369-0.777,0.706-1.571,1.053-2.397c0.24,0.178,0.492,0.341,0.751,0.491
		c-0.107,0.706-0.017,1.448-0.017,2.165c0.724,0.07,1.538,0.148,2.59,0.25c0.103-0.112,0.395-0.431,0.868-0.949
		c-0.118,0.979-0.202,1.675-0.286,2.37c0.161,0.055,0.322,0.111,0.483,0.166c0.642-0.906,1.392-1.76,1.869-2.746
		c0.029-0.059,0.036-0.128,0.035-0.201c0.499-0.026,0.986-0.102,1.458-0.221c-1.072,0.895-1.891,2.365-1.697,3.609
		c0.942-0.633,1.843-1.238,2.743-1.844c0.082,0.074,0.164,0.148,0.246,0.221c-0.206,0.43-0.349,0.906-0.628,1.283
		c-1.014,1.371-1.93,2.67-1.026,4.553c0.278,0.579-0.017,1.559-0.3,2.253c-0.463,1.134-0.282,1.755,0.658,1.79
		c0.236,1.073,0.506,1.948,0.603,2.841c0.109,1.003,0.261,2.07,0.039,3.026c-0.491,2.115-0.278,2.447,2.01,2.041
		c0.161,1.044,0.254,2.105,0.509,3.125c0.139,0.554,0.544,1.043,0.846,1.552c0.528,0.89,1.163,1.736,1.53,2.686
		c0.083,0.214-0.813,1.178-1.155,1.126c-2.931-0.452-5.379,0.941-7.83,2.057c-2.289,1.042-2.994,3.474-4.315,5.719
		c1.492,0.005,2.064,0.433,2.478,1.651c0.307,0.905,1.586,1.595,2.57,2.123c1.047,0.562,2.236,1.047,3.4,1.15
		c1.337,0.118,2.819,0.055,4.055-0.413c3.88-1.468,7.873-1.838,11.938-1.582c3.302,0.208,6.068-1.084,8.711-2.774
		c0.933-0.597,1.776-1.106,2.959-1.036c1.807,0.107,3.629,0.118,5.437,0.023c1.422-0.075,2.835-0.349,4.246-0.576
		c1.113-0.179,2.231-0.366,3.319-0.653c0.797-0.21,1.55-0.589,2.214-0.851c1.712,0.049,3.436,0.195,5.15,0.121
		c1.627-0.069,3.26-0.283,4.863-0.583c3.166-0.591,6.377-0.349,9.549-0.658c1.484-0.145,2.89-0.994,4.377-1.218
		c2.672-0.402,5.402-0.441,8.057-0.917c0.901-0.161,2.088-1.028,2.377-1.844c0.721-2.035,0.516-4.069-1.106-5.838
		C134.873,123.954,133.893,122.386,132.761,120.952z"/>
</g>
</svg>
