<?xml version="1.0" encoding="utf-8"?>
<!-- Generator: Adobe Illustrator 17.1.0, SVG Export Plug-In . SVG Version: 6.00 Build 0)  -->
<!DOCTYPE svg PUBLIC "-//W3C//DTD SVG 1.1//EN" "http://www.w3.org/Graphics/SVG/1.1/DTD/svg11.dtd">
<svg version="1.1" id="Capa_1" xmlns="http://www.w3.org/2000/svg" xmlns:xlink="http://www.w3.org/1999/xlink" x="0px" y="0px"
	 viewBox="0 0 200 200" enable-background="new 0 0 200 200" xml:space="preserve">
<g>
<path d="M192.5,61.6c-9.8,1.8-19.1,5-28,9.5c-9.2,4.7-17.7,10.5-25.8,16.8c-3.1,2.4-6.1,4.8-9.3,7.3c-0.1,0.1-0.2,0.1-0.2,0.1
	c-0.1-0.1-0.1-0.1-0.2-0.2c-0.1-0.1-0.3-0.2-0.4-0.3c-2-1.9-4.1-3.9-6.2-5.9c-0.1-0.1-0.3-0.1-0.3,0c-0.3,0.5-0.3,1.1-0.1,1.6
	c0.6,1.7,1.4,3.3,2.1,5c0.5,1,1.1,1.9,1.5,2.9c0.1,0.2,0.1,0.6-0.1,0.8c-5.9,5.7-11.8,11.4-17.7,17.1c-0.6,0.6-1.1,0.6-1.8,0.3
	c-2.4-1-4.4-2.6-6.2-4.4c-2.4-2.6-4.8-5.2-7.1-7.9c-0.5-0.6-0.8-1.5-1.2-2.2c-1.2-3-2.9-5.6-5.7-7.3c-0.2-0.1-0.3-0.3-0.4-0.5
	c-1.8-3.3-4.1-6.2-6.4-9.1c-1.5-1.9-2.9-4-4.9-5.5c-1.8-1.4-3.8-2.4-5.6-3.7c-3.5-2.3-6.9-4.6-10.4-6.8c-2.3-1.4-4.8-2.5-7.2-3.7
	c-6.3-3.1-12.6-6-19.1-8.6c-5.2-2.1-10.5-3-16-3.3c-3.5-0.2-7-0.3-10.5-0.3c-0.1,0-0.1,0,0,0.1c0.6,0.2,1.1,0.5,1.7,0.7
	c10.9,4.3,21.6,9.2,31.4,15.7c5.9,3.9,11.6,8.2,16.7,13.2c3.4,3.4,6.2,7.3,8.9,11.3c4.5,6.7,8.8,13.4,12,20.9c1,2.3,2.1,4.6,2.4,7.2
	c0.1,0.8,0.2,1.6,0.2,2.5c0.1,0.8-0.2,2.1-0.5,2.9c-0.6,1.5-1.3,3-2.1,4.4c-0.8,1.3-1.8,2.3-3.4,2.6c-4.8,0.7-9.6,0.8-14.4,0.2
	c-0.9-0.1-1.7-0.5-2.5-0.8c-0.5-0.2-1-0.2-1.2,0.3c-0.2,0.4-0.2,1.1,0,1.3c0.6,0.6,1.4,1.2,2.2,1.6c1.1,0.5,2.4,0.5,3.6,0.3
	c4.4-0.8,8.9-1.4,13.4-1c1.4,0.1,2.6,0,3.9-0.3c0,0,0.1,0,0.1,0c0.1,0-0.1,0.6-0.5,1.3c-0.4,0.6-0.9,1.1-1.6,1.4
	c-4.3,2.2-8.8,3.8-13.6,4.8c-0.8,0.2-1.7,0.1-2.6,0.1c-0.5,0-1,0.1-1,0.6c0,0.4,0.1,1.1,0.4,1.2c0.8,0.4,1.7,0.7,2.6,0.8
	c1.2,0.1,2.4-0.3,3.5-0.9c4-2.2,8-4.2,12.4-5.3c1.3-0.3,2.5-0.8,3.6-1.5c1.5-0.9,3-1.8,4.5-2.7c0.7-0.5,1.5-0.7,2.4-0.8
	c3.6-0.3,7.2-1,10.7-2c0.3-0.1,0.6-0.1,0.9-0.1c5.7,0.2,11.1-0.8,16.5-2.4c1.8-0.6,3.4-1.7,4.5-3.2c0.2-0.2,0.4-0.4,0.7-0.5
	c0.5-0.2,1-0.3,1.4-0.5c0.9-0.5,1.2-1.2,0.8-2.2c0-0.1,0-0.3,0.1-0.3c1.9-1.1,3.7-2.1,5.8-2.5c2-0.4,4,0.7,4.7,2.6
	c0.4,1.1,0.9,1.8,1.9,2.3c0.7,0.3,1.3,0.8,1.8,1.4c2.1,2.5,4.8,4.5,7.4,6.5c4.3,3.2,8.7,6.4,13,9.5c0.4,0.3,0.8,0.5,1.2,0.7
	c0.5,0.4,1,0.3,1.4-0.1c0.5-0.4,0.6-0.9,0.5-1.4c-0.1-0.4-0.3-0.7-0.6-1c-3.7-4.3-7.4-8.6-11-12.9c-0.9-1-1.7-2-2.5-3.1
	c-0.3-0.4-0.4-0.8-0.6-1.2c-0.1-0.1-0.1-0.3,0-0.3c0.1,0,0.2-0.1,0.3,0c0.1,0,0.3,0.1,0.4,0.1c6.2,2.3,12,5.2,17.9,8.3
	c1.9,1,3.9,2,5.8,2.9c0.2,0.1,0.6,0.2,0.6,0.1c0.1-0.3,0.4-0.7,0.3-0.8c-0.4-0.7-0.8-1.3-1.3-1.8c-1.7-1.5-3.4-3-5.2-4.5
	c-6.1-5.2-12.2-10.4-18.4-15.6c-0.4-0.4-0.6-0.7-0.6-1.3c0-2-0.8-2.9-2.7-3.3c-0.7-0.2-1.2-0.5-1.7-1c-1.3-1.5-2.7-3-4.1-4.6
	c-0.1-0.1-0.1-0.3,0-0.4c1.6-1.8,3.1-3.5,4.6-5.3c1.6-1.8,3.2-3.6,4.8-5.4c0.3-0.4,0.5-0.7,0.4-1.2c-0.1-0.6,0.2-0.9,0.8-0.8
	c0.5,0.1,1,0.2,1.6,0.4c0.1,0,0.2,0,0.2-0.2c-0.1-0.7-0.2-1.3-0.3-2c0-0.1,0.1-0.2,0.2-0.1c0.3,0.1,0.6,0.3,1,0.4
	c0.1,0.1,0.2,0,0.1-0.1c-0.2-0.5-0.4-0.9-0.6-1.2c-0.3-0.5-0.2-0.8,0.1-1.2c5.5-6.2,11.7-11.4,19-15.3c6.4-3.5,13.2-5.7,20.3-7
	c1.2-0.2,2.4-0.6,3.5-1c0.3-0.1,0.6-0.3,0.9-0.5c0.1-0.1,0.1-0.2,0-0.2C193.8,61.5,193.2,61.5,192.5,61.6z"/>
</g>
</svg>
