<?xml version="1.0" encoding="iso-8859-1"?>
<!-- Generator: Adobe Illustrator 17.1.0, SVG Export Plug-In . SVG Version: 6.00 Build 0)  -->
<!DOCTYPE svg PUBLIC "-//W3C//DTD SVG 1.1//EN" "http://www.w3.org/Graphics/SVG/1.1/DTD/svg11.dtd">
<svg version="1.1" id="Capa_1" xmlns="http://www.w3.org/2000/svg" xmlns:xlink="http://www.w3.org/1999/xlink" x="0px" y="0px"
	 viewBox="0 0 150 150" style="enable-background:new 0 0 150 150;" xml:space="preserve">
<g>
	<path d="M142.326,70.438c0,0,0.802-1.312,0.925-1.805c0.123-0.493,0.062-0.771-0.185-0.925c-0.247-0.154-3.268,1.202-3.268,1.202
		s0.339-2.497-1.233-1.973c-1.572,0.524-3.7,2.035-3.7,2.035s-11.531-2.826-14.942-3.566c-3.412-0.74-6.536-0.822-11.305,1.151
		c-4.768,1.973-12.99,2.952-15.785,5.094c0,0-2.631-0.072-5.755,0.953c-3.124,1.024-18.581,3.737-21.047,3.655
		s-4.686,1.844-14.388-2.778c-9.701-4.622-8.797-2.566-22.445-6.184C15.551,63.68,7.74,68.037,4.452,75.19s0.909,6.474,5.015,0.226
		c0,0,5.508-8.941,18.581-2.857c13.072,6.084,25.733,5.673,21.458,11.017s-5.344,10.852-8.797,11.51
		c-3.453,0.658-4.686,2.055-7.564,1.727c-2.878-0.329-3.289,1.644-3.782,3.371s-1.233,4.851-0.822,6.084s-0.058,6.577,1.369,8.221
		s2.002,0.904,2.002,0.904s0.247,3.289,2.631,2.055c0,0,3.782,2.302,2.302-2.302c0,0,2.878,1.727,3.042,1.151
		s-0.781-2.096-1.459-2.466c-0.678-0.37-1.233-2.035-2.898-2.22c0,0,0.247-4.008,0.247-4.933s0.925-0.678,1.418-0.74
		s2.158-1.11,2.158-1.11s12.764,0.925,17.08-3.391c4.316-4.316,11.469-5.118,11.469-5.118s9.804,2.281,13.565-0.37
		c0,0,14.49,2.96,26.391-5.056c0,0,4.748,3.885,6.104,4.378c1.357,0.493,2.713,3.206,1.172,4.193
		c-1.542,0.987-2.775,3.453-2.158,3.946c0,0-0.925,2.22,0.678,2.59c0,0,1.603,2.035,2.898,0.123c0,0,1.665-0.37,2.59-2.343
		s1.603-0.802,1.788-2.59c0,0,1.788-3.744,0.863-6.959c0,0,1.727-0.317,2.59,0.855c0.863,1.172,1.48,0,2.405,1.418
		c0.925,1.418,3.145,3.453,4.008,3.33c0.863-0.123,2.096,1.048,2.775-0.185s2.775-1.048,2.281-2.775c0,0,1.233-1.85-0.74-2.343
		s1.11-3.453-4.563-3.453c0,0-0.925-0.185-1.48-1.11c-0.555-0.925-5.796-4.501-7.214-4.686c0,0,3.885-5.365,8.633-3.946
		c4.748,1.418,5.919,2.096,7.708,2.22c1.788,0.123,3.33,3.885,6.104,0.678c0,0,1.603-0.74,1.542-1.418c0,0,0.925-0.802,1.048-1.418
		c0.123-0.617-1.418-2.651-1.48-3.761C145.347,76.526,146.272,75.018,142.326,70.438z"/>
</g>
</svg>
