<?xml version="1.0" encoding="iso-8859-1"?>
<!-- Generator: Adobe Illustrator 17.1.0, SVG Export Plug-In . SVG Version: 6.00 Build 0)  -->
<!DOCTYPE svg PUBLIC "-//W3C//DTD SVG 1.1//EN" "http://www.w3.org/Graphics/SVG/1.1/DTD/svg11.dtd">
<svg version="1.1" id="Capa_1" xmlns="http://www.w3.org/2000/svg" xmlns:xlink="http://www.w3.org/1999/xlink" x="0px" y="0px"
	 viewBox="0 0 150 150" style="enable-background:new 0 0 150 150;" xml:space="preserve">
<g>
	<path d="M134.711,20.194c-0.478-0.421-1.062-0.724-1.605-1.07c-0.222-0.142-0.448-0.282-0.686-0.394
		c-0.603-0.284-1.271-0.47-1.805-0.849c-0.498-0.354-1.098-0.47-1.561-0.968c-0.558-0.601-1.399-0.934-2.103-1.405
		c-0.628-0.42-1.233-0.874-1.854-1.305c-0.314-0.218-0.63-0.436-0.964-0.62c-0.864-0.475-1.806-0.521-2.768-0.49
		c-0.373,0.012-0.755,0.07-1.117-0.028c0.294-0.313,0.597-0.617,0.907-0.91c1.784-0.94,3.812-1.404,5.872-1.296
		c1.903,0.1,3.826,0.653,5.688-0.006c1.225-0.434,2.245-1.406,2.415-2.727c0.181-1.404-0.989-2.635-2.174-3.162
		c-1.55-0.69-3.403-0.288-4.951,0.182c-0.291,0.088-0.578,0.188-0.863,0.292c-1.483,0.472-2.871,1.23-4.095,2.192
		c-1.104,0.798-2.12,1.72-3.021,2.737c-0.137,0.155-0.27,0.313-0.401,0.472c-0.339,0.327-0.668,0.663-0.987,1.01
		c-0.026,0.029-0.05,0.058-0.072,0.087c-0.07-0.052-0.139-0.104-0.206-0.159c-0.542-0.442-1.878-0.603-2.522-0.327
		c-0.477,0.204-1.019,0.259-1.489,0.474c-0.739,0.336-1.54,0.579-1.722,1.617c-0.074,0.424-0.565,0.812-0.934,1.141
		c-0.714,0.636-1.511,1.181-2.21,1.833c-0.888,0.828-1.734,1.706-2.558,2.598c-0.65,0.703-1.283,1.431-1.848,2.203
		c-0.666,0.91-1.284,1.86-1.857,2.831c-0.262,0.444-0.364,0.982-0.547,1.475c-0.211,0.567-0.43,1.131-0.648,1.695
		c-0.024,0.061-0.077,0.114-0.09,0.176c-0.159,0.748-0.296,1.502-0.473,2.246c-0.219,0.923-0.471,1.838-0.708,2.757
		c-0.022,0.085-0.037,0.174-0.044,0.262c-0.145,1.685-0.242,3.376-0.456,5.053c-0.081,0.633-0.432,1.232-0.659,1.847
		c-0.037,0.102-0.059,0.21-0.101,0.309c-0.245,0.572-0.494,1.142-0.742,1.712c-0.292,0.672-0.585,1.343-0.876,2.015
		c-0.165,0.382-0.312,0.773-0.495,1.147c-0.227,0.464-0.473,0.919-0.727,1.369c-0.264,0.468-0.536,0.933-0.824,1.386
		c-0.382,0.6-0.747,1.216-1.186,1.773c-0.817,1.036-1.65,2.062-2.538,3.036c-0.566,0.621-1.217,1.174-1.879,1.695
		c-0.71,0.559-1.474,1.05-2.222,1.558c-0.437,0.297-0.885,0.577-1.336,0.851c-0.42,0.256-0.847,0.501-1.278,0.74
		c-0.66,0.367-1.323,0.728-1.989,1.083c-0.286,0.152-0.578,0.298-0.879,0.417c-0.446,0.177-0.914,0.303-1.352,0.497
		c-0.463,0.204-0.902,0.463-1.351,0.697c-0.305,0.159-0.611,0.317-0.915,0.478c-0.968,0.513-1.93,1.039-2.906,1.535
		c-0.652,0.331-1.349,0.58-1.982,0.941c-0.513,0.292-0.943,0.727-1.445,1.044c-0.546,0.345-1.15,0.599-1.698,0.941
		c-0.64,0.4-1.251,0.848-1.868,1.284c-0.717,0.506-1.444,1.001-2.136,1.539c-0.533,0.414-1.008,0.902-1.528,1.334
		c-1.252,1.039-2.544,2.031-3.761,3.109c-0.651,0.577-1.182,1.291-1.762,1.947c-0.579,0.654-1.154,1.312-1.726,1.972
		c-0.644,0.743-1.316,1.464-1.915,2.242c-0.578,0.75-1.068,1.566-1.615,2.34c-0.755,1.07-1.556,2.109-2.284,3.197
		c-0.621,0.926-1.153,1.911-1.752,2.852c-0.387,0.608-0.827,1.183-1.239,1.775c-0.524,0.753-1.028,1.521-1.57,2.261
		c-0.553,0.755-1.158,1.472-1.711,2.228c-0.514,0.703-0.972,1.447-1.485,2.151c-0.546,0.749-1.125,1.474-1.693,2.207
		c-0.358,0.462-0.716,0.925-1.086,1.377c-0.63,0.77-1.298,1.51-1.897,2.303c-0.605,0.8-1.13,1.659-1.718,2.472
		c-0.487,0.674-1.044,1.298-1.518,1.981c-0.463,0.667-0.834,1.397-1.295,2.065c-0.448,0.649-0.982,1.239-1.438,1.884
		c-0.488,0.69-0.919,1.419-1.397,2.117c-0.236,0.344-0.511,0.664-0.787,0.979c-0.645,0.734-1.29,1.469-1.955,2.184
		c-0.935,1.006-1.847,2.025-3.025,2.786c-0.663,0.428-1.199,1.055-1.789,1.596c-0.703,0.645-1.404,1.291-2.103,1.94
		c-0.911,0.846-1.832,1.682-2.725,2.548c-0.882,0.855-1.761,1.716-2.589,2.622c-0.654,0.716-1.382,1.342-1.919,2.203
		c-0.541,0.867-0.818,1.78-1.182,2.698c-1.023,2.582-0.802,5.245-0.659,7.897c0.022,0.417,0.552,0.929,0.975,1.178
		c0.879,0.516,1.844,0.886,2.774,1.315c0.798,0.368,1.576,0.795,2.401,1.086c0.689,0.243,1.455,0.264,2.15,0.492
		c1.513,0.497,3.06,0.409,4.609,0.393c0.846-0.008,1.569-0.345,2.288-0.745c0.374-0.208,0.813-0.295,1.203-0.479
		c0.415-0.195,0.807-0.439,1.209-0.662c0.297-0.166,0.589-0.34,0.89-0.499c0.778-0.41,1.577-0.784,2.335-1.226
		c0.83-0.484,1.618-1.038,2.435-1.543c0.71-0.439,1.464-0.813,2.147-1.289c1.047-0.73,2.033-1.545,3.076-2.282
		c0.692-0.489,1.447-0.887,2.153-1.358c0.322-0.215,0.595-0.506,0.887-0.765c0.998-0.885,1.99-1.776,2.993-2.656
		c0.489-0.429,0.973-0.871,1.503-1.246c0.297-0.21,0.671-0.341,1.029-0.428c0.764-0.186,1.544-0.305,2.312-0.479
		c0.446-0.101,0.873-0.294,1.322-0.368c0.177-0.029,0.382,0.201,0.586,0.231c0.354,0.052,0.722,0.082,1.075,0.041
		c0.249-0.029,0.482-0.194,0.724-0.294c0.603-0.247,1.201-0.507,1.812-0.73c0.494-0.18,1.015-0.289,1.506-0.475
		c0.569-0.215,1.119-0.48,1.677-0.724c0.04-0.017,0.079-0.037,0.121-0.048c1.663-0.465,3.385-0.648,5.054-0.326
		c0.788,0.152,1.572,0.224,2.358,0.344c0.914,0.14,1.818,0.349,2.802,0.543c0.332,0.969-0.205,1.583-0.931,2.174
		c-0.817,0.665-0.744,0.912-0.483,2.037c0.203-0.131,0.392-0.266,0.593-0.38c0.214-0.122,0.44-0.224,0.679-0.344
		c0.459,0.443,0.947,0.927,1.453,1.39c0.099,0.09,0.268,0.134,0.408,0.143c0.398,0.026,0.801,0.056,1.197,0.025
		c0.899-0.071,1.673,0.238,2.404,0.713c0.018,0.012,0.04,0.021,0.061,0.026c0.683,0.145,1.361,0.372,2.051,0.416
		c1.105,0.07,2.217,0.019,3.44,0.019c-0.218,0.869,0.469,1.293,0.676,1.893c0.275,0.798,0.768,1.591,0.548,2.523
		c-0.066,0.281-0.01,0.59-0.01,0.887c0.079,0.015,0.159,0.03,0.238,0.045c0.101-0.248,0.202-0.496,0.328-0.808
		c0.201,0.329,0.376,0.616,0.507,0.831c-0.098,0.328-0.233,0.613-0.259,0.908c-0.041,0.463-0.048,0.937,0.003,1.398
		c0.072,0.666-0.103,1.163-0.668,1.573c-0.432,0.313-0.7,1.98-0.486,2.499c0.139,0.338,0.497,0.382,0.767,0.118
		c0.108-0.106,0.267-0.205,0.412-0.221c0.905-0.105,1.539-0.429,2.14-1.12c0.455,0.231,0.897,0.473,1.355,0.681
		c0.605,0.275,1.209,0.562,1.838,0.77c0.618,0.205,1.271,0.304,1.901,0.474c0.834,0.225,1.662,0.474,2.494,0.71
		c0.106,0.03,0.218,0.051,0.327,0.052c2.623,0.003,5.246,0.002,7.867,0.002c0.472-0.956-0.76-1.432-0.715-2.372h3.783
		c-0.44-0.495-0.7-0.909-1.067-1.177c-0.787-0.577-1.611-1.108-2.456-1.598c-0.39-0.226-0.864-0.303-1.294-0.464
		c-0.076-0.028-0.12-0.139-0.248-0.297c0.478-0.047,0.86-0.084,1.243-0.122c0.023-0.042,0.046-0.084,0.068-0.126
		c-0.343-0.21-0.703-0.396-1.025-0.635c-1.432-1.064-3.072-0.794-4.672-0.728c-0.473,0.02-0.947,0.268-1.411,0.243
		c-0.919-0.05-1.84-0.171-2.743-0.346c-1.327-0.258-2.153-1.365-2.23-2.722c-0.04-0.705-0.266-1.397-0.348-2.102
		c-0.032-0.273-0.221-0.685,0.305-0.81c0.059-0.014,0.063-0.326,0.065-0.501c0.007-0.71,0.003-1.42,0.003-2.165
		c0.278-0.049,0.508-0.09,0.811-0.143c0-0.397-0.004-0.793,0.001-1.189c0.007-0.632,0.192-1.084,0.935-1.19
		c0.234-0.033,0.404-0.413,0.638-0.587c0.094-0.07,0.29-0.042,0.426-0.007c0.136,0.035,0.266,0.205,0.38,0.19
		c0.135-0.019,0.287-0.15,0.37-0.273c0.475-0.707,0.931-1.426,1.393-2.141c0.081,0.013,0.162,0.026,0.243,0.039v2.347
		c0.085,0.018,0.17,0.035,0.255,0.053c0.316-0.46,0.65-0.91,0.945-1.384c0.385-0.616,0.758-1.241,1.102-1.881
		c0.203-0.378,0.322-0.801,0.514-1.187c0.15-0.302,0.352-0.578,0.531-0.865c0.071,0.027,0.141,0.053,0.212,0.08
		c0.024,0.36,0.014,0.728,0.088,1.078c0.038,0.178,0.227,0.324,0.348,0.485c0.139-0.137,0.315-0.251,0.411-0.413
		c0.468-0.787,0.916-1.585,1.367-2.382c0.231-0.408,0.436-0.831,0.684-1.228c0.149-0.238,0.357-0.439,0.612-0.745
		c0.101,0.323,0.178,0.569,0.311,0.994c0.677-0.874,1.225-1.677,1.872-2.391c0.651-0.718,1.32-1.457,2.44-1.802v1.992
		c0.058,0.007,0.117,0.013,0.175,0.02c0.049-0.1,0.12-0.195,0.144-0.3c0.166-0.728,0.245-1.486,0.5-2.181
		c0.335-0.915,0.925-1.682,1.653-2.356c1.059-0.98,2.065-2.018,3.086-3.039c0.574-0.574,1.146-1.152,1.692-1.753
		c0.384-0.424,0.74-0.876,1.077-1.339c0.357-0.491,0.683-1.005,1.012-1.516c0.361-0.56,0.693-1.139,1.068-1.689
		c0.43-0.631,0.902-1.232,1.337-1.859c0.365-0.525,0.694-1.075,1.054-1.604c0.285-0.418,0.611-0.808,0.885-1.232
		c0.529-0.821,1.027-1.663,1.553-2.486c0.332-0.519,0.706-1.011,1.037-1.53c0.185-0.29,0.325-0.61,0.48-0.92
		c0.396-0.794,0.812-1.579,1.173-2.388c0.206-0.463,0.289-0.98,0.483-1.45c0.181-0.439,0.438-0.847,0.658-1.27
		c0.04-0.076,0.059-0.163,0.089-0.245c0.264-0.72,0.553-1.433,0.786-2.164c0.187-0.585,0.286-1.198,0.461-1.787
		c0.189-0.634,0.421-1.255,0.636-1.881c0.036-0.104,0.094-0.202,0.117-0.308c0.138-0.623,0.321-1.241,0.393-1.872
		c0.176-1.541,0.399-3.087,0.423-4.633c0.055-3.607,0.041-7.216-0.022-10.822c-0.023-1.353-0.11-2.742-0.452-4.039
		c-0.2-0.758-0.193-1.503-0.348-2.239c-0.163-0.778-0.462-1.526-0.692-2.291c-0.044-0.147-0.016-0.316-0.066-0.459
		c-0.21-0.604-0.427-1.206-0.659-1.802c-0.167-0.429-0.341-0.857-0.547-1.269c-0.458-0.913-0.942-1.814-1.407-2.723
		c-0.341-0.666-0.664-1.342-1.007-2.008c-0.204-0.396-0.457-0.768-0.641-1.172c-0.211-0.463-0.36-0.953-0.553-1.424
		c-0.239-0.581-0.496-1.154-0.744-1.73c-0.017-0.04-0.03-0.084-0.037-0.128c-0.145-0.888-0.342-1.771-0.419-2.665
		c-0.07-0.818-0.003-1.646-0.01-2.47c-0.007-0.868,0.356-1.609,0.742-2.355c0.207-0.399,0.281-0.867,0.483-1.269
		c0.269-0.538,0.554-1.082,0.922-1.553c0.55-0.704,1.218-1.316,1.762-2.024c0.633-0.824,1.143-1.743,1.787-2.557
		c0.513-0.649,1.136-1.214,1.727-1.799c0.606-0.6,1.207-1.209,1.859-1.755c0.335-0.28,0.766-0.456,1.172-0.637
		c0.559-0.25,1.117-0.564,1.708-0.662c0.617-0.103,1.273-0.003,1.909,0.052c0.231,0.02,0.451,0.163,0.72,0.267
		c0.162-0.906,0.047-1.58-0.595-2.161C135.322,21.099,135.108,20.544,134.711,20.194z M134.828,8.311
		c0.058-0.43,0.021-0.878-0.126-1.318C134.895,7.446,134.923,7.892,134.828,8.311z M122.019,11.386
		c0.064-0.004,0.13-0.012,0.199-0.028c0.001,0,0.003-0.001,0.004-0.001c-0.109,0.043-0.219,0.086-0.327,0.133
		C121.935,11.455,121.978,11.421,122.019,11.386z M81.813,129.476c-0.96-0.34-1.829-0.648-2.725-0.966
		c0-0.717,0.009-1.404-0.003-2.09c-0.012-0.74,0.215-0.984,0.979-1.024c0.309-0.016,0.629-0.009,0.924-0.087
		c0.401-0.106,0.784-0.282,1.175-0.428c0.066,0.067,0.133,0.135,0.199,0.202C82.184,126.509,82.005,127.936,81.813,129.476z"/>
</g>
</svg>
