<?xml version="1.0" encoding="iso-8859-1"?>
<!-- Generator: Adobe Illustrator 17.1.0, SVG Export Plug-In . SVG Version: 6.00 Build 0)  -->
<!DOCTYPE svg PUBLIC "-//W3C//DTD SVG 1.1//EN" "http://www.w3.org/Graphics/SVG/1.1/DTD/svg11.dtd">
<svg version="1.1" id="Capa_1" xmlns="http://www.w3.org/2000/svg" xmlns:xlink="http://www.w3.org/1999/xlink" x="0px" y="0px"
	 viewBox="0 0 150 150" style="enable-background:new 0 0 150 150;" xml:space="preserve">
<g>
	<path d="M132.829,60.664c-1.546-3.714-2.906-7.494-4.595-11.163c-1.463-3.178-3.918-5.071-6.687-6.688
		c-1.582-0.923-3.353-1.521-5.04-2.173c-0.515-0.199-0.845-0.811-0.737-1.352c0.276-1.383,0.583-2.845,0.781-4.321
		c0.12-0.898-0.104-1.837-0.115-2.758c-0.015-1.25-0.003-2.501,0.048-3.75c0.089-2.164-0.47-4.205-0.99-6.278
		c-0.333-1.329-0.09-2.813-0.48-4.115c-0.405-1.353,0.079-2.993-1.216-4.072c-0.029-0.024-0.045-0.084-0.041-0.125
		c0.207-2.102-1.344-3.572-2.052-5.322c-0.719-1.776-1.9-3.47-3.892-4.318c-0.706-0.3-1.352-0.741-2.079-1.219
		c-0.461-0.304-0.982-0.114-1.163,0.408c-0.624,1.805-1.254,3.44-1.623,5.131c-0.365,1.678-1.253,3.198-0.98,5.122
		c0.196,1.377-0.658,2.885-0.951,4.354c-0.155,0.777-0.236,1.568-0.319,2.365c-0.057,0.549-0.406,0.658-0.75,0.225
		c-0.825-1.04-1.551-2.085-2.544-2.697c-1.71-1.053-2.981-2.62-4.656-3.614c-2.616-1.552-5.274-3.166-8.122-4.156
		c-2.823-0.982-5.889-1.339-8.88-1.727c-0.787-0.102-1.628,0.207-2.575,0.502c-0.527,0.164-0.754,0.665-0.499,1.155
		c0.881,1.693,1.671,3.274,2.563,4.795c1.477,2.519,3.011,5.008,4.611,7.451c0.907,1.385,2.008,2.642,2.998,3.974
		c1.018,1.371,1.958,2.803,3.025,4.134c0.739,0.921,1.653,1.7,2.455,2.573c0.884,0.962,1.789,1.912,2.58,2.948
		c2.167,2.838,3.009,6.172,3.46,9.637c0.017,0.132,0.037,0.274,0.097,0.39c1.136,2.18-0.058,3.574-1.6,4.886
		c-0.217,0.185-0.235,0.599-0.356,0.903c-0.207,0.518-0.322,1.111-0.652,1.534c-1.023,1.307-1.214,2.817-1.341,4.39
		c-0.079,0.975-0.368,1.93-0.507,2.903c-0.022,0.156-0.01,0.317,0.013,0.466c0.039,0.255-0.131,0.852-0.36,1.355
		c-0.851,1.871-1.446,3.928-3.202,5.189c-0.449,0.322-0.576,0.471-0.223,0.429c0.353-0.042,0.647-0.044,0.658-0.005
		s-0.401,0.227-0.918,0.42c-0.078,0.029-0.157,0.058-0.236,0.088c-0.518,0.193-0.698,0.414-0.403,0.494
		c0.295,0.08,0.113,0.294-0.408,0.479c-0.463,0.164-0.909,0.322-1.365,0.484c-0.521,0.184-0.744,0.433-0.499,0.555
		c0.245,0.122,0.06,0.317-0.412,0.436s-0.802,0.337-0.736,0.485s-0.32,0.354-0.86,0.468c-0.972,0.205-1.946,0.417-2.932,0.507
		c-0.319,0.029-0.662-0.021-1-0.117c-0.531-0.151-1.374-0.398-1.926-0.386c-3.228,0.069-8.743,1.076-10.975,1.507
		c-0.542,0.105-1.426,0.24-1.976,0.297c-0.748,0.077-1.546,0.159-2.369,0.244c-0.549,0.057-0.924,0.169-0.836,0.251
		c0.087,0.082-0.267,0.29-0.791,0.465c-2.41,0.806-4.865,1.626-7.33,2.45c-0.524,0.175-0.808,0.395-0.633,0.491
		c0.175,0.096-0.098,0.344-0.618,0.532c-1.391,0.502-2.783,0.913-3.873,1.729c-1.18,0.884-2.491,1.588-3.655,2.521
		c-1.311,1.05-3.136,1.457-4.738,2.144c-0.152,0.065-0.304,0.13-0.504,0.217c-0.279,0.12-0.283,0.317-0.008,0.44
		c0.275,0.123,0.138,0.49-0.305,0.82c-0.963,0.716-1.915,1.425-2.877,2.141c-0.443,0.33-0.67,0.673-0.507,0.767
		s-0.097,0.385-0.581,0.651c-0.326,0.179-0.647,0.355-0.966,0.531c-0.484,0.266-0.854,0.526-0.827,0.581
		c0.028,0.055,0.349,0.046,0.719-0.021c0.369-0.067,0.345,0.189-0.054,0.57c-1.76,1.68-3.462,3.307-5.17,4.928
		c-0.176,0.167-0.363,0.322-0.597,0.515c-0.337,0.277-0.247,0.404,0.198,0.281c0.445-0.122,0.557,0.152,0.256,0.615
		c-0.851,1.304-1.677,2.593-2.562,3.84c-0.568,0.799-1.292,1.488-1.936,2.234c-0.02,0.024-0.016,0.069-0.007,0.119
		c0.011,0.067,0.195,0.088,0.412,0.048c0.217-0.04,0.129,0.289-0.196,0.736c-0.539,0.739-1.065,1.462-1.637,2.247
		c-0.325,0.446-0.232,0.617,0.207,0.381c0.439-0.236,0.617-0.015,0.382,0.485c-0.867,1.843-1.771,3.444-1.909,5.375
		c-0.068,0.951-0.568,1.87-1.055,2.898c-0.236,0.499-0.209,0.775,0.031,0.603s0.36,0.131,0.266,0.675
		c-0.444,2.563-0.877,5.066-1.306,7.541c-0.094,0.544-0.026,0.925,0.153,0.85c0.179-0.075,0.199,0.294,0.045,0.825
		c-0.122,0.419-0.24,0.824-0.357,1.229c-0.154,0.53-0.118,0.918,0.079,0.866c0.198-0.052,0.195,0.327,0.099,0.871
		c-0.25,1.421-0.087,2.926-1.128,4.094c-0.367,0.412-0.548,0.644-0.284,0.644s0.215,0.363-0.108,0.812
		c-0.088,0.122-0.175,0.244-0.265,0.368c-0.323,0.448-0.408,0.752-0.191,0.677s0.411-0.108,0.433-0.075
		c0.015,0.022,0.027,0.043,0.028,0.064c0.007,0.132,0.014,0.266-0.001,0.396c-0.278,2.395,0.496,4.252,2.777,5.283
		c1.654,0.748,2.848,2.43,5.008,2.225c0.677-0.064,1.427,0.664,2.148,1.019c0.028,0.014,0.07,0.001,0.115-0.017
		c0.062-0.024,0.065-0.154,0.007-0.291c-0.058-0.137,0.333-0.157,0.874-0.043c0.388,0.082,0.777,0.164,1.17,0.247
		c0.541,0.114,0.908,0.056,0.822-0.129c-0.086-0.184,0.26-0.165,0.784,0.008c4.524,1.493,9.135,0.873,13.708,0.959
		c0.552,0.01,0.939-0.056,0.866-0.162c-0.074-0.107,0.315-0.193,0.868-0.192c1.573,0.003,3.159,0.009,4.744-0.008
		c0.737-0.008,1.478-0.053,2.208-0.152c1.624-0.219,3.246-0.453,4.86-0.733c1.77-0.307,3.558,0.393,5.383-0.673
		c1.068-0.624,2.039-1.097,2.415-1.92c0.229-0.502,0.592-1.084,1.13-1.211c1-0.237,1.945-0.453,2.869-0.737
		c1.295-0.398,2.414-0.868,2.688-2.579c0.194-1.215,0.097-2.33-1.005-2.977c-0.108-0.063-0.167-0.208-0.208-0.36
		c-0.06-0.227-0.542-0.453-1.092-0.499c-0.122-0.01-0.247-0.021-0.375-0.032c-0.55-0.046-0.766-0.467-0.481-0.941
		c0.165-0.274,0.319-0.53,0.467-0.777c0.285-0.473,0.582-0.821,0.664-0.778c0.082,0.043,0.172,0.406,0.2,0.811
		s0.25,0.334,0.494-0.162c0.12-0.243,0.235-0.476,0.346-0.703c0.244-0.495,0.502-0.876,0.575-0.85s0.165,0.369,0.204,0.764
		s0.237,0.3,0.443-0.213c0.066-0.165,0.132-0.329,0.199-0.497c0.205-0.513,0.401-0.558,0.438-0.102
		c0.037,0.456,0.174,0.388,0.402-0.116c0.455-1.005,1.167-1.762,2.285-2.237c1.545-0.656,3.032-1.45,4.577-2.109
		c0.26-0.111,0.818,0.049,1.006,0.276c0.755,0.908,1.397,1.909,2.124,2.843c0.763,0.981,1.555,1.941,2.371,2.878
		c1.039,1.192,2.115,2.351,3.173,3.527c0.06,0.067,0.113,0.139,0.168,0.216c0.087,0.124,0.237,0.098,0.334-0.056
		s0.357,0.13,0.582,0.635c0.079,0.177,0.159,0.357,0.241,0.543c0.224,0.505,0.448,0.637,0.499,0.295s0.346-0.251,0.658,0.204
		c0.832,1.214,1.638,2.39,2.424,3.536c0.312,0.456,0.565,0.54,0.565,0.189s0.251-0.264,0.56,0.193
		c0.462,0.683,0.901,1.331,1.37,2.024c0.31,0.457,0.513,0.477,0.456,0.044c-0.058-0.433-0.034-0.835,0.052-0.897
		c0.086-0.063,0.42,0.248,0.745,0.694c0.185,0.253,0.369,0.506,0.553,0.759c0.325,0.446,0.697,0.697,0.807,0.543
		c0.114-0.159,0.125-0.235,0.13-0.311c0.003-0.042-0.034-0.087-0.03-0.129c0.001-0.016,0.022-0.029,0.059-0.054
		c0.037-0.025,0.429,0.215,0.877,0.538c0.306,0.22,0.616,0.445,0.936,0.675c0.448,0.323,0.79,0.383,0.764,0.135
		s0.367-0.278,0.873-0.057c0.437,0.191,0.853,0.36,1.285,0.428c1.107,0.176,2.302-0.036,3.359,0.267
		c2.115,0.605,3.885-0.325,5.293-1.446c0.883-0.703,1.711-0.893,2.672-0.98c0.55-0.05,1.323-0.375,1.724-0.755
		c0.55-0.522,1.114-1.058,1.647-1.563c0.4-0.38,0.534-1.093,0.286-1.587c-0.619-1.234-1.297-2.308-2.622-2.701
		c-0.529-0.157-0.779-0.328-0.525-0.541s0.012-0.386-0.54-0.386c-0.154,0-0.303,0-0.448,0c-0.552,0-1-0.028-1.001-0.063
		c-0.001-0.035,0.216-0.121,0.486-0.193c0.27-0.072,0.083-0.319-0.418-0.552c-0.15-0.069-0.297-0.138-0.444-0.206
		c-0.501-0.232-0.712-0.468-0.471-0.525c0.241-0.058,0.042-0.318-0.444-0.581c-0.917-0.498-1.837-1-2.768-1.484
		c-0.196-0.102-0.407-0.175-0.656-0.255c-0.371-0.119-0.436-0.288-0.147-0.373c0.289-0.084,0.266-0.275-0.05-0.426
		c-0.316-0.151-0.27-0.321,0.104-0.379s0.263-0.276-0.247-0.487c-0.429-0.177-0.855-0.353-1.262-0.521
		c-0.51-0.211-0.746-0.621-0.51-0.901c0.212-0.252,0.367-0.443,0.323-0.557c-0.118-0.305-0.288-0.589-0.479-0.88
		c-0.304-0.461-0.399-0.824-0.206-0.816c0.193,0.008,0.279-0.22,0.194-0.509c-0.052-0.175-0.1-0.35-0.136-0.527
		c-0.22-1.077-0.21-2.263-0.678-3.215c-0.64-1.303-0.515-2.312,0.204-3.216c0.344-0.432,0.781-0.59,0.876-0.443
		c0.096,0.147,0.344-0.066,0.553-0.476c0.21-0.41,0.431-0.618,0.494-0.465c0.063,0.153,0.403-0.066,0.759-0.488
		c0.296-0.351,0.598-0.709,0.905-1.073c0.356-0.422,0.707-0.595,0.782-0.386c0.076,0.209,0.296-0.041,0.546-0.534
		c1.251-2.474,3.365-4.438,3.854-7.26c0.002-0.012,0.026-0.021,0.053-0.029c0.033-0.01,0.18,0.093,0.327,0.231
		c0.147,0.138,0.392-0.18,0.547-0.71c0.864-2.97,1.7-5.846,2.553-8.778c0.154-0.53,0.562-1.309,0.886-1.756
		c1.602-2.201,2.012-3.692,2.067-4.571c0.035-0.551-0.487-1.263-0.781-1.731c-0.579-0.922-0.455-1.906-0.53-2.869
		c-0.102-1.292,0.041-2.603,0.149-3.888c0.046-0.55,0.131-0.97,0.248-0.917c0.116,0.053,0.112-0.347,0.122-0.899
		c0.041-2.367,2.134-2.966,3.915-3.71c0.51-0.213,1.303-0.54,1.789-0.694c0.307-0.097,0.597-0.214,0.822-0.406
		c0.635-0.541,1.1-1.285,1.622-1.956c0.477-0.613,1.052-1.066,1.686-1.535c1.083-0.8,1.862-2.001,2.828-2.973
		c0.802-0.806,1.632-1.608,2.554-2.265c1.174-0.835,1.425-2.421,0.597-3.687C134.182,63.328,133.398,62.033,132.829,60.664z"/>
</g>
</svg>
