<?xml version="1.0" encoding="iso-8859-1"?>
<!-- Generator: Adobe Illustrator 17.1.0, SVG Export Plug-In . SVG Version: 6.00 Build 0)  -->
<!DOCTYPE svg PUBLIC "-//W3C//DTD SVG 1.1//EN" "http://www.w3.org/Graphics/SVG/1.1/DTD/svg11.dtd">
<svg version="1.1" id="Capa_1" xmlns="http://www.w3.org/2000/svg" xmlns:xlink="http://www.w3.org/1999/xlink" x="0px" y="0px"
	 viewBox="0 0 150 150" style="enable-background:new 0 0 150 150;" xml:space="preserve">
<g>
	<path d="M146.639,98.269c0.501,0.125,1.001,0.25,1.502,0.375c-0.111-0.29-0.298-0.416-0.402-0.591
		c-0.465-0.784-0.907-1.583-1.355-2.377c-0.035-0.062-0.106-0.165-0.087-0.187c0.324-0.385-0.093-0.476-0.267-0.608
		c-0.28-0.211-0.611-0.354-0.91-0.542c-0.104-0.066-0.179-0.179-0.267-0.27c0.336-0.264-0.032-0.32-0.141-0.371
		c-0.886-0.418-1.781-0.819-2.678-1.216c-0.389-0.172-0.788-0.322-1.183-0.483c0.014-0.047,0.028-0.093,0.042-0.14
		c0.32,0,0.64,0,0.96,0c-0.159-0.193-0.347-0.272-0.542-0.313c-0.365-0.076-0.738-0.115-1.102-0.196
		c-0.365-0.081-0.462-0.266-0.058-0.571c-0.667-0.199-1.25-0.373-1.992-0.594c0.428-0.134,0.682-0.213,1.076-0.336
		c-0.695-0.336-1.258-0.609-1.86-0.9c0.166-0.117,0.257-0.181,0.422-0.299c-0.715-0.207-1.33-0.386-2.007-0.582
		c0.284-0.177,0.512-0.319,0.815-0.508c-0.587-0.324-1.112-0.614-1.637-0.904c0.014-0.029,0.028-0.059,0.042-0.088
		c0.281,0.036,0.563,0.072,0.844,0.108c0.013-0.033,0.026-0.065,0.039-0.098c-0.638-0.356-1.276-0.713-1.914-1.069
		c0.019-0.045,0.038-0.091,0.057-0.136c0.428,0.113,0.855,0.226,1.283,0.338c0.024-0.053,0.049-0.106,0.073-0.159
		c-0.588-0.368-1.176-0.735-1.85-1.156c0.344-0.071,0.544-0.112,0.745-0.153c0.015-0.048,0.031-0.095,0.046-0.143
		c-0.219-0.133-0.424-0.339-0.66-0.385c-0.984-0.194-1.61-0.914-2.326-1.506c-0.107-0.089-0.193-0.203-0.36-0.381
		c0.393,0.052,0.673,0.089,0.953,0.126c0.019-0.037,0.037-0.075,0.056-0.112c-0.452-0.361-0.904-0.722-1.373-1.097
		c0.086-0.046,0.144-0.065,0.184-0.103c0.044-0.042,0.072-0.101,0.198-0.287c-0.971-0.405-1.865-0.779-2.707-1.13
		c0.198-0.264,0.4-0.532,0.518-0.689c-0.61-0.468-1.237-0.948-1.991-1.526c0.585-0.027,1.007-0.046,1.428-0.065
		c0-0.067-0.001-0.134-0.002-0.201c-0.748-0.052-1.496-0.104-2.243-0.156c-0.031-0.033-0.061-0.065-0.092-0.098
		c0.163-0.064,0.326-0.128,0.489-0.192c-0.034-0.045-0.068-0.09-0.102-0.135c-0.527-0.178-1.055-0.357-1.582-0.535
		c0.007-0.041,0.015-0.081,0.022-0.122c0.144-0.032,0.289-0.065,0.499-0.112c-0.302-0.145-0.528-0.254-0.809-0.389
		c0.118-0.264,0.223-0.5,0.366-0.821c-1.783-0.524-2.763-2.017-3.912-3.326c0.515,0.332,1.031,0.664,1.546,0.996
		c0.051-0.062,0.103-0.124,0.154-0.186c-0.117-0.214-0.235-0.429-0.331-0.604c0.271,0.123,0.541,0.246,0.811,0.369
		c0.038-0.062,0.076-0.124,0.114-0.186c-0.502-0.732-1.287-1.302-1.418-2.292c0.381,0.223,0.721,0.423,1.062,0.623
		c0.051-0.067,0.102-0.134,0.152-0.2c-1.067-1.146-2.134-2.292-3.201-3.438c0.017-0.017,0.034-0.033,0.051-0.05
		c0.639,0.41,1.278,0.819,1.917,1.229c0.044-0.057,0.088-0.113,0.132-0.17c-0.189-0.281-0.378-0.562-0.587-0.872
		c0.641-0.175,0.536-0.597,0.243-0.886c-0.567-0.562-1.207-1.053-1.83-1.557c-0.302-0.244-0.635-0.449-0.954-0.672
		c0.026-0.035,0.052-0.071,0.078-0.106c0.837,0.397,1.673,0.794,2.51,1.19c0.037-0.068,0.074-0.137,0.112-0.205
		c-0.399-0.351-0.798-0.701-1.236-1.086c0.286-0.065,0.48-0.11,0.839-0.192c-1.194-0.986-2.264-1.87-3.37-2.784
		c0.727-0.133,1.174,0.674,1.926,0.308c-1.11-0.806-2.219-1.611-3.329-2.417c0.024-0.033,0.048-0.066,0.072-0.099
		c0.593,0.188,1.185,0.376,1.778,0.564c0.036-0.074,0.072-0.148,0.108-0.222c-0.583-0.426-1.167-0.852-1.85-1.35
		c0.448,0.03,0.762,0.051,1.076,0.072c0.014-0.05,0.028-0.1,0.042-0.149c-1.066-0.526-2.131-1.053-3.197-1.58
		c0.017-0.037,0.034-0.074,0.051-0.111c0.858,0,1.716,0,2.574,0c0.007-0.046,0.013-0.092,0.02-0.138
		c-1.575-0.49-3.15-0.981-4.724-1.471c0.656,0.032,1.292,0.149,1.929,0.258c0.625,0.106,1.25,0.203,1.876,0.305
		c0.017-0.081,0.034-0.162,0.051-0.243c-1.232-0.489-2.464-0.978-3.809-1.511c0.909-0.046,1.719-0.087,2.53-0.128
		c0-0.059,0-0.118,0-0.178c-0.987-0.194-1.973-0.389-2.96-0.583c0.004-0.04,0.008-0.079,0.011-0.119
		c0.459-0.089,0.918-0.177,1.378-0.266c-1.765-0.532-3.601-0.209-5.385-0.593c1.403-0.103,2.806-0.206,4.209-0.31
		c0-0.099,0.001-0.197,0.001-0.296c-1.705-0.103-3.409-0.205-5.114-0.308c-0.003-0.052-0.006-0.105-0.009-0.158
		c1.277-0.147,2.554-0.293,3.831-0.44c-0.003-0.068-0.006-0.136-0.01-0.205c-1.78,0-3.561,0-5.341,0
		c-0.006-0.085-0.012-0.17-0.019-0.255c1.38-0.215,2.759-0.43,4.139-0.645c-0.357-0.137-0.709-0.195-1.053-0.166
		c-1.254,0.106-2.505,0.247-3.759,0.362c-0.298,0.027-0.601,0.004-0.901,0.004c-0.005-0.088-0.009-0.176-0.014-0.264
		c1.371-0.283,2.741-0.566,4.112-0.849c-0.009-0.076-0.019-0.153-0.028-0.229c-1.128,0.063-2.256,0.126-3.384,0.189
		c0.628-0.225,1.266-0.385,1.899-0.563c0.089-0.025,0.153-0.143,0.229-0.217c-0.08-0.071-0.15-0.187-0.241-0.206
		c-0.305-0.064-0.623-0.155-0.926-0.125c-1.571,0.155-3.116,0.429-4.547,1.152c-0.274,0.138-0.567,0.238-0.852,0.355
		c-0.031-0.073-0.063-0.146-0.094-0.218c1.456-0.672,2.911-1.345,4.367-2.017c-1.306-0.189-2.427,0.385-3.639,0.632
		c0.617-0.334,1.235-0.668,1.852-1.002c-1.557-0.119-2.954,0.433-4.379,0.836c-0.021-0.058-0.041-0.116-0.062-0.173
		c1.071-0.464,2.142-0.928,3.213-1.392c-1.927-0.168-3.595,0.686-5.33,1.256c-0.019-0.049-0.039-0.099-0.058-0.148
		c1.026-0.491,2.052-0.981,3.221-1.541c-1.441-0.047-2.563,0.485-3.721,0.94c0.699-0.473,1.399-0.947,2.098-1.42
		c-1.735-0.176-2.786,1.393-4.379,1.563c1.122-0.688,2.245-1.375,3.367-2.063c-0.026-0.06-0.053-0.12-0.079-0.18
		c-1.126,0.349-2.251,0.698-3.377,1.047c-0.024-0.042-0.049-0.085-0.073-0.127c0.515-0.437,1.031-0.874,1.546-1.311
		c-0.236,0-0.473,0-0.709,0c-0.716,0.325-1.432,0.651-2.148,0.976c-0.023-0.041-0.046-0.083-0.069-0.124
		c0.102-0.171,0.203-0.342,0.342-0.576c-0.619-0.097-0.982,0.259-1.378,0.518c-0.393,0.256-0.777,0.526-1.165,0.789
		c-0.041-0.057-0.082-0.115-0.124-0.172c0.294-0.246,0.589-0.491,0.883-0.737c-0.023-0.061-0.047-0.123-0.07-0.184
		c-0.983,0.303-1.967,0.607-3.005,0.927c0.257-0.392,0.479-0.731,0.702-1.069c-0.03-0.045-0.06-0.089-0.09-0.134
		c-0.194,0.082-0.436,0.116-0.574,0.254c-0.556,0.554-1.076,1.142-1.616,1.712c-0.262,0.276-0.539,0.539-0.809,0.807
		c-0.04-0.039-0.08-0.079-0.12-0.118c0.245-0.717,1.048-1.217,0.943-2.071c-0.064-0.047-0.127-0.094-0.191-0.142
		c-0.56,0.578-1.12,1.155-1.68,1.733c-0.057-0.039-0.114-0.079-0.171-0.118c0.179-0.461,0.358-0.922,0.538-1.383
		c-0.28,0.022-0.53,0.106-0.666,0.28c-0.337,0.43-0.635,0.893-0.923,1.358c-0.16,0.258-0.293,0.471-0.562,0.249
		c0.1-0.365,0.188-0.69,0.277-1.015c-0.063-0.031-0.127-0.062-0.19-0.093c-0.453,0.455-0.906,0.91-1.359,1.365
		c-0.052-0.048-0.105-0.097-0.157-0.145c0.211-0.43,0.422-0.859,0.633-1.289c-0.034-0.046-0.069-0.092-0.104-0.139
		c-0.235,0.126-0.521,0.205-0.691,0.391c-0.262,0.285-0.439,0.647-0.662,0.97c-0.443,0.643-0.892,1.281-1.338,1.921
		c-0.054-0.037-0.108-0.074-0.162-0.111c0.462-0.846,0.924-1.691,1.436-2.627c-1.084,0.033-1.185,1.136-1.985,1.477
		c0.106-0.326,0.186-0.571,0.265-0.816c-0.036-0.034-0.072-0.068-0.108-0.102c-0.708,0.616-1.416,1.231-2.123,1.847
		c-0.03-0.033-0.06-0.067-0.09-0.1c0.141-0.377,0.282-0.754,0.424-1.13c-0.049-0.025-0.098-0.049-0.146-0.074
		c-0.271,0.295-0.542,0.59-0.928,1.011c0.129-0.409,0.201-0.637,0.274-0.866c-0.048-0.03-0.097-0.061-0.146-0.091
		c-0.583,0.746-1.167,1.492-1.75,2.237c-0.061-0.032-0.121-0.064-0.181-0.096c0.1-0.413,0.201-0.826,0.301-1.239
		c-0.071-0.042-0.142-0.083-0.212-0.125c-0.453,0.586-0.907,1.172-1.461,1.887c0-0.557,0-0.93,0-1.304
		c-0.052-0.027-0.104-0.053-0.155-0.08c-0.531,0.693-1.062,1.385-1.594,2.077c-0.047-0.027-0.093-0.055-0.139-0.082
		c0.086-0.436,0.171-0.873,0.257-1.309c-0.069-0.035-0.139-0.07-0.208-0.104c-0.724,1.129-1.447,2.258-2.171,3.386
		c-0.038-0.016-0.076-0.033-0.114-0.049c0.187-0.641,0.373-1.283,0.573-1.971c-0.584,0.108-0.744,0.574-0.987,0.956
		c-0.24,0.378-0.485,0.753-0.728,1.129c-0.043-0.025-0.087-0.049-0.13-0.074c0.126-0.422,0.251-0.843,0.377-1.265
		c-0.063-0.024-0.127-0.048-0.19-0.072c-0.448,0.384-0.675,0.887-0.758,1.489c-0.048,0.347-0.067,0.757-0.686,0.799
		c0.152-0.767,0.294-1.482,0.436-2.196c-0.1-0.026-0.201-0.051-0.301-0.077c-0.439,1.203-0.879,2.405-1.318,3.608
		c0.049,0.029,0.097,0.058,0.146,0.088c-0.142,0.026-0.285,0.053-0.535,0.099c0.243-0.901,0.464-1.721,0.685-2.542
		c-0.084-0.028-0.168-0.057-0.253-0.085c-0.692,1.231-1.087,2.604-1.712,3.878c-0.023-0.18,0.008-0.346,0.029-0.513
		c0.056-0.448,0.121-0.895,0.15-1.344c0.006-0.1-0.122-0.209-0.188-0.315c-0.089,0.087-0.217,0.158-0.26,0.264
		c-0.073,0.179-0.078,0.385-0.138,0.572c-0.212,0.658-0.435,1.313-0.654,1.969c-0.068-0.013-0.137-0.025-0.205-0.038
		c0.241-0.754,0.44-1.499-0.44-2.102c-0.651,1.428-1.3,2.852-1.949,4.276c-0.029-0.007-0.058-0.014-0.087-0.021
		c0.301-1.028,0.602-2.056,0.903-3.084c-0.05-0.02-0.1-0.04-0.149-0.059c-0.257,0.41-0.542,0.805-0.764,1.234
		c-0.238,0.46-0.416,0.951-0.564,1.298c-0.192-0.123-0.387-0.341-0.519-0.308c-0.146,0.037-0.265,0.289-0.344,0.47
		c-0.297,0.679-0.574,1.366-0.855,2.052c-0.033,0.081-0.041,0.172-0.061,0.258c-0.05-0.046-0.099-0.092-0.148-0.138
		c0.205-0.699,0.41-1.398,0.616-2.097c-0.052-0.035-0.104-0.07-0.156-0.105c-0.129,0.128-0.356,0.244-0.373,0.385
		c-0.123,1.043-0.976,1.597-1.583,2.416c0-0.369,0-0.674,0-0.979c-0.074-0.008-0.148-0.015-0.222-0.023
		c-0.098,0.607-0.196,1.213-0.294,1.82c-0.024,0.004-0.048,0.008-0.073,0.012c-0.109-0.488-0.217-0.977-0.364-1.635
		c-0.396,0.529-0.668,0.89-0.829,1.105c-0.125-0.058-0.318-0.227-0.446-0.187c-0.134,0.042-0.256,0.272-0.296,0.44
		c-0.091,0.381-0.118,0.776-0.19,1.162c-0.048,0.257-0.128,0.509-0.194,0.763c-0.039-0.013-0.078-0.025-0.117-0.038
		c0.062-0.568,0.125-1.135,0.188-1.703c-0.049-0.014-0.098-0.029-0.147-0.043c-0.094,0.181-0.188,0.361-0.283,0.545
		c-0.133-0.18-0.25-0.339-0.424-0.576c-0.183,0.772-0.337,1.423-0.491,2.075c-0.069-0.016-0.138-0.032-0.207-0.047
		c0.046-0.502,0.093-1.005,0.139-1.507c-0.042-0.012-0.083-0.023-0.125-0.035c-0.288,0.332-0.576,0.664-0.863,0.995
		c-0.111-0.29-0.234-0.612-0.38-0.991c-0.295,0.501-0.529,0.898-0.769,1.306c-0.146-0.126-0.257-0.222-0.393-0.339
		c-0.269,0.594-0.519,1.147-0.773,1.709c-0.081-0.308-0.144-0.548-0.207-0.789c-0.36,0.22-0.721,0.441-1.093,0.669
		c0.004,0.007-0.052-0.096-0.18-0.33c-0.224,0.433-0.397,0.767-0.59,1.141c-0.313-1.058-0.956,0.041-1.383-0.288
		c-0.312,0.776-0.895,1.151-1.357,1c-0.349,0.361-0.667,0.69-0.985,1.019c-0.165-0.193-0.329-0.386-0.499-0.586
		c-0.452,0.528-0.903,1.065-1.37,1.589c-0.085,0.096-0.237,0.133-0.358,0.197c-0.04-0.118-0.123-0.242-0.11-0.354
		c0.031-0.277,0.107-0.548,0.166-0.822c-0.294,0.164-0.491,0.374-0.669,0.599c-0.533,0.674-1.034,0.622-1.47-0.132
		c-0.472-0.815-0.949-1.628-1.466-2.415c-0.363-0.552-1.099-0.78-1.723-0.575c-0.744,0.244-1.4,0.618-1.816,1.327
		c-0.302,0.515-0.633,1.013-0.987,1.578c-0.155-0.243-0.27-0.471-0.428-0.664c-0.77-0.944-1.508-1.919-2.342-2.803
		c-0.564-0.598-1.323-0.341-1.661,0.411c-0.625,1.387-0.796,2.872-0.981,4.352c-0.048,0.384-0.203,0.592-0.546,0.749
		c-2.319,1.057-4.63,2.131-6.945,3.196c-0.08,0.037-0.175,0.038-0.29,0.061c-0.028-0.336-0.053-0.631-0.078-0.926
		c-0.326,0.44,0.01,1.157-0.699,1.437c-0.065-0.226-0.118-0.411-0.171-0.596c-0.131,0.572-0.122,1.173-0.908,1.32
		c-0.162-1.47-0.322-2.919-0.481-4.368c-0.062,0.007-0.124,0.015-0.185,0.022c0.077,1.234,0.155,2.469,0.232,3.703
		c-0.04,0.005-0.081,0.01-0.121,0.014c-0.272-1.009-0.544-2.018-0.817-3.026c-0.059,0.018-0.118,0.036-0.177,0.053
		c0.232,1.169,0.451,2.341,0.704,3.505c0.095,0.44-0.027,0.752-0.342,1.052c-0.926,0.883-2.077,1.272-3.297,1.408
		c-1.857,0.207-3.725,0.322-5.589,0.474c-0.872,0.071-1.225,0.598-0.929,1.417c0.153,0.425,0.346,0.835,0.501,1.26
		c0.1,0.274,0.079,0.454-0.299,0.536c-1.054,0.23-2.096,0.517-3.141,0.788c-0.133,0.034-0.255,0.109-0.382,0.165
		c0.623-0.046,1.206-0.211,1.797-0.339c0.669-0.145,1.342-0.296,2.021-0.366c0.254-0.026,0.531,0.166,0.798,0.259
		c-0.005,0.07-0.01,0.14-0.015,0.21c-1.321,0.459-2.648,0.905-3.657,1.93c0.545-0.21,1.045-0.511,1.572-0.751
		c0.535-0.244,1.097-0.429,1.648-0.64c0.013,0.033,0.027,0.066,0.04,0.1c-0.797,0.521-1.593,1.042-2.39,1.564
		c0.03,0.05,0.059,0.1,0.089,0.15c1.179-0.252,1.944-1.438,3.252-1.542c-0.058,0.101-0.075,0.164-0.116,0.195
		c-1.152,0.857-2.309,1.708-3.458,2.57c-0.127,0.096-0.311,0.352-0.3,0.362c0.319,0.311-0.053,0.42-0.182,0.533
		c-0.171,0.15-0.409,0.224-0.618,0.331c0.096,0.103,0.192,0.206,0.288,0.309c1.728-1.077,2.872-2.919,4.744-3.855
		c0.273,0.496-0.116,0.703-0.316,0.948c-1.093,1.341-2.205,2.666-3.3,4.005c-0.128,0.157-0.188,0.37-0.279,0.557
		c0.062,0.042,0.125,0.083,0.188,0.125c1.162-1.726,2.572-3.214,4.139-4.549c-0.707,0.934-1.5,1.793-2.207,2.718
		c-0.716,0.938-1.309,1.959-1.453,3.178c0.189-0.14,0.313-0.317,0.394-0.511c0.712-1.717,1.776-3.196,3.081-4.502
		c0.185-0.185,0.536-0.205,0.81-0.302c-0.081,0.244-0.108,0.528-0.253,0.727c-0.953,1.308-1.601,2.747-1.938,4.326
		c-0.031,0.146-0.004,0.304-0.004,0.456c0.07,0.019,0.139,0.038,0.209,0.058c0.303-1.772,1.047-3.322,2.215-4.668
		c-0.029,0.502-0.131,0.977-0.254,1.446c-0.116,0.444-0.256,0.882-0.385,1.322c0.094,0.027,0.188,0.054,0.281,0.081
		c0.307-0.956,0.614-1.913,0.921-2.869c0.044,1.51-0.305,3.003-0.115,4.499c0.077,0.004,0.154,0.009,0.23,0.013
		c0.084-1.063,0.168-2.126,0.252-3.188c0.062-0.006,0.125-0.012,0.188-0.018c0.03,1.017,0.948,1.723,0.856,2.794
		c-0.11,1.27-0.177,2.544-0.26,3.817c-0.009,0.131-0.001,0.262-0.001,0.393c0.06,0,0.12,0,0.18,0
		c0.943-2.592,0.331-5.227,0.133-7.868c1.411,3.153,2.258,6.442,2.627,9.865c0.085-3.288-0.755-6.4-1.81-9.513
		c0.523-0.012,0.836,0.157,0.991,0.584c0.201,0.554,0.426,1.101,0.597,1.664c0.502,1.65,1.382,3.18,1.559,4.933
		c0.011,0.109,0.104,0.209,0.16,0.314c-0.002-2.391-0.83-4.576-1.559-6.783c0.046-0.019,0.093-0.038,0.139-0.058
		c0.844,1.512,1.688,3.023,2.532,4.535c0.061-0.034,0.121-0.068,0.182-0.103c-0.633-1.272-1.266-2.544-1.899-3.815
		c0.047-0.027,0.095-0.053,0.142-0.08c0.626,0.896,1.315,1.755,1.854,2.7c0.353,0.619,0.488,1.362,0.726,2.048
		c0.056,0.161,0.134,0.315,0.203,0.472c0.064-0.021,0.129-0.042,0.194-0.063c-0.12-0.613-0.24-1.226-0.36-1.839
		c0.193,0.165,0.374,0.319,0.639,0.546c0-0.323,0-0.508,0-0.77c0.407,0.611,0.786,1.149,1.133,1.708
		c0.335,0.541,0.637,1.104,0.954,1.657c0.048-0.001,0.096-0.001,0.144-0.002c0.038-0.482,0.076-0.965,0.12-1.513
		c0.193,0.107,0.337,0.187,0.339,0.188c0.022,0.432,0.004,0.745,0.064,1.043c0.042,0.205,0.191,0.388,0.293,0.581
		c0.104-0.146,0.207-0.292,0.333-0.471c0.101,0.232,0.17,0.46,0.295,0.652c0.071,0.109,0.232,0.159,0.353,0.236
		c0.033-0.135,0.1-0.273,0.088-0.404c-0.012-0.142-0.098-0.278-0.189-0.516c0.908,0.629,0.294,1.744,1.12,2.55
		c0.081-0.24,0.145-0.427,0.232-0.684c0.384,0.589,0.715,1.022,0.965,1.498c0.46,0.877,1.204,1.479,1.936,2.093
		c0.121,0.102,0.354,0.069,0.61,0.111c0-0.429,0-0.773,0-1.118c0.044-0.012,0.088-0.025,0.131-0.037
		c0.24,0.362,0.479,0.724,0.754,1.141c-0.228,0.04-0.35,0.061-0.483,0.084c0.493,0.884,0.778,1.04,1.393,0.775
		c-0.101-0.31-0.202-0.621-0.303-0.931c0.509,0.417,0.457,1.163,1.151,1.445c-0.102-0.333-0.204-0.666-0.305-0.999
		c0.053-0.033,0.107-0.066,0.16-0.099c0.161,0.188,0.367,0.353,0.473,0.568c0.182,0.368,0.275,0.78,0.459,1.146
		c0.085,0.167,0.3,0.269,0.455,0.401c0.042-0.047,0.084-0.095,0.126-0.142c-0.164-0.383-0.328-0.766-0.516-1.205
		c0.767,0.176,0.806,0.652,0.74,1.204c-0.038,0.317-0.087,0.678,0.391,0.698c0.14-0.276,0.255-0.504,0.35-0.693
		c0.231,0.243,0.469,0.418,0.6,0.652c0.13,0.233,0.152,0.527,0.221,0.794c0.056,0.007,0.113,0.014,0.169,0.022
		c0.067-0.199,0.115-0.408,0.207-0.595c0.061-0.124,0.186-0.217,0.282-0.325c0.101,0.124,0.238,0.233,0.294,0.375
		c0.056,0.141,0.032,0.314,0.044,0.474c0.049,0.013,0.097,0.026,0.146,0.039c0.12-0.182,0.24-0.363,0.347-0.525
		c0.136,0.103,0.303,0.233,0.474,0.357c0.412,0.299,0.974,0.513,1.198,0.916c0.242,0.436,0.347,0.321,0.569,0.096
		c0.36-0.364,0.912-0.315,1.159,0.117c0.183,0.32,0.413,0.622,0.539,0.963c0.225,0.609,0.61,1.212,0.219,1.909
		c-0.045,0.08,0.068,0.267,0.138,0.387c0.053,0.091,0.237,0.198,0.224,0.222c-0.333,0.611-0.095,1.221-0.049,1.839
		c0.019,0.26-0.207,0.54-0.332,0.807c-0.049,0.106-0.158,0.194-0.178,0.301c-0.022,0.114,0.001,0.255,0.052,0.362
		c0.181,0.376,0.435,0.738,0.221,1.179c-0.188,0.388-0.405,0.763-0.599,1.148c-0.153,0.304-0.292,0.616-0.437,0.924
		c0.047,0.027,0.094,0.055,0.141,0.082c0.227-0.269,0.453-0.538,0.68-0.807c0.048,0.038,0.097,0.076,0.146,0.114
		c-0.614,0.813-1.228,1.626-1.867,2.472c0.186,0.094,0.313,0.158,0.564,0.284c-0.758,0.551-1.399,1.131-2.137,1.527
		c-1.082,0.58-2.279,0.695-3.502,0.522c-0.595-0.084-1.12,0.068-1.345,0.692c-0.126,0.35-0.346,0.421-0.672,0.423
		c-0.611,0.004-1.221,0.025-1.831,0.062c-0.113,0.007-0.219,0.121-0.328,0.186c0.076,0.1,0.138,0.217,0.232,0.295
		c0.075,0.062,0.189,0.075,0.436,0.164c-0.57,0.115-0.992,0.17-1.391,0.297c-0.146,0.047-0.271,0.253-0.337,0.414
		c-0.026,0.064,0.126,0.292,0.204,0.295c0.854,0.036,0.667,0.871,0.606,1.145c-0.149,0.659,0.286,0.63,0.609,0.767
		c0.352,0.149,0.721,0.254,1.077,0.393c0.571,0.224,1.119,0.398,1.726,0.048c1.03-0.593,2.191-0.691,3.313-0.497
		c1.135,0.196,2.14,0.008,3.14-0.472c0.189-0.091,0.407-0.126,0.615-0.171c0.364-0.08,0.763-0.08,1.089-0.237
		c0.493-0.238,0.955-0.553,1.394-0.885c0.784-0.594,1.544-1.218,2.302-1.845c0.109-0.09,0.122-0.29,0.224-0.397
		c0.11-0.116,0.271-0.184,0.41-0.273c0.102,0.222,0.167,0.363,0.291,0.634c0.126-0.45,0.204-0.752,0.295-1.05
		c0.178-0.581,0.707-0.815,1.365-0.56c0.172-0.332,0.333-0.678,0.529-1.004c0.083-0.137,0.224-0.253,0.362-0.341
		c0.631-0.405,1.272-0.795,1.906-1.197c0.043-0.027,0.078-0.099,0.081-0.152c0.034-0.61,0.544-0.631,0.952-0.766
		c0.304-0.101,0.619-0.17,0.91-0.247c0-0.331,0-0.588,0-0.785c0.307,0.152,0.597,0.296,0.962,0.477c0-0.565,0-0.961,0-1.357
		c0.05-0.024,0.099-0.047,0.149-0.071c0.311,0.436,0.622,0.873,0.932,1.309c0.055-0.011,0.11-0.023,0.166-0.034
		c0-0.759,0-1.519,0-2.278c0.073-0.012,0.146-0.024,0.219-0.037c0.32,0.653,0.641,1.306,0.961,1.96
		c0.055-0.014,0.11-0.029,0.165-0.043c-0.188-0.851-0.377-1.703-0.599-2.708c0.366,0.414,0.623,0.704,0.88,0.995
		c0.063-0.034,0.125-0.068,0.188-0.102c-0.153-0.529-0.305-1.057-0.458-1.586c0.045-0.022,0.089-0.043,0.134-0.065
		c0.425,0.412,0.85,0.825,1.275,1.237c-0.265-1.551-0.265-1.551-0.015-1.741c0.351,0.377,0.377,1.157,1.261,1.035
		c-0.273-0.773-0.527-1.496-0.782-2.218c0.084-0.034,0.169-0.068,0.253-0.102c0.214,0.507,0.429,1.014,0.643,1.521
		c0.055,0.017,0.111,0.034,0.166,0.051c0.167-0.458,0.437-0.908,0.475-1.377c0.044-0.553,0.267-0.81,0.776-0.572
		c0.631,0.295,1.231,0.659,1.872,0.927c0.475,0.199,0.816,0.469,1.043,0.94c0.17,0.352,0.461,0.585,0.835,0.228
		c0.591,0.814,1.158,1.6,1.732,2.38c0.054,0.073,0.155,0.159,0.233,0.159c0.591-0.003,0.74,0.42,0.881,0.868
		c0.054,0.171,0.144,0.331,0.218,0.496c0.036-0.01,0.072-0.021,0.108-0.031c0.042-0.244,0.083-0.488,0.125-0.733
		c0.066-0.009,0.132-0.018,0.198-0.027c0.104,0.278,0.19,0.564,0.318,0.83c0.091,0.188,0.223,0.363,0.365,0.518
		c0.142,0.156,0.39,0.251,0.463,0.426c0.125,0.298,0.17,0.595,0.609,0.542c0.078-0.009,0.233,0.183,0.265,0.306
		c0.084,0.324,0.121,0.661,0.177,0.993c0.061,0.003,0.121,0.005,0.182,0.008c0.085-0.23,0.169-0.46,0.271-0.738
		c0.063,0.095,0.114,0.137,0.117,0.182c0.089,1.078,0.185,2.155,0.245,3.234c0.009,0.17-0.115,0.379-0.236,0.52
		c-1.059,1.242-2.448,1.884-4.034,2.079c-0.906,0.112-1.315,0.43-1.466,1.424c0.712-0.044,1.417-0.087,2.122-0.13
		c0.018,0.08,0.035,0.16,0.053,0.24c-0.387,0.119-0.77,0.321-1.162,0.338c-0.662,0.028-1.095,0.374-1.49,0.83
		c-0.259,0.299-0.317,0.613-0.031,0.994c0.56-0.321,1.044-0.163,1.523,0.267c-0.503,0.257-0.209,0.542-0.042,0.781
		c0.378,0.542,0.702-0.005,1.091-0.126c0.178,0.8,0.81,0.745,1.413,0.853c0.8,0.143,0.878-0.765,1.49-0.92
		c0.077,0.235,0.086,0.511,0.229,0.647c0.374,0.358,1.855-0.064,2.043-0.549c0.345-0.888,0.406-0.91,1.22-0.432
		c0.703,0.413,1.823,0.155,2.082-0.43c0.409-0.929,0.897-1.823,1.305-2.752c0.349-0.795,0.676-1.605,0.925-2.435
		c0.128-0.426,0.065-0.91,0.093-1.45c0.469-0.272,0.305-1.209,1.055-1.436c0.029-0.009,0.016-0.146,0.03-0.221
		c0.101-0.524,0.203-1.047,0.317-1.629c0.001,0,0.164-0.02,0.271-0.033c0.274-0.726-0.502-1.732,0.703-2.062
		c0-0.222-0.062-0.464,0.011-0.655c0.259-0.67,0.4-1.322-0.019-2.011c0.456-0.156,0.566-0.48,0.452-0.927
		c-0.072-0.283-0.047-0.523,0.365-0.461c0.123,0.018,0.259-0.051,0.389-0.08c-0.036-0.138-0.034-0.304-0.114-0.408
		c-0.23-0.304-0.493-0.583-0.767-0.898c0.227-0.145,0.405-0.259,0.599-0.383c0.254,0.381,0.491,0.736,0.788,1.18
		c0.067-0.745,0.119-1.33,0.169-1.896c0.282-0.028,0.457-0.046,0.709-0.071c-0.288-0.352-0.516-0.63-0.806-0.983
		c0.297-0.019,0.48-0.03,0.699-0.044c-0.355-0.965,0.836-0.689,0.934-1.239c0.148,0.112,0.276,0.209,0.404,0.306
		c0.19-0.252,0.38-0.503,0.568-0.752c0.015,0.104,0.036,0.255,0.064,0.452c1.451-0.07,2.86-0.139,4.154-0.202
		c0-0.137,0-0.382,0-0.626c0.221,0.087,0.448,0.161,0.661,0.263c0.262,0.124,0.513,0.271,0.908,0.483
		c-0.138-0.448-0.214-0.694-0.29-0.939c0.047-0.021,0.095-0.043,0.142-0.064c0.303,0.421,0.607,0.843,0.816,1.133
		c0.407-0.336,0.766-0.633,1.152-0.952c0.097,0.107,0.224,0.246,0.381,0.418c0.119-0.13,0.216-0.237,0.27-0.296
		c0.458-0.018,0.73,0.998,1.207,0.205c0.56-0.066,1.067-0.126,1.57-0.185c0.039,0.91,0.042,0.938-0.875,1.012
		c-0.804,0.065-1.613,0.06-2.42,0.081c-0.855,0.023-1.663,0.136-2.4,0.664c-0.382,0.274-0.898,0.373-1.366,0.511
		c-0.582,0.171-1.199,0.244-1.757,0.467c-0.408,0.163-0.909,0.417-0.547,1.054c0.027,0.047-0.038,0.164-0.083,0.232
		c-0.146,0.221-0.303,0.436-0.474,0.678c0.358,0.241,0.672,0.525,1.041,0.67c0.185,0.072,0.596-0.04,0.683-0.195
		c0.207-0.364,0.37-0.237,0.66-0.147c0.447,0.139,0.971,0.322,1.389,0.212c1.432-0.378,2.806-1.007,4.25-1.297
		c2.15-0.431,4.335-0.72,6.518-0.936c0.997-0.099,2.028,0.2,3.039,0.17c0.929-0.027,2.013,0.97,1.599,2.09
		c0.285-0.161,0.518-0.292,0.605-0.342c0.32,0.209,0.604,0.327,0.789,0.534c0.24,0.269,0.44,0.593,0.569,0.927
		c0.037,0.096-0.195,0.378-0.36,0.457c-0.583,0.276-1.18,0.535-1.792,0.738c-0.89,0.296-1.796,0.543-2.698,0.799
		c-0.357,0.101-0.721,0.177-1.084,0.253c-0.347,0.072-0.697,0.129-1.094,0.201c0.345,0.521,0.624,0.941,0.923,1.392
		c-1.225,0.695-2.573,0.618-3.854,0.82c-0.024,0.06-0.047,0.119-0.071,0.179c0.299,0.212,0.598,0.425,0.997,0.708
		c-0.395,0.171-0.624,0.234-0.807,0.362c-0.125,0.088-0.186,0.268-0.275,0.407c0.124,0.07,0.261,0.124,0.367,0.214
		c0.206,0.175,0.431,0.345,0.579,0.564c0.182,0.269,0.218,0.69,0.452,0.857c0.305,0.218,0.751,0.362,1.119,0.332
		c0.353-0.028,0.684-0.32,1.014-0.491c0.193,0.677,0.702,1.142,1.323,1.227c0.791,0.109,1.193-0.3,1.384-1.061
		c0.245,0.339,0.426,0.62,0.641,0.871c0.088,0.103,0.259,0.216,0.377,0.201c1.005-0.126,1.987-0.292,2.602-1.267
		c0.224-0.356,0.534-0.715,0.893-0.918c1.115-0.631,2.272-1.187,3.412-1.775c0.049-0.025,0.08-0.083,0.122-0.124
		c1.315-1.322,2.582-2.697,3.961-3.949c1.025-0.93,1.331-1.951,0.889-3.224c-0.267-0.769-0.029-1.518,0.301-2.134
		c0.398-0.743,0.989-1.379,1.123-2.257c0.013-0.087,0.084-0.206,0.158-0.237c0.436-0.179,0.458-0.536,0.445-0.928
		c-0.016-0.462,0.131-0.755,0.686-0.712c0.14,0.011,0.39-0.194,0.429-0.341c0.07-0.267,0.02-0.566,0.02-0.884
		c0.096-0.022,0.206-0.061,0.317-0.069c0.484-0.033,0.661-0.21,0.557-0.75c-0.122-0.638-0.097-1.303-0.133-1.924
		c0.321,0.15,0.57,0.267,0.819,0.384c0.081-0.29,0.198-0.575,0.234-0.87c0.043-0.35,0.006-0.709,0.023-1.063
		c0.015-0.297,0.108-0.521,0.478-0.346c0.29,0.138,0.427,0.05,0.483-0.273c0.035-0.199,0.167-0.38,0.255-0.57
		c0.22,0.141,0.452,0.267,0.658,0.427c0.224,0.174,0.411,0.526,0.636,0.544c0.541,0.044,0.571,0.327,0.573,0.747
		c0.002,0.579,0.264,0.986,0.837,1.227c0.264,0.111,0.519,0.388,0.641,0.653c0.167,0.359,0.355,0.628,0.762,0.619
		c0.376-0.008,0.476,0.182,0.492,0.503c0.019,0.382,0.198,0.607,0.611,0.638c0.414,0.031,0.742,0.166,0.854,0.659
		c0.041,0.181,0.407,0.471,0.482,0.433c0.498-0.255,0.497,0.188,0.701,0.399c0.279,0.288,0.632,0.507,0.966,0.737
		c0.125,0.086,0.349,0.078,0.421,0.185c0.319,0.473,0.718,0.543,1.029,0.371c0.4,0.331,0.732,0.827,1.02,0.802
		c0.748-0.066,1.046,0.516,1.542,0.802c0.215,0.124,0.422,0.321,0.647,0.343c0.097,0.01,0.23-0.339,0.279-0.417
		c0.49,0.378,1.078,0.687,1.454,1.164c0.408,0.518,0.926,0.603,1.47,0.72c0.423,0.091,0.853,0.148,1.28,0.216
		c0.624,0.099,1.249,0.195,1.992,0.311c-0.21-0.348-0.342-0.566-0.565-0.936c0.824,0.325,1.472,0.6,2.134,0.834
		c0.366,0.129,0.758,0.277,1.134,0.265c0.798-0.025,1.597-0.125,2.389-0.239c0.937-0.135,1.867-0.318,2.8-0.48
		c0.001-0.034,0.002-0.068,0.004-0.102c-0.378-0.078-0.756-0.156-1.134-0.234c-0.001-0.052-0.002-0.104-0.003-0.155
		c0.858-0.101,1.768-0.014,2.499-0.717c-0.562,0-1.123,0-1.685,0c-0.008-0.08-0.015-0.16-0.023-0.24
		c1.219,0.32,2.183-0.212,3.184-0.793c-0.308-0.196-0.57-0.363-0.86-0.548c0.318-0.118,0.607-0.225,0.927-0.344
		c-0.074-0.149-0.13-0.259-0.193-0.384c0.229-0.128,0.433-0.241,0.636-0.354c0-0.039,0-0.079,0-0.118
		c-0.661-0.364-1.323-0.728-1.984-1.092C146.61,98.332,146.624,98.301,146.639,98.269z M24.5,94.954
		c-0.057,0.02-0.113,0.039-0.17,0.059c-0.208-0.453-0.417-0.905-0.625-1.358C24.442,93.865,24.655,94.322,24.5,94.954z
		 M24.731,95.056c0.131-0.21,0.25-0.4,0.369-0.59c0.057-0.005,0.114-0.011,0.17-0.016c0.033,0.382,0.066,0.764,0.113,1.305
		C25.092,95.442,24.911,95.249,24.731,95.056z M116.706,60.935c0.037-0.066,0.075-0.133,0.112-0.199
		c0.844,0.477,1.688,0.955,2.533,1.432c-0.036,0.064-0.071,0.129-0.107,0.193C118.398,61.886,117.552,61.41,116.706,60.935z
		 M118.562,64.086c0.04-0.057,0.08-0.113,0.121-0.17c0.755,0.525,1.511,1.049,2.267,1.574c-0.04,0.048-0.081,0.096-0.121,0.145
		C120.072,65.118,119.317,64.602,118.562,64.086z"/>
</g>
</svg>
