<?xml version="1.0" encoding="iso-8859-1"?>
<!-- Generator: Adobe Illustrator 17.1.0, SVG Export Plug-In . SVG Version: 6.00 Build 0)  -->
<!DOCTYPE svg PUBLIC "-//W3C//DTD SVG 1.1//EN" "http://www.w3.org/Graphics/SVG/1.1/DTD/svg11.dtd">
<svg version="1.1" id="Capa_1" xmlns="http://www.w3.org/2000/svg" xmlns:xlink="http://www.w3.org/1999/xlink" x="0px" y="0px"
	 viewBox="0 0 150 150" style="enable-background:new 0 0 150 150;" xml:space="preserve">
<g>
	<path d="M146.227,84.232c-4.169-2.279-7.445-5.547-9.985-9.456c-2.834-4.363-5.855-8.551-10.01-11.693
		c-0.289-0.219-0.603-0.403-0.934-0.564c-0.257-0.228-0.514-0.457-0.771-0.685c-0.169-0.15-0.375-0.098-0.497,0.028
		c-0.018-0.019-0.038-0.036-0.062-0.053c-0.619-0.427-1.237-0.854-1.856-1.281c-0.238-0.164-0.465,0.026-0.501,0.25
		c-0.31-0.262-0.62-0.525-0.93-0.787c-0.165-0.14-0.366-0.095-0.49,0.02c-0.309-0.308-0.618-0.617-0.927-0.925
		c-0.318-0.318-0.811,0.175-0.493,0.493c0.096,0.096,0.191,0.191,0.287,0.287c-0.17-0.118-0.342-0.233-0.516-0.342
		c-0.757-0.473-1.345-1.486-2.336-1.254c-0.298-0.267-0.596-0.535-0.894-0.802c-0.333-0.299-0.828,0.192-0.493,0.493
		c0.231,0.208,0.463,0.415,0.695,0.623c-0.098,0-0.289-0.136-0.428-0.191c-1.177-0.47-2.307-0.727-3.661-0.759
		c-0.777-0.019-1.55-0.278-2.32-0.619c-0.552-0.6-1.104-1.199-1.655-1.799c-0.305-0.331-0.796,0.163-0.493,0.493
		c0.145,0.157,0.289,0.315,0.434,0.472c-0.281-0.139-0.562-0.274-0.843-0.396c-0.513-0.224-0.95-0.622-1.463-0.968
		c-0.103,0.535-0.182,0.932-0.282,1.205c-0.018-0.019-0.033-0.039-0.042-0.061c-0.07-0.176-0.23-0.298-0.429-0.243
		c-0.161,0.044-0.299,0.235-0.249,0.406c-0.397-0.367-0.795-0.734-1.192-1.101c-0.33-0.304-0.823,0.187-0.493,0.493
		c0.065,0.06,0.129,0.119,0.194,0.179c-0.108-0.063-0.219-0.129-0.338-0.2c0.001,0.055-0.003,0.099-0.004,0.149
		c-1.88-0.582-3.672-1.361-5.386-2.344c-0.237-0.136-0.457,0.033-0.508,0.237c-0.385-0.109-0.694,0.441-0.301,0.613
		c0.644,0.281,1.288,0.563,1.933,0.844c0.374,0.203,0.744,0.412,1.115,0.621c-0.646-0.217-1.291-0.434-1.936-0.65
		c-0.033-0.011-0.062-0.009-0.093-0.011c-1.226-0.543-2.406-1.193-3.537-1.959c-0.373-0.253-0.721,0.351-0.352,0.602
		c0.432,0.293,0.875,0.564,1.321,0.824c-1.271-0.427-2.543-0.854-3.814-1.282c-0.427-0.143-0.609,0.53-0.185,0.672
		c1.464,0.492,2.927,0.984,4.391,1.476c-2.242-0.477-4.484-0.951-6.735-1.381c-0.255-0.049-0.509-0.087-0.763-0.123
		c-0.05-0.103-0.145-0.182-0.295-0.181c-0.579,0.004-1.157,0.009-1.737,0.013c-0.315-0.006-0.629-0.003-0.941,0.007
		c-2.166,0.016-4.331,0.032-6.496,0.048c-0.449,0.003-0.449,0.7,0,0.697c0.593-0.004,1.185-0.009,1.778-0.013
		c-0.098,0.026-0.196,0.055-0.293,0.082h-2.994c-0.332,0-0.416,0.377-0.258,0.576c-0.063-0.029-0.135-0.044-0.22-0.025
		c-0.214,0.049-0.429,0.098-0.643,0.147c-0.602,0.092-1.195,0.227-1.778,0.407c-1.628,0.373-3.256,0.746-4.885,1.119
		c-0.438,0.1-0.252,0.772,0.185,0.672l1.47-0.337c-1.067,0.495-2.134,0.99-3.201,1.484c-0.407,0.189-0.053,0.789,0.352,0.602
		c0.586-0.272,1.171-0.543,1.757-0.815c-1.066,0.836-1.969,1.887-2.652,3.113c-0.219,0.393,0.383,0.744,0.602,0.352
		c0.245-0.44,0.525-0.849,0.826-1.237c0.096,0.167,0.325,0.264,0.519,0.128c-1.1,1.163-2.2,2.326-3.3,3.489
		c-0.309,0.326,0.183,0.82,0.493,0.493c0.787-0.832,1.575-1.665,2.362-2.497c-0.651,1.196-1.23,2.451-1.892,3.64
		c-0.332,0.595-0.711,1.164-1.074,1.753c0.706,0.132,1.389,0.261,2.479,0.465c-0.977,1.269-1.725,2.242-2.61,3.393
		c0.52,0.273,1.146,0.602,1.979,1.04c-0.049,0.048-0.177,0.175-0.249,0.255c-0.121,0.137-0.3,0.341-0.533,0.607
		c-0.431,0.495-1.043,1.195-1.863,2.045c-0.82,0.847-1.845,1.844-3.096,2.868c-1.25,1.021-2.73,2.075-4.442,2.932
		c-1.708,0.848-3.661,1.487-5.72,1.505c-1.029,0.016-2.076-0.145-3.12-0.461c-1.041-0.329-2.07-0.839-3.059-1.499
		c-1.984-1.321-3.763-3.259-5.306-5.448c-0.774-1.096-1.501-2.254-2.168-3.464c-0.347-0.596-0.653-1.221-0.979-1.834
		c-0.301-0.629-0.623-1.247-0.906-1.888l-0.436-0.955l-0.413-0.967c-0.283-0.659-0.566-1.317-0.849-1.973
		c-0.284-0.653-0.567-1.305-0.849-1.955c-0.312-0.652-0.622-1.302-0.932-1.949c-0.156-0.323-0.311-0.644-0.466-0.966
		c-0.167-0.314-0.333-0.627-0.5-0.94c-0.337-0.622-0.651-1.251-1.002-1.857c-0.358-0.602-0.713-1.201-1.066-1.796
		c-0.351-0.595-0.757-1.155-1.127-1.726c-1.538-2.251-3.233-4.31-5.13-5.976c-1.891-1.661-3.992-2.934-6.131-3.534
		c-0.54-0.128-1.059-0.282-1.589-0.332c-0.263-0.03-0.519-0.086-0.777-0.093c-0.258-0.01-0.512-0.019-0.763-0.028
		c-0.251-0.02-0.498,0.013-0.742,0.023c-0.243,0.021-0.485,0.016-0.719,0.057c-0.469,0.073-0.924,0.128-1.353,0.249
		c-1.732,0.409-3.115,1.124-4.176,1.795C5.411,45.76,4.656,46.4,4.163,46.853C3.67,47.308,3.437,47.58,3.437,47.58
		s0.248-0.258,0.764-0.683c0.517-0.422,1.303-1.015,2.388-1.618c1.081-0.601,2.476-1.219,4.16-1.516
		c0.417-0.092,0.857-0.119,1.305-0.164c0.224-0.028,0.454-0.008,0.685-0.015c0.231,0.004,0.466-0.015,0.702,0.018
		c0.236,0.022,0.475,0.045,0.716,0.068c0.242,0.02,0.48,0.088,0.725,0.129c0.491,0.073,0.971,0.248,1.466,0.395
		c1.962,0.674,3.856,1.973,5.552,3.644c1.701,1.676,3.209,3.732,4.562,5.98c0.326,0.572,0.683,1.127,0.99,1.723
		c0.308,0.593,0.618,1.191,0.93,1.792c0.306,0.604,0.576,1.234,0.868,1.854c0.144,0.311,0.287,0.623,0.431,0.936
		c0.131,0.317,0.263,0.635,0.394,0.954c0.261,0.637,0.524,1.277,0.787,1.918c0.244,0.664,0.49,1.329,0.735,1.996
		c0.242,0.665,0.485,1.332,0.728,1.999l0.37,1.025l0.396,1.018c0.255,0.682,0.555,1.35,0.833,2.025
		c0.305,0.665,0.59,1.339,0.921,1.993c0.633,1.321,1.341,2.611,2.119,3.858c1.554,2.487,3.425,4.833,5.806,6.636
		c1.187,0.897,2.495,1.651,3.885,2.181c1.393,0.518,2.852,0.828,4.278,0.89c1.425,0.066,2.811-0.07,4.091-0.356
		c1.283-0.283,2.476-0.682,3.565-1.152c2.181-0.94,3.985-2.086,5.495-3.178c1.509-1.098,2.726-2.154,3.697-3.048
		c0.71-0.656,1.288-1.227,1.734-1.678c0.468-0.164,1.151-0.122,1.583,0.109c0.086,0.046,0.17,0.094,0.255,0.14
		c-0.089-0.008-0.179-0.01-0.269-0.004c-0.446,0.029-0.449,0.725,0,0.697c0.383-0.024,0.724,0.12,0.96,0.397
		c-0.667-0.127-1.333-0.267-1.994-0.434c-0.436-0.11-0.621,0.562-0.185,0.672c1.461,0.369,2.936,0.634,4.425,0.812
		c0.035,0.008,0.069,0.02,0.103,0.027c-0.119,0.191-0.028,0.535,0.278,0.571c0.609,0.071,1.217,0.143,1.826,0.215
		c0.023,0.013,0.045,0.026,0.068,0.039H74.1c-0.449,0-0.449,0.697,0,0.697h3.226c-0.898,0.6-1.745,1.329-2.726,1.725
		c-2.699,1.089-3.007,1.617-1.788,4.246c0.728,1.571,1.427,3.193,2.416,4.597c2.015,2.86,4.891,4.097,8.395,3.857
		c1.257-0.086,2.52-0.095,3.775-0.205c0.419-0.037,0.821-0.28,1.387-0.485c-1.234-1.616-2.606-2.447-4.478-2.538
		c-2.436-0.119-4.674-0.628-6.082-3.005c-1.474-2.488-1.149-3.544,1.76-4.489c0.082,0.371,0.161,0.732,0.245,1.117
		c0.512,0.064,1.015,0.086,1.513,0.085l-1.464,0.566c-0.415,0.16-0.234,0.834,0.185,0.672l2.841-1.099
		c-0.055,0.224,0.121,0.514,0.419,0.445c1.413-0.329,2.767-0.787,4.067-1.363c0.004,0.227,0.249,0.464,0.524,0.33
		c1.797-0.881,3.594-1.762,5.392-2.644c-0.753,0.45-1.507,0.899-2.26,1.349c-0.385,0.23-0.035,0.832,0.352,0.602
		c0.932-0.556,1.864-1.112,2.796-1.668c0.092,1.604,0.141,3.193,0.328,4.764c0.275,2.304,2.655,2.464,4.075,3.163
		c1.264,0.622,3.264-0.25,5.038-0.475c-0.055-0.25-0.13-0.596-0.249-1.137c0.645,0.268,1.136,0.471,1.875,0.778
		c-0.889-1.733-1.944-2.609-3.691-2.409c-0.4,0.046-0.858,0.106-1.208-0.039c-0.819-0.338-2.119-0.648-2.283-1.233
		c-0.596-2.133-0.009-2.953,1.636-3.729c0.256-0.121,0.508-0.232,0.759-0.333c-0.475,0.278-0.927,0.606-1.342,0.994
		c-0.329,0.307,0.165,0.799,0.493,0.493c0.891-0.832,1.942-1.367,3.081-1.611c-0.543,0.253-1.074,0.538-1.59,0.861
		c-0.379,0.238-0.03,0.841,0.352,0.602c0.453-0.284,0.917-0.536,1.391-0.763c0.076,0.08,0.185,0.13,0.323,0.098
		c0.381-0.087,0.762-0.174,1.144-0.261l-0.369,0.128c-0.422,0.146-0.24,0.82,0.185,0.672c0,0,0,0,0,0
		c-0.089,0.249,0.191,0.587,0.507,0.429c0.586-0.293,1.172-0.586,1.759-0.879c-0.177,0.105-0.354,0.21-0.531,0.315
		c-0.386,0.229-0.036,0.831,0.352,0.602c0.765-0.453,1.529-0.905,2.294-1.358c1.344,0.123,2.826,0.947,4.071,2.395
		c0.92,1.07,1.983,1.659,3.324,2.147c1.415,0.515,2.546,1.765,3.873,2.576c2.123,1.296,4.212,2.72,6.493,3.657
		c1.578,0.649,3.453,0.595,5.202,0.79c0.283,0.032,0.792-0.207,0.879-0.439c0.921-2.463,2.339-1.237,3.693-0.543
		c0.186,0.095,0.368,0.196,0.63,0.151c-1.389-1.428-2.926-3-5.031-2.617c-4.527,0.823-7.797-2.848-8.576-7.381
		c-0.024-0.141-0.057-0.282-0.093-0.425c0.128,0.21,0.449,0.295,0.582,0.014c0.066-0.141,0.146-0.273,0.232-0.4
		c0.139,0.177,0.434,0.233,0.57-0.022c0.046-0.087,0.101-0.167,0.16-0.243c0.043,0.26,0.459,0.415,0.657,0.125
		c0.079-0.115,0.171-0.215,0.271-0.304c0.12,0.138,0.336,0.201,0.509,0.04c0.256-0.238,0.598-0.326,0.937-0.244
		c0.005,0.001,0.009,0,0.015,0.001c0.224,0.123,0.448,0.274,0.672,0.469c0.423,0.368,1.104,0.518,1.691,0.606
		c1.869,0.28,3.772,0.372,5.621,0.742c3.371,0.676,6.704,1.545,10.075,2.219c0.609,0.122,1.328-0.305,1.996-0.478
		C146.999,85.23,146.734,84.509,146.227,84.232z M67.375,72.731l-0.185-0.205c0.085,0.045,0.168,0.088,0.257,0.135
		C67.422,72.685,67.399,72.708,67.375,72.731z M123.369,82.882c-0.021,0.044-0.029,0.088-0.032,0.13
		c-0.05-0.187-0.104-0.382-0.156-0.594c0.21-0.082,0.418-0.162,0.626-0.235C123.637,82.395,123.489,82.627,123.369,82.882z"/>
</g>
</svg>
