<?xml version="1.0" encoding="iso-8859-1"?>
<!-- Generator: Adobe Illustrator 17.1.0, SVG Export Plug-In . SVG Version: 6.00 Build 0)  -->
<!DOCTYPE svg PUBLIC "-//W3C//DTD SVG 1.1//EN" "http://www.w3.org/Graphics/SVG/1.1/DTD/svg11.dtd">
<svg version="1.1" id="Capa_1" xmlns="http://www.w3.org/2000/svg" xmlns:xlink="http://www.w3.org/1999/xlink" x="0px" y="0px"
	 viewBox="0 0 150 150" style="enable-background:new 0 0 150 150;" xml:space="preserve">
<g>
	<path d="M146.334,99.878c-0.704-3.407-1.418-6.814-2.198-10.204c-0.491-2.137-0.972-4.293-1.691-6.359
		c-1.824-5.243-4.716-9.849-8.625-13.814c-0.77-0.781-1.172-1.736-0.722-2.872c0.168-0.423,0.307-0.86,0.434-1.297
		c0.813-2.809,0.478-5.469-1.403-7.734c-1.801-2.169-4.24-2.885-6.974-2.232c-2.654,0.634-4.19,2.447-4.779,5.068
		c-0.171,0.763-0.199,1.558-0.293,2.341c-1.164,0.005-3.021-0.583-4.29-1.478c-1-0.706-1.934-1.507-2.896-2.268
		c-0.743-0.588-1.437-1.256-2.235-1.756c-2.521-1.575-5.259-2.628-8.158-3.296c-3.309-0.763-6.661-0.938-10.029-0.771
		c-3.125,0.155-6.221,0.605-9.279,1.275c-9.954,2.182-19.239,5.819-26.953,12.717c-1.555,1.39-2.931,3.013-4.216,4.664
		c-2.278,2.926-3.943,6.214-5.318,9.656c-1.095,2.741-1.792,5.538-1.524,8.518c0.024,0.267-0.028,0.552-0.097,0.815l0.152,0.276
		c-0.652,2.001-1.699,3.719-3.561,4.876c-1.595,0.991-3.317,1.616-5.141,2.037c-2.658,0.614-5.346,0.883-8.042,0.515
		c-5.846-0.798-10.672-3.447-14.363-8.12c-1.866-2.363-3.165-4.999-4.04-7.852c-0.73-2.383-0.985-4.833-0.947-7.331
		c0.08-5.234,1.384-10.191,3.195-15.058c1.194-3.209,2.712-6.24,4.601-9.091c2.66-4.016,5.388-7.979,8.72-11.486
		c2.79-2.936,5.939-5.458,9.117-7.948c2.716-2.128,5.451-4.233,8.131-6.406c2.643-2.143,5.241-4.343,7.825-6.558
		c0.489-0.419,0.938-0.971,1.198-1.553c0.401-0.9-0.135-1.535-1.108-1.396c-0.469,0.067-0.96,0.203-1.367,0.437
		c-1.257,0.723-2.529,1.438-3.703,2.283c-4.979,3.583-9.951,7.177-14.871,10.839c-2.669,1.986-5.312,4.023-7.812,6.214
		c-1.793,1.571-3.426,3.353-4.958,5.185c-1.908,2.283-3.75,4.638-5.42,7.098c-3.344,4.926-6.052,10.182-7.786,15.914
		c-1.455,4.81-2.034,9.713-1.604,14.708C3.59,81.746,4.14,85.04,5.347,88.16c0.815,2.107,1.942,4.05,3.456,5.779
		c3.47,3.964,7.651,6.886,12.522,8.846c0.689,0.277,1.391,0.522,2.087,0.782c1.22,0.278,2.44,0.556,3.661,0.834
		c1.283,0.092,2.564,0.235,3.848,0.268c3.501,0.089,6.858-0.581,10.053-2.033c1.359-0.618,2.705-1.269,4.081-1.847
		c1.596-0.672,3.229-1.148,4.939-1.03l0.242,0.439c0.146,0.029,0.287,0.128,0.41,0.221c3.24,2.462,6.908,3.744,10.954,4
		c0.208,0.013,0.445,0.052,0.61,0.164c1.524,1.045,3.244,1.643,4.962,2.263c2.459,0.886,5,0.987,7.569,0.916
		c2.667-0.074,5.038,0.63,7.017,2.528c0.458,0.439,1.146,0.664,1.76,0.906c0.525,0.208,1.066,0.343,1.277,0.949
		c0.067,0.192,0.119,0.389,0.185,0.609c0.709-0.628,0.833-1.299,0.227-1.958c-1.011-1.1-1.95-2.293-3.281-3.056
		c-0.126-0.072-0.244-0.16-0.366-0.24c0.012-0.074,0.023-0.147,0.035-0.221c1.116,0.04,2.234,0.065,3.35,0.123
		c1.255,0.066,2.266,0.617,3.098,1.559c0.431,0.488,0.917,0.935,1.424,1.344c0.747,0.602,1.58,0.777,2.506,0.378
		c0.189-0.082,0.461-0.049,0.673,0.01c0.673,0.19,0.896,0.762,1.025,1.396c0.62-0.49,0.809-0.988,0.452-1.566
		c-0.268-0.434-0.712-0.762-1.092-1.122c-0.153-0.145-0.379-0.219-0.513-0.376c-0.55-0.642-1.077-1.303-1.613-1.958
		c0.51,0.353,0.956,0.778,1.371,1.23c0.406,0.444,0.799,0.889,1.449,0.957c1.056,0.11,2.025,0.339,2.155,1.679
		c0.66-0.561,0.755-1.041,0.432-1.726c-0.284-0.601-0.772-0.934-1.373-1.147c-0.141-0.05-0.317-0.091-0.401-0.197
		c-0.689-0.862-1.36-1.739-2.006-2.572c0.076,0.001,0.272,0.009,0.468,0.004c2.351-0.058,4.711-0.015,7.051-0.206
		c2.64-0.215,5.263-0.646,7.895-0.966c0.145-0.018,0.384,0.087,0.454,0.208c0.707,1.212,1.717,1.974,3.092,2.315
		c2.058,0.51,3.984,1.219,5.063,3.299c0.384,0.739,1.106,0.757,1.606,0.184c-0.187-0.103-0.365-0.202-0.524-0.29
		c0.695-1.272-0.285-2.17-0.687-3.19c0.939-0.083,1.952,0.49,2.353,1.267c0.235,0.456,0.508,0.894,0.777,1.331
		c0.192,0.313,0.45,0.437,0.789,0.196c0.265-0.189,0.529-0.378,0.794-0.568c-0.041-0.326,0.012-0.707-0.141-0.968
		c-0.363-0.622-0.823-1.188-1.244-1.776c0.041-0.042,0.082-0.084,0.123-0.125c0.467,0.438,0.923,0.887,1.405,1.308
		c0.275,0.241,0.585,0.446,0.893,0.647c0.168,0.11,0.44,0.129,0.531,0.273c0.197,0.315,0.308,0.684,0.474,1.077
		c0.417-0.125,0.627-0.478,0.524-0.954c-0.099-0.457-0.26-0.911-0.459-1.335c-0.481-1.025-1.381-1.651-2.322-2.258
		c0.829-0.361,1.014-0.265,1.439,0.701c0.642-0.552,0.303-1.578-0.587-1.943c-0.792-0.324-1.549-0.734-2.321-1.107
		c0.003-0.066,0.007-0.131,0.01-0.197c2.147-0.13,4.293-0.316,6.443-0.371c1.604-0.041,3.149,0.422,4.578,1.118
		c2.065,1.007,4.052,2.188,6.275,2.828c2.037,0.587,3.964,0.444,5.594-1.11c0.125-0.119,0.259-0.227,0.375-0.328
		c1.062,0.519,1.942,0.383,2.62-0.526c0.339-0.454,0.616-1.051,0.661-1.605C146.599,101.455,146.493,100.646,146.334,99.878z"/>
</g>
</svg>
