<?xml version="1.0" encoding="iso-8859-1"?>
<!-- Generator: Adobe Illustrator 17.1.0, SVG Export Plug-In . SVG Version: 6.00 Build 0)  -->
<!DOCTYPE svg PUBLIC "-//W3C//DTD SVG 1.1//EN" "http://www.w3.org/Graphics/SVG/1.1/DTD/svg11.dtd">
<svg version="1.1" id="Capa_1" xmlns="http://www.w3.org/2000/svg" xmlns:xlink="http://www.w3.org/1999/xlink" x="0px" y="0px"
	 viewBox="0 0 150 150" style="enable-background:new 0 0 150 150;" xml:space="preserve">
<g>
	<path d="M146.801,71.438c-0.159-0.474-0.642-0.758-1.133-0.665c-2.994,0.562-5.651,2.088-8.138,4.684
		c-0.629,0.655-0.729,0.682-1.18,0.564c-0.857-0.229-1.889,0.176-2.713,0.544l-0.238,0.105c-3.64,1.589-7.269,3.2-10.665,4.708
		l-2.926,1.299c-0.302-0.126-0.581-0.252-0.846-0.372c-0.796-0.36-1.547-0.7-2.373-0.779c-4.887-0.475-10.103-0.938-15.407-0.938
		c-3.135,0-6.009,0.161-8.724,0.485c-3.212,0.182-6.443,0.582-9.62,1.191c-0.187-0.909-0.368-1.797-0.541-2.675
		c5.064-2.866,9.04-7.183,11.531-12.528l0.028-0.035c0.801-0.883,1.62-1.756,2.441-2.63c1.725-1.839,3.509-3.74,5.118-5.735
		c0.131-0.162,0.269-0.322,0.406-0.481c0.741-0.858,1.663-1.927,1.53-3.482c-0.102-1.185-0.404-1.804-0.604-2.213
		c-0.042-0.084-0.1-0.144-0.097-0.144c0.015-0.075,0.125-0.348,0.814-1.254c0.464-0.61,0.953-1.191,1.44-1.771
		c0.812-0.966,1.65-1.965,2.376-3.093c1.891-2.94,3.394-6.332,4.73-10.675c0.233-0.761,0.015-1.52-0.179-2.189
		c-0.066-0.229-0.134-0.459-0.174-0.681c-0.069-0.391-0.364-0.704-0.751-0.797l-0.539-0.129c-0.381-0.092-0.777,0.048-1.019,0.354
		c-0.088,0.111-0.19,0.219-0.292,0.326c-0.308,0.325-0.69,0.73-0.856,1.287c-1.906,6.373-4.659,11.786-8.418,16.549
		c-0.27,0.341-0.529,0.438-1.044,0.605c-0.455,0.148-1.021,0.334-1.608,0.793c-1.065,0.832-1.716,2.099-2.289,3.216l-0.196,0.38
		c-0.61,1.17-1.09,2.403-1.553,3.596c-0.594,1.526-1.153,2.969-1.962,4.276c-0.882,1.426-1.887,2.953-3.161,4.802
		c-1.094,1.19-2.237,2.35-3.418,3.468c0.511-3.49-0.01-7.444-2.038-9.694c-0.526-0.585-1.167-1.114-1.849-1.544
		c0.839-0.346,1.688-0.734,2.541-1.162c1.873-0.938,2.826-3.654,3.073-4.465c0.742-2.429,1.065-4.711,0.962-6.783
		c-0.142-2.816-0.782-5.638-1.453-8.268c-0.229-0.894-0.835-1.574-1.477-2.296c-0.024-0.026-0.049-0.054-0.072-0.081
		c1.32-0.714,2.646-1.433,3.974-2.153c4.519-2.45,9.191-4.984,13.846-7.403c2.058-1.068,2.746-2.42,2.376-4.664
		c-0.628-3.824,0.475-7.62,1.54-11.29c0.172-0.589,0.354-1.174,0.538-1.759c0.363-1.16,0.739-2.359,1.019-3.585
		c0.115-0.509-0.18-1.021-0.678-1.177c-0.504-0.152-1.033,0.1-1.227,0.584l-0.269,0.671c-2.186,5.453-4.443,11.086-3.937,17.045
		L81.336,34.042c-0.041-0.24-0.064-0.475-0.05-0.689c0.149-2.074-0.051-4.739-2.943-6.944c-0.352-0.269-0.837-0.274-1.195-0.014
		c-0.357,0.26-0.501,0.724-0.354,1.141l0.151,0.427c0.697,1.957,1.103,3.24,0.609,4.476c-0.312-0.095-0.623-0.192-0.933-0.29
		c-0.449-0.142-0.896-0.282-1.343-0.411c-0.182-0.053-0.375-0.053-0.557,0c-0.447,0.129-0.894,0.27-1.343,0.411
		c-0.31,0.098-0.62,0.195-0.933,0.29c-0.493-1.235-0.088-2.519,0.609-4.476l0.151-0.427c0.146-0.417,0.003-0.881-0.354-1.141
		c-0.358-0.261-0.845-0.255-1.195,0.014c-2.893,2.205-3.093,4.87-2.943,6.944c0.015,0.215-0.009,0.449-0.05,0.689L48.575,23.379
		c0.507-5.959-1.751-11.592-3.937-17.045L44.37,5.663c-0.193-0.484-0.722-0.736-1.227-0.584c-0.498,0.155-0.793,0.668-0.678,1.177
		c0.279,1.226,0.655,2.425,1.019,3.585c0.184,0.585,0.366,1.17,0.538,1.759c1.065,3.67,2.168,7.466,1.54,11.29
		c-0.37,2.244,0.318,3.596,2.376,4.664c4.654,2.419,9.327,4.953,13.846,7.403c1.328,0.721,2.653,1.439,3.974,2.153
		c-0.023,0.027-0.048,0.055-0.072,0.081c-0.642,0.722-1.248,1.402-1.477,2.297c-0.671,2.629-1.312,5.45-1.453,8.267
		c-0.104,2.072,0.22,4.354,0.962,6.783c0.247,0.811,1.2,3.527,3.072,4.464c0.854,0.429,1.703,0.817,2.542,1.163
		c-0.682,0.43-1.321,0.959-1.849,1.543c-2.028,2.251-2.549,6.205-2.038,9.695c-1.181-1.118-2.324-2.277-3.418-3.468
		c-1.274-1.849-2.279-3.376-3.161-4.801c-0.809-1.309-1.368-2.751-1.962-4.277c-0.463-1.192-0.942-2.426-1.553-3.596l-0.196-0.38
		c-0.573-1.117-1.224-2.384-2.289-3.216c-0.587-0.459-1.153-0.645-1.608-0.793c-0.515-0.168-0.774-0.265-1.044-0.605
		c-3.759-4.763-6.512-10.176-8.418-16.549c-0.166-0.557-0.549-0.962-0.856-1.287c-0.102-0.107-0.204-0.215-0.292-0.326
		c-0.241-0.307-0.64-0.445-1.019-0.354L39.09,31.88c-0.387,0.093-0.682,0.406-0.751,0.797c-0.04,0.222-0.107,0.451-0.174,0.681
		c-0.193,0.67-0.412,1.429-0.179,2.189c1.337,4.343,2.84,7.734,4.73,10.675c0.726,1.128,1.564,2.127,2.376,3.093
		c0.487,0.58,0.977,1.161,1.44,1.771c0.688,0.904,0.799,1.177,0.818,1.177c-0.021,0.071-0.061,0.138-0.101,0.221
		c-0.2,0.409-0.503,1.028-0.604,2.214c-0.133,1.555,0.789,2.623,1.53,3.481c0.138,0.159,0.275,0.319,0.407,0.482
		c1.608,1.994,3.393,3.896,5.117,5.734c0.821,0.874,1.641,1.747,2.404,2.588l0.066,0.078c2.49,5.346,6.466,9.661,11.53,12.527
		c-0.173,0.878-0.354,1.766-0.541,2.675c-3.177-0.608-6.403-1.009-9.559-1.187c-2.776-0.329-5.65-0.49-8.785-0.49
		c-5.305,0-10.521,0.464-15.406,0.938c-0.827,0.079-1.578,0.419-2.374,0.779c-0.265,0.12-0.544,0.246-0.846,0.372l-2.926-1.299
		c-3.396-1.508-7.025-3.119-10.665-4.709l-0.238-0.104c-0.824-0.369-1.858-0.773-2.713-0.544c-0.45,0.116-0.546,0.097-1.196-0.581
		c-2.47-2.579-5.127-4.105-8.121-4.667c-0.492-0.094-0.974,0.191-1.133,0.665c-0.158,0.474,0.057,0.992,0.504,1.214l0.511,0.254
		c0.356,0.179,0.714,0.357,1.073,0.529c2.99,1.436,4.977,3.218,6.073,5.45c0.854,1.734,1.905,2.311,3.435,2.719
		c4.924,1.311,9.389,2.566,13.648,3.838c1.209,0.361,1.83,0.813,2.01,1.115c0.618,1.046,1.433,1.554,2.488,1.554
		c0.369,0,0.729-0.059,1.03-0.116c1.715-0.327,3.433-0.642,5.15-0.956c1.526-0.279,3.054-0.56,4.578-0.848
		c6.492-1.226,12.882-1.47,19.018-0.738c1.094,0.148,2.199,0.327,3.299,0.532c-0.057,0.342-0.099,0.679-0.127,1.013
		c-2.421,1.436-4.339,3.547-5.58,6.145c-7.066,4.659-14.36,10.025-22.291,16.398l-1.502,1.2c-3.646,2.906-7.417,5.911-10.462,9.573
		l-0.193,0.23c-1.38,1.646-3.689,4.402-2.521,6.892c1.187,2.526,4.73,2.867,8.04,2.867c0.472,0,0.932-0.006,1.364-0.013
		c0.788-0.01,1.489-0.022,2.012,0.015c1.845,0.134,3.714,0.18,5.521,0.225c0.966,0.023,1.932,0.048,2.896,0.084
		c0.61,0.023,1.221,0.076,1.831,0.128l0.87,0.07c0.275,0.023,0.529-0.066,0.729-0.241c0.202-0.175,0.325-0.422,0.344-0.688
		l0.036-0.562c0.017-0.268-0.074-0.53-0.252-0.729c-0.179-0.199-0.429-0.319-0.696-0.333c-1.13-0.057-2.261-0.105-3.392-0.154
		c-2.62-0.113-5.33-0.23-7.979-0.447l-0.771-0.062c-2.302-0.182-4.498-0.355-6.638-1.034c1.312-1.535,2.618-3.075,3.924-4.616
		l1.324-1.561c0.053-0.063,0.103-0.13,0.149-0.202l7.507-6.618c0.208-0.185,0.369-0.399,0.479-0.637
		c0.32-0.696,2.269-1.88,3.433-2.586c0.664-0.403,1.237-0.751,1.646-1.057l5.877-4.392c1.573-1.175,3.152-2.329,4.729-3.48
		c3.638-2.657,7.389-5.397,10.969-8.348c0.549,0.887,1.256,1.725,2.115,2.507c-9.69,0.944-18.579,10.424-19.08,20.779
		c-0.265,5.481,0.783,11.021,3.116,16.468c3.305,7.721,9.62,12.148,17.324,12.148c1.407,0,2.829-0.155,4.232-0.46
		c1.403,0.305,2.825,0.46,4.232,0.46c7.704,0,14.02-4.428,17.324-12.148c2.333-5.446,3.381-10.986,3.116-16.468
		c-0.5-10.337-9.354-19.801-19.088-20.773c0.863-0.784,1.572-1.623,2.123-2.513c3.58,2.95,7.331,5.69,10.969,8.348
		c1.576,1.151,3.155,2.306,4.729,3.48l5.877,4.392c0.408,0.306,0.981,0.653,1.646,1.057c1.164,0.706,3.112,1.89,3.432,2.584
		c0.11,0.239,0.271,0.454,0.48,0.639l7.506,6.618c0.047,0.072,0.097,0.139,0.149,0.202l1.324,1.561
		c1.306,1.541,2.611,3.081,3.924,4.616c-2.14,0.679-4.336,0.853-6.638,1.034l-0.771,0.062c-2.648,0.217-5.358,0.334-7.979,0.447
		c-1.131,0.049-2.262,0.098-3.392,0.154c-0.268,0.014-0.517,0.153-0.695,0.353c-0.178,0.199-0.268,0.481-0.25,0.749l0.033,0.523
		c0.019,0.266,0.142,0.513,0.344,0.688c0.2,0.175,0.456,0.264,0.729,0.241l0.87-0.07c0.61-0.052,1.221-0.104,1.831-0.128
		c0.965-0.036,1.931-0.061,2.896-0.084c1.808-0.045,3.677-0.091,5.521-0.225c0.522-0.037,1.224-0.024,2.012-0.015
		c0.433,0.007,0.893,0.013,1.364,0.013c3.31,0,6.854-0.341,8.04-2.867c1.168-2.489-1.142-5.245-2.521-6.892l-0.193-0.23
		c-3.045-3.662-6.815-6.667-10.462-9.573l-1.502-1.2c-7.931-6.373-15.225-11.739-22.291-16.398c-1.241-2.598-3.159-4.709-5.58-6.145
		c-0.028-0.334-0.07-0.672-0.127-1.013c1.099-0.205,2.201-0.383,3.282-0.53c6.18-0.735,12.541-0.489,19.034,0.736
		c1.524,0.288,3.052,0.568,4.578,0.848c1.718,0.314,3.436,0.629,5.15,0.956c0.302,0.058,0.661,0.116,1.03,0.116
		c1.056,0,1.87-0.508,2.488-1.553c0.18-0.303,0.801-0.755,2.01-1.116c4.26-1.271,8.725-2.527,13.649-3.839
		c1.528-0.407,2.58-0.983,3.434-2.718c1.097-2.232,3.083-4.015,6.073-5.45c0.359-0.172,0.717-0.351,1.073-0.529l0.511-0.254
		C146.744,72.43,146.959,71.911,146.801,71.438z"/>
</g>
</svg>
