<?xml version="1.0" encoding="iso-8859-1"?>
<!-- Generator: Adobe Illustrator 17.1.0, SVG Export Plug-In . SVG Version: 6.00 Build 0)  -->
<!DOCTYPE svg PUBLIC "-//W3C//DTD SVG 1.1//EN" "http://www.w3.org/Graphics/SVG/1.1/DTD/svg11.dtd">
<svg version="1.1" id="Capa_1" xmlns="http://www.w3.org/2000/svg" xmlns:xlink="http://www.w3.org/1999/xlink" x="0px" y="0px"
	 viewBox="0 0 150 150" style="enable-background:new 0 0 150 150;" xml:space="preserve">
<g>
	<path d="M145.467,61.523c-0.674,0.697-1.395,1.325-1.974,2.062c-1.918,2.44-4.205,4.506-6.516,6.547
		c-1.324,1.169-2.178,1.308-3.728,0.346c-0.461-0.286-0.924-0.573-1.362-0.894c-0.169-0.124-0.374-0.337-0.384-0.519
		c-0.047-0.837-0.022-1.678-0.039-2.518c-0.019-0.971,0.008-1.948-0.104-2.909c-0.088-0.759-0.455-1.439-1.064-1.954
		c-0.088,0.066-0.143,0.091-0.173,0.134c-0.053,0.076-0.1,0.159-0.133,0.246c-0.326,0.876-0.983,1.48-1.661,2.078
		c-0.474,0.418-0.895,0.896-1.352,1.335c-0.155,0.149-0.336,0.356-0.522,0.375c-0.69,0.071-1.413,0.111-2.003-0.328
		c-0.758-0.564-1.529-1.135-2.181-1.812c-0.943-0.979-1.871-1.984-2.364-3.307c-0.516-1.383-1.112-2.735-1.639-4.114
		c-0.158-0.415-0.231-0.87-0.283-1.314c-0.019-0.165,0.087-0.45,0.215-0.509c0.783-0.358,1.062-1.113,1.504-1.754
		c0.879-1.277,1.807-2.521,2.726-3.77c0.277-0.377,0.551-0.724,0.19-1.202c-0.578-0.767-1.855-1.208-2.712-0.79
		c-0.709,0.346-1.361,0.83-1.992,1.313c-0.812,0.621-1.566,1.318-2.375,1.943c-0.168,0.13-0.598,0.196-0.683,0.097
		c-0.151-0.174-0.174-0.498-0.172-0.758c0.003-0.44,0.17-0.9,0.086-1.315c-0.395-1.971-1.613-3.283-3.453-4.022
		c-0.721-0.289-1.249,0.045-1.364,0.814c-0.169,1.127-0.293,2.261-0.49,3.383c-0.052,0.298-0.303,0.56-0.463,0.839
		c-0.251-0.17-0.562-0.293-0.743-0.52c-0.513-0.641-0.922-1.37-1.469-1.977c-0.465-0.516-1.015-0.997-1.616-1.339
		c-1.243-0.707-2.641-0.992-4.053-1.073c-0.768-0.044-1.588,0.002-2.316,0.229c-1.48,0.462-2.938,1.017-4.358,1.641
		c-1.318,0.579-2.589,0.445-3.935,0.161c-1.081-0.228-2.212-0.363-3.312-0.318c-1.578,0.064-3.156,0.279-4.72,0.522
		c-1.641,0.255-3.289,0.533-4.891,0.96c-1.603,0.427-3.139,1.102-4.731,1.577c-1.986,0.593-3.978,1.133-6.044,1.457
		c-2.173,0.341-4.327,0.593-6.527,0.538c-3.318-0.083-6.595-0.457-9.861-1.062c-2.959-0.548-5.938-1.061-8.931-1.328
		c-2.564-0.229-5.163-0.046-7.743-0.124c-1.717-0.052-3.428-0.256-5.144-0.369c-0.664-0.044-1.356-0.139-1.994-0.008
		c-1.02,0.209-2.028,0.528-3.001,0.906c-2.639,1.026-4.879,2.745-7.223,4.279c-0.45,0.295-0.9,0.627-1.252,1.027
		c-1.268,1.445-2.58,2.865-3.708,4.416c-0.848,1.166-1.577,2.464-2.115,3.802c-0.844,2.099-1.077,4.347-1.115,6.605
		c-0.023,1.366,0.049,2.737-0.052,4.097c-0.117,1.582-0.346,3.157-0.581,4.727c-0.215,1.438-0.748,2.734-1.9,3.71
		c-0.641,0.543-1.273,1.1-1.872,1.689c-0.161,0.158-0.328,0.566-0.25,0.662c0.204,0.252,0.542,0.553,0.828,0.555
		c1.487,0.01,2.826-0.41,3.83-1.603c0.276-0.328,0.581-0.635,0.897-0.924c0.109-0.1,0.317-0.192,0.435-0.152
		c0.104,0.035,0.192,0.251,0.209,0.397c0.149,1.272-0.22,2.455-0.744,3.578c-0.607,1.3-1.31,2.555-1.961,3.835
		c-0.306,0.6-0.661,1.189-0.863,1.824c-0.292,0.917-0.62,1.867-0.649,2.812c-0.039,1.251,0.456,2.42,1.242,3.418
		c0.746,0.947,1.325,1.912,1.174,3.21c-0.146,1.258-0.109,2.506-1.06,3.561c-0.711,0.789-0.439,2.039,0.221,2.866
		c0.637,0.798,1.534,1.093,2.369,1.507c0.586,0.29,1.267,0.615,1.882,0.573c1.637-0.111,3.266-0.388,4.89-0.648
		c0.634-0.102,0.809-0.519,0.49-1.077c-0.297-0.518-0.67-0.992-1.007-1.487c-0.766-1.128-1.667-2.207-1.82-3.621
		c-0.123-1.13-0.153-2.274-0.147-3.412c0.003-0.628,0.063-1.294,0.278-1.877c0.619-1.683,1.559-3.183,2.804-4.491
		c1.263-1.326,2.477-2.7,3.759-4.009c0.682-0.696,1.46-1.299,2.31-2.044c0.165,0.577,0.283,0.945,0.376,1.319
		c0.256,1.03,0.62,2.05,0.725,3.096c0.19,1.896,0.172,3.812,0.339,5.711c0.113,1.28,0.691,2.331,2.013,2.787
		c0.37,0.128,0.749,0.232,1.121,0.353c1.275,0.417,2.558,0.81,3.818,1.268c0.672,0.244,1.018,0.797,0.902,1.326
		c-0.131,0.601-0.363,1.181-0.473,1.784c-0.115,0.634-0.204,1.288-0.178,1.928c0.018,0.428,0.31,0.709,0.858,0.65
		c0.396-0.043,0.822,0.048,1.217,0.147c1.138,0.286,2.26,0.633,3.402,0.902c0.463,0.109,0.964,0.13,1.44,0.094
		c0.555-0.042,1.099-0.214,1.653-0.286c0.982-0.128,1.973-0.19,2.951-0.343c0.567-0.089,1.05-0.43,0.668-0.882
		c-0.755-0.894-1.459-1.867-2.359-2.591c-0.905-0.727-2.029-1.178-3.043-1.775c-0.735-0.432-1.592-0.737-1.999-1.569
		c-0.979-2.003-1.621-4.124-1.806-6.336c-0.242-2.887,0.275-5.709,1.071-8.48c0.102-0.356,0.238-0.703,0.354-1.04
		c0.349,0,0.677-0.089,0.926,0.015c1.342,0.559,2.704,1.089,3.983,1.773c1.911,1.021,3.912,1.743,6.026,2.169
		c1.697,0.342,3.401,0.649,5.1,0.98c1.813,0.354,3.627,0.465,5.463,0.155c1.107-0.187,2.224-0.328,3.341-0.43
		c2.158-0.197,4.32-0.357,6.481-0.521c0.554-0.042,1.126,0.033,1.664-0.074c1.521-0.302,3.032-0.655,4.538-1.022
		c0.367-0.089,0.529-0.039,0.665,0.329c0.918,2.493,1.162,5.099,1.251,7.717c0.073,2.13-0.014,4.265,0.024,6.397
		c0.016,0.905-0.263,1.677-0.704,2.437c-0.336,0.578-0.631,1.184-0.879,1.804c-0.058,0.144,0.095,0.51,0.238,0.573
		c0.527,0.231,1.079,0.454,1.643,0.54c1.367,0.209,2.744,0.367,4.121,0.494c1.189,0.11,2.384,0.156,3.577,0.213
		c0.239,0.011,0.49-0.03,0.722-0.095c0.638-0.177,0.855-0.617,0.519-1.176c-0.452-0.752-0.966-1.467-1.467-2.189
		c-0.575-0.829-0.746-1.73-0.569-2.72c0.258-1.437,0.814-2.755,1.541-4.008c0.071-0.122,0.19-0.216,0.364-0.409
		c0.354,1.013,0.655,1.948,1.007,2.863c0.528,1.376,1.019,2.774,2.041,3.896c0.415,0.456,0.645,0.947,0.267,1.567
		c-0.141,0.231-0.187,0.53-0.231,0.806c-0.109,0.688-0.125,1.475,0.489,1.848c1.026,0.623,2.203,0.93,3.431,0.738
		c1.068-0.167,2.125-0.404,3.188-0.598c1.062-0.193,2.051-0.567,2.949-1.168c0.605-0.405,0.574-0.677-0.046-1.047
		c-0.769-0.459-1.555-0.908-2.251-1.464c-0.51-0.407-1.017-0.919-1.293-1.495c-0.402-0.841-0.956-1.726-0.69-2.719
		c0.469-1.745,0.788-3.508,0.802-5.313c0.012-1.51-0.025-3.022-0.087-4.532c-0.076-1.831-0.23-3.655,0.358-5.448
		c0.469-1.43,0.763-1.678,2.254-1.563c0.413,0.032,0.685-0.118,0.871-0.467c0.211-0.396,0.438-0.785,0.628-1.191
		c0.246-0.528,0.666-0.801,1.22-0.873c0.389-0.051,0.783-0.067,1.175-0.075c1.24-0.027,2.855-1.043,3.145-2.091
		c0.165-0.599,0.476-0.934,1.046-1.103c0.862-0.255,1.6-0.735,2.196-1.394c0.654-0.724,1.86-0.784,2.517-0.049
		c0.848,0.948,1.666,1.923,2.518,2.867c0.658,0.728,1.377,1.294,2.427,1.486c1.314,0.241,2.614,0.611,3.709,1.497
		c0.589,0.477,1.263,0.891,1.963,1.181c1.772,0.735,3.569,1.415,5.377,2.057c1.413,0.502,2.839,0.722,4.312,0.075
		c0.454-0.199,1.047-0.113,1.576-0.102c0.873,0.018,1.724,0.146,2.501-0.493c1.24-1.019,1.789-2.351,2.023-3.878
		c0.073-0.474,0.124-0.997,0.361-1.39c0.491-0.814,1.107-1.552,1.661-2.328c1.032-1.446,2.028-2.919,3.094-4.34
		c0.997-1.331,2.07-2.605,3.099-3.913c0.394-0.502,1.072-0.795,1.13-1.547c0.036-0.464,0.084-0.929,0.143-1.391
		c0.181-1.424,0.335-2.852,0.575-4.266C146.067,62.091,145.836,61.871,145.467,61.523z"/>
</g>
</svg>
