<?xml version="1.0" encoding="iso-8859-1"?>
<!-- Generator: Adobe Illustrator 17.1.0, SVG Export Plug-In . SVG Version: 6.00 Build 0)  -->
<!DOCTYPE svg PUBLIC "-//W3C//DTD SVG 1.1//EN" "http://www.w3.org/Graphics/SVG/1.1/DTD/svg11.dtd">
<svg version="1.1" id="Capa_1" xmlns="http://www.w3.org/2000/svg" xmlns:xlink="http://www.w3.org/1999/xlink" x="0px" y="0px"
	 viewBox="0 0 150 150" style="enable-background:new 0 0 150 150;" xml:space="preserve">
<g>
	<path d="M143.663,14.545c-0.716-1.505-1.807-2.974-2.689-4.297c0.057-0.129,0.115-0.258,0.172-0.388
		c0.128-0.29,0.039-0.643-0.299-0.734c-1.156-0.314-2.287-0.378-3.379-0.197c-0.027-0.161-0.132-0.301-0.349-0.339
		c-0.501-0.087-1.002-0.174-1.503-0.262c-0.405-0.071-0.692,0.263-0.899,0.567c-0.244,0.357-0.272,0.788-0.175,1.193
		c-0.049,0.032-0.1,0.057-0.149,0.09c-0.006,0.004-0.009,0.01-0.015,0.015c-1.483,0.356-2.955,0.753-4.376,1.279
		c-1.104,0.409-2.196,0.852-3.283,1.306c-1.422,0.22-2.784,0.601-4.141,1.174c-1.017,0.429-1.946,1.198-2.904,1.849
		c-0.082-0.14-0.224-0.251-0.414-0.274c-0.903-0.107-1.719,0.493-1.98,1.344c-0.008,0.028-0.003,0.05-0.007,0.076
		c-0.813,0.258-1.614,0.552-2.404,0.878c-1.425,0.005-2.474,0.643-3.426,1.437c-0.04-0.17-0.146-0.323-0.335-0.36
		c-0.346-0.067-0.686-0.026-0.997,0.083c-0.226-0.135-0.451-0.271-0.677-0.406c-0.347-0.208-0.722,0.067-0.752,0.432
		c-0.246,2.953-3.732,2.117-5.63,3.228c-0.935,0.547-1.582,1.513-2.092,2.519c-0.115,0.141-0.234,0.279-0.339,0.429
		c-0.067,0.095-0.128,0.196-0.194,0.292c-2.555,1.474-4.876,3.362-7.286,5.05C69.339,47.198,49.649,67.891,33.61,92.072
		c-4.255,6.415-8.146,13.07-12.332,19.532c-0.675,1.041-1.912,1.94-3.086,2.39c-2.5,0.96-5.096,1.638-7.38,2.318
		c-0.36-0.091-0.71-0.227-1.05-0.398c-0.1-0.264-0.401-0.426-0.639-0.338c-0.464-0.187-0.841,0.458-0.492,0.819
		c-0.785,1.848-1.456,3.948-0.321,5.78c0.206,0.333,0.478,0.622,0.787,0.86c-0.007,0.039-0.014,0.076-0.022,0.115
		c0.068,0.002,0.13,0.003,0.197,0.005c0.581,0.394,1.272,0.601,1.951,0.556c-0.039,0.14-0.081,0.255-0.157,0.339
		c-2.346,2.61-2.701,5.543-1.689,8.835c1.157,3.766,2.139,7.585,3.259,11.6c2.114-1.233,3.586-3.573,4.637-6.07
		c2.197-5.219,4.401-10.461,6.12-15.847c1.263-3.955,3.351-6.537,7.317-7.976c9.338-3.389,18.511-7.239,27.88-10.535
		c11.427-4.02,21.609-10.257,31.583-16.916c3.235-2.16,6.307-4.541,9.098-6.587c-0.015,0.889,0.363,1.694,0.958,2.498
		c-0.006,0.016-0.017,0.026-0.022,0.044c-0.169,0.609-0.092,2.121,0.805,2.169c0.471,0.025,0.903,0.15,1.312,0.326
		c0.327,0.408,0.645,0.826,0.935,1.283c0.267,0.42,0.659,1.179,0.993,2.045c0.077,1.52-0.486,2.952-1.533,4.038
		c-0.2,0.02-0.364,0.137-0.435,0.354l-0.022,0.066c-0.026,0.022-0.049,0.048-0.076,0.07c-0.193,0.157-0.204,0.356-0.119,0.52
		c-0.026,0.079-0.052,0.157-0.078,0.236c-0.109,0.331,0.176,0.607,0.482,0.633c1.016,0.086,1.879-0.314,2.492-0.966
		c0.882-0.194,1.683-0.589,2.358-1.175c0.275-0.134,0.531-0.285,0.72-0.497c3.737-4.198,7.123-8.631,7.609-14.527
		c0.29-3.521,0.766-7.069,0.588-10.576c-0.227-4.463,1.96-7.722,4.783-10.504c9.686-9.548,16.372-21.039,22.221-33.135
		c1.127-2.33,2.741-4.495,1.472-7.237C144.439,15.631,144.074,15.067,143.663,14.545z"/>
</g>
</svg>
