<?xml version="1.0" encoding="iso-8859-1"?>
<!-- Generator: Adobe Illustrator 17.1.0, SVG Export Plug-In . SVG Version: 6.00 Build 0)  -->
<!DOCTYPE svg PUBLIC "-//W3C//DTD SVG 1.1//EN" "http://www.w3.org/Graphics/SVG/1.1/DTD/svg11.dtd">
<svg version="1.1" id="Capa_1" xmlns="http://www.w3.org/2000/svg" xmlns:xlink="http://www.w3.org/1999/xlink" x="0px" y="0px"
	 viewBox="0 0 150 150" style="enable-background:new 0 0 150 150;" xml:space="preserve">
<g>
	<path d="M80.438,26.939c0.3-1.055,0.61-2.146,0.997-3.184c0.178-0.477,0.649-1.005,1.2-1.345c4.169-2.576,7.745-4.483,11.256-6.003
		c0.667-0.289,1.307-0.654,1.925-1.007c0.518-0.295,1.053-0.6,1.594-0.855c1.218-0.572,2.481-1.105,3.705-1.62l1.189-0.503
		c2.809-1.197,5.825-1.902,8.668-2.486c0.622-0.128,1.476-0.304,1.912-1.145c0.018-0.021,0.093-0.06,0.156-0.07
		c2.202-0.327,4.292-1.097,6.313-1.842c0.751-0.277,1.503-0.554,2.261-0.81c1.797-0.605,3.593-1.21,5.389-1.823
		c0.1-0.034,0.186-0.084,0.256-0.129c0.137-0.087,0.303-0.249,0.321-0.415c0.025-0.198-0.141-0.37-0.433-0.448l-0.112-0.031
		c-0.298-0.083-0.61-0.17-0.926-0.137c-1.112,0.118-2.306,0.265-3.493,0.53c-2.396,0.537-4.946,1.12-7.449,1.822
		c-0.59,0.166-1.125,0.491-1.643,0.807c-0.28,0.171-0.561,0.342-0.851,0.487l-0.229,0.117c-0.384,0.199-0.781,0.404-1.16,0.439
		c-2.565,0.238-4.916,1.134-7.073,2.066c-1.637,0.707-3.272,1.482-4.854,2.232c-0.759,0.36-1.518,0.72-2.278,1.073
		c-0.096,0.044-0.226,0.104-0.324,0.104c0,0,0,0-0.001,0c-1.081-0.083-2.088,0.191-3.37,0.895c-2.783,1.526-5.555,3.072-8.326,4.619
		l-2.103,1.173c-0.551,0.308-1.097,0.629-1.641,0.95l-0.183,0.107c-1.01,0.596-1.766,1.505-2.309,2.779
		c-0.303,0.707-0.596,1.418-0.896,2.146l-0.318,0.772l-0.1-0.079c-0.309-0.246-0.611-0.487-0.919-0.723
		c-0.4-0.309-0.817-0.517-1.238-0.62c-0.193-0.048-0.514-0.048-0.707,0c-0.421,0.103-0.838,0.311-1.238,0.62
		c-0.308,0.236-0.61,0.478-0.919,0.723l-0.1,0.079l-0.318-0.772c-0.3-0.727-0.593-1.438-0.896-2.146
		c-0.543-1.274-1.299-2.183-2.309-2.779l-0.183-0.107c-0.544-0.321-1.09-0.642-1.641-0.95l-2.103-1.173
		c-2.771-1.547-5.543-3.093-8.326-4.619c-1.145-0.627-2.078-0.907-3.024-0.907c-0.114,0-0.229,0.004-0.357,0.013
		c-0.087,0-0.218-0.06-0.312-0.104c-0.762-0.354-1.521-0.714-2.279-1.074c-1.582-0.75-3.218-1.526-4.854-2.232
		c-2.158-0.932-4.509-1.828-7.074-2.066c-0.379-0.035-0.776-0.24-1.16-0.439l-0.229-0.117c-0.29-0.145-0.57-0.316-0.851-0.487
		c-0.518-0.315-1.053-0.641-1.643-0.807c-2.503-0.702-5.053-1.285-7.449-1.822c-1.188-0.266-2.381-0.412-3.493-0.53
		c-0.317-0.033-0.628,0.053-0.926,0.137l-0.112,0.031c-0.292,0.079-0.458,0.25-0.433,0.444c0.019,0.17,0.185,0.332,0.321,0.418
		c0.07,0.045,0.156,0.095,0.256,0.13c1.796,0.612,3.592,1.218,5.389,1.823c0.758,0.255,1.51,0.533,2.261,0.81
		c2.021,0.745,4.111,1.515,6.314,1.843c0.062,0.009,0.138,0.048,0.15,0.061c0.441,0.849,1.295,1.024,1.917,1.153
		c2.843,0.584,5.859,1.29,8.668,2.486l1.189,0.503c1.224,0.515,2.487,1.048,3.705,1.62c0.541,0.255,1.076,0.56,1.594,0.855
		c0.618,0.353,1.258,0.718,1.925,1.007c3.511,1.52,7.087,3.427,11.256,6.003c0.551,0.34,1.022,0.868,1.2,1.345
		c0.387,1.038,0.697,2.129,0.997,3.184c0.151,0.533,0.304,1.066,0.465,1.595c0.094,0.307,0.028,0.458-0.29,0.67
		c-0.463,0.309-0.908,0.681-1.325,1.105l-0.142,0.148c-0.323,0.342-0.573,0.602-1.036,0.529c-0.014-0.002-0.075-0.007-0.088-0.007
		c-0.205,0-0.398,0.105-0.569,0.198l-0.12,0.064c-0.782,0.39-1.427,1.186-1.724,2.128c-0.259,0.821-0.218,1.64,0.111,2.247
		c0.384,0.708,0.696,1.48,0.997,2.226c0.093,0.229,0.186,0.458,0.276,0.675c0.003,0.016,0.001,0.044-0.004,0.071
		c-0.038-0.006-0.071-0.019-0.079-0.025c-0.137-0.128-0.26-0.27-0.384-0.411c-0.145-0.166-0.291-0.332-0.453-0.479
		c-0.512-0.467-1.029-0.928-1.548-1.39c-0.757-0.674-1.515-1.349-2.255-2.042c-1.04-0.974-2.075-1.989-3.077-2.97l-0.991-0.97
		c-0.04-0.038-0.075-0.087-0.101-0.189c0.099-0.076,0.188-0.145,0.284-0.208c1.463-0.971,2.93-1.939,4.396-2.908l0.164-0.109
		c0.458-0.302,0.712-0.651,0.755-1.039c0.042-0.378-0.12-0.761-0.481-1.137c-0.129-0.134-0.216-0.35-0.294-0.558
		c-0.653-1.772-1.797-3.386-3.598-5.077c-0.238-0.224-0.565-0.356-0.855-0.457c-0.102-0.035-0.204-0.04-0.282-0.04l-0.202,0.005
		c-0.069,0-0.092-0.007-0.094-0.007c-1.056-0.762-2.266-1.138-3.436-1.501c-0.488-0.151-0.993-0.309-1.474-0.49
		c-0.079-0.03-0.157-0.062-0.235-0.094c-0.246-0.101-0.5-0.205-0.775-0.246c-0.364-0.055-0.527-0.215-0.643-0.631
		c-0.095-0.342-0.254-0.659-0.409-0.965l-0.075-0.15c-0.08-0.163-0.237-0.336-0.439-0.336c-0.033,0-0.096,0.012-0.127,0.025
		c-0.207,0.086-0.271,0.355-0.242,0.584c0.022,0.174,0.047,0.371,0.132,0.557c0.226,0.493,0.247,0.963,0.069,1.525
		c-0.185,0.586-0.282,1.199-0.377,1.792l-0.035,0.214c-0.023,0.146,0.031,0.282,0.082,0.382c0.111,0.228,0.419,0.342,0.671,0.252
		c0.1-0.036,0.228-0.088,0.335-0.184c0.111-0.101,0.143-0.236,0.168-0.345c0.009-0.037,0.022-0.094,0.031-0.109
		c0.148-0.179,0.241-0.238,0.227-0.244c0.271,0.039,0.545,0.069,0.818,0.099c1.081,0.119,2.102,0.231,3,0.862
		c0.219,0.153,0.468,0.237,0.708,0.318c0.149,0.05,0.301,0.1,0.439,0.169l0.081,0.04c0.127,0.062,0.423,0.207,0.458,0.289
		c0.194,0.815,0.741,1.289,1.27,1.747c0.146,0.126,0.293,0.253,0.432,0.388c0.717,0.698,1.329,1.348,1.87,1.989
		c0.045,0.053,0.095,0.134,0.08,0.216c-0.015,0.083-0.096,0.169-0.228,0.244c-0.675,0.381-1.331,0.761-1.938,1.228
		c-0.949,0.729-1.958,1.561-3.083,2.542c-0.274,0.24-0.565,0.667-0.557,1.042c0.01,0.396,0.123,0.779,0.231,1.15
		c0.039,0.133,0.078,0.265,0.112,0.398c0.025,0.098,0.068,0.202,0.111,0.305c0.039,0.092,0.104,0.246,0.096,0.291
		c-0.345,0.882,0.187,1.42,0.575,1.813c1.585,1.608,3.169,3.219,4.748,4.833c0.917,0.938,1.896,1.944,2.841,2.951
		c0.022,0.036,0.034,0.149,0.021,0.185c-0.3,0.542-0.594,1.088-0.888,1.635c-0.805,1.494-1.637,3.039-2.577,4.471
		c-1.122,1.71-1.848,3.089-2.354,4.472l-0.04,0.107c-0.294,0.802-0.627,1.71-0.457,2.507c0.178,0.835-0.023,1.565-0.237,2.338
		c-0.083,0.303-0.167,0.606-0.227,0.913c-0.023,0.07-0.19,0.208-0.261,0.217c-0.965,0.03-1.928,0.009-2.895-0.014
		c-0.588-0.014-1.177-0.049-1.765-0.084c-0.762-0.045-1.548-0.092-2.323-0.092c-1.751,0-3.087,0.243-4.332,0.789
		c-0.869,0.381-1.746,0.964-1.664,2.401c0.029,0.502,0.067,1.003,0.11,1.504c0.012,0.135,0.005,0.362-0.009,0.495
		c-0.096,0.996,0.053,2.007,0.433,2.929c0.02,0.045,0.042,0.078,0.04,0.071c0.006,0.022,0.008,0.056,0.013,0.094
		c0.007,0.062,0.015,0.134,0.028,0.205c0.018,0.09,0.044,0.18,0.088,0.325c0.271,0.895,0.578,1.847,0.937,2.911
		c0.044,0.129,0.085,0.303,0.033,0.395c-0.044,0.076-0.177,0.14-0.385,0.183l-0.269,0.055c-0.597,0.121-1.214,0.247-1.739,0.551
		c-0.215,0.125-0.414,0.185-0.609,0.185c-0.401,0-0.769-0.269-1.124-0.529c-0.583-0.427-0.694-0.96-0.362-1.729
		c0.09-0.209,0.127-0.447,0.101-0.654c-0.017-0.126-0.081-0.227-0.143-0.31c-0.146-0.192-0.436-0.255-0.621-0.139
		c-0.062,0.037-0.141,0.088-0.212,0.17c-0.388,0.456-0.842,0.995-1.269,1.543c-0.133,0.169-0.223,0.396-0.24,0.608
		c-0.065,0.801-0.317,1.301-0.841,1.673c-0.209,0.148-0.643,0.457-0.605,0.998c0.016,0.248,0.218,0.442,0.461,0.442
		c0.024,0,0.099-0.011,0.122-0.019c0.088-0.027,0.182-0.061,0.265-0.123c0.71-0.529,1.088-0.717,1.443-0.717
		c0.344,0,0.718,0.18,1.38,0.664c1.822,1.333,3.232,1.46,4.675,0.538c0.08-0.051,0.128-0.063,0.151-0.066
		c0.96-0.135,1.562-0.744,2.146-1.333c0.293-0.296,0.57-0.576,0.889-0.796c0.379-0.261,0.351-0.999,0.347-1.082
		c-0.02-0.372-0.14-0.728-0.256-1.071l-0.035-0.106c-0.303-0.902-0.607-1.803-0.912-2.704c-0.419-1.236-0.837-2.471-1.248-3.709
		c-0.047-0.143-0.059-0.307-0.073-0.515l-0.002-0.113c1.565-0.057,3.116,0.146,4.624,0.344c1.352,0.177,2.75,0.359,4.16,0.359
		c0.395,0,0.766-0.014,1.102-0.079l-0.04,0.293c-0.057,0.414-0.108,0.796-0.149,1.18c-0.118,1.125-0.248,2.249-0.377,3.374
		c-0.301,2.621-0.612,5.331-0.781,8.009c-0.188,2.959-0.196,5.975-0.205,8.892l-0.009,2.017c-0.006,0.885-0.127,1.57-0.716,2.25
		c-1.153,1.329-2.24,2.748-3.292,4.121l-0.34,0.443c-1.065,1.39-2.201,2.919-3.471,4.675c-0.202,0.28-0.23,0.684-0.249,0.951
		c-0.019,0.257-0.001,0.512,0.016,0.758c0.007,0.109,0.015,0.218,0.019,0.327c0.008,0.207,0.007,0.417,0.005,0.625
		c-0.004,0.476-0.008,0.968,0.101,1.441c0.221,0.96,0.516,1.916,0.801,2.839l0.872,2.894c0.602,2.013,1.224,4.095,1.878,6.131
		c0.354,1.097,0.773,2.188,1.181,3.244c0.172,0.446,0.344,0.893,0.511,1.34l0.083,0.222c0.171,0.459,0.342,0.919,0.537,1.368
		c0.294,0.676,0.597,1.349,0.899,2.022c0.612,1.36,1.245,2.766,1.786,4.176c0.502,1.308,0.795,2.726,1.015,3.941l0.037,0.211
		c0.118,0.693,0.24,1.409,1.124,1.786c0.164,0.07,0.266,0.155,0.302,0.253c0.039,0.106,0.012,0.254-0.08,0.438
		c-0.781,1.557-1.559,3.234-1.725,5.123l-0.006,0.07c-0.09,1.021-0.174,1.985-0.71,2.84c-0.077,0.122-0.09,0.257-0.1,0.367
		c-0.003,0.039-0.006,0.077-0.014,0.114c-0.075,0.371-0.152,0.743-0.229,1.114c-0.198,0.953-0.403,1.938-0.566,2.916
		c-0.014,0.086-0.054,0.189-0.097,0.299c-0.084,0.216-0.18,0.462-0.121,0.709c0.049,0.2,0.233,0.329,0.471,0.329
		c0.098,0,0.197-0.023,0.278-0.066c0.149-0.079,0.295-0.161,0.438-0.241c0.45-0.253,0.875-0.493,1.292-0.544
		c0.435-0.053,0.881,0.078,1.367,0.214c0.131,0.037,0.263,0.074,0.394,0.107c0.021,0.005,0.103,0.016,0.123,0.016
		c0.143,0,0.263-0.069,0.321-0.184c0.062-0.122,0.044-0.266-0.049-0.395c-0.129-0.179-0.294-0.318-0.491-0.415
		c-0.542-0.263-0.809-0.665-0.841-1.266l-0.014-0.282c-0.017-0.382-0.034-0.778-0.114-1.164c-0.119-0.572-0.007-1.104,0.366-1.724
		c0.109-0.181,0.155-0.386,0.201-0.585c0.042-0.188,0.086-0.381,0.171-0.455c0.672-0.587,0.803-1.294,0.841-1.908
		c0.115-1.803,0.396-3.367,0.859-4.779c0.082-0.249,0.113-0.508,0.144-0.758c0.034-0.29,0.067-0.562,0.173-0.787
		c0.384-0.81,0.37-1.558-0.043-2.356c-0.141-0.27-0.25-0.553-0.366-0.854c-0.058-0.146-0.114-0.292-0.175-0.438l-4.131-9.874
		c-0.145-0.347-0.295-0.692-0.444-1.037c-0.32-0.739-0.651-1.503-0.928-2.269c-0.584-1.618-1.149-3.274-1.697-4.875
		c-0.246-0.719-0.492-1.438-0.74-2.157c-0.216-0.624-0.434-1.246-0.651-1.868c-0.452-1.294-0.904-2.588-1.338-3.889
		c-0.289-0.867-0.317-1.047,0.498-1.578c0.473-0.307,0.854-0.775,1.135-1.148c0.368-0.492,0.72-0.995,1.071-1.499
		c0.359-0.514,0.719-1.028,1.096-1.529c0.359-0.479,0.768-0.942,1.161-1.39l0.394-0.448c0.087-0.101,0.185-0.194,0.23-0.29
		c0.074,0.12,0.143,0.236,0.158,0.338c0.126,0.834,0.242,1.669,0.357,2.505c0.126,0.91,0.252,1.82,0.392,2.728
		c0.058,0.376,0.145,0.751,0.229,1.114c0.127,0.547,0.247,1.064,0.277,1.591c0.101,1.71,0.686,3.282,1.251,4.803l0.105,0.282
		c0.183,0.492,0.43,0.95,0.668,1.392c0.39,0.722,0.758,1.404,0.884,2.244c0.405,2.708,1.24,5.469,2.481,8.207
		c0.21,0.463,0.408,0.933,0.605,1.403c0.621,1.473,1.264,2.996,2.285,4.306c0.385,0.493,0.752,1.001,1.119,1.509
		c1.144,1.583,2.327,3.219,4.033,4.373c0.271,0.183,0.54,0.376,0.81,0.57c0.864,0.62,1.758,1.261,2.754,1.604
		c0.89,0.306,1.753,0.478,2.586,0.513c0.812-0.035,1.675-0.207,2.564-0.513c0.996-0.342,1.89-0.983,2.754-1.604
		c0.27-0.193,0.539-0.387,0.81-0.57c1.706-1.154,2.89-2.791,4.033-4.373c0.367-0.508,0.734-1.017,1.119-1.509
		c1.021-1.31,1.664-2.833,2.285-4.306c0.197-0.47,0.396-0.939,0.605-1.403c1.241-2.738,2.076-5.499,2.481-8.207
		c0.126-0.84,0.494-1.522,0.884-2.244c0.238-0.442,0.485-0.899,0.668-1.392l0.105-0.282c0.565-1.521,1.15-3.093,1.251-4.803
		c0.03-0.527,0.15-1.044,0.277-1.591c0.084-0.362,0.171-0.737,0.229-1.114c0.14-0.908,0.266-1.818,0.392-2.728
		c0.115-0.835,0.231-1.671,0.357-2.504c0.016-0.103,0.084-0.219,0.106-0.336c0.098,0.092,0.195,0.185,0.283,0.286l0.393,0.448
		c0.394,0.448,0.802,0.91,1.161,1.39c0.377,0.501,0.736,1.016,1.096,1.529c0.352,0.504,0.703,1.007,1.071,1.499
		c0.28,0.374,0.662,0.842,1.134,1.148c0.816,0.531,0.788,0.71,0.499,1.578c-0.434,1.3-0.886,2.594-1.338,3.889
		c-0.218,0.622-0.436,1.245-0.651,1.868c-0.248,0.718-0.494,1.438-0.74,2.157c-0.548,1.602-1.113,3.257-1.697,4.875
		c-0.276,0.766-0.607,1.53-0.928,2.269c-0.149,0.345-0.3,0.69-0.444,1.037l-4.131,9.875c-0.061,0.145-0.117,0.291-0.174,0.437
		c-0.117,0.3-0.227,0.583-0.367,0.854c-0.413,0.797-0.427,1.546-0.043,2.355c0.105,0.225,0.139,0.498,0.173,0.787
		c0.03,0.25,0.062,0.51,0.144,0.758c0.464,1.413,0.744,2.976,0.859,4.779c0.038,0.614,0.169,1.321,0.84,1.908
		c0.086,0.075,0.13,0.268,0.172,0.456c0.046,0.199,0.092,0.405,0.201,0.585c0.373,0.621,0.485,1.152,0.366,1.724
		c-0.08,0.387-0.098,0.782-0.114,1.165l-0.014,0.282c-0.032,0.601-0.299,1.003-0.841,1.266c-0.197,0.096-0.362,0.235-0.49,0.414
		c-0.094,0.129-0.112,0.273-0.05,0.395c0.059,0.115,0.179,0.184,0.321,0.184c0.021,0,0.104-0.011,0.123-0.016
		c0.131-0.033,0.263-0.07,0.394-0.107c0.486-0.136,0.932-0.266,1.367-0.214c0.417,0.051,0.842,0.291,1.292,0.544
		c0.143,0.08,0.288,0.162,0.438,0.241c0.081,0.043,0.181,0.066,0.278,0.066c0.237,0,0.422-0.129,0.471-0.33
		c0.059-0.247-0.037-0.492-0.121-0.708c-0.043-0.11-0.083-0.213-0.097-0.299c-0.163-0.978-0.368-1.963-0.566-2.916
		c-0.077-0.371-0.154-0.743-0.229-1.115c-0.008-0.036-0.011-0.075-0.014-0.113c-0.01-0.109-0.022-0.245-0.099-0.366
		c-0.537-0.856-0.621-1.821-0.711-2.841l-0.006-0.07c-0.166-1.888-0.943-3.566-1.725-5.122c-0.092-0.184-0.119-0.332-0.08-0.438
		c0.036-0.098,0.138-0.183,0.303-0.253c0.883-0.377,1.005-1.093,1.123-1.786l0.037-0.212c0.22-1.214,0.513-2.632,1.015-3.94
		c0.541-1.41,1.174-2.816,1.786-4.176c0.303-0.673,0.605-1.346,0.899-2.021c0.195-0.449,0.366-0.909,0.537-1.368l0.083-0.222
		c0.167-0.448,0.339-0.894,0.511-1.34c0.407-1.056,0.827-2.147,1.181-3.244c0.654-2.036,1.276-4.118,1.878-6.131l0.872-2.894
		c0.285-0.924,0.58-1.879,0.801-2.839c0.108-0.473,0.104-0.965,0.101-1.441c-0.002-0.209-0.003-0.418,0.005-0.625
		c0.004-0.109,0.012-0.218,0.019-0.327c0.017-0.246,0.034-0.501,0.016-0.758c-0.019-0.267-0.047-0.671-0.249-0.951
		c-1.27-1.756-2.405-3.286-3.471-4.675l-0.34-0.443c-1.052-1.373-2.139-2.792-3.292-4.121c-0.589-0.68-0.71-1.365-0.716-2.25
		l-0.009-2.017c-0.009-2.917-0.018-5.933-0.205-8.892c-0.169-2.678-0.48-5.388-0.781-8.009c-0.129-1.125-0.259-2.249-0.377-3.374
		c-0.041-0.384-0.093-0.766-0.149-1.18l-0.072-0.256c0.363,0.027,0.745,0.042,1.134,0.042c1.41,0,2.809-0.183,4.16-0.359
		c1.329-0.174,2.704-0.354,4.07-0.354c0.184,0,0.368,0.003,0.56,0.024l-0.008,0.099c-0.015,0.208-0.026,0.373-0.073,0.515
		c-0.411,1.238-0.829,2.474-1.248,3.709c-0.305,0.901-0.609,1.802-0.912,2.704l-0.035,0.105c-0.116,0.343-0.236,0.699-0.256,1.071
		c-0.004,0.083-0.032,0.821,0.347,1.082c0.318,0.22,0.596,0.5,0.889,0.796c0.584,0.588,1.187,1.197,2.148,1.333
		c0.021,0.003,0.069,0.016,0.148,0.066c1.444,0.924,2.854,0.796,4.676-0.537c0.662-0.484,1.036-0.664,1.38-0.664
		c0.355,0,0.733,0.188,1.442,0.717c0.084,0.063,0.178,0.097,0.267,0.124c0.023,0.007,0.097,0.018,0.121,0.018
		c0.243,0,0.445-0.194,0.461-0.441c0.037-0.542-0.396-0.851-0.605-1c-0.523-0.372-0.775-0.872-0.841-1.673
		c-0.018-0.212-0.107-0.439-0.239-0.607c-0.428-0.548-0.882-1.088-1.271-1.546c-0.069-0.079-0.148-0.131-0.208-0.166
		c-0.191-0.118-0.477-0.055-0.625,0.14c-0.06,0.082-0.124,0.182-0.141,0.309c-0.026,0.206,0.011,0.444,0.101,0.653
		c0.332,0.769,0.221,1.302-0.362,1.729c-0.528,0.387-1.077,0.724-1.733,0.344c-0.525-0.305-1.143-0.43-1.739-0.551l-0.269-0.055
		c-0.208-0.043-0.341-0.107-0.385-0.183c-0.052-0.092-0.011-0.266,0.033-0.395c0.358-1.064,0.665-2.016,0.953-2.966
		c0.027-0.089,0.054-0.18,0.071-0.27c0.014-0.071,0.021-0.142,0.028-0.205c0.005-0.038,0.004-0.071-0.008-0.05
		c0.022-0.035,0.042-0.073,0.062-0.12c0.378-0.917,0.526-1.929,0.431-2.925c-0.014-0.133-0.021-0.359-0.009-0.494
		c0.043-0.501,0.081-1.002,0.11-1.504c0.082-1.437-0.795-2.02-1.664-2.401c-1.245-0.545-2.581-0.789-4.332-0.789
		c-0.775,0-1.562,0.047-2.323,0.092c-0.588,0.035-1.177,0.07-1.765,0.084c-0.967,0.023-1.934,0.044-2.893,0.015
		c-0.072-0.01-0.239-0.147-0.262-0.214c-0.061-0.31-0.145-0.613-0.228-0.916c-0.214-0.773-0.415-1.503-0.237-2.338
		c0.17-0.796-0.163-1.705-0.457-2.507l-0.04-0.107c-0.506-1.383-1.231-2.762-2.354-4.472c-0.94-1.433-1.772-2.978-2.577-4.471
		c-0.294-0.546-0.588-1.092-0.886-1.63c-0.015-0.04-0.003-0.153,0.015-0.183c0.949-1.013,1.929-2.02,2.846-2.957
		c1.579-1.614,3.163-3.224,4.748-4.832c0.389-0.394,0.92-0.932,0.577-1.811c-0.01-0.048,0.055-0.202,0.094-0.294
		c0.043-0.103,0.086-0.207,0.111-0.305c0.034-0.133,0.073-0.265,0.112-0.398c0.108-0.371,0.222-0.753,0.231-1.15
		c0.009-0.374-0.282-0.801-0.557-1.041c-1.125-0.981-2.134-1.813-3.083-2.542c-0.607-0.467-1.264-0.847-1.939-1.228
		c-0.131-0.074-0.212-0.161-0.227-0.244c-0.015-0.083,0.035-0.163,0.08-0.216c0.541-0.641,1.153-1.291,1.87-1.989
		c0.139-0.134,0.285-0.261,0.432-0.388c0.528-0.458,1.075-0.932,1.269-1.745c0.036-0.084,0.332-0.229,0.459-0.291l0.081-0.04
		c0.139-0.069,0.29-0.119,0.439-0.169c0.24-0.081,0.489-0.165,0.708-0.318c0.898-0.63,1.919-0.743,3-0.862
		c0.273-0.03,0.547-0.061,0.78-0.1c0.023,0.007,0.116,0.066,0.264,0.244c0.01,0.017,0.023,0.073,0.032,0.11
		c0.025,0.109,0.057,0.244,0.169,0.346c0.106,0.095,0.234,0.148,0.333,0.183c0.256,0.092,0.56-0.024,0.672-0.251
		c0.051-0.101,0.105-0.236,0.082-0.383l-0.035-0.214c-0.095-0.593-0.192-1.206-0.377-1.792c-0.178-0.562-0.156-1.032,0.069-1.526
		c0.085-0.186,0.109-0.383,0.132-0.557c0.028-0.229-0.035-0.498-0.241-0.583c-0.031-0.013-0.094-0.026-0.128-0.026
		c-0.202,0-0.359,0.173-0.439,0.335l-0.075,0.15c-0.155,0.306-0.314,0.623-0.409,0.965c-0.115,0.417-0.278,0.576-0.643,0.631
		c-0.275,0.042-0.529,0.146-0.775,0.246c-0.078,0.032-0.156,0.064-0.234,0.094c-0.481,0.182-0.986,0.339-1.475,0.49
		c-1.17,0.363-2.38,0.739-3.431,1.499c-0.004,0.002-0.025,0.01-0.099,0.01l-0.202-0.005c-0.078,0-0.181,0.005-0.283,0.04
		c-0.289,0.1-0.616,0.233-0.854,0.457c-1.801,1.691-2.944,3.305-3.598,5.076c-0.078,0.209-0.165,0.425-0.293,0.559
		c-0.362,0.375-0.524,0.758-0.482,1.137c0.043,0.388,0.297,0.737,0.755,1.039l0.164,0.109c1.466,0.968,2.933,1.937,4.396,2.908
		c0.095,0.062,0.185,0.132,0.303,0.242c-0.045,0.067-0.08,0.117-0.121,0.155l-0.99,0.97c-1.002,0.981-2.037,1.997-3.077,2.97
		c-0.74,0.693-1.498,1.368-2.255,2.042c-0.519,0.461-1.036,0.922-1.548,1.39c-0.162,0.147-0.309,0.313-0.453,0.479
		c-0.124,0.142-0.247,0.283-0.381,0.409c-0.01,0.008-0.044,0.021-0.082,0.03c-0.005-0.026-0.009-0.053-0.008-0.062
		c0.095-0.228,0.188-0.457,0.28-0.686c0.301-0.746,0.613-1.518,0.997-2.226c0.329-0.606,0.37-1.425,0.111-2.247
		c-0.297-0.942-0.941-1.738-1.724-2.128l-0.12-0.064c-0.171-0.093-0.364-0.198-0.569-0.198c-0.013,0-0.074,0.005-0.087,0.007
		c-0.471,0.074-0.714-0.187-1.037-0.529l-0.142-0.148c-0.417-0.424-0.862-0.796-1.325-1.105c-0.318-0.212-0.384-0.363-0.29-0.67
		C80.135,28.005,80.287,27.473,80.438,26.939z M53.647,146.634L53.647,146.634L53.647,146.634L53.647,146.634z"/>
</g>
</svg>
