<?xml version="1.0" encoding="iso-8859-1"?>
<!-- Generator: Adobe Illustrator 17.1.0, SVG Export Plug-In . SVG Version: 6.00 Build 0)  -->
<!DOCTYPE svg PUBLIC "-//W3C//DTD SVG 1.1//EN" "http://www.w3.org/Graphics/SVG/1.1/DTD/svg11.dtd">
<svg version="1.1" id="Capa_1" xmlns="http://www.w3.org/2000/svg" xmlns:xlink="http://www.w3.org/1999/xlink" x="0px" y="0px"
	 viewBox="0 0 150 150" style="enable-background:new 0 0 150 150;" xml:space="preserve">
<g>
	<path d="M8.702,93.308l0.142,0.612c0.177,0.764,0.547,2.355,1.959,2.355c0,0,0,0,0,0c0.454,0,0.984-0.162,1.668-0.508
		c4.032-2.043,7.957-4.075,11.651-6.454c1.59-1.023,3.488-1.542,5.641-1.542c2.787,0,5.78,0.9,8.065,2.417
		c-0.116,0.029-0.232,0.059-0.349,0.088c-0.634,0.161-1.27,0.321-1.913,0.446c-2.757,0.531-4.669,2.195-4.991,4.34
		c-0.433,2.887,0.951,6.327,3.085,7.667c1.923,1.208,3.955,1.469,6.044,0.776c0.919-0.304,1.826-0.646,2.732-0.987
		c0.971-0.366,1.976-0.744,2.974-1.064c0.217-0.07,0.436-0.151,0.655-0.233c1.093-0.408,2.053-0.637,2.87,0.215
		c0.167,0.174,0.419,0.262,0.749,0.262c0.393,0,0.877-0.123,1.201-0.239c1.447-0.516,2.689-0.362,4.462,0.591
		c2.888,1.551,6.092,3.083,9.795,4.684c4.805,2.077,9.972,2.234,14.531,2.373c0.487,0.015,0.974,0.02,1.489,0.02l1.275-0.006
		c0.066,0,0.132-0.001,0.199-0.001c-0.302,0.229-0.55,0.406-0.808,0.545c-3.168,1.709-4.362,4.585-3.451,8.317
		c0.789,3.229,2.299,7.097,7.016,8.362c0.438,0.118,0.914,0.177,1.414,0.177c2.055,0,4.11-0.96,5.114-2.391
		c3.213-4.577,3.653-9.801,3.677-13.84c0.009-1.508,0.289-1.792,1.873-1.904c7.794-0.548,15.984-2.663,25.772-6.654
		c4.309-1.757,8.624-3.693,12.797-5.565c1.82-0.816,3.64-1.633,5.465-2.438c0.093-0.041,0.195-0.078,0.298-0.117
		c0.401-0.148,0.855-0.316,1.122-0.783c0.429-0.751,0.963-1.685,0.819-2.543c-0.135-0.805-1.339-1.533-2.109-1.682
		c-0.729-0.14-1.476-0.179-2.197-0.216c-0.873-0.045-1.696-0.087-2.474-0.296c-1.071-0.288-2.113-0.882-3.122-1.457
		c-0.268-0.153-0.535-0.305-0.772-0.43c-0.06-0.062-0.151-0.327-0.141-0.511l0.048-0.922c0.166-3.172,0.338-6.453,0.614-9.665
		c0.059-0.68,0.331-1.362,0.619-2.083c0.086-0.217,0.173-0.434,0.253-0.649c0.431-1.159,0.212-1.847-0.047-2.22
		c-0.231-0.333-0.713-0.729-1.694-0.729l-0.195,0.005c-4.777,0.237-9.214-1.56-13.124-3.139c-1.793-0.725-3.739-1.119-5.578-1.46
		c-4.804-0.891-9.616-1.741-14.472-2.599l-5.26-0.932l-0.537-4.268c-0.031-0.248-0.24-0.434-0.49-0.438l-0.347-0.005
		c-0.2,0.008-0.461,0.176-0.5,0.421l-0.056,0.351c-0.13-0.537-0.258-1.068-0.385-1.594c-0.691-2.874-1.344-5.588-2.185-8.256
		c-1.053-3.342-2.501-6.912-4.558-11.237c-0.111-0.234-0.385-0.344-0.627-0.253c-0.243,0.092-0.376,0.354-0.305,0.604
		c0.232,0.823,0.477,1.642,0.722,2.462c0.545,1.827,1.11,3.716,1.514,5.597c0.518,2.405,0.895,4.494,0.589,6.669l-4.871-11.33
		c-0.1-0.231-0.418-0.337-0.661-0.265l-0.66,0.19c-0.141,0.041-0.257,0.141-0.317,0.274c-0.061,0.134-0.059,0.287,0.003,0.419
		c2.029,4.295,3.615,8.962,1.693,14.074l-5.177-5.959c-0.147-0.169-0.39-0.22-0.592-0.124c-0.203,0.096-0.316,0.315-0.278,0.537
		c0.146,0.846,0.524,1.587,0.89,2.305c0.536,1.05,1.01,1.98,0.751,3.119l-3.84-3.432c-0.169-0.152-0.418-0.169-0.608-0.045
		c-0.189,0.125-0.271,0.361-0.199,0.576l1.357,4.064l-3.987-3.718c-0.162-0.152-0.406-0.177-0.596-0.064
		c-0.191,0.113-0.285,0.339-0.229,0.554l1.014,3.963l-3.411-2.866c-0.148-0.125-0.356-0.151-0.53-0.072l-0.322,0.148
		c-0.243,0.111-0.355,0.394-0.255,0.641l1.087,2.699l-3.442-1.193c-0.193-0.067-0.412-0.008-0.545,0.149
		c-0.134,0.158-0.157,0.381-0.058,0.562l0.936,1.717l-1.719-0.861c-0.138-0.07-0.302-0.071-0.441-0.003
		c-0.14,0.067-0.24,0.196-0.272,0.348l-0.173,0.828c-0.417-0.234-0.835-0.459-1.25-0.682c-1.349-0.726-2.622-1.411-3.721-2.311
		c-1.636-1.34-3.352-1.991-5.245-1.991c-0.801,0-1.636,0.111-2.553,0.339c-5.241,1.307-9.355,3.399-12.579,6.397
		c-1.711,1.592-2.546,3.368-2.412,5.136c0.14,1.858,1.332,3.66,3.457,5.235c-0.185,0.199-0.362,0.381-0.547,0.482
		c-1.101,0.604-2.739,0.937-4.612,0.938c-3.096,0-6.314-0.892-8.01-2.219c-3.666-2.872-7.487-5.663-11.183-8.362l-0.086-0.063
		c-0.764-0.558-1.293-0.796-1.77-0.796c-0.971,0-1.423,0.959-1.77,1.857C5.75,71.479,5.315,80.736,7.904,90.069
		C8.2,91.136,8.455,92.24,8.702,93.308z"/>
</g>
</svg>
