<?xml version="1.0" encoding="iso-8859-1"?>
<!-- Generator: Adobe Illustrator 17.1.0, SVG Export Plug-In . SVG Version: 6.00 Build 0)  -->
<!DOCTYPE svg PUBLIC "-//W3C//DTD SVG 1.1//EN" "http://www.w3.org/Graphics/SVG/1.1/DTD/svg11.dtd">
<svg version="1.1" id="Capa_1" xmlns="http://www.w3.org/2000/svg" xmlns:xlink="http://www.w3.org/1999/xlink" x="0px" y="0px"
	 viewBox="0 0 150 150" style="enable-background:new 0 0 150 150;" xml:space="preserve">
<g>
	<path d="M135.407,57.681c-0.57-2.707-5.841-6.411-8.548-7.55c0,0-0.712-1.852-2.422-2.564c-1.71-0.712-3.847-7.693-3.704,0.855
		c0,0-4.701-2.422-6.981-2.422c0,0-1.852,3.277,0,6.838c0,0-3.277,1.425-8.405,3.846c-5.129,2.422-16.383,1.995-27.78-2.564
		c-11.397-4.559-23.934-4.844-31.199,1.425c0,0-10.257,2.422-12.964,5.699c-2.707,3.277-18.093,7.408-24.361-3.989
		c-6.268-11.397-4.986,4.416-2.564,7.978c2.422,3.562,10.827,19.375,33.051,4.559c0,0,1.567,9.403,8.833,12.252
		c7.266,2.849,7.266,11.967,6.696,13.961c-0.57,1.994,0.712,9.972,0,12.252c-0.712,2.279,4.701,6.268,5.983,13.534
		c0,0-0.142,3.846,3.277,0c0,0,0.712,1.567,2.849,0.57c0,0,3.277,1.567,3.846-1.425c0.57-2.992,0.57-3.989-2.564-6.126
		c-3.134-2.137-10.685-11.682-4.844-16.811c5.841-5.129,6.981-6.411,6.981-13.107c0,0,10.827,2.422,12.679,6.981
		c0,0-0.855,7.693-1.282,8.975s-10.257,1.852-12.964,8.69c0,0,0.142,1.71,1.425,1.567c0,0,0.57,2.707,1.994,1.71
		s6.126-4.559,10.97-4.416c4.844,0.142,4.274-3.989,5.129-5.414s2.279-5.556,2.279-6.126c0,0,3.846,4.274,3.562,6.553
		c-0.285,2.279-1.71,1.995-3.277,2.279s-5.129,3.134-4.559,4.416c0,0-3.134,3.704-1.14,3.704c1.994,0,7.55-1.71,9.545-3.562
		c1.994-1.852,6.553-1.852,6.268-5.983s-0.855-8.833-0.855-8.833s16.098-7.55,21.369-14.958c5.271-7.408,7.266-9.403,12.394-8.12
		s5.983-0.427,5.983-0.427s6.411-3.704,5.271-6.696C145.38,65.231,135.977,60.387,135.407,57.681z"/>
</g>
</svg>
