<?xml version="1.0" encoding="iso-8859-1"?>
<!-- Generator: Adobe Illustrator 17.1.0, SVG Export Plug-In . SVG Version: 6.00 Build 0)  -->
<!DOCTYPE svg PUBLIC "-//W3C//DTD SVG 1.1//EN" "http://www.w3.org/Graphics/SVG/1.1/DTD/svg11.dtd">
<svg version="1.1" id="Capa_1" xmlns="http://www.w3.org/2000/svg" xmlns:xlink="http://www.w3.org/1999/xlink" x="0px" y="0px"
	 viewBox="0 0 150 150" style="enable-background:new 0 0 150 150;" xml:space="preserve">
<g>
	<path d="M11.298,89.612c8.356,1.24,27.417-5.614,32.313-9.988c4.896-4.374,6.985-0.588,6.267,1.893
		c-0.526,1.818,0.666,2.97,1.34,3.455c0.224,0.161,0.602,0.4,0.818,0.572c7.249,5.779,3.75,11.685,1.89,14.25
		c-1.855,2.558,5.369,4.922,11.132,10.486c0.199,0.192,0.58,0.347,0.857,0.346c5.536-0.027,7.537,0.705,8.113,0.997
		c0,0,0.045,0.026,0.1,0.059c0.055,0.032-0.031,0.243-0.133,0.499c-0.669,1.679-0.307,5.316-0.485,6.74
		c-0.196,1.567-1.632,1.24-1.24,2.481c0.392,1.24,4.178,2.872,5.549,3.46c1.051,0.45,3.061-0.557,3.942-1.052
		c0.241-0.135,0.65-0.195,0.925-0.175c0.594,0.045,1.572-0.053,2.053-1.058c0.718-1.501-2.089-1.501-3.656-3.329
		c-1.181-1.378-0.285-3.127,0.228-3.904c0.152-0.23,0.514-0.367,0.788-0.326c7.548,1.143,9.394-0.873,13.868-7.52
		c4.57-6.789,4.961,2.611,9.922-4.831c4.961-7.442,8.617,1.567,7.703-3.917c-0.833-4.996,3.32-4.573,4.263-3.076
		c0.147,0.234,0.212,0.687,0.218,0.963c0.016,0.84-0.254,1.409-0.49,1.743c-0.159,0.226-0.128,0.284,0.122,0.165
		c5.268-2.499,2.617-6.461,5.157-6.715c2.611-0.261,6.006-2.219,7.181-3.656c1.175-1.436,1.306-5.092,8.356-2.089
		c5.986,2.55,4.63-2.714,4.085-4.36c-0.087-0.262,0.048-0.534,0.294-0.66c2.249-1.157,1.013-4.542,1.627-5.033
		c0.653-0.522,2.219-3.133,0.653-3.503c-1.567-0.37-11.62-2.503-13.056-7.072c-1.436-4.57-10.967-7.311-7.833-5.271
		s0.653,2.008-8.878,0.441s-2.219,1.567-5.614,1.306c-3.394-0.261-10.053,2.872-5.875,1.958c4.178-0.914,4.308,6.659-3.264,2.249
		c-7.572-4.41-14.622,2.452-11.62,0.754c3.003-1.697,9.661,0,4.831,0s-1.306,2.611-2.307,3.786
		c-0.603,0.708-0.479,1.337-0.286,1.725c0.123,0.247,0.095,0.526-0.154,0.646c-1.268,0.615-5.144,1.983-9.831-1.283
		c-5.745-4.004-21.237-8.878-48.393,7.137C8.37,93.298,7.865,80.276,8.014,77.489c0.015-0.276-0.182-0.535-0.457-0.515
		C3.478,77.274,3.258,88.418,11.298,89.612z M81.93,98.751c2.742,0.979,0.653,2.481,0,2.611c-0.653,0.131-5.679-1.958-5.81-3.656
		c-0.131-1.697-1.044-3.264-1.044-3.264C76.381,95.487,79.188,97.771,81.93,98.751z M65.022,97.315
		c0.522-1.436,1.741-2.263,1.741-2.263s0.435,2.916-0.218,4.091c-0.653,1.175,0.479,5.396,4.482,4.918
		c4.004-0.479,7.616,2.655,7.616,2.655c-0.957,0.914-1.828,2.568-1.828,2.568s-0.261-3.96-5.483-3.743
		c-5.222,0.218-7.355-3.83-7.355-3.83S64.5,98.751,65.022,97.315z"/>
</g>
</svg>
