<?xml version="1.0" encoding="iso-8859-1"?>
<!-- Generator: Adobe Illustrator 17.1.0, SVG Export Plug-In . SVG Version: 6.00 Build 0)  -->
<!DOCTYPE svg PUBLIC "-//W3C//DTD SVG 1.1//EN" "http://www.w3.org/Graphics/SVG/1.1/DTD/svg11.dtd">
<svg version="1.1" id="Capa_1" xmlns="http://www.w3.org/2000/svg" xmlns:xlink="http://www.w3.org/1999/xlink" x="0px" y="0px"
	 viewBox="0 0 150 150" style="enable-background:new 0 0 150 150;" xml:space="preserve">
<g>
	<path d="M135.766,41.143c-2.789-2.644-5.665-5.196-8.476-7.818c-3.628-3.383-7.231-6.792-10.83-10.205
		c-0.344-0.326-0.683-0.72-0.86-1.151c-0.705-1.713-1.54-3.399-1.315-5.352c0.195-1.692-0.272-3.323-0.672-4.928
		c-0.235-0.941-0.705-1.936-1.36-2.634c-0.9-0.958-2.01-1.77-3.155-2.428c-0.78-0.448-1.765-0.558-2.672-0.76
		c-2.016-0.448-4.072-0.344-6.116-0.355c-0.365-0.002-0.753,0.075-1.091,0.213c-0.625,0.255-1.22,0.335-1.918,0.329
		c-0.715-0.006-1.448,0.492-2.149,0.821c-0.469,0.22-0.914,0.502-1.337,0.803c-0.482,0.343-0.987,0.685-1.377,1.121
		c-1.106,1.236-2.218,2.476-3.21,3.802c-0.655,0.875-1.128,1.891-1.633,2.869c-0.095,0.184,0.042,0.489,0.077,0.769
		c-0.286,0.187-0.563,0.368-0.856,0.56c0.536,0.588,0.415,1.169-0.044,1.701c0.826,0.799,0.817,0.794,0.318,1.708
		c-0.159,0.291-0.279,0.608-0.377,0.926c-0.146,0.477,0.016,0.775,0.628,0.709c-0.097,0.422-0.184,0.743-0.243,1.069
		c-0.053,0.292-0.199,0.647-0.093,0.876c0.687,1.489,0.033,3.098,0.476,4.627c0.213,0.735,0.074,1.563,0.385,2.349
		c0.281,0.71-0.282,1.733-0.969,2.154c-0.121,0.074-0.279,0.158-0.407,0.142c-2.811-0.357-5.468,0.482-8.003,1.405
		c-1.988,0.723-4.124,1.211-5.897,2.541c-0.783,0.588-1.757,0.971-2.698,1.287c-1.088,0.365-2.245,0.52-3.355,0.828
		c-1.398,0.387-2.853,0.679-4.148,1.295c-2.074,0.987-4.296,1.487-6.426,2.27c-2.131,0.783-4.216,1.692-6.327,2.529
		c-0.897,0.356-1.818,0.65-2.713,1.009c-1.037,0.416-2.114,0.776-3.075,1.331c-2.167,1.25-4.184,2.72-6.033,4.42
		c-0.875,0.804-1.742,1.689-2.773,2.234c-1.334,0.706-2.792,1.389-4.261,1.573c-1.987,0.25-3.822,0.895-5.689,1.482
		c-3.222,1.012-6.522,1.459-9.882,1.689c-2.526,0.173-5.038,0.567-7.553,0.89c-0.339,0.044-0.659,0.241-0.985,0.366
		c0.182,0.611,0.615,0.539,0.956,0.574c2.041,0.21,4.084,0.402,6.127,0.591c0.962,0.089,1.925,0.161,3.106,0.258
		c-0.337,0.195-0.488,0.313-0.66,0.377c-1.153,0.43-2.306,0.859-3.467,1.266c-0.458,0.16-0.807,0.38-0.838,1.038
		c0.984,0.37,2.004,0.753,3.024,1.136c0.005,0.075,0.011,0.15,0.017,0.225c-0.834,0.22-1.669,0.438-2.502,0.661
		c-0.467,0.125-0.96,0.228-0.935,0.961c0.319-0.024,0.598-0.045,0.878-0.066c0.012,0.076,0.051,0.16,0.026,0.19
		c-0.182,0.217-0.341,0.495-0.578,0.615c-0.399,0.202-0.491,0.49-0.524,0.896c-0.037,0.469-0.164,0.932-0.278,1.537
		c0.427,0.016,0.783,0.056,1.136,0.036c0.595-0.033,1.191-0.165,1.783-0.146c1.068,0.033,2.134,0.132,3.197,0.24
		c0.185,0.019,0.349,0.226,0.528,0.338c0.432,0.27,0.848,0.716,1.306,0.767c1.28,0.141,2.399,0.742,3.609,1.068
		c0.36,0.097,0.719,0.196,1.178,0.32c-0.069,0.726,0.48,1.033,1.06,1.262c1.065,0.421,2.131,1.048,3.229,1.128
		c1.557,0.112,2.749,1.026,4.152,1.44c0.476,0.14,0.838,0.676,1.246,1.038c0.619,0.548,1.011,1.239,1.237,2.122
		c0.8-0.349,1.318,0.17,1.901,0.534c0.404,0.253,0.847,0.443,1.271,0.663c0.978,0.505,1.938,1.048,2.938,1.506
		c0.833,0.382,1.701,0.701,2.574,0.981c1.159,0.372,2.332,0.713,3.513,1.006c1.047,0.26,2.108,0.496,3.176,0.628
		c0.773,0.095,1.003,0.532,1.08,1.18c0.031,0.259,0.103,0.533,0.053,0.779c-0.241,1.18,0.17,2.21,0.713,3.201
		c0.283,0.516,0.238,0.992,0.014,1.496c-0.953,2.147-1.949,4.264-3.213,6.26c-0.69,1.089-1.088,2.287-0.582,3.695
		c0.677,1.886,1.186,3.838,1.678,5.785c0.855,3.386,1.651,6.787,2.454,10.187c0.445,1.883,0.875,3.77,1.268,5.665
		c0.188,0.906,0.587,1.8,0.686,2.654c0.117,1.011,0.655,2.079,0.019,3.2c-0.342,0.603-0.281,1.655-0.333,2.321
		c-0.078,1.006-0.217,2.135-0.045,3.127c0.38,2.19,1.22,3.95-0.87,5.604c-1.445,1.143-3.243,1.835-4.852,2.782
		c-0.435,0.256-0.807,0.617-1.323,1.074c-0.237,0.209-0.182,0.425,0.132,0.462c1.998,0.236,3.26-0.47,4.4-1.547
		c2.749-2.596,6.828-2.487,10.132-1.296c1.902,0.686,3.674,1.908,5.616,2.251c1.604,0.283,3.901-0.787,5.267-0.535
		c0.31,0.057,0.422-0.031,0.263-0.304c-0.778-1.335-1.592-1.531-3.68-1.321c-2.479,0.249-4.757-0.202-6.927-2.078
		c-0.239-0.206-0.167-0.385,0.149-0.385h8.171c0.316,0,0.509-0.12,0.432-0.269c-0.077-0.148-0.202-0.532-0.111-0.835
		c0.125-0.42,0.551-0.886,1.877-0.675c0.312,0.05,0.368-0.054,0.115-0.243c-0.895-0.666-2.203-1.339-3.086-1.115
		c-1.649,0.417-3.19,1.239-4.824,1.736c-1.737,0.529-2.966,0.128-3.833-1.214c-0.171-0.265-0.039-0.416,0.273-0.367
		c1.155,0.181,1.735-0.353,1.802-1.443c0.019-0.315,0.248-0.558,0.564-0.542c0.214,0.011,0.423,0.022,0.647,0.033
		c0.315,0.016,0.389-0.151,0.145-0.352c-1.979-1.622-3.278-0.571-4.516,1.268c-0.4,0.594-0.733-0.227-0.673-0.602
		c0.05-0.31,0.307-0.565,0.526-0.766c0.562-0.518,1.395-0.772,2.1-1.019c0.61-0.214,3.308-0.726,2.986-1.788
		c-0.233-0.769-0.547-1.513-0.892-2.453c0.088-0.74,0.169-1.728,0.331-2.703c0.263-1.579,0.576-3.15,0.876-4.723
		c0.241-1.262,0.145-2.498-0.345-3.68c-0.591-1.428-1.385-2.761-1.876-4.243c-0.679-2.049-1.606-4.023-2.177-6.097
		c-0.424-1.542-0.77-3.084-1.576-4.481c0.088-1.192-0.448-2.238-0.801-3.321c-0.576-1.77-1.213-3.521-1.801-5.287
		c-0.352-1.056-0.789-2.11-0.937-3.198c-0.085-0.627,0.275-1.346,0.554-1.971c0.088-0.197,0.639-0.39,0.844-0.295
		c0.812,0.376,1.384-0.083,1.911-0.501c0.468-0.371,0.922-0.485,1.502-0.567c0.843-0.119,1.815,0.127,2.516-0.661
		c0.11-0.124,0.487-0.042,0.733-0.007c0.799,0.117,1.52-0.012,2.221-0.457c0.355-0.224,0.831-0.34,1.256-0.351
		c0.66-0.018,1.322,0.114,1.985,0.145c0.365,0.017,0.733-0.034,1.099-0.068c0.134-0.013,0.355-0.13,0.382-0.091
		c0.46,0.651,1.029,0.206,1.542,0.156c1.295-0.124,2.59-0.259,3.879-0.433c3.086-0.418,6.036-1.254,8.766-2.809
		c1.09-0.621,2.295-1.046,3.372-1.686c1.888-1.122,3.757-2.286,5.556-3.543c0.81-0.566,1.473-1.365,2.135-2.117
		c1.449-1.648,2.86-3.33,4.272-5.01c0.262-0.311,0.49-0.662,0.674-1.025c0.39-0.772,0.833-1.361,1.854-1.306
		c0.314,0.017,0.744-0.355,0.96-0.662c0.337-0.478,0.613-1.031,0.775-1.592c0.237-0.821,0.347-1.679,0.519-2.52
		c0.073-0.355,0.168-0.704,0.276-1.15c0.324,0.156,0.543,0.262,0.822,0.396c0.051-0.07,0.156-0.151,0.171-0.245
		c0.187-1.176,0.401-2.349,0.53-3.531c0.23-2.112,0.418-4.229,0.603-6.346c0.107-1.226,0.177-2.456,0.255-3.684
		c0.083-1.299,0.028-2.623,0.275-3.89c0.177-0.91,0.308-1.848,0.683-2.744c0.605-1.448,1.032-2.974,1.079-4.571
		c0.002-0.074,0-0.151-0.017-0.222c-0.263-1.062-0.528-2.123-0.808-3.242c0.137-0.037,0.327-0.087,0.554-0.147
		c-0.374-2.05-1.056-3.99-1.9-6.001c0.38-0.104,0.688-0.263,0.996-0.26c1.702,0.014,3.407,0.03,5.105,0.131
		c0.491,0.029,1.002,0.276,1.442,0.531c2.916,1.687,5.547,3.771,8.195,5.842c2.791,2.182,5.706,4.205,8.555,6.312
		c1.56,1.153,3.093,2.342,4.647,3.503c0.417,0.312,0.854,0.603,1.303,0.867c0.423,0.249,0.879,0.411,1.524,0.123
		c-0.193-0.424-0.307-0.902-0.587-1.245C137.665,43.239,136.788,42.112,135.766,41.143z M56.917,124.253
		c-0.451-1.082-0.51-1.564-0.32-2.402c0.422-0.043,0.844-0.087,1.302-0.134c0.302-0.387,0.585-0.837,0.955-1.197
		c0.355-0.346,0.546-0.925,1.195-1.062C59.341,121.358,57.981,122.666,56.917,124.253z M60.888,127.592
		c0.121,1.027-0.218,1.893,0.009,2.509c0.356,0.966-0.36,2.409-0.813,3.078c-0.587-0.535-0.606-2.206-0.438-2.798
		C59.9,129.489,60.394,128.666,60.888,127.592z M56.537,102.573c0.819,2.912,1.953,5.726,2.675,8.665
		c0.346,1.409,0.659,2.827,0.963,4.246c0.158,0.737-0.042,1.405-0.549,1.964c-0.501,0.552-1.055,1.059-1.522,1.637
		c-0.653,0.808-1.357,1.603-1.523,2.691c-0.214-0.402-0.515-0.785-0.605-1.213c-0.86-4.078-1.686-8.163-2.51-12.249
		c-0.167-0.827-0.363-1.637-0.16-2.518c0.264-1.142,0.35-2.324,0.568-3.479c0.158-0.84,0-1.537-0.639-2.123
		c-0.516-0.473-0.612-1.12-0.484-1.739c0.165-0.798,0.455-1.571,0.721-2.345c0.072-0.211,0.249-0.386,0.434-0.661
		c0.294,0.589,0.579,1.035,0.749,1.521C55.308,98.829,56.004,100.679,56.537,102.573z M93.78,8.732
		c-0.024-0.095-0.049-0.19-0.073-0.285c0.251-0.035,0.503-0.069,0.754-0.104c0.011,0.044,0.022,0.088,0.033,0.132
		C94.255,8.561,94.017,8.646,93.78,8.732z"/>
</g>
</svg>
