<?xml version="1.0" encoding="iso-8859-1"?>
<!-- Generator: Adobe Illustrator 17.1.0, SVG Export Plug-In . SVG Version: 6.00 Build 0)  -->
<!DOCTYPE svg PUBLIC "-//W3C//DTD SVG 1.1//EN" "http://www.w3.org/Graphics/SVG/1.1/DTD/svg11.dtd">
<svg version="1.1" id="Capa_1" xmlns="http://www.w3.org/2000/svg" xmlns:xlink="http://www.w3.org/1999/xlink" x="0px" y="0px"
	 viewBox="0 0 150 150" style="enable-background:new 0 0 150 150;" xml:space="preserve">
<g>
	<path d="M143.259,81.472c-2.125,0.474-4.252,1.076-6.309,1.658c-0.653,0.185-1.306,0.37-1.959,0.551l-0.013-0.021l6.785-6.138
		c0.156-0.141,0.204-0.406,0.124-0.601c-0.065-0.327-0.187-0.937-0.66-1.196c-8.43-4.623-17.4-9.528-26.247-14.212
		c-0.882-0.467-1.864-0.709-2.813-0.944c-0.749-0.185-1.457-0.36-2.12-0.636c-1.648-0.685-3.17-1.5-4.526-2.422
		c-1.769-1.204-3.465-2.479-5.261-3.828c-0.757-0.569-1.525-1.146-2.312-1.727c-0.128-0.094-0.294-0.124-0.446-0.075
		c-0.152,0.047-0.273,0.165-0.324,0.315l-0.421,1.237l-3.822-1.922c-0.15-0.075-0.328-0.072-0.473,0.013
		c-0.146,0.083-0.24,0.234-0.25,0.402l-0.108,1.706l-3.485-1.663c-0.128-0.062-0.276-0.064-0.407-0.011
		c-0.131,0.055-0.233,0.163-0.28,0.296l-0.687,1.958l-2.42-0.645c-0.257-0.068-0.521,0.076-0.603,0.327l-0.457,1.381l-2.933-1.565
		c-0.172-0.093-0.384-0.075-0.541,0.045c-0.156,0.12-0.227,0.32-0.181,0.512l0.448,1.884l-2.244-0.918
		c-0.132-0.053-0.28-0.049-0.408,0.013l-1.518,0.744c-1.268,0.624-2.362,1.163-3.446,1.637c-0.097,0-0.291-0.058-0.432-0.1
		c-0.188-0.056-0.352-0.105-0.507-0.105c-0.169,0-0.406,0.115-0.498,0.257c-0.905,1.396-1.778,1.575-2.438,1.575
		c-0.721,0-1.483-0.254-2.29-0.523c-0.847-0.282-1.724-0.574-2.691-0.574c-0.001,0-0.002,0-0.004,0
		c-2.275,0.047-4.897,0.169-7.23,1.022c-2.68,0.981-5.24,2.23-7.715,3.438c-1.006,0.491-1.996,0.975-2.969,1.427
		c-0.087,0.041-0.161,0.106-0.212,0.188l-5.198,8.289c-0.09,0.144-0.102,0.323-0.03,0.476c0.071,0.154,0.215,0.261,0.383,0.285
		l2.9,0.414c-3.023,0.982-5.932,0.698-8.656-0.841c-2.09-1.18-4.15-2.513-6.142-3.802c-0.851-0.55-1.702-1.101-2.558-1.642
		c-4.523-2.86-9.044-4.251-13.82-4.251c-2.805,0-5.728,0.502-8.686,1.494c-0.211,0.071-0.35,0.272-0.341,0.494
		s0.164,0.412,0.379,0.465c1.042,0.258,2.104,0.313,3.131,0.367c2.198,0.115,4.124,0.215,5.639,2.11l-2.05,0.352
		c-0.229,0.039-0.401,0.231-0.415,0.463c-0.014,0.232,0.135,0.443,0.358,0.509l3.416,1.006l-1.594,1.181
		c-0.13,0.097-0.206,0.25-0.203,0.412s0.085,0.312,0.219,0.403l2.056,1.396l-3.203,1.173c-0.205,0.075-0.337,0.273-0.328,0.491
		s0.159,0.404,0.37,0.461l2.708,0.729c0.141,1.007,0.288,1.982,0.431,2.937c0.357,2.378,0.695,4.625,0.875,6.874
		c0.021,0.265,0.05,0.534,0.078,0.806c0.214,2.033,0.398,3.789-1.936,4.794c-0.167,0.072-0.281,0.229-0.3,0.409
		c-0.018,0.181,0.062,0.357,0.211,0.461l1.49,1.04c-1.998,3.75-4.062,6.13-7.885,6.463c-0.264,0.023-0.464,0.248-0.456,0.513
		c0.008,0.265,0.222,0.478,0.486,0.485c8.757,0.229,18.197-2.812,25.014-8.021c3.253-2.486,7.058-5.138,11.05-5.138
		c0.986,0,1.974,0.162,2.939,0.48c0.385,0.906,0.73,1.764,1.059,2.582c0.76,1.888,1.417,3.519,2.28,5.086
		c1.631,2.962,1.985,5.339-1.59,7.315c-0.196,0.108-0.296,0.334-0.245,0.552c0.051,0.218,0.242,0.375,0.465,0.385
		c5.688,0.244,12.743-1.435,17.253-4.029c2.322-1.336,4.774-2.55,7.146-3.725l1.179-0.584c0.326-0.161,0.867-0.216,1.127-0.116
		c3.876,1.513,8.116,2.218,13.342,2.218c3.269,0,6.521-0.26,9.965-0.536c0.69-0.055,1.383-0.111,2.079-0.164
		c-0.106,0.092-0.21,0.182-0.313,0.271c-0.93,0.803-1.733,1.497-2.478,2.266c-1.028,1.063-1.501,2.056-1.444,3.035
		c0.053,0.909,0.577,1.777,1.558,2.579c0.357,0.292,0.712,0.589,1.069,0.889c1.692,1.418,3.442,2.886,5.898,4.2
		c0.074,0.04,0.155,0.059,0.236,0.059c0.084,0,0.168-0.021,0.243-0.063c0.149-0.083,0.245-0.236,0.256-0.406l0.783-12.423
		l7.934-2.362c9.093-2.707,18.133-5.397,27.166-8.11l0.436-0.129c1.267-0.373,2.577-0.758,3.551-1.589
		c0.843-0.718,0.946-2.281,0.951-3.395c0-0.133-0.09-0.33-0.184-0.424C145.59,81.732,144.012,81.302,143.259,81.472z"/>
</g>
</svg>
