<?xml version="1.0" encoding="iso-8859-1"?>
<!-- Generator: Adobe Illustrator 17.1.0, SVG Export Plug-In . SVG Version: 6.00 Build 0)  -->
<!DOCTYPE svg PUBLIC "-//W3C//DTD SVG 1.1//EN" "http://www.w3.org/Graphics/SVG/1.1/DTD/svg11.dtd">
<svg version="1.1" id="Capa_1" xmlns="http://www.w3.org/2000/svg" xmlns:xlink="http://www.w3.org/1999/xlink" x="0px" y="0px"
	 viewBox="0 0 150 150" style="enable-background:new 0 0 150 150;" xml:space="preserve">
<g>
	<path d="M5.194,48.171c0.815,2.572,1.145,3.834,1.315,6.515c0.117,1.844,0.35,5.332,2.302,6.274
		c0.391,0.188,0.74,0.359,1.096,0.512c0.376,0.162,0.482,0.302,0.048,0.544c-2.558,1.426,0.941,6.76,1.974,8.378
		c0.109,0.17,0.354,0.27,0.556,0.36c0.22,0.098,0.448,0.177,0.657,0.25c0.128,0.044,0.175,0.176,0.105,0.292
		c-1.625,2.678-1.17,5.944-0.022,8.793c1.371,3.399,2.164,6.539,4.876,9.214c0.246,0.242,3.836,2.544,3.801,2.365
		c0.082,0.423,0.181,0.73,0.048,1.146c-1.727,0.131-3.338-0.031-4.615,1.427c-0.938,1.071-1.388,2.473-1.815,3.832
		c-1.244,3.962-1.623,9.285-5.173,11.435c-0.002,0.001-0.004,0.002-0.005,0.003c-0.116,0.07-0.099,0.121,0.035,0.137
		c0.812,0.093,1.49,0.736,2.334,0.356c0.431-0.193,0.876-0.383,1.254-0.658c0.497-0.362,1.021-0.743,1.376-1.231
		c0.457-0.63,0.778-1.364,1.12-2.07c0.283-0.584,0.524-1.189,0.756-1.795c0.053-0.138,0.008-0.322-0.017-0.481
		c-0.023-0.152-0.052-0.304-0.077-0.429c-0.027-0.132,0.032-0.314,0.127-0.411c1.229-1.251,1.529-2.715,1.655-4.28
		c0.011-0.135,0.112-0.306,0.242-0.341c0.508-0.139,0.998,0.254,1.518,0.282c0.112,0.006,0.221,0.09,0.33,0.087
		c0.931-0.023,1.863-0.059,2.794-0.086c0.044-0.001,0.088,0.013,0.158,0.036c0.086,0.028,0.074,0.095-0.026,0.157
		c-0.073,0.045-0.128,0.078-0.187,0.099c-4,1.373-4.524,1.99-6.049,5.982c-1.361,3.561-2.723,7.121-4.085,10.681
		c-0.423,1.107-0.852,2.224-1.44,3.248c-0.159,0.277-0.329,0.546-0.514,0.807c-0.87,1.228-2.113,2.26-3.587,2.561
		c0.535-0.038,2.517,0.283,2.901,0.096c4.118-2.01,6.345-5.579,8.067-9.841c0.418-1.035,1.405-6.922,2.342-7.064
		c0.483-0.073,0.966-0.272,1.441-0.249c1.724,0.083,3.396-0.24,5.127-0.635c0.132-0.03,0.208,0.051,0.174,0.181
		c-0.127,0.477-0.215,0.881-0.375,1.255c-0.126,0.295-0.427,0.511-0.583,0.799c-2.551,4.688-4.602,11.896-4.983,17.204
		c-0.01,0.135-0.116,0.289-0.24,0.343c-1.668,0.724-3.388,1.602-4.578,3.01c0.146-0.172,4.46-0.548,5.402-1.21
		c1.616-1.135,2.943-2.896,3.8-4.66c1.351-2.782,3.704-7.436,3.245-10.569c-0.057-0.388,0.013-0.793,0.056-1.174
		c0.015-0.134,0.119-0.297,0.239-0.359c2.084-1.069,4.412-1.064,6.624-1.652c0.131-0.035,0.27,0.039,0.304,0.17
		c0.416,1.604-0.687,2.489-1.253,3.82c-0.763,1.794-1.1,3.918-1.628,5.798c-1.091,3.882-2.184,7.763-3.272,11.646
		c-0.318,1.134-0.648,2.292-1.324,3.257c-0.986,1.408-3.711,2.772-3.429,4.508c0.58-0.137,0.978-0.455,1.493-0.771
		c0.077-0.047,0.223,0.035,0.327,0.011c0.223-0.051,0.442-0.126,0.658-0.204c0.068-0.024,0.115-0.12,0.181-0.133
		c0.694-0.13,1.179-0.553,1.637-1.063c2.347-2.616,4.232-4.414,5.347-7.891c1.3-4.057,4.831-10.173,2.985-14.284
		c-0.056-0.124-0.061-0.244-0.015-0.268s0.178,0.012,0.292,0.083c0.164,0.102,0.329,0.204,0.506,0.273
		c0.876,0.344,3.187-1.454,4.308-1.516c3.945-0.221,8.92,1.453,12.813,2.224c-2.092,2.454-2.529,6.192-1.059,9.063
		c0.984,1.922,2.774,3.363,4.81,4.045c2.427,0.812,3.089,1.781,5.002,3.301c1.974,1.568,4.585,2.156,6.991,2.688
		c6.919,1.531,13.83,3.544,20.99,2.759c3.451-0.378,6.841-1.32,9.992-2.777c1.499-0.693,2.946-1.502,4.317-2.423
		c1.243-0.835,2.093-2.082,3.466-2.74c-4.911,0.004-9.805,2.665-14.798,3.071c-4.645,0.378-9.521-0.346-13.409-2.915
		c-0.034-0.022,7.038-3.347,7.617-3.534c3.177-1.028,6.421-1.849,9.704-2.458c3.323-0.616,8.488-2.611,11.689-0.975
		c-1.14-3.476-8.665-4.455-11.757-4.961c-4.368-0.715-8.654-1.85-12.955-2.878c-3-0.717-6.704-2.139-9.759-1.231
		c1.439-1.653,3.022-3.435,4.017-5.256c0.076-0.139,0.134-0.373,0.236-0.395c0.389-0.084,0.804-0.178,1.188-0.122
		c1.685,0.25,3.214,0.451,4.921,0.676c5.386,0.708,0.857-2.998,3.174-4.024c0.659-0.291,1.328,0.321,1.891,0.769
		c1.745,1.389,2.098-0.508,1.93-1.79c0-0.001,0-0.003-0.001-0.004c-0.358-2.745,6.431-5.368,8.193-6.442
		c2.416-1.472,3.789-2.205,6.6-2.242c3.167-0.041,6.174-0.951,9.257-1.44c0.413-0.065,0.881,0.069,1.296,0.2
		c0.528,0.167,1.014,0.395,1.606,0.39c1.549-0.012,2.991,0.686,4.568,0.596c2.134-0.122,4.451-0.969,6.544-1.424
		c3.412-0.742,5.819,1.643,8.195,3.561c0.611,0.494,4.903,4.273,5.605,2.656c0.91-2.096-3.931-6.13-4.849-7.729
		c-1.765-3.078-3.609-6.139-6.852-7.856c-3.517-1.862-12.945-2.186-15.37,1.906c-0.103,0.174-0.367,0.259-0.568,0.364
		c-0.696,0.363-0.58,1.242-1.102,1.709c-0.091,0.082-0.268,0.179-0.348,0.143c-0.612-0.28-1.201-0.564-1.883-0.71
		c-0.734-0.157-1.472-0.233-2.195-0.372c-0.533-0.102-1.019,0.043-1.502-0.033c-1.891-0.299-3.624,0.478-5.435,0.711
		c-0.826,0.107-1.439,0.542-2.08,1.052c-0.378,0.301-0.737,0.552-0.999,0.968c-0.058,0.093-0.413,0.062-0.6-0.003
		c-0.563-0.196-1.114-0.426-1.798-0.698c-1.439-0.574-1.578-4.484-1.953-5.706c-0.456-1.485-1.438-2.993-2.96-3.307
		c-1.491-0.307-3.007,0.68-3.797,1.982c-0.79,1.301-1.012,2.857-1.218,4.365c-0.414,3.026-0.827,6.052-1.241,9.078
		c-0.069,0.503-0.421,1.176-0.878,0.954c-0.259-0.126-0.307-0.468-0.321-0.755c-0.247-5.032-0.008-8.619-1.953-13.331
		c-0.517-1.252-1.777-2.503-3.049-2.039c-1.313,0.479-1.424,2.266-1.302,3.658c0.248,2.822,0.497,5.644,0.745,8.466
		c0.043,0.485,0.01,1.101-0.442,1.283c-0.555,0.223-1.029-0.449-1.253-1.003c-1.813-4.48-3.487-10.264-8.706-11.743
		c-5.711-1.618-3.545,6.245-3.007,9.382c0.181,1.056-0.526,1.606-1.573,1.356c-0.874-0.208-1.302-0.867-1.825-1.467
		c-3.052-3.507-6.573-6.257-11.286-7.017c-1.794-0.289-4.386-0.544-6.112,0.191c-1.921,0.818-1.876,1.82-2.781,3.723
		c-0.001,0.002-0.002,0.003-0.002,0.005c-0.058,0.122-0.134,0.272-0.109,0.389c0.124,0.583-0.215,0.676-0.677,0.844
		c-0.796,0.289-1.332-0.142-1.868-0.532c-2-1.456-4.272-1.322-6.2-2.811c-2.442-1.887-4.603-4.352-6.847-6.474
		c-2.62-3.524-6.276-6.268-10.392-7.797c0.099-3.34-1.714-6.672-4.573-8.403c0.455-3.469-0.497-7.102-2.595-9.903
		c-1.116-6.517-1.267-13.199-0.448-19.76c1.975,1.517,3.875,3.255,6.107,4.381c1.2,0.606,2.367,1.291,3.608,1.797
		c1.195,0.487,2.426,1.095,3.789,0.512c0.106-0.045,0.215-0.081,0.325-0.115c0.129-0.041,0.229-0.113,0.225-0.161
		c-0.005-0.048-0.118-0.08-0.253-0.075c-0.173,0.006-0.347,0.013-0.516,0.043c-1.275,0.23-2.401-0.341-3.214-1.338
		c-0.713-0.873-0.796-1.913-0.751-2.841c0.107-2.176-0.567-4.19-0.957-6.262c-0.068-0.36-0.333-0.724-0.6-0.996
		c-0.716-0.729-1.411-1.516-2.251-2.076c-3.141-2.095-8.178-1.806-10.563,1.322c-1.675,2.198-2.173,5.046-2.619,7.773
		C4.071,36.735,3.765,43.665,5.194,48.171z M95.424,93.013c0.065-0.046,0.117-0.088,0.127-0.138
		c0.206-1.032,0.399-2.067,0.581-3.104c0.074-0.424,0.109-0.854,0.172-1.28c0.093-0.623,0.279-1.245,0.277-1.867
		c-0.004-1.094-0.122-2.188-0.189-3.282c-0.002-0.04,0.002-0.08,0.009-0.122c0.01-0.067,0.114-0.146,0.232-0.178
		c0.073-0.02,0.143-0.038,0.214-0.055c0.876-0.21,0.85-0.203,1.076,0.69c0.118,0.463,0.074,0.974,0.55,1.351
		c0.31,0.245,0.498,0.698,0.638,1.094c0.181,0.514,0.283,1.061,0.372,1.602c0.033,0.198-0.008,0.465-0.123,0.62
		c-0.27,0.363-0.646,0.648-0.906,1.017c-0.555,0.787-1.09,1.59-1.582,2.417c-0.309,0.52-0.551,1.078-0.818,1.637
		c-0.058,0.122-0.194,0.155-0.302,0.074c-0.099-0.074-0.19-0.142-0.286-0.214C95.357,93.192,95.337,93.074,95.424,93.013z
		 M73.423,82.91c-0.008-0.135,0.095-0.272,0.227-0.302c0.962-0.214,1.198-0.015,1.444,0.944c0.055,0.215,0.091,0.447,0.198,0.635
		c0.487,0.85,1.015,1.677,1.492,2.533c0.289,0.519,0.51,1.075,0.764,1.614c0.025,0.053,0.056,0.121,0.103,0.142
		c0.401,0.179,0.393,0.482,0.371,0.827c-0.009,0.135-0.116,0.206-0.24,0.152c-0.134-0.058-0.24-0.105-0.346-0.104
		c-0.868,0.008-1.737,0.032-2.605,0.073c-0.771,0.036-1.43-0.529-1.425-1.282c0.001-0.208,0.159-0.419,0.149-0.623
		c-0.048-0.925-0.346-1.815-0.125-2.783C73.563,84.152,73.461,83.514,73.423,82.91z M50.534,85.157
		c0.051-0.166,0.35-0.412,0.461-0.377c0.786,0.25,1.565,0.395,2.391,0.219c1.035-0.22,2.076-0.418,3.117-0.609
		c0.18-0.033,0.457-0.062,0.551,0.038c0.922,0.978,2.351,1.34,3.084,2.543c0.04,0.066,0.088,0.127,0.139,0.187
		c0.083,0.098,0.041,0.17-0.094,0.166c-0.14-0.005-0.279-0.013-0.404-0.058c-0.223-0.08-0.403-0.32-0.624-0.358
		c-1.189-0.206-2.394-0.247-3.584-0.052c-0.367,0.06-0.708,0.279-1.132,0.493c-0.121,0.061-0.325,0.074-0.453,0.032
		c-0.089-0.029-0.189-0.064-0.285-0.106c-0.208-0.091-0.398-0.221-0.605-0.314c-0.829-0.369-1.673-0.708-2.48-1.12
		C50.493,85.779,50.47,85.366,50.534,85.157z"/>
</g>
</svg>
