<?xml version="1.0" encoding="iso-8859-1"?>
<!-- Generator: Adobe Illustrator 17.1.0, SVG Export Plug-In . SVG Version: 6.00 Build 0)  -->
<!DOCTYPE svg PUBLIC "-//W3C//DTD SVG 1.1//EN" "http://www.w3.org/Graphics/SVG/1.1/DTD/svg11.dtd">
<svg version="1.1" id="Capa_1" xmlns="http://www.w3.org/2000/svg" xmlns:xlink="http://www.w3.org/1999/xlink" x="0px" y="0px"
	 viewBox="0 0 150 150" style="enable-background:new 0 0 150 150;" xml:space="preserve">
<g>
	<path d="M89.35,83.399c0.066-0.463,0.015-0.944,0.081-1.407c0.04-0.28,0.202-0.542,0.309-0.812
		c0.079,0.006,0.158,0.012,0.237,0.019c0.205,0.807,0.374,1.625,0.628,2.416c0.169,0.526,0.329,1.229,0.726,1.472
		c0.911,0.558,1.93,1.055,2.968,1.267c2.668,0.545,5.348,0.092,8.018-0.18c1.342-0.137,2.211-0.995,3.022-1.947
		c1.484-1.741,2.892-3.554,4.477-5.197c0.954-0.989,2.244-1.646,3.263-2.583c0.584-0.536,1.119-0.561,1.795-0.443
		c0.667,0.117,1.335,0.126,1.732-0.433c0.107-0.456,0.214-0.912,0.305-1.302c-1.111,0.397-2.187,0.649-3.354,0.579
		c-0.473-0.029-1.062,0.066-1.425,0.338c-0.99,0.741-1.864,1.634-2.829,2.412c-0.548,0.441-1.191,0.764-1.78,1.155
		c-0.4,0.266-0.863,0.492-1.158,0.851c-0.767,0.933-1.468,1.922-2.175,2.904c-0.325,0.452-0.631,0.546-1.188,0.312
		c-2.663-1.124-5.327-1.15-7.956,0.155c-0.076,0.038-0.185,0.01-0.123,0.008c-0.517-1.871-0.986-3.68-1.521-5.469
		c-0.532-1.78-1.13-3.54-1.688-5.275c2.079,0.127,4.025,0.281,5.974,0.356c2.223,0.086,3.84-0.817,4.745-2.947
		c0.647-1.522,1.399-3.002,2.164-4.47c0.71-1.361,1.48-2.691,2.269-4.008c0.164-0.273,0.501-0.559,0.799-0.612
		c0.781-0.14,1.474-0.368,1.865-0.938c-0.208-0.413-0.382-0.759-0.563-1.12c-0.624,1.082-1.588,1.486-2.759,1.537
		c-0.203,0.009-0.474,0.079-0.589,0.222c-0.618,0.772-1.215,1.562-1.784,2.371c-0.656,0.933-1.167,1.991-2.318,2.527
		c0.02,0.096,0.117,0.266,0.068,0.362c-0.546,1.07-1.131,2.121-1.668,3.195c-0.203,0.407-0.389,0.437-0.812,0.275
		c-1.999-0.762-4.04-0.937-6.127-0.336c-0.159,0.046-0.502-0.132-0.579-0.293c-0.364-0.754-0.662-1.541-0.991-2.312
		c-0.837-1.962-1.628-3.947-2.541-5.874c-0.378-0.799-0.426-1.821-1.333-2.327c0.153-0.994-0.372-1.714-0.969-2.406
		c-0.015-0.018-0.017-0.046-0.028-0.069c-0.52-1.091-1.179-2.02-2.493-2.236c-0.172-0.028-0.456-0.169-0.465-0.277
		c-0.065-0.787-0.073-1.579-0.099-2.369c0.097-0.028,0.194-0.055,0.29-0.083c0.4,0.357,0.84,0.679,1.192,1.078
		c0.936,1.061,1.848,2.143,2.744,3.237c1.287,1.573,2.73,1.287,4.168,0.229c1.867-1.373,2.939-3.331,3.946-5.343
		c0.118-0.236,0.429-0.542,0.641-0.534c0.686,0.024,1.365,0.237,2.052,0.271c0.907,0.044,1.929,0.247,2.707-0.081
		c1.687-0.709,3.272-1.701,4.504-3.102c2.229-2.534,4.18-5.226,4.994-8.611c0.22-0.915,1.3-1.476,1.172-2.682
		c-0.057-0.535,0.533-1.119,0.765-1.707c0.807-2.043,1.097-4.196,0.997-6.363c-0.071-1.527-0.554-3.033-0.656-4.562
		c-0.129-1.929-0.022-3.873-0.08-5.808c-0.095-3.17-0.379-6.336-1.736-9.248c-0.667-1.432-1.675-2.704-2.487-3.984
		c-0.471,0.084-0.744,0.133-1.125,0.201c0.073,0.318,0.102,0.637,0.221,0.917c0.26,0.612,0.655,1.179,0.837,1.81
		c0.458,1.592,0.867,3.201,1.22,4.82c0.205,0.937,0.238,1.91,0.394,2.859c0.433,2.64,0.124,5.228-0.89,7.657
		c-0.637,1.528-1.591,2.922-2.15,4.513c-0.835,2.377-0.953,4.771,0.615,6.774c0.803,1.026,0.365,1.251-0.252,1.818
		c-0.818,0.751-1.522,1.634-2.377,2.335c-0.69,0.566-1.553,0.916-2.294,1.426c-0.28,0.193-0.373,0.667-0.656,0.842
		c-1.024,0.635-1.481,1.876-2.61,2.386c-0.059,0.027-0.072,0.18-0.086,0.276c-0.095,0.677-0.142,1.364-0.297,2.026
		c-0.058,0.247-0.383,0.636-0.55,0.618c-0.808-0.086-1.656-0.167-2.386-0.487c-0.588-0.258-1.193-0.764-1.499-1.321
		c-0.565-1.028-0.917-2.173-1.357-3.27c-0.091-0.229-0.175-0.46-0.262-0.69c-0.001,0-0.002,0.001-0.002,0.001
		c-0.104-0.285-0.208-0.57-0.311-0.855c-0.047-0.624-0.17-1.225-0.234-1.832c-0.038-0.355-0.031-0.784,0.135-1.079
		c0.391-0.696,0.844-1.346,0.689-2.167c-0.265-0.225-0.517-0.439-0.752-0.639c-0.074,0.242-0.149,0.487-0.224,0.732l-1.349,3.249
		c-0.095,0.23,0.047,0.404,0.232,0.458c0.158,0.671,0.396,1.328,0.55,2.002c0.203,0.892,0.34,1.799,0.513,2.74
		c-0.524-0.195-0.908-0.301-1.257-0.476c-0.654-0.328-1.363-0.605-1.912-1.067c-0.907-0.764-1.783-1.407-3.036-0.871
		c-0.104-0.254-0.226-0.453-0.266-0.667c-0.187-1.019-0.943-1.304-1.805-1.291c-0.535,0.008-1.078,0.404-1.597,0.364
		c-1.002-0.076-1.731,0.396-2.506,0.881c-0.785,0.491-1.37,1.06-1.484,2.053c-0.114,0.99-0.525,1.095-1.438,0.622
		c-0.279-0.145-0.899-0.088-1.083,0.121c-0.317,0.363-0.686,0.566-1.057,0.583c-0.371-0.018-0.739-0.221-1.057-0.583
		c-0.183-0.209-0.804-0.266-1.083-0.121c-0.912,0.474-1.324,0.369-1.438-0.622c-0.114-0.993-0.7-1.562-1.484-2.053
		c-0.775-0.485-1.504-0.957-2.506-0.881c-0.52,0.04-1.062-0.356-1.597-0.364c-0.862-0.013-1.618,0.271-1.805,1.291
		c-0.039,0.214-0.162,0.414-0.266,0.667c-1.253-0.536-2.129,0.107-3.036,0.871c-0.549,0.462-1.258,0.739-1.912,1.067
		c-0.349,0.175-0.732,0.28-1.257,0.476c0.173-0.94,0.311-1.848,0.513-2.74c0.153-0.674,0.392-1.331,0.55-2.002
		c0.185-0.055,0.328-0.229,0.232-0.458l-1.349-3.249c-0.075-0.245-0.15-0.49-0.224-0.732c-0.234,0.199-0.487,0.414-0.752,0.639
		c-0.155,0.82,0.298,1.471,0.689,2.167c0.166,0.295,0.172,0.723,0.135,1.079c-0.064,0.607-0.188,1.208-0.234,1.832
		c-0.104,0.285-0.208,0.57-0.312,0.854c0,0-0.001,0-0.002,0c-0.087,0.23-0.171,0.462-0.262,0.69
		c-0.439,1.097-0.791,2.242-1.357,3.27c-0.306,0.557-0.91,1.062-1.499,1.321c-0.73,0.32-1.578,0.401-2.386,0.487
		c-0.167,0.018-0.493-0.371-0.55-0.618c-0.155-0.662-0.202-1.35-0.297-2.026c-0.014-0.097-0.027-0.25-0.086-0.276
		c-1.129-0.51-1.586-1.751-2.61-2.386c-0.283-0.176-0.376-0.649-0.656-0.842c-0.741-0.511-1.604-0.86-2.294-1.426
		c-0.855-0.702-1.559-1.584-2.377-2.335c-0.618-0.566-1.055-0.792-0.252-1.818c1.568-2.002,1.45-4.397,0.615-6.774
		c-0.559-1.591-1.512-2.985-2.15-4.513c-1.013-2.429-1.323-5.017-0.89-7.657c0.156-0.949,0.189-1.922,0.394-2.859
		c0.353-1.619,0.762-3.228,1.22-4.82c0.182-0.631,0.577-1.198,0.837-1.81c0.119-0.28,0.147-0.598,0.221-0.917
		c-0.381-0.068-0.653-0.117-1.125-0.201c-0.812,1.28-1.82,2.552-2.487,3.984c-1.357,2.912-1.641,6.077-1.736,9.248
		c-0.058,1.935,0.049,3.878-0.08,5.808c-0.102,1.528-0.585,3.034-0.656,4.562c-0.1,2.167,0.19,4.32,0.997,6.363
		c0.232,0.587,0.822,1.172,0.765,1.707c-0.128,1.207,0.952,1.768,1.172,2.682c0.814,3.385,2.765,6.077,4.994,8.611
		c1.233,1.401,2.818,2.393,4.504,3.102c0.778,0.328,1.8,0.125,2.707,0.081c0.687-0.033,1.365-0.246,2.052-0.271
		c0.211-0.008,0.523,0.298,0.641,0.534c1.006,2.013,2.079,3.971,3.946,5.343c1.439,1.058,2.881,1.344,4.168-0.229
		c0.896-1.095,1.808-2.177,2.744-3.237c0.352-0.399,0.792-0.721,1.192-1.078c0.097,0.028,0.194,0.055,0.29,0.083
		c-0.026,0.791-0.034,1.582-0.099,2.369c-0.009,0.107-0.292,0.249-0.465,0.277c-1.313,0.216-1.973,1.145-2.493,2.236
		c-0.011,0.022-0.012,0.051-0.028,0.069c-0.597,0.692-1.122,1.413-0.969,2.406c-0.906,0.506-0.954,1.528-1.333,2.327
		c-0.912,1.927-1.704,3.912-2.541,5.874c-0.329,0.772-0.626,1.558-0.991,2.312c-0.078,0.161-0.421,0.339-0.579,0.293
		c-2.087-0.601-4.129-0.426-6.127,0.336c-0.423,0.162-0.608,0.132-0.812-0.275c-0.538-1.074-1.122-2.125-1.668-3.195
		c-0.049-0.096,0.048-0.267,0.068-0.362c-1.151-0.537-1.661-1.595-2.318-2.527c-0.569-0.808-1.166-1.599-1.784-2.371
		c-0.114-0.143-0.386-0.213-0.589-0.222c-1.171-0.051-2.135-0.456-2.759-1.537c-0.181,0.36-0.355,0.707-0.563,1.12
		c0.391,0.57,1.084,0.798,1.865,0.938c0.298,0.053,0.635,0.339,0.799,0.612c0.789,1.317,1.559,2.647,2.269,4.008
		c0.765,1.468,1.517,2.948,2.164,4.47c0.905,2.129,2.522,3.033,4.745,2.947c1.949-0.076,3.895-0.229,5.974-0.356
		c-0.558,1.735-1.156,3.495-1.688,5.275c-0.535,1.79-1.003,3.599-1.521,5.469c0.062,0.001-0.047,0.03-0.123-0.008
		c-2.629-1.305-5.293-1.279-7.956-0.155c-0.557,0.235-0.863,0.14-1.188-0.312c-0.706-0.982-1.407-1.971-2.175-2.904
		c-0.295-0.359-0.758-0.585-1.158-0.851c-0.59-0.392-1.232-0.714-1.78-1.155c-0.965-0.777-1.84-1.67-2.829-2.412
		c-0.362-0.271-0.951-0.367-1.425-0.338c-1.167,0.07-2.243-0.182-3.354-0.579c0.091,0.39,0.198,0.846,0.305,1.302
		c0.397,0.56,1.065,0.55,1.732,0.433c0.675-0.118,1.211-0.093,1.795,0.443c1.02,0.937,2.309,1.594,3.263,2.583
		c1.585,1.643,2.993,3.457,4.477,5.197c0.812,0.952,1.681,1.811,3.022,1.947c2.67,0.272,5.35,0.725,8.018,0.18
		c1.038-0.212,2.057-0.709,2.968-1.267c0.397-0.243,0.557-0.946,0.726-1.472c0.255-0.791,0.423-1.609,0.628-2.416
		c0.079-0.006,0.158-0.012,0.237-0.019c0.107,0.27,0.269,0.532,0.309,0.812c0.066,0.463,0.015,0.944,0.081,1.407
		c0.427,2.988,0.88,5.972,1.299,8.96c0.05,0.358-0.061,0.739-0.11,1.246c1.062,0.383,0.851,1.655,1.097,2.623
		c0.353,1.391,0.827,2.683,1.654,3.856c0.125,0.178,0.151,0.532,0.064,0.736c-0.866,2.011-1.262,4.12-1.443,6.29
		c-0.123,1.476-0.316,2.947-0.523,4.414c-0.028,0.197-0.29,0.459-0.491,0.514c-0.634,0.172-1.29,0.345-1.941,0.356
		c-0.657,0.012-1.32-0.153-1.976-0.265c-1.761-0.299-3.517-0.628-5.281-0.899c-0.267-0.041-0.63,0.096-0.85,0.272
		c-0.857,0.691-1.645,1.469-2.525,2.125c-0.218,0.163-0.686-0.008-0.989-0.023c0.421,1.108,1.827,1.479,2.786,0.622
		c0.111-0.1,0.262-0.184,0.319-0.31c0.534-1.164,1.563-1.212,2.584-1.054c1.519,0.236,3.035,0.53,4.517,0.931
		c0.561,0.152,1.007,0.695,1.534,1.014c1.617,0.978,3.15,0.512,4.617-0.361c0.969-0.577,1.433-1.392,1.504-2.609
		c0.085-1.448,0.539-2.873,0.812-4.312c0.23-1.209,0.43-2.424,0.643-3.636l0.248-0.065c0.183,0.198,0.399,0.375,0.545,0.598
		c0.595,0.908,1.167,1.832,1.75,2.748c0.053,0.083,0.102,0.205,0.18,0.231c0,0,0.105,0.061,0.309,0.156
		c-0.281,0.949-0.559,1.899-0.776,2.862c-0.297,1.316-0.536,2.682-0.113,4.035c0.277,0.885,0.833,1.603,1.533,2.18
		c0.55,0.454,0.886,1.613,0.608,2.179c-0.597,1.214-1.165,2.444-1.697,3.688c-0.223,0.521-0.315,1.097-0.486,1.642
		c-0.07,0.225-0.192,0.434-0.343,0.765c-0.305-0.381-0.48-0.742-0.767-0.929c-0.669-0.436-1.396-0.782-2.092-1.178
		c-0.249-0.142-0.477-0.321-0.711-0.487c-0.06-0.043-0.107-0.148-0.16-0.149c-1.313-0.006-2.411-1.158-3.775-0.771
		c-1.357,0.385-2.693,0.849-4.022,1.322c-2.251,0.802-4.431,1.804-6.382,3.165c-1.68,1.172-3.258,2.53-4.705,3.981
		c-0.814,0.816-1.3,1.973-1.868,3.012c-0.144,0.263-0.098,0.672-0.036,0.995c0.124,0.646,0.373,1.271,0.471,1.919
		c0.14,0.924,0.471,1.586,1.333,2.143c1.155,0.746,2.112,1.794,3.182,2.679c0.914,0.755,1.834,1.515,2.814,2.178
		c1.083,0.733,2.21,1.412,3.37,2.014c0.818,0.424,1.724,0.676,2.586,1.016c0.225,0.089,0.45,0.197,0.646,0.337
		c0.646,0.46,1.316,0.714,2.15,0.635c0.879-0.083,1.777,0.05,2.659-0.017c0.393-0.03,0.848-0.23,1.133-0.502
		c1.435-1.369,2.88-2.736,4.215-4.201c1.672-1.834,3.259-3.749,4.847-5.658c0.547-0.657,0.991-1.4,1.475-2.108
		c0.111-0.163,0.269-0.342,0.274-0.519c0.015-0.463,0.219-0.695,0.645-0.87c0.195-0.08,0.373-0.407,0.405-0.643
		c0.158-1.181,0.269-2.368,0.389-3.553c0.165-1.627,0.341-3.253,0.482-4.883c0.113-1.311,0.215-2.624,0.254-3.938
		c0.016-0.555-0.146-1.114-0.221-1.672c-0.078-0.576-0.075-1.092,0.473-1.518c0.272-0.212,0.495-0.635,0.529-0.983
		c0.194-2.026,0.348-4.057,0.467-6.089c0.059-1.002,0.074-2.007,0.08-3.011c0.465-0.737,0.929-1.475,1.406-2.204
		c0.146-0.223,0.361-0.4,0.545-0.598l0.248,0.065c0.213,1.212,0.414,2.427,0.643,3.636c0.273,1.439,0.728,2.864,0.812,4.312
		c0.071,1.217,0.535,2.033,1.504,2.609c1.467,0.873,3,1.339,4.617,0.361c0.527-0.319,0.973-0.862,1.534-1.014
		c1.482-0.4,2.999-0.695,4.517-0.931c1.021-0.158,2.05-0.109,2.584,1.054c0.058,0.125,0.208,0.21,0.319,0.31
		c0.959,0.856,2.365,0.486,2.786-0.622c-0.303,0.015-0.77,0.187-0.989,0.023c-0.88-0.656-1.669-1.435-2.525-2.125
		c-0.22-0.177-0.583-0.313-0.85-0.272c-1.765,0.271-3.521,0.6-5.281,0.899c-0.656,0.112-1.319,0.277-1.976,0.265
		c-0.651-0.012-1.306-0.184-1.941-0.356c-0.202-0.055-0.464-0.317-0.491-0.514c-0.207-1.467-0.4-2.938-0.523-4.414
		c-0.181-2.169-0.577-4.278-1.443-6.29c-0.088-0.204-0.062-0.558,0.064-0.736c0.827-1.173,1.301-2.466,1.654-3.856
		c0.246-0.967,0.036-2.239,1.097-2.623c-0.05-0.507-0.161-0.888-0.11-1.246C88.47,89.371,88.924,86.387,89.35,83.399z M67.76,42.759
		c-0.033,0.168-0.083,0.334-0.131,0.5c-0.084,0.289-0.177,0.577-0.264,0.866c0.056,0.323,0.091,0.544,0.093,0.711
		c0.002,0.141-0.025,0.243-0.089,0.317c-0.124,0.145-0.39,0.205-0.901,0.319c-0.21,0.047-0.418,0.239-0.564,0.417
		c-0.517,0.632-0.642,1.668-1.766,1.667c-0.063,0-0.12,0.149-0.191,0.217c-1.237,1.181-2.471,2.365-3.721,3.533
		c-0.122,0.114-0.34,0.125-0.513,0.184c-0.041-0.156-0.075-0.314-0.126-0.466c-0.16-0.48-0.244-1.011-0.509-1.425
		c-0.455-0.713-0.988-1.379-1.527-2.034c-0.04-0.049-0.079-0.1-0.12-0.149c-0.291-0.351-0.304-0.554,0.088-0.832
		c0.858-0.605,1.659-1.295,2.532-1.876c1.238-0.824,2.477-1.666,3.801-2.33c0.612-0.308,1.287-1.327,2.159-0.306
		c0.059,0.069,0.28-0.011,0.424,0c0.382,0.028,0.775,0.026,1.136,0.129C67.685,42.234,67.794,42.583,67.76,42.759z M57.383,134.891
		c-1.04-0.508-1.98-0.968-2.964-1.449c1.144-0.427,2.251-0.839,3.398-1.267C57.675,133.066,57.532,133.956,57.383,134.891z
		 M67.921,133.424c-2.491,1.111-4.687,2.647-6.647,4.535c-0.117,0.113-0.442,0.218-0.49,0.164c-0.576-0.638-1.432-1.234-1.604-1.982
		c-0.347-1.513,0.057-2.981,1.16-3.948c1.784,0.458,3.392,1.002,5.112,0.717c1.871-0.31,2.961-1.646,3.87-3.257
		c0.448,0.933,0.825,1.719,1.214,2.528C69.653,132.603,68.796,133.033,67.921,133.424z M82.426,42.202
		c0.362-0.103,0.755-0.101,1.136-0.129c0.144-0.011,0.365,0.069,0.424,0c0.872-1.021,1.547-0.002,2.159,0.306
		c1.324,0.664,2.563,1.506,3.801,2.33c0.873,0.582,1.674,1.271,2.532,1.876c0.393,0.277,0.379,0.48,0.088,0.832
		c-0.041,0.049-0.079,0.1-0.12,0.149c-0.54,0.655-1.072,1.321-1.527,2.034c-0.265,0.415-0.349,0.945-0.509,1.425
		c-0.051,0.152-0.084,0.311-0.126,0.466c-0.173-0.059-0.391-0.07-0.513-0.184c-1.25-1.168-2.484-2.352-3.721-3.533
		c-0.071-0.068-0.128-0.217-0.191-0.217c-1.124,0.001-1.249-1.036-1.766-1.667c-0.145-0.178-0.353-0.37-0.564-0.417
		c-0.511-0.115-0.776-0.175-0.901-0.319c-0.064-0.075-0.09-0.177-0.089-0.317c0.002-0.167,0.037-0.389,0.093-0.711
		c-0.087-0.289-0.18-0.577-0.264-0.866c-0.048-0.166-0.098-0.332-0.131-0.5C82.206,42.583,82.315,42.234,82.426,42.202z"/>
</g>
</svg>
