<?xml version="1.0" encoding="iso-8859-1"?>
<!-- Generator: Adobe Illustrator 17.1.0, SVG Export Plug-In . SVG Version: 6.00 Build 0)  -->
<!DOCTYPE svg PUBLIC "-//W3C//DTD SVG 1.1//EN" "http://www.w3.org/Graphics/SVG/1.1/DTD/svg11.dtd">
<svg version="1.1" id="Capa_1" xmlns="http://www.w3.org/2000/svg" xmlns:xlink="http://www.w3.org/1999/xlink" x="0px" y="0px"
	 viewBox="0 0 150 150" style="enable-background:new 0 0 150 150;" xml:space="preserve">
<g>
	<path d="M145.563,91.654c-0.657-0.144-1.372-0.122-2.048-0.046c-0.945,0.107-1.422-0.213-1.399-1.168
		c0.016-0.677-0.351-0.866-0.908-0.877c-0.733-0.015-1.468,0.025-2.199-0.012c-1.168-0.058-1.593-0.536-1.259-1.586
		c0.261-0.822,0.073-1.185-0.738-1.383c-0.67-0.164-1.313-0.439-1.97-0.66c-0.979-0.329-1.14-0.893-0.464-1.647
		c0.679-0.758,0.357-1.878-0.647-2.251c-1.411-0.525-1.403-0.516-0.259-1.57c0.199-0.183,0.334-0.459,0.437-0.716
		c0.206-0.512,0.595-0.627,1.072-0.531c0.648,0.13,1.288,0.302,1.935,0.441c0.149,0.032,0.312,0.005,0.528,0.005
		c-0.009-0.862,0.524-0.993,1.241-0.945c0.652,0.044,1.325,0.095,1.957-0.025c0.348-0.066,0.738-0.419,0.913-0.748
		c0.193-0.363-0.057-0.662-0.457-0.915c-3.199-2.017-6.726-2.701-10.412-2.345c-2.344,0.227-4.646,0.866-6.975,1.272
		c-2.18,0.38-4.361,0.806-6.56,1.004c-1.554,0.14-2.957-0.403-4.075-1.656c-1.767-1.979-3.593-3.91-5.465-5.79
		c-2.955-2.966-6.339-5.408-9.895-7.583c-2.802-1.714-5.78-3.138-8.594-4.833c-2.151-1.296-4.574-1.594-6.902-2.246
		c-1.822-0.511-3.657-0.989-5.509-1.368c-1.538-0.315-3.115-0.436-4.667-0.693c-4.798-0.793-9.633-0.448-14.45-0.43
		c-2.898,0.011-5.791,0.434-8.691,0.564c-1.366,0.062-2.748-0.237-4.115-0.179c-1.712,0.072-2.472-1.293-3.5-2.169
		c-2.076-1.772-3.747-3.93-5.282-6.189c-1.605-2.362-3.194-4.738-4.873-7.047c-1.331-1.83-3.193-3.077-5.139-4.174
		c-0.685-0.387-1.453-0.625-2.167-0.963c-1.251-0.592-2.588-0.377-3.897-0.483c-2.892-0.235-5.486,0.603-7.827,2.181
		c-0.956,0.644-1.839,1.535-2.464,2.502c-1.277,1.976-3.095,3.09-5.227,3.822c-0.81,0.278-1.103,1.222-1.069,2.07
		c0.041,1,0.592,1.781,0.765,2.702c0.071,0.377,0.323,0.75,0.575,1.058c0.526,0.642,1.084,1.263,1.675,1.845
		c0.238,0.234,0.581,0.393,0.904,0.501c1.545,0.517,2.993,1.152,3.765,3.012c0.228-0.891,0.52-1.022,1.17-0.698
		c1.316,0.654,1.797,1.885,2.233,3.105c0.515,1.44,0.92,2.926,1.271,4.416c0.334,1.42,0.503,2.878,0.809,4.305
		c0.235,1.098,0.52,2.192,0.87,3.259c1.246,3.799,3.118,7.287,5.343,10.597c0.128,0.191,0.249,0.527,0.168,0.696
		c-0.766,1.587-1.36,3.286-2.739,4.499c-0.759,0.667-1.542,1.307-2.288,1.988c-0.594,0.542-0.986,1.222-0.812,2.047
		c0.201,0.953,0.85,1.41,1.816,1.635c1.861,0.434,3.702,0.373,5.548,0.029c1.497-0.279,2.971-0.666,4.523-0.556
		c1.488,0.106,2.996,0.011,4.472,0.195c1.637,0.204,3.167,0.943,4.27,2.125c1.581,1.695,2.944,3.596,4.367,5.435
		c0.819,1.059,1.459,2.281,2.389,3.223c0.74,0.75,1.752,1.282,2.723,1.743c2.652,1.261,5.328,2.476,8.027,3.632
		c3.558,1.524,6.996,3.281,10.404,5.11c0.949,0.509,2.061,0.756,3.127,0.994c0.697,0.155,1.441-0.016,1.763-0.781
		c0.323-0.766-0.239-1.313-0.641-1.866c-0.131-0.181-0.365-0.285-0.547-0.431c-0.474-0.383-0.914-0.772-0.783-1.489
		c0.099-0.547-0.207-0.87-0.694-1.068c-0.357-0.144-0.704-0.314-1.053-0.476c-0.58-0.27-0.788-0.609-0.655-1.341
		c0.235-1.292-0.567-2.216-1.54-2.926c-0.495-0.362-0.689-0.721-0.438-1.302c-1.143-0.214-1.266-1.252-1.862-2.137
		c0.413-0.119,0.732-0.293,1.048-0.289c2.139,0.027,4.278,0.133,6.417,0.135c4.052,0.003,8.087-0.139,12.117-0.731
		c3.261-0.479,6.402-1.229,9.317-2.747c1.409-0.733,2.68-1.726,4.039-2.56c2.787-1.709,5.835-2.728,9.023-3.388
		c2.693-0.557,5.429-0.44,8.112-0.243c2.883,0.212,5.711,0.985,8.382,2.201c0.5,0.228,1.076,0.332,1.628,0.392
		c1.2,0.13,2.078,0.826,2.945,1.556c1.661,1.396,3.244,2.899,5.24,3.835c1.621,0.761,3.316,1.228,5.122,1.222
		c1.519-0.005,3.05,0.12,4.553-0.034c1.622-0.166,3.222-0.575,4.823-0.915c0.282-0.06,0.574-0.251,0.775-0.464
		c0.214-0.226,0.523-0.646,0.443-0.811C146.275,92.162,145.917,91.731,145.563,91.654z"/>
</g>
</svg>
