<?xml version="1.0" encoding="iso-8859-1"?>
<!-- Generator: Adobe Illustrator 17.1.0, SVG Export Plug-In . SVG Version: 6.00 Build 0)  -->
<!DOCTYPE svg PUBLIC "-//W3C//DTD SVG 1.1//EN" "http://www.w3.org/Graphics/SVG/1.1/DTD/svg11.dtd">
<svg version="1.1" id="Capa_1" xmlns="http://www.w3.org/2000/svg" xmlns:xlink="http://www.w3.org/1999/xlink" x="0px" y="0px"
	 viewBox="0 0 150 150" style="enable-background:new 0 0 150 150;" xml:space="preserve">
<g>
	<path d="M146.829,96.417c-1.822-1.306-3.943-2.083-6.779-2.468l0.979-0.104c0.29-0.031,0.428-0.061,0.436-0.193
		c0.005-0.042-0.01-0.086-0.036-0.118c-0.031-0.037-0.066-0.078-0.403-0.094l-1.627-0.079c0.198-0.026,0.395-0.051,0.586-0.075
		c0.425-0.053,0.429-0.202,0.431-0.255c0-0.146-0.147-0.218-0.449-0.22c-0.187-0.002-0.374-0.005-0.562-0.008
		c-0.288-0.005-0.576-0.01-0.864-0.01c-0.476,0-0.864,0.013-1.223,0.042c-0.457,0.038-0.675-0.075-0.854-0.448
		c-0.295-0.613-0.398-1.241-0.316-1.919c0.22-1.811-0.054-3.413-0.812-4.762c-0.333-0.595-0.812-1.165-1.383-1.647
		c-1.023-0.867-1.74-1.808-2.191-2.877c-0.108-0.254-0.285-0.487-0.483-0.639c-0.975-0.749-2.087-1.087-3.355-1.033
		c-0.142,0.006-0.286,0.009-0.431,0.009c-0.903,0-1.684-0.12-2.321-0.355c-1.554-0.575-3.209-0.855-5.06-0.855
		c-0.814,0-1.661,0.053-2.589,0.162c-3.825,0.45-7.815,1.661-12.557,3.81c-0.847,0.384-1.692,0.805-2.51,1.211
		c-0.589,0.292-1.178,0.586-1.771,0.868c-0.18,0.085-0.434,0.119-0.603,0.078c-2.365-0.573-4.826-0.45-7.374,0.372
		c-1.103,0.354-2.182,0.189-3.205-0.491c-7.25-4.824-15.054-7.27-23.195-7.27c-0.426,0-0.854,0.007-1.284,0.02
		c-5.734,0.176-11.255,1.682-16.407,4.476c-2.606,1.413-4.759,2.787-6.581,4.2c-1.501,1.165-2.777,2.658-4.012,4.103l-0.267,0.312
		c-2.331,2.721-4.23,5.723-5.644,8.921c-0.423,0.956-1.011,1.895-1.746,2.789c-0.087,0.105-0.252,0.217-0.346,0.25
		c-0.119,0.042-0.199,0.083-0.253,0.13c-0.188,0.161-0.272,0.351-0.364,0.558c-0.062,0.141-0.13,0.253-0.14,0.266
		c-0.021,0.021-0.037,0.047-0.068,0.099c-0.034,0.055-0.083,0.134-0.142,0.208c-0.1,0.125-0.23,0.245-0.4,0.368
		c-1.057,0.761-2.125,1.435-3.175,2.003c-0.972,0.528-2.451,1.242-3.985,1.641c-0.713,0.183-1.356,0.287-1.915,0.309
		c-0.295,0.014-0.577,0.012-0.845-0.014c-0.276-0.027-0.531-0.074-0.778-0.142c-0.292-0.082-0.538-0.176-0.773-0.297
		c-0.274-0.143-0.549-0.323-0.818-0.537c-0.244-0.187-0.505-0.439-0.846-0.817l-0.469-0.58c-0.01-0.012-0.022-0.026-0.038-0.039
		l-0.595-0.896c-0.036-0.057-0.073-0.119-0.111-0.182l-0.095-0.157c-0.071-0.112-0.134-0.225-0.197-0.339l-0.059-0.104
		c-0.045-0.079-0.091-0.158-0.133-0.242c-0.24-0.444-0.457-0.91-0.644-1.385c-0.372-0.944-0.591-1.861-0.651-2.726
		c-0.063-0.884,0.047-1.745,0.329-2.559c0.299-0.843,0.8-1.644,1.451-2.315c0.665-0.697,1.521-1.286,2.475-1.705
		c0.969-0.421,2.004-0.65,2.996-0.664l0.146-0.001c0.44,0,0.893,0.046,1.344,0.137c0.122,0.025,0.24,0.054,0.357,0.084l0.09,0.025
		c0.047,0.014,0.128,0.038,0.18,0.058c0.055,0.021,0.103,0.036,0.162,0.055l0.379,0.116c0.152,0.045,0.307,0.087,0.458,0.127
		c0.133,0.037,0.238,0.056,0.344,0.076l0.188,0.035c0.097,0.018,0.194,0.036,0.291,0.048c0.986,0.135,2.005,0.115,3-0.054
		c0.872-0.15,1.751-0.408,2.61-0.767c0.768-0.319,1.501-0.713,2.244-1.203c0.675-0.446,1.318-0.954,1.911-1.509
		c1.188-1.111,2.137-2.362,2.823-3.72c0.715-1.41,1.108-2.916,1.14-4.355c0.036-1.404-0.273-2.814-0.896-4.079
		c-0.282-0.565-0.617-1.106-0.997-1.61c-0.41-0.525-0.792-0.951-1.164-1.301c-0.716-0.691-1.519-1.312-2.456-1.899
		c-0.756-0.47-1.541-0.893-2.33-1.254c-0.126-0.063-0.254-0.118-0.38-0.171l-0.345-0.149c-0.116-0.05-0.23-0.101-0.347-0.147
		l-0.351-0.138c-0.217-0.085-0.426-0.168-0.629-0.241c-1.132-0.42-2.056-0.683-2.73-0.875l-0.953-0.252
		c-0.089-0.023-0.125-0.026-0.149-0.026c-0.07,0-0.145,0.054-0.159,0.123c-0.028,0.133,0.102,0.19,0.196,0.231l0.881,0.394
		c0.628,0.294,1.487,0.697,2.513,1.279c0.182,0.1,0.366,0.21,0.556,0.324l0.32,0.19c0.094,0.057,0.187,0.117,0.281,0.177
		l0.328,0.209c0.105,0.067,0.213,0.135,0.321,0.214c0.674,0.452,1.33,0.956,1.952,1.497c0.735,0.646,1.338,1.291,1.845,1.973
		c0.245,0.317,0.484,0.692,0.752,1.176c0.216,0.412,0.396,0.848,0.535,1.294c0.271,0.909,0.323,1.864,0.147,2.762
		c-0.174,0.911-0.593,1.835-1.211,2.675c-0.606,0.827-1.415,1.587-2.338,2.2c-0.953,0.632-1.987,1.087-2.99,1.317
		c-0.507,0.116-1.001,0.175-1.468,0.175H26.14c-0.445-0.003-0.885-0.075-1.272-0.207c-0.022-0.008-0.044-0.017-0.064-0.026
		c-0.023-0.01-0.046-0.02-0.069-0.028l-0.052,0.141l-0.001-0.161c-0.009-0.003-0.03-0.018-0.061-0.038
		c-0.004-0.002-0.037-0.021-0.041-0.022l-0.262-0.128c-0.011-0.011-0.024-0.02-0.038-0.026l-0.406-0.199
		c-0.219-0.101-0.439-0.198-0.665-0.289c-0.908-0.361-1.849-0.62-2.795-0.769c-1.866-0.304-3.847-0.222-5.777,0.239
		c-0.986,0.241-1.923,0.562-2.781,0.956c-0.486,0.215-0.944,0.464-1.332,0.681c-0.381,0.225-0.829,0.498-1.268,0.817
		c-0.813,0.577-1.588,1.262-2.304,2.034c-0.693,0.75-1.322,1.598-1.87,2.523C4.03,94.506,3.345,96.562,3.1,98.662
		c-0.231,1.895-0.141,3.888,0.269,5.924c0.182,0.906,0.421,1.81,0.712,2.684c0.054,0.173,0.113,0.34,0.173,0.507l0.047,0.132
		c0.076,0.211,0.152,0.423,0.233,0.627l0.079,0.2c0.054,0.138,0.107,0.274,0.169,0.42l0.64,1.443c0.008,0.017,0.03,0.062,0.05,0.097
		l0.443,0.852c0.102,0.184,0.209,0.367,0.315,0.55l0.037,0.063c0.564,0.94,1.097,1.697,1.673,2.382
		c0.658,0.79,1.375,1.514,2.132,2.153c0.772,0.651,1.626,1.239,2.537,1.747c0.869,0.485,1.796,0.897,2.757,1.225
		c0.874,0.296,1.805,0.53,2.766,0.693c0.889,0.15,1.773,0.241,2.63,0.269c0.815,0.029,1.606,0.014,2.43-0.041
		c0.718-0.05,1.443-0.132,2.219-0.249c0.635-0.099,1.296-0.225,2.021-0.386c1.182-0.271,2.364-0.606,3.515-0.998
		c0.949-0.32,1.898-0.683,2.902-1.107c0.416-0.176,0.756-0.184,1.086-0.192c0.328-0.007,0.668-0.015,1.041-0.199
		c0.406-0.2,0.844-0.47,1.337-0.827c0.12-0.088,0.34-0.22,0.484-0.279c1.313-0.538,2.844-0.799,4.691-0.799
		c0.686,0,1.293,0.318,1.803,0.943c0.312,0.384,0.76,0.74,1.33,1.061c0.696,0.391,1.416,0.766,2.112,1.129
		c0.614,0.32,1.228,0.64,1.834,0.974c0.859,0.475,1.826,1.068,2.412,2.096c0.155,0.273,0.444,0.449,0.723,0.62
		c0.143,0.087,0.289,0.176,0.409,0.274c0.258,0.21,0.511,0.438,0.777,0.679l0.17,0.153c0.194,0.177,0.479,0.102,0.567-0.143
		l0.196-0.55c0.027-0.079,0.117-0.126,0.205-0.101c0.156,0.045,0.315,0.086,0.475,0.128c0.827,0.217,1.682,0.442,2.323,1.13
		c0.083,0.088,0.192,0.139,0.302,0.139c0.126,0,0.237-0.065,0.306-0.178c0.322-0.537,0.308-1.128,0.268-1.641
		c-0.002-0.022,0.001-0.035,0.001-0.039c0.006,0,0.019,0.002,0.038,0.011l2.875,1.275c0.155,0.068,0.287,0.041,0.351-0.06
		c0.034-0.053,0.06-0.146-0.009-0.291l-0.984-2.063l1.858,0.796c0.244,0.105,0.516-0.043,0.546-0.295
		c0.07-0.62-0.205-1.199-0.453-1.635c-0.277-0.488-0.56-0.973-0.842-1.458c-0.446-0.768-0.908-1.562-1.341-2.354
		c-0.041-0.076,0.027-0.357,0.145-0.51c1.115-1.464,2.513-2.616,4.154-3.423c2.193-1.079,4.458-1.514,6.92-1.338
		c1.925,0.14,3.807,0.265,5.672,0.265c1.36,0,2.587-0.066,3.752-0.202c0.411-0.048,0.781-0.096,1.149-0.192
		c1.458-0.381,2.964-0.369,4.805,0.046c0.984,0.221,1.99,0.412,2.963,0.597c0.946,0.18,1.925,0.365,2.879,0.578
		c0.458,0.103,0.908,0.318,1.344,0.527c0.171,0.082,0.341,0.163,0.512,0.238c0.126,0.056,0.246,0.159,0.382,0.276
		c2.021,1.74,4.086,2.962,6.314,3.735c1.374,0.477,2.499,1.493,3.445,2.408c0.606,0.586,1.293,1.104,1.957,1.604
		c0.321,0.242,0.643,0.484,0.956,0.735c0.228,0.182,0.446,0.372,0.685,0.579l0.091,0.08c0.181,0.156,0.499,0.169,0.669,0.022
		c0.372-0.323,0.581-0.77,0.798-1.277c0.031-0.072,0.115-0.108,0.188-0.073l2.171,1.005c0.148,0.068,0.288,0.045,0.365-0.054
		c0.038-0.05,0.076-0.141,0.037-0.285l-0.494-1.841c-0.008-0.029-0.005-0.047,0-0.053c0.005-0.007,0.025-0.019,0.073-0.019
		l0.09,0.001c0.109,0,0.221-0.004,0.333-0.009c0.11-0.004,0.221-0.009,0.332-0.009c0.293,0,0.633,0.03,0.93,0.254
		c0.222,0.169,0.507,0.082,0.554-0.168c0.115-0.601-0.234-1.295-1.099-2.187l0.775-0.104c0.133-0.018,0.252-0.094,0.319-0.204
		c0.062-0.101,0.074-0.217,0.035-0.326c-0.217-0.613-0.898-1.412-1.532-1.581l-0.077-0.021c-1.141-0.302-2.319-0.615-3.495-0.853
		c-0.37-0.075-0.752-0.085-1.122-0.095c-0.254-0.007-0.517-0.014-0.77-0.042c-0.765-0.086-0.864-0.175-1.065-0.945
		c-0.199-0.763-0.4-1.525-0.632-2.4l0.011,0.006c0.182,0.106,0.326,0.19,0.441,0.296c0.51,0.465,1.111,0.661,1.684,0.821
		c0.682,0.19,1.366,0.424,2.027,0.649c0.499,0.17,0.997,0.34,1.501,0.495c0.376,0.115,0.775,0.147,1.161,0.177l0.102,0.008
		c0.24,0.02,0.483,0.015,0.762,0.011l0.117-0.002c0.248-0.003,0.449-0.207,0.449-0.452v-1.094c0-0.021,0.003-0.034,0.001-0.037
		c0.006,0,0.02,0.003,0.041,0.015c1.403,0.729,2.851,0.884,4.103,0.94c0.124,0,0.231-0.051,0.294-0.141
		c0.062-0.091,0.073-0.211,0.029-0.33l-0.506-1.366c-0.008-0.022-0.009-0.036-0.01-0.04c0.01,0,0.044-0.002,0.044-0.002l1.065,0.135
		c0.272,0.038,0.499-0.163,0.504-0.406c0.008-0.575-0.279-1.215-0.878-1.958c-0.024-0.03-0.034-0.063-0.029-0.093
		c0.005-0.029,0.023-0.054,0.054-0.073l0.57-0.354c0.114-0.071,0.182-0.18,0.187-0.3c0.004-0.115-0.051-0.224-0.152-0.298
		c-0.549-0.403-1.203-0.554-1.933-0.445c-0.498,0.076-0.888-0.02-1.339-0.326c-1.059-0.719-2.301-1.053-3.907-1.053
		c-0.607,0-1.21,0.046-1.667,0.086l-0.284,0.026c0.17-0.126,0.334-0.246,0.506-0.353c1.626-1.009,2.935-2.392,4.2-3.729
		c0.419-0.442,0.852-0.899,1.288-1.335c1.1-1.096,2.305-2.085,3.443-2.99c0.3-0.239,0.679-0.386,1.062-0.505
		c-0.395,0.376-0.812,0.734-1.22,1.082c-0.962,0.823-1.957,1.674-2.66,2.794c-0.056,0.088-0.101,0.183-0.052,0.271
		c0.026,0.047,0.086,0.082,0.141,0.082c0.063,0,0.121-0.032,0.206-0.114c0.271-0.259,0.54-0.521,0.809-0.783
		c0.923-0.899,1.875-1.828,2.93-2.604c-0.312,0.337-0.623,0.674-0.939,1.007l-0.156,0.165c-0.341,0.359-0.694,0.73-1.015,1.126
		c-0.06,0.073-0.134,0.165-0.086,0.266c0.024,0.052,0.082,0.088,0.14,0.088c0.059,0,0.107-0.027,0.201-0.11l0.841-0.747
		l-2.502,2.533c-0.196,0.2-0.249,0.385-0.141,0.494c0.028,0.029,0.102,0.057,0.142,0.057c0.143,0,0.297-0.132,0.356-0.188
		l3.968-3.768l-0.672,0.799l-2.021,2.191c-0.057,0.062-0.188,0.221-0.182,0.363c0.002,0.054,0.024,0.102,0.061,0.135
		c0.028,0.025,0.092,0.049,0.13,0.049c0.146,0,0.296-0.157,0.354-0.225l1.926-2.258l0.941-0.923l-2.392,3.113
		c-0.187,0.241-0.224,0.389-0.122,0.478c0.028,0.024,0.073,0.042,0.11,0.042c0.036,0,0.13,0,0.344-0.241l2.31-2.61l-0.525,0.88
		c-0.16,0.269-0.138,0.36-0.13,0.39c0.01,0.04,0.041,0.082,0.077,0.102c0.022,0.013,0.055,0.021,0.081,0.021
		c0.04,0,0.135,0,0.34-0.276l1.226-1.648l-0.393,1.099c-0.105,0.296-0.097,0.438,0.027,0.491c0.019,0.008,0.044,0.014,0.065,0.014
		c0.046,0,0.144,0,0.322-0.317l0.121-0.217c0.225-0.401,0.456-0.817,0.718-1.199c0.085-0.125,0.329-0.247,0.501-0.247
		c0.797,0.019,1.646,0.073,2.674,0.171c0.217,0.021,0.431,0.097,0.657,0.177l0.188,0.065c1.596,0.539,3.225,0.601,4.829,0.183
		c0.922-0.241,1.626-0.774,2.094-1.583c0.289-0.5,0.457-0.588,0.701-0.588c0.128,0,0.29,0.029,0.524,0.095l0.208,0.059
		c0.468,0.132,0.952,0.269,1.446,0.372c0.052,0.011,0.094,0.016,0.126,0.016c0.07,0,0.164-0.059,0.18-0.127
		c0.031-0.139-0.116-0.209-0.188-0.243l-0.938-0.448l3.586,0.929c0.07,0.019,0.244,0.061,0.324,0.061
		c0.055,0,0.121-0.034,0.147-0.082c0.021-0.038,0.023-0.084,0.01-0.125c-0.019-0.05-0.034-0.093-0.352-0.222l-1.772-0.72l3.359,0.96
		c0.116,0.033,0.225,0.052,0.299,0.052c0.119,0,0.169-0.055,0.191-0.105c0.016-0.037,0.016-0.09,0-0.127
		c-0.012-0.029-0.048-0.116-0.339-0.232l-4.413-1.765l1.24,0.094c0.063,0.005,0.123,0.007,0.173,0.007c0.105,0,0.265,0,0.293-0.148
		c0.024-0.167-0.163-0.214-0.41-0.259l-0.845-0.156c2.339-0.106,4.619,0.487,7.287,1.867c0.104,0.054,0.145,0.064,0.182,0.064
		c0.065,0,0.129-0.044,0.148-0.106C147.017,96.552,146.917,96.48,146.829,96.417z"/>
</g>
</svg>
