<?xml version="1.0" encoding="iso-8859-1"?>
<!-- Generator: Adobe Illustrator 17.1.0, SVG Export Plug-In . SVG Version: 6.00 Build 0)  -->
<!DOCTYPE svg PUBLIC "-//W3C//DTD SVG 1.1//EN" "http://www.w3.org/Graphics/SVG/1.1/DTD/svg11.dtd">
<svg version="1.1" id="Capa_1" xmlns="http://www.w3.org/2000/svg" xmlns:xlink="http://www.w3.org/1999/xlink" x="0px" y="0px"
	 viewBox="0 0 150 150" style="enable-background:new 0 0 150 150;" xml:space="preserve">
<g>
	<path d="M110.607,36.512c-3.133-0.782-6.467-1.218-9.293-2.64c-2.64-1.329-5.051-3.48-6.981-5.762
		c-2.643-3.123-4.304-6.965-8.253-9.087c-1.379-0.741-2.18-3.16-2.575-4.959c-0.414-1.882-1.069-2.621-2.958-2.368
		c-1.139,0.153-2.307,0.168-3.459,0.142c-5.707-0.13-7.319-1.01-9.241-6.077c-0.272-0.717-0.901-0.856-1.442-0.312
		c-0.531,0.534-1.057,1.053-1.563,1.573c-0.535,0.55-1.575,1.174-2.173,1.655c-0.912,0.734-1.398,1.917-0.881,3.4
		c0.032,0.093,0.061,0.185,0.089,0.276c0.047,0.153-0.387,0.682-0.922,1.232c-0.248,0.254-0.486,0.515-0.714,0.781
		c-0.499,0.582-1.285,1.543-1.84,2.073c-0.728,0.695-1.478,1.287-2.328,1.508c-2.704,0.703-2.89,2.03-2.338,3.729
		c0.237,0.729-0.08,1.507-0.805,1.756c-0.546,0.188-1.031,0.378-1.42,0.687c-0.472,0.374-0.863,0.849-1.24,1.342
		c-0.466,0.609-0.236,1.21,0.52,1.345c0.608,0.108,1.217,0.212,1.829,0.294c0.169,0.023,0.387-0.37,0.564-0.355
		c0.388,0.034,0.775,0.088,1.161,0.148c0.639,0.099,0.863,0.638,0.498,1.192c-0.232,0.351-0.482,0.674-0.806,0.879
		c-1.948,1.236-3.961,2.369-6.01,3.544c-0.665,0.382-0.812,1.177-0.337,1.779c2.422,3.07,2.519,3.694,0.893,6.842
		c-0.352,0.681-0.043,1.392,0.654,1.712c2.983,1.371,2.932,3.611,1.265,6.091c-0.428,0.636-0.277,1.381,0.398,1.745
		c2.361,1.274,2.572,1.962,2.614,6.385c0.007,0.767,0.633,1.386,1.392,1.496c3.031,0.441,4.044,2.223,2.333,5.784
		c-0.182,0.378,0.727,1.847,1.204,1.885c3.935,0.32,3.944,2.394,2.617,5.258c-0.083,0.178-0.106,0.384-0.11,0.582
		c-0.007,0.329,0.531,0.928,1.214,1.277c1.306,0.668,2.664,1.263,2.894,2.15c0.098,0.376,0.195,0.753,0.292,1.131
		c0.161,0.625-0.323,1.02-1.077,0.881c-0.628-0.116-1.255-0.232-1.883-0.347c-2.21-0.608-4.5-1.052-7.057-1.593
		c-0.75-0.159-1.231,0.316-1.065,1.065c1.469,6.607,3.563,12.682,8.242,18.365c0.487,0.592,1.058,1.658,1.287,2.39
		c0.057,0.182,0.116,0.364,0.177,0.546c0.243,0.727,0.059,1.706-0.518,2.102c-0.577,0.396-0.838,1.223-0.792,1.988
		c0.171,2.845-2.568,5.029-2.401,7.877c0.047,0.798,0.362,1.913-0.034,2.351c-3.083,3.406-0.449,7.068-0.305,10.473
		c0.15,3.546,1.434,7.267,3.06,10.489c5.375,10.654,20.68,14.855,30.211,8.405c0.635-0.43,1.108-0.831,1.098-0.836
		c-0.009-0.006,0.077-0.05,0.187-0.111c0.067-0.037,0.131-0.077,0.191-0.122c0.308-0.231,0.617-0.463,0.926-0.694
		c0.117-0.09,0.234-0.181,0.351-0.271c0.194-0.15,0.425-0.345,0.51-0.442c0.084-0.097,0.567-0.449,0.938-0.925
		c0.21-0.271,0.41-0.579,0.615-0.901c5.494-8.637,2.014-20.056-7.047-23.006c-3.851-1.254-7.521-0.513-10.411,2.067
		c-2.647,2.364-4.028,5.563-3.138,9.377c0.74,3.173,3.075,4.592,5.859,5.197c3.026,0.658,5.936-0.238,7.64-2.874
		c0.72-1.113,0.672-3.218,0.114-4.498c-0.398-0.913-2.205-1.563-3.428-1.645c-0.559-0.037-1.151,0.413-1.642,1.072
		c-0.458,0.615-0.066,1.262,0.698,1.333c0.302,0.028,0.605,0.057,0.908,0.085c0.764,0.071,1.448,0.413,1.529,0.763
		c0.081,0.35-0.434,0.859-1.135,1.169c-0.877,0.389-1.754,0.761-2.616,0.731c-0.855-0.029-2.431-1.43-2.347-2.029
		c0.2-1.428,0.862-3.382,1.949-3.948c1.406-0.732,4.09-1.07,5.005-0.238c1.698,1.544,3.367,3.997,3.525,6.182
		c0.365,5.057-3.341,8.173-8.745,8.905c-8.402,1.138-14.099-5.545-13.014-14.469c0.613-5.043,3.26-9.062,6.756-12.171
		c0.345-0.307,0.669-0.619,0.975-0.935c0.518-0.537,1.242-0.956,1.659-1.005c0.238-0.028,0.485-0.082,0.742-0.165
		c0.364-0.118,0.724-0.24,1.081-0.366c0.595-0.21,1.674-0.549,2.423-0.713c1.964-0.432,3.835-0.794,5.252-1.796
		c0.579-0.409,0.662-1.519,0.673-2.731c0.007-0.767,0.256-1.963,0.424-2.711c0.195-0.869,0.254-1.757,0.254-2.652
		c0-0.767,0.33-1.892,0.743-2.537c2.033-3.173,3.342-6.718,3.618-10.749c0.278-4.051-0.86-8.2-1.364-12.304
		c-0.181-1.474-0.319-2.957-0.587-4.416c-0.152-0.826-0.497-1.622-0.807-2.412c-0.571-1.455-1.108-2.931-1.795-4.331
		c-0.576-1.175-1.114-2.899-2.078-3.248c-2.244-0.813-3.343-1.906-2.843-4.31c0.477-2.291-0.809-2.895-2.738-2.815
		c-2.417,0.101-3.603-0.907-3.739-3.438c-0.015-0.282-0.191-0.626-0.444-0.949c-0.362-0.462-0.588-1.332-0.713-2.065
		c-0.073-0.426-0.224-0.842-0.418-1.277c-0.065-0.146-0.142-0.28-0.227-0.406c-0.144-0.213,0.111-0.505,0.582-0.71
		c0.292-0.127,0.574-0.262,0.839-0.401c2.26-1.182,4.14-1.191,6.543-0.347c3.958,1.392,8.176,2.034,12.172,3.335
		c2.101,0.684,4.083,1.73,5.698,2.549c0.684,0.347,1.724,0.216,2.324-0.262c1.9-1.515,3.772-2.904,5.37-4.558
		C113.94,38.679,113.234,37.167,110.607,36.512z"/>
</g>
</svg>
