<?xml version="1.0" encoding="iso-8859-1"?>
<!-- Generator: Adobe Illustrator 17.1.0, SVG Export Plug-In . SVG Version: 6.00 Build 0)  -->
<!DOCTYPE svg PUBLIC "-//W3C//DTD SVG 1.1//EN" "http://www.w3.org/Graphics/SVG/1.1/DTD/svg11.dtd">
<svg version="1.1" id="Capa_1" xmlns="http://www.w3.org/2000/svg" xmlns:xlink="http://www.w3.org/1999/xlink" x="0px" y="0px"
	 viewBox="0 0 150 150" style="enable-background:new 0 0 150 150;" xml:space="preserve">
<g>
	<path d="M144.233,84.226c-0.231,0.037-0.462,0.074-0.693,0.111c-1.219-0.734-2.468-1.419-3.684-2.159
		c-2.545-1.55-4.99-3.289-7.629-4.654c-0.631-0.326-1.274-0.625-1.925-0.902c-0.453-0.488-1.032-0.838-1.717-0.939
		c-0.456-0.067-0.911-0.134-1.367-0.201c-1.695-0.545-3.428-0.989-5.172-1.402c-3.904-0.923-7.782-2.024-11.8-2.215
		c-3.552-0.169-7.117-0.131-10.675-0.064c-0.693-1.045-1.89-1.725-3.23-1.772c-9.965-0.353-19.606,2.506-29.28,4.445
		c-1.135,0.227-2.272,0.445-3.414,0.636c-0.482,0.081-0.964,0.159-1.447,0.232c-0.775,0.073-1.551,0.143-2.324,0.228
		c-1.146,0.126-2.294,0.235-3.442,0.338c-0.118,0.011-0.235,0.018-0.353,0.026c-0.367,0.016-0.734,0.029-1.101,0.037
		c-2.05-0.002-4.073-0.366-6.056-0.806c-1.242-0.276-2.461-0.662-3.672-1.077c2.122-2.198,4.094-4.557,5.443-7.283
		c1.823-3.684,2.665-7.989,1.342-11.952c-0.009-0.078-0.023-0.154-0.051-0.225c-0.356-0.92-0.74-1.881-1.342-2.646
		c-2.272-2.889-5.225-4.611-8.902-5.227c-3.205-0.537-6.365-0.547-9.558-0.049c-2.529,0.395-5.072,0.693-7.602,1.082
		c-1.607,0.247-3.191,0.722-4.803,0.832c-1.318,0.091-2.669-0.159-3.995-0.342c-2.24-0.308-4.252-1.196-6.208-2.341
		c-1.136-0.665-2.482-1.022-3.777-1.349c-1.283-0.324-1.766,0.09-1.564,1.357c0.526,3.299,1.881,6.199,4.215,8.663
		c3.246,3.427,7.399,4.573,11.875,4.915c4.581,0.35,9.167,0.362,13.751-0.056c1.301-0.119,2.591-0.064,3.85,0.556
		c0.797,0.392,1.777,0.414,2.733,0.614c-1.466,1.195-2.931,2.392-4.4,3.584c-2.194,1.781-3.658,4.023-4.289,6.789
		c-0.581,2.549-1.188,5.079-0.981,7.748c0.151,1.949,0.632,3.717,1.471,5.502c1.269,2.701,3.262,4.74,5.4,6.664
		c2.005,1.804,4.428,2.869,7.044,3.568c1.552,0.415,3.107,0.693,4.664,0.844c2.491,0.33,5.053,0.233,7.542-0.136
		c5.977-0.887,11.724-2.989,17.614-4.303c5.962-1.33,12.002-2.311,18.085-2.881c11.08-1.038,22.267-0.86,33.3,0.595
		c1.67,0.273,3.334,0.545,4.988,0.815c1.463,0.388,2.952,0.67,4.455,0.845c1.258,0.259,2.577,0.277,3.891,0.322
		c-0.203-0.037-0.406-0.073-0.609-0.11c1.064,0.013,2.131-0.026,3.194-0.121c0.838-0.075,1.24-0.8,1.201-1.453
		c0.044-0.017,0.087-0.03,0.131-0.049c-0.418-0.98-1.041-1.303-1.981-1.169c-0.683,0.097-1.367,0.188-2.051,0.278
		c-0.734-0.001-1.466-0.027-2.195-0.08c1.338-0.214,2.676-0.429,4.013-0.643c0.926-0.043,1.866-0.086,2.816-0.131
		c-0.329-0.062-0.656-0.115-0.982-0.163c0.442-0.071,0.883-0.141,1.325-0.212c0.102,0.074,0.203,0.151,0.302,0.234
		c0.249-0.144,0.445-0.28,0.592-0.413C146.396,86.067,145.706,83.99,144.233,84.226z"/>
</g>
</svg>
