<?xml version="1.0" encoding="iso-8859-1"?>
<!-- Generator: Adobe Illustrator 17.1.0, SVG Export Plug-In . SVG Version: 6.00 Build 0)  -->
<!DOCTYPE svg PUBLIC "-//W3C//DTD SVG 1.1//EN" "http://www.w3.org/Graphics/SVG/1.1/DTD/svg11.dtd">
<svg version="1.1" id="Capa_1" xmlns="http://www.w3.org/2000/svg" xmlns:xlink="http://www.w3.org/1999/xlink" x="0px" y="0px"
	 viewBox="0 0 150 150" style="enable-background:new 0 0 150 150;" xml:space="preserve">
<g>
	<path d="M137.852,78.246c-3.062-2.703-5.417-5.981-7.429-9.509c-0.174-0.304-0.12-0.811-0.023-1.186
		c1.784-6.862,3.594-13.717,5.387-20.577c0.207-0.789,0.351-1.594,0.524-2.391c-0.071-0.051-0.142-0.102-0.212-0.153
		c-1.358,1.631-2.756,3.231-4.067,4.899c-4.615,5.87-9.105,11.833-13.19,18.09c-0.263,0.402-0.56,0.389-0.946,0.347
		c-7.988-0.863-15.977-1.709-23.964-2.578c-7.149-0.778-14.294-1.585-21.443-2.37c-2.632-0.289-4.257-1.654-4.558-4.286
		c-0.223-1.954-0.045-3.952-0.068-5.93c-0.015-1.307-0.067-2.614-0.113-3.92c-0.004-0.114-0.088-0.226-0.166-0.409
		c-1.769,0.333-3.332,1.086-4.749,2.164c-1.73,1.317-2.969,3.043-4.044,4.904c-0.646,1.116-1.281,2.239-1.951,3.341
		c-0.499,0.82-1.185,1.091-2.218,1.129c-4.729,0.172-9.461,0.405-14.176,0.804c-3.083,0.26-6.141,0.833-9.206,1.286
		c-0.097,0.014-0.193,0.034-0.29,0.055c-0.253,0.03-0.505,0.061-0.758,0.091c-0.834,0.1-1.522,0.264-2.137,0.888
		c-0.03,0.031-0.058,0.063-0.086,0.095c-2.667-0.657-5.539-0.471-8.137,0.456c-1.413,0.163-2.823,0.418-4.227,0.752
		c-3.689,0.876-7.331,1.956-10.982,2.984c-1.118,0.315-2.097,0.895-2.723,1.941c-0.284,0.475-0.322,0.902,0.07,1.354
		c0.438,0.506,0.799,1.078,1.246,1.574c0.677,0.751,1.217,1.547,1.338,2.588c0.027,0.234,0.205,0.565,0.401,0.649
		c2.454,1.054,4.358,2.9,6.487,4.426c6.721,4.814,14.281,7.477,22.43,8.559c0.691,0.092,0.921,0.357,1.091,1.001
		c1.716,6.519,4.129,12.747,8.12,18.241c0.947,1.303,2.2,2.412,3.435,3.465c0.645,0.55,1.559,0.785,2.451,1.21
		c-0.062-1.693-0.177-3.168-0.158-4.64c0.07-5.546,0.581-11.044,2.067-16.412c0.244-0.878,0.619-1.726,1.006-2.554
		c0.101-0.216,0.468-0.417,0.726-0.435c6.133-0.429,12.27-0.818,18.402-1.259c0.737-0.053,1.209,0.093,1.706,0.675
		c2.249,2.631,4.731,5.022,7.7,6.842c0.774,0.474,1.649,0.788,2.49,1.149c0.581,0.249,0.898,0.085,1.137-0.573
		c1.093-3.006,2.245-5.991,3.402-8.973c0.221-0.571,0.561-1.095,0.87-1.686c3.379,1.233,6.743,1.952,10.429,0.939
		c-0.774-0.644-1.595-1.188-2.426-1.697c-0.124-0.228-0.344-0.412-0.678-0.492c-0.08-0.019-0.16-0.038-0.24-0.058
		c-1.383-0.815-2.754-1.596-3.944-2.635c0.021-0.072,0.043-0.143,0.065-0.215c0.448-0.082,0.897-0.155,1.343-0.247
		c4.851-0.993,9.536-2.552,14.177-4.236c3.31-1.2,6.556-2.573,9.853-3.807c0.456-0.171,1.12-0.15,1.556,0.059
		c1.27,0.606,2.52,1.281,3.692,2.059c2.81,1.864,5.527,3.87,8.363,5.692c2.793,1.794,5.805,3.131,9.128,3.64
		c2.788,0.427,5.488,0.128,8.088-0.983c0.214-0.092,0.414-0.217,0.602-0.368C144.088,82.772,140.824,80.87,137.852,78.246z"/>
</g>
</svg>
