<?xml version="1.0" encoding="iso-8859-1"?>
<!-- Generator: Adobe Illustrator 17.1.0, SVG Export Plug-In . SVG Version: 6.00 Build 0)  -->
<!DOCTYPE svg PUBLIC "-//W3C//DTD SVG 1.1//EN" "http://www.w3.org/Graphics/SVG/1.1/DTD/svg11.dtd">
<svg version="1.1" id="Capa_1" xmlns="http://www.w3.org/2000/svg" xmlns:xlink="http://www.w3.org/1999/xlink" x="0px" y="0px"
	 viewBox="0 0 150 150" style="enable-background:new 0 0 150 150;" xml:space="preserve">
<g>
	<path d="M144.146,42.169c-1.104-2.054-2.427-3.99-3.641-5.986c-0.133-0.219-0.149-0.51-0.212-0.769
		c-0.056-0.234-0.087-0.474-0.156-0.704c-0.329-1.101-1.097-2.016-1.268-3.206c-0.075-0.518-0.476-1.045-0.856-1.448
		c-0.513-0.543-1.14-0.979-1.734-1.442c-0.444-0.346-0.891-0.692-1.349-1.02c1.073-1.435,1.972-3.487-0.421-4.621
		c-3.937-1.865-2.425-2.468-7.044,0c-3.756,2.006-5.376-1.15-7.298,0.376c-1.328-0.894-2.682-1.752-3.966-2.705
		c-1.134-0.841-2.376-0.908-3.674-0.831c-0.24,0.014-0.595,0.165-0.678,0.351c-0.222,0.496-0.385,1.036-0.462,1.574
		c-0.205,1.435,0.525,2.67,0.957,3.961c0.165,0.493,0.508,0.923,0.731,1.4c0.279,0.594,0.548,1.195,0.766,1.812
		c0.014,0.04,0.026,0.08,0.039,0.12c-1.486,0.486-2.621,0.878-2.577,2.851c0.091,4.04-7.239,2.726-6.63,7.044
		c0.609,4.319-3.581-0.609-5.801,3.937c-2.22,4.546-4.558-3.108-11.603,2.072c0,0-4.144-3.729-7.873,1.036
		c0,0-5.801-5.387-9.945-1.243c-4.144,4.144-5.387-4.558-10.359-0.414c0,0-4.558-4.765-8.495-0.622
		c-3.937,4.144-13.467-6.008-16.782,2.279c0,0-4.391-1.059-4.973,1.865c0,0-6.456-1.492-6.423,5.387c0,0-9.531,9.116,0,13.882
		c0,0-2.279,2.072,1.036,2.693c2.474,0.464-3.127,6.695-1.052,9.657c-0.153,0.089-0.302,0.22-0.302,0.32
		c-0.001,0.877-0.646,1.15-1.26,1.496c-0.862,0.487-1.844,0.876-2.515,1.56c-0.919,0.936-1.625,2.09-2.364,3.19
		c-0.415,0.619-0.674,1.341-1.068,1.978c-0.718,1.163-1.607,2.241-1.472,3.746c0.02,0.216-0.2,0.449-0.29,0.681
		c-0.183,0.476-0.39,0.947-0.518,1.438c-0.173,0.661-0.25,1.347-0.425,2.007c-0.165,0.622-0.383,1.232-0.621,1.83
		c-0.13,0.328-0.31,0.656-0.542,0.919c-0.216,0.245-0.316,0.366-0.055,0.671c0.176,0.205,0.277,0.6,0.212,0.86
		c-0.151,0.606-0.53,1.165-0.622,1.773c-0.142,0.941-0.139,1.906-0.166,2.862c-0.028,0.998,0.223,2.006-0.269,2.977
		c-0.486,0.959-0.944,1.938-1.317,2.945c-0.125,0.339,0.046,0.788,0.084,1.187c0.026,0.263,0.174,0.595,0.066,0.775
		c-0.501,0.835-1.063,1.559-1.013,2.683c0.033,0.757-0.47,1.57-0.839,2.306c-0.494,0.985-0.756,2.008-0.888,3.059
		c-1.499,1.566-2.042,3.988-1.189,6.011c0.454,1.077,1.186,2.023,2.178,2.661c0.582,0.374,1.162,0.614,1.854,0.67l1.817,0.147
		c0.752,0.061,1.381-0.674,1.381-1.381c0-0.17-0.03-0.327-0.083-0.471c0.006-0.025,0.011-0.051,0.017-0.076
		c0.245,0.422,0.687,0.744,1.181,0.686c0.363-0.043,0.725-0.086,1.087-0.129c1.019-0.121,1.749-1.085,1.193-2.078l-2.598-4.642
		c0.126-0.33,0.247-0.662,0.375-0.992c0.704-1.819,1.542-3.535,3.301-4.609c0.221-0.135,0.335-0.464,0.469-0.72
		c0.613-1.176,1.076-2.46,1.859-3.508c0.802-1.075,1.178-2.278,1.541-3.489c0.419-1.4,0.693-2.849,0.95-4.29
		c0.419-2.348,0.771-4.707,1.156-7.061c0.163-0.995,0.384-1.983,1.408-2.465c1.97-0.927,3.71-2.168,5.254-3.696
		c0.04-0.039,0.124-0.033,0.294-0.074c0.072,0.364,0.187,0.71,0.202,1.06c0.074,1.672,0.119,3.346,0.182,5.018
		c0.006,0.154,0.061,0.307,0.099,0.459c0.057,0.23,0.183,0.462,0.169,0.686c-0.071,1.155,0.14,2.167,1.166,2.886
		c0.57,0.4,0.598,1.294,0.192,1.85c-0.15,0.206-0.203,0.59-0.123,0.834c0.21,0.645,0.622,1.235,0.765,1.888
		c0.312,1.426,1.05,2.613,1.867,3.772c0.956,1.358,1.605,2.877,1.734,4.507c0.094,1.188,0.593,2.1,1.361,2.831
		c1.385,1.317,2.249,2.864,2.68,4.706c0.151,0.646,0.328,1.284,0.561,1.9c-0.447,0.522-0.473,1.404,0.065,1.882
		c0.829,0.737,1.658,1.473,2.487,2.21c0.562,0.5,1.398,0.556,1.953,0c0.121-0.121,0.215-0.266,0.282-0.424h0.359
		c0.173,0.403,0.543,0.741,0.937,0.85c0.795,0.219,1.41-0.27,1.699-0.965c0.064-0.154,0.121-0.31,0.174-0.468
		c0.156-0.248,0.231-0.547,0.222-0.844c0.195-0.992,0.175-2.028-0.054-3.013c-0.091-1.289-0.181-2.579-0.296-3.866
		c-0.077-0.864-0.115-1.748-0.338-2.577c-0.243-0.902-0.676-1.753-1.034-2.623c-0.113-0.274-0.193-0.592-0.386-0.797
		c-0.628-0.666-0.775-1.48-0.872-2.338c-0.082-0.727-0.187-1.455-0.347-2.167c-0.28-1.246-0.647-2.473-0.906-3.723
		c-0.148-0.715-0.177-1.459-0.221-2.192c-0.037-0.624,0.001-1.227,0.519-1.715c0.177-0.167,0.261-0.492,0.283-0.754
		c0.043-0.536,0.287-0.906,0.777-1.083c0.716-0.259,1.042-0.767,1.111-1.503c0.019-0.203,0.159-0.394,0.244-0.591
		c0.175,0.106,0.35,0.211,0.619,0.374c0.125-0.399,0.414-0.828,0.324-1.151c-0.135-0.487,0.055-0.638,0.385-0.841
		c0.458-0.282,1.054-0.486,0.788-1.256c-0.04-0.116,0.119-0.401,0.251-0.46c0.545-0.242,0.472-0.716,0.508-1.158
		c0.022-0.275,0.035-0.55,0.069-0.824c0.083-0.665,0.348-1.198,0.711-1.662c2.007,1.367,4.716,1.962,7.557-1.059
		c0.261,0.038,0.521,0.075,0.783,0.109c0.42,0.055,0.84,0.109,1.26,0.161c1.347,2.801,4.821,6.992,12.324,0.633
		c0.629-2.393,7.176,8.191,14.719,5.303c1.122-0.43,1.757-1.37,2.593-1.749c0.011,1.825-0.083,3.651-0.093,5.477
		c-0.002,0.389,0.065,0.869,0.294,1.147c0.359,0.436,0.268,0.71-0.113,0.96c-0.521,0.343-0.62,0.701-0.179,1.176
		c0.378,0.409,0.309,0.744-0.255,0.959c0.14,0.134,0.247,0.221,0.336,0.323c0.624,0.715,0.587,1.388,0.014,2.1
		c-0.226,0.281-0.306,0.706-0.374,1.08c-0.111,0.609-0.11,1.24-0.24,1.843c-0.229,1.064-0.299,2.1-0.111,3.195
		c0.115,0.665-0.092,1.405-0.242,2.092c-0.146,0.67-0.463,1.303-0.602,1.973c-0.27,1.302-0.432,2.571,0.228,3.72
		c0.27,3.465,2.673,6.688,6.096,7.709c0.729,0.218,1.278-0.142,1.538-0.665c0.447,0.037,0.895,0.073,1.342,0.106
		c0.045,0.003,0.085,0.006,0.128,0.008c0.008,0.014,0.016,0.028,0.024,0.042c0.889,1.543,3.276,0.152,2.385-1.394l-1.195-2.075
		c-0.073-0.211-0.177-0.416-0.324-0.614c-0.043-0.059-0.087-0.117-0.131-0.176c-0.539-0.935-1.077-1.871-1.616-2.806
		c-0.096-0.168-0.211-0.299-0.337-0.401c-0.072-0.194-0.136-0.393-0.19-0.599c0.712-0.606,0.643-1.386,0.467-2.207
		c-0.064-0.298-0.066-0.627-0.018-0.929c0.195-1.199,0.661-2.411,0.571-3.583c-0.098-1.277,1.219-2.132,0.748-3.407
		c-0.004-0.012,0.095-0.047,0.102-0.081c0.255-1.197,0.664-2.39,0.325-3.628c-0.105-0.385,0.048-0.562,0.243-0.838
		c0.266-0.374,0.596-0.84,0.58-1.254c-0.055-1.404,0.668-2.491,1.25-3.654c0.302-0.604,0.644-1.236,0.732-1.888
		c0.206-1.525,0.251-3.071,0.406-4.604c0.028-0.274,0.205-0.639,0.426-0.765c0.528-0.303,1.361-0.017,1.741,0.497
		c0.507,0.686,1.571,1.033,2.042,0.771c0.499,0.233,0.927,0.422,1.345,0.63c1.167,0.582,2.344,1.146,3.489,1.769
		c0.528,0.287,0.634,1.284,1.565,0.929c0.06-0.023,0.18,0.126,0.278,0.185c0.39,0.235,0.817,0.424,1.167,0.707
		c0.672,0.542,1.439,1.045,1.899,1.742c0.315,0.476,0.202,1.251,0.234,1.895c0.073,1.439,0.111,2.879,0.174,4.319
		c0.04,0.917,0.097,1.833,0.149,2.75c0.014,0.251,0.025,0.503,0.059,0.752c0.197,1.43,0.555,2.859,0.564,4.29
		c0.013,2.107-0.202,4.217-0.361,6.323c-0.012,0.163-0.02,0.322-0.016,0.476c-0.124,0.063-0.243,0.148-0.354,0.258
		c-0.492,0.492-0.584,1.477,0,1.953c2.434,1.984,5.443,2.781,8.541,2.263c0.643-0.107,1.031-0.798,1.007-1.416
		c0.057-0.307,0.012-0.625-0.184-0.879c-0.733-0.951-1.466-1.903-2.199-2.854c-0.353-1.07-0.315-2.039-0.165-3.114
		c0.219-1.568,0.223-3.167,0.439-4.735c0.229-1.66,0.64-3.291,0.487-4.994c-0.101-1.121-0.036-2.258-0.152-3.377
		c-0.082-0.79,0.181-1.669-0.482-2.358c-0.069-0.072-0.034-0.356,0.052-0.448c0.571-0.612,0.223-1.178-0.014-1.783
		c-0.24-0.612-0.597-1.259-0.574-1.879c0.111-2.966-0.546-5.786-1.423-8.578c-0.158-0.503-0.403-0.984-0.518-1.496
		c-0.281-1.249-0.509-2.51-0.759-3.765c-0.321-1.608,0.073-2.96,1.337-4.07c0.339-0.298,0.588-0.78,0.712-1.224
		c0.115-0.41,0.166-0.837,0.22-1.264c1.626-0.686,2.868-2.149,1.934-5.378c0.36-0.904,0.645-1.834,0.865-2.789
		c2.49,0.517,5.506-0.159,2.128-8.397c0.984-2.415,3.09-3.69,4.79-5.395c0.047-0.047,0.117-0.073,0.181-0.099
		c1.11-0.441,2.207-0.925,3.34-1.296c0.396-0.13,0.92-0.083,1.324,0.058c1.602,0.559,3.163,0.606,4.644-0.289
		c0.427-0.258,0.756-0.703,1.078-1.103c0.364-0.452,0.61-1.008,1.011-1.417c1.014-1.034,1.208-1.746,0.677-3.041
		c0.5-0.17,0.957-0.409,0.759-1.056C144.957,44.54,144.73,43.257,144.146,42.169z"/>
</g>
</svg>
