<?xml version="1.0" encoding="iso-8859-1"?>
<!-- Generator: Adobe Illustrator 17.1.0, SVG Export Plug-In . SVG Version: 6.00 Build 0)  -->
<!DOCTYPE svg PUBLIC "-//W3C//DTD SVG 1.1//EN" "http://www.w3.org/Graphics/SVG/1.1/DTD/svg11.dtd">
<svg version="1.1" id="Capa_1" xmlns="http://www.w3.org/2000/svg" xmlns:xlink="http://www.w3.org/1999/xlink" x="0px" y="0px"
	 viewBox="0 0 150 150" style="enable-background:new 0 0 150 150;" xml:space="preserve">
<g>
	<path d="M20.405,85.729c-0.817,0.511-1.722,0.877-2.559,1.359c-0.331,0.191-0.765,0.51-0.805,0.816
		c-0.041,0.309,0.275,0.843,0.569,0.971c0.333,0.145,0.848,0.031,1.223-0.119c0.524-0.211,0.984-0.574,1.484-0.848
		c1.151-0.63,2.143-0.732,3.28,0.288c0.704,0.631,1.857,0.795,2.835,1.078c1.109,0.321,2.236,0.609,3.374,0.789
		c2.804,0.444,5.644,0.693,8.421,1.258c2.338,0.475,4.667-0.007,6.99,0.271c0.601,0.072,1.252-0.296,1.86-0.241
		c1.861,0.167,3.58-0.314,5.372-0.729c2.532-0.586,4.988-1.246,7.268-2.511c1.238-0.687,2.61-0.739,3.987-0.732
		c1.836,0.009,3.674-0.025,5.509,0.019c1.391,0.033,2.781,0.234,4.17,0.223c1.359-0.011,2.723-0.146,4.073-0.315
		c1.825-0.228,3.639-0.747,5.458-0.747c1.424,0,2.952-0.3,4.332,0.431c0.067,0.036,0.15,0.05,0.227,0.06
		c2.06,0.263,4.115,0.567,6.182,0.761c0.707,0.066,1.44-0.143,2.16-0.228c0.078-0.009,0.153-0.041,0.231-0.047
		c1.618-0.118,3.241-0.198,4.855-0.361c1.721-0.174,3.434-0.43,5.151-0.644c0.312-0.039,0.635-0.1,0.941-0.059
		c1.377,0.184,2.745,0.444,4.126,0.597c2.164,0.24,4.335,0.429,6.505,0.617c2.041,0.176,4.085,0.46,6.126,0.448
		c2.67-0.017,4.779,1.639,7.246,2.149c1.4,0.29,2.838,0.4,4.257,0.596c1.272,0.177,2.544,0.347,3.813,0.545
		c1.94,0.302,3.881,0.463,5.789-0.13c1.454-0.452,1.875-1.605,1.081-2.916c-0.295-0.487-0.672-0.965-1.116-1.313
		c-1.229-0.962-2.513-1.854-3.776-2.773c-0.17-0.124-0.348-0.237-0.513-0.368c-2.581-2.059-5.118-4.175-7.757-6.155
		c-1.273-0.955-2.141-2.321-3.492-3.165C90.104,50.13,46.989,71.66,46.989,71.66c-1.02,0.326-1.982,0.842-2.952,1.312
		c-1.536,0.743-3.127,1.274-4.85,1.227c-1.993-0.055-3.984-0.169-5.976-0.258c-0.315-0.014-0.648-0.113-0.94-0.039
		c-1.225,0.31-2.159-0.24-3.028-0.97c-4.071-3.417-8.131-6.849-12.204-10.265c-0.84-0.704-1.425-1.485-1.473-2.658
		c-0.041-0.983-0.678-1.554-1.589-1.689c-0.684-0.101-1.587,0.382-1.911,1.024c-0.361,0.716-0.249,2.011,0.276,2.455
		c0.246,0.208,0.62,0.258,0.914,0.418c0.378,0.206,0.818,0.378,1.087,0.69c2.254,2.609,4.456,5.263,6.713,7.87
		c1.479,1.708,3.024,3.36,4.536,5.041c0.102,0.114,0.172,0.255,0.23,0.344c-0.474,0.487-0.894,0.869-1.254,1.302
		c-0.325,0.39-0.681,0.478-1.112,0.256c-0.911-0.469-1.855-0.889-2.715-1.441c-4.164-2.673-8.308-5.375-12.445-8.09
		c-0.333-0.219-0.596-0.58-0.818-0.923c-0.557-0.864-1.602-1.261-2.528-0.912c-0.935,0.353-1.398,1.169-1.258,2.206
		c0.102,0.759,0.561,1.207,1.289,1.278c0.993,0.097,1.789,0.562,2.554,1.14c3.359,2.54,6.732,5.061,10.078,7.619
		c1.145,0.875,2.268,1.789,3.318,2.773c0.777,0.729,0.656,0.944-0.313,1.351c-0.916,0.385-1.805,0.838-2.68,1.31
		c-0.185,0.099-0.367,0.418-0.349,0.619c0.018,0.202,0.27,0.521,0.448,0.542c0.393,0.045,0.819-0.013,1.205-0.124
		c0.534-0.154,1.042-0.394,1.561-0.598c0.084,0.089,0.168,0.179,0.252,0.268C20.845,85.074,20.711,85.538,20.405,85.729z"/>
</g>
</svg>
