<?xml version="1.0" encoding="iso-8859-1"?>
<!-- Generator: Adobe Illustrator 17.1.0, SVG Export Plug-In . SVG Version: 6.00 Build 0)  -->
<!DOCTYPE svg PUBLIC "-//W3C//DTD SVG 1.1//EN" "http://www.w3.org/Graphics/SVG/1.1/DTD/svg11.dtd">
<svg version="1.1" id="Capa_1" xmlns="http://www.w3.org/2000/svg" xmlns:xlink="http://www.w3.org/1999/xlink" x="0px" y="0px"
	 viewBox="0 0 150 150" style="enable-background:new 0 0 150 150;" xml:space="preserve">
<g>
	<path d="M8.702,98.673c-0.754,0.442-1.331,1.153-1.607,1.98c-0.358,0.733-0.465,1.589-0.221,2.477
		c0.5,1.818,2.584,3.162,4.453,2.528c0.086-0.029,0.171-0.057,0.257-0.085c1.17,0.159,2.341,0.31,3.513,0.445
		c9.691,1.123,19.474,1.368,29.206,0.731c0.232,0.022,0.466,0.033,0.704,0.029c2.891-0.049,5.781-0.098,8.672-0.147
		c10.228-0.174,20.457-0.347,30.685-0.521c3.274,0.327,6.557,0.571,9.844,0.726c8.495,0.4,16.988,0.209,25.445-0.515
		c0.321,0.03,0.642,0.057,0.964,0.081c2.682,0.196,5.42,0.121,8.101-0.285c0.917,0.012,1.835,0.001,2.748-0.081
		c1.522-0.136,3.103-0.327,4.537-0.889c1.59-0.623,3.059-1.374,4.273-2.609c1.144-1.165,1.971-2.517,2.517-4.05
		c0.894-2.509,0.49-5.565-1.16-7.69c1.245-2.313,1.616-5.076,0.926-7.624c0.186-0.181,0.339-0.391,0.402-0.652
		c0.113-0.463,0.019-0.963-0.336-1.302c-0.428-0.409-1.171-0.434-1.586,0.018c-0.149,0.162-0.247,0.33-0.301,0.525
		c-0.24,0.228-0.378,0.578-0.254,0.894c0.863,2.197,0.79,4.708-0.192,6.83c-1.224-0.95-2.574-1.708-4.113-2.035
		c0.199-0.431,0.34-0.887,0.409-1.355c0.085-0.58,0.107-1.124,0.018-1.704c-0.092-0.605-0.319-1.168-0.484-1.754
		c-0.11-0.392-0.274-0.917-0.081-1.296c0.065-0.128,0.159-0.319,0.253-0.375c0.13-0.078,0.124-0.067,0.271-0.058
		c1.166,0.075,1.159-1.736,0-1.81c-1.142-0.073-2.127,0.917-2.333,1.998c-0.251,1.32,0.417,2.391,0.609,3.655
		c0.13,0.85-0.11,1.711-0.581,2.422c-1.03-0.083-2.062-0.064-3.103,0.047c-2.97,0.316-5.932,0.76-8.894,1.147
		c-2.991,0.391-5.983,0.781-8.974,1.172c-1.082,0.141-2.164,0.283-3.247,0.424c0.683-2.61,0.322-5.196-1.106-7.753
		c-0.217-0.389-0.519-0.744-0.836-1.06c-0.239-0.24-0.245-0.436-0.175-0.749c0.786-3.519-0.033-6.621-2.472-9.286
		c-0.051-0.055-0.105-0.109-0.165-0.154c-0.381-0.287-0.916-0.497-1.105-0.878c-0.19-0.384,0.013-0.944-0.041-1.416
		c-0.3-2.613-1.423-4.814-3.452-6.496c-0.567-0.47-1.276-0.781-1.948-1.108c-0.25-0.122-0.341-0.245-0.403-0.504
		c-0.747-3.134-2.566-5.391-5.546-6.663c-0.423-0.181-0.896-0.275-1.355-0.334c-0.317-0.041-0.449-0.179-0.582-0.448
		c-1.371-2.773-3.595-4.427-6.633-4.976c-0.381-0.069-0.793-0.096-1.169-0.026c-0.431,0.08-0.645-0.09-0.882-0.403
		c-1.788-2.366-5.483-3.686-8.199-2.902c-0.016,0.005-0.031,0.009-0.046,0.012c-0.354-0.085-0.71-0.167-1.067-0.244
		c-2.379-1.676-4.987-2.182-7.728-1.086c-0.783,0.313-1.324,0.289-2.085,0.034c-2.559-0.859-5.036-0.648-7.233,1.054
		c-0.418,0.323-0.729,0.419-1.258,0.34c-2.64-0.396-4.979,0.281-6.79,2.295c-0.464,0.516-0.859,0.742-1.557,0.817
		c-2.465,0.265-4.453,1.414-5.618,3.662c-0.313,0.604-0.673,0.828-1.264,1.036c-2.216,0.781-3.806,2.261-4.439,4.562
		c-0.184,0.67-0.489,1.003-1.042,1.372c-2.047,1.363-3.23,3.242-3.123,5.797c0.006,0.153-0.106,0.358-0.229,0.462
		c-1.495,1.28-2.262,2.916-2.342,4.861c-0.022,0.53,0.113,1.073,0.229,1.599c0.054,0.244,0.036,0.397-0.114,0.605
		c-1.32,1.829-1.678,3.835-0.84,5.939c0.252,0.633,0.253,1.091,0.064,1.727c-0.609,2.054-0.379,3.993,1.124,5.659
		c0.093,0.104,0.114,0.323,0.088,0.475c-0.315,1.836,0.13,3.464,1.309,4.898c0.076,0.093,0.15,0.204,0.25,0.258
		c0.685,0.368,0.833,0.96,0.953,1.7c0.049,0.301,0.118,0.59,0.205,0.868c-7.012,0.959-13.942,2.531-20.669,4.719
		C10.046,98.184,9.391,98.27,8.702,98.673z"/>
</g>
</svg>
