<?xml version="1.0" encoding="iso-8859-1"?>
<!-- Generator: Adobe Illustrator 17.1.0, SVG Export Plug-In . SVG Version: 6.00 Build 0)  -->
<!DOCTYPE svg PUBLIC "-//W3C//DTD SVG 1.1//EN" "http://www.w3.org/Graphics/SVG/1.1/DTD/svg11.dtd">
<svg version="1.1" id="Capa_1" xmlns="http://www.w3.org/2000/svg" xmlns:xlink="http://www.w3.org/1999/xlink" x="0px" y="0px"
	 viewBox="0 0 150 150" style="enable-background:new 0 0 150 150;" xml:space="preserve">
<g>
	<path d="M147.5,32.926V32.75c0-0.645-1-0.645-1,0v0.5c0,0.102,0.031,0.182,0.073,0.252c-0.257,0.159-0.514,0.319-0.771,0.478
		c-0.01-0.041-0.021-0.082-0.031-0.123c-0.158-0.625-1.123-0.36-0.964,0.266c0.035,0.137,0.069,0.273,0.104,0.41
		c-0.477,0.296-0.953,0.591-1.429,0.887c-0.275-0.276-0.701-0.37-1.114-0.3c-0.277,0.047-0.485,0.246-0.646,0.459
		c-0.204,0.269-0.115,0.62-0.009,0.939c-0.162,0.101-0.325,0.202-0.487,0.302c-0.296-0.133-0.725,0.006-0.725,0.43v0.02
		c-0.427,0.265-0.855,0.53-1.282,0.796c-0.296-0.127-0.718,0.014-0.718,0.434v0.011c-0.429,0.266-0.859,0.533-1.288,0.799
		c-0.176-0.445-0.962-0.383-0.962,0.189v0.407c-0.165,0.103-0.331,0.205-0.496,0.308c-0.548,0.087-1.096,0.174-1.644,0.261
		c-0.215,0.034-0.369,0.279-0.367,0.482c0.001,0.168,0.003,0.335,0.004,0.503l-0.783,0.486l-0.095-0.118
		c0.076-0.08,0.13-0.185,0.13-0.328v-0.776c2.365-2.707,4.488-5.651,6.939-8.274c0.134-0.048,0.238-0.154,0.282-0.307
		c0.895-0.938,1.834-1.831,2.849-2.651c0.177,0.133,0.423,0.164,0.622-0.043c0.426-0.443,0.851-0.887,1.277-1.33
		c0.267-0.173,0.517-0.364,0.796-0.527c0.099,0.106,0.225,0.185,0.366,0.232c0.216,0.156,0.553,0.174,0.748-0.11
		c0.047-0.068,0.08-0.141,0.125-0.21c0.005-0.012,0.015-0.021,0.02-0.033c1.127-1.755,1.578-3.756,1.364-5.74
		c0.248-2.212-0.014-4.436-1.531-6.66c-1.917-2.812-3.959-5.552-6.079-8.218c-2.79-3.509-5.999-3.748-9.181-1.053
		c-12.249,10.374-24.591,20.639-36.793,31.068c-4.401,3.762-8.18,8.31-12.817,11.731c-8.644,6.378-17.661,12.263-26.638,18.184
		c-1.714,1.131-3.913,1.624-5.97,2.153c-2.251,0.579-3.393,1.804-3.706,4.226c-0.36,2.787-0.875,5.612-1.844,8.187
		c-0.594,1.58-1.39,3.111-2.322,4.531c-0.105-0.022-0.221-0.007-0.339,0.079l-2.024,1.467c-0.249,0.18-0.259,0.473-0.148,0.688
		c-1.459,0.811-2.936,1.591-4.456,2.298c-0.143,0.067-0.219,0.169-0.246,0.281c-0.379,0.199-0.603,0.652-0.514,1.083
		c0.058,0.28,0.279,0.375,0.496,0.349c-0.269,0.396-0.463,0.842-0.527,1.327c-0.047-0.002-0.092-0.008-0.144,0.004
		c-0.93,0.215-1.482,1.116-1.418,2.006c-1.127,0.281-2.087,1.299-1.973,2.543c0.008,0.09,0.038,0.163,0.078,0.228
		c-0.096-0.015-0.199-0.008-0.308,0.068c-0.605,0.421-1.024,0.998-1.25,1.64c-0.598,0.087-1.159,0.298-1.662,0.605
		c-0.069,0.022-0.13,0.06-0.182,0.11c-0.942,0.64-1.633,1.646-1.882,2.863c-0.253-0.103-0.576-0.033-0.661,0.308
		c-0.036,0.145-0.073,0.29-0.109,0.435c-0.216-0.028-0.442,0.069-0.512,0.346c-0.084,0.333-0.168,0.666-0.253,0.999v0
		c-0.124,0.056-0.247,0.111-0.37,0.167c-0.119-0.034-0.245-0.019-0.366,0.059c-0.297-0.154-0.749-0.02-0.745,0.416
		c0.001,0.116,0.015,0.228,0.037,0.336c-0.041,0.105-0.043,0.219-0.013,0.324C22.013,106.941,22,106.966,22,107v0.25
		c0,0.238,0.136,0.386,0.308,0.449c-2.341,1.82-4.252,3.799-4.923,6.78c-1.008,4.476-4.136,6.566-8.14,7.809
		c-0.874,0.271-1.738,0.592-2.645,0.936c-0.073-0.024-0.153-0.035-0.242-0.022c-0.59,0.088-1.179,0.177-1.769,0.265
		c-0.295,0.044-0.382,0.372-0.349,0.615c0.084,0.627,0.435,1.146,0.921,1.504c0.052,0.157,0.093,0.312,0.138,0.468
		c-0.167,0.064-0.3,0.211-0.298,0.445c0.002,0.293-0.08,0.731,0.074,0.994c0.055,0.094,0.146,0.176,0.249,0.251
		c-0.406,0.76-0.286,1.702,0.26,2.371c-0.712,0.354-1.272,0.952-1.592,1.742c-0.097,0.24,0.004,0.421,0.17,0.518
		c0.002,0.11,0.036,0.223,0.132,0.325l0.66,0.701c-0.172,0.264-0.212,0.591-0.14,0.891c-0.053,0.027-0.105,0.063-0.153,0.118
		c-0.575,0.669-0.474,1.67,0.241,2.18c-0.042,0.229-0.073,0.46-0.114,0.689c-0.276-0.049-0.605,0.102-0.624,0.466
		c-0.115,2.268-0.52,4.43-1.29,6.568c-0.219,0.608,0.747,0.868,0.964,0.266c0.128-0.354,0.229-0.711,0.337-1.067
		c-0.037,1.037-0.067,2.076-0.124,3.109c0.31,0.126,0.62,0.253,0.93,0.379c0.778-1.395,1.583-2.773,2.328-4.186
		c2.857-5.422,5.608-10.908,8.603-16.243c0.679-1.209,2.019-2.281,3.327-2.775c7.791-2.947,15.605-5.858,23.528-8.474
		c4.997-1.65,8.61-5.118,12.492-8.281c3.802-3.098,7.668-6.013,12.38-7.787c2.27-0.855,4.208-2.533,6.221-3.944
		c5.257-3.687,10.488-7.41,15.694-11.168c1.715-1.238,3.329-2.617,4.974-3.949c2.589-2.097,5.165-4.209,7.625-6.216
		c3.447,2.749,3.571,2.547,5.705-0.324c1.439-1.937,3.312-3.42,2.856-6.354c-0.072-0.464,1.023-1.125,1.678-1.545
		c6.467-4.15,11.595-9.601,16.237-15.759c2.487-3.3,6.372-5.49,9.691-8.1c2.843-2.236,5.801-4.327,8.658-6.546
		c0.864-0.671,1.559-1.557,2.332-2.345c-0.202-0.274-0.404-0.547-0.606-0.821C148.302,32.429,147.901,32.678,147.5,32.926z"/>
</g>
</svg>
