<?xml version="1.0" encoding="iso-8859-1"?>
<!-- Generator: Adobe Illustrator 17.1.0, SVG Export Plug-In . SVG Version: 6.00 Build 0)  -->
<!DOCTYPE svg PUBLIC "-//W3C//DTD SVG 1.1//EN" "http://www.w3.org/Graphics/SVG/1.1/DTD/svg11.dtd">
<svg version="1.1" id="Capa_1" xmlns="http://www.w3.org/2000/svg" xmlns:xlink="http://www.w3.org/1999/xlink" x="0px" y="0px"
	 viewBox="0 0 150 150" style="enable-background:new 0 0 150 150;" xml:space="preserve">
<g>
	<path d="M6.915,117.747c1.177-1.375,3.008-5.507,10.885-10.513c2.91-1.846,6.026-4.39,11.423-6.049
		c0.675-0.208,1.382-0.399,2.092-0.584c-0.032,0.976-0.165,2.558-0.229,3.344c-0.294,3.572-1.28,6.008-1.093,7.772
		c-1.517,2.104-4.938,2.552-6.439,3.015c-1.35,0.413-2.03,1.708-3.871,1.381c-1.255-0.224-3.807-0.567-4.843-0.362
		c-0.729,0.147-1.701,0.362-1.628,0.58c0.049,0.143,1.903-0.128,3.836,0.234c2.837,0.535,2.543,1.102,3.242,1.142
		c1.688,0.104,2.624-1.354,3.634-1.695c2.681-0.9,7.13-2.304,7.313-3.572c1.323-0.683,1.226-4.898,1.38-6.749
		c0.111-1.271,0.513-3.704,0.705-5.463c3.15-0.692,4.897-0.984,8.129-1.253c0.486,0.155,2.316,0.701,2.74,0.829
		c0.189,0.059,0.394,0.127,0.594,0.188c-1.034,0.329-1.685,1.1-1.666,2.006c-1.199,0.624-1.263,5.611-1.342,8.854
		c-0.076,3.246-0.91,11.435-1.374,13.268c-0.456,1.829-1.134,2.871-1.134,2.871s-1.72,0.258-3.904,1.111
		c-2.187,0.852-3.418,1.859-4.668,1.605c-1.245-0.259-3.464-1.347-4.233-1.07c-0.696,0.25-1.898,0.987-1.628,1.201
		c0.491,0.387,0.389-0.71,3.612,0.273c0.891,0.266,0.429,0.794,0.743,0.98c0.316,0.184,0.551-0.363,1.207-0.109
		c0.656,0.252,0.407,0.915,1.128,0.823c0.729-0.085,0.176-0.678,4.012-2.052c1.96-0.702,4.689-0.771,4.884-2.033
		c1.307-0.503,1.863-5.927,2.727-12.608c0.462-3.56,0.794-9.468,1.261-11.412c0.44,0.371,1.733,0.1,4.703,0.861
		c1.928,0.489,7.875,2.325,9.697,2.898c1.82,0.573,4.684,1.207,5.521,0.795c0.383-0.19,0.988,0.05,1.625,0.36
		c0.534,1.408,0.875,2.461,0.875,2.461s0.359,2.362,1.142,3.426c0.656,0.899,1.442,1.196,1.442,1.196
		c-0.64,1.276,0.178,3.469,1.093,2.918c0.91-0.547-1.093-2.191,0.367-2.191c0.259,0,0.513-0.038,0.761-0.093
		c0.243,0.049,1.083,0.092,1.288,0.1c0.028,0.001,0.05,0.003,0.077,0.005c0.027-0.001,0.049-0.003,0.077-0.005
		c0.205-0.008,1.045-0.052,1.288-0.1c0.249,0.056,0.502,0.093,0.761,0.093c1.461,0-0.543,1.644,0.367,2.191
		c0.915,0.551,1.733-1.643,1.093-2.918c0,0,0.786-0.297,1.442-1.196c0.783-1.063,1.142-3.426,1.142-3.426s0.34-1.053,0.875-2.461
		c0.637-0.311,1.242-0.551,1.625-0.36c0.837,0.412,3.701-0.221,5.521-0.795c1.822-0.574,7.77-2.41,9.697-2.898
		c2.97-0.761,4.263-0.49,4.703-0.861c0.467,1.944,0.799,7.852,1.261,11.412c0.864,6.68,1.42,12.104,2.727,12.608
		c0.195,1.262,2.924,1.331,4.884,2.033c3.836,1.374,3.283,1.967,4.012,2.052c0.721,0.092,0.472-0.571,1.128-0.823
		c0.656-0.254,0.891,0.293,1.207,0.109c0.313-0.186-0.148-0.714,0.743-0.98c3.223-0.983,3.121,0.115,3.612-0.273
		c0.27-0.214-0.931-0.951-1.628-1.201c-0.769-0.277-2.989,0.811-4.233,1.07c-1.25,0.254-2.481-0.753-4.668-1.605
		c-2.184-0.853-3.904-1.111-3.904-1.111s-0.678-1.042-1.134-2.871c-0.464-1.833-1.298-10.021-1.374-13.268
		c-0.078-3.242-0.143-8.23-1.342-8.854c0.019-0.906-0.632-1.677-1.666-2.006c0.15-0.046,0.3-0.094,0.447-0.141
		c0.048-0.015,0.1-0.032,0.147-0.046c0.424-0.128,2.254-0.673,2.74-0.829c2.624,0.218,4.279,0.455,6.491,0.906
		c0.512,0.104,1.045,0.217,1.637,0.347c0.192,1.759,0.594,4.191,0.705,5.463c0.154,1.851,0.057,6.066,1.38,6.749
		c0.184,1.268,4.633,2.671,7.313,3.572c1.01,0.342,1.946,1.799,3.634,1.695c0.699-0.04,0.405-0.607,3.242-1.142
		c1.933-0.362,3.788-0.09,3.836-0.234c0.073-0.219-0.899-0.433-1.628-0.58c-1.037-0.205-3.588,0.138-4.843,0.362
		c-1.841,0.327-2.522-0.968-3.871-1.381c-1.501-0.463-4.922-0.911-6.439-3.015c0.186-1.764-0.799-4.201-1.093-7.772
		c-0.065-0.786-0.197-2.368-0.229-3.344c0.71,0.185,1.417,0.377,2.092,0.584c5.397,1.659,8.512,4.202,11.423,6.049
		c7.878,5.005,9.708,9.137,10.885,10.513c1.971,2.314,3.734,3.932,2.532,2.502c-1.552-1.846-4.76-8.169-12.189-13.182
		c-3.494-2.357-7.162-5.085-12.888-6.797c-0.594-0.177-1.201-0.339-1.82-0.497c-0.108-2.585-0.3-5.066-1.055-5.469
		c-1.212-1.759-9.719,0.227-12.079,1.049c-0.057,0.023-0.13,0.043-0.192,0.065c2.071-1.228,4.052-2.491,5.885-3.709
		c5.324-3.552,10.812-10.583,16.682-14.292c1.496-0.942,3.709-1.157,4.749,0.467c0.697,2.431-0.348,7.646-0.929,9.732
		c-0.575,2.084-0.923,4.4-0.923,5.674c0,1.277,0.348,2.666,1.161,2.432c0.807-0.232,3.591,0.003,4.965,0.208
		c1.38,0.204,3.232-1.535,3.847-2.076c0.235-0.207,0.618-0.435,0.95-0.643c0.453-0.035,0.769,0.083,0.775-0.003
		c0.005-0.078-0.221-0.178-0.405-0.25c0.3-0.223,0.405-0.389-0.073-0.421c-1.045-0.065-2.416,1.473-3.717,1.856
		c-1.301,0.379-4.141-0.522-5.302-0.757c-0.81-3.588,0.581-9.266,1.625-12.397c1.037-3.126,2.084-5.906,2.084-9.384
		c0-1.851-1.239-2.469-1.239-2.469s-0.845-0.772-2.47-0.193c-1.004,0.358-2.046,1.759-3.356,2.897
		c-2.551,2.199-8.299,6.841-11.933,9.191c-5.564,3.592-13.674,7.432-17.462,9.114c-3.993,1.777-8.933,4.741-12.035,7.192
		c0.408-1.041,0.883-1.957,1.539-2.557c2.011-1.82,6.927-3.646,10.869-6.362c3.95-2.716,15.561-13.516,19.23-20.044
		c3.672-6.531,5.831-15.588,5.864-22.333c0.03-4.986-3.601-15.446-6.274-18.468c-2.678-3.02-5.127-8.955-10.631-9.912
		c-5.332-0.929-11.857,4.584-15.564,7.401c-3.709,2.824-6.452,6.529-8.895,9.184C78.094,37.01,74.115,41.822,73,46.474
		c-1.115-4.652-5.094-9.465-7.409-11.977c-2.443-2.655-5.186-6.361-8.895-9.184c-3.707-2.817-10.232-8.33-15.564-7.401
		c-5.505,0.957-7.953,6.892-10.631,9.912c-2.673,3.021-6.304,13.481-6.274,18.468c0.032,6.745,2.192,15.803,5.864,22.333
		c3.669,6.528,15.281,17.328,19.23,20.044c3.942,2.716,8.858,4.542,10.869,6.362c0.656,0.599,1.131,1.516,1.539,2.557
		c-3.102-2.451-8.043-5.416-12.035-7.192c-3.788-1.682-11.898-5.522-17.462-9.114c-3.634-2.35-9.382-6.992-11.933-9.191
		c-1.31-1.138-2.352-2.539-3.356-2.897c-1.625-0.579-2.47,0.193-2.47,0.193s-1.239,0.618-1.239,2.469
		c0,3.479,1.047,6.258,2.084,9.384c1.045,3.132,2.435,8.809,1.625,12.397c-1.161,0.235-4.001,1.136-5.302,0.757
		c-1.301-0.383-2.673-1.921-3.717-1.856c-0.478,0.032-0.373,0.198-0.073,0.421c-0.184,0.071-0.41,0.171-0.405,0.25
		c0.006,0.086,0.322-0.032,0.775,0.003c0.332,0.208,0.715,0.436,0.95,0.643c0.615,0.541,2.467,2.28,3.847,2.076
		c1.374-0.205,4.158-0.44,4.965-0.208c0.812,0.233,1.161-1.156,1.161-2.432c0-1.273-0.348-3.589-0.923-5.674
		c-0.581-2.087-1.625-7.301-0.929-9.732c1.039-1.624,3.253-1.409,4.749-0.467c5.869,3.709,11.358,10.741,16.682,14.292
		c1.833,1.219,3.815,2.481,5.885,3.709c-0.062-0.022-0.135-0.042-0.192-0.065c-2.359-0.822-10.866-2.808-12.079-1.049
		c-0.756,0.404-0.947,2.884-1.055,5.469c-0.618,0.158-1.226,0.32-1.82,0.497c-5.726,1.711-9.395,4.439-12.888,6.797
		c-7.43,5.013-10.637,11.336-12.189,13.182C3.181,121.679,4.944,120.061,6.915,117.747z M112.344,96.763
		c0.148,0.631,0.284,1.54,0.408,2.551c-0.597-0.129-1.21-0.232-1.817-0.344c-1.454-0.268-2.924-0.507-4.398-0.683
		c1.42-0.448,2.844-0.869,4.114-1.175C111.255,96.968,111.835,96.841,112.344,96.763z M33.656,96.763
		c1.579,0.239,3.712,0.863,5.807,1.524c-2.09,0.25-4.19,0.591-6.215,1.027C33.372,98.304,33.508,97.394,33.656,96.763z"/>
</g>
</svg>
