<?xml version="1.0" encoding="iso-8859-1"?>
<!-- Generator: Adobe Illustrator 17.1.0, SVG Export Plug-In . SVG Version: 6.00 Build 0)  -->
<!DOCTYPE svg PUBLIC "-//W3C//DTD SVG 1.1//EN" "http://www.w3.org/Graphics/SVG/1.1/DTD/svg11.dtd">
<svg version="1.1" id="Capa_1" xmlns="http://www.w3.org/2000/svg" xmlns:xlink="http://www.w3.org/1999/xlink" x="0px" y="0px"
	 viewBox="0 0 150 150" style="enable-background:new 0 0 150 150;" xml:space="preserve">
<g>
	<path d="M143.383,34.233c-0.621,0.217-1.243,0.434-1.865,0.651c-0.209,0.073-0.557,0.137-0.778,0.146
		c-0.612,0.024-1.218,0.07-1.794,0.202c-3.211,0.739-6.431,1.492-9.545,2.466c-1.128,0.353-2.188,0.861-3.23,1.399
		c-0.196,0.101-0.525,0.239-0.734,0.312c-1.588,0.558-3.035,1.376-4.237,2.396c-0.168,0.143-0.455,0.353-0.646,0.463
		c-6.968,4.041-13.047,8.925-19.083,13.711c-0.173,0.137-0.468,0.34-0.656,0.456c-1.279,0.795-2.429,1.708-3.432,2.717
		c-0.156,0.157-0.379,0.345-0.495,0.428c-0.068,0.048-0.137,0.1-0.207,0.156c-2.771,2.204-5.59,4.365-8.378,6.527
		c-0.175,0.135-0.388,0.211-0.482,0.173c-0.075-0.03-0.13-0.054-0.156-0.091c-0.26-0.374-0.511-0.752-0.763-1.13
		c-0.122-0.184-0.338-0.198-0.486-0.034c-0.296,0.327-0.597,0.651-0.846,1.001c-0.442,0.622-0.837,1.267-1.333,2.047
		c-0.119,0.186-0.329,0.199-0.469,0.027c-1.122-1.383-1.967-2.645-1.597-4.19c0.423-1.769,0.041-2.863-1.609-3.854
		c-0.189-0.114-0.302-0.37-0.241-0.583c1.669-5.843,5.982-10.991,12.079-14.282c0.516-0.279,0.036-0.968-0.484-0.688
		c-4.422,2.387-7.96,5.721-10.271,9.587c-0.113,0.19-0.335,0.466-0.499,0.614l-3.253,2.943c-0.062,0.047-0.123,0.093-0.185,0.139
		c-0.102,0.077-0.356,0.085-0.568,0.022c-0.253-0.075-0.502-0.141-0.748-0.193c-0.216-0.046-0.573-0.046-0.789,0
		c-0.246,0.052-0.495,0.119-0.748,0.194c-0.212,0.062-0.466,0.055-0.568-0.022c-0.062-0.046-0.123-0.093-0.185-0.139l-3.253-2.943
		c-0.164-0.148-0.386-0.424-0.499-0.614c-2.311-3.867-5.849-7.201-10.271-9.587c-0.52-0.281-1,0.409-0.484,0.688
		c6.098,3.291,10.411,8.439,12.079,14.282c0.061,0.212-0.052,0.469-0.241,0.583c-1.65,0.991-2.032,2.085-1.609,3.854
		c0.37,1.545-0.475,2.807-1.597,4.19c-0.139,0.172-0.35,0.159-0.469-0.027c-0.497-0.779-0.892-1.424-1.333-2.047
		c-0.249-0.35-0.55-0.674-0.846-1.001c-0.148-0.164-0.364-0.15-0.486,0.034c-0.251,0.378-0.503,0.756-0.763,1.13
		c-0.026,0.037-0.081,0.061-0.156,0.091c-0.093,0.038-0.307-0.037-0.482-0.173c-2.788-2.162-5.608-4.323-8.378-6.527
		c-0.07-0.056-0.139-0.108-0.207-0.156c-0.117-0.082-0.34-0.271-0.496-0.428c-1.004-1.009-2.153-1.923-3.433-2.717
		c-0.188-0.117-0.482-0.318-0.655-0.456c-6.037-4.787-12.116-9.671-19.084-13.712c-0.191-0.111-0.477-0.32-0.646-0.463
		c-1.202-1.02-2.649-1.839-4.237-2.397c-0.208-0.073-0.538-0.211-0.734-0.312c-1.042-0.538-2.102-1.046-3.23-1.399
		c-3.114-0.974-6.334-1.727-9.545-2.466c-0.576-0.133-1.181-0.178-1.794-0.202c-0.221-0.009-0.57-0.073-0.778-0.146
		c-0.622-0.217-1.243-0.434-1.865-0.651c-1.609-0.562-3.513,0.594-3.93,1.854c-0.393,1.188,0.202,2.159,1.238,2.797
		c0.188,0.116,0.294,0.26,0.224,0.338c-0.041,0.046-0.084,0.093-0.129,0.14c-1.086,1.161-0.592,2.497,1.055,2.978
		c0.297,0.087,0.708,0.319,0.736,0.517c0.031,0.219-0.283,0.501-0.51,0.708c-0.109,0.099-0.245,0.178-0.389,0.254
		c-0.195,0.103-0.272,0.347-0.176,0.546c0.267,0.551,0.496,1.06,0.808,1.53c0.104,0.157,0.262,0.306,0.443,0.431
		c0.182,0.126,0.462,0.336,0.622,0.488c0.203,0.192,0.435,0.369,0.692,0.527c0.594,0.364,0.545,0.719,0.331,0.775
		c-0.269,0.071-0.523,0.138-0.744,0.196c-0.214,0.056-0.324,0.27-0.247,0.477c0.322,0.862,0.641,1.719,0.96,2.574
		c0.077,0.207,0.155,0.471,0.185,0.587c0.018,0.069,0.038,0.138,0.063,0.208c1.016,2.957,2.706,5.668,4.942,8.032
		c0.152,0.161,0.387,0.429,0.523,0.603c0.768,0.984,1.537,1.967,2.305,2.951c0.136,0.174,0.256,0.497,0.309,0.711
		c0.175,0.702,0.682,1.341,1.491,1.735c0.451,0.219,0.956,0.333,1.465,0.349c0.221,0.007,0.494,0.146,0.616,0.33
		c0.261,0.397,0.546,0.771,0.931,1.048c0.806,0.579,1.919,0.884,2.936,1.235c1.624,0.559,3.271,1.073,4.924,1.57
		c0.423,0.127,0.913,0.197,1.359,0.164c0.158-0.012,0.315-0.024,0.473-0.035c0.22-0.017,0.569,0.025,0.779,0.093
		c0.334,0.107,0.668,0.215,1.002,0.322c0.111,0.036,0.222,0.063,0.335,0.084c0.188,0.034,0.464,0.114,0.613,0.202
		c0.148,0.089,0.095,0.122-0.122,0.081c-0.216-0.04-0.432-0.074-0.649-0.098c-3.28-0.365-6.049-0.325-7.82,3.09
		c-0.15,0.29-0.432,0.595-0.752,0.751c-0.96,0.469-0.602,0.833,0.11,1.104c0.893,0.34,1.366,0.781,1.055,1.648
		c-0.25,0.698,0.203,0.858,0.99,0.986c1.301,0.211,1.574,0.673,0.959,1.375c-0.146,0.166-0.169,0.421-0.03,0.593
		c0.427,0.524,0.844,1.044,1.279,1.553c0.53,0.62,0.95,1.378,1.654,1.81c1.901,1.165,3.898,2.229,5.914,3.255
		c1.938,0.985,3.975,1.836,5.92,2.813c1.729,0.868,3.387,1.834,5.084,2.746c0.346,0.186,0.714,0.434,1.096,0.469
		c1.864,0.172,3.758,0.497,5.6,0.367c3.607-0.254,6.625-1.637,9.083-3.887c0.43-0.394,1.077-0.625,1.636-0.864
		c0.203-0.087,0.415,0.006,0.478,0.217c0.608,2.019,1.148,3.804,1.672,5.592c0.044,0.149-0.044,0.323-0.064,0.486
		c-0.237,1.967-0.271,3.894,0.991,5.247c0.151,0.162,0.287,0.457,0.28,0.678c-0.02,0.622-0.072,1.051,0.027,1.455
		c0.296,1.208,0.709,2.395,1.043,3.596c0.871,3.136,2.118,6.503,4.084,9.639c0.117,0.187,0.039,0.299-0.177,0.252
		c-0.042-0.009-0.081-0.018-0.12-0.026c-0.216-0.047-0.341,0.089-0.253,0.291c0.21,0.48,0.535,0.912,0.945,0.977
		c0.264,0.042,0.555,0.002,0.852-0.076c0.214-0.057,0.55-0.057,0.763,0c0.296,0.078,0.587,0.118,0.852,0.076
		c0.41-0.065,0.735-0.497,0.945-0.977c0.088-0.202-0.037-0.337-0.253-0.291c-0.039,0.008-0.078,0.017-0.12,0.026
		c-0.216,0.047-0.294-0.065-0.176-0.253c1.966-3.136,3.213-6.503,4.084-9.639c0.334-1.202,0.747-2.389,1.043-3.596
		c0.099-0.404,0.047-0.834,0.027-1.455c-0.007-0.221,0.129-0.516,0.28-0.678c1.262-1.353,1.228-3.28,0.991-5.247
		c-0.02-0.163-0.107-0.337-0.064-0.486c0.524-1.788,1.065-3.572,1.672-5.592c0.064-0.212,0.275-0.304,0.478-0.217
		c0.56,0.239,1.206,0.47,1.636,0.864c2.458,2.249,5.476,3.632,9.083,3.887c1.842,0.13,3.737-0.195,5.6-0.367
		c0.382-0.035,0.75-0.283,1.096-0.469c1.697-0.912,3.355-1.877,5.084-2.746c1.945-0.977,3.982-1.827,5.92-2.813
		c2.017-1.025,4.013-2.09,5.914-3.255c0.704-0.431,1.124-1.189,1.654-1.81c0.435-0.509,0.852-1.029,1.279-1.553
		c0.139-0.171,0.116-0.426-0.03-0.593c-0.615-0.702-0.342-1.165,0.959-1.375c0.787-0.127,1.24-0.288,0.99-0.986
		c-0.311-0.867,0.162-1.308,1.055-1.648c0.713-0.272,1.07-0.635,0.11-1.104c-0.32-0.157-0.602-0.461-0.752-0.751
		c-1.771-3.416-4.54-3.455-7.82-3.09c-0.217,0.024-0.433,0.058-0.649,0.098c-0.217,0.04-0.271,0.007-0.122-0.081
		c0.149-0.089,0.425-0.168,0.613-0.202c0.112-0.021,0.224-0.048,0.335-0.084c0.334-0.107,0.668-0.215,1.002-0.322
		c0.21-0.068,0.559-0.109,0.779-0.093c0.158,0.012,0.316,0.024,0.473,0.035c0.446,0.033,0.936-0.036,1.359-0.164
		c1.653-0.497,3.301-1.011,4.924-1.57c1.017-0.35,2.13-0.656,2.936-1.235c0.386-0.277,0.67-0.651,0.931-1.048
		c0.121-0.185,0.395-0.323,0.616-0.33c0.508-0.016,1.014-0.13,1.465-0.349c0.809-0.394,1.316-1.033,1.491-1.735
		c0.053-0.214,0.173-0.536,0.309-0.71c0.768-0.984,1.537-1.967,2.305-2.951c0.136-0.174,0.372-0.444,0.524-0.604
		c2.236-2.364,3.926-5.075,4.942-8.032c0.024-0.07,0.045-0.14,0.063-0.208c0.03-0.116,0.108-0.381,0.185-0.588
		c0.319-0.855,0.639-1.711,0.961-2.574c0.077-0.207-0.033-0.42-0.246-0.477c-0.221-0.058-0.475-0.125-0.744-0.195
		c-0.214-0.056-0.264-0.411,0.33-0.775c0.257-0.157,0.489-0.335,0.692-0.527c0.16-0.152,0.441-0.362,0.622-0.488
		c0.181-0.125,0.339-0.274,0.443-0.431c0.312-0.471,0.541-0.979,0.808-1.53c0.096-0.199,0.02-0.443-0.176-0.546
		c-0.144-0.076-0.28-0.155-0.389-0.254c-0.227-0.207-0.541-0.488-0.51-0.708c0.028-0.197,0.439-0.43,0.736-0.517
		c1.646-0.481,2.141-1.817,1.055-2.978c-0.044-0.047-0.087-0.094-0.129-0.14c-0.07-0.078,0.036-0.223,0.224-0.338
		c1.036-0.638,1.631-1.609,1.238-2.797C146.896,34.828,144.992,33.672,143.383,34.233z"/>
</g>
</svg>
