<?xml version="1.0" encoding="iso-8859-1"?>
<!-- Generator: Adobe Illustrator 17.1.0, SVG Export Plug-In . SVG Version: 6.00 Build 0)  -->
<!DOCTYPE svg PUBLIC "-//W3C//DTD SVG 1.1//EN" "http://www.w3.org/Graphics/SVG/1.1/DTD/svg11.dtd">
<svg version="1.1" id="Capa_1" xmlns="http://www.w3.org/2000/svg" xmlns:xlink="http://www.w3.org/1999/xlink" x="0px" y="0px"
	 viewBox="0 0 150 150" style="enable-background:new 0 0 150 150;" xml:space="preserve">
<g>
	<path d="M66.592,75.426l-1.617-0.013c-0.552,0-1.036,0.255-1.331,0.692l-2.294,2.179c-0.202,0.192-0.349,0.424-0.431,0.674
		l-6.674,5.43c-0.853-0.599-1.838-0.882-3.039-0.882c-0.448,0-0.932,0.036-1.57,0.118c-4.193,0.539-7.658,0.329-10.952-0.653
		c-0.252-0.075-1.288-0.447-2.487-0.879c-5.801-2.084-7.547-2.654-8.12-2.654c-0.42,0-0.854,0.28-0.999,0.676l-0.146,0.398
		c-0.091,0.25-0.078,0.526,0.035,0.768s0.318,0.427,0.569,0.517l8.277,2.949c-0.1,0.627,0.061,1.105,0.255,1.435
		c0.654,1.106,2.22,1.6,5.078,1.6c0.171,0,0.339-0.002,0.505-0.005c0.083,0.022,0.165,0.038,0.248,0.047
		c0.664,0.067,1.336,0.033,2.011-0.002c1.112-0.059,2.261-0.028,3.402-0.007c1.487,0.03,2.882,0.061,4.527-0.011
		c1.671-0.074,3.535-0.156,5.211-1.271c-0.454,0.579-0.896,1.158-1.327,1.725c-0.562,0.738-1.117,1.467-1.673,2.16
		c-2.492,3.107-4.6,5.964-6.444,8.732c-0.3,0.451-0.58,0.958-0.85,1.448c-0.447,0.811-0.909,1.648-1.439,2.186
		c-0.197,0.199-0.444,0.358-0.706,0.527c-0.62,0.4-1.468,0.948-1.742,2.228c-0.329,1.536,0.43,2.934,1.039,4.056
		c0.162,0.299,0.321,0.589,0.451,0.872c0.452,0.978,0.884,1.969,1.316,2.959c0.301,0.691,0.603,1.383,0.911,2.069l2.078,4.629
		c1.123,2.5,2.245,4.999,3.364,7.501c0.344,0.769,0.657,1.623,0.989,2.527c0.889,2.425,1.896,5.173,3.833,6.85
		c4.25,3.68,8.728,7.19,13.312,10.435c0.43,0.305,1.023,0.222,1.354-0.187c0.332-0.41,0.289-1.007-0.098-1.364
		c-1.296-1.197-2.725-2.274-4.107-3.315c-0.746-0.562-1.491-1.123-2.212-1.701c-2.138-1.714-3.164-3.021-4.603-4.994
		c0.004-0.009,0.009-0.017,0.013-0.025c0.124-0.251,0.137-0.542,0.036-0.804c-0.363-0.937-0.72-1.871-1.077-2.805
		c-1.653-4.325-3.362-8.798-5.511-13.096c-1.443-2.886-2.867-5.848-4.243-8.713c-0.53-1.102-1.059-2.204-1.591-3.305
		c0.721-3.104,2.659-5.924,4.375-8.422c1.405-2.047,2.973-4.051,4.488-5.989l0.779-0.999c0.316-0.404,0.636-0.807,0.959-1.208
		c-0.963,4.544-0.183,8.711,2.328,12.403c1.757,2.583,4.404,4.365,7.868,5.296c1.971,0.529,3.944,0.797,5.865,0.797l0.204-0.001
		l0.226,0.001c1.921,0,3.895-0.268,5.865-0.797c3.464-0.931,6.111-2.713,7.869-5.296c2.51-3.692,3.291-7.859,2.327-12.403
		c0.324,0.401,0.644,0.804,0.959,1.208l0.78,0.999c1.515,1.938,3.083,3.942,4.488,5.989c1.716,2.498,3.654,5.318,4.375,8.422
		c-0.532,1.101-1.062,2.203-1.591,3.305c-1.376,2.865-2.8,5.827-4.243,8.713c-2.149,4.298-3.858,8.771-5.511,13.096
		c-0.356,0.934-0.714,1.868-1.077,2.805c-0.101,0.262-0.088,0.553,0.036,0.804c0.004,0.009,0.008,0.017,0.013,0.025
		c-1.439,1.973-2.465,3.28-4.603,4.994c-0.721,0.578-1.466,1.139-2.212,1.701c-1.382,1.041-2.811,2.118-4.107,3.315
		c-0.387,0.357-0.43,0.954-0.098,1.364c0.197,0.242,0.485,0.37,0.777,0.37c0.2,0,0.402-0.06,0.577-0.184
		c4.583-3.244,9.062-6.755,13.312-10.435c1.936-1.677,2.944-4.425,3.833-6.85c0.332-0.904,0.645-1.759,0.989-2.527
		c1.118-2.502,2.241-5.001,3.363-7.501l2.078-4.629c0.308-0.687,0.609-1.378,0.911-2.069c0.432-0.99,0.864-1.981,1.316-2.959
		c0.13-0.283,0.289-0.573,0.451-0.872c0.609-1.122,1.367-2.52,1.039-4.056c-0.273-1.279-1.122-1.827-1.742-2.228
		c-0.262-0.169-0.509-0.328-0.705-0.527c-0.531-0.537-0.993-1.375-1.439-2.186c-0.27-0.49-0.549-0.997-0.85-1.448
		c-1.844-2.769-3.952-5.625-6.444-8.732c-0.556-0.693-1.111-1.422-1.673-2.16c-0.431-0.566-0.873-1.146-1.327-1.726
		c1.677,1.116,3.55,1.198,5.283,1.275c1.482,0.065,2.968,0.038,4.455,0.008c1.128-0.021,2.262-0.052,3.402,0.007
		c0.674,0.035,1.338,0.07,2.017,0.001c0.081-0.008,0.161-0.023,0.242-0.046c0.166,0.003,0.334,0.005,0.505,0.005
		c2.858,0,4.424-0.493,5.078-1.6c0.195-0.329,0.355-0.808,0.255-1.435l8.277-2.949c0.251-0.09,0.456-0.275,0.569-0.517
		s0.126-0.518,0.035-0.768l-0.146-0.4c-0.144-0.394-0.578-0.674-0.998-0.674c-0.572,0-2.317,0.57-8.118,2.654
		c-1.2,0.431-2.236,0.804-2.488,0.879c-3.296,0.982-6.757,1.192-10.953,0.653c-0.638-0.082-1.122-0.118-1.57-0.118
		c-1.201,0-2.186,0.283-3.039,0.882l-6.674-5.43c-0.083-0.25-0.229-0.482-0.432-0.675l-2.294-2.178
		c-0.296-0.438-0.781-0.692-1.347-0.692l-1.601,0.013v-0.013c-0.013-0.67-0.025-1.339-0.043-2.008l0.419-0.102
		c0.288-0.053,0.627-0.131,0.96-0.306l0.477-0.25c5.755-3.025,11.705-6.153,17.527-9.292c1.196-0.644,2.343-1.384,3.454-2.102
		c0.309,0.015,0.619-0.056,0.891-0.213c1.153-0.379,2.063-1.293,2.78-2.788c0.639-1.334,1.232-2.71,1.805-4.04
		c0.284-0.659,0.568-1.317,0.857-1.973c0.158-0.357,0.188-0.743,0.097-1.067c-0.03-0.729,1.779-3.402,2.459-4.408
		c0.383-0.566,0.706-1.046,0.886-1.356c2.087-3.603,2.079-7.09,2.07-10.781l-0.001-0.766c0-0.265-0.195-0.519-0.383-0.707
		c-0.188-0.188-0.532-0.292-0.797-0.292c-0.986,0-1.017,0.349-1.319,3.687c-0.065,0.716-0.145,1.606-0.173,1.759
		c-0.244,1.006-0.746,1.858-1.328,2.847l-0.321,0.549c-0.745,1.291-1.57,2.603-2.444,3.991c-2.557,4.062-5.2,8.261-6.297,12.675
		c-0.528,0.321-2.015,0.935-2.611,1.181c-0.433,0.178-0.777,0.322-0.926,0.396L88.45,66.543c0.478-0.621,0.956-1.266,1.407-1.923
		c1.515-2.206,3.009-4.476,4.453-6.67c1.24-1.885,2.481-3.77,3.748-5.637c0.562-0.829,1.348-1.714,2.179-2.651
		c2.629-2.963,5.901-6.649,3.72-10.954c-0.053-0.105-0.117-0.204-0.188-0.293c-0.044-0.362-0.099-0.693-0.165-1.004
		c-0.921-4.326-1.962-8.938-3.182-14.098c0.254-4.855-2.328-8.548-4.825-12.119l-0.116-0.166c-1.36-1.944-2.752-3.866-4.148-5.794
		l-1.761-2.436c-0.311-0.433-0.907-0.547-1.354-0.256c-0.447,0.288-0.59,0.877-0.324,1.339l1.681,2.906
		c1.324,2.285,2.646,4.567,3.935,6.868c0.27,0.482,0.567,0.963,0.865,1.444c0.187,0.303,0.374,0.605,0.555,0.909
		c0.051,0.126,0.125,0.254,0.242,0.418c0.552,0.978,0.855,1.728,0.982,2.432c1.185,6.556,2.204,13.26,3.188,19.743
		c0.263,1.728,0.525,3.456,0.791,5.183c-0.763,0.709-1.465,1.812-2.242,3.102c-0.258,0.428-0.486,0.81-0.678,1.076l-4.462,6.209
		c-3.056,4.257-6.106,8.519-9.132,12.796c-0.345,0.486-0.601,1.001-0.821,1.519c-0.326-0.851-0.848-1.639-1.736-2.206
		c-0.307-0.196-0.385-0.305-0.393-0.85c-0.035-2.483-1.891-4.243-4.221-3.851c-0.297,0.049-0.557,0.229-0.706,0.491
		c-0.149,0.263-0.172,0.577-0.062,0.858l0.643,1.649l-1.361-0.054l-1.278,0.054l0.643-1.649c0.109-0.281,0.086-0.596-0.062-0.858
		c-0.149-0.262-0.409-0.442-0.706-0.491c-2.327-0.394-4.186,1.368-4.221,3.851c-0.007,0.545-0.086,0.653-0.392,0.85
		c-0.889,0.567-1.411,1.354-1.737,2.206c-0.221-0.518-0.477-1.031-0.821-1.518c-3.026-4.278-6.076-8.54-9.132-12.797l-4.462-6.21
		c-0.191-0.266-0.42-0.647-0.678-1.075c-0.777-1.29-1.479-2.393-2.242-3.102c0.266-1.727,0.528-3.455,0.791-5.183
		c0.984-6.483,2.003-13.188,3.188-19.743c0.127-0.704,0.431-1.454,0.931-2.351c0.003-0.004,0.105-0.153,0.108-0.157
		c0.077-0.108,0.139-0.222,0.187-0.344c0.18-0.304,0.367-0.605,0.553-0.907c0.298-0.481,0.595-0.962,0.865-1.444
		c1.289-2.301,2.611-4.583,3.935-6.868l1.681-2.906c0.266-0.462,0.123-1.051-0.324-1.339c-0.447-0.289-1.042-0.176-1.354,0.256
		l-1.761,2.436c-1.396,1.928-2.789,3.85-4.148,5.794l-0.116,0.166c-2.498,3.571-5.08,7.264-4.825,12.119
		c-1.22,5.159-2.261,9.771-3.182,14.098c-0.066,0.311-0.121,0.642-0.165,1.004c-0.072,0.09-0.135,0.188-0.189,0.293
		c-2.181,4.305,1.091,7.991,3.72,10.954c0.832,0.938,1.617,1.822,2.179,2.651c1.267,1.867,2.508,3.752,3.748,5.637
		c1.444,2.194,2.938,4.464,4.453,6.67c0.451,0.657,0.929,1.302,1.407,1.923l-12.998-6.497c-0.148-0.073-0.493-0.218-0.925-0.396
		c-0.596-0.246-2.083-0.859-2.611-1.181c-1.097-4.414-3.74-8.612-6.297-12.675c-0.874-1.389-1.7-2.7-2.444-3.991l-0.321-0.549
		c-0.582-0.988-1.083-1.841-1.323-2.826c-0.033-0.173-0.113-1.063-0.178-1.779c-0.302-3.338-0.333-3.687-1.319-3.687l-0.18-0.001
		c-0.265,0-0.52,0.105-0.707,0.293s-0.293,0.442-0.293,0.707l-0.001,0.766c-0.009,3.691-0.018,7.179,2.07,10.781
		c0.18,0.311,0.502,0.79,0.886,1.356c0.681,1.006,2.489,3.679,2.469,4.36c-0.101,0.372-0.07,0.758,0.088,1.115
		c0.29,0.655,0.573,1.313,0.857,1.973c0.573,1.33,1.166,2.706,1.805,4.039c0.716,1.496,1.627,2.41,2.78,2.789
		c0.271,0.157,0.576,0.228,0.891,0.213c1.11,0.718,2.258,1.458,3.453,2.102c5.822,3.139,11.772,6.267,17.527,9.292l0.477,0.251
		c0.332,0.174,0.671,0.252,0.908,0.294l0.471,0.113c-0.018,0.668-0.03,1.337-0.043,2.007V75.426z"/>
</g>
</svg>
