<?xml version="1.0" encoding="iso-8859-1"?>
<!-- Generator: Adobe Illustrator 17.1.0, SVG Export Plug-In . SVG Version: 6.00 Build 0)  -->
<!DOCTYPE svg PUBLIC "-//W3C//DTD SVG 1.1//EN" "http://www.w3.org/Graphics/SVG/1.1/DTD/svg11.dtd">
<svg version="1.1" id="Capa_1" xmlns="http://www.w3.org/2000/svg" xmlns:xlink="http://www.w3.org/1999/xlink" x="0px" y="0px"
	 viewBox="0 0 150 150" style="enable-background:new 0 0 150 150;" xml:space="preserve">
<g>
	<path d="M20.327,42.938C15.021,46.387,7.2,65.074,6.528,66.979c-0.615,1.745-1.283,2.329-1.771,2.755
		c-0.157,0.137-0.292,0.255-0.405,0.393c-0.537,0.657-2.052,4.584-1.862,5.624c0.029,0.165,0.102,0.281,0.214,0.346l0.079,0.04
		h0.067c0.255,0,0.333-0.221,0.542-0.813c0.339-0.961,0.971-2.75,2.525-4.277c1.278-1.251,2.845-3.632,4.787-7.277
		c1.107-2.077,6.807-11.425,9.662-14.437l0.454-0.485c1.134-1.214,1.603-1.717,2.777-1.717c0.445,0,1.015,0.075,1.793,0.236
		c-1.565,2.979-3.599,7.406-4.39,10.515c-0.882,3.46-2.377,11.819-1.273,12.301l0.139,0.03c0.409,0,0.534-0.555,0.951-2.394
		c0.447-1.976,1.123-4.961,2.49-8.601c1.475-3.924,3.922-7.812,5.748-10.69c1.579,0.557,3.425,1.242,5.211,1.904
		c2.882,1.069,5.862,2.175,7.749,2.753c3.352,1.02,12.668,3.905,14.775,4.661c0.484,0.179,0.918,0.409,1.293,0.687
		c-2.936,1.347-5.209,3.28-7.306,6.21c-1.875-0.924-4.734-1.866-6.764-2.22c-0.597-0.098-1.301-0.148-2.094-0.148
		c-3.58,0-8.459,1.034-11.245,3.316c-3.53,1.844-5.189,7.747-5.613,9.512c-0.594,2.493-1.102,5.64-0.577,6.303
		c0.088,0.111,0.209,0.173,0.347,0.173c0.441-0.008,0.634-0.657,1.055-2.079c0.417-1.409,0.987-3.338,2.004-5.22
		c0.6-1.107,1.199-2.111,1.779-3.082c0.798-1.337,1.555-2.604,2.163-3.903c0.637,0.111,1.481-0.003,2.631-0.177
		c1.041-0.158,2.338-0.354,3.999-0.432c0.533-0.025,1.053-0.008,1.56,0.008c0.315,0.01,0.627,0.02,0.935,0.02
		c0.84,0,1.821-0.07,2.782-0.569c0.66,0.406,2.288,1.013,4.957,1.851c-0.693,1.284-1.344,2.651-1.984,4.17
		c-1.118,2.669-1.796,5.47-2.017,8.332c-0.03-0.012-0.06-0.023-0.09-0.034c-0.866-0.271-2.126-0.426-3.456-0.426
		c-1.347,0-3.385,0.157-5.465,0.905c-1.47,0.183-8.498,5.825-9.203,6.932c-0.662,1.042-0.361,2.187-0.255,2.508
		c-0.133,0.463-0.672,2.721,0.26,6.142c0.573,2.106,4.041,10.243,5.24,10.243c0,0,0,0,0.001,0c0.124-0.015,0.23-0.08,0.306-0.187
		c0.355-0.508-0.015-2.164-0.7-5.047c-0.255-1.068-0.518-2.173-0.707-3.149c-0.248-1.288-0.284-2.49-0.316-3.552
		c-0.047-1.577-0.085-2.838-0.756-3.748c1.749-3.11,6.703-6.642,7.371-7.109c0.279,0.027,1.14,0.101,2.187,0.101
		c0.694,0,1.333-0.033,1.901-0.099c1.096,0.9,2.785,1.895,2.868,1.944l1.218,0.638c0.66,6.533,3.389,11.851,9.39,18.318
		c9.234,9.939,14.657,14.692,20.506,14.816H75h0.005c5.849-0.124,11.271-4.876,20.506-14.816c6.001-6.467,8.729-11.785,9.39-18.318
		l1.229-0.644c0.073-0.043,1.762-1.038,2.857-1.938c0.568,0.065,1.207,0.099,1.901,0.099c1.047,0,1.907-0.074,2.187-0.101
		c0.668,0.467,5.622,4,7.371,7.109c-0.671,0.91-0.709,2.171-0.756,3.748c-0.032,1.062-0.068,2.264-0.316,3.552
		c-0.189,0.976-0.452,2.081-0.707,3.149c-0.686,2.883-1.056,4.539-0.7,5.047c0.075,0.107,0.182,0.172,0.351,0.189
		c1.154,0,4.623-8.139,5.196-10.245c0.932-3.421,0.393-5.679,0.26-6.142c0.106-0.321,0.407-1.466-0.255-2.508
		c-0.705-1.107-7.733-6.75-9.203-6.932c-2.08-0.748-4.118-0.905-5.465-0.905c-1.33,0-2.59,0.155-3.463,0.428
		c-0.027,0.01-0.055,0.02-0.083,0.031c-0.221-2.861-0.898-5.662-2.017-8.332c-0.641-1.519-1.291-2.886-1.984-4.17
		c2.669-0.837,4.297-1.445,4.957-1.851c0.961,0.499,1.942,0.569,2.782,0.569c0.308,0,0.619-0.01,0.935-0.02
		c0.507-0.016,1.025-0.033,1.56-0.008c1.661,0.079,2.957,0.274,3.999,0.432c1.149,0.174,1.993,0.289,2.631,0.177
		c0.608,1.299,1.365,2.565,2.163,3.903c0.58,0.971,1.18,1.975,1.779,3.081c1.017,1.882,1.587,3.812,2.004,5.22
		c0.421,1.422,0.613,2.071,1.062,2.079c0.131,0,0.252-0.062,0.34-0.173c0.524-0.664,0.017-3.81-0.577-6.304
		c-0.424-1.765-2.083-7.667-5.571-9.484c-2.828-2.31-7.707-3.344-11.287-3.344c-0.793,0-1.497,0.05-2.096,0.148
		c-2.027,0.353-4.887,1.295-6.762,2.219c-2.097-2.93-4.37-4.864-7.307-6.21c0.376-0.277,0.809-0.508,1.292-0.686
		c2.109-0.757,11.426-3.642,14.777-4.662c1.887-0.578,4.867-1.684,7.749-2.753c1.786-0.663,3.632-1.347,5.211-1.904
		c1.826,2.878,4.273,6.766,5.748,10.69c1.367,3.639,2.043,6.625,2.49,8.601c0.417,1.839,0.542,2.394,0.951,2.394l0.137-0.029
		c1.105-0.482-0.39-8.841-1.271-12.301c-0.791-3.108-2.824-7.536-4.39-10.514c0.776-0.161,1.347-0.236,1.793-0.236
		c1.175,0,1.644,0.502,2.776,1.716l0.455,0.485c2.855,3.012,8.555,12.359,9.662,14.437c1.942,3.646,3.509,6.026,4.787,7.277
		c1.555,1.528,2.187,3.317,2.525,4.278c0.209,0.592,0.287,0.813,0.542,0.813l0.088-0.006l0.059-0.034
		c0.112-0.065,0.185-0.182,0.214-0.347c0.189-1.04-1.325-4.967-1.862-5.625c-0.113-0.137-0.248-0.256-0.405-0.393
		c-0.487-0.427-1.155-1.011-1.771-2.755c-0.672-1.904-8.493-20.592-13.801-24.042c-0.23-0.148-0.554-0.221-0.987-0.221
		c-0.927,0-2.283,0.335-3.719,0.69c-0.745,0.185-1.513,0.375-2.259,0.528c-0.574-2.312-3.812-10.511-8.092-10.511
		c-1.012,0-2.011,0.455-2.969,1.353c-3.626,0.517-8.987,2.999-15.113,6.997c-0.967,0.63-1.852,1.229-2.666,1.782
		c-3.015,2.042-5.115,3.469-6.782,3.258L86.853,46.7c-0.219-0.328-0.329-0.481-0.412-0.562c0.774-0.284,1.846-0.792,2.521-1.593
		c1.506-1.753,0.694-6.336-0.17-8.813c-0.146-0.419-0.277-0.83-0.403-1.225c-0.59-1.843-1.099-3.434-2.489-4.107
		c-0.271-0.132-0.673-0.2-1.193-0.2c-1.225,0-2.97,0.384-3.471,0.898c-0.117,0.12-0.175,0.25-0.172,0.388
		c0.015,0.551,0.511,0.846,1.084,1.186c0.642,0.381,1.439,0.855,2.075,1.854c0.458,0.724,0.945,1.979,1.374,3.086
		c0.206,0.53,0.397,1.025,0.568,1.415c0.332,0.747,0.915,2.906,0.389,3.812c-0.312,0.522-0.969,0.799-1.52,0.945
		c-0.306-0.418-0.724-0.768-1.271-1.063c-0.543-0.294-1.126-0.444-1.73-0.444c-0.753,0-1.347,0.231-1.622,0.362
		c-0.51-0.44-2.393-1.9-4.962-1.9c-0.11,0-0.211,0.008-0.312,0.016l-0.122,0.011l-0.149-0.011c-0.101-0.008-0.201-0.016-0.312-0.016
		c-2.569,0-4.452,1.46-4.962,1.9c-0.275-0.131-0.869-0.362-1.622-0.362c-0.604,0-1.188,0.149-1.73,0.443
		c-0.548,0.296-0.966,0.646-1.271,1.064c-0.551-0.146-1.208-0.423-1.519-0.942c-0.527-0.908,0.056-3.067,0.389-3.815
		c0.17-0.388,0.361-0.883,0.567-1.413c0.429-1.107,0.916-2.362,1.374-3.085c0.636-0.999,1.434-1.474,2.075-1.854
		c0.573-0.34,1.069-0.635,1.084-1.187c0.003-0.137-0.055-0.267-0.172-0.387c-0.501-0.514-2.246-0.898-3.471-0.898
		c-0.521,0-0.922,0.067-1.193,0.199c-1.391,0.674-1.899,2.265-2.489,4.108c-0.126,0.396-0.258,0.806-0.403,1.225
		c-0.864,2.478-1.676,7.061-0.172,8.812c0.677,0.803,1.747,1.311,2.521,1.594c-0.082,0.081-0.191,0.233-0.411,0.562l-0.231,0.113
		c-1.676,0.211-3.769-1.215-6.781-3.257c-0.815-0.552-1.7-1.152-2.667-1.782c-6.126-3.998-11.487-6.48-15.113-6.997
		c-0.958-0.898-1.957-1.353-2.969-1.353c-4.279,0-7.518,8.199-8.092,10.511c-0.746-0.153-1.514-0.343-2.259-0.527
		c-1.436-0.355-2.791-0.69-3.719-0.69C20.883,42.716,20.56,42.789,20.327,42.938z M37.057,37.995
		c4.77,4.411,10.75,7.752,13.412,8.827c1.433,0.578,3.39,1.235,5.116,1.814c1.591,0.534,3.236,1.087,3.48,1.266
		c0.379,0.277,1.036,1.117,1.331,1.506c-0.352,0.826-0.627,1.617-0.84,2.408c-0.163-0.042-0.345-0.107-0.524-0.168
		c-0.879-0.299-1.959-0.806-3.436-1.509c-1.275-0.607-2.863-1.363-4.874-2.245c-0.759-0.332-1.614-0.669-2.53-1.004
		c-4.607-1.688-10.935-3.351-16.347-4.263c-0.135-0.023-0.274-0.048-0.408-0.07c1.216-2.13,3.673-6.295,5.458-6.538
		C36.949,38.011,37.004,37.995,37.057,37.995z M91.521,49.701c0.537-0.395,5.735-1.935,8.651-3.111
		c2.913-1.176,8.806-4.57,13.403-8.841c1.932-0.155,4.506,4.164,6.118,6.997c-6.396,1.01-14.742,3.261-19.579,5.377
		c-5.083,2.229-7.419,3.635-9.116,3.993c-0.248-0.984-0.58-1.898-0.946-2.742C90.271,51.08,91.062,50.037,91.521,49.701z"/>
</g>
</svg>
