<?xml version="1.0" encoding="iso-8859-1"?>
<!-- Generator: Adobe Illustrator 17.1.0, SVG Export Plug-In . SVG Version: 6.00 Build 0)  -->
<!DOCTYPE svg PUBLIC "-//W3C//DTD SVG 1.1//EN" "http://www.w3.org/Graphics/SVG/1.1/DTD/svg11.dtd">
<svg version="1.1" id="Capa_1" xmlns="http://www.w3.org/2000/svg" xmlns:xlink="http://www.w3.org/1999/xlink" x="0px" y="0px"
	 viewBox="0 0 150 150" style="enable-background:new 0 0 150 150;" xml:space="preserve">
<g>
	<path d="M148.311,82.229c-3.695-0.93-7.365-1.679-10.469-2.29l-1.33-0.259c-1.284-0.25-2.612-0.509-3.923-0.732
		c-0.626-0.109-1.251-0.222-1.877-0.334c-1.127-0.203-2.254-0.405-3.384-0.587l-5.268-0.853c-1.134-0.183-2.27-0.346-3.406-0.509
		c-0.625-0.089-1.25-0.179-1.876-0.271c-0.537-0.077-1.074-0.155-1.611-0.234c-1.203-0.177-2.447-0.36-3.675-0.509l-5.29-0.683
		l-0.25-0.024l-0.171,0.019c-1.729,0.199-3.481,0.433-5.176,0.658c-0.964,0.128-1.927,0.256-2.891,0.379
		c-1.745,0.228-3.515,0.488-5.226,0.74c-0.942,0.139-1.885,0.277-2.832,0.412c-0.766,0.123-1.532,0.244-2.298,0.364
		c-1.882,0.296-3.828,0.602-5.736,0.945c-0.504,0.085-1.007,0.176-1.511,0.268l-0.453,0.082l-0.021-0.022
		c-0.058-0.066-0.115-0.132-0.172-0.193l-0.372-0.407c1.736-1.192,3.474-2.427,5.157-3.623c0.719-0.511,1.438-1.021,2.161-1.532
		c0.909-0.665,1.82-1.324,2.732-1.984c1.601-1.158,3.256-2.355,4.866-3.559c0.883-0.662,1.77-1.32,2.656-1.978
		c1.603-1.189,3.26-2.419,4.87-3.655l0.223-0.171c0.025-0.02,0.047-0.044,0.063-0.071l3.63-6.164
		c0.796-1.334,1.578-2.705,2.335-4.03c0.364-0.639,0.729-1.277,1.097-1.916c0.402-0.708,0.808-1.414,1.214-2.121
		c0.733-1.277,1.467-2.555,2.182-3.843l3.335-5.998l3.274-6.03c0.806-1.473,1.597-2.985,2.363-4.447l0.852-1.624
		c1.874-3.592,4.071-7.861,6.164-12.298c0.055-0.117,0.012-0.258-0.101-0.322c-0.114-0.066-0.256-0.034-0.331,0.072
		c-2.802,3.995-5.427,8.029-7.626,11.449l-0.951,1.488c-0.902,1.408-1.836,2.864-2.728,4.312l-3.616,5.835l-3.556,5.867
		c-0.768,1.266-1.517,2.541-2.266,3.817c-0.409,0.696-0.817,1.394-1.23,2.09c-0.38,0.65-0.764,1.299-1.146,1.946
		c-0.768,1.299-1.562,2.643-2.315,3.979l-3.248,5.674c-1.516,1.187-3.038,2.413-4.51,3.601c-0.852,0.687-1.703,1.372-2.558,2.055
		c-1.572,1.261-3.151,2.565-4.679,3.828c-0.862,0.713-1.726,1.427-2.595,2.139l-1.605,1.354c-0.076,0.064-0.152,0.129-0.229,0.193
		c0.105-0.116,0.21-0.232,0.314-0.349c0.823-0.899,1.627-1.814,2.43-2.729l1.137-1.293c0.635-0.719,1.269-1.438,1.886-2.17
		l1.122-1.313c1.388-1.622,2.822-3.299,4.195-4.978l2.629-3.171l3.012-3.727c0.047-0.058,0.065-0.132,0.051-0.204l-1.182-6.119
		l-1.127-5.408c-0.508-2.522-1.082-5.073-1.638-7.54c-0.245-1.087-0.489-2.174-0.73-3.267l-1.286-5.377
		c-0.272-1.157-0.568-2.312-0.864-3.465c-0.162-0.635-0.325-1.27-0.484-1.904c-0.303-1.204-0.628-2.404-0.953-3.604
		c-0.158-0.583-0.316-1.166-0.473-1.753c-0.589-2.1-1.082-3.793-1.555-5.329c-0.038-0.121-0.156-0.196-0.288-0.172
		c-0.126,0.025-0.213,0.142-0.2,0.27c0.156,1.601,0.354,3.354,0.621,5.521c0.085,0.616,0.166,1.232,0.247,1.849
		c0.16,1.215,0.32,2.43,0.503,3.642c0.098,0.643,0.192,1.287,0.286,1.932c0.173,1.182,0.346,2.364,0.541,3.54l0.889,5.463
		c0.202,1.117,0.399,2.236,0.597,3.355c0.436,2.469,0.886,5.021,1.386,7.521l1.048,5.43l0.964,4.636l-2.023,2.609l-2.48,3.282
		c-1.308,1.706-2.598,3.469-3.846,5.174l-1.059,1.444c-0.574,0.771-1.13,1.557-1.687,2.341l-0.985,1.387
		c-0.709,0.995-1.418,1.99-2.105,2.999c-0.779,1.123-1.573,2.289-2.412,3.546c-0.18-2.665-2.116-4.77-4.47-4.77
		c-1.883,0-3.542,1.36-4.188,3.371c-0.486-0.719-0.975-1.436-1.468-2.146c-0.675-0.99-1.369-1.965-2.062-2.939l-1.051-1.477
		c-0.55-0.775-1.099-1.551-1.665-2.312l-1.06-1.445c-1.248-1.705-2.538-3.468-3.845-5.172l-2.483-3.287l-2.021-2.606l0.965-4.64
		l1.047-5.425c0.5-2.501,0.95-5.053,1.386-7.521c0.197-1.119,0.395-2.238,0.598-3.361l0.888-5.457
		c0.195-1.177,0.368-2.359,0.541-3.541c0.094-0.645,0.188-1.289,0.286-1.933c0.183-1.211,0.343-2.426,0.503-3.641
		c0.081-0.616,0.162-1.232,0.247-1.853c0.268-2.163,0.465-3.916,0.621-5.517c0.013-0.128-0.074-0.244-0.2-0.27
		c-0.123-0.02-0.25,0.05-0.288,0.172c-0.473,1.537-0.967,3.23-1.555,5.332c-0.156,0.584-0.314,1.167-0.473,1.75
		c-0.325,1.2-0.651,2.4-0.953,3.604c-0.159,0.635-0.322,1.27-0.484,1.904c-0.296,1.153-0.592,2.308-0.864,3.464l-1.287,5.383
		c-0.24,1.088-0.485,2.175-0.729,3.262c-0.556,2.467-1.13,5.018-1.638,7.538l-1.127,5.413l-1.182,6.116
		c-0.015,0.072,0.004,0.146,0.051,0.204l3.014,3.729l2.626,3.168c1.374,1.68,2.809,3.356,4.196,4.979l1.121,1.312
		c0.618,0.732,1.252,1.452,1.887,2.171l1.136,1.293c0.804,0.914,1.607,1.829,2.43,2.728c0.104,0.117,0.209,0.233,0.314,0.35
		l-1.836-1.55c-0.87-0.713-1.737-1.43-2.604-2.146c-1.523-1.26-3.098-2.562-4.666-3.818c-0.865-0.69-1.728-1.385-2.589-2.08
		c-1.462-1.178-2.974-2.396-4.479-3.574L48.8,53.678c-0.755-1.337-1.549-2.681-2.316-3.979c-0.384-0.648-0.767-1.297-1.147-1.948
		c-0.412-0.694-0.82-1.392-1.229-2.088c-0.749-1.276-1.498-2.552-2.266-3.817l-3.557-5.869l-3.615-5.832
		c-0.892-1.449-1.825-2.905-2.728-4.313l-0.952-1.488c-2.191-3.41-4.812-7.438-7.625-11.449c-0.075-0.106-0.218-0.139-0.331-0.072
		c-0.112,0.064-0.155,0.205-0.101,0.322c2.085,4.42,4.286,8.697,6.165,12.299l0.851,1.623c0.767,1.462,1.558,2.974,2.363,4.446
		l3.275,6.033l3.334,5.996c0.719,1.296,1.457,2.581,2.195,3.866c0.401,0.698,0.803,1.397,1.201,2.099
		c0.363,0.63,0.724,1.262,1.084,1.894c0.761,1.333,1.547,2.711,2.346,4.051l3.631,6.165c0.017,0.027,0.038,0.052,0.063,0.071
		l0.223,0.171c1.61,1.236,3.268,2.466,4.87,3.655c0.887,0.657,1.773,1.315,2.657,1.978c1.608,1.201,3.262,2.398,4.861,3.556
		c0.913,0.661,1.826,1.322,2.739,1.989l1.885,1.334c1.461,1.035,2.922,2.069,4.393,3.093c0.196,0.415,0.429,0.786,0.691,1.106
		l-0.218,0.243l-0.453-0.082c-0.504-0.092-1.007-0.183-1.509-0.268c-1.91-0.344-3.856-0.649-5.738-0.945
		c-0.766-0.12-1.532-0.241-2.303-0.364c-0.942-0.135-1.885-0.273-2.827-0.412c-1.711-0.252-3.48-0.513-5.227-0.74
		c-0.963-0.123-1.926-0.251-2.89-0.379c-1.694-0.226-3.447-0.459-5.177-0.658l-0.229-0.019l-5.479,0.707
		c-1.229,0.148-2.474,0.332-3.677,0.509c-0.537,0.079-1.074,0.157-1.613,0.234c-0.624,0.093-1.249,0.183-1.874,0.271
		c-1.137,0.163-2.272,0.326-3.406,0.509l-5.267,0.853c-1.131,0.182-2.258,0.384-3.385,0.587c-0.626,0.112-1.251,0.225-1.876,0.334
		c-1.312,0.224-2.64,0.482-3.924,0.732l-1.331,0.259c-3.103,0.611-6.772,1.36-10.468,2.29c-0.124,0.031-0.204,0.149-0.188,0.276
		c0.018,0.124,0.123,0.216,0.248,0.216c0.002,0,0.004,0,0.007,0c3.812-0.1,7.547-0.365,10.699-0.611L15.007,82
		c1.305-0.105,2.653-0.214,3.978-0.351c0.64-0.065,1.281-0.126,1.922-0.187c1.132-0.107,2.264-0.215,3.393-0.344l5.303-0.598
		c1.15-0.129,2.299-0.279,3.446-0.43c0.616-0.081,1.232-0.162,1.851-0.239c0.543-0.072,1.087-0.142,1.631-0.21
		c1.201-0.153,2.443-0.312,3.66-0.498l5.056-0.741c1.688,0.174,3.38,0.32,5.072,0.466c0.942,0.082,1.886,0.164,2.828,0.25
		c1.745,0.156,3.522,0.284,5.241,0.408c0.956,0.069,1.913,0.139,2.874,0.213c0.78,0.046,1.561,0.094,2.34,0.143
		c1.882,0.117,3.827,0.238,5.745,0.317c-1.427,0.822-2.851,1.671-4.233,2.496c-0.676,0.403-1.353,0.806-2.033,1.209
		c-0.845,0.521-1.692,1.038-2.54,1.555c-1.477,0.9-3.003,1.831-4.488,2.772c-0.822,0.522-1.647,1.041-2.472,1.56
		c-1.479,0.929-3.007,1.889-4.494,2.862l-0.233,0.153c-0.026,0.018-0.05,0.04-0.067,0.066l-3.604,5.184
		c-0.789,1.119-1.565,2.273-2.315,3.39c-0.356,0.531-0.713,1.062-1.073,1.591c-0.391,0.584-0.785,1.166-1.179,1.747
		c-0.731,1.081-1.463,2.161-2.177,3.254l-3.295,5.038c-0.707,1.079-1.397,2.171-2.088,3.263c-0.383,0.606-0.766,1.212-1.151,1.816
		c-0.8,1.243-1.587,2.523-2.348,3.763l-0.836,1.357c-1.866,3.053-4.052,6.678-6.11,10.42c-0.062,0.112-0.028,0.254,0.077,0.326
		c0.105,0.071,0.251,0.054,0.333-0.045c2.755-3.285,5.341-6.627,7.507-9.465l0.96-1.263c0.881-1.159,1.793-2.357,2.665-3.554
		c0.42-0.573,0.844-1.146,1.267-1.717c0.771-1.043,1.543-2.085,2.298-3.14l3.507-4.894c0.75-1.043,1.481-2.1,2.213-3.155
		c0.412-0.594,0.823-1.188,1.239-1.781c0.368-0.533,0.739-1.065,1.11-1.597c0.765-1.096,1.555-2.229,2.307-3.36l3.188-4.724
		c1.393-0.935,2.771-1.891,4.147-2.846c0.785-0.545,1.57-1.09,2.358-1.631c1.461-1.007,2.928-2.056,4.346-3.07
		c0.795-0.568,1.59-1.137,2.392-1.704l1.76-1.288l-1.166,1.364c-1.371,1.604-2.789,3.262-4.146,4.922l-2.629,3.171l-3.012,3.727
		c-0.047,0.058-0.065,0.132-0.051,0.204l1.182,6.119l1.127,5.407c0.507,2.52,1.08,5.066,1.636,7.531
		c0.245,1.09,0.49,2.181,0.732,3.276l1.286,5.377c0.271,1.155,0.567,2.307,0.862,3.458c0.163,0.637,0.326,1.273,0.486,1.91
		c0.304,1.211,0.631,2.418,0.959,3.624c0.156,0.577,0.312,1.153,0.467,1.733c0.588,2.097,1.081,3.79,1.555,5.33
		c0.038,0.122,0.155,0.198,0.288,0.172c0.126-0.025,0.213-0.142,0.2-0.27c-0.156-1.602-0.354-3.354-0.621-5.521
		c-0.085-0.617-0.166-1.235-0.248-1.854c-0.16-1.213-0.32-2.427-0.502-3.635c-0.098-0.643-0.191-1.285-0.285-1.928
		c-0.173-1.184-0.346-2.367-0.542-3.546l-0.889-5.462c-0.203-1.119-0.4-2.24-0.598-3.36c-0.435-2.468-0.885-5.02-1.385-7.517
		l-1.047-5.431l-0.965-4.635l2.023-2.61l2.48-3.281c1.333-1.741,2.649-3.539,3.922-5.278l0.216-0.294c0,0.016,0,0.032,0,0.048
		c0,5.374,3.307,9.746,7.372,9.746s7.373-4.372,7.373-9.746c0-0.645-0.05-1.289-0.148-1.926c0.199,0.278,0.399,0.556,0.604,0.83
		l1.027,1.401c1.258,1.72,2.56,3.497,3.877,5.217l2.483,3.286l2.021,2.607l-0.964,4.639l-1.048,5.425
		c-0.5,2.499-0.95,5.051-1.385,7.519c-0.197,1.12-0.395,2.241-0.599,3.365l-0.888,5.456c-0.196,1.18-0.369,2.363-0.542,3.547
		c-0.094,0.643-0.188,1.285-0.285,1.928c-0.182,1.208-0.342,2.421-0.502,3.634c-0.082,0.619-0.163,1.237-0.248,1.858
		c-0.271,2.199-0.463,3.9-0.621,5.518c-0.013,0.128,0.074,0.244,0.2,0.27c0.017,0.003,0.033,0.005,0.049,0.005
		c0.108,0,0.206-0.07,0.239-0.177c0.473-1.54,0.967-3.233,1.555-5.333c0.154-0.577,0.311-1.154,0.468-1.731
		c0.327-1.206,0.654-2.412,0.958-3.623c0.159-0.637,0.322-1.272,0.485-1.908c0.296-1.151,0.592-2.304,0.863-3.459l1.287-5.383
		c0.241-1.091,0.486-2.182,0.731-3.271c0.556-2.465,1.129-5.012,1.636-7.529l1.127-5.412l1.182-6.115
		c0.015-0.073-0.004-0.147-0.051-0.205l-3.014-3.729l-2.626-3.168c-1.358-1.661-2.776-3.319-4.147-4.923l-1.166-1.364l1.764,1.291
		c0.798,0.564,1.593,1.133,2.388,1.701c1.418,1.015,2.885,2.063,4.346,3.07c0.788,0.541,1.573,1.086,2.358,1.631
		c1.377,0.955,2.755,1.911,4.147,2.846l3.187,4.723c0.753,1.133,1.543,2.266,2.308,3.36c0.371,0.532,0.742,1.064,1.111,1.6
		c0.415,0.592,0.827,1.187,1.239,1.78c0.731,1.056,1.463,2.111,2.212,3.154l3.507,4.894c0.755,1.055,1.526,2.097,2.298,3.14
		c0.424,0.572,0.847,1.144,1.267,1.717c0.872,1.197,1.784,2.395,2.666,3.554l0.96,1.264c2.165,2.837,4.751,6.179,7.506,9.464
		c0.082,0.099,0.227,0.116,0.333,0.045c0.105-0.072,0.14-0.214,0.077-0.326c-2.059-3.742-4.244-7.367-6.11-10.421l-0.836-1.357
		c-0.761-1.238-1.548-2.519-2.347-3.762c-0.387-0.604-0.77-1.211-1.153-1.816c-0.689-1.092-1.38-2.184-2.087-3.263l-3.295-5.038
		c-0.714-1.093-1.445-2.173-2.177-3.254c-0.394-0.581-0.788-1.163-1.18-1.748c-0.359-0.528-0.716-1.059-1.071-1.589
		c-0.751-1.116-1.526-2.271-2.315-3.389l-3.605-5.186c-0.018-0.026-0.041-0.049-0.067-0.066l-0.234-0.153
		c-1.486-0.974-3.015-1.934-4.493-2.862c-0.824-0.519-1.649-1.037-2.472-1.56c-1.485-0.941-3.012-1.872-4.488-2.772
		c-0.848-0.517-1.695-1.033-2.544-1.557c-0.677-0.401-1.354-0.804-2.029-1.207c-1.383-0.825-2.807-1.674-4.233-2.496
		c1.919-0.079,3.864-0.2,5.745-0.317c0.779-0.049,1.56-0.097,2.345-0.144c0.956-0.073,1.913-0.143,2.869-0.212
		c1.719-0.124,3.496-0.252,5.241-0.408c0.942-0.086,1.886-0.168,2.828-0.25c1.691-0.146,3.384-0.292,5.011-0.468l5.115,0.743
		c1.219,0.187,2.461,0.345,3.662,0.498c0.544,0.068,1.088,0.138,1.633,0.21c0.616,0.077,1.232,0.158,1.849,0.239
		c1.147,0.15,2.296,0.301,3.446,0.43l5.303,0.598c1.129,0.129,2.261,0.236,3.393,0.344c0.641,0.061,1.282,0.121,1.922,0.187
		c1.325,0.137,2.676,0.246,3.981,0.351l1.347,0.109c3.15,0.246,6.885,0.512,10.697,0.611c0.003,0,0.005,0,0.007,0
		c0.125,0,0.23-0.092,0.248-0.216C148.515,82.378,148.435,82.26,148.311,82.229z"/>
</g>
</svg>
