<?xml version="1.0" encoding="iso-8859-1"?>
<!-- Generator: Adobe Illustrator 17.1.0, SVG Export Plug-In . SVG Version: 6.00 Build 0)  -->
<!DOCTYPE svg PUBLIC "-//W3C//DTD SVG 1.1//EN" "http://www.w3.org/Graphics/SVG/1.1/DTD/svg11.dtd">
<svg version="1.1" id="Capa_1" xmlns="http://www.w3.org/2000/svg" xmlns:xlink="http://www.w3.org/1999/xlink" x="0px" y="0px"
	 viewBox="0 0 150 150" style="enable-background:new 0 0 150 150;" xml:space="preserve">
<g>
	<path d="M143.118,71.569c-0.828-1.124-1.539-2.358-2.495-3.359c-1.023-1.072-1.768-2.279-2.202-3.636
		c-1.175-3.673-3.227-6.659-6.507-8.734c-0.71-0.449-1.5-0.772-2.258-1.143c-0.599-0.293-1.212-0.556-1.807-0.857
		c-0.866-0.439-1.814-0.786-2.552-1.386c-0.599-0.487-1.008-1.255-1.385-1.961c-0.951-1.776-1.824-3.593-2.754-5.38
		c-0.477-0.916-1.053-1.08-1.784-0.348c-0.99,0.992-1.961,2.046-2.713,3.22c-0.646,1.008-0.959,2.219-0.68,3.484
		c0.15,0.678-0.029,1.083-0.821,1.276c-1.733,0.421-3.496,0.825-4.669,2.398c-0.591,0.793-1.385,1.444-1.918,2.269
		c-0.977,1.514-1.961,3.018-3.31,4.22c-1.594,1.42-4.174,2.134-6.278,0.401c-1.792-1.476-3.884-2.501-6.165-2.976
		c-2.458-0.512-4.951-0.855-7.428-1.278c-0.597-0.102-1.189-0.228-1.728-0.333c0.063,0.094,0.18,0.266,0.365,0.541
		c-0.361,0.088-0.626,0.204-0.894,0.21c-1.672,0.033-3.357-0.071-5.014,0.098c-1.059,0.108-2.404,0.047-2.75,1.57
		c-0.026,0.114-0.222,0.228-0.361,0.27c-2,0.612-3.729,1.69-5.28,3.07c-1.4,1.247-2.791,2.504-4.262,3.826
		c0.91,0.292,0.773,0.678,0.313,1.176c-0.455,0.492-0.854,1.037-1.266,1.568c-0.371,0.477-0.729,0.965-1.134,1.503
		c-1.013-1.065,0.259-1.459,0.364-2.148c-0.865-0.725-0.873-0.928-0.136-1.924c0.507-0.686,0.99-1.391,1.468-2.099
		c0.356-0.527,0.534-1.04,0.007-1.617c-0.148-0.163-0.1-0.58-0.026-0.85c0.079-0.289,0.297-0.54,0.449-0.809
		c0.352-0.622,0.421-1.162-0.377-1.513c-0.519-0.228-0.655-0.586-0.376-1.137c0.326-0.643,0.624-1.312,0.823-2.002
		c0.099-0.343-0.037-0.759-0.089-1.139c-0.047-0.344-0.202-0.69-0.175-1.023c0.074-0.904,0.219-1.802,0.342-2.748
		c-0.279,0-0.513,0.001-0.747,0c-1.25-0.004-1.287-0.005-1.233-1.293c0.037-0.881,0.22-1.755,0.284-2.636
		c0.014-0.2-0.196-0.596-0.307-0.597c-0.734-0.008-0.634-0.516-0.707-0.98c-0.044-0.279-0.176-0.676-0.382-0.771
		c-0.511-0.234-0.721-0.529-0.831-1.098c-0.099-0.513-0.027-1.373-0.98-1.285c-0.72,0.066-0.832-0.277-0.904-0.919
		c-0.135-1.204-0.427-2.391-0.68-3.726c-0.578,0.625-0.811,0.307-1.011-0.009c-0.432-0.682-0.829-1.386-1.269-2.063
		c-0.246-0.378-0.525-0.498-0.976-0.163c-0.213,0.158-0.811,0.17-0.937,0.012c-0.806-1.013-1.691-1.932-2.719-2.718
		c-0.101-0.077-0.163-0.204-0.253-0.298c-0.267-0.278-0.497-0.624-0.818-0.812c-1.265-0.744-2.56-1.437-3.8-2.125
		c-0.14,0.208-0.257,0.447-0.44,0.614c-0.051,0.046-0.348-0.08-0.445-0.199c-0.944-1.156-2.282-1.688-3.47-2.325
		c-0.063,0.332-0.056,0.656-0.199,0.887c-0.071,0.115-0.441,0.128-0.639,0.066c-1.322-0.409-2.634-0.851-4.042-1.313
		c0,0.384,0.051,0.632-0.017,0.84c-0.049,0.151-0.277,0.372-0.391,0.353c-0.862-0.139-1.714-0.332-2.571-0.504
		c-0.863-0.173-1.727-0.341-2.666-0.526c0.158,1.202-0.118,1.345-1.137,1.269c-1.352-0.1-2.716-0.025-4.132-0.025
		c0.246,1.109-0.542,1.073-1.221,1.115c0.191,0.948,0.036,1.134-0.864,1.054c-0.429-0.038-0.854-0.121-1.34-0.192
		c0.484,0.985,0.383,1.259-0.591,1.501c-1.127,0.28-2.278,0.469-3.402,0.76c-0.28,0.073-0.727,0.412-0.707,0.583
		c0.106,0.908-0.485,1.014-1.117,1.154c-0.277,0.061-0.539,0.189-0.804,0.296c-0.37,0.15-0.501,0.366-0.336,0.789
		c0.311,0.797,0.162,1.112-0.627,1.468c-0.677,0.306-1.39,0.544-2.04,0.898c-0.28,0.153-0.444,0.521-0.655,0.795
		c-0.166,0.216-0.284,0.493-0.494,0.647c-0.866,0.639-1.758,1.241-2.691,1.893c0.216,0.198,0.393,0.388,0.598,0.542
		c0.75,0.562,0.784,0.747,0.09,1.383c-0.615,0.564-1.288,1.066-1.918,1.616c-0.324,0.283-0.521,0.568-0.024,0.943
		c0.114,0.086,0.041,0.628-0.116,0.823c-0.292,0.36-0.328,0.61-0.103,1.031c0.148,0.277,0.172,0.741,0.04,1.022
		c-0.249,0.527-0.648,0.984-0.989,1.467c-0.514,0.728-1.032,1.454-1.549,2.181c0.048,0.05,0.095,0.099,0.143,0.149
		c0.624-0.114,1.248-0.227,1.872-0.341c0.072,0.058,0.143,0.116,0.215,0.174c-0.624,1.279-1.248,2.558-1.952,4
		c0.367-0.103,0.532-0.188,0.696-0.185c0.186,0.004,0.444,0.03,0.535,0.149c0.096,0.126,0.104,0.409,0.029,0.563
		c-0.635,1.289-0.662,2.639-0.481,4.052c0.153-0.279,0.256-0.545,0.427-0.756c0.147-0.181,0.373-0.298,0.563-0.443
		c0.086,0.245,0.243,0.489,0.246,0.735c0.023,1.566,0.011,3.133,0.011,4.654c1.045,0.287,1.659,0.77,2.143,1.637
		c0.366,0.656,0.682,1.343,1.079,1.98c0.162,0.26,0.488,0.61,0.722,0.597c0.813-0.046,1.059,0.585,1.149,1.069
		c0.191,1.03,0.702,0.905,1.431,0.662c1.064-0.355,1.422-0.183,1.958,0.769c0.125,0.223,0.262,0.439,0.406,0.678
		c0.192-0.241,0.346-0.485,0.548-0.681c0.855-0.83,1.336-0.768,1.976,0.215c0.357,0.55,0.734,1.088,1.172,1.735
		c0.425-0.867,0.76-1.592,1.134-2.295c0.133-0.249,0.359-0.448,0.543-0.67c0.231,0.256,0.543,0.476,0.675,0.775
		c0.277,0.632,0.459,1.305,0.736,2.127c0.19-0.535,0.339-0.916,0.461-1.304c0.207-0.656,0.51-0.742,1.039-0.278
		c0.407,0.358,0.811,0.719,1.275,1.131c0.79-0.863,1.527-1.672,2.268-2.476c0.39-0.423,0.742-0.408,1.094,0.071
		c0.227,0.309,0.509,0.576,0.869,0.976c0.067-0.463,0.045-0.796,0.168-1.061c0.226-0.486,0.482-1.263,0.824-1.32
		c0.586-0.097,0.342,0.638,0.441,1.027c0.01,0.039,0.056,0.068,0.084,0.101c0.812-0.391,1.018-0.311,1.14,0.533
		c0.1,0.694,0.161,1.397,0.175,2.098c0.024,1.172-0.26,1.358-1.35,0.988c-0.071,0.378-0.192,0.758-0.204,1.142
		c-0.019,0.599,0.053,1.2,0.053,1.8c0,0.288-0.043,0.586-0.123,0.863c-0.175,0.608-0.517,1.198-0.547,1.808
		c-0.031,0.633-0.157,1.014-0.743,1.042c0.043,0.866,0.013,1.678,0.137,2.467c0.286,1.822,1.52,3.008,2.868,4.119
		c0.224,0.185,0.36,0.609,0.337,0.908c-0.012,0.156-0.451,0.372-0.712,0.396c-0.627,0.058-1.264,0.019-2.045,0.019
		c0.708,0.735,1.378,1.431,2.174,2.256c-0.364-0.089-0.536-0.131-0.708-0.172c-0.011,0.037-0.023,0.074-0.034,0.111
		c0.202,0.083,0.405,0.166,0.607,0.249c-0.228,0.139-0.408,0.128-0.579,0.084c-0.211-0.055-0.415-0.137-0.767-0.256
		c0.162,0.359,0.244,0.568,0.347,0.766c0.649,1.25,1.668,2.091,2.938,2.658c0.375,0.168,0.69,0.5,0.254,0.799
		c-0.548,0.375-0.258,0.687-0.102,1.049c0.115,0.268,0.404,0.605,0.325,0.776c-0.105,0.226-0.495,0.319-0.828,0.507
		c0.486,0.521,0.992,1.042,1.471,1.587c0.197,0.225,0.453,0.498,0.465,0.759c0.013,0.29-0.223,0.591-0.394,0.988
		c0.751,0.68,1.812,1.636,2.865,2.601c0.159,0.145,0.279,0.333,0.417,0.501c-0.17,0.136-0.333,0.284-0.513,0.404
		c-0.117,0.078-0.261,0.118-0.312,0.14c0.422,0.463,0.816,0.949,1.266,1.378c0.728,0.695,1.506,1.338,2.229,2.039
		c0.154,0.149,0.159,0.452,0.25,0.739c0.281,0.149,0.685,0.327,1.049,0.564c1.227,0.799,2.432,1.625,4.023,1.384
		c0.548-0.083,0.606,0.339,0.532,0.722c-0.101,0.525-0.277,1.036-0.443,1.635c0.497,0.11,0.981,0.184,1.441,0.333
		c0.218,0.071,0.39,0.285,0.582,0.435c-0.14,0.164-0.26,0.352-0.424,0.487c-0.223,0.185-0.479,0.33-0.703,0.481
		c0.983,0.177,1.92,0.338,2.854,0.517c0.601,0.115,0.671,0.515,0.628,1.063c-0.024,0.3,0.112,0.773,0.331,0.899
		c0.458,0.264,1.015,0.359,1.537,0.504c0.358,0.1,0.726,0.167,1.09,0.248c-0.236,0.345-0.472,0.688-0.705,1.035
		c-0.019,0.029-0.012,0.075-0.014,0.092c0.849-0.086,1.703-0.267,2.546-0.227c0.728,0.034,1.536,0.14,1.846,1.045
		c0.167,0.489,0.539,0.321,0.914,0.258c0.429-0.072,0.918-0.132,1.302,0.013c0.223,0.084,0.291,0.581,0.369,0.758
		c1.085-0.242,2.133-0.537,3.2-0.686c0.498-0.07,1.304-0.047,1.334,0.607c0.038,0.819,0.498,0.657,0.923,0.628
		c0.329-0.023,0.645-0.195,0.974-0.263c0.579-0.119,0.94,0.061,0.857,0.775c0.321-0.128,0.597-0.255,0.884-0.349
		c1.615-0.53,3.256-0.994,4.839-1.606c0.618-0.239,1.163-0.571,1.845-0.378c0.964,0.273,1.917,0.741,2.891,0.788
		c1.738,0.084,3.513,0.078,5.225-0.195c1.618-0.258,3.2-0.837,4.75-1.404c1.258-0.46,2.296-0.345,3.282,0.576
		c0.312,0.291,0.758,0.612,1.146,0.617c1.855,0.025,3.712-0.028,5.566-0.103c1.455-0.059,2.909-0.293,4.36-0.265
		c1.714,0.032,3.423,0.302,5.138,0.377c0.402,0.017,1.035-0.238,1.174-0.544c0.162-0.356,0.001-0.958-0.203-1.36
		c-0.571-1.125-1.712-1.528-2.782-2.005c-0.24-0.107-0.45-0.279-0.674-0.421c0.164-0.251,0.281-0.557,0.499-0.745
		c1.3-1.123,2.708-2.135,3.92-3.344c1.924-1.919,3.357-4.152,3.121-7.032c-0.12-1.466-0.324-2.95-0.725-4.359
		c-0.325-1.14-0.756-2.312-1.879-3.047c-0.504-0.33-0.111-0.596,0.264-0.765c1.386-0.627,2.818-1.174,4.14-1.915
		c1.369-0.767,2.739-1.603,3.903-2.641c0.798-0.711,1.307-0.715,2.123-0.31c0.943,0.468,1.9,0.969,2.909,1.234
		c2.455,0.645,4.748-0.075,6.905-1.193c4.385-2.272,7.879-5.589,10.857-9.478c-0.152-0.199-0.369-0.371-0.432-0.588
		c-0.292-1.003-1.112-1.403-2.126-1.056c-0.533,0.183-1.096,0.306-1.656,0.374c-0.233,0.028-0.566-0.096-0.71-0.269
		c-0.085-0.102,0.111-0.438,0.254-0.913c-1.186,0.572-2.355,0.931-3.269,1.626c-1.192,0.906-2.33,1.735-3.847,2.071
		c-0.863,0.191-1.402,0.039-1.916-0.575c-0.199-0.238-0.386-0.488-0.604-0.709c-0.506-0.515-0.463-0.837,0.195-1.076
		c0.654-0.237,1.327-0.419,1.981-0.656c1.951-0.705,3.813-1.55,4.847-3.512c0.756-1.433,1.985-1.892,3.528-2.023
		c1.551-0.132,3.025-0.576,3.725-2.246c0.202-0.481,0.562-0.892,0.816-1.354c0.079-0.144,0.115-0.385,0.047-0.519
		C143.488,71.876,143.254,71.753,143.118,71.569z"/>
</g>
</svg>
