<?xml version="1.0" encoding="iso-8859-1"?>
<!-- Generator: Adobe Illustrator 17.1.0, SVG Export Plug-In . SVG Version: 6.00 Build 0)  -->
<!DOCTYPE svg PUBLIC "-//W3C//DTD SVG 1.1//EN" "http://www.w3.org/Graphics/SVG/1.1/DTD/svg11.dtd">
<svg version="1.1" id="Capa_1" xmlns="http://www.w3.org/2000/svg" xmlns:xlink="http://www.w3.org/1999/xlink" x="0px" y="0px"
	 viewBox="0 0 150 150" style="enable-background:new 0 0 150 150;" xml:space="preserve">
<g>
	<path d="M60.067,55.879c-2.096,0.651-3.738-0.492-5.671-2.241c-2.716-2.458-5.925-4.641-9.295-6.038
		c-2.463-1.021-4.971-0.792-6.658,1.402c-1.6,2.081-1.587,5.419-2.207,7.955c-1.496,6.112-3.633,12.066-6.365,17.734
		c-1.522,3.156-4.545,4.88-6.798,7.571c-1.809,2.161-3.309,4.551-4.462,7.122c-0.516,1.152-1,2.317-1.138,3.582
		c-0.078,0.719,0.119,1.491,0.291,2.24c0.124,0.538,0.438,0.607,0.723,0.135c1.877-3.106,3.198-6.677,5.385-9.715
		c2.295-3.188,4.922-6.125,7.694-8.904c1.064-1.066,5.362-4.14,5.539-5.56c0.192-1.538,1.576-14.844,2.196-18.563
		c0.091-0.545,0.615-0.724,1.087-0.437c3.066,1.864,12.428,7.458,12.266,7.91c-1.848,5.138-3.711,10.651-5.876,16.042
		c-0.413,1.029-1.929,1.757-3.084,2.322c-4.881,2.388-9.797,4.722-15.046,7.219c-0.499,0.237-1.349,0.371-1.901,0.37
		c-0.926-0.001-1.885,0.179-2.473,0.888c-0.649,0.781-1.148,1.871-0.548,2.861c0.907,1.498,2.52,2.575,3.816,3.72
		c0.174,0.154,0.348,0.308,0.522,0.461c0.288,0.255,0.782,0.826,1.104,1.275c1.619,2.265,3.237,4.53,4.856,6.795
		c1.605,2.246,3.211,4.492,4.816,6.739c1.267,1.773,3.122,3.341,2.463,5.673c-1.118,3.956-3.78,6.882-6.223,10.069
		c-2.805,3.659-5.627,7.304-8.479,10.926c-0.741,0.942-1.713,1.893-2.786,2.347c-3.074,1.301-3.784,3.251-2.238,6.686
		c0.227,0.504,0.728,0.558,1.088,0.139c7.639-8.907,16.288-17.621,23.096-27.139c0.321-0.449,0.451-1.059,0.268-1.342
		s-0.017-0.229,0.462,0.047c0.567,0.327,1.143,0.658,1.711,0.953c0.49,0.255,0.997-0.011,0.923-0.558
		c-0.472-3.504-6.162-8.681-8.019-11.048c-1.922-2.451-3.85-4.897-5.778-7.343c-1.469-1.863-2.161-4.038-3.897-5.623
		c-0.408-0.372-0.347-0.718,0.191-0.843c2.618-0.607,8.886-2.154,10.708-3.61c0.431-0.345,0.565-0.375,0.647,0.171
		c0.419,2.771,0.893,5.534,1.184,8.316c1.635,15.67,10.517,25.781,24.181,32.683c1.917,0.968,3.68,1.52,5.414,1.694
		c0.55,0.055,1.025,0.063,1.06,0.063c0.021,0,0.042-0.001,0.062-0.001c0.042,0,0.083,0.004,0.125,0.004
		c2.06-0.042,4.126-0.605,6.411-1.759c13.664-6.902,22.546-17.013,24.181-32.683c0.29-2.782,0.765-5.545,1.184-8.316
		c0.083-0.546,0.216-0.516,0.647-0.171c1.821,1.456,8.09,3.003,10.708,3.61c0.538,0.125,0.6,0.471,0.192,0.843
		c-1.736,1.585-2.428,3.76-3.897,5.623c-1.928,2.446-3.855,4.893-5.778,7.343c-1.857,2.366-7.547,7.544-8.019,11.048
		c-0.074,0.547,0.434,0.813,0.923,0.558c0.568-0.296,1.144-0.626,1.711-0.953c0.478-0.276,0.645-0.331,0.461-0.047
		s-0.053,0.893,0.268,1.343c6.808,9.518,15.456,18.232,23.096,27.139c0.36,0.419,0.861,0.365,1.087-0.139
		c1.545-3.435,0.835-5.385-2.238-6.686c-1.074-0.454-2.045-1.406-2.786-2.347c-2.852-3.622-5.674-7.267-8.479-10.926
		c-2.443-3.187-5.105-6.114-6.223-10.069c-0.659-2.332,1.195-3.899,2.463-5.673c1.605-2.246,3.211-4.492,4.816-6.739
		c1.619-2.265,3.237-4.53,4.856-6.795c0.321-0.449,0.815-1.02,1.104-1.275c0.174-0.154,0.348-0.307,0.522-0.461
		c1.296-1.145,2.909-2.222,3.816-3.72c0.6-0.991,0.1-2.08-0.548-2.861c-0.588-0.709-1.548-0.889-2.473-0.888
		c-0.552,0.001-1.402-0.133-1.901-0.37c-5.249-2.497-10.164-4.831-15.046-7.219c-1.155-0.565-2.671-1.293-3.084-2.322
		c-2.164-5.391-4.027-10.904-5.876-16.042c-0.162-0.452,9.2-6.047,12.266-7.91c0.472-0.287,0.996-0.108,1.087,0.437
		c0.621,3.719,2.005,17.025,2.196,18.563c0.177,1.42,4.475,4.493,5.539,5.56c2.773,2.779,5.4,5.716,7.694,8.904
		c2.186,3.038,3.508,6.608,5.385,9.715c0.286,0.473,0.599,0.404,0.723-0.135c0.172-0.748,0.37-1.521,0.291-2.24
		c-0.138-1.265-0.622-2.431-1.138-3.582c-1.153-2.571-2.653-4.961-4.462-7.122c-2.253-2.691-5.276-4.415-6.798-7.571
		c-2.733-5.667-4.869-11.622-6.365-17.734c-0.621-2.535-0.607-5.874-2.207-7.955c-1.687-2.194-4.196-2.423-6.658-1.402
		c-3.371,1.397-6.58,3.58-9.295,6.038c-1.932,1.749-3.575,2.891-5.671,2.241c-0.527-0.164-0.71-0.784-0.453-1.272
		c1.093-2.072,2.195-4.161,3.389-6.424c0.258-0.488,0.916-0.887,1.468-0.907c5.597-0.205,10.309-1.873,9.277-10.161
		c-0.068-0.548,0.178-0.68,0.575-0.296c4.261,4.135,8.272,8.544,11.78,13.34c3.367,4.603,5.525,9.677,8.309,14.526
		c0.275,0.479,1.045,0.793,1.258,0.284c0.908-2.174-3.156-9.633-3.834-10.6c-4.547-6.49-9.637-12.623-14.804-18.644
		c-1.991-2.32-3.056-4.5-2.414-7.49c0.624-2.904,0.689-5.53-3.017-5.851c-0.55-0.048-0.865-0.458-0.724-0.992
		c1.752-6.623,0.971-14.24,8.73-16.937c0.522-0.181,0.697-0.668,0.284-1.035c-2.418-2.15-5.254,0.462-7.008,2.66
		c-2.545,3.19-4.085,6.942-3.771,11.088c0.167,2.209-0.299,4.466-0.597,6.701c-0.073,0.547-0.499,0.758-0.969,0.468
		c-4.604-2.841-8.744-5.396-12.797-7.896c-0.47-0.29-0.453-0.291,0.097-0.24c1.461,0.138,3.508-0.625,4.594-0.903
		c0.887-0.227,6.261-1.083,5.092-2.654c-0.272-0.365-0.767-0.508-1.221-0.471c-1.915,0.155-4.049,1.068-5.926,1.541
		c-0.497,0.125-1.832,0.201-2.784,0.364c-0.544,0.093-0.596,0.016-0.156-0.318c1.628-1.239,5.105-3.829,6.804-4.749
		c0.486-0.263,0.541-0.548,0.029-0.755c-3.965-1.607-5.507,2.442-7.233,3.636c-0.454,0.314-1.27,0.029-1.677-0.345
		c-2.345-2.159-4.273-4.604-6.05-5.539c-0.489-0.257-0.956-0.371-0.993-0.375c-0.037-0.004-0.095,0.001-0.129-0.006
		c-0.034-0.007-0.506,0.087-0.992,0.349c-1.778,0.96-3.708,3.409-6.054,5.57c-0.406,0.374-1.223,0.659-1.677,0.345
		C64.362,10.7,62.82,6.65,58.854,8.259C58.343,8.467,58.4,8.75,58.885,9.014c1.699,0.92,5.175,3.509,6.803,4.748
		c0.439,0.335,0.388,0.412-0.156,0.319c-0.952-0.163-2.288-0.239-2.784-0.364c-1.877-0.473-4.01-1.386-5.926-1.541
		c-0.454-0.037-0.949,0.105-1.221,0.471c-1.169,1.571,4.206,2.427,5.092,2.654c1.085,0.278,3.133,1.041,4.594,0.903
		c0.55-0.052,0.567-0.05,0.097,0.24c-4.052,2.5-8.192,5.054-12.795,7.895c-0.47,0.29-0.898,0.08-0.97-0.468
		c-0.298-2.236-0.764-4.492-0.597-6.701c0.314-4.146-1.226-7.898-3.771-11.088c-1.754-2.198-4.59-4.811-7.008-2.66
		c-0.413,0.367-0.238,0.853,0.284,1.035c7.759,2.696,6.979,10.313,8.73,16.936c0.141,0.534-0.173,0.945-0.724,0.992
		c-3.706,0.321-3.641,2.947-3.017,5.851c0.642,2.99-0.423,5.17-2.414,7.49c-5.167,6.021-10.257,12.154-14.804,18.644
		c-0.678,0.967-4.742,8.426-3.834,10.6c0.213,0.51,0.983,0.195,1.258-0.284c2.784-4.849,4.942-9.923,8.309-14.526
		c3.508-4.796,7.519-9.204,11.78-13.34c0.396-0.385,0.643-0.253,0.575,0.295c-1.032,8.288,3.68,9.956,9.277,10.161
		c0.552,0.02,1.209,0.417,1.467,0.906c1.195,2.264,2.297,4.354,3.391,6.426C60.778,55.097,60.594,55.716,60.067,55.879z
		 M84.108,24.582c0.34-1.3,0.682-2.61,1.046-4.001c0.14-0.534,0.682-0.839,1.21-0.678c3.186,0.965,6.721,2.215,8.548,6.578
		c1.438,3.436,3.607,6.557,5.267,9.909c1.583,3.198-0.903,4.372-3.18,4.818c-1.262,0.247-3.993-0.85-4.033-1.471
		c-0.403-6.336-4.87-8.856-8.952-10.93c-0.492-0.25-0.779-0.885-0.639-1.42C83.622,26.441,83.865,25.514,84.108,24.582z
		 M56.784,39.737c-0.039,0.62-2.771,1.718-4.033,1.471c-2.277-0.446-4.763-1.62-3.18-4.818c1.66-3.352,3.829-6.474,5.267-9.909
		c1.826-4.363,5.361-5.613,8.548-6.578c0.529-0.16,1.071,0.145,1.21,0.679c0.624,2.388,1.187,4.54,1.78,6.807
		c0.14,0.534-0.147,1.168-0.64,1.418C61.653,30.882,57.186,33.402,56.784,39.737z"/>
</g>
</svg>
