<?xml version="1.0" encoding="iso-8859-1"?>
<!-- Generator: Adobe Illustrator 17.1.0, SVG Export Plug-In . SVG Version: 6.00 Build 0)  -->
<!DOCTYPE svg PUBLIC "-//W3C//DTD SVG 1.1//EN" "http://www.w3.org/Graphics/SVG/1.1/DTD/svg11.dtd">
<svg version="1.1" id="Capa_1" xmlns="http://www.w3.org/2000/svg" xmlns:xlink="http://www.w3.org/1999/xlink" x="0px" y="0px"
	 viewBox="0 0 150 150" style="enable-background:new 0 0 150 150;" xml:space="preserve">
<g>
	<path d="M46.417,75.009c-0.786-0.135-1.523-0.284-2.25-0.461c-2.153-0.532-4.276-0.821-5.262,0.028
		c-0.066,0.056-0.122,0.152-0.171,0.275c-0.067,0.167-0.293,0.423-0.512,0.591c-2.106,1.607-2.863,4.978-3.984,7.996
		c-1.273,3.412-3.06,7.036-4.301,8.861c-1.167,1.715-2.082,1.446-2.366,2.812c-0.025,0.119-0.031,0.243-0.022,0.371
		c0.014,0.206-0.165,0.384-0.441,0.395c-1.7,0.067-3.045-0.06-3.776,0.933c-0.164,0.222-0.468,0.476-0.736,0.54
		c-0.877,0.211-2.092,0.65-3.223,2.078c-1.776,2.241-0.972,5.124-0.541,5.13c0.431,0.004-0.136-1.395,1.377-2.976
		c0.886-0.923,2.207-0.821,3.341-1.323c0.253-0.112,0.661-0.266,0.932-0.32c1.172-0.233,3.033-0.794,4.524-1.55
		c0.246-0.125,0.634-0.117,0.891-0.018c0.491,0.189,0.992,0.223,1.428,0.013c2.008-0.97,3.635-7.463,4.552-10.839
		c1.025-3.776,1.613-6.312,3.281-8.289c0.178-0.211,0.491-0.209,0.724-0.061c0.169,0.108,0.359,0.194,0.578,0.244
		c1.471,0.342,3.767,0.057,6.046-0.274c0.273-0.04,0.502,0.151,0.509,0.428c0.111,3.971,0.226,7.878,0.082,10.902
		c-0.162,3.385-0.118,7.746,0.311,12.239c0.026,0.275-0.174,0.492-0.45,0.485c-1.783-0.047-3.221-0.136-4.641-0.331
		c-2.195-0.305-4.341-0.373-5.233,0.576c-0.109,0.116-0.258,0.268-0.349,0.51c-0.097,0.258-0.215,0.671-0.366,0.903
		c-3.26,4.996-4.191,16.028-4.655,19.538c-0.474,3.608-1.264,6.921-2.066,8.98c-0.752,1.929-1.625,2.186-1.799,3.469
		c-0.038,0.259,0.026,0.531,0.164,0.802c0.125,0.246,0.049,0.453-0.225,0.486c-1.792,0.217-3.227,0.134-3.914,1.22
		c-0.148,0.233-0.434,0.508-0.697,0.591c-0.86,0.272-2.043,0.795-3.071,2.3c-1.611,2.361-0.604,5.182-0.175,5.159
		c0.428-0.028-0.237-1.384,1.164-3.064c0.816-0.988,2.143-0.978,3.238-1.561c0.244-0.13,0.64-0.313,0.907-0.386
		c1.404-0.381,3.803-1.319,5.284-2.438c0.22-0.167,0.611-0.275,0.886-0.303c0.341-0.035,0.633-0.172,0.83-0.455
		c1.781-2.575,1.245-7.431,1.776-10.887c0.816-5.316,2.2-15.459,4.131-19.992c0.108-0.254,0.367-0.361,0.585-0.289
		c0.128,0.042,0.263,0.073,0.405,0.092c2.019,0.252,5.39-0.774,8.255-1.472c0.268-0.065,0.52,0.105,0.561,0.378
		c0.226,1.468,0.496,2.921,0.825,4.328c0.206,0.875,0.593,1.451,0.88,1.78c0.182,0.208,0.398,0.565,0.451,0.836
		c0.242,1.243,0.968,4.527,2.149,6.086c0.229,0.3,0.493,0.414,0.716,0.448c0.273,0.042,0.572,0.17,0.674,0.427
		c0.468,1.186,1.807,4.395,3.505,6.848c0.498,0.722,0.954,1.048,1.391,1.116c0.273,0.043,0.61,0.166,0.755,0.401
		c1.027,1.666,2.598,3.909,3.752,4.56c0.704,0.392,1.355,0.438,1.778,0.407c0.275-0.02,0.608,0.107,0.755,0.341
		c1.435,2.282,2.657,3.652,4.51,3.497c0.275-0.023,0.6,0.125,0.791,0.325c0.716,0.749,2.174,1.311,3.368,1.507
		c0.272,0.045,0.72,0.045,0.993,0c1.194-0.196,2.652-0.757,3.369-1.507c0.191-0.2,0.516-0.348,0.791-0.325
		c1.853,0.155,3.075-1.215,4.51-3.497c0.147-0.234,0.48-0.361,0.755-0.341c0.423,0.031,1.075-0.015,1.778-0.407
		c1.154-0.651,2.725-2.895,3.752-4.56c0.145-0.235,0.483-0.358,0.755-0.401c0.437-0.069,0.892-0.394,1.391-1.116
		c1.698-2.453,3.037-5.662,3.505-6.848c0.101-0.257,0.401-0.385,0.674-0.427c0.223-0.034,0.488-0.148,0.716-0.448
		c1.182-1.559,1.908-4.843,2.149-6.086c0.053-0.271,0.27-0.628,0.451-0.836c0.287-0.329,0.673-0.905,0.88-1.78
		c0.329-1.407,0.6-2.859,0.825-4.328c0.042-0.273,0.293-0.443,0.561-0.378c2.865,0.699,6.237,1.724,8.255,1.472
		c0.142-0.018,0.277-0.049,0.405-0.092c0.218-0.072,0.476,0.035,0.585,0.289c1.931,4.532,3.315,14.676,4.131,19.992
		c0.531,3.456-0.006,8.312,1.776,10.887c0.197,0.283,0.489,0.42,0.83,0.455c0.275,0.028,0.666,0.137,0.887,0.304
		c1.481,1.119,3.878,2.056,5.282,2.437c0.266,0.073,0.664,0.256,0.908,0.386c1.095,0.584,2.422,0.573,3.238,1.561
		c1.401,1.68,0.736,3.037,1.164,3.064c0.429,0.023,1.436-2.798-0.175-5.159c-1.028-1.506-2.211-2.029-3.071-2.3
		c-0.263-0.083-0.549-0.357-0.697-0.59c-0.686-1.087-2.123-1.003-3.915-1.221c-0.274-0.033-0.35-0.24-0.225-0.486
		c0.138-0.271,0.202-0.543,0.164-0.802c-0.174-1.283-1.047-1.54-1.799-3.469c-0.803-2.059-1.592-5.372-2.066-8.98
		c-0.464-3.511-1.396-14.542-4.655-19.538c-0.151-0.231-0.269-0.644-0.366-0.903c-0.091-0.243-0.24-0.394-0.349-0.51
		c-0.892-0.949-3.038-0.881-5.233-0.576c-1.42,0.195-2.858,0.284-4.641,0.331c-0.276,0.007-0.477-0.21-0.45-0.485
		c0.429-4.493,0.473-8.855,0.311-12.239c-0.144-3.024-0.029-6.931,0.082-10.902c0.008-0.276,0.236-0.467,0.509-0.428
		c2.28,0.332,4.575,0.617,6.046,0.274c0.219-0.05,0.409-0.136,0.578-0.244c0.233-0.148,0.546-0.15,0.724,0.061
		c1.669,1.977,2.257,4.513,3.281,8.289c0.917,3.376,2.544,9.869,4.552,10.839c0.436,0.21,0.937,0.176,1.428-0.013
		c0.258-0.099,0.644-0.107,0.891,0.018c1.49,0.756,3.351,1.316,4.523,1.55c0.271,0.054,0.681,0.208,0.934,0.32
		c1.134,0.502,2.455,0.401,3.341,1.323c1.513,1.581,0.946,2.98,1.377,2.976c0.431-0.006,1.235-2.889-0.541-5.13
		c-1.131-1.428-2.346-1.867-3.223-2.078c-0.268-0.065-0.573-0.318-0.736-0.541c-0.731-0.993-2.076-0.867-3.776-0.933
		c-0.276-0.011-0.455-0.189-0.441-0.395c0.009-0.128,0.003-0.252-0.022-0.371c-0.283-1.367-1.199-1.098-2.366-2.812
		c-1.241-1.825-3.028-5.449-4.301-8.861c-1.121-3.018-1.879-6.389-3.984-7.996c-0.219-0.168-0.445-0.424-0.512-0.591
		c-0.049-0.123-0.105-0.219-0.171-0.275c-0.986-0.849-3.109-0.56-5.262-0.028c-0.728,0.177-1.464,0.326-2.25,0.461
		c-0.272,0.047-0.489-0.141-0.486-0.417c0.022-1.643,0.025-3.234-0.016-4.71c0.144-2.331,2.17-3.599,2.031-5.754
		c-0.12-1.887-5.223-5.884-7.667-6.604c-2.561-0.754-3.201-1.458-4.156-2.269c-0.211-0.179-0.194-0.433,0.043-0.574
		c1.259-0.751,2.344-1.349,3.469-1.87c2.013-0.931,3.816-2.296,4.266-3.515c0.015-0.044,0.028-0.09,0.039-0.137
		c0.018-0.076,0.245-0.092,0.513-0.025c0.858,0.214,1.92,0.541,3.04,1.036c2.687,1.183,9.169,3.891,9.896,3.683
		c0.514-0.146,0.902-0.532,1.164-1.023c0.13-0.244,0.423-0.444,0.699-0.443c2.028,0.008,4.597-0.615,5.704-1.048
		c1.306-0.519,2.731-0.596,3.884-0.286c1.154,0.312,2.034,1.009,2.24,0.719c0.203-0.289-1.615-3.022-3.177-3.476
		c-1.28-0.374-2.264-0.197-3.04,0.029c-0.265,0.077-0.655,0.006-0.906-0.108c-1.367-0.62-2.709,0.643-4.786,1.516
		c-0.255,0.107-0.527,0.028-0.635-0.145c-0.066-0.106-0.142-0.204-0.23-0.289c-0.707-0.671-2.104-0.204-4.022-0.244
		c-2.209-0.048-4.384-0.649-6.197-1.353c-1.624-0.631-2.638-1.162-5.057-1.283c-0.276-0.014-0.693-0.137-0.96-0.208
		c-0.509-0.136-1.085-0.056-1.686,0.381c-1.513,1.096-4.455,3.884-7.366,6.335c-0.211,0.178-0.592,0.239-0.851,0.144
		c-2.356-0.862-4.08-1.054-4.806-2.796c-0.668-1.609-1.637-1.956-1.771-2.302c-0.262-0.71-0.557-2.036-0.467-3.54
		c0.03-0.504-0.129-0.846-0.366-1.063c-0.203-0.187-0.378-0.467-0.311-0.734c2.487-9.806,9.941-18.7,10.759-19.973
		c0.421-0.659,0.577-1.343,0.634-1.789c0.035-0.274,0.24-0.585,0.491-0.698c0.385-0.173,0.91-0.423,1.157-0.606
		c0.996-0.723,2.561-3.069,3.272-4.176c0.32-0.499,0.865-1.024,0.918-1.573c0.026-0.275,0.133-0.489,0.384-0.603
		c0.585-0.265,1.345-0.904,1.79-1.313c1.543-1.423,4.18-3.498,5.169-4.966c0.983-1.455-0.393-2.825-1.887-2.238
		c-1.239,0.483-4.964,4.36-5.744,5.21c-0.505,0.553-0.769,1.428-0.892,1.973c-0.061,0.269-0.31,0.429-0.586,0.427
		c-0.287-0.002-0.658,0.053-1.005,0.283c-0.7,0.466-3.072,3.576-3.656,4.467c-0.492,0.749-0.745,1.175-0.738,1.983
		c0.003,0.276-0.192,0.535-0.445,0.646c-1.861,0.812-3.775,4.355-5.743,8.4c-2.36,4.846-4.769,10.534-5.35,15.179
		c0,0-0.011,0.116-0.024,0.259s-0.166,0.474-0.438,0.524c-0.285,0.052-0.555-0.183-0.637-0.911c-0.122-1.06-1.653-2.183-3.721-2.124
		c-0.026,0.001-0.051,0.008-0.077,0.009c-0.026-0.001-0.05-0.008-0.077-0.009c-2.068-0.059-3.599,1.064-3.721,2.124
		c-0.082,0.728-0.352,0.963-0.637,0.911c-0.272-0.05-0.425-0.381-0.438-0.524l-0.024-0.259c-0.581-4.644-2.99-10.333-5.35-15.179
		c-1.967-4.045-3.882-7.589-5.743-8.4c-0.253-0.11-0.447-0.369-0.445-0.646c0.008-0.808-0.245-1.234-0.738-1.983
		c-0.584-0.891-2.956-4.001-3.656-4.467c-0.346-0.229-0.718-0.285-1.005-0.283c-0.276,0.002-0.525-0.158-0.586-0.427
		c-0.123-0.545-0.387-1.42-0.892-1.973c-0.779-0.85-4.504-4.727-5.744-5.21c-1.494-0.587-2.87,0.784-1.887,2.238
		c0.989,1.468,3.627,3.543,5.169,4.966c0.444,0.409,1.205,1.048,1.79,1.313c0.252,0.114,0.358,0.328,0.384,0.603
		c0.052,0.549,0.598,1.074,0.918,1.573c0.711,1.108,2.276,3.453,3.272,4.176c0.248,0.182,0.773,0.433,1.157,0.606
		c0.252,0.113,0.456,0.424,0.491,0.698c0.057,0.446,0.213,1.131,0.634,1.789c0.818,1.273,8.272,10.168,10.759,19.973
		c0.068,0.268-0.107,0.548-0.311,0.734c-0.237,0.218-0.396,0.56-0.366,1.063c0.09,1.504-0.205,2.83-0.467,3.54
		c-0.134,0.346-1.103,0.693-1.771,2.302c-0.727,1.742-2.45,1.934-4.806,2.796c-0.259,0.095-0.64,0.034-0.851-0.144
		c-2.91-2.451-5.853-5.239-7.366-6.335c-0.601-0.436-1.178-0.517-1.686-0.381c-0.267,0.071-0.684,0.194-0.96,0.208
		c-2.419,0.121-3.433,0.652-5.057,1.283c-1.813,0.704-3.988,1.306-6.197,1.353c-1.917,0.041-3.314-0.426-4.022,0.244
		c-0.087,0.085-0.163,0.182-0.23,0.289c-0.108,0.173-0.38,0.252-0.634,0.145c-2.078-0.873-3.42-2.136-4.787-1.517
		c-0.252,0.114-0.641,0.185-0.906,0.108c-0.776-0.226-1.76-0.403-3.04-0.029c-1.562,0.454-3.379,3.187-3.177,3.476
		c0.205,0.291,1.086-0.406,2.24-0.719c1.153-0.309,2.578-0.233,3.884,0.286c1.107,0.433,3.676,1.056,5.704,1.048
		c0.276-0.001,0.569,0.199,0.699,0.443c0.263,0.492,0.65,0.877,1.164,1.023c0.727,0.208,7.21-2.5,9.896-3.683
		c1.12-0.496,2.182-0.822,3.04-1.036c0.268-0.067,0.496-0.051,0.513,0.025c0.011,0.047,0.024,0.092,0.039,0.137
		c0.45,1.219,2.253,2.584,4.266,3.515c1.125,0.521,2.21,1.119,3.469,1.87c0.237,0.142,0.254,0.396,0.043,0.574
		c-0.955,0.811-1.595,1.515-4.156,2.269c-2.443,0.72-7.547,4.717-7.667,6.604c-0.139,2.155,1.887,3.423,2.031,5.754
		c-0.041,1.476-0.037,3.068-0.016,4.71C46.907,74.868,46.69,75.056,46.417,75.009z"/>
</g>
</svg>
