<?xml version="1.0" encoding="iso-8859-1"?>
<!-- Generator: Adobe Illustrator 17.1.0, SVG Export Plug-In . SVG Version: 6.00 Build 0)  -->
<!DOCTYPE svg PUBLIC "-//W3C//DTD SVG 1.1//EN" "http://www.w3.org/Graphics/SVG/1.1/DTD/svg11.dtd">
<svg version="1.1" id="Capa_1" xmlns="http://www.w3.org/2000/svg" xmlns:xlink="http://www.w3.org/1999/xlink" x="0px" y="0px"
	 viewBox="0 0 150 150" style="enable-background:new 0 0 150 150;" xml:space="preserve">
<g>
	<path d="M18.84,97.315c1.267-0.632,2.534-1.264,3.801-1.896c15.501-7.733,31.002-15.467,46.503-23.2
		c3.374-0.855,6.784-1.571,10.179-2.345c0.138-0.031,0.279-0.055,0.42-0.065c1.131-0.08,1.613,0.204,1.864,1.291
		c0.24,1.038,0.723,1.929,1.298,2.805c0.263,0.401,0.384,0.896,0.567,1.349c0.044,0.109,0.06,0.231,0.117,0.332
		c0.698,1.251,1.378,2.512,2.107,3.745c1.119,1.893,2.685,3.401,4.266,4.898c2.37,2.245,4.651,4.585,6.4,7.358
		c0.575,0.911,0.811,2.034,1.217,3.054c0.129,0.324,0.263,0.659,0.469,0.935c0.258,0.345,0.206,0.55-0.106,0.827
		c-0.997,0.888-1.52,1.987-1.387,3.357c0.019,0.194-0.047,0.418-0.138,0.596c-0.53,1.046-1.328,2.029-1.562,3.134
		c-0.359,1.691-1.188,3.158-1.746,4.745c-0.263,0.747-0.358,1.552-0.569,2.319c-0.162,0.59-0.389,1.162-0.583,1.744
		c-0.827,2.483-1.629,4.976-2.484,7.449c-1.11,3.211-2.226,6.421-3.417,9.603c-0.394,1.052-1.034,2.011-1.545,3.021
		c-0.308,0.609-0.642,1.216-0.861,1.858c-0.313,0.918-0.847,1.653-1.474,2.383c-0.73,0.851-1.303,1.837-1.954,2.758
		c-0.554,0.784-1.141,1.546-1.673,2.344c-0.22,0.331-0.334,0.732-0.497,1.101c0.42-0.003,0.902,0.13,1.249-0.03
		c3.401-1.571,6.641-3.436,9.561-5.788c2.316-1.866,4.661-3.734,6.728-5.859c2.711-2.787,5.325-5.703,7.682-8.792
		c2.889-3.788,5.452-7.824,8.194-11.726c0.799-1.138,1.811-2.13,2.582-3.284c1.403-2.099,2.739-4.245,4.021-6.42
		c0.619-1.049,1.101-2.188,1.546-3.326c0.208-0.533,0.133-1.169,0.267-1.739c0.355-1.514,0.844-3.001,1.114-4.528
		c0.353-1.995,0.575-4.014,0.797-6.029c0.128-1.158-0.346-2.202-1.177-2.929c-1.523-1.331-3.117-2.592-4.769-3.76
		c-2.124-1.502-4.307-2.926-6.09-4.842c-2.08-2.235-3.15-4.845-2.762-7.956c0.149-1.195,0.247-2.396,0.365-3.595
		c0.072-0.736,0.431-1.248,1.072-1.644c3.617-2.234,7.443-3.972,11.522-5.198c2.099-0.631,4.153-1.436,6.182-2.273
		c2.47-1.019,5.023-0.998,7.603-0.817c1.296,0.091,2.588,0.239,3.882,0.35c0.241,0.021,0.486-0.01,0.729-0.017
		c0.012-0.066,0.024-0.132,0.036-0.198c-0.473-0.173-0.939-0.374-1.422-0.514c-2.178-0.634-4.362-1.249-6.543-1.874
		c-1.478-0.424-2.662-1.166-3.482-2.569c-0.948-1.624-2.357-2.763-4.312-3.04c-2.332-0.331-4.655-0.784-6.998-0.955
		c-2.085-0.152-4.209,0.177-6.287-0.019c-1.789-0.169-3.554-0.717-5.291-1.229c-0.617-0.182-1.266-0.642-1.648-1.161
		c-1.118-1.52-2.208-3.078-3.129-4.722c-1.495-2.669-1.304-5.508-0.216-8.23c1.04-2.604,2.368-5.091,3.528-7.649
		c0.602-1.326,1.173-2.673,1.646-4.049c0.293-0.851-0.008-1.67-0.572-2.383c-1.264-1.597-2.74-2.925-4.595-3.815
		c-0.549-0.263-1.031-0.662-1.567-0.954c-0.511-0.278-1.034-0.636-1.587-0.717c-2.427-0.357-4.86-0.751-7.304-0.9
		c-4.244-0.259-8.497-0.419-12.748-0.492c-7.652-0.132-15.209,0.669-22.569,2.832c-2.828,0.831-5.572,1.954-8.346,2.968
		c-0.345,0.126-0.635,0.403-1.06,0.682c0.277,0.108,0.4,0.199,0.52,0.196c1.834-0.057,3.667-0.138,5.502-0.187
		c0.725-0.019,1.459-0.031,2.177,0.052c1.734,0.201,3.461,0.465,5.192,0.693c2.954,0.39,5.711,1.454,8.494,2.44
		c0.797,0.282,1.665,0.362,2.462,0.642c1.906,0.669,3.832,1.284,5.53,2.46c0.576,0.399,1.365,0.487,2.05,0.735
		c0.277,0.101,0.678,0.182,0.78,0.39c0.475,0.97,1.375,1.129,2.257,1.194c0.746,0.055,0.91,0.361,0.873,1.025
		c-0.019,0.334,0.089,0.704,0.234,1.014c0.411,0.88,0.487,1.788,0.204,2.691c-0.699,2.23-1.413,4.457-2.187,6.663
		c-1.009,2.879-1.475,5.862-1.738,8.876c-0.079,0.912,0.204,1.852,0.276,2.782c0.036,0.463,0.028,0.946-0.06,1.4
		c-0.245,1.267,0.225,2.404,0.492,3.601c0.394,1.769,0.547,3.599-0.258,5.315c-0.251,0.535-0.736,0.974-1.159,1.414
		c-3.714,3.868-7.983,7.011-12.522,9.808c-3.391,1.795-6.782,3.589-10.172,5.384c-8.787,3.61-17.575,7.219-26.362,10.829
		c-12.606,5.179-11.959,7.207,0.653,2.026c2.638-1.084,5.277-2.168,7.915-3.251c3.585-1.049,7.17-2.098,10.754-3.148
		c0.054,0.112,0.107,0.224,0.161,0.337c-3.053,2.276-6.199,4.436-9.159,6.829c-0.523,0.273-1.046,0.547-1.569,0.82
		c-0.125,0.065-0.224,0.159-0.299,0.271c-5.75,2.869-11.5,5.737-17.25,8.606c-0.52,0.26-4.862,3.321-4.573,3.763
		C13.447,99.827,18.321,97.574,18.84,97.315z"/>
</g>
</svg>
