<?xml version="1.0" encoding="iso-8859-1"?>
<!-- Generator: Adobe Illustrator 17.1.0, SVG Export Plug-In . SVG Version: 6.00 Build 0)  -->
<!DOCTYPE svg PUBLIC "-//W3C//DTD SVG 1.1//EN" "http://www.w3.org/Graphics/SVG/1.1/DTD/svg11.dtd">
<svg version="1.1" id="Capa_1" xmlns="http://www.w3.org/2000/svg" xmlns:xlink="http://www.w3.org/1999/xlink" x="0px" y="0px"
	 viewBox="0 0 150 150" style="enable-background:new 0 0 150 150;" xml:space="preserve">
<g>
	<path d="M7.152,57.204c0.694,0.653,1.35,1.27,1.762,1.776c0.349,0.428,0.681,0.86,1.01,1.288c1.123,1.458,2.284,2.966,3.953,4.111
		c1.039,0.713,2.005,1.152,3.04,1.386c3.035,0.681,5.377,2.787,7.642,4.824c0.906,0.814,1.842,1.656,2.814,2.402
		c1.601,1.228,3.707,2.659,5.806,2.84c0.402,0.035,0.804,0.045,1.2,0.055c1.616,0.039,2.893,0.07,3.649,1.777
		c0.357,0.805,0.341,1.818-0.042,2.709c-0.114,0.264-0.486,0.617-0.815,0.929c-0.525,0.498-1.021,0.969-1.083,1.525
		c-0.096,0.855,0.735,1.688,1.468,2.424c0.221,0.222,0.422,0.42,0.545,0.581c0.608,0.791,1.197,1.678,1.39,2.802
		c0.038,0.224-0.002,0.653-0.042,1.069c-0.091,0.97-0.195,2.069,0.369,2.689c0.173,0.19,0.491,0.418,1.043,0.418
		c1.758,0,3.31,3.303,3.535,5.029c0.038,0.295-0.04,0.68-0.123,1.087c-0.158,0.778-0.337,1.661,0.217,2.384
		c0.573,0.748,1.481,0.793,2.282,0.832c0.502,0.024,0.976,0.048,1.333,0.224c1.635,0.806,1.281,3.68,0.624,5.062
		c-0.076,0.159-0.286,0.422-0.49,0.676c-0.619,0.771-1.389,1.731-0.902,2.635c0.526,0.972,1.139,1.776,1.732,2.555
		c1.3,1.706,2.422,3.18,2.086,5.821c-0.358,2.817-2.181,5.041-4.018,7.077l-0.086,0.095c-0.753,0.834-1.298,1.437-1.583,2.665
		l-0.027,0.113c-0.146,0.62-0.312,1.322,0.017,1.739c0.288,0.363,0.78,0.388,1.455-0.055l0.932-0.606
		c2.17-1.407,4.415-2.863,6.308-4.767c1.261-1.267,2.416-2.656,3.532-4c0.707-0.851,1.413-1.701,2.149-2.524
		c0.092-0.104,0.154-0.112,0.204-0.112c0.145,0,0.353,0.096,0.554,0.188c0.271,0.125,0.552,0.254,0.862,0.254
		c0.273,0,0.656-0.104,0.929-0.597c0.431-0.781,0.031-1.526-0.322-2.185c-0.448-0.836-0.677-1.341-0.156-1.978
		c0.565-0.695,1.13-0.554,1.638-0.508c0.18,0.016,0.354,0.03,0.52,0.03c0.984,0,1.518-0.557,1.731-1.806
		c0.077-0.446,0.142-0.889,0.208-1.326c0.195-1.313,0.38-2.555,0.828-3.81c0.128-0.361,0.288-0.771,0.548-1.055
		c0.195-0.213,0.376-0.335,0.499-0.335c0.2,0,0.48,0.345,0.685,0.596c0.295,0.363,0.6,0.738,1.059,0.738
		c0.571,0,0.876-0.597,1.014-0.911l0.04-0.092c0.405-0.957,0.313-2.446,0.232-3.76c-0.033-0.54-0.065-1.044-0.054-1.447
		c0.084-3.226,0.152-6.453,0.206-9.681c0.043-2.63,0.077-5.261,0.1-7.892c0.007-0.762-0.029-1.572-0.066-2.398
		c-0.039-0.858-0.078-1.73-0.069-2.576c0.006,0.05,0.013,0.1,0.019,0.147c0.071,0.558,0.138,1.085,0.243,1.48
		c0.404,1.522,0.936,2.989,1.581,4.362c0.499,1.061,0.935,1.873,1.629,1.873c0.186,0,0.355-0.06,0.509-0.179
		c0.153,0.119,0.323,0.179,0.509,0.179c0.694,0,1.13-0.812,1.629-1.873c0.645-1.373,1.176-2.84,1.581-4.362
		c0.105-0.396,0.172-0.923,0.243-1.48c0.006-0.048,0.013-0.098,0.019-0.147c0.009,0.846-0.03,1.718-0.069,2.576
		c-0.037,0.826-0.073,1.637-0.066,2.399c0.023,2.63,0.057,5.261,0.1,7.891c0.053,3.228,0.122,6.455,0.206,9.681
		c0.011,0.403-0.021,0.907-0.054,1.447c-0.081,1.313-0.172,2.803,0.231,3.758l0.042,0.099c0.139,0.314,0.444,0.906,1.012,0.906
		c0.458,0,0.764-0.375,1.059-0.738c0.205-0.251,0.485-0.596,0.685-0.596c0.122,0,0.304,0.122,0.498,0.335
		c0.261,0.284,0.42,0.693,0.549,1.055c0.447,1.255,0.632,2.496,0.828,3.81c0.065,0.438,0.131,0.88,0.208,1.326
		c0.213,1.249,0.747,1.806,1.731,1.806c0.166,0,0.34-0.015,0.52-0.03c0.508-0.046,1.073-0.188,1.639,0.508
		c0.52,0.637,0.292,1.142-0.157,1.978c-0.353,0.658-0.753,1.403-0.321,2.186c0.272,0.492,0.655,0.596,0.928,0.596
		c0.31,0,0.59-0.129,0.862-0.254c0.201-0.093,0.41-0.188,0.554-0.188c0.039,0,0.104,0,0.204,0.112
		c0.736,0.823,1.442,1.674,2.149,2.524c1.117,1.344,2.271,2.733,3.532,4c1.893,1.903,4.138,3.359,6.308,4.767l0.932,0.606
		c0.344,0.226,0.62,0.331,0.868,0.331c0.238,0,0.446-0.099,0.587-0.276c0.329-0.417,0.163-1.119,0.017-1.738l-0.027-0.114
		c-0.285-1.229-0.83-1.831-1.583-2.665l-0.086-0.095c-1.837-2.036-3.66-4.26-4.018-7.078c-0.336-2.641,0.787-4.114,2.086-5.82
		c0.593-0.778,1.206-1.583,1.735-2.562c0.483-0.896-0.287-1.856-0.905-2.628c-0.204-0.254-0.415-0.517-0.49-0.676
		c-0.658-1.382-1.011-4.256,0.624-5.062c0.356-0.176,0.831-0.199,1.333-0.224c0.801-0.039,1.709-0.084,2.282-0.832
		c0.554-0.723,0.375-1.605,0.217-2.384c-0.083-0.407-0.161-0.792-0.123-1.087c0.225-1.727,1.777-5.029,3.56-5.029
		c0.527,0,0.845-0.228,1.019-0.418c0.563-0.62,0.46-1.72,0.368-2.689c-0.039-0.416-0.08-0.846-0.042-1.069
		c0.192-1.124,0.782-2.011,1.389-2.802c0.124-0.161,0.325-0.359,0.546-0.581c0.733-0.735,1.564-1.568,1.468-2.424
		c-0.063-0.557-0.559-1.027-1.083-1.525c-0.329-0.312-0.702-0.665-0.815-0.929c-0.384-0.891-0.4-1.904-0.042-2.709
		c0.757-1.707,2.033-1.738,3.649-1.777c0.396-0.01,0.798-0.02,1.2-0.055c2.099-0.181,4.205-1.612,5.806-2.84
		c0.973-0.746,1.909-1.588,2.814-2.402c2.265-2.037,4.607-4.144,7.643-4.824c1.035-0.233,2-0.673,3.04-1.386
		c1.668-1.146,2.829-2.653,3.952-4.111c0.33-0.428,0.662-0.86,1.01-1.288c0.413-0.507,1.068-1.123,1.762-1.776
		c2.219-2.089,4.981-4.688,3.854-7.232c-1.499-3.381-7.755-6.079-9.637-6.826c-6.915-2.744-14.283-4.135-21.901-4.135
		c-1.684,0-3.387,0.07-5.063,0.211c-4.654,0.389-9.229,1.312-13.599,2.744c-1.346,0.441-2.865,1.132-4.474,1.863
		c-3.258,1.479-6.95,3.157-10.144,3.157c-1.02,0-1.914-0.165-2.733-0.506c-0.655-0.271-2.038-1.678-1.921-2.067
		c0.767-0.662,1.274-1.313,1.647-2.109c0.413-0.883,0.45-1.765,0.104-2.484c-0.295-0.617-0.861-1.072-1.604-1.297
		c-0.194-1.037,0.933-6.228,1.385-7.77c1.232-4.191,3.704-7.298,6.805-8.57c0.423,0.241,1.005,0.222,1.404-0.062
		c0.437-0.313,0.654-0.945,0.566-1.648c-0.089-0.715-0.46-1.283-0.968-1.483c-0.72-0.279-1.793,0.451-2.781,1.239
		c-0.113,0.09-0.21,0.168-0.285,0.224c-2.784,2.065-4.999,4.896-6.406,8.189c-0.711,1.661-1.199,3.404-1.45,5.179
		c-0.061,0.432-0.068,0.905-0.075,1.405c-0.015,1.063-0.031,2.159-0.574,2.816c-0.543-0.657-0.559-1.753-0.574-2.816
		c-0.007-0.5-0.014-0.974-0.075-1.405c-0.251-1.774-0.739-3.518-1.45-5.179c-1.407-3.293-3.622-6.124-6.406-8.189
		c-0.075-0.056-0.172-0.134-0.285-0.224c-0.988-0.788-2.059-1.52-2.781-1.239c-0.508,0.2-0.879,0.769-0.968,1.483
		c-0.087,0.703,0.129,1.335,0.567,1.649c0.396,0.282,0.979,0.303,1.403,0.062c3.102,1.272,5.573,4.379,6.805,8.57
		c0.453,1.542,1.579,6.732,1.385,7.77c-0.742,0.225-1.308,0.68-1.604,1.297c-0.345,0.72-0.308,1.602,0.104,2.484
		c0.373,0.796,0.88,1.447,1.65,2.109c0.113,0.39-1.269,1.796-1.924,2.067c-0.808,0.336-1.727,0.506-2.733,0.506
		c-3.194,0-6.886-1.678-10.144-3.157c-1.609-0.731-3.128-1.422-4.474-1.863c-4.37-1.432-8.945-2.355-13.599-2.744
		c-1.676-0.141-3.379-0.211-5.063-0.211c-7.618,0-14.986,1.391-21.901,4.135c-1.882,0.747-8.138,3.445-9.637,6.826
		C2.17,52.517,4.933,55.115,7.152,57.204z"/>
</g>
</svg>
