<?xml version="1.0" encoding="iso-8859-1"?>
<!-- Generator: Adobe Illustrator 17.1.0, SVG Export Plug-In . SVG Version: 6.00 Build 0)  -->
<!DOCTYPE svg PUBLIC "-//W3C//DTD SVG 1.1//EN" "http://www.w3.org/Graphics/SVG/1.1/DTD/svg11.dtd">
<svg version="1.1" id="Capa_1" xmlns="http://www.w3.org/2000/svg" xmlns:xlink="http://www.w3.org/1999/xlink" x="0px" y="0px"
	 viewBox="0 0 150 150" style="enable-background:new 0 0 150 150;" xml:space="preserve">
<g>
	<path d="M140.023,92.201c-0.636-1.261-1.8-1.719-3.06-2.01c-2.275-0.526-4.567-0.979-6.917-0.822
		c-1.18,0.079-2.35,0.314-3.524,0.477c-0.14,0.019-0.28,0.031-0.554,0.062c0.258-0.418,0.446-0.738,0.647-1.05
		c1.085-1.679,1.543-3.552,1.783-5.511c0.678-5.55,0.077-11.024-0.902-16.482c-0.698-3.889-1.209-7.818-2.082-11.666
		c-0.884-3.894-2.021-7.739-3.208-11.555c-1.518-4.882-3.043-9.773-4.856-14.55c-1.469-3.87-3.308-7.605-5.093-11.347
		c-1.437-3.012-3.019-5.956-4.572-8.911c-1.2-2.283-2.456-4.537-3.688-6.803c-0.084-0.155-0.183-0.301-0.275-0.452
		c-0.087-0.015-0.173-0.03-0.26-0.046c-0.473,1.376-1.017,2.733-1.406,4.132c-1.429,5.146-1.178,10.315-0.216,15.512
		c1.277,6.896,2.489,13.804,3.674,20.716c0.843,4.918,1.66,9.834,3.07,14.637c0.854,2.911,0.779,5.821-0.335,8.72
		c-1.146,2.983-2.22,5.992-4.118,8.599c-0.574,0.788-1.359,1.42-2.033,2.137c-1.544,1.641-3.116,3.257-4.607,4.945
		c-1.27,1.437-2.469,2.94-3.647,4.455c-0.424,0.545-0.865,0.802-1.548,0.688c-2.196-0.367-4.413-0.632-6.588-1.095
		c-2.921-0.622-5.853-1.252-8.705-2.125c-7.451-2.28-14.812-4.478-22.192-6.977c-2.228-0.754-4.246-2.131-6.361-3.22
		c-0.222-0.114-0.45-0.215-0.782-0.373c-0.179,1.202,0.382,2.08,0.937,2.922C77.344,85.776,86.8,92.484,40.294,97.993
		c-2.856,0.338-2.5,1.744-2.913,2.178c0.528-0.053,1.058-0.083,1.582-0.162c3.855-0.583,7.696-1.281,11.565-1.736
		c4.071-0.479,8.168-0.736,12.256-1.075c2.469-0.205,4.955-0.638,7.408-0.508c3.12,0.166,6.217,0.781,9.318,1.243
		c1.101,0.164,2.184,0.446,3.275,0.676c0.805,0.17,1.095,0.592,0.829,1.361c-1.042,3.012-2.438,5.868-4.384,8.381
		c-0.626,0.809-1.781,1.362-2.803,1.681c-3.187,0.996-6.403,1.925-9.651,2.698c-7.688,1.828-15.382,3.636-23.109,5.288
		c-6.831,1.461-13.711,2.696-20.567,4.041c-2.602,0.511-5.235,0.432-7.865,0.519c-2.831,0.094-5.655,0.389-8.483,0.585
		c-0.643,0.044-1.289,0.041-1.933,0.059c-0.03,0.091-0.06,0.182-0.089,0.273c1.091,0.543,2.151,1.167,3.28,1.615
		c3.417,1.358,7.011,1.987,10.648,2.344c9.47,0.93,18.968,1.02,28.472,0.796c7.702-0.182,15.386-0.654,23.01-1.806
		c5.232-0.791,10.435-1.779,15.672-2.529c4.814-0.689,9.629-1.331,14.373-2.435c3.77-0.877,7.087-2.671,10.258-4.8
		c0.861-0.578,1.721-1.157,2.561-1.765c1.066-0.772,1.8-1.779,1.996-3.111c0.067-0.454,0.268-0.641,0.74-0.652
		c1.163-0.028,2.324-0.119,3.488-0.154c0.324-0.01,0.621-0.036,0.878-0.131c8.348-0.798,16.236-5.336,20.558-12.484
		c0.862-0.968,2.053-1.489,3.105-2.2c0.387-0.262,0.74-0.575,1.176-0.918c-0.913-0.869-1.824-1.519-2.918-1.756
		C141.152,93.32,140.436,93.02,140.023,92.201z"/>
</g>
</svg>
