<?xml version="1.0" encoding="iso-8859-1"?>
<!-- Generator: Adobe Illustrator 17.1.0, SVG Export Plug-In . SVG Version: 6.00 Build 0)  -->
<!DOCTYPE svg PUBLIC "-//W3C//DTD SVG 1.1//EN" "http://www.w3.org/Graphics/SVG/1.1/DTD/svg11.dtd">
<svg version="1.1" id="Capa_1" xmlns="http://www.w3.org/2000/svg" xmlns:xlink="http://www.w3.org/1999/xlink" x="0px" y="0px"
	 viewBox="0 0 150 150" style="enable-background:new 0 0 150 150;" xml:space="preserve">
<g>
	<path d="M143.628,61.205c-3.938-3.292-7.938-6.514-11.976-9.683c-2.057-1.615-4.251-3.056-6.316-4.528
		c0.623-1.612,1.216-3.144,1.808-4.676c-0.163-0.104-0.326-0.208-0.489-0.312c-1.646,0.869-3.266,1.791-4.943,2.595
		c-2.325,1.114-3.101,0.586-3.07-1.962c0.012-1.028,0.034-2.06-0.041-3.084c-0.03-0.407-0.216-1.006-0.502-1.134
		c-0.283-0.127-0.908,0.114-1.167,0.394c-1.5,1.621-2.937,3.302-4.424,4.996c-12.618-0.187-25.508-0.204-38.383-0.644
		c-6.371-0.217-12.719-1.179-19.072-1.865c-6.363-0.687-12.749-1.759-19.086-0.121C25.28,43.944,15.537,48.562,7.914,56.8
		c-3.426,3.702-5.478,8.033-3.981,13.309c0.148,0.523,0.359,1.028,0.588,1.673c0.539-0.351,0.9-0.585,1.385-0.901
		c2.729,4.937,7.593,7.674,11.45,11.432c3.565,3.473,3.675,4.857,0.827,9.896c-0.222,0.393-0.493,0.813-0.85,1.068
		c-3.646,2.607-3.405,6.339-2.708,10.025c0.813,4.302,1.223,8.588,0.745,12.943c-0.143,1.299,0.253,2.204,1.557,2.682
		c0.573,0.21,1.115,0.58,1.584,0.979c1.794,1.528,3.565,2.338,5.69,2.408c0.015,0.003,0.453,0.048,0.638,0.021
		c0.331,0.011,0.662,0.024,0.991,0.044c0.247,0.015,0.609-0.137,0.746-0.332c0.338-0.481,1.421,0.333,3.399-1.129
		c0.613-0.453-1.213-2.325-0.752-3.027c-0.993-1.565-2.5-2.937-4.725-3.334c-1.311-0.234-2.009-0.898-1.915-2.332
		c0.048-0.729-0.137-1.475-0.234-2.211c-0.641-4.87,1.583-8.343,5.382-11.049c0.751-0.535,1.516-1.067,2.396-1.682
		c0.175,0.048,0.351,0.09,0.53,0.127c1.302,6.174,4.086,11.834,4.111,18.15c0.005,1.247,0.525,2.136,1.729,2.689
		c2.168,0.997,4.271,2.133,6.436,3.137c0.516,0.24,1.168,0.189,1.757,0.272c-0.054-0.582-0.099-1.164-0.167-1.744
		c-0.031-0.27-0.105-0.535-0.165-0.829c1.425-0.441,2.77-0.858,4.115-1.275c0.044-0.268,0.089-0.536,0.133-0.805
		c-0.669-0.39-1.323-0.818-1.987-1.222c-0.214-0.214-0.489-0.369-0.796-0.465c-0.415-0.232-0.836-0.448-1.272-0.631
		c-2.037-0.855-2.615-1.44-2.691-3.656c-0.057-1.656,0.084-3.333-0.124-4.967c-0.727-5.696,0.963-10.806,3.512-15.763
		c0.679-1.321,1.312-1.919,3.009-1.525c3.72,0.865,7.52,1.384,11.285,2.057c1.004,0.18,2.001,0.405,3.296,0.669
		c-0.274,2.86-0.577,5.613-0.792,8.373c-0.403,5.171-0.776,10.344-1.118,15.519c-0.154,2.335,3.334,6.285,5.586,6.279
		c0.433-0.001,0.864-0.64,1.165-0.881c1.824-0.148,3.596-0.157,5.312-0.474c1.459-0.27,1.626-1.1,0.534-2.148
		c-1.268-1.216-2.685-2.281-3.901-3.543c-0.451-0.469-0.736-1.32-0.704-1.979c0.045-0.948,0.311-1.944,0.722-2.805
		c1.929-4.039,3.941-8.039,6.072-12.355c1.88,3.667,3.513,7.034,5.32,10.306c1.12,2.029,2.434,3.962,3.79,5.845
		c1.204,1.671,2.459,3.211,2.382,5.484c-0.049,1.448,0.531,1.553,1.851,1.053c0.797-0.302,1.829-0.287,2.677-0.086
		c1.432,0.339,2.806,0.93,4.199,1.431c0.947,0.341,1.653,0.305,1.939-0.886c0.319-1.326,1.449-1.204,2.479-1.3
		c0.446-0.041,0.869-0.327,1.303-0.502c-0.285-0.428-0.571-0.857-0.856-1.285c-0.06,0.017-0.12,0.036-0.179,0.056
		c-0.031-0.128-0.092-0.238-0.173-0.33l0.037,0.006c-0.021-0.013-0.043-0.025-0.065-0.037c-0.117-0.121-0.27-0.207-0.443-0.254
		c-1.776-1.019-3.574-2.005-5.285-3.125c-0.551-0.361-1.013-1.14-1.151-1.803c-0.624-3.014-1.16-6.049-1.647-9.089
		c-0.506-3.157-0.888-6.334-1.39-9.492c-0.15-0.945,0.09-1.436,0.983-1.854c3.697-1.727,6.723-4.14,8.783-7.828
		c2.33-4.171,6.31-6.68,10.262-9.129c0.388-0.24,0.853-0.395,1.171-0.704c1.75-1.692,3.687-2.049,6.031-1.314
		c4.385,1.375,8.886,0.907,13.401,0.788c3.131-0.082,6.226,0.187,9.317-1.252c0.391,0.785,0.82,1.456,1.063,2.189
		c0.261,0.786,0.373,1.642,1.496,1.442c1.214-0.216,2.794,0.337,3.344-1.391c0.239-0.751,0.432-1.563,0.414-2.342
		c-0.049-2.047-0.227-4.092-0.351-6.138C146.295,63.895,145.077,62.416,143.628,61.205z M87.7,119.752
		c0.047-0.149,0.094-0.299,0.141-0.448c0.074,0.08,0.158,0.151,0.251,0.214C87.964,119.596,87.835,119.675,87.7,119.752z
		 M96.552,115.744c-0.052,0.006-0.105,0.013-0.157,0.019c-0.108-0.163-0.245-0.308-0.406-0.431
		C96.179,115.419,96.367,115.552,96.552,115.744z"/>
</g>
</svg>
