<?xml version="1.0" encoding="iso-8859-1"?>
<!-- Generator: Adobe Illustrator 17.1.0, SVG Export Plug-In . SVG Version: 6.00 Build 0)  -->
<!DOCTYPE svg PUBLIC "-//W3C//DTD SVG 1.1//EN" "http://www.w3.org/Graphics/SVG/1.1/DTD/svg11.dtd">
<svg version="1.1" id="Capa_1" xmlns="http://www.w3.org/2000/svg" xmlns:xlink="http://www.w3.org/1999/xlink" x="0px" y="0px"
	 viewBox="0 0 150 150" style="enable-background:new 0 0 150 150;" xml:space="preserve">
<g>
	<path d="M146.145,98.988c0,0,0.043-1.313-1.681-1.97s-1.724-2.463-5.007-0.328c0,0-0.985-2.052-3.201-1.642
		c-2.216,0.41-6.321-2.134-7.962-3.53c0,0-0.41-0.903-8.045-2.052s-3.119-11.164,3.53-2.216c0,0-1.395,1.313,2.381,1.642
		c3.776,0.328,5.418-1.806,4.597-3.448c0,0,0-2.545,0-2.873s-1.642-1.042,1.067-1.465c2.709-0.423,1.888-1.654,3.037-3.46
		c0,0-1.149-3.94-2.791-5.418c0,0,0.575-3.119-0.493-3.858c-1.067-0.739-3.653-3.407-3.653-3.407s0.493-2.093,0.616-4.556
		c0.123-2.463-1.97,0.123-4.433,1.478c0,0-0.246-0.985-2.216-0.492c-1.97,0.492-6.033-0.691-6.895-2.008l-0.616,1.269
		c0,0-2.463-1.354-3.201-2.955c0,0-0.739,0.616,0,2.093c0,0-7.142,0.123-10.097,2.216c-2.955,2.093-7.018-0.677-7.018-0.677
		s0.616,1.785,1.478,2.155c0.862,0.369-4.063-0.246-6.895,1.478c-2.832,1.724-6.28,0-11.328-1.354
		c-5.048-1.354-19.947-1.354-24.996,1.354c0,0-3.694-6.157-25.242-4.802S8.487,47.479,15.013,48.464
		c6.526,0.985-0.123-7.118-7.511-0.05c-7.388,7.068,3.201,19.504,19.701,16.672c16.5-2.832,18.346,4.063,18.346,4.063
		s-1.478,1.724-1.97,4.556s-5.048,5.664-5.048,5.664s1.478,0.985,2.463,0s-5.664,7.142-5.787,10.097
		c-0.123,2.955-7.018,6.649-7.018,6.649s-1.97,3.571-1.847,5.295c0,0-5.91,5.295-6.526,5.541c-0.616,0.246-2.463,2.709-1.478,3.94
		c0,0-2.586,6.526,3.325,3.448c0,0,0.492,2.709,2.216,2.586c0,0,0.616,2.471,2.709,0.004c2.093-2.467,2.709-3.206,3.078-5.422
		c0.369-2.216,2.339-13.544,19.085-19.701l-0.862,1.601c0,0,6.033-1.354,10.22-4.556s11.328-4.966,21.589,4.31
		c0,0-0.657-0.985-0.246-2.134s2.627,2.381,4.186,3.448c1.56,1.067-0.164-0.575,0.41-1.806c0.575-1.231,1.888,1.478,2.298,2.052
		c0.41,0.575,10.179-1.231,14.037-1.067c0,0,1.231,3.037-0.082,4.186c-1.313,1.149,5.5,0.657,6.157,1.067
		c0,0,4.679,5.746,9.933,7.634c5.254,1.888,6.813,6.649,7.224,7.06c0.41,0.41,3.776-0.493,6.485,1.724
		c2.709,2.216,4.515,1.56,5.5,0.985s1.396,1.642,3.366,0.41c0,0,1.97,0.821,2.955-1.231c0,0,2.955-0.903,1.313-2.134
		c0,0,1.396-3.694-2.134-2.955c0,0,0.164-2.134-3.283-1.642c-3.448,0.492-7.88-1.231-9.933-3.612
		c-2.052-2.381-4.843-4.679-4.843-4.679s4.925,0,9.768,3.201s9.604,2.709,8.865,0.985c0,0,5.336,0.328,4.351-3.776
		C146.024,100.876,146.924,99.645,146.145,98.988z"/>
</g>
</svg>
