<?xml version="1.0" encoding="iso-8859-1"?>
<!-- Generator: Adobe Illustrator 17.1.0, SVG Export Plug-In . SVG Version: 6.00 Build 0)  -->
<!DOCTYPE svg PUBLIC "-//W3C//DTD SVG 1.1//EN" "http://www.w3.org/Graphics/SVG/1.1/DTD/svg11.dtd">
<svg version="1.1" id="Capa_1" xmlns="http://www.w3.org/2000/svg" xmlns:xlink="http://www.w3.org/1999/xlink" x="0px" y="0px"
	 viewBox="0 0 150 150" style="enable-background:new 0 0 150 150;" xml:space="preserve">
<g>
	<path d="M142.816,55.262c-2.111-1.327-4.28-2.544-6.522-3.627c-0.167-0.116-0.352-0.207-0.55-0.266
		c-0.798-0.375-1.604-0.734-2.422-1.073c-0.161-0.067-0.321-0.163-0.475-0.279c-0.12-0.125-0.25-0.242-0.389-0.348
		c-0.268-0.281-0.493-0.611-0.633-0.929c-1.141-2.589-4.342-4.747-7.122-4.89c-2.473-0.127-4.678,0.388-6.924,1.475
		c-1.084,0.525-2.663,0.096-4.008-0.02c-0.663-0.057-1.291-0.435-1.954-0.581c-1.641-0.362-2.5-1.509-3.287-2.732
		c-0.346-0.673-0.751-1.313-1.208-1.914c-0.163-0.319-0.278-0.636-0.352-0.95c0.073-0.392,0.112-0.792,0.112-1.195
		c0-0.27-0.019-0.538-0.052-0.805c0.17-0.602,0.466-1.204,0.862-1.815c0.542-0.836,0.894-1.854,1.093-2.838
		c0.191-0.943-0.151-1.717-0.846-2.387c-0.114-0.17-0.245-0.333-0.395-0.482c-0.282-0.282-0.607-0.498-0.955-0.655
		c-1.554-1.34-3.016-2.803-4.698-3.95c-2.646-1.805-5.479-3.348-8.296-4.886c-1.499-0.818-3.11-1.45-4.713-2.054
		c-1.44-0.543-2.921-0.997-4.415-1.365c-0.901-0.222-1.641,0.139-1.804,1.186c-0.298,1.923-0.699,3.834,0.367,5.7
		c0.254,0.444,0.03,1.137,0.182,1.672c0.111,0.391,0.349,0.746,0.593,1.145c-0.045,0.639,0.016,1.288,0.201,1.926
		c0.227,1.512,0.451,3.024,0.694,4.534c0.061,0.378,0.165,0.769,0.34,1.106c0.749,1.441,0.385,2.538-0.363,4.022
		c-1.089,2.16-1.424,4.71-2.007,7.112c-0.175,0.723-0.293,1.459-0.404,2.198c-0.23,0.63-0.365,1.294-0.396,1.97
		c-0.337,0.963-0.68,1.924-0.976,2.9c-0.07,0.231,0.097,0.539,0.174,0.806c0.072,0.247,0.25,0.489,0.239,0.728
		c-0.021,0.479-0.139,0.953-0.217,1.43c0.147,0.016,0.295,0.032,0.442,0.048c0.03,0.387,0.094,0.769,0.191,1.142
		c-1.142,0.674-2.29,1.341-3.338,2.138c-0.443,0.337-0.907,0.599-1.384,0.811c-0.803,0.235-1.603,0.478-2.403,0.722
		c-0.9,0.183-1.815,0.316-2.71,0.52c-1.459,0.332-3.03,0.333-4.394,0.877c-0.23,0.092-0.454,0.202-0.674,0.324
		c-2.705,0.749-4.982,2.394-7.183,4.109c-6.461,5.034-15.367,7.221-22.991,10.1c-9.703,3.664-19.407,7.327-29.11,10.991
		c-2.286,0.863-1.409,4.465,0.812,3.898c0.485,0.624,1.335,1.015,2.097,0.72c10.089-3.906,20.178-7.812,30.268-11.719
		c2.321-0.723,4.61-1.546,6.858-2.465c0.551,0.633,1.444,0.927,2.372,0.343c2.413-1.521,4.867-3.11,7.469-4.343
		c0.095-0.037,0.186-0.08,0.275-0.127c1.111-0.513,2.248-0.962,3.422-1.308c1.932-0.571,3.916-0.961,5.94-0.872
		c2.082,0.091,3.938,0.833,5.962,1.219c0.179,0.034,0.355,0.063,0.531,0.09l0.598,0.107c0.055,0.012,0.111,0.023,0.168,0.03
		c0.609,0.11,1.218,0.219,1.827,0.329c0.834,0.15,1.671-0.106,2.141-0.759c0.01-0.007,0.02-0.012,0.03-0.019
		c0.031-0.022,0.063-0.042,0.094-0.063c0.211-0.074,0.423-0.156,0.636-0.247c1.002-0.433,1.953-0.991,2.947-1.434
		c3.545-0.985,7.393-0.243,10.327,2.357c2.065,2.859,4.121,5.724,6.241,8.541c0.661,0.878,1.62,1.531,2.429,2.301
		c0.413,0.393,0.788,0.827,1.197,1.226c0.714,0.696,1.44,1.379,2.289,2.189c0.874,5.388,1.049,11.184,2.946,16.646
		c0.094,0.33,0.194,0.658,0.301,0.983c0.195,1.196,0.594,2.359,1.176,3.422c0.154,1.117,0.487,2.135,1.846,2.633
		c0.25,1.826,0.377,3.61,0.793,5.324c0.103,0.425,0.548,0.76,0.978,1.108c0.269,0.348,0.57,0.669,0.901,0.958
		c0.077,0.131,0.135,0.267,0.149,0.401c0.139,1.297,0.19,2.604,0.295,3.906c0.02,0.248,0.068,0.562,0.228,0.715
		c0.372,0.357,0.789,0.769,1.254,0.88c0.194,0.046,0.557-0.617,0.876-0.997c0.181,1.293,0.296,2.673,0.604,4.01
		c0.11,0.48,0.618,1.062,1.067,1.201c0.292,0.09,0.805-0.539,1.297-0.904c0.421,1.464-0.115,3.613,2.062,4.388
		c1.393-1.908,1.235-4.204,1.58-6.37c0.395-2.474,0.768-4.953,1.099-7.436c0.291-2.188,0.631-4.381,0.733-6.582
		c0.183-3.947,0.16-7.903,0.307-11.852c0.092-2.484,0.477-4.962,0.479-7.443c0.003-3.607-0.198-7.216-0.362-10.821
		c-0.057-1.246,0.019-2.614-0.472-3.697c-0.653-1.441-1.693-2.753-2.758-3.951c-0.304-0.342-0.615-0.678-0.931-1.01
		c-1.93-2.369-4.015-4.613-6.085-6.863c-0.167-0.27-0.296-0.523-0.311-0.549c0.035-0.023,0.068-0.046,0.103-0.069
		c3.398-1.797,6.608-3.875,9.672-6.174c0.095-0.043,0.19-0.085,0.284-0.129c1.692-0.784,3.43-1.479,5.079-2.345
		c2.208-1.159,4.556-0.872,6.852-0.727c2.179,0.138,4.336,0.616,6.898,1.004C143.266,55.986,143.14,55.466,142.816,55.262z"/>
</g>
</svg>
