<?xml version="1.0" encoding="utf-8"?>
<!-- Generator: Adobe Illustrator 17.1.0, SVG Export Plug-In . SVG Version: 6.00 Build 0)  -->
<!DOCTYPE svg PUBLIC "-//W3C//DTD SVG 1.1//EN" "http://www.w3.org/Graphics/SVG/1.1/DTD/svg11.dtd">
<svg version="1.1" id="Capa_1" xmlns="http://www.w3.org/2000/svg" xmlns:xlink="http://www.w3.org/1999/xlink" x="0px" y="0px"
	 viewBox="0 0 200 200" enable-background="new 0 0 200 200" xml:space="preserve">
<g>
<path d="M188.2,28.9c-0.4-0.7-1.5-1.3-1.8-2c-1.6-3.2-4.3-5.2-5.4-9c-0.2-0.8-0.9-1.8-1.6-2.2c-4.9-3.2-6.8-9.5-14.2-10.3
	c-0.8-0.1-1.1-1.1-1.9-1.4c-0.1,0-0.1,0-0.2,0c-0.8-0.2-1.9,0.3-2.1,1s-1.4,0.8-2.2,0.9c-4.6,0.6-6.9,3.4-9.5,6
	c-0.6,0.6-1.4,1.7-1.7,2.4c-1.3,3.1-2.2,6.6-1.8,11.4c0.3,3.9,2.6,9.2,4.2,13.4c3.2,7.9,7.2,15.4,8,25.9c0.2,2,0.2,4.5-0.6,6.5
	c-0.3,0.8-1.4,1.1-2,0.6c-1.1-1-1.6-2.5-2.5-3.7c-2.4-3-6-5.8-9.6-8.5c-4.6-3.6-8.6-6.6-14.1-8.9c-2.2-0.9-3.8-0.7-6.7-1.1
	c-3.8-0.5-8-2.1-12.5-2.9c-3.5-0.6-8.1-1-11.6-1.1c-3-0.1-7.9,1.3-10.3,0.2c-1.3-0.6-1.2-2.4-2-4.5c-0.8-2.2-2.8-6.3-3.8-8
	c-1-1.9-2.7-4.2-4.2-6.5c-2.8-4-6.1-7.9-9.6-11.4c-1.8-1.8-3.4-4.1-5.1-5.4c-0.7-0.5-3.3-2-4.5-2c-3.2,0-4.3,2.5-5.8,4.8
	c-0.5,0.7-1.5,1-2.4,1c-2.8-0.3-5.7,0.8-7.5,2.5c-1.1,1.1-1.6,3.1-2.9,4.2c-0.7,0.6-1.7,0.6-2.5,1.1c-3.1,2.2-3.7,5.8-5.3,8.8
	c-0.4,0.7-1.4,1.3-2.3,1.5c-2,0.4-3.4,1.4-4.5,2.6c-0.5,0.6-1.1,1.9-1.3,2.6c-1.2,3.3-3.6,5.6-3.3,10c0.1,0.8-0.4,1.9-1,2.4
	c-3.4,2.6-5.9,5.7-6.2,10.7c-0.1,1.5,0.8,3,0.7,4.5c0,0.4-0.1,0.9-0.3,1.3c-0.2,0.7-1.1,1.6-1.7,2.1c-2.8,2.6-4.6,6-4.7,10.4
	C8,83,10,86.5,12.8,89.4c0.6,0.6,0.6,1.5,0.1,2.1c-3.1,4.1-2.7,10.7,1.2,14.2c0.6,0.5,1.2,1.4,1.3,2s0.2,1.2,0.2,1.3
	c0,0.1,0,0.2,0,0.2c0,0.1,0,0.2,0.1,0.2c0,0.1,0.3,0.9,0.6,1.6c0.1,0.3,0.3,0.6,0.5,0.8c0.4,0.7,0.5,1.7,0.1,2.5
	c-2.1,4-1.6,9.4,1.7,12.6c0.6,0.6,1.2,1,1.2,1.1c0,0.1-0.2,0.8-0.3,1.6c0,0,0,0.1,0,0.1c-0.1,0.8-0.2,1.8-0.2,2.2c0,0.2,0,0.5,0,0.7
	c0.1,0.4,0.1,0.8,0.2,1.2c0.2,0.6,0.6,1.7,1,2.5c0.7,1.4,1.8,2.6,3.2,3.5c0.7,0.4,1.3,1.4,1.5,2.2c0,0.2,0.1,0.3,0.1,0.5
	c0.2,0.8,0.5,1.7,0.6,2.1c0.1,0.2,0.2,0.4,0.3,0.6c0,0,0,0.1,0.1,0.1c0,0,0.4,0.7,0.9,1.3c1,1.2,2.2,2.2,3.8,2.8
	c0.8,0.3,1.6,1.1,2,1.8c1.5,2.9,4.3,5,8.5,5c0.1,0,0.2,0,0.3,0c0.2,0,0.7,0.6,1.2,1.2c1.6,1.9,4,3.2,7.3,3.2c1.3,0,2.4-0.2,3.4-0.6
	c0.8-0.3,1.9-0.6,2.4-0.6c0.4,0,0.7,0,1.1,0c0.8,0.1,1.7,1,1.1,1.6c0,0-0.1,0.1-0.1,0.1c-0.6,0.6-0.4,1.8,0.2,2.2
	c0.7,0.4,0.5,1.5-0.1,2.2c-1.4,1.6-2.9,3-3.6,5.2c-0.3,0.8,0,2.2,0.7,2.5c0.9,0.3,2.1,0,3.3,0c0.8,0,1.5,0.9,1,1.6
	c-1.3,2-5,2.3-4.4,5.1c0.2,1.1,1.6,1.7,2.9,1.8c1.3,0.1,2.5-0.9,3.6-0.9c1,0,1.4,0.9,2.5,1.3c0.5,0.2,1.2,0,1.6,0.2
	c1,0.5,1.7,1.8,2.9,2c3.2,0.6,5.5-2.6,8-3.8c0.7-0.4,1.6,0.3,1.1,1c-0.3,0.5-0.8,0.8-1.2,1.2c-0.6,0.6,0.1,2,0.9,2.2
	c1.1,0.2,2.4-0.3,3.3-0.6c2.2-0.8,4.1-2.5,6-3.3c2.1-0.9,4.7-0.3,6.9-1c0.8-0.2,2.1-0.3,2.2,0.6c0,0.5-0.1,1-0.2,1.5
	c-0.3,0.8-0.5,2.1,0.1,2.6c0.6,0.4,1.3,0.7,1.5,1.6c0.3,1-0.2,2.1-0.2,3.2c0,0.8,0.8,1.9,1.5,2.3c2.3,1.2,5.9,2.1,9.5,2.3
	c2,0.1,4.2-0.3,5.2,0.7c0.6,0.6,1.3,1.3,2.1,1.3h3c0.8,0,1.5-0.6,1.5-1.3c0-0.7,0.4-2,1.1-2.2c0.7-0.2,1.6-0.3,2-0.9
	c0.3-0.4,0.2-0.8,0.1-1.2c-0.1-0.7,0.8-1.5,1.6-1.6c1.5-0.2,3,0.1,4.6,0c2.1-0.1,4.1-1,6-0.7c2.5,0.4,4.2,3.3,6.8,3.9
	c0.8,0.2,2-0.4,2.1-1.2c0.1-0.8,0.2-1.7,0.7-2c0.6-0.5,1.7-0.2,2.6-0.1c0.8,0.1,1.3-1,0.9-1.7c-0.8-1.2-2.3-2.2-3.5-2.6
	c-4.9-1.7-13.5-0.3-17.4-3.6c-3.9-3.3-4.7-11.5-4.2-18.3c0.1-1.4,0.5-2.9,1.2-4.1c0.5-0.7,1.7-1.1,2.5-1c9.6,0.2,16-1.2,24.4-2.3
	c3.1-0.4,6.3-2,8.9-3.6c2.6-1.6,4.6-4.1,6.9-5.4c2.1-1.1,5-1.9,6.5-3.1c5.2-4.3,7-11.9,9.6-19c1.6-4.3,3.1-6.2,3.3-12.1
	c0.3-7.1,0.4-15.7-0.4-22.3c-0.3-2.2-1.3-4-1.6-6c-0.3-2,0.2-3.8,0-5.4c-0.3-2.6-1.3-5.5-2.2-7.8c-0.3-0.8-1.2-1.4-1.6-2.2
	c-0.4-0.8-0.3-1.9-0.7-2.7c-0.5-1.1-1.7-2-1.8-3.3c-0.1-1.5,1.4-2.2,2-4.5c0.4-1.4,0-3.2,0.2-4.5c0.2-1,1-1.9,1.1-2.7
	c0.6-4.1-2.3-8-2.9-12.1c-0.5-3.5-0.7-9.6,2.7-10.3c2.1-0.4,3.7,1,5.3,1.8c0.7,0.4,1.7-0.3,1.4-1C188.2,29,188.2,28.9,188.2,28.9z
	 M119.5,187.4c-1.5,0.7-2.4,0-4.5,0c-1.7,0-3.4,0.7-4.7,0.7c-2.3-0.1-6.3-1.5-7.4-2.5c-1.3-1.1-3.4-6.1-2.7-8.9
	c0.3-1.2,2.3-2,3.3-3.1c3.1-3.3,5.3-6.6,7.6-9.9c0.5-0.7,1-1.2,1.2-1.2c0.2,0,0.7,0.6,1.1,1.3c3,4.8,6.8,9.6,7.2,16.4
	c0.1,0.8,0.6,1.9,0.9,2.7C122.3,184.4,121.1,186.7,119.5,187.4z"/>
</g>
</svg>
