<?xml version="1.0" encoding="iso-8859-1"?>
<!-- Generator: Adobe Illustrator 17.1.0, SVG Export Plug-In . SVG Version: 6.00 Build 0)  -->
<!DOCTYPE svg PUBLIC "-//W3C//DTD SVG 1.1//EN" "http://www.w3.org/Graphics/SVG/1.1/DTD/svg11.dtd">
<svg version="1.1" id="Capa_1" xmlns="http://www.w3.org/2000/svg" xmlns:xlink="http://www.w3.org/1999/xlink" x="0px" y="0px"
	 viewBox="0 0 150 150" style="enable-background:new 0 0 150 150;" xml:space="preserve">
<g>
	<path d="M6.983,97.015c3.179-0.161,6.19-1.112,9.197-2.054c2.622-0.822,4.985-2.172,7.248-3.707
		c2.013-1.365,3.864-2.877,5.105-5.043c0.891-1.555,1.891-3.048,2.872-4.55c0.14-0.214,0.513-0.503,0.655-0.447
		c0.496,0.197,1.053,0.437,1.373,0.834c0.439,0.546,0.948,0.857,1.591,1.003c1.656,0.377,3.322,0.712,4.966,1.131
		c0.402,0.103,0.931,0.388,1.069,0.725c0.46,1.125,1.342,1.315,2.376,1.353c2.268,0.083,4.537,0.176,6.804,0.287
		c0.266,0.013,0.591,0.092,0.776,0.263c0.821,0.757,1.816,1.141,2.878,1.118c2.716-0.059,5.43-0.236,8.145-0.341
		c0.26-0.01,0.587,0.085,0.778,0.251c0.55,0.481,1.09,0.712,1.876,0.62c2.5-0.293,4.854-1.115,7.23-1.86
		c0.553-0.174,0.969-0.205,1.228,0.417c0.181,0.433,0.491,0.495,0.934,0.331c2.881-1.067,5.774-2.104,8.654-3.174
		c0.416-0.154,0.684-0.099,0.9,0.276c0.346,0.6,0.698,1.195,1.042,1.796c0.237,0.414,0.475,0.828,0.692,1.253
		c0.474,0.931,1.321,1.33,2.507,1.609c-0.639,0.884-1.182,1.599-1.685,2.341c-0.628,0.925-1.366,1.811-1.806,2.823
		c-0.981,2.257-1.742,4.609-2.709,6.873c-1.896,4.442-3.887,8.844-5.809,13.275c-1.512,3.487-2.932,7.014-3.89,10.7
		c-0.439,1.686-0.779,3.4-1.091,5.115c-0.134,0.735,0.111,0.959,0.867,0.968c1.126,0.012,2.212-0.258,3.108-0.931
		c2.692-2.023,5.411-4.02,7.988-6.185c2.246-1.886,4.479-3.838,6.421-6.024c3.25-3.658,6.28-7.514,9.376-11.308
		c3.218-3.944,5.646-8.287,6.612-13.354c0.253-1.329,0.477-2.646-0.128-3.939c-0.395-0.843-0.807-1.678-1.214-2.516
		c-0.838-1.725-1.621-3.475-1.738-5.423c-0.077-1.274,0.402-2.36,1.591-2.893c0.84-0.376,1.559-0.881,2.223-1.455
		c2.254,1.664,4.738,2.961,7.408,3.865c4.047,2.111,7.894,4.555,11.514,7.371c2.729,2.124,5.382,4.346,8.1,6.485
		c0.33,0.26,0.957,0.502,1.245,0.356c0.302-0.153,0.492-0.784,0.494-1.207c0.003-0.603-0.13-1.237-0.346-1.804
		c-0.812-2.14-1.614-4.288-2.547-6.376c-1.194-2.672-2.933-4.974-5.173-6.871c-2.224-1.883-4.472-3.737-6.72-5.591
		c-0.01-0.008-0.025-0.012-0.036-0.019c-0.17-0.204-0.356-0.399-0.569-0.575c1.009-0.006,2.019-0.009,3.028-0.021
		c1.218-0.014,2.456-0.158,3.651,0.003c2.856,0.385,5.686,0.204,8.505-0.203c1.979-0.286,3.983-0.587,5.878-1.189
		c1.116-0.354,1.956-0.519,2.799,0.361c0.026,0.027,0.089,0.02,0.202,0.041c0.858-1.625,1.523-3.188,0.99-5.204
		c-0.843-3.19-2.491-5.578-5.493-7.019c-2.261-1.085-4.638-1.611-7.129-1.701c-2.77-0.099-5.551-0.12-8.227-0.998
		c-4.043-1.327-7.652-3.468-11.102-5.908c-2.97-2.1-5.933-4.216-9.419-5.407c-5.016-1.713-10.142-3.033-15.444-3.326
		c-4.911-0.271-9.839-0.33-14.759-0.32c-3.804,0.007-7.606,0.356-11.291,1.376c-2.02,0.559-3.98,1.336-5.956,2.046
		c-2.945,1.057-5.892,2.108-8.815,3.221c-4.065,1.547-7.986,3.414-11.844,5.421c-3.278,1.705-6.584,3.356-9.897,4.993
		c-1.689,0.835-3.395,1.644-5.138,2.356c-1.151,0.47-1.395,0.798-0.977,1.98c0.04,0.113,0.091,0.222,0.135,0.333
		c0.536,1.37,0.395,1.825-0.81,2.652c-0.196,0.135-0.382,0.285-0.572,0.43c-0.414,0.315-0.471,0.715-0.211,1.138
		c0.173,0.281,0.389,0.543,0.623,0.777c1.166,1.165,2.352,2.31,3.516,3.477c0.764,0.766,1.504,1.556,2.253,2.334
		c-0.346,0.179-0.687,0.308-0.975,0.512c-1.653,1.17-3.381,2.254-4.919,3.561c-3.89,3.307-7.409,6.984-10.456,11.093
		c-1.191,1.606-2.224,3.279-2.418,5.353C4.942,96.575,5.356,97.097,6.983,97.015z"/>
</g>
</svg>
