<?xml version="1.0" encoding="iso-8859-1"?>
<!-- Generator: Adobe Illustrator 17.1.0, SVG Export Plug-In . SVG Version: 6.00 Build 0)  -->
<!DOCTYPE svg PUBLIC "-//W3C//DTD SVG 1.1//EN" "http://www.w3.org/Graphics/SVG/1.1/DTD/svg11.dtd">
<svg version="1.1" id="Capa_1" xmlns="http://www.w3.org/2000/svg" xmlns:xlink="http://www.w3.org/1999/xlink" x="0px" y="0px"
	 viewBox="0 0 150 150" style="enable-background:new 0 0 150 150;" xml:space="preserve">
<g>
	<path d="M143.987,73.801c0.048-1.49-1.068-2.604-2.577-2.65c-0.574-0.017-1.151-0.035-1.724,0.003
		c-0.447,0.03-0.887,0.023-1.322-0.01c-0.101-0.023-0.205-0.033-0.312-0.027c-1.613-0.169-3.158-0.687-4.736-1.11
		c-1.254-0.336-2.638-0.195-3.964-0.259c-0.171-0.008-0.348,0.066-0.516,0.046c-1.269-0.149-2.343,0.285-3.256,1.123
		c-0.61,0.56-1.317,0.758-2.112,0.758c-1.77,0-3.54,0-5.285,0c-0.42-1.334-0.825-2.667-1.239-3.995
		c-0.523-2.282-1.303-4.487-2.32-6.571c-1.195-2.747-2.718-5.313-4.769-7.6c-2.267-2.527-5.004-4.384-7.893-6.084
		c-2.185-1.286-4.359-2.6-6.456-4.022c-1.636-1.11-3.159-2.389-4.708-3.624c-1.534-1.224-3.356-1.839-5.153-2.503
		c-1.812-0.669-3.647-1.278-5.472-1.915c-1.575-0.55-3.126-1.186-4.731-1.624c-1.003-0.274-2.1-0.403-3.133-0.322
		c-1.109,0.087-2.21,0.443-3.286,0.774c-2.955,0.908-5.904,1.839-8.839,2.809c-2.94,0.971-5.877,0.77-8.885,0.325
		c-2.819-0.417-5.663-0.503-8.542-0.131c-2.828,0.365-4.983,1.696-6.926,3.636c-1.04,1.038-2.143,1.988-3.302,2.861
		c-2.225,1.143-4.377,2.394-6.375,3.849c-0.848,0.396-1.731,0.723-2.595,1.087c-1.92,0.808-3.019,2.42-4.041,4.112
		c-1.572,2.601-2.781,5.377-3.645,8.272c-0.68,2.28-1.055,4.651-1.58,6.978c-0.355,1.577-0.706,3.165-2.45,3.869
		c-0.638,0.258-1.27,0.532-1.909,0.789c-0.137,0.055-0.269,0.117-0.397,0.182c-0.402,0.14-0.804,0.279-1.206,0.419
		c-0.11-0.006-0.221-0.012-0.331-0.017C7.73,73.213,7.47,73.26,7.228,73.351c-0.052,0.01-0.104,0.023-0.156,0.037
		c-1.146,0.315-1.943,1.598-1.571,2.767c1.051,3.302,2.726,6.359,4.902,9.007c0.009,0.015,0.017,0.03,0.026,0.045
		c0.731,1.235,1.823,2.293,2.886,3.288c1.52,1.424,1.465,1.337,0.883,3.319c-0.524,1.783-1.211,3.537-1.269,5.451
		c-0.048,1.557,0.468,2.958,0.906,4.396c0.023,0.075,0.046,0.151,0.069,0.226c0,0.005,0.001,0.011,0.002,0.016
		c0.033,0.24,0.111,0.479,0.218,0.712c0.244,0.812,0.479,1.627,0.668,2.452c0.137,0.6,0.055,1.133-0.185,1.601
		c-0.153,0.164-0.281,0.35-0.38,0.552c-0.156,0.177-0.335,0.343-0.536,0.496c-1.115,0.85-1.876,1.839-1.815,3.35
		c0.032,0.79,0.465,1.279,0.944,1.771c0.609,0.625,1.289,1.183,1.871,1.83c0.911,1.014,2.07,1.456,3.368,1.439
		c1.645-0.021,3.051,0.551,4.293,1.535c0.915,0.725,1.814,0.723,2.721,0.14c0.931-0.599,1.818-0.605,2.848-0.246
		c0.777,0.271,1.647,0.274,2.475,0.397c0.549,0.082,0.953-0.085,1.196-0.396c0.059-0.061,0.111-0.128,0.156-0.204
		c0.162-0.276,0.188-0.599,0.101-0.889c-0.02-0.184-0.063-0.374-0.134-0.567c-0.147-0.4-0.349-0.782-0.501-1.178
		c-0.03-0.224-0.094-0.442-0.189-0.649c-0.117-0.582-0.092-1.141,0.035-1.677c0.554-0.821,1-1.712,1.334-2.643
		c0.957-1.84,0.893-3.814,0.67-5.836c-0.024-0.214-0.05-0.427-0.073-0.605c0.621,0.111,1.242,0.221,1.863,0.332
		c1.355,0.434,2.727,0.872,4.113,1.259c0.849,0.237,1.708,0.438,2.573,0.616c1.55,0.407,3.135,0.662,4.736,0.737
		c0.451,0.051,0.902,0.101,1.352,0.154c1.695,0.2,3.388,0.444,5.09,0.561c1.864,0.129,3.736,0.153,5.605,0.19
		c1.407,0.028,1.367,0.024,1.959,1.267c0.121,0.253,0.257,0.5,0.398,0.743c0.291,0.616,0.571,1.237,0.842,1.863
		c0.265,0.653,0.52,1.309,0.763,1.97c0.071,0.911-0.146,1.812-0.794,2.678c-0.698,0.933-1.395,1.868-2.076,2.813
		c-1.178,1.632-1.501,3.438-0.998,5.376c0.082,0.318,0.317,0.625,0.553,0.868c1.3,1.337,2.617,2.658,3.942,3.971
		c0.188,0.187,0.431,0.348,0.678,0.439c1.126,0.415,2.299,0.705,3.04,1.812c0.157,0.235,0.661,0.306,1.012,0.328
		c0.042,0.003,0.083,0.007,0.124,0.01c0.322,0.191,0.713,0.241,1.079,0.162c0.489,0.11,0.969,0.265,1.466,0.465
		c0.739,0.298,1.865,0.54,2.715-0.25c0.281-0.261,0.689-0.379,1.004-0.611c0.299-0.22,0.6-0.339,0.913-0.319
		c0.209,0.097,0.426,0.173,0.646,0.229c1.948,1.001,3.949-0.33,4.999-1.424c0.457-0.476,0.509-1.413,0.105-2.08
		c-0.324-0.535-0.671-1.056-1.021-1.576c-0.341-0.612-0.682-1.224-1.023-1.835c-0.15-0.665,0.075-1.267,0.691-1.942
		c1.762-1.926,3.309-3.996,4.546-6.309c0.605-1.131,0.733-2.344,0.865-3.549c0.036-0.327,0.065-0.655,0.092-0.983
		c0.075-0.377,0.1-0.756,0.08-1.129c0.063-1.056,0.101-2.114,0.154-3.17c0.02-0.406,0.167-0.539,0.582-0.58
		c2.215-0.221,4.439-0.4,6.635-0.751c2.6-0.416,5.181-0.961,7.757-1.515c0.882-0.19,1.733-0.545,2.577-0.878
		c0.64-0.253,1.11-0.207,1.38,0.146c0.046,0.359,0.137,0.706,0.268,1.043c0.108,1.708,0.138,3.424,0.314,5.124
		c0.151,1.465,0.456,2.916,0.737,4.364c0.062,0.32,0.247,0.673,0.483,0.894c0.405,0.38,0.738,0.798,1.022,1.242
		c0.106,0.188,0.215,0.375,0.327,0.56c0.401,0.749,0.7,1.552,0.993,2.361c0.088,0.463,0.239,0.902,0.47,1.294
		c0.037,0.096,0.074,0.192,0.114,0.287c0.568,1.376,1.799,1.514,3.411,1.41c0.654-0.042,1.326-0.035,1.971,0.067
		c0.75,0.118,1.47,0.421,2.219,0.543c0.977,0.16,1.895-0.108,2.799-0.508c0.143-0.063,0.301-0.115,0.465-0.152
		c0.131,0.041,0.268,0.069,0.409,0.081c0.383,0.034,0.763,0.028,1.138-0.01c0.559,0.024,1.077-0.104,1.562-0.368
		c0.498-0.188,0.973-0.438,1.415-0.742c0.328-0.09,0.673-0.124,1.048-0.099c0.871,0.058,1.748,0.014,2.623,0.013
		c0.139,0,0.272-0.016,0.401-0.044c0.239-0.025,0.46-0.126,0.649-0.277c0.709-0.478,1.052-1.411,0.618-2.26
		c-0.066-0.13-0.14-0.259-0.217-0.387c-0.103-0.332-0.307-0.635-0.59-0.819c-0.216-0.25-0.452-0.478-0.705-0.666
		c-1.628-1.208-2.873-2.641-3.308-4.659c-0.161-0.747-0.265-1.516-0.304-2.279c-0.077-1.491-0.159-2.987-0.117-4.477
		c0.08-2.829-0.567-5.392-2.118-7.69c-0.496-0.941-1.109-1.815-1.831-2.595c-0.24-0.379-0.474-0.758-0.716-1.124
		c0.204-0.222,0.407-0.445,0.61-0.667c0.899-0.684,1.991-0.828,3.054-0.945c1.377-0.152,2.451-0.841,3.505-1.609
		c0.661-0.481,1.218-1.115,1.907-1.542c1.279-0.793,2.754-1.021,4.218-1.248c2.636-0.41,5.239-0.904,7.489-2.496
		c1.228-0.868,1.858-2.144,2.261-3.48c0.496-1.64,0.772-3.35,1.088-5.041c0.008-0.044,0.015-0.089,0.022-0.134
		c0.06-0.143,0.111-0.291,0.154-0.444L144,74.9c0-0.187-0.014-0.373-0.042-0.556C143.97,74.163,143.981,73.982,143.987,73.801z"/>
</g>
</svg>
