<?xml version="1.0" encoding="iso-8859-1"?>
<!-- Generator: Adobe Illustrator 17.1.0, SVG Export Plug-In . SVG Version: 6.00 Build 0)  -->
<!DOCTYPE svg PUBLIC "-//W3C//DTD SVG 1.1//EN" "http://www.w3.org/Graphics/SVG/1.1/DTD/svg11.dtd">
<svg version="1.1" id="Capa_1" xmlns="http://www.w3.org/2000/svg" xmlns:xlink="http://www.w3.org/1999/xlink" x="0px" y="0px"
	 viewBox="0 0 150 150" style="enable-background:new 0 0 150 150;" xml:space="preserve">
<g>
	<path d="M145.833,75.541c-0.704-1.769-1.532-3.43-3.576-4.007c-0.091-0.026-0.16-0.123-0.25-0.161
		c-0.265-0.111-0.533-0.287-0.806-0.298c-0.646-0.025-1.3,0.093-1.941,0.038c-0.823-0.071-1.638-0.252-2.455-0.39
		c-0.59-0.099-1.177-0.22-1.768-0.304c-0.917-0.13-1.836-0.308-2.757-0.327c-0.499-0.01-0.935-0.027-1.36-0.3
		c-0.284-0.182-0.365-0.357-0.247-0.7c0.111-0.322,0.096-0.687,0.137-1.033c-0.051-0.013-0.101-0.027-0.152-0.04
		c-0.15,0.23-0.258,0.513-0.463,0.674c-0.217,0.171-0.574,0.374-0.785,0.305c-0.743-0.244-1.268-0.731-1.329-1.598
		c-0.017-0.245-0.19-0.478-0.291-0.717c-0.156,0.112-0.21,0.186-0.209,0.26c0.017,1.06-0.366,1.289-1.388,1.274
		c-0.15-0.002-0.301,0.01-0.452,0.012c-0.515,0.006-0.908-0.357-1.052-0.859c-0.096-0.335-0.3-0.639-0.456-0.957
		c-0.046,0.023-0.092,0.047-0.138,0.07c0.017,0.332,0.078,0.67,0.038,0.995c-0.03,0.243-0.13,0.552-0.308,0.687
		c-0.322,0.244-0.725,0.38-1.122,0.575c-0.138-0.482-0.276-0.961-0.413-1.44c-0.052,0.005-0.105,0.009-0.157,0.014
		c-0.062,0.372-0.169,0.743-0.174,1.115c-0.006,0.47-0.173,0.797-0.594,0.999c-0.524,0.253-1.036,0.538-1.577,0.745
		c-0.155,0.059-0.434-0.054-0.588-0.175c-0.318-0.252-0.591-0.562-0.882-0.849c-0.042,0.024-0.083,0.049-0.125,0.073
		c0.093,0.398,0.192,0.794,0.273,1.194c0.024,0.116,0.03,0.333-0.016,0.351c-0.535,0.21-1.072,0.457-1.631,0.545
		c-0.22,0.034-0.503-0.299-0.749-0.477c-0.126-0.091-0.234-0.209-0.351-0.314c-0.038,0.018-0.076,0.037-0.114,0.055
		c0.033,0.18,0.063,0.361,0.098,0.541c0.079,0.406-0.097,0.623-0.504,0.64c-0.677,0.029-1.32-0.042-1.684-0.535
		c-0.235,0.213-0.424,0.525-0.598,0.516c-0.662-0.032-1.35-0.076-1.972-0.283c-1.054-0.35-2.057-0.852-3.099-1.243
		c-0.671-0.251-1.162-0.56-0.931-1.389c0.006-0.021-0.031-0.054-0.017-0.032c-0.448,0.089-0.872,0.223-1.302,0.249
		c-0.927,0.056-1.588-0.853-1.264-1.691c0.042-0.109,0.111-0.215,0.122-0.327c0.044-0.439,0.166-0.889-0.131-1.311
		c-0.131,0.171-0.179,0.357-0.261,0.527c-0.529,1.09-1.128,1.411-2.228,0.87c-0.498-0.245-0.787-0.941-0.747-1.481
		c0.025-0.333-0.068-0.675-0.107-1.013c-0.064,0-0.127-0.001-0.191-0.001c-0.074,0.158-0.147,0.317-0.223,0.474
		c-0.298,0.619-1.019,1.002-1.635,0.845c-0.693-0.176-1.127-0.437-1.153-1.441c-0.004-0.166-0.1-0.331-0.153-0.496
		c-0.043-0.005-0.086-0.009-0.129-0.013c-0.233,0.89-0.794,1.319-1.687,1.248c-0.859-0.068-1.295-0.663-1.629-1.381
		c-0.31,0.688-1.394,0.91-1.938,0.653c-0.308-0.145-0.661-0.253-0.998-0.267c-0.512-0.02-1.026,0.068-1.541,0.09
		c-1.697,0.072-3.356-0.198-5.013-0.536c-3.456-0.707-6.91-1.432-10.383-2.043c-1.303-0.229-2.658-0.219-3.989-0.214
		c-0.893,0.003-1.113-0.296-1.382-0.985c-0.138-0.353-0.426-0.648-0.646-0.969c-0.058,0.028-0.116,0.056-0.174,0.084
		c0,0.314,0.012,0.629-0.006,0.942c-0.007,0.121-0.05,0.276-0.135,0.351c-0.774,0.688-1.986,0.272-2.249-0.735
		c-0.166-0.634-0.592-1.082-1.167-1.398c-0.042,0.066-0.074,0.093-0.075,0.122c-0.017,0.384-0.032,0.768-0.045,1.152
		c-0.014,0.423-0.688,0.993-1.1,0.902c-0.094-0.021-0.193-0.151-0.234-0.253c-0.247-0.614-0.45-1.246-0.724-1.847
		c-0.157-0.346-0.394-0.671-0.848-0.843c0,0.656,0.059,1.245-0.024,1.813c-0.044,0.299-0.337,0.561-0.518,0.84
		c-0.205-0.165-0.411-0.327-0.612-0.497c-0.034-0.029-0.035-0.094-0.064-0.133c-0.264-0.342-0.531-0.681-0.797-1.022
		c-0.05,0.026-0.1,0.051-0.151,0.077c-0.02,0.209,0.026,0.461-0.074,0.619c-0.261,0.411-0.523,0.875-0.908,1.136
		c-0.293,0.199-0.742-0.284-0.92-0.893c-0.014-0.048-0.042-0.094-0.048-0.142c-0.063-0.558-0.516-0.8-0.874-1.126
		c-0.021,0.138,0.01,0.25,0.018,0.363c0.038,0.6,0.106,1.202-0.307,1.727c-0.22,0.279-0.435,0.291-0.647,0.019
		c-0.121-0.156-0.198-0.345-0.308-0.511c-0.196-0.298-0.402-0.589-0.603-0.883c-0.043,0.015-0.086,0.029-0.129,0.044
		c-0.02,0.259-0.08,0.522-0.051,0.775c0.072,0.62-0.382,0.847-0.792,1.074c-0.301,0.167-0.592,0.055-0.743-0.279
		c-0.089-0.197-0.128-0.419-0.233-0.605c-0.201-0.357-0.433-0.697-0.652-1.044c-0.089,0.4-0.103,0.734-0.085,1.065
		c0.025,0.459-0.251,0.918-0.647,1.033c-0.415,0.121-0.741-0.12-1.009-0.607c-0.257-0.465-0.598-0.883-0.902-1.322
		c-0.054,0.023-0.108,0.047-0.162,0.07c0,0.292-0.023,0.587,0.006,0.876c0.039,0.397-0.094,0.714-0.445,0.867
		c-0.365,0.159-0.639-0.108-0.87-0.345c-0.105-0.108-0.126-0.296-0.194-0.443c-0.14-0.301-0.286-0.6-0.44-0.92
		c-0.11,0.089-0.153,0.106-0.157,0.13c-0.041,0.246-0.076,0.494-0.112,0.741c-0.062,0.429-0.442,0.849-0.816,0.85
		c-0.446,0.001-0.643-0.314-0.816-0.679c-0.108-0.227-0.302-0.412-0.458-0.616c-0.111,0.185-0.142,0.302-0.124,0.412
		c0.075,0.447-0.112,0.796-0.513,0.903c-0.584,0.156-1.197,0.205-1.798,0.294c-0.325,0.048-0.515-0.104-0.674-0.391
		c-0.139-0.25-0.37-0.448-0.65-0.773c-0.037,0.259-0.054,0.338-0.058,0.417c-0.034,0.692-0.092,0.747-0.806,0.751
		c-0.1,0-0.202-0.009-0.301,0.002c-0.354,0.039-0.545-0.09-0.646-0.458c-0.062-0.228-0.282-0.413-0.431-0.617
		c-0.047,0.025-0.093,0.051-0.14,0.076c-0.011,0.179,0.011,0.369-0.043,0.534c-0.052,0.16-0.167,0.402-0.283,0.419
		c-0.393,0.058-0.803,0.072-1.196,0.02c-0.148-0.02-0.263-0.268-0.398-0.406c-0.133-0.135-0.272-0.264-0.487-0.471
		c-0.019,0.4-0.032,0.675-0.047,0.984c-0.362,0.082-0.713,0.178-1.071,0.238c-0.714,0.12-1.473,0.412-1.986-0.428
		c-0.027-0.045-0.104-0.059-0.208-0.113c-0.024,0.319-0.044,0.59-0.065,0.878c-0.285,0.052-0.551,0.077-0.804,0.151
		c-0.557,0.161-1.066,0.201-1.429-0.374c-0.037-0.059-0.146-0.073-0.256-0.124c0.195,0.729,0.151,0.804-0.582,0.87
		c-0.564,0.05-1.171,0.235-1.621-0.35c0.047,0.164,0.093,0.328,0.154,0.542c-0.446,0.119-0.869,0.203-1.271,0.346
		c-0.391,0.14-0.736,0.146-1.061-0.134c-0.014-0.012-0.053,0.005-0.095,0.01c0.023,0.127,0.046,0.25,0.073,0.394
		c-0.603,0.159-1.192,0.28-1.756,0.475c-0.454,0.157-0.835,0.149-1.187-0.195c-0.027-0.027-0.083-0.025-0.181-0.051
		c0.079,0.152,0.134,0.256,0.198,0.378c-0.129,0.048-0.221,0.085-0.314,0.117c-2.99,1.05-5.976,2.109-8.688,3.79
		c-2.412,1.496-4.656,3.206-6.502,5.38c-0.859,1.011-1.73,2-2.312,3.246c-1.007,2.157-1.542,4.394-1.63,6.753
		c-0.087,2.329,0.412,4.575,1.027,6.799c0.103,0.374,0.329,0.714,0.499,1.07c0.058-0.017,0.117-0.035,0.175-0.052
		c0.017-0.341,0.055-0.682,0.047-1.021c-0.062-2.565-0.351-5.135,0.346-7.673c0.362-1.318,0.808-2.609,1.697-3.638
		c1.422-1.645,3.325-2.661,5.235-3.633c1.62-0.825,3.377-1.232,5.146-1.558c1.554-0.286,3.12-0.539,4.691-0.69
		c1.545-0.149,3.103-0.169,4.656-0.212c1.019-0.028,2.048-0.08,3.057,0.026c2.007,0.211,3.994,0.607,6.026,0.562
		c0.349-0.008,0.718-0.016,1.044,0.083c1.733,0.528,3.457,1.053,5.236,1.441c2.095,0.457,4.09,1.288,6.014,2.271
		c1.349,0.689,2.764,1.248,4.132,1.901c1.423,0.68,2.76,1.499,3.808,2.709c0.567,0.654,1.145,1.29,1.887,1.586
		c-0.964,1.012-1.947,2.013-2.894,3.047c-0.686,0.749-1.547,1.201-2.446,1.613c-0.484,0.222-0.949,0.485-1.438,0.694
		c-0.31,0.132-0.646,0.271-0.974,0.281c-0.8,0.025-1.564,0.152-2.23,0.61c-0.67,0.461-1.312,0.961-1.968,1.443
		c-0.557,0.409-0.922,0.951-1.122,1.61c-0.636,2.102-1.258,4.208-1.92,6.301c-0.441,1.395-1.093,2.694-2.074,3.793
		c-0.702,0.786-0.741,1.718-0.688,2.674c0.019,0.357,0.086,0.746,0.252,1.055c0.75,1.398,1.508,2.794,2.331,4.15
		c0.625,1.03,1.458,1.819,2.785,1.857c0.428,0.012,0.852,0.147,1.28,0.212c0.367,0.056,0.765,0.182,0.921-0.333
		c1.636,0.111,3.237,0.219,4.846,0.328c-0.015-0.795-0.942-1.727-1.643-1.815c-0.259-0.032-0.512-0.175-0.748-0.303
		c-0.193-0.105-0.339-0.325-0.539-0.385c-0.508-0.153-1.045-0.208-1.549-0.368c-0.854-0.27-1.038-0.587-0.963-1.484
		c0.114-1.356,0.062-2.702-0.221-4.036c-0.022-0.106-0.009-0.223,0.004-0.333c0.076-0.638,0.238-1.278,0.215-1.912
		c-0.029-0.81,0.222-1.532,0.525-2.236c0.235-0.545,0.596-1.036,0.907-1.547c0.39-0.641,0.706-1.348,1.193-1.905
		c1.982-2.268,4.448-3.486,7.524-3.571c2.699-0.075,5.413-0.153,8.076-0.689c1.264-0.254,2.598-0.29,3.726-1.028
		c0.543-0.355,1.01-0.19,1.577,0.001c2.683,0.902,5.314,2.006,8.254,2.318c-0.315,0.307-0.587,0.616-0.902,0.87
		c-0.729,0.588-1.351,1.248-1.617,2.172c-0.193,0.672-0.331,1.361-0.549,2.024c-0.41,1.249-0.162,2.341,0.619,3.378
		c0.813,1.081,1.58,2.197,2.345,3.314c0.539,0.787,1.018,1.611,1.115,2.592c0.052,0.531,0.041,1.073,0.143,1.594
		c0.084,0.432,0.278,0.847,0.455,1.256c0.037,0.086,0.21,0.155,0.318,0.152c0.065-0.002,0.165-0.151,0.181-0.245
		c0.042-0.245,0.051-0.497,0.066-0.746c0.029-0.46,0.327-0.829,0.69-0.835c-0.129,0.293-0.268,0.577-0.382,0.87
		c-0.211,0.543-0.033,1.24,0.386,1.625c0.918,0.841,2.109,1.043,3.242,1.151c1.693,0.161,3.409,0.08,5.115,0.103
		c0.546,0.007,1.092,0.027,1.637,0.025c0.102,0,0.279-0.058,0.293-0.119c0.078-0.337,0.338-0.291,0.554-0.27
		c0.802,0.081,1.601,0.184,2.424,0.282c0,0.002,0.02-0.069-0.003-0.12c-0.406-0.912-1.081-1.494-2.07-1.709
		c-0.219-0.047-0.464-0.128-0.622-0.274c-0.513-0.477-1.069-0.499-1.722-0.361c-0.894,0.19-1.765,0.102-2.478-0.574
		c-0.371-0.352-0.736-0.711-1.108-1.061c-0.461-0.434-0.972-0.824-1.382-1.302c-0.599-0.698-1.172-1.407-2.013-1.838
		c-0.137-0.07-0.26-0.216-0.332-0.357c-0.721-1.41-1.415-2.834-2.149-4.237c-0.342-0.653-0.372-1.304-0.155-1.981
		c0.47-1.464,1.261-2.64,2.7-3.369c1.781-0.902,3.414-2.036,4.783-3.517c0.087-0.094,0.315-0.102,0.468-0.081
		c1.169,0.166,2.33,0.405,3.504,0.51c0.929,0.083,1.872,0,2.809,0.013c0.155,0.002,0.366,0.079,0.451,0.195
		c0.294,0.403,0.536,0.844,0.811,1.261c0.485,0.736,0.801,1.505,0.478,2.496c0.311,0.079,0.651,0.278,0.836,0.181
		c0.185-0.097,0.259-0.483,0.299-0.754c0.049-0.332,0.011-0.676,0.011-1.015c0.198,0.045,0.295,0.133,0.368,0.238
		c0.065,0.094,0.103,0.207,0.152,0.312c0.119-0.102,0.306-0.184,0.344-0.311c0.128-0.421-0.128-0.682-0.455-0.899
		c-0.318-0.211-0.666-0.4-0.927-0.67c-0.162-0.168-0.241-0.469-0.242-0.71c0-0.076,0.379-0.23,0.577-0.217
		c0.991,0.065,1.98,0.173,2.854,0.255c-0.065,0.66-0.096,1.227-0.183,1.786c-0.08,0.513-0.308,0.977-0.937,1.039
		c-0.242,0.024-0.476,0.118-0.714,0.179c0.007,0.055,0.015,0.11,0.022,0.165c0.294,0.024,0.592,0.026,0.879,0.082
		c0.118,0.023,0.303,0.168,0.299,0.25c-0.006,0.139-0.106,0.343-0.223,0.397c-0.569,0.264-1.157,0.486-1.736,0.728
		c-0.092,0.038-0.171,0.106-0.363,0.228c0.517,0.154,0.924,0.393,1.317,0.371c1.414-0.078,2.44-0.914,2.299-2.466
		c-0.019-0.206-0.014-0.441,0.067-0.625c0.155-0.355,0.372-0.682,0.583-1.055c1.04,0.455,2.052,0.164,2.931-0.635
		c0.493-0.448,0.944-0.949,1.37-1.463c0.794-0.957,1.554-1.943,2.333-2.913c0.208-0.259,0.396-0.555,0.657-0.748
		c1.321-0.974,2.832-1.497,4.433-1.786c0.076-0.014,0.16,0.013,0.239,0.027c0.816,0.149,1.626,0.369,2.448,0.434
		c1.498,0.118,3.003,0.164,4.506,0.194c0.428,0.009,0.648,0.159,0.856,0.514c0.301,0.513,0.598,1.076,1.039,1.451
		c1.012,0.862,2.208,1.426,3.5,1.766c2.032,0.535,3.971,1.25,5.593,2.661c0.603,0.525,1.277,0.97,1.929,1.437
		c0.562,0.403,1.231,0.724,1.876,0.461c0.977-0.399,1.89-0.962,2.809-1.492c0.139-0.08,0.264-0.381,0.225-0.536
		c-0.088-0.35,0.024-0.631,0.117-0.945c0.064-0.216,0.037-0.472-0.005-0.699c-0.024-0.127-0.203-0.221-0.241-0.35
		c-0.056-0.189-0.049-0.396-0.081-0.728c-0.179,0.358-0.294,0.587-0.444,0.887c-0.053-0.254-0.087-0.42-0.136-0.658
		c-0.176,0.251-0.307,0.438-0.438,0.626c-0.022-0.037-0.044-0.075-0.065-0.112c0.052-0.711,0.105-1.422,0.158-2.133
		c-0.037-0.005-0.074-0.01-0.111-0.015c-0.124,0.287-0.247,0.573-0.37,0.86c-0.026-0.008-0.053-0.015-0.079-0.023
		c0-0.21,0-0.42,0-0.606c-0.244,0.302-0.487,0.602-0.73,0.902c-0.039-0.032-0.078-0.063-0.117-0.095
		c0.556-0.686,0.732-1.451,0.468-2.028c-0.634,1.285-0.773,1.423-1.172,1.214c0.165-0.378,0.315-0.759,0.499-1.124
		c0.096-0.191,0.216-0.411,0.387-0.513c0.305-0.183,0.393-0.371,0.193-0.719c-0.384-0.032-0.798-0.008-1.173-0.117
		c-0.341-0.099-0.696-0.286-0.945-0.534c-0.612-0.608-0.557-1.383-0.413-2.162c0.183-0.991,0.411-1.941,1.223-2.66
		c0.467-0.414,0.857-0.921,1.245-1.415c0.188-0.24,0.291-0.546,0.413-0.782c0.874-0.025,0.497,0.752,0.803,1.249
		c0.183-0.363,0.31-0.615,0.468-0.927c0.303,0.08,0.642,0.17,1.074,0.284c-0.238,0.426-0.425,0.763-0.613,1.1
		c0.023,0.036,0.047,0.071,0.07,0.107c0.357-0.203,0.715-0.407,1.139-0.648c-0.031,0.404-0.06,0.765-0.088,1.127
		c0.04,0.021,0.081,0.042,0.121,0.063c0.307-0.444,0.613-0.888,0.92-1.332c0.036,0.016,0.073,0.032,0.109,0.048
		c-0.127,0.506-0.253,1.012-0.391,1.562c0.813-0.395,0.838-1.263,1.24-1.863c0.055,0.016,0.111,0.032,0.167,0.048
		c0.067,0.323,0.135,0.645,0.202,0.968c0.056,0.007,0.112,0.015,0.169,0.022c0.097-0.407,0.195-0.814,0.292-1.221
		c0.039,0.003,0.078,0.006,0.117,0.009c-0.033,0.479-0.066,0.959-0.102,1.488c0.508-0.565,0.886-1.133,0.866-1.906
		c0.075,0.157,0.149,0.314,0.226,0.475c0.047-0.033,0.094-0.048,0.098-0.072c0.133-0.667,0.893-1.034,0.858-1.788
		c-0.003-0.073,0.098-0.167,0.172-0.226c0.562-0.449,0.721-0.893,0.531-1.561C146.042,76.137,145.949,75.834,145.833,75.541z"/>
</g>
</svg>
