<?xml version="1.0" encoding="iso-8859-1"?>
<!-- Generator: Adobe Illustrator 17.1.0, SVG Export Plug-In . SVG Version: 6.00 Build 0)  -->
<!DOCTYPE svg PUBLIC "-//W3C//DTD SVG 1.1//EN" "http://www.w3.org/Graphics/SVG/1.1/DTD/svg11.dtd">
<svg version="1.1" id="Capa_1" xmlns="http://www.w3.org/2000/svg" xmlns:xlink="http://www.w3.org/1999/xlink" x="0px" y="0px"
	 viewBox="0 0 150 150" style="enable-background:new 0 0 150 150;" xml:space="preserve">
<g>
<path d="M13.471,69.995c-0.006-0.04-0.011-0.081-0.015-0.121c0.013-0.249,0.026-0.498,0.04-0.748
	c0.027-0.03,0.066-0.049,0.116-0.056c0.054,0.148,0.109,0.296,0.163,0.444c0.007,0.032,0.014,0.063,0.024,0.094
	c0.07,0.216,0.161,0.432,0.285,0.62c0.113,0.172,0.244,0.151,0.364-0.029c0.084-0.126,0.154-0.262,0.257-0.44
	c0.07,0.057,0.138,0.103,0.196,0.151c0.055,0.081,0.117,0.158,0.186,0.23c0.061,0.111,0.097,0.231,0.118,0.354
	c0,0,0.247,0.574,0.268,0.543c0.041-0.031,0.11-0.455,0.126-0.612c0.012-0.021,0.026-0.037,0.042-0.043
	c0.326-0.125,0.325-0.391,0.347-0.664c0.021-0.264,0.06-0.527,0.095-0.827c0.218,0.02,0.395,0.055,0.569,0.048
	c0.174-0.007,0.346-0.056,0.521-0.087c0.14,0.321,0.029,0.7,0.339,0.971c0.131-0.103,0.254-0.201,0.398-0.315
	c0.005,0.022,0.011,0.043,0.018,0.064c0.032,0.143,0.059,0.274,0.094,0.402c0.043,0.159,0.078,0.325,0.151,0.47
	c0.01,0.021,0.022,0.039,0.035,0.056c0.116,0.218,0.523,0.174,0.548-0.129c0.014-0.027,0.027-0.054,0.038-0.082
	c0.094-0.239,0.173-0.483,0.264-0.723c0.051-0.134,0.116-0.263,0.195-0.44c0.069,0.137,0.123,0.202,0.134,0.274
	c0.091,0.572,0.131,1.144,0.045,1.723c-0.056,0.377-0.23,0.703-0.367,1.048c-0.13,0.329-0.22,0.673-0.322,0.993
	c-0.594,0.07-1.184,0.115-1.763,0.218c-0.309,0.055-0.625,0.17-0.893,0.331c-0.419,0.251-0.751,0.615-1.049,1.004
	c-0.179,0.234-0.351,0.473-0.544,0.695c-0.214,0.246-0.549,0.242-0.823,0.366c-0.064,0.029-0.117,0.081-0.172,0.12
	c-0.057-0.054-0.1-0.118-0.139-0.186c-0.012-0.034-0.029-0.063-0.048-0.088c-0.09-0.169-0.179-0.341-0.409-0.416
	c-0.075,0.241-0.231,0.434-0.225,0.693c0.006,0.237,0.001,0.474,0.001,0.774c-0.163-0.19-0.271-0.315-0.357-0.415
	c-0.425,0.216-0.198,0.644-0.36,0.971c-0.229-0.199-0.279-0.497-0.566-0.575c-0.127,0.203-0.129,0.413-0.111,0.617
	c-0.036,0.074-0.038,0.164,0.017,0.256c0.002,0.004,0.005,0.008,0.007,0.012c-0.004,0.145-0.073,0.206-0.222,0.238
	c-0.058-0.05-0.105-0.091-0.145-0.128c-0.071-0.092-0.141-0.184-0.212-0.276c-0.049-0.094-0.103-0.221-0.187-0.419
	c-0.031-0.073-0.106-0.17-0.168-0.176c-0.059-0.006-0.148,0.08-0.191,0.147c-0.065,0.101-0.108,0.206-0.134,0.314
	c-0.008,0.024-0.013,0.049-0.015,0.073c-0.029,0.176-0.016,0.358,0.022,0.543c0.029,0.141,0.062,0.282,0.096,0.434
	c-0.096-0.073-0.192-0.146-0.288-0.22c-0.012-0.009-0.024-0.016-0.037-0.022c-0.092-0.129-0.191-0.248-0.369-0.289
	c-0.061,0.193-0.055,0.373-0.03,0.548c-0.001,0.032,0.004,0.063,0.015,0.093c0.028,0.159,0.065,0.314,0.077,0.473
	c-0.075-0.129-0.151-0.258-0.23-0.394c-0.18,0.063-0.194,0.207-0.215,0.35c-0.072,0.064-0.098,0.152-0.088,0.243
	c-0.019,0.022-0.041,0.042-0.07,0.059c-0.074-0.148-0.141-0.295-0.22-0.437C8.6,78.521,8.433,78.497,8.342,78.67
	c-0.105,0.199-0.163,0.425-0.223,0.645c-0.035,0.126-0.034,0.262-0.05,0.395c-0.237-0.018-0.256-0.183-0.318-0.298
	c-0.151-0.283-0.287-0.574-0.438-0.857c-0.033-0.061-0.114-0.146-0.159-0.139c-0.074,0.012-0.176,0.078-0.198,0.144
	c-0.035,0.102-0.066,0.209-0.085,0.316l0,0.001c-0.012,0.067-0.019,0.135-0.018,0.201c0.002,0.288,0.045,0.577,0.071,0.865
	c-0.017,0.006-0.034,0.012-0.051,0.018c-0.126-0.265-0.251-0.529-0.385-0.812c-0.169,0.182-0.234,0.251-0.296,0.447
	c-0.072,0.071-0.111,0.176-0.075,0.288c-0.013,0.055-0.027,0.117-0.042,0.186c-0.015,0.027-0.025,0.056-0.031,0.087
	c-0.168-0.157-0.21-0.399-0.312-0.605c-0.005-0.054-0.032-0.093-0.069-0.117c-0.055-0.078-0.127-0.145-0.23-0.193
	c-0.222,0.601-0.381,1.162-0.363,1.749c-0.076,0.045-0.129,0.101-0.187,0.106c-0.266,0.025-0.375,0.189-0.42,0.428
	c-0.062,0.326-0.132,0.651-0.072,0.986c0.031,0.174,0.017,0.336-0.151,0.443c0,0.18,0,0.361,0,0.541
	c0.132,0.105,0.241,0.227,0.215,0.409c-0.053,0.374,0.113,0.644,0.384,0.875c0.077,0.066,0.125,0.166,0.203,0.231
	c0.195,0.166,0.381,0.353,0.602,0.473c0.382,0.209,0.781,0.394,1.187,0.552c0.511,0.2,1.003,0.481,1.573,0.48
	c0.345-0.001,0.725,0.048,1.026-0.077c0.359-0.148,0.676,0.099,1.002-0.023c0.084-0.031,0.172-0.055,0.252-0.094
	c0.747-0.37,1.49-0.749,2.241-1.111c0.577-0.278,1.165-0.534,1.686-0.772c0.314,0.111,0.563,0.209,0.819,0.286
	c0.121,0.037,0.263,0.01,0.379,0.055c0.401,0.157,0.816,0.116,1.217,0.063c0.558-0.073,1.103-0.236,1.66-0.313
	c0.469-0.065,0.948-0.094,1.421-0.082c0.575,0.015,1.149,0.091,1.724,0.136c0.167,0.013,0.334,0.016,0.502,0.015
	c0.368-0.003,0.737-0.008,1.105-0.021c0.397-0.014,0.796-0.076,1.189-0.05c0.513,0.033,1.015,0.061,1.527-0.037
	c0.635-0.121,1.26-0.282,1.828-0.582c0.738-0.389,1.466-0.802,2.11-1.344c0.296-0.25,0.618-0.352,0.973-0.109
	c0.197,0.135,0.395,0.16,0.585-0.037c0.045,0.079,0.101,0.134,0.09,0.164c-0.092,0.25,0.027,0.378,0.24,0.475
	c0.128,0.058,0.246,0.137,0.366,0.211c0.172,0.105,0.367,0.185,0.455,0.406c-0.05,0.073-0.14,0.143-0.143,0.218
	c-0.015,0.375-0.087,0.774,0.011,1.122c0.118,0.419,0.464,0.73,0.845,0.957c0.153,0.091,0.261,0.197,0.334,0.354
	c0.07,0.152,0.147,0.3,0.227,0.446c0.258,0.473,0.475,0.981,0.91,1.323c0.472,0.371,0.803,0.858,1.176,1.312
	c0.13,0.159,0.282,0.302,0.401,0.468c0.142,0.197,0.286,0.401,0.151,0.671c-0.029,0.058-0.003,0.152,0.016,0.224
	c0.178,0.67,0.371,1.336,0.538,2.008c0.078,0.315,0.236,0.61,0.189,0.964c-0.02,0.15,0.094,0.356,0.209,0.479
	c0.455,0.487,0.934,0.951,1.404,1.424c0.104,0.105,0.21,0.207,0.281,0.277c-0.133,0.185-0.281,0.313-0.326,0.47
	c-0.061,0.215-0.193,0.313-0.371,0.401c-0.378,0.188-0.751,0.386-1.125,0.581c-0.19,0.099-0.373,0.215-0.571,0.297
	c-0.248,0.102-0.4,0.265-0.45,0.531c-0.074,0.388,0.223,1.115,0.571,1.313c0.093,0.053,0.286,0.064,0.352,0.005
	c0.174-0.158,0.396-0.288,0.436-0.566c0.033-0.229,0.217-0.313,0.463-0.393c-0.146,0.233-0.291,0.402-0.369,0.598
	c-0.157,0.394-0.285,0.798-0.282,1.233c0.001,0.124-0.02,0.262-0.077,0.37c-0.125,0.239-0.126,0.495-0.027,0.711
	c0.153,0.334,0.372,0.639,0.569,0.952c0.033,0.052,0.092,0.089,0.145,0.127c0.278,0.197,0.492,0.128,0.569-0.205
	c0.123-0.531,0.301-1.061,0.097-1.613c-0.004-0.012-0.001-0.026-0.004-0.038c-0.05-0.218-0.005-0.4,0.171-0.556
	c0.081-0.072,0.182-0.189,0.175-0.278c-0.026-0.329,0.149-0.55,0.331-0.787c0.131-0.17,0.267-0.363,0.308-0.565
	c0.043-0.21,0.128-0.351,0.304-0.468c0.266,0.094,0.523,0.041,0.762-0.107c0.249-0.154,0.291-0.378,0.23-0.645
	c0.173,0.054,0.356,0.087,0.545,0.1c0.106,0.061,0.211,0.123,0.317,0.184c0.68,0.387,1.369,0.757,2.037,1.164
	c0.404,0.246,0.763,0.566,1.162,0.821c0.506,0.324,1.022,0.638,1.556,0.912c0.361,0.185,0.762,0.294,1.146,0.435
	c0.162,0.06,0.326,0.115,0.523,0.185c-0.309,0.322-0.618,0.546-1.021,0.652c-0.355,0.093-0.744,0.11-1.043,0.361
	c-0.248,0.209-0.57,0.302-0.8,0.547c-0.08,0.086-0.262,0.083-0.4,0.105c-0.113,0.018-0.239-0.012-0.345,0.023
	c-0.322,0.106-0.606-0.003-0.895-0.115c-0.094-0.036-0.209-0.11-0.286-0.083c-0.237,0.082-0.455,0.004-0.682-0.018
	c-0.12-0.011-0.243,0.011-0.361,0.018c-0.077,0.356,0.002,0.629,0.202,0.871c0.065,0.079,0.16,0.144,0.2,0.233
	c0.142,0.321,0.401,0.386,0.72,0.411c0.476,0.038,0.976-0.003,1.411,0.292c-0.11,0.158-0.274,0.185-0.439,0.214
	c-0.098,0.017-0.212,0.028-0.287,0.084c-0.36,0.268-0.773,0.281-1.178,0.214c-0.423-0.07-0.859-0.014-1.272-0.159
	c-0.039-0.014-0.096,0.024-0.186,0.049c0,0.16-0.053,0.347,0.009,0.48c0.242,0.513,0.643,0.885,1.214,0.966
	c0.439,0.062,0.893,0.037,1.339,0.022c0.763-0.026,1.357-0.494,2.005-0.813c0.073-0.036,0.121-0.13,0.172-0.204
	c0.338-0.493,0.776-0.895,1.24-1.259c0.246-0.193,0.551-0.321,0.845-0.441c0.347-0.142,0.652-0.301,0.734-0.713
	c0.015-0.074,0.093-0.148,0.159-0.197c0.382-0.281,0.769-0.554,1.086-0.782c0.417,0.096,0.76,0.221,1.109,0.248
	c0.974,0.077,1.95,0.125,2.926,0.162c1.066,0.04,2.133,0.058,3.2,0.078c0.422,0.008,0.844-0.003,1.266-0.01
	c0.656-0.01,1.312-0.007,1.967-0.041c0.616-0.032,1.228-0.129,1.844-0.157c0.795-0.035,1.588-0.087,2.388-0.037
	c0.926,0.057,1.837,0.093,2.717,0.467c0.619,0.263,1.203,0.573,1.778,0.913c0.408,0.242,0.809,0.505,1.299,0.552
	c0.726,0.07,1.37-0.189,1.853-0.681c0.297-0.303,0.509-0.24,0.794-0.116c0.141,0.061,0.275,0.14,0.415,0.204
	c0.233,0.107,0.461,0.269,0.705,0.298c0.42,0.05,0.776,0.263,1.171,0.364c0.412,0.106,0.632,0.366,0.777,0.762
	c0.202,0.552,0.556,1.018,1.061,1.33c0.398,0.246,0.735,0.605,1.223,0.694c0.032,0.006,0.06,0.045,0.085,0.073
	c0.37,0.403,0.839,0.57,1.374,0.567c0.275-0.001,0.532,0.058,0.782,0.175c0.147,0.069,0.312,0.105,0.472,0.143
	c0.31,0.074,0.612,0.123,0.804,0.448c0.103,0.174,0.325,0.281,0.5,0.409c0.1,0.073,0.215,0.127,0.37,0.216
	c-0.161,0.198-0.285,0.394-0.45,0.546c-0.433,0.401-0.883,0.783-1.328,1.172c-0.048,0.042-0.104,0.076-0.155,0.115
	c-0.393,0.308-0.786,0.615-1.177,0.924c-0.251,0.198-0.474,0.448-0.753,0.588c-0.283,0.143-0.411,0.37-0.542,0.619
	c-0.072,0.136-0.146,0.272-0.219,0.408c-0.054,0.449-0.055,0.92-0.053,1.391c0,0.114,0.04,0.237,0.007,0.339
	c-0.105,0.328-0.023,0.636,0.055,0.948c0.024,0.097,0.053,0.201,0.039,0.296c-0.026,0.189-0.063,0.38-0.127,0.559
	c-0.169,0.477-0.006,0.877,0.257,1.262c0.095,0.138,0.188,0.27,0.116,0.459c-0.02,0.053,0.019,0.168,0.068,0.202
	c0.303,0.211,0.313,0.548,0.38,0.856c0.085,0.394,0.228,0.714,0.651,0.877c0.197,0.076,0.433,0.26,0.488,0.445
	c0.077,0.258,0.169,0.504,0.276,0.75c0.157,0.36,0.395,0.658,0.676,0.923c0.196,0.185,0.421,0.285,0.704,0.2
	c0.105-0.031,0.259-0.055,0.333-0.002c0.271,0.195,0.577,0.193,0.885,0.207c0.026,0.07,0.041,0.133,0.071,0.188
	c0.185,0.34,0.278,0.72,0.71,0.908c0.451,0.196,0.878,0.291,1.335,0.116c0.261-0.1,0.508-0.14,0.786-0.081
	c0.141,0.03,0.313,0.005,0.45-0.049c0.91-0.363,1.342-1.1,1.527-2.014c0.017-0.085-0.016-0.24-0.072-0.267
	c-0.083-0.04-0.212-0.01-0.312,0.02c-0.221,0.066-0.431,0.169-0.654,0.221c-0.171,0.04-0.379,0.06-0.485-0.128
	c-0.099-0.175-0.186-0.366-0.017-0.571c0.069-0.084,0.094-0.209,0.12-0.321c0.062-0.265-0.044-0.366-0.301-0.296
	c-0.118,0.032-0.235,0.066-0.343,0.097c-0.035-0.064-0.05-0.085-0.058-0.108c-0.008-0.024,0-0.057-0.014-0.075
	c-0.278-0.353-0.157-0.729-0.105-1.121c0.079-0.594,0.307-1.159,0.323-1.765c0.002-0.084,0.079-0.184,0.149-0.244
	c0.234-0.2,0.442-0.412,0.585-0.694c0.343-0.674,0.683-1.352,1.069-2.002c0.419-0.705,0.929-1.342,1.65-1.835
	c0.084,0.121,0.165,0.244,0.252,0.364c0.048,0.066,0.097,0.133,0.158,0.186c0.371,0.317,0.739,0.638,1.121,0.942
	c0.401,0.319,0.813,0.625,1.228,0.925c0.426,0.308,0.858,0.608,1.295,0.899c0.329,0.219,0.673,0.417,1.006,0.63
	c0.292,0.187,0.581,0.377,0.864,0.577c0.065,0.046,0.104,0.135,0.145,0.21c0.284,0.506,0.303,1.08,0.417,1.63
	c0.013,0.061,0.01,0.13-0.005,0.19c-0.12,0.511-0.249,1.021-0.365,1.533c-0.044,0.195-0.156,0.275-0.347,0.293
	c-0.124,0.012-0.267,0.024-0.363,0.092c-0.174,0.124-0.296,0.345-0.482,0.42c-0.186,0.076-0.426,0.009-0.639,0.031
	c-0.24,0.024-0.477,0.076-0.704,0.114c-0.073,0.103-0.127,0.267-0.213,0.286c-0.317,0.069-0.594,0.281-0.948,0.229
	c-0.4-0.058-0.782-0.032-1.092,0.305c-0.335,0.364-0.499,0.791-0.57,1.267c0.137,0.12,0.026,0.195-0.052,0.272
	c-0.064,0.064-0.141,0.115-0.196,0.185c-0.294,0.371-0.589,0.741-0.866,1.125c-0.056,0.078-0.077,0.229-0.04,0.316
	c0.054,0.129,0.185,0.057,0.301,0.051c0.213-0.011,0.429,0.038,0.644,0.061c0.006,0.026,0.013,0.051,0.019,0.077
	c-0.395,0.268-0.671,0.632-0.899,1.038c-0.27,0.482-0.29,1.005-0.267,1.535c0.002,0.052,0.058,0.138,0.099,0.144
	c0.063,0.01,0.144-0.022,0.2-0.06c0.088-0.061,0.159-0.198,0.244-0.204c0.342-0.023,0.699-0.065,1.028,0.006
	c0.415,0.09,0.806,0.076,1.217,0.014c0.376-0.057,0.774-0.218,1.099,0.033c-0.064,0.499-0.134,0.964-0.176,1.433
	c-0.013,0.144,0.051,0.295,0.08,0.443c0.077,0,0.155,0,0.232,0c0.185-0.288,0.446-0.4,0.787-0.373
	c0.416,0.033,0.835,0.068,1.252,0.058c0.316-0.008,0.666-0.013,0.937-0.147c0.396-0.195,0.78-0.206,1.189-0.154
	c0.504,0.065,0.978-0.005,1.384-0.334c0.226-0.183,0.41-0.461,0.665-0.556c0.274-0.101,0.61-0.037,0.918-0.045
	c0.026-0.001,0.051-0.003,0.077-0.005c0.492-0.038,0.92-0.229,1.265-0.579c0.104-0.105,0.19-0.141,0.333-0.125
	c0.341,0.038,0.674-0.042,0.964-0.203c0.473-0.262,0.877-0.596,0.811-1.231c-0.012-0.111,0.03-0.227,0.041-0.341
	c0.01-0.101,0.038-0.211,0.01-0.302c-0.077-0.257-0.16-0.516-0.274-0.758c-0.269-0.569-0.493-1.155-0.731-1.736
	c-0.247-0.603-0.162-1.199-0.162-1.804c0-0.069,0.055-0.138,0.089-0.218c0.137,0.026,0.284,0.016,0.381,0.081
	c0.14,0.094,0.26,0.085,0.397,0.031c0.426-0.166,0.849-0.343,1.322-0.301c0.019,0.002,0.04-0.026,0.06-0.04
	c0.033-0.351,0.033-0.351,0.142-0.447c0.553-0.483,0.622-1.524,0.132-2.053c-0.045-0.049-0.149-0.105-0.189-0.085
	c-0.063,0.032-0.121,0.12-0.137,0.193c-0.079,0.374-0.158,0.437-0.543,0.424c-0.114-0.004-0.259-0.026-0.336,0.032
	c-0.227,0.168-0.468,0.162-0.724,0.135c-0.071-0.007-0.145,0.014-0.241,0.025c-0.105-0.402-0.146-0.8-0.076-1.209
	c0.078-0.456,0.127-0.913,0.024-1.375c-0.049-0.218-0.153-0.458-0.106-0.658c0.12-0.509,0.149-1.009,0.067-1.523
	c-0.04-0.254-0.063-0.507-0.227-0.723c-0.052-0.069-0.077-0.161-0.104-0.245c-0.106-0.328-0.313-0.534-0.647-0.653
	c-0.367-0.131-0.789-0.136-1.083-0.455c-0.05-0.054-0.169-0.063-0.255-0.06c-0.189,0.005-0.262-0.085-0.323-0.257
	c-0.057-0.161-0.184-0.296-0.279-0.444c-0.041-0.063-0.074-0.131-0.116-0.194c-0.104-0.157-0.211-0.312-0.318-0.467
	c-0.072-0.104-0.155-0.201-0.216-0.31c-0.445-0.798-0.518-1.715-0.806-2.564c-0.197-0.579-0.305-1.188-0.481-1.775
	c-0.14-0.466-0.318-0.921-0.49-1.376c-0.214-0.567-0.487-1.102-0.871-1.576c-0.322-0.398-0.624-0.814-0.96-1.2
	c-0.506-0.581-1.002-1.177-1.697-1.553c-0.428-0.232-0.842-0.496-1.288-0.686c-0.443-0.19-0.908-0.374-1.38-0.439
	c-0.721-0.099-1.446-0.234-2.182-0.176c-0.048,0.004-0.098-0.013-0.185-0.026c0.013-0.122,0.014-0.234,0.038-0.341
	c0.065-0.285,0.174-0.565,0.205-0.853c0.088-0.803,0.15-1.609,0.211-2.414c0.026-0.336,0.019-0.37,0.359-0.439
	c0.581-0.118,1.139-0.301,1.679-0.541c0.352-0.156,0.702-0.317,1.044-0.494c1.15-0.597,2.166-1.367,3.054-2.316
	c0.366-0.391,0.777-0.758,1.224-1.05c0.791-0.516,1.613-0.978,2.551-1.21c0.632-0.156,1.238-0.415,1.863-0.607
	c0.391-0.12,0.79-0.217,1.192-0.293c0.555-0.104,1.12-0.157,1.672-0.27c0.615-0.125,1.222-0.289,1.83-0.445
	c0.309-0.079,0.621-0.158,0.919-0.271c0.6-0.226,1.192-0.472,1.785-0.715c0.606-0.249,1.21-0.501,1.812-0.757
	c0.838-0.357,1.678-0.708,2.509-1.082c0.843-0.38,1.675-0.783,2.511-1.178c0.394-0.186,0.795-0.359,1.178-0.567
	c0.836-0.455,1.637-0.963,2.372-1.573c0.187-0.155,0.405-0.272,0.6-0.418c0.327-0.246,0.642-0.507,0.97-0.751
	c0.429-0.32,0.87-0.624,1.299-0.945c0.359-0.269,0.708-0.553,1.061-0.831c0.06-0.047,0.125-0.09,0.181-0.142
	c0.716-0.663,1.414-1.341,2.082-2.055c0.663-0.708,1.218-1.495,1.787-2.27c0.409-0.556,0.732-1.179,1.062-1.79
	c0.755-1.396,1.161-2.903,1.368-4.469c0.066-0.496,0.122-0.994,0.186-1.49c0.09-0.698,0.254-1.395,0.262-2.094
	c0.016-1.375-0.022-2.753-0.098-4.127c-0.053-0.946,0.065-1.848,0.431-2.714c0.16-0.378,0.379-0.712,0.728-0.973
	c0.713-0.532,1.52-0.864,2.346-1.146c0.539-0.184,1.11-0.275,1.665-0.415c1.387-0.349,2.693-0.925,4.013-1.459
	c0.653-0.264,1.285-0.585,1.948-0.821c1.139-0.405,2.031-1.147,2.802-2.03c0.732-0.838,1.234-1.822,1.53-2.903
	c0.026-0.095,0.047-0.213,0.196-0.181c0-0.077,0-0.155,0-0.232c-0.077-0.077-0.155-0.155-0.232-0.232c-0.103,0-0.206,0-0.309,0
	c-0.27,0.614-0.55,1.222-1.079,1.668c-0.423,0.356-0.825,0.739-1.273,1.061c-0.643,0.462-1.383,0.735-2.152,0.905
	c-0.951,0.21-1.909,0.389-2.866,0.57c-0.403,0.076-0.81,0.142-1.218,0.181c-0.818,0.077-1.638,0.131-2.457,0.196
	c-0.038,0.003-0.077,0.008-0.114,0.018c-0.902,0.255-1.839,0.16-2.755,0.278c-0.394,0.051-0.796,0.054-1.185,0.127
	c-0.376,0.071-0.733,0.241-1.11,0.301c-0.692,0.11-1.226,0.481-1.721,0.935c-0.103,0.094-0.206,0.199-0.273,0.319
	c-0.237,0.422-0.434,0.868-0.692,1.276c-0.341,0.537-0.58,1.096-0.711,1.726c-0.176,0.844-0.323,1.686-0.348,2.548
	c-0.008,0.281,0.011,0.563-0.006,0.843c-0.041,0.692-0.089,1.383-0.149,2.074c-0.033,0.381-0.054,0.772-0.155,1.138
	c-0.22,0.803-0.606,1.519-1.26,2.067c-0.077,0.065-0.141,0.151-0.194,0.238c-0.216,0.356-0.514,0.632-0.837,0.887
	c-0.276,0.218-0.574,0.374-0.92,0.461c-0.321,0.081-0.624,0.231-0.941,0.33c-0.082,0.026-0.203,0.002-0.278-0.044
	c-0.294-0.18-0.46-0.188-0.637,0.096c-0.153,0.245-0.366,0.302-0.608,0.344c-0.644,0.111-1.289,0.22-1.935,0.322
	c-0.082,0.013-0.173-0.017-0.256-0.041c-0.218-0.063-0.443-0.1-0.621,0.063c-0.17,0.155-0.375,0.165-0.573,0.19
	c-0.648,0.083-1.298,0.141-1.946,0.222c-0.355,0.045-0.704,0.133-1.06,0.173c-0.393,0.044-0.79,0.051-1.185,0.081
	c-0.724,0.054-1.447,0.117-2.171,0.17c-0.422,0.031-0.846,0.043-1.268,0.073c-0.293,0.021-0.585,0.075-0.879,0.083
	c-0.213,0.006-0.446,0.006-0.635-0.074c-0.191-0.081-0.313-0.035-0.462,0.054c-0.107,0.064-0.221,0.13-0.34,0.157
	c-0.225,0.051-0.461,0.057-0.684,0.114c-0.248,0.062-0.467,0.047-0.707-0.059c-0.256-0.113-0.528-0.095-0.757,0.114
	c-0.064,0.058-0.142,0.124-0.221,0.137c-0.442,0.071-0.887,0.124-1.33,0.187c-0.634,0.09-1.282,0.074-1.902,0.264
	c-0.055,0.017-0.126,0.01-0.182-0.009c-0.342-0.12-0.637-0.001-0.905,0.192c-0.133,0.096-0.258,0.155-0.422,0.15
	c-0.205-0.006-0.411,0.006-0.616,0.005c-0.411-0.001-0.823-0.025-1.233-0.002c-0.419,0.023-0.836,0.092-1.241,0.139
	c-0.156-0.315-0.32-0.377-0.59-0.25c-0.046,0.022-0.091,0.05-0.13,0.083c-0.21,0.181-0.438,0.163-0.686,0.088
	c-0.65-0.197-1.307-0.371-1.954-0.576c-0.402-0.127-0.791-0.296-1.187-0.443c-0.107-0.04-0.217-0.075-0.329-0.101
	c-0.222-0.052-0.449-0.087-0.668-0.147c-0.691-0.189-1.369-0.445-2.071-0.565c-1.085-0.185-2.086-0.626-3.132-0.926
	c-0.64-0.183-1.267-0.411-1.907-0.592c-0.568-0.161-1.148-0.279-1.72-0.426c-0.322-0.083-0.67-0.135-0.952-0.296
	c-0.502-0.286-1.021-0.381-1.586-0.383c-0.274-0.001-0.51,0.02-0.709,0.287c-0.252-0.083-0.525-0.126-0.744-0.257
	c-0.24-0.144-0.471-0.263-0.751-0.252c-0.51,0.02-1.019,0.055-1.529,0.075c-0.321,0.013-0.647-0.021-0.964,0.019
	c-0.813,0.103-1.624,0.228-2.434,0.359c-0.379,0.061-0.763,0.125-1.126,0.246c-0.719,0.239-1.444,0.448-2.188,0.594
	c-0.062,0.012-0.123,0.036-0.183,0.056c-0.411,0.139-0.822,0.278-1.233,0.416c-0.145,0.049-0.292,0.093-0.438,0.139
	c-0.427,0.133-0.854,0.27-1.283,0.397c-0.392,0.117-0.786,0.227-1.181,0.334c-0.791,0.214-1.527,0.614-2.356,0.702
	c-0.075,0.008-0.147,0.043-0.219,0.071c-0.787,0.295-1.614,0.402-2.441,0.501c-0.675,0.08-1.353,0.132-2.03,0.193
	c-0.086,0.008-0.174-0.003-0.26,0.002c-0.642,0.04-1.265-0.2-1.91-0.122c-0.06,0.007-0.132-0.011-0.185-0.042
	c-0.359-0.209-0.755-0.233-1.154-0.236c-0.178-0.002-0.328-0.06-0.434-0.204c-0.124-0.167-0.3-0.225-0.492-0.275
	c-0.326-0.085-0.648-0.137-0.918-0.024c-0.199-0.132-0.349-0.303-0.516-0.322c-0.197-0.022-0.331-0.089-0.465-0.213
	c-0.063-0.058-0.153-0.124-0.229-0.122c-0.079,0.002-0.156,0.081-0.253,0.138c-0.083-0.141-0.149-0.282-0.243-0.401
	c-0.067-0.084-0.164-0.176-0.262-0.199c-0.223-0.052-0.456-0.06-0.684-0.093c-0.111-0.016-0.248-0.013-0.326-0.077
	c-0.345-0.281-0.702-0.556-0.996-0.887c-0.175-0.198-0.348-0.332-0.598-0.372c-0.138-0.022-0.28-0.027-0.42-0.036
	c-0.223-0.013-0.427-0.182-0.494-0.395c-0.033-0.107-0.09-0.208-0.138-0.31c-0.044-0.092-0.136-0.186-0.129-0.272
	c0.033-0.381-0.21-0.549-0.493-0.695c-0.102-0.053-0.209-0.097-0.315-0.143c-0.325-0.139-0.607-0.317-0.777-0.653
	c-0.082-0.162-0.24-0.288-0.368-0.426c-0.145-0.157-0.296-0.309-0.437-0.455c0.073-0.138,0.149-0.225,0.161-0.319
	c0.015-0.12,0.025-0.302-0.045-0.359c-0.22-0.182-0.443-0.414-0.779-0.322c-0.184,0.05-0.282-0.037-0.385-0.172
	c-0.217-0.283-0.449-0.555-0.686-0.846c0.009-0.023,0.034-0.069,0.043-0.118c0.061-0.324,0.013-0.582-0.289-0.808
	c-0.235-0.175-0.485-0.165-0.727-0.187c-0.231-0.021-0.381-0.102-0.515-0.277c-0.109-0.142-0.229-0.281-0.368-0.391
	c-0.217-0.171-0.367-0.379-0.513-0.612c-0.216-0.343-0.457-0.713-0.939-0.703c-0.301,0.006-0.537-0.137-0.784-0.263
	c-0.263-0.134-0.516-0.287-0.779-0.42c-0.205-0.104-0.365-0.24-0.424-0.47c-0.049-0.192-0.177-0.299-0.348-0.384
	c-0.244-0.121-0.48-0.244-0.767-0.21c-0.086,0.01-0.196,0.003-0.261-0.043c-0.148-0.104-0.307-0.172-0.472-0.224
	c-0.291-0.149-0.596-0.274-0.915-0.372c-0.202-0.141-0.421-0.244-0.668-0.298c-0.095-0.021-0.23-0.068-0.258-0.139
	c-0.102-0.252-0.322-0.319-0.537-0.399c-0.307-0.114-0.57-0.279-0.788-0.532c-0.104-0.12-0.261-0.204-0.408-0.276
	c-0.23-0.114-0.497-0.168-0.703-0.312c-0.33-0.232-0.699-0.294-1.074-0.328c-0.384-0.034-0.771-0.021-1.157-0.03
	c-0.062-0.001-0.134,0.007-0.185-0.02c-0.367-0.191-0.753-0.187-1.153-0.165c-0.232,0.012-0.509-0.002-0.695-0.118
	c-0.263-0.164-0.488-0.188-0.76-0.082c-0.415,0.162-0.835,0.314-1.247,0.468c-0.25-0.313-0.504-0.437-0.762-0.36
	c-0.297,0.089-0.423,0.335-0.464,0.61c-0.058,0.391-0.296,0.664-0.514,0.952c-0.342-0.131-0.348-0.127-0.538,0.108
	c-0.16,0.198-0.325,0.393-0.488,0.589c-0.589-0.07-0.584-0.067-0.924,0.44c-0.098,0.146-0.206,0.32-0.353,0.392
	c-0.549,0.267-1.054,0.641-1.685,0.721c-0.202,0.026-0.398,0.092-0.596,0.145c-0.312,0.084-0.616,0.145-0.946,0.048
	c-0.203-0.06-0.447-0.101-0.643-0.047c-0.53,0.146-1.057,0.145-1.596,0.108c-0.241-0.017-0.487,0.016-0.73,0.033
	c-0.19,0.013-0.38,0.042-0.57,0.056c-0.255,0.018-0.512,0.023-0.766,0.044c-0.28,0.024-0.561,0.051-0.838,0.095
	c-0.148,0.024-0.327,0.046-0.427,0.14c-0.341,0.316-0.775,0.482-1.141,0.763c-0.465,0.357-0.903,0.71-1.172,1.208
	c-0.098-0.027-0.18-0.079-0.231-0.058c-0.218,0.089-0.425,0.205-0.64,0.301c-0.627,0.279-1.172,0.681-1.697,1.116
	c-0.196,0.162-0.394,0.321-0.591,0.482C5.7,61.85,5.599,61.921,5.51,62.005c-0.074,0.069-0.121,0.173-0.203,0.225
	c-0.505,0.324-0.745,0.858-1.07,1.325c0,0.155,0,0.309,0,0.464c0.084,0.233,0.172,0.464,0.25,0.698
	c0.157,0.476,0.086,1.031,0.493,1.422c0.023,0.022,0.018,0.074,0.029,0.111c0.062,0.209,0.135,0.416,0.187,0.628
	c0.055,0.228,0.18,0.32,0.403,0.226c0.107,0.404,0.108,0.405,0.34,0.607c0.087-0.033,0.174-0.066,0.264-0.1
	c0.284,0.991,0.284,0.991,0.56,1.07c0.08-0.183,0.109-0.381,0.143-0.578c0.006-0.012,0.012-0.024,0.017-0.037
	c0.064-0.163,0.128-0.325,0.192-0.488C7.171,67.789,7.203,68,7.251,68.208c0.06,0.263,0.126,0.525,0.214,0.78
	c0.027,0.08,0.13,0.133,0.199,0.199c0.066-0.072,0.158-0.133,0.193-0.217c0.041-0.1,0.054-0.211,0.077-0.318
	c0.011-0.019,0.022-0.039,0.031-0.061c0.098-0.234,0.196-0.468,0.294-0.703c0.025,0.446,0.039,0.81,0.071,1.172
	c0.019,0.217,0.052,0.435,0.111,0.644c0.022,0.079,0.134,0.177,0.209,0.182c0.068,0.004,0.18-0.096,0.206-0.173
	c0.098-0.29,0.183-0.587,0.248-0.887c0.098-0.455,0.335-0.824,0.641-1.161c0.208,0.187,0.212,0.187,0.225,0.46
	c0.013,0.291,0.026,0.582,0.114,0.858c0.006,0.03,0.012,0.061,0.018,0.091c0.013,0.06,0.04,0.105,0.075,0.138
	c0.012,0.023,0.024,0.046,0.038,0.069c0.115,0.196,0.242,0.21,0.384,0.029c0.106-0.135,0.198-0.282,0.337-0.483
	c0.023,0.155,0.029,0.219,0.041,0.281c0.053,0.267,0.102,0.534,0.157,0.8c0.003,0.069,0.006,0.137,0.009,0.206
	c0.003,0.078,0.034,0.141,0.079,0.189c0.004,0.017,0.008,0.034,0.012,0.051c0.022,0.09,0.145,0.156,0.221,0.233
	c0.074-0.077,0.186-0.143,0.215-0.235c0.089-0.281,0.141-0.573,0.218-0.858c0.085-0.312,0.183-0.621,0.275-0.931
	c0.034,0.069,0.063,0.138,0.088,0.206c0.021,0.088,0.049,0.174,0.083,0.257c0.034,0.119,0.065,0.236,0.102,0.352
	c0.096,0.305,0.2,0.611,0.335,0.9c0.092,0.196,0.307,0.21,0.58,0.098C13.551,70.294,13.494,70.157,13.471,69.995z"/>
</g>
</svg>
