<?xml version="1.0" encoding="iso-8859-1"?>
<!-- Generator: Adobe Illustrator 17.1.0, SVG Export Plug-In . SVG Version: 6.00 Build 0)  -->
<!DOCTYPE svg PUBLIC "-//W3C//DTD SVG 1.1//EN" "http://www.w3.org/Graphics/SVG/1.1/DTD/svg11.dtd">
<svg version="1.1" id="Capa_1" xmlns="http://www.w3.org/2000/svg" xmlns:xlink="http://www.w3.org/1999/xlink" x="0px" y="0px"
	 viewBox="0 0 150 150" style="enable-background:new 0 0 150 150;" xml:space="preserve">
<g>
	<path d="M136.29,73.808c2.231-3.097,4.161-5.776,6.229-8.647c-0.64-0.444-1.204-0.993-1.879-1.281
		c-11.997-5.113-24.25-9.277-37.364-10.491c-1.161-0.107-2.631-1.535-3.169-2.71c-1.032-2.255-1.39-4.809-2.261-7.151
		c-0.278-0.748-1.516-1.859-1.942-1.713c-2.578,0.879-5.099,1.973-7.537,3.199c-1.744,0.877-3.202,2.489-5.011,3.039
		c-3.522,1.07-6.061,3.297-8.379,5.912c-1.584,1.787-3.485,2.132-5.07,0.512c-5.009-5.118-9.991-4.291-15.506-0.806
		c-3.202,2.024-6.892,3.275-11.069,5.2c2.674,1.154,4.695,2.026,7.699,3.323c-9.569,1.733-18.062,5.583-26.46-1.095
		c-4.543-3.612-9.442-6.806-14.359-9.903c-2.101-1.323-4.66-1.921-7.69-3.116c4.79,7.011,9.042,13.156,13.175,19.381
		c0.55,0.829,1.009,2.337,0.625,3.065c-2.07,3.93-4.281,7.803-6.723,11.512c-1.467,2.228-3.441,4.122-4.917,6.813
		c2.829-1.259,5.781-2.302,8.457-3.828c3.958-2.257,7.721-4.856,11.567-7.31c3.799-2.425,7.815-3.448,12.357-2.454
		c4.188,0.917,8.451,1.491,12.792,2.981c-1.077,0.29-2.155,0.58-3.317,0.893c3.865,2.888,7.662,5.775,11.519,8.582
		c1.639,1.193,2.582,0.345,3.443-1.237c3.055-5.612,3.067-5.371,9.214-4.456c7.77,1.156,15.6,1.912,23.404,2.844
		c0.987,0.118,1.97,0.259,2.904,0.383c0.023,0.465,0.129,0.793,0.03,0.876c-4.423,3.731-3.578,7.729-0.822,12.011
		c1.346,2.091,2.291,4.441,3.447,6.733c5.429-4.012,5.362-10.136,5.659-15.891c0.165-3.18,0.854-4.21,4.193-4.336
		c4.285-0.162,8.547-1.215,12.795-2.01c6.825-1.278,13.642-2.607,20.436-4.036c1.565-0.329,3.025-1.153,4.533-1.749
		c-0.08-0.449-0.159-0.898-0.239-1.348C143.742,74.98,140.432,74.46,136.29,73.808z"/>
</g>
</svg>
