<?xml version="1.0" encoding="iso-8859-1"?>
<!-- Generator: Adobe Illustrator 17.1.0, SVG Export Plug-In . SVG Version: 6.00 Build 0)  -->
<!DOCTYPE svg PUBLIC "-//W3C//DTD SVG 1.1//EN" "http://www.w3.org/Graphics/SVG/1.1/DTD/svg11.dtd">
<svg version="1.1" id="Capa_1" xmlns="http://www.w3.org/2000/svg" xmlns:xlink="http://www.w3.org/1999/xlink" x="0px" y="0px"
	 viewBox="0 0 150 150" style="enable-background:new 0 0 150 150;" xml:space="preserve">
<g>
	<path d="M8.526,61.455c0.378-1.338,1.088-1.453,2.467-1.35c1.611,0.12,3.458-0.221,4.884-0.971
		c2.249-1.183,4.219-1.401,6.444-0.099c3.449,2.018,7.106,1.414,10.786,0.721c1.062-0.2,2.259-0.019,3.333,0.24
		c2.363,0.568,4.672,1.364,7.037,1.923c0.776,0.183,1.657-0.077,2.695-0.149c-0.003-0.008-0.005-0.016-0.008-0.024
		c0.555,0.09,1.111,0.148,1.668,0.172c0.337,0.554,0.694,1.101,1.073,1.64c1.997,2.838,4.259,5.495,6.49,8.159
		c1.402,1.674,2.761,3.509,4.518,4.724c1.565,1.083,1.45,2.925,2.706,4.064c2.419,2.192,4.073,4.717,2.438,8.172
		c-0.079,0.166-0.05,0.393-0.039,0.59c0.269,4.942,0.061,9.965,2.335,14.582c1.196,2.428,2.37,4.871,3.674,7.241
		c1.26,2.292,3.173,4.367,1.747,7.302c-0.25,0.516-0.374,1.136-0.396,1.714c-0.052,1.41-0.97,1.576-2.047,1.529
		c-3.36-0.148-6.721-0.46-10.08-0.436c-3.689,0.027-7.384,0.278-11.059,0.618c-0.766,0.071-1.802,0.796-2.119,1.491
		c-1.142,2.503,0.195,5.417,2.995,6.759c-0.398-1.138-0.758-2.166-1.157-3.307c1.812-0.628,2.512-3.064,5.347-2.504
		c-0.615,0.243-0.893,0.263-0.982,0.403c-0.596,0.937-1.336,1.844-1.649,2.876c-0.179,0.589,0.168,1.568,0.617,2.065
		c0.719,0.797,1.668,1.43,2.615,1.964c0.959,0.541,2.034,0.879,3.058,1.306c0.076-0.141,0.152-0.283,0.229-0.424
		c-0.589-0.91-1.177-1.821-1.967-3.042c1.445-0.625,2.591-1.431,3.824-1.597c4.553-0.612,9.135-1.016,13.707-1.486
		c0.325-0.033,0.726-0.075,0.98,0.075c3.021,1.788,6.464,1.61,9.752,2.168c2.409,0.409,2.925,1.47,2.03,3.744
		c-0.126,0.32-0.159,0.678-0.315,1.373c1.05-0.743,1.727-1.529,2.551-1.741c1.692-0.435,2.037-1.607,1.503-2.835
		c-0.639-1.468-1.746-2.733-2.547-3.931c0.46,0.142,1.62,0.145,2.138,0.723c1.921,2.146,4.233,2.083,6.726,1.684
		c0.843-0.135,1.722-0.124,2.579-0.077c2.211,0.121,3.86,1.397,5.015,3.08c0.384,0.559-0.278,1.835-0.473,2.842
		c1.939,0.471,2.471-1.297,3.371-2.476c1.412-1.85,0.84-4.118-1.359-4.787c-3.088-0.94-6.229-1.724-9.375-2.449
		c-2.387-0.55-2.694-0.992-1.767-3.335c1.418,0.253,2.833,0.595,4.268,0.737c1.371,0.136,2.046-0.506,1.477-1.931
		c-0.411-1.031-0.896-2.033-1.425-3.223c2.316,0.526,1.495-1.362,1.79-2.229c1.682,0.482,3.242,1.274,4.817,1.306
		c2.965,0.06,4.367,1.735,5.237,4.176c1.983,5.571,5.484,10.112,9.792,14.005c1.86,1.68,4.198,2.83,6.32,4.221h1.988
		c-0.04-0.516,0.094-1.141-0.15-1.528c-0.88-1.395-1.888-2.709-2.848-4.053c0.174-0.119,0.347-0.239,0.521-0.358
		c0.528,0.494,1.067,0.975,1.581,1.484c1.646,1.629,3.443,2.944,5.932,2.579c0.73-0.107,1.427-0.437,2.139-0.665
		c-0.278-0.7-0.446-1.474-0.854-2.087c-1.317-1.976-2.724-3.892-4.096-5.832c0.162-0.131,0.324-0.263,0.487-0.394
		c0.567,0.501,1.075,1.098,1.712,1.486c1.87,1.139,3.722,2.356,5.726,3.2c0.755,0.318,1.906-0.302,2.877-0.495
		c-0.232-0.898-0.22-1.981-0.738-2.662c-2.698-3.547-5.522-6.997-8.338-10.517c0.23-0.222,0.296-0.547,0.23-0.857
		c0.636-0.108,1.275-0.24,1.916-0.409c0.994-0.261,1.942-0.701,2.911-1.058c-4.499-1.488-8.933-2.398-13.22-3.677
		c0.104-0.138,0.191-0.287,0.264-0.445c1.045,0.055,2.1,0.05,3.166-0.038c0.13-0.011,0.246-0.041,0.365-0.067
		c5.435,1.224,11.131,1.316,17.119,0.149v-0.795c-2.961-0.888-5.868-2.132-8.894-2.591c-7.05-1.069-12.516-5.054-18.019-9.067
		c-0.016-0.011,0.046-0.131,0.116-0.289c0.052-0.003,0.104-0.005,0.155-0.009c7.939,4.992,15.721,10.596,26.698,7.416
		c-1.332-1.06-2.2-1.937-3.23-2.532c-2.516-1.454-5.135-2.731-7.65-4.187c-0.634-0.367-1.302-1.061-1.5-1.738
		c-1.769-6.071-4.095-11.992-4.348-18.45c-0.504-12.881-6.375-23.205-15.59-31.859c-4.286-4.026-8.539-8.088-12.861-12.075
		c-4.899-4.519-9.741-9.111-14.83-13.409c-3.668-3.098-7.578-6.245-12.893-5.348c-3.208,0.542-6.397,1.395-9.469,2.467
		c-0.39,0.136-0.668,0.308-0.847,0.506c-0.616,0.084-1.224,0.24-1.809,0.486c-0.028,0.012-0.055,0.026-0.082,0.038
		c-1.727-2.01-3.558-3.936-6.003-5.185h-2.386c-4.813,1.18-6.772,4.678-7.225,9.205c-0.485,4.849-0.978,9.716-1.045,14.581
		c-0.036,2.569,0.265,5.141,0.49,7.713c-1.27,0.978-2.419,2.1-3.425,3.344c-1.573,1.717-3.236,1.872-5.039,0.163
		c-2.934-2.78-6.119-3.156-9.872-1.974c-4.498,1.417-9.095,2.52-13.658,3.729c-2.397,0.635-4.64,1.475-5.953,3.794v4.374
		c0.44,0.928,0.88,1.856,1.434,3.024C8.12,62.029,8.436,61.774,8.526,61.455z M80.839,124.422c0.028-0.023,0.06-0.042,0.085-0.067
		c0.193-0.053,0.386-0.105,0.58-0.158c0.128-0.035,0.233-0.09,0.325-0.155c0.813,0.253,1.627,0.506,2.44,0.76
		C83.085,124.818,81.931,124.705,80.839,124.422z M77.401,115.763c2.426,0.657,4.511,1.263,6.621,1.767
		c0.617,0.148,1.304,0.006,1.958-0.003c-0.129-0.743-0.042-1.638-0.434-2.197c-0.788-1.126-1.837-2.07-2.779-3.089
		c0.123-0.133,0.246-0.266,0.368-0.398c2.317,2.286,4.803,4.435,6.844,6.945c0.571,0.702-0.023,2.515-0.404,3.717
		c-0.098,0.309-1.424,0.346-2.176,0.309c-1.871-0.09-3.737-0.27-5.606-0.39c-0.209-0.159-0.488-0.233-0.819-0.143
		c-0.094,0.026-0.188,0.051-0.281,0.077c-0.006,0-0.012-0.001-0.019-0.001c-0.611-0.029-1.236,0.234-1.855,0.364
		c0.005,0.048,0.009,0.096,0.013,0.144c-0.077,0.021-0.154,0.042-0.23,0.063c-0.204,0.056-0.381,0.179-0.511,0.341
		c-0.779-0.51-1.375-1.219-1.354-2.333C76.767,119.257,77.152,117.586,77.401,115.763z"/>
</g>
</svg>
