<?xml version="1.0" encoding="iso-8859-1"?>
<!-- Generator: Adobe Illustrator 17.1.0, SVG Export Plug-In . SVG Version: 6.00 Build 0)  -->
<!DOCTYPE svg PUBLIC "-//W3C//DTD SVG 1.1//EN" "http://www.w3.org/Graphics/SVG/1.1/DTD/svg11.dtd">
<svg version="1.1" id="Capa_1" xmlns="http://www.w3.org/2000/svg" xmlns:xlink="http://www.w3.org/1999/xlink" x="0px" y="0px"
	 viewBox="0 0 150 150" style="enable-background:new 0 0 150 150;" xml:space="preserve">
<g>
	<path d="M14.019,65.355c4.61,4.123,10.206,6.261,16.188,7.482c2.943,0.601,5.919,0.932,8.914,1.109
		c1.353,0.001,2.706,0.002,4.06,0.003c0.118,0,0.218,0.027,0.302,0.072c0.022,0,0.044,0,0.066,0
		c3.669,0.014,7.329-0.146,10.97-0.634c1.569-0.21,3.151-0.341,4.709-0.611c2.264-0.392,4.51-0.891,6.77-1.303
		c0.307-0.056,0.705,0.044,0.978,0.209c0.696,0.422,1.384,0.821,2.231,0.787c0.338-0.014,0.503,0.109,0.519,0.466
		c0.026,0.59,0.079,1.18,0.132,1.769c0.146,1.605,0.393,3.189,1.188,4.624c0.677,1.222,1.712,1.6,2.996,1.048
		c0.556-0.239,1.096-0.564,1.561-0.95c0.363-0.302,0.591-0.339,1.038-0.142c0.78,0.343,1.612,0.641,2.449,0.756
		c0.58,0.08,0.791,0.271,0.904,0.795c0.671,3.107,0.596,6.209-0.076,9.298c-0.738,3.39-2.112,6.533-3.785,9.559
		c-0.84,1.52-2.247,2.765-2.423,4.481c0.018,0.059,0.029,0.125,0.029,0.197c0.004,1.007,0.701,1.718,1.412,2.343
		c0.714,0.628,1.449,1.225,2.14,1.88c1.448,1.373,2.744,2.899,3.912,4.514c0.067,0.092,0.102,0.183,0.114,0.271
		c0.263,0.38,0.523,0.759,0.771,1.147c0.714,1.115,1.489,2.201,2.088,3.377c1.406,2.761,3.441,4.832,6.297,6.055
		c0.549,0.235,0.98,0.545,1.293,1.052c0.174,0.282,0.412,0.524,0.683,0.863c0.191-1.181,0.172-1.214-0.255-2.096
		c-0.134-0.277-0.234-0.593-0.257-0.898c-0.119-1.553-0.728-2.891-1.705-4.082c-0.145-0.177-0.283-0.366-0.396-0.564
		c-0.678-1.188-1.223-2.475-2.044-3.553c-2.046-2.685-4.192-5.294-6.354-7.887c-0.466-0.558-0.52-0.987-0.247-1.621
		c1.942-4.513,4.325-8.788,7.017-12.887c2.209-3.364,4.564-6.631,6.761-10.003c1.194-1.833,2.183-3.798,3.291-5.688
		c0.111-0.189,0.394-0.352,0.619-0.386c1.058-0.161,2.143-0.186,3.182-0.42c2.057-0.463,4.09-1.033,6.135-1.554
		c0.172-0.044,0.353-0.05,0.62-0.085c-0.252,2.516-0.494,4.945-0.739,7.373c-0.015,0.147-0.039,0.293-0.073,0.437
		c-0.444,1.902-0.438,1.943-2.345,2.265c-1.417,0.24-2.826,0.953-4.401,0.091c0.237,0.543,0.41,0.941,0.605,1.387
		c-0.35,0.024-0.648,0.044-0.993,0.068c0.057,0.134,0.082,0.212,0.121,0.281c0.862,1.522,2.552,2.238,4.345,1.812
		c0.675-0.16,1.328-0.423,2.007-0.559c0.857-0.171,1.599-0.523,2.211-1.143c1.071-1.085,1.463-2.472,1.729-3.915
		c0.075-0.405,0.155-0.809,0.233-1.214c0.076,0.013,0.153,0.026,0.229,0.039c-0.08,1.022-0.109,2.051-0.256,3.064
		c-0.12,0.828-0.355,1.643-0.583,2.451c-0.174,0.615-0.557,1.035-1.211,1.251c-1.32,0.437-2.45,1.184-3.419,2.2
		c-0.244,0.256-0.692,0.35-1.065,0.442c-0.243,0.06-0.521-0.019-0.934-0.045c0.346,0.444,0.609,0.782,0.921,1.182
		c-0.354,0.18-0.677,0.345-1.132,0.576c0.494,0.1,0.87,0.179,1.248,0.251c3.013,0.576,5.345-0.412,7.041-2.961
		c1.596-2.398,2.355-5.097,2.665-7.906c0.213-1.923,0.223-3.877,0.193-5.816c-0.012-0.802,0.073-1.39,0.754-1.637
		c0.374-0.398,0.834-0.696,1.339-0.946c0.831-0.412,1.698-0.763,2.552-1.128c0.274-0.179,0.55-0.355,0.832-0.521
		c0.566-0.335,1.297-0.379,1.905-0.659c2.247-1.034,3.782-2.626,3.995-5.238c0.023-0.282,0.257-0.604,0.484-0.804
		c1.154-1.014,2.393-1.936,3.492-3.005c0.823-0.801,1.478-1.775,2.247-2.719c1.343,0.73,2.714,1.274,4.237,1.191
		c0.535-0.029,0.842,0.227,1.213,0.528c0.597,0.484,1.214,0.989,1.905,1.302c1.08,0.489,2.09,0.242,2.946-0.621
		c0.394-0.397,0.868-0.715,1.268-1.107c0.102-0.1,0.148-0.397,0.075-0.516c-1.127-1.852-2.284-3.685-3.417-5.534
		c-0.26-0.425-0.506-0.873-0.666-1.342c-0.547-1.596-1.642-2.782-2.861-3.863c-0.5-0.443-1.1-0.778-1.673-1.132
		c-0.37-0.229-0.387-0.453-0.178-0.821c0.647-1.138,1.233-2.302,1.352-3.644c0.081-0.921,0.094-1.826-0.241-2.74
		c-1.389,1.157-2.741,2.269-4.074,3.402c-0.345,0.293-0.584,0.304-0.896-0.05c-0.628-0.712-1.298-1.387-1.947-2.081
		c-0.505-0.54-1.004-1.086-1.618-1.75c-0.052,0.386-0.101,0.534-0.086,0.674c0.256,2.325,0.494,4.653,0.805,6.971
		c0.062,0.464-0.049,0.661-0.391,0.912c-1.424,1.044-2.681,2.257-3.593,3.791c-0.148,0.25-0.246,0.56-0.457,0.736
		c-0.548,0.46-1.122,0.899-1.734,1.267c-0.289,0.174-0.697,0.257-1.034,0.221c-1.538-0.165-3.057-0.256-4.562,0.25
		c-0.543,0.183-1.086,0.326-1.708,0.042c-1.302-0.594-2.628-1.165-3.993-1.587c-2.351-0.728-4.724-1.403-7.118-1.972
		c-1.945-0.462-3.925-0.812-5.908-1.076c-2.991-0.398-5.978-0.223-8.958,0.253c-3.94,0.629-7.556,2.025-10.818,4.331
		c-0.568,0.401-1.129,0.832-1.748,1.137c-2.84,1.397-5.681,2.795-8.557,4.116c-3.519,1.617-7.201,2.808-10.931,3.819
		c-3.851,1.044-7.758,1.805-11.75,2.168c-2.78,0.253-5.55,0.496-8.34,0.402c-0.308-0.01-0.616-0.026-0.925-0.046
		c-0.123,0.075-0.274,0.112-0.446,0.088c-0.303-0.043-0.605-0.087-0.908-0.13c-0.804,0.005-1.603-0.081-2.386-0.256
		c-0.02-0.002-0.04-0.003-0.061-0.005c-3.66-0.449-7.241-1.239-10.7-2.526c-4.564-1.697-8.688-4.127-12.233-7.49
		c-0.544-0.516-1.019-1.105-1.59-1.732c-0.084,0.245-0.115,0.288-0.107,0.321C8.941,59.074,10.927,62.589,14.019,65.355z"/>
</g>
</svg>
