<?xml version="1.0" encoding="iso-8859-1"?>
<!-- Generator: Adobe Illustrator 17.1.0, SVG Export Plug-In . SVG Version: 6.00 Build 0)  -->
<!DOCTYPE svg PUBLIC "-//W3C//DTD SVG 1.1//EN" "http://www.w3.org/Graphics/SVG/1.1/DTD/svg11.dtd">
<svg version="1.1" id="Capa_1" xmlns="http://www.w3.org/2000/svg" xmlns:xlink="http://www.w3.org/1999/xlink" x="0px" y="0px"
	 viewBox="0 0 150 150" style="enable-background:new 0 0 150 150;" xml:space="preserve">
<g>
	<path d="M145.626,109.748c-1.074-0.311-2.137-0.727-3.235-0.875c-3.012-0.406-5.988-0.927-8.835-2.03
		c-2.603-1.008-4.976-2.372-6.805-4.539c-1.033-1.223-1.771-2.597-2.04-4.198c-0.128-0.759-0.002-1.372,0.582-1.981
		c0.57-0.595,1.013-1.354,1.36-2.11c0.622-1.356,1.097-2.779,1.695-4.148c0.583-1.333,1.336-2.597,1.852-3.953
		c1.498-3.94,1.751-8.028,1.417-12.207c-0.224-2.803-0.196-5.626-0.274-8.44c-0.033-1.2-0.001-2.403-0.087-3.599
		c-0.082-1.144-0.324-2.256-1.08-3.196c-0.152-0.189-0.187-0.512-0.188-0.774c-0.007-1.464-0.237-2.861-1.075-4.108
		c-0.101-0.151-0.151-0.365-0.151-0.55c0.001-1.079,0.051-2.159,0.032-3.237c-0.016-0.877-0.229-1.709-0.74-2.453
		c-0.137-0.2-0.231-0.473-0.234-0.714c-0.029-2.535-1.182-4.784-1.81-7.166c-0.088-0.332-0.336-0.618-0.476-0.94
		c-0.077-0.178-0.151-0.405-0.108-0.581c0.204-0.833,0.15-1.569-0.442-2.27c-0.258-0.306-0.332-0.778-0.453-1.185
		c-0.156-0.525-0.208-1.091-0.425-1.586c-0.423-0.964-0.913-1.9-1.406-2.832c-0.46-0.87-0.969-1.714-1.443-2.576
		c-2.183-3.971-5.454-6.568-9.838-7.716c-0.867-0.227-1.783-0.339-2.68-0.359c-2.265-0.052-4.201,0.875-5.991,2.18
		c-0.539,0.393-1.071,0.826-1.67,1.104c-2.071,0.962-3.92,2.23-5.306,4.043c-1.32,1.727-2.79,3.302-4.302,4.853
		c-1.88,1.928-3.559,4-4.409,6.629c-0.152,0.472-0.467,0.92-0.802,1.294c-0.252,0.282-0.633,0.53-0.998,0.615
		c-1.665,0.39-2.931,1.18-3.457,2.928c-0.11,0.366-0.461,0.736-0.799,0.945c-2,1.237-3.818,2.666-5.046,4.71
		c-0.289,0.482-0.626,0.715-1.137,0.892c-0.675,0.233-1.353,0.535-1.931,0.945c-0.536,0.38-0.924,0.963-1.412,1.42
		c-1.45,1.359-3.025,2.519-5.002,3.009c-0.61,0.151-1.239,0.252-1.825,0.468c-1.956,0.722-3.891,1.502-5.846,2.228
		c-1.307,0.485-2.608,1.026-3.958,1.343c-1.643,0.386-3.343,0.518-5.003,0.839c-2.366,0.459-4.738,0.797-7.154,0.662
		c-2.331-0.13-4.647,0.033-6.95,0.374c-4.811,0.713-9.428,2.126-13.967,3.842c-5.212,1.971-9.67,4.945-12.861,9.591
		c-3.041,4.43-4.854,9.289-4.88,14.731c-0.001,0.169-0.066,0.337-0.101,0.506v1.419c0.057,0.307,0.087,0.621,0.177,0.918
		c0.44,1.446,0.927,2.879,1.339,4.333c0.813,2.87,2.349,5.311,4.349,7.485c2.329,2.532,5.077,4.529,8.024,6.272
		c3.192,1.888,6.473,3.591,10.032,4.689c1.795,0.554,3.619,0.972,5.519,0.655c1.007-0.168,1.891-0.574,2.531-1.466
		c-1.793-0.789-3.628-1.332-5.238-2.376c0.32-0.062,0.612-0.04,0.905-0.034c0.314,0.006,0.63,0.017,0.942-0.012
		c0.885-0.08,1.103-0.482,0.714-1.262c-0.166-0.333-0.346-0.668-0.449-1.022c-0.146-0.505,0.035-0.704,0.532-0.557
		c0.505,0.15,0.968,0.436,1.469,0.6c1.033,0.338,2.065,0.707,3.126,0.922c0.783,0.159,1.08-0.277,0.87-1.06
		c-0.091-0.34-0.218-0.67-0.303-0.93c0.953,0.567,1.882,1.19,2.875,1.687c0.767,0.384,1.62,0.458,2.473,0.186
		c0.834-0.266,1.3-1.331,0.664-2.135c-0.062-0.078-0.124-0.155-0.186-0.232c1.305,0.221,2.609,0.442,3.914,0.663
		c3.879,1.322,7.884,1.88,12.019,1.636c0.317-0.019,0.557-0.116,0.778-0.282c0.689-0.032,1.374-0.111,2.059-0.207
		c-0.203,0.156-0.406,0.313-0.608,0.469c-0.404,0.312-0.703,0.797-0.958,1.254c-0.246,0.44-0.345,0.959-0.56,1.42
		c-1.275,2.738-2.119,5.688-4.124,8.248c0.929-0.047,1.742,0.004,2.517-0.145c2.876-0.551,5.757-1.093,8.602-1.778
		c4.757-1.145,9.431-2.635,14.33-3.171c2.013-0.22,3.979-0.767,5.804-1.708c0.923-0.476,1.754-1.066,2.267-2.004
		c0.432-0.79,0.372-1.619,0.106-2.466c0.121-0.013,0.198-0.026,0.275-0.028c4.039-0.083,8.07-0.294,12.061-0.953
		c3.459-0.572,6.894-1.251,9.78-3.202c0.772,0.489,1.457,1.045,2.236,1.387c1.202,0.527,2.446,0.993,3.713,1.332
		c3.624,0.969,7.34,1.396,11.071,1.709c5.285,0.443,10.577,0.589,15.877,0.433c0.202-0.006,0.402-0.059,0.603-0.09
		C145.94,109.937,145.796,109.797,145.626,109.748z"/>
</g>
</svg>
