<?xml version="1.0" encoding="iso-8859-1"?>
<!-- Generator: Adobe Illustrator 17.1.0, SVG Export Plug-In . SVG Version: 6.00 Build 0)  -->
<!DOCTYPE svg PUBLIC "-//W3C//DTD SVG 1.1//EN" "http://www.w3.org/Graphics/SVG/1.1/DTD/svg11.dtd">
<svg version="1.1" id="Capa_1" xmlns="http://www.w3.org/2000/svg" xmlns:xlink="http://www.w3.org/1999/xlink" x="0px" y="0px"
	 viewBox="0 0 150 150" style="enable-background:new 0 0 150 150;" xml:space="preserve">
<g>
	<path d="M136.434,79.424c0.862-3.522,3.394-5.639,8.333-7.486c0.415-3.207-1.983-4.06-4.229-4.991
		c-7.392-3.064-14.682-6.426-22.232-9.036c-5.278-1.825-10.901-2.684-16.405-3.807c-1.474-0.301-1.948-0.78-2.563-2.257
		c-1.104-2.651-3.054-4.95-4.776-7.588c-2.047,1.958-2.154-1.086-3.712-1.39c-0.214,0.44-0.519,1.069-1.034,2.127
		c-0.775-1.133-1.401-2.048-2.225-3.252c-0.753,1.519-1.221,2.462-1.808,3.646c-1.122-0.893-1.986-1.581-2.927-2.33
		c-0.372,1.193-0.705,2.262-1.113,3.573c-0.884-0.515-1.599-0.932-2.439-1.421c-0.278,1.023-0.538,1.98-0.875,3.218
		c-0.984-0.542-1.761-0.97-2.544-1.401c-1.396,3.199-1.396,3.199-4.335,1.516c-0.236,0.542-0.434,1.081-0.701,1.583
		c-0.237,0.445-0.552,0.849-0.91,1.39c-0.97-0.456-1.825-0.857-2.695-1.266c-2.028,1.274-3.983,1.616-6.034-0.138
		c-3.149-2.692-6.944-1.673-10.301-0.983c-5.228,1.075-8.823,4.942-12.09,8.931c-1.224,1.494-0.872,3.173,0.425,4.551
		c0.643,0.684,1.437,1.226,2.774,2.343c-5.667-0.075-10.711,0.499-14.716-3.724c-3.759-3.963-7.589-7.858-11.421-11.75
		c-1.73-1.757-3.806-2.74-6.385-2.525c-2.41,15.33-3.62,30.597-1.474,46.13c2.962,0.117,5.533-1.273,7.87-2.973
		c3.345-2.434,6.681-4.929,9.717-7.727c4.318-3.98,9.037-4.741,14.392-2.735c1.87,0.701,3.754,1.365,5.544,2.565
		c-1.294,0-2.588,0.011-3.881-0.002c-2.521-0.025-3.431,0.904-3.058,3.355c0.317,2.084,0.615,4.2,1.24,6.203
		c1.314,4.209,4.66,5.444,8.492,3.243c2.887-1.658,5.72-3.408,9.041-4.716c-0.223,0.651-0.447,1.303-0.714,2.08
		c0.279-0.085,0.562-0.085,0.703-0.227c2.89-2.896,5.961-3.377,10.168-2.56c6.519,1.267,13.294,1.225,19.963,1.711
		c1.039,0.076,2.089,0.011,4.072,0.011c-3.285,2.171-2.292,3.745-0.846,5.88c1.518,2.242,2.129,5.088,3.229,7.63
		c0.405,0.936,1.075,1.757,1.962,3.167c0.976-1.491,2.015-2.521,2.389-3.752c1.093-3.599,2.114-7.245,2.769-10.942
		c0.311-1.757,0.736-2.666,2.592-2.845c5.055-0.488,10.116-0.969,15.141-1.691c3.901-0.56,7.783-1.343,11.613-2.275
		c4.011-0.976,7.952-2.237,11.919-3.392c4.237-1.234,4.767-2.741,2.574-5.823C142.053,77.995,139.397,78.67,136.434,79.424z"/>
</g>
</svg>
