<?xml version="1.0" encoding="iso-8859-1"?>
<!-- Generator: Adobe Illustrator 17.1.0, SVG Export Plug-In . SVG Version: 6.00 Build 0)  -->
<!DOCTYPE svg PUBLIC "-//W3C//DTD SVG 1.1//EN" "http://www.w3.org/Graphics/SVG/1.1/DTD/svg11.dtd">
<svg version="1.1" id="Capa_1" xmlns="http://www.w3.org/2000/svg" xmlns:xlink="http://www.w3.org/1999/xlink" x="0px" y="0px"
	 viewBox="0 0 150 150" style="enable-background:new 0 0 150 150;" xml:space="preserve">
<g>
	<path d="M50.635,66.017c-2.305,2.211-4.621,4.413-6.85,6.699c-0.903,0.926-1.772,1.045-2.995,0.792
		c-3.599-0.747-7.22-1.413-10.853-1.971c-3.572-0.549-7.168-0.958-10.762-1.341c-0.434-0.046-0.99,0.378-1.371,0.718
		c-0.166,0.148-0.264,0.373-0.37,0.645c-0.134,0.347,0.045,0.662,0.414,0.71c7.199,0.935,14.408,1.872,21.617,2.808
		c0.369,0.048,0.701,0.188,0.742,0.312s-0.151,0.426-0.429,0.674c-0.251,0.225-0.503,0.448-0.764,0.66
		c-2.738,2.231-5.557,4.369-8.206,6.701c-5.36,4.72-8.793,10.558-9.75,17.72c-0.11,0.824-0.103,1.682-0.018,2.51
		c0.258,2.523,1.411,3.784,3.896,3.698c0.226-0.008,0.451-0.017,0.676-0.027c0.372-0.016,0.969,0.02,1.338,0.073
		c8.447,1.214,17.015-2.197,22.243-8.879c0.229-0.293,0.572-0.652,0.795-0.753s0.695-0.009,1.045,0.117
		c0.85,0.306,1.749,0.461,2.677,0.48c0.372,0.008,0.969,0.062,1.341,0.067c0.302,0.004,0.608-0.033,0.913-0.117
		c1.279-0.352,2.21-1.456,2.424-2.713c0.062-0.366,0.216-0.918,0.427-1.224c0.037-0.054,0.075-0.108,0.112-0.162
		c0.211-0.306,0.6-0.763,0.87-1.019c0.387-0.367,0.783-0.743,1.191-1.131c0.27-0.256,0.472-0.163,0.453,0.209
		c-0.251,4.798-0.505,9.628-0.755,14.458c-0.029,0.559-0.093,1.123-0.05,1.677c0.328,4.229,0.361,8.514,1.118,12.666
		c0.641,3.518,1.589,7.098,2.882,10.393c1.448,3.688,3.982,6.974,6.221,10.316c1.116,1.666,2.144,1.765,3.892,0.716
		c0.042-0.025,0.084-0.051,0.126-0.076c0.07-0.042,0.183-0.042,0.253,0c0.042,0.026,0.084,0.051,0.126,0.076
		c1.748,1.049,2.776,0.95,3.892-0.716c2.239-3.342,4.773-6.628,6.221-10.316c1.294-3.295,2.241-6.875,2.883-10.393
		c0.757-4.152,0.79-8.438,1.118-12.666c0.043-0.554-0.021-1.118-0.05-1.677c-0.251-4.83-0.504-9.66-0.755-14.458
		c-0.019-0.372,0.183-0.465,0.453-0.209c0.408,0.388,0.804,0.763,1.191,1.131c0.27,0.256,0.658,0.713,0.869,1.019
		c0.037,0.054,0.074,0.108,0.111,0.162c0.211,0.306,0.365,0.858,0.428,1.225c0.214,1.256,1.146,2.361,2.424,2.713
		c0.305,0.084,0.612,0.121,0.913,0.117c0.372-0.005,0.969-0.06,1.341-0.067c0.928-0.02,1.827-0.175,2.677-0.48
		c0.35-0.126,0.82-0.219,1.044-0.117c0.224,0.102,0.566,0.46,0.796,0.753c5.228,6.681,13.795,10.092,22.242,8.879
		c0.368-0.053,0.966-0.089,1.338-0.073c0.225,0.01,0.45,0.019,0.676,0.027c2.485,0.086,3.638-1.175,3.896-3.698
		c0.085-0.829,0.092-1.686-0.018-2.51c-0.958-7.162-4.39-13-9.75-17.72c-2.648-2.332-5.468-4.47-8.206-6.701
		c-0.261-0.212-0.513-0.436-0.764-0.66c-0.277-0.248-0.47-0.549-0.429-0.674s0.373-0.265,0.742-0.312
		c7.209-0.937,14.418-1.873,21.616-2.808c0.369-0.048,0.548-0.363,0.414-0.71c-0.105-0.272-0.204-0.497-0.37-0.645
		c-0.38-0.34-0.936-0.764-1.371-0.718c-3.595,0.383-7.19,0.792-10.762,1.341c-3.633,0.558-7.254,1.224-10.853,1.971
		c-1.223,0.254-2.092,0.134-2.995-0.792c-2.229-2.286-4.545-4.488-6.85-6.699c-1.107-1.062-2.25-2.085-3.351-3.088
		c-0.275-0.25-0.464-0.529-0.427-0.623c0.042-0.106,0.054-0.148,0.08-0.16c0.152-0.07,0.309-0.134,0.47-0.18
		c2.516-0.716,4.887-1.302,7.027-3.308c2.454-2.301,5.79-3.669,8.769-5.399c1.03-0.598,2.402-0.823,3.147-1.645
		c1.139-1.258,1.955-1.641,3.238-0.668c0.296,0.225,0.435,0.145,0.341-0.215c-0.226-0.862-0.42-1.6-0.568-2.165
		c-0.094-0.36-0.426-0.812-0.741-1.01c-0.14-0.088-0.265-0.167-0.376-0.236c-0.315-0.198-0.71-0.091-0.855,0.252
		c-0.262,0.623-0.518,1.3-1.005,1.594c-1.987,1.203-4.483,1.391-6.306,3c-0.04,0.036-0.091,0.078-0.14,0.082
		c-1.832,0.161-2.883,1.615-3.944,2.75c-1.552,1.66-2.947,3.026-5.481,3.019c-1.388-0.004-2.858,0.765-4.142,1.461
		c-1.148,0.622-1.961,0.852-2.867-0.31c-0.929-1.191-1.967-2.3-2.996-3.41c-1.651-1.783-3.109-3.57-2.968-6.281
		c0.054-1.041,0.131-1.694,1.007-2.362c3.465-2.643,5.684-6.148,6.723-10.377c0.238-0.967,0.217-2,0.477-2.959
		c0.513-1.888,1.412-3.71,1.663-5.623c0.551-4.212,1.729-8.043,5.008-10.968c0.082-0.073,0.131-0.182,0.201-0.269
		c1.915-2.35,3.938-4.515,7.035-5.363c1.931-0.529,1.997-1.036,0.61-2.393c-0.128-0.125-0.248-0.26-0.352-0.384
		c-0.185-0.22-0.556-0.208-0.837,0.036c-0.579,0.5-1.159,1.002-1.75,1.513c-0.281,0.243-0.58,0.279-0.668,0.079
		c-0.087-0.199-0.448-0.275-0.785-0.116c-1.468,0.692-2.247,1.973-3.041,3.278c-0.174,0.286-0.582,0.429-1.042,0.602
		c-0.348,0.13-0.793,0.506-1.005,0.812c-1.422,2.049-2.944,4.241-4.47,6.439c-0.212,0.305-0.597,0.407-0.86,0.226
		s-0.504-0.026-0.539,0.344c-0.339,3.606-0.669,7.119-0.998,10.626c-0.035,0.37-0.155,0.601-0.268,0.515s-0.397,0.077-0.651,0.349
		c-0.449,0.484-0.919,0.959-1.16,1.531c-1.273,3.007-3.03,5.604-5.554,7.572c-0.293,0.229-0.756,0.192-1.022-0.068
		c-1.181-1.154-2.339-2.286-3.531-3.45c-0.266-0.26-0.18-0.467,0.192-0.46c0.338,0.007,0.67,0.01,0.999-0.011
		c3.039-0.194,4.994-2.579,4.331-5.533c-0.651-2.899-1.552-5.711-5.109-6.343c-0.366-0.065-0.42-0.262-0.114-0.473
		c1.909-1.312,3.6-2.4,5.074-4.07c3.69-4.179,7.957-7.847,12.036-11.707c0.27-0.256,0.723-0.269,0.935,0.036
		c0.516,0.743,0.893,1.778,2.059,1.958c0.368,0.057,0.644-0.289,0.618-0.66c-0.037-0.53-0.069-1.035-0.177-1.523
		c-0.326-1.478-0.568-3.214-2.427-3.432c-1.684-0.198-3.105,0.467-3.946,2.194c-0.444,0.913-1.264,1.661-1.983,2.419
		c-2.62,2.762-5.257,5.508-7.917,8.231c-0.535,0.548-1.173,1.007-1.804,1.448c-1.234,0.862-2.66,1.518-3.71,2.559
		c-1.117,1.108-2.252,1.852-3.615,2.023c-0.369,0.046-0.672,0.032-0.672,0.026s-0.051-0.007-0.114-0.003
		c-0.063,0.004-0.166,0.004-0.23,0c-0.063-0.004-0.114-0.004-0.114,0.003s-0.302,0.021-0.672-0.026
		c-1.363-0.171-2.498-0.916-3.615-2.023c-1.05-1.041-2.476-1.697-3.71-2.559c-0.631-0.441-1.269-0.9-1.804-1.448
		c-2.66-2.724-5.297-5.469-7.917-8.231c-0.719-0.758-1.538-1.506-1.983-2.419c-0.841-1.727-2.262-2.392-3.946-2.194
		c-1.858,0.218-2.101,1.954-2.427,3.432c-0.108,0.488-0.14,0.993-0.177,1.523c-0.026,0.371,0.25,0.717,0.617,0.66
		c1.166-0.179,1.543-1.214,2.059-1.958c0.212-0.306,0.665-0.292,0.935-0.036c4.079,3.86,8.346,7.528,12.036,11.707
		c1.475,1.67,3.166,2.759,5.074,4.07c0.306,0.21,0.252,0.408-0.114,0.473c-3.556,0.632-4.458,3.444-5.109,6.343
		c-0.663,2.954,1.292,5.34,4.331,5.533c0.33,0.021,0.661,0.018,0.999,0.011c0.372-0.007,0.458,0.201,0.192,0.461
		c-1.192,1.165-2.35,2.297-3.531,3.45c-0.266,0.26-0.728,0.297-1.021,0.068c-2.524-1.968-4.282-4.564-5.554-7.572
		c-0.242-0.572-0.711-1.047-1.16-1.531c-0.253-0.272-0.537-0.435-0.651-0.349s-0.233-0.145-0.268-0.515
		c-0.329-3.507-0.659-7.02-0.998-10.626c-0.035-0.37-0.276-0.524-0.539-0.344c-0.263,0.18-0.648,0.079-0.86-0.226
		c-1.526-2.198-3.048-4.39-4.471-6.439c-0.212-0.305-0.657-0.681-1.005-0.812c-0.46-0.173-0.868-0.316-1.042-0.602
		c-0.795-1.305-1.573-2.586-3.041-3.278c-0.336-0.158-0.697-0.083-0.785,0.116c-0.087,0.199-0.386,0.164-0.668-0.079
		c-0.592-0.512-1.172-1.013-1.75-1.513c-0.281-0.243-0.652-0.256-0.837-0.036c-0.104,0.124-0.224,0.258-0.352,0.384
		c-1.388,1.357-1.321,1.864,0.61,2.393c3.097,0.848,5.12,3.013,7.035,5.363c0.071,0.087,0.12,0.196,0.201,0.269
		c3.279,2.924,4.457,6.755,5.007,10.968c0.25,1.913,1.15,3.735,1.663,5.623c0.26,0.959,0.239,1.992,0.477,2.959
		c1.039,4.229,3.258,7.734,6.723,10.377c0.876,0.668,0.953,1.321,1.007,2.362c0.141,2.711-1.317,4.498-2.968,6.281
		c-1.028,1.11-2.066,2.219-2.996,3.41c-0.906,1.162-1.719,0.932-2.867,0.31c-1.284-0.696-2.755-1.464-4.142-1.461
		c-2.534,0.007-3.929-1.359-5.481-3.019c-1.061-1.135-2.113-2.589-3.945-2.75c-0.049-0.004-0.1-0.046-0.14-0.082
		c-1.822-1.609-4.318-1.797-6.306-3c-0.487-0.295-0.743-0.971-1.005-1.594c-0.144-0.343-0.54-0.449-0.855-0.251
		c-0.111,0.07-0.235,0.148-0.375,0.236c-0.315,0.198-0.647,0.65-0.741,1.01c-0.148,0.565-0.342,1.303-0.568,2.165
		c-0.094,0.36,0.045,0.44,0.341,0.215c1.283-0.973,2.099-0.59,3.238,0.668c0.745,0.822,2.117,1.047,3.147,1.645
		c2.979,1.729,6.315,3.098,8.769,5.399c2.14,2.006,4.511,2.592,7.027,3.308c0.161,0.046,0.318,0.109,0.47,0.18
		c0.026,0.012,0.038,0.054,0.08,0.16c0.037,0.094-0.152,0.372-0.427,0.623C52.886,63.931,51.742,64.955,50.635,66.017z"/>
</g>
</svg>
