<?xml version="1.0" encoding="iso-8859-1"?>
<!-- Generator: Adobe Illustrator 17.1.0, SVG Export Plug-In . SVG Version: 6.00 Build 0)  -->
<!DOCTYPE svg PUBLIC "-//W3C//DTD SVG 1.1//EN" "http://www.w3.org/Graphics/SVG/1.1/DTD/svg11.dtd">
<svg version="1.1" id="Capa_1" xmlns="http://www.w3.org/2000/svg" xmlns:xlink="http://www.w3.org/1999/xlink" x="0px" y="0px"
	 viewBox="0 0 150 150" style="enable-background:new 0 0 150 150;" xml:space="preserve">
<g>
	<path d="M142.192,55.491c-3.169-2.607-6.874-3.331-10.596-4.022c-5.909-1.097-11.86-1.265-17.818-0.829
		c-4.121,0.302-8.242,0.645-12.352,1.097c-0.555,0.059-1.109,0.119-1.664,0.181c-6.661,0.74-13.305,1.653-19.931,2.713
		c-0.257,0.041-0.514,0.085-0.771,0.127c-0.073,0.011-0.147,0.021-0.22,0.032c-1.607,0.233-2.772-0.382-3.804-1.713
		c-1.986-2.564-3.96-5.149-6.071-7.579c-1.205-1.388-2.659-2.503-4.023-3.708c-0.302-0.267-0.689-0.425-1.053-0.587
		c-0.699-0.312-1.288-0.407-1.776-0.3c-0.578,0.068-1.112,0.41-1.447,1.059c-0.222,0.429-0.299,0.961-0.237,1.47
		c-0.172,0.969-0.202,1.929-0.169,2.885c-0.012,2.116,0.162,4.223,0.084,6.369c-0.082,2.292-0.555,4.537-2.216,6.002
		c-0.02,0.018-0.037,0.038-0.056,0.057c-4.33,0.943-8.646,1.964-12.949,3.052c-0.675-0.11-1.232-0.489-1.809-1.103
		c-1.019-1.086-2.163-2.033-3.308-2.95c-0.813-0.651-1.401-0.267-1.56,0.863c-0.079,0.564-0.11,1.531-0.339,1.603
		c-0.208,0.066-0.41,0.166-0.61,0.276c-0.083,0.022-0.165,0.044-0.248,0.066c-0.63,0.167-1.26,0.335-1.89,0.502
		c-0.027-0.01-0.053-0.016-0.081-0.028c-1.866-0.78-3.733-1.561-5.584-2.387c-0.844-0.377-1.634-0.935-2.482-1.274
		c-0.356-0.174-0.716-0.339-1.08-0.491c-0.388-0.265-0.677-0.607-0.895-1.013c-0.412-1.832-0.825-3.664-1.237-5.496
		c-0.414-2.245-0.834-4.489-1.283-6.725c-0.973-4.846-2.035-9.677-4.022-14.141c-0.054-0.171-0.107-0.342-0.162-0.512
		c-0.118-0.363-0.297-0.685-0.52-0.947c-0.901-1.845-1.903-3.632-2.908-5.408c-0.254-0.448-0.879-0.626-1.333-0.928
		c-0.11,0.556-0.349,1.126-0.306,1.667c0.14,1.732,0.535,3.45,0.555,5.178c0.034,3.001-0.152,6.004-0.221,9.007
		c-0.084,3.647-0.1,7.298,0.499,10.893c0.073,0.971,0.158,1.941,0.255,2.911c-0.037,0.445-0.12,0.866-0.26,1.265
		c-0.258,0.429-0.544,0.835-0.864,1.209c-0.409,0.477-0.843,0.913-1.296,1.32c-2.233,1.489-4.265,3.358-6.824,4.188
		C4.888,59.48,4.242,60.09,4.28,60.388c0.064,0.506,0.511,1.08,0.933,1.375c2.456,1.719,5.244,1.731,7.989,1.729
		c1.758-0.001,3.513-0.382,5.275-0.475c1.1-0.058,2.244-0.064,3.301,0.224c0.692,0.188,1.389,0.823,1.869,1.463
		c2.692,3.594,5.36,7.196,8.962,9.717c0.499,0.349,0.843,0.99,1.242,1.512c0.168,0.22,0.246,0.595,0.448,0.706
		c0.81,0.447,1.122,0.986,0.823,2.077c-0.208,0.761,0.624,1.424,1.666,1.375c1.143-0.054,2.279-0.251,3.421-0.336
		c0.437-0.032,0.931-0.053,1.317,0.135c4.133,2.02,8.383,3.569,12.768,4.611c1.601,0.473,3.216,0.885,4.84,1.237
		c0.169,0.069,0.338,0.138,0.506,0.207c0.404,0.164,0.636,0.426,0.696,0.783c-0.094,0.276-0.134,0.576-0.123,0.877
		c-0.365,1.103-0.111,1.603,0.922,1.997c0.318,0.121,0.631,0.196,0.941,0.233c0.117,0.022,0.24,0.031,0.367,0.025
		c1.167,0.031,2.275-0.443,3.342-0.993c0.03-0.015,0.059-0.029,0.089-0.044c1.46-0.471,2.919-0.943,4.379-1.414
		c0.67-0.111,1.346-0.185,2.029-0.227c0.747,0.003,1.493-0.011,2.24-0.036c0.024,0.001,0.048,0.001,0.072,0.001
		c4.84,0.121,9.686-0.007,14.529-0.056c0.684-0.007,1.367-0.146,1.934-0.217c0.021,0.015,0.044,0.027,0.065,0.041
		c0.202,1.018,0.204,1.934,0.569,2.589c0.125,0.224,0.232,0.45,0.324,0.676c0.052,0.158,0.108,0.315,0.167,0.471
		c0.456,1.448,0.345,2.944,0.102,4.454c-0.421,2.609-1.09,5.112-2.694,7.179c-0.374,0.482-0.649,1.138-0.784,1.766
		c-0.281,1.302,0.278,2.29,1.242,2.516c0.41,0.229,0.88,0.297,1.319,0.104c0.378-0.166,0.751-0.345,1.121-0.53
		c2.66-0.889,4.983-2.498,7.031-4.714c1.468-1.588,2.719-3.341,3.826-5.201c1.063-1.656,1.978-3.438,2.723-5.321
		c0.274-0.613,0.542-1.231,0.804-1.853c0.492-1.172,0.979-2.35,1.392-3.56c0.312-0.914,0.864-1.393,1.646-1.741
		c1.25-0.557,2.501-1.113,3.751-1.67c2.574-1.022,5.122-1.138,7.644-2.346c4.022-1.925,7.957-0.089,11.761-2.521
		c0.468-0.299,0.933-0.608,1.394-0.925c0.705-0.444,1.406-1.897,2.1-2.361c0.34-0.075,0.679-0.27,0.989-0.623
		c0.038-0.043,0.076-0.086,0.113-0.129c0.098-0.068,0.197-0.135,0.295-0.204c0.269-0.19,0.528-0.393,0.781-0.603
		c0.254-0.106,0.489-0.275,0.681-0.512c0.12-0.148,0.239-0.295,0.359-0.443c1.088-1.099,2.034-2.381,2.865-3.773
		c0.415-0.695,0.523-1.381,0.259-2.204c-0.114-0.357-0.058-0.92,0.125-1.24C144.167,62.187,143.917,56.91,142.192,55.491z"/>
</g>
</svg>
