<?xml version="1.0" encoding="iso-8859-1"?>
<!-- Generator: Adobe Illustrator 17.1.0, SVG Export Plug-In . SVG Version: 6.00 Build 0)  -->
<!DOCTYPE svg PUBLIC "-//W3C//DTD SVG 1.1//EN" "http://www.w3.org/Graphics/SVG/1.1/DTD/svg11.dtd">
<svg version="1.1" id="Capa_1" xmlns="http://www.w3.org/2000/svg" xmlns:xlink="http://www.w3.org/1999/xlink" x="0px" y="0px"
	 viewBox="0 0 150 150" style="enable-background:new 0 0 150 150;" xml:space="preserve">
<g>
	<path d="M137.63,66.823c0.092-0.18,0.155-0.379,0.225-0.571c0.04-0.11-0.013-0.291,0.054-0.348c0.585-0.504,0.014-0.899-0.162-1.28
		c-0.063-0.138-0.501-0.138-0.768-0.14c-0.941-0.008-1.69-0.38-2.229-1.143c-0.13-0.184-0.17-0.43-0.274-0.709
		c-0.832,0.318-1.191-0.421-1.656-0.852c-1.061-0.98-1.947-2.185-3.108-3.014c-1.408-1.006-2.47-2.342-3.765-3.442
		c-0.138-0.117-0.149-0.385-0.264-0.711c-0.133,0.31-0.219,0.509-0.314,0.731c-3.25-2.337-5.741-5.204-6.868-9.164
		c-0.143,0.108-0.223,0.151-0.279,0.216c-0.057,0.067-0.09,0.154-0.185,0.324c-0.206-0.479-0.501-0.865-0.509-1.256
		c-0.011-0.568-0.222-0.948-0.588-1.339c-0.202-0.216-0.286-0.556-0.385-0.853c-0.104-0.315-0.163-0.646-0.242-0.97
		c-0.748-0.02-1.129-0.268-1.337-0.96c-0.046-0.152,0.119-0.369,0.191-0.554c0.04-0.103,0.12-0.199,0.13-0.303
		c0.128-1.409,0.254-2.818,0.365-4.229c0.027-0.341,0.058-0.703-0.028-1.025c-0.088-0.328-0.247-0.738-0.506-0.89
		c-0.223-0.131-0.583-0.059-0.947,0.182c-0.746,0.496-1.094,1.049-1.082,1.933c0.003,0.24-0.289,0.536-0.517,0.716
		c-0.343,0.271-0.743,0.475-1.131,0.684c-0.416,0.224-1.532,0.195-1.736,0.664c-0.207-0.103-0.723,0.068-0.777,0.069
		c-0.173,0.002-0.382-0.042-0.514-0.147c-0.393-0.312-0.757-0.66-1.131-0.996c-0.082-0.074-0.146-0.197-0.239-0.225
		c-0.531-0.158-1.08-0.264-1.602-0.446c-0.51-0.177-0.986-0.452-1.496-0.63c-0.458-0.16-0.937-0.292-1.417-0.353
		c-0.438-0.056-1.403,0.99-1.425,1.457c-0.023,0.489,0.17,1.061-0.477,1.328c-0.666-0.457-1.007-0.426-1.698,0.156
		c-0.084,0.071-0.15,0.176-0.245,0.218c-0.295,0.132-0.676-0.161-0.954,0.288c-0.114,0.184-0.625,0.123-1.068,0.191
		c0.168,0.198,0.287,0.339,0.443,0.523c-0.514,0.168-1.001,0.383-1.511,0.481c-0.877,0.169-1.847,0.09-2.632,0.442
		c-0.839,0.376-1.66,0.388-2.433,0.228c-0.747-0.154-1.59-0.084-2.25-0.604c-0.056-0.044-0.155-0.033-0.235-0.045
		c-0.829-0.13-1.667-0.215-2.482-0.404c-0.543-0.126-1.043-0.429-1.581-0.596c-0.208-0.065-0.465,0.016-0.698,0.048
		c-0.323,0.043-0.671,0.207-0.96,0.133c-0.592-0.151-1.154-0.424-1.726-0.651c-0.279-0.111-0.554-0.232-0.831-0.349
		c-0.029,0.052-0.057,0.104-0.086,0.156c0.107,0.135,0.215,0.271,0.381,0.481c-1.081,0.243-1.882-0.552-2.896-0.564
		c0.118,0.223,0.198,0.373,0.278,0.524c-0.024,0.069-0.048,0.139-0.072,0.208c-0.901-0.136-1.802-0.273-2.715-0.411
		c-0.067,0.211-0.126,0.396-0.185,0.581c-0.98-0.29-1.931-0.42-2.902-0.053c-0.127,0.048-0.331-0.148-0.487-0.128
		c-0.525,0.066-1.044,0.179-1.579,0.277c-0.03,0.26-0.053,0.451-0.065,0.561c-0.69,0.174-1.318,0.407-1.964,0.476
		c-0.899,0.097-1.812,0.072-2.718,0.097c-0.601,0.016-1.169-0.053-1.57,0.645c-0.164,0.286-0.809,0.333-1.248,0.415
		c-0.371,0.069-0.729-0.011-0.911,0.495c-0.087,0.242-0.469,0.429-0.756,0.538c-0.468,0.178-0.962,0.303-1.456,0.396
		c-0.845,0.16-1.771,0.116-2.532,0.452c-1.16,0.512-2.364,0.518-3.55,0.752c-0.951,0.188-1.9,0.152-2.831,0.327
		c-0.81,0.153-1.597,0.426-2.396,0.643c-0.057,0.016-0.122,0.004-0.181,0.017c-1.824,0.391-3.679,0.324-5.526,0.36
		c-0.626,0.012-1.252,0.033-1.878,0.025c-0.954-0.013-1.84,0.232-2.688,0.651c-0.071,0.035-0.155,0.046-0.234,0.06
		c-0.737,0.132-1.479,0.245-2.21,0.403c-0.284,0.062-0.567,0.193-0.812,0.353c-0.778,0.508-1.763,0.597-2.449,1.325
		c-0.353,0.375-0.934,0.526-1.38,0.825c-0.729,0.488-1.468,0.973-2.14,1.535c-0.888,0.743-1.69,1.588-2.579,2.33
		c-0.435,0.363-0.983,0.589-1.478,0.88c-0.105,0.062-0.202,0.137-0.302,0.206c0.125,0.059,0.246,0.154,0.376,0.17
		c0.224,0.028,0.454,0.008,0.71,0.141c-0.264,0.181-0.506,0.463-0.794,0.524c-0.989,0.209-1.623,0.932-2.356,1.513
		c-0.075,0.06-0.148,0.21-0.125,0.291c0.159,0.568-0.179,0.872-0.56,1.183c-0.101,0.083-0.176,0.276-0.162,0.409
		c0.077,0.738-0.221,1.292-0.646,1.887c-0.396,0.553-0.527,1.29-0.809,1.931c-0.351,0.799-0.705,1.585-1.596,1.983
		c-0.367,0.164-0.623,0.56-0.972,0.783c-0.741,0.474-1.358,1.122-2.248,1.397c-0.656,0.202-1.222,0.696-1.878,0.907
		c-0.648,0.209-1.244,0.464-1.785,0.867c-0.974,0.727-2.167,1.166-2.919,2.183c-0.215,0.291-0.365,0.629-0.551,0.943
		c-0.314,0.528-0.632,1.053-0.949,1.58c-0.057,0.094-0.127,0.183-0.167,0.284c-0.227,0.573-0.447,1.149-0.669,1.724
		c-0.007,0.019-0.016,0.038-0.018,0.058c-0.126,1.277-0.513,2.599-0.302,3.818c0.206,1.183,0.117,2.349,0.264,3.513
		c0.098,0.779-0.169,1.449-0.709,2.044c-0.522,0.573-0.995,1.195-1.441,1.83c-0.189,0.269-0.382,0.637-0.351,0.937
		c0.064,0.602,0.281,1.188,0.456,1.859c0.131-0.158,0.247-0.298,0.364-0.439c0.055,0.004,0.111,0.009,0.166,0.013
		c0,0.231,0.092,0.6-0.015,0.671c-0.733,0.49,0.029,0.774,0.141,1.122c0.065,0.204,0.288,0.358,0.497,0.601
		c0.589-0.591,1.218-1.222,1.859-1.865c0.504,0.363,1.952,0.301,2.647-0.072c1.111-0.596,1.527-1.579,1.892-2.711
		c0.242-0.75,0.243-1.481,0.331-2.225c0.014-0.122,0.162-0.232,0.169-0.352c0.019-0.321-0.008-0.644-0.01-0.966
		c-0.002-0.279-0.044-0.57,0.02-0.834c0.135-0.555,0.376-1.088,0.474-1.647c0.044-0.249-0.18-0.535-0.229-0.814
		c-0.054-0.31-0.188-0.74-0.042-0.926c0.444-0.568,0.278-1.189,0.289-1.784c0.015-0.801-0.008-1.541,0.648-2.197
		c0.504-0.505,0.746-1.263,1.217-1.812c0.739-0.863,1.496-1.722,2.698-2.023c0.406-0.102,0.804-0.426,1.095-0.748
		c0.337-0.373,0.719-0.304,1.119-0.338c0.322-0.027,0.739,0.192,0.924-0.299c0.014-0.036,0.154-0.057,0.219-0.035
		c0.258,0.089,0.547,0.824,0.43,1.064c-0.452,0.922-0.458,2.413-0.027,3.328c0.049,0.103,0.054,0.242,0.036,0.357
		c-0.114,0.728,0.207,1.289,0.659,1.81c0.057,0.065,0.074,0.183,0.073,0.276c-0.015,0.759,0.241,1.405,0.696,2.014
		c0.292,0.39,0.411,0.908,0.705,1.296c0.391,0.517,0.9,0.942,1.312,1.445c0.442,0.54,0.956,1.074,1.211,1.703
		c0.353,0.869-0.194,1.623-0.703,2.292c-0.541,0.711-1.153,1.366-1.726,2.052c-0.432,0.516-0.884,1.02-1.265,1.573
		c-0.247,0.358-0.527,0.788-0.54,1.194c-0.036,1.119-0.507,2.033-1.046,2.963c-0.25,0.431-0.29,0.98-0.455,1.465
		c-0.198,0.583-0.421,1.158-0.647,1.731c-0.116,0.292-0.291,0.562-0.39,0.859c-0.278,0.835-0.502,1.689-0.801,2.516
		c-0.365,1.014-0.533,2.101-1.086,3.046c-0.333,0.57-0.696,1.124-1.07,1.725c0.495,0.303,0.507,0.538,0.1,1.038
		c-0.441,0.543-0.552,1.328-0.413,2.071c0.023,0.123,0.177,0.305,0.28,0.313c0.258,0.018,0.53-0.021,0.781-0.091
		c0.199-0.055,0.376-0.189,0.677-0.349c0.02,0.444,0.043,0.738,0.043,1.032c-0.001,1.13,0.53,1.911,1.53,2.409
		c0.619,0.308,1.191,0.768,1.842,0.938c0.617,0.162,1.311,0.035,2.003,0.035c0.031-0.207,0.061-0.4,0.099-0.65
		c0.461,0,0.916,0,1.374,0c0.269-0.978-0.341-1.582-0.795-2.229c-0.528-0.753-1.095-1.478-1.632-2.224
		c-0.062-0.087-0.032-0.237-0.056-0.355c-0.105-0.519-0.256-1.033-0.307-1.557c-0.03-0.307,0.091-0.63,0.154-0.944
		c0.022-0.111,0.091-0.213,0.111-0.324c0.145-0.79,0.202-1.607,0.445-2.365c0.233-0.728,0.367-1.561,1.157-1.999
		c0.163-0.09,0.29-0.283,0.381-0.456c0.474-0.896,1.438-1.175,2.177-1.732c0.567-0.427,1.225-0.732,1.806-1.143
		c0.219-0.154,0.304-0.485,0.506-0.678c0.463-0.441,1.156-0.668,1.247-1.482c0.649,0.159,1.143,0.002,1.452-0.601
		c0.029-0.056,0.305,0.016,0.604,0.038c0.387-0.555,0.948-1.14,1.81-1.27c0.223-0.986,0.467-1.186,0.979-0.968
		c-0.07,0.447-0.135,0.863-0.199,1.279c0.066,0.018,0.132,0.037,0.198,0.055c0.062-0.084,0.113-0.179,0.188-0.248
		c0.064-0.06,0.156-0.09,0.139-0.081c0.272,0.339,0.516,0.622,0.733,0.924c0.098,0.137,0.21,0.317,0.199,0.47
		c-0.048,0.704-0.198,1.406-0.187,2.107c0.006,0.393,0.201,0.811,0.401,1.168c0.331,0.59,0.734,1.14,0.988,1.769
		c0.231,0.099,0.455,0.224,0.695,0.292c0.61,0.173,0.582,0.651,0.704,1.151c0.136,0.558,0.469,1.121,0.86,1.552
		c0.594,0.656,1.253,1.232,1.692,2.035c0.295,0.541,0.667,1.02,0.735,1.664c0.017,0.164,0.242,0.296,0.307,0.467
		c0.159,0.423,0.252,0.871,0.423,1.288c0.242,0.591,0.544,1.158,0.793,1.747c0.216,0.509,0.579,1.048,0.543,1.549
		c-0.05,0.708,0.412,1.185,0.51,1.801c0.052,0.33,0.295,0.659,0.26,0.966c-0.093,0.807,0.442,1.188,0.978,1.51
		c0.305,0.183,0.775,0.207,0.857-0.388c0.012-0.089,0.116-0.166,0.177-0.248c0.064,0.055,0.185,0.11,0.186,0.166
		c0.007,0.808,0.726,0.949,1.215,1.273c1.363,0.902,2.916,0.754,4.435,0.689c0.243-0.01,0.473-0.32,0.709-0.491
		c-0.033-0.066-0.066-0.132-0.099-0.198c0.316,0,0.633,0.013,0.949-0.003c0.334-0.017,0.508-0.196,0.334-0.519
		c-0.467-0.871-1.091-1.639-1.832-2.277c-0.318-0.273-0.846-0.284-1.241-0.487c-0.396-0.203-0.778-0.462-1.107-0.76
		c-0.613-0.555-1.183-1.156-1.769-1.741c-0.052-0.052-0.104-0.118-0.121-0.186c-0.136-0.562-0.199-1.151-0.409-1.683
		c-0.247-0.626-0.621-1.203-0.936-1.803c-0.145-0.275-0.316-0.544-0.414-0.835c-0.169-0.5-0.291-1.017-0.432-1.526
		c-0.22-0.793-0.519-1.575-0.638-2.383c-0.116-0.789-0.249-1.679,0.01-2.383c0.17-0.461,0.222-0.668,0.004-1.08
		c-0.111-0.21,0.079-0.576,0.125-0.873c0.085-0.551,0.641-0.934,0.524-1.574c-0.038-0.207,0.156-0.451,0.222-0.684
		c0.048-0.17,0.131-0.378,0.075-0.521c-0.329-0.844,0.106-1.663,0.047-2.501c-0.061-0.863-0.069-1.746,0.042-2.601
		c0.09-0.69,0.392-1.352,0.599-2.026c0.018-0.057,0.037-0.114,0.048-0.173c0.121-0.631,0.24-1.262,0.358-1.888
		c0.295,0,0.49,0,0.717,0c0.041,0.339,0.078,0.652,0.12,0.996c0.189,0.024,0.372,0.024,0.54,0.073
		c0.501,0.143,0.998,0.299,1.492,0.463c0.206,0.068,0.398,0.177,0.601,0.255c0.574,0.219,1.149,0.437,1.728,0.643
		c0.429,0.153,0.858,0.312,1.299,0.423c0.626,0.158,1.315,0.166,1.879,0.44c0.548,0.266,1.103,0.219,1.637,0.36
		c0.583,0.153,1.113,0.505,1.671,0.759c0.237,0.108,0.487,0.268,0.73,0.266c0.836-0.008,1.541,0.401,2.303,0.628
		c0.301,0.09,0.639,0.051,0.952,0.11c0.318,0.06,0.623,0.189,0.941,0.249c0.177,0.033,0.375,0.014,0.551-0.03
		c0.195-0.048,0.376-0.152,0.597-0.246c0.077,0.294,0.132,0.501,0.214,0.812c0.68-0.513,1.302-0.983,1.928-1.456
		c0.431,0.455,0.899,0.305,1.568,0.115c0.838-0.239,1.381-1.15,2.418-0.942c0.31,0.062,0.709-0.324,1.115-0.529
		c0.368,0.206,0.791,0.483,1.275-0.054c0.124-0.137,0.499-0.336,0.72,0.133c0.133,0.284,0.495,0.46,0.832,0.752
		c-0.334,0.087-0.568,0.148-0.795,0.207c0.003,0.463,1.041,0.517,0.411,1.185c0.155,0.193,0.467,0.385,0.035,0.636
		c-0.065,0.038-0.124,0.193-0.098,0.262c0.183,0.491,0.384,0.977,0.589,1.459c0.135,0.318,0.42,0.633,0.41,0.941
		c-0.032,0.961,0.284,1.8,0.691,2.631c0.049,0.101,0.03,0.238,0.03,0.359c0,1.232-0.023,2.464,0.001,3.696
		c0.014,0.697-0.209,1.28-0.615,1.832c-0.108,0.147-0.057,0.412-0.082,0.65c0.265,0.043,0.477,0.077,0.732,0.118
		c-0.036,0.544,0.211,1.117-0.316,1.556c-0.023,0.019-0.014,0.077-0.021,0.117c-0.139,0.751-0.171,1.545-0.444,2.244
		c-0.42,1.076-0.088,2.206-0.366,3.244c-0.224,0.839-0.332,1.658-0.352,2.507c-0.009,0.378-0.001,0.755-0.001,1.184
		c0.576,0,1.068,0.072,1.528-0.017c0.652-0.127,0.858,0.29,1.03,0.727c0.207,0.527,0.867,1.053,1.416,1.12
		c0.677,0.082,1.344,0.299,2.02,0.319c0.513,0.015,1.029-0.226,1.552-0.279c0.516-0.052,1.042-0.011,1.534-0.011
		c0.242-0.789-0.454-1.007-0.719-1.431c-0.385-0.619-0.939-1.138-1.447-1.675c-0.218-0.23-0.537-0.366-0.744-0.603
		c-0.352-0.403-0.781-0.808-0.945-1.291c-0.242-0.715-0.421-1.509-0.369-2.251c0.064-0.916,0.404-1.811,0.604-2.72
		c0.154-0.703,0.265-1.416,0.413-2.121c0.216-1.036,0.562-2.015,1.189-2.892c0.269-0.377,0.399-0.851,0.61-1.272
		c0.328-0.654,0.687-1.293,1-1.953c0.195-0.411,0.337-0.848,0.491-1.278c0.212-0.591,0.411-1.186,0.618-1.779
		c0.143-0.409,0.262-0.829,0.443-1.22c0.306-0.664,0.655-1.308,0.979-1.964c0.051-0.104,0.05-0.234,0.099-0.34
		c0.281-0.603,0.552-1.212,0.865-1.798c0.17-0.319,0.384-0.631,0.643-0.878c0.125-0.12,0.399-0.086,0.606-0.121
		c-0.142,0.321,0.838,0.227,0.266,0.76c-0.152,0.142-0.189,0.686-0.062,0.796c0.329,0.286,0.297,0.6,0.247,0.923
		c-0.09,0.585,0.051,1.035,0.55,1.397c0.325,0.236,0.564,0.567,0.53,1.022c-0.046,0.614,0.533,0.823,0.848,1.164
		c0.609,0.66,1.309,1.223,1.734,2.052c0.425,0.829,0.985,1.592,1.373,2.435c0.245,0.533,0.25,1.17,0.426,1.742
		c0.157,0.51,0.394,0.995,0.607,1.487c0.133,0.307,0.345,0.592,0.421,0.911c0.171,0.716,0.33,1.443,0.399,2.174
		c0.064,0.68-0.051,1.378,0.016,2.058c0.083,0.849,0.137,1.743,0.455,2.514c0.26,0.631,0.318,1.356,0.902,1.903
		c0.701,0.658,1.265,0.897,1.788,0.186c0.488-0.664,0.652-0.041,0.823,0.097c0.446,0.358,0.812,0.815,1.215,1.227
		c0.053,0.054,0.129,0.098,0.202,0.116c1.357,0.342,2.733,0.542,4.13,0.361c0.325-0.042,0.624-0.281,0.95-0.436
		c0.356-0.899-0.131-1.526-0.788-2.075c-0.694-0.58-1.385-1.169-2.118-1.698c-0.46-0.332-1.042-0.501-1.484-0.851
		c-0.398-0.314-0.683-0.772-1.011-1.172c-0.241-0.293-0.437-0.632-0.715-0.883c-0.42-0.38-0.326-0.858-0.374-1.324
		c-0.024-0.235-0.201-0.453-0.238-0.69c-0.066-0.413-0.057-0.838-0.117-1.252c-0.065-0.456-0.133-0.918-0.272-1.354
		c-0.145-0.453-0.037-1.591,0.243-1.837c-0.382-0.447-0.403-1.225-0.089-1.752c0.095-0.159,0.109-0.383,0.112-0.578
		c0.016-1.07,0.039-2.142,0.008-3.211c-0.008-0.296-0.225-0.58-0.284-0.882c-0.046-0.232-0.275-0.54,0.15-0.701
		c0.076-0.029,0.15-0.178,0.151-0.272c0.01-0.545,0.028-1.092-0.021-1.633c-0.018-0.194-0.264-0.359-0.316-0.561
		c-0.14-0.542-0.082-1.118,0.409-1.417c0.503-0.306,0.212-0.434,0.103-0.622c0.063-0.263,0.162-0.524,0.182-0.79
		c0.033-0.44-0.146-0.983,0.051-1.309c0.644-1.062,0.227-2.174,0.298-3.256c0.122-1.856,1.962-3.113,2.289-5.005
		c0.121,0.547,0.241,1.095,0.362,1.642c0.446,0.051,0.892,0.103,1.338,0.154c0.103-0.866,0.206-1.732,0.309-2.597
		c-0.021,0.908,0.379,1.817,1.063,2.414c0.532-0.329,1.064-0.657,1.595-0.986c-0.269-0.378-0.211-0.951,0.127-1.267
		c0.232,0.323,0.465,0.645,0.698,0.968c0.091,0.127,0.917-1.436,0.965-1.589c0.599,0.096,0.852,0.488,1.286,0.944
		c0.121-0.333,0.008-0.813-0.069-1.123c1.27-0.191,2.891-0.335,2.891-2.029c0.257,1.797,8.185-3.739,8.614-1.703
		c0.185-0.057,0.369-0.115,0.645-0.2c0.364,0.533,0.695,0.157,1.055-0.086c11.715,7.966,19.141,1.695,19.141,1.695
		c-4.132,0.298-7.296-0.797-9.669-2.358c0.034-0.003,0.069-0.006,0.103-0.009c0.03-0.422,0.053-0.749,0.081-1.146
		c0.551,0.142,1.12,0.262,1.67,0.442c0.151,0.05,0.424,0.053,0.697,0.017c8.119,1.372,12.278-3.214,12.278-3.214
		C143.094,68.293,140.066,67.827,137.63,66.823z"/>
</g>
</svg>
