<?xml version="1.0" encoding="iso-8859-1"?>
<!-- Generator: Adobe Illustrator 17.1.0, SVG Export Plug-In . SVG Version: 6.00 Build 0)  -->
<!DOCTYPE svg PUBLIC "-//W3C//DTD SVG 1.1//EN" "http://www.w3.org/Graphics/SVG/1.1/DTD/svg11.dtd">
<svg version="1.1" id="Capa_1" xmlns="http://www.w3.org/2000/svg" xmlns:xlink="http://www.w3.org/1999/xlink" x="0px" y="0px"
	 viewBox="0 0 150 150" style="enable-background:new 0 0 150 150;" xml:space="preserve">
<g>
	<path d="M7.822,62.337c0.413,1.558,1.758,1.41,2.024,0.574c0.229-0.727,1.689-1.541,2.697-2.547
		c0.28-0.055,0.548-0.142,0.803-0.251c0.312,0.404,0.806,0.902,1.439,1.47c-0.432,0.639-0.72,1.503-0.781,2.35
		c-1.336,0.437-1.984,2.399-2.638,3.29c-0.762,1.044-3.095,1.536-3.086,2.257c0.009,0.716,2.972,0.792,4.401-0.005
		c1.279-0.71,2.83-1.394,3.826-2.787c1.204-0.055,2.593-0.53,3.437-1.06c0.045,0.038,0.09,0.071,0.139,0.098
		c-0.366,0.618-0.599,1.405-0.656,2.175c-1.336,0.437-1.981,2.394-2.64,3.285c-0.761,1.044-2.518,2.077-2.509,2.798
		c0.008,0.716,2.397,0.252,3.826-0.541c1.28-0.716,2.828-1.399,3.822-2.793c1.317-0.055,2.831-0.623,3.633-1.202
		c0.779,0.497,1.43,0.885,1.913,1.148c-0.715,0.667-1.036,2.066-0.881,3.312c-1.233,0.7-1.488,2.727-1.961,3.722
		c-0.551,1.164-2.086,2.514-1.935,3.214c0.149,0.7,1.984,0.464,3.241-0.585c1.13-0.951,2.88-2.476,3.659-4.154
		c1.403-0.344,2.932-1.322,3.525-2.077c0.504,0.416,0.925,0.842,1.226,1.268c1.155,1.634,9.318,5.678,13.122,5.509
		c0.022,0,0.048,0.006,0.07,0c0.466,2.908,2.664,3.536,2.827,4.487c0.026,0.153,0.053,0.29,0.082,0.421
		c-0.101,0.956,0.012,1.886-0.449,2.673c-1.047,1.793,2.585,3.285,3.816,1.563c0.665-0.929,0.792-2.044,0.977-3.011
		c0.183-0.175,0.353-0.377,0.508-0.65c0.374-0.65,2.192-0.661,2.921-2.219c1.119,0.448,2.093,0.826,2.824,1.06
		c0.941,1.541,3.401,2.104,3.37,2.88c-0.018,0.437,0.04,0.765,0.156,1.028c0.048,0.738,0.124,1.437-0.165,2.093
		c-0.833,1.896,2.947,2.968,3.972,1.109c0.564-1.022,0.55-2.17,0.63-3.17c0.153-0.18,0.294-0.383,0.423-0.634
		c0.309-0.601,2.317-0.782,3.133-1.995c0.592,0.06,1.153,0.12,1.691,0.169c1.078,1.372,3.393,1.722,3.553,2.459
		c0.046,0.208,0.118,0.361,0.18,0.53c0.105,0.907,0.362,1.749,0.083,2.58c-0.665,1.962,3.194,2.694,4.053,0.76
		c0.475-1.077,0.361-2.225,0.351-3.225c0.128-0.186,0.25-0.399,0.368-0.656c0.219-0.486,1.346-0.852,2.119-1.629
		c0.052,0,0.1,0.006,0.15,0.006c1.355,1.066,3.681,1.295,4.035,1.896c0.077,0.126,0.172,0.213,0.26,0.328
		c0.299,1.017,0.926,1.978,0.716,2.902c-0.467,2.011,3.04,2.203,3.703,0.191c0.32-0.979,0.182-1.968,0.07-2.869
		c0.271-0.301,0.466-0.71,0.596-1.273c0.109-0.481,0.776-0.825,1.275-1.465c0.373-0.005,0.762-0.005,1.158-0.016
		c1.272,0.967,3.247,1.12,3.423,1.793c0.093,0.344,0.209,0.618,0.355,0.842c0.269,0.929,0.646,1.842,0.466,2.629
		c-0.466,2.022,2.886,1.858,3.548-0.153c0.339-1.022,0.249-2.05,0.212-2.957c0.172-0.246,0.318-0.536,0.428-0.874
		c0.13-0.415,0.747-0.776,1.29-1.333c0.294,0,0.581,0,0.854-0.006c0.985,0.388,2.049,0.503,2.276,0.962
		c0.145,0.295,0.332,0.595,0.552,0.863c0.119,1.142,0.411,2.328,0.201,3.236c-0.383,1.656,2.677,1.678,3.214,0.044
		c0.317-0.967,0.443-2.011,0.596-2.973c0.335-0.317,0.611-0.716,0.846-1.246c0.091-0.213,0.306-0.41,0.57-0.645
		c0.922,0.951,2.358,1.394,2.425,2.022c0.062,0.579,0.276,1.011,0.549,1.361c-0.014,1-0.029,1.995-0.695,2.645
		c-1.168,1.12,2.509,2.53,3.684,0.536c0.477-0.803,0.727-1.661,0.965-2.459c0.376-0.219,0.691-0.563,0.945-1.093
		c0.258-0.541,1.467-0.765,2.241-1.65c0.172,0.115,0.341,0.24,0.475,0.366c1.327,1.279,3.219,3.181,5.234,1.826
		c1.118-0.76,2.119,0.628,1.704,1.689c-0.866,2.213,3.024,3.164,4.644,1.803c1.622-1.366,1.881-3.192,3.246-2.94
		c1.362,0.246,3.566-0.896,2.696-3.984c-0.624-2.23-0.582-5.52-1.096-7.58c-0.515-2.055-2.968-4.793-5.465-6.312
		c-2.495-1.514-3.807-3.192-6.929-3.722c-3.122-0.514-7.795-1.503-10.518-2.213c-2.72-0.711-3.693-0.946-7.236-0.672
		c-3.544,0.284-4.717,0.328-6.876,0.159c-4.893-0.377-8.464,0.492-10.605,0.229c-4.691-0.574-7.105,0-9.462-0.175
		c-6.649-0.508-10.623-0.432-12.37-0.907c-1.528-0.421-7.34-1.492-9.881-2.694c-2.544-1.202-3.241-1.148-4.535-1.607
		c-1.293-0.454-5.199-1.175-6.795-1.957c-1.596-0.782-4.472-3.011-6.117-4.099c-1.324-0.864-3.067-4.64-4.647-5.826
		c-1.578-1.181-7.192-3.793-9.221-3.634c-2.032,0.153-6.636,1.055-8.053-0.301c-1.935-1.853-5.083,0.263-7.323,1.787
		c-0.097,0.065-0.2,0.17-0.302,0.257c-0.041-0.027-0.075-0.06-0.119-0.087c-1.768-1.049-5.377-0.574-7.877,2.667
		c-1.585,2.055-2.131,4.727-1.678,6.679C6.52,58.659,7.404,60.78,7.822,62.337z"/>
</g>
</svg>
