<?xml version="1.0" encoding="iso-8859-1"?>
<!-- Generator: Adobe Illustrator 17.1.0, SVG Export Plug-In . SVG Version: 6.00 Build 0)  -->
<!DOCTYPE svg PUBLIC "-//W3C//DTD SVG 1.1//EN" "http://www.w3.org/Graphics/SVG/1.1/DTD/svg11.dtd">
<svg version="1.1" id="Capa_1" xmlns="http://www.w3.org/2000/svg" xmlns:xlink="http://www.w3.org/1999/xlink" x="0px" y="0px"
	 viewBox="0 0 150 150" style="enable-background:new 0 0 150 150;" xml:space="preserve">
<g>
	<path d="M5.916,94.234c1.648,1.064,3.148,2.352,4.77,3.46c1.53,1.045,3.149,1.789,5.072,0.9c2.31-1.068,4.675-2.021,6.972-3.115
		c3.139-1.496,6.265-3.022,9.745-3.55c3.15-0.477,6.162,0.068,9.002,1.492c1.394,0.699,1.786,3.422,0.682,4.756
		c-0.909,1.099-2.067,1.781-3.551,1.783c-0.637,0.001-1.276,0.012-1.912,0.05c-1.988,0.118-3.127,1.113-3.615,3.21h4.667
		c-1.065,1.087-2.416,1.616-2.264,3.297c1.739-0.297,3.417-0.584,5.183-0.886c-0.012,0.249-0.054,0.456-0.024,0.652
		c0.069,0.453,0.074,1.218,0.285,1.284c0.417,0.131,1.095,0.034,1.42-0.25c0.954-0.833,2.099-0.803,3.216-0.954
		c1.792-0.242,3.626-0.208,5.313-1.051c1.166-0.583,2.063-1.387,2.535-2.594c0.248-0.634,0.581-0.782,1.272-0.812
		c0.85-0.037,1.725-0.333,2.515-0.684c0.817-0.364,1.247-0.084,1.606,0.591c0.06,0.112,0.122,0.224,0.164,0.344
		c0.925,2.622,0.859,2.767-1.842,3.309c-2.284,0.458-4.268,1.456-5.908,3.117c-0.209,0.212-0.377,0.464-0.589,0.728
		c0.748,0.26,1.576,0.309,1.957,0.746c0.397,0.457,0.364,1.289,0.535,2.029c1.561-0.664,3.026-0.922,4.627-0.561
		c-0.084,0.282-0.159,0.483-0.204,0.69c-0.167,0.773-0.047,1.209,0.885,1.523c4.298,1.452,7.867-0.116,11.287-2.488
		c3.285-2.278,6.121-5.047,8.263-8.4c0.814-1.274,0.949-2.984,1.376-4.5c0.084-0.298,0.089-0.619,0.104-0.733
		c2.545-0.29,4.993-0.449,7.393-0.876c2.251-0.4,4.436-1.168,6.682-1.612c1.517-0.3,3.094-0.469,4.637-0.432
		c2.751,0.065,4.462,1.771,5.664,4.074c0.11,0.211,0.062,0.542,0.001,0.798c-0.767,3.234-2.976,5.03-5.979,6.122
		c-1.873,0.681-3.758,1.408-5.481,2.389c-0.969,0.551-1.639,1.644-2.399,2.532c-0.204,0.238-0.243,0.617-0.384,1
		c1.183-0.107,2.24-0.203,3.013-0.273c0.473,1.401,0.884,2.616,1.3,3.848c1.034-0.741,1.852-1.328,2.756-1.977
		c0.078,1.381,0.14,2.466,0.211,3.711c1.052-0.824,1.958-1.462,2.78-2.195c1.089-0.972,2.296-1.053,3.65-0.781
		c1.502,0.302,3.002,0.448,4.535-0.041c1.117-0.356,1.944-0.992,2.459-1.978c1.682-3.22,4.226-5.722,6.721-8.279
		c3.005-3.079,6.753-3.716,10.798-3.384c1.18,0.097,2.24,0.627,2.904,1.643c0.389,0.596,0.654,1.305,0.832,1.999
		c0.179,0.696-0.093,1.261-0.754,1.697c-1.445,0.952-2.545,2.786-2.653,4.382c0.687-0.538,1.254-1.067,1.902-1.464
		c0.529-0.324,1.144-0.526,1.742-0.717c0.502-0.16,0.663,0.041,0.595,0.599c-0.118,0.964-0.125,1.941-0.181,2.962
		c1.141-0.575,2.157-1.088,3.136-1.582c0.327,1.329,0.609,2.475,0.892,3.621c0.098,0.004,0.196,0.007,0.294,0.011
		c0.402-0.551,0.811-1.097,1.204-1.655c0.83-1.179,1.946-1.914,3.259-2.529c1.212-0.568,2.274-1.479,3.345-2.312
		c0.797-0.62,0.94-1.513,0.555-2.421c-0.282-0.665-0.557-1.429-1.072-1.88c-1.261-1.105-1.427-2.557-1.611-4.043
		c-0.572-4.632,0.22-9.134,1.245-13.624c0.907-3.974,1.796-7.954,1.798-12.069c0.004-7.663-2.535-14.427-7.244-20.401
		c-4.322-5.482-9.79-9.569-16.016-12.623c-5.682-2.787-11.626-4.842-17.902-5.873C98.068,33,92.031,32.752,85.986,33.56
		c-6.085,0.814-11.973,2.455-17.7,4.652c-2.451,0.94-4.857,2-7.274,3.029c-6.1,2.597-12.157,5.299-18.305,7.777
		c-3.416,1.377-6.977,2.394-10.477,3.562c-0.259,0.086-0.547,0.082-0.906,0.132c0.152-0.74,0.287-1.399,0.439-2.137
		c-1.391,0.01-2.096,0.784-2.747,1.678c-0.29,0.398-0.612,0.983-1.001,1.057c-0.893,0.169-1.842,0.135-2.752,0.036
		c-0.157-0.017-0.41-0.812-0.311-1.16c0.207-0.728,0.015-0.915-0.685-0.901c-0.157,0.003-0.304,0.024-0.454,0.041
		C24,50.11,23.996,48.62,23.25,47.5c-0.833-1.249-1.203-0.187-1.368,1.006c-0.151,1.094-0.86,1.931-1.757,1.854
		s-1.625,0.594-1.625,1.5s-0.616,1.64-1.375,1.64s-1.375,0.616-1.375,1.375c0,0.726,0.623,1.851,1.462,2.512
		c-3.278,4.675-6.043,9.662-8.636,14.784c-2.458,4.854-3.09,9.984-3.599,15.212c-0.147,1.51-0.13,3.035-0.217,4.552
		C4.702,92.938,4.997,93.641,5.916,94.234z"/>
</g>
</svg>
