<?xml version="1.0" encoding="iso-8859-1"?>
<!-- Generator: Adobe Illustrator 17.1.0, SVG Export Plug-In . SVG Version: 6.00 Build 0)  -->
<!DOCTYPE svg PUBLIC "-//W3C//DTD SVG 1.1//EN" "http://www.w3.org/Graphics/SVG/1.1/DTD/svg11.dtd">
<svg version="1.1" id="Capa_1" xmlns="http://www.w3.org/2000/svg" xmlns:xlink="http://www.w3.org/1999/xlink" x="0px" y="0px"
	 viewBox="0 0 150 150" style="enable-background:new 0 0 150 150;" xml:space="preserve">
<g>
	<path d="M4.359,99.599c2.238,0,4.476,0,6.713,0c0.005,0.16,0.011,0.321,0.016,0.481c-0.751,0.398-1.502,0.796-2.257,1.196
		c0.137,0.246,0.218,0.448,0.251,0.44c2.336-0.542,3.196,0.7,3.885,2.744c1.231,3.65,2.847,7.169,4.15,10.797
		c0.28,0.779,0.052,1.833-0.203,2.682c-0.209,0.693-0.874,1.235-1.216,1.905c-0.522,1.022-0.939,2.098-1.4,3.151
		c0.241,0.152,0.483,0.304,0.724,0.456c1.294-1.181,2.546-2.414,3.903-3.517c0.577-0.47,1.374-0.67,2.072-0.993
		c0.068,0.717,0.3,1.465,0.168,2.142c-0.213,1.093-0.665,2.138-1.137,3.571c0.549-0.326,0.777-0.423,0.958-0.575
		c2.837-2.38,2.79-2.329,5.514,0.02c1.561,1.346,3.179,2.713,4.985,3.666c2.274,1.2,2.603,3.024,2.37,5.195
		c-0.139,1.29-0.419,2.564-0.345,3.958c0.813-1.398,1.626-2.797,2.439-4.196c0.219-0.004,0.439-0.008,0.658-0.012
		c0.443,1.372,0.887,2.744,1.482,4.585c0.698-2.451,1.268-4.451,1.869-6.563c0.951,0.289,1.744,0.501,2.517,0.77
		c2.34,0.812,4.62,1.874,7.02,2.414c2.898,0.652,3.748,2.72,4.363,5.138c0.223,0.875,0.428,1.754,0.641,2.632
		c0.178-0.024,0.356-0.048,0.534-0.072c0.103-1.987,0.206-3.975,0.344-6.629c1.064,1.809,1.815,3.087,2.567,4.364
		c0.2-0.067,0.401-0.133,0.601-0.2c-0.273-1.825-0.546-3.65-0.826-5.526c2.763-0.789,5.429-1.538,8.088-2.314
		c1.318-0.385,2.291,0.082,3.045,1.14c0.919,1.29,1.818,2.594,2.732,3.887c0.33,0.467,0.677,0.923,1.226,1.249
		c-0.81-2.378-1.621-4.755-2.431-7.133c0.149-0.081,0.299-0.161,0.448-0.242c1.367,1.164,2.733,2.328,4.388,3.738
		c0.868-2.932-2.321-3.476-2.41-5.424c3.265-3.552,7.069-1.718,10.811-0.614c0.057-0.217,0.114-0.434,0.17-0.651
		c-1.4-0.767-2.866-1.439-4.172-2.343c-0.593-0.411-1.137-1.246-1.229-1.951c-0.158-1.205,0.818-1.354,1.811-1.35
		c2.067,0.009,4.135-0.014,6.202-0.078c0.717-0.022,1.43-0.206,2.154-0.687c-1.985-0.433-3.963-0.909-5.959-1.284
		c-1.415-0.265-2.273-0.774-1.364-2.316c1.301-2.207,0.322-3.941-1.605-5.916c2.345-1.074,4.388-2.01,6.431-2.945
		c-0.051-0.204-0.102-0.407-0.153-0.61c-0.415-0.067-0.865-0.272-1.24-0.178c-1.602,0.401-3.213,0.802-4.762,1.365
		c-3.209,1.168-3.701,1.069-5.682-1.604c-1.399-1.887-2.603-1.944-4.403-0.317c-0.504,0.456-1.198,0.702-1.805,1.044
		c-0.162-0.737-0.524-1.495-0.446-2.206c0.174-1.595,0.567-3.167,0.871-4.748c-0.251-0.091-0.503-0.181-0.754-0.271
		c-0.517,1.167-1.18,2.293-1.517,3.51c-0.562,2.034-1.523,3.732-3.451,4.653c-0.748,0.357-2.172,0.705-2.449,0.367
		c-0.705-0.859-1.237-2.097-1.271-3.201c-0.031-1.022,0.686-2.062,1.052-3.102c0.178-0.506,0.307-1.029,0.087-1.757
		c-0.445,0.616-0.867,1.251-1.339,1.846c-1.235,1.554-2.381,3.205-3.795,4.577c-0.556,0.54-1.732,0.441-2.625,0.634
		c0.052-0.823-0.02-1.679,0.193-2.458c0.173-0.632,0.689-1.17,1.11-1.84c-0.378-0.161-0.721-0.308-1.116-0.476
		c0.589-0.942,1.161-1.855,1.733-2.769c-0.148-0.164-0.297-0.327-0.445-0.491c-0.484,0.414-1.082,0.75-1.431,1.257
		c-1.393,2.027-3.194,3.247-5.721,2.941c-0.678-0.082-1.304-0.598-2.392-1.129c2.353-1.537,4.204-2.746,6.543-4.274
		c-3.751-0.159-6.943,2.169-10.015-0.605c2.189,0,4.379,0,6.568,0c0.02-0.189,0.039-0.378,0.059-0.568
		c-1.64-0.634-3.28-1.267-4.92-1.9c0.09-0.292,0.179-0.583,0.269-0.875c1.255,0.312,2.509,0.623,3.822,0.95
		c-0.585-2.42-4.702-2.965-4.114-6.152c0.284-0.162,0.569-0.324,0.853-0.486c1.048,1.84,2.097,3.68,3.145,5.52
		c0.264-0.094,0.529-0.187,0.793-0.28c-0.892-3.427-2.036-6.883,0.991-9.956c3.983,0.876,2.633,4.517,3.314,7.071
		c2.637-0.169,2.523-2.153,2.585-3.843c0.075-2.012,0.85-3.217,2.108-3.461c0.19,0.614,0.375,1.211,0.586,1.89
		c0.523-0.432,0.788-1.105,1.065-1.735c0.334,0.108,0.684,0.258,1.051,0.457c0.598,0.324,1.274,0.514,1.927,0.725
		c2.428,0.784,2.917,1.517,2.714,4.079c-0.094,1.191-0.161,2.384-0.24,3.576c0.222,0.061,0.444,0.122,0.666,0.183
		c0.986-2.436,1.967-4.862,2.891-7.144c0.064-0.035,0.125-0.069,0.19-0.106c0.29,0.571,0.744,1.466,1.178,2.323
		c0.22,0,0.435,0.052,0.473-0.008c2.198-3.44,5.155-1.97,7.932-1.402c0.708,0.335,1.398,0.809,2.381,1.367
		c0.144,1.305,0.341,3.1,0.599,5.439c0.73-1.414,1.411-2.269,1.597-3.22c0.135-0.692,0.047-1.425-0.036-2.045
		c1.065,0.536,2.12,1.178,3.426,1.899c-0.049,0.083,0.202-0.314,0.426-0.727c0.23-0.423,0.434-0.861,0.649-1.292
		c0.27,0.468,0.578,0.918,0.799,1.408c0.237,0.526,0.391,1.089,0.825,1.727c0.313-2.05,1.154-3.321,3.302-2.791
		c0.713,0.176,1.466,0.533,1.993,1.028c0.634,0.595,1.048,1.426,1.557,2.154c0.223-0.168,0.446-0.337,0.67-0.505
		c-0.244-0.851-0.489-1.702-0.75-2.613c4.473-0.908,5.339,2.726,7.241,5.21c-0.148-1.379-0.212-2.773-0.469-4.131
		c-0.221-1.165,0.217-1.699,1.292-1.858c2.585-0.384,5.19-0.658,7.753-1.152c4.435-0.854,8.368-0.082,11.663,3.168
		c0.059,0.059,0.252-0.018,0.159-0.009c-0.471-1.723-1.014-3.445-1.37-5.204c-0.09-0.445,0.281-1.18,0.672-1.495
		c2.784-2.25,5.601-4.46,8.465-6.608c1.374-1.03,2.299-2.804,4.414-2.688c1.125,0.062,2.259-0.068,3.39-0.088
		c0.993-0.018,1.987-0.004,3.036-0.283c-1.948-0.78-3.895-1.559-5.843-2.338c0.049-0.172,0.097-0.344,0.146-0.517
		c1.165,0.246,2.331,0.492,3.496,0.738c0.071-0.16,0.143-0.32,0.214-0.48c-0.465-0.324-0.887-0.774-1.402-0.949
		c-1.728-0.586-1.962-1.579-1.465-3.288c1.226-4.215,2.165-8.512,3.365-12.736c0.221-0.778,0.997-1.646,1.738-1.978
		c1.599-0.716,3.341-1.111,5.025-1.637c-0.017-0.169-0.034-0.339-0.051-0.508c-2.238,0-4.476,0-6.713,0
		c-0.005-0.16-0.011-0.321-0.016-0.482c0.751-0.398,1.502-0.795,2.257-1.195c-0.137-0.246-0.218-0.448-0.251-0.44
		c-2.336,0.542-3.196-0.7-3.885-2.744c-1.231-3.65-2.847-7.169-4.15-10.797c-0.28-0.779-0.052-1.833,0.203-2.682
		c0.209-0.693,0.874-1.235,1.216-1.906c0.522-1.022,0.939-2.098,1.4-3.151c-0.241-0.152-0.483-0.304-0.724-0.456
		c-1.294,1.181-2.546,2.413-3.903,3.517c-0.577,0.47-1.374,0.67-2.072,0.992c-0.068-0.716-0.3-1.465-0.168-2.142
		c0.213-1.093,0.665-2.139,1.137-3.571c-0.549,0.326-0.777,0.423-0.958,0.575c-2.837,2.381-2.79,2.33-5.514-0.02
		c-1.561-1.346-3.179-2.713-4.985-3.666c-2.274-1.2-2.603-3.024-2.37-5.195c0.139-1.29,0.419-2.564,0.345-3.958
		c-0.813,1.398-1.626,2.797-2.439,4.196c-0.219,0.004-0.439,0.008-0.658,0.012c-0.443-1.372-0.887-2.744-1.482-4.585
		c-0.698,2.451-1.268,4.451-1.869,6.563c-0.951-0.289-1.744-0.501-2.517-0.77c-2.34-0.812-4.62-1.874-7.02-2.414
		c-2.898-0.652-3.748-2.72-4.363-5.138c-0.223-0.875-0.428-1.754-0.641-2.631c-0.178,0.024-0.356,0.048-0.534,0.072
		c-0.103,1.987-0.206,3.975-0.344,6.629c-1.064-1.809-1.815-3.087-2.567-4.365c-0.2,0.067-0.401,0.134-0.601,0.2
		c0.273,1.825,0.546,3.65,0.826,5.526c-2.763,0.789-5.429,1.538-8.088,2.314c-1.318,0.385-2.291-0.082-3.045-1.14
		c-0.919-1.29-1.818-2.594-2.732-3.887c-0.33-0.468-0.677-0.923-1.226-1.249c0.81,2.378,1.621,4.755,2.431,7.133
		c-0.149,0.081-0.299,0.161-0.448,0.242c-1.367-1.164-2.733-2.328-4.388-3.738c-0.868,2.932,2.321,3.476,2.41,5.424
		c-3.265,3.552-7.069,1.718-10.811,0.614c-0.057,0.217-0.114,0.434-0.17,0.651c1.4,0.767,2.866,1.439,4.172,2.343
		c0.593,0.411,1.137,1.246,1.229,1.951c0.158,1.205-0.818,1.354-1.811,1.35c-2.067-0.009-4.135,0.014-6.202,0.078
		c-0.717,0.022-1.43,0.206-2.154,0.687c1.985,0.433,3.963,0.909,5.959,1.284c1.415,0.266,2.273,0.774,1.364,2.316
		c-1.301,2.207-0.322,3.941,1.605,5.916c-2.345,1.074-4.388,2.01-6.431,2.945c0.051,0.204,0.102,0.407,0.153,0.61
		c0.415,0.067,0.865,0.272,1.24,0.178c1.602-0.401,3.213-0.802,4.762-1.365c3.209-1.168,3.701-1.069,5.682,1.604
		c1.399,1.887,2.603,1.944,4.403,0.317c0.504-0.456,1.198-0.702,1.805-1.044c0.162,0.737,0.524,1.495,0.446,2.206
		c-0.174,1.595-0.567,3.167-0.871,4.748c0.251,0.091,0.503,0.181,0.754,0.271c0.517-1.167,1.18-2.293,1.517-3.51
		c0.562-2.034,1.523-3.732,3.451-4.653c0.748-0.357,2.172-0.705,2.449-0.367c0.705,0.859,1.237,2.097,1.271,3.201
		c0.031,1.022-0.686,2.062-1.052,3.102c-0.178,0.506-0.307,1.029-0.087,1.757c0.445-0.616,0.867-1.251,1.339-1.846
		c1.235-1.554,2.381-3.205,3.795-4.577c0.556-0.54,1.732-0.441,2.625-0.634c-0.052,0.823,0.02,1.68-0.193,2.458
		c-0.173,0.632-0.689,1.17-1.11,1.84c0.378,0.161,0.721,0.308,1.116,0.476c-0.589,0.942-1.161,1.855-1.733,2.769
		c0.148,0.164,0.297,0.327,0.445,0.491c0.484-0.414,1.082-0.75,1.431-1.257c1.393-2.027,3.194-3.247,5.721-2.941
		c0.678,0.082,1.304,0.598,2.392,1.129c-2.353,1.537-4.204,2.746-6.543,4.274c3.751,0.159,6.943-2.169,10.015,0.605
		c-2.189,0-4.379,0-6.568,0c-0.02,0.189-0.039,0.378-0.059,0.568c1.64,0.634,3.28,1.267,4.92,1.9
		c-0.09,0.292-0.179,0.583-0.269,0.875c-1.255-0.312-2.509-0.624-3.822-0.95c0.585,2.42,4.702,2.965,4.114,6.152
		c-0.284,0.162-0.569,0.324-0.853,0.486c-1.048-1.84-2.097-3.68-3.145-5.52c-0.264,0.094-0.529,0.187-0.793,0.28
		c0.892,3.427,2.036,6.883-0.991,9.955c-3.983-0.876-2.633-4.516-3.314-7.071c-2.637,0.169-2.523,2.153-2.585,3.843
		c-0.075,2.012-0.85,3.217-2.108,3.461c-0.19-0.614-0.375-1.211-0.586-1.89c-0.523,0.432-0.788,1.104-1.065,1.735
		c-0.334-0.108-0.684-0.258-1.051-0.457c-0.598-0.324-1.274-0.514-1.927-0.725c-2.428-0.784-2.917-1.517-2.714-4.079
		c0.094-1.191,0.161-2.384,0.24-3.576c-0.222-0.061-0.444-0.122-0.666-0.182c-0.986,2.436-1.967,4.862-2.891,7.144
		c-0.064,0.035-0.125,0.069-0.19,0.106c-0.29-0.571-0.744-1.466-1.178-2.323c-0.22,0-0.435-0.052-0.473,0.008
		c-2.198,3.44-5.155,1.97-7.932,1.402c-0.708-0.335-1.398-0.809-2.381-1.367c-0.144-1.305-0.341-3.1-0.599-5.439
		c-0.73,1.414-1.411,2.269-1.597,3.22c-0.135,0.692-0.047,1.425,0.036,2.045c-1.065-0.536-2.12-1.178-3.426-1.899
		c0.049-0.083-0.202,0.314-0.426,0.727c-0.23,0.423-0.434,0.861-0.649,1.292c-0.27-0.468-0.578-0.918-0.799-1.408
		c-0.237-0.526-0.391-1.089-0.825-1.727c-0.313,2.05-1.154,3.321-3.302,2.791c-0.713-0.176-1.466-0.533-1.993-1.028
		c-0.634-0.595-1.048-1.426-1.557-2.154c-0.223,0.168-0.446,0.337-0.67,0.505c0.244,0.851,0.489,1.702,0.75,2.613
		c-4.473,0.908-5.339-2.726-7.241-5.21c0.148,1.379,0.212,2.773,0.469,4.131c0.221,1.165-0.217,1.699-1.292,1.858
		c-2.585,0.384-5.19,0.658-7.753,1.152c-4.435,0.854-8.368,0.082-11.663-3.168c-0.059-0.059-0.252,0.018-0.159,0.009
		c0.471,1.723,1.014,3.444,1.37,5.204c0.09,0.445-0.281,1.18-0.672,1.495c-2.784,2.25-5.601,4.46-8.465,6.608
		c-1.374,1.03-2.299,2.804-4.414,2.688c-1.125-0.062-2.259,0.068-3.39,0.088c-0.993,0.018-1.987,0.004-3.036,0.283
		c1.948,0.78,3.895,1.559,5.843,2.338c-0.049,0.172-0.097,0.344-0.146,0.517c-1.165-0.246-2.331-0.492-3.496-0.738
		c-0.071,0.16-0.143,0.32-0.214,0.48c0.465,0.324,0.887,0.775,1.402,0.949c1.728,0.586,1.962,1.579,1.465,3.288
		c-1.226,4.215-2.165,8.512-3.365,12.736c-0.221,0.778-0.997,1.646-1.738,1.978c-1.599,0.716-3.341,1.111-5.025,1.637
		C4.325,99.26,4.342,99.429,4.359,99.599z"/>
</g>
</svg>
