<?xml version="1.0" encoding="iso-8859-1"?>
<!-- Generator: Adobe Illustrator 17.1.0, SVG Export Plug-In . SVG Version: 6.00 Build 0)  -->
<!DOCTYPE svg PUBLIC "-//W3C//DTD SVG 1.1//EN" "http://www.w3.org/Graphics/SVG/1.1/DTD/svg11.dtd">
<svg version="1.1" id="Capa_1" xmlns="http://www.w3.org/2000/svg" xmlns:xlink="http://www.w3.org/1999/xlink" x="0px" y="0px"
	 viewBox="0 0 150 150" style="enable-background:new 0 0 150 150;" xml:space="preserve">
<g>
	<path d="M141.516,80.002c-0.259-0.392-0.396-0.828-0.426-1.276c0.042-0.174,0.065-0.362,0.153-0.504
		c0.663-1.073,1.32-2.149,1.989-3.218c0.127-0.203,0.261-0.4,0.398-0.597c1.079-0.461,0.531-2.3-0.748-2.019
		c-0.259,0.057-0.518,0.114-0.777,0.171c-0.117-0.021-0.234-0.027-0.35-0.026c-2.337-1.635-4.568-3.395-6.943-4.918
		c-8.349-5.612-18.082-9.133-28.093-10.079c-0.157-0.068-0.323-0.119-0.493-0.158c0.039-0.004,0.078-0.008,0.117-0.012
		c-1.335-1.449-7.096-5.405-8.125-5.368c0.492,0.417,0.453,0.766,0.24,0.612c-1.087-0.782-2.19-1.35-3.379-0.136
		c0.134,0.081,0.266,0.166,0.397,0.254c-0.265-0.008-0.531-0.007-0.797,0.003c-0.22-0.151-0.439-0.302-0.658-0.452
		c-0.417-0.286-0.843-0.218-1.186,0.098c-0.787,0.726-1.639,0.703-2.52,0.26c-0.454-0.228-0.729-0.19-0.954,0.305
		c-0.058,0.128-0.126,0.241-0.204,0.34c-0.077-0.008-0.154-0.014-0.232-0.016c-0.706-0.013-1.362,0.243-1.874,0.67
		c-0.382-0.142-0.818-0.187-1.228-0.249c-0.347-0.052-0.855,0.456-1.062,0.987c-0.386,0.091-0.772,0.182-1.158,0.272
		c-0.304-0.044-0.606-0.092-0.906-0.152c-0.428-0.086-0.76-0.073-1.098,0.277c-0.593,0.615-1.361,0.636-2.132,0.42
		c-0.481-0.134-0.836-0.097-1.214,0.304c-0.135,0.144-0.286,0.25-0.447,0.327c-0.309-0.125-0.643-0.199-0.992-0.205
		c-0.779-0.014-1.498,0.299-2.028,0.808c-1.299,0.163-2.601,0.3-3.901,0.454c-0.155,0.018-0.31,0.082-0.454,0.148
		c-0.173,0.079-0.324,0.237-0.501,0.269c-1.091,0.201-2.187,0.375-3.281,0.562c-0.95,0.162-1.9,0.319-2.848,0.495
		c-1.161,0.215-2.336,0.383-3.473,0.689c-1.289,0.348-2.63,0.547-3.761,1.403c-0.689,0.522-1.62,0.731-2.29,1.269
		c-0.953,0.765-1.802,1.672-2.623,2.582c-0.323,0.357,0.087,0.552,0.408,0.595c1.479,0.202,2.959,0.386,4.439,0.576
		c0.394,0.327,0.873,0.546,1.385,0.634c0,0.025-0.001,0.049,0,0.074c-1.031,0.249-2.044,0.576-3.029,0.976
		c-0.546,0.099-1.093,0.195-1.641,0.292c-1.159-0.923-2.339-1.82-3.519-2.716c-0.575-0.436-0.785-0.363-1.054,0.297
		c-0.433,1.063-0.749,2.134-0.949,3.212c-0.029-0.004-0.053-0.007-0.078-0.01c-0.143-0.026-0.285-0.053-0.427-0.083
		c-0.336-0.075-0.671-0.152-1.001-0.25c-0.576-0.17-1.147-0.36-1.702-0.593c-0.046-0.019-0.083-0.035-0.115-0.049
		c-0.124-0.058-0.248-0.116-0.371-0.177c-0.305-0.153-0.609-0.308-0.907-0.475c-0.596-0.335-1.183-0.687-1.751-1.067
		c-0.561-0.375-1.113-0.763-1.653-1.168c0.002-0.003,0.005-0.006,0.008-0.009c-0.086-0.103-0.135-0.189-0.207-0.244
		c-1.624-1.215-3.361-2.306-4.853-3.666c-2.944-2.684-6.341-4.74-9.491-7.136c-1.901-1.446-3.824-2.87-5.807-4.201
		c-2.659-1.784-5.402-3.432-8.472-4.447c-0.601-0.199-1.096-0.838-1.901-0.405c0.153,0.136,0.292,0.244,0.415,0.371
		c0.982,1.015,1.976,2.02,2.938,3.055c2.471,2.657,4.94,5.317,7.383,8c0.723,0.794,1.357,1.668,2.031,2.507
		c1.136,1.414,2.312,2.797,3.393,4.252c0.836,1.125,1.632,2.296,2.296,3.528c0.699,1.296,0.668,2.703,0.197,4.106
		c-1.073,3.194-2.977,5.727-5.803,7.595c-3.378,2.233-6.814,4.372-10.607,5.814c-1.75,0.666-3.636,0.973-5.461,1.437
		c-0.598,0.152-1.201,0.283-1.802,0.424c-0.002,0.072-0.004,0.143-0.005,0.215c1.161,0.108,2.321,0.304,3.482,0.307
		c2.377,0.005,4.82,0.242,7.118-0.214c6.437-1.28,12.727-3.165,18.987-5.148c3.296-1.044,6.675-1.827,10.017-2.727
		c1.022-0.276,2.038-0.211,3.035,0.103c4.326,1.363,8.651,2.734,12.97,4.118c0.268,0.086,0.492,0.306,0.736,0.464
		c-0.001,0.094-0.003,0.187-0.005,0.281c-3.395,1.129-6.789,2.257-10.343,3.439c0.282,0.099,0.398,0.165,0.519,0.178
		c1.274,0.134,2.559,0.203,3.822,0.404c0.925,0.148,1.82,0.482,2.735,0.706c0.708,0.173,1.439,0.259,2.136,0.466
		c1.129,0.336,2.238,0.739,3.355,1.114c0.714,0.24,1.418,0.525,2.148,0.698c0.26,0.061,0.596-0.121,0.877-0.24
		c2.373-1.003,4.747-2.006,7.108-3.036c0.589-0.257,1.159-0.321,1.723-0.22c0.003,0.014,0.005,0.027,0.008,0.041
		c0.311,1.382,0.908,2.616,2.458,3.062c0.755,0.217,1.813-0.09,2.273-0.72c0.043-0.059,0.082-0.119,0.123-0.178
		c1.699,0.797,3.503,1.143,5.373,1.258c3.598,0.223,7.194,0.5,10.795,0.643c2.673,0.106,5.353,0.03,8.03,0.049
		c0.443,0.003,0.886,0.079,1.472,0.135c-0.609,0.481-1.103,0.871-1.597,1.261c-0.294,0.197-0.588,0.395-0.883,0.592
		c-0.614,0.023-1.259,0.535-1.116,1.326c0.316,1.762,0.633,3.523,0.949,5.285c0.229,1.278,0.897,3.199-0.223,4.231
		c-0.986,0.909,0.369,2.379,1.382,1.642c0.024,0.009,0.048,0.017,0.073,0.026c0.254-0.286,0.536-0.552,0.76-0.86
		c2.559-3.518,4.66-7.28,6.051-11.418c0.046-0.136,0.124-0.27,0.131-0.408c0.08-1.606,1.006-2.043,2.511-2.274
		c4.906-0.753,9.834-1.488,14.653-2.647c3.715-0.893,7.287-2.389,10.905-3.667c1.866-0.659,3.693-1.429,5.539-2.146
		c1.025-0.398,1.489-0.763,1.749-1.374c-1.184-0.021-2.379-0.033-3.574-0.069C142.045,80.159,141.817,80.028,141.516,80.002z"/>
</g>
</svg>
