<?xml version="1.0" encoding="iso-8859-1"?>
<!-- Generator: Adobe Illustrator 17.1.0, SVG Export Plug-In . SVG Version: 6.00 Build 0)  -->
<!DOCTYPE svg PUBLIC "-//W3C//DTD SVG 1.1//EN" "http://www.w3.org/Graphics/SVG/1.1/DTD/svg11.dtd">
<svg version="1.1" id="Capa_1" xmlns="http://www.w3.org/2000/svg" xmlns:xlink="http://www.w3.org/1999/xlink" x="0px" y="0px"
	 viewBox="0 0 200 200" style="enable-background:new 0 0 200 200;" xml:space="preserve">
<g>
	<path d="M126.305,89.539c0.167,0.221,0.251,0.525,0.51,0.391c0.343-0.179,0.71-0.202,1.089-0.176
		c0.463,0.031,0.869,0.121,1.15-0.298c0.805-1.197,0.657-2.58,0.096-3.836c-0.414,0.243-0.563,0.858-0.865,1.211
		c-0.181,0.212-0.548,0.149-0.495-0.181c0.046-0.284,0.251-0.544,0.414-0.772c0.148-0.208,0.314-0.413,0.428-0.643
		c0.125-0.253-0.292-0.817-0.448-1.018c-0.475-0.613-1.069-1.127-1.545-1.744c-0.392,0.838-1.02,1.618-0.746,2.59
		c0.087,0.31,0.288,0.788,0.008,1.067c-0.267,0.266-0.526-0.184-0.556-0.403c-0.067-0.483,0.092-0.938-0.078-1.421
		c-0.203-0.576-0.712-0.79-1.251-0.971c-0.921-0.309-1.898-0.386-2.812-0.724c0.008,0.915-0.22,1.801-0.265,2.711
		c-0.024,0.482-0.056,1.033,0.246,1.44c0.352,0.474,0.883,0.552,1.4,0.736c0.223,0.079,0.583,0.317,0.456,0.607
		c-0.168,0.381-0.804,0.005-0.987-0.149c-0.842-0.71-1.834-0.369-2.822-0.278c0.388,0.608,0.674,1.252,1.021,1.881
		c0.203,0.369,0.485,0.669,0.807,0.936c0.285-0.002,0.574-0.116,0.845-0.192c0.246-0.069,0.507-0.148,0.765-0.139
		c0.282,0.01,0.492,0.339,0.178,0.506c-0.45,0.239-1.104,0.101-1.507,0.436c0.948,0.911,2.138,1.523,3.484,1.245
		c0.499-0.103,0.615-0.288,0.755-0.764c0.117-0.394,0.212-0.791,0.495-1.105c0.112-0.125,0.293-0.149,0.194-0.301
		c-0.08-0.123-0.16-0.245-0.24-0.367c-0.879-1.346-1.758-2.692-2.637-4.038c0.282,0.361,0.606,0.711,0.854,1.039
		C124.934,87.724,125.62,88.631,126.305,89.539z"/>
	<path d="M189.548,42.208c-0.173,0.235-0.82,0.865-1.129,0.46c-0.234-0.309,0.126-0.694,0.367-0.852
		c0.561-0.367,1.169-0.612,1.451-1.275c0.242-0.571,0.046-1.215-0.12-1.781c-0.313-1.067-0.839-2.054-1.091-3.142
		c-0.988,0.663-2.126,1.035-3.131,1.665c-0.589,0.369-1.132,0.769-1.207,1.511c-0.064,0.622,0.255,1.116,0.315,1.709
		c0.027,0.269-0.152,0.877-0.545,0.638c-0.412-0.251-0.311-0.877-0.296-1.269c0.047-1.232-0.922-1.979-1.628-2.861
		c-0.388,0.87-0.947,1.65-1.335,2.513c-0.127,0.283-0.461,1.072-0.24,1.336c0.201,0.24,0.457,0.435,0.693,0.64
		c0.258,0.224,0.576,0.474,0.712,0.798c0.158,0.376-0.26,0.557-0.536,0.357c-0.459-0.333-0.813-1.021-1.374-1.19
		c-0.306,1.652-0.086,3.336,1.213,4.527c0.454,0.417,0.91,0.193,1.451,0.024c0.442-0.138,0.885-0.217,1.344-0.103
		c0.345,0.086,0.358-0.299,0.493-0.61c0.554-1.274,1.108-2.548,1.662-3.822c0.2-0.461,0.484-0.969,0.716-1.478
		c-0.658,1.85-1.316,3.699-1.974,5.549c-0.015,0.041-0.029,0.082-0.044,0.123c-0.208-0.152-0.889,0.376-1.096,0.796
		c-0.327,0.661-0.653,1.321-1.046,1.945c-0.819,1.299-1.788,2.504-2.825,3.66c-0.377,0.42-0.823,0.316-0.996-0.221
		c-0.705-2.196-1.479-4.374-1.511-6.407c-0.009-0.564-0.118-0.593-0.249-0.044c-0.834,3.477,0.307,7.942-1.908,10.69
		c-2.278,2.824-6.811,4.428-10.881,5.608c-8.203,2.379-18.253,1.814-27.283,2.97c-17.245,2.209-25.077,13.032-27.17,26.652
		c-0.086,0.558-0.419,0.645-0.793,0.223c-2.006-2.26-4.903-4.163-6.753-6.502c-0.35-0.443-0.406-0.413-0.17,0.099
		c1.264,2.742,2.581,5.487,4.105,8.256c0.774,1.397,1.909,2.815,2.418,4.21c0.601,1.642,0.077,3.067-0.2,4.42
		c-0.261,1.284-0.583,2.544-0.998,3.757c-0.182,0.534-0.432,0.853-0.531,0.724c-0.099-0.129-0.107-0.098-0.027,0.074
		s-0.023,0.737-0.26,1.25c-0.439,0.95-0.954,1.857-1.572,2.705c-2.956,4.066-7.963,6.676-11.038,10.634
		c-0.346,0.446-0.578,0.371-0.574-0.193c0.005-0.689-0.017-1.376-0.071-2.061c-0.25-3.248-1.852-6.076-3.619-8.856
		c-0.303-0.476-0.261-1.214,0.093-1.653c0.642-0.795,1.273-1.59,1.898-2.386c0.348-0.444,0.3-0.484-0.14-0.131
		c-0.7,0.563-1.483,1.077-2.307,1.568c-0.485,0.289-1.132,0.127-1.429-0.353c-0.759-1.225-1.461-2.469-2.02-3.759
		c0.738-1.089,1.475-2.178,2.213-3.267c-0.427-0.306-0.47-0.532-0.781-0.12c-0.388,0.514-0.777,1.027-1.165,1.541
		c-0.21,0.278-0.42,0.555-0.629,0.833c-0.085-0.307-0.148-0.598-0.17-0.793c-0.026-0.227-0.049-0.454-0.068-0.681
		c-0.046-0.54-0.067-1.079-0.075-1.618c0.091-0.007,0.185-0.014,0.279-0.019c0.627-0.036,1.235,0.006,1.799,0.307
		c0.426,0.226,0.569-0.275,0.849-0.639c1.147-1.492,2.294-2.983,3.442-4.476c0.415-0.54,0.955-1.113,1.427-1.706
		c-1.473,2.214-2.946,4.427-4.42,6.641c-0.134,0.202-0.268,0.403-0.402,0.604c-0.166,0.249,0.133,0.292,0.317,0.501
		c0.463,0.524,0.616,1.182,0.803,1.836c0.226,0.789,0.415,1.098,1.238,1.275c2.224,0.479,4.201-0.517,5.782-2.009
		c-0.661-0.56-1.745-0.342-2.486-0.743c-0.517-0.281-0.165-0.821,0.301-0.834c0.427-0.012,0.859,0.123,1.264,0.241
		c0.447,0.13,0.924,0.323,1.396,0.329c0.537-0.438,1.007-0.93,1.349-1.537c0.583-1.035,1.065-2.097,1.716-3.097
		c-1.631-0.165-3.268-0.742-4.671,0.42c-0.305,0.252-1.363,0.866-1.635,0.233c-0.206-0.483,0.393-0.87,0.763-0.998
		c0.857-0.297,1.738-0.419,2.327-1.198c0.506-0.67,0.46-1.581,0.428-2.379c-0.061-1.505-0.426-2.975-0.399-4.487
		c-1.516,0.546-3.134,0.66-4.662,1.157c-0.895,0.292-1.74,0.638-2.084,1.588c-0.288,0.796-0.032,1.551-0.149,2.349
		c-0.054,0.363-0.488,1.103-0.926,0.659c-0.459-0.466-0.12-1.255,0.028-1.765c0.374-1.286-0.211-2.376-0.786-3.475
		c1.012-1.756,2.295-3.437,3.87-5.008c1.222-1.212,2.599-2.356,4.089-3.439c0.917-0.669,1.016-1.256,2.621-0.755
		c1.06,0.331,2.096,0.677,3.263,0.617c3.532-0.166,6.338-1.779,8.075-3.551c0.395-0.403,0.25-0.602-0.284-0.418
		c-2.465,0.848-6.056,1.78-9.035,1.695c-0.564-0.016-0.588-0.226-0.059-0.423c13.45-5.009,24.28-13.882,28.891-23.208
		c0.057-0.116,0.102-0.234,0.157-0.35c0.954-0.415,1.908-0.831,2.863-1.246c-0.162-0.401-0.092-0.577-0.49-0.428
		c-0.496,0.186-0.993,0.372-1.489,0.558c-0.153,0.057-0.306,0.115-0.46,0.172c0.308-0.707,0.587-1.421,0.834-2.141
		c0.057,0.03,0.11,0.059,0.168,0.091c0.452,0.251,0.856,0.549,1.116,1.007c0.196,0.345,0.517,0.059,0.872-0.07
		c1.455-0.532,2.911-1.064,4.367-1.596c0.527-0.193,1.155-0.353,1.745-0.558c-2.001,0.89-4.001,1.781-6.002,2.671
		c-0.182,0.081-0.364,0.162-0.546,0.243c-0.225,0.1-0.036,0.262,0,0.488c0.091,0.569-0.093,1.093-0.251,1.631
		c-0.191,0.649-0.195,0.947,0.299,1.433c1.336,1.313,3.15,1.492,4.907,1.151c-0.213-0.681-1.063-1.007-1.402-1.613
		c-0.236-0.423,0.247-0.644,0.577-0.447c0.302,0.18,0.543,0.464,0.773,0.725c0.254,0.287,0.5,0.632,0.826,0.844
		c0.567-0.068,1.111-0.203,1.616-0.475c0.862-0.463,1.665-0.989,2.558-1.398c-1.062-0.834-1.946-1.957-3.434-1.767
		c-0.324,0.041-1.33,0.002-1.24-0.558c0.069-0.427,0.657-0.432,0.971-0.358c0.727,0.171,1.393,0.475,2.147,0.192
		c0.648-0.243,1.017-0.897,1.346-1.466c0.621-1.074,1.015-2.257,1.7-3.297c-1.295-0.289-2.471-0.923-3.753-1.25
		c-0.751-0.192-1.492-0.323-2.149,0.186c-0.552,0.427-0.706,1.064-1.139,1.568c-0.197,0.229-0.826,0.552-0.934,0.05
		c-0.114-0.526,0.469-0.926,0.798-1.216c1.031-0.91,0.891-2.266,1.061-3.515c-1.002,0.355-2.062,0.504-3.058,0.854
		c-0.326,0.115-1.222,0.452-1.265,0.834c-0.039,0.348,0,0.704,0.015,1.052c0.018,0.381,0.06,0.83-0.097,1.189
		c-0.183,0.417-0.651,0.218-0.701-0.158c-0.084-0.627,0.2-1.442-0.094-2.026c-0.192,0.125-0.378,0.257-0.557,0.396
		c0.148-1.179,0.163-2.373,0.252-3.56c0.098-1.308,0.032-1.998-0.098-2.338c-0.201-0.527-0.786,0.479-0.806,1.043
		c-0.026,0.737-0.053,1.473-0.155,2.203c-0.214,1.521-0.603,3.017-1.073,4.497c-0.171,0.538-0.621,0.626-0.999,0.207
		c-1.371-1.52-2.782-3.006-3.687-4.608c0.263-0.078,0.537-0.086,0.817-0.067c0.463,0.031,0.869,0.121,1.15-0.298
		c0.805-1.197,0.657-2.58,0.096-3.836c-0.414,0.243-0.563,0.858-0.865,1.211c-0.181,0.212-0.548,0.149-0.495-0.181
		c0.046-0.284,0.251-0.544,0.414-0.772c0.148-0.208,0.314-0.413,0.428-0.643c0.125-0.253-0.292-0.817-0.448-1.018
		c-0.475-0.613-1.069-1.127-1.545-1.744c-0.392,0.838-1.02,1.618-0.746,2.59c0.087,0.31,0.288,0.788,0.008,1.067
		c-0.267,0.266-0.526-0.184-0.556-0.403c-0.067-0.483,0.092-0.938-0.078-1.421c-0.203-0.576-0.712-0.79-1.251-0.971
		c-0.921-0.309-1.898-0.386-2.812-0.724c0.008,0.915-0.22,1.801-0.265,2.711c-0.024,0.482-0.056,1.033,0.246,1.44
		c0.352,0.474,0.883,0.552,1.4,0.736c0.223,0.079,0.583,0.317,0.456,0.607c-0.168,0.381-0.804,0.005-0.987-0.149
		c-0.842-0.71-1.834-0.369-2.822-0.278c0.388,0.608,0.674,1.252,1.021,1.881c0.203,0.369,0.485,0.669,0.807,0.936
		c0.285-0.002,0.574-0.116,0.845-0.192c0.246-0.069,0.507-0.148,0.765-0.139c0.282,0.01,0.492,0.339,0.178,0.506
		c-0.45,0.239-1.104,0.101-1.507,0.436c0.948,0.911,2.138,1.523,3.484,1.245c0.499-0.103,0.615-0.288,0.755-0.764
		c0.117-0.394,0.212-0.791,0.495-1.105c0.112-0.125,0.293-0.15,0.194-0.301c-0.08-0.123-0.16-0.245-0.24-0.367
		c-0.879-1.346-1.758-2.692-2.637-4.038c0.282,0.361,0.606,0.711,0.854,1.039c0.686,0.908,1.371,1.816,2.057,2.723
		c0.132,0.175,0.216,0.393,0.371,0.413c0.014,0.055,0.033,0.11,0.048,0.165c-0.125-0.12-0.182-0.014-0.403,0.141
		c0.303,0.456,0.606,0.911,0.908,1.367c1.052,2.752,2.632,5.52,1.939,8.175c-0.918,3.511-4.393,6.833-7.62,9.581
		c-1.788,1.522-3.799,2.896-5.93,4.19c-0.211-0.212-0.421-0.423-0.632-0.635c-0.237,0.224-0.379,0.223-0.166,0.461
		c0.127,0.142,0.254,0.284,0.382,0.425c-0.347,0.208-0.697,0.413-1.049,0.617c0.001-0.006,0.001-0.012,0.002-0.018
		c0.052-0.386,0.15-0.75,0.4-1.058c0.188-0.232-0.1-0.378-0.288-0.592c-0.771-0.874-1.543-1.749-2.314-2.624
		c-0.279-0.316-0.564-0.713-0.869-1.07c1.172,1.158,2.343,2.316,3.515,3.475c0.107,0.105,0.213,0.211,0.32,0.316
		c0.132,0.13,0.194-0.046,0.342-0.133c0.374-0.219,0.792-0.234,1.212-0.271c0.507-0.044,0.717-0.122,0.922-0.602
		c0.555-1.296,0.184-2.616-0.537-3.755c-0.419,0.336-0.415,1.021-0.747,1.424c-0.232,0.281-0.519,0.003-0.472-0.282
		c0.044-0.261,0.177-0.508,0.296-0.74c0.132-0.257,0.306-0.524,0.366-0.81c-0.203-0.379-0.446-0.723-0.775-1.003
		c-0.561-0.477-1.149-0.896-1.68-1.41c-0.294,0.973-0.839,1.9-0.298,2.891c0.117,0.216,0.365,0.931-0.052,1.022
		c-0.318,0.068-0.483-0.342-0.517-0.582c-0.079-0.557-0.049-1.107-0.453-1.557c-0.348-0.387-0.907-0.467-1.396-0.542
		c-0.923-0.142-1.86-0.094-2.777-0.289c0.152,0.987,0.03,1.984,0.151,2.973c0.071,0.579,0.182,1.134,0.719,1.456
		c0.45,0.27,0.939,0.203,1.411,0.369c0.214,0.076,0.613,0.428,0.291,0.641c-0.338,0.224-0.777-0.075-1.07-0.226
		c-0.92-0.474-1.832-0.004-2.754,0.219c0.523,0.605,0.917,1.307,1.436,1.909c0.17,0.197,0.651,0.733,0.931,0.658
		c0.254-0.068,0.494-0.193,0.733-0.299c0.262-0.117,0.565-0.269,0.86-0.258c0.342,0.014,0.331,0.396,0.081,0.534
		c-0.416,0.231-1.065,0.255-1.394,0.621c0.648,0.464,1.365,0.795,2.111,0.901c-4.632,2.524-9.564,4.857-13.969,7.56
		c-2.647,1.624-4.902,3.378-6.807,5.235c-0.404,0.394-1.134,0.919-1.632,1.185c-0.228,0.122-0.451,0.247-0.669,0.376
		c-0.485,0.288-0.776,0.104-0.688-0.454c0.787-4.986,0.722-9.847-0.446-14.369c0.322-0.475,0.643-0.95,0.965-1.425
		c-0.352-0.252-0.387-0.438-0.643-0.099c-0.181,0.24-0.362,0.479-0.543,0.719c-0.129-0.444-0.269-0.885-0.42-1.321
		c0.324,0.023,0.639,0.088,0.939,0.248c0.351,0.186,0.468-0.227,0.699-0.526c0.945-1.228,1.889-2.457,2.834-3.686
		c0.342-0.444,0.787-0.917,1.175-1.405c-1.213,1.823-2.426,3.646-3.639,5.469c-0.11,0.166-0.221,0.331-0.331,0.498
		c-0.137,0.205,0.11,0.241,0.261,0.412c0.381,0.432,0.507,0.973,0.661,1.512c0.186,0.65,0.342,0.904,1.02,1.05
		c1.831,0.394,3.459-0.425,4.761-1.655c-0.544-0.461-1.437-0.282-2.047-0.612c-0.426-0.231-0.136-0.676,0.248-0.687
		c0.352-0.01,0.707,0.101,1.041,0.198c0.368,0.107,0.761,0.266,1.149,0.271c0.443-0.36,0.829-0.766,1.111-1.266
		c0.48-0.853,0.877-1.727,1.413-2.55c-1.344-0.136-2.691-0.611-3.847,0.345c-0.251,0.208-1.122,0.713-1.346,0.192
		c-0.17-0.398,0.324-0.717,0.628-0.822c0.706-0.245,1.431-0.345,1.916-0.987c0.417-0.552,0.379-1.302,0.353-1.959
		c-0.05-1.24-0.351-2.45-0.329-3.695c-1.248,0.45-2.581,0.543-3.839,0.953c-0.737,0.24-1.433,0.526-1.716,1.308
		c-0.237,0.656-0.026,1.277-0.123,1.935c-0.044,0.299-0.402,0.908-0.762,0.543c-0.378-0.384-0.099-1.033,0.023-1.454
		c0.384-1.32-0.461-2.391-0.986-3.537c-0.656,0.836-1.472,1.529-2.126,2.358c-0.214,0.272-0.79,1.035-0.622,1.381
		c0.153,0.315,0.377,0.595,0.576,0.88c0.219,0.312,0.495,0.669,0.555,1.056c0.069,0.45-0.433,0.532-0.677,0.241
		c-0.407-0.485-0.603-1.325-1.164-1.66c-0.08,0.176-0.151,0.355-0.218,0.535c-2.808-4.594-7.213-8.597-13.58-11.7
		c-0.068-0.736-0.136-1.472-0.204-2.209c-0.396,0.026-0.529-0.085-0.513,0.304c0.02,0.486,0.039,0.972,0.059,1.457
		c0.002,0.043,0.003,0.085,0.005,0.128c-0.016-0.007-0.03-0.015-0.046-0.022c-0.587-0.273-1.182-0.539-1.782-0.8
		c0.112-0.099,0.224-0.206,0.343-0.317c0.348-0.322,0.723-0.588,1.197-0.683c0.357-0.072,0.2-0.433,0.189-0.78
		c-0.046-1.42-0.091-2.841-0.137-4.261c-0.017-0.514,0.024-1.108,0.015-1.68c0.201,1.998,0.403,3.996,0.604,5.994
		c0.018,0.182,0.037,0.363,0.055,0.545c0.023,0.225,0.218,0.107,0.425,0.14c0.521,0.084,0.926,0.394,1.348,0.686
		c0.51,0.352,0.768,0.442,1.334,0.151c1.527-0.787,2.204-2.315,2.411-3.944c-0.654-0.01-1.182,0.637-1.807,0.758
		c-0.436,0.084-0.49-0.4-0.224-0.631c0.244-0.211,0.56-0.34,0.853-0.465c0.323-0.139,0.694-0.255,0.972-0.477
		c0.104-0.513,0.142-1.025,0.05-1.543c-0.156-0.883-0.383-1.734-0.483-2.629c-1.031,0.686-2.263,1.133-2.525,2.484
		c-0.057,0.294-0.38,1.159-0.842,0.919c-0.352-0.183-0.188-0.696-0.033-0.948c0.358-0.584,0.813-1.077,0.784-1.814
		c-0.026-0.634-0.489-1.143-0.891-1.594c-0.757-0.849-1.674-1.532-2.384-2.427c-0.623,1.045-1.513,1.887-2.166,2.909
		c-0.383,0.599-0.709,1.206-0.455,1.925c0.213,0.603,0.724,0.92,1.039,1.443c0.143,0.237,0.244,0.878-0.224,0.828
		c-0.491-0.052-0.672-0.674-0.83-1.044c-0.496-1.159-1.718-1.426-2.757-1.933c0.021,0.974-0.153,1.94-0.134,2.908
		c0.006,0.317,0.043,1.193,0.363,1.341c0.291,0.134,0.613,0.202,0.921,0.289c0.337,0.094,0.74,0.186,1.008,0.426
		c0.311,0.279,0.003,0.629-0.339,0.565c-0.57-0.107-1.199-0.588-1.791-0.499c0.196,0.74,0.499,1.434,0.918,2.03
		c-6.149-2.455-12.635-4.6-17.995-7.693c-0.044-0.473-0.088-0.946-0.131-1.419c-0.324,0.022-0.433-0.07-0.42,0.249
		c0.012,0.29,0.023,0.581,0.035,0.871c-0.348-0.208-0.688-0.423-1.025-0.64c0.239-0.196,0.493-0.363,0.807-0.425
		c0.292-0.059,0.164-0.354,0.155-0.638c-0.037-1.162-0.075-2.324-0.112-3.486c-0.014-0.42,0.02-0.906,0.012-1.374
		c0.165,1.634,0.329,3.268,0.494,4.903c0.015,0.149,0.03,0.297,0.045,0.446c0.019,0.184,0.178,0.087,0.348,0.115
		c0.427,0.069,0.757,0.323,1.103,0.562c0.417,0.288,0.628,0.362,1.091,0.123c1.249-0.644,1.803-1.894,1.972-3.226
		c-0.535-0.008-0.967,0.521-1.478,0.62c-0.357,0.069-0.401-0.327-0.183-0.516c0.199-0.173,0.458-0.278,0.698-0.381
		c0.264-0.114,0.568-0.208,0.795-0.39c0.085-0.42,0.116-0.839,0.041-1.263c-0.128-0.723-0.314-1.419-0.395-2.151
		c-0.844,0.561-1.851,0.927-2.066,2.032c-0.047,0.24-0.311,0.948-0.689,0.752c-0.288-0.149-0.153-0.57-0.027-0.776
		c0.293-0.478,0.665-0.881,0.641-1.484c-0.021-0.519-0.4-0.935-0.729-1.304c-0.619-0.695-1.37-1.253-1.95-1.986
		c-0.51,0.855-1.237,1.544-1.772,2.38c-0.313,0.49-0.58,0.987-0.372,1.575c0.175,0.493,0.593,0.753,0.85,1.18
		c0.117,0.194,0.199,0.718-0.184,0.678c-0.402-0.043-0.549-0.552-0.679-0.854c-0.406-0.949-1.406-1.167-2.256-1.581
		c0.018,0.797-0.125,1.587-0.11,2.379c0.005,0.259,0.035,0.976,0.297,1.097c0.238,0.11,0.502,0.166,0.753,0.236
		c0.276,0.077,0.605,0.152,0.824,0.348c0.254,0.228,0.003,0.515-0.277,0.462c-0.296-0.055-0.611-0.226-0.925-0.33
		c-2.604-1.964-4.981-4.22-5.958-6.742c-1.274-3.292,1.171-7.198,1.434-10.764c0.041-0.563-0.071-0.568-0.251-0.033
		c-0.648,1.926-2.048,3.766-3.387,5.643c-0.328,0.459-0.785,0.423-1.016-0.092c-0.636-1.417-1.193-2.859-1.578-4.346
		c-0.185-0.714-0.295-1.442-0.405-2.171c-0.084-0.558-0.779-1.491-0.919-0.945c-0.09,0.352-0.077,1.045,0.169,2.334
		c0.244,1.277,0.394,2.577,0.73,3.831c0.743,2.768,1.931,5.424,3.541,7.92c5.642,8.741,17.411,16.324,31.343,19.771
		c0.548,0.136,3.887,1.735,4.874,2.296c1.604,0.907,3.102,1.886,4.454,2.952c5.718,4.531,8.485,10.576,8.667,16.974
		c0.193,6.789-2.274,13.873-3.52,20.8c-0.068,0.379-0.126,0.756-0.175,1.129c-0.074,0.559-0.325,0.608-0.604,0.117
		c-2.558-4.496-6.588-8.338-12.409-11.207c0.594-0.878,1.189-1.755,1.783-2.633c-0.427-0.306-0.47-0.532-0.781-0.12
		c-0.388,0.514-0.777,1.027-1.165,1.541c-0.208,0.276-0.417,0.552-0.625,0.827c-2.131-0.99-4.491-1.856-7.099-2.58
		c-6.875-1.906-14.507-3.029-21.383-4.887c-0.47-0.896-0.94-1.791-1.41-2.687c-0.423,0.208-0.619,0.146-0.426,0.566
		c0.241,0.524,0.483,1.049,0.724,1.573c0.043,0.093,0.086,0.186,0.129,0.279c-0.755-0.215-1.496-0.443-2.228-0.68
		c0.006-0.014,0.012-0.026,0.018-0.04c0.237-0.511,0.528-0.973,1.005-1.291c0.359-0.24,0.023-0.566-0.145-0.941
		c-0.693-1.538-1.385-3.076-2.078-4.615c-0.251-0.557-0.475-1.227-0.744-1.85c1.125,2.102,2.25,4.203,3.375,6.305
		c0.102,0.191,0.205,0.382,0.307,0.574c0.127,0.237,0.287,0.019,0.53-0.038c0.61-0.143,1.194,0.014,1.79,0.143
		c0.719,0.156,1.043,0.137,1.532-0.438c1.32-1.554,1.371-3.538,0.862-5.419c-0.722,0.285-1.009,1.234-1.64,1.649
		c-0.441,0.29-0.719-0.217-0.531-0.591c0.172-0.342,0.461-0.626,0.726-0.897c0.292-0.299,0.646-0.593,0.851-0.963
		c-0.118-0.61-0.308-1.19-0.643-1.717c-0.571-0.899-1.205-1.73-1.72-2.667c-0.822,1.219-1.971,2.267-1.647,3.868
		c0.07,0.348,0.107,1.444-0.508,1.39c-0.469-0.041-0.521-0.679-0.466-1.025c0.128-0.803,0.405-1.55,0.039-2.346
		c-0.315-0.684-1.054-1.033-1.698-1.346c-1.215-0.59-2.531-0.924-3.715-1.585c-0.211,1.429-0.806,2.755-1.061,4.173
		c-0.149,0.831-0.233,1.645,0.372,2.319c0.507,0.565,1.211,0.682,1.793,1.113c0.264,0.196,0.664,0.853,0.128,1.011
		c-0.563,0.165-1.042-0.436-1.383-0.77c-1.069-1.048-2.531-0.788-3.901-0.874c0.464,1.06,0.71,2.198,1.169,3.252
		c0.075,0.172,0.221,0.492,0.399,0.772c-3.373-1.648-6.61-3.654-8.111-6.191c-1.824-3.086,0.369-7.303,0.202-10.877
		c-0.026-0.564-0.151-0.555-0.279-0.005c-0.469,2.015-1.788,4.05-3.03,6.114c-0.291,0.483-0.784,0.505-1.099,0.036
		c-0.696-1.038-1.336-2.099-1.879-3.197c0.026-0.002,0.052-0.003,0.079-0.005c-0.104-1.126-0.208-2.251-0.313-3.376
		c-0.324,0.022-0.433-0.07-0.42,0.249c0.016,0.397,0.032,0.795,0.048,1.192c0.008,0.207,0.017,0.414,0.025,0.621
		c-0.214-0.555-0.397-1.119-0.569-1.688c-0.016-0.052-0.043-0.11-0.07-0.167c0.122-0.061,0.243-0.124,0.383-0.152
		c0.292-0.059,0.164-0.354,0.155-0.638c-0.037-1.162-0.075-2.324-0.112-3.486c-0.014-0.42,0.02-0.906,0.012-1.374
		c0.165,1.634,0.329,3.268,0.494,4.903c0.015,0.149,0.03,0.297,0.045,0.446c0.019,0.184,0.178,0.087,0.348,0.115
		c0.427,0.069,0.757,0.323,1.103,0.562c0.417,0.288,0.628,0.362,1.091,0.123c1.249-0.644,1.803-1.894,1.972-3.226
		c-0.535-0.008-0.967,0.521-1.478,0.62c-0.357,0.069-0.401-0.327-0.183-0.516c0.199-0.173,0.458-0.278,0.698-0.381
		c0.264-0.114,0.568-0.208,0.795-0.39c0.085-0.42,0.116-0.839,0.041-1.263c-0.128-0.723-0.314-1.419-0.395-2.151
		c-0.844,0.561-1.851,0.927-2.066,2.032c-0.047,0.24-0.311,0.948-0.689,0.752c-0.288-0.149-0.153-0.57-0.027-0.776
		c0.293-0.478,0.665-0.881,0.641-1.484c-0.021-0.519-0.4-0.935-0.728-1.304c-0.619-0.695-1.37-1.253-1.95-1.986
		c-0.51,0.855-1.237,1.544-1.772,2.38c-0.313,0.49-0.58,0.987-0.372,1.575c0.175,0.493,0.593,0.753,0.85,1.18
		c0.117,0.194,0.199,0.718-0.184,0.678c-0.402-0.043-0.549-0.552-0.679-0.854c-0.406-0.949-1.406-1.167-2.256-1.581
		c0.018,0.797-0.125,1.587-0.11,2.379c0.005,0.259,0.035,0.976,0.297,1.097c0.238,0.11,0.502,0.166,0.753,0.236
		c0.276,0.077,0.605,0.152,0.824,0.348c0.254,0.228,0.002,0.515-0.277,0.462c-0.466-0.087-0.98-0.481-1.465-0.408
		c0.36,1.359,1.13,2.554,2.538,2.99c0.35,0.109,0.585-0.032,0.817-0.236c0.076,0.281,0.175,0.602,0.307,0.98
		c0.432,1.233,0.763,2.5,1.294,3.696c1.172,2.641,2.821,5.108,4.912,7.357c7.346,7.894,21.322,13.769,37.148,15.212
		c0.562,0.051,0.586,0.241,0.041,0.387c-3.248,0.873-7.483,0.868-10.393,0.658c-0.563-0.04-0.642,0.178-0.15,0.453
		c2.322,1.296,5.783,2.171,9.669,1.435c1.275-0.236,2.307-0.834,3.367-1.422c1.606-0.891,1.861-0.347,3.02,0.07
		c1.882,0.674,3.657,1.434,5.281,2.301c3.201,1.718,5.73,3.854,7.632,6.281c-0.017-0.008-0.03-0.021-0.047-0.03
		c-1.068-0.521-2.156-0.94-3.192-1.531c-0.069,1.638-0.549,3.306,0.694,4.638c0.27,0.29,0.945,1.309,0.329,1.618
		c-0.47,0.235-0.892-0.341-1.041-0.703c-0.347-0.839-0.52-1.71-1.333-2.252c-0.699-0.466-1.606-0.366-2.4-0.287
		c-1.499,0.149-2.945,0.6-4.456,0.663c0.634,1.481,0.843,3.09,1.429,4.586c0.344,0.876,0.739,1.699,1.708,1.987
		c0.812,0.241,1.55-0.059,2.354,0.011c0.365,0.032,1.13,0.423,0.712,0.885c-0.438,0.485-1.245,0.194-1.764,0.076
		c-1.628-0.372-2.866,0.73-4.218,1.447c1.06,0.736,1.959,1.675,3.01,2.409c0.345,0.24,1.311,0.884,1.719,0.656
		c0.371-0.208,0.694-0.499,1.026-0.761c0.363-0.287,0.775-0.648,1.241-0.748c0.541-0.116,0.676,0.487,0.341,0.803
		c-0.558,0.527-1.563,0.826-1.93,1.53c2.122,0.822,4.419,0.953,6.33-0.477c0.669-0.5,0.486-1.163,0.397-1.925
		c-0.073-0.624-0.066-1.233,0.201-1.814c0.201-0.438-0.308-0.552-0.688-0.81c-1.557-1.057-3.113-2.115-4.67-3.172
		c-0.563-0.383-1.168-0.888-1.788-1.324c2.297,1.341,4.593,2.681,6.89,4.022c0.209,0.122,0.418,0.244,0.627,0.366
		c0.259,0.151,0.284-0.15,0.481-0.346c0.496-0.493,1.143-0.684,1.785-0.909c0.067-0.023,0.125-0.046,0.185-0.069
		c0.053,0.265,0.109,0.53,0.152,0.798c0.118,0.731,0.19,1.473,0.245,2.218c-0.906-0.538-1.811-1.077-2.717-1.615
		c-0.28,0.445-0.503,0.5-0.074,0.787c0.536,0.357,1.071,0.715,1.607,1.072c0.417,0.278,0.833,0.556,1.25,0.834
		c0.044,1.201,0.025,2.416-0.042,3.642c-0.031,0.563-0.5,0.875-1.047,0.738c-0.403-0.101-0.818-0.187-1.247-0.257
		c-0.557-0.09-0.571-0.009-0.043,0.192c0.278,0.106,0.545,0.22,0.801,0.342c0.51,0.242,0.466,0.342-0.065,0.15
		c-0.71-0.257-1.395-0.54-2.035-0.872c-0.501-0.26-0.539-0.21-0.113,0.161c0.883,0.768,1.776,1.532,2.683,2.291
		c0.433,0.362,0.738,1.108,0.674,1.669c-0.15,1.312-0.319,2.628-0.483,3.943c-0.104-0.112-0.195-0.234-0.314-0.335
		c-0.795-0.676-1.629-1.271-2.382-2c-0.417,1.379-1.189,2.693-0.423,4.099c0.166,0.306,0.518,1.321-0.073,1.449
		c-0.451,0.097-0.684-0.485-0.733-0.825c-0.112-0.789-0.069-1.569-0.642-2.208c-0.493-0.549-1.286-0.662-1.98-0.769
		c-1.308-0.201-2.637-0.133-3.937-0.409c0.216,1.399,0.042,2.813,0.214,4.214c0.101,0.821,0.258,1.608,1.019,2.064
		c0.638,0.382,1.332,0.288,2.001,0.523c0.304,0.107,0.869,0.607,0.413,0.909c-0.479,0.317-1.102-0.107-1.518-0.321
		c-1.304-0.672-2.598-0.005-3.905,0.31c0.741,0.858,1.301,1.853,2.035,2.707c0.241,0.28,0.923,1.039,1.319,0.933
		c0.361-0.096,0.7-0.273,1.039-0.424c0.372-0.165,0.801-0.382,1.219-0.365c0.485,0.02,0.469,0.562,0.115,0.758
		c-0.59,0.327-1.51,0.361-1.976,0.88c1.627,1.163,3.552,1.776,5.491,0.977c0.678-0.279,0.667-0.883,0.758-1.552
		c0.074-0.547,0.213-1.064,0.567-1.5c0.267-0.329-0.142-0.537-0.409-0.839c-1.094-1.24-2.187-2.48-3.281-3.72
		c-0.396-0.448-0.8-1.011-1.232-1.517c1.661,1.642,3.323,3.285,4.984,4.927c0.151,0.149,0.302,0.299,0.453,0.448
		c0.187,0.185,0.274-0.066,0.485-0.189c0.01-0.006,0.02-0.008,0.03-0.013c0.007,0.254,0.022,0.504,0.037,0.755
		c-0.152-0.153-0.304-0.306-0.457-0.459c-0.336,0.317-0.538,0.316-0.235,0.654c0.259,0.288,0.517,0.577,0.776,0.865
		c0.47,4.611,2.228,8.709,4.665,12.697c0.294,0.482,0.504,1.088,0.462,1.362c-0.042,0.274-0.468,0.261-0.971,0.007
		c-2.033-1.026-4.553-1.768-7.547-1.792c-0.564-0.005-0.568,0.07-0.014,0.177c3.541,0.686,5.76,2.566,7.458,4.679
		c0.354,0.44,0.585,1.267,0.557,1.831c-0.201,4.004,0.202,7.924,1.579,11.608c0.295,0.791-2.797,21.837-4.417,29.638H53.892
		c-1.933,0-3.5,1.567-3.5,3.5s1.567,3.5,3.5,3.5h75.723c1.933,0,3.5-1.567,3.5-3.5s-1.567-3.5-3.5-3.5h-23.648
		c-0.75-4.194-1.915-12.873-1.585-25.085c0.141-1.65,0.284-3.298,0.458-4.935c0.161-1.5-0.124-3.928,0.978-4.901
		c0.703-0.619,1.337-1.29,1.961-1.966c2.693-2.917,5.524-7.121,11.072-7.399c0.564-0.028,0.576-0.11,0.018-0.196
		c-3.281-0.506-6.137,0.15-8.372,1.194c-0.511,0.239-0.601,0.127-0.225-0.294c4.514-5.066,7.965-10.407,8.902-17.529
		c0.061-0.465,0.117-0.933,0.17-1.402c0.024-0.021,0.048-0.043,0.073-0.064c-0.025-0.029-0.037-0.049-0.058-0.077
		c0.029-0.26,0.056-0.52,0.082-0.781c0.096-0.09,0.196-0.189,0.305-0.274c1.469-1.149,2.938-2.297,4.407-3.446
		c0.531-0.416,1.191-0.833,1.79-1.286c-1.96,1.761-3.92,3.522-5.88,5.283c-0.178,0.16-0.357,0.32-0.535,0.481
		c-0.221,0.198,0.056,0.313,0.181,0.559c0.315,0.617,0.299,1.286,0.318,1.96c0.022,0.813,0.127,1.156,0.874,1.529
		c2.016,1.008,4.159,0.541,6.044-0.502c-0.496-0.701-1.59-0.759-2.203-1.326c-0.427-0.397,0.044-0.829,0.495-0.726
		c0.413,0.094,0.794,0.33,1.154,0.543c0.397,0.235,0.807,0.538,1.258,0.66c0.624-0.287,1.196-0.644,1.674-1.142
		c0.815-0.85,1.539-1.749,2.41-2.549c-1.525-0.561-2.953-1.518-4.586-0.75c-0.355,0.167-1.521,0.495-1.626-0.18
		c-0.079-0.514,0.592-0.738,0.978-0.77c0.896-0.074,1.771,0.027,2.528-0.576c0.651-0.518,0.832-1.404,0.998-2.178
		c0.313-1.46,0.325-2.96,0.724-4.405c-1.59,0.15-3.17-0.14-4.759-0.04c-0.931,0.059-1.827,0.183-2.391,1.01
		c-0.473,0.693-0.413,1.48-0.723,2.218c-0.141,0.335-0.741,0.938-1.051,0.404c-0.325-0.56,0.194-1.234,0.463-1.687
		c0.844-1.424,0.179-2.925-0.089-4.417c-0.574,0.44-1.192,0.812-1.805,1.191c0.345-2.821,0.851-5.571,1.754-8.145
		c2.119-6.039,6.593-10.956,13.419-13.534c1.612-0.604,3.336-1.081,5.14-1.458c0.637-0.134,2.112-0.358,3.362-0.518
		c1.107,0.736,2.214,1.472,3.321,2.208c0.271-0.385,0.473-0.425,0.102-0.701c-0.463-0.344-0.927-0.688-1.39-1.032
		c-0.276-0.205-0.551-0.409-0.827-0.614c0.367-0.036,0.648-0.056,0.773-0.047c0.7,0.047,1.397,0.073,2.093,0.098
		c0.032,0.544-0.005,1.072-0.263,1.565c-0.2,0.383,0.251,0.508,0.579,0.756c1.346,1.017,2.692,2.033,4.039,3.05
		c0.487,0.368,1.005,0.847,1.54,1.265c-1.996-1.303-3.991-2.607-5.987-3.91c-0.182-0.119-0.363-0.237-0.545-0.356
		c-0.225-0.147-0.261,0.122-0.446,0.288c-0.467,0.419-1.055,0.561-1.639,0.734c-0.706,0.209-0.981,0.38-1.134,1.12
		c-0.412,1.997,0.496,3.762,1.846,5.167c0.497-0.597,0.293-1.567,0.647-2.234c0.248-0.466,0.735-0.154,0.75,0.263
		c0.014,0.383-0.104,0.771-0.206,1.135c-0.113,0.402-0.282,0.831-0.284,1.254c0.396,0.478,0.842,0.896,1.388,1.197
		c0.933,0.514,1.888,0.938,2.789,1.514c0.135-1.464,0.64-2.935-0.412-4.184c-0.229-0.272-0.787-1.215-0.222-1.463
		c0.431-0.189,0.783,0.346,0.901,0.676c0.273,0.766,0.389,1.555,1.092,2.077c0.605,0.449,1.421,0.4,2.136,0.365
		c1.349-0.066,2.663-0.405,4.02-0.393c-0.501-1.355-0.616-2.804-1.073-4.17c-0.268-0.8-0.586-1.555-1.44-1.856
		c-0.716-0.252-1.39-0.017-2.107-0.115c-0.326-0.045-0.992-0.429-0.598-0.825c0.414-0.415,1.124-0.118,1.583,0.012
		c1.441,0.406,2.599-0.524,3.841-1.106c-0.818-0.631-1.518-1.394-2.304-2.053c10.193-0.941,19.277-4.226,25.288-9.174
		c2.292-1.888,4.232-4.057,5.781-6.468c0.702-1.092,1.24-2.284,1.861-3.427c0.626-1.153,0.85-1.809,0.871-2.172
		c0.033-0.563-0.913,0.114-1.163,0.62c-0.327,0.661-0.653,1.321-1.046,1.945c-0.819,1.299-1.788,2.504-2.825,3.66
		c-0.377,0.42-0.823,0.316-0.996-0.221c-0.705-2.196-1.479-4.374-1.511-6.407c-0.009-0.564-0.118-0.593-0.249-0.044
		c-0.834,3.477,0.307,7.942-1.908,10.69c-2.278,2.825-6.811,4.428-10.881,5.609c-8.203,2.379-18.253,1.814-27.282,2.97
		c-5.919,0.758-10.705,2.55-14.554,5.103c-0.175-0.235-0.35-0.471-0.524-0.706c-0.232-0.312-0.464-0.625-0.696-0.937
		c-0.186-0.251-0.213-0.114-0.473,0.068c0.415,0.624,0.83,1.249,1.245,1.873c-7.078,4.898-10.82,12.488-12.167,21.252
		c-0.086,0.558-0.419,0.645-0.794,0.223c-0.54-0.608-1.144-1.189-1.775-1.761c-0.418-0.379-0.578-1.096-0.371-1.621
		c0.786-1.988,1.359-4.111,1.663-6.424c0.92-6.978,0.724-14.476,2.972-20.885c2.119-6.039,6.593-10.956,13.419-13.534
		c1.612-0.604,3.336-1.081,5.14-1.457c1.111-0.234,1.443-0.728,2.7,0.387c0.83,0.736,1.633,1.478,2.723,1.902
		c3.289,1.298,6.51,0.979,8.82,0.077c0.526-0.205,0.475-0.446-0.087-0.498c-2.596-0.239-6.253-0.863-8.934-2.163
		c-0.508-0.246-0.443-0.447,0.12-0.41c4.656,0.31,9.222,0.126,13.547-0.48c0.964,0.641,1.928,1.281,2.892,1.922
		c0.271-0.385,0.473-0.425,0.102-0.701c-0.463-0.344-0.927-0.688-1.39-1.032c-0.161-0.12-0.322-0.239-0.484-0.359
		c0.846-0.134,1.681-0.285,2.506-0.452c0.005,0.065,0.011,0.131,0.015,0.198c0.038,0.562,0.004,1.107-0.262,1.615
		c-0.2,0.383,0.251,0.508,0.579,0.756c1.346,1.017,2.692,2.033,4.039,3.05c0.487,0.368,1.005,0.848,1.541,1.266
		c-1.996-1.303-3.992-2.607-5.987-3.91c-0.182-0.119-0.363-0.237-0.545-0.356c-0.225-0.147-0.261,0.122-0.447,0.288
		c-0.466,0.419-1.055,0.561-1.639,0.734c-0.706,0.209-0.981,0.38-1.134,1.12c-0.412,1.997,0.496,3.762,1.846,5.167
		c0.497-0.597,0.293-1.567,0.647-2.234c0.248-0.466,0.735-0.154,0.75,0.263c0.014,0.383-0.104,0.771-0.206,1.135
		c-0.113,0.402-0.282,0.831-0.284,1.254c0.396,0.478,0.842,0.896,1.388,1.197c0.933,0.514,1.888,0.938,2.789,1.514
		c0.135-1.464,0.64-2.935-0.412-4.184c-0.229-0.272-0.787-1.215-0.222-1.463c0.431-0.189,0.783,0.346,0.901,0.676
		c0.273,0.766,0.389,1.555,1.092,2.077c0.605,0.449,1.421,0.4,2.136,0.365c1.349-0.066,2.663-0.405,4.02-0.393
		c-0.501-1.355-0.616-2.804-1.073-4.17c-0.268-0.8-0.586-1.555-1.44-1.856c-0.716-0.252-1.39-0.017-2.107-0.115
		c-0.326-0.045-0.992-0.429-0.598-0.825c0.414-0.415,1.124-0.118,1.583,0.012c1.441,0.406,2.599-0.524,3.841-1.106
		c-0.916-0.706-1.678-1.588-2.587-2.292c-0.298-0.23-1.134-0.85-1.509-0.664c-0.341,0.169-0.644,0.416-0.953,0.635
		c-0.338,0.241-0.723,0.545-1.144,0.614c-0.489,0.079-0.583-0.466-0.269-0.734c0.507-0.433,1.368-0.662,1.75-1.231
		c4.926-1.607,9.246-3.841,12.6-6.602c2.292-1.888,4.232-4.057,5.782-6.468c0.324-0.505,0.612-1.032,0.891-1.564
		c0.07,0.028,0.141,0.056,0.212,0.083c0.2-0.549,0.4-1.097,0.601-1.646c0.053-0.1,0.104-0.201,0.158-0.3
		c0.441-0.813,0.675-1.369,0.787-1.759c0.061,0.025,0.132,0.049,0.198,0.095c0.426,0.293,0.653,0.736,0.904,1.171
		c0.303,0.525,0.494,0.712,1.116,0.691c1.678-0.056,2.915-1.123,3.78-2.476c-0.574-0.283-1.311,0.068-1.914-0.086
		c-0.421-0.108-0.265-0.558,0.066-0.651c0.304-0.085,0.637-0.066,0.948-0.054c0.344,0.013,0.719,0.065,1.058-0.014
		c0.306-0.41,0.554-0.847,0.69-1.343c0.231-0.846,0.387-1.693,0.673-2.525C191.62,41.244,190.344,41.124,189.548,42.208z
		 M29.99,72.54c-0.068,0.014-0.14,0.022-0.213,0.03c-0.061-0.026-0.124-0.05-0.185-0.077c-0.481-0.213-0.968-0.433-1.455-0.66
		c0.225-0.021,0.449-0.051,0.671-0.077c0.412-0.049,0.896-0.131,1.299,0.011C30.574,71.932,30.394,72.456,29.99,72.54z
		 M74.893,96.273c-0.25,0.533-0.81,0.213-0.85-0.252c-0.037-0.426,0.072-0.864,0.166-1.276c0.039-0.173,0.086-0.352,0.13-0.532
		c0.263,0.438,0.51,0.883,0.737,1.335C75.044,95.805,74.996,96.052,74.893,96.273z M82.552,111.615
		c0.038,0.09,0.041,0.185,0.005,0.211c-0.036,0.026-0.079-0.045-0.081-0.162C82.475,111.548,82.514,111.526,82.552,111.615z
		 M83.913,126.902c-0.137,0.665-0.28,1.33-0.426,1.996c-0.121,0.551-0.41,0.581-0.604,0.051c-0.835-2.284-1.111-4.749-1.131-7.264
		c-0.009-1.024-0.15-2.109,0.184-3.221c0.163-0.54,0.586-0.517,0.813,0c0.151,0.343,0.3,0.678,0.452,1.003
		c0.39,0.834,0.789,1.666,1.271,2.47C85.226,123.198,84.216,125.425,83.913,126.902z M153.121,89.368
		c-0.124,0.058-0.25,0.106-0.38,0.128c-0.167,0.027-0.284-0.022-0.358-0.104C152.628,89.385,152.875,89.377,153.121,89.368z
		 M114.007,124.091c-0.628,3.087-1.591,6.042-3.388,8.51c-2.966,4.079-7.995,6.692-11.068,10.671
		c-0.345,0.447-0.554,0.373-0.504-0.19c0.244-2.731,0.455-5.476,0.743-8.19c0.161-1.5-0.124-3.928,0.978-4.901
		c0.703-0.619,1.337-1.29,1.961-1.966c2.628-2.847,5.395-6.908,10.684-7.36c0.562-0.048,1.086,0.416,1.049,0.979
		C114.404,122.502,114.167,123.309,114.007,124.091z M114.207,119.671c0.054,0.147,0.096,0.292,0.131,0.435
		c0.058,0.244-0.364,0.354-0.924,0.283c-3.109-0.394-5.823,0.239-7.965,1.236c-0.512,0.238-0.602,0.126-0.226-0.295
		c1.933-2.17,3.67-4.391,5.099-6.78c0.29-0.484,0.721-0.481,0.984,0.015c0.158,0.298,0.318,0.596,0.483,0.895
		C112.562,116.857,113.698,118.275,114.207,119.671z"/>
	<path d="M65.11,74.634c-0.494-0.589-0.732-1.609-1.414-2.016c-0.946,2.07-1.211,4.355,0.104,6.347
		c0.459,0.697,1.132,0.553,1.899,0.509c0.627-0.036,1.235,0.006,1.799,0.307c0.426,0.226,0.569-0.275,0.849-0.639
		c1.147-1.492,2.294-2.983,3.442-4.476c0.415-0.54,0.955-1.113,1.427-1.707c-1.473,2.214-2.946,4.427-4.42,6.641
		c-0.134,0.202-0.268,0.403-0.402,0.604c-0.166,0.249,0.133,0.292,0.317,0.501c0.463,0.524,0.616,1.182,0.803,1.836
		c0.226,0.789,0.415,1.098,1.238,1.275c2.224,0.479,4.201-0.517,5.782-2.009c-0.661-0.56-1.745-0.342-2.486-0.743
		c-0.517-0.281-0.165-0.821,0.301-0.834c0.427-0.012,0.859,0.123,1.264,0.241c0.447,0.13,0.924,0.323,1.396,0.329
		c0.537-0.438,1.007-0.93,1.349-1.537c0.583-1.035,1.065-2.097,1.716-3.097c-1.631-0.165-3.268-0.742-4.671,0.42
		c-0.305,0.252-1.363,0.866-1.635,0.233c-0.206-0.483,0.393-0.87,0.763-0.998c0.857-0.297,1.738-0.419,2.327-1.198
		c0.506-0.67,0.46-1.581,0.428-2.379c-0.061-1.505-0.426-2.975-0.399-4.487c-1.516,0.546-3.134,0.66-4.662,1.157
		c-0.895,0.292-1.74,0.638-2.084,1.588c-0.288,0.796-0.032,1.551-0.149,2.349c-0.054,0.363-0.488,1.103-0.926,0.659
		c-0.459-0.466-0.12-1.255,0.028-1.765c0.467-1.604-0.56-2.904-1.197-4.295c-0.797,1.015-1.787,1.857-2.581,2.863
		c-0.26,0.33-0.959,1.257-0.755,1.677c0.185,0.382,0.457,0.722,0.699,1.069c0.266,0.379,0.601,0.812,0.674,1.283
		C66.015,74.888,65.406,74.988,65.11,74.634z"/>
</g>
</svg>
