<?xml version="1.0" encoding="iso-8859-1"?>
<!-- Generator: Adobe Illustrator 17.1.0, SVG Export Plug-In . SVG Version: 6.00 Build 0)  -->
<!DOCTYPE svg PUBLIC "-//W3C//DTD SVG 1.1//EN" "http://www.w3.org/Graphics/SVG/1.1/DTD/svg11.dtd">
<svg version="1.1" id="Capa_1" xmlns="http://www.w3.org/2000/svg" xmlns:xlink="http://www.w3.org/1999/xlink" x="0px" y="0px"
	 viewBox="0 0 150 150" style="enable-background:new 0 0 150 150;" xml:space="preserve">
<g>
	<path d="M43.763,108.918c-1.685,10.981-11.494,22.201-11.494,22.201c16.391,0.664,28.797-6.71,36.194-12.839v20.252
		c0,5.056,3.869,8.869,9,8.869s9-3.813,9-8.869v-18.685c7.642,5.567,19.323,11.377,34.175,10.524c0,0-9.997-11.052-11.868-22.003
		c0,0,23.412,5.73,35.098-23.713c0,0-12.365,0.753-27.475-5.217c-3.794,1.593-7.326,2.025-9.893,2.047
		c2.491,6.501,7.698,12.328,7.759,12.396c0.775,0.857,0.989,2.082,0.551,3.15c-0.438,1.069-1.451,1.791-2.604,1.857
		c-0.839,0.048-1.688,0.073-2.523,0.073c-9.486,0-17.319-3.051-23.22-6.596c-0.877-0.527-1.709-1.065-2.5-1.605
		c-0.889-0.607-1.723-1.217-2.5-1.819c-2.198-1.702-3.949-3.334-5.214-4.625c-0.755,0.797-1.686,1.724-2.786,2.717
		c-0.753,0.68-1.589,1.393-2.5,2.117c-0.777,0.618-1.611,1.245-2.5,1.869c-6.167,4.329-15.001,8.511-26.135,8.511
		c-0.591,0-1.192-0.012-1.785-0.036c-1.154-0.047-2.179-0.752-2.635-1.813c-0.456-1.061-0.263-2.29,0.498-3.159
		c0.061-0.07,5.171-5.967,7.551-12.525c-0.072,0.001-0.144,0.001-0.217,0.001c-2.658,0-6.178-0.408-9.934-1.941
		C20.729,86.35,8.269,85.803,8.269,85.803C20.452,115.043,43.763,108.918,43.763,108.918z M76.281,110.422
		c0,0,1.801,2.316,5.181,5.368v22.743c0,2.579-2,3.869-4,3.869s-4-1.29-4-3.869V113.64
		C75.313,111.712,76.281,110.422,76.281,110.422z"/>
	<path d="M112.312,77.686c6.051-1.631,13.557-6.3,18.484-18.713c0,0-0.41,0.025-1.162,0.025c-2.896,0-10.895-0.381-20.326-3.971
		c-3.387,2.012-6.705,2.682-9.204,2.836c1.93,4.371,5.285,8.129,5.326,8.175c0.775,0.857,0.989,2.082,0.551,3.15
		c-0.438,1.069-1.451,1.791-2.604,1.857c-0.648,0.037-1.303,0.056-1.948,0.056c-0.175,0-0.343-0.015-0.516-0.018
		c-5.619-0.086-10.466-1.549-14.451-3.486c-0.872-0.424-1.712-0.865-2.5-1.324c-0.889-0.518-1.721-1.051-2.5-1.588
		c-2.225-1.533-4-3.086-5.279-4.337c-0.74,0.75-1.65,1.607-2.721,2.506c-0.753,0.632-1.588,1.284-2.5,1.934
		c-0.776,0.554-1.612,1.104-2.5,1.64c-4.479,2.705-10.366,4.999-17.49,5.088c-0.142,0.002-0.277,0.015-0.42,0.015
		c-0.454,0-0.914-0.009-1.378-0.028c-1.154-0.047-2.179-0.752-2.635-1.813s-0.263-2.29,0.498-3.159
		c1.118-1.278,3.649-4.651,5.178-8.263c-2.583-0.113-5.955-0.742-9.386-2.729c-10.059,4.054-18.554,4.37-20.904,4.37
		c-0.422,0-0.645-0.01-0.645-0.01c5.069,12.166,12.521,16.748,18.558,18.335c2.221,0.584,4.253,0.766,5.901,0.766
		c2.567,0,4.208-0.431,4.208-0.431c-1.361,8.869-9.283,17.93-9.283,17.93c0.56,0.023,1.115,0.034,1.663,0.034
		c11.431,0,20.33-4.8,26.135-9.261c0.911-0.7,1.744-1.39,2.5-2.054c0.962-0.844,1.796-1.64,2.5-2.352
		c1.802-1.823,2.747-3.083,2.747-3.083s1.831,2.358,5.253,5.272c0.757,0.645,1.589,1.315,2.5,1.995
		c0.778,0.581,1.613,1.166,2.5,1.746c5.678,3.715,13.551,7.167,23.22,7.167c0.772,0,1.556-0.022,2.351-0.068
		c0,0-8.074-8.926-9.585-17.771c0,0,1.485,0.363,3.829,0.363C107.933,78.488,110.019,78.304,112.312,77.686z"/>
	<path d="M34.655,40.861c2.369,5.686,5.428,9.175,8.497,11.297c0.537,0.371,1.075,0.706,1.609,0.997
		c0.564,0.308,1.123,0.571,1.675,0.8c2.542,1.055,4.913,1.334,6.695,1.334c1.939,0,3.178-0.326,3.178-0.326
		c-1.028,6.699-7.012,13.544-7.012,13.544c0.423,0.017,0.842,0.025,1.256,0.025c1.623,0,3.176-0.133,4.661-0.364
		c5.387-0.836,9.849-3.013,13.249-5.311c0.91-0.615,1.745-1.237,2.5-1.845c0.963-0.775,1.798-1.525,2.5-2.202
		c1.76-1.697,2.683-2.931,2.683-2.931s1.865,2.403,5.317,5.078c0.757,0.587,1.593,1.186,2.5,1.777c0.781,0.508,1.612,1.01,2.5,1.49
		c2.822,1.525,6.181,2.828,10.009,3.462c1.576,0.261,3.227,0.415,4.959,0.415c0.583,0,1.175-0.017,1.776-0.051
		c0,0-6.099-6.742-7.24-13.423c0,0,1.122,0.274,2.892,0.274c1.779,0,4.216-0.281,6.829-1.392c0.582-0.247,1.172-0.536,1.766-0.872
		c0.513-0.29,1.029-0.616,1.544-0.982c3.058-2.168,6.089-5.721,8.382-11.495c0,0-0.309,0.019-0.878,0.019
		c-2.404,0-9.459-0.34-17.492-3.872c-1.102,0.407-2.285,0.717-3.576,0.871c1.161,2.267,2.743,4.29,3.485,5.116
		c0.775,0.857,0.989,2.082,0.551,3.15c-0.129,0.313-0.311,0.592-0.528,0.839c-0.367,0.418-0.843,0.725-1.378,0.888
		c-0.225,0.068-0.457,0.117-0.698,0.131c-0.506,0.029-1.019,0.044-1.524,0.044c-0.051,0-0.1-0.005-0.151-0.005
		c-3.243-0.019-6.159-0.63-8.726-1.547c-0.894-0.319-1.744-0.674-2.55-1.056c-1.334-0.632-2.553-1.328-3.639-2.044
		c-0.276-0.182-0.539-0.364-0.798-0.546c-1.337-0.941-2.46-1.885-3.343-2.708c-1.169,1.128-2.765,2.478-4.744,3.757
		c-0.888,0.574-1.85,1.132-2.893,1.65c-3.229,1.603-7.185,2.81-11.801,2.824c-0.027,0-0.053,0.003-0.08,0.003
		c-0.355,0-0.715-0.007-1.078-0.022c-0.337-0.014-0.659-0.089-0.963-0.207c-0.515-0.2-0.964-0.538-1.3-0.98
		c-0.146-0.192-0.274-0.398-0.372-0.626c-0.456-1.061-0.263-2.29,0.498-3.159c0.731-0.836,2.281-2.882,3.404-5.176
		c-1.349-0.14-2.583-0.45-3.731-0.866c-8.51,3.943-15.99,4.23-17.931,4.23C34.823,40.868,34.655,40.861,34.655,40.861z"/>
	<path d="M94.853,34.216c0.709-0.079,1.49-0.229,2.312-0.472c0.614-0.182,1.25-0.42,1.899-0.727
		c2.965-1.403,6.159-4.255,8.415-9.938c0,0-0.235,0.014-0.668,0.014c-3.645,0-21.338-1.019-30.988-20.254
		c-9.61,19.992-28.094,20.778-30.938,20.778c-0.242,0-0.371-0.006-0.371-0.006c2.322,5.574,5.513,8.369,8.471,9.741
		c0.672,0.312,1.329,0.55,1.964,0.73c0.764,0.216,1.496,0.356,2.165,0.43c0.528,0.058,1.02,0.081,1.463,0.081
		c1.476,0,2.419-0.248,2.419-0.248c-0.782,5.099-5.337,10.309-5.337,10.309c0.012,0,0.024,0,0.037,0.001
		c0.309,0.012,0.616,0.019,0.919,0.019c0.544,0,1.065-0.041,1.589-0.077c0.871-0.06,1.72-0.155,2.533-0.303
		c3.681-0.667,6.765-2.143,9.185-3.732c1.713-1.124,3.102-2.299,4.117-3.276c1.348-1.298,2.056-2.243,2.056-2.243
		s0.521,0.663,1.491,1.625c1.591,1.577,4.422,3.965,8.306,5.663c1.533,0.671,3.222,1.235,5.07,1.592
		c0.876,0.169,1.795,0.277,2.738,0.344c0.54,0.039,1.079,0.078,1.64,0.078c0.277,0,0.561-0.014,0.842-0.024
		c0.17-0.006,0.337-0.005,0.509-0.015c0,0-4.642-5.132-5.511-10.217c0,0,0.854,0.209,2.201,0.209
		C93.823,34.299,94.319,34.276,94.853,34.216z"/>
</g>
</svg>
