<?xml version="1.0" encoding="iso-8859-1"?>
<!-- Generator: Adobe Illustrator 17.1.0, SVG Export Plug-In . SVG Version: 6.00 Build 0)  -->
<!DOCTYPE svg PUBLIC "-//W3C//DTD SVG 1.1//EN" "http://www.w3.org/Graphics/SVG/1.1/DTD/svg11.dtd">
<svg version="1.1" id="Capa_1" xmlns="http://www.w3.org/2000/svg" xmlns:xlink="http://www.w3.org/1999/xlink" x="0px" y="0px"
	 viewBox="0 0 200 200" style="enable-background:new 0 0 200 200;" xml:space="preserve">
<g>
	<path d="M188.923,56.199c-1.183-0.496-2.648-0.652-3.84-0.099c-0.594,0.276-1.309,0.185-1.944,0.193
		c-0.732,0.009-1.436,0.159-2.132,0.381c-0.766,0.244-1.511,0.559-2.229,0.918c-0.213,0.107-0.426,0.176-0.641,0.232
		c0.737-1.452,1.417-2.928,2.027-4.421c0.079,0.02,0.16,0.032,0.237,0.062c0.525,0.203,1.043,0.414,1.597,0.528
		c0.659,0.136,1.297,0.004,1.951,0.082c0.469,0.056,0.937,0.269,1.404,0.361c0.569,0.112,1.154,0.199,1.735,0.198
		c0.926-0.003,2.583-0.107,2.97-1.165c0.307-0.84-0.727-1.453-1.361-1.719c-0.982-0.412-2.199-0.541-3.188-0.082
		c-0.493,0.229-1.087,0.154-1.614,0.16c-0.608,0.008-1.192,0.132-1.77,0.316c-0.598,0.191-1.178,0.436-1.742,0.712
		c1.609-4.058,2.729-8.218,3.242-12.27c0.033-0.263-0.145-0.506-0.405-0.555c-0.271-0.044-0.515,0.117-0.577,0.374
		c-0.981,4.054-2.474,8.054-4.442,11.908c-0.401-0.782-1.304-1.327-2.179-1.855c-0.744-0.449-1.588-0.958-1.603-1.391
		c-0.006-0.17,0.12-0.55,1.027-1.187c0.209-0.146,0.274-0.428,0.15-0.651c-0.125-0.226-0.399-0.319-0.633-0.218
		c-2.495,1.06-3.396,4.312-2.801,6.719c0.329,1.329,1.294,2.13,1.991,2.616c1.265,0.884,1.265,0.884,0.397,2.206
		c-2.19,3.342-4.809,6.617-7.798,9.787c0.082-0.332,0.145-0.668,0.175-1.012c0.059-0.699,0.01-1.494,0.376-2.128
		c0.736-1.272,0.671-2.899,0.187-4.241c-0.312-0.866-1.072-2.294-2.275-1.962c-1.516,0.419-1.819,2.61-1.91,3.839
		c-0.057,0.772,0.01,1.556,0.112,2.322c0.084,0.629,0.339,1.269,0.372,1.897c0.047,0.875-0.198,1.711-0.07,2.598
		c0.069,0.482,0.202,0.948,0.347,1.411c-0.463,0.448-0.928,0.895-1.406,1.338c-0.83,0.768-1.676,1.501-2.528,2.221
		c0.148-0.434,0.28-0.873,0.388-1.317c0.192-0.786,0.299-1.575,0.241-2.382c-0.051-0.7-0.223-1.479,0.041-2.158
		c0.53-1.362,0.211-2.962-0.476-4.22c-0.444-0.813-1.418-2.118-2.556-1.62c-1.434,0.627-1.393,2.837-1.291,4.065
		c0.063,0.771,0.252,1.537,0.473,2.28c0.181,0.61,0.533,1.208,0.664,1.824c0.182,0.859,0.071,1.72,0.335,2.58
		c0.215,0.701,0.557,1.349,0.89,2.003c-1.235,0.998-2.492,1.955-3.77,2.876c0.124-0.665,0.223-1.335,0.261-2.009
		c0.045-0.806,0.006-1.6-0.199-2.385c-0.178-0.681-0.491-1.42-0.355-2.132c0.272-1.428-0.334-2.952-1.241-4.078
		c-0.586-0.727-1.784-1.852-2.814-1.174c-0.261,0.172-0.436,0.407-0.571,0.666c-0.043-0.129-0.087-0.259-0.131-0.373
		c-0.743-1.921-2.194-3.789-4.159-4.551c-0.98-0.38-1.671-1.308-2.386-2.034c-0.825-0.836-1.782-1.484-2.812-2.042
		c-0.868-0.47-1.776-0.863-2.696-1.224c0.808-0.484,1.62-0.969,2.441-1.457c0.712-0.424,1.428-0.853,2.143-1.281
		c0.482,0.703,0.957,1.407,1.552,2.023c0.762,0.79,1.742,1.201,2.551,1.907c0.58,0.507,1.013,1.225,1.557,1.779
		c0.663,0.675,1.369,1.331,2.153,1.864c1.248,0.849,3.575,2.235,5.07,1.168c1.187-0.847,0.36-2.624-0.248-3.567
		c-0.942-1.459-2.461-2.753-4.215-3.047c-0.875-0.146-1.604-0.794-2.319-1.271c-0.824-0.549-1.726-0.921-2.673-1.205
		c-0.672-0.202-1.359-0.352-2.05-0.482c1.609-0.975,3.117-1.932,4.547-2.881c0.584,0.596,1.163,1.191,1.842,1.684
		c0.887,0.645,1.924,0.879,2.844,1.435c0.659,0.398,1.21,1.03,1.843,1.481c0.77,0.549,1.58,1.073,2.444,1.462
		c1.377,0.619,3.909,1.58,5.196,0.269c1.021-1.04-0.102-2.647-0.865-3.469c-1.182-1.273-2.902-2.284-4.68-2.267
		c-0.887,0.008-1.718-0.503-2.505-0.849c-0.908-0.398-1.86-0.607-2.842-0.722c-0.552-0.065-1.108-0.102-1.664-0.12
		c1.136-0.784,2.238-1.566,3.279-2.35c0.491-0.37,0.976-0.753,1.461-1.134c0.04,0.027,0.086,0.044,0.125,0.074
		c0.733,0.552,1.452,1.115,2.269,1.54c0.973,0.507,2.033,0.585,3.024,0.998c0.71,0.296,1.35,0.84,2.042,1.192
		c0.843,0.429,1.721,0.827,2.634,1.084c1.453,0.409,4.1,0.984,5.178-0.503c0.856-1.18-0.492-2.603-1.368-3.303
		c-1.357-1.084-3.208-1.829-4.964-1.55c-0.876,0.139-1.773-0.244-2.603-0.469c-0.957-0.259-1.929-0.325-2.917-0.294
		c-0.714,0.023-1.425,0.101-2.133,0.2c0.464-0.378,0.93-0.755,1.382-1.138c0.222-0.188,0.43-0.383,0.632-0.573
		c0.822-0.772,1.441-1.309,2.464-0.995c0.639,0.197,1.188,0.554,1.769,0.931c0.823,0.534,1.676,1.087,2.848,1.205
		c1.447,0.089,2.892-0.239,4.365-0.975c2.283-1.137,5.441-3.993,4.785-7.198c-0.048-0.23-0.249-0.396-0.484-0.399
		c-0.223,0.021-0.441,0.159-0.493,0.389c-0.145,0.632-0.706,2.694-1.855,2.694c-0.32,0-0.691-0.149-1.102-0.444
		c-0.13-0.095-0.335-0.27-0.59-0.487c-0.936-0.796-2.402-2.044-3.653-2.419c1.365-1.398,2.66-2.901,3.887-4.473
		c0.414-0.002,0.825,0.053,1.211,0.207c0.714,0.285,1.419,0.582,2.173,0.746c0.898,0.196,1.772,0.026,2.665,0.142
		c0.64,0.083,1.276,0.382,1.913,0.515c0.776,0.162,1.573,0.29,2.368,0.297c1.265,0.011,3.531-0.107,4.076-1.546
		c0.433-1.143-0.971-1.996-1.833-2.37c-1.335-0.578-2.996-0.773-4.355-0.161c-0.677,0.305-1.487,0.193-2.207,0.194
		c-0.83,0.001-1.631,0.162-2.423,0.404c-0.872,0.267-1.721,0.615-2.541,1.013c-0.276,0.134-0.548,0.219-0.827,0.28
		c1.626-2.11,3.115-4.355,4.451-6.688c0.366,0.045,0.723,0.14,1.046,0.319c0.603,0.333,1.196,0.677,1.848,0.907
		c0.776,0.275,1.572,0.222,2.353,0.425c0.559,0.146,1.091,0.483,1.642,0.672c0.672,0.231,1.366,0.435,2.071,0.53
		c1.123,0.152,3.151,0.302,3.797-0.916c0.513-0.967-0.639-1.883-1.363-2.312c-1.122-0.664-2.576-1.024-3.853-0.632
		c-0.636,0.195-1.344,0.005-1.984-0.076c-0.738-0.092-1.468-0.039-2.199,0.087c-0.805,0.14-1.599,0.353-2.373,0.615
		c-0.293,0.099-0.576,0.145-0.864,0.165c0.689-1.214,1.335-2.45,1.936-3.704c0.582-0.166,1.219-0.273,1.806-0.09
		c0.555,0.172,1.104,0.354,1.682,0.433c0.688,0.094,1.337-0.086,2.016-0.052c0.487,0.025,0.984,0.212,1.472,0.274
		c0.594,0.076,1.203,0.125,1.802,0.083c0.953-0.067,2.654-0.29,2.979-1.407c0.258-0.886-0.85-1.446-1.522-1.676
		c-1.041-0.356-2.303-0.404-3.29,0.138c-0.492,0.27-1.109,0.234-1.651,0.277c-0.625,0.05-1.219,0.219-1.801,0.449
		c-0.641,0.253-1.26,0.566-1.854,0.914c-0.426,0.25-0.853,0.341-1.339,0.423c-0.055,0.009-0.124,0.016-0.198,0.023
		c2.435-5.137,4.109-10.543,4.771-15.773c0.033-0.263-0.145-0.506-0.405-0.555c-0.269-0.043-0.515,0.117-0.577,0.374
		c-0.981,4.054-2.475,8.054-4.442,11.908c-0.402-0.782-1.305-1.327-2.18-1.855c-0.744-0.448-1.587-0.957-1.602-1.39
		c-0.006-0.17,0.12-0.55,1.027-1.187c0.209-0.146,0.274-0.428,0.15-0.651c-0.125-0.225-0.398-0.32-0.633-0.218
		c-2.494,1.059-3.396,4.312-2.801,6.719c0.329,1.328,1.294,2.129,1.991,2.615c1.265,0.884,1.265,0.884,0.397,2.207
		c-1.058,1.614-2.222,3.211-3.471,4.79c0.023-0.101,0.05-0.202,0.088-0.305c0.234-0.648,0.428-1.313,0.56-1.99
		c0.12-0.615,0.177-1.229,0.112-1.853c-0.057-0.541-0.205-1.141-0.03-1.674c0.352-1.07,0.074-2.302-0.466-3.26
		c-0.349-0.618-1.102-1.605-1.926-1.19c-1.038,0.524-0.947,2.236-0.838,3.186c0.068,0.596,0.228,1.185,0.411,1.756
		c0.15,0.468,0.426,0.923,0.539,1.397c0.158,0.661,0.1,1.332,0.318,1.991c0.183,0.554,0.462,1.06,0.733,1.574
		c0.12,0.227,0.183,0.473,0.222,0.725c-1.022,1.276-2.105,2.539-3.247,3.786c-0.049-0.333-0.067-0.662-0.016-1.018
		c0.116-0.808,0.18-1.628,0.171-2.445c-0.009-0.742-0.091-1.469-0.316-2.178c-0.196-0.615-0.513-1.275-0.438-1.936
		c0.152-1.327-0.468-2.69-1.326-3.672c-0.554-0.634-1.666-1.598-2.522-0.917c-1.079,0.858-0.561,2.824-0.206,3.9
		c0.223,0.676,0.55,1.321,0.9,1.939c0.287,0.507,0.716,0.969,0.962,1.492c0.343,0.73,0.436,1.522,0.848,2.235
		c0.346,0.599,0.792,1.12,1.23,1.651c0.27,0.328,0.435,0.719,0.546,1.128c-1.481,1.607-3.054,3.188-4.725,4.736
		c-0.354,0.328-0.72,0.629-1.078,0.947c-0.006-0.367,0.021-0.727,0.125-1.105c0.241-0.879,0.427-1.777,0.531-2.683
		c0.094-0.823,0.105-1.64-0.045-2.456c-0.131-0.708-0.389-1.484-0.213-2.205c0.353-1.448-0.142-3.044-0.955-4.252
		c-0.525-0.779-1.621-2.003-2.665-1.369c-1.315,0.799-1.016,3.048-0.774,4.29c0.152,0.78,0.424,1.54,0.725,2.273
		c0.247,0.602,0.657,1.173,0.856,1.786c0.277,0.856,0.27,1.746,0.627,2.594c0.299,0.712,0.72,1.351,1.131,2
		c0.251,0.397,0.379,0.849,0.446,1.313c-1.337,1.18-2.697,2.312-4.088,3.382c0.054-1.003,0.054-2.012-0.036-3.013
		c-0.089-0.978-0.273-1.929-0.644-2.84c-0.323-0.79-0.809-1.629-0.779-2.509c0.062-1.766-0.898-3.5-2.132-4.706
		c-0.797-0.779-2.364-1.935-3.423-0.947c-1.334,1.244-0.446,3.783,0.134,5.167c0.364,0.868,0.864,1.686,1.389,2.464
		c0.431,0.639,1.045,1.203,1.424,1.868c0.528,0.927,0.734,1.962,1.352,2.86c0.519,0.754,1.161,1.394,1.794,2.05
		c0.058,0.06,0.098,0.133,0.151,0.197c-1.656,1.245-3.351,2.421-5.074,3.558c-0.011-0.173-0.014-0.349-0.002-0.532
		c0.068-1.078,0.068-2.166-0.03-3.243c-0.089-0.978-0.273-1.929-0.644-2.84c-0.323-0.79-0.809-1.629-0.779-2.509
		c0.062-1.766-0.898-3.5-2.132-4.706c-0.797-0.779-2.364-1.935-3.423-0.947c-1.334,1.244-0.446,3.783,0.134,5.167
		c0.364,0.868,0.863,1.686,1.389,2.464c0.431,0.639,1.045,1.203,1.424,1.868c0.528,0.927,0.734,1.962,1.352,2.86
		c0.519,0.754,1.161,1.394,1.794,2.05c0.192,0.198,0.348,0.422,0.486,0.658c-1.767,1.155-3.57,2.266-5.398,3.357
		c-0.004-0.125-0.01-0.248-0.001-0.379c0.068-1.078,0.068-2.166-0.03-3.243c-0.089-0.978-0.272-1.929-0.644-2.84
		c-0.323-0.79-0.809-1.629-0.779-2.509c0.062-1.766-0.898-3.5-2.132-4.706c-0.797-0.779-2.364-1.935-3.423-0.947
		c-1.334,1.244-0.446,3.783,0.134,5.167c0.364,0.868,0.863,1.686,1.389,2.464c0.431,0.639,1.045,1.203,1.424,1.868
		c0.528,0.927,0.734,1.962,1.352,2.86c0.518,0.754,1.161,1.394,1.794,2.05c0.155,0.16,0.283,0.338,0.401,0.523
		c-1.934,1.148-3.9,2.281-5.892,3.416c0.001-0.057-0.004-0.111-0.001-0.169c0.068-1.078,0.068-2.166-0.03-3.243
		c-0.089-0.978-0.272-1.929-0.644-2.84c-0.323-0.79-0.809-1.629-0.779-2.509c0.062-1.766-0.898-3.5-2.132-4.706
		c-0.797-0.779-2.364-1.935-3.423-0.947c-1.334,1.244-0.446,3.783,0.134,5.167c0.364,0.868,0.863,1.686,1.389,2.464
		c0.078,0.116,0.167,0.228,0.255,0.34c-0.059-0.007-0.115-0.024-0.175-0.029c-0.233-0.021-0.465-0.032-0.694-0.032
		c-3.064,0-6.179,1.986-7.93,5.055c-1.405,2.369-0.873,4.135-0.31,6.004c0.259,0.859,0.526,1.749,0.617,2.751
		c0.126,1.39-0.7,2.039-2.059,2.981c-0.322,0.225-0.65,0.452-0.963,0.699c-0.092,0.072-0.18,0.148-0.272,0.221
		c-0.006-0.292,0.007-0.587,0.065-0.895c0.201-1.069,0.335-2.156,0.37-3.244c0.031-0.988-0.035-1.961-0.294-2.917
		c-0.225-0.829-0.608-1.727-0.469-2.603c0.279-1.757-0.466-3.607-1.55-4.964c-0.7-0.876-2.123-2.225-3.303-1.368
		c-1.487,1.078-0.911,3.725-0.502,5.178c0.257,0.912,0.655,1.791,1.084,2.633c0.352,0.692,0.896,1.331,1.192,2.041
		c0.413,0.991,0.491,2.051,0.998,3.024c0.425,0.817,0.989,1.536,1.54,2.269c0.251,0.334,0.416,0.715,0.542,1.11
		c-1.195,0.961-2.375,1.944-3.503,2.939c-0.652,0.576-1.291,1.156-1.916,1.74c-0.057-0.486-0.071-0.961,0.026-1.471
		c0.201-1.069,0.335-2.156,0.37-3.244c0.031-0.988-0.035-1.961-0.294-2.917c-0.225-0.829-0.608-1.727-0.469-2.603
		c0.279-1.757-0.466-3.607-1.55-4.964c-0.7-0.876-2.123-2.225-3.303-1.368c-0.205,0.149-0.363,0.332-0.495,0.532
		c-0.197-0.148-0.404-0.274-0.58-0.365c-0.947-0.488-2.149-0.713-3.172-0.333c-0.51,0.189-1.096,0.068-1.621,0.032
		c-0.606-0.04-1.199,0.037-1.789,0.176c-0.526,0.123-1.041,0.293-1.548,0.483c0.701-1.085,1.348-2.143,1.943-3.183
		c0.224-0.391,0.441-0.79,0.658-1.188c0.267,0.051,0.524,0.138,0.753,0.286c0.423,0.273,0.84,0.553,1.304,0.754
		c0.553,0.239,1.137,0.24,1.697,0.427c0.401,0.134,0.773,0.407,1.166,0.572c0.479,0.202,0.976,0.385,1.486,0.489
		c0.813,0.166,2.286,0.376,2.818-0.481c0.422-0.681-0.373-1.407-0.881-1.756c-0.787-0.54-1.831-0.875-2.782-0.652
		c-0.474,0.111-0.981-0.063-1.445-0.153c-0.534-0.104-1.07-0.101-1.61-0.045c-0.595,0.062-1.185,0.179-1.763,0.332
		c-0.226,0.06-0.442,0.077-0.66,0.075c0.352-0.651,0.697-1.306,1.026-1.966c0.093-0.186,0.175-0.373,0.255-0.556
		c0.112-0.256,0.211-0.455,0.312-0.629c0.299,0.047,0.589,0.134,0.843,0.298c0.423,0.273,0.84,0.553,1.304,0.754
		c0.553,0.239,1.137,0.24,1.697,0.427c0.401,0.134,0.773,0.407,1.166,0.572c0.479,0.202,0.976,0.385,1.486,0.489
		c0.813,0.166,2.286,0.376,2.818-0.481c0.422-0.681-0.373-1.407-0.881-1.756c-0.787-0.54-1.83-0.875-2.782-0.652
		c-0.441,0.103-0.908-0.038-1.344-0.131c0.072-0.017,0.146-0.023,0.217-0.046c0.972-0.345,1.856-0.981,2.63-1.894
		c1.196-1.412,2.479-4.227,1.11-6.193c-0.134-0.193-0.385-0.265-0.603-0.177c-0.217,0.091-0.342,0.32-0.3,0.552
		c0.165,0.904,0.104,1.636-0.164,1.956c-0.104,0.126-0.396,0.288-0.955,0.162c-0.108-0.024-0.286-0.08-0.509-0.148
		c-0.774-0.239-1.973-0.604-2.873-0.578c0.076-0.201,0.144-0.408,0.217-0.611c0.415-0.298,0.879-0.547,1.39-0.59
		c0.561-0.047,1.119-0.083,1.667-0.222c0.652-0.165,1.169-0.562,1.791-0.778c0.446-0.155,0.96-0.167,1.421-0.288
		c0.561-0.148,1.125-0.324,1.647-0.579c0.832-0.406,2.278-1.224,2.164-2.344c-0.09-0.89-1.288-0.99-1.975-0.953
		c-1.063,0.058-2.215,0.473-2.904,1.318c-0.344,0.421-0.911,0.613-1.382,0.848c-0.543,0.272-1.015,0.639-1.455,1.057
		c-0.484,0.46-0.926,0.965-1.333,1.494c-0.265,0.345-0.586,0.57-0.947,0.797c0.466-1.33,0.863-2.7,1.188-4.098
		c0.258-0.126,0.53-0.218,0.818-0.242c0.561-0.047,1.119-0.083,1.667-0.222c0.652-0.165,1.169-0.562,1.791-0.778
		c0.446-0.155,0.96-0.167,1.421-0.288c0.561-0.148,1.125-0.324,1.647-0.579c0.832-0.406,2.278-1.224,2.164-2.344
		c-0.09-0.89-1.288-0.99-1.975-0.953c-1.064,0.058-2.215,0.473-2.904,1.318c-0.344,0.421-0.911,0.613-1.382,0.848
		c-0.543,0.272-1.015,0.639-1.455,1.057c-0.484,0.46-0.926,0.965-1.333,1.494c-0.119,0.155-0.255,0.276-0.394,0.394
		c0.306-1.363,0.548-2.747,0.718-4.141c0.012-0.001,0.022-0.006,0.034-0.007c0.561-0.047,1.119-0.083,1.667-0.222
		c0.652-0.165,1.169-0.562,1.791-0.778c0.446-0.155,0.96-0.167,1.421-0.288c0.561-0.148,1.125-0.324,1.647-0.579
		c0.832-0.406,2.278-1.224,2.164-2.344c-0.09-0.89-1.288-0.99-1.975-0.953c-1.064,0.058-2.215,0.473-2.904,1.318
		c-0.344,0.421-0.911,0.613-1.382,0.848c-0.543,0.272-1.015,0.639-1.455,1.057c-0.321,0.306-0.618,0.636-0.905,0.975
		c0.119-1.211,0.191-2.424,0.206-3.632c0.208-0.085,0.422-0.153,0.648-0.172c0.561-0.047,1.119-0.083,1.667-0.222
		c0.652-0.165,1.169-0.562,1.791-0.778c0.446-0.155,0.96-0.167,1.421-0.288c0.561-0.148,1.125-0.324,1.647-0.579
		c0.832-0.406,2.278-1.224,2.164-2.344c-0.09-0.89-1.288-0.99-1.975-0.953c-1.063,0.058-2.215,0.473-2.904,1.318
		c-0.344,0.421-0.911,0.613-1.382,0.848c-0.543,0.272-1.015,0.639-1.455,1.057c-0.484,0.46-0.926,0.965-1.333,1.494
		c-0.088,0.115-0.192,0.199-0.292,0.292c0.016-3.564-0.419-7.066-1.334-10.255c-0.073-0.255-0.329-0.414-0.591-0.35
		c-0.259,0.059-0.427,0.309-0.383,0.57c0.476,2.818,0.626,5.735,0.447,8.688c-0.495-0.295-1.148-0.386-1.785-0.474
		c-0.486-0.067-1.221-0.17-1.316-0.375c-0.011-0.022-0.092-0.239,0.328-0.919c0.135-0.217,0.084-0.501-0.119-0.658
		c-0.2-0.157-0.49-0.137-0.667,0.05c-1.379,1.44-1.052,3.893,0.043,5.339c0.614,0.812,1.499,1.074,2.11,1.2
		c0.271,0.057,0.773,0.16,0.851,0.237c0.052,0.113-0.044,0.658-0.09,0.919c-0.167,0.943-0.373,1.896-0.605,2.854
		c-0.172-0.233-0.325-0.469-0.422-0.759c-0.188-0.567-0.414-1.125-0.687-1.657c-0.248-0.483-0.54-0.932-0.919-1.323
		c-0.329-0.338-0.752-0.667-0.919-1.125c-0.334-0.918-1.186-1.609-2.069-1.971c-0.57-0.234-1.613-0.502-1.951,0.224
		c-0.426,0.914,0.556,2.032,1.14,2.621c0.367,0.37,0.792,0.685,1.223,0.976c0.354,0.238,0.785,0.4,1.117,0.663
		c0.463,0.366,0.783,0.854,1.286,1.186c0.422,0.279,0.885,0.474,1.345,0.679c0.327,0.145,0.59,0.391,0.816,0.667
		c-0.321,1.297-0.723,2.611-1.162,3.931c0-0.009,0.003-0.013,0.002-0.024c-0.015-0.182-0.266-0.392-0.375-0.525
		c-0.271-0.331-0.497-0.635-0.632-1.042c-0.188-0.567-0.414-1.125-0.688-1.657c-0.249-0.483-0.54-0.932-0.919-1.323
		c-0.329-0.338-0.752-0.667-0.919-1.125c-0.334-0.918-1.186-1.609-2.069-1.971c-0.57-0.234-1.613-0.502-1.951,0.224
		c-0.427,0.914,0.556,2.032,1.14,2.621c0.367,0.37,0.792,0.685,1.223,0.976c0.354,0.238,0.786,0.4,1.117,0.663
		c0.463,0.366,0.783,0.854,1.286,1.186c0.422,0.279,0.885,0.474,1.345,0.679c0.506,0.225,0.87,0.682,1.16,1.139
		c0.01,0.015,0.196,0.269,0.26,0.237c-0.583,1.742-1.245,3.497-2.03,5.263c-0.044,0.099-0.094,0.192-0.139,0.291
		c-0.069-0.102-0.146-0.2-0.193-0.274c-0.253-0.405-0.462-0.773-0.554-1.242c-0.129-0.654-0.301-1.304-0.529-1.931
		c-0.208-0.57-0.467-1.108-0.833-1.594c-0.317-0.421-0.74-0.844-0.861-1.375c-0.242-1.064-1.088-1.947-2.015-2.472
		c-0.598-0.339-1.716-0.782-2.192-0.025c-0.6,0.953,0.331,2.328,0.895,3.062c0.354,0.461,0.781,0.87,1.218,1.252
		c0.358,0.314,0.813,0.553,1.144,0.89c0.461,0.47,0.748,1.055,1.258,1.494c0.428,0.368,0.913,0.649,1.395,0.94
		c0.529,0.32,0.868,0.877,1.125,1.424c0.002,0.005,0.018,0.033,0.038,0.067c-0.528,1.151-1.094,2.268-1.69,3.36
		c-0.089-0.14-0.185-0.271-0.253-0.434c-0.308-0.729-0.663-1.441-1.079-2.114c-0.378-0.611-0.809-1.174-1.35-1.649
		c-0.469-0.412-1.062-0.802-1.33-1.388c-0.537-1.176-1.732-1.998-2.934-2.385c-0.776-0.249-2.18-0.495-2.551,0.498
		c-0.467,1.251,0.945,2.623,1.776,3.339c0.522,0.45,1.116,0.822,1.715,1.16c0.492,0.278,1.078,0.446,1.543,0.758
		c0.649,0.435,1.122,1.045,1.82,1.431c0.586,0.324,1.216,0.534,1.845,0.756c0.228,0.081,0.433,0.205,0.628,0.344
		c-0.761,1.375-1.572,2.713-2.421,4.025c-0.145-0.198-0.276-0.405-0.379-0.648c-0.308-0.729-0.663-1.441-1.08-2.114
		c-0.378-0.611-0.809-1.174-1.35-1.649c-0.469-0.412-1.062-0.802-1.33-1.388c-0.537-1.176-1.732-1.998-2.934-2.385
		c-0.776-0.249-2.18-0.495-2.551,0.498c-0.467,1.251,0.945,2.623,1.777,3.339c0.522,0.45,1.116,0.822,1.715,1.16
		c0.491,0.278,1.078,0.446,1.543,0.758c0.649,0.434,1.122,1.045,1.82,1.431c0.586,0.324,1.216,0.534,1.845,0.756
		c0.29,0.102,0.545,0.269,0.782,0.461c-0.844,1.294-1.723,2.57-2.632,3.834c-0.059-0.103-0.131-0.193-0.18-0.308
		c-0.308-0.729-0.663-1.441-1.079-2.114c-0.378-0.611-0.809-1.174-1.35-1.649c-0.469-0.412-1.062-0.802-1.33-1.388
		c-0.537-1.176-1.732-1.998-2.934-2.385c-0.776-0.249-2.18-0.495-2.551,0.498c-0.467,1.251,0.945,2.623,1.777,3.339
		c0.522,0.45,1.116,0.822,1.715,1.16c0.491,0.278,1.078,0.446,1.543,0.758c0.649,0.435,1.122,1.045,1.82,1.431
		c0.586,0.324,1.216,0.534,1.845,0.756c0.171,0.06,0.332,0.141,0.484,0.236c-0.944,1.305-1.912,2.607-2.9,3.915
		c-0.296-0.689-0.633-1.363-1.027-2.001c-0.378-0.611-0.809-1.174-1.35-1.649c-0.469-0.412-1.062-0.802-1.33-1.388
		c-0.537-1.176-1.732-1.998-2.934-2.385c-0.776-0.249-2.18-0.495-2.551,0.498c-0.467,1.251,0.945,2.623,1.777,3.339
		c0.522,0.45,1.116,0.822,1.715,1.16c0.06,0.034,0.128,0.058,0.19,0.089c-0.02,0.006-0.041,0.008-0.062,0.015
		c-2.616,0.84-4.049,3.518-4.308,5.792c-0.261,1.996,0.638,3.067,1.507,4.104c0.404,0.48,0.821,0.979,1.153,1.591
		c0.432,0.799,0.107,1.391-0.503,2.366c-0.149,0.238-0.3,0.481-0.436,0.731c-0.61,1.128-1.188,2.264-1.716,3.378
		c-0.885,1.866-1.658,3.729-2.307,5.553c-1.525-4.2-3.652-8.229-6.326-12.016c0.195-0.204,0.405-0.393,0.649-0.54
		c0.721-0.435,1.446-0.854,2.088-1.404c0.765-0.655,1.194-1.53,1.885-2.232c0.496-0.503,1.177-0.861,1.714-1.329
		c0.654-0.57,1.293-1.181,1.824-1.87c0.846-1.097,2.241-3.153,1.345-4.58c-0.711-1.133-2.384-0.472-3.28,0.034
		c-1.387,0.784-2.655,2.104-3.019,3.695c-0.182,0.793-0.815,1.426-1.29,2.055c-0.548,0.725-0.937,1.531-1.249,2.382
		c-0.343,0.938-0.601,1.909-0.796,2.887c-0.036,0.183-0.086,0.356-0.144,0.522c-0.154-0.214-0.302-0.43-0.459-0.643
		c-0.998-1.339-2.1-2.682-3.289-4.006c0.119-0.1,0.235-0.203,0.369-0.284c0.72-0.435,1.446-0.854,2.088-1.404
		c0.765-0.655,1.194-1.53,1.885-2.232c0.496-0.503,1.177-0.861,1.714-1.329c0.654-0.57,1.293-1.182,1.824-1.87
		c0.845-1.097,2.241-3.153,1.345-4.58c-0.711-1.133-2.384-0.472-3.28,0.034c-1.388,0.784-2.655,2.104-3.019,3.695
		c-0.181,0.793-0.815,1.426-1.29,2.055c-0.548,0.725-0.937,1.531-1.249,2.382c-0.343,0.938-0.601,1.909-0.796,2.887
		c-0.011,0.055-0.03,0.105-0.042,0.158c-0.271-0.296-0.541-0.593-0.821-0.887c-0.862-0.904-1.766-1.804-2.688-2.671
		c-0.139-0.132-0.286-0.253-0.432-0.375c0.114-0.094,0.223-0.193,0.351-0.271c0.72-0.435,1.446-0.854,2.088-1.404
		c0.765-0.655,1.194-1.53,1.885-2.232c0.496-0.503,1.177-0.861,1.714-1.329c0.654-0.57,1.293-1.182,1.825-1.87
		c0.845-1.097,2.241-3.153,1.345-4.58c-0.711-1.133-2.384-0.472-3.28,0.034c-1.388,0.784-2.656,2.104-3.019,3.695
		c-0.181,0.793-0.815,1.426-1.29,2.055c-0.548,0.725-0.937,1.531-1.249,2.382c-0.343,0.938-0.601,1.909-0.796,2.887
		c-0.015,0.076-0.04,0.145-0.059,0.218c-0.708-0.609-1.085-1.062-0.943-1.858c0.123-0.686,0.363-1.289,0.597-1.873
		c0.501-1.256,1.019-2.554,0.149-4.36c-0.954-2.071-3.137-4.16-5.903-4.16c-0.228,0-0.45,0.025-0.671,0.052
		c0.281-0.563,0.509-1.147,0.854-1.685c0.381-0.594,0.975-1.084,1.404-1.653c0.523-0.693,1.023-1.422,1.401-2.205
		c0.602-1.247,1.546-3.546,0.375-4.758c-0.929-0.963-2.43,0.028-3.203,0.707c-1.197,1.052-2.166,2.605-2.195,4.236
		c-0.015,0.813-0.504,1.563-0.84,2.276c-0.387,0.823-0.603,1.69-0.733,2.588c-0.143,0.988-0.196,1.991-0.185,2.989
		c0.007,0.614-0.138,1.147-0.334,1.709c-1.872-1.293-3.712-2.576-5.498-3.895c0.209-0.582,0.497-1.137,0.95-1.558
		c0.616-0.574,1.24-1.133,1.755-1.803c0.614-0.798,0.854-1.743,1.386-2.572c0.381-0.594,0.975-1.084,1.404-1.653
		c0.523-0.693,1.023-1.422,1.401-2.205c0.602-1.247,1.546-3.546,0.376-4.758c-0.929-0.963-2.43,0.028-3.203,0.707
		c-1.197,1.052-2.166,2.605-2.196,4.236c-0.015,0.813-0.504,1.563-0.84,2.276c-0.387,0.823-0.603,1.69-0.732,2.588
		c-0.143,0.988-0.196,1.991-0.186,2.989c0.006,0.58-0.121,1.087-0.301,1.614c-1.686-1.25-3.32-2.546-4.903-3.913
		c0.201-0.484,0.465-0.937,0.849-1.294c0.616-0.574,1.24-1.133,1.755-1.803c0.614-0.798,0.854-1.743,1.386-2.572
		c0.381-0.594,0.975-1.084,1.404-1.653c0.523-0.693,1.023-1.422,1.401-2.205c0.602-1.247,1.546-3.546,0.375-4.758
		c-0.929-0.963-2.43,0.028-3.203,0.707c-1.197,1.052-2.166,2.605-2.196,4.236c-0.015,0.813-0.504,1.563-0.84,2.276
		c-0.387,0.823-0.603,1.69-0.732,2.588c-0.143,0.988-0.196,1.991-0.186,2.989c0.005,0.472-0.082,0.895-0.209,1.32
		c-1.528-1.33-3.004-2.735-4.412-4.257c0.078-0.093,0.146-0.193,0.236-0.276c0.616-0.574,1.24-1.133,1.755-1.803
		c0.614-0.798,0.854-1.743,1.386-2.572c0.382-0.594,0.975-1.084,1.404-1.653c0.523-0.693,1.023-1.422,1.401-2.205
		c0.602-1.247,1.546-3.546,0.376-4.758c-0.929-0.963-2.43,0.028-3.203,0.707c-1.197,1.052-2.167,2.605-2.196,4.236
		c-0.015,0.813-0.504,1.563-0.84,2.276c-0.387,0.823-0.603,1.69-0.733,2.588c-0.135,0.931-0.184,1.875-0.181,2.816
		c-1.211-1.352-2.333-2.725-3.367-4.114c0.068-0.15,0.142-0.297,0.238-0.433c0.41-0.579,0.83-1.148,1.14-1.79
		c0.37-0.764,0.407-1.586,0.704-2.362c0.213-0.556,0.62-1.063,0.876-1.606c0.313-0.662,0.602-1.35,0.78-2.061
		c0.284-1.133,0.669-3.194-0.505-3.994c-0.932-0.636-2.002,0.439-2.524,1.133c-0.808,1.074-1.343,2.522-1.088,3.875
		c0.127,0.674-0.149,1.377-0.304,2.024c-0.179,0.746-0.208,1.499-0.162,2.263c0.046,0.749,0.16,1.494,0.309,2.23
		c-1.263-1.757-2.381-3.537-3.344-5.327c-0.125-0.233-0.387-0.72-0.376-0.835c0.053-0.106,0.498-0.362,0.737-0.501
		c0.542-0.312,1.3-0.84,1.628-1.801c0.587-1.717,0.13-4.147-1.631-5.084c-0.223-0.12-0.505-0.051-0.648,0.162
		c-0.144,0.212-0.104,0.498,0.093,0.662c0.611,0.514,0.603,0.745,0.6,0.77c-0.027,0.226-0.693,0.552-1.134,0.769
		c-0.571,0.279-1.156,0.567-1.545,1.017c-1.097-2.755-1.868-5.575-2.297-8.399c-0.039-0.262-0.263-0.438-0.542-0.423
		c-0.264,0.025-0.462,0.253-0.452,0.518c0.308,7.847,3.683,16.524,8.878,22.948c-0.789,0.232-1.685,0.836-2.549,1.45
		c-0.188,0.135-0.34,0.243-0.435,0.3c-0.254,0.151-0.477,0.229-0.662,0.229c-0.591,0-0.937-0.977-1.064-1.891
		c-0.032-0.232-0.223-0.411-0.457-0.43c-0.225-0.02-0.451,0.132-0.518,0.356c-0.683,2.297,1.417,4.567,2.995,5.534
		c1.018,0.623,2.058,0.952,3.107,0.976c0.856-0.012,1.507-0.357,2.136-0.691c0.423-0.225,0.823-0.438,1.266-0.533
		c0.643-0.133,0.963,0.167,1.536,0.809c0.132,0.147,0.269,0.299,0.414,0.446c0.281,0.284,0.583,0.55,0.871,0.83
		c-0.402,0.011-0.787-0.014-1.194-0.134c-0.807-0.239-1.634-0.426-2.468-0.538c-0.759-0.101-1.512-0.126-2.269-0.002
		c-0.656,0.108-1.377,0.333-2.04,0.157c-1.331-0.352-2.814,0.077-3.943,0.806c-0.729,0.471-1.879,1.461-1.312,2.436
		c0.714,1.229,2.797,0.993,3.948,0.791c0.722-0.126,1.43-0.364,2.112-0.629c0.56-0.217,1.095-0.586,1.665-0.759
		c0.796-0.241,1.618-0.218,2.406-0.532c0.662-0.263,1.26-0.641,1.867-1.008c0.428-0.259,0.92-0.366,1.419-0.406
		c0.549,0.53,1.09,1.069,1.654,1.576c0.731,0.658,1.51,1.318,2.319,1.983c-0.222,0.014-0.446,0.015-0.682-0.018
		c-0.833-0.116-1.678-0.18-2.521-0.167c-0.765,0.012-1.514,0.099-2.244,0.334c-0.633,0.204-1.313,0.533-1.995,0.458
		c-1.368-0.151-2.771,0.492-3.781,1.38c-0.651,0.573-1.642,1.723-0.937,2.603c0.888,1.109,2.913,0.568,4.021,0.199
		c0.696-0.232,1.36-0.572,1.996-0.934c0.522-0.298,0.996-0.741,1.534-0.996c0.751-0.356,1.567-0.455,2.301-0.883
		c0.616-0.358,1.151-0.82,1.698-1.274c0.261-0.217,0.564-0.364,0.882-0.477c1.182,0.963,2.445,1.939,3.83,2.95
		c0.019,0.014,0.038,0.027,0.057,0.041c-0.238,0.063-0.481,0.108-0.745,0.117c-0.841,0.03-1.684,0.114-2.511,0.274
		c-0.751,0.145-1.474,0.36-2.152,0.719c-0.588,0.311-1.2,0.753-1.885,0.797c-1.374,0.089-2.644,0.967-3.483,2.016
		c-0.542,0.678-1.317,1.982-0.47,2.727c1.067,0.938,2.967,0.053,3.994-0.503c0.645-0.349,1.24-0.799,1.803-1.267
		c0.462-0.384,0.852-0.903,1.338-1.248c0.678-0.481,1.465-0.721,2.113-1.269c0.544-0.46,0.991-1.008,1.45-1.549
		c0.223-0.263,0.5-0.463,0.799-0.631c0.633,0.459,1.265,0.916,1.897,1.37c0.647,0.466,1.286,0.927,1.921,1.388
		c-0.227,0.105-0.461,0.198-0.72,0.262c-0.969,0.238-1.928,0.538-2.85,0.922c-0.837,0.349-1.625,0.773-2.325,1.353
		c-0.607,0.503-1.212,1.163-1.996,1.379c-1.573,0.434-2.836,1.758-3.558,3.179c-0.464,0.913-1.044,2.601,0.098,3.268
		c-0.272,0.23-0.518,0.469-0.718,0.684c-1.401,1.509-2.445,3.631-2.27,5.733c0.087,1.048-0.444,2.075-0.783,3.036
		c-0.39,1.108-0.554,2.252-0.604,3.423c-0.055,1.289,0.008,2.586,0.152,3.867c0.082,0.724-0.009,1.376-0.162,2.057
		c-2.213-1.472-4.367-3.043-6.465-4.738c0.157-0.312,0.337-0.611,0.569-0.877c0.717-0.818,1.446-1.618,2.021-2.547
		c0.685-1.106,0.871-2.352,1.447-3.488c0.413-0.814,1.112-1.521,1.59-2.309c0.582-0.959,1.13-1.962,1.514-3.018
		c0.611-1.682,1.524-4.761-0.138-6.167c-1.32-1.116-3.121,0.353-4.026,1.327c-1.401,1.509-2.445,3.631-2.27,5.733
		c0.087,1.048-0.445,2.075-0.783,3.036c-0.39,1.108-0.554,2.252-0.604,3.423c-0.055,1.289,0.008,2.586,0.152,3.867
		c0.023,0.204,0.028,0.401,0.027,0.596c-0.692-0.569-1.386-1.135-2.065-1.736c-1.057-0.937-2.071-1.89-3.056-2.852
		c0.048-0.584,0.171-1.158,0.46-1.668c0.452-0.798,0.917-1.584,1.233-2.45c0.376-1.031,0.316-2.092,0.597-3.128
		c0.202-0.743,0.658-1.447,0.917-2.179c0.316-0.891,0.597-1.814,0.733-2.752c0.217-1.494,0.444-4.193-1.17-5.07
		c-1.281-0.696-2.517,0.826-3.098,1.785c-0.899,1.486-1.398,3.418-0.893,5.124c0.251,0.85-0.012,1.79-0.127,2.641
		c-0.133,0.982-0.072,1.955,0.087,2.931c0.176,1.074,0.449,2.134,0.788,3.168c0.15,0.458,0.201,0.898,0.213,1.349
		c-3.421-3.372-6.398-6.886-8.874-10.488c-0.896-1.305-0.896-1.305,0.351-2.216c0.687-0.502,1.634-1.324,1.934-2.658
		c0.543-2.418-0.429-5.65-2.945-6.656c-0.236-0.097-0.509,0.004-0.628,0.23s-0.049,0.507,0.164,0.648
		c0.921,0.617,1.055,0.995,1.053,1.165c-0.006,0.433-0.837,0.959-1.571,1.424c-0.853,0.541-1.732,1.099-2.136,1.91
		c-2.053-3.814-3.632-7.783-4.701-11.816c-0.068-0.256-0.327-0.423-0.584-0.361c-0.26,0.053-0.433,0.301-0.394,0.562
		c1.64,11.04,7.786,22.788,16.158,31c-1.125,0.362-2.428,1.458-3.597,2.496c-0.251,0.224-0.452,0.404-0.581,0.501
		c-0.413,0.312-0.788,0.47-1.114,0.47c-1.134,0-1.733-2.032-1.89-2.655c-0.057-0.223-0.257-0.378-0.485-0.378
		c-0.005,0-0.011,0-0.017,0c-0.235,0.008-0.433,0.179-0.476,0.41c-0.588,3.217,2.632,6.005,4.938,7.094
		c1.274,0.602,2.541,0.906,3.767,0.906c0.205,0,0.411-0.009,0.638-0.028c1.15-0.142,1.989-0.712,2.801-1.265
		c0.573-0.39,1.114-0.757,1.749-0.968c1.019-0.339,1.646,0.185,2.485,0.94c0.206,0.186,0.418,0.376,0.644,0.559
		c0.797,0.648,1.62,1.286,2.451,1.916c-0.315,0.011-0.632-0.001-0.965-0.064c-1.069-0.201-2.156-0.335-3.244-0.37
		c-0.988-0.031-1.961,0.035-2.917,0.294c-0.829,0.225-1.727,0.608-2.603,0.469c-1.757-0.279-3.607,0.466-4.964,1.55
		c-0.876,0.7-2.225,2.123-1.368,3.303c1.078,1.487,3.725,0.911,5.178,0.503c0.913-0.257,1.791-0.655,2.634-1.084
		c0.692-0.352,1.331-0.896,2.042-1.192c0.991-0.413,2.051-0.491,3.024-0.998c0.817-0.425,1.536-0.988,2.269-1.54
		c0.381-0.287,0.819-0.472,1.277-0.6c0.461,0.345,0.919,0.693,1.386,1.03c1.379,0.993,2.836,1.978,4.378,2.968
		c-0.187,0.019-0.378,0.026-0.578,0.019c-1.087-0.041-2.182-0.013-3.263,0.114c-0.982,0.115-1.934,0.324-2.842,0.722
		c-0.787,0.345-1.618,0.857-2.504,0.849c-1.779-0.016-3.499,0.994-4.681,2.267c-0.763,0.822-1.886,2.429-0.865,3.469
		c1.286,1.311,3.819,0.35,5.196-0.269c0.865-0.389,1.674-0.912,2.444-1.462c0.632-0.451,1.184-1.083,1.843-1.481
		c0.919-0.555,1.956-0.789,2.843-1.435c0.746-0.541,1.373-1.205,2.016-1.859c0.255-0.259,0.557-0.455,0.875-0.625
		c1.547,0.982,3.179,1.969,4.931,2.975c0.177,0.102,0.354,0.201,0.531,0.302c-0.26,0.09-0.528,0.166-0.821,0.206
		c-1.078,0.149-2.151,0.367-3.193,0.679c-0.947,0.284-1.848,0.656-2.673,1.205c-0.715,0.477-1.445,1.125-2.319,1.271
		c-1.754,0.293-3.273,1.588-4.215,3.047c-0.608,0.942-1.435,2.72-0.248,3.567c1.495,1.067,3.822-0.319,5.07-1.168
		c0.784-0.533,1.49-1.19,2.153-1.864c0.544-0.554,0.977-1.273,1.557-1.779c0.809-0.707,1.789-1.117,2.551-1.907
		c0.64-0.663,1.143-1.425,1.662-2.181c0.233-0.339,0.536-0.612,0.865-0.854c0.81,0.462,1.621,0.924,2.428,1.381
		c0.968,0.548,1.922,1.09,2.871,1.633c-0.263,0.153-0.537,0.293-0.844,0.402c-1.215,0.432-2.408,0.944-3.543,1.558
		c-1.031,0.558-1.988,1.206-2.812,2.042c-0.715,0.726-1.406,1.654-2.386,2.034c-1.966,0.763-3.417,2.631-4.159,4.551
		c-0.479,1.24-1.011,3.503,0.571,4.2c1.992,0.879,4.36-1.29,5.604-2.577c0.781-0.808,1.443-1.74,2.05-2.683
		c0.499-0.774,0.828-1.713,1.379-2.44c0.769-1.015,1.807-1.728,2.502-2.828c0.583-0.923,0.983-1.929,1.405-2.932
		c0.166-0.396,0.413-0.742,0.686-1.068c2.297,1.319,4.54,2.65,6.725,4.076c-0.475,0.361-0.964,0.668-1.56,0.88
		c-1.215,0.432-2.408,0.944-3.543,1.557c-1.031,0.558-1.988,1.206-2.813,2.042c-0.715,0.726-1.406,1.653-2.386,2.034
		c-1.966,0.763-3.417,2.631-4.16,4.551c-0.479,1.24-1.011,3.503,0.571,4.2c1.992,0.879,4.36-1.29,5.604-2.577
		c0.781-0.808,1.443-1.74,2.05-2.683c0.498-0.774,0.828-1.713,1.379-2.44c0.769-1.015,1.808-1.728,2.502-2.828
		c0.583-0.923,0.983-1.929,1.405-2.932c0.266-0.635,0.709-1.163,1.216-1.628c1.792,1.178,3.548,2.42,5.265,3.781
		c0.363,0.288,0.711,0.583,1.067,0.875c-0.381,0.262-0.781,0.486-1.248,0.652c-1.215,0.432-2.408,0.944-3.543,1.558
		c-1.031,0.558-1.988,1.206-2.812,2.042c-0.715,0.726-1.406,1.654-2.386,2.034c-1.966,0.763-3.417,2.631-4.159,4.551
		c-0.479,1.24-1.011,3.503,0.57,4.2c1.992,0.879,4.36-1.29,5.604-2.577c0.781-0.808,1.443-1.74,2.05-2.683
		c0.499-0.774,0.828-1.713,1.379-2.44c0.769-1.015,1.807-1.728,2.501-2.828c0.583-0.923,0.983-1.929,1.405-2.932
		c0.213-0.509,0.542-0.949,0.923-1.345c2.14,1.769,4.149,3.603,6.022,5.498c-0.077,0.032-0.147,0.07-0.227,0.099
		c-1.215,0.432-2.408,0.944-3.543,1.558c-1.031,0.558-1.988,1.206-2.812,2.042c-0.715,0.726-1.406,1.653-2.386,2.034
		c-1.966,0.763-3.417,2.631-4.159,4.551c-0.479,1.24-1.011,3.503,0.571,4.2c1.992,0.879,4.36-1.29,5.604-2.577
		c0.781-0.808,1.443-1.74,2.05-2.683c0.499-0.774,0.828-1.713,1.379-2.44c0.769-1.015,1.807-1.728,2.501-2.828
		c0.583-0.923,0.983-1.929,1.405-2.932c0.061-0.146,0.152-0.273,0.229-0.409c2.585,2.675,4.906,5.464,6.932,8.352
		c-1.056,0.428-1.995,1.066-2.908,1.687c-1.105,0.75-2.149,1.459-3.354,1.798c-1.71,0.482-2.679-0.857-3.094-4.212
		c-0.03-0.244-0.233-0.43-0.479-0.438c-0.006,0-0.012,0-0.017,0c-0.239,0-0.446,0.17-0.491,0.406
		c-0.864,4.526,2.091,8.385,5.146,10.487c3.524,2.428,6.9,2.697,10.798,0.845c4.087,11.343,6.235,24.362,6.756,40.907l0.033,1.297
		l-1.204-0.015c-39.604,0.169-62.174,4.592-65.271,12.791c-1.499,3.966,2.048,7.18,2.199,7.314c0.092,0.081,0.21,0.126,0.332,0.126
		h135.746c0.136,0,0.265-0.055,0.359-0.152c0.127-0.131,3.099-3.262,1.462-7.128c-2.479-5.854-15.752-12.834-64.898-12.834
		l-1.04-0.013l0.006-1.413c0.161-16.551,2.028-29.613,5.87-41.045c3.933,1.772,7.306,1.428,10.778-1.077
		c3.007-2.169,5.878-6.092,4.916-10.596c-0.052-0.24-0.248-0.43-0.517-0.395c-0.245,0.013-0.445,0.203-0.47,0.448
		c-0.343,3.361-1.29,4.725-3.002,4.277c-1.212-0.312-2.271-0.999-3.393-1.726c-0.926-0.601-1.878-1.218-2.943-1.623
		c2.204-3.289,4.784-6.459,7.695-9.493c0.062,0.113,0.138,0.216,0.188,0.335c0.421,1.003,0.821,2.009,1.405,2.932
		c0.694,1.1,1.733,1.813,2.502,2.828c0.551,0.728,0.881,1.666,1.379,2.44c0.607,0.943,1.269,1.875,2.05,2.683
		c1.244,1.286,3.612,3.456,5.604,2.577c1.582-0.698,1.05-2.96,0.571-4.2c-0.743-1.921-2.194-3.789-4.159-4.551
		c-0.98-0.38-1.671-1.308-2.386-2.034c-0.825-0.836-1.782-1.484-2.813-2.042c-1.135-0.614-2.328-1.125-3.543-1.557
		c-0.059-0.021-0.11-0.05-0.167-0.072c1.86-1.894,3.858-3.729,5.98-5.503c0.372,0.391,0.695,0.824,0.904,1.324
		c0.421,1.003,0.821,2.009,1.405,2.932c0.694,1.1,1.733,1.813,2.502,2.828c0.551,0.728,0.881,1.666,1.379,2.44
		c0.607,0.943,1.269,1.875,2.05,2.683c1.245,1.286,3.612,3.456,5.604,2.577c1.582-0.698,1.05-2.96,0.571-4.2
		c-0.743-1.921-2.194-3.789-4.159-4.551c-0.98-0.38-1.671-1.308-2.386-2.034c-0.825-0.836-1.782-1.484-2.813-2.042
		c-1.135-0.614-2.328-1.125-3.543-1.557c-0.46-0.163-0.856-0.383-1.231-0.639c2.048-1.696,4.157-3.219,6.32-4.663
		c0.505,0.463,0.945,0.99,1.21,1.623c0.421,1.003,0.821,2.009,1.405,2.932c0.694,1.1,1.733,1.813,2.502,2.828
		c0.551,0.728,0.881,1.666,1.379,2.44c0.607,0.943,1.269,1.875,2.05,2.683c1.245,1.286,3.612,3.456,5.604,2.577
		c1.582-0.698,1.05-2.96,0.571-4.2c-0.743-1.921-2.194-3.789-4.16-4.551c-0.98-0.38-1.671-1.308-2.386-2.034
		c-0.825-0.836-1.782-1.484-2.813-2.042c-1.135-0.614-2.328-1.125-3.543-1.558c-0.593-0.211-1.08-0.516-1.552-0.874
		c1.988-1.318,4.024-2.575,6.106-3.826c0.064,0.075,0.128,0.083,0.171-0.083c0.001-0.006-0.002-0.014,0-0.02
		c0.126-0.076,0.25-0.151,0.377-0.227c0.302,0.346,0.571,0.717,0.75,1.143c0.421,1.003,0.821,2.009,1.405,2.932
		c0.694,1.1,1.733,1.813,2.502,2.828c0.551,0.728,0.881,1.666,1.379,2.44c0.607,0.943,1.269,1.875,2.05,2.683
		c1.245,1.286,3.612,3.456,5.604,2.577c1.582-0.698,1.05-2.96,0.571-4.2c-0.743-1.921-2.194-3.789-4.16-4.551
		c-0.98-0.38-1.671-1.308-2.386-2.034c-0.825-0.836-1.782-1.484-2.813-2.042c-1.135-0.614-2.328-1.125-3.543-1.557
		c-0.348-0.123-0.654-0.285-0.948-0.463c0.565-0.337,1.132-0.675,1.704-1.015c1.097-0.652,2.196-1.307,3.297-1.971
		c0.069-0.042,0.131-0.082,0.2-0.124c0.414,0.273,0.786,0.601,1.067,1.011c0.52,0.756,1.022,1.518,1.662,2.181
		c0.762,0.79,1.742,1.2,2.551,1.907c0.58,0.507,1.013,1.225,1.557,1.779c0.663,0.675,1.369,1.331,2.153,1.864
		c1.248,0.849,3.575,2.235,5.07,1.168c1.187-0.847,0.36-2.624-0.248-3.567c-0.942-1.459-2.461-2.753-4.215-3.047
		c-0.875-0.146-1.604-0.794-2.319-1.271c-0.825-0.549-1.726-0.921-2.673-1.205c-1.043-0.312-2.116-0.531-3.193-0.679
		c-0.408-0.056-0.773-0.17-1.127-0.318c1.892-1.153,3.646-2.281,5.291-3.398c0.502,0.202,0.973,0.471,1.353,0.857
		c0.643,0.654,1.271,1.318,2.016,1.859c0.888,0.645,1.924,0.879,2.843,1.435c0.659,0.398,1.21,1.03,1.843,1.481
		c0.77,0.549,1.58,1.073,2.444,1.462c1.377,0.619,3.909,1.58,5.196,0.269c1.021-1.04-0.102-2.647-0.865-3.469
		c-1.182-1.273-2.902-2.284-4.68-2.267c-0.887,0.008-1.718-0.503-2.505-0.849c-0.908-0.398-1.86-0.607-2.842-0.722
		c-1.081-0.127-2.176-0.155-3.262-0.114c-0.444,0.017-0.85-0.043-1.254-0.14c1.253-0.858,2.46-1.712,3.595-2.567
		c0.644-0.486,1.283-0.985,1.917-1.49c0.786,0.096,1.571,0.302,2.205,0.78c0.733,0.552,1.452,1.115,2.269,1.54
		c0.973,0.507,2.033,0.585,3.024,0.998c0.71,0.296,1.349,0.84,2.042,1.192c0.843,0.429,1.721,0.827,2.634,1.084
		c1.453,0.409,4.1,0.984,5.178-0.503c0.856-1.18-0.492-2.603-1.368-3.303c-1.357-1.084-3.208-1.829-4.964-1.55
		c-0.876,0.139-1.773-0.244-2.603-0.469c-0.957-0.259-1.929-0.325-2.917-0.294c-1.088,0.035-2.175,0.169-3.244,0.37
		c-0.693,0.131-1.32,0.065-2-0.05c0.661-0.53,1.315-1.068,1.957-1.611c0.221-0.188,0.428-0.382,0.63-0.57
		c0.823-0.775,1.448-1.308,2.465-0.997c0.639,0.197,1.188,0.553,1.769,0.93c0.824,0.534,1.676,1.087,2.849,1.205
		c1.442,0.088,2.891-0.238,4.365-0.974c2.282-1.138,5.44-3.995,4.784-7.199c-0.048-0.23-0.249-0.396-0.484-0.399
		c-0.002,0-0.004,0-0.006,0c-0.233,0-0.436,0.161-0.487,0.389c-0.145,0.632-0.706,2.695-1.854,2.695
		c-0.321,0-0.692-0.15-1.103-0.445c-0.13-0.095-0.334-0.27-0.59-0.486c-0.936-0.797-2.402-2.044-3.653-2.42
		c1.024-1.049,2.013-2.153,2.961-3.303c0.802-0.147,1.646-0.194,2.411,0.102c0.81,0.312,1.609,0.639,2.463,0.814
		c1.017,0.21,2.001,0.006,3.01,0.126c0.723,0.086,1.445,0.415,2.166,0.557c0.878,0.172,1.78,0.308,2.677,0.305
		c1.428-0.004,3.985-0.165,4.582-1.797c0.474-1.295-1.121-2.241-2.099-2.652c-1.515-0.635-3.392-0.835-4.918-0.126
		c-0.761,0.353-1.677,0.237-2.489,0.247c-0.937,0.012-1.839,0.203-2.73,0.487c-0.981,0.313-1.935,0.716-2.856,1.176
		c-0.649,0.325-1.285,0.419-2.003,0.492c1.421-1.745,2.748-3.592,3.969-5.515c0.335,0.008,0.667,0.051,0.981,0.172
		c0.672,0.259,1.337,0.531,2.046,0.676c0.844,0.174,1.662,0.005,2.5,0.105c0.601,0.071,1.2,0.345,1.799,0.462
		c0.729,0.143,1.479,0.255,2.223,0.253c1.186-0.003,3.31-0.137,3.805-1.492c0.394-1.076-0.931-1.861-1.744-2.202
		c-1.259-0.528-2.817-0.693-4.085-0.105c-0.632,0.293-1.392,0.197-2.067,0.205c-0.779,0.01-1.528,0.169-2.268,0.405
		c-0.815,0.26-1.607,0.595-2.372,0.977c-0.208,0.104-0.416,0.174-0.625,0.231c0.901-1.439,1.741-2.917,2.517-4.425
		c0.32,0.006,0.637,0.047,0.938,0.163c0.632,0.244,1.257,0.499,1.923,0.636c0.794,0.164,1.562,0.005,2.35,0.098
		c0.565,0.067,1.128,0.324,1.691,0.435c0.686,0.135,1.39,0.24,2.09,0.238c1.115-0.003,3.112-0.129,3.577-1.403
		C190.932,57.258,189.687,56.52,188.923,56.199z M105.234,44.075c0.46-0.045,0.896,0.028,1.369,0.11
		c0.012,0.002,0.024,0.003,0.036,0.005c-0.493,0.067-0.984,0.16-1.465,0.287c-0.253,0.067-0.495,0.077-0.74,0.071
		C104.625,44.278,104.849,44.117,105.234,44.075z M72.11,70.194c-0.721,0.229-1.383,0.58-2.027,0.922
		c-0.823,0.438-1.602,0.852-2.451,0.993c-0.103,0.017-0.164,0.026-0.289,0.025c-0.329,0-1.3-0.017-1.386-2.881
		c0.618-0.576,1.327-1.028,1.866-1.716c0.504-0.644,0.882-1.362,1.271-2.077C70.209,67.01,71.218,68.589,72.11,70.194z
		 M56.523,46.099c0.52-0.484,1.031-0.971,1.492-1.51c0.002,0,0.004,0.001,0.006,0.001c0.149-0.014,0.328-0.023,0.521-0.023
		c0.548,0,1.823,0.081,1.828,0.823c-0.001,0.821-0.462,1.594-0.949,2.412c-0.37,0.621-0.75,1.258-0.958,1.96
		c-0.67-0.465-1.34-0.928-2.009-1.389c-0.307-0.211-0.608-0.421-0.913-0.631C55.751,47.128,56.048,46.541,56.523,46.099z
		 M47.841,60.342c0.665-0.561,1.247-1.227,1.788-1.905c0.444-0.557,0.771-1.254,1.252-1.771c0.671-0.721,1.527-1.189,2.147-1.982
		c0.521-0.665,0.908-1.409,1.311-2.148c0.165-0.302,0.391-0.558,0.638-0.794c1.651,1.204,3.254,2.417,4.8,3.707
		c-0.383,0.232-0.774,0.423-1.236,0.536c-0.969,0.238-1.928,0.538-2.85,0.922c-0.837,0.349-1.625,0.773-2.325,1.353
		c-0.607,0.503-1.212,1.163-1.996,1.379c-1.573,0.434-2.836,1.758-3.558,3.179c-0.086,0.169-0.173,0.371-0.256,0.582
		c-0.044-0.845-0.3-1.618-0.923-2.154C47.094,60.946,47.515,60.618,47.841,60.342z M46.047,85.057
		c-2.336-1.348-4.629-2.738-6.865-4.216c0.194-0.758,0.489-1.49,1.005-2.078c0.717-0.818,1.446-1.618,2.021-2.547
		c0.685-1.106,0.871-2.352,1.447-3.488c0.413-0.814,1.112-1.521,1.589-2.309c0.582-0.959,1.13-1.962,1.514-3.018
		c0.198-0.545,0.427-1.238,0.59-1.972c0.101,0.269,0.282,0.502,0.575,0.668c1.465,0.832,3.457-0.653,4.516-1.546
		c0.665-0.561,1.247-1.227,1.788-1.905c0.444-0.557,0.771-1.254,1.252-1.771c0.671-0.722,1.527-1.189,2.147-1.982
		c0.521-0.665,0.908-1.409,1.311-2.148c0.249-0.456,0.618-0.822,1.031-1.135c1.01,0.85,1.999,1.733,2.957,2.679
		c0.488,0.482,0.963,0.968,1.427,1.459c-0.266,0.134-0.543,0.247-0.854,0.324c-0.969,0.238-1.928,0.538-2.849,0.922
		c-0.837,0.349-1.625,0.773-2.325,1.353c-0.607,0.503-1.211,1.163-1.996,1.379c-0.996,0.274-1.866,0.907-2.555,1.694
		c-1.319-1.098-3.112,0.364-4.014,1.335c-1.401,1.509-2.445,3.631-2.27,5.733c0.087,1.048-0.444,2.075-0.783,3.036
		c-0.391,1.108-0.554,2.252-0.604,3.423c-0.055,1.289,0.008,2.586,0.152,3.867C46.344,83.604,46.227,84.309,46.047,85.057z
		 M53.901,89.417c-2.579-1.395-5.114-2.785-7.598-4.214c0.191-0.819,0.496-1.615,1.051-2.247c0.717-0.818,1.446-1.618,2.021-2.547
		c0.685-1.106,0.871-2.352,1.447-3.488c0.413-0.814,1.112-1.521,1.59-2.309c0.582-0.959,1.13-1.962,1.514-3.018
		c0.129-0.356,0.271-0.777,0.401-1.229c1.149-0.214,2.337-1.106,3.073-1.728c0.665-0.561,1.247-1.227,1.788-1.905
		c0.444-0.557,0.771-1.254,1.252-1.771c0.671-0.722,1.527-1.189,2.147-1.982c0.521-0.665,0.908-1.409,1.311-2.148
		c0.175-0.321,0.417-0.591,0.684-0.837c1.429,1.526,2.743,3.094,3.941,4.696c-0.896,0.229-1.781,0.506-2.635,0.862
		c-0.837,0.349-1.625,0.773-2.325,1.353c-0.607,0.503-1.212,1.163-1.996,1.379c-0.906,0.25-1.704,0.8-2.36,1.488
		c-0.622,0.358-1.188,0.877-1.583,1.302c-1.401,1.509-2.445,3.631-2.27,5.733c0.087,1.048-0.445,2.075-0.783,3.036
		c-0.39,1.108-0.554,2.252-0.604,3.423c-0.055,1.289,0.008,2.586,0.152,3.867C54.208,87.937,54.086,88.653,53.901,89.417z
		 M59.719,88.851c-0.459,1.003-0.931,2.034-1.074,3.136c-1.102-0.6-2.202-1.194-3.301-1.788c-0.398-0.215-0.791-0.429-1.187-0.643
		c0.19-0.83,0.498-1.639,1.06-2.279c0.717-0.818,1.446-1.618,2.021-2.547c0.11-0.177,0.191-0.363,0.279-0.547
		c0.301-0.043,0.67-0.081,1.07-0.081c1.319,0,2.031,0.374,2.116,1.106C60.832,86.417,60.292,87.599,59.719,88.851z M77.074,105.22
		c-0.777-0.706-1.514-1.352-2.232-1.959c-1.33-1.123-2.734-2.245-4.175-3.335c-0.317-0.24-0.649-0.461-0.978-0.679
		c-1.378-0.914-2.219-1.545-2.122-2.937c0.068-1.004,0.317-1.899,0.558-2.765c0.523-1.881,1.017-3.656-0.435-5.987
		c-1.95-3.252-5.456-5.229-8.731-4.843c-0.315,0.035-0.618,0.102-0.92,0.173c0.19-0.556,0.374-1.114,0.645-1.647
		c0.413-0.814,1.112-1.521,1.59-2.309c0.582-0.959,1.13-1.962,1.514-3.018c0.255-0.701,0.559-1.644,0.711-2.607
		c0.044-0.036,0.095-0.077,0.137-0.112c0.665-0.561,1.247-1.227,1.788-1.905c0.101-0.126,0.194-0.26,0.285-0.397
		c0.069,2.411,1.528,4.567,3.122,5.943c2.29,1.976,4.664,2.453,7.522,1.5C77.196,86.047,77.746,94.63,77.074,105.22z
		 M137.918,60.742c0.694,1.1,1.733,1.813,2.501,2.828c0.551,0.728,0.881,1.666,1.379,2.44c0.607,0.943,1.269,1.875,2.05,2.683
		c0.023,0.024,0.049,0.05,0.073,0.075c-0.524-0.096-1.037-0.023-1.446,0.386c-0.111,0.111-0.182,0.239-0.26,0.365
		c-0.75-0.956-1.694-1.754-2.813-2.188c-0.98-0.38-1.671-1.308-2.386-2.034c-0.825-0.836-1.782-1.484-2.813-2.042
		c-1.096-0.593-2.247-1.086-3.419-1.508c1.897-1.286,3.838-2.504,5.823-3.708C136.996,58.964,137.379,59.888,137.918,60.742z
		 M130.152,48.317c0.089-0.957,1.264-1.157,2.233-1.157c0.255,0,0.491,0.016,0.707,0.036c0.031,0.049,0.068,0.095,0.097,0.145
		c0.528,0.927,0.734,1.962,1.352,2.86c0.518,0.754,1.161,1.394,1.794,2.05c0.108,0.112,0.191,0.242,0.281,0.367
		c-0.334,0.19-0.664,0.379-1,0.57c-1.085,0.617-2.173,1.235-3.262,1.858c-0.167-1.099-0.661-2.119-1.142-3.112
		C130.615,50.695,130.049,49.525,130.152,48.317z M99.639,53.013c0.049,0.019,0.101,0.029,0.149,0.052
		c0.507,0.243,1.007,0.495,1.55,0.652c0.646,0.187,1.293,0.106,1.939,0.235c0.463,0.092,0.913,0.342,1.372,0.47
		c0.559,0.156,1.134,0.29,1.714,0.334c0.534,0.041,1.312,0.06,1.967-0.124c0.053,0.87,0.257,1.745,0.438,2.387
		c0.257,0.912,0.655,1.791,1.084,2.633c0.353,0.692,0.896,1.331,1.192,2.041c0.414,0.991,0.491,2.051,0.999,3.024
		c0.425,0.817,0.988,1.536,1.54,2.269c0.362,0.48,0.56,1.05,0.682,1.638c-1.45,1.365-2.815,2.751-4.095,4.144
		c0.009-0.862-0.016-1.726-0.116-2.581c-0.115-0.982-0.324-1.934-0.722-2.842c-0.345-0.787-0.856-1.618-0.848-2.505
		c0.014-1.578-0.781-3.108-1.85-4.259c0.333-0.104,0.626-0.278,0.837-0.564c0.628-0.854-0.346-1.895-0.979-2.408
		c-0.982-0.794-2.324-1.345-3.602-1.15c-0.637,0.097-1.288-0.185-1.89-0.353c-0.694-0.193-1.401-0.245-2.119-0.227
		c-0.426,0.011-0.85,0.046-1.274,0.095C98.334,54.957,99.006,53.974,99.639,53.013z M95.932,58.291
		c0.295-0.405,0.59-0.814,0.885-1.222c0.417,0.317,0.837,0.629,1.303,0.875c0.705,0.373,1.475,0.435,2.194,0.74
		c0.515,0.219,0.977,0.617,1.479,0.876c0.184,0.095,0.376,0.181,0.565,0.27c-0.179,0.355-0.248,0.762-0.256,1.187
		c-0.391-0.066-0.788-0.083-1.179-0.023c-0.637,0.097-1.288-0.185-1.89-0.353c-0.694-0.193-1.401-0.245-2.119-0.227
		c-0.791,0.02-1.582,0.113-2.36,0.254c-0.126,0.023-0.249,0.035-0.37,0.042C94.757,59.908,95.339,59.105,95.932,58.291z
		 M93.95,61.035c0.198,0.083,0.389,0.181,0.562,0.312c0.53,0.404,1.05,0.817,1.643,1.13c0.705,0.373,1.475,0.435,2.194,0.74
		c0.515,0.219,0.977,0.617,1.479,0.876c0.611,0.316,1.247,0.609,1.909,0.8c0.449,0.129,1.055,0.275,1.664,0.324
		c0.326,0.594,0.685,1.172,1.075,1.72c0.451,0.632,1.083,1.184,1.481,1.843c0.555,0.919,0.789,1.956,1.435,2.843
		c0.541,0.745,1.205,1.373,1.859,2.016c0.022,0.021,0.036,0.048,0.057,0.07c-1.114,1.26-2.174,2.55-3.189,3.863
		c-0.114-0.542-0.247-1.081-0.406-1.611c-0.284-0.947-0.656-1.848-1.205-2.673c-0.477-0.715-1.125-1.444-1.271-2.319
		c-0.085-0.507-0.261-0.991-0.493-1.451c0.187-0.103,0.36-0.229,0.493-0.409c0.628-0.854-0.346-1.895-0.98-2.408
		c-0.981-0.794-2.323-1.345-3.602-1.15c-0.637,0.097-1.288-0.185-1.89-0.353c-0.694-0.193-1.401-0.245-2.119-0.227
		c-0.791,0.02-1.582,0.113-2.36,0.254c-0.401,0.073-0.771,0.056-1.153,0.003C92.029,63.81,92.965,62.418,93.95,61.035z
		 M97.155,74.443c0.907,0.261,2.45,0.61,3.369,0.021c0.326,0.259,0.647,0.521,0.911,0.823c0.707,0.809,1.118,1.789,1.907,2.551
		c0.499,0.482,1.059,0.882,1.626,1.275c-0.948,1.295-1.849,2.612-2.7,3.951c-0.264-0.607-0.55-1.204-0.865-1.786
		c-0.558-1.031-1.206-1.988-2.042-2.813c-0.726-0.715-1.654-1.406-2.034-2.386c-0.307-0.793-0.8-1.497-1.398-2.109
		C96.329,74.153,96.735,74.322,97.155,74.443z M94.45,70.191c-0.694-0.193-1.401-0.245-2.119-0.227
		c-0.791,0.02-1.582,0.113-2.36,0.254c-0.557,0.102-1.052,0.032-1.608-0.072c0.149-0.303,0.292-0.606,0.447-0.909
		c0.683-1.334,1.437-2.598,2.216-3.841c0.438,0.09,0.862,0.237,1.218,0.509c0.53,0.404,1.05,0.817,1.643,1.13
		c0.705,0.373,1.475,0.435,2.194,0.74c0.054,0.023,0.106,0.055,0.159,0.081c0.018,0.887,0.43,1.85,0.89,2.664
		c-0.264-0.018-0.528-0.017-0.791,0.023C95.703,70.641,95.052,70.359,94.45,70.191z M87.241,55.728
		c0.243-0.427,1.013-0.787,1.734-0.983c0.572,0.423,1.029,0.962,1.671,1.316c0.586,0.324,1.216,0.534,1.845,0.756
		c0.026,0.009,0.048,0.026,0.073,0.036c-0.235,0.31-0.467,0.619-0.704,0.93c-0.493,0.651-0.988,1.304-1.481,1.958
		c-0.417-0.602-0.977-1.087-1.522-1.562c-0.72-0.624-1.399-1.215-1.656-1.989C87.145,56.018,87.157,55.875,87.241,55.728z
		 M92.04,111.627c-0.377,3.339-0.568,6.706-0.569,10.041c-0.193-0.459-0.386-0.919-0.578-1.379
		c-3.882-9.298-6.256-17.448-7.252-24.839c0.024-1.11,0.024-2.123,0-3.099c-0.002-0.066-0.005-0.134-0.008-0.201
		c2.821-0.083,4.838-1.284,6.325-3.762c1.375-2.288,2.159-5.702,0.235-8.422c-0.143-0.2-0.412-0.267-0.63-0.159
		c-0.221,0.109-0.329,0.363-0.256,0.598c0.451,1.436,0.513,2.431,0.185,2.957c-0.16,0.258-0.431,0.413-0.825,0.474
		c-0.866,0.131-1.72-0.018-2.642-0.176c-0.717-0.122-1.495-0.244-2.212-0.241c0.829-4.329,2.334-8.729,4.468-13.104
		c0.587,0.07,1.177,0.222,1.649,0.582c0.242,0.185,0.483,0.369,0.729,0.547c-0.878-0.035-1.708,0.195-2.083,1.046
		c-0.878,1.992,1.291,4.36,2.577,5.604c0.808,0.781,1.74,1.443,2.683,2.05c0.774,0.498,1.713,0.828,2.44,1.379
		c1.015,0.769,1.728,1.807,2.828,2.502c0.624,0.395,1.288,0.703,1.961,0.993C96.176,93.283,93.097,102.296,92.04,111.627z
		 M106.707,115.585c-0.012-0.028-0.016-0.057-0.029-0.085c-0.229-0.521-0.567-1.072-0.562-1.659c0.011-1.178-0.659-2.318-1.502-3.1
		c-0.544-0.505-1.609-1.249-2.298-0.573c-0.868,0.852-0.232,2.53,0.178,3.442c0.258,0.573,0.604,1.109,0.968,1.619
		c0.299,0.419,0.718,0.784,0.981,1.221c0.275,0.455,0.431,0.953,0.671,1.421c-2.229,3.334-4.163,6.805-5.766,10.401
		c0.392-11.264,1.723-21.057,4.003-29.728c-0.026,1.211,0.51,2.59,0.912,3.485c0.389,0.865,0.913,1.674,1.462,2.444
		c0.451,0.632,1.083,1.184,1.481,1.843c0.555,0.919,0.789,1.956,1.435,2.843c0.491,0.676,1.084,1.254,1.677,1.835
		C109.047,112.489,107.842,114.02,106.707,115.585z M111.421,109.714c-0.011-0.665-0.041-1.33-0.119-1.99
		c-0.115-0.982-0.324-1.934-0.722-2.842c-0.345-0.787-0.856-1.618-0.848-2.505c0.016-1.779-0.995-3.499-2.268-4.68
		c-0.822-0.763-2.429-1.886-3.469-0.865c-0.126,0.124-0.214,0.268-0.3,0.413c0.439-1.58,0.9-3.135,1.406-4.641
		c1.651,0.744,3.2,1.092,4.702,1.087c0.07,0.312,0.143,0.609,0.215,0.863c0.257,0.912,0.655,1.791,1.084,2.633
		c0.353,0.692,0.896,1.331,1.192,2.041c0.414,0.991,0.491,2.051,0.999,3.024c0.425,0.817,0.988,1.536,1.54,2.269
		c0.249,0.331,0.412,0.708,0.538,1.099C113.976,106.972,112.65,108.339,111.421,109.714z M118.361,102.847
		c-0.917,0.809-1.798,1.631-2.661,2.457c-0.002-0.272,0.011-0.546,0.065-0.832c0.201-1.069,0.335-2.156,0.37-3.244
		c0.031-0.988-0.035-1.961-0.294-2.917c-0.225-0.829-0.608-1.727-0.469-2.603c0.186-1.171-0.089-2.381-0.61-3.461
		c0.371-0.219,0.743-0.451,1.115-0.72c0.105-0.076,0.21-0.159,0.315-0.24c0.209,0.521,0.439,1.034,0.692,1.531
		c0.352,0.692,0.896,1.331,1.192,2.041c0.413,0.991,0.491,2.051,0.998,3.024c0.425,0.817,0.989,1.536,1.54,2.269
		c0.122,0.162,0.216,0.34,0.306,0.52C120.051,101.392,119.19,102.116,118.361,102.847z M125.177,86.986
		c-1.405,2.369-0.873,4.135-0.31,6.004c0.259,0.859,0.526,1.749,0.617,2.751c0.126,1.39-0.7,2.038-2.059,2.982
		c-0.323,0.224-0.65,0.452-0.963,0.698c-0.311,0.246-0.613,0.499-0.92,0.748c0.004-0.023,0.003-0.044,0.008-0.067
		c0.201-1.069,0.335-2.156,0.37-3.244c0.031-0.988-0.035-1.961-0.294-2.917c-0.225-0.829-0.608-1.727-0.469-2.603
		c0.248-1.562-0.315-3.197-1.206-4.494c0.883-1.756,1.301-3.767,0.842-5.913c-0.052-0.24-0.265-0.427-0.517-0.395
		c-0.245,0.013-0.445,0.203-0.47,0.448c-0.232,2.274-0.748,3.613-1.583,4.116c-0.614-0.38-1.3-0.545-1.92-0.094
		c-0.025,0.018-0.039,0.045-0.063,0.065c-0.982-0.356-1.886-0.924-2.829-1.534c-0.926-0.601-1.878-1.218-2.942-1.623
		c3.434-5.123,7.761-9.966,12.875-14.433c0.233,0.546,0.475,1.086,0.794,1.591c0.525,0.832,1.311,1.371,1.892,2.139
		c0.417,0.55,0.666,1.26,1.043,1.846c0.459,0.713,0.96,1.418,1.551,2.029c0.553,0.571,1.4,1.363,2.31,1.793
		c-1.216,1.299-0.176,3.668,0.495,4.962c0.048,0.092,0.112,0.177,0.164,0.268C129.032,82.635,126.642,84.417,125.177,86.986z
		 M134.311,91.226c-0.167-1.099-0.661-2.119-1.141-3.112c-0.6-1.238-1.166-2.408-1.062-3.616c0.035-0.38,0.245-0.637,0.542-0.813
		c0.12,0.156,0.233,0.319,0.356,0.471c0.481,0.596,1.145,1.108,1.574,1.732c0.598,0.87,0.873,1.865,1.562,2.701
		c0.303,0.369,0.641,0.704,0.992,1.027C136.193,90.151,135.252,90.686,134.311,91.226z M138.968,88.571
		c-0.038-0.488-0.089-0.975-0.167-1.458c-0.152-0.946-0.399-1.859-0.836-2.724c-0.379-0.749-0.93-1.536-0.953-2.393
		c-0.046-1.72-1.137-3.35-2.475-4.45c-0.328-0.269-0.773-0.584-1.254-0.816c0.653-0.71,0.323-2.07,0.013-2.871
		c-0.562-1.453-1.659-2.866-3.146-3.443c-0.741-0.288-1.264-0.99-1.805-1.538c-0.624-0.633-1.348-1.123-2.127-1.545
		c-0.566-0.306-1.155-0.568-1.751-0.812c0.195-0.165,0.383-0.334,0.58-0.497c1.583-1.312,3.205-2.517,4.857-3.666
		c0.047,0.09,0.109,0.171,0.149,0.265c0.421,1.003,0.821,2.009,1.405,2.932c0.694,1.1,1.733,1.813,2.502,2.828
		c0.551,0.728,0.881,1.666,1.379,2.44c0.43,0.669,0.907,1.315,1.416,1.932c-0.015,0.014-0.033,0.019-0.048,0.034
		c-1.29,1.288-0.222,3.705,0.458,5.015c0.427,0.823,0.989,1.588,1.575,2.314c0.482,0.596,1.145,1.108,1.574,1.732
		c0.598,0.87,0.873,1.865,1.562,2.701c0.448,0.545,0.972,1.016,1.505,1.481C141.925,86.88,140.453,87.725,138.968,88.571z
		 M144.733,85.238c-0.03-0.724-0.084-1.447-0.199-2.163c-0.152-0.946-0.399-1.859-0.836-2.723c-0.379-0.749-0.93-1.536-0.953-2.393
		c-0.016-0.585-0.159-1.157-0.385-1.704c0.214-0.03,0.426-0.081,0.633-0.173c0.337-0.149,0.561-0.378,0.727-0.644
		c0.251,0.357,0.516,0.706,0.79,1.044c0.482,0.596,1.145,1.108,1.574,1.732c0.598,0.87,0.873,1.865,1.562,2.701
		c0.475,0.577,1.034,1.073,1.6,1.565C147.76,83.418,146.258,84.337,144.733,85.238z M150.506,81.686
		c-0.028-0.752-0.083-1.504-0.202-2.247c-0.152-0.946-0.399-1.859-0.836-2.723c-0.379-0.749-0.93-1.536-0.953-2.393
		c-0.03-1.095-0.484-2.152-1.154-3.06c0.702,0.248,1.418,0.304,2.092,0.007c0.303-0.134,0.509-0.337,0.672-0.568
		c0.025,0.099,0.05,0.202,0.073,0.29c0.204,0.749,0.53,1.472,0.884,2.168c0.29,0.571,0.746,1.102,0.988,1.686
		c0.337,0.816,0.385,1.682,0.802,2.485c0.35,0.674,0.821,1.271,1.282,1.878c0.002,0.003,0.003,0.006,0.005,0.008
		C152.957,80.064,151.74,80.887,150.506,81.686z"/>
</g>
</svg>
