<?xml version="1.0" encoding="iso-8859-1"?>
<!-- Generator: Adobe Illustrator 17.1.0, SVG Export Plug-In . SVG Version: 6.00 Build 0)  -->
<!DOCTYPE svg PUBLIC "-//W3C//DTD SVG 1.1//EN" "http://www.w3.org/Graphics/SVG/1.1/DTD/svg11.dtd">
<svg version="1.1" id="Capa_1" xmlns="http://www.w3.org/2000/svg" xmlns:xlink="http://www.w3.org/1999/xlink" x="0px" y="0px"
	 viewBox="0 0 150 150" style="enable-background:new 0 0 150 150;" xml:space="preserve">
<g>
	<path d="M73.054,147.04c2.673,0,5.515-1.892,5.515-5.4v-18.063c15.585-3.633,30.139-17.275,30.395-33.746
		c-0.333,0.059-0.665,0.122-1.001,0.173c-0.333,0.05-0.671,0.088-1.007,0.128c-1.441,0.175-2.904,0.275-4.391,0.275
		c-0.83,0-1.651-0.038-2.468-0.093c-0.009,0.01-0.017,0.02-0.026,0.03c-0.35,0.393-0.711,0.774-1.086,1.143
		c-0.37,0.364-0.754,0.714-1.148,1.054c-1.54,8.753-10.142,16.741-19.269,19.716V97.942c-0.336-0.056-0.669-0.117-1-0.186
		c-0.336-0.071-0.67-0.146-1-0.231c-2.533-0.653-4.899-1.722-7.029-3.122c-0.339-0.223-0.673-0.454-1-0.693
		c-0.34-0.249-0.674-0.506-1-0.773v9.385c-1.224-0.701-2.468-1.378-3.69-2.043c-2.55-1.389-4.806-2.668-6.72-3.937
		c-0.31,0.21-0.626,0.41-0.944,0.609c-0.31,0.195-0.625,0.383-0.943,0.567c-2.292,1.328-4.766,2.372-7.378,3.083
		c-0.375,0.102-0.754,0.195-1.135,0.284c-0.378,0.088-0.758,0.171-1.141,0.244c0.489,0.522,0.997,1.04,1.544,1.551
		c5.491,5.127,13.291,9.175,20.406,12.481v26.481C67.539,145.148,70.381,147.04,73.054,147.04z"/>
	<path d="M78.682,26.783c5.627-4.926,12.778-8.144,20.648-8.843C96.758,9.302,88.767,3,79.294,3c-6.829,0-12.874,3.288-16.691,8.351
		C69.931,13.93,75.811,19.596,78.682,26.783z"/>
	<path d="M39.71,39.512c3.204,0,6.295,0.488,9.205,1.392c7.292,2.265,13.443,7.148,17.348,13.544
		c-0.001-0.117-0.009-0.233-0.009-0.35c0-3.611,0.537-7.097,1.523-10.391c0.098-0.327,0.202-0.652,0.309-0.976
		c0.109-0.328,0.215-0.658,0.333-0.982c0.944-2.603,2.184-5.065,3.669-7.353c1.448-2.233,3.131-4.299,5.02-6.158
		c-2.599-7.167-8.397-12.797-15.667-15.174c-0.33-0.108-0.663-0.208-0.999-0.302c-0.332-0.093-0.667-0.18-1.004-0.259
		c-1.843-0.435-3.763-0.672-5.739-0.672c-13.749,0-24.895,11.146-24.895,24.895c0,1.575,0.153,3.114,0.433,4.608
		C32.512,40.157,36.036,39.512,39.71,39.512z"/>
	<path d="M39.71,99.693c1.479,0,2.933-0.113,4.353-0.327c0.372-0.056,0.74-0.125,1.107-0.195c0.378-0.072,0.752-0.153,1.125-0.24
		c2.544-0.591,4.963-1.51,7.205-2.722c0.318-0.172,0.631-0.354,0.942-0.538c0.315-0.186,0.624-0.378,0.931-0.575
		c2.949-1.892,5.54-4.295,7.635-7.092c-2.606-3.793-4.136-8.382-4.136-13.322c0-0.209,0.01-0.416,0.016-0.624
		c0.114-4.375,1.423-8.455,3.616-11.928c0.31-0.491,0.635-0.972,0.979-1.437c0.445-0.602,0.918-1.182,1.417-1.738
		c0.319-0.355,0.647-0.701,0.986-1.036c-3.589-7.377-10.208-13.013-18.226-15.295c-2.529-0.719-5.193-1.113-7.949-1.113
		c-3.521,0-6.897,0.629-10.023,1.78c-0.314,0.116-0.622,0.242-0.931,0.368c-0.312,0.127-0.62,0.261-0.926,0.399
		c-10.133,4.553-17.21,14.734-17.21,26.544C10.62,86.643,23.669,99.693,39.71,99.693z"/>
	<path d="M101.831,19.806c-0.337,0.007-0.676,0.009-1.011,0.026c-0.338,0.017-0.671,0.049-1.006,0.075
		C91.971,20.53,84.87,23.782,79.4,28.792c-0.278,0.254-0.549,0.516-0.818,0.78c-0.273,0.267-0.539,0.54-0.803,0.816
		c-1.409,1.472-2.69,3.066-3.821,4.771c-1.356,2.045-2.495,4.244-3.393,6.565c-0.128,0.329-0.251,0.66-0.369,0.995
		c-0.06,0.171-0.117,0.344-0.175,0.516c-0.051,0.152-0.105,0.301-0.154,0.454c-0.102,0.32-0.194,0.644-0.286,0.968
		c-0.471,1.648-0.821,3.346-1.041,5.086c-0.181,1.427-0.285,2.879-0.285,4.355c0,0.582,0.015,1.16,0.044,1.735
		c0.079-0.06,0.161-0.117,0.241-0.176c0.327-0.24,0.661-0.47,1-0.693c0.816-0.536,1.665-1.024,2.547-1.458
		c0.659-0.324,1.336-0.617,2.028-0.88c0.542-0.206,1.094-0.391,1.654-0.557c0.266-0.079,0.531-0.158,0.8-0.228
		c0.33-0.085,0.664-0.16,1-0.231c0.331-0.07,0.665-0.131,1-0.186c1.266-0.211,2.563-0.326,3.888-0.326
		c1.15,0,2.28,0.087,3.386,0.247c11.406,1.648,20.199,11.484,20.199,23.339c0,2.191-0.307,4.311-0.869,6.326
		c-0.09,0.322-0.185,0.642-0.288,0.959c-0.103,0.317-0.211,0.632-0.327,0.943c-0.733,1.962-1.722,3.798-2.923,5.473
		c0.31,0.008,0.617,0.023,0.929,0.023c1.481,0,2.936-0.104,4.367-0.286c0.333-0.042,0.667-0.082,0.996-0.134
		c0.333-0.052,0.662-0.115,0.991-0.177c15.911-2.981,27.955-16.936,27.955-33.713c0-18.949-15.361-34.31-34.31-34.31
		C102.319,19.788,102.076,19.801,101.831,19.806z"/>
	<path d="M65.483,87.974c0.633,0.806,1.318,1.566,2.056,2.274c0.325,0.312,0.656,0.618,1,0.909c0.323,0.273,0.661,0.525,1,0.779
		c2.086,1.566,4.457,2.764,7.029,3.496c0.33,0.094,0.664,0.179,1,0.258c0.331,0.077,0.663,0.148,1,0.21
		c1.263,0.231,2.559,0.369,3.888,0.369c5.888,0,11.228-2.375,15.126-6.211c0.172-0.169,0.332-0.349,0.498-0.523
		c0.117-0.123,0.229-0.251,0.343-0.377c0.202-0.222,0.413-0.436,0.606-0.666c0.068-0.081,0.132-0.165,0.198-0.247
		c0.236-0.292,0.454-0.599,0.675-0.903c0.953-1.31,1.779-2.717,2.421-4.225c0.164-0.384,0.295-0.784,0.437-1.18
		c0.128-0.357,0.26-0.712,0.37-1.078c0.586-1.958,0.911-4.029,0.911-6.175c0-10.689-7.818-19.564-18.032-21.267
		c-1.159-0.193-2.341-0.318-3.554-0.318c-1.329,0-2.625,0.138-3.888,0.369c-0.337,0.062-0.669,0.133-1,0.21
		c-0.336,0.078-0.67,0.164-1,0.258c-1.165,0.331-2.285,0.761-3.36,1.274c-1.301,0.62-2.527,1.364-3.669,2.221
		c-0.338,0.254-0.677,0.506-1,0.779c-0.01,0.008-0.018,0.017-0.028,0.025c-0.069,0.059-0.133,0.124-0.201,0.183
		c-0.238,0.207-0.472,0.419-0.701,0.637c-0.023,0.022-0.047,0.042-0.07,0.064c-0.003,0.003-0.007,0.006-0.01,0.009
		c-0.265,0.255-0.52,0.519-0.772,0.787c-0.009,0.009-0.017,0.019-0.026,0.028c-0.18,0.192-0.358,0.385-0.53,0.583
		c-3.286,3.769-5.298,8.673-5.325,14.048c0,0.037-0.005,0.072-0.005,0.109c0,4.241,1.247,8.188,3.368,11.528
		c0.198,0.311,0.4,0.618,0.613,0.918C65.055,87.417,65.266,87.697,65.483,87.974z"/>
</g>
</svg>
