<?xml version="1.0" encoding="iso-8859-1"?>
<!-- Generator: Adobe Illustrator 17.1.0, SVG Export Plug-In . SVG Version: 6.00 Build 0)  -->
<!DOCTYPE svg PUBLIC "-//W3C//DTD SVG 1.1//EN" "http://www.w3.org/Graphics/SVG/1.1/DTD/svg11.dtd">
<svg version="1.1" id="Capa_1" xmlns="http://www.w3.org/2000/svg" xmlns:xlink="http://www.w3.org/1999/xlink" x="0px" y="0px"
	 viewBox="0 0 150 150" style="enable-background:new 0 0 150 150;" xml:space="preserve">
<g>
	<path d="M61.549,118.5v16.382c0,6.577,5.04,11.537,11.724,11.537s11.724-4.96,11.724-11.537v-14.856
		c28.53-3.895,50.518-28.344,50.518-57.944c0-32.309-26.191-58.5-58.5-58.5s-58.5,26.191-58.5,58.5
		C18.516,89.034,36.749,111.716,61.549,118.5z M78.998,102.063v18.468v14.35c0,3.691-2.862,5.537-5.724,5.537
		s-5.724-1.846-5.724-5.537v-15.073v-15.725c-6.207-6.128-12.413-12.256-18.62-18.384c-1.778-0.789-3.123-2.456-3.095-5.005
		c0.084-7.631,0.169-15.262,0.253-22.894c0.041-3.69,2.925-5.537,5.788-5.536c2.861,0,5.701,1.845,5.66,5.536
		c-0.074,6.696-0.148,13.393-0.222,20.089c3.285,3.243,6.57,6.486,9.854,9.729V35.282c0-3.691,2.862-5.537,5.724-5.537
		s5.724,1.846,5.724,5.537v54.943c4.439-1.221,8.879-2.442,13.318-3.663c2.71-0.745,7.797-1.265,8.539-4.638
		c0.617-2.8,0.333-5.59,0.047-8.416c-0.37-3.663,2.294-5.481,5.149-5.481c2.869,0,5.931,1.836,6.299,5.481
		c0.776,7.677-0.058,17.575-8.315,21.125c-7.807,3.357-16.343,5.306-24.657,7.424C78.997,102.059,78.998,102.061,78.998,102.063z"/>
</g>
</svg>
