<?xml version="1.0" encoding="iso-8859-1"?>
<!-- Generator: Adobe Illustrator 17.1.0, SVG Export Plug-In . SVG Version: 6.00 Build 0)  -->
<!DOCTYPE svg PUBLIC "-//W3C//DTD SVG 1.1//EN" "http://www.w3.org/Graphics/SVG/1.1/DTD/svg11.dtd">
<svg version="1.1" id="Capa_1" xmlns="http://www.w3.org/2000/svg" xmlns:xlink="http://www.w3.org/1999/xlink" x="0px" y="0px"
	 viewBox="0 0 150 150" style="enable-background:new 0 0 150 150;" xml:space="preserve">
<g>
	<path d="M55.588,54.963c-3.288,1.305-6.725,2.038-10.188,2.265c-0.376-0.27-0.813-0.496-1.347-0.638
		c-2.933-0.777-4.704-3.119-6.643-5.297c-2.334-2.622-4.99-4.798-7.885-6.768c-2.876-1.957-6.217-3.268-9.509-4.333
		c-3.238-1.047-7.381-1.635-9.568-4.537c-3.063-4.066-10.015-0.087-6.908,4.038c4.885,6.485,12.304,6.803,19.163,10.129
		c2.38,1.154,4.377,2.84,6.261,4.666c-1.4-0.573-2.771-1.22-4.096-1.956c-4.514-2.507-8.547,4.403-4.038,6.908
		c7.238,4.021,15.103,5.959,23.379,5.84c4.057-0.058,8.139-0.888,12.002-2.072c3.053-0.936,11.344-6.11,14.352-2.993
		c0.117,1.087,0.252,2.181,0.401,3.284c0.898,6.649,0.843,13.203-0.228,19.737c-4.621-4.976-11.896-7.324-18.546-9.028
		c-10.616-2.72-22.461-3.663-31.38-10.661c-4.009-3.145-9.713,2.474-5.657,5.657c3.328,2.611,6.88,4.579,10.603,6.139
		c-3.603,1.684-6.878,2.765-11.387,1.887c-5.039-0.982-7.188,6.728-2.127,7.714c4.385,0.854,8.516,0.771,12.84-0.378
		c2.272-0.604,4.434-1.785,6.42-3.003c2.67-1.637,5.113-1.667,8.153-1.514c0.51,0.026,0.954-0.049,1.363-0.169
		C49.072,81.642,64.325,82.967,67,92.386c0.182,0.641,0.473,1.159,0.833,1.573l-2,52.041h19l-2-54.667
		c0-0.317-0.028-0.615-0.06-0.91c0.276-0.285,0.533-0.615,0.742-1.041c1.75-3.575,4.197-5.774,7.067-7.148
		c5.274,1.446,8.049,4.944,11.895,9.072c3.297,3.538,7.765,5.926,12.426,7.043c5.015,1.201,7.142-6.513,2.127-7.714
		c-6.054-1.45-9.242-5.502-13.199-9.923c-0.251-0.281-0.53-0.536-0.799-0.799c4.872-0.182,9.91-0.085,14.408-1.132
		c0.164,0.023,0.318,0.058,0.494,0.063c4.025,0.117,6.878,3.241,9.537,5.912c2.553,2.564,5.206,4.985,8.512,6.529
		c4.644,2.17,8.709-4.725,4.038-6.908c-5.444-2.544-8.912-7.481-13.548-10.639c0.833-0.926,1.603-1.981,2.284-3.222
		c2.483-4.525-4.426-8.561-6.908-4.038c-1.285,2.342-3.242,3.774-5.568,4.648c-0.02,0.008-0.041,0.015-0.06,0.023
		c-6.301,2.332-15.301,0.572-21.185,1.411c-0.028,0.004-0.056,0.01-0.085,0.015c4.194-2.579,8.817-4.643,12.802-6.519
		c10.41-4.901,20.608-11.637,23.921-23.295c1.413-4.973-6.306-7.081-7.714-2.127c-1.558,5.483-5.118,9.436-9.515,12.589
		c0.124-4.592-0.234-9.203,3.236-12.877c3.538-3.748-2.109-9.415-5.657-5.657c-2.817,2.983-4.64,6.355-5.277,10.429
		c-0.624,3.993,1.03,8.762-1.041,12.394c-0.184,0.322-0.307,0.641-0.398,0.955c-3.613,1.751-7.28,3.325-10.563,4.992
		c-2.736,1.389-5.431,3.067-7.927,4.997c4.131-12.647,7.875-26.198,18.984-34.022c11.487-8.09,26.603-8.133,36.887-18.476
		c3.64-3.661-2.016-9.319-5.657-5.657c-3.657,3.678-8.099,6.087-12.821,8.063c1.767-3.286,2.629-7.013,3.283-10.854
		c0.86-5.045-6.849-7.205-7.714-2.127c-0.903,5.297-1.798,10.172-6.595,13.289c-9.9,6.432-18.979,13.095-24.826,23.661
		c-2.085,3.769-3.71,7.774-5.172,11.818c-1.062,2.935-4.204,8.628-3.902,11.703c-0.239-2.428-0.578-4.803-0.796-7.144
		c-0.003-0.106-0.015-0.212-0.027-0.32c-0.408-4.63-0.28-9.139,2.197-13.7c6.557-12.072,19.989-18.776,20.276-34.003
		c0.097-5.162-7.903-5.152-8,0C92.769,19.44,86.446,25.65,80.57,32.083c-0.209-0.862-0.491-1.715-0.88-2.551
		c-1.316-2.83-3.274-5.196-4.206-8.207c-0.999-3.229-0.519-6.996-0.306-10.306c0.332-5.154-7.67-5.122-8,0
		c-0.373,5.789-0.2,11.026,2.106,16.407c1.023,2.385,2.786,4.195,3.57,6.724c0.743,2.396-0.045,5.31-0.929,7.904
		c-2.477-1.847-5.508-3.186-8.689-4.006c-11.414-2.942-23.369-4.07-28.927-16.145c-2.155-4.682-9.049-0.614-6.908,4.038
		c0.895,1.946,2.008,3.743,3.291,5.397c-0.623-0.035-1.246-0.071-1.87-0.106c-4.553-0.259-7.316-1.331-8.83-5.899
		c-2.097-6.329-1.684-12.545-6.676-17.631c-3.618-3.686-9.272,1.974-5.657,5.657c2.927,2.982,3.214,7.348,3.936,11.27
		c0.742,4.027,2.319,7.66,5.122,10.656c2.3,2.457,6.042,3.421,9.256,3.723c5.034,0.473,10.105,0.656,15.156,0.929
		c1.147,0.603,2.327,1.151,3.537,1.632c4.296,1.704,8.676,2.716,13.213,3.539c3.745,0.679,10.823,2.056,12.007,6.427
		C65.205,51.16,59.814,53.286,55.588,54.963z"/>
</g>
</svg>
