<?xml version="1.0" encoding="iso-8859-1"?>
<!-- Generator: Adobe Illustrator 17.1.0, SVG Export Plug-In . SVG Version: 6.00 Build 0)  -->
<!DOCTYPE svg PUBLIC "-//W3C//DTD SVG 1.1//EN" "http://www.w3.org/Graphics/SVG/1.1/DTD/svg11.dtd">
<svg version="1.1" id="Capa_1" xmlns="http://www.w3.org/2000/svg" xmlns:xlink="http://www.w3.org/1999/xlink" x="0px" y="0px"
	 viewBox="0 0 200 200" style="enable-background:new 0 0 200 200;" xml:space="preserve">
<g>
	<path d="M163.503,16.174c-1.548-0.292-3.132-0.271-4.686-0.023c0.405-0.223,0.761-0.414,1.083-0.583
		c0.56-0.045,1.119-0.066,1.672-0.04c1.91,0.089,3.786,0.656,5.531,1.414c1.036,0.451,2.087,1.015,3.201,1.26
		c-1.243-1.422-2.761-2.672-4.394-3.623c1.433-1.263-0.25-1.779-1.429-1.829c-0.746-0.032-1.499,0.008-2.239,0.11
		c1.076-1.304-0.874-1.267-1.712-1.174c-1.112,0.125-2.187,0.442-3.211,0.889c-1.838,0.802-3.489,2.024-4.761,3.576
		c-0.412,0.504-1.376,1.442-1.319,2.182c-0.172,0.089-0.336,0.171-0.511,0.262c-2.104,1.125-4.459,2.443-6.949,4.02
		c-2.486,1.581-5.145,3.37-7.826,5.449c-2.719,2.035-5.407,4.416-8.113,6.972c-1.322,1.309-2.692,2.621-3.973,4.054
		c-0.644,0.712-1.332,1.397-1.945,2.152c-0.622,0.749-1.246,1.502-1.874,2.257c-0.644,0.745-1.222,1.545-1.819,2.336
		c-0.593,0.795-1.187,1.593-1.783,2.392l-1.676,2.487c-0.567,0.827-1.122,1.663-1.621,2.534l-1.559,2.58
		c-0.268,0.426-0.508,0.867-0.74,1.312l-0.722,1.321c-0.479,0.884-0.956,1.766-1.432,2.645c-0.432,0.903-0.863,1.803-1.292,2.7
		c-0.897,1.782-1.628,3.618-2.33,5.444c-0.776,1.803-1.237,3.681-1.806,5.494c-0.255,0.915-0.511,1.822-0.683,2.738
		c-0.202,0.909-0.372,1.817-0.533,2.716c-0.149,0.9-0.365,1.779-0.449,2.667c-0.004,0.034-0.007,0.066-0.011,0.1
		c-0.5-1.288-1.036-2.542-1.589-3.756c-1.087-2.31-2.208-4.501-3.431-6.48c-1.105-1.855-2.257-3.537-3.368-5.073
		c0.165-0.6,0.408-1.179,0.707-1.723c0.709-1.29,1.841-2.317,3.06-3.121c2.543-1.68,6.227-3.016,7.315-6.157
		c0.226-0.652,0.275-1.411-0.039-2.044c-0.182-0.366,0.407-0.704,0.635-0.989c0.509-0.636,0.968-1.315,1.339-2.041
		c0.642-1.256,1.172-2.94,0.68-4.344c-1.633,4.4-6.903,5.618-10.076,8.528c-2.452,2.249-3.914,5.443-4.522,8.682
		c-0.031,0.164-0.091,0.914-0.12,1.836c-0.153-0.199-0.304-0.39-0.456-0.582c0.046-0.438,0.068-0.851,0.087-0.968
		c0.438-2.759,1.545-5.632,3.338-7.809c1.215-1.476,2.793-2.639,4.445-3.582c0.981-0.56,2.063-1.064,2.926-1.808
		c-1.883,0.144-3.793,0.611-5.534,1.349c-0.153-1.904-1.574-0.865-2.32,0.05c-0.472,0.578-0.891,1.206-1.253,1.859
		c-0.4-1.642-1.538-0.059-1.965,0.668c-0.566,0.965-0.956,2.016-1.211,3.104c-0.397,1.691-0.435,3.454-0.132,5.164
		c-0.202-0.239-0.405-0.478-0.6-0.704c-1.08-1.224-2.047-2.262-2.888-3.076c-1.655-1.643-2.709-2.485-2.709-2.485l-0.006-0.005
		c-0.14-0.112-0.345-0.109-0.482,0.016c-0.151,0.138-0.162,0.373-0.024,0.525c0,0,0.876,0.959,2.23,2.807
		c1.352,1.84,3.194,4.537,5.063,7.945c1.879,3.397,3.761,7.516,5.26,12.058c0.353,1.143,0.733,2.295,1.022,3.487
		c0.328,1.18,0.601,2.387,0.868,3.602c0.276,1.212,0.45,2.455,0.67,3.688c0.13,1.249,0.347,2.486,0.409,3.741
		c0.072,1.253,0.186,2.498,0.133,3.747c-0.009,0.621-0.018,1.241-0.026,1.859c-0.023,0.309-0.045,0.616-0.068,0.924
		c-0.168-0.613-0.345-1.225-0.543-1.834c-0.293-0.963-0.588-1.93-0.883-2.9c-0.342-0.953-0.685-1.91-1.029-2.868l-0.52-1.432
		c-0.162-0.481-0.333-0.959-0.534-1.427l-1.155-2.822c-0.362-0.948-0.784-1.871-1.22-2.785c-0.428-0.916-0.855-1.832-1.282-2.745
		c-0.469-0.891-0.937-1.78-1.404-2.667c-0.471-0.883-0.923-1.771-1.447-2.615c-1.012-1.708-1.997-3.407-3.119-4.992
		c-1.055-1.626-2.218-3.146-3.333-4.653c-2.3-2.963-4.61-5.744-6.999-8.189c-2.346-2.481-4.713-4.669-6.938-6.622
		c-2.229-1.952-4.386-3.6-6.306-5.031c-0.831-0.603-1.612-1.154-2.359-1.668c-0.192-0.949-1.277-2.038-1.773-2.656
		c-1.736-2.157-3.996-3.862-6.521-4.99c-1.407-0.629-2.886-1.08-4.417-1.266c-1.155-0.139-3.842-0.214-2.375,1.597
		c-1.019-0.149-2.057-0.214-3.086-0.179c-1.627,0.054-3.954,0.744-1.994,2.504c-2.263,1.292-4.373,2.997-6.104,4.942
		c1.538-0.325,2.994-1.09,4.429-1.698c2.415-1.024,5.009-1.782,7.644-1.882c2.645-0.1,5.373,0.427,7.918,1.343
		c0.446,0.355,0.971,0.785,1.563,1.286c-3.79-1.679-8.053-2.498-12.151-1.763c-5.843,1.049-11.584,5.811-17.774,3.926
		c1.128,1.713,3.419,2.538,5.333,2.884c1.106,0.2,2.235,0.264,3.357,0.237c0.503-0.012,1.366-0.375,1.616,0.13
		c0.432,0.874,1.307,1.453,2.21,1.751c4.355,1.431,8.899-1.493,12.866-2.879c1.901-0.664,3.972-1.048,5.98-0.748
		c1.116,0.167,2.22,0.49,3.227,1.002c0.223,0.113,0.874,0.655,1.484,1.125c1.423,1.427,2.939,3.02,4.512,4.789
		c1.889,2.141,3.873,4.507,5.789,7.135c1.948,2.602,3.851,5.443,5.667,8.454c0.878,1.526,1.795,3.054,2.597,4.672
		c0.405,0.805,0.854,1.591,1.24,2.415c0.389,0.82,0.781,1.644,1.174,2.472c0.411,0.817,0.747,1.674,1.102,2.522
		c0.351,0.849,0.702,1.7,1.055,2.553c0.31,0.868,0.62,1.738,0.931,2.608c0.319,0.866,0.625,1.736,0.87,2.627
		c0.509,1.775,1.077,3.525,1.407,5.334c0.188,0.897,0.395,1.785,0.566,2.677c0.04,0.268,0.08,0.534,0.121,0.802
		c-0.336-0.186-0.682-0.37-1.044-0.547c-0.305-0.149-0.616-0.3-0.93-0.454c-0.325-0.132-0.655-0.267-0.987-0.402
		c-0.649-0.291-1.366-0.475-2.051-0.698c-0.701-0.19-1.421-0.327-2.119-0.453c-0.416-0.026-0.819-0.079-1.217-0.114
		c-0.003-0.007,0-0.014-0.004-0.021c-0.43-0.815-2.148-0.974-2.945-1.145c-2.364-0.506-4.834-0.417-7.166,0.208
		c-1.3,0.348-2.55,0.857-3.69,1.574c-0.859,0.541-2.722,1.97-0.73,2.39c-0.772,0.46-1.512,0.987-2.19,1.577
		c-1.073,0.932-2.27,2.681,0.027,2.794c-0.823,2.122-1.313,4.439-1.416,6.71c0.863-1.067,1.429-2.387,2.066-3.589
		c1.073-2.023,2.414-3.965,4.144-5.483c2.008-1.762,4.551-3.02,7.152-3.788c0.135-0.025,0.266-0.048,0.409-0.074
		c0.122-0.022,0.247-0.045,0.375-0.068c0.131-0.002,0.264-0.003,0.399-0.005c0.268-0.004,0.545-0.007,0.83-0.011
		c0.367-0.034,0.749,0.024,1.137,0.085c-0.694,0.058-1.212,0.12-1.354,0.152c-3.875,0.854-7.664,2.733-10.279,5.768
		c-3.382,3.928-4.651,10.315-9.885,12.446c1.708,0.54,3.714-0.162,5.202-0.981c0.86-0.474,1.66-1.052,2.406-1.688
		c0.334-0.285,0.719-1.006,1.167-0.801c0.774,0.354,1.686,0.266,2.462-0.03c3.739-1.428,5.209-5.911,7.134-9.034
		c0.923-1.497,2.115-2.897,3.641-3.799c0.848-0.501,1.774-0.89,2.739-1.097c0.035-0.007,0.1-0.012,0.16-0.017
		c0.285,0.117,0.569,0.238,0.847,0.372c0.574,0.316,1.16,0.578,1.692,0.948c0.269,0.172,0.536,0.342,0.8,0.51
		c0.253,0.187,0.503,0.372,0.748,0.554c0.98,0.723,1.825,1.496,2.527,2.168c0.21,0.209,0.402,0.405,0.584,0.594
		c0.092,0.889,0.17,1.774,0.279,2.646c0.233,1.74,0.287,3.48,0.472,5.172c0.228,1.689,0.246,3.371,0.421,5.008
		c0.188,1.637,0.243,3.251,0.348,4.827c0.047,0.788,0.096,1.567,0.164,2.336c0.041,0.769,0.036,1.528,0.057,2.276
		c0.046,1.497,0.134,2.953,0.156,4.356c-0.015,1.399,0.007,2.752,0.027,4.046c0,0.646,0.057,12.995,0.034,13.608
		c-0.021,0.612-0.032,1.21-0.035,1.793c-0.037,1.557-0.002,2.993,0.001,4.29c-0.1,0.844-0.156,1.686-0.221,2.518
		c-0.111,1.335-0.029,2.647,0.032,3.929c0.039,1.284,0.243,2.525,0.436,3.728c0.092,0.602,0.185,1.194,0.296,1.774
		c0.12,0.578,0.269,1.141,0.4,1.696c0.009,0.032,0.016,0.063,0.025,0.096c-19.123,1.599-33.849,11.477-33.849,23.43h78.606
		c0-12.4-15.847-22.565-36.011-23.573c0.008-0.33,0.016-0.658,0.023-0.995c0.004-0.502-0.01-1.01,0.007-1.526
		c0.037-0.517,0.056-1.038,0.073-1.565c0.043-1.055,0.047-2.132,0.129-3.226c0.075-1.094,0.028-2.211,0.117-3.34
		c0.067-2.262,0.054-4.612,0.214-7.012c0.037-0.602,0.074-1.207,0.111-1.814c0.062-0.604,0.153-12.917,0.228-13.525
		c0.116-1.226,0.413-2.418,0.66-3.628c0.242-1.213,0.635-2.384,0.943-3.583c0.394-1.168,0.745-2.355,1.191-3.498
		c0.437-1.147,0.883-2.284,1.371-3.392c0.453-1.126,0.989-2.198,1.499-3.268c1.062-2.116,2.198-4.122,3.368-5.978
		c0.363-0.591,0.732-1.158,1.104-1.716c0.462-0.335,1.638-2.429,1.962-2.764c0.842-0.872,1.849-1.586,2.922-2.145
		c1.931-1.007,4.166-1.342,6.325-1.334c4.507,0.017,10.137,1.392,14.052-1.583c0.812-0.618,1.496-1.511,1.629-2.549
		c0.076-0.6,1.078-0.533,1.593-0.698c1.147-0.366,2.269-0.825,3.321-1.415c1.82-1.02,3.854-2.659,4.398-4.79
		c-5.617,4.078-13.104,1.258-19.395,2.239c-1.92,0.299-3.766,0.916-5.513,1.756c0.022-0.108,0.009-0.225-0.046-0.331
		c-0.067-0.127-0.181-0.21-0.309-0.245c0.931-0.449,1.886-0.83,2.858-1.125c2.706-0.82,5.602-0.96,8.409-0.766
		c1.668,0.115,3.411,0.381,5.085,0.173c-2.436-1.366-5.171-2.357-7.918-2.875c1.372-2.47-1.229-2.355-2.897-1.841
		c-1.055,0.324-2.085,0.753-3.066,1.261c0.854-2.35-1.845-1.334-2.967-0.788c-1.487,0.724-2.829,1.699-4.036,2.829
		c-2.165,2.027-3.861,4.547-4.866,7.341c-0.262,0.732-0.885,2.035-0.885,3.04c-0.293,0.262-0.588,0.526-0.885,0.805
		c-1.48,1.39-3.053,2.945-4.606,4.704c-0.379,0.415-0.754,0.845-1.126,1.286c0.003-0.036,0.01-0.072,0.013-0.109
		c0.088-0.965,0.202-1.94,0.24-2.93c0.047-0.438,0.101-0.891,0.176-1.365c0.121-1.005,0.251-2.092,0.391-3.253
		c0.199-2.316,0.71-4.895,1.043-7.692c0.21-1.396,0.506-2.836,0.762-4.326c0.129-0.745,0.235-1.504,0.387-2.268
		c0.179-0.759,0.344-1.531,0.509-2.312c0.346-1.56,0.626-3.172,1.075-4.782c0.456-1.607,0.709-3.298,1.25-4.944
		c0.455-1.667,0.839-3.389,1.385-5.084c0.528-1.701,0.964-3.464,1.611-5.169c0.3-0.864,0.6-1.731,0.902-2.6
		c0.335-0.856,0.705-1.702,1.057-2.56c0.665-1.736,1.538-3.38,2.367-5.052c0.403-0.843,0.863-1.654,1.335-2.459l1.391-2.428
		c0.502-0.785,1.004-1.569,1.504-2.35c0.504-0.78,0.99-1.57,1.544-2.309c0.538-0.752,1.073-1.501,1.606-2.246
		c0.53-0.749,1.117-1.448,1.664-2.173c1.087-1.459,2.272-2.809,3.417-4.162c2.342-2.656,4.738-5.125,7.13-7.349
		c2.366-2.256,4.75-4.24,6.999-6.017c2.253-1.772,4.408-3.286,6.346-4.592c0.583-0.23,1.187-0.408,1.806-0.494
		c1.458-0.205,2.958,0.087,4.332,0.581c2.868,1.03,6.144,3.18,9.311,2.171c0.657-0.21,1.295-0.625,1.614-1.255
		c0.184-0.365,0.808-0.096,1.172-0.084c0.814,0.027,1.633-0.012,2.436-0.15c1.39-0.238,3.057-0.822,3.886-2.057
		C171.865,20.463,167.733,16.973,163.503,16.174z"/>
</g>
</svg>
