<?xml version="1.0" encoding="iso-8859-1"?>
<!-- Generator: Adobe Illustrator 17.1.0, SVG Export Plug-In . SVG Version: 6.00 Build 0)  -->
<!DOCTYPE svg PUBLIC "-//W3C//DTD SVG 1.1//EN" "http://www.w3.org/Graphics/SVG/1.1/DTD/svg11.dtd">
<svg version="1.1" id="Capa_1" xmlns="http://www.w3.org/2000/svg" xmlns:xlink="http://www.w3.org/1999/xlink" x="0px" y="0px"
	 viewBox="0 0 150 150" style="enable-background:new 0 0 150 150;" xml:space="preserve">
<g>
	<path d="M90.246,42.533c-0.312-1.348-1.259-2.53-2.483-3.11c-0.944-0.638-2.117-0.815-3.297-0.492
		C67.351,43.6,54.706,62.443,48.691,73.26c-8.411,15.129-12.738,32.232-12.512,49.461c0.073,5.568,0.63,11.14,1.656,16.56
		c0.361,1.906,1.759,3.09,3.647,3.09c0.97,0,1.95-0.33,2.744-0.915h23.711c1.361,0,2.511-0.573,3.253-1.618
		c0.865-0.758,1.294-1.859,1.209-3.12c-1.95-29.012-4.377-65.118,16.934-90.508C90.225,45.148,90.548,43.843,90.246,42.533z
		 M63.85,133.144H45.22c-3.978-28.656,7.137-58.777,28.634-78.381C61.703,78.326,62.141,106.29,63.85,133.144z"/>
	<path d="M89.357,64.032c16.184,2.922,30.337,11.634,39.88,24.542c0.378,1.777,1.748,2.913,3.542,2.913c0,0,0,0,0,0
		c1.198,0,2.428-0.519,3.29-1.389c0.793-0.801,1.231-1.852,1.237-2.967c0.052-0.505-0.012-1.015-0.191-1.516
		c-2.671-15.131-10.531-28.852-22.254-38.949c3.919,0.314,7.734,1.347,11.371,3.079c0.138,0.066,0.275,0.116,0.433,0.168
		c0.601,0.44,1.316,0.672,2.083,0.672c1.458,0,2.929-0.843,3.747-2.147c0.78-1.245,0.851-2.735,0.195-4.09
		c-4.164-8.593-11.125-15.267-19.839-19.112c1.724-0.117,3.468-0.101,5.224,0.046c1.379,0.121,2.501-0.363,3.257-1.321
		c1.138-0.714,1.924-1.896,2.069-3.134c0.141-1.201-0.317-2.355-1.29-3.251c-6.306-5.8-14.346-8.995-22.638-8.995
		c-9.737,0-18.937,4.339-25.364,11.933c-6.952-3.392-14.681-5.181-22.406-5.181c-8.532,0-17.015,2.168-24.532,6.27
		c-0.893,0.486-1.53,1.208-1.849,2.094c-0.772,1.333-0.804,3.087-0.07,4.403c0.673,1.208,1.895,1.9,3.351,1.9l0.196-0.004
		c4.198-0.167,8.167,0.799,11.636,2.81C28.761,35.4,18.623,42.936,12.962,53.335c-0.652,0.641-1.053,1.439-1.17,2.331l-0.011,0.021
		c-0.047,0.091-0.095,0.183-0.136,0.275c-0.62,1.369-0.514,2.87,0.291,4.118c0.832,1.289,2.291,2.122,3.718,2.122
		c1.432,0,2.621-0.812,3.263-2.23c0.133-0.294,0.279-0.579,0.425-0.864l0.057-0.112c4.98-2.914,10.571-4.453,16.188-4.453
		c4.565,0,8.988,0.992,13.146,2.947c0.603,0.283,1.227,0.427,1.854,0.427c1.995,0,3.839-1.521,4.29-3.539
		c0.394-1.762-0.414-3.352-2.108-4.148c-5.561-2.614-11.43-3.94-17.441-3.94c-1.93,0-3.855,0.141-5.758,0.421
		c5.728-4.28,12.654-6.602,19.865-6.602l0.411,0.002c1.125,0,2.104-0.388,2.832-1.121c0.742-0.749,1.169-1.827,1.177-2.969
		c0.137-1.144-0.173-2.24-0.899-3.176c-2.726-3.514-6.226-6.333-10.236-8.265c2.957-0.64,5.975-0.963,9.005-0.963
		c7.439,0,14.795,1.968,21.272,5.692c1.827,1.05,3.964,0.582,5.237-1.048c0.454-0.293,0.849-0.672,1.178-1.129
		c4.7-6.554,11.962-10.312,19.925-10.312c2.354,0,4.661,0.329,6.895,0.981c-3.897,0.863-7.663,2.31-11.235,4.317
		c-1.656,0.932-2.392,2.633-1.918,4.441c0.495,1.889,2.158,3.266,3.971,3.3c0.372,0.118,0.718,0.183,1.079,0.201
		c7.671,0.392,14.772,3.462,20.297,8.72c-5.306-0.832-10.72-0.602-16.109,0.675c-1.758,0.416-2.886,1.706-3.016,3.45
		c-0.136,1.816,0.887,3.605,2.453,4.337c0.203,0.188,0.415,0.349,0.643,0.492c8.982,5.642,16.167,13.514,20.982,22.941
		c-9.305-7.532-20.272-12.585-31.984-14.699c-0.275-0.049-0.55-0.074-0.819-0.074c-2.556,0-4.125,2.118-4.303,4.11
		C86.086,62.051,87.328,63.666,89.357,64.032z"/>
</g>
</svg>
