<?xml version="1.0" encoding="iso-8859-1"?>
<!-- Generator: Adobe Illustrator 17.1.0, SVG Export Plug-In . SVG Version: 6.00 Build 0)  -->
<!DOCTYPE svg PUBLIC "-//W3C//DTD SVG 1.1//EN" "http://www.w3.org/Graphics/SVG/1.1/DTD/svg11.dtd">
<svg version="1.1" id="Capa_1" xmlns="http://www.w3.org/2000/svg" xmlns:xlink="http://www.w3.org/1999/xlink" x="0px" y="0px"
	 viewBox="0 0 150 150" style="enable-background:new 0 0 150 150;" xml:space="preserve">
<g>
	<path d="M37.196,58.518l-0.129,13.19c0.933-0.003,2.937-0.077,5.606-0.547l-0.126-12.899c0.18,0.158,0.371,0.321,0.568,0.485
		l-0.217-0.522l3.126,0.12c0.019,0.001,0.104,0.003,0.249,0.003c0.877,0,4.425-0.107,8.825-1.614
		c-0.235-0.67-0.426-1.35-0.542-2.031c0,0,0.107,0.026,0.299,0.058c-1.406-1.313-2.758-3.151-3.842-5.752l-1.195-2.885l3.124,0.118
		c0.017,0.001,0.078,0.002,0.178,0.002c1.298,0,5.696-0.222,10.363-2.881c-2.168-0.459-4.688-1.206-7.339-2.439
		c2.718-0.732,6.089-2.826,8.302-8.402c0,0-5.219,0.318-11.278-2.451c1.827-0.776,3.849-2.46,5.253-5.996
		c0,0-4.898,0.296-10.113-2.67c1.644-0.183,4.138-1.145,5.668-5.001c0,0-9.367,0.574-14.215-9.088
		c-4.683,9.742-14.059,9.327-14.059,9.327c1.565,3.757,4.011,4.713,5.658,4.894c-5.171,3.065-10.085,2.851-10.085,2.851
		c1.446,3.471,3.465,5.122,5.288,5.879c-6.036,2.901-11.294,2.67-11.294,2.67c2.277,5.465,5.624,7.52,8.335,8.232
		c-7.554,3.691-14.178,3.4-14.178,3.4c5.471,13.13,15.938,10.38,15.938,10.38c-0.757,4.931-5.161,9.969-5.161,9.969
		C28.145,65.24,33.998,61.364,37.196,58.518z"/>
	<path d="M139.344,44.056c0,0-6.582,0.401-14.172-3.131c2.718-0.732,6.089-2.826,8.302-8.402c0,0-5.219,0.318-11.278-2.451
		c1.827-0.776,3.849-2.46,5.253-5.996c0,0-4.898,0.296-10.113-2.67c1.644-0.183,4.138-1.145,5.668-5.001
		c0,0-9.367,0.574-14.215-9.088c-4.683,9.742-14.059,9.327-14.059,9.327c1.565,3.757,4.011,4.713,5.658,4.894
		c-5.171,3.065-10.085,2.851-10.085,2.851c1.446,3.471,3.465,5.122,5.289,5.879c-6.036,2.901-11.294,2.67-11.294,2.67
		c2.277,5.465,5.624,7.52,8.335,8.232c-2.055,1.004-4.034,1.706-5.836,2.206c4.455,2.302,8.533,2.5,9.773,2.5
		c0.205,0,0.327-0.005,0.346-0.006l3.143-0.193l-1.162,2.927c-1.237,3.117-2.87,5.168-4.54,6.528
		c-0.06,0.352-0.14,0.703-0.234,1.054c4.372,1.524,7.996,1.678,9.257,1.678c0.291,0,0.46-0.008,0.483-0.009l3.14-0.19l-0.792,1.995
		l-0.105,10.743c2.411,0.454,4.367,0.603,5.592,0.647l-0.125-12.789c3.189,2.807,9.207,6.789,17.339,6.322
		c0,0-4.489-4.963-5.329-9.88C123.583,54.703,134.096,57.276,139.344,44.056z"/>
	<path d="M122.57,91.072c0,0-0.352,0.021-1.001,0.021c-2.858,0-11.478-0.416-21.143-4.914c3.19-0.859,6.956-2.92,10.099-7.586
		c0.423-0.628,0.831-1.314,1.228-2.039c0.581-1.06,1.135-2.215,1.646-3.503c0,0-0.285,0.017-0.81,0.017
		c-0.238,0-0.537-0.005-0.87-0.016c-1.285-0.04-3.237-0.182-5.632-0.612c-2.933-0.527-6.515-1.484-10.31-3.219
		c2.74-1.164,5.757-3.641,7.935-8.722c0.092-0.214,0.184-0.424,0.273-0.647c0,0-0.212,0.013-0.604,0.013
		c-1.435,0-5.28-0.179-9.9-1.788c-1.69-0.588-3.48-1.362-5.299-2.397c0.704-0.078,1.51-0.254,2.356-0.584
		c2.239-0.872,4.766-2.858,6.501-7.23c0,0-0.165,0.01-0.469,0.01c-1.606,0-7.095-0.284-12.634-3.832
		c-3.285-2.104-6.588-5.355-9.108-10.379c-2.308,4.802-5.347,8.024-8.425,10.186c-5.912,4.153-11.97,4.392-13.283,4.392
		c-0.17,0-0.26-0.004-0.26-0.004c1.489,3.575,3.488,5.521,5.406,6.565c1.231,0.67,2.429,0.972,3.436,1.082
		c-2.006,1.189-3.983,2.054-5.829,2.695c-4.677,1.625-8.485,1.765-9.599,1.765c-0.216,0-0.331-0.005-0.331-0.005
		c0.093,0.224,0.19,0.435,0.286,0.649c2.235,4.978,5.245,7.402,7.977,8.537c-4.32,2.076-8.376,3.121-11.514,3.648
		c-2.733,0.46-4.765,0.528-5.645,0.53c-0.012,0-0.029,0-0.041,0c-0.293,0-0.448-0.007-0.448-0.007
		c0.155,0.372,0.317,0.721,0.478,1.072c0.728,1.591,1.514,2.987,2.343,4.201c3.196,4.682,6.986,6.744,10.203,7.589
		c-10.195,4.981-19.305,5.321-21.599,5.321c-0.362,0-0.554-0.008-0.554-0.008c6.024,14.458,15.926,16.593,21.249,16.593
		c2.23,0,3.656-0.375,3.656-0.375c-1.182,7.705-8.065,15.577-8.065,15.577c0.486,0.02,0.969,0.029,1.445,0.029
		c11.673,0,20.303-5.759,25.103-10.031l-0.278,28.353c0,2.03,1.997,3.676,4.46,3.676s4.46-1.646,4.46-3.676l-0.281-28.753
		c4.711,4.148,13.378,9.937,25.05,9.937c0.671,0,1.352-0.019,2.042-0.059c0,0-7.014-7.754-8.327-15.438c0,0,1.29,0.316,3.326,0.316
		C106.503,108.025,116.668,105.942,122.57,91.072z"/>
</g>
</svg>
