<?xml version="1.0" encoding="iso-8859-1"?>
<!-- Generator: Adobe Illustrator 17.1.0, SVG Export Plug-In . SVG Version: 6.00 Build 0)  -->
<!DOCTYPE svg PUBLIC "-//W3C//DTD SVG 1.1//EN" "http://www.w3.org/Graphics/SVG/1.1/DTD/svg11.dtd">
<svg version="1.1" id="Capa_1" xmlns="http://www.w3.org/2000/svg" xmlns:xlink="http://www.w3.org/1999/xlink" x="0px" y="0px"
	 viewBox="0 0 150 150" style="enable-background:new 0 0 150 150;" xml:space="preserve">
<g>
	<path d="M20.89,108.716c-0.575,0.943-0.145,1.708,0.959,1.708h45.217v27.271c0,5.056,3.869,8.869,9,8.869s9-3.813,9-8.869v-27.271
		h43.901c1.105,0,1.534-0.765,0.959-1.708l-17.484-28.694c-0.575-0.943-0.145-1.708,0.959-1.708h5.325
		c1.105,0,1.534-0.765,0.959-1.708L76.449,5.65c-0.575-0.943-1.507-0.943-2.081,0L31.131,76.606
		c-0.575,0.943-0.145,1.708,0.959,1.708h5.325c1.105,0,1.534,0.765,0.959,1.708L20.89,108.716z M80.067,137.695
		c0,2.579-2,3.869-4,3.869s-4-1.29-4-3.869v-27.271V45.695c0-2.579,2-3.869,4-3.869s4,1.29,4,3.869v6.002v8.782v49.945V137.695z"/>
</g>
</svg>
