<?xml version="1.0" encoding="iso-8859-1"?>
<!-- Generator: Adobe Illustrator 17.1.0, SVG Export Plug-In . SVG Version: 6.00 Build 0)  -->
<!DOCTYPE svg PUBLIC "-//W3C//DTD SVG 1.1//EN" "http://www.w3.org/Graphics/SVG/1.1/DTD/svg11.dtd">
<svg version="1.1" id="Capa_1" xmlns="http://www.w3.org/2000/svg" xmlns:xlink="http://www.w3.org/1999/xlink" x="0px" y="0px"
	 viewBox="0 0 150 150" style="enable-background:new 0 0 150 150;" xml:space="preserve">
<g>
	<path d="M44.005,110.719c-1.685,10.981-11.494,22.201-11.494,22.201c13.99,0.566,25.073-4.723,32.62-10.095l-0.177,14.208l0,0.031
		v0.031c0,5.646,5.094,10.239,11.356,10.239s11.356-4.593,11.356-10.239v-0.031l0-0.031l-0.185-14.83
		c7.647,5.39,19.039,10.795,33.398,9.971c0,0-9.997-11.052-11.868-22.003c0,0,23.412,5.73,35.098-23.713
		c0,0-14.658,0.893-31.561-6.973c6.052-1.629,13.56-6.293,18.489-18.71c0,0-11.623,0.709-25.116-5.458
		c4.07-1.728,8.571-5.478,11.698-13.354c0,0-10.909,0.66-22.523-5.945c3.661-0.407,9.216-2.551,12.624-11.137
		c0,0-20.861,1.277-31.656-20.24C65.635,26.337,44.755,25.412,44.755,25.412c3.486,8.368,8.932,10.496,12.601,10.899
		c-11.516,6.826-22.46,6.35-22.46,6.35c3.221,7.731,7.716,11.406,11.778,13.093C33.232,62.214,21.522,61.7,21.522,61.7
		c5.071,12.171,12.525,16.747,18.563,18.332c-16.824,8.22-31.574,7.571-31.574,7.571C20.694,116.844,44.005,110.719,44.005,110.719z
		 M82.667,137.094c0,2.894-2.846,5.239-6.356,5.239s-6.356-2.346-6.356-5.239l0.228-18.28l0.772-61.908
		c0-2.893,1.846-9.239,5.356-9.239s5.356,6.346,5.356,9.239l0.765,61.331L82.667,137.094z"/>
</g>
</svg>
