<?xml version="1.0" encoding="iso-8859-1"?>
<!-- Generator: Adobe Illustrator 17.1.0, SVG Export Plug-In . SVG Version: 6.00 Build 0)  -->
<!DOCTYPE svg PUBLIC "-//W3C//DTD SVG 1.1//EN" "http://www.w3.org/Graphics/SVG/1.1/DTD/svg11.dtd">
<svg version="1.1" id="Capa_1" xmlns="http://www.w3.org/2000/svg" xmlns:xlink="http://www.w3.org/1999/xlink" x="0px" y="0px"
	 viewBox="0 0 200 200" style="enable-background:new 0 0 200 200;" xml:space="preserve">
<g>
	<path d="M141.79,114.999c-2.061-0.855-4.26-1.435-6.483-1.691c1.658-3.273-1.262-2.84-3.156-2.006
		c-1.198,0.527-2.373,1.183-3.496,1.933c1.071-3.064-2.002-1.482-3.286-0.668c-1.702,1.08-3.188,2.54-4.659,4.021
		c-2.039,2.054-2.776,3.926-2.838,5.469c1.545-1.575,7.758-4.768,12.15-3.25c0,0-9.412,2.273-10.979,6.609
		c1.136,1.211,2.377,0.391,3.831,0.041c1.717-0.413,3.452-0.448,5.128-0.272c4.931,0.515,10.764,2.87,15.771-0.46
		c1.039-0.692,2.004-1.746,2.4-3.042c0.229-0.75,1.31-0.556,1.913-0.707c1.345-0.336,2.685-0.794,3.979-1.424
		c2.24-1.09,4.863-2.937,5.975-5.572C152.727,117.358,147.206,115.794,141.79,114.999z"/>
	<path d="M37.487,120.133c2.076,1.011,4.224,1.744,6.38,2.284c0.967,0.242,2.7-0.069,3.067,1.134
		c0.635,2.079,2.182,3.769,3.848,4.878c8.028,5.339,17.381,1.563,25.289,0.737c2.687-0.281,5.469-0.226,8.222,0.436
		c2.331,0.561,4.321,1.876,6.143-0.066c-2.512-6.952-17.604-10.597-17.604-10.597c7.043-2.434,17.005,2.686,19.483,5.211
		c-0.099-2.474-1.28-5.476-4.55-8.769c-2.359-2.376-4.743-4.716-7.471-6.448c-2.059-1.304-6.986-3.842-5.268,1.071
		c-1.801-1.203-3.685-2.255-5.606-3.099c-3.037-1.338-7.72-2.032-5.061,3.217c-3.563,0.41-7.09,1.341-10.395,2.712
		c-8.683,1.274-17.537,3.782-26.055-1.633C29.689,115.423,33.895,118.385,37.487,120.133z"/>
	<path d="M167.854,57.101c-1.966-1.055-4.097-1.851-6.283-2.325c1.974-3.093-0.974-2.951-2.942-2.309
		c-1.245,0.406-2.479,0.942-3.671,1.577c1.37-2.943-1.845-1.673-3.203-0.99c-1.8,0.906-3.424,2.211-5.035,3.539
		c-2.233,1.842-3.151,3.632-3.366,5.161c1.694-1.414,8.192-3.975,12.413-2.029c0,0-9.592,1.329-11.58,5.488
		c1.01,1.318,2.327,0.625,3.808,0.421c1.749-0.241,3.479-0.103,5.129,0.238c4.856,1.002,10.427,3.923,15.739,1.106
		c1.102-0.585,2.167-1.539,2.69-2.789c0.302-0.724,1.358-0.423,1.973-0.514c1.372-0.201,2.75-0.524,4.101-1.023
		c2.337-0.863,5.13-2.441,6.498-4.952C178.503,60.532,173.164,58.429,167.854,57.101z"/>
	<path d="M139.624,35.27c0,0-7.705,1.538-9.115,5.003c0.882,1.019,1.915,0.394,3.104,0.157c1.405-0.279,2.813-0.251,4.166-0.055
		c3.981,0.578,8.634,2.676,12.801,0.138c0.865-0.527,1.681-1.351,2.044-2.389c0.21-0.601,1.08-0.408,1.574-0.511
		c1.101-0.229,2.202-0.557,3.272-1.026c1.851-0.811,4.038-2.224,5.025-4.324c-4.416,2.566-8.843,1.119-13.207,0.3
		c-1.643-0.76-3.408-1.302-5.201-1.581c1.45-2.6-0.931-2.344-2.494-1.729c-0.988,0.388-1.962,0.882-2.897,1.454
		c0.968-2.45-1.575-1.266-2.642-0.648c-1.415,0.82-2.667,1.956-3.908,3.109c-1.72,1.599-2.378,3.093-2.478,4.342
		C130.972,36.285,136.112,33.897,139.624,35.27z"/>
	<path d="M73.74,66.154c-3.057-0.042-6.24,0.331-8.87-2.003c0.38,1.551,1.662,2.803,2.801,3.603
		c0.658,0.462,1.356,0.834,2.068,1.138c0.319,0.137,0.932,0.125,0.992,0.56c0.104,0.75,0.542,1.417,1.053,1.891
		c2.466,2.28,5.891,1.499,8.656,1.652c0.94,0.052,1.894,0.225,2.803,0.605c0.771,0.322,1.382,0.884,2.116,0.317
		c-0.479-2.53-5.468-4.618-5.468-4.618c2.557-0.448,5.7,1.864,6.412,2.87c0.103-0.856-0.137-1.954-1.08-3.268
		c-0.68-0.948-1.37-1.884-2.213-2.631c-0.636-0.562-2.19-1.708-1.871,0.077c-0.553-0.513-1.143-0.979-1.757-1.376
		c-0.971-0.628-2.542-1.126-1.919,0.826C76.217,65.74,74.952,65.865,73.74,66.154z"/>
	<path d="M38.32,74.544c0.857,2.156,2.953,3.7,4.751,4.623c1.039,0.534,2.118,0.928,3.203,1.224
		c0.487,0.133,1.367-0.006,1.539,0.607c0.299,1.058,1.063,1.93,1.894,2.509c4.004,2.788,8.777,0.978,12.786,0.645
		c1.362-0.113,2.77-0.056,4.155,0.309c1.173,0.309,2.166,0.996,3.108,0.033c-1.196-3.544-8.792-5.551-8.792-5.551
		c3.589-1.156,8.574,1.541,9.801,2.846c-0.023-1.253-0.589-2.784-2.208-4.485c-1.168-1.227-2.349-2.437-3.711-3.342
		c-1.028-0.682-3.493-2.019-2.677,0.485c-0.898-0.628-1.84-1.18-2.803-1.628c-1.522-0.709-3.884-1.111-2.595,1.573
		c-1.807,0.169-3.601,0.602-5.288,1.26C47.078,76.202,42.571,77.376,38.32,74.544z"/>
	<path d="M40.758,22.85c0.898,0.138,1.791,0.163,2.665,0.115c0.392-0.022,1.007-0.341,1.285,0.069
		c0.481,0.707,1.26,1.163,2.015,1.385c3.641,1.071,6.716-1.439,9.593-2.672c0.977-0.419,2.03-0.723,3.142-0.795
		c0.941-0.061,1.843,0.202,2.302-0.741c-1.755-2.321-7.854-1.931-7.854-1.931c2.364-1.736,6.706-0.973,7.932-0.313
		c-0.326-0.918-1.12-1.909-2.733-2.766c-1.164-0.618-2.333-1.22-3.561-1.553c-0.926-0.25-3.074-0.63-1.856,1.017
		c-0.817-0.242-1.648-0.418-2.469-0.511c-1.298-0.149-3.139,0.136-1.527,1.799c-1.292,0.57-2.509,1.331-3.592,2.231
		c-3.116,1.492-6.152,3.467-9.985,2.424C37.277,21.989,39.204,22.612,40.758,22.85z"/>
	<path d="M60.461,18.274c-0.142-0.045-0.294,0.034-0.339,0.176c-0.042,0.132,0.023,0.272,0.146,0.327c0,0,1.143,0.517,3.046,1.639
		c0.952,0.554,2.085,1.268,3.365,2.105c1.269,0.857,2.681,1.85,4.156,3.012c1.472,1.165,3.033,2.466,4.582,3.946
		c1.566,1.459,3.134,3.078,4.667,4.819c0.749,0.887,1.525,1.773,2.236,2.729c0.358,0.475,0.743,0.934,1.089,1.425
		c0.349,0.488,0.699,0.979,1.051,1.472c0.362,0.484,0.681,1.003,1.01,1.514c0.327,0.512,0.655,1.026,0.984,1.541l0.91,1.591
		c0.309,0.527,0.609,1.059,0.873,1.612c0.542,1.096,1.113,2.174,1.548,3.312c0.23,0.562,0.472,1.116,0.691,1.678
		c0.197,0.57,0.394,1.138,0.589,1.704c0.423,1.118,0.708,2.273,1.053,3.388c0.356,1.111,0.607,2.239,0.904,3.332
		c0.353,1.079,0.518,2.187,0.816,3.24c0.294,1.055,0.476,2.111,0.702,3.134c0.108,0.512,0.216,1.018,0.332,1.515
		c0.099,0.5,0.168,0.998,0.252,1.486c0.167,0.976,0.36,1.92,0.497,2.835c0.217,1.833,0.55,3.523,0.679,5.04
		c0.091,0.761,0.176,1.473,0.254,2.132c0.049,0.311,0.084,0.607,0.114,0.894c0.024,0.649,0.098,1.287,0.155,1.92
		c0.002,0.024,0.006,0.047,0.008,0.071c-0.243-0.289-0.489-0.571-0.737-0.843c-1.017-1.153-2.046-2.173-3.015-3.085
		c-0.97-0.912-1.916-1.681-2.756-2.35c-0.85-0.66-1.604-1.212-2.251-1.634c-1.275-0.856-2.064-1.271-2.064-1.271l-0.005-0.003
		c-0.159-0.084-0.355-0.022-0.439,0.136c-0.073,0.138-0.036,0.306,0.08,0.401c0,0,0.652,0.541,1.698,1.618
		c0.523,0.533,1.136,1.203,1.823,1.977c0.678,0.784,1.415,1.689,2.178,2.699c0.76,1.013,1.552,2.128,2.304,3.356
		c0.766,1.217,1.509,2.532,2.203,3.919c0.334,0.701,0.684,1.404,0.98,2.142c0.319,0.727,0.61,1.472,0.896,2.223
		c0.292,0.749,0.521,1.527,0.778,2.292c0.201,0.786,0.458,1.554,0.616,2.348c0.161,0.793,0.355,1.574,0.43,2.378
		c0.019,0.152,0.038,1.429,0.057,2.967c-0.359-0.524-0.72-1.042-1.071-1.523c-0.88-1.204-1.759-2.25-2.545-3.164
		c-0.799-0.905-1.514-1.673-2.136-2.275c-1.224-1.215-2.004-1.838-2.004-1.838l-0.004-0.003c-0.104-0.083-0.255-0.081-0.357,0.012
		c-0.112,0.102-0.12,0.276-0.017,0.388c0,0,0.648,0.709,1.649,2.077c1,1.361,2.363,3.356,3.745,5.877
		c0.97,1.754,1.936,3.781,2.812,5.981c0.004,0.185,0.009,0.323,0.013,0.364c0.024,0.398,0.048,0.794,0.072,1.189
		c0.103,1.573,0.093,3.113,0.136,4.595c0.057,0.74,0.026,1.472,0.075,2.188c0.04,0.537,0.052,1.065,0.067,1.588l-0.508-1.241
		c-0.268-0.701-0.58-1.384-0.903-2.06c-0.317-0.678-0.633-1.355-0.948-2.031c-0.347-0.659-0.693-1.317-1.038-1.973
		c-0.348-0.653-0.682-1.31-1.071-1.935c-0.748-1.263-1.477-2.52-2.307-3.693c-0.78-1.203-1.64-2.327-2.465-3.442
		c-1.702-2.192-3.41-4.249-5.177-6.057c-1.735-1.835-3.486-3.454-5.132-4.899c-1.648-1.444-3.244-2.663-4.665-3.721
		c-1.436-1.042-2.708-1.914-3.793-2.578c-2.146-1.351-3.463-1.994-3.463-1.994l-0.007-0.003c-0.173-0.085-0.386-0.033-0.5,0.13
		c-0.125,0.18-0.081,0.427,0.099,0.552c0,0,1.159,0.807,3.039,2.442c0.942,0.809,2.05,1.834,3.295,3.026
		c1.231,1.209,2.58,2.608,3.983,4.187c1.397,1.583,2.865,3.334,4.282,5.278c1.441,1.924,2.849,4.026,4.192,6.254
		c0.649,1.128,1.328,2.259,1.921,3.456c0.3,0.596,0.632,1.177,0.917,1.786c0.288,0.607,0.578,1.216,0.868,1.828
		c0.304,0.605,0.552,1.238,0.815,1.865c0.259,0.628,0.519,1.258,0.78,1.888c0.229,0.642,0.459,1.285,0.688,1.929
		c0.236,0.641,0.462,1.284,0.643,1.944c0.377,1.313,0.797,2.607,1.041,3.946c0.139,0.664,0.292,1.32,0.419,1.98
		c0.1,0.665,0.2,1.329,0.299,1.989c0.13,0.715,0.21,1.434,0.282,2.149c-0.048-0.026-0.094-0.059-0.143-0.084
		c-0.248-0.137-0.491-0.271-0.73-0.402c-0.252-0.104-0.499-0.206-0.739-0.305c-0.476-0.197-0.918-0.378-1.358-0.467
		c-0.431-0.107-0.814-0.215-1.158-0.286c-0.351-0.04-0.657-0.075-0.908-0.103c-0.493-0.054-0.775-0.085-0.775-0.085
		s0.257,0.121,0.707,0.333c0.22,0.104,0.486,0.231,0.792,0.377c0.292,0.173,0.607,0.393,0.949,0.614
		c0.351,0.204,0.685,0.5,1.031,0.807c0.171,0.15,0.347,0.305,0.527,0.463c0.16,0.179,0.324,0.362,0.491,0.548
		c0.343,0.35,0.643,0.765,0.932,1.187c0.299,0.38,0.525,0.837,0.772,1.258c0.044,0.587,0.085,1.171,0.148,1.746
		c0.169,1.249,0.182,2.494,0.311,3.705c0.139,1.211,0.18,2.405,0.257,3.571c0.035,0.583,0.071,1.159,0.122,1.728
		c0.03,0.569,0.027,1.13,0.042,1.684c0.034,1.108,0.099,2.184,0.115,3.222c-0.011,1.035,0.006,2.036,0.02,2.993
		c0,0.478,0.042,9.613,0.025,10.066c-0.015,0.453-0.024,0.895-0.026,1.326c-0.027,1.152-0.001,2.214,0.001,3.173
		c-0.074,0.624-0.116,1.247-0.164,1.863c-0.082,0.987-0.022,1.958,0.024,2.906c0.029,0.95,0.18,1.868,0.323,2.758
		c0.068,0.445,0.137,0.883,0.219,1.312c0.024,0.114,0.053,0.221,0.079,0.333c-1.961,1.124-3.074,1.297-3.896,1.297
		c-0.343,0-0.665-0.029-0.99-0.058c-1.855-0.164-3.771-0.436-10.03,3.995c-4.466,3.161-7.189,4.571-8.832,4.571
		c-1.346,0-1.942-0.946-2.967-2.76c-0.185-0.327-0.378-0.669-0.588-1.021c-0.88-1.473-2.149-2.284-3.573-2.284
		c-2.452,0-5.24,2.526-6.08,8.151c-0.285-0.028-0.676-0.055-1.131-0.055c-2.118,0-7.045,0.633-7.045,6.493
		c0,0.276,0.224,0.5,0.5,0.5h80.702c0.232,0,0.434-0.16,0.487-0.386c0.021-0.093,2.065-9.316-6.682-12.839
		c-2.744-1.105-4.672-2.395-6.222-3.43c-1.926-1.287-3.446-2.304-5.454-2.304c-1.46,0-3.094,0.547-5.142,1.722
		c-1.153,0.662-2.112,0.984-2.932,0.984c-0.001,0-0.001,0-0.001,0c-1.333,0-2.136-0.901-2.985-1.855
		c-0.136-0.152-0.276-0.307-0.42-0.461c0.001-0.038,0.002-0.072,0.003-0.11c0.003-0.371-0.008-0.747,0.005-1.129
		c0.027-0.382,0.041-0.768,0.054-1.158c0.032-0.78,0.035-1.577,0.096-2.386c0.055-0.809,0.021-1.636,0.087-2.47
		c0.05-1.673,0.04-3.411,0.158-5.187c0.027-0.446,0.055-0.893,0.082-1.342c0.046-0.447,0.113-9.555,0.169-10.005
		c0.086-0.907,0.306-1.788,0.488-2.684c0.179-0.897,0.47-1.764,0.698-2.651c0.291-0.864,0.551-1.742,0.881-2.587
		c0.323-0.848,0.653-1.689,1.014-2.509c0.335-0.833,0.732-1.626,1.109-2.417c0.785-1.565,1.625-3.049,2.492-4.422
		c0.85-1.385,1.746-2.643,2.604-3.786c0.863-1.14,1.695-2.161,2.462-3.045c0.776-0.873,1.469-1.628,2.061-2.23
		c1.181-1.214,1.918-1.824,1.918-1.824c0.131-0.108,0.173-0.297,0.091-0.453c-0.094-0.18-0.316-0.249-0.496-0.154l-0.006,0.003
		c0,0-0.891,0.467-2.332,1.433c-0.73,0.475-1.582,1.098-2.543,1.842c-0.949,0.755-2.018,1.623-3.115,2.651
		c-1.095,1.028-2.258,2.179-3.407,3.48c-0.281,0.307-0.558,0.625-0.833,0.951c0.002-0.027,0.007-0.053,0.009-0.08
		c0.065-0.714,0.149-1.435,0.177-2.167c0.034-0.324,0.075-0.659,0.13-1.009c0.089-0.743,0.186-1.547,0.289-2.407
		c0.147-1.713,0.525-3.621,0.772-5.69c0.155-1.033,0.374-2.098,0.564-3.2c0.095-0.551,0.174-1.113,0.286-1.677
		c0.132-0.562,0.254-1.132,0.376-1.71c0.256-1.154,0.463-2.347,0.796-3.537c0.337-1.188,0.524-2.44,0.924-3.657
		c0.336-1.233,0.621-2.507,1.024-3.761c0.39-1.258,0.713-2.562,1.192-3.824c0.222-0.639,0.444-1.28,0.667-1.924
		c0.248-0.634,0.521-1.259,0.782-1.893c0.492-1.284,1.138-2.5,1.751-3.737c0.298-0.623,0.638-1.224,0.987-1.819l1.029-1.796
		c0.372-0.581,0.743-1.16,1.112-1.738c0.373-0.577,0.733-1.161,1.142-1.708c0.398-0.556,0.794-1.11,1.188-1.661
		c0.392-0.554,0.826-1.071,1.231-1.608c0.804-1.079,1.681-2.078,2.527-3.079c1.732-1.965,3.504-3.791,5.274-5.436
		c1.75-1.669,3.514-3.136,5.177-4.451c1.667-1.311,3.261-2.431,4.695-3.397c1.447-0.944,2.726-1.749,3.801-2.373
		c2.149-1.265,3.441-1.847,3.441-1.847c0.139-0.062,0.212-0.221,0.165-0.369c-0.051-0.161-0.222-0.25-0.382-0.199l-0.006,0.002
		c0,0-1.391,0.438-3.705,1.453c-1.167,0.493-2.549,1.167-4.115,1.982c-1.556,0.832-3.298,1.807-5.141,2.974
		c-1.839,1.17-3.806,2.493-5.789,4.031c-2.011,1.506-4,3.267-6.001,5.157c-0.978,0.968-1.991,1.939-2.938,2.999
		c-0.477,0.527-0.985,1.034-1.439,1.592c-0.46,0.554-0.922,1.111-1.386,1.67c-0.476,0.551-0.904,1.143-1.345,1.728
		c-0.438,0.588-0.878,1.178-1.319,1.77l-1.239,1.84c-0.419,0.612-0.83,1.23-1.199,1.875l-1.153,1.908
		c-0.198,0.315-0.376,0.641-0.547,0.971l-0.534,0.977c-0.354,0.654-0.707,1.306-1.06,1.957c-0.319,0.668-0.638,1.334-0.955,1.997
		c-0.664,1.318-1.204,2.676-1.723,4.027c-0.429,0.997-0.728,2.024-1.027,3.04c0.009-2.516,0.027-5.84,0.027-6.107
		c0.014-0.848,0.029-1.734,0.02-2.651c0.015-0.919,0.073-1.873,0.104-2.854c0.014-0.49,0.011-0.987,0.039-1.491
		c0.045-0.504,0.078-1.014,0.109-1.53c0.069-1.033,0.107-2.09,0.231-3.162c0.115-1.073,0.128-2.175,0.278-3.281
		c0.122-1.109,0.159-2.249,0.312-3.389c0.143-1.141,0.208-2.316,0.419-3.476c0.089-0.585,0.177-1.173,0.267-1.762
		c0.113-0.585,0.249-1.166,0.373-1.754c0.217-1.185,0.59-2.332,0.925-3.494c0.161-0.584,0.362-1.154,0.571-1.721
		c0.204-0.57,0.408-1.14,0.611-1.708c0.231-0.559,0.462-1.116,0.693-1.672c0.233-0.556,0.453-1.116,0.723-1.652
		c0.258-0.542,0.515-1.082,0.77-1.619c0.254-0.539,0.548-1.054,0.814-1.581c0.526-1.059,1.128-2.06,1.704-3.059
		c1.192-1.972,2.44-3.833,3.718-5.536c1.257-1.721,2.558-3.27,3.797-4.672c1.244-1.398,2.44-2.636,3.531-3.705
		c1.103-1.055,2.085-1.962,2.921-2.677c1.667-1.447,2.694-2.161,2.694-2.161c0.159-0.111,0.199-0.33,0.088-0.489
		c-0.1-0.144-0.289-0.19-0.442-0.116l-0.006,0.003c0,0-1.167,0.568-3.069,1.763c-0.962,0.587-2.089,1.359-3.362,2.28
		c-1.259,0.937-2.674,2.015-4.135,3.293c-1.459,1.279-3.011,2.711-4.549,4.335c-1.567,1.6-3.082,3.421-4.591,5.361
		c-0.732,0.987-1.494,1.982-2.187,3.047c-0.736,1.038-1.383,2.151-2.046,3.269c-0.344,0.553-0.641,1.134-0.95,1.713
		c-0.306,0.581-0.614,1.163-0.921,1.747c-0.28,0.598-0.561,1.198-0.842,1.798c-0.286,0.599-0.564,1.203-0.801,1.824l-0.758,1.848
		c-0.132,0.306-0.245,0.619-0.351,0.935l-0.342,0.938c-0.226,0.628-0.451,1.254-0.676,1.878c-0.194,0.635-0.388,1.269-0.58,1.9
		c-0.13,0.399-0.246,0.8-0.357,1.201c-0.015-0.202-0.029-0.403-0.044-0.605c-0.005-0.405-0.011-0.811-0.016-1.218
		c-0.034-0.818,0.042-1.634,0.089-2.455c0.041-0.822,0.185-1.633,0.27-2.451c0.145-0.807,0.26-1.622,0.441-2.416
		c0.176-0.796,0.355-1.586,0.571-2.359c0.19-0.781,0.439-1.535,0.672-2.284c0.985-2.975,2.22-5.673,3.453-7.897
		c1.226-2.232,2.435-3.998,3.322-5.202c0.888-1.211,1.463-1.838,1.463-1.838c0.091-0.099,0.084-0.253-0.015-0.344
		c-0.09-0.082-0.224-0.084-0.316-0.011l-0.004,0.003c0,0-0.691,0.551-1.776,1.626c-0.551,0.533-1.185,1.212-1.894,2.013
		c-0.697,0.809-1.476,1.735-2.257,2.801c-0.779,1.066-1.597,2.247-2.377,3.555c-0.803,1.296-1.538,2.73-2.252,4.243
		c-0.363,0.795-0.715,1.617-1.043,2.46c-0.002-0.022-0.005-0.044-0.007-0.066c-0.054-0.582-0.196-1.158-0.293-1.747
		c-0.105-0.589-0.216-1.184-0.348-1.78c-0.112-0.6-0.28-1.195-0.446-1.794c-0.372-1.188-0.673-2.419-1.18-3.6
		c-0.459-1.197-0.937-2.4-1.523-3.568c-0.281-0.588-0.562-1.178-0.845-1.77c-0.312-0.577-0.624-1.155-0.937-1.734l-0.472-0.866
		c-0.151-0.292-0.308-0.581-0.484-0.86l-1.02-1.691c-0.326-0.571-0.69-1.119-1.061-1.661l-1.096-1.63
		c-0.39-0.524-0.779-1.047-1.167-1.568c-0.39-0.519-0.769-1.043-1.19-1.532c-0.411-0.495-0.819-0.989-1.226-1.48
		c-0.401-0.495-0.851-0.944-1.273-1.411c-0.838-0.94-1.735-1.801-2.6-2.659c-1.771-1.676-3.531-3.237-5.312-4.573
		c-1.756-1.364-3.497-2.537-5.125-3.575c-1.631-1.035-3.173-1.9-4.551-2.638c-1.387-0.724-2.61-1.321-3.643-1.759
		c-2.049-0.901-3.281-1.29-3.281-1.29L60.461,18.274z"/>
</g>
</svg>
