<?xml version="1.0" encoding="iso-8859-1"?>
<!-- Generator: Adobe Illustrator 17.1.0, SVG Export Plug-In . SVG Version: 6.00 Build 0)  -->
<!DOCTYPE svg PUBLIC "-//W3C//DTD SVG 1.1//EN" "http://www.w3.org/Graphics/SVG/1.1/DTD/svg11.dtd">
<svg version="1.1" id="Capa_1" xmlns="http://www.w3.org/2000/svg" xmlns:xlink="http://www.w3.org/1999/xlink" x="0px" y="0px"
	 viewBox="0 0 200 200" style="enable-background:new 0 0 200 200;" xml:space="preserve">
<g>
	<path d="M35.152,193.04c0.091,0.082,0.209,0.126,0.332,0.126H171.23c0.146,0,0.284-0.063,0.379-0.174
		c0.087-0.102,2.122-2.521,0.704-5.733c-2.505-5.675-15.529-12.722-63.201-14.179c0.978-1.332,1.966-2.659,2.953-3.983
		c6.606-8.861,11.903-17.901,16.194-27.636c3.845-8.725,7.836-18.902,6.513-29.282c-1.29-10.116-6.526-19.819-11.588-29.198
		c-0.378-0.716-0.825-1.491-1.296-2.305c-2.545-4.402-5.713-9.88-2.057-13.569c0.189-0.19,0.194-0.496,0.011-0.692
		c-0.182-0.197-0.487-0.213-0.691-0.04c-4.772,4.088-2.277,9.523-0.455,13.492c0.854,1.857,1.73,3.712,2.607,5.566
		c1.667,3.527,3.392,7.173,4.917,10.776c4.17,9.857,4.396,20.296,0.683,31.872c-2.825-8.173-10.874-15.297-18.672-22.199
		c-1.41-1.248-2.817-2.493-4.191-3.742C93.961,92.983,89.868,83.255,91.526,72.4c1.443-9.456,8.042-17.837,15.027-26.71
		c1.026-1.303,2.053-2.608,3.064-3.918c3.25-4.205,6.956-10.412,6.155-16.097c-0.4-2.843-1.907-5.24-4.477-7.126
		c-0.213-0.156-0.51-0.119-0.679,0.083c-0.169,0.202-0.152,0.501,0.039,0.683c2.136,2.035,3.18,4.302,3.191,6.932
		c0.033,7.262-8.098,15.593-14.142,21.482c4.445-11.573,7.853-22.173,6.748-33.156c-0.026-0.264-0.252-0.457-0.522-0.449
		c-0.266,0.014-0.475,0.233-0.475,0.5c0,10.638-5.091,21.147-10.015,31.311c-5.228,10.792-10.621,21.925-10.031,33.375
		c-0.44-0.946-0.866-1.914-1.305-2.911c-3.343-7.6-6.8-15.459-19.375-20.066c-0.25-0.092-0.53,0.03-0.633,0.276
		c-0.103,0.247,0.006,0.531,0.249,0.645c11.688,5.508,14.166,13.243,16.79,21.432c1.293,4.037,2.63,8.211,5.179,11.993
		c3.583,5.317,9.154,10.257,14.542,15.035c7.533,6.68,15.322,13.587,17.515,21.448c3.462,12.414-5.255,24.513-13.685,36.213
		l-1.634,2.273c-1.927,2.689-3.534,4.947-5.094,7.292c-39.437,0.188-61.914,4.609-65.004,12.79
		C31.455,189.692,35,192.905,35.152,193.04z"/>
	<path d="M126.2,49.629c-4.173,3.461-5.715,9.395-4.525,14.602c1.333-2.871,3.372-5.573,5.822-7.574
		c3.681-3.007,7.972-5.249,11.085-8.926c2.168-2.561,3.366-6.083,4.032-9.336c-1.509,2.63-4.249,4.357-6.872,5.694
		C132.446,45.768,129.07,47.249,126.2,49.629z"/>
	<path d="M141.229,44.814c-2.238,5.757-8.138,8.427-12.584,12.176c-5.579,4.704-6.519,10.919-6.519,10.919
		c0.401-0.536,0.832-1.056,1.294-1.541c0.764-0.802,1.724-1.25,2.722-1.683c1.068-0.463,2.176-0.831,3.269-1.229
		c1.085-0.395,2.168-0.812,3.188-1.357c3.93-2.097,6.969-5.136,8.081-9.53C141.313,50.071,141.499,47.38,141.229,44.814z"/>
	<path d="M52.811,65.051c-3.162,0.013-6.454-0.776-9.309-2.144c2.392,4.775,7.356,8.375,12.777,8.393
		c3.729,0.012,7.276-0.992,10.887-1.791c2.875-0.636,6.087-1.046,8.924,0.025c-2.583-2.087-5.747-4.044-9.049-4.642
		C62.302,64.033,57.564,65.032,52.811,65.051z"/>
	<path d="M70.941,65.46c-1.423-2.152-3.278-4.11-5.355-5.636c-3.653-2.684-7.931-3.098-12.297-2.217
		c-1.134,0.229-2.235,0.595-3.324,0.98c-1.097,0.388-2.186,0.808-3.305,1.13c-1.045,0.301-2.071,0.565-3.171,0.432
		c-0.665-0.081-1.328-0.208-1.978-0.367c0,0,4.678,4.2,11.974,4.283C59.301,64.13,65.553,62.44,70.941,65.46z"/>
	<path d="M86.808,40.108c2.101,2.062,4.197,4.531,4.848,7.493c0.34-3.303,0.254-7.022-1.046-10.116
		c-1.867-4.441-5.288-7.867-7.897-11.84c-1.737-2.643-2.871-5.833-3.282-8.971c-2.697,4.61-3.005,10.734-0.063,15.287
		C81.392,35.092,84.168,37.517,86.808,40.108z"/>
	<path d="M92.261,41.062c1.027-2.367,1.656-4.99,1.802-7.562c0.257-4.526-1.731-8.337-4.851-11.515
		c-0.81-0.826-1.718-1.549-2.635-2.251c-0.924-0.707-1.87-1.391-2.75-2.153c-0.822-0.712-1.604-1.427-2.091-2.422
		c-0.295-0.601-0.55-1.226-0.772-1.858c0,0-0.967,6.211,2.944,12.372C87.025,30.582,91.852,34.899,92.261,41.062z"/>
	<path d="M76.727,110.882c-3.458,0.967-7.3,1.094-10.837,0.456c4.056,4.508,10.575,6.954,16.515,5.341
		c4.086-1.109,7.667-3.276,11.38-5.239c2.956-1.562,6.349-2.978,9.778-2.659c-3.456-1.508-7.509-2.697-11.304-2.358
		C86.811,106.911,81.924,109.43,76.727,110.882z"/>
	<path d="M75.009,102.588c-1.173,0.592-2.268,1.324-3.344,2.074c-1.084,0.755-2.15,1.543-3.278,2.232
		c-1.054,0.644-2.097,1.242-3.341,1.427c-0.752,0.112-1.516,0.172-2.276,0.194c0,0,6.386,3.189,14.399,1.083
		c6.386-1.678,12.722-5.411,19.529-3.727c-2.206-1.927-4.827-3.513-7.559-4.558C84.332,99.474,79.524,100.309,75.009,102.588z"/>
	<path d="M105.241,87.947c0.983,3.279,3.72,6.099,7.141,6.709c2.353,0.419,4.703,0.177,7.072,0.071
		c1.885-0.084,3.959,0.011,5.632,1.001c-1.4-1.603-3.182-3.187-5.201-3.929c-2.898-1.065-6-0.958-9.003-1.47
		C108.884,89.988,106.893,89.126,105.241,87.947z"/>
	<path d="M112.005,85.681c-0.741,0.019-1.477,0.129-2.207,0.252c-0.735,0.124-1.469,0.269-2.211,0.349
		c-0.693,0.074-1.37,0.128-2.049-0.077c-0.411-0.124-0.815-0.278-1.208-0.45c0,0,2.49,3.168,7.088,4.025
		c3.664,0.683,7.798,0.306,10.866,2.807c-0.661-1.516-1.616-2.957-2.759-4.149C117.515,86.34,114.859,85.607,112.005,85.681z"/>
	<path d="M131.864,28.346c2.019-0.742,3.8-2.326,5.201-3.929c-1.673,0.989-3.747,1.085-5.632,1.001
		c-2.369-0.106-4.719-0.348-7.072,0.071c-3.421,0.61-6.157,3.43-7.141,6.709c1.651-1.179,3.643-2.04,5.641-2.381
		C125.865,29.304,128.966,29.411,131.864,28.346z"/>
	<path d="M119.567,33.863c0.742,0.08,1.476,0.225,2.211,0.349c0.73,0.123,1.465,0.233,2.207,0.252
		c2.854,0.074,5.509-0.659,7.519-2.757c1.143-1.192,2.097-2.634,2.759-4.149c-3.068,2.501-7.202,2.124-10.866,2.807
		c-4.598,0.858-7.088,4.025-7.088,4.025c0.393-0.172,0.798-0.326,1.208-0.45C118.197,33.734,118.874,33.788,119.567,33.863z"/>
	<path d="M113.671,64.371c-1.673,0.989-3.746,1.085-5.632,1.001c-2.369-0.106-4.719-0.348-7.072,0.071
		c-3.421,0.61-6.157,3.43-7.141,6.709c1.651-1.179,3.643-2.04,5.641-2.381c3.003-0.512,6.104-0.405,9.003-1.47
		C110.489,67.558,112.271,65.974,113.671,64.371z"/>
	<path d="M92.915,74.344c0.393-0.172,0.798-0.326,1.208-0.45c0.679-0.206,1.356-0.152,2.049-0.077
		c0.742,0.08,1.476,0.225,2.211,0.349c0.73,0.123,1.465,0.233,2.207,0.252c2.854,0.074,5.509-0.659,7.519-2.757
		c1.143-1.192,2.097-2.633,2.759-4.149c-3.068,2.501-7.202,2.124-10.866,2.807C95.405,71.176,92.915,74.344,92.915,74.344z"/>
	<path d="M137.429,112.419c1.324-1.537,3.053-2.848,4.913-3.654c2.795-1.212,5.833-1.845,8.395-3.569
		c1.784-1.201,3.138-3.163,4.117-5.053c-1.39,1.359-3.381,1.945-5.232,2.311c-2.326,0.46-4.666,0.784-6.852,1.75
		C139.592,105.61,137.604,109,137.429,112.419z"/>
	<path d="M142.992,109.171c-4.262,1.926-5.927,5.595-5.927,5.595c0.341-0.26,0.697-0.506,1.067-0.724
		c0.611-0.361,1.281-0.47,1.972-0.562c0.74-0.099,1.487-0.133,2.231-0.187c0.738-0.054,1.479-0.122,2.203-0.28
		c2.79-0.607,5.194-1.95,6.648-4.466c0.826-1.43,1.411-3.057,1.693-4.686C150.493,107.019,146.388,107.635,142.992,109.171z"/>
</g>
</svg>
