<?xml version="1.0" encoding="iso-8859-1"?>
<!-- Generator: Adobe Illustrator 17.1.0, SVG Export Plug-In . SVG Version: 6.00 Build 0)  -->
<!DOCTYPE svg PUBLIC "-//W3C//DTD SVG 1.1//EN" "http://www.w3.org/Graphics/SVG/1.1/DTD/svg11.dtd">
<svg version="1.1" id="Capa_1" xmlns="http://www.w3.org/2000/svg" xmlns:xlink="http://www.w3.org/1999/xlink" x="0px" y="0px"
	 viewBox="0 0 150 150" style="enable-background:new 0 0 150 150;" xml:space="preserve">
<g>
	<path d="M67.018,130.738v7.271c0,4.477,3.506,7.984,7.982,7.984s7.982-3.507,7.982-7.984v-7.271
		c12.969-3.509,22.513-15.353,22.513-29.432c0-8.372-3.376-15.954-8.838-21.465c3.044-4.314,4.838-9.573,4.838-15.254
		c0-9.055-4.545-17.045-11.476-21.824c4.741-4.17,7.737-10.278,7.737-17.088C97.756,13.108,87.568,2.919,75,2.919
		S52.244,13.108,52.244,25.675c0,6.811,2.996,12.918,7.737,17.088c-6.93,4.779-11.476,12.769-11.476,21.824
		c0,5.681,1.794,10.94,4.838,15.254c-5.462,5.511-8.838,13.093-8.838,21.465C44.506,115.385,54.049,127.229,67.018,130.738z
		 M77.982,131.654v6.355c0,1.99-1.491,2.984-2.982,2.984s-2.982-0.995-2.982-2.984v-6.355v-21.018
		c-5.873-0.55-10.775-4.752-12.734-10.701c-0.75-2.279,1.05-3.769,2.866-3.769c1.194,0,2.395,0.643,2.884,2.128
		c1.147,3.483,3.8,5.537,6.983,6.072V90.91V74.155c-2.161-0.202-4.189-0.903-5.989-1.999c-3.091-1.883-5.507-4.942-6.744-8.702
		c-0.75-2.279,1.05-3.769,2.866-3.769c1.194,0,2.395,0.643,2.884,2.128c1.147,3.483,3.8,5.537,6.983,6.072V48.23v-9.966v-0.987
		c-5.873-0.55-10.775-4.752-12.734-10.701c-0.75-2.279,1.05-3.769,2.866-3.769c1.194,0,2.395,0.643,2.884,2.128
		c1.147,3.483,3.8,5.536,6.983,6.072V18.949c0-1.99,1.491-2.984,2.982-2.984s2.982,0.995,2.982,2.984v12.059
		c3.184-0.536,5.837-2.589,6.983-6.072c0.489-1.485,1.69-2.128,2.884-2.128c1.817,0,3.617,1.489,2.866,3.769
		c-1.959,5.95-6.861,10.152-12.734,10.701v0.987v9.966v19.655c3.184-0.536,5.837-2.59,6.983-6.072
		c0.489-1.485,1.69-2.128,2.884-2.128c1.817,0,3.617,1.489,2.866,3.769c-1.238,3.76-3.653,6.819-6.745,8.702
		c-1.8,1.097-3.828,1.797-5.989,1.999V90.91v13.456c3.184-0.536,5.837-2.59,6.983-6.072c0.489-1.485,1.69-2.128,2.884-2.128
		c1.817,0,3.617,1.489,2.866,3.769c-1.959,5.95-6.861,10.152-12.734,10.701V131.654z"/>
</g>
</svg>
