<?xml version="1.0" encoding="iso-8859-1"?>
<!-- Generator: Adobe Illustrator 17.1.0, SVG Export Plug-In . SVG Version: 6.00 Build 0)  -->
<!DOCTYPE svg PUBLIC "-//W3C//DTD SVG 1.1//EN" "http://www.w3.org/Graphics/SVG/1.1/DTD/svg11.dtd">
<svg version="1.1" id="Capa_1" xmlns="http://www.w3.org/2000/svg" xmlns:xlink="http://www.w3.org/1999/xlink" x="0px" y="0px"
	 viewBox="0 0 150 150" style="enable-background:new 0 0 150 150;" xml:space="preserve">
<g>
	<path d="M93.798,13c-0.043,0-0.085,0.006-0.129,0.007C92.951,8.471,89.035,5,84.298,5c-1.254,0-2.448,0.249-3.544,0.69
		c-1.464-0.355-2.977-0.583-4.531-0.659C74.574,3.176,72.177,2,69.5,2c-4.535,0-8.276,3.357-8.899,7.72
		c-0.824,0.606-1.605,1.264-2.345,1.966c-6.33,1.95-10.931,7.844-10.931,14.814c0,4.285,1.758,8.144,4.569,10.949
		c-0.469,1.264-0.737,2.624-0.737,4.051c0,5.373,3.637,9.886,8.58,11.241c1.588,6.766,4.907,12.865,11.084,17.74l-0.624,32.22
		c-1.322-1.536-3.294-2.28-5.225-1.149c-1.712,1.003-2.756,3.731-1.435,5.473c2.137,2.819,4.275,5.638,6.412,8.457l-0.616,29.85
		h11.333l-1.17-58.429c3.108-3.361,6.216-6.722,9.324-10.083c3.496-3.781-2.147-9.452-5.657-5.657
		c-1.297,1.402-2.594,2.805-3.89,4.207l-0.426-22.011c3.777-0.6,7.255-2.081,10.242-4.207c6.934-0.068,12.535-5.704,12.535-12.654
		c0-2.701-0.852-5.198-2.293-7.254c-0.003-0.799-0.043-1.588-0.121-2.367c1.587-1.462,2.588-3.551,2.588-5.879
		C101.798,16.582,98.216,13,93.798,13z M71.036,59.375c-1.476-2.099-2.52-4.383-3.238-6.793c1.087,0.336,2.208,0.596,3.354,0.779
		L71.036,59.375z"/>
</g>
</svg>
