<?xml version="1.0" encoding="iso-8859-1"?>
<!-- Generator: Adobe Illustrator 17.1.0, SVG Export Plug-In . SVG Version: 6.00 Build 0)  -->
<!DOCTYPE svg PUBLIC "-//W3C//DTD SVG 1.1//EN" "http://www.w3.org/Graphics/SVG/1.1/DTD/svg11.dtd">
<svg version="1.1" id="Capa_1" xmlns="http://www.w3.org/2000/svg" xmlns:xlink="http://www.w3.org/1999/xlink" x="0px" y="0px"
	 viewBox="0 0 200 200" style="enable-background:new 0 0 200 200;" xml:space="preserve">
<g>
	<path d="M195.609,45.016c-0.089-0.108-0.203-0.283-0.392-0.467c-0.176-0.199-0.414-0.413-0.696-0.652
		c-0.289-0.228-0.626-0.477-1.014-0.715c-0.774-0.481-1.74-0.943-2.807-1.343c-1.068-0.398-2.237-0.74-3.418-1.023
		c-2.363-0.571-4.772-0.904-6.585-1.093c-0.267-0.028-0.517-0.052-0.756-0.074c3.969-2.561,6.602-6.44,5.865-12.275
		c-0.039,15.987-22.883,14.709-36.476,14.144c13.516-5.51,26.926-11.346,36.089-21.968c-4.001,3.793-8.724,6.707-13.843,9.137
		c0.006-0.024,0.014-0.043,0.02-0.067c0.092-0.313,0.144-0.658,0.219-1.003c0.046-0.354,0.114-0.713,0.135-1.085
		c0.025-0.371,0.056-0.745,0.039-1.122c0.006-0.374-0.024-0.748-0.069-1.112c-0.024-0.365-0.108-0.718-0.174-1.056
		c-0.054-0.341-0.17-0.657-0.26-0.958c-0.082-0.303-0.195-0.577-0.308-0.825c-0.112-0.248-0.196-0.481-0.303-0.673
		c-0.108-0.19-0.203-0.356-0.281-0.493c-0.154-0.27-0.242-0.425-0.242-0.425s0.055,0.169,0.152,0.466
		c0.048,0.147,0.106,0.325,0.172,0.529c0.065,0.204,0.099,0.447,0.156,0.702c0.058,0.255,0.111,0.532,0.129,0.832
		c0.025,0.297,0.073,0.605,0.057,0.929c-0.004,0.323,0.008,0.651-0.041,0.985c-0.027,0.333-0.069,0.668-0.144,0.999
		c-0.052,0.332-0.149,0.656-0.237,0.973c-0.084,0.317-0.211,0.62-0.311,0.913c-0.13,0.286-0.23,0.568-0.366,0.82
		c-0.123,0.256-0.249,0.493-0.375,0.705c-0.244,0.428-0.475,0.763-0.64,0.983c-0.084,0.115-0.146,0.191-0.184,0.234
		c-0.024,0.028-0.042,0.05-0.054,0.064c-19.553,8.403-43.861,10.987-56.87,27.197c1.758-5.211,4.454-10.204,6.007-15.891
		c0.037-0.032,0.075-0.061,0.109-0.098c0.053-0.058,0.099-0.121,0.138-0.186l0.009-0.015c0,0,0.02-0.034,0.058-0.098
		c0.027-0.05,0.078-0.134,0.157-0.252c0.152-0.229,0.388-0.561,0.708-0.936c0.157-0.191,0.337-0.389,0.536-0.592
		c0.19-0.214,0.421-0.403,0.646-0.623c0.242-0.194,0.483-0.415,0.753-0.602c0.268-0.19,0.541-0.391,0.835-0.553
		c0.286-0.182,0.586-0.335,0.891-0.474c0.298-0.159,0.611-0.26,0.913-0.372c0.3-0.126,0.605-0.184,0.893-0.262
		c0.288-0.085,0.566-0.13,0.826-0.161c0.259-0.032,0.5-0.083,0.713-0.091c0.215-0.007,0.402-0.013,0.556-0.018
		c0.312-0.01,0.49-0.015,0.49-0.015s-0.175-0.03-0.482-0.084c-0.155-0.027-0.343-0.059-0.559-0.097
		c-0.217-0.036-0.464-0.035-0.735-0.057c-0.272-0.022-0.568-0.036-0.881-0.01c-0.313,0.018-0.65,0.016-0.989,0.081
		c-0.341,0.052-0.701,0.093-1.052,0.195c-0.358,0.082-0.719,0.18-1.069,0.313c-0.361,0.112-0.701,0.267-1.042,0.417
		c-0.343,0.147-0.657,0.332-0.974,0.496c-0.218,0.137-0.435,0.265-0.641,0.397c0.888-5.466,0.473-11.66-2.813-19.272
		c2.905,8.817,2.331,15.498,0.377,21.318c-0.21,0.238-0.307,0.538-0.291,0.833c-2.666,7.349-7.426,13.387-9.917,20.761
		c-0.053-0.095-0.103-0.186-0.159-0.285c-0.412-0.695-0.912-1.492-1.533-2.288c-0.155-0.198-0.312-0.4-0.472-0.604
		c-0.174-0.194-0.349-0.389-0.526-0.587c-0.338-0.405-0.755-0.758-1.138-1.13c-0.405-0.354-0.839-0.677-1.263-0.988
		c-0.464-0.262-0.878-0.577-1.347-0.768c-0.469-0.187-0.887-0.432-1.344-0.519c-0.22-0.058-0.435-0.115-0.642-0.169
		c-0.103-0.027-0.204-0.053-0.303-0.079c-0.103-0.01-0.204-0.019-0.303-0.029c-0.391-0.036-0.75-0.069-1.068-0.099
		c-0.318,0.011-0.595,0.042-0.82,0.057c-0.45,0.036-0.707,0.056-0.707,0.056s0.257,0.016,0.708,0.044
		c0.223,0.017,0.495,0.024,0.802,0.057c0.301,0.071,0.64,0.152,1.01,0.24c0.092,0.022,0.185,0.044,0.28,0.066
		c0.091,0.038,0.183,0.077,0.277,0.117c0.187,0.079,0.38,0.16,0.578,0.244c0.406,0.135,0.77,0.428,1.17,0.654
		c0.401,0.23,0.745,0.583,1.128,0.873c0.347,0.342,0.698,0.688,1.02,1.06c0.303,0.393,0.631,0.755,0.888,1.173
		c0.135,0.201,0.269,0.401,0.402,0.598c0.118,0.207,0.236,0.411,0.351,0.612c0.462,0.801,0.814,1.594,1.098,2.275
		c0.271,0.687,0.476,1.267,0.594,1.673c0.124,0.399,0.171,0.612,0.177,0.627c0.049,0.146,0.125,0.276,0.218,0.386
		c0,0.004-0.002,0.008-0.003,0.011c-2.736,12.293-0.06,28.245-1.085,41.635c-2.75-7.818-8.635-15.126-11.467-22.934
		c0.017-0.318-0.087-0.642-0.314-0.899c-2.109-6.284-2.729-13.498,0.407-23.019c-3.548,8.22-3.995,14.908-3.037,20.81
		c-0.223-0.143-0.456-0.281-0.692-0.429c-0.343-0.177-0.682-0.377-1.052-0.536c-0.368-0.162-0.736-0.329-1.125-0.45
		c-0.378-0.143-0.768-0.25-1.155-0.338c-0.379-0.11-0.768-0.154-1.136-0.21c-0.366-0.07-0.73-0.068-1.068-0.087
		c-0.337-0.028-0.657-0.013-0.951,0.011c-0.293,0.023-0.56,0.023-0.794,0.061c-0.233,0.04-0.437,0.075-0.604,0.104
		c-0.331,0.058-0.52,0.091-0.52,0.091s0.192,0.006,0.529,0.017c0.167,0.005,0.369,0.012,0.601,0.019
		c0.231,0.009,0.49,0.064,0.77,0.098c0.281,0.034,0.581,0.082,0.892,0.174c0.311,0.084,0.641,0.147,0.965,0.283
		c0.326,0.122,0.664,0.231,0.986,0.402c0.328,0.15,0.653,0.315,0.962,0.512c0.318,0.174,0.612,0.392,0.902,0.597
		c0.291,0.202,0.552,0.441,0.813,0.65c0.243,0.237,0.492,0.442,0.698,0.672c0.216,0.219,0.41,0.433,0.579,0.639
		c0.345,0.405,0.601,0.763,0.764,1.01c0.085,0.128,0.141,0.218,0.17,0.272c0.041,0.069,0.062,0.106,0.062,0.106l0.01,0.016
		c0.042,0.07,0.092,0.138,0.149,0.201c0.036,0.04,0.078,0.072,0.117,0.106c1.677,6.141,4.589,11.532,6.486,17.159
		C82.853,83.771,56.606,80.981,35.493,71.908c-0.013-0.016-0.032-0.039-0.058-0.07c-0.041-0.046-0.107-0.129-0.198-0.253
		c-0.178-0.238-0.428-0.6-0.691-1.062c-0.136-0.229-0.271-0.485-0.405-0.761c-0.147-0.272-0.256-0.576-0.396-0.885
		c-0.108-0.316-0.245-0.643-0.336-0.985c-0.095-0.342-0.2-0.692-0.256-1.051c-0.081-0.357-0.126-0.719-0.155-1.079
		c-0.052-0.361-0.04-0.716-0.044-1.064c-0.018-0.35,0.034-0.682,0.061-1.003c0.019-0.324,0.076-0.623,0.139-0.898
		c0.062-0.275,0.099-0.538,0.168-0.758c0.072-0.221,0.134-0.413,0.186-0.572c0.104-0.32,0.164-0.503,0.164-0.503
		s-0.095,0.167-0.262,0.459c-0.084,0.148-0.186,0.327-0.303,0.532c-0.116,0.207-0.206,0.458-0.327,0.726
		c-0.122,0.268-0.245,0.564-0.333,0.891c-0.096,0.324-0.222,0.666-0.281,1.034c-0.072,0.366-0.162,0.747-0.188,1.141
		c-0.048,0.394-0.08,0.797-0.074,1.201c-0.018,0.407,0.015,0.81,0.042,1.211c0.023,0.402,0.096,0.789,0.146,1.172
		c0.082,0.373,0.137,0.745,0.237,1.083c0.006,0.026,0.014,0.047,0.021,0.072c-5.527-2.624-10.627-5.771-14.947-9.866
		c9.894,11.47,24.374,17.772,38.968,23.721c-14.677,0.609-39.344,1.989-39.386-15.273c-0.796,6.301,2.047,10.489,6.332,13.255
		c-0.259,0.024-0.528,0.05-0.817,0.08c-1.957,0.205-4.558,0.564-7.11,1.18c-1.275,0.306-2.537,0.675-3.69,1.105
		c-1.153,0.432-2.195,0.931-3.031,1.451c-0.42,0.257-0.783,0.526-1.095,0.773c-0.305,0.259-0.562,0.49-0.751,0.705
		c-0.204,0.198-0.328,0.387-0.424,0.504c-0.093,0.12-0.142,0.183-0.142,0.183s0.057-0.057,0.164-0.165
		c0.109-0.104,0.251-0.274,0.476-0.444c0.209-0.186,0.488-0.381,0.812-0.595c0.332-0.202,0.712-0.417,1.146-0.616
		c1.727-0.818,4.23-1.387,6.756-1.667c2.526-0.294,5.079-0.335,6.983-0.302c0.953,0.016,1.745,0.051,2.296,0.082
		c0.544,0.036,0.854,0.057,0.854,0.057l0.041,0.003c0.048,0.003,0.096,0.003,0.145,0c0.376-0.021,0.7-0.207,0.916-0.482
		c3.967,1.691,8.517,2.558,12.482,2.959c9.437,0.96,19.058,1.535,27.755,3.465c-1.69,0.923-3.822,2.18-5.83,3.637
		c-1.063,0.769-2.089,1.59-2.992,2.427c-0.902,0.838-1.675,1.696-2.25,2.495c-0.29,0.398-0.524,0.785-0.719,1.131
		c-0.183,0.355-0.333,0.667-0.427,0.937c-0.113,0.261-0.156,0.483-0.2,0.627c-0.04,0.146-0.061,0.224-0.061,0.224
		s0.031-0.075,0.088-0.215c0.061-0.138,0.128-0.349,0.271-0.592c0.123-0.252,0.306-0.538,0.524-0.859
		c0.231-0.313,0.5-0.657,0.826-1.006c1.286-1.414,3.383-2.893,5.612-4.113c2.225-1.234,4.569-2.243,6.343-2.938
		c0.887-0.348,1.633-0.617,2.154-0.798c0.081-0.027,0.146-0.049,0.215-0.072c4.784,1.331,9.226,3.17,13.103,5.864
		c10.631,7.385,16.262,18.508,16.752,34.213c-0.253-0.217-0.53-0.448-0.838-0.697c-0.36-0.282-0.754-0.58-1.177-0.886
		c-0.438-0.289-0.875-0.62-1.372-0.905c-0.483-0.302-0.992-0.598-1.531-0.863c-0.521-0.292-1.093-0.514-1.65-0.754
		c-0.558-0.237-1.156-0.389-1.718-0.58c-0.593-0.111-1.159-0.268-1.726-0.324c-0.571-0.023-1.111-0.132-1.631-0.073
		c-0.518,0.054-1.007,0.032-1.445,0.145c-0.435,0.104-0.833,0.199-1.186,0.284c-0.343,0.11-0.625,0.259-0.865,0.354
		c-0.471,0.203-0.74,0.32-0.74,0.32s0.282-0.079,0.776-0.218c0.247-0.062,0.538-0.169,0.884-0.231
		c0.349-0.035,0.744-0.076,1.174-0.119c0.425-0.053,0.896,0.034,1.38,0.046c0.487,0.007,0.989,0.184,1.506,0.271
		c0.514,0.121,1.025,0.343,1.547,0.511c0.5,0.252,1.022,0.458,1.508,0.747c0.485,0.292,0.977,0.56,1.423,0.897
		c0.461,0.308,0.893,0.643,1.3,0.982c0.419,0.319,0.785,0.685,1.149,1.001c0.351,0.334,0.677,0.657,0.971,0.959
		c0.58,0.614,1.044,1.141,1.346,1.521c0.303,0.37,0.448,0.578,0.459,0.59l0.125,0.128l0.005,0.005
		c0.104,0.106,0.225,0.185,0.351,0.246c-0.002,0.185,0.004,0.362,0,0.549c-0.225,10.684-1.088,21.917,0.318,31.581
		c-0.354-0.16-0.711-0.323-1.099-0.515c-1.979-0.978-3.662-1.453-5.148-1.453c-2.554,0-4.088,1.396-5.571,2.747
		c-1.483,1.35-2.884,2.625-5.309,2.625c-1.452,0-3.132-0.453-5.134-1.384c-3.377-1.571-6.057-2.302-8.433-2.302
		c-3.244,0-5.756,1.361-8.935,3.083c-2.618,1.419-5.877,3.185-10.525,4.703c-14.489,4.731-11.083,17.191-11.047,17.316
		c0.062,0.214,0.258,0.361,0.48,0.361h135.605c0.276,0,0.5-0.224,0.5-0.5c0-5.506-4.19-8.664-11.497-8.664
		c-0.959,0-1.736,0.057-2.206,0.103c-1.342-7.685-5.909-11.132-9.911-11.132c-2.248,0-4.268,1.06-5.685,2.983
		c-0.354,0.479-0.678,0.945-0.987,1.39c-1.632,2.342-2.71,3.889-5.306,3.889c-2.852,0-7.501-1.938-15.077-6.285
		c-10.421-5.979-13.538-5.604-16.58-5.384c-0.091,0.006-0.182,0.012-0.272,0.018c-5.089-10.874-3.378-26.423-3.158-40.988
		c3.299-7.47,3.512-17.109,3.251-27.017c0.175-0.179,0.344-0.367,0.521-0.542c0.414-0.313,0.785-0.694,1.218-0.943
		c0.433-0.244,0.825-0.56,1.264-0.706c0.214-0.09,0.422-0.178,0.624-0.263c0.101-0.043,0.201-0.085,0.299-0.126
		c0.103-0.024,0.203-0.048,0.302-0.072c0.4-0.095,0.766-0.182,1.09-0.259c0.331-0.035,0.625-0.043,0.866-0.061
		c0.486-0.03,0.764-0.047,0.764-0.047s-0.278-0.022-0.763-0.06c-0.244-0.016-0.542-0.05-0.886-0.062
		c-0.344,0.032-0.731,0.068-1.153,0.107c-0.107,0.01-0.216,0.021-0.327,0.031c-0.108,0.028-0.217,0.057-0.328,0.086
		c-0.224,0.059-0.456,0.12-0.694,0.183c-0.493,0.094-0.944,0.359-1.45,0.561c-0.483,0.197-0.914,0.514-1.387,0.788
		c-0.104-3.471-0.247-6.961-0.32-10.391c-0.003-0.173,0.002-0.337,0-0.508c0.117-0.056,0.229-0.129,0.325-0.227l0.005-0.005
		l0.115-0.119c0.01-0.01,0.145-0.203,0.425-0.546c0.279-0.351,0.709-0.84,1.246-1.408c0.272-0.28,0.574-0.579,0.9-0.888
		c0.337-0.293,0.676-0.632,1.064-0.927c0.377-0.314,0.778-0.624,1.205-0.91c0.413-0.312,0.869-0.56,1.317-0.831
		c0.451-0.268,0.934-0.458,1.397-0.692c0.484-0.156,0.957-0.361,1.433-0.473c0.479-0.081,0.943-0.244,1.395-0.251
		c0.449-0.011,0.885-0.091,1.278-0.043c0.399,0.041,0.764,0.078,1.088,0.111c0.32,0.057,0.589,0.157,0.819,0.214
		c0.457,0.129,0.719,0.202,0.719,0.202s-0.249-0.108-0.685-0.296c-0.221-0.088-0.483-0.225-0.801-0.327
		c-0.327-0.078-0.696-0.167-1.098-0.263c-0.405-0.105-0.859-0.084-1.338-0.135c-0.482-0.055-0.982,0.047-1.511,0.067
		c-0.524,0.052-1.049,0.198-1.598,0.3c-0.52,0.177-1.074,0.318-1.591,0.537c-0.516,0.222-1.046,0.427-1.528,0.698
		c-0.499,0.245-0.97,0.519-1.418,0.799c-0.46,0.264-0.865,0.57-1.271,0.838c-0.392,0.283-0.757,0.56-1.09,0.821
		c-0.285,0.23-0.542,0.444-0.776,0.645c0.455-14.545,5.669-24.847,15.515-31.686c3.591-2.495,7.705-4.198,12.135-5.43
		c0.064,0.022,0.125,0.042,0.199,0.067c0.483,0.168,1.174,0.417,1.995,0.739c1.643,0.643,3.814,1.578,5.874,2.721
		c2.064,1.13,4.007,2.5,5.198,3.809c0.301,0.323,0.551,0.641,0.765,0.931c0.202,0.297,0.372,0.562,0.485,0.796
		c0.132,0.225,0.195,0.421,0.251,0.549c0.053,0.13,0.082,0.199,0.082,0.199s-0.02-0.072-0.057-0.207
		c-0.041-0.134-0.08-0.339-0.185-0.581c-0.086-0.25-0.225-0.539-0.395-0.868c-0.181-0.321-0.397-0.679-0.666-1.048
		c-0.533-0.74-1.249-1.535-2.084-2.311c-0.837-0.775-1.787-1.535-2.771-2.247c-1.86-1.349-3.834-2.514-5.4-3.368
		c8.055-1.787,16.965-2.32,25.704-3.209c3.198-0.323,6.805-0.975,10.11-2.171c-0.201,1.599-0.378,2.921,0.376,3.788
		c0.061,0.07,0.151,0.059,0.182-0.029c0.026-0.075,0.043-0.151,0.054-0.233c0.012-0.093,0.059-0.108,0.115-0.034
		c0.301,0.399,0.996,1.3,1.662,1.633c0.083,0.042,0.15-0.008,0.145-0.102c-0.003-0.06-0.009-0.128-0.02-0.215
		c-0.012-0.093,0.03-0.116,0.103-0.058c0.483,0.388,1.258,0.804,1.711,0.911c0.091,0.021,0.172-0.05,0.164-0.143
		c-0.002-0.033-0.007-0.067-0.012-0.103c-0.014-0.092,0.032-0.128,0.117-0.089c0.466,0.212,1.526,0.536,1.986,0.566
		c0.093,0.006,0.195-0.081,0.202-0.174c0.039-0.459-0.124-1.555-0.264-2.048c-0.026-0.09,0.016-0.13,0.105-0.103
		c0.035,0.011,0.068,0.02,0.101,0.027c0.091,0.021,0.173-0.048,0.166-0.141c-0.038-0.465-0.334-1.292-0.646-1.828
		c-0.047-0.081-0.017-0.119,0.073-0.093c0.084,0.024,0.15,0.039,0.208,0.051c0.091,0.019,0.151-0.039,0.123-0.128
		c-0.201-0.619-0.813-1.306-1.201-1.712c1.758-0.029,4.091,0.011,6.406,0.28c2.339,0.259,4.656,0.786,6.257,1.544
		c0.402,0.184,0.754,0.383,1.061,0.57c0.3,0.198,0.558,0.378,0.752,0.551c0.208,0.158,0.34,0.315,0.441,0.411
		c0.099,0.1,0.152,0.153,0.152,0.153S195.695,45.127,195.609,45.016z M177.514,42.727l-1.495-1.107
		c0.218-0.086,0.439-0.166,0.653-0.258c0.123,0.157,0.288,0.278,0.476,0.355l0.462,0.927
		C177.64,42.734,177.597,42.771,177.514,42.727z"/>
	<path d="M134.605,86.741c0.977-0.166,3.028-0.795,3.797-1.245c0.156-0.091,0.223-0.341,0.135-0.499
		c-0.436-0.778-1.886-2.359-2.644-2.996c-0.138-0.116-0.115-0.225,0.058-0.278c0.067-0.021,0.13-0.042,0.189-0.065
		c0.169-0.064,0.227-0.266,0.114-0.406c-0.564-0.704-1.937-1.71-3.017-2.229c-0.163-0.078-0.156-0.171,0.015-0.227
		c0.161-0.052,0.285-0.1,0.391-0.144c0.167-0.068,0.199-0.227,0.057-0.338c-1.136-0.887-3.29-1.348-4.237-1.542
		c-0.177-0.036-0.189-0.131-0.037-0.23c0.134-0.087,0.253-0.181,0.362-0.289c0.128-0.127,0.073-0.294-0.101-0.342
		c-2.418-0.671-4.857,1.212-7.964,3.159c-0.153,0.096-0.157,0.264-0.012,0.372l4.347,2.308c0.145,0.108,0.117,0.214-0.062,0.237
		l-4.846-0.082c-0.179,0.023-0.259,0.173-0.173,0.332c1.7,3.167,2.804,5.98,5.193,6.615c0.175,0.046,0.306-0.069,0.26-0.244
		c-0.038-0.146-0.093-0.285-0.167-0.432c-0.082-0.161-0.022-0.238,0.149-0.18c0.915,0.312,3.006,1.004,4.435,0.815
		c0.179-0.024,0.231-0.177,0.122-0.321c-0.07-0.091-0.152-0.195-0.264-0.321c-0.12-0.135-0.078-0.219,0.102-0.204
		c1.195,0.099,2.887-0.074,3.73-0.395c0.169-0.064,0.221-0.267,0.108-0.408c-0.04-0.05-0.084-0.101-0.132-0.153
		C134.391,86.877,134.427,86.771,134.605,86.741z"/>
	<path d="M156.282,63.078c0.089,0.073,0.161,0.126,0.226,0.171c0.1,0.07,0.202,0.031,0.214-0.091
		c0.091-0.973-0.434-2.372-0.669-2.984c-0.044-0.114,0.006-0.156,0.117-0.105c0.099,0.045,0.196,0.078,0.297,0.101
		c0.12,0.026,0.195-0.065,0.158-0.182c-0.501-1.626-2.469-2.33-4.717-3.392c-0.111-0.052-0.208,0.007-0.217,0.129l0.272,3.326
		c-0.008,0.122-0.079,0.145-0.158,0.052l-1.726-2.797c-0.079-0.094-0.194-0.084-0.253,0.023c-1.187,2.129-2.389,3.788-1.878,5.385
		c0.037,0.117,0.151,0.149,0.234,0.059c0.07-0.075,0.129-0.157,0.186-0.253c0.062-0.106,0.128-0.1,0.157,0.019
		c0.156,0.637,0.526,2.084,1.157,2.83c0.079,0.094,0.186,0.067,0.228-0.048c0.027-0.073,0.056-0.158,0.087-0.268
		c0.033-0.118,0.096-0.125,0.154-0.016c0.381,0.718,1.099,1.621,1.59,1.985c0.099,0.073,0.233,0.029,0.272-0.087
		c0.014-0.041,0.027-0.085,0.039-0.131c0.031-0.119,0.104-0.137,0.187-0.046c0.452,0.497,1.562,1.438,2.1,1.713
		c0.109,0.056,0.276,0.003,0.334-0.105c0.285-0.533,0.657-1.94,0.743-2.606c0.016-0.122,0.087-0.148,0.18-0.069
		c0.036,0.031,0.072,0.059,0.106,0.085c0.098,0.073,0.235,0.032,0.274-0.084c0.195-0.58,0.268-1.731,0.169-2.538
		C156.132,63.03,156.187,63,156.282,63.078z"/>
	<path d="M86.209,56.364c0.116,0.04,0.127,0.115,0.03,0.19c-0.038,0.029-0.073,0.058-0.104,0.087
		c-0.092,0.081-0.08,0.223,0.026,0.285c0.527,0.31,1.64,0.617,2.449,0.686c0.122,0.01,0.141,0.071,0.045,0.148
		c-0.09,0.072-0.156,0.132-0.213,0.186c-0.09,0.084-0.072,0.192,0.045,0.228c0.934,0.288,2.41,0.062,3.057-0.043
		c0.121-0.02,0.151,0.038,0.079,0.137c-0.064,0.087-0.117,0.175-0.159,0.27c-0.051,0.112,0.024,0.204,0.146,0.193
		c1.694-0.157,2.787-1.938,4.287-3.921c0.074-0.098,0.036-0.205-0.082-0.239l-3.312-0.416c-0.118-0.033-0.126-0.107-0.018-0.165
		l3.092-1.116c0.108-0.058,0.122-0.172,0.03-0.252c-1.84-1.598-3.218-3.115-4.885-2.942c-0.122,0.013-0.177,0.118-0.106,0.217
		c0.06,0.084,0.127,0.158,0.21,0.233c0.091,0.083,0.072,0.146-0.051,0.15c-0.655,0.023-2.147,0.088-3.007,0.552
		c-0.108,0.058-0.104,0.168,0,0.233c0.066,0.041,0.143,0.087,0.245,0.14c0.108,0.057,0.102,0.12-0.016,0.154
		c-0.781,0.225-1.812,0.743-2.269,1.149c-0.091,0.081-0.076,0.222,0.03,0.284c0.037,0.022,0.077,0.044,0.12,0.065
		c0.11,0.055,0.112,0.13,0.007,0.192c-0.58,0.34-1.728,1.234-2.107,1.704c-0.077,0.095-0.059,0.27,0.035,0.349
		C84.275,55.49,85.575,56.142,86.209,56.364z"/>
	<path d="M184.596,19.485l2.044-1.514c0.083-0.044,0.126-0.007,0.097,0.082l-1.117,2.242c-0.029,0.089,0.023,0.159,0.116,0.155
		c1.855-0.088,3.413,0.023,4.241-0.95c0.061-0.071,0.036-0.158-0.056-0.176c-0.077-0.015-0.153-0.02-0.239-0.018
		c-0.093,0.002-0.116-0.043-0.051-0.109c0.349-0.357,1.137-1.179,1.367-1.887c0.029-0.089-0.031-0.147-0.123-0.128
		c-0.058,0.012-0.125,0.027-0.208,0.051c-0.09,0.026-0.119-0.012-0.073-0.093c0.312-0.535,0.608-1.363,0.646-1.828
		c0.008-0.093-0.075-0.163-0.166-0.141c-0.032,0.008-0.066,0.017-0.101,0.027c-0.089,0.028-0.131-0.013-0.105-0.103
		c0.14-0.492,0.303-1.589,0.264-2.048c-0.008-0.093-0.109-0.18-0.202-0.174c-0.46,0.03-1.52,0.355-1.986,0.566
		c-0.085,0.039-0.131,0.003-0.117-0.089c0.005-0.036,0.01-0.07,0.012-0.103c0.008-0.093-0.073-0.165-0.164-0.143
		c-0.454,0.107-1.229,0.523-1.711,0.911c-0.073,0.058-0.115,0.035-0.103-0.058c0.011-0.087,0.017-0.155,0.02-0.215
		c0.005-0.093-0.062-0.143-0.145-0.102c-0.667,0.333-1.361,1.234-1.662,1.633c-0.056,0.074-0.103,0.059-0.115-0.034
		c-0.011-0.082-0.028-0.158-0.054-0.233c-0.031-0.088-0.121-0.1-0.182-0.029c-0.851,0.978-0.516,2.535-0.299,4.417
		C184.436,19.489,184.513,19.528,184.596,19.485z"/>
	<path d="M165.971,18.118c-0.078-0.027-0.154-0.045-0.233-0.055c-0.093-0.011-0.143,0.064-0.107,0.15
		c0.499,1.197,2.043,1.586,3.827,2.227c0.088,0.032,0.157-0.021,0.155-0.114l-0.45-2.503c-0.003-0.093,0.05-0.116,0.116-0.051
		l1.514,1.995c0.067,0.065,0.153,0.05,0.19-0.036c0.744-1.702,1.534-3.049,1.03-4.222c-0.037-0.086-0.126-0.102-0.182-0.028
		c-0.047,0.062-0.086,0.128-0.122,0.206c-0.039,0.085-0.09,0.085-0.121-0.003c-0.166-0.471-0.552-1.542-1.085-2.062
		c-0.067-0.065-0.146-0.037-0.169,0.053c-0.015,0.058-0.031,0.124-0.046,0.21c-0.017,0.092-0.064,0.102-0.115,0.024
		c-0.342-0.517-0.952-1.149-1.352-1.389c-0.08-0.048-0.179-0.005-0.2,0.086c-0.007,0.032-0.014,0.066-0.02,0.102
		c-0.015,0.092-0.069,0.111-0.138,0.049c-0.379-0.344-1.29-0.976-1.719-1.145c-0.087-0.034-0.21,0.018-0.246,0.104
		c-0.177,0.425-0.356,1.519-0.373,2.031c-0.003,0.093-0.055,0.119-0.132,0.065c-0.03-0.021-0.059-0.039-0.087-0.056
		c-0.08-0.048-0.18-0.007-0.201,0.084c-0.106,0.454-0.076,1.333,0.058,1.938c0.02,0.091-0.02,0.118-0.097,0.066
		c-0.073-0.049-0.132-0.084-0.184-0.113c-0.081-0.046-0.156-0.008-0.156,0.085c0.002,0.745,0.503,1.767,0.726,2.214
		C166.094,18.113,166.059,18.148,165.971,18.118z"/>
	<path d="M45.667,106.429c-0.022,0.179,0.114,0.268,0.28,0.198c0.106-0.045,0.227-0.098,0.377-0.175
		c0.161-0.082,0.231-0.021,0.172,0.15c-0.395,1.132-0.652,2.814-0.552,3.71c0.02,0.18,0.203,0.281,0.367,0.207
		c0.058-0.026,0.118-0.056,0.181-0.089c0.159-0.085,0.253-0.024,0.237,0.156c-0.084,0.987,0.011,3.131,0.254,3.988
		c0.049,0.174,0.274,0.302,0.449,0.256c0.862-0.227,2.756-1.234,3.563-1.809c0.147-0.105,0.247-0.055,0.255,0.126
		c0.003,0.07,0.008,0.137,0.015,0.2c0.02,0.18,0.2,0.286,0.365,0.212c0.823-0.37,2.141-1.447,2.915-2.362
		c0.116-0.138,0.205-0.109,0.216,0.072c0.01,0.169,0.026,0.301,0.042,0.415c0.024,0.179,0.17,0.25,0.313,0.14
		c1.143-0.878,2.13-2.847,2.555-3.715c0.079-0.162,0.174-0.15,0.232,0.021c0.051,0.151,0.112,0.29,0.189,0.423
		c0.091,0.156,0.266,0.145,0.356-0.012c1.256-2.172,0.044-5.006-1.062-8.502c-0.055-0.172-0.217-0.218-0.357-0.105l-3.324,3.63
		c-0.141,0.113-0.237,0.06-0.214-0.119l1.293-4.671c0.022-0.179-0.103-0.294-0.278-0.251c-3.491,0.852-6.492,1.216-7.706,3.369
		c-0.089,0.157-0.01,0.314,0.171,0.313c0.151,0,0.299-0.018,0.46-0.053c0.177-0.039,0.236,0.038,0.137,0.189
		C47.035,103.148,45.841,104.998,45.667,106.429z"/>
	<path d="M65.384,133.407c-0.107,0.213-0.002,0.539,0.209,0.65c1.043,0.548,3.789,1.256,5.088,1.416
		c0.237,0.029,0.29,0.167,0.136,0.35c-0.06,0.071-0.114,0.141-0.164,0.208c-0.141,0.193-0.06,0.458,0.167,0.532
		c1.132,0.373,3.378,0.5,4.95,0.298c0.237-0.03,0.297,0.077,0.147,0.263c-0.141,0.174-0.243,0.316-0.33,0.442
		c-0.136,0.196-0.057,0.395,0.18,0.416c1.898,0.165,4.617-0.875,5.807-1.342c0.222-0.087,0.304,0.009,0.207,0.228
		c-0.086,0.193-0.15,0.382-0.193,0.581c-0.05,0.233,0.13,0.378,0.357,0.307c3.163-0.997,4.51-4.841,6.552-9.237
		c0.101-0.217-0.016-0.406-0.255-0.421l-6.48,0.573c-0.238-0.015-0.284-0.153-0.102-0.307l5.43-3.4
		c0.182-0.155,0.162-0.378-0.047-0.493c-4.164-2.286-7.414-4.609-10.52-3.592c-0.227,0.074-0.289,0.297-0.113,0.458
		c0.148,0.135,0.308,0.249,0.496,0.358c0.207,0.12,0.196,0.248-0.035,0.307c-1.239,0.313-4.055,1.052-5.502,2.291
		c-0.181,0.155-0.128,0.363,0.096,0.443c0.143,0.051,0.309,0.107,0.524,0.166c0.23,0.064,0.244,0.186,0.034,0.299
		c-1.395,0.751-3.147,2.162-3.85,3.125c-0.141,0.193-0.053,0.455,0.174,0.53c0.08,0.026,0.165,0.051,0.256,0.075
		c0.231,0.059,0.268,0.202,0.092,0.364C67.732,130.18,65.912,132.355,65.384,133.407z"/>
	<path d="M33.289,60.616l1.69-1.846c0.072-0.058,0.12-0.031,0.109,0.061l-0.658,2.375c-0.011,0.091,0.052,0.149,0.141,0.128
		c1.775-0.433,3.301-0.618,3.918-1.713c0.045-0.08,0.005-0.159-0.087-0.159c-0.077,0-0.152,0.009-0.234,0.027
		c-0.09,0.02-0.12-0.02-0.07-0.096c0.27-0.411,0.877-1.352,0.966-2.079c0.011-0.091-0.058-0.136-0.143-0.101
		c-0.054,0.023-0.115,0.05-0.192,0.089c-0.082,0.042-0.118,0.011-0.087-0.076c0.201-0.576,0.331-1.431,0.281-1.886
		c-0.01-0.091-0.103-0.143-0.187-0.105c-0.03,0.013-0.06,0.028-0.092,0.045c-0.081,0.043-0.128,0.012-0.121-0.079
		c0.043-0.502-0.006-1.592-0.129-2.028c-0.025-0.088-0.139-0.153-0.228-0.13c-0.438,0.115-1.401,0.628-1.812,0.92
		c-0.075,0.053-0.125,0.028-0.129-0.064c-0.001-0.036-0.004-0.07-0.008-0.102c-0.01-0.091-0.102-0.145-0.186-0.108
		c-0.418,0.188-1.088,0.736-1.482,1.201c-0.059,0.07-0.104,0.055-0.11-0.036c-0.005-0.086-0.013-0.153-0.021-0.211
		c-0.012-0.091-0.086-0.127-0.159-0.071c-0.581,0.446-1.083,1.448-1.299,1.889c-0.04,0.083-0.089,0.076-0.118-0.011
		c-0.026-0.077-0.057-0.147-0.096-0.215c-0.046-0.079-0.135-0.074-0.181,0.006c-0.639,1.104-0.022,2.545,0.54,4.323
		C33.135,60.65,33.218,60.673,33.289,60.616z"/>
	<path d="M7.23,87.683l-1.319,1.512c-0.057,0.049-0.097,0.028-0.09-0.047l0.496-1.976c0.007-0.074-0.046-0.12-0.118-0.099
		c-1.46,0.415-2.715,0.642-3.179,1.571c-0.033,0.067,0.003,0.13,0.077,0.126c0.063-0.003,0.125-0.014,0.189-0.031
		c0.072-0.019,0.098,0.011,0.06,0.075c-0.203,0.345-0.658,1.135-0.701,1.729c-0.005,0.075,0.052,0.109,0.12,0.076
		c0.043-0.021,0.092-0.045,0.153-0.08c0.065-0.037,0.095-0.013,0.074,0.058c-0.14,0.476-0.211,1.177-0.152,1.545
		c0.012,0.074,0.09,0.112,0.156,0.078c0.023-0.012,0.048-0.025,0.073-0.04c0.064-0.039,0.104-0.015,0.102,0.059
		c-0.014,0.41,0.069,1.294,0.187,1.643c0.024,0.071,0.119,0.119,0.19,0.097c0.352-0.111,1.114-0.567,1.436-0.821
		c0.059-0.046,0.101-0.028,0.108,0.046c0.003,0.029,0.006,0.057,0.01,0.083c0.012,0.074,0.088,0.114,0.155,0.08
		c0.333-0.17,0.855-0.642,1.156-1.036c0.045-0.059,0.083-0.049,0.091,0.025c0.008,0.069,0.017,0.123,0.026,0.17
		c0.014,0.073,0.075,0.1,0.132,0.052c0.454-0.386,0.822-1.221,0.979-1.588c0.03-0.069,0.07-0.066,0.097,0.004
		c0.024,0.064,0.052,0.119,0.086,0.171c0.041,0.062,0.113,0.054,0.147-0.012c0.467-0.91-0.091-2.03-0.593-3.43
		C7.355,87.651,7.287,87.634,7.23,87.683z"/>
	<path d="M71.901,81.451c-0.037,0.084,0.01,0.207,0.094,0.245c0.412,0.188,1.482,0.401,1.985,0.435
		c0.092,0.006,0.115,0.058,0.06,0.131c-0.022,0.029-0.041,0.057-0.059,0.084c-0.05,0.077-0.013,0.177,0.076,0.201
		c0.443,0.119,1.308,0.12,1.907,0.008c0.09-0.017,0.116,0.023,0.062,0.098c-0.05,0.07-0.086,0.126-0.117,0.176
		c-0.048,0.078-0.014,0.153,0.078,0.156c0.732,0.022,1.754-0.435,2.201-0.64c0.083-0.038,0.117-0.002,0.085,0.083
		c-0.03,0.078-0.051,0.151-0.062,0.227c-0.014,0.091,0.058,0.143,0.144,0.11c1.176-0.444,1.59-1.924,2.287-3.613
		c0.035-0.085-0.013-0.157-0.105-0.159l-2.447,0.29c-0.092-0.003-0.111-0.055-0.043-0.117l2.08-1.391
		c0.068-0.062,0.057-0.147-0.025-0.188c-1.672-0.825-3.002-1.653-4.191-1.189c-0.085,0.033-0.104,0.12-0.033,0.178
		c0.061,0.049,0.125,0.091,0.198,0.128c0.082,0.042,0.081,0.091-0.007,0.118c-0.469,0.147-1.535,0.491-2.064,0.998
		c-0.066,0.064-0.042,0.142,0.046,0.168c0.056,0.017,0.121,0.035,0.206,0.053c0.09,0.02,0.098,0.066,0.019,0.114
		c-0.52,0.318-1.162,0.898-1.412,1.283c-0.05,0.077-0.01,0.176,0.078,0.2c0.031,0.008,0.064,0.016,0.099,0.023
		c0.09,0.018,0.108,0.072,0.044,0.138C72.734,80.161,72.082,81.035,71.901,81.451z"/>
	<path d="M128.16,36.077c0.062,0.042,0.053,0.087-0.021,0.1l-2.012,0.057c-0.074,0.013-0.104,0.077-0.066,0.141
		c0.765,1.282,1.276,2.428,2.279,2.647c0.073,0.016,0.125-0.034,0.103-0.106c-0.019-0.06-0.044-0.116-0.077-0.176
		c-0.037-0.065-0.014-0.098,0.059-0.078c0.385,0.112,1.266,0.36,1.855,0.255c0.074-0.013,0.093-0.078,0.044-0.135
		c-0.031-0.037-0.066-0.078-0.115-0.128c-0.052-0.054-0.037-0.089,0.038-0.086c0.498,0.018,1.197-0.085,1.54-0.234
		c0.069-0.03,0.087-0.115,0.037-0.171c-0.017-0.02-0.037-0.04-0.057-0.061c-0.053-0.053-0.04-0.097,0.033-0.113
		c0.402-0.087,1.241-0.387,1.552-0.588c0.063-0.041,0.086-0.146,0.047-0.209c-0.196-0.315-0.827-0.943-1.153-1.193
		c-0.06-0.046-0.052-0.091,0.019-0.117c0.028-0.01,0.053-0.02,0.078-0.03c0.069-0.03,0.089-0.114,0.04-0.171
		c-0.248-0.281-0.836-0.673-1.294-0.868c-0.069-0.029-0.068-0.068,0.002-0.094c0.066-0.025,0.116-0.047,0.16-0.067
		c0.068-0.032,0.078-0.098,0.017-0.141c-0.488-0.346-1.39-0.497-1.787-0.56c-0.074-0.012-0.081-0.051-0.02-0.095
		c0.054-0.039,0.102-0.08,0.145-0.127c0.051-0.055,0.025-0.123-0.048-0.14c-1.016-0.233-1.992,0.594-3.245,1.461
		c-0.062,0.043-0.06,0.113,0.002,0.155L128.16,36.077z"/>
</g>
</svg>
