<?xml version="1.0" encoding="iso-8859-1"?>
<!-- Generator: Adobe Illustrator 17.1.0, SVG Export Plug-In . SVG Version: 6.00 Build 0)  -->
<!DOCTYPE svg PUBLIC "-//W3C//DTD SVG 1.1//EN" "http://www.w3.org/Graphics/SVG/1.1/DTD/svg11.dtd">
<svg version="1.1" id="Capa_1" xmlns="http://www.w3.org/2000/svg" xmlns:xlink="http://www.w3.org/1999/xlink" x="0px" y="0px"
	 viewBox="0 0 200 200" style="enable-background:new 0 0 200 200;" xml:space="preserve">
<g>
	<path d="M82.539,103.51c-0.625-0.267-1.202-0.611-2.05-0.357c-0.605,0.182-1.072,0.532-1.587,0.986
		c-1.063,0.936-2.121,1.962-3.037,3.044c-0.578,0.682-1.181,1.359-1.64,2.107c-0.213,0.346-0.363,0.591-0.66,0.89
		c-0.168,0.169-0.599,0.456-0.687,0.658c0.298-0.242,0.581-0.431,0.931-0.468c0.211,0.061,0.708,0.076,0.953,0.01
		c0.31-0.002,0.667-0.134,0.954-0.068c0.328,0.075,0.708,0.052,1.056,0.082c0.878,0.076,1.86,0.036,2.8-0.127
		c0.621-0.108,1.514-0.181,2.109-0.736c0.528-0.47,1.105-1.046,1.359-1.675c0.242-0.599,0.527-1.185,0.522-1.773
		c-0.002-0.236,0.085-0.66-0.013-0.849c0.116-0.308-3.825,1.268-4.13,1.349C79.061,106.12,83.068,103.838,82.539,103.51z"/>
	<path d="M58.512,90.464c0.298-0.242,0.581-0.431,0.931-0.468c0.211,0.061,0.708,0.076,0.953,0.01
		c0.31-0.002,0.667-0.134,0.954-0.068c0.328,0.075,0.708,0.052,1.056,0.082c0.878,0.076,1.86,0.036,2.799-0.127
		c0.257-0.044,0.562-0.09,0.871-0.159c-0.511,0.508-1.004,1.034-1.461,1.574c-0.578,0.682-1.181,1.359-1.64,2.107
		c-0.213,0.346-0.363,0.591-0.66,0.89c-0.168,0.169-0.599,0.456-0.687,0.658c0.298-0.242,0.581-0.431,0.931-0.468
		c0.211,0.061,0.708,0.076,0.953,0.01c0.31-0.002,0.667-0.134,0.954-0.068c0.328,0.075,0.708,0.052,1.056,0.082
		c0.878,0.076,1.86,0.036,2.8-0.127c0.621-0.108,1.514-0.181,2.109-0.736c0.528-0.47,1.105-1.046,1.359-1.675
		c0.242-0.599,0.527-1.185,0.522-1.773c-0.002-0.236,0.085-0.66-0.013-0.849c0.116-0.308-3.825,1.268-4.13,1.349
		c-0.354-0.464,3.653-2.746,3.124-3.074c-0.625-0.267-1.202-0.611-2.05-0.357c-0.215,0.064-0.409,0.157-0.597,0.261
		c0.008-0.019,0.022-0.037,0.03-0.057c0.242-0.599,0.527-1.185,0.522-1.773c-0.002-0.236,0.084-0.66-0.014-0.849
		c0.116-0.308-3.825,1.268-4.13,1.349c-0.354-0.464,3.653-2.746,3.124-3.074c-0.625-0.267-1.202-0.611-2.05-0.357
		c-0.606,0.182-1.072,0.532-1.587,0.986c-1.063,0.936-2.121,1.962-3.037,3.044c-0.578,0.682-1.181,1.359-1.64,2.107
		c-0.213,0.346-0.363,0.591-0.66,0.89C59.031,89.975,58.6,90.262,58.512,90.464z"/>
	<path d="M71.878,125.687c-0.002-0.281,0.101-0.787-0.016-1.013c0.138-0.368-4.564,1.513-4.929,1.609
		c-0.423-0.554,4.359-3.277,3.728-3.668c-0.746-0.319-1.434-0.729-2.447-0.426c-0.723,0.217-1.28,0.635-1.894,1.176
		c-1.268,1.117-2.531,2.341-3.624,3.633c-0.689,0.814-1.409,1.622-1.957,2.514c-0.254,0.413-0.433,0.706-0.788,1.062
		c-0.201,0.201-0.715,0.544-0.82,0.785c0.355-0.289,0.693-0.515,1.11-0.558c0.251,0.073,0.844,0.09,1.137,0.013
		c0.37-0.003,0.795-0.16,1.138-0.081c0.391,0.09,0.845,0.062,1.26,0.098c1.047,0.091,2.22,0.044,3.34-0.151
		c0.741-0.128,1.807-0.216,2.516-0.878c0.63-0.561,1.319-1.248,1.621-1.999C71.543,127.088,71.884,126.389,71.878,125.687z"/>
	<path d="M79.674,131.009c0.369-0.759,0.743-1.657,0.737-2.466c-0.006-0.771,0.042-1.547-0.231-2.194
		c-0.109-0.259-0.207-0.766-0.401-0.93c-0.012-0.393-3.642,3.139-3.943,3.367c-0.602-0.351,2.78-4.691,2.048-4.812
		c-0.811-0.01-1.604-0.127-2.424,0.539c-0.585,0.476-0.941,1.075-1.303,1.81c-0.746,1.516-1.447,3.129-1.965,4.74
		c-0.327,1.016-0.684,2.037-0.851,3.071c-0.077,0.479-0.131,0.818-0.323,1.283c-0.109,0.263-0.453,0.776-0.459,1.038
		c0.219-0.403,0.445-0.74,0.814-0.94c0.26-0.029,0.815-0.239,1.056-0.422c0.341-0.144,0.674-0.451,1.021-0.509
		c0.396-0.066,0.805-0.264,1.202-0.39c1.003-0.316,2.069-0.806,3.031-1.413C78.318,132.379,79.271,131.892,79.674,131.009z"/>
	<path d="M89.119,122.098c-0.811-0.01-1.604-0.127-2.424,0.539c-0.585,0.476-0.941,1.075-1.303,1.81
		c-0.746,1.516-1.447,3.129-1.965,4.74c-0.327,1.016-0.685,2.037-0.851,3.071c-0.077,0.479-0.131,0.818-0.323,1.283
		c-0.109,0.263-0.453,0.776-0.459,1.038c0.219-0.403,0.445-0.74,0.813-0.94c0.26-0.029,0.815-0.239,1.056-0.422
		c0.341-0.144,0.674-0.451,1.021-0.509c0.396-0.066,0.805-0.264,1.202-0.39c1.003-0.316,2.069-0.806,3.031-1.413
		c0.636-0.401,1.588-0.889,1.991-1.771c0.369-0.759,0.743-1.657,0.737-2.466c-0.006-0.771,0.042-1.547-0.231-2.194
		c-0.109-0.259-0.207-0.766-0.401-0.93c-0.012-0.393-3.642,3.139-3.943,3.367C86.468,126.559,89.851,122.219,89.119,122.098z"/>
	<path d="M61.701,126.383c0.461-0.707,0.945-1.55,1.04-2.354c0.091-0.766,0.236-1.53,0.046-2.205
		c-0.076-0.271-0.109-0.786-0.281-0.973c0.037-0.391-4.007,2.657-4.334,2.846c-0.553-0.424,3.347-4.306,2.636-4.518
		c-0.803-0.112-1.575-0.328-2.473,0.231c-0.64,0.399-1.068,0.948-1.519,1.632c-0.931,1.411-1.828,2.923-2.544,4.456
		c-0.452,0.967-0.935,1.935-1.229,2.94c-0.136,0.465-0.233,0.795-0.482,1.232c-0.141,0.247-0.547,0.713-0.585,0.972
		c0.267-0.372,0.534-0.678,0.925-0.83c0.262,0.004,0.838-0.134,1.101-0.286c0.357-0.1,0.725-0.363,1.077-0.377
		c0.401-0.016,0.832-0.161,1.242-0.236c1.035-0.187,2.154-0.54,3.184-1.022C60.185,127.573,61.19,127.208,61.701,126.383z"/>
	<path d="M54.683,98.56c-0.481-0.065-0.821-0.11-1.29-0.291c-0.265-0.102-0.787-0.433-1.049-0.432
		c0.408,0.208,0.751,0.426,0.96,0.789c0.035,0.259,0.259,0.809,0.449,1.045c0.152,0.338,0.468,0.663,0.535,1.008
		c0.076,0.394,0.285,0.798,0.42,1.192c0.341,0.994,0.859,2.047,1.49,2.994c0.36,0.54,0.807,1.293,1.492,1.739
		c-0.25,0.063-0.506,0.111-0.751,0.182c-0.821,0.239-1.659,0.46-2.421,0.813c-0.353,0.164-0.602,0.28-0.997,0.361
		c-0.223,0.046-0.718,0.047-0.895,0.161c0.365-0.036,0.691-0.037,0.989,0.118c0.136,0.16,0.524,0.434,0.754,0.512
		c0.249,0.162,0.602,0.245,0.796,0.45c0.222,0.233,0.537,0.416,0.798,0.623c0.66,0.524,1.464,1.012,2.298,1.378
		c0.552,0.242,1.303,0.656,2.07,0.527c0.669-0.096,1.434-0.25,1.968-0.618c0.509-0.35,1.046-0.666,1.353-1.138
		c0.123-0.189,0.416-0.481,0.437-0.684c0.255-0.184-3.719-1.01-4.005-1.107c-0.037-0.558,4.363-0.26,4.115-0.8
		c-0.234-0.356-0.448-0.719-0.787-1.002c-0.739-0.93-3.082-3.23-3.27-3.465c0.336-0.611,4.761,2.66,4.863,1.925
		c-0.01-0.811,0.086-1.607-0.6-2.41c-0.491-0.573-1.099-0.913-1.842-1.256c-1.535-0.708-3.165-1.367-4.789-1.844
		C56.751,99.032,55.721,98.7,54.683,98.56z"/>
	<path d="M72.877,58.939c0.298-0.242,0.581-0.431,0.931-0.468c0.211,0.061,0.708,0.076,0.953,0.01
		c0.31-0.002,0.667-0.134,0.954-0.068c0.328,0.075,0.708,0.052,1.056,0.082c0.878,0.076,1.86,0.036,2.8-0.127
		c0.621-0.108,1.514-0.181,2.109-0.736c0.528-0.47,1.105-1.046,1.359-1.675c0.242-0.599,0.527-1.185,0.522-1.773
		c-0.002-0.236,0.085-0.66-0.013-0.849c0.116-0.308-3.825,1.268-4.13,1.349c-0.354-0.465,3.653-2.746,3.124-3.074
		c-0.625-0.267-1.202-0.611-2.05-0.357c-0.605,0.182-1.072,0.532-1.587,0.986c-1.063,0.936-2.121,1.962-3.037,3.044
		c-0.578,0.682-1.181,1.359-1.64,2.107c-0.213,0.346-0.363,0.591-0.66,0.89C73.396,58.451,72.965,58.738,72.877,58.939z"/>
	<path d="M89.487,28.906c-0.355,0.419-0.726,0.835-1.008,1.295c-0.131,0.213-0.223,0.363-0.406,0.547
		c-0.103,0.104-0.368,0.28-0.422,0.404c0.183-0.149,0.357-0.265,0.572-0.288c0.13,0.037,0.435,0.046,0.585,0.006
		c0.191-0.001,0.409-0.082,0.586-0.042c0.202,0.046,0.435,0.032,0.649,0.05c0.539,0.047,1.143,0.022,1.72-0.078
		c0.381-0.066,0.93-0.111,1.295-0.452c0.324-0.289,0.679-0.643,0.835-1.029c0.148-0.368,0.324-0.728,0.321-1.089
		c-0.001-0.145,0.052-0.405-0.008-0.521c0.071-0.189-2.35,0.779-2.538,0.829c-0.218-0.285,2.244-1.687,1.919-1.889
		c-0.384-0.164-0.739-0.375-1.26-0.219c-0.372,0.112-0.659,0.327-0.975,0.606C90.7,27.611,90.05,28.241,89.487,28.906z"/>
	<path d="M78.703,89.362c-0.384-0.164-0.739-0.376-1.26-0.219c-0.372,0.112-0.659,0.327-0.975,0.606
		c-0.653,0.575-1.303,1.205-1.866,1.87c-0.355,0.419-0.726,0.835-1.008,1.295c-0.131,0.213-0.223,0.363-0.406,0.547
		c-0.103,0.104-0.368,0.28-0.422,0.404c0.183-0.149,0.357-0.265,0.572-0.288c0.129,0.037,0.435,0.046,0.585,0.006
		c0.191-0.001,0.409-0.082,0.586-0.042c0.202,0.046,0.435,0.032,0.649,0.051c0.539,0.047,1.143,0.022,1.72-0.078
		c0.382-0.066,0.93-0.111,1.296-0.452c0.324-0.289,0.679-0.643,0.835-1.029c0.148-0.368,0.324-0.728,0.321-1.089
		c-0.001-0.145,0.052-0.405-0.008-0.521c0.071-0.189-2.35,0.779-2.538,0.829C76.566,90.965,79.028,89.563,78.703,89.362z"/>
	<path d="M98.485,17.623c0.155-0.363,0.354-0.697,0.207-1.189c-0.105-0.351-0.309-0.622-0.572-0.921
		c-0.543-0.616-1.138-1.23-1.766-1.762c-0.396-0.335-0.788-0.685-1.222-0.951c-0.201-0.123-0.343-0.21-0.516-0.383
		c-0.098-0.097-0.265-0.347-0.381-0.398c0.14,0.173,0.25,0.337,0.271,0.54c-0.035,0.122-0.044,0.41-0.006,0.553
		c0.001,0.18,0.078,0.386,0.039,0.553c-0.044,0.19-0.03,0.411-0.048,0.613c-0.044,0.509-0.021,1.079,0.073,1.624
		c0.062,0.36,0.105,0.878,0.427,1.223c0.273,0.306,0.607,0.641,0.972,0.788c0.348,0.14,0.688,0.306,1.029,0.303
		c0.136-0.001,0.382,0.049,0.492-0.008c0.179,0.067-0.735-2.218-0.782-2.396C96.972,15.605,98.295,17.93,98.485,17.623z"/>
	<path d="M92.692,18.335C92.296,18,91.904,17.65,91.47,17.384c-0.201-0.123-0.343-0.21-0.516-0.383
		c-0.098-0.097-0.265-0.347-0.381-0.398c0.14,0.173,0.25,0.337,0.271,0.54c-0.035,0.122-0.044,0.41-0.006,0.553
		c0.001,0.18,0.078,0.387,0.039,0.553c-0.044,0.19-0.03,0.411-0.048,0.613c-0.044,0.509-0.021,1.079,0.073,1.624
		c0.062,0.36,0.105,0.878,0.427,1.223c0.273,0.306,0.607,0.641,0.971,0.788c0.348,0.14,0.688,0.306,1.029,0.303
		c0.137-0.001,0.383,0.049,0.492-0.008c0.179,0.067-0.736-2.218-0.782-2.396c0.269-0.206,1.593,2.119,1.783,1.812
		c0.027-0.064,0.056-0.127,0.084-0.191c0.013,0.267,0.04,0.537,0.086,0.802c0.062,0.36,0.105,0.878,0.427,1.223
		c0.273,0.306,0.607,0.641,0.972,0.788c0.348,0.14,0.688,0.306,1.029,0.303c0.137-0.001,0.383,0.049,0.492-0.008
		c0.179,0.067-0.736-2.218-0.782-2.396c0.269-0.206,1.593,2.119,1.783,1.812c0.155-0.363,0.354-0.697,0.207-1.189
		c-0.105-0.351-0.309-0.622-0.572-0.921c-0.543-0.616-1.138-1.23-1.766-1.762c-0.396-0.335-0.788-0.685-1.222-0.951
		c-0.201-0.123-0.343-0.21-0.516-0.383c-0.098-0.097-0.265-0.347-0.381-0.398c0.14,0.173,0.25,0.337,0.271,0.54
		c-0.035,0.122-0.044,0.41-0.006,0.553c0.001,0.18,0.078,0.387,0.04,0.553c-0.018,0.077-0.023,0.161-0.027,0.245
		c-0.115-0.259-0.271-0.49-0.482-0.73C93.915,19.48,93.32,18.866,92.692,18.335z"/>
	<path d="M87.843,40.373c0.155-0.363,0.354-0.697,0.207-1.189c-0.105-0.351-0.309-0.622-0.572-0.921
		c-0.543-0.616-1.138-1.23-1.766-1.762c-0.396-0.335-0.788-0.685-1.222-0.951c-0.201-0.123-0.343-0.21-0.516-0.383
		c-0.098-0.097-0.265-0.347-0.381-0.398c0.14,0.173,0.25,0.337,0.271,0.54c-0.035,0.122-0.044,0.41-0.006,0.553
		c0.001,0.18,0.078,0.386,0.039,0.553c-0.044,0.19-0.03,0.411-0.048,0.613c-0.044,0.509-0.021,1.079,0.073,1.624
		c0.062,0.36,0.105,0.878,0.427,1.223c0.273,0.306,0.607,0.641,0.972,0.788c0.348,0.14,0.687,0.306,1.028,0.303
		c0.137-0.001,0.382,0.049,0.492-0.008c0.179,0.067-0.735-2.218-0.782-2.396C86.329,38.355,87.652,40.68,87.843,40.373z"/>
	<path d="M61.193,72.858c-0.387-0.037-0.661-0.063-1.042-0.194c-0.216-0.074-0.644-0.323-0.854-0.314
		c0.333,0.154,0.615,0.318,0.793,0.603c0.036,0.207,0.232,0.64,0.391,0.823c0.132,0.266,0.395,0.516,0.459,0.791
		c0.073,0.313,0.252,0.63,0.373,0.942c0.303,0.786,0.75,1.614,1.284,2.352c0.353,0.488,0.792,1.225,1.518,1.503
		c0.626,0.256,1.363,0.511,2.01,0.464c0.616-0.044,1.24-0.045,1.743-0.296c0.201-0.101,0.602-0.204,0.723-0.368
		c0.313-0.03-2.695-2.754-2.893-2.983c0.25-0.5,3.893,1.986,3.953,1.394c-0.033-0.649,0.021-1.289-0.554-1.912
		c-0.41-0.444-0.907-0.698-1.513-0.95c-1.25-0.52-2.576-0.999-3.891-1.331C62.864,73.173,62.029,72.938,61.193,72.858z"/>
	<path d="M79.455,71.892c-0.321-0.565-0.562-1.161-1.354-1.458c-0.566-0.212-1.124-0.215-1.779-0.168
		c-1.351,0.098-2.75,0.266-4.074,0.56c-0.835,0.185-1.686,0.351-2.468,0.655c-0.362,0.141-0.618,0.24-1.018,0.296
		c-0.226,0.031-0.72,0.001-0.904,0.103c0.367-0.012,0.692,0.008,0.979,0.182c0.125,0.168,0.495,0.467,0.719,0.56
		c0.237,0.178,0.585,0.284,0.765,0.5c0.206,0.247,0.509,0.45,0.757,0.674c0.624,0.566,1.395,1.104,2.204,1.524
		c0.535,0.277,1.258,0.738,2.031,0.66c0.674-0.052,1.447-0.157,2.004-0.489c0.531-0.317,1.087-0.597,1.424-1.048
		c0.135-0.181,0.446-0.453,0.481-0.654c0.267-0.168-3.646-1.248-3.925-1.364C75.297,71.865,79.668,72.447,79.455,71.892z"/>
	<path d="M82.056,41.818c-1.351,0.098-2.75,0.266-4.074,0.56c-0.835,0.185-1.686,0.351-2.468,0.655
		c-0.362,0.141-0.619,0.24-1.018,0.296c-0.226,0.031-0.72,0.001-0.904,0.103c0.367-0.012,0.692,0.008,0.979,0.182
		c0.125,0.168,0.495,0.467,0.719,0.56c0.238,0.178,0.585,0.284,0.765,0.5c0.206,0.247,0.509,0.45,0.756,0.674
		c0.624,0.566,1.395,1.104,2.205,1.524c0.535,0.277,1.258,0.738,2.031,0.66c0.674-0.052,1.447-0.157,2.004-0.489
		c0.531-0.317,1.087-0.597,1.424-1.048c0.135-0.18,0.446-0.453,0.481-0.654c0.267-0.168-3.646-1.248-3.925-1.364
		c-0.001-0.559,4.37,0.023,4.158-0.532c-0.321-0.565-0.561-1.161-1.354-1.458C83.269,41.774,82.711,41.771,82.056,41.818z"/>
	<path d="M86.709,95.417c-0.357-0.543-0.635-1.122-1.446-1.368c-0.579-0.175-1.136-0.142-1.786-0.053
		c-1.342,0.185-2.727,0.444-4.029,0.823c-0.821,0.239-1.659,0.46-2.421,0.813c-0.352,0.164-0.602,0.28-0.997,0.361
		c-0.223,0.046-0.718,0.047-0.895,0.161c0.365-0.036,0.691-0.037,0.989,0.118c0.136,0.16,0.524,0.434,0.754,0.512
		c0.249,0.162,0.602,0.245,0.796,0.45c0.222,0.233,0.537,0.416,0.799,0.623c0.66,0.524,1.464,1.012,2.298,1.378
		c0.552,0.242,1.303,0.656,2.07,0.527c0.669-0.096,1.434-0.25,1.968-0.618c0.509-0.35,1.046-0.666,1.353-1.138
		c0.123-0.189,0.416-0.481,0.437-0.684c0.255-0.184-3.719-1.01-4.005-1.107C82.557,95.66,86.957,95.958,86.709,95.417z"/>
	<path d="M66.366,100.139c-0.352,0.164-0.602,0.28-0.997,0.361c-0.223,0.046-0.719,0.047-0.895,0.161
		c0.365-0.036,0.691-0.037,0.989,0.118c0.136,0.16,0.524,0.434,0.754,0.512c0.249,0.162,0.602,0.245,0.796,0.45
		c0.222,0.233,0.537,0.416,0.798,0.623c0.66,0.524,1.464,1.012,2.299,1.378c0.552,0.242,1.303,0.655,2.07,0.527
		c0.669-0.096,1.434-0.25,1.968-0.618c0.509-0.35,1.046-0.666,1.353-1.138c0.123-0.189,0.416-0.481,0.438-0.684
		c0.255-0.184-3.719-1.01-4.005-1.107c-0.037-0.557,4.363-0.26,4.115-0.8c-0.357-0.543-0.635-1.122-1.446-1.368
		c-0.579-0.175-1.136-0.142-1.786-0.053c-1.342,0.185-2.727,0.444-4.029,0.823C67.966,99.565,67.127,99.786,66.366,100.139z"/>
	<path d="M68.787,62.463c-0.821,0.239-1.66,0.46-2.421,0.813c-0.352,0.164-0.602,0.28-0.997,0.361
		c-0.223,0.046-0.719,0.047-0.895,0.161c0.365-0.036,0.691-0.037,0.989,0.118c0.136,0.16,0.524,0.434,0.754,0.512
		c0.249,0.162,0.602,0.245,0.796,0.45c0.222,0.233,0.537,0.416,0.798,0.623c0.66,0.524,1.464,1.012,2.299,1.378
		c0.552,0.242,1.303,0.656,2.07,0.527c0.669-0.096,1.434-0.25,1.968-0.618c0.509-0.35,1.046-0.666,1.353-1.138
		c0.123-0.189,0.416-0.481,0.438-0.684c0.255-0.184-3.719-1.01-4.005-1.107c-0.037-0.558,4.363-0.26,4.115-0.8
		c-0.357-0.543-0.635-1.122-1.446-1.368c-0.579-0.175-1.136-0.142-1.786-0.053C71.474,61.826,70.089,62.084,68.787,62.463z"/>
	<path d="M83.289,63.01c-0.625-0.267-1.202-0.611-2.05-0.357c-0.605,0.182-1.072,0.532-1.587,0.986
		c-1.063,0.936-2.121,1.962-3.037,3.044c-0.578,0.682-1.181,1.359-1.64,2.107c-0.213,0.346-0.363,0.591-0.66,0.89
		c-0.168,0.169-0.599,0.456-0.687,0.658c0.298-0.242,0.581-0.431,0.931-0.468c0.211,0.061,0.708,0.076,0.953,0.01
		c0.31-0.002,0.667-0.134,0.954-0.068c0.328,0.075,0.708,0.052,1.056,0.082c0.878,0.076,1.86,0.036,2.8-0.127
		c0.621-0.108,1.514-0.181,2.109-0.736c0.528-0.47,1.105-1.046,1.359-1.675c0.242-0.599,0.527-1.185,0.522-1.773
		c-0.002-0.236,0.085-0.66-0.013-0.849c0.116-0.308-3.825,1.268-4.13,1.349C79.811,65.62,83.818,63.338,83.289,63.01z"/>
	<path d="M118.205,105.236c-0.098,0.189-0.011,0.613-0.014,0.849c-0.005,0.588,0.28,1.174,0.522,1.773
		c0.253,0.629,0.831,1.205,1.359,1.675c0.594,0.555,1.488,0.628,2.109,0.736c0.939,0.163,1.922,0.202,2.8,0.127
		c0.348-0.03,0.728-0.007,1.056-0.082c0.287-0.066,0.643,0.066,0.954,0.068c0.245,0.065,0.742,0.05,0.953-0.01
		c0.35,0.037,0.633,0.226,0.931,0.468c-0.088-0.201-0.519-0.489-0.687-0.658c-0.298-0.299-0.448-0.544-0.66-0.89
		c-0.459-0.748-1.062-1.425-1.64-2.107c-0.916-1.083-1.974-2.108-3.037-3.044c-0.515-0.454-0.982-0.804-1.587-0.986
		c-0.848-0.254-1.425,0.09-2.05,0.357c-0.529,0.328,3.479,2.609,3.124,3.074C122.029,106.504,118.089,104.928,118.205,105.236z"/>
	<path d="M142.551,89.806c-0.297-0.299-0.448-0.544-0.66-0.89c-0.459-0.748-1.062-1.425-1.64-2.107
		c-0.916-1.083-1.974-2.108-3.037-3.044c-0.515-0.454-0.982-0.804-1.587-0.986c-0.848-0.254-1.425,0.09-2.05,0.357
		c-0.529,0.328,3.479,2.609,3.124,3.074c-0.306-0.081-4.246-1.657-4.13-1.349c-0.098,0.189-0.011,0.613-0.014,0.849
		c-0.005,0.588,0.28,1.174,0.522,1.773c0.008,0.019,0.022,0.037,0.03,0.057c-0.188-0.104-0.383-0.196-0.597-0.261
		c-0.848-0.254-1.425,0.09-2.05,0.357c-0.529,0.328,3.479,2.609,3.124,3.074c-0.306-0.081-4.246-1.657-4.13-1.349
		c-0.098,0.189-0.011,0.613-0.014,0.849c-0.005,0.588,0.28,1.174,0.522,1.773c0.253,0.629,0.831,1.205,1.359,1.675
		c0.594,0.555,1.488,0.628,2.109,0.736c0.939,0.163,1.922,0.202,2.8,0.127c0.348-0.03,0.728-0.007,1.056-0.082
		c0.287-0.066,0.643,0.066,0.954,0.068c0.245,0.065,0.742,0.05,0.953-0.01c0.35,0.037,0.633,0.226,0.931,0.468
		c-0.088-0.201-0.519-0.489-0.687-0.658c-0.298-0.299-0.448-0.544-0.66-0.89c-0.459-0.748-1.062-1.425-1.64-2.107
		c-0.457-0.54-0.95-1.066-1.461-1.574c0.309,0.069,0.615,0.115,0.871,0.159c0.939,0.163,1.922,0.202,2.799,0.127
		c0.348-0.03,0.728-0.007,1.056-0.082c0.287-0.066,0.643,0.066,0.954,0.068c0.245,0.065,0.742,0.05,0.953-0.01
		c0.35,0.037,0.633,0.226,0.931,0.468C143.15,90.262,142.719,89.975,142.551,89.806z"/>
	<path d="M141.799,130.576c-0.355-0.357-0.534-0.649-0.788-1.062c-0.548-0.892-1.268-1.7-1.957-2.514
		c-1.093-1.292-2.356-2.516-3.624-3.633c-0.615-0.541-1.172-0.96-1.894-1.176c-1.012-0.303-1.701,0.107-2.447,0.426
		c-0.631,0.391,4.151,3.114,3.728,3.668c-0.365-0.096-5.067-1.977-4.929-1.609c-0.117,0.226-0.014,0.732-0.016,1.013
		c-0.006,0.702,0.334,1.401,0.623,2.116c0.302,0.751,0.991,1.438,1.621,1.999c0.709,0.662,1.775,0.75,2.516,0.878
		c1.121,0.195,2.293,0.242,3.34,0.151c0.415-0.036,0.869-0.008,1.26-0.098c0.343-0.079,0.768,0.078,1.138,0.081
		c0.293,0.078,0.886,0.06,1.137-0.013c0.417,0.044,0.755,0.27,1.11,0.558C142.513,131.12,141.999,130.777,141.799,130.576z"/>
	<path d="M130.409,134.133c-0.166-1.034-0.524-2.055-0.851-3.071c-0.518-1.611-1.219-3.224-1.965-4.74
		c-0.362-0.735-0.717-1.334-1.303-1.81c-0.82-0.666-1.613-0.549-2.424-0.539c-0.732,0.121,2.65,4.461,2.048,4.812
		c-0.301-0.228-3.931-3.76-3.943-3.367c-0.194,0.164-0.292,0.671-0.401,0.93c-0.273,0.646-0.225,1.422-0.231,2.194
		c-0.007,0.809,0.368,1.707,0.737,2.466c0.403,0.882,1.355,1.37,1.991,1.771c0.962,0.607,2.028,1.098,3.031,1.413
		c0.397,0.125,0.806,0.324,1.202,0.39c0.347,0.058,0.68,0.365,1.021,0.509c0.241,0.183,0.796,0.393,1.056,0.422
		c0.369,0.2,0.595,0.537,0.814,0.94c-0.006-0.262-0.35-0.775-0.459-1.038C130.54,134.951,130.486,134.612,130.409,134.133z"/>
	<path d="M110.737,123.543c-0.194,0.164-0.292,0.671-0.401,0.93c-0.273,0.646-0.225,1.423-0.231,2.194
		c-0.007,0.809,0.368,1.707,0.737,2.466c0.403,0.882,1.355,1.37,1.991,1.771c0.962,0.607,2.028,1.097,3.031,1.413
		c0.398,0.125,0.806,0.324,1.202,0.39c0.347,0.058,0.68,0.365,1.021,0.509c0.241,0.183,0.796,0.393,1.056,0.422
		c0.369,0.2,0.595,0.537,0.813,0.94c-0.006-0.262-0.35-0.775-0.459-1.038c-0.192-0.465-0.246-0.804-0.323-1.283
		c-0.166-1.034-0.524-2.055-0.851-3.071c-0.518-1.611-1.219-3.224-1.965-4.74c-0.362-0.735-0.717-1.334-1.303-1.81
		c-0.82-0.666-1.613-0.549-2.424-0.539c-0.732,0.121,2.651,4.461,2.048,4.812C114.379,126.682,110.749,123.151,110.737,123.543z"/>
	<path d="M148.708,128.438c-0.295-1.005-0.778-1.973-1.229-2.94c-0.716-1.533-1.614-3.046-2.544-4.456
		c-0.451-0.684-0.879-1.233-1.519-1.632c-0.897-0.558-1.669-0.343-2.473-0.231c-0.711,0.212,3.189,4.094,2.635,4.518
		c-0.327-0.189-4.371-3.237-4.334-2.846c-0.172,0.187-0.205,0.702-0.281,0.973c-0.19,0.675-0.045,1.439,0.046,2.205
		c0.095,0.804,0.579,1.648,1.04,2.354c0.511,0.825,1.516,1.189,2.198,1.507c1.03,0.482,2.149,0.835,3.184,1.022
		c0.41,0.075,0.841,0.22,1.242,0.236c0.351,0.014,0.72,0.277,1.077,0.377c0.262,0.152,0.839,0.29,1.101,0.286
		c0.391,0.152,0.658,0.458,0.925,0.83c-0.039-0.259-0.445-0.725-0.585-0.972C148.94,129.232,148.844,128.903,148.708,128.438z"/>
	<path d="M145.552,104.865c0.631-0.946,1.149-1.999,1.49-2.994c0.135-0.394,0.344-0.798,0.42-1.192
		c0.067-0.345,0.382-0.67,0.535-1.008c0.189-0.236,0.413-0.786,0.449-1.045c0.209-0.364,0.552-0.581,0.96-0.789
		c-0.262-0.001-0.784,0.33-1.049,0.432c-0.47,0.18-0.81,0.226-1.29,0.291c-1.038,0.14-2.068,0.471-3.091,0.772
		c-1.624,0.477-3.254,1.136-4.789,1.844c-0.744,0.343-1.352,0.683-1.842,1.256c-0.687,0.803-0.59,1.599-0.6,2.41
		c0.102,0.735,4.527-2.536,4.863-1.925c-0.188,0.235-2.531,2.535-3.27,3.465c-0.339,0.283-0.552,0.646-0.787,1.002
		c-0.248,0.54,4.152,0.242,4.115,0.8c-0.286,0.097-4.26,0.922-4.005,1.107c0.022,0.202,0.315,0.495,0.437,0.684
		c0.307,0.471,0.844,0.788,1.353,1.138c0.534,0.368,1.299,0.522,1.968,0.618c0.767,0.128,1.518-0.285,2.07-0.527
		c0.835-0.366,1.639-0.854,2.298-1.378c0.262-0.208,0.577-0.39,0.798-0.623c0.194-0.204,0.548-0.287,0.796-0.45
		c0.23-0.078,0.618-0.352,0.754-0.512c0.298-0.155,0.624-0.154,0.989-0.118c-0.177-0.114-0.672-0.115-0.895-0.161
		c-0.395-0.081-0.644-0.197-0.997-0.361c-0.761-0.354-1.6-0.574-2.421-0.813c-0.245-0.071-0.501-0.119-0.751-0.182
		C144.745,106.158,145.192,105.405,145.552,104.865z"/>
	<path d="M128.186,58.282c-0.298-0.299-0.448-0.544-0.66-0.89c-0.459-0.748-1.062-1.425-1.64-2.107
		c-0.916-1.083-1.974-2.108-3.037-3.044c-0.515-0.454-0.982-0.804-1.587-0.986c-0.848-0.254-1.425,0.09-2.05,0.357
		c-0.529,0.328,3.479,2.609,3.124,3.074c-0.306-0.081-4.246-1.657-4.13-1.349c-0.098,0.189-0.011,0.613-0.014,0.849
		c-0.005,0.588,0.28,1.174,0.522,1.773c0.253,0.629,0.831,1.205,1.359,1.675c0.594,0.555,1.488,0.628,2.109,0.736
		c0.939,0.163,1.922,0.202,2.8,0.127c0.348-0.03,0.728-0.007,1.056-0.082c0.287-0.066,0.643,0.066,0.954,0.068
		c0.245,0.065,0.742,0.05,0.953-0.01c0.35,0.037,0.633,0.226,0.931,0.468C128.785,58.738,128.354,58.451,128.186,58.282z"/>
	<path d="M107.544,27.709c-0.06,0.116-0.007,0.377-0.008,0.521c-0.003,0.361,0.172,0.721,0.321,1.089
		c0.156,0.386,0.51,0.74,0.835,1.029c0.365,0.341,0.914,0.386,1.295,0.452c0.577,0.1,1.181,0.124,1.72,0.078
		c0.214-0.018,0.447-0.004,0.649-0.05c0.176-0.041,0.395,0.04,0.586,0.042c0.151,0.04,0.456,0.031,0.585-0.006
		c0.215,0.023,0.389,0.139,0.572,0.288c-0.054-0.124-0.319-0.3-0.422-0.404c-0.183-0.184-0.275-0.334-0.406-0.547
		c-0.282-0.459-0.653-0.875-1.008-1.295c-0.563-0.665-1.213-1.295-1.866-1.87c-0.317-0.279-0.603-0.494-0.975-0.606
		c-0.521-0.156-0.875,0.055-1.26,0.219c-0.325,0.201,2.137,1.603,1.919,1.889C109.894,28.488,107.473,27.52,107.544,27.709z"/>
	<path d="M122.429,90.422c-0.06,0.116-0.007,0.377-0.008,0.521c-0.003,0.361,0.172,0.721,0.321,1.089
		c0.156,0.387,0.51,0.74,0.835,1.029c0.365,0.341,0.914,0.386,1.296,0.452c0.577,0.1,1.181,0.124,1.72,0.078
		c0.214-0.018,0.447-0.004,0.649-0.051c0.176-0.04,0.395,0.04,0.586,0.042c0.151,0.04,0.456,0.031,0.585-0.006
		c0.215,0.023,0.389,0.139,0.572,0.288c-0.054-0.124-0.319-0.3-0.422-0.404c-0.183-0.184-0.275-0.334-0.406-0.547
		c-0.282-0.46-0.653-0.875-1.008-1.295c-0.563-0.665-1.213-1.295-1.866-1.87c-0.317-0.279-0.603-0.494-0.975-0.606
		c-0.521-0.156-0.876,0.055-1.26,0.219c-0.325,0.201,2.137,1.603,1.92,1.889C124.779,91.201,122.358,90.233,122.429,90.422z"/>
	<path d="M107.134,12.417c-0.173,0.173-0.316,0.26-0.516,0.383c-0.434,0.266-0.826,0.616-1.222,0.951
		c-0.628,0.531-1.223,1.145-1.766,1.762c-0.263,0.299-0.466,0.569-0.572,0.921c-0.147,0.492,0.052,0.827,0.207,1.189
		c0.19,0.307,1.514-2.018,1.783-1.812c-0.047,0.177-0.961,2.463-0.782,2.396c0.11,0.057,0.356,0.007,0.492,0.008
		c0.341,0.003,0.681-0.163,1.029-0.303c0.365-0.147,0.699-0.482,0.972-0.788c0.322-0.345,0.364-0.863,0.427-1.223
		c0.095-0.545,0.117-1.115,0.073-1.624c-0.017-0.202-0.004-0.422-0.048-0.613c-0.038-0.167,0.038-0.373,0.039-0.553
		c0.038-0.142,0.029-0.431-0.006-0.553c0.021-0.203,0.131-0.367,0.271-0.54C107.398,12.07,107.232,12.32,107.134,12.417z"/>
	<path d="M110.797,17.001c-0.173,0.173-0.316,0.26-0.516,0.383c-0.434,0.266-0.826,0.616-1.222,0.951
		c-0.628,0.531-1.223,1.145-1.766,1.762c-0.211,0.239-0.367,0.471-0.482,0.73c-0.005-0.084-0.01-0.168-0.027-0.245
		c-0.038-0.167,0.038-0.373,0.04-0.553c0.038-0.142,0.029-0.43-0.006-0.553c0.021-0.203,0.131-0.367,0.271-0.54
		c-0.117,0.051-0.284,0.301-0.381,0.398c-0.173,0.173-0.316,0.26-0.516,0.383c-0.434,0.266-0.826,0.616-1.222,0.951
		c-0.628,0.531-1.223,1.145-1.766,1.762c-0.263,0.299-0.467,0.569-0.572,0.921c-0.147,0.492,0.052,0.827,0.207,1.189
		c0.19,0.307,1.514-2.018,1.783-1.812c-0.047,0.177-0.961,2.463-0.782,2.396c0.11,0.057,0.356,0.007,0.492,0.008
		c0.341,0.003,0.681-0.163,1.029-0.303c0.365-0.147,0.699-0.482,0.972-0.788c0.322-0.345,0.364-0.863,0.427-1.223
		c0.046-0.265,0.073-0.535,0.086-0.802c0.028,0.063,0.056,0.127,0.084,0.191c0.19,0.307,1.514-2.018,1.783-1.812
		c-0.047,0.177-0.961,2.463-0.782,2.396c0.11,0.057,0.356,0.007,0.492,0.008c0.341,0.003,0.681-0.163,1.029-0.303
		c0.365-0.147,0.699-0.482,0.971-0.788c0.322-0.345,0.365-0.863,0.427-1.223c0.094-0.545,0.117-1.115,0.073-1.624
		c-0.017-0.202-0.004-0.422-0.048-0.613c-0.038-0.167,0.038-0.373,0.039-0.553c0.038-0.142,0.029-0.431-0.006-0.553
		c0.021-0.203,0.131-0.367,0.271-0.54C111.061,16.653,110.894,16.903,110.797,17.001z"/>
	<path d="M117.776,35.167c-0.173,0.173-0.316,0.26-0.516,0.383c-0.434,0.266-0.826,0.616-1.222,0.951
		c-0.628,0.531-1.223,1.145-1.766,1.762c-0.263,0.299-0.466,0.569-0.572,0.921c-0.147,0.492,0.052,0.827,0.207,1.189
		c0.19,0.307,1.513-2.018,1.783-1.812c-0.047,0.177-0.961,2.463-0.782,2.396c0.11,0.057,0.355,0.007,0.492,0.008
		c0.341,0.003,0.681-0.163,1.028-0.303c0.365-0.147,0.699-0.482,0.972-0.788c0.322-0.345,0.365-0.863,0.427-1.223
		c0.095-0.545,0.117-1.115,0.073-1.624c-0.017-0.202-0.004-0.422-0.048-0.613c-0.038-0.167,0.038-0.373,0.039-0.553
		c0.038-0.142,0.029-0.431-0.006-0.553c0.021-0.203,0.131-0.367,0.271-0.54C118.041,34.82,117.874,35.07,117.776,35.167z"/>
	<path d="M140.557,72.858c-0.835,0.081-1.67,0.315-2.499,0.525c-1.315,0.333-2.641,0.811-3.891,1.331
		c-0.606,0.252-1.103,0.506-1.513,0.95c-0.574,0.622-0.521,1.262-0.554,1.912c0.06,0.592,3.703-1.894,3.953-1.394
		c-0.198,0.229-3.206,2.953-2.893,2.983c0.121,0.164,0.522,0.267,0.723,0.368c0.503,0.251,1.126,0.252,1.743,0.296
		c0.647,0.046,1.384-0.208,2.01-0.464c0.726-0.278,1.164-1.015,1.518-1.503c0.534-0.739,0.981-1.566,1.284-2.352
		c0.12-0.312,0.3-0.629,0.373-0.942c0.064-0.274,0.327-0.525,0.459-0.791c0.159-0.184,0.355-0.617,0.391-0.823
		c0.178-0.285,0.46-0.449,0.793-0.603c-0.21-0.009-0.638,0.241-0.854,0.314C141.217,72.794,140.943,72.82,140.557,72.858z"/>
	<path d="M122.527,73.787c0.035,0.201,0.346,0.473,0.481,0.654c0.336,0.451,0.893,0.731,1.424,1.048
		c0.557,0.332,1.33,0.437,2.004,0.489c0.773,0.078,1.496-0.383,2.031-0.66c0.809-0.419,1.58-0.958,2.204-1.524
		c0.248-0.224,0.55-0.427,0.757-0.674c0.18-0.216,0.528-0.322,0.765-0.5c0.225-0.092,0.594-0.391,0.719-0.56
		c0.287-0.174,0.612-0.194,0.979-0.182c-0.184-0.102-0.678-0.072-0.904-0.103c-0.4-0.055-0.656-0.155-1.018-0.296
		c-0.783-0.304-1.634-0.47-2.468-0.655c-1.324-0.294-2.723-0.462-4.074-0.56c-0.655-0.047-1.213-0.044-1.779,0.168
		c-0.793,0.297-1.033,0.893-1.354,1.458c-0.213,0.555,4.159-0.027,4.158,0.532C126.173,72.539,122.261,73.62,122.527,73.787z"/>
	<path d="M126.236,43.033c-0.783-0.304-1.633-0.47-2.468-0.655c-1.324-0.294-2.723-0.463-4.074-0.56
		c-0.655-0.047-1.213-0.044-1.779,0.168c-0.793,0.297-1.033,0.893-1.354,1.458c-0.213,0.555,4.159-0.027,4.158,0.532
		c-0.28,0.116-4.192,1.196-3.925,1.364c0.035,0.201,0.346,0.473,0.481,0.654c0.336,0.451,0.893,0.731,1.424,1.048
		c0.557,0.332,1.33,0.437,2.004,0.489c0.773,0.078,1.496-0.383,2.031-0.66c0.809-0.419,1.58-0.958,2.205-1.524
		c0.248-0.224,0.55-0.427,0.756-0.674c0.181-0.216,0.528-0.322,0.765-0.5c0.224-0.093,0.594-0.391,0.719-0.56
		c0.287-0.174,0.612-0.194,0.979-0.182c-0.184-0.102-0.678-0.072-0.904-0.103C126.855,43.273,126.598,43.174,126.236,43.033z"/>
	<path d="M115.15,97.324c0.022,0.202,0.315,0.495,0.437,0.684c0.307,0.471,0.844,0.788,1.353,1.138
		c0.534,0.368,1.299,0.522,1.968,0.618c0.767,0.128,1.518-0.285,2.07-0.527c0.835-0.366,1.639-0.854,2.298-1.378
		c0.262-0.208,0.577-0.39,0.799-0.623c0.194-0.204,0.547-0.287,0.796-0.45c0.23-0.078,0.618-0.352,0.754-0.512
		c0.298-0.155,0.624-0.154,0.989-0.118c-0.177-0.114-0.672-0.115-0.895-0.161c-0.395-0.081-0.644-0.197-0.997-0.361
		c-0.761-0.354-1.6-0.574-2.421-0.813c-1.302-0.379-2.688-0.638-4.029-0.823c-0.65-0.089-1.208-0.122-1.786,0.053
		c-0.81,0.245-1.089,0.824-1.446,1.368c-0.248,0.54,4.152,0.242,4.115,0.8C118.869,96.315,114.895,97.14,115.15,97.324z"/>
	<path d="M131.639,103.743c0.835-0.366,1.639-0.854,2.299-1.378c0.262-0.208,0.577-0.39,0.798-0.623
		c0.194-0.204,0.548-0.287,0.796-0.45c0.23-0.078,0.618-0.352,0.754-0.512c0.298-0.155,0.624-0.154,0.989-0.118
		c-0.177-0.114-0.672-0.115-0.895-0.161c-0.395-0.081-0.644-0.197-0.997-0.361c-0.761-0.354-1.599-0.574-2.421-0.813
		c-1.302-0.379-2.688-0.638-4.029-0.823c-0.65-0.089-1.208-0.122-1.786,0.053c-0.81,0.245-1.089,0.825-1.446,1.368
		c-0.248,0.541,4.152,0.243,4.115,0.8c-0.286,0.097-4.26,0.922-4.005,1.107c0.022,0.202,0.315,0.495,0.438,0.684
		c0.306,0.471,0.844,0.788,1.353,1.138c0.534,0.368,1.299,0.522,1.968,0.618C130.336,104.398,131.088,103.985,131.639,103.743z"/>
	<path d="M135.384,63.277c-0.761-0.354-1.599-0.574-2.421-0.813c-1.302-0.379-2.688-0.638-4.029-0.823
		c-0.65-0.089-1.208-0.122-1.786,0.053c-0.81,0.245-1.089,0.825-1.446,1.368c-0.248,0.541,4.152,0.242,4.115,0.8
		c-0.286,0.097-4.26,0.922-4.005,1.107c0.022,0.202,0.315,0.495,0.438,0.684c0.306,0.471,0.844,0.788,1.353,1.138
		c0.534,0.368,1.299,0.522,1.968,0.618c0.767,0.128,1.518-0.285,2.07-0.527c0.835-0.366,1.639-0.854,2.299-1.378
		c0.262-0.208,0.577-0.39,0.798-0.623c0.194-0.204,0.548-0.287,0.796-0.45c0.23-0.078,0.618-0.352,0.754-0.512
		c0.298-0.155,0.624-0.154,0.989-0.118c-0.177-0.114-0.672-0.115-0.895-0.161C135.986,63.556,135.736,63.44,135.384,63.277z"/>
	<path d="M117.455,64.736c-0.098,0.189-0.011,0.613-0.014,0.849c-0.005,0.588,0.28,1.174,0.522,1.773
		c0.253,0.629,0.831,1.205,1.359,1.675c0.594,0.555,1.488,0.628,2.109,0.736c0.939,0.163,1.922,0.202,2.8,0.127
		c0.348-0.03,0.728-0.007,1.056-0.082c0.287-0.066,0.643,0.066,0.954,0.068c0.245,0.065,0.742,0.05,0.953-0.01
		c0.35,0.037,0.633,0.226,0.931,0.468c-0.088-0.201-0.519-0.489-0.687-0.658c-0.298-0.299-0.448-0.544-0.66-0.89
		c-0.459-0.748-1.062-1.425-1.64-2.107c-0.916-1.083-1.974-2.108-3.037-3.044c-0.515-0.454-0.982-0.804-1.587-0.986
		c-0.848-0.254-1.425,0.09-2.05,0.357c-0.529,0.328,3.479,2.609,3.124,3.074C121.279,66.004,117.339,64.428,117.455,64.736z"/>
	<path d="M120.73,184.039c-0.413-0.366-0.758-1.141-1.06-1.603c-0.893-1.365-3.44-2.514-4.494-2.618
		c-1.138-0.113-2.523-0.646-3.455-1.44c-0.42-0.358-1.074-0.76-1.465-1.029c-0.391-0.269-0.892-0.944-1.217-1.391
		c-0.157-0.216-0.32-0.451-0.465-0.669c-0.306-0.46-0.562-1.3-0.673-1.841c-0.121-0.596-0.291-1.309-0.474-1.85
		c-0.177-0.523-0.658-1.246-0.876-1.753c-0.371-0.86-0.915-2.114-1.18-2.964c-0.165-0.527-0.045-1.372-0.062-1.924
		c-0.151-4.962-1.357-9.861-1.357-14.73c0-2.523,0-4.663,0-7.092c0-0.552,0.294-1.329,0.381-1.874
		c0.261-1.634,0.165-5.047,0.133-5.711c-0.077-1.639,0.55-2.684,0.777-4.104c0.087-0.545,0.091-1.418,0.287-1.935
		c0.32-0.846,0.877-2.085,1.251-2.941c0.221-0.506,0.803-1.102,1.101-1.568c0.431-0.673,0.813-1.674,0.965-1.964
		c0.3-0.579,1.161-1.175,1.928-1.499c0.509-0.215,1.15-0.669,1.63-0.942c1.127-0.64,3.422-1.274,4.806-1.718
		c0.526-0.169,1.04,0.024,1.384,0.324c0.21,0.184,0.441,0.37,0.555,0.604c0.375,0.764,0.418,1.672,0.404,2.544
		c-0.009,0.552,0.579,1.052,0.782,0.539c0.09-0.226,0.102-0.517,0.099-0.83c-0.006-0.552,0.46-0.845,0.787-0.4
		c0.498,0.677,0.738,1.715,1.158,2.329c0.312,0.456,0.824,0.055,0.717-0.487c-0.125-0.628-0.351-1.146-0.549-1.708
		c-0.183-0.521-0.665-1.18-1.085-1.538c-0.369-0.314-0.752-0.699-1.036-1.062c-0.34-0.435,0.009-0.893,0.549-1.01
		c0.969-0.211,2.097-0.611,3.061-0.666c0.551-0.031,1.317,0.412,1.716,0.794c0.513,0.49,1.2,1.147,1.728,1.636
		c0.405,0.375,0.786,1.114,1.002,1.622c0.248,0.582,0.659,1.227,1.138,1.626c0.424,0.354,0.909-0.065,0.798-0.606
		c-0.437-2.134-2.146-3.347-2.847-5.144c-0.201-0.515,0.152-1.151,0.612-1.457c0.457-0.304,0.91-0.638,1.361-0.815
		c0.204-0.08,0.422-0.037,0.625,0.072c0.01,0.124,0.022,0.246,0.021,0.338c-0.005,0.588,0.28,1.174,0.522,1.773
		c0.253,0.629,0.831,1.205,1.359,1.675c0.594,0.555,1.488,0.628,2.109,0.736c0.939,0.163,1.922,0.202,2.8,0.127
		c0.348-0.03,0.728-0.007,1.056-0.082c0.287-0.066,0.643,0.066,0.954,0.068c0.245,0.065,0.742,0.05,0.953-0.01
		c0.35,0.037,0.633,0.226,0.931,0.468c-0.088-0.201-0.519-0.489-0.687-0.658c-0.298-0.299-0.448-0.544-0.66-0.89
		c-0.459-0.748-1.062-1.425-1.64-2.107c-0.916-1.083-1.974-2.108-3.037-3.044c-0.515-0.454-0.982-0.804-1.587-0.986
		c-0.248-0.074-0.468-0.088-0.678-0.077c0.156-0.134,0.308-0.262,0.441-0.377c0.421-0.368,0.726-0.774,1.127-1.208
		c0.375-0.406,0.945-1.117,1.442-1.358c0.672-0.326,1.566-0.373,2.078-0.757c0.442-0.331,0.101-0.816-0.278-0.753
		c-0.379,0.063-0.581-0.123-0.332-0.331c0.25-0.209-0.128-0.475-0.639-0.266c-0.995,0.408-1.952,1.352-2.734,2.239
		c-0.365,0.414-1.122,0.77-1.58,1.079c-0.861,0.582-1.567,1.811-2.477,2.371c-0.47,0.29-1.215,0.643-1.708,0.891
		c-0.378,0.19-0.839,0.378-1.249,0.522c-0.521,0.182-1.297,0.536-1.842,0.622c-0.921,0.145-2.374,0.187-3.395,0.238
		c-0.552,0.028-1.243-0.294-1.732-0.552c-1.099-0.58-3.089-1.202-3.539-1.202c-2.32,0-3.09-0.803-2.493-2.733
		c0.163-0.528,0.673-0.787,0.916-0.447s0.741,0.199,0.874-0.115s-0.306-0.831-0.534-1.335c-0.206-0.456-0.505-0.914-0.749-1.383
		c-0.225-0.41-0.414-0.834-0.567-1.272c-0.182-0.521-0.476-0.83-0.751-0.833s0.281-0.494,0.424-1.028
		c0.132-0.495,0.129-1.181,0.103-1.765c-0.024-0.552,0.396-0.877,0.802-0.503c0.021,0.019,0.042,0.039,0.064,0.058
		c0.419,0.36,1.026-0.334,1.507-0.063c0.585,0.33,1.497,1.363,2.226,1.988c0.419,0.36,0.718,0.067,0.555-0.46
		c-0.109-0.354-0.219-0.708-0.328-1.062c-0.163-0.528-0.616-1.197-1.005-1.505c-0.389-0.308-1.122-0.593-1.643-0.777
		c-1.045-0.368-2.015-1.255-2.886-2.102c-0.396-0.385-0.656-1.151-0.386-1.633c0.258-0.46,0.633-0.961,0.999-1.366
		c0.37-0.41,0.846-1.115,1.143-1.58c0.429-0.673,1.122-1.518,1.717-2.042c0.414-0.365,1.072-0.892,1.49-1.254
		c1.021-0.883,2.835-1.637,4.143-2.112c0.519-0.189,1.208-0.699,1.666-1.009c0.779-0.528,2.001-1.062,2.909-1.135
		c0.551-0.044,1.403,0.326,1.823,0.685c0.643,0.551,1.035,1.381,1.66,1.876c0.433,0.343,0.84-0.054,0.582-0.542
		c-0.819-1.552-2.807-3.385-1.739-4.101c1.857-1.238,1.869-1.575,3.153-0.443c0.414,0.365,1.286,0.479,1.128-0.05
		c-0.082-0.274-0.258-0.58-0.474-0.831c-0.361-0.418-0.749-0.729-0.919-0.862c-0.169-0.132-0.657-0.825-0.252-0.79
		c0.404,0.035,0.456-0.973,0.639-1.494c0.081-0.23,0.155-0.485,0.215-0.729c0.133-0.536-0.325-0.95-0.668-0.517
		c-0.249,0.314-0.43,0.735-0.6,1.093c-0.238,0.499-0.764,1.161-1.087,1.608c-0.322,0.445-0.758,0.858-1.23,1.21
		c-0.15-0.129-0.317-0.257-0.408-0.349c-0.298-0.299-0.448-0.544-0.66-0.89c-0.459-0.748-1.062-1.425-1.64-2.107
		c-0.916-1.083-1.974-2.108-3.037-3.044c-0.515-0.454-0.982-0.804-1.587-0.986c-0.848-0.254-1.425,0.09-2.05,0.357
		c-0.039,0.024-0.047,0.063-0.04,0.107c-0.032-0.06-0.063-0.118-0.1-0.186c-0.262-0.486,0.447-1.004,0.951-1.231
		c0.275-0.124,0.562-0.277,0.816-0.439c0.466-0.296,0.509-0.763,0.189-0.822c-0.319-0.058-0.744,0.289-1.157,0.174
		c-0.413-0.115-1.012,0.367-1.562,0.326c-0.614-0.045-1.2-0.261-1.823-0.43c-0.944-0.254-1.629,0.083-2.4,0.338
		c-0.524,0.173-0.905-0.096-0.743-0.465c0.162-0.368,0.451-0.51,0.765-0.369c0.314,0.141,0.526-0.31,0.248-0.788
		c-0.335-0.576-0.854-1.249-1.342-1.717c-0.399-0.382-0.822-0.113-0.766,0.437c0.028,0.274,0.063,0.518,0.095,0.753
		c0.074,0.547-0.093,1.198-0.281,1.59c-0.074,0.153-0.246,0.275-0.695,0.269c-1.176-0.013-1.538,0.201-2.025,0.841
		c-0.334,0.44-0.934,1.092-1.333,1.474c-1.668,1.594-2.57,3.38-4.206,4.885c-0.406,0.374-0.768,0.192-0.788-0.359
		c-0.063-1.722-0.257-3.498-0.301-5.221c0.075,0.029,0.146,0.057,0.201,0.085c0.503,0.251,1.126,0.252,1.743,0.296
		c0.647,0.046,1.384-0.208,2.01-0.464c0.726-0.278,1.165-1.015,1.518-1.503c0.534-0.739,0.981-1.566,1.284-2.352
		c0.12-0.312,0.3-0.629,0.373-0.942c0.064-0.274,0.327-0.525,0.459-0.791c0.159-0.184,0.355-0.617,0.391-0.823
		c0.178-0.285,0.46-0.449,0.793-0.603c-0.21-0.009-0.638,0.241-0.853,0.314c-0.382,0.13-0.656,0.156-1.042,0.194
		c-0.835,0.081-1.67,0.315-2.499,0.525c-1.286,0.326-2.582,0.793-3.808,1.3c0.26-0.756,0.622-1.475,1.132-2.138
		c0.97-1.262,2.132-2.352,3.271-3.455c0.811-0.78,1.652-2.287,2.738-2.706c2.281-0.881,4.058,1.159,5.024,3.026
		c0.254,0.491,0.498,0.822,0.617,0.736c0.12-0.086,0.427-0.438,0.242-0.865s0.237-0.735,0.72-0.467
		c0.201,0.112,0.408,0.235,0.627,0.34c0.498,0.24,0.83-0.205,0.434-0.59c-0.572-0.555-1.393-0.752-2.016-1.176
		c-0.457-0.311-1.115-0.816-1.565-1.136c-0.607-0.431-1.289-1.084-1.892-1.317c-0.907-0.347-0.805-0.663-0.562-1.176
		c0.064,0.06,0.128,0.121,0.191,0.177c0.481,0.449,1.205,0.509,1.708,0.596c0.76,0.132,1.556,0.164,2.267,0.102
		c0.282-0.024,0.59-0.006,0.855-0.067c0.232-0.053,0.521,0.053,0.772,0.055c0.199,0.053,0.601,0.041,0.772-0.008
		c0.283,0.03,0.512,0.183,0.754,0.379c-0.071-0.163-0.42-0.396-0.556-0.532c-0.241-0.242-0.363-0.441-0.535-0.721
		c-0.372-0.606-0.86-1.154-1.328-1.706c-0.696-0.822-1.495-1.598-2.301-2.318c0.212-0.271,0.442-0.53,0.644-0.728
		c0.51-0.499,1.146-1.221,1.76-1.702c0.435-0.341,0.921-0.224,0.984,0.092s0.535,0.633,0.702,0.308
		c0.167-0.325-0.223-0.935,0.149-1.344c0.381-0.419,1.019-0.952,1.518-1.374c0.421-0.357,0.262-0.703-0.259-0.52
		c-0.064,0.022-0.125,0.047-0.185,0.072c-0.507,0.219-0.892,0.298-0.892,0.108s-0.444-0.24-0.912,0.052
		c-0.812,0.505-1.575,1.326-2.287,1.785c-0.464,0.299-1.141,0.736-1.517,1.141c-0.359,0.386-0.786,0.77-1.17,1.159
		c-0.674-0.193-1.138,0.078-1.639,0.292c-0.167,0.103,0.225,0.447,0.746,0.85c-0.158,0.259-0.327,0.544-0.489,0.808
		c-0.617-0.214-1.109-0.36-1.072-0.26c-0.079,0.153-0.009,0.496-0.011,0.687c-0.003,0.316,0.101,0.632,0.226,0.95
		c-0.095,0.161-0.187,0.326-0.295,0.471c-0.329,0.444-0.766,1.125-1.082,1.578c-0.803,1.154-2.813,2.218-3.556,3.086
		c-0.844,0.985-3.435,4.095-3.435,1.396c0-0.688-0.181-3.399,0.036-4.795c0.085-0.546,0.556-1.27,0.816-1.757
		c0.656-1.228,1.659-2.099,2.616-3.137c0.375-0.406,1.058-0.963,1.454-1.348c0.41-0.4,0.55-0.545,1.721,0.478
		c0.458,0.4,0.813,1.102,1.255,1.608c0.363,0.416,0.809,0.11,0.647-0.417c-0.339-1.102-1.159-1.828-1.946-2.786
		c-0.836-1.016,0.477-1.679,1.209-2.458c0.378-0.402,0.843-1.07,1.289-1.396c0.665-0.486,1.18-1.025,1.884-1.406
		c0.486-0.263,1.186-0.726,1.697-0.936c0.67-0.275,1.642-0.552,2.34-0.893c0.496-0.242,0.337-0.6-0.207-0.501
		c-1.048,0.19-2.013,0.624-3.063,0.88c-0.536,0.131-0.975-0.245-0.641-0.516c0.233-0.189,0.079-0.426-0.189-0.451
		c0.075-0.168,0.149-0.336,0.188-0.503c0.054-0.232,0.276-0.445,0.388-0.67c0.135-0.155,0.301-0.522,0.331-0.697
		c0.151-0.241,0.389-0.38,0.671-0.511c-0.178-0.007-0.54,0.204-0.723,0.266c-0.323,0.11-0.555,0.132-0.883,0.164
		c-0.708,0.068-1.414,0.267-2.116,0.444c-1.113,0.282-2.236,0.687-3.295,1.127c-0.513,0.214-0.934,0.428-1.282,0.805
		c-0.486,0.527-0.441,1.069-0.469,1.619c0.051,0.501,3.135-1.603,3.347-1.18c-0.167,0.194-2.715,2.501-2.45,2.526
		c0.103,0.138,0.442,0.226,0.613,0.312c0.426,0.213,0.954,0.213,1.476,0.251c0.068,0.005,0.139-0.005,0.208-0.007
		c-2.245,2.115-4.127,3.99-6.392,5.938c-0.419,0.36-0.767,0.2-0.767-0.353c0.001-1.49,0.077-2.935,0.9-4.025
		c0.333-0.441,0.915-1.126,1.38-1.425c0.479-0.309,1.058-0.463,1.496-0.775c0.449-0.321,0.129-0.81-0.415-0.713
		c-1.152,0.207-1.781,0.776-2.646,1.189c-0.498,0.238-0.945-0.113-0.95-0.666c-0.021-2.444,0.03-4.994,1.538-6.602
		c0.378-0.403,0.74-1.119,1.002-1.605c0.717-1.327,2.874-1.906,4.282-2.867c-0.003,0.067-0.005,0.134-0.008,0.202
		c0.036,0.354,2.215-1.133,2.365-0.834c-0.118,0.137-1.918,1.766-1.73,1.784c0.073,0.098,0.312,0.16,0.433,0.22
		c0.301,0.15,0.674,0.151,1.042,0.177c0.387,0.028,0.828-0.124,1.202-0.278c0.434-0.166,0.697-0.607,0.908-0.899
		c0.32-0.442,0.587-0.937,0.768-1.407c0.072-0.186,0.179-0.376,0.223-0.563c0.038-0.164,0.195-0.314,0.274-0.473
		c0.095-0.11,0.212-0.369,0.234-0.492c0.107-0.17,0.275-0.268,0.474-0.361c-0.125-0.005-0.382,0.144-0.51,0.188
		c-0.228,0.078-0.392,0.093-0.623,0.116c-0.5,0.048-0.999,0.188-1.495,0.314c-0.786,0.199-1.579,0.485-2.327,0.796
		c-0.198,0.083-0.374,0.17-0.535,0.272c-0.116-0.073-0.281-0.102-0.476-0.059c-0.262,0.058-0.543,0.134-0.822,0.218
		c0.004-0.023,0.008-0.049,0.011-0.07c0.095-0.545,0.117-1.115,0.073-1.624c-0.017-0.202-0.004-0.422-0.048-0.612
		c-0.038-0.167,0.038-0.373,0.039-0.553c0.038-0.142,0.029-0.43-0.006-0.553c0.021-0.203,0.131-0.367,0.271-0.54
		c-0.117,0.051-0.284,0.301-0.381,0.398c-0.173,0.173-0.315,0.26-0.516,0.383c-0.434,0.266-0.826,0.616-1.222,0.951
		c-0.628,0.531-1.223,1.145-1.766,1.762c-0.263,0.299-0.466,0.569-0.572,0.921c-0.108,0.362-0.028,0.638,0.083,0.903
		c-0.428,0.203-0.962,0.407-1.433,0.558c-0.526,0.168-0.975-0.214-1-0.766c-0.076-1.703-0.223-3.819,0.647-5.001
		c0.327-0.445,0.816-1.099,1.136-1.55c0.547-0.772,1.548-1.605,2.063-2.07c0.631-0.568,1.34-0.346,1.939-0.328
		c0.552,0.016,0.549-0.52,0.16-0.763c-0.389-0.243-0.298-0.792,0.139-1.131c0.344-0.266,0.687-0.544,0.965-0.84
		c0.378-0.403,0.08-0.838-0.445-0.668c-2.181,0.707-4.417,3.519-6.102,5.309c-0.379,0.402-0.712,0.263-0.729-0.289
		c-0.05-1.673-0.129-4.768,0.21-6.222c0.125-0.538,0.608-1.232,0.83-1.738c0.371-0.846,0.876-1.57,1.222-2.452
		c0.202-0.514-0.154-0.799-0.512-0.379c-0.475,0.557-0.884,1.383-1.251,1.96c-0.297,0.466-0.701,0.22-0.701-0.332
		c0-1.499,0-2.999,0-4.496c0-1.039,0.35-1.793,0.551-2.676c0.123-0.538-0.178-0.993-0.402-0.754
		c-0.195,0.207-0.301,0.042-0.299-0.362c0.043,0.107,0.09,0.212,0.136,0.318c0.19,0.307,1.514-2.018,1.783-1.812
		c-0.047,0.177-0.961,2.463-0.782,2.396c0.11,0.057,0.355,0.007,0.492,0.008c0.341,0.003,0.681-0.163,1.028-0.303
		c0.365-0.147,0.699-0.482,0.972-0.788c0.322-0.345,0.365-0.863,0.427-1.223c0.095-0.545,0.117-1.115,0.073-1.624
		c-0.017-0.202-0.004-0.422-0.048-0.612c-0.038-0.167,0.038-0.373,0.039-0.553c0.038-0.142,0.029-0.43-0.006-0.553
		c0.021-0.203,0.131-0.367,0.271-0.54c-0.117,0.051-0.284,0.301-0.381,0.398c-0.173,0.173-0.315,0.26-0.516,0.383
		c-0.434,0.266-0.826,0.616-1.222,0.951c-0.628,0.531-1.223,1.145-1.766,1.762c-0.216,0.246-0.377,0.482-0.491,0.75
		c-0.029-0.462-0.13-0.887-0.417-1.144c-0.287,0.257-0.388,0.682-0.417,1.144c-0.114-0.268-0.275-0.505-0.491-0.751
		c-0.543-0.616-1.138-1.23-1.766-1.762c-0.396-0.335-0.788-0.685-1.222-0.951c-0.201-0.123-0.343-0.21-0.516-0.383
		c-0.098-0.097-0.265-0.347-0.381-0.398c0.14,0.173,0.25,0.337,0.271,0.54c-0.035,0.122-0.044,0.41-0.006,0.553
		c0.001,0.18,0.078,0.387,0.039,0.553c-0.044,0.19-0.03,0.411-0.048,0.612c-0.044,0.509-0.021,1.079,0.073,1.624
		c0.062,0.36,0.105,0.878,0.427,1.223c0.273,0.306,0.607,0.641,0.972,0.788c0.348,0.14,0.687,0.306,1.028,0.303
		c0.137-0.001,0.383,0.049,0.492-0.008c0.179,0.067-0.735-2.218-0.782-2.396c0.269-0.206,1.593,2.119,1.783,1.812
		c0.046-0.107,0.093-0.212,0.136-0.318c0.002,0.404-0.104,0.569-0.299,0.362c-0.224-0.239-0.525,0.216-0.402,0.754
		c0.201,0.883,0.551,1.637,0.551,2.676c0,1.497,0,2.997,0,4.496c0,0.552-0.404,0.797-0.701,0.332
		c-0.368-0.577-0.776-1.402-1.251-1.96c-0.358-0.42-0.714-0.135-0.512,0.379c0.346,0.881,0.851,1.606,1.222,2.452
		c0.222,0.506,0.705,1.2,0.83,1.738c0.339,1.455,0.26,4.55,0.21,6.222c-0.017,0.552-0.35,0.691-0.729,0.289
		c-1.685-1.789-3.921-4.601-6.102-5.309c-0.525-0.17-0.823,0.265-0.445,0.668c0.278,0.296,0.621,0.574,0.965,0.84
		c0.437,0.338,0.528,0.888,0.139,1.131c-0.389,0.243-0.392,0.779,0.16,0.763c0.599-0.018,1.308-0.24,1.939,0.328
		c0.515,0.464,1.516,1.298,2.063,2.07c0.319,0.451,0.808,1.105,1.136,1.55c0.869,1.181,0.723,3.297,0.647,5.001
		c-0.025,0.552-0.473,0.933-1,0.766c-0.472-0.151-1.005-0.355-1.433-0.558c0.111-0.265,0.191-0.541,0.083-0.903
		c-0.105-0.351-0.309-0.622-0.572-0.921c-0.543-0.616-1.138-1.23-1.766-1.762c-0.396-0.335-0.788-0.685-1.222-0.951
		c-0.201-0.123-0.343-0.21-0.516-0.383c-0.098-0.097-0.265-0.347-0.381-0.398c0.14,0.173,0.25,0.337,0.271,0.54
		c-0.035,0.122-0.044,0.41-0.006,0.553c0.001,0.18,0.078,0.387,0.039,0.553c-0.044,0.19-0.03,0.411-0.048,0.612
		c-0.044,0.509-0.021,1.079,0.073,1.624c0.004,0.021,0.008,0.048,0.011,0.07c-0.278-0.083-0.56-0.159-0.822-0.218
		c-0.195-0.043-0.361-0.014-0.476,0.059c-0.161-0.102-0.337-0.189-0.535-0.272c-0.748-0.311-1.541-0.597-2.327-0.796
		c-0.496-0.126-0.995-0.266-1.495-0.314c-0.231-0.022-0.395-0.038-0.623-0.116c-0.129-0.044-0.385-0.193-0.51-0.188
		c0.199,0.092,0.368,0.19,0.474,0.361c0.022,0.124,0.139,0.383,0.234,0.492c0.079,0.159,0.236,0.309,0.274,0.473
		c0.044,0.187,0.151,0.377,0.223,0.563c0.181,0.47,0.448,0.965,0.768,1.407c0.211,0.292,0.474,0.733,0.908,0.899
		c0.374,0.153,0.815,0.305,1.202,0.278c0.369-0.026,0.741-0.027,1.042-0.177c0.12-0.06,0.36-0.122,0.433-0.22
		c0.188-0.018-1.612-1.647-1.73-1.784c0.15-0.299,2.329,1.188,2.365,0.834c-0.003-0.068-0.006-0.135-0.008-0.202
		c1.408,0.961,3.565,1.54,4.282,2.867c0.262,0.486,0.624,1.202,1.002,1.605c1.509,1.608,1.56,4.157,1.538,6.602
		c-0.005,0.552-0.451,0.904-0.95,0.666c-0.865-0.413-1.493-0.983-2.646-1.189c-0.544-0.098-0.864,0.392-0.415,0.713
		c0.438,0.312,1.017,0.467,1.496,0.775c0.464,0.299,1.047,0.984,1.38,1.425c0.823,1.09,0.9,2.536,0.9,4.025
		c0,0.552-0.348,0.713-0.767,0.353c-2.265-1.948-4.147-3.823-6.392-5.938c0.069,0.002,0.141,0.012,0.208,0.007
		c0.522-0.037,1.05-0.038,1.476-0.251c0.171-0.085,0.51-0.173,0.613-0.312c0.266-0.025-2.282-2.332-2.45-2.526
		c0.212-0.423,3.297,1.682,3.347,1.18c-0.028-0.55,0.017-1.092-0.469-1.619c-0.347-0.376-0.769-0.591-1.282-0.805
		c-1.059-0.44-2.182-0.846-3.295-1.127c-0.702-0.178-1.409-0.376-2.116-0.444c-0.328-0.032-0.559-0.054-0.883-0.164
		c-0.183-0.062-0.545-0.273-0.723-0.266c0.282,0.131,0.52,0.269,0.671,0.511c0.031,0.175,0.197,0.542,0.331,0.697
		c0.112,0.225,0.334,0.437,0.388,0.67c0.039,0.167,0.113,0.336,0.188,0.503c-0.268,0.024-0.423,0.262-0.189,0.451
		c0.334,0.27-0.104,0.647-0.641,0.516c-1.049-0.256-2.014-0.69-3.063-0.88c-0.543-0.098-0.703,0.259-0.207,0.501
		c0.698,0.341,1.67,0.618,2.34,0.893c0.511,0.21,1.212,0.673,1.697,0.936c0.704,0.381,1.219,0.92,1.884,1.406
		c0.446,0.326,0.911,0.994,1.289,1.396c0.732,0.779,2.045,1.441,1.209,2.458c-0.787,0.957-1.607,1.684-1.946,2.786
		c-0.162,0.528,0.284,0.834,0.647,0.417c0.442-0.507,0.796-1.208,1.255-1.608c1.171-1.024,1.311-0.878,1.721-0.478
		c0.396,0.385,1.08,0.942,1.454,1.348c0.957,1.038,1.96,1.908,2.616,3.137c0.26,0.487,0.731,1.212,0.816,1.757
		c0.217,1.396,0.036,4.107,0.036,4.795c0,2.699-2.591-0.411-3.435-1.396c-0.743-0.868-2.753-1.932-3.556-3.086
		c-0.316-0.453-0.752-1.135-1.082-1.578c-0.108-0.146-0.2-0.31-0.295-0.471c0.125-0.318,0.229-0.634,0.226-0.95
		c-0.002-0.191,0.068-0.534-0.011-0.687c0.038-0.1-0.455,0.046-1.072,0.26c-0.163-0.264-0.331-0.549-0.489-0.808
		c0.521-0.403,0.913-0.746,0.746-0.85c-0.5-0.214-0.965-0.485-1.639-0.292c-0.384-0.389-0.811-0.773-1.17-1.159
		c-0.376-0.405-1.053-0.841-1.517-1.141c-0.712-0.459-1.475-1.28-2.287-1.785c-0.469-0.292-0.912-0.242-0.912-0.052
		s-0.385,0.111-0.892-0.108c-0.06-0.026-0.121-0.05-0.185-0.072c-0.521-0.182-0.68,0.163-0.259,0.52
		c0.499,0.422,1.137,0.955,1.518,1.374c0.371,0.409-0.019,1.019,0.149,1.344c0.167,0.325,0.639,0.008,0.702-0.308
		s0.549-0.433,0.984-0.092c0.615,0.481,1.251,1.203,1.76,1.702c0.202,0.198,0.432,0.457,0.644,0.728
		c-0.806,0.719-1.605,1.496-2.301,2.318c-0.468,0.553-0.957,1.101-1.328,1.706c-0.172,0.28-0.294,0.479-0.535,0.721
		c-0.136,0.137-0.485,0.37-0.556,0.532c0.241-0.196,0.471-0.349,0.754-0.379c0.171,0.049,0.573,0.061,0.772,0.008
		c0.251-0.002,0.54-0.108,0.772-0.055c0.266,0.061,0.573,0.042,0.855,0.067c0.711,0.061,1.507,0.03,2.267-0.102
		c0.503-0.087,1.227-0.147,1.708-0.596c0.063-0.056,0.127-0.118,0.191-0.177c0.244,0.513,0.346,0.829-0.562,1.176
		c-0.603,0.232-1.285,0.885-1.892,1.317c-0.45,0.32-1.108,0.825-1.565,1.136c-0.623,0.424-1.444,0.621-2.016,1.176
		c-0.396,0.385-0.064,0.829,0.434,0.59c0.218-0.105,0.425-0.228,0.627-0.34c0.483-0.268,0.905,0.039,0.72,0.467
		s0.122,0.78,0.242,0.865c0.12,0.086,0.364-0.246,0.617-0.736c0.966-1.867,2.744-3.907,5.024-3.026
		c1.086,0.419,1.927,1.925,2.738,2.706c1.139,1.103,2.301,2.193,3.271,3.455c0.51,0.663,0.872,1.381,1.132,2.138
		c-1.227-0.507-2.522-0.974-3.808-1.3c-0.829-0.21-1.664-0.444-2.499-0.525c-0.387-0.037-0.661-0.063-1.042-0.194
		c-0.215-0.074-0.643-0.323-0.853-0.314c0.333,0.154,0.615,0.318,0.793,0.603c0.036,0.207,0.232,0.64,0.391,0.823
		c0.132,0.266,0.395,0.516,0.459,0.791c0.073,0.313,0.252,0.63,0.373,0.942c0.303,0.786,0.75,1.614,1.284,2.352
		c0.353,0.488,0.792,1.225,1.518,1.503c0.625,0.256,1.363,0.511,2.01,0.464c0.616-0.044,1.24-0.045,1.743-0.296
		c0.055-0.028,0.126-0.056,0.201-0.085c-0.044,1.723-0.238,3.499-0.301,5.221c-0.02,0.552-0.382,0.733-0.788,0.359
		c-1.636-1.505-2.537-3.291-4.206-4.885c-0.399-0.382-0.999-1.034-1.333-1.474c-0.487-0.641-0.849-0.854-2.025-0.841
		c-0.45,0.005-0.622-0.116-0.695-0.269c-0.188-0.392-0.355-1.043-0.281-1.59c0.032-0.234,0.067-0.479,0.095-0.753
		c0.056-0.549-0.367-0.819-0.766-0.437c-0.488,0.468-1.007,1.14-1.342,1.717c-0.277,0.478-0.066,0.929,0.248,0.788
		c0.314-0.141,0.603,0.001,0.765,0.369c0.162,0.368-0.219,0.638-0.743,0.465c-0.771-0.255-1.455-0.592-2.4-0.338
		c-0.622,0.169-1.209,0.385-1.823,0.43c-0.551,0.041-1.15-0.441-1.562-0.326c-0.413,0.115-0.837-0.232-1.157-0.174
		c-0.319,0.058-0.277,0.525,0.189,0.822c0.255,0.162,0.542,0.316,0.816,0.439c0.504,0.227,1.212,0.744,0.951,1.231
		c-0.036,0.068-0.068,0.126-0.1,0.186c0.007-0.044,0-0.083-0.04-0.107c-0.625-0.267-1.202-0.611-2.05-0.357
		c-0.605,0.182-1.072,0.532-1.587,0.986c-1.063,0.936-2.121,1.962-3.037,3.044c-0.578,0.682-1.181,1.359-1.64,2.107
		c-0.213,0.346-0.363,0.591-0.66,0.89c-0.092,0.092-0.259,0.219-0.408,0.349c-0.472-0.352-0.908-0.765-1.23-1.21
		c-0.324-0.447-0.85-1.109-1.087-1.608c-0.171-0.358-0.352-0.779-0.6-1.093c-0.343-0.433-0.801-0.019-0.668,0.517
		c0.061,0.244,0.134,0.499,0.215,0.729c0.183,0.521,0.235,1.529,0.639,1.494c0.405-0.035-0.083,0.658-0.252,0.79
		c-0.169,0.132-0.558,0.443-0.919,0.862c-0.216,0.25-0.392,0.556-0.474,0.831c-0.159,0.529,0.714,0.416,1.128,0.05
		c1.284-1.132,1.296-0.795,3.153,0.443c1.068,0.716-0.919,2.549-1.739,4.101c-0.258,0.488,0.149,0.886,0.582,0.542
		c0.625-0.496,1.016-1.325,1.66-1.876c0.42-0.359,1.272-0.729,1.823-0.685c0.908,0.073,2.13,0.607,2.909,1.135
		c0.457,0.31,1.146,0.82,1.666,1.009c1.308,0.475,3.122,1.229,4.143,2.112c0.418,0.361,1.075,0.889,1.49,1.254
		c0.594,0.524,1.288,1.369,1.717,2.042c0.297,0.466,0.773,1.171,1.143,1.58c0.366,0.405,0.741,0.906,0.999,1.366
		c0.27,0.482,0.01,1.248-0.386,1.633c-0.871,0.847-1.841,1.733-2.886,2.102c-0.521,0.184-1.254,0.469-1.643,0.777
		c-0.389,0.308-0.842,0.978-1.005,1.505c-0.109,0.354-0.219,0.708-0.328,1.062c-0.163,0.528,0.136,0.82,0.555,0.46
		c0.729-0.625,1.641-1.658,2.226-1.988c0.481-0.271,1.088,0.423,1.507,0.063c0.022-0.019,0.043-0.038,0.064-0.058
		c0.406-0.374,0.826-0.049,0.802,0.503c-0.025,0.584-0.028,1.27,0.103,1.765c0.142,0.534,0.698,1.025,0.424,1.028
		s-0.569,0.312-0.751,0.833c-0.153,0.438-0.342,0.862-0.567,1.272c-0.244,0.469-0.544,0.927-0.749,1.383
		c-0.227,0.503-0.667,1.021-0.534,1.335s0.631,0.456,0.874,0.115s0.753-0.081,0.916,0.447c0.597,1.93-0.173,2.733-2.493,2.733
		c-0.451,0-2.44,0.622-3.539,1.202c-0.488,0.258-1.18,0.58-1.732,0.552c-1.021-0.052-2.474-0.093-3.395-0.238
		c-0.546-0.086-1.321-0.44-1.842-0.622c-0.41-0.143-0.871-0.332-1.249-0.522c-0.493-0.248-1.238-0.601-1.708-0.891
		c-0.909-0.56-1.615-1.789-2.477-2.371c-0.458-0.309-1.215-0.664-1.58-1.079c-0.782-0.887-1.738-1.831-2.734-2.239
		c-0.511-0.21-0.889,0.057-0.639,0.266c0.25,0.209,0.047,0.395-0.332,0.331c-0.379-0.063-0.72,0.422-0.278,0.753
		c0.512,0.384,1.406,0.432,2.078,0.757c0.497,0.241,1.068,0.952,1.442,1.358c0.401,0.434,0.706,0.841,1.127,1.208
		c0.133,0.115,0.286,0.244,0.441,0.377c-0.209-0.011-0.43,0.003-0.678,0.077c-0.605,0.182-1.072,0.532-1.587,0.986
		c-1.063,0.936-2.121,1.962-3.037,3.044c-0.578,0.682-1.181,1.359-1.64,2.107c-0.213,0.346-0.363,0.591-0.66,0.89
		c-0.168,0.169-0.599,0.456-0.687,0.658c0.298-0.242,0.581-0.431,0.931-0.468c0.211,0.061,0.708,0.076,0.953,0.01
		c0.31-0.002,0.667-0.134,0.954-0.068c0.328,0.075,0.708,0.052,1.056,0.082c0.878,0.076,1.86,0.036,2.8-0.127
		c0.621-0.108,1.514-0.181,2.109-0.736c0.528-0.47,1.105-1.046,1.359-1.675c0.242-0.599,0.527-1.185,0.522-1.773
		c-0.001-0.092,0.011-0.214,0.021-0.338c0.204-0.109,0.421-0.152,0.625-0.072c0.451,0.177,0.904,0.511,1.361,0.815
		c0.46,0.306,0.812,0.942,0.612,1.457c-0.7,1.796-2.409,3.01-2.847,5.144c-0.111,0.541,0.374,0.96,0.798,0.606
		c0.478-0.399,0.889-1.044,1.138-1.626c0.217-0.508,0.597-1.247,1.002-1.622c0.528-0.489,1.215-1.145,1.728-1.636
		c0.399-0.381,1.165-0.825,1.716-0.794c0.964,0.055,2.092,0.455,3.061,0.666c0.54,0.118,0.889,0.575,0.549,1.01
		c-0.284,0.363-0.667,0.748-1.036,1.062c-0.42,0.358-0.902,1.017-1.085,1.538c-0.198,0.563-0.424,1.08-0.549,1.708
		c-0.107,0.542,0.406,0.943,0.717,0.487c0.42-0.614,0.66-1.652,1.158-2.329c0.327-0.445,0.793-0.153,0.787,0.4
		c-0.003,0.313,0.009,0.604,0.099,0.83c0.204,0.513,0.791,0.014,0.782-0.539c-0.015-0.873,0.029-1.781,0.404-2.544
		c0.114-0.233,0.345-0.419,0.555-0.604c0.343-0.3,0.858-0.492,1.384-0.324c1.385,0.444,3.679,1.078,4.806,1.718
		c0.48,0.273,1.122,0.726,1.63,0.942c0.767,0.325,1.629,0.92,1.928,1.499c0.151,0.29,0.534,1.291,0.965,1.964
		c0.298,0.465,0.88,1.061,1.101,1.568c0.373,0.856,0.931,2.095,1.251,2.941c0.196,0.517,0.199,1.389,0.287,1.935
		c0.228,1.42,0.855,2.465,0.777,4.104c-0.032,0.664-0.127,4.078,0.133,5.711c0.087,0.545,0.381,1.322,0.381,1.874
		c0,2.429,0,4.569,0,7.092c0,4.869-1.205,9.768-1.357,14.73c-0.017,0.552,0.102,1.397-0.062,1.924
		c-0.265,0.849-0.809,2.104-1.18,2.964c-0.219,0.507-0.699,1.23-0.876,1.753c-0.183,0.541-0.353,1.255-0.474,1.85
		c-0.11,0.541-0.366,1.381-0.673,1.841c-0.146,0.219-0.308,0.453-0.465,0.669c-0.325,0.447-0.826,1.122-1.217,1.391
		c-0.391,0.269-1.045,0.671-1.465,1.029c-0.932,0.794-2.317,1.326-3.455,1.44c-1.055,0.104-3.602,1.253-4.494,2.618
		c-0.302,0.462-0.646,1.237-1.06,1.603c-1.666,1.477-3.831,3.368-4.388,5.44c-0.143,0.533,0.316,0.944,0.831,0.743
		c1.929-0.752,3.312-2.898,4.712-4.342c0.384-0.397,0.749-1.172,1.137-1.566c0.535-0.542,1.494-0.884,2.191-1.149
		c0.516-0.196,1.295-0.48,1.83-0.62c1.53-0.399,3.023-1.569,4.443-1.998c0.529-0.16,0.784,0.241,0.568,0.749
		c-0.647,1.522-1.732,4.329-2.346,5.76c-0.218,0.508-0.48,1.344-0.367,1.884c0.451,2.163,2.74-2.843,3.783-4.939
		c0.246-0.494,0.651-1.296,1.074-1.651c0.297-0.249,0.667-0.496,1.012-0.687c0.483-0.268,1.214-0.704,1.575-1.122
		c0.533-0.617,1.275-1.474,1.78-2.096c0.348-0.429,0.547-0.358,0.567,0.194c0.068,1.894,0.298,3.775,0.362,5.871
		c0.047,1.576-0.041,3.199,0.123,4.764c0.036,0.343,0.186,0.647,0.331,0.94c0.151,0.305,0.403,0.52,0.637,0.53
		c0.234-0.009,0.486-0.225,0.637-0.53c0.146-0.293,0.295-0.597,0.331-0.94c0.164-1.565,0.076-3.188,0.123-4.764
		c0.064-2.097,0.295-3.977,0.362-5.871c0.02-0.552,0.219-0.623,0.567-0.194c0.505,0.623,1.247,1.48,1.78,2.096
		c0.361,0.418,1.092,0.854,1.575,1.122c0.345,0.191,0.715,0.438,1.012,0.687c0.423,0.355,0.828,1.156,1.074,1.651
		c1.043,2.096,3.332,7.101,3.783,4.939c0.113-0.541-0.149-1.377-0.367-1.884c-0.614-1.431-1.699-4.238-2.346-5.76
		c-0.216-0.508,0.04-0.909,0.568-0.749c1.421,0.429,2.913,1.599,4.443,1.998c0.534,0.139,1.314,0.423,1.83,0.62
		c0.697,0.265,1.656,0.607,2.191,1.149c0.388,0.393,0.752,1.169,1.137,1.566c1.4,1.445,2.783,3.59,4.712,4.342
		c0.515,0.201,0.974-0.21,0.831-0.743C124.562,187.408,122.396,185.516,120.73,184.039z M131.606,113.632
		c0.929,0.809,2.988,2.113,2.729,2.452c-0.178-0.047-1.585-0.599-2.709-0.993c-0.054-0.117-0.108-0.234-0.159-0.354
		C131.306,114.353,131.396,113.981,131.606,113.632z M113.783,56.163c0.228,0.211,0.359,0.381,0.292,0.469
		c-0.051-0.013-0.231-0.08-0.477-0.172C113.664,56.359,113.72,56.265,113.783,56.163z M106.201,34.683
		c-0.019,0.072-0.18,0.489-0.353,0.955c-0.017-0.003-0.037,0.002-0.053-0.003c-0.169-0.046-0.386,0.022-0.615,0.124
		C105.598,35.205,106.055,34.571,106.201,34.683z M102.992,38.477c0.201-0.228,0.452-0.403,0.73-0.56
		c-0.091,0.156-0.281,0.477-0.49,0.77C102.939,39.096,102.655,38.859,102.992,38.477z M95.954,35.635
		c-0.016,0.004-0.036-0.001-0.053,0.003c-0.173-0.466-0.334-0.883-0.353-0.955c0.146-0.112,0.603,0.522,1.021,1.077
		C96.34,35.657,96.123,35.589,95.954,35.635z M98.518,38.686c-0.209-0.293-0.399-0.614-0.49-0.77c0.278,0.157,0.529,0.332,0.73,0.56
		C99.095,38.859,98.811,39.096,98.518,38.686z M87.675,56.632c-0.067-0.088,0.064-0.259,0.292-0.469
		c0.063,0.102,0.119,0.196,0.185,0.297C87.906,56.552,87.726,56.619,87.675,56.632z M70.283,114.737
		c-0.051,0.12-0.105,0.237-0.159,0.354c-1.124,0.394-2.531,0.946-2.709,0.993c-0.259-0.339,1.8-1.643,2.729-2.452
		C70.354,113.981,70.444,114.353,70.283,114.737z M94.777,79.108c0.254,0.49,0.637,1.221,0.993,1.643
		c0.781,0.924,1.673,2.442,2.06,3.6c0.175,0.524-0.191,0.748-0.613,0.393c-0.962-0.809-2.029-2.065-2.648-3.097
		c-0.284-0.474-0.766-1.113-0.894-1.586c-0.128-0.473-0.466-1.149-0.69-1.654c-0.472-1.067-1.543-2.154-2.06-3.152
		C91.945,76.046,94.031,77.671,94.777,79.108z M90.798,73.862c0.27,0.191,0.108,0.386-0.16,0.207
		C90.371,73.891,90.528,73.671,90.798,73.862z M83.083,87.165c-1.033-0.314-2.529-0.889-3.456-1.321
		c-0.5-0.234-1.277-0.619-1.804-0.784c-0.782-0.245-1.652-0.592-2.265-1.053c-0.441-0.332-1.103-0.848-1.592-1.104
		c-0.25-0.131-0.495-0.292-0.735-0.466c0.18-0.111,0.366-0.193,0.578-0.215c0.211,0.061,0.708,0.076,0.953,0.01
		c0.31-0.002,0.667-0.134,0.954-0.068c0.328,0.075,0.708,0.052,1.056,0.082c0.878,0.076,1.86,0.036,2.8-0.127
		c0.621-0.108,1.514-0.181,2.109-0.736c0.033-0.029,0.066-0.062,0.099-0.092c0.305,0.618,0.493,1.222,0.162,1.707
		c-0.38,0.556-1.033,1.169-1.437,1.858c-0.279,0.476,0.134,0.879,0.549,0.514c0.107-0.094,0.205-0.193,0.303-0.287
		c0.399-0.382,0.767-0.246,0.705,0.009c-0.062,0.255,0.467,0.649,0.683,0.255c0.216-0.394,0.538-0.276,0.713,0.248
		c0.095,0.283,0.189,0.567,0.284,0.85C83.914,86.968,83.611,87.326,83.083,87.165z M82.743,81.35
		c-0.128-0.212-0.246-0.435-0.365-0.656c0.276-0.307,0.519-0.636,0.659-0.985c0.242-0.599,0.527-1.185,0.522-1.773
		c-0.002-0.236,0.085-0.66-0.013-0.849c0.116-0.308-3.825,1.268-4.13,1.349c-0.307-0.403,2.659-2.169,3.111-2.846
		c-0.147,0.44,0.694,0.123,0.782-0.404c0.04-0.236,0.092-0.428,0.207-0.565c0.356-0.422,1.205-0.166,1.542-0.181
		c0.337-0.015,1.079-0.141,1.558,0.133c0.064,0.036,0.123,0.075,0.181,0.113c0.462,0.303,1.168,0.725,1.639,1.014
		c0.214,0.132,0.429,0.26,0.594,0.456c0.356,0.422,0.714,1.129,0.949,1.629c0.234,0.498,0.425,1.179,0.552,1.753
		c0.119,0.539-0.282,0.988-0.834,1.013c-1.611,0.074-4.169,0.32-5.542,0.979C83.658,81.767,83.027,81.823,82.743,81.35z
		 M86.805,115.912c0,0.19-0.368,0.272-0.798,0.098s-0.558-0.529-0.075-0.512c0.336,0.012,0.699,0.07,0.872,0.07
		C86.805,115.684,86.805,115.798,86.805,115.912z M89.76,117.055c-0.421-0.159-0.906-0.343-1.319-0.494
		c-0.519-0.19-0.933-0.47-0.826-0.423c0.052,0.023,0.099,0.054,0.104-0.117c0.457,0.083,1.57,0.343,2.298,0.706
		C90.512,116.973,90.277,117.25,89.76,117.055z M97.357,114.753c-0.039-0.273-0.062-0.578-0.095-0.854
		c-0.066-0.548-0.357-1.335-0.661-1.796c-0.261-0.395-0.657-0.633-0.984-0.643c-0.552-0.018-1.084,0.586-1.507,0.942
		c-0.195,0.164-0.301,0.358-0.59,0.444c-0.529,0.159-1.27-0.376-1.615-0.808c-0.525-0.656-1.049-1.314-1.574-1.969
		c-0.546-0.684-2.904-3.665-0.55-3.665c-0.02-1.292-0.371-2.805,0.125-4.051c0.065-0.164,0.837-1.308,1.386-1.671
		c0.461-0.304,1.02,0.581,1.352,1.022c0.325,0.432,0.501,1.01,0.789,1.485c0.286,0.472,0.758,1.151,1.062,1.612
		c0.105,0.16,0.223,0.321,0.335,0.485c0.311,0.456,0.834,1.147,1.096,1.633c0.452,0.838,0.743,2.102,0.841,2.691
		c0.251,1.509,0.879,3.035,1.01,4.958C97.816,115.119,97.435,115.3,97.357,114.753z M95.508,98.844
		c0.333,0.016,0.578,0.084,0.735,0.207c0.338,0.263-0.216,0.78-0.469,0.466C95.651,99.363,95.562,99.139,95.508,98.844z
		 M97.844,93.642c-0.688,2.045-3.107,2.911-4.814,1.758c-0.458-0.309-1.156-0.831-1.535-1.233c-0.985-1.044-2.331-3.244-2.973-3.795
		c-0.582-0.5-1.613-2.593-2.383-3.685c-0.318-0.451-0.738-1.143-1.072-1.582c-0.223-0.294-0.506-0.57-0.716-0.896
		c-0.299-0.464,0.146-1.01,0.686-1.13c1.226-0.272,3.14-0.739,3.14-0.725c1.354,0.052,4.092,0.359,4.693,1.825
		c0.313,0.763,0.965,1.673,1.643,2.346c0.392,0.389,0.911,1.063,1.153,1.56c0.502,1.032,1.375,2.675,1.908,3.686
		C97.832,92.26,98.021,93.118,97.844,93.642z M96.665,71.263c0.136-0.272,1.275,0.339,2.297,0.858
		c0.047,0.473,0.073,0.954,0.08,1.441C98.237,72.731,96.8,71.419,96.665,71.263z M102.788,72.121
		c1.021-0.519,2.161-1.13,2.297-0.858c-0.135,0.156-1.572,1.468-2.377,2.299C102.715,73.075,102.741,72.594,102.788,72.121z
		 M114.945,115.568c0.174,0,0.536-0.058,0.872-0.07c0.484-0.017,0.355,0.338-0.075,0.512s-0.798,0.092-0.798-0.098
		C114.945,115.798,114.945,115.684,114.945,115.568z M114.031,116.021c0.005,0.171,0.053,0.14,0.104,0.117
		c0.107-0.048-0.307,0.233-0.826,0.423c-0.413,0.151-0.898,0.335-1.319,0.494c-0.517,0.195-0.752-0.082-0.258-0.328
		C112.461,116.365,113.573,116.105,114.031,116.021z M111.418,110.069c-0.524,0.655-1.049,1.312-1.574,1.969
		c-0.345,0.431-1.086,0.966-1.615,0.808c-0.288-0.087-0.395-0.28-0.59-0.444c-0.423-0.355-0.955-0.959-1.507-0.942
		c-0.327,0.01-0.723,0.248-0.984,0.643c-0.304,0.461-0.596,1.248-0.661,1.796c-0.033,0.276-0.056,0.581-0.095,0.854
		c-0.078,0.547-0.458,0.366-0.42-0.185c0.131-1.923,0.76-3.449,1.01-4.958c0.098-0.589,0.389-1.853,0.841-2.691
		c0.262-0.486,0.785-1.177,1.096-1.633c0.112-0.165,0.229-0.326,0.335-0.485c0.304-0.461,0.776-1.14,1.062-1.612
		c0.289-0.476,0.465-1.053,0.789-1.485c0.332-0.442,0.891-1.326,1.352-1.022c0.549,0.363,1.321,1.507,1.386,1.671
		c0.496,1.246,0.144,2.759,0.125,4.051C114.322,106.404,111.965,109.386,111.418,110.069z M105.507,99.051
		c0.158-0.123,0.403-0.192,0.735-0.207c-0.054,0.295-0.143,0.519-0.267,0.673C105.722,99.83,105.168,99.314,105.507,99.051z
		 M124.98,82.246c0.348-0.03,0.728-0.007,1.056-0.082c0.287-0.066,0.643,0.066,0.954,0.068c0.245,0.065,0.742,0.05,0.953-0.01
		c0.211,0.022,0.397,0.104,0.578,0.215c-0.24,0.173-0.485,0.335-0.735,0.466c-0.489,0.256-1.151,0.772-1.592,1.104
		c-0.613,0.461-1.483,0.809-2.265,1.053c-0.527,0.165-1.304,0.55-1.804,0.784c-0.927,0.433-2.422,1.007-3.456,1.321
		c-0.528,0.161-0.831-0.197-0.656-0.721c0.095-0.283,0.189-0.567,0.284-0.85c0.175-0.524,0.496-0.642,0.713-0.248
		c0.216,0.394,0.745,0,0.683-0.255c-0.062-0.255,0.306-0.391,0.705-0.009c0.098,0.094,0.196,0.194,0.303,0.287
		c0.415,0.364,0.829-0.038,0.549-0.514c-0.404-0.689-1.057-1.302-1.437-1.858c-0.331-0.485-0.143-1.089,0.162-1.707
		c0.033,0.03,0.066,0.063,0.099,0.092c0.594,0.555,1.488,0.628,2.109,0.736C123.12,82.283,124.102,82.322,124.98,82.246z
		 M111.77,77.783c0.235-0.5,0.593-1.206,0.949-1.629c0.165-0.196,0.38-0.324,0.594-0.456c0.471-0.289,1.177-0.711,1.639-1.014
		c0.058-0.038,0.117-0.076,0.181-0.113c0.479-0.274,1.221-0.149,1.558-0.133c0.337,0.015,1.187-0.241,1.542,0.181
		c0.116,0.137,0.167,0.329,0.207,0.565c0.089,0.527,0.929,0.845,0.782,0.404c0.452,0.677,3.418,2.444,3.111,2.846
		c-0.306-0.081-4.246-1.657-4.13-1.349c-0.098,0.189-0.011,0.613-0.014,0.849c-0.005,0.588,0.28,1.174,0.522,1.773
		c0.14,0.349,0.383,0.678,0.659,0.985c-0.119,0.221-0.237,0.444-0.365,0.656c-0.285,0.473-0.915,0.417-1.413,0.178
		c-1.373-0.66-3.931-0.905-5.542-0.979c-0.552-0.025-0.953-0.474-0.834-1.013C111.345,78.962,111.536,78.281,111.77,77.783z
		 M110.952,73.862c0.27-0.191,0.427,0.029,0.16,0.207C110.844,74.247,110.682,74.052,110.952,73.862z M103.919,84.352
		c0.388-1.159,1.279-2.676,2.06-3.6c0.356-0.422,0.739-1.153,0.993-1.643c0.746-1.438,2.832-3.062,3.85-3.854
		c-0.516,0.998-1.588,2.085-2.06,3.152c-0.223,0.505-0.562,1.181-0.69,1.654c-0.128,0.473-0.61,1.113-0.894,1.586
		c-0.618,1.032-1.686,2.288-2.648,3.097C104.11,85.1,103.744,84.876,103.919,84.352z M104.176,91.771
		c0.533-1.011,1.406-2.654,1.908-3.686c0.241-0.497,0.76-1.171,1.153-1.56c0.678-0.672,1.33-1.583,1.643-2.346
		c0.601-1.467,3.339-1.773,4.693-1.825c0-0.013,1.914,0.453,3.14,0.725c0.539,0.12,0.985,0.666,0.686,1.13
		c-0.21,0.326-0.493,0.602-0.716,0.896c-0.334,0.44-0.754,1.131-1.072,1.582c-0.77,1.092-1.801,3.185-2.383,3.685
		c-0.642,0.551-1.988,2.751-2.973,3.795c-0.379,0.402-1.077,0.924-1.535,1.233c-1.707,1.153-4.126,0.287-4.814-1.758
		C103.729,93.118,103.918,92.26,104.176,91.771z"/>
</g>
</svg>
