<?xml version="1.0" encoding="iso-8859-1"?>
<!-- Generator: Adobe Illustrator 17.1.0, SVG Export Plug-In . SVG Version: 6.00 Build 0)  -->
<!DOCTYPE svg PUBLIC "-//W3C//DTD SVG 1.1//EN" "http://www.w3.org/Graphics/SVG/1.1/DTD/svg11.dtd">
<svg version="1.1" id="Capa_1" xmlns="http://www.w3.org/2000/svg" xmlns:xlink="http://www.w3.org/1999/xlink" x="0px" y="0px"
	 viewBox="0 0 150 150" style="enable-background:new 0 0 150 150;" xml:space="preserve">
<g>
	<path d="M74.398,145.836c2.191,0,4.409-1.476,4.409-4.297v-18.81l40.309-3.788c0.428,0.101,0.869,0.152,1.314,0.152
		c1.438,0,2.798-0.538,3.729-1.476c0.896-0.901,1.365-2.114,1.356-3.507c-0.245-39.717-15.988-79.124-43.202-108.153
		c-0.689-1.902-2.656-3.408-4.708-3.613c-1.595-0.285-3.311,0.335-4.528,1.614c-32.472,25.527-52.93,65.61-54.729,107.237
		c-0.096,2.204,1.083,3.991,3.085,4.7c0.395,0.262,0.829,0.474,1.293,0.631c14.424,4.854,29.573,6.994,44.79,6.338
		c0.707,0.446,1.54,0.697,2.472,0.672v18.002C69.989,144.36,72.207,145.836,74.398,145.836z M41.614,95.905
		c-0.671,2.01-0.062,4.028,1.59,5.269l15.316,11.505c-10.043-0.344-20.026-2.011-29.731-4.968
		C31.331,71.867,48.598,37.984,76.29,14.49c23.673,25.946,37.449,59.466,38.875,94.587l-36.357,3.416v-5.521l18.829-18.894
		c1.271-1.275,1.632-2.998,0.964-4.608c-0.716-1.723-2.449-2.927-4.216-2.927c-1.104,0-2.136,0.451-2.984,1.303L78.808,94.481
		V64.754l9.288-9.403c1.266-1.283,1.62-3.011,0.946-4.622c-0.718-1.718-2.446-2.918-4.204-2.918c-1.105,0-2.139,0.454-2.987,1.313
		l-3.043,3.082v-9.521c0-2.821-2.218-4.298-4.409-4.298s-4.409,1.477-4.409,4.298v27.876l-8.836-8.836
		c-0.85-0.85-1.881-1.299-2.983-1.299c-1.771,0-3.506,1.205-4.221,2.931c-0.666,1.608-0.304,3.329,0.97,4.603l15.07,15.071v27.29
		L47.847,93.688c-0.764-0.573-1.573-0.864-2.407-0.864C43.767,92.823,42.229,94.062,41.614,95.905z"/>
</g>
</svg>
