<?xml version="1.0" encoding="iso-8859-1"?>
<!-- Generator: Adobe Illustrator 17.1.0, SVG Export Plug-In . SVG Version: 6.00 Build 0)  -->
<!DOCTYPE svg PUBLIC "-//W3C//DTD SVG 1.1//EN" "http://www.w3.org/Graphics/SVG/1.1/DTD/svg11.dtd">
<svg version="1.1" id="Capa_1" xmlns="http://www.w3.org/2000/svg" xmlns:xlink="http://www.w3.org/1999/xlink" x="0px" y="0px"
	 viewBox="0 0 150 150" style="enable-background:new 0 0 150 150;" xml:space="preserve">
<g>
	<path d="M52.948,71.887c2.333-2.008,2.158-6.271-1.139-7.058c-0.431-0.103-0.869-0.163-1.303-0.184
		c-0.031-0.554-0.397-1.042-1.112-0.955c-3.186,0.389-5.325,3.056-3.824,6.211C46.873,72.64,50.442,74.043,52.948,71.887z
		 M50.7,67.047c0.958,0.034,1.472,0.356,1.473,1.357c0,0.752-0.323,1.419-0.94,1.841c-1.419,0.97-2.916-0.048-3.494-1.33
		c-0.003-0.043,0-0.084-0.007-0.129C47.453,66.994,49.497,67.005,50.7,67.047z"/>
	<path d="M63.317,77.692c2.333-2.008,2.158-6.272-1.139-7.058c-0.431-0.103-0.869-0.163-1.303-0.184
		c-0.031-0.554-0.397-1.042-1.112-0.955c-3.186,0.389-5.325,3.056-3.824,6.211C57.243,78.446,60.812,79.848,63.317,77.692z
		 M61.069,72.852c0.958,0.034,1.472,0.356,1.473,1.357c0,0.752-0.323,1.419-0.94,1.841c-1.419,0.97-2.916-0.049-3.494-1.33
		c-0.003-0.043,0-0.084-0.007-0.129C57.823,72.8,59.867,72.81,61.069,72.852z"/>
	<path d="M32.798,67.81c1.304,2.74,4.873,4.143,7.378,1.986c2.333-2.008,2.158-6.272-1.139-7.058
		c-0.431-0.103-0.869-0.163-1.303-0.184c-0.031-0.554-0.397-1.042-1.112-0.955C33.436,61.988,31.297,64.656,32.798,67.81z
		 M37.928,64.957c0.958,0.034,1.472,0.356,1.473,1.357c0,0.752-0.323,1.419-0.94,1.841c-1.419,0.97-2.916-0.049-3.494-1.33
		c-0.003-0.043,0-0.084-0.007-0.129C34.681,64.904,36.725,64.915,37.928,64.957z"/>
	<path d="M56.663,41.467c2.333-2.008,2.158-6.271-1.139-7.058c-0.431-0.103-0.869-0.163-1.303-0.184
		c-0.031-0.554-0.397-1.042-1.112-0.955c-3.186,0.389-5.325,3.056-3.824,6.211C50.589,42.22,54.158,43.623,56.663,41.467z
		 M54.415,36.627c0.958,0.034,1.472,0.356,1.473,1.357c0,0.752-0.323,1.419-0.94,1.841c-1.419,0.97-2.916-0.048-3.494-1.33
		c-0.003-0.043,0-0.084-0.007-0.129C51.169,36.574,53.212,36.585,54.415,36.627z"/>
	<path d="M72.353,40.074c2.333-2.008,2.158-6.272-1.139-7.058c-0.431-0.103-0.869-0.163-1.303-0.184
		c-0.031-0.554-0.397-1.042-1.112-0.955c-3.186,0.389-5.325,3.056-3.824,6.211C66.279,40.827,69.848,42.23,72.353,40.074z
		 M70.105,35.234c0.958,0.034,1.472,0.356,1.473,1.357c0,0.752-0.323,1.419-0.94,1.841c-1.419,0.97-2.916-0.049-3.494-1.33
		c-0.003-0.043,0-0.084-0.007-0.129C66.859,35.181,68.902,35.192,70.105,35.234z"/>
	<path d="M89.102,28.64c-3.186,0.389-5.325,3.056-3.824,6.211c1.304,2.74,4.873,4.143,7.378,1.986
		c2.333-2.008,2.158-6.271-1.139-7.058c-0.431-0.103-0.869-0.163-1.303-0.184C90.183,29.041,89.817,28.553,89.102,28.64z
		 M91.881,33.355c0,0.752-0.323,1.419-0.94,1.841c-1.419,0.97-2.916-0.048-3.494-1.33c-0.003-0.043,0-0.084-0.007-0.129
		c-0.278-1.793,1.766-1.782,2.968-1.74C91.366,32.031,91.88,32.353,91.881,33.355z"/>
	<path d="M77.494,19.92c-0.031-0.554-0.397-1.042-1.112-0.955c-3.186,0.389-5.325,3.056-3.824,6.211
		c1.304,2.74,4.873,4.143,7.378,1.986c2.333-2.008,2.158-6.272-1.138-7.058C78.366,20.002,77.928,19.941,77.494,19.92z
		 M78.22,25.522c-1.419,0.97-2.916-0.049-3.494-1.33c-0.003-0.043,0-0.084-0.007-0.129c-0.278-1.793,1.765-1.782,2.968-1.74
		c0.958,0.034,1.472,0.356,1.473,1.357C79.161,24.433,78.838,25.1,78.22,25.522z"/>
	<path d="M59.361,22.616c-3.186,0.389-5.325,3.056-3.824,6.211c1.304,2.74,4.873,4.143,7.378,1.986
		c2.333-2.008,2.158-6.272-1.138-7.058c-0.431-0.103-0.869-0.163-1.303-0.184C60.441,23.018,60.075,22.529,59.361,22.616z
		 M62.139,27.331c0,0.752-0.323,1.419-0.94,1.841c-1.419,0.97-2.916-0.048-3.494-1.33c-0.003-0.043,0-0.084-0.007-0.129
		c-0.278-1.793,1.765-1.782,2.968-1.74C61.625,26.008,62.139,26.33,62.139,27.331z"/>
	<path d="M34.318,33.015c-0.431-0.103-0.869-0.163-1.303-0.184c-0.031-0.554-0.397-1.042-1.112-0.955
		c-3.186,0.389-5.325,3.056-3.824,6.211c1.304,2.74,4.873,4.143,7.378,1.986C37.79,38.065,37.615,33.802,34.318,33.015z
		 M33.741,38.432c-1.419,0.97-2.916-0.049-3.494-1.33c-0.003-0.043,0-0.084-0.007-0.129c-0.278-1.793,1.766-1.782,2.968-1.74
		c0.958,0.034,1.472,0.356,1.473,1.357C34.682,37.343,34.359,38.01,33.741,38.432z"/>
	<path d="M20.3,27.682c1.304,2.74,4.873,4.143,7.378,1.986c2.333-2.008,2.158-6.272-1.139-7.058
		c-0.431-0.103-0.869-0.163-1.303-0.184c-0.031-0.554-0.397-1.042-1.112-0.955C20.938,21.86,18.799,24.528,20.3,27.682z
		 M25.43,24.829c0.958,0.034,1.472,0.356,1.473,1.357c0,0.752-0.323,1.419-0.94,1.841c-1.419,0.97-2.916-0.048-3.494-1.33
		c-0.003-0.043,0-0.084-0.007-0.129C22.183,24.776,24.227,24.787,25.43,24.829z"/>
	<path d="M16.88,44.11c1.304,2.74,4.873,4.143,7.378,1.986c2.333-2.008,2.158-6.271-1.139-7.058
		c-0.431-0.103-0.869-0.163-1.303-0.184c-0.031-0.554-0.397-1.042-1.112-0.955C17.519,38.288,15.379,40.956,16.88,44.11z
		 M22.01,41.257c0.958,0.034,1.472,0.356,1.473,1.357c0,0.752-0.323,1.419-0.94,1.841c-1.419,0.97-2.916-0.048-3.494-1.33
		c-0.003-0.043,0-0.084-0.007-0.129C18.764,41.204,20.807,41.215,22.01,41.257z"/>
	<path d="M12.161,56.687c1.304,2.74,4.873,4.143,7.378,1.986c2.333-2.008,2.158-6.272-1.138-7.058
		c-0.431-0.103-0.869-0.163-1.303-0.184c-0.031-0.554-0.397-1.042-1.112-0.955C12.799,50.865,10.66,53.532,12.161,56.687z
		 M17.291,53.834c0.958,0.034,1.472,0.356,1.473,1.357c0,0.752-0.323,1.419-0.94,1.841c-1.419,0.97-2.916-0.049-3.494-1.33
		c-0.003-0.043,0-0.084-0.007-0.129C14.044,53.781,16.088,53.792,17.291,53.834z"/>
	<path d="M12.391,69.797c2.333-2.008,2.158-6.272-1.139-7.058c-0.431-0.103-0.869-0.163-1.303-0.184
		c-0.031-0.554-0.397-1.042-1.112-0.955c-3.186,0.389-5.325,3.056-3.824,6.211C6.317,70.55,9.885,71.953,12.391,69.797z
		 M10.143,64.957c0.958,0.034,1.472,0.356,1.473,1.357c0,0.752-0.323,1.419-0.94,1.841c-1.419,0.97-2.916-0.049-3.494-1.33
		c-0.003-0.043,0-0.084-0.007-0.129C6.896,64.904,8.94,64.915,10.143,64.957z"/>
	<path d="M88.236,92.229c-0.431-0.103-0.869-0.163-1.303-0.184c-0.031-0.554-0.397-1.042-1.112-0.955
		c-3.186,0.389-5.325,3.056-3.824,6.211c1.304,2.74,4.873,4.143,7.378,1.986C91.708,97.28,91.532,93.016,88.236,92.229z
		 M87.659,97.647c-1.419,0.97-2.916-0.049-3.494-1.33c-0.003-0.043,0-0.084-0.007-0.129c-0.278-1.793,1.766-1.782,2.968-1.74
		c0.958,0.034,1.472,0.356,1.473,1.357C88.6,96.558,88.276,97.225,87.659,97.647z"/>
	<path d="M131.472,64.12c-0.431-0.103-0.869-0.163-1.303-0.184c-0.031-0.554-0.397-1.042-1.112-0.955
		c-3.186,0.389-5.325,3.056-3.824,6.211c1.304,2.74,4.873,4.143,7.378,1.986C134.944,69.171,134.769,64.907,131.472,64.12z
		 M130.895,69.538c-1.419,0.97-2.916-0.048-3.494-1.33c-0.003-0.043,0-0.084-0.007-0.129c-0.278-1.793,1.766-1.782,2.968-1.74
		c0.958,0.034,1.472,0.356,1.473,1.357C131.836,68.449,131.513,69.116,130.895,69.538z"/>
	<path d="M126.811,30.693c-0.431-0.103-0.869-0.163-1.303-0.184c-0.031-0.554-0.397-1.042-1.112-0.955
		c-3.186,0.389-5.325,3.056-3.824,6.211c1.304,2.74,4.873,4.143,7.378,1.986C130.283,35.743,130.108,31.48,126.811,30.693z
		 M126.234,36.11c-1.419,0.97-2.916-0.049-3.494-1.33c-0.003-0.043,0-0.084-0.007-0.129c-0.278-1.793,1.765-1.782,2.968-1.74
		c0.958,0.034,1.472,0.356,1.473,1.357C127.175,35.021,126.852,35.688,126.234,36.11z"/>
	<path d="M113.815,34.224c-0.031-0.554-0.397-1.042-1.112-0.955c-3.186,0.389-5.325,3.056-3.824,6.211
		c1.304,2.74,4.873,4.142,7.378,1.986c2.333-2.008,2.158-6.271-1.139-7.058C114.688,34.306,114.25,34.245,113.815,34.224z
		 M114.542,39.826c-1.419,0.97-2.916-0.048-3.494-1.33c-0.003-0.043,0-0.084-0.007-0.129c-0.278-1.793,1.766-1.782,2.968-1.74
		c0.958,0.034,1.472,0.356,1.473,1.357C115.482,38.737,115.159,39.404,114.542,39.826z"/>
	<path d="M100.369,32.528c1.304,2.74,4.873,4.143,7.378,1.986c2.333-2.008,2.158-6.271-1.139-7.058
		c-0.431-0.103-0.869-0.163-1.303-0.184c-0.031-0.554-0.397-1.042-1.112-0.955C101.008,26.706,98.868,29.374,100.369,32.528z
		 M105.499,29.675c0.958,0.034,1.472,0.356,1.473,1.357c0,0.752-0.323,1.419-0.94,1.841c-1.419,0.97-2.916-0.048-3.494-1.33
		c-0.003-0.043,0-0.084-0.007-0.129C102.253,29.622,104.296,29.633,105.499,29.675z"/>
	<path d="M98.546,36.506c-3.186,0.389-5.325,3.056-3.824,6.211c1.304,2.74,4.873,4.143,7.378,1.986
		c2.333-2.008,2.158-6.272-1.139-7.058c-0.431-0.103-0.869-0.163-1.303-0.184C99.626,36.907,99.26,36.419,98.546,36.506z
		 M101.324,41.221c0,0.752-0.323,1.419-0.94,1.841c-1.419,0.97-2.916-0.049-3.494-1.33c-0.003-0.043,0-0.084-0.007-0.129
		c-0.278-1.793,1.765-1.782,2.968-1.74C100.809,39.897,101.324,40.22,101.324,41.221z"/>
	<path d="M117.061,22.827c-0.431-0.103-0.869-0.163-1.303-0.184c-0.031-0.554-0.397-1.042-1.112-0.955
		c-3.186,0.389-5.325,3.056-3.824,6.211c1.304,2.74,4.873,4.142,7.378,1.986C120.533,27.877,120.358,23.613,117.061,22.827z
		 M116.484,28.244c-1.419,0.97-2.916-0.048-3.494-1.33c-0.003-0.043,0-0.084-0.007-0.129c-0.278-1.793,1.766-1.782,2.968-1.74
		c0.958,0.034,1.472,0.356,1.473,1.357C117.425,27.155,117.102,27.822,116.484,28.244z"/>
	<path d="M91.435,24.197c1.304,2.74,4.873,4.143,7.378,1.986c2.333-2.008,2.158-6.271-1.138-7.058
		c-0.431-0.103-0.869-0.163-1.303-0.184c-0.031-0.554-0.397-1.042-1.112-0.955C92.073,18.375,89.934,21.043,91.435,24.197z
		 M96.565,21.344c0.958,0.034,1.472,0.356,1.473,1.357c0,0.752-0.323,1.419-0.94,1.841c-1.419,0.97-2.916-0.048-3.494-1.33
		c-0.003-0.043,0-0.084-0.007-0.129C93.318,21.291,95.362,21.302,96.565,21.344z"/>
	<path d="M107.113,64.12c-0.431-0.103-0.869-0.163-1.303-0.184c-0.031-0.554-0.397-1.042-1.112-0.955
		c-3.186,0.389-5.325,3.056-3.824,6.211c1.304,2.74,4.873,4.143,7.378,1.986C110.585,69.171,110.41,64.907,107.113,64.12z
		 M106.536,69.538c-1.419,0.97-2.916-0.048-3.494-1.33c-0.003-0.043,0-0.084-0.007-0.129c-0.278-1.793,1.765-1.782,2.968-1.74
		c0.958,0.034,1.472,0.356,1.473,1.357C107.477,68.449,107.154,69.116,106.536,69.538z"/>
	<path d="M113.815,92.045c-0.031-0.554-0.397-1.042-1.112-0.955c-3.186,0.389-5.325,3.056-3.824,6.211
		c1.304,2.74,4.873,4.143,7.378,1.986c2.333-2.008,2.158-6.272-1.139-7.058C114.688,92.127,114.25,92.066,113.815,92.045z
		 M114.542,97.647c-1.419,0.97-2.916-0.049-3.494-1.33c-0.003-0.043,0-0.084-0.007-0.129c-0.278-1.793,1.766-1.782,2.968-1.74
		c0.958,0.034,1.472,0.356,1.473,1.357C115.482,96.558,115.159,97.225,114.542,97.647z"/>
	<path d="M128.744,75.264c-0.431-0.103-0.869-0.163-1.303-0.184c-0.031-0.554-0.397-1.042-1.112-0.955
		c-3.186,0.389-5.325,3.056-3.824,6.211c1.304,2.74,4.873,4.143,7.378,1.986C132.216,80.314,132.041,76.05,128.744,75.264z
		 M128.167,80.681c-1.419,0.97-2.916-0.049-3.494-1.33c-0.003-0.043,0-0.084-0.007-0.129c-0.278-1.793,1.766-1.782,2.968-1.74
		c0.958,0.034,1.472,0.356,1.473,1.357C129.108,79.592,128.785,80.259,128.167,80.681z"/>
	<path d="M129.883,99.288c2.333-2.008,2.158-6.272-1.139-7.058c-0.431-0.103-0.869-0.163-1.303-0.184
		c-0.031-0.554-0.397-1.042-1.112-0.955c-3.186,0.389-5.325,3.056-3.824,6.211C123.809,100.041,127.377,101.444,129.883,99.288z
		 M124.674,96.317c-0.003-0.043,0-0.084-0.007-0.129c-0.278-1.793,1.766-1.782,2.968-1.74c0.958,0.034,1.472,0.356,1.473,1.357
		c0,0.752-0.323,1.419-0.94,1.841C126.748,98.617,125.251,97.598,124.674,96.317z"/>
	<path d="M138.183,84.538c-0.431-0.103-0.869-0.163-1.303-0.184c-0.031-0.554-0.397-1.042-1.112-0.955
		c-3.186,0.389-5.325,3.056-3.824,6.211c1.304,2.74,4.873,4.143,7.378,1.986C141.655,89.588,141.479,85.325,138.183,84.538z
		 M137.606,89.955c-1.419,0.97-2.916-0.049-3.494-1.33c-0.003-0.043,0-0.084-0.007-0.129c-0.278-1.793,1.765-1.782,2.968-1.74
		c0.958,0.034,1.472,0.356,1.473,1.357C138.547,88.866,138.223,89.533,137.606,89.955z"/>
	<path d="M135.011,53.479c-0.431-0.103-0.869-0.163-1.303-0.184c-0.031-0.554-0.397-1.042-1.112-0.955
		c-3.186,0.389-5.325,3.056-3.824,6.211c1.304,2.74,4.873,4.143,7.378,1.986C138.483,58.529,138.307,54.266,135.011,53.479z
		 M134.434,58.896c-1.419,0.97-2.916-0.049-3.494-1.33c-0.003-0.043,0-0.084-0.007-0.129c-0.278-1.793,1.766-1.782,2.968-1.74
		c0.958,0.034,1.472,0.356,1.473,1.357C135.375,57.807,135.051,58.474,134.434,58.896z"/>
	<path d="M142.902,69.458c-0.431-0.103-0.869-0.163-1.303-0.184c-0.031-0.554-0.397-1.042-1.112-0.955
		c-3.186,0.389-5.325,3.056-3.824,6.211c1.304,2.74,4.873,4.143,7.378,1.986C146.374,74.508,146.199,70.245,142.902,69.458z
		 M142.325,74.876c-1.419,0.97-2.916-0.048-3.494-1.33c-0.003-0.043,0-0.084-0.007-0.129c-0.278-1.793,1.765-1.782,2.968-1.74
		c0.958,0.034,1.472,0.356,1.473,1.357C143.266,73.786,142.943,74.453,142.325,74.876z"/>
	<path d="M135.011,41.404c-0.431-0.103-0.869-0.163-1.303-0.184c-0.031-0.554-0.397-1.042-1.112-0.955
		c-3.186,0.389-5.325,3.056-3.824,6.211c1.304,2.74,4.873,4.143,7.378,1.986C138.483,46.454,138.307,42.19,135.011,41.404z
		 M134.434,46.821c-1.419,0.97-2.916-0.049-3.494-1.33c-0.003-0.043,0-0.084-0.007-0.129c-0.278-1.793,1.766-1.782,2.968-1.74
		c0.958,0.034,1.472,0.356,1.473,1.357C135.375,45.732,135.051,46.399,134.434,46.821z"/>
	<path d="M122.206,48.281c-2.628,5.377-4.625,10.946-5.962,16.74c-0.43-1.051-0.77-2.14-0.848-3.336
		c-0.303-4.67,1.572-10.181,2.395-14.784c0.555-3.105-4.191-4.432-4.749-1.309c-0.868,4.857-1.86,9.707-2.493,14.6
		c-0.276,2.135,0.099,4.231,0.887,6.207c0.831,2.085,2.325,3.738,2.219,6.103c-0.004,0.094,0.01,0.177,0.014,0.265
		c-2.958,1.361-7.817,1.31-9.947,1.566c-4.339,0.522-8.662,1.112-12.933,2.047c-2.143,0.469-5.228,1.226-8.204,2.398
		c3.683-4.344,8.674-7.795,13.095-11.32c7.214-5.754,12.432-12.927,13.815-22.201c0.463-3.106-4.282-4.442-4.749-1.309
		c-1.173,7.86-5.249,13.323-10.542,18.164c0.148-5.951-2.706-11.844-1.754-18.095c0.473-3.106-4.272-4.441-4.749-1.309
		c-0.551,3.614-0.194,6.932,0.535,10.496c0.904,4.415,2.257,8.978-0.086,13.185c-0.191,0.342-0.292,0.68-0.322,1.004
		c-4.48,3.467-8.892,7.331-11.846,12.084c-0.96-2.625-2.046-5.193-3.352-7.656c3.411-5.814,6.676-11.67,8.683-18.137
		c2.155-6.943,1.63-14.307,0.72-21.403c-0.398-3.105-5.329-3.144-4.925,0c0.871,6.79,1.271,13.416-0.544,20.094
		c-1.395,5.131-4.033,9.879-6.726,14.476c0.148-0.534,0.132-1.13-0.157-1.749c-2.927-6.256,1.505-13.706,1.923-20.159
		c0.206-3.173-4.721-3.153-4.925,0c-0.364,5.609-2.673,10.696-2.693,15.968c-4.24-4.006-8.52-8.11-8.179-14.206
		c0.178-3.175-4.749-3.158-4.925,0c-0.217,3.885,1.04,7.19,3.003,10.146c-1.67-0.284-3.318-0.64-4.862-1.32
		c-4.676-2.06-3.566-8.915-3.485-12.984c0.087-4.37,0.51-8.849-0.854-13.07c-1.285-3.974-5.844-5.003-7.267-8.547
		c-1.168-2.909-5.934-1.64-4.749,1.309c1.653,4.115,6.302,5.563,7.649,9.73c1.193,3.693,0.718,8.122,0.423,12.321
		c-0.678-0.526-1.405-0.994-2.185-1.384c-1.201-0.601-2.659-0.33-3.369,0.883c-0.645,1.101-0.316,2.769,0.883,3.369
		c1.539,0.77,2.78,1.803,3.68,3.174c0.275,0.419,0.647,0.746,1.068,0.955c0.543,3.23,2.077,5.912,4.823,7.98
		c3.606,2.715,9.063,2.293,13.22,3.547c0.055,0.017,0.105,0.018,0.158,0.031c0.599,0.591,1.206,1.173,1.812,1.747
		c5.493,5.198,8.588,11.305,11.003,18.041c-1.72-0.606-3.568-0.958-5.202-1.134c-9.043-0.973-18.506,0.433-24.656-7.777
		c-1.88-2.509-6.159-0.059-4.253,2.486c1.588,2.12,3.392,3.878,5.403,5.311c-0.143,0.022-0.287,0.04-0.43,0.063
		c-1.814,0.292-3.599,0.737-5.386,1.159c-2.78,0.657-3.227-3.039-3.782-4.676c-1.008-2.973-2.494-5.757-4.322-8.298
		c0.014-0.164,0.015-0.336-0.006-0.521c-0.715-6.448,2.582-12.618-2.037-18.239c-2.018-2.456-5.482,1.05-3.483,3.483
		c2.112,2.57,1.403,6.408,0.884,9.997c-0.515-0.485-1.039-0.96-1.578-1.415c-2.41-2.036-5.912,1.43-3.483,3.483
		c3.296,2.785,5.877,5.955,7.929,9.756c1.508,2.794,1.806,6.848,4.037,9.224c2.047,2.18,4.311,2.414,7.15,1.957
		c4.537-0.73,8.829-1.759,13.464-1.948c0.246-0.01,0.467-0.058,0.675-0.121c1.452,0.127,4.065,0.217,6.943,0.393
		c-2.894,2.812-4.566,6.418-9.245,6.629c-3.163,0.143-3.177,5.069,0,4.925c4.556-0.206,7.769-2.193,10.597-5.69
		c2.352-2.908,4.379-4.456,8.107-2.176c2.987,1.826,4.318,5.553,4.342,8.862c0.004,0.501,0.139,0.914,0.349,1.257v44.995
		c0,3.176,4.925,3.176,4.925,0V90.072c0.848-0.687,2.462-1.093,3.147-1.403c3.276-1.483,5.219-1.731,8.361,0.14
		c3.722,2.216,7.954,3.177,12.239,3.378c3.176,0.149,3.162-4.777,0-4.925c-3.979-0.187-7.401-1.305-10.814-3.337
		c-1.126-0.67-2.443-1.371-3.805-1.702c1.202-0.344,2.236-0.602,2.867-0.771c2.093-0.561,4.224-0.972,6.368-1.312
		c0.354,0.247,0.789,0.414,1.322,0.436c4.209,0.179,7.473,3.689,10.759,5.951c4.096,2.819,8.635,3.05,13.447,2.694
		c3.147-0.233,3.17-5.16,0-4.925c-5.62,0.416-9.188-0.61-13.63-3.951c-0.682-0.513-1.358-1.001-2.038-1.466
		c6.133-0.681,14.651-1.802,14.021-9.609c-0.039-0.478-0.194-0.875-0.414-1.208c1.23-6.002,3.148-11.763,5.852-17.294
		C127.848,47.926,123.601,45.428,122.206,48.281z"/>
	<path d="M136.25,24.454c-0.431-0.103-0.869-0.163-1.303-0.184c-0.031-0.554-0.397-1.042-1.112-0.955
		c-3.186,0.389-5.325,3.056-3.824,6.211c1.304,2.74,4.873,4.143,7.378,1.986C139.722,29.504,139.547,25.241,136.25,24.454z
		 M135.673,29.871c-1.419,0.97-2.916-0.048-3.494-1.33c-0.003-0.043,0-0.084-0.007-0.129c-0.278-1.793,1.765-1.782,2.968-1.74
		c0.958,0.034,1.472,0.356,1.473,1.357C136.614,28.782,136.291,29.449,135.673,29.871z"/>
	<path d="M12.161,77.07c1.304,2.74,4.873,4.143,7.378,1.986c2.333-2.008,2.158-6.271-1.138-7.058
		c-0.431-0.103-0.869-0.163-1.303-0.184c-0.031-0.554-0.397-1.042-1.112-0.955C12.799,71.248,10.66,73.916,12.161,77.07z
		 M17.291,74.217c0.958,0.034,1.472,0.356,1.473,1.357c0,0.752-0.323,1.419-0.94,1.841c-1.419,0.97-2.916-0.048-3.494-1.33
		c-0.003-0.043,0-0.084-0.007-0.129C14.044,74.164,16.088,74.175,17.291,74.217z"/>
	<path d="M25.41,84.538c-0.431-0.103-0.869-0.163-1.303-0.184c-0.031-0.554-0.397-1.042-1.112-0.955
		c-3.186,0.389-5.325,3.056-3.824,6.211c1.304,2.74,4.873,4.143,7.378,1.986C28.882,89.588,28.707,85.325,25.41,84.538z
		 M24.833,89.955c-1.419,0.97-2.916-0.049-3.494-1.33c-0.003-0.043,0-0.084-0.007-0.129c-0.278-1.793,1.766-1.782,2.968-1.74
		c0.958,0.034,1.472,0.356,1.473,1.357C25.774,88.866,25.451,89.533,24.833,89.955z"/>
	<path d="M35.978,92.229c-0.431-0.103-0.869-0.163-1.303-0.184c-0.031-0.554-0.397-1.042-1.112-0.955
		c-3.186,0.389-5.325,3.056-3.824,6.211c1.304,2.74,4.873,4.143,7.378,1.986C39.45,97.28,39.275,93.016,35.978,92.229z
		 M35.401,97.647c-1.419,0.97-2.916-0.049-3.494-1.33c-0.003-0.043,0-0.084-0.007-0.129c-0.278-1.793,1.766-1.782,2.968-1.74
		c0.958,0.034,1.472,0.356,1.473,1.357C36.342,96.558,36.018,97.225,35.401,97.647z"/>
	<path d="M15.972,28.385c-0.431-0.103-0.869-0.163-1.303-0.184c-0.031-0.554-0.397-1.042-1.112-0.955
		c-3.186,0.389-5.325,3.056-3.824,6.211c1.304,2.74,4.873,4.143,7.378,1.986C19.443,33.436,19.268,29.172,15.972,28.385z
		 M15.395,33.803c-1.419,0.97-2.916-0.049-3.494-1.33c-0.003-0.043,0-0.084-0.007-0.129c-0.278-1.793,1.765-1.782,2.968-1.74
		c0.958,0.034,1.472,0.356,1.473,1.357C16.335,32.713,16.012,33.38,15.395,33.803z"/>
	<path d="M10.272,48.721c2.333-2.008,2.158-6.271-1.138-7.058C8.702,41.56,8.264,41.5,7.83,41.479
		c-0.031-0.554-0.397-1.042-1.112-0.955c-3.186,0.389-5.325,3.056-3.824,6.211C4.198,49.475,7.766,50.877,10.272,48.721z
		 M5.062,45.75c-0.003-0.043,0-0.084-0.007-0.129c-0.278-1.793,1.765-1.782,2.968-1.74c0.958,0.034,1.472,0.356,1.473,1.357
		c0,0.752-0.323,1.419-0.94,1.841C7.137,48.051,5.64,47.032,5.062,45.75z"/>
	<path d="M48.39,16.842c-3.186,0.389-5.325,3.056-3.824,6.211c1.304,2.74,4.873,4.143,7.378,1.986
		c2.333-2.008,2.158-6.272-1.138-7.058c-0.431-0.103-0.869-0.163-1.303-0.184C49.47,17.243,49.104,16.754,48.39,16.842z
		 M51.169,21.557c0,0.752-0.323,1.419-0.94,1.841c-1.419,0.97-2.916-0.049-3.494-1.33c-0.003-0.043,0-0.084-0.007-0.129
		c-0.278-1.793,1.765-1.782,2.968-1.74C50.654,20.233,51.168,20.555,51.169,21.557z"/>
	<path d="M30.13,8.721c-0.431-0.103-0.869-0.163-1.303-0.184c-0.031-0.554-0.397-1.042-1.112-0.955
		c-3.186,0.389-5.325,3.056-3.824,6.211c1.304,2.74,4.873,4.143,7.378,1.986C33.602,13.771,33.426,9.508,30.13,8.721z
		 M29.553,14.138c-1.419,0.97-2.916-0.049-3.494-1.33c-0.003-0.043,0-0.084-0.007-0.129c-0.278-1.793,1.765-1.782,2.968-1.74
		c0.958,0.034,1.472,0.356,1.473,1.357C30.493,13.049,30.17,13.716,29.553,14.138z"/>
	<path d="M66.524,12.956c-0.031-0.554-0.397-1.042-1.112-0.955c-3.186,0.389-5.325,3.056-3.824,6.211
		c1.304,2.74,4.873,4.143,7.378,1.986c2.333-2.008,2.158-6.272-1.139-7.058C67.396,13.037,66.958,12.977,66.524,12.956z
		 M67.25,18.557c-1.419,0.97-2.916-0.049-3.494-1.33c-0.003-0.043,0-0.084-0.007-0.129c-0.278-1.793,1.766-1.782,2.968-1.74
		c0.958,0.034,1.472,0.356,1.473,1.357C68.191,17.468,67.868,18.135,67.25,18.557z"/>
	<path d="M57.056,6.87c-0.431-0.103-0.869-0.163-1.303-0.184c-0.031-0.554-0.397-1.042-1.112-0.955
		c-3.186,0.389-5.325,3.056-3.824,6.211c1.304,2.74,4.873,4.143,7.378,1.986C60.528,11.921,60.353,7.657,57.056,6.87z
		 M56.479,12.288c-1.419,0.97-2.916-0.048-3.494-1.33c-0.003-0.043,0-0.084-0.007-0.129c-0.278-1.793,1.765-1.782,2.968-1.74
		c0.958,0.034,1.472,0.356,1.473,1.357C57.42,11.198,57.097,11.865,56.479,12.288z"/>
	<path d="M44.895,12.502c2.333-2.008,2.158-6.272-1.139-7.058c-0.431-0.103-0.869-0.163-1.303-0.184
		c-0.031-0.554-0.397-1.042-1.112-0.955c-3.186,0.389-5.325,3.056-3.824,6.211C38.821,13.255,42.39,14.658,44.895,12.502z
		 M42.647,7.662c0.958,0.034,1.472,0.356,1.473,1.357c0,0.752-0.323,1.419-0.94,1.841c-1.419,0.97-2.916-0.048-3.494-1.33
		c-0.003-0.043,0-0.084-0.007-0.129C39.401,7.609,41.444,7.62,42.647,7.662z"/>
	<path d="M86.798,10.073c-0.431-0.103-0.869-0.163-1.303-0.184c-0.031-0.554-0.397-1.042-1.112-0.955
		c-3.186,0.389-5.325,3.056-3.824,6.211c1.304,2.74,4.873,4.143,7.378,1.986C90.27,15.123,90.095,10.86,86.798,10.073z
		 M86.221,15.49c-1.419,0.97-2.916-0.049-3.494-1.33c-0.003-0.043,0-0.084-0.007-0.129c-0.278-1.793,1.765-1.782,2.968-1.74
		c0.958,0.034,1.472,0.356,1.473,1.357C87.162,14.401,86.839,15.068,86.221,15.49z"/>
	<path d="M101.383,18.422c1.304,2.74,4.873,4.143,7.378,1.986c2.333-2.008,2.158-6.272-1.138-7.058
		c-0.431-0.103-0.869-0.163-1.303-0.184c-0.031-0.554-0.397-1.042-1.112-0.955C102.021,12.6,99.882,15.268,101.383,18.422z
		 M106.513,15.569c0.958,0.034,1.472,0.356,1.473,1.357c0,0.752-0.323,1.419-0.94,1.841c-1.419,0.97-2.916-0.049-3.494-1.33
		c-0.003-0.043,0-0.084-0.007-0.129C103.266,15.516,105.31,15.527,106.513,15.569z"/>
	<path d="M126.753,15.805c-0.431-0.103-0.869-0.163-1.303-0.184c-0.031-0.554-0.397-1.042-1.112-0.955
		c-3.186,0.389-5.325,3.056-3.824,6.211c1.304,2.74,4.873,4.143,7.378,1.986C130.225,20.855,130.049,16.592,126.753,15.805z
		 M126.176,21.222c-1.419,0.97-2.916-0.048-3.494-1.33c-0.003-0.043,0-0.084-0.007-0.129c-0.278-1.793,1.766-1.782,2.968-1.74
		c0.958,0.034,1.472,0.356,1.473,1.357C127.116,20.133,126.793,20.8,126.176,21.222z"/>
	<path d="M91.435,10.515c1.304,2.74,4.873,4.143,7.378,1.986c2.333-2.008,2.158-6.272-1.138-7.058
		c-0.431-0.103-0.869-0.163-1.303-0.184c-0.031-0.554-0.397-1.042-1.112-0.955C92.073,4.693,89.934,7.361,91.435,10.515z
		 M96.565,7.662c0.958,0.034,1.472,0.356,1.473,1.357c0,0.752-0.323,1.419-0.94,1.841c-1.419,0.97-2.916-0.048-3.494-1.33
		c-0.003-0.043,0-0.084-0.007-0.129C93.318,7.609,95.362,7.62,96.565,7.662z"/>
	<path d="M74.718,4.091c-0.431-0.103-0.869-0.163-1.303-0.184c-0.031-0.554-0.397-1.042-1.112-0.955
		c-3.186,0.389-5.325,3.056-3.824,6.211c1.304,2.74,4.873,4.143,7.378,1.986C78.189,9.141,78.014,4.878,74.718,4.091z M74.141,9.508
		c-1.419,0.97-2.916-0.048-3.494-1.33c-0.003-0.043,0-0.084-0.007-0.129c-0.278-1.793,1.765-1.782,2.968-1.74
		c0.958,0.034,1.472,0.356,1.473,1.357C75.081,8.419,74.758,9.086,74.141,9.508z"/>
</g>
</svg>
