<?xml version="1.0" encoding="iso-8859-1"?>
<!-- Generator: Adobe Illustrator 17.1.0, SVG Export Plug-In . SVG Version: 6.00 Build 0)  -->
<!DOCTYPE svg PUBLIC "-//W3C//DTD SVG 1.1//EN" "http://www.w3.org/Graphics/SVG/1.1/DTD/svg11.dtd">
<svg version="1.1" id="Capa_1" xmlns="http://www.w3.org/2000/svg" xmlns:xlink="http://www.w3.org/1999/xlink" x="0px" y="0px"
	 viewBox="0 0 150 150" style="enable-background:new 0 0 150 150;" xml:space="preserve">
<g>
	<path d="M117.913,63.185c-3.247,0-6.36,0.583-9.246,1.595c-2.656,0.932-5.116,2.23-7.314,3.777
		C94.898,73.1,90.734,79.792,90.734,85.699c0,6.837,5.576,10.861,13.831,12.751c0.012,0.678-0.005,1.355-0.066,2.027
		c-0.06,0.664-0.152,1.325-0.283,1.981c-0.321,1.6-0.851,3.172-1.599,4.698c-4.603,1.482-9.654,2.361-14.049,3.492
		c-6.236,1.604-12.119,4.533-17.868,7.363c-0.518,0.255-1.025,0.535-1.523,0.828c1.948-13.775,5.054-27.6,14.265-38.484
		c2.762-3.264,5.487-6.303,7.793-9.697c0.479-0.706,0.937-1.431,1.376-2.173c0.42-0.709,0.818-1.439,1.194-2.191
		c2.024-0.324,3.924-0.758,5.665-1.307c2.268-1.552,4.692-2.808,7.216-3.751c2.443-2.101,3.85-4.823,3.85-8.255
		c0-10.103-12.168-22.514-27.178-22.514c-7.93,0-15.065,3.465-20.033,8.223c-0.691,0.662-1.338,1.35-1.942,2.056
		c-2.545,2.977-4.278,6.294-4.921,9.515c-0.182,0.909-0.28,1.812-0.282,2.696c0,0.008-0.001,0.016-0.001,0.024
		c0,8.267,8.149,12.424,19.334,13.663c0.022,0.404,0.026,0.806,0.062,1.212c0.024,0.268,0.068,0.541,0.121,0.816
		c0.129,0.671,0.33,1.363,0.569,2.067c0.992,2.932,2.555,6.072,1.549,8.715c-0.154,0.405-0.176,0.769-0.119,1.096
		c-0.77,0.974-1.509,1.969-2.189,3.004c-6.53,9.945-8.942,22.023-10.59,33.736c-2.759-6.697-6.652-13.074-10.656-19.154
		c-3.888-5.905-7.802-11.856-11.271-18.012c0.036-0.385-0.02-0.796-0.223-1.217c-0.948-1.976,1.064-5.982,1.661-7.892
		c0.944-3.019,1.831-6.017,2.374-9.138c0.304-1.749,0.413-3.492,0.333-5.21c-0.031-0.676-0.088-1.348-0.182-2.014
		c-0.093-0.658-0.216-1.311-0.373-1.957c2.142-0.552,4.088-1.255,5.776-2.128c0.64-4.522,3.03-9.217,6.734-13.26
		c-1.988-9.433-13.259-19.633-26.867-19.633c-15.01,0-27.178,12.411-27.178,22.514c0,6.673,5.31,10.668,13.239,12.612
		c0.35,0.815,0.77,1.593,1.294,2.328c0.402,0.564,0.858,1.107,1.395,1.621c0.29,0.277,0.594,0.544,0.901,0.808
		c2.558,2.192,5.681,3.952,8.405,5.858c0.102,0.071,0.203,0.119,0.304,0.171c3.681,11.268,9.873,21.611,16.371,31.571
		c6.388,9.792,13.896,20.256,16.516,31.735c-0.003,0.097-0.013,0.191-0.013,0.29c0.001,0.456,0.124,0.832,0.313,1.143
		c0.845,4.437,0.941,9.023-0.069,13.783c-0.595,2.806,3.705,4,4.302,1.186c1.201-5.664,1.029-11.122-0.065-16.389
		c0.207-3.133,3.99-4.54,6.418-5.736c3.577-1.761,7.191-3.414,10.929-4.808c5.759-2.147,11.893-2.895,17.815-4.444
		c5.457-1.427,10.202-4.221,13.475-8.164c0.526-0.634,1.016-1.294,1.462-1.987c0.417-0.647,0.809-1.312,1.15-2.009
		c14.418-0.221,25.904-4.246,25.904-14.061C145.091,75.596,132.923,63.185,117.913,63.185z M80.204,68.99
		c-0.133-0.664-0.226-1.336-0.29-2.015c1.129,0.049,2.277,0.076,3.444,0.076c1.771,0,3.501-0.057,5.178-0.172
		c-0.404,0.71-0.837,1.402-1.295,2.077c-0.474,0.7-0.97,1.385-1.488,2.057c-1.103,1.431-2.286,2.811-3.486,4.18
		c-0.308-1.128-0.767-2.26-1.25-3.453c-0.098-0.242-0.185-0.487-0.269-0.733C80.521,70.346,80.341,69.673,80.204,68.99z
		 M25.781,54.842c-0.451-0.316-0.839-0.639-1.2-0.968c1.173,0.126,2.376,0.222,3.609,0.285c0.126,0.677,0.265,1.35,0.41,2.021
		c0.053,0.247,0.1,0.496,0.156,0.742c-0.378-0.265-0.756-0.529-1.134-0.794C27.008,55.7,26.394,55.271,25.781,54.842z
		 M39.113,72.726c-2.226-4.656-4.092-9.464-5.432-14.48c-0.177-0.662-0.351-1.325-0.509-1.994c-0.156-0.661-0.299-1.326-0.435-1.995
		c3.333-0.02,6.517-0.24,9.453-0.682c0.16,0.651,0.283,1.306,0.358,1.964c0.076,0.666,0.105,1.336,0.105,2.007
		c0.004,3.584-0.975,7.22-2.049,10.754C40.172,69.721,39.597,71.212,39.113,72.726z M108.18,104.863
		c0.149-0.55,0.274-1.104,0.383-1.66c0.129-0.655,0.224-1.314,0.297-1.975c0.073-0.662,0.122-1.328,0.139-1.996
		c1.672,0.217,3.418,0.366,5.221,0.451c-0.472,0.689-1,1.325-1.579,1.914c-0.656,0.667-1.376,1.273-2.148,1.827
		C109.764,103.946,108.993,104.427,108.18,104.863z"/>
</g>
</svg>
