<?xml version="1.0" encoding="iso-8859-1"?>
<!-- Generator: Adobe Illustrator 17.1.0, SVG Export Plug-In . SVG Version: 6.00 Build 0)  -->
<!DOCTYPE svg PUBLIC "-//W3C//DTD SVG 1.1//EN" "http://www.w3.org/Graphics/SVG/1.1/DTD/svg11.dtd">
<svg version="1.1" id="Capa_1" xmlns="http://www.w3.org/2000/svg" xmlns:xlink="http://www.w3.org/1999/xlink" x="0px" y="0px"
	 viewBox="0 0 150 150" style="enable-background:new 0 0 150 150;" xml:space="preserve">
<g>
	<path d="M130.842,53.438c-4.835-23.021-26.485-42.551-51.479-46.438c-2.753-0.428-5.569-0.646-8.371-0.646
		c-21.443,0-41.205,12.65-49.174,31.479c-8.943,21.131-1.05,45.326,19.64,60.209c11.051,7.949,25.624,12.435,44.551,13.712
		c2.734,0.178,4.058-1.892,4.123-3.813c0.073-2.167-1.296-4.458-4.056-4.645c-42.093-2.845-54.43-25.533-57.781-35.156
		c-3.41-9.795-2.559-19.969,2.462-29.421c5.763-10.851,16.453-19.251,28.595-22.471c3.76-0.997,7.653-1.503,11.571-1.503
		c18.832,0,37.41,11.467,47.331,29.213c5.637,10.084,6.687,22.063,2.879,32.867c-3.66,10.386-11.479,18.734-21.518,23.011v-1.147
		c1.149-1.883,2.438-3.702,3.686-5.463c2.236-3.155,4.548-6.419,6.144-10.172c2.657-6.249,3.726-13.324,3.09-20.459
		c-0.236-2.65-2.472-4.036-4.559-4.036c-1.204,0-2.303,0.446-3.015,1.225c-0.68,0.744-0.985,1.746-0.882,2.899
		c0.563,6.32-0.313,12.258-2.605,17.648c-0.618,1.451-1.402,2.897-2.479,4.558V32.738c0-2.697-2.128-4.107-4.23-4.107
		c-2.102,0-4.23,1.41-4.23,4.107v49.474C82.6,69.942,78.345,55.774,78.212,41.127c-0.024-2.693-2.164-4.104-4.265-4.104
		c-1.197,0-2.324,0.444-3.092,1.22c-0.733,0.739-1.115,1.74-1.104,2.894c0.139,15.274,4.374,30.197,12.273,43.322
		C73.891,78.251,67.46,69.807,63.78,60.443c-0.694-1.767-2.264-2.821-4.199-2.821c-1.517,0-2.92,0.678-3.665,1.77
		c-0.653,0.959-0.746,2.167-0.261,3.4c6.516,16.577,19.103,29.544,35.456,36.537c0.014,0.044,0.029,0.088,0.045,0.131v42.078
		c0,2.697,2.128,4.108,4.23,4.108c2.103,0,4.23-1.411,4.23-4.108v-15.32l8.666-6.812c0.806-0.634,1.288-1.613,1.356-2.759
		c0.081-1.358-0.421-2.755-1.312-3.645c-1.671-1.671-4.267-1.654-6.319-0.04l-2.391,1.88v-5.949
		C122.44,101.06,135.852,77.287,130.842,53.438z"/>
</g>
</svg>
