<?xml version="1.0" encoding="iso-8859-1"?>
<!-- Generator: Adobe Illustrator 17.1.0, SVG Export Plug-In . SVG Version: 6.00 Build 0)  -->
<!DOCTYPE svg PUBLIC "-//W3C//DTD SVG 1.1//EN" "http://www.w3.org/Graphics/SVG/1.1/DTD/svg11.dtd">
<svg version="1.1" id="Capa_1" xmlns="http://www.w3.org/2000/svg" xmlns:xlink="http://www.w3.org/1999/xlink" x="0px" y="0px"
	 viewBox="0 0 150 150" style="enable-background:new 0 0 150 150;" xml:space="preserve">
<g>
	<path d="M27.086,86.414c2.875,2.875,5.75,5.75,8.625,8.625c0.254,0.676,0.848,1.211,1.789,1.211h14.399
		c0.658,0.751,1.321,1.497,1.975,2.252c3.057,3.523,7.419,7.411,9.136,11.792c0.074,0.189,0.172,0.349,0.279,0.495v35.139
		c0,2.947,4.57,2.947,4.57,0V97.129c0.508,0.506,1.016,1.012,1.523,1.518v47.28c0,2.947,4.57,2.947,4.57,0V103.43
		c0.014-0.061,0.039-0.115,0.055-0.175c0.521,0.519,1.041,1.038,1.562,1.557c-0.094,0.233-0.144,0.47-0.15,0.705
		c-0.079,0.232-0.134,0.485-0.134,0.774v39.637c0,2.947,4.57,2.947,4.57,0v-36.845c0.548,0.546,1.096,1.092,1.644,1.638V146
		c0,2.579,4,2.579,4,0v-28.617c4.408-4.224,8.876-8.384,13.406-12.478c0.3-0.271,0.472-0.568,0.561-0.871
		c0.173-0.281,0.283-0.621,0.283-1.034v-7.941l11.772-11.831c0.076,0.008,0.147,0.023,0.228,0.023h13.373
		c1.183,0.508,2.877-0.07,2.877-1.75v-41c0-2.579-4-2.579-4,0v38.75h-8.521l4.125-4.146c0.673-0.677,0.708-1.49,0.396-2.154V60
		c0-2.579-4-2.579-4,0v13.055c-5.417,5.444-10.833,10.888-16.25,16.332v-8.426c2.91-2.911,5.82-5.821,8.731-8.731
		c0.635-0.635,0.698-1.387,0.443-2.026c-0.025-0.194-0.082-0.383-0.174-0.564V59.617c0.068-0.053,0.137-0.099,0.203-0.164
		c2.819-2.79,5.637-5.58,8.456-8.37c0.737-0.224,1.342-0.832,1.342-1.833V23.5c0-2.579-4-2.579-4,0v24.586c-2,1.98-4,3.96-6,5.939
		V31.25c0-2.579-4-2.579-4,0v35.599c-1.286-0.846-2.537-1.743-3.75-2.694V43.75c0-2.579-4-2.579-4,0v21.5
		c0,0.975,0.572,1.581,1.284,1.818c1.829,1.437,3.712,2.79,5.678,4.024l-4.212,4.213V73c0-2.579-4-2.579-4,0v6.305
		c-1.109,1.109-2.218,2.218-3.327,3.327v-0.334c0-0.274-0.05-0.515-0.122-0.738c-0.093-0.351-0.275-0.7-0.595-1.021
		c-2.3-2.306-4.6-4.612-6.9-6.918v-8.933c2.551-2.686,5.127-5.348,7.73-7.983c0.287-0.291,0.464-0.604,0.565-0.921
		c0.167-0.305,0.273-0.665,0.273-1.096V18.89c0-2.947-4.57-2.947-4.57,0v35.097c-1.339,1.359-2.673,2.724-3.999,4.097V32.6
		c0-2.947-4.57-2.947-4.57,0v36.439c-0.508-0.509-1.016-1.018-1.523-1.527V22.889c0-2.947-4.57-2.947-4.57,0v45.128
		c0,0.544,0.157,0.986,0.411,1.329c0.086,0.371,0.272,0.739,0.609,1.078l5.073,5.087v14.341c-2.096,1.935-4.196,3.864-6.284,5.808
		v-7.649c0-0.205-0.026-0.392-0.067-0.568c0.243-2.744-0.945-5.271-3.308-6.882c-0.867-0.591-1.78-1.054-2.718-1.479V59.247
		c1.14-1.155,2.28-2.311,3.42-3.466c0.312-0.316,0.478-0.661,0.544-1.007C72.483,54.512,73,53.925,73,53V16c0-2.579-4-2.579-4,0
		v36.558c-0.189,0.096-0.374,0.217-0.549,0.395c-0.197,0.2-0.394,0.4-0.591,0.599V18.129c0-2.947-4.57-2.947-4.57,0v40.056
		c-0.698,0.708-1.396,1.415-2.095,2.123V17.938c0-2.947-4.57-2.947-4.57,0v58.838c0,0.65,0.23,1.148,0.577,1.511
		c1.441,1.958,3.425,2.686,5.633,3.597c0.137,0.057,0.291,0.116,0.455,0.178v4.867c-2.708-2.698-5.416-5.396-8.124-8.095
		c-0.195-0.195-0.403-0.326-0.614-0.422c-0.12-0.882-0.118-1.769-0.028-2.661c0.015-0.147,0.004-0.29-0.023-0.43V21
		c0-2.579-4-2.579-4,0v54.5c0,0.087,0.015,0.163,0.024,0.245c0,0.003-0.001,0.005-0.001,0.008c-0.144,1.442-0.028,2.868,0.259,4.288
		c0.138,0.683,0.699,1.172,1.345,1.367c0.064,0.086,0.128,0.173,0.211,0.256c3.651,3.638,7.302,7.275,10.953,10.913v10.768
		c-1.387-1.74-2.919-3.387-4.349-5.067c-3.657-4.296-7.401-8.517-11.19-12.697V30c0-2.579-4-2.579-4,0v40.637
		c-2.093-2.061-4.261-4.041-6.5-5.947V50.018c0.004-0.004,0.008-0.006,0.012-0.01c1.802-1.877,3.45-3.884,4.972-5.995
		c0.261-0.363,0.327-0.8,0.263-1.227c0-0.013,0.004-0.024,0.004-0.037V17.5c0-2.579-4-2.579-4,0v24.853
		c-0.407,0.542-0.824,1.076-1.25,1.602V41.25c0-2.579-4-2.579-4,0V65.5c0,0.035,0.008,0.064,0.01,0.098
		c-0.053,0.503,0.123,1.03,0.653,1.475c3.455,2.904,6.73,5.996,9.838,9.268v9.91c0,0.676,0.278,1.17,0.684,1.492
		c0.084,0.166,0.185,0.33,0.327,0.487c1.21,1.334,2.409,2.677,3.607,4.021h-9.789L30.5,84.172V31.25c0-2.579-4-2.579-4,0v20.493
		c-1.583-1.869-3.167-3.737-4.75-5.606V24.75c0-2.579-4-2.579-4,0V47c0,0.789,0.376,1.334,0.896,1.64
		c2.618,3.09,5.236,6.179,7.854,9.269V84.5c0,0.103,0.016,0.194,0.029,0.289C26.441,85.328,26.58,85.909,27.086,86.414z
		 M92.215,95.28c0.131-0.281,0.207-0.608,0.207-0.986V88.29c1.109-1.109,2.218-2.218,3.327-3.327v17.414
		c-3.455,3.127-6.866,6.302-10.25,9.505v-1.566c0.148-0.582,0.026-1.23-0.531-1.785c-1.14-1.136-2.279-2.271-3.419-3.407
		c3.243-3.112,6.581-6.118,10.033-8.999C91.897,95.863,92.096,95.576,92.215,95.28z M77.806,98.312
		c1.943-1.794,3.886-3.589,5.829-5.383c0.207-0.191,0.35-0.395,0.464-0.602c0.424-0.368,0.707-0.918,0.707-1.65V80.093
		c1.016,1.018,2.031,2.037,3.047,3.055v10.171c-3.277,2.753-6.457,5.613-9.546,8.573c-0.697-0.695-1.395-1.39-2.092-2.084
		C76.724,99.299,77.268,98.809,77.806,98.312z M67.859,84.138c1.047,0.74,1.753,1.67,1.528,2.873
		c-0.062,0.33-0.052,0.636,0.003,0.919c-0.001,0.028-0.008,0.052-0.008,0.08V93c-0.508-0.506-1.016-1.012-1.523-1.518V84.138z
		 M61.195,76.014V66.003c0.698-0.708,1.396-1.415,2.095-2.123v13.442C62.449,76.979,61.67,76.568,61.195,76.014z"/>
	<path d="M126.128,3.702c-0.523-0.52-1.181-0.786-1.847-0.751c-0.332-0.149-0.692-0.225-1.073-0.225H26.792
		c-0.381,0-0.741,0.075-1.073,0.225c-0.67-0.036-1.324,0.231-1.847,0.75L8.502,18.914c-0.793,0.785-0.982,1.861-0.508,2.837v72.44
		c0,0.2,0.023,0.4,0.071,0.609c0.017,0.625,0.276,1.205,0.751,1.683l20.317,20.356c0.455,0.721,1.2,1.116,2.102,1.116h19.866
		c1.656,0,2.523-1.304,2.523-2.592c0-1.287-0.867-2.591-2.523-2.591H32.389L13.176,93.516V21.579L26.989,7.908h96.022l13.812,13.671
		v71.937l-19.212,19.258H98.898c-1.656,0-2.522,1.304-2.522,2.591c0,1.288,0.866,2.592,2.522,2.592h19.866
		c0.873,0,1.601-0.372,2.078-1.084l20.342-20.39c0.475-0.477,0.732-1.057,0.75-1.682c0.048-0.209,0.071-0.409,0.071-0.609v-72.44
		c0.475-0.976,0.285-2.052-0.508-2.837L126.128,3.702z"/>
</g>
</svg>
