<?xml version="1.0" encoding="iso-8859-1"?>
<!-- Generator: Adobe Illustrator 17.1.0, SVG Export Plug-In . SVG Version: 6.00 Build 0)  -->
<!DOCTYPE svg PUBLIC "-//W3C//DTD SVG 1.1//EN" "http://www.w3.org/Graphics/SVG/1.1/DTD/svg11.dtd">
<svg version="1.1" id="Capa_1" xmlns="http://www.w3.org/2000/svg" xmlns:xlink="http://www.w3.org/1999/xlink" x="0px" y="0px"
	 viewBox="0 0 150 150" style="enable-background:new 0 0 150 150;" xml:space="preserve">
<g>
	<path d="M79.673,7.733c-0.707-1.009-1.6-1.635-2.554-1.955c-1.425-0.724-3.115-0.712-4.564,0.55
		c-1.053,0.619-1.881,1.551-2.234,2.651c-13.069,16.52-22.187,36.346-24.322,57.43C44.224,83.938,55,108,70.5,107.792V133.5h-4
		c-6.449,0-6.449,10,0,10h18c6.449,0,6.449-10,0-10h-4v-26c0-0.014-0.003-0.027-0.003-0.042C99,104.5,103.576,83.12,102.493,64.019
		C101.352,43.889,91.218,24.202,79.673,7.733z"/>
</g>
</svg>
