<?xml version="1.0" encoding="iso-8859-1"?>
<!-- Generator: Adobe Illustrator 17.1.0, SVG Export Plug-In . SVG Version: 6.00 Build 0)  -->
<!DOCTYPE svg PUBLIC "-//W3C//DTD SVG 1.1//EN" "http://www.w3.org/Graphics/SVG/1.1/DTD/svg11.dtd">
<svg version="1.1" id="Capa_1" xmlns="http://www.w3.org/2000/svg" xmlns:xlink="http://www.w3.org/1999/xlink" x="0px" y="0px"
	 viewBox="0 0 150 150" style="enable-background:new 0 0 150 150;" xml:space="preserve">
<g>
	<path d="M126.802,45.807c-3.847,2.067-5.443,6.048-4.875,10.729c0.171,1.405-0.543,3.605-1.613,4.36
		c-6.701,4.725-13.54,9.268-20.501,13.6c-2.63,1.637-3.922,0.726-4.325-2.389c-0.138-1.064-0.07-2.159-0.043-3.239
		c0.15-5.833,0.583-11.675,0.391-17.496c-0.067-2.02,0.297-3.736,1.02-5.25c3.968-2.304,8.149-4.045,12.582-5.236
		c3.303,2.917,7.697,3.489,11.493,1.283c4.164-2.42,5.864-7.482,4.054-12.071c-1.646-4.173-6.199-6.599-10.776-5.74
		c-4.912,0.921-7.842,4.741-7.806,9.978c0.006,0.879-0.226,1.76-0.439,2.64c-4.019,1.25-7.862,2.95-11.508,5.083
		c-1.311,0.248-2.41,0.184-3.436-0.229c-1.593-1.687-3.187-3.374-4.78-5.061c3.476-5.947,3.358-10.284-0.382-13.907
		c-3.205-3.104-8.149-3.601-11.96-1.201c-3.873,2.438-5.464,7.339-3.794,11.684c1.823,4.743,4.851,6.102,12.781,5.36
		c2.374,2.513,4.748,5.027,7.122,7.54c1.495,2.763,2.577,5.705,2.739,9.007c0.09,1.819,0.107,3.644,0.081,5.47
		c-6.624-4.582-13.28-9.123-19.842-13.793c-7.383-5.255-14.567-12.062-15.643-21.475c1.505-0.358,2.939-1.027,4.204-2.086
		c1.082-0.906,1.904-1.908,2.493-2.966c0.822-0.756,1.387-1.838,1.445-3.256c0.249-6.104-3.467-10.825-8.901-13.11
		c-4.512-1.897-9.464-0.002-12.897,3.125c-0.182,0.117-0.322,0.262-0.438,0.421c-0.591,0.58-1.138,1.191-1.614,1.828
		c-0.714,0.954-0.834,2.151-0.561,3.28c-1.082,6.593,5.692,12.467,12.52,13.032C54.566,34.036,59.402,40.577,65.657,46
		c8.165,7.079,17.768,12.775,26.636,18.923c0.132,0.092,0.263,0.16,0.393,0.213c-0.114,2.315-0.277,4.629-0.455,6.935
		c-0.403,5.206-1.438,10.222-3.263,14.968c-1.379-1.014-2.432-2.411-3.063-4.03c3.082-2.264,3.642-6.394,2.099-9.716
		c-1.543-3.323-6.089-4.546-9.321-3.363c-2.792,1.022-4.449,3.586-4.538,6.304c-0.333,2.058,0.344,4.234,1.809,5.972
		c1.317,1.563,3.385,2.273,5.443,2.242c1.053,2.909,3.052,5.322,5.634,6.941c-0.968,1.894-2.078,3.737-3.348,5.522
		c-3.149,4.423-6.113,4.965-9.796,1.068c-4.513-4.775-8.617-9.954-12.68-15.129c-1.698-2.163-1.912-4.733-1.43-7.321
		c0.209-0.437,0.417-0.874,0.626-1.31c7.834-0.672,11.119-2.725,12.133-7.486c0.975-4.577-1.036-9.015-4.967-10.963
		c-1.55-0.768-3.292-1.094-4.993-1.003c-4.677-0.328-8.901,3.297-10.323,7.51c-1.27,3.763,0.748,7.829,3.967,9.803
		c-0.507,1.062-1.014,2.124-1.521,3.186c-0.905,0.003-1.94-0.414-2.928-1.277c-3.407-2.976-6.371-6.47-9.837-9.367
		c-2.728-2.281-4.354-4.858-5.012-7.76c1.046-4.907,2.093-9.814,3.139-14.721c0.406-0.206,0.865-0.385,1.41-0.53
		c6.065-1.61,8.612-8.777,5.351-14.164c-2.045-3.378-5.801-5.115-9.684-4.477c-4.328,0.711-7.187,3.45-8.09,7.749
		c-0.808,3.85,0.977,7.741,4.413,10.064c0.547,0.369,1.245,0.871,1.783,1.383c-1.089,5.107-2.178,10.214-3.267,15.321
		c-0.924-0.289-1.854-0.548-2.797-0.743c-0.911-6.547-3.213-9.464-7.769-10.143c-4.695-0.7-8.949,1.513-10.671,5.552
		c-1.787,4.19-0.583,8.936,2.96,11.669c3.996,3.082,7.611,2.564,14.319-2.51c1.312,0.253,2.601,0.623,3.87,1.095
		c3.709,3.312,7.446,6.66,11.225,9.981c10.448,9.182,18.643,19.998,24.683,32.379c-10.185-1.538-19.173-7.718-24.237-16.911
		c0.861-0.747,1.611-1.641,2.196-2.661c2.352-4.107,0.256-9.389-3.56-11.676c-1.041-0.624-2.121-0.956-3.208-1.065
		c-0.818-0.373-1.701-0.599-2.619-0.626c-3.338-0.099-6.099,1.74-7.532,4.6c-0.475,0.259-0.862,0.704-1.015,1.413
		c-0.008,0.038-0.012,0.077-0.02,0.115c-0.401,0.619-0.433,1.29-0.233,1.888c-0.174,4.095,1.879,7.82,5.83,9.634
		c1.967,0.903,4.055,1.029,5.995,0.552c6.124,11.391,17.918,18.885,30.722,19.753c1.046,2.277,2.296,4.557,2.747,6.922
		c-1.129,7.259-2.998,14.352-5.523,21.278c-0.584,1.601-0.061,2.87,0.922,3.664c0.2,0.408,0.477,0.76,0.708,0.811
		c5.917,1.304,11.882,2.151,17.799,0.062c0.5-0.177,1.13-1.109,1.158-1.656c0.48-0.761,0.674-1.73,0.365-2.861
		c-2.111-7.721-3.126-15.62-2.952-23.553c0.322-1.404,0.643-2.807,0.97-4.21c0.079-0.03,0.157-0.05,0.237-0.09
		c4.738-2.353,9.476-4.706,14.214-7.058c0.035,0.032,0.066,0.067,0.102,0.099c2.831,2.483,7.057,2.05,9.775-0.319
		c2.981-2.6,2.463-7.229,0.247-10.048c-2.516-3.202-7.58-2.705-10.355-0.287c-0.232,0.203-0.393,0.42-0.517,0.643
		c-0.148,0.136-0.289,0.288-0.413,0.476c-1.042,1.575-1.372,3.497-1.058,5.307c-0.052,0.022-0.104,0.033-0.156,0.059
		c-3.533,1.754-7.065,3.508-10.598,5.263c0.428-1.608,0.877-3.209,1.384-4.792c0.25-0.781,0.518-1.555,0.795-2.326
		c6.856-8.301,16.965-13.131,27.783-13.38c0.031-0.001,0.057-0.009,0.087-0.011c0.184,1.538,0.771,3.053,1.822,4.334
		c3.137,3.823,9.366,4.875,13.265,1.565c3.751-3.184,4.657-9.487,1.304-13.311c-3.571-4.072-9.821-4.169-13.78-0.651
		c-0.585,0.52-0.794,1.125-0.75,1.704c-0.464,0.538-0.85,1.134-1.149,1.777c-0.24-0.076-0.5-0.127-0.799-0.12
		c-8.086,0.186-15.673,2.619-22.152,6.892c1.028-1.448,2.171-2.834,3.462-4.14c7.248-7.332,15.721-12.851,24.862-17.406
		c1.466-0.731,3.474-0.896,5.124-0.638c4.563,0.714,8.784-0.962,10.842-4.719c1.971-3.598,1.349-8.548-1.443-11.469
		C135.464,44.478,130.652,43.738,126.802,45.807z"/>
</g>
</svg>
