<?xml version="1.0" encoding="iso-8859-1"?>
<!-- Generator: Adobe Illustrator 17.1.0, SVG Export Plug-In . SVG Version: 6.00 Build 0)  -->
<!DOCTYPE svg PUBLIC "-//W3C//DTD SVG 1.1//EN" "http://www.w3.org/Graphics/SVG/1.1/DTD/svg11.dtd">
<svg version="1.1" id="Capa_1" xmlns="http://www.w3.org/2000/svg" xmlns:xlink="http://www.w3.org/1999/xlink" x="0px" y="0px"
	 viewBox="0 0 150 150" style="enable-background:new 0 0 150 150;" xml:space="preserve">
<g>
	<path d="M15.237,70.82c0.305,1.157,1.533,1.836,3.18,2.195c0.097,0.575,0.434,1.1,0.944,1.576c0.227,0.394,0.576,0.715,1.028,0.969
		c-1.489,2.71-2.426,5.494-1.437,7.012c0.303,1.814,2.981,3.148,5.994,4.026c-0.147,0.524-0.168,1.023-0.029,1.481
		c-0.013,0.665,0.141,1.233,0.464,1.692c-0.921,1.427-1.316,2.783-0.71,3.823c0.664,1.14,2.261,1.413,4.185,1.219
		c-0.01,1.736,0.387,3.127,1.477,3.679c2.265,1.146,5.676-2.227,8.18-5.575c0.327-0.2,0.648-0.403,0.964-0.611
		c0.5,0.011,1.049-0.071,1.635-0.232c-0.161,0.586-0.243,1.134-0.232,1.635c-0.208,0.317-0.411,0.638-0.611,0.964
		c-3.349,2.504-6.722,5.915-5.575,8.18c0.552,1.09,1.944,1.487,3.679,1.477c-0.194,1.924,0.079,3.52,1.219,4.185
		c1.039,0.605,2.396,0.21,3.823-0.71c0.459,0.323,1.027,0.478,1.692,0.464c0.457,0.139,0.956,0.117,1.481-0.029
		c0.878,3.013,2.212,5.691,4.026,5.994c1.517,0.989,4.301,0.051,7.012-1.437c0.255,0.452,0.575,0.801,0.969,1.028
		c0.476,0.511,1.001,0.847,1.576,0.944c0.359,1.647,1.038,2.875,2.195,3.18c1.277,0.337,2.601-0.589,3.824-2.088
		c0.607,0.613,1.225,1.094,1.836,1.375c3.027,6.172,3.526,15.913,2.189,22.208c-0.366,1.723,0.068,3.506,1.191,4.892
		c2.055,2.538,5.649,2.917,7.608,2.917c4.564,0,9.475-2.319,9.475-7.411v-23.298v-3.6c2.62,1.398,5.265,2.245,6.729,1.29
		c1.814-0.303,3.148-2.981,4.026-5.994c0.525,0.147,1.023,0.168,1.481,0.029c0.665,0.013,1.233-0.141,1.692-0.464
		c1.426,0.921,2.783,1.316,3.823,0.71c1.14-0.664,1.413-2.261,1.219-4.185c1.736,0.01,3.127-0.387,3.679-1.477
		c1.146-2.265-2.227-5.676-5.575-8.18c-0.2-0.327-0.403-0.648-0.611-0.964c0.011-0.5-0.071-1.049-0.232-1.635
		c0.586,0.161,1.135,0.243,1.635,0.232c0.317,0.208,0.638,0.411,0.964,0.611c2.504,3.349,5.915,6.722,8.18,5.575
		c1.09-0.552,1.487-1.944,1.477-3.679c1.924,0.194,3.52-0.079,4.185-1.219c0.605-1.039,0.21-2.396-0.71-3.823
		c0.323-0.459,0.478-1.026,0.464-1.691c0.139-0.457,0.117-0.956-0.03-1.481c3.013-0.878,5.691-2.212,5.994-4.026
		c0.989-1.517,0.051-4.301-1.437-7.012c0.451-0.255,0.801-0.575,1.028-0.969c0.51-0.476,0.847-1.001,0.944-1.576
		c1.647-0.359,2.875-1.038,3.18-2.195c0.337-1.277-0.589-2.601-2.088-3.824c1.232-1.219,1.928-2.483,1.548-3.643
		c-0.79-2.408-5.572-2.437-9.706-1.842c-0.371-0.09-0.743-0.173-1.113-0.249c-0.344-0.361-0.79-0.692-1.316-0.992
		c0.526-0.3,0.972-0.63,1.316-0.992c0.37-0.077,0.742-0.16,1.114-0.249c4.134,0.594,8.917,0.566,9.706-1.842
		c0.38-1.16-0.316-2.424-1.548-3.643c1.499-1.223,2.425-2.548,2.088-3.824c-0.305-1.157-1.533-1.836-3.18-2.196
		c-0.097-0.575-0.434-1.1-0.944-1.576c-0.227-0.394-0.576-0.715-1.028-0.969c1.488-2.71,2.426-5.494,1.437-7.012
		c-0.303-1.814-2.981-3.148-5.994-4.026c0.147-0.525,0.168-1.023,0.03-1.481c0.013-0.665-0.141-1.233-0.464-1.691
		c0.921-1.427,1.316-2.783,0.71-3.823c-0.664-1.14-2.261-1.413-4.185-1.219c0.01-1.736-0.387-3.127-1.477-3.679
		c-2.265-1.146-5.676,2.227-8.18,5.575c-0.327,0.2-0.648,0.403-0.964,0.611c-0.5-0.011-1.049,0.071-1.635,0.232
		c0.161-0.585,0.243-1.134,0.232-1.635c0.208-0.317,0.412-0.638,0.611-0.964c3.349-2.504,6.722-5.915,5.575-8.18
		c-0.552-1.09-1.944-1.487-3.679-1.477c0.194-1.924-0.079-3.52-1.219-4.185c-1.039-0.605-2.396-0.21-3.823,0.71
		c-0.459-0.323-1.026-0.478-1.691-0.464c-0.457-0.139-0.956-0.117-1.481,0.03c-0.878-3.013-2.212-5.691-4.026-5.994
		c-1.517-0.989-4.301-0.051-7.012,1.437c-0.255-0.452-0.575-0.801-0.969-1.028c-0.476-0.511-1.001-0.847-1.576-0.944
		c-0.359-1.647-1.038-2.875-2.195-3.18c-1.277-0.337-2.601,0.589-3.824,2.088c-1.219-1.232-2.483-1.928-3.643-1.548
		c-2.408,0.79-2.437,5.572-1.842,9.707c-0.09,0.371-0.173,0.743-0.249,1.113c-0.361,0.344-0.692,0.79-0.992,1.316
		c-0.3-0.526-0.63-0.972-0.992-1.316c-0.077-0.37-0.16-0.742-0.249-1.113c0.594-4.134,0.566-8.917-1.842-9.707
		c-1.16-0.38-2.424,0.316-3.643,1.548c-1.223-1.499-2.547-2.425-3.824-2.088c-1.157,0.305-1.836,1.533-2.195,3.18
		c-0.575,0.097-1.1,0.434-1.576,0.944c-0.394,0.227-0.715,0.576-0.969,1.028c-2.71-1.489-5.494-2.426-7.012-1.437
		c-1.814,0.303-3.148,2.981-4.026,5.994c-0.525-0.147-1.023-0.168-1.481-0.03c-0.665-0.013-1.233,0.141-1.691,0.464
		c-1.426-0.921-2.783-1.316-3.823-0.71c-1.14,0.664-1.413,2.261-1.219,4.185c-1.736-0.01-3.127,0.387-3.679,1.477
		c-1.146,2.265,2.227,5.676,5.575,8.18c0.2,0.327,0.403,0.648,0.611,0.964c-0.011,0.5,0.071,1.049,0.232,1.635
		c-0.586-0.161-1.134-0.243-1.635-0.232c-0.317-0.208-0.638-0.412-0.964-0.611c-2.504-3.349-5.915-6.722-8.18-5.575
		c-1.09,0.552-1.487,1.944-1.477,3.679c-1.924-0.194-3.52,0.078-4.185,1.219c-0.605,1.039-0.21,2.396,0.71,3.823
		c-0.323,0.459-0.478,1.027-0.464,1.692c-0.139,0.457-0.117,0.956,0.029,1.481c-3.013,0.878-5.691,2.212-5.994,4.026
		c-0.989,1.517-0.051,4.301,1.437,7.012c-0.451,0.255-0.801,0.575-1.028,0.969c-0.511,0.476-0.847,1.001-0.944,1.576
		c-1.647,0.359-2.875,1.038-3.18,2.195c-0.337,1.276,0.589,2.601,2.088,3.824c-1.232,1.219-1.928,2.483-1.548,3.643
		c0.79,2.408,5.572,2.437,9.706,1.842c0.371,0.09,0.743,0.173,1.114,0.249c0.344,0.361,0.79,0.692,1.316,0.992
		c-0.526,0.3-0.972,0.63-1.316,0.992c-0.37,0.077-0.742,0.16-1.113,0.249c-4.134-0.595-8.917-0.566-9.706,1.842
		c-0.38,1.16,0.316,2.424,1.548,3.643C15.826,68.219,14.9,69.543,15.237,70.82z M75.104,140.481
		c1.675-7.888,0.824-19.54-3.228-26.659c-0.021-0.036-0.039-0.076-0.06-0.113c-4.054-7.019-9.979-12.424-14.955-18.737
		C47.664,83.305,42.698,69.43,42.989,54.515c0.047-2.406,1.939-3.61,3.807-3.61c1.866,0,3.707,1.202,3.66,3.61
		c-0.17,8.72,1.455,17.616,5.482,25.422c3.768,7.306,9.132,13.014,14.426,19.201c2.115,2.472,4.003,5.022,5.656,7.644V58.257
		c0-2.408,1.867-3.611,3.734-3.611c1.867,0,3.734,1.204,3.734,3.611v25.966c1.596-2.647,3.014-5.401,4.087-8.298
		c3.537-9.549,4.716-19.379,3.441-29.486c-0.3-2.377,1.407-3.555,3.268-3.555c1.872,0,3.901,1.192,4.199,3.555
		c1.198,9.498,0.445,19.454-2.667,28.55c-1.604,4.687-3.556,9.333-6.191,13.543c-1.719,2.746-3.997,5.21-5.18,8.265
		c-1.126,2.909-0.957,6.836-0.957,9.937c0,3.269,0,6.538,0,9.807c0,0.465,0,0.931,0,1.396c0,7.3,0,14.601,0,21.901
		c0,1.696-2.287,2.411-4.475,2.411C76.895,142.25,74.871,141.58,75.104,140.481z M72.914,35.799
		c0.242,0.375,0.508,0.753,0.791,1.129c-0.148-0.005-0.295-0.012-0.446-0.012c-0.11,0-0.226,0.002-0.345,0.004
		c-0.12-0.003-0.236-0.004-0.345-0.004c-0.151,0-0.298,0.007-0.446,0.012C72.406,36.552,72.672,36.175,72.914,35.799z
		 M56.969,43.206c-0.108,0.101-0.217,0.201-0.324,0.307c-0.074,0.074-0.159,0.167-0.238,0.25c-0.082,0.079-0.176,0.164-0.25,0.238
		c-0.106,0.106-0.206,0.215-0.307,0.323c-0.066-0.467-0.145-0.921-0.239-1.358C56.048,43.061,56.502,43.14,56.969,43.206z"/>
</g>
</svg>
