<?xml version="1.0" encoding="iso-8859-1"?>
<!-- Generator: Adobe Illustrator 17.1.0, SVG Export Plug-In . SVG Version: 6.00 Build 0)  -->
<!DOCTYPE svg PUBLIC "-//W3C//DTD SVG 1.1//EN" "http://www.w3.org/Graphics/SVG/1.1/DTD/svg11.dtd">
<svg version="1.1" id="Capa_1" xmlns="http://www.w3.org/2000/svg" xmlns:xlink="http://www.w3.org/1999/xlink" x="0px" y="0px"
	 viewBox="0 0 150 150" style="enable-background:new 0 0 150 150;" xml:space="preserve">
<g>
	<path d="M66.534,121.965v17.948c0,5.184,3.907,9.093,9.089,9.093s9.089-3.909,9.089-9.093v-18.205
		c20.258-4.707,28.686-24.583,28.686-48.396c0-27.314-11.084-69.731-38.398-69.731S36.602,45.999,36.602,73.313
		C36.602,97.605,45.38,117.792,66.534,121.965z M79.712,122.532v17.381c0,2.728-2.044,4.093-4.089,4.093s-4.089-1.364-4.089-4.093
		V122.63v-9.285c-8.054-0.754-14.776-6.516-17.462-14.675c-1.029-3.126,1.439-5.168,3.931-5.168c1.637,0,3.284,0.882,3.955,2.919
		c1.572,4.776,5.211,7.593,9.576,8.327V93.403c-8.054-0.754-14.776-6.516-17.462-14.675c-1.029-3.126,1.439-5.168,3.931-5.168
		c0.336,0,0.671,0.047,1,0.124c1.271,0.297,2.422,1.176,2.955,2.794c1.572,4.776,5.211,7.593,9.576,8.327V73.658
		c-5.105-0.478-9.67-2.973-13.017-6.81c-1.933-2.217-3.462-4.878-4.445-7.865c-1.029-3.126,1.439-5.168,3.931-5.168
		c0.769,0,1.536,0.203,2.208,0.621c0.758,0.471,1.392,1.218,1.747,2.298c1.572,4.776,5.211,7.593,9.576,8.327V48.524
		c0-2.728,2.044-4.093,4.089-4.093s4.089,1.364,4.089,4.093v16.537c4.366-0.735,8.004-3.551,9.576-8.327
		c0.179-0.544,0.432-1,0.731-1.384c0.822-1.055,2.023-1.534,3.223-1.534c2.491,0,4.96,2.042,3.931,5.168
		c-1.188,3.608-3.167,6.744-5.7,9.189c-3.194,3.084-7.27,5.066-11.762,5.486v11.147c4.366-0.735,8.004-3.551,9.576-8.327
		c0.332-1.009,0.905-1.733,1.597-2.208c0.704-0.484,1.532-0.71,2.358-0.71c2.491,0,4.96,2.042,3.931,5.168
		c-2.686,8.159-9.409,13.921-17.462,14.675v11.345c4.366-0.735,8.004-3.551,9.576-8.327c0.67-2.037,2.317-2.919,3.955-2.919
		c2.491,0,4.96,2.043,3.931,5.168c-2.686,8.159-9.409,13.921-17.462,14.675V122.532z"/>
</g>
</svg>
