<?xml version="1.0" encoding="iso-8859-1"?>
<!-- Generator: Adobe Illustrator 17.1.0, SVG Export Plug-In . SVG Version: 6.00 Build 0)  -->
<!DOCTYPE svg PUBLIC "-//W3C//DTD SVG 1.1//EN" "http://www.w3.org/Graphics/SVG/1.1/DTD/svg11.dtd">
<svg version="1.1" id="Capa_1" xmlns="http://www.w3.org/2000/svg" xmlns:xlink="http://www.w3.org/1999/xlink" x="0px" y="0px"
	 viewBox="0 0 150 150" style="enable-background:new 0 0 150 150;" xml:space="preserve">
<g>
	<path d="M138.677,13.193c-1.577-0.938-3.397-1.414-5.41-1.414c-2.713,0-5.729,0.881-8.493,2.481
		c-4.399,2.548-7.26,7.495-8.271,14.306c-0.661,4.442-0.437,9.201-0.219,13.805c0.104,2.232,0.214,4.528,0.22,6.777
		c-1.25-1.241-2.799-2.195-4.62-2.845c-6.438-2.299-12.011-1.778-16.448,1.537c-4.801,3.583-4.876,11.671-3.796,15.928
		c0.925,3.646,4.84,5.307,8.086,5.307c1.286,0,2.523-0.254,3.578-0.735c4.997-2.281,6.892-7.678,4.606-13.123
		c-0.5-1.191-1.621-1.903-2.998-1.903c-1.122,0-2.144,0.488-2.665,1.273c-0.436,0.654-0.486,1.464-0.144,2.28
		c0.934,2.227,1.176,3.876-0.349,5.689c-0.796,0.516-1.496,0.777-2.084,0.777c-1.144,0-1.993-1.08-2.528-3.212
		c0.004-1.142,0.098-2.298,0.279-3.442c0.575-3.873,3.156-6.006,7.267-6.006c0.887,0,1.835,0.101,2.817,0.299
		c5.37,1.085,6.316,4.275,6.184,9.784c-0.255,10.56-12.705,16.848-22.71,21.9c-2.489,1.257-4.841,2.444-6.835,3.61
		c-3.987,2.329-6.812,4.559-8.831,6.978c-7.038-7.62-8.918-16.1-5.584-25.207c3.742-10.227,12.14-15.94,21.029-21.99
		c5.984-4.073,12.172-8.284,16.701-13.977c4.604-5.789,6.261-15.035,3.938-21.986c-2.346-7.022-10.924-8.071-15.827-8.071
		c-0.373,0-0.74,0.006-1.104,0.017c-7.562,0.232-12.773,4.32-13.599,10.669c-0.326,2.519,0.546,5.243,2.395,7.476
		c1.918,2.316,4.586,3.737,7.321,3.897c3.863,0.225,7.372-1.33,9.287-4.057c1.538-2.19,1.849-4.883,0.874-7.582
		c-0.439-1.217-1.558-1.973-2.918-1.973c-1.093,0-2.11,0.484-2.657,1.263c-0.463,0.658-0.552,1.48-0.251,2.314
		c0.419,1.158,0.377,2.146-0.121,2.855c-0.527,0.752-1.59,1.201-2.842,1.201c-1.723,0-3.84-0.872-4.684-2.819
		c-0.532-1.229-0.559-2.478-0.079-3.614c0.591-1.396,1.932-2.577,3.679-3.239c2.155-0.818,5.199-0.951,8.933-0.396
		c4.301,0.64,6.479,3.482,6.477,8.45c-0.006,6.797-2.591,11.836-8.381,16.341c-1.528,1.188-3.102,2.34-4.607,3.424
		c-0.3-1.975-1.172-3.789-2.55-5.288c-2.003-2.18-4.518-3.736-6.949-5.241c-0.468-0.289-0.937-0.579-1.403-0.875
		c-4.663-2.948-6.654-8.099-5.196-13.439c0.232-0.852,0.082-1.685-0.423-2.346c-0.586-0.768-1.604-1.245-2.655-1.245
		c-1.362,0-2.424,0.79-2.771,2.062c-1.573,5.766-0.392,11.663,3.159,15.777c1.219,1.411,3.201,2.776,5.301,4.222
		c3.319,2.285,7.081,4.876,7.6,7.765c0.205,1.142-0.092,2.274-0.906,3.459c-1.134,0.814-2.264,1.633-3.378,2.468
		c-10.694,8.018-17.301,16.446-20.195,25.769c-0.545,1.755-0.89,3.544-1.031,5.345c-2.704-7.995-1.136-16.732,0.389-25.226
		c1.567-8.729,2.808-18.01-0.658-27.073c-2.478-6.48-9.293-13.714-18.401-14.28c-0.389-0.024-0.779-0.036-1.168-0.036
		c-7.335,0-13.61,4.035-15.615,10.04c-2.237,6.702,1.025,13.416,7.589,15.617c1.58,0.53,3.237,0.799,4.928,0.799
		c6.096,0,10.631-3.298,11.553-8.401c0.43-2.377-0.104-4.542-1.54-6.262c-1.726-2.065-4.628-3.299-7.763-3.299
		c-1.743,0-3.453,0.39-4.945,1.127c-1.193,0.59-1.76,1.708-1.478,2.919c0.324,1.388,1.631,2.434,3.04,2.434
		c0.465,0,0.929-0.108,1.379-0.32c2.364-0.505,3.981-0.33,4.723,0.513c0.485,0.553,0.653,1.445,0.502,2.627
		c-0.389,2.15-3.33,2.981-5.73,3.039l-0.152,0.002c-3.25,0-5.831-2.495-6.7-4.959c-0.689-1.953-0.432-3.801,0.765-5.49
		c1.872-2.646,5.995-4.567,9.804-4.567c0.515,0,1.012,0.037,1.478,0.109c16.113,2.5,14.121,23.979,13.127,30.503
		c-0.254,1.66-0.535,3.32-0.815,4.979c-1.146,6.758-2.325,13.724-1.501,20.608c-0.951-1.472-1.827-3.014-2.683-4.519
		c-0.916-1.613-1.782-3.138-2.732-4.583c-3.177-4.835-7.455-9.155-11.592-13.333c-5.826-5.885-11.851-11.97-14.876-19.572
		c-1.672-4.202-2.125-10.511,0.633-15.135c1.749-2.933,4.461-4.634,8.062-5.055c1.964-0.23,2.934-1.898,2.849-3.351
		c-0.076-1.304-1.017-2.63-2.966-2.4c-9.43,1.105-15.763,8.347-16.135,18.447c-0.286,7.787,3.695,14.779,7.397,19.546
		c-6.176-0.593-10.284,1.944-11.663,7.202c-0.225,0.854-0.066,1.688,0.443,2.349c0.591,0.767,1.608,1.242,2.654,1.242
		c1.363,0,2.418-0.794,2.753-2.072c0.587-2.235,2.024-3.321,4.395-3.321c3.907,0,9.144,2.987,11.527,4.871
		c3.862,3.053,6.802,7.142,9.395,10.749c1.499,2.084,2.861,4.401,4.179,6.643c1.718,2.922,3.487,5.932,5.641,8.594
		c-0.999-0.125-1.994-0.189-2.96-0.189c-6.891,0-12.166,3.175-17.407,6.712c-2.396,1.616-5.292,2.471-8.374,2.471
		c-4.056,0-8.001-1.538-10.555-4.114c-2.084-2.103-3.171-4.783-3.145-7.751c0.047-5.266,5.283-8.166,9.867-7.552
		c2.764,0.371,4.535,2.089,5.521,3.444c0.973,1.487,1.081,3.031,0.339,4.699c-0.449,0.896-1.583,1.297-2.509,1.297
		c-0.733,0-1.345-0.245-1.596-0.642c-0.271-0.427-0.103-0.995,0.087-1.396c0.439-0.933,0.381-1.921-0.166-2.783
		c-0.598-0.941-1.717-1.574-2.786-1.574c-1.02,0-1.868,0.558-2.326,1.53c-1.09,2.312-1.001,5.098,0.231,7.267
		c1.115,1.963,3.022,3.169,5.369,3.397c6.463,0.61,10.085-4.412,10.272-9.369c0.217-5.752-5.323-10.108-10.907-11.439
		c-5.392-1.284-11.064,0.88-14.861,5.581c-4.314,5.342-2.621,12.399,0.14,16.821c3.11,4.981,9.397,8.131,16.817,8.425
		c4.146,0.166,7.323-1.193,10.494-3.054c-0.206,0.344-0.398,0.68-0.586,1.006c-1.166,2.035-2.087,3.643-4.84,4.642
		c-2.564,0.93-5.616,0.31-9.342-1.917c-0.505-0.302-1.03-0.455-1.561-0.455c-1.276,0-2.466,0.952-2.828,2.263
		c-0.346,1.255,0.159,2.465,1.318,3.157c3.208,1.919,6.664,2.933,9.994,2.933c4.056,0,7.665-1.516,10.437-4.384
		c1.072-1.109,1.773-2.501,2.451-3.847c0.187-0.369,0.37-0.735,0.56-1.089c1.067-1.994,2.88-3.771,5.542-5.433
		c2.764-1.725,6.211-2.546,9.783-2.346c0.536,0.157,1.071,0.34,1.601,0.546c-2.634,0.485-4.909,1.88-6.504,4.011
		c-1.933,2.581-2.629,5.885-1.91,9.066c0.293,1.297,1.32,2.103,2.683,2.103c1.031,0,2.05-0.473,2.658-1.233
		c0.528-0.661,0.712-1.497,0.519-2.354c-0.348-1.542-0.087-2.913,0.755-3.967c0.942-1.178,2.539-1.882,4.272-1.882
		c1.716,0,3.832,0.773,4.671,2.934l-0.041,42.558c-0.005,3.723-0.009,7.238,2.953,10.465c1.521,1.657,3.907,2.569,6.72,2.569
		c1.175,0,2.373-0.169,3.464-0.488c1.691-0.494,2.272-1.946,2.098-3.166c-0.18-1.252-1.194-2.521-2.788-2.521
		c-0.305,0-0.62,0.047-0.938,0.141c-1.771,0.519-3.076,0.355-3.946-0.522c-1.557-1.571-1.524-5.094-1.501-7.666l0.036-34.427
		c0.224-0.4,0.34-0.842,0.347-1.316c0.002-0.129,0.002-0.259,0.001-0.388c0.837,1.348,1.513,2.622,2.048,3.863
		c-0.014,0.104-0.023,0.21-0.023,0.323v35.041c0.001,3.677,6.066,3.68,6.065,0c0-3.54-0.133-7.159-0.262-10.659
		c-0.178-4.849-0.361-9.863-0.194-14.737c0.233-6.837,3.911-10.298,11.244-10.58c2.007-0.081,3.634-0.09,5.191,1.125
		c0.986,0.771,1.365,1.673,1.067,2.54c-0.298,0.864-1.23,1.541-2.125,1.541c-0.808,0-1.415-0.559-1.71-1.572
		c-0.368-1.262-1.442-2.046-2.805-2.046c-1.061,0-2.077,0.479-2.655,1.249c-0.496,0.661-0.633,1.492-0.386,2.341
		c1.243,4.265,4.881,5.783,7.871,5.783c2.978,0,5.806-1.403,7.206-3.575c0.887-1.374,1.638-3.685,0.187-6.885
		c-1.903-4.2-6.276-6.608-11.999-6.608c-2.294,0-4.716,0.401-6.993,1.148c2.56-2.525,6.026-4.433,9.396-6.286
		c0.889-0.489,1.762-0.97,2.597-1.45c8.226-4.741,18.463-10.641,29.77-10.641c2.837,0.007,5.83,1.056,8.212,2.876
		c1.378,1.053,2.359,2.691,2.5,4.175c0.103,1.073-0.212,2.028-0.935,2.837c-0.591,0.663-1.247,0.999-1.95,0.999
		c-1.827,0-3.547-2.153-3.883-3.578c-0.305-1.291-1.34-2.094-2.702-2.094c-1.036,0-2.055,0.474-2.658,1.236
		c-0.522,0.66-0.699,1.496-0.497,2.353c1.059,4.49,4.946,7.508,9.673,7.508c0.938,0,1.89-0.12,2.83-0.358
		c2.506-0.633,4.452-2.363,5.48-4.872c1.146-2.798,0.937-6.057-0.548-8.505c-4.185-6.898-11.646-8.347-17.167-8.347
		c-1.747,0-3.562,0.146-5.411,0.434c0.691-1.031,1.306-2.13,1.822-3.255c5.315-8.558,4.895-18.863,4.487-28.83
		c-0.035-0.866-0.07-1.729-0.102-2.586c-0.294-8.067,0.524-16.667,8.814-19.275c0.664-0.209,1.319-0.314,1.947-0.314
		c3.905,0,6.459,4.094,7.46,7.599c0.688,2.415,0.296,4.724-1.076,6.354c-1.06,0.444-1.967,0.67-2.699,0.67
		c-0.958,0-2.255-0.32-2.463-3.012c0.136-1.495,0.748-2.806,1.84-3.918c0.783-0.902,0.951-2.036,0.461-3.11
		c-0.517-1.131-1.63-1.892-2.771-1.892c-0.769,0-1.47,0.341-2.027,0.984c-1.706,1.968-5.383,7.067-2.68,11.891
		c1.471,2.626,4.602,5.275,8.281,5.276c1.234,0,2.429-0.305,3.549-0.904c3.744-2.002,5.859-5.44,5.956-9.682
		C146.968,22.104,143.611,16.13,138.677,13.193z"/>
</g>
</svg>
