<?xml version="1.0" encoding="iso-8859-1"?>
<!-- Generator: Adobe Illustrator 17.1.0, SVG Export Plug-In . SVG Version: 6.00 Build 0)  -->
<!DOCTYPE svg PUBLIC "-//W3C//DTD SVG 1.1//EN" "http://www.w3.org/Graphics/SVG/1.1/DTD/svg11.dtd">
<svg version="1.1" id="Capa_1" xmlns="http://www.w3.org/2000/svg" xmlns:xlink="http://www.w3.org/1999/xlink" x="0px" y="0px"
	 viewBox="0 0 150 150" style="enable-background:new 0 0 150 150;" xml:space="preserve">
<g>
	<path d="M106.313,103.112c2.513,0.073,4.294,2.023,5.954,3.691c1.594,1.601,3.25,3.112,5.314,4.076
		c2.899,1.354,5.437-2.95,2.521-4.313c-3.399-1.588-5.564-4.67-8.458-6.642c0.52-0.578,1.001-1.237,1.426-2.011
		c1.55-2.825-2.763-5.345-4.313-2.521c-0.802,1.462-2.024,2.356-3.476,2.902c-0.012,0.005-0.025,0.009-0.038,0.014
		c-3.934,1.456-9.552,0.357-13.226,0.881c-0.018,0.003-0.035,0.007-0.053,0.009c2.618-1.61,5.505-2.899,7.992-4.07
		c6.499-3.06,12.866-7.265,14.934-14.543c0.882-3.105-3.937-4.421-4.816-1.328c-0.973,3.423-3.195,5.891-5.94,7.859
		c0.077-2.867-0.146-5.745,2.02-8.039c2.209-2.34-1.317-5.878-3.532-3.532c-1.758,1.862-2.897,3.968-3.294,6.511
		c-0.39,2.493,0.643,5.47-0.65,7.737c-0.115,0.201-0.191,0.4-0.248,0.596c-2.256,1.093-4.545,2.076-6.594,3.117
		c-1.708,0.867-3.391,1.915-4.949,3.119c2.579-7.896,4.916-16.356,11.852-21.24c7.172-5.05,16.608-5.077,23.029-11.535
		c2.272-2.286-1.259-5.818-3.532-3.532c-2.283,2.296-5.056,3.8-8.004,5.034c1.103-2.052,1.641-4.378,2.05-6.776
		c0.537-3.149-4.276-4.498-4.816-1.328c-0.564,3.307-1.123,6.35-4.118,8.296C97.168,69.562,91.5,73.721,87.85,80.318
		c-1.302,2.353-2.316,4.853-3.229,7.378c-0.663,1.832-2.625,5.386-2.436,7.306c-0.149-1.516-0.361-2.999-0.497-4.46
		c-0.002-0.066-0.009-0.132-0.017-0.2c-0.255-2.89-0.175-5.705,1.372-8.553c4.094-7.536,12.479-11.722,12.658-21.228
		c0.061-3.223-4.934-3.217-4.994,0c-0.103,5.464-4.051,9.341-7.719,13.357c-0.13-0.538-0.306-1.071-0.549-1.593
		c-0.821-1.767-2.044-3.244-2.626-5.124c-0.624-2.016-0.324-4.368-0.191-6.434c0.207-3.217-4.788-3.197-4.994,0
		c-0.233,3.614-0.125,6.884,1.315,10.243c0.638,1.489,1.739,2.619,2.229,4.198c0.464,1.496-0.028,3.315-0.58,4.935
		c-1.546-1.153-3.438-1.989-5.425-2.501c-7.126-1.837-14.59-2.541-18.059-10.079c-1.345-2.923-5.649-0.384-4.313,2.521
		c0.559,1.215,1.254,2.337,2.054,3.369c-0.389-0.022-0.778-0.044-1.167-0.066c-2.843-0.162-4.568-0.831-5.513-3.683
		c-1.309-3.951-1.051-7.832-4.168-11.007c-2.259-2.301-5.789,1.232-3.532,3.532c1.827,1.862,2.006,4.587,2.457,7.036
		c0.463,2.514,1.448,4.782,3.198,6.653c1.436,1.534,3.772,2.136,5.779,2.324c3.143,0.295,6.309,0.409,9.462,0.58
		c0.716,0.376,1.453,0.719,2.208,1.019c2.682,1.064,5.416,1.696,8.249,2.209c2.338,0.424,6.757,1.284,7.496,4.012
		c-2.925-0.233-6.29,1.094-8.929,2.141c-2.053,0.815-4.199,1.272-6.36,1.414c-0.235-0.168-0.507-0.31-0.841-0.398
		c-1.831-0.485-2.937-1.947-4.147-3.307c-1.457-1.637-3.115-2.996-4.922-4.226c-1.796-1.222-3.881-2.04-5.937-2.705
		c-2.021-0.654-4.608-1.021-5.973-2.833c-1.912-2.538-6.252-0.054-4.312,2.521c3.05,4.049,7.681,4.247,11.964,6.324
		c1.486,0.721,2.733,1.773,3.909,2.913c-0.874-0.358-1.73-0.761-2.557-1.221c-2.818-1.565-5.336,2.749-2.521,4.312
		c4.519,2.51,9.429,3.72,14.596,3.646c2.533-0.036,5.081-0.554,7.493-1.294c1.906-0.584,7.082-3.815,8.96-1.869
		c0.073,0.679,0.157,1.361,0.25,2.051c0.56,4.151,0.526,8.242-0.142,12.322c-2.885-3.107-7.427-4.572-11.578-5.636
		c-6.628-1.698-14.022-2.287-19.591-6.655c-2.503-1.964-6.064,1.545-3.532,3.532c2.078,1.63,4.295,2.859,6.619,3.833
		c-2.249,1.051-4.294,1.726-7.109,1.178c-3.146-0.613-4.487,4.2-1.328,4.816c2.737,0.533,5.316,0.481,8.016-0.236
		c1.419-0.377,2.768-1.114,4.008-1.875c1.667-1.022,3.192-1.041,5.09-0.945c0.318,0.016,0.596-0.03,0.851-0.105
		c5.026,1.098,14.549,1.926,16.219,7.806c0.114,0.4,0.295,0.724,0.52,0.982l-1.249,32.489h11.862l-1.249-34.129
		c0-0.198-0.017-0.384-0.038-0.568c0.172-0.178,0.333-0.384,0.463-0.65c1.093-2.232,2.62-3.605,4.412-4.463
		c3.292,0.903,5.025,3.087,7.426,5.664c2.058,2.209,4.848,3.7,7.757,4.397c3.131,0.75,4.459-4.066,1.328-4.816
		c-3.779-0.905-5.77-3.435-8.24-6.195c-0.157-0.175-0.331-0.334-0.499-0.499c3.041-0.114,6.187-0.053,8.995-0.707
		C106.107,103.087,106.204,103.109,106.313,103.112z"/>
	<path d="M32.903,85.212c-6.705,0-6.705,10.398,0,10.398C39.608,95.609,39.608,85.212,32.903,85.212z"/>
	<path d="M28.744,73.774c6.705,0,6.705-10.398,0-10.398C22.038,63.377,22.038,73.774,28.744,73.774z"/>
	<path d="M22.505,75.854c-6.705,0-6.705,10.398,0,10.398C29.21,86.252,29.21,75.854,22.505,75.854z"/>
	<path d="M52.658,52.459c-6.705,0-6.705,10.398,0,10.398S59.363,52.459,52.658,52.459z"/>
	<path d="M31.343,58.698c6.705,0,6.705-10.398,0-10.398C24.638,48.3,24.638,58.698,31.343,58.698z"/>
	<path d="M43.3,50.38c6.705,0,6.705-10.398,0-10.398S36.595,50.38,43.3,50.38z"/>
	<path d="M60.456,40.502c-6.705,0-6.705,10.398,0,10.398C67.162,50.9,67.162,40.502,60.456,40.502z"/>
	<path d="M65.655,70.135c6.705,0,6.705-10.398,0-10.398C58.95,59.738,58.95,70.135,65.655,70.135z"/>
	<path d="M75.013,55.059c6.705,0,6.705-10.398,0-10.398C68.308,44.661,68.308,55.059,75.013,55.059z"/>
	<path d="M52.658,28.545c-6.705,0-6.705,10.398,0,10.398S59.363,28.545,52.658,28.545z"/>
	<path d="M70.854,29.584c-6.705,0-6.705,10.398,0,10.398S77.559,29.584,70.854,29.584z"/>
	<path d="M33.422,39.462c6.705,0,6.705-10.398,0-10.398C26.717,29.064,26.717,39.462,33.422,39.462z"/>
	<path d="M15.746,64.417c6.705,0,6.705-10.398,0-10.398S9.041,64.417,15.746,64.417z"/>
	<path d="M19.906,36.863c-6.705,0-6.705,10.398,0,10.398C26.611,47.26,26.611,36.863,19.906,36.863z"/>
	<path d="M55.778,117.964c6.705,0,6.705-10.398,0-10.398C49.072,107.567,49.072,117.964,55.778,117.964z"/>
	<path d="M37.582,122.124c6.705,0,6.705-10.398,0-10.398C30.876,111.726,30.876,122.124,37.582,122.124z"/>
	<path d="M27.704,110.686c6.705,0,6.705-10.398,0-10.398C20.999,100.288,20.999,110.686,27.704,110.686z"/>
	<path d="M15.746,100.808c6.705,0,6.705-10.398,0-10.398S9.041,100.808,15.746,100.808z"/>
	<path d="M89.05,52.459c6.705,0,6.705-10.398,0-10.398S82.345,52.459,89.05,52.459z"/>
	<path d="M9.508,80.013c6.705,0,6.705-10.398,0-10.398C2.803,69.615,2.803,80.013,9.508,80.013z"/>
	<path d="M84.891,28.545c-6.705,0-6.705,10.398,0,10.398C91.596,38.942,91.596,28.545,84.891,28.545z"/>
	<path d="M62.016,28.545c6.705,0,6.705-10.398,0-10.398C55.311,18.147,55.311,28.545,62.016,28.545z"/>
	<path d="M103.087,33.224c-6.705,0-6.705,10.398,0,10.398C109.792,43.621,109.792,33.224,103.087,33.224z"/>
	<path d="M100.487,57.658c6.705,0,6.705-10.398,0-10.398S93.782,57.658,100.487,57.658z"/>
	<path d="M116.604,53.499c6.705,0,6.705-10.398,0-10.398S109.899,53.499,116.604,53.499z"/>
	<path d="M130.641,73.774c6.705,0,6.705-10.398,0-10.398C123.936,63.377,123.936,73.774,130.641,73.774z"/>
	<path d="M127.002,87.291c6.705,0,6.705-10.398,0-10.398C120.296,76.894,120.296,87.291,127.002,87.291z"/>
	<path d="M121.803,90.411c-6.705,0-6.705,10.398,0,10.398C128.508,100.808,128.508,90.411,121.803,90.411z"/>
	<path d="M137.919,90.411c-6.705,0-6.705,10.398,0,10.398C144.624,100.808,144.624,90.411,137.919,90.411z"/>
	<path d="M139.829,74.814c-6.705,0-6.705,10.398,0,10.398C146.534,85.212,146.534,74.814,139.829,74.814z"/>
	<path d="M129.771,115.885c6.705,0,6.705-10.398,0-10.398C123.066,105.487,123.066,115.885,129.771,115.885z"/>
	<path d="M116.774,127.322c6.705,0,6.705-10.398,0-10.398C110.069,116.925,110.069,127.322,116.774,127.322z"/>
	<path d="M131.68,57.138c6.705,0,6.705-10.398,0-10.398C124.975,46.74,124.975,57.138,131.68,57.138z"/>
	<path d="M116.084,26.985c-6.705,0-6.705,10.398,0,10.398C122.789,37.383,122.789,26.985,116.084,26.985z"/>
	<path d="M99.448,17.627c-6.705,0-6.705,10.398,0,10.398C106.153,28.025,106.153,17.627,99.448,17.627z"/>
	<path d="M81.772,12.428c-6.705,0-6.705,10.398,0,10.398C88.477,22.826,88.477,12.428,81.772,12.428z"/>
	<path d="M43.3,14.508c-6.705,0-6.705,10.398,0,10.398S50.005,14.508,43.3,14.508z"/>
	<path d="M69.044,5.591c-6.705,0-6.705,10.398,0,10.398C75.749,15.989,75.749,5.591,69.044,5.591z"/>
	<path d="M131.68,41.022c6.705,0,6.705-10.398,0-10.398C124.975,30.624,124.975,41.022,131.68,41.022z"/>
</g>
</svg>
