<?xml version="1.0" encoding="iso-8859-1"?>
<!-- Generator: Adobe Illustrator 17.1.0, SVG Export Plug-In . SVG Version: 6.00 Build 0)  -->
<!DOCTYPE svg PUBLIC "-//W3C//DTD SVG 1.1//EN" "http://www.w3.org/Graphics/SVG/1.1/DTD/svg11.dtd">
<svg version="1.1" id="Capa_1" xmlns="http://www.w3.org/2000/svg" xmlns:xlink="http://www.w3.org/1999/xlink" x="0px" y="0px"
	 viewBox="0 0 150 150" style="enable-background:new 0 0 150 150;" xml:space="preserve">
<g>
	<path d="M99.331,98.669c0-8.182-4.403-15.332-10.965-19.221c5.606-3.698,9.311-10.045,9.311-17.264
		c0-8.99-5.747-16.618-13.76-19.466c5.913-2.648,10.038-8.572,10.038-15.47c0-9.364-7.591-16.955-16.955-16.955
		s-16.955,7.591-16.955,16.955c0,6.898,4.126,12.822,10.038,15.47c-8.013,2.848-13.76,10.476-13.76,19.466
		c0,7.219,3.705,13.566,9.311,17.264c-6.563,3.889-10.965,11.039-10.965,19.221c0,10.792,7.655,19.795,17.831,21.877V135.5H66
		c-6.449,0-6.449,10,0,10h23c6.449,0,6.449-10,0-10h-6.5v-15.184C92.173,117.865,99.331,109.104,99.331,98.669z"/>
</g>
</svg>
