<?xml version="1.0" encoding="iso-8859-1"?>
<!-- Generator: Adobe Illustrator 17.1.0, SVG Export Plug-In . SVG Version: 6.00 Build 0)  -->
<!DOCTYPE svg PUBLIC "-//W3C//DTD SVG 1.1//EN" "http://www.w3.org/Graphics/SVG/1.1/DTD/svg11.dtd">
<svg version="1.1" id="Capa_1" xmlns="http://www.w3.org/2000/svg" xmlns:xlink="http://www.w3.org/1999/xlink" x="0px" y="0px"
	 viewBox="0 0 200 200" style="enable-background:new 0 0 200 200;" xml:space="preserve">
<g>
	<path d="M33.703,195.334H154.5c0.276,0,0.5-0.224,0.5-0.5c0-7.928-30.963-12.666-60.898-12.666c-0.039,0-0.079,0.001-0.118,0.001
		c-0.43-3.438-0.645-6.877-0.314-10.232c0.288-2.927,1.249-5.734,2.179-8.45c0.91-2.658,1.851-5.406,2.167-8.275
		c0.308-2.79,0.061-5.686-0.734-8.607c-0.198-0.728-0.433-1.469-0.697-2.206l0.191-0.158c0.271-0.225,0.541-0.45,0.82-0.665
		c0.746-0.574,1.622-1.2,2.531-1.128c0.691,0.047,1.365,0.628,1.64,1.414c0.108,0.308,0.292,1.084-0.323,1.646
		c-0.559,0.512-1.643,0.609-2.075,0.167c-0.176-0.181-0.261-0.436-0.253-0.759c0.003-0.129-0.092-0.239-0.221-0.254
		c-0.128-0.018-0.247,0.069-0.274,0.196c-0.101,0.472-0.012,0.897,0.257,1.229c0.352,0.435,0.989,0.684,1.749,0.684
		c1.22,0,2.523-0.657,2.654-1.914c0.094-0.893-0.212-1.797-0.86-2.546c-0.714-0.826-1.747-1.345-2.818-1.387
		c-0.598,0-1.314,0.375-2.008,0.738c-0.678,0.354-1.396,0.715-1.812,0.645c-0.458-1.101-0.991-2.197-1.507-3.257
		c-1.081-2.221-2.198-4.517-2.677-6.963c-0.666-3.406,0.607-7.959,3.89-9.683c0.269-0.141,0.634-0.215,1.056-0.215
		c1.216,0,2.461,0.577,2.776,1.287c0.174,0.394,0.057,0.821-0.349,1.27c-0.398,0.439-0.959,0.712-1.464,0.712
		c-0.216,0-0.513-0.051-0.703-0.294c-0.193-0.248-0.229-0.643-0.103-1.143c0.028-0.113-0.025-0.23-0.128-0.283
		c-0.102-0.053-0.229-0.029-0.305,0.06c-0.42,0.491-0.521,1.044-0.284,1.559c0.326,0.708,1.285,1.243,2.231,1.243
		c0.615,0,1.151-0.226,1.509-0.637c1.058-1.212,0.936-2.262,0.646-2.93c-0.599-1.38-2.372-2.308-3.926-2.517
		c3.234-3.866,5.669-7.182,7.646-10.407c2.145-3.5,4.283-7.241,4.814-11.104c0.033-0.238,0.063-0.495,0.096-0.765
		c0.278-2.331,0.656-5.527,3.443-5.4c0.747,0.036,1.545,0.65,1.744,1.342c0.136,0.476-0.039,0.898-0.505,1.221
		c-0.19,0.131-0.438,0.204-0.7,0.204c-0.458,0-0.953-0.227-0.962-0.723c0.004-0.088,0.017-0.181,0.038-0.278
		c0.029-0.133-0.053-0.265-0.185-0.297c-0.134-0.033-0.266,0.047-0.301,0.178c-0.036,0.134-0.054,0.265-0.053,0.391
		c-0.017,0.452,0.129,0.853,0.422,1.158c0.609,0.634,1.827,0.688,2.619,0.1c0.771-0.572,1.056-1.427,0.779-2.344
		c-0.355-1.181-1.542-2.155-2.701-2.217c-0.829-0.042-1.647,0.108-2.437,0.255c-0.179,0.034-0.358,0.067-0.538,0.098
		c-0.194,0-0.463-0.801-0.798-2.379c-0.095-0.446-0.176-0.831-0.257-1.068c-0.911-2.667-2.409-5.364-4.713-8.485
		c-2.105-2.851-3.782-4.96-5.438-6.839c-0.235-0.267-0.519-0.557-0.821-0.866c-1.319-1.347-2.961-3.024-2.452-4.715
		c0.213-0.708,0.929-1.404,1.444-1.404c0.3,0,0.513,0.25,0.631,0.742c0.113,0.464,0.049,1.021-0.145,1.268
		c-0.076,0.097-0.144,0.108-0.188,0.108c-0.081,0-0.258-0.044-0.542-0.34c-0.088-0.091-0.229-0.103-0.329-0.028
		c-0.101,0.075-0.131,0.212-0.07,0.322c0.214,0.386,0.545,0.599,0.932,0.599c0.406,0,0.856-0.239,1.205-0.64
		c0.354-0.407,0.53-0.897,0.472-1.311c-0.197-1.407-1.082-1.617-1.591-1.617c-1.096,0-2.458,0.94-3.064,1.844
		c-3.518-5.047-6.334-10.333-8.603-16.144c-0.327-0.838-0.606-2.783,0.002-3.674c0.314-0.458,0.83-0.547,1.562-0.292
		c0.458,0.161,0.986,0.465,0.895,1.002c-0.079,0.46-0.615,0.93-1.063,0.93c-0.261,0-0.439-0.168-0.531-0.499
		c-0.035-0.124-0.15-0.202-0.284-0.18c-0.126,0.022-0.216,0.136-0.207,0.264c0.049,0.691,0.516,1.121,1.22,1.121
		c0.759,0,1.663-0.54,1.797-1.344c0.117-0.696,0.008-1.247-0.324-1.64c-0.341-0.404-0.913-0.617-1.653-0.617
		c-0.896,0-1.876,0.306-2.525,0.655c-1.577-7.125-1.737-14.12-0.448-19.733c0.255-1.111,1.114-2.676,2.228-2.676
		c0.361,0,0.737,0.166,1.116,0.493c0.199,0.171,0.183,0.306,0.146,0.405c-0.118,0.318-0.677,0.655-1.088,0.655
		c-0.048,0-0.091-0.005-0.127-0.015c-0.061-0.122-0.09-0.285-0.084-0.478c0.003-0.126-0.087-0.235-0.212-0.254
		c-0.13-0.022-0.245,0.059-0.278,0.18c-0.154,0.554,0.054,0.817,0.226,0.936c0.408,0.541,1.381,0.442,1.895-0.162
		c0.288-0.34,0.406-0.774,0.332-1.224c-0.155-0.9-0.574-1.337-1.282-1.337c-0.325,0-0.679,0.092-1.021,0.181
		c-0.415,0.108-0.862,0.215-1.191,0.163c1.079-4.869,2.941-9.623,5.537-14.133c0.066-0.116,0.03-0.263-0.082-0.335
		c-0.112-0.072-0.262-0.043-0.339,0.066c-1.326,1.873-2.429,3.826-3.346,5.541c-0.243-0.354-0.633-0.574-1.066-0.574
		c-0.45,0-0.849,0.247-1.092,0.678c-0.156,0.274-0.147,0.599,0.023,0.891c0.207,0.355,0.602,0.553,0.916,0.464
		c0.155-0.016,0.284-0.129,0.383-0.338c0.001-0.003,0.003-0.007,0.004-0.01c0.002-0.004,0.004-0.01,0.007-0.015
		c0.003-0.006,0.006-0.013,0.009-0.02c0.005-0.012,0.009-0.022,0.01-0.023h0c0.001-0.002,0.002-0.004,0.002-0.005
		c0.049-0.127-0.014-0.271-0.141-0.322c-0.116-0.044-0.245,0-0.307,0.104c-0.075-0.251-0.098-0.695,0.029-0.843
		c0.161,0.012,0.542,0.623,0.599,0.831c0.176,0.716-0.256,1.479-0.638,2.152c-0.073,0.129-0.144,0.254-0.209,0.376
		c-2.201,4.117-3.517,9.588-4.02,16.716c-0.15-0.061-0.294-0.11-0.439-0.149c-0.427-0.119-0.938-0.185-1.44-0.185
		c-1.254,0-2.241,0.379-2.708,1.04c-0.367,0.519-0.413,1.178-0.137,1.957c0.215,0.606,0.783,0.968,1.518,0.968
		c0.618,0,1.19-0.273,1.424-0.68c0.172-0.3,0.158-0.652-0.04-0.991c-0.063-0.11-0.201-0.154-0.313-0.104
		c-0.116,0.049-0.177,0.176-0.144,0.297c0.05,0.181,0.086,0.428-0.026,0.577c-0.103,0.135-0.308,0.155-0.421,0.155
		c-0.536,0-1.223-0.401-1.307-0.919c-0.035-0.22,0.033-0.433,0.202-0.632c0.404-0.475,1.191-0.704,1.652-0.638
		c1.041,0.149,1.716,1.257,1.978,2.16c0.242,0.831,0.239,1.789,0.237,2.714c-0.001,0.494-0.003,1.004,0.033,1.485
		c0.148,1.954,0.416,3.925,0.796,5.858c0.737,3.754,1.904,7.432,3.469,10.937c-1.189,0.147-2.624,0.678-3.281,1.595
		c-0.38,0.53-0.481,1.132-0.301,1.791c0.424,1.554,1.5,1.722,1.942,1.722c0.664,0,1.335-0.351,1.634-0.854
		c0.198-0.333,0.215-0.694,0.048-1.019c-0.076-0.216-0.291-0.422-0.655-0.628c-0.004-0.002-0.008-0.004-0.012-0.007
		c-0.12-0.067-0.273-0.025-0.34,0.096c-0.067,0.12-0.024,0.272,0.096,0.34c0.195,0.109,0.338,0.23,0.426,0.359
		c0.002,0.012,0.004,0.024,0.008,0.036c-0.104,0.141-0.576,0.292-1.154,0.292c-0.249,0-0.474-0.03-0.634-0.084
		c-0.383-0.131-0.828-0.358-0.772-0.692c0.102-0.611,1.561-1.452,2.518-1.452l0.081,0.002c1.132,0.071,1.767,1.283,2.276,2.258
		l0.098,0.187c0.904,1.715,1.979,3.501,3.384,5.622c1.977,2.984,4.155,5.894,6.261,8.708c0.492,0.657,0.984,1.315,1.474,1.974
		c-1.92-0.089-3.927,1.938-4.427,3.728c-0.357,1.277,0.035,2.372,1.074,3.002c0.292,0.177,0.643,0.267,1.042,0.267
		c1.087,0,2.449-0.725,2.646-1.694c0.079-0.39,0.016-1.125-1.288-1.679c-0.002-0.001-0.004-0.002-0.007-0.003
		c-0.125-0.052-0.273,0.005-0.328,0.133c-0.054,0.127,0.006,0.274,0.133,0.328c0.516,0.218,0.478,0.705,0.438,0.904
		c-0.106,0.522-0.626,1.049-1.201,0.892c-0.539-0.15-0.94-0.542-1.102-1.076c-0.172-0.572-0.033-1.213,0.364-1.672
		c0.693-0.8,1.435-1.206,2.205-1.206c1.903,0,3.629,2.456,4.283,3.511c4.045,6.568,3.617,13.82-1.272,21.563
		c-0.533-2.305-3.018-4.388-5.427-4.388c-1.166,0-2.176,0.487-2.922,1.408c-0.844,1.042-0.727,1.877-0.48,2.396
		c0.464,0.973,1.702,1.498,2.631,1.498c0.516,0,0.931-0.148,1.201-0.429c0.223-0.231,0.333-0.546,0.32-0.91
		c-0.005-0.123-0.098-0.224-0.219-0.239c-0.129-0.015-0.237,0.061-0.271,0.178c-0.162,0.56-0.76,0.81-1.281,0.81
		c-0.428,0-0.952-0.178-1.138-0.672c-0.194-0.563-0.155-1.091,0.114-1.528c0.288-0.467,0.828-0.786,1.48-0.875
		c1.113-0.148,2.041,0.261,2.737,1.161c0.937,1.211,1.321,3.223,0.915,4.784c-0.299,1.145-1.566,2.459-2.685,3.619
		c-0.458,0.476-0.892,0.926-1.221,1.327c-1.292,1.576-2.662,3.126-3.986,4.625l-0.841,0.954c-1.976,2.245-4.601,5.693-4.883,9.961
		c-1.096-0.483-2.372-0.747-3.635-0.747c-1.633,0-3.15,0.445-4.272,1.252c-1.265,0.911-1.948,2.528-1.739,4.119
		c0.192,1.463,1.077,2.597,2.458,3.12c1.214,0.293,2.794-0.486,3.334-1.604c0.343-0.71,0.25-1.458-0.265-2.107
		c-0.082-0.104-0.229-0.125-0.336-0.051c-0.108,0.074-0.142,0.219-0.076,0.332c0.242,0.417,0.26,0.811,0.053,1.17
		c-0.294,0.51-1.033,0.88-1.757,0.88c-0.329,0-0.63-0.076-0.87-0.221c-1.227-0.738-1.196-1.752-1.068-2.291
		c0.27-1.138,1.369-2.065,2.556-2.156c2.899-0.224,5.188,1.121,6.129,3.612c1.417,3.747,2.202,7.654,2.611,10.271l0.183,1.153
		c0.523,3.286,1.064,6.683,0.894,9.856c-0.069,1.268-0.511,2.405-0.979,3.609l-0.181,0.468c-0.887,2.319-1.465,4.674-1.72,6.999
		c-0.562,5.125,0.503,10.28,1.494,14.199c0.048,0.19,0.101,0.377,0.15,0.566c-27.79,0.619-54.505,5.227-54.505,12.591
		C33.203,195.111,33.427,195.334,33.703,195.334z"/>
</g>
</svg>
