<?xml version="1.0" encoding="iso-8859-1"?>
<!-- Generator: Adobe Illustrator 17.1.0, SVG Export Plug-In . SVG Version: 6.00 Build 0)  -->
<!DOCTYPE svg PUBLIC "-//W3C//DTD SVG 1.1//EN" "http://www.w3.org/Graphics/SVG/1.1/DTD/svg11.dtd">
<svg version="1.1" id="Capa_1" xmlns="http://www.w3.org/2000/svg" xmlns:xlink="http://www.w3.org/1999/xlink" x="0px" y="0px"
	 viewBox="0 0 200 200" style="enable-background:new 0 0 200 200;" xml:space="preserve">
<g>
	<path d="M145.09,45.612c0.014-0.129-0.047-0.314-0.227-0.576C145.01,45.25,145.079,45.443,145.09,45.612z"/>
	<path d="M159.317,18.782c-0.02-0.159,0.013-0.347,0.13-0.566C159.234,18.453,159.222,18.642,159.317,18.782z"/>
	<path d="M162.531,10.932c-0.09,0.082-0.176,0.101-0.258,0.095C162.326,11.057,162.405,11.043,162.531,10.932z"/>
	<path d="M152.335,51.4c-0.088,0.084-0.174,0.105-0.255,0.1C152.133,51.529,152.211,51.514,152.335,51.4z"/>
	<path d="M135.66,86.455c0.012-0.129-0.054-0.313-0.239-0.571C135.572,86.095,135.646,86.286,135.66,86.455z"/>
	<path d="M54.358,83.211c-0.106-0.075-0.297-0.112-0.614-0.082C54.003,83.105,54.205,83.138,54.358,83.211z"/>
	<path d="M32.532,51.109c0.028,0.118,0.003,0.203-0.042,0.271C32.542,51.349,32.568,51.273,32.532,51.109z"/>
	<path d="M68.697,89.692c0.001-0.169,0.059-0.366,0.193-0.588C68.726,89.375,68.675,89.564,68.697,89.692z"/>
	<path d="M49.529,56.165c-0.081,0.011-0.168-0.003-0.262-0.08C49.399,56.189,49.479,56.199,49.529,56.165z"/>
	<path d="M52.77,63.178c0.129,0.212,0.173,0.398,0.163,0.558C53.019,63.59,52.996,63.403,52.77,63.178z"/>
	<path d="M126.715,14.807c-0.054-0.042-0.097-0.103-0.105-0.205C126.625,14.743,126.665,14.796,126.715,14.807z"/>
	<path d="M117.664,45.87c0.103-0.098,0.254-0.178,0.467-0.226C117.872,45.703,117.729,45.782,117.664,45.87z"/>
	<path d="M124.375,20.841c-0.059,0.224-0.164,0.351-0.282,0.434C124.252,21.26,124.37,21.135,124.375,20.841z"/>
	<path d="M168.345,7.858c-1.713,0.926-3.328,2.023-4.906,3.162c0.198-0.793-0.58-1.473-1.316-0.974
		c-0.409,0.277-0.193,0.953,0.15,0.98c-0.189-0.111,0.056-0.943,0.388-1.08c0.458-0.189,0.473,0.918,0.437,1.079
		c-0.179,0.808-1.045,1.273-1.659,1.711c-3.851,2.754-6.986,7.229-9.33,11.273c-0.138-0.18-0.28-0.34-0.444-0.485
		c-1.097-0.983-3.647-1.901-3.919,0.391c-0.15,1.258,2.111,1.754,2.026,0.54c-0.271,1.428-1.957,0.083-1.657-0.894
		c0.255-0.826,1.62-0.766,2.186-0.377c0.791,0.543,0.928,1.699,0.773,2.57c-0.202,1.136-0.94,2.234-1.37,3.3
		c-0.616,1.526-1.141,3.09-1.572,4.678c-0.864,3.183-1.354,6.466-1.46,9.762c-1.223-0.515-3.602-0.815-3.946,0.954
		c-0.455,2.335,2.44,2.359,2.363,1.163c-0.056,0.505-1.336,0.1-1.791-0.359c-1.55-1.563,1.419-1.839,2.423-1.261
		c0.985,0.566,0.956,1.912,0.982,2.897c0.031,1.189,0.128,2.376,0.247,3.56c-7.433-1.585-10.719,5.221-10.719,5.221
		c6.134,1.479,9.434-1.219,10.948-3.157c0.173,1.342,0.385,2.679,0.61,4.013c-2.204,2.499-4.075,5.433-5.585,8.177
		c-0.143-0.177-0.288-0.334-0.455-0.475c-1.118-0.958-3.688-1.821-3.91,0.477c-0.122,1.261,2.149,1.707,2.038,0.496
		c-0.24,1.433-1.955,0.126-1.676-0.857c0.237-0.831,1.603-0.802,2.177-0.425c0.803,0.525,0.965,1.678,0.829,2.552
		c-0.177,1.141-0.891,2.254-1.297,3.33c-0.582,1.54-1.072,3.115-1.469,4.712c-0.384,1.549-0.676,3.12-0.883,4.702
		c-0.611-0.161-1.274-0.135-1.959,0.18c-2.957,1.359,0.735,4.79,1.533,3.01c-0.719,0.785-2.341,0.118-2.234-0.964
		c0.157-1.231,1.236-1.768,2.368-1.386c0.069,0.023,0.128,0.056,0.193,0.083c-0.151,1.384-0.249,2.774-0.263,4.167
		c-1.233-0.488-3.619-0.736-3.924,1.041c-0.404,2.344,2.491,2.305,2.388,1.111c-0.045,0.506-1.333,0.129-1.799-0.32
		c-1.584-1.529,1.379-1.869,2.394-1.314c0.702,0.383,0.907,1.163,0.985,1.934c-1.179,0.781-3.083,1.281-4.196,1.784
		c-1.628,0.737-3.277,1.407-4.928,2.082c-3.018-5.98-8.853-5.376-8.853-5.376c0.704,4.035,2.913,6.102,5.071,7.175
		c-1.809,1.075-3.395,2.458-4.427,4.382c-1.339-1.773-3.88-3.103-6.131-2.728c-2.403,0.4-3.834,3.423-2.05,5.344
		c1.168,0.973,3.744,0.402,3.349-1.445c0.113,1.68-2.283,1.667-3.002,0.547c-1.335-2.081,1.136-3.86,3.027-3.099
		c2.245,0.904,3.637,2.762,3.397,5.21c-0.283,2.884-0.998,5.98-1.863,8.739c-0.899,2.864-1.823,6.096-3.301,8.721
		c-0.609,1.081-1.53,1.856-2.428,2.686c-1.474,1.363-2.78,2.89-3.861,4.584c-1.003,1.572-1.781,3.265-2.416,5.015
		c-0.814-0.217-1.725-0.122-2.418,0.316c-0.833,0.526-1.311,2.66-2.161,2.855c-2.617-1.701-5.618-2.939-7.876-5.144
		c-0.361-0.353-0.696-0.758-1-1.197c0.288-0.46,0.578-0.918,0.854-1.385c0.996-1.687,1.927-3.446,2.648-5.279
		c0.03-0.061,0.057-0.123,0.077-0.189c0.2-0.521,0.373-1.051,0.535-1.584c7.207,0.578,9.755-6.221,9.755-6.221
		c-4.445-0.651-7.259,0.682-8.998,2.248c0.084-1.068,0.089-2.141,0.003-3.212c-0.082-1.022-0.209-2.022,0.029-3.034
		c0.58-2.456,1.846-4.971,2.918-7.247c1.033-2.191,2.35-4.504,3.813-6.441c1.242-1.644,3.155-1.999,5.051-1.281
		c1.597,0.605,2.109,3.103,0.105,3.628c-1.079,0.283-2.562-1.07-1.539-2.041c-1.292,0.913-0.029,2.728,1.243,2.791
		c2.19-0.17,3.024-2.845,1.771-4.456c-1.174-1.509-3.495-2.133-5.326-1.8c0.698-2.704-0.104-5.37-1.248-7.825
		c-0.732-1.57-1.477-3.128-2.154-4.724c-0.328-0.773-0.986-1.848-1.37-2.845c5.5,6.737,12.667,2.402,12.667,2.402
		c-6.227-6.593-12.275-2.767-12.699-2.486c-0.166-0.447-0.278-0.878-0.267-1.253c0.057-1.86,1.774-4.382,3.886-3.441
		c0.914,0.408,1.274,1.351,0.672,2.198c-0.548,0.728-1.926,0.218-1.923-0.674c-0.519,1.55,3.703,1.532,2.653-0.984
		c-1.112-2.665-5.263-1.548-6.094,0.788c-0.725-2.381-1.062-4.74-0.879-6.985c8.397,1.514,11.083-5.051,11.083-5.051
		c-5.58-1.82-9.064,0.973-10.762,3.024c0.564-2.346,1.793-4.525,3.888-6.412c1.433-1.285,3.919-2.816,5.109-0.213
		c0.408,0.894-0.186,1.97-1.204,1.955c-0.937-0.014-1.144-1.601-0.177-1.712c-2.273,0.26-0.35,2.567,0.933,2.226
		c2.409-0.64,0.74-4.938-1.334-4.913c2.577-1.949,5.197-3.845,7.669-5.927c1.17-0.986,2.315-2.01,3.382-3.109
		c0.576-0.592,1.322-1.438,2.25-1.227c0.946,0.214,2.619,2.07,0.776,2.152c-0.541,0.024-1.56-0.453-1.308-0.796
		c-0.726,0.694,1.071,2.322,2.116,0.625c0.793-1.286-0.844-2.451-1.889-2.828c1.277-1.479,2.426-3.067,3.444-4.735
		c5.345,5.253,11.742,1.385,11.742,1.385c-4.135-4.378-8.189-4.161-10.572-3.439c0.009-0.018,0.02-0.035,0.03-0.053
		c0.636-1.223,1.201-2.484,1.688-3.774c0.34-0.901,0.509-1.996,1.03-2.811c0.189-0.297,0.458-0.593,0.771-0.813
		c0.661,0.062,1.282,0.061,1.867,0.01c0.362,0.294,0.623,0.729,0.43,1.133c-0.369,0.772-2.172,0.643-1.528-0.39
		c-0.741,0.7,0.933,1.677,1.555,0.818c0.483-0.667,0.378-1.209,0.006-1.614c5.545-0.764,7.571-6.167,7.571-6.167
		c-5.087-0.744-8.044,1.104-9.688,2.933c-0.032-0.103-0.067-0.199-0.1-0.299c0.524-3.143,0.746-6.522,0.123-9.516
		c-0.13-0.619-0.399-1.397-0.051-1.996c0.069-0.119,0.707-0.793,0.882-0.416c0.127,0.273-0.195,0.924-0.374,0.886
		c0.227,0.178,0.743-0.116,0.649-0.518c-0.169-0.725-1.035-0.748-1.363-0.147c-0.326-1.597-0.698-3.19-1.227-4.733
		c0.852,3.532,1.193,7.214,0.929,10.847c-0.935,0.09-1.854-1.562-2.559-0.123c-0.368,0.764,0.456,1.493,0.95,1.144
		c-0.486,0.048-1.361-0.917-0.626-1.25c1.601-0.727,2.14,1.153,2.07,2.306c-0.033,0.55-0.091,1.104-0.166,1.658
		c-3.019-5.971-8.849-5.368-8.849-5.368c1.089,6.24,5.767,7.801,8.296,8.19c-0.333,1.347-0.755,2.684-1.259,3.985
		c-6.105-5.477-11.765-1.539-11.765-1.539c3.887,4.825,8.622,4.069,11.074,3.207c-0.517,1.169-1.082,2.302-1.681,3.374
		c-0.684-0.837-2.977-2.072-3.215-0.088c-0.099,0.827,1.29,1.637,1.651,0.665c-0.747,1.205-2.355-1.269-0.346-1.373
		c2.074-0.108,1.042,2.458,0.418,3.267c-1.614,2.089-3.333,3.99-5.177,5.783c-6.224-5.908-12.083-1.827-12.083-1.827
		c1.763,2.189,3.701,3.226,5.522,3.629c-0.123,0.115-0.236,0.273-0.334,0.489c-0.295,0.651,0.515,1.916,1.208,1.231
		c-0.953,0.544-0.984-0.492-0.625-1.113c0.179-0.311,0.376-0.442,0.57-0.465c0.082,0.01,0.163,0.019,0.245,0.027
		c0.426,0.159,0.779,0.821,0.782,1.383c0.011,1.644-2.245,2.54-3.394,3.265c-1.716,1.083-3.393,2.301-5.009,3.527
		c-0.213,0.162-0.419,0.334-0.63,0.501c-6.333-6.325-12.378-2.12-12.378-2.12c3.897,4.838,8.648,4.065,11.094,3.2
		c-1.075,0.956-2.077,1.991-2.908,3.169c-0.349,0.492-1.156,2.398-1.616,2.172c-0.616-0.303-1.224-0.654-1.898-0.813
		c-1.278-0.301-2.993,1.129-2.019,2.419c0.546,0.723,1.678,0.727,1.958-0.113c-0.245,0.55-1.117,0.48-1.497,0.009
		c-0.83-1.026,0.533-2.004,1.521-1.765c2.296,0.555,1.542,3.424,1.298,5.055c-0.29,1.933,0.003,4.011,0.448,5.992
		c-5.817-4.552-11.033-0.922-11.033-0.922c4.16,5.164,9.292,3.936,11.556,3.026c0.024,0.091,0.048,0.184,0.073,0.274
		c0.818,3.024,1.963,5.951,3.223,8.817c-1.702-0.436-4.482,0.425-3.427,2.711c0.559,1.212,3.066,0.762,2.44-0.63
		c-0.059,1.493-1.497,1.166-2.009,0.109c-0.863-1.782,2.165-1.989,3.093-1.092c1.332,1.289,1.713,3.299,1.454,5.156
		c-6.099-5.456-11.75-1.525-11.75-1.525c4.049,5.027,9.019,3.997,11.369,3.099c-0.099,0.269-0.206,0.533-0.333,0.777
		c-1.218,2.347-3.281,4.119-4.917,6.159c-0.727,0.068-1.668-1.504-2.468-1.705c-1.23-0.307-2.764,0.48-3.005,1.797
		c-0.28,1.527,2.676,2.457,2.794,0.878c-0.282,1.059-1.56,0.725-2.008-0.016c-0.609-1.005,0.63-2.298,1.682-2.065
		c0.688,0.153,1.194,0.791,1.588,1.33c0.206,0.282,0.396,0.574,0.592,0.863c-0.344,0.465-0.669,0.945-0.972,1.438
		c-1.056,1.718-1.823,3.609-2.176,5.598c-0.151,0.851-0.21,1.706-0.234,2.562c-0.013-0.483-0.015-0.966-0.041-1.449
		c-0.176-3.238-0.462-6.94-1.944-9.879c-0.886-1.757-2.813-4.729-0.418-6.216c1.03-0.641,2.94-0.041,2.383,1.432
		c-0.255,0.676-1.218,1.08-1.701,0.549c0.63,0.847,1.913,0.42,2.261-0.604c0.623-1.827-1.857-2.807-3.193-1.988
		c-0.704,0.432-1.263,1.058-1.848,1.631c-0.437,0.429-2.065-1.43-2.644-1.858c-0.91-0.674-1.887-1.241-2.891-1.755
		c5.041-1.083,6.903-6.05,6.903-6.05c-6.508-0.952-9.539,2.334-10.777,4.398c-0.159-0.057-0.317-0.121-0.477-0.176
		c-2.291-0.786-4.647-1.54-6.997-2.126c-0.671-0.168-1.58-0.302-2.451-0.538c-0.143-0.793-0.309-1.581-0.497-2.364
		c0.272-0.454,0.29-1.185-0.046-1.55c-0.156-0.17-0.309-0.283-0.459-0.369c-0.161-0.556-0.319-1.113-0.503-1.662
		c-0.308-0.919-0.658-1.824-1.029-2.72c5.205,4.388,11.116,0.811,11.116,0.811c-5.177-5.482-10.229-3.761-12.03-2.863
		c-0.494-0.977-1.206-1.968-1.458-3.021c-0.147-0.615-0.148-1.381,0.136-1.984c1.005,0.043,1.916-0.032,2.731-0.203
		c0.128,0.944-1.311,2.141-1.644,0.815c-0.014,1.217,2.214,0.589,1.991-0.657c-0.014-0.08-0.037-0.147-0.056-0.22
		c4.57-1.102,6.161-5.011,6.161-5.011c-6.589-2.149-10.257,2.132-11.51,4.031c-1.627-2.317-3.529-4.658-5.655-6.618
		c8.095,1.454,10.913-6.069,10.913-6.069c-8.119-1.188-10.835,4.225-11.396,5.625c-0.889-0.781-1.815-1.495-2.778-2.102
		c-0.639-0.402-1.53-0.816-1.756-1.612c-0.045-0.158-0.095-1.264,0.374-1.102c0.34,0.117,0.632,0.935,0.45,1.056
		c0.341-0.047,0.518-0.734,0.093-0.987c-0.763-0.456-1.5,0.269-1.257,1.049c-1.035-0.659-2.087-1.294-3.162-1.885
		c0.075-0.152,0.117-0.251,0.117-0.251c-0.417-0.136-0.819-0.24-1.213-0.326c-0.273-0.138-0.545-0.279-0.823-0.409
		c0.184,0.108,0.358,0.234,0.54,0.345c-4.029-0.784-6.813,0.907-8.5,2.578c-1.443-3.76-2.324-7.741-2.652-11.744
		c-0.024,1.947,0.15,3.892,0.378,5.824c-0.597-0.558-1.569-0.209-1.491,0.676c0.044,0.492,0.739,0.632,0.93,0.345
		c-0.188,0.111-0.797-0.507-0.756-0.864c0.058-0.492,1.032,0.033,1.155,0.142c0.619,0.549,0.604,1.532,0.689,2.282
		c0.159,1.401,0.497,2.82,0.936,4.229c-0.812,0.993-1.203,1.8-1.203,1.8c0.69,0.166,1.332,0.265,1.952,0.332
		c0.612,1.564,1.33,3.093,2.102,4.551c-6.427-6.708-12.639-2.383-12.639-2.383c5.31,6.592,12.207,2.769,12.695,2.486
		c0.481,0.903,0.974,1.784,1.472,2.618c-0.225,0.034-0.433,0.08-0.64,0.153c-1.392,0.48-3.434,2.262-1.563,3.615
		c1.026,0.742,2.559-0.992,1.457-1.508c1.116,0.931-0.879,1.751-1.586,1.013c-0.598-0.624,0.118-1.788,0.733-2.094
		c0.859-0.428,1.936,0.015,2.621,0.574c0.895,0.729,1.495,1.908,2.218,2.802c1.035,1.28,2.146,2.499,3.324,3.648
		c0.58,0.566,1.178,1.114,1.79,1.646c-5.222,0.544-7.573,5.412-7.573,5.412c5.89,1.42,9.165-1.011,10.757-2.922
		c0.927,0.662,1.87,1.3,2.847,1.886c-1.044,0.818-2.464,2.751-1.084,3.912c1.819,1.533,3.248-0.985,2.165-1.5
		c0.414,0.295-0.562,1.216-1.185,1.391c-2.12,0.595-0.917-2.134,0.076-2.73c0.974-0.586,2.136,0.094,3.01,0.55
		c1.236,0.646,2.512,1.213,3.798,1.754c-4.962,0.729-7.199,5.37-7.199,5.37c6.78,1.634,10.103-1.834,11.371-3.738
		c0.047,0.017,0.093,0.036,0.14,0.053c0.319,3.834,0.295,7.623-0.083,11.541c-1.057-0.799-4.344-0.864-3.471,1.335
		c0.315,0.793,2.072,1.146,2.059-0.017c-0.323,1.27-1.238,0.437-1.474-0.386c-0.44-1.529,1.346-1.34,2.135-0.588
		c1.41,1.343,0.337,3.992-0.002,5.584C57.715,98.78,52.5,102.41,52.5,102.41c3.647,4.527,8.042,4.141,10.596,3.364
		c-0.236,1.408-0.445,2.82-0.618,4.229c-6.075-5.373-11.687-1.468-11.687-1.468c4.125,5.121,9.208,3.956,11.5,3.049
		c-0.207,2.134-0.244,4.293,0.079,6.414c-5.735,0.136-8.305,5.46-8.305,5.46c2.425,0.584,4.396,0.506,6.002,0.089
		c-0.639,1.123-0.448,2.825,1.069,3.01c1.073,0.131,2.016-0.839,1.526-1.775c0.269,0.666-0.514,1.357-1.233,1.293
		c-1.569-0.138-1.279-2.12-0.254-2.769c2.38-1.511,4.219,1.515,5.417,3.077c0.592,0.772,1.297,1.472,2.059,2.125
		c-3.918,6.5,1.432,11.826,1.432,11.826c2.645-4.127,2.347-7.465,1.457-9.719c1.035,0.654,2.093,1.253,3.105,1.811
		c2.155,1.187,4.396,2.209,6.672,3.144c0.125,1.268,0.944,2.43,2.109,2.864c-0.868,1.344-1.015,3.041,0.949,3.726
		c1.504,0.525,3.196-2.001,1.482-2.617c1.233,1.289-0.24,2.252-1.572,1.815c-1.483-0.487-0.967-1.857-0.004-2.749
		c0.281,0.014,0.574-0.01,0.876-0.084c0.356-0.137,0.67-0.4,0.912-0.724c2.231-0.008,4.29,1.394,5.636,3.21
		c0.118,5.097-4.316,10.223-5.797,15.017c-0.079,0.255-0.125,0.514-0.188,0.771c-5.667-4.122-10.665-0.646-10.665-0.646
		c3.491,4.333,7.666,4.165,10.257,3.461c-0.138,3.172,0.696,6.381,2.088,9.224c-0.262,3.215,0.03,5.023,0.03,5.023l-2.152,1.946
		c0,0-0.53,2.92,0,4.866s0,3.244,0,3.244s0.945,0.324-0.236,1.946c-1.181,1.622,0,3.723,0,3.723s-5.073,1.467-6.047,1.467
		S74.129,193,74.129,193h62.285c0,0,0.324-2.935-2.92-3.414s-4.947-0.28-7.177-1.839c-2.231-1.56-4.286-2.533-3.583-3.83
		c0.703-1.298-1.677-2.271,0-3.893c1.677-1.622,0-4.866,0-4.866s-1.04-1.053-1.804-2.487c0.527-1.16,0.748-2.282,0.731-3.367
		c0.035-0.032,0.074-0.045,0.108-0.085c3.564-4.26,4.947-9.528,3.925-14.98c1.071-2.232,1.843-4.6,2.143-7.083
		c0.211-1.746,0.323-3.498,0.467-5.247c1.895,7.774,9.742,7.494,9.742,7.494c-2.076-8.081-8.287-8.373-9.662-8.336
		c0.12-1.336,0.263-2.671,0.508-3.996c0.4-2.16,1.408-4.035,2.875-5.65l2.712-1.636c5.643-0.325,6.542,1.842,2.698,6.502
		c-1.24,0.111-1.25,2.058,0,1.946c7.53-0.673,5.416-11.122-1.197-10.664c0.404-0.3,0.8-0.614,1.19-0.934
		c5.278,4.807,11.428,1.092,11.428,1.092c-3.187-3.374-6.325-4.018-8.689-3.805c0.279-0.345,0.553-0.693,0.791-1.061
		c1.069-1.653,2.659-4.817,5.153-3.501c1.073,0.565,1.521,2.517-0.032,2.78c-0.712,0.121-1.548-0.505-1.333-1.19
		c-0.413,0.972,0.604,1.863,1.664,1.646c1.891-0.386,1.484-3.021,0.102-3.76c-0.728-0.389-1.551-0.555-2.341-0.77
		c-0.454-0.123-0.1-1.53,0.124-2.502c5.158,4.142,10.923,0.659,10.923,0.659c-4.192-4.438-8.302-4.154-10.671-3.409
		c0.006-2.023-0.276-4.045-0.676-6.027c-0.226-1.12-0.469-2.248-0.73-3.372c8.249,1.615,11.115-6.03,11.115-6.03
		c-7.681-1.124-10.521,3.653-11.281,5.358c-0.249-1.032-0.508-2.061-0.803-3.069c-0.456-1.556-1.769-4.14-0.461-5.603
		c0.726-0.812,2.491-1.144,2.175,0.415c-0.169,0.839-1.014,1.742-1.438,0.503c0.08,1.161,1.803,0.668,2.053-0.148
		c0.694-2.262-2.577-1.934-3.567-1.053c-0.254-1.421-0.455-2.828-0.612-4.23c0.528-0.308,1.059-0.611,1.577-0.937
		c0.459-0.289,0.929-0.592,1.401-0.901c5.38,5.518,11.919,1.567,11.919,1.567c-3.257-3.448-6.464-4.045-8.844-3.791
		c1.231-1.006,2.358-2.117,3.213-3.378c1.105-1.629,2.765-4.757,5.229-3.387c1.061,0.589,1.465,2.55-0.093,2.779
		c-0.715,0.106-1.536-0.539-1.307-1.219c-0.434,0.963,0.563,1.875,1.627,1.683c1.899-0.344,1.551-2.987,0.185-3.756
		c-0.719-0.405-1.538-0.589-2.323-0.821c-0.587-0.174,0.246-2.5,0.338-3.214c0.125-0.956,0.169-1.915,0.156-2.875
		c5.475,6.419,12.482,2.185,12.482,2.185c-5.733-6.07-11.311-3.31-12.492-2.614c-0.05-1.598-0.254-3.193-0.535-4.766
		c-0.323-1.807-0.705-3.627-1.134-5.426c5.221,4.472,11.18,0.867,11.18,0.867c-4.747-5.027-9.389-3.997-11.516-3.099
		c-0.041-0.285-0.188-0.468-0.413-0.58c-0.25-0.768-0.518-1.63-0.583-2.443c0.778-0.911,1.59-1.79,2.445-2.63
		c0.277,0.143,0.431,0.456,0.305,1.014c-0.188,0.835-1.052,1.72-1.449,0.471c0.054,1.162,1.788,0.707,2.056-0.103
		c0.304-0.918-0.067-1.413-0.677-1.625c1.642-1.589,3.405-3.052,5.27-4.359c-1.692,0.963-3.282,2.096-4.835,3.269
		c0.181-0.797-0.612-1.46-1.337-0.945c-0.403,0.286-0.172,0.957,0.172,0.977c-0.191-0.107,0.035-0.944,0.364-1.089
		c0.454-0.199,0.493,0.908,0.461,1.069c-0.077,0.387-0.313,0.698-0.603,0.968c-0.841-0.086-1.867,0.186-2.358,0.604
		c-0.451-2.894-0.696-5.728-0.757-8.573c5.419,5.852,12.136,1.79,12.136,1.79c-5.301-5.612-10.47-3.675-12.153-2.801
		c-0.011-2.027,0.072-4.064,0.253-6.138c0.106-1.215,1.277-4.302,3.01-2.53c1.679,1.716-1.733,2.587-1.414,0.925
		c-0.469,1.145,1.406,1.558,1.988,0.752c1.396-1.934-1.616-2.704-2.893-2.523c0.055-0.229,0.123-0.462,0.182-0.693
		c8.078,1.234,10.671-5.129,10.671-5.129c-4.641-1.513-7.832,0.164-9.752,1.952c1.358-4.13,3.333-8.229,6.008-11.504
		c0.872-1.068,2.865-2.281,3.682-0.349c0.387,0.914-1.262,1.031-1.586,0.548c0.094,0.758,1.483,0.8,1.785-0.192
		c0.545-1.834-1.599-1.127-2.346-1.962C161.462,13.225,164.739,10.269,168.345,7.858z M109.478,46.096
		c1.263,0.06,2.417-0.142,3.352-0.408c-0.769,0.685-1.557,1.356-2.38,2.01C110.39,47.205,109.982,46.532,109.478,46.096z
		 M60.738,68.158c-0.106,0.119-0.212,0.238-0.306,0.376c-0.102-0.155-0.214-0.313-0.319-0.469
		C60.323,68.099,60.535,68.135,60.738,68.158z M63.22,82.587c-4.109-1.514-7.882-3.359-11.543-5.615
		c0.001-0.002,0.006-0.014,0.006-0.014c-0.019-0.006-0.037-0.01-0.055-0.016c-0.803-0.496-1.603-1.005-2.398-1.542
		c-1.01-0.683-3.139-3.207-0.748-3.86c2.316-0.633,1.418,2.772,0.121,1.686c0.773,0.966,2.045-0.471,1.624-1.372
		c-1.011-2.16-3.148,0.097-3.611,1.302c-4.05-3.722-7.927-8.525-9.978-13.686c-0.011-0.027-0.02-0.056-0.03-0.084
		c5.425,0.026,7.835-3.61,8.503-4.865c3.03,1.986,5.84,4.331,8.259,7.031c-0.697,0.877-2.879,0.297-2.228,2.095
		c0.36,0.973,1.743,0.85,1.793,0.088c-0.296,0.501-1.949,0.48-1.616-0.455c0.703-1.977,2.764-0.882,3.696,0.134
		c3.757,4.09,6.399,9.668,7.991,14.933c-1.286-0.106-4.248,0.838-2.741,2.687c0.628,0.771,2.476,0.25,1.941-0.866
		c0.415,1.64-3.042,0.97-1.466-0.841c1.255-1.443,2.342,0.021,2.855,1.32C63.272,81.294,63.117,82.072,63.22,82.587z M63.856,82.06
		c-0.086-0.266-0.109-0.576-0.077-0.871c0.051,0.18,0.09,0.348,0.11,0.489c0.029,0.2,0.051,0.398,0.078,0.597
		C63.935,82.201,63.882,82.14,63.856,82.06z M150.714,53.352c0.316-0.338,0.814-0.573,1.259-0.627
		c-0.234,0.18-0.477,0.343-0.689,0.502c-0.34,0.255-0.666,0.538-0.994,0.818C150.385,53.795,150.52,53.56,150.714,53.352z
		 M101.738,133.265c0.244-0.758,0.579-1.671,1.302-2.101c0.396-0.235,0.892-0.251,1.352-0.12c-0.306,0.901-0.578,1.815-0.821,2.735
		c-0.04-0.047-0.085-0.077-0.122-0.134c0.03,0.073,0.07,0.13,0.108,0.19c-0.17,0.648-0.325,1.298-0.472,1.948
		c-0.02-0.017-0.037-0.036-0.057-0.052c-0.528-0.445-1.076-0.867-1.639-1.266C101.504,134.063,101.61,133.661,101.738,133.265z
		 M90.325,111.011c0.092,2.384,0.284,4.776-0.167,7.153c-0.002,0.01-0.005,0.021-0.007,0.031c-0.083,0.045-0.168,0.09-0.245,0.139
		C90.14,115.901,90.293,113.456,90.325,111.011z M72.164,88.536c-0.499,0.158-0.899,0.535-1.202,1.02
		c0.119-0.302,0.149-0.686,0.027-1.162c-0.03-0.118-0.089-0.202-0.135-0.3C71.291,88.24,71.728,88.387,72.164,88.536z
		 M68.334,87.241c-0.497,0.093-0.975,0.25-1.34,0.429c-0.028-0.308-0.076-0.614-0.111-0.922
		C67.366,86.914,67.851,87.077,68.334,87.241z M67.08,120.938c-0.405-0.736-0.747-1.509-1.021-2.321
		c0.005-0.012,0.016-0.037,0.016-0.037c-0.011-0.004-0.021-0.006-0.033-0.01c-0.553-1.658-0.832-3.473-0.762-5.468
		c0.085-2.296,0.832-5.7,4.053-4.563c1.106,0.391,1.537,1.793,0.681,2.655c-0.789,0.793-2.323-0.345-1.617-1.268
		c-1.661,2.168,1.913,2.429,2.684,1.045c1.449-2.599-3.626-4.73-5.325-2.927c0.369-3.049,0.783-6.095,1.071-9.153
		c5.12,3.964,10.779,0.544,10.779,0.544c-4.124-4.366-8.167-4.162-10.553-3.444c0.101-1.641,0.16-3.287,0.107-4.93
		c-0.031-0.985-0.139-2.327,0.812-2.95c0.438-0.287,1.287-0.421,1.951-0.331c0.227,0.076,0.453,0.153,0.68,0.23
		c0.329,0.23,0.388,0.622-0.139,1.22c-0.428,0.485-1.682,0.964-1.767,0.463c-0.005,0.849,1.442,0.998,2.077,0.194
		c-0.899,1.858-0.491,4.848,1.713,4.718c1.582-0.093,2.9-3.426,0.226-2.872c1.138-0.236,1.497,1.641,0.44,2.007
		c-1.148,0.397-2.224-0.6-2.096-1.767c0.376-3.396,3.766-2.589,5.871-1.668c6.795,2.992,9.378,9.145,9.54,16.241
		c-1.816-2.338-6.938-2.053-7.203,1.384c-0.25,3.245,4.543,1.687,3.375,0.124c0.337,1.01-1.035,2.103-1.928,1.483
		c-1-0.736-0.944-1.939-0.06-2.743c2.043-1.856,4.932,0.361,5.692,2.449c0.503,1.383-0.205,3.889-0.328,5.366
		c-0.068,0.815-0.156,1.625-0.246,2.436c-5.688-4.178-10.714-0.681-10.714-0.681c0.399,0.495,0.807,0.925,1.22,1.308
		C71.403,117.179,68.595,119.119,67.08,120.938z M83.956,137.749c-0.964-0.163-1.49-0.898-1.59-1.744
		c0.837,0.332,1.677,0.653,2.521,0.965C84.561,137.17,84.242,137.439,83.956,137.749z M83.15,131.82
		c-1.398-0.52-3.894-0.974-4.905-2.011c-1.55-1.591-2.292-5.157,0.267-6.19c1.108-0.447,2.216,0.026,2.444,1.246
		c0.171,1.074-1.41,1.835-2.173,1.093c0.9,1.73,4.386-1.91,1.355-3.094c-3.211-1.254-5.693,3.236-4.376,5.886
		c-2.549-1.302-4.78-2.898-6.528-4.818c4.757-0.551,6.985-4.498,7.59-5.785c3.122,2.527,6.469,2.253,8.63,1.636
		c-0.039,0.328-0.078,0.656-0.117,0.984c-0.322,2.726-0.296,5.53,0.819,8.032c-0.283,0.578-0.565,1.153-0.844,1.72
		C84.534,130.822,83.791,131.268,83.15,131.82z M89.063,133.912c-1.283-0.442-2.564-0.884-3.841-1.339
		c1.412-0.472,2.912-0.327,4.286,0.624c0.869,0.601,1.728,1.28,2.573,1.985C91.114,134.685,90.097,134.268,89.063,133.912z
		 M92.88,155.946c-0.03-0.042-0.05-0.085-0.087-0.127c0.04,0.066,0.05,0.126,0.077,0.19c-0.064,0.367-0.136,0.73-0.211,1.09
		c-0.371,0.368-1.002,0.555-1.544,0.431c-1.368-0.311-1.451-2.447-0.379-3.157c0.691-0.457,1.638-0.372,2.42-0.265
		C93.076,154.725,92.985,155.339,92.88,155.946z M93.278,153.07c-0.862,0.108-2.035-0.007-2.608,0.35
		c-1.283,0.801-1.879,2.771-0.949,4.07c0.655,0.914,2.105,0.62,2.866-0.065c-0.295,1.338-0.674,2.617-1.169,3.776
		c-1.532-1.433-2.582-3.297-3.023-5.433c0.805-2.596,2.081-5.2,3.501-7.935c0.585-1.127,1.045-2.298,1.349-3.484
		c0.229,0.902,0.372,1.822,0.47,2.75C93.617,148.936,93.504,150.994,93.278,153.07z M105.696,159.226
		c-0.304-1.191-0.671-2.357-1.112-3.357c-0.719-1.631-1.634-2.101-2.782-2.544c-0.206-0.912-0.413-1.823-0.62-2.735
		c0.404-0.529,0.684-1.11,0.374-1.718c-0.63-1.237-1.656-2.578-2.729-3.809c-0.146-0.67-0.279-1.338-0.382-1.994
		c-0.092-0.583-0.082-1.135,0.007-1.655c1.402,1.513,2.773,3.107,3.801,4.784c0.648,1.058,0.878,2.239,1.167,3.428
		c0.475,1.95,1.174,3.834,2.128,5.602c0.337,0.624,0.714,1.223,1.107,1.811C106.367,157.794,106.049,158.527,105.696,159.226z
		 M110.284,142.044c-0.114,1.495-0.345,3.047-0.65,4.584c-0.535-1.844-1.13-3.664-2.047-5.364c-0.222-0.413-0.474-0.806-0.728-1.199
		c0.297-0.89,0.614-1.773,0.949-2.647C109.455,138.39,110.439,139.994,110.284,142.044z M118.751,155.872l-1.89-3.33
		c0.675-0.123,1.415-0.178,2.014,0.153C120.001,153.316,120.09,155.452,118.751,155.872z M127.015,136.553
		c-0.75,2.814-0.681,5.881-0.901,8.76c-0.345,4.498-2.084,8.577-4.621,12.224l-2.058-1.251c0.284-0.104,0.532-0.285,0.701-0.567
		c0.823-1.369,0.071-3.285-1.272-3.981c-0.578-0.299-1.679-0.115-2.535-0.136l-0.991-1.747v0c0.004-2.654-0.213-5.349,0.43-7.935
		c0.725-2.912,3.378-5.988,6.589-6.137c1.538-0.071,4.086,2.504,1.906,3.419c-1.292,0.542-2.838-0.3-1.712-1.683
		c-1.659,0.752,0.229,3.134,1.687,2.49c2.749-1.214,0.94-4.18-0.928-5.133c1.879-0.871,3.737-1.795,5.555-2.789
		C128.046,133.405,127.448,134.927,127.015,136.553z M140.904,109.229c-8.378-0.653-10.43,6.054-10.43,6.054
		c5.889,1.342,9.125-1.979,10.571-4.182c0.144,6.561-3.699,11.401-9.298,14.853c1.1-2.748-1.734-7.024-4.834-5.517
		c-2.927,1.423,0.84,4.772,1.599,2.976c-0.701,0.801-2.338,0.169-2.254-0.915c0.13-1.234,1.196-1.794,2.337-1.438
		c2.634,0.825,2.18,4.439,0.763,6.149c-0.939,1.133-3.459,1.788-4.796,2.428c-1.867,0.894-3.763,1.701-5.658,2.529
		c-2.962,1.295-5.784,3.048-7.294,6.02c-0.776-0.982-1.934-1.801-3.195-2.266c0.678-1.602,1.437-3.156,2.338-4.602
		c1.174-1.885,2.692-3.466,4.243-5.015c4.747,2.604,9.524-0.286,9.524-0.286c-2.023-2.142-4.028-3.184-5.827-3.605
		c0.551-0.656,1.081-1.331,1.547-2.06c1.299-2.032,2.156-4.311,2.618-6.674c0.133-0.678,0.235-1.362,0.309-2.048
		c0.406-0.095,0.809-0.198,1.217-0.279c0.781-0.155,1.742-0.306,2.469,0.117c1.112,0.647,1.154,2.784-0.194,3.174
		c-0.993,0.288-2.385-0.453-1.775-1.61c-1.172,1.481,2.173,3.056,3.163,1.489c0.853-1.351,0.143-3.283-1.184-4.008
		c-0.865-0.472-2.962,0.147-3.545-0.5c0.139-2.017,0.033-4.08,0.165-6.111c4.966-0.92,6.683-5.111,6.683-5.111
		c-1.986-0.648-3.703-0.707-5.172-0.427c1.258-2.019,3.351-3.666,5.713-3.724c1.54-0.037,4.03,2.594,1.831,3.46
		c-1.304,0.514-2.831-0.362-1.675-1.72c-1.675,0.715,0.161,3.139,1.632,2.527c2.775-1.153,1.032-4.158-0.815-5.152
		c1.998-0.873,3.973-1.808,5.905-2.821c0.087,0.741,0.18,1.482,0.29,2.219c0.569,3.816,1.418,7.582,2.187,11.361
		c-1.837-1.66-6.725,0.87-5.073,3.345c0.88,1.318,4.422,0.771,2.592-1.256c0.779,0.863-0.66,2.121-1.51,1.393
		c-0.922-0.79-0.605-2.222,0.466-2.701C139.53,103.957,140.585,106.968,140.904,109.229z M149.865,68.783
		c0.69,7.393-3.432,12.641-9.554,16.232c0.552-1.294,0.216-2.948-0.618-4.178c0.023-0.913,0.057-1.83,0.117-2.756
		c0.079-1.217,1.182-4.329,2.953-2.595c1.717,1.679-1.676,2.624-1.394,0.956c-0.444,1.155,1.44,1.527,2.004,0.708
		c1.353-1.964-1.675-2.668-2.948-2.459c1.165-5.376,3.352-11.148,6.769-15.525c0.231-0.296,0.547-0.603,0.899-0.857
		c0.326,1.819,0.672,3.634,1,5.452c-1.801-1.7-6.743,0.722-5.145,3.232c0.85,1.338,4.403,0.868,2.619-1.199
		c0.76,0.88-0.706,2.106-1.54,1.36c-0.905-0.81-0.556-2.235,0.525-2.69C148.703,63.141,149.646,66.496,149.865,68.783z"/>
	<path d="M117.357,104.058c-6.457-6.837-12.725-2.469-12.725-2.469C110.14,108.427,117.357,104.058,117.357,104.058z"/>
	<path d="M122.326,57.318c-2.339-9.109-9.938-8.321-9.938-8.321C113.896,57.646,122.326,57.318,122.326,57.318z"/>
	<path d="M140.534,66.955c-8.347-2.722-12.009,4.877-12.009,4.877C137.667,74.036,140.534,66.955,140.534,66.955z"/>
	<path d="M77.318,61.786c-5.304,6.996,0.678,12.944,0.678,12.944C83.071,66.812,77.318,61.786,77.318,61.786z"/>
	<path d="M80.763,52.434c-1.87,8.578,6.059,11.459,6.059,11.459C88.096,54.575,80.763,52.434,80.763,52.434z"/>
	<path d="M118.259,68.907c1.274-9.318-6.059-11.459-6.059-11.459C110.33,66.027,118.259,68.907,118.259,68.907z"/>
	<path d="M123.5,74.4c-1.87,8.578,6.059,11.459,6.059,11.459C130.833,76.541,123.5,74.4,123.5,74.4z"/>
</g>
</svg>
