<?xml version="1.0" encoding="iso-8859-1"?>
<!-- Generator: Adobe Illustrator 17.1.0, SVG Export Plug-In . SVG Version: 6.00 Build 0)  -->
<!DOCTYPE svg PUBLIC "-//W3C//DTD SVG 1.1//EN" "http://www.w3.org/Graphics/SVG/1.1/DTD/svg11.dtd">
<svg version="1.1" id="Capa_1" xmlns="http://www.w3.org/2000/svg" xmlns:xlink="http://www.w3.org/1999/xlink" x="0px" y="0px"
	 viewBox="0 0 150 150" style="enable-background:new 0 0 150 150;" xml:space="preserve">
<g>
	<path d="M135.653,37.386c-0.298-2.726-1.088-5.307-2.258-7.666c-2.937-11.593-13.775-18.026-24.853-16.337
		c-3.265-4.198-7.682-7.501-13.241-9.436c-8.777-3.055-18.161,0.069-23.904,6.675C55.209-2.585,30.245,3.959,23.341,25.237
		c-0.339,1.045-0.915,2.017-1.21,3.07c-0.01,0.037-0.02,0.074-0.029,0.112c-7.023,1.823-13.99,7.571-14.564,14.721
		c-0.036,0.45-0.046,0.885-0.044,1.313c-3.665,9.47-3.182,18.705,2.502,27.629c5.93,9.312,14.492,13.875,25.128,13.987
		C45.3,99.84,54.629,114.212,63.108,129.101c-0.387,2.328-1.183,4.862-2.284,7.942c-2.482,6.944-0.157,10.435,7.229,10.657
		c1.112,0.033,2.233,0.061,3.339-0.034c4.282-0.371,6.53-3.566,5.35-7.687c-0.791-2.763-2.176-5.422-2.548-8.227
		c-0.018-0.138,0.002-0.791,0.077-1.84c4.169-7.904,13.478-12.557,18.709-19.734c3.398-4.662,5.84-9.847,7.256-15.301
		c3.304-0.218,6.637-1.237,10.004-3.369c5.081-3.218,8.02-8.609,8.757-14.332c0.661-1.381,1.501-2.027,3.26-2.298
		c10.085-1.554,16.282-8.04,17.587-18.107c0.887-6.847-1.082-12.953-4.186-18.869C135.666,37.736,135.673,37.57,135.653,37.386z
		 M44.568,88.951c2.745,2.562,5.444,5.18,7.764,8.09c1.33,1.668,2.41,5.012,3.447,8.402C52.171,99.859,48.425,94.366,44.568,88.951z
		 M68.843,111.934c-2.092,0.329-6.953-10.308-8.639-13.749c5.267-0.336,10.58-0.674,16.197-1.033
		c-0.126,0.368-0.201,0.805-0.41,1.165C74.192,101.411,73.084,111.267,68.843,111.934z M85.228,110.085
		c-3.018,3.243-6.472,5.997-9.608,8.969c1.341-7.962,3.816-18.168,8.187-26.059c0.504-0.91,1.094-1.412,1.797-1.641
		c2.817,1.385,5.656,2.461,8.516,3.059C92.466,100.165,89.491,105.505,85.228,110.085z"/>
</g>
</svg>
