<?xml version="1.0" encoding="iso-8859-1"?>
<!-- Generator: Adobe Illustrator 17.1.0, SVG Export Plug-In . SVG Version: 6.00 Build 0)  -->
<!DOCTYPE svg PUBLIC "-//W3C//DTD SVG 1.1//EN" "http://www.w3.org/Graphics/SVG/1.1/DTD/svg11.dtd">
<svg version="1.1" id="Capa_1" xmlns="http://www.w3.org/2000/svg" xmlns:xlink="http://www.w3.org/1999/xlink" x="0px" y="0px"
	 viewBox="0 0 150 150" style="enable-background:new 0 0 150 150;" xml:space="preserve">
<g>
	<path d="M116.981,143.333l-0.824-15.625c-1.814,0.288-3.672,0.441-5.565,0.441c-4.042,0-7.925-0.69-11.546-1.943
		c-1.004,1.89-0.909,4.498,0.804,5.934c1.505,1.261,2.913,2.622,4.259,4.048l-0.503,7.146H116.981z"/>
	<path d="M118.719,62.401c-1.44,21.596-15.036,39.912-33.998,48.144c4.655,6.752,11.884,11.586,20.27,13.097
		c1.819,0.328,3.688,0.508,5.601,0.508c1.826,0,3.612-0.165,5.353-0.464C130.74,121.144,142,108.262,142,92.741
		C142,78.206,132.125,65.983,118.719,62.401z"/>
	<path d="M72.959,143.333l-1.523-28.885c-2.989,0.49-6.052,0.755-9.177,0.755c-3.295,0-6.52-0.299-9.663-0.842l-0.554,7.873
		c-0.159-0.156-0.318-0.312-0.477-0.468c-1.945-1.907-5.13-1.941-7.071,0c-1.912,1.912-1.946,5.164,0,7.071
		c2.077,2.035,4.153,4.07,6.23,6.106c0.125,0.122,0.267,0.215,0.402,0.322l-0.567,8.067H72.959z"/>
	<path d="M114.769,61.618c0.038-0.665,0.054-1.335,0.066-2.006c0.006-0.337,0.026-0.671,0.026-1.01c0-0.337-0.019-0.67-0.025-1.005
		C114.297,29.011,90.973,6,62.259,6C33.207,6,9.657,29.551,9.657,58.602c0,25.847,18.648,47.325,43.221,51.751
		c3.046,0.549,6.177,0.851,9.381,0.851c3.058,0,6.05-0.276,8.965-0.776c2.631-0.452,5.193-1.099,7.675-1.926
		c0.639-0.213,1.275-0.433,1.903-0.67c0.624-0.235,1.247-0.475,1.859-0.733C100.7,99.501,113.608,82.131,114.769,61.618z"/>
</g>
</svg>
