<?xml version="1.0" encoding="iso-8859-1"?>
<!-- Generator: Adobe Illustrator 17.1.0, SVG Export Plug-In . SVG Version: 6.00 Build 0)  -->
<!DOCTYPE svg PUBLIC "-//W3C//DTD SVG 1.1//EN" "http://www.w3.org/Graphics/SVG/1.1/DTD/svg11.dtd">
<svg version="1.1" id="Capa_1" xmlns="http://www.w3.org/2000/svg" xmlns:xlink="http://www.w3.org/1999/xlink" x="0px" y="0px"
	 viewBox="0 0 150 150" style="enable-background:new 0 0 150 150;" xml:space="preserve">
<g>
	<path d="M71.945,24.431c-2.886,0-5.063,2.134-5.063,4.963v57.722c-1.311-2.115-2.684-4.19-4.034-6.231
		c-5.78-8.734-11.239-16.983-11.577-27.036c-0.082-2.431-1.882-4.892-5.165-4.892c-1.413,0-2.747,0.542-3.661,1.487
		c-0.896,0.926-1.344,2.15-1.297,3.539c0.416,12.385,6.828,22.234,13.028,31.759c1.976,3.036,4.02,6.175,5.821,9.332
		c3.644,6.385,5.896,13.772,6.886,22.582v20.988c0,0.43,0.054,0.85,0.163,1.273l-0.004,0.063c-0.012,0.184-0.023,0.368-0.036,0.551
		c-0.101,1.4,0.308,2.638,1.184,3.579c0.894,0.961,2.225,1.512,3.652,1.512c2.451,0,5.051-1.65,5.279-4.803
		c0.667-9.212,0.631-16.758-0.112-23.734V96.072c3.41-5.333,12.664-7.955,17.504-10.131c7.031-3.161,12.988-7.655,15.545-15.171
		c1.874-5.51-6.82-7.855-8.679-2.393c-3.176,9.338-16.436,11.11-23.981,15.508c-0.133,0.077-0.258,0.165-0.389,0.245V29.394
		C77.008,26.564,74.831,24.431,71.945,24.431z"/>
	<path d="M15.226,47.265c-2.834,9.049-0.745,20.279,5.452,29.307c5.638,8.214,13.724,13.237,22.186,13.781
		c0.137,0.009,0.272,0.013,0.403,0.013c2.897,0,5.069-2.168,5.165-5.155c0.088-2.736-1.744-5.768-5.311-5.997
		c-5.656-0.364-9.621-4.012-11.952-7.008c-4.528-5.82-6.758-14.092-5.548-20.584c1.444-7.755,8.603-14.064,15.958-14.064
		c3.215,0,6.151,1.157,8.728,3.44c0.282,0.25,0.589,0.47,0.934,0.67c0.928,0.815,2.111,1.261,3.362,1.261
		c2.023,0,4.007-1.142,5.054-2.909c0.989-1.67,1-3.643,0.031-5.412c-3.121-5.694,0.758-12.022,6.204-15.33
		c3.998-2.429,9.597-3.66,16.642-3.66c1.561,0,3.171,0.057,4.924,0.174c6.845,0.457,12.821,3.868,16.828,9.607
		c4.349,6.229,5.696,14.282,3.62,21.581c-0.848,1.693-0.8,3.838,0.14,5.538c0.937,1.694,2.616,2.72,4.608,2.814
		c3.307,0.157,6.032,1.924,8.1,5.252c3.935,6.333,4.018,15.646,1.838,20.641c-4.17,9.556-16.793,11.638-25.926,12.373
		c-0.256,0.021-0.51,0.06-0.783,0.121c-3.559,0.064-5.453,2.76-5.484,5.424c-0.037,3.104-2.195,5.347-5.248,5.454
		c-3.559,0.125-5.429,3.084-5.382,5.806c0.054,3.096,2.283,5.343,5.299,5.343c0.073,0,0.148-0.001,0.223-0.004
		c7.208-0.252,13.227-4.765,15.393-11.384c19.041-2.321,30.372-10.209,33.691-23.46c3.225-12.873-2.424-30.073-14.749-35.197
		c1.619-9.548-0.636-18.955-6.429-26.661C106.812,10.551,96.84,5.262,85.833,4.528c-1.17-0.078-2.356-0.118-3.524-0.118
		c-10.448,0-20.015,3.102-26.937,8.735c-4.199,3.416-6.958,8.572-7.665,14.154c-1.965-0.525-3.985-0.789-6.032-0.79
		C29.93,26.508,19.053,35.044,15.226,47.265z"/>
</g>
</svg>
