<?xml version="1.0" encoding="iso-8859-1"?>
<!-- Generator: Adobe Illustrator 17.1.0, SVG Export Plug-In . SVG Version: 6.00 Build 0)  -->
<!DOCTYPE svg PUBLIC "-//W3C//DTD SVG 1.1//EN" "http://www.w3.org/Graphics/SVG/1.1/DTD/svg11.dtd">
<svg version="1.1" id="Capa_1" xmlns="http://www.w3.org/2000/svg" xmlns:xlink="http://www.w3.org/1999/xlink" x="0px" y="0px"
	 viewBox="0 0 150 150" style="enable-background:new 0 0 150 150;" xml:space="preserve">
<g>
	<path d="M22.174,56.122c-3.048,1.796-3.048,4.708,0,6.504l7.792,4.592c0.164,0.971,0.359,1.93,0.581,2.879l-5.394,7.258
		c-2.11,2.84-0.978,5.523,2.528,5.993l8.968,1.202c0.417,0.652,0.848,1.293,1.296,1.922l-2.265,8.763
		c-0.885,3.425,1.174,5.484,4.599,4.599l8.763-2.265c0.797,0.566,1.609,1.112,2.441,1.629l1.318,8.944
		c0.516,3.5,3.213,4.597,6.025,2.45l7.186-5.487c0.373,0.082,0.752,0.144,1.128,0.218V138c0,5.056,3.869,8.869,9,8.869
		c5.131,0,9-3.813,9-8.869v-32.677c0.576-0.113,1.155-0.22,1.723-0.354l7.258,5.394c2.84,2.11,5.523,0.978,5.993-2.528l1.202-8.968
		c0.652-0.417,1.293-0.848,1.922-1.296l8.763,2.265c3.425,0.885,5.484-1.174,4.599-4.599l-2.265-8.763
		c0.566-0.797,1.112-1.609,1.629-2.441l8.944-1.318c3.5-0.516,4.597-3.213,2.45-6.025l-5.487-7.186
		c0.166-0.755,0.314-1.516,0.444-2.284l7.793-4.592c3.048-1.796,3.048-4.708,0-6.504l-7.793-4.592
		c-0.164-0.971-0.359-1.93-0.581-2.879l5.394-7.258c2.11-2.84,0.978-5.523-2.528-5.993l-8.968-1.202
		c-0.417-0.652-0.848-1.293-1.296-1.922l2.265-8.763c0.885-3.425-1.174-5.484-4.599-4.599l-8.763,2.265
		c-0.797-0.566-1.609-1.112-2.441-1.629l-1.318-8.944c-0.516-3.5-3.214-4.597-6.025-2.45l-7.186,5.487
		c-0.755-0.166-1.516-0.314-2.284-0.444l-4.592-7.793c-1.796-3.048-4.708-3.048-6.504,0l-4.592,7.793
		c-0.971,0.164-1.93,0.359-2.879,0.581l-7.258-5.394c-2.84-2.11-5.523-0.978-5.993,2.528l-1.202,8.968
		c-0.652,0.417-1.293,0.848-1.922,1.296l-8.763-2.265c-3.425-0.885-5.484,1.174-4.599,4.599l2.265,8.763
		c-0.566,0.797-1.112,1.609-1.629,2.441l-8.944,1.318c-3.5,0.516-4.597,3.213-2.45,6.025l5.487,7.186
		c-0.166,0.755-0.314,1.516-0.444,2.284L22.174,56.122z M61.389,59.927c1.153,3.637,3.143,6.868,5.754,9.479
		c0.778,0.778,1.617,1.494,2.5,2.155c0.795,0.596,1.629,1.141,2.5,1.634V44c0-2.579,2-3.869,4-3.869s4,1.29,4,3.869v6.002
		c4.356-2.512,7.259-6.872,8.093-12.072c0.325-2.026,1.744-2.9,3.283-2.9c2.323,0,4.917,1.993,4.431,5.027
		c-1.386,8.643-7.677,15.807-15.807,18.728V88.87c0.871-0.292,1.702-0.659,2.5-1.076c0.884-0.462,1.718-0.996,2.5-1.595
		c4.762-3.646,7.513-9.649,6.637-16.072c-0.687-5.042,7.02-7.219,7.714-2.127c1.647,12.082-4.204,22.639-14.352,27.31
		c-0.807,0.371-1.641,0.705-2.5,1c-0.811,0.278-1.645,0.521-2.5,0.727v8.987V138c0,2.579-2,3.869-4,3.869s-4-1.29-4-3.869v-31.973
		V82.013c-0.854-0.344-1.687-0.724-2.5-1.134c-0.857-0.433-1.692-0.899-2.5-1.402c-6.355-3.963-11.13-10.046-13.468-17.423
		C52.111,57.122,59.836,55.028,61.389,59.927z"/>
</g>
</svg>
