<?xml version="1.0" encoding="iso-8859-1"?>
<!-- Generator: Adobe Illustrator 17.1.0, SVG Export Plug-In . SVG Version: 6.00 Build 0)  -->
<!DOCTYPE svg PUBLIC "-//W3C//DTD SVG 1.1//EN" "http://www.w3.org/Graphics/SVG/1.1/DTD/svg11.dtd">
<svg version="1.1" id="Capa_1" xmlns="http://www.w3.org/2000/svg" xmlns:xlink="http://www.w3.org/1999/xlink" x="0px" y="0px"
	 viewBox="0 0 150 150" style="enable-background:new 0 0 150 150;" xml:space="preserve">
<g>
	<path d="M35.545,46.979c2-0.417,2.474-2.208,2.057-4.208c-0.417-2-2.337-7.15-4.338-6.733c-2,0.417-1.704,5.905-1.287,7.905
		C32.395,45.943,33.545,47.395,35.545,46.979z"/>
	<path d="M58.098,73.063c1.766,1.029,6.878,3.047,7.906,1.281c1.029-1.766-3.249-5.217-5.015-6.245
		c-1.766-1.029-3.615-1.146-4.643,0.62C55.319,70.484,56.333,72.034,58.098,73.063z"/>
	<path d="M56.838,65.289c0.124,0.015,0.232,0.004,0.348,0.007c0.115,0.012,0.221,0.037,0.346,0.037c2.043,0,2.873-1.657,2.873-3.7
		c0-0.532-0.058-1.295-0.177-2.13c-0.078-2.338-0.571-5.124-2.002-5.303c-0.118-0.015-0.234-0.007-0.349,0.014
		c-0.111-0.035-0.225-0.057-0.345-0.057c-1.442,0-2.277,2.703-2.645,5.013c-0.222,0.814-0.374,1.564-0.44,2.092
		C54.194,63.289,54.811,65.036,56.838,65.289z"/>
	<path d="M69.391,61.968c1.367-1.518,4.387-6.111,2.869-7.478c-1.518-1.367-5.77,2.115-7.138,3.633
		c-1.367,1.518-1.86,3.304-0.341,4.672C66.299,64.162,68.023,63.486,69.391,61.968z"/>
	<path d="M69.92,71.195c2.043-0.048,7.455-1.003,7.408-3.046c-0.047-2.043-5.498-2.745-7.541-2.698
		c-2.043,0.048-3.68,0.915-3.632,2.958C66.202,70.452,67.877,71.242,69.92,71.195z"/>
	<path d="M78.191,80.73c1.054-1.751-3.173-5.263-4.924-6.317c-1.751-1.054-3.598-1.198-4.651,0.553
		c-1.054,1.751-0.062,3.315,1.688,4.369C72.055,80.389,77.137,82.481,78.191,80.73z"/>
	<path d="M44.65,72.163c2.03-0.234,2.664-1.975,2.43-4.005s-1.681-7.332-3.711-7.098s-2.231,5.727-1.997,7.756
		S42.62,72.397,44.65,72.163z"/>
	<path d="M38.43,65.259c-1.203-1.652-5.07-5.557-6.722-4.354c-1.652,1.203,0.875,6.083,2.077,7.735
		c1.203,1.652,2.848,2.503,4.5,1.301C39.937,68.738,39.633,66.911,38.43,65.259z"/>
	<path d="M29.661,50.669c1.823-0.923,1.815-2.775,0.892-4.599c-0.923-1.823-4.116-6.296-5.94-5.373
		c-1.823,0.923-0.109,6.145,0.814,7.968C26.35,50.488,27.838,51.592,29.661,50.669z"/>
	<path d="M29.708,75.803c1.809-0.951,2.889-2.456,1.938-4.265c-0.951-1.809-2.803-1.771-4.612-0.82
		c-1.809,0.951-6.231,4.214-5.28,6.022C22.705,78.549,27.9,76.754,29.708,75.803z"/>
	<path d="M29.756,86.784c1.672,1.175,5.475-2.792,6.65-4.464c1.175-1.672,1.45-3.504-0.222-4.679s-3.303-0.297-4.478,1.375
		C30.53,80.687,28.084,85.609,29.756,86.784z"/>
	<path d="M25.663,67.354c2.043-0.042,3.682-0.905,3.64-2.948c-0.042-2.043-1.715-2.838-3.758-2.796
		c-2.043,0.042-7.458,0.983-7.416,3.026S23.62,67.396,25.663,67.354z"/>
	<path d="M18.6,49.124c-1.49,1.399,1.625,5.927,3.023,7.417c1.399,1.49,3.137,2.13,4.627,0.731c1.49-1.399,0.96-3.174-0.438-4.664
		C24.413,51.119,20.09,47.725,18.6,49.124z"/>
	<path d="M43.645,54.336c2.033-0.208,2.69-1.94,2.482-3.973c-0.208-2.033-1.584-7.354-3.617-7.146
		c-2.033,0.208-2.306,5.697-2.098,7.73C40.619,52.98,41.613,54.544,43.645,54.336z"/>
	<path d="M49.29,47.068c2.043-0.022,2.855-1.687,2.833-3.731c-0.022-2.043-0.91-7.467-2.953-7.445
		c-2.043,0.022-2.814,5.464-2.792,7.507C46.4,45.443,47.247,47.09,49.29,47.068z"/>
	<path d="M65.948,52.614c1.369-1.517,4.393-6.107,2.875-7.475s-5.772,2.11-7.141,3.627s-1.863,3.303-0.346,4.671
		C62.854,54.805,64.579,54.131,65.948,52.614z"/>
	<path d="M55.507,50.693c1.976,0.521,3.2-0.869,3.721-2.845c0.521-1.976,1.106-7.441-0.87-7.962s-4.164,4.521-4.685,6.496
		C53.152,48.359,53.531,50.172,55.507,50.693z"/>
	<path d="M39.684,55.338c-1.244-1.621-5.21-5.426-6.831-4.182c-1.621,1.244,1.029,6.059,2.274,7.68
		c1.244,1.621,2.911,2.43,4.532,1.186C41.279,58.778,40.929,56.959,39.684,55.338z"/>
	<path d="M50.079,63.907c2.043,0,2.873-1.657,2.873-3.7c0-2.043-0.829-7.477-2.873-7.477c-2.043,0-2.873,5.433-2.873,7.477
		C47.207,62.25,48.036,63.907,50.079,63.907z"/>
	<path d="M31.076,13.401c2-0.417,2.474-2.208,2.057-4.208c-0.417-2-2.337-7.15-4.338-6.733c-2,0.417-1.704,5.905-1.287,7.905
		C27.925,12.366,29.075,13.818,31.076,13.401z"/>
	<path d="M64.354,11.561c-1.517-1.369-5.772,2.11-7.141,3.627c-1.369,1.517-1.863,3.303-0.346,4.671
		c1.517,1.369,3.243,0.694,4.611-0.823C62.847,17.519,65.871,12.93,64.354,11.561z"/>
	<path d="M55.264,37.328c2.043,0,2.873-1.656,2.873-3.7c0-2.043-0.829-7.477-2.873-7.477c-2.043,0-2.873,5.433-2.873,7.477
		C52.391,35.671,53.22,37.328,55.264,37.328z"/>
	<path d="M76.237,63.474c1.766,1.029,6.878,3.047,7.906,1.281c1.029-1.766-3.249-5.217-5.015-6.245
		c-1.766-1.029-3.615-1.146-4.643,0.62C73.457,60.896,74.471,62.446,76.237,63.474z"/>
	<path d="M31.007,30.572c-1.203-1.652-5.07-5.557-6.722-4.354c-1.652,1.203,0.875,6.083,2.077,7.735
		c1.203,1.652,2.848,2.503,4.5,1.301C32.514,34.051,32.21,32.224,31.007,30.572z"/>
	<path d="M9.332,48.188c1.35,1.534,5.977-1.432,7.511-2.782c1.534-1.35,2.23-3.066,0.881-4.601c-1.35-1.534-3.141-1.063-4.675,0.287
		C11.514,42.442,7.982,46.653,9.332,48.188z"/>
	<path d="M28.384,17.58c-1.621,1.244,1.029,6.059,2.274,7.68c1.244,1.621,2.911,2.43,4.532,1.186
		c1.621-1.244,1.27-3.063,0.026-4.684C33.971,20.14,30.005,16.335,28.384,17.58z"/>
	<path d="M64.922,28.391c1.367-1.518,4.387-6.111,2.869-7.478c-1.518-1.367-5.77,2.115-7.138,3.633
		c-1.367,1.518-1.86,3.304-0.341,4.672S63.554,29.909,64.922,28.391z"/>
	<path d="M61.685,34.832c0.048,2.043,1.723,2.833,3.766,2.786c2.043-0.048,7.455-1.003,7.408-3.046
		c-0.048-2.043-5.498-2.745-7.541-2.698C63.274,31.921,61.638,32.789,61.685,34.832z"/>
	<path d="M40.181,38.586c2.03-0.234,2.664-1.975,2.43-4.005s-1.681-7.332-3.711-7.098s-2.231,5.727-1.997,7.756
		S38.151,38.82,40.181,38.586z"/>
	<path d="M20.958,15.088c0.923,1.823,2.411,2.927,4.234,2.004c1.823-0.923,1.815-2.775,0.892-4.599
		c-0.923-1.823-4.116-6.296-5.94-5.373C18.321,8.043,20.035,13.265,20.958,15.088z"/>
	<path d="M17.775,31.67c-1.809,0.951-6.231,4.214-5.28,6.022s6.146,0.014,7.954-0.938c1.809-0.951,2.889-2.456,1.938-4.265
		S19.583,30.719,17.775,31.67z"/>
	<path d="M13.91,30.903c2.043-0.042,3.682-0.905,3.64-2.948c-0.042-2.043-1.715-2.838-3.758-2.796
		c-2.043,0.042-7.458,0.983-7.416,3.026C6.418,30.228,11.867,30.945,13.91,30.903z"/>
	<path d="M21.781,23.695c1.49-1.399,0.96-3.174-0.438-4.664c-1.399-1.49-5.722-4.883-7.212-3.484
		c-1.49,1.399,1.625,5.927,3.023,7.417C18.553,24.453,20.291,25.093,21.781,23.695z"/>
	<path d="M76.214,47.146c0.684-1.926,1.721-7.323-0.205-8.007c-1.926-0.684-4.525,4.159-5.209,6.084
		c-0.684,1.926-0.457,3.764,1.469,4.448S75.53,49.072,76.214,47.146z"/>
	<path d="M74.556,19.652c-2.01-0.367-3.802,4.829-4.169,6.839c-0.367,2.01,0.151,3.789,2.161,4.156s3.124-1.113,3.491-3.124
		C76.405,25.513,76.566,20.02,74.556,19.652z"/>
	<path d="M79.61,44.615c-0.398,2.004,1.065,3.14,3.069,3.539c2.004,0.398,7.495,0.644,7.893-1.36
		c0.398-2.004-4.769-3.877-6.773-4.275C81.795,42.12,80.009,42.61,79.61,44.615z"/>
	<path d="M93.739,35.94c-0.54-1.971-5.999-1.335-7.97-0.795s-3.349,1.777-2.81,3.748s2.357,2.333,4.327,1.793
		C89.258,40.146,94.279,37.911,93.739,35.94z"/>
	<path d="M82.715,26.024c-1.826-0.918-5.007,3.563-5.925,5.389c-0.918,1.826-0.922,3.678,0.904,4.596
		c1.826,0.918,3.311-0.189,4.229-2.015C82.84,32.169,84.54,26.943,82.715,26.024z"/>
	<path d="M39.176,20.759c2.033-0.208,2.69-1.94,2.482-3.973c-0.208-2.033-1.584-7.354-3.617-7.146s-2.306,5.697-2.098,7.73
		C36.15,19.403,37.143,20.967,39.176,20.759z"/>
	<path d="M47.654,9.76c-0.022-2.043-0.91-7.467-2.953-7.445c-2.043,0.022-2.814,5.464-2.792,7.507
		c0.022,2.043,0.869,3.691,2.912,3.669C46.864,13.469,47.676,11.804,47.654,9.76z"/>
	<path d="M49.204,16.263c-0.521,1.976-0.142,3.789,1.834,4.31c1.976,0.521,3.2-0.869,3.721-2.845
		c0.521-1.976,1.106-7.441-0.87-7.962S49.725,14.287,49.204,16.263z"/>
	<path d="M45.61,30.33c2.043,0,2.873-1.657,2.873-3.7c0-2.043-0.829-7.477-2.873-7.477c-2.043,0-2.873,5.433-2.873,7.477
		C42.737,28.673,43.567,30.33,45.61,30.33z"/>
	<path d="M114.588,78.709c2,0.417,3.15-1.036,3.567-3.036c0.417-2,0.714-7.488-1.287-7.905c-2-0.417-3.921,4.733-4.338,6.733
		C112.114,76.502,112.588,78.292,114.588,78.709z"/>
	<path d="M92.601,85.887c-0.119,0-0.234,0.022-0.345,0.057c-0.115-0.021-0.231-0.029-0.349-0.014
		c-1.431,0.179-1.924,2.965-2.002,5.303c-0.119,0.835-0.177,1.598-0.177,2.13c0,2.043,0.829,3.7,2.873,3.7
		c0.124,0,0.23-0.025,0.346-0.037c0.116-0.002,0.224,0.009,0.348-0.007c2.028-0.254,2.645-2,2.391-4.028
		c-0.066-0.528-0.218-1.278-0.44-2.092C94.878,88.59,94.043,85.887,92.601,85.887z"/>
	<path d="M85.353,94.526c1.518-1.367,1.026-3.153-0.341-4.672c-1.367-1.518-5.619-5.001-7.138-3.633
		c-1.518,1.367,1.501,5.96,2.869,7.478C82.11,95.217,83.835,95.893,85.353,94.526z"/>
	<path d="M80.213,102.926c2.043,0.048,3.718-0.743,3.766-2.786c0.048-2.043-1.589-2.91-3.632-2.958
		c-2.043-0.048-7.494,0.655-7.541,2.698C72.758,101.923,78.17,102.878,80.213,102.926z"/>
	<path d="M84.123,109.984c1.766-1.029,2.78-2.579,1.751-4.344c-1.029-1.766-2.877-1.648-4.643-0.62
		c-1.766,1.029-6.043,4.48-5.015,6.245S82.358,111.013,84.123,109.984z"/>
	<path d="M108.761,100.547c0.234-2.03,0.033-7.522-1.997-7.756s-3.476,5.068-3.711,7.098s0.4,3.771,2.43,4.005
		C107.513,104.128,108.527,102.577,108.761,100.547z"/>
	<path d="M111.848,101.672c1.652,1.203,3.297,0.351,4.5-1.301c1.203-1.652,3.729-6.533,2.077-7.735
		c-1.652-1.203-5.52,2.702-6.722,4.354C110.5,98.642,110.196,100.469,111.848,101.672z"/>
	<path d="M120.472,82.4c1.823,0.923,3.311-0.181,4.234-2.004c0.923-1.823,2.637-7.045,0.814-7.968
		c-1.823-0.923-5.017,3.55-5.94,5.373C118.657,79.625,118.649,81.477,120.472,82.4z"/>
	<path d="M128.379,108.471c0.951-1.809-3.472-5.071-5.28-6.022c-1.809-0.951-3.661-0.988-4.612,0.82
		c-0.951,1.809,0.129,3.314,1.938,4.265C122.234,108.485,127.428,110.28,128.379,108.471z"/>
	<path d="M120.378,118.515c1.672-1.175-0.775-6.097-1.95-7.768c-1.175-1.672-2.806-2.55-4.478-1.375s-1.397,3.007-0.222,4.679
		S118.706,119.69,120.378,118.515z"/>
	<path d="M132.005,96.367c0.042-2.043-5.373-2.984-7.416-3.026c-2.043-0.042-3.716,0.753-3.758,2.796
		c-0.042,2.043,1.597,2.906,3.64,2.948C126.514,99.127,131.963,98.41,132.005,96.367z"/>
	<path d="M128.51,88.272c1.399-1.49,4.513-6.018,3.023-7.417c-1.49-1.399-5.813,1.995-7.212,3.484
		c-1.399,1.49-1.928,3.265-0.438,4.664C125.373,90.401,127.111,89.761,128.51,88.272z"/>
	<path d="M107.623,74.948c-2.033-0.208-3.41,5.113-3.617,7.146c-0.208,2.033,0.449,3.765,2.482,3.973s3.026-1.356,3.234-3.389
		C109.929,80.645,109.656,75.156,107.623,74.948z"/>
	<path d="M100.963,67.623c-2.043-0.022-2.931,5.402-2.953,7.445c-0.022,2.043,0.789,3.709,2.833,3.731
		c2.043,0.022,2.89-1.625,2.912-3.669C103.777,73.087,103.007,67.645,100.963,67.623z"/>
	<path d="M88.797,85.167c1.517-1.369,1.023-3.154-0.346-4.671s-5.624-4.996-7.141-3.627c-1.517,1.369,1.507,5.958,2.875,7.475
		C85.554,85.862,87.28,86.536,88.797,85.167z"/>
	<path d="M87.465,75.515c1.517-1.369,1.023-3.154-0.346-4.671c-1.369-1.517-5.624-4.996-7.141-3.627
		c-1.517,1.369,1.507,5.958,2.875,7.475C84.222,76.209,85.948,76.883,87.465,75.515z"/>
	<path d="M96.46,78.114c-0.521-1.976-2.709-7.018-4.685-6.496s-1.392,5.986-0.87,7.962c0.521,1.976,1.746,3.366,3.721,2.845
		C96.602,81.903,96.981,80.089,96.46,78.114z"/>
	<path d="M110.475,91.753c1.621,1.244,3.287,0.435,4.532-1.186c1.244-1.621,3.895-6.436,2.274-7.68
		c-1.621-1.244-5.587,2.561-6.831,4.182C109.205,88.69,108.854,90.509,110.475,91.753z"/>
	<path d="M100.054,95.638c2.043,0,2.873-1.656,2.873-3.7c0-2.043-0.829-7.477-2.873-7.477c-2.043,0-2.873,5.433-2.873,7.477
		C97.181,93.981,98.01,95.638,100.054,95.638z"/>
	<path d="M121.338,34.191c-2-0.417-3.921,4.733-4.338,6.733c-0.417,2,0.057,3.791,2.057,4.208c2,0.417,3.15-1.036,3.567-3.036
		C123.042,40.096,123.339,34.608,121.338,34.191z"/>
	<path d="M65.99,96.486c1.029,1.766,6.141-0.252,7.906-1.281c1.766-1.029,2.78-2.579,1.751-4.344
		c-1.029-1.766-2.877-1.648-4.643-0.62C69.239,91.269,64.962,94.72,65.99,96.486z"/>
	<path d="M119.271,66.985c1.652,1.203,3.297,0.351,4.5-1.301s3.729-6.533,2.077-7.735c-1.652-1.203-5.52,2.702-6.722,4.354
		C117.924,63.955,117.619,65.782,119.271,66.985z"/>
	<path d="M133.29,77.137c1.534,1.35,6.161,4.316,7.511,2.782c1.35-1.534-2.182-5.745-3.716-7.095
		c-1.534-1.35-3.326-1.821-4.675-0.287C131.06,74.07,131.756,75.787,133.29,77.137z"/>
	<path d="M114.944,58.176c1.621,1.244,3.287,0.435,4.532-1.186c1.244-1.621,3.895-6.436,2.274-7.68
		c-1.621-1.244-5.587,2.561-6.831,4.182C113.674,55.113,113.323,56.932,114.944,58.176z"/>
	<path d="M109.953,70.316c2.03,0.234,3.044-1.316,3.278-3.346s0.033-7.522-1.997-7.756s-3.476,5.068-3.711,7.098
		S107.923,70.082,109.953,70.316z"/>
	<path d="M129.176,46.819c0.923-1.823,2.637-7.045,0.814-7.968c-1.823-0.923-5.017,3.55-5.94,5.373
		c-0.923,1.823-0.931,3.676,0.892,4.599C126.765,49.746,128.253,48.642,129.176,46.819z"/>
	<path d="M137.639,69.423c0.951-1.809-3.472-5.071-5.28-6.022s-3.661-0.988-4.612,0.82s0.129,3.314,1.938,4.265
		C131.493,69.437,136.688,71.232,137.639,69.423z"/>
	<path d="M132.583,59.686c-0.042,2.043,1.597,2.906,3.64,2.948s7.492-0.675,7.534-2.718c0.042-2.043-5.373-2.984-7.416-3.026
		C134.298,56.848,132.625,57.643,132.583,59.686z"/>
	<path d="M128.791,50.762c-1.399,1.49-1.928,3.265-0.438,4.664c1.49,1.399,3.228,0.759,4.627-0.731
		c1.399-1.49,4.513-6.018,3.023-7.417C134.513,45.879,130.19,49.272,128.791,50.762z"/>
	<path d="M98.47,63.492c-0.398-2.004-2.185-2.495-4.189-2.096c-2.004,0.398-7.171,2.271-6.773,4.275
		c0.398,2.004,5.889,1.758,7.893,1.36C97.405,66.633,98.868,65.497,98.47,63.492z"/>
	<path d="M95.12,57.771c0.54-1.971-0.839-3.208-2.81-3.748s-7.43-1.176-7.97,0.795c-0.54,1.971,4.481,4.206,6.452,4.746
		S94.581,59.741,95.12,57.771z"/>
	<path d="M112.093,41.371c-2.033-0.208-3.41,5.113-3.617,7.146c-0.208,2.033,0.449,3.765,2.482,3.973
		c2.033,0.208,3.026-1.356,3.234-3.389C114.398,47.068,114.125,41.579,112.093,41.371z"/>
	<path d="M105.433,34.046c-2.043-0.022-2.931,5.402-2.953,7.445c-0.022,2.043,0.789,3.709,2.833,3.731
		c2.043,0.022,2.89-1.625,2.912-3.669C108.247,39.51,107.476,34.068,105.433,34.046z"/>
	<path d="M99.095,52.304c1.976-0.521,2.355-2.335,1.834-4.31s-2.709-7.018-4.685-6.496c-1.976,0.521-1.392,5.986-0.87,7.962
		C95.895,51.435,97.12,52.825,99.095,52.304z"/>
	<path d="M107.396,58.36c0-2.043-0.829-7.477-2.873-7.477c-2.043,0-2.873,5.433-2.873,7.477c0,2.043,0.829,3.7,2.873,3.7
		C106.567,62.06,107.396,60.404,107.396,58.36z"/>
	<path d="M85.869,128.739c1.606-0.84,3.228-1.745,4.63-2.899c7.944-0.154,16.608-6.338,17.14-14.495c0.21-3.221-4.791-3.201-5,0
		c-0.264,4.041-4.049,7.193-8.104,8.638c1.822-4.596,1.77-9.542,1.456-14.608c-0.199-3.202-5.2-3.222-5,0
		c0.223,3.597,0.407,7.118-0.334,10.673c-0.455,2.184-1.428,3.806-2.724,5.122c-0.218,0.139-0.397,0.317-0.544,0.52
		c-1.555,1.394-3.489,2.443-5.529,3.51c-2.302,1.204-4.837,3.015-6.818,5.211c-0.161-0.413-0.318-0.826-0.503-1.242
		c-2.531-5.707-8.444-9.348-12.145-14.209c-2.266-2.976-3.929-6.237-5.155-9.67c0.872-2.645,1.745-5.291,2.617-7.936
		c1.09-3.306,1.723-6.934,5.522-7.981c3.104-0.856,1.785-5.68-1.329-4.821c-5.18,1.429-7.551,6.047-9.173,11.01
		c-1.107-7.37-1.008-15.054-0.946-22.19c0.028-3.225-4.972-3.223-5,0c-0.055,6.334-0.099,12.83,0.571,19.207
		c-4.928-0.992-4.995-6.332-4.491-11.195c0.332-3.206-4.671-3.174-5,0c-0.436,4.21-0.537,8.399,1.851,12.075
		c1.853,2.852,5.102,4.082,8.357,4.267c0.692,3.909,1.731,7.744,3.303,11.434c2.196,5.155,5.152,9.573,9.073,13.566
		c4.408,4.489,8.369,8.664,9.028,14.468c-0.031,0.262-0.061,0.525-0.067,0.79c-0.009,0.375,0.056,0.702,0.169,0.99
		c-0.005,1.05-0.107,2.149-0.336,3.316c-0.62,3.149,4.199,4.491,4.821,1.329c0.427-2.166,0.554-4.231,0.419-6.255
		C77.303,133.611,83.052,130.212,85.869,128.739z"/>
</g>
</svg>
