<?xml version="1.0" encoding="iso-8859-1"?>
<!-- Generator: Adobe Illustrator 17.1.0, SVG Export Plug-In . SVG Version: 6.00 Build 0)  -->
<!DOCTYPE svg PUBLIC "-//W3C//DTD SVG 1.1//EN" "http://www.w3.org/Graphics/SVG/1.1/DTD/svg11.dtd">
<svg version="1.1" id="Capa_1" xmlns="http://www.w3.org/2000/svg" xmlns:xlink="http://www.w3.org/1999/xlink" x="0px" y="0px"
	 viewBox="0 0 150 150" style="enable-background:new 0 0 150 150;" xml:space="preserve">
<g>
	<path d="M46.997,78.124c1.71,0,3.38-0.165,5.003-0.465V138c0,5.056,3.869,8.869,9,8.869c3.018,0,5.592-1.326,7.206-3.441
		c1.624,1.821,4.021,2.941,6.794,2.941c5.131,0,9-3.813,9-8.869V73.046C86.702,74.288,89.698,75,92.867,75
		c11.751,0,21.278-9.526,21.278-21.278c0-4.206-1.237-8.116-3.342-11.417c0.355-1.872,0.548-3.801,0.548-5.776
		c0-17.038-13.812-30.85-30.85-30.85c-12.555,0-23.351,7.504-28.166,18.269c-1.727-0.342-3.51-0.524-5.337-0.524
		c-15.105,0-27.35,12.245-27.35,27.35C19.647,65.879,31.892,78.124,46.997,78.124z M79,137.5c0,2.579-2,3.869-4,3.869
		s-4-1.29-4-3.869V65.882v-1.993V45.5c0-1.655,0.827-2.772,1.945-3.365c0.625-0.331,1.338-0.504,2.055-0.504
		c0.117,0,0.232,0.019,0.348,0.028C77.225,41.801,79,43.071,79,45.5v6.002c4.356-2.512,7.259-6.872,8.093-12.072
		c0.325-2.026,1.744-2.9,3.283-2.9c2.323,0,4.917,1.993,4.431,5.027C93.421,50.2,87.13,57.364,79,60.284v7.057v2.498V137.5z M65,138
		c0,2.579-2,3.869-4,3.869s-4-1.29-4-3.869V76.228v-5.511c-6.494-2.307-11.506-7.591-13.766-14.182
		c-1.013-2.953,1.4-4.883,3.839-4.883c1.602,0,3.216,0.833,3.875,2.756c1.109,3.232,3.281,5.769,6.052,7.446V59.5
		c0-0.905,0.256-1.642,0.662-2.23c0.751-1.087,2.039-1.639,3.338-1.639c2,0,4,1.29,4,3.869v3.699v8.154V138z"/>
</g>
</svg>
