<?xml version="1.0" encoding="iso-8859-1"?>
<!-- Generator: Adobe Illustrator 17.1.0, SVG Export Plug-In . SVG Version: 6.00 Build 0)  -->
<!DOCTYPE svg PUBLIC "-//W3C//DTD SVG 1.1//EN" "http://www.w3.org/Graphics/SVG/1.1/DTD/svg11.dtd">
<svg version="1.1" id="Capa_1" xmlns="http://www.w3.org/2000/svg" xmlns:xlink="http://www.w3.org/1999/xlink" x="0px" y="0px"
	 viewBox="0 0 150 150" style="enable-background:new 0 0 150 150;" xml:space="preserve">
<g>
	<path d="M23.006,40.237c-0.307-4.52-0.596-8.788-4.141-12.424c-0.511-0.524-1.132-0.801-1.797-0.801
		c-1.052,0-2.091,0.722-2.527,1.756c-0.41,0.971-0.201,2.016,0.557,2.793c2.532,2.598,2.741,6.256,2.961,10.13
		c0.146,2.559,0.296,5.204,1.184,7.517c1.645,4.288,4.634,8.238,7.344,11.399c-0.578-0.172-1.157-0.336-1.726-0.497
		c-2.071-0.587-4.026-1.142-5.772-1.955c-0.385-0.18-0.783-0.271-1.183-0.271c-1.287,0-2.474,0.981-2.763,2.284
		c-0.247,1.114,0.269,2.117,1.345,2.619c1.283,0.598,2.618,1.146,3.979,1.636c-0.388,0.39-0.741,0.812-1.055,1.261
		c-0.544,0.779-0.625,1.668-0.224,2.438c0.464,0.889,1.491,1.486,2.557,1.486c0.899,0,1.685-0.418,2.213-1.176
		c0.847-1.212,1.813-1.802,2.954-1.802c3.295,0,7.412,4.901,10.136,8.145c1.021,1.216,1.903,2.267,2.55,2.839
		c1.429,1.266,3.059,1.96,4.648,2.607c-0.582,0.199-1.148,0.407-1.696,0.621c-1.672,0.655-3.519,1.962-5.473,3.345
		c-3.226,2.283-6.553,4.67-9.508,4.426c-1.49-0.107-2.554,0.893-2.611,2.376c-0.05,1.325,0.82,2.805,2.535,2.937
		c1.572,0.118,3.034-0.147,4.606-0.83c-0.377,0.715-0.786,1.293-1.266,1.8c-0.749,0.791-0.945,1.846-0.525,2.822
		c0.441,1.023,1.47,1.738,2.502,1.738c0.669,0,1.292-0.284,1.8-0.821c1.307-1.381,2.243-2.971,3.129-5.318
		c0.198-0.525,0.369-1.058,0.537-1.586c0.451-1.413,0.876-2.749,1.817-3.8c4.748-2.841,10.542-4.492,16.762-4.776
		c0.11-0.005,0.214-0.02,0.315-0.037c0.843,0.266,1.692,0.524,2.541,0.784c7.23,2.206,14.707,4.487,18.34,11.248l0.047,4.484
		c-0.608-0.54-1.196-1.011-1.781-1.426c-0.44-0.312-0.973-0.477-1.541-0.477c-1.123,0-2.25,0.636-2.804,1.582
		c-0.856,1.461-0.407,3.224,1.092,4.286c1.627,1.153,2.999,2.717,4.078,4.646c0.246,0.441,0.566,0.797,0.956,1.061v28.74
		c-2.038,1.109-4.385,1.135-6.865,1.162c-2.998,0.032-6.098,0.065-8.756,2.108c-1.407,1.082-1.496,2.683-1.109,3.82
		c0.443,1.304,1.521,2.181,2.682,2.181c0.589,0,1.165-0.213,1.71-0.632c1.976-1.519,4.335-1.609,6.833-1.706
		c0.453-0.018,0.905-0.035,1.355-0.062c1.098-0.064,2.17-0.334,3.207-0.594c1.187-0.298,2.308-0.579,3.499-0.579h0.001
		c0.972,0.006,1.889,0.188,2.859,0.381c1.228,0.243,2.504,0.496,3.9,0.367c1.72-0.159,2.582-1.66,2.521-2.993
		c-0.067-1.467-1.137-2.449-2.612-2.318c-1.403,0.132-2.694-0.019-3.91-0.466c0-0.007,0-0.015,0-0.021V94.74
		c0-0.479-0.113-0.92-0.337-1.31c0.077-5.821-3.63-10.151-7.275-13.622c-4.696-4.471-9.78-8.704-14.697-12.799l-2.533-2.112
		c-1.25-1.045-2.581-2.089-3.868-3.098c-2.293-1.8-4.664-3.658-6.782-5.677c-0.017-0.181-0.05-0.348-0.1-0.514
		c-1.148-3.822-0.996-7.819,0.48-12.572c0.115-0.141,0.213-0.285,0.298-0.442c1.371-2.527,3.487-4.312,6.12-5.164
		c1.5-0.485,1.99-1.858,1.809-3.003c-0.186-1.175-0.987-2.035-2.013-2.215c0.758-0.513,1.609-0.977,2.443-1.432
		c0.898-0.49,1.746-0.953,2.423-1.449c2.18-1.597,4.2-3.483,6.153-5.308c0.731-0.683,1.46-1.364,2.196-2.028
		c0.401-0.362,0.78-0.71,1.141-1.041c3.938-3.614,5.649-5.093,11.304-3.056c1.693,0.609,3.432,0.958,5.472,1.096
		c0.272,0.019,0.546,0.027,0.818,0.027c3.239,0,6.676-1.251,9.674-3.522c1.19-0.902,1.271-2.243,0.95-3.197
		c-0.372-1.107-1.291-1.852-2.286-1.852c-0.499,0-0.985,0.177-1.445,0.525c-3.208,2.431-6.798,3.202-10.373,2.223
		c1.022-0.314,2.099-0.72,3.139-1.307c1.058-0.596,1.525-1.684,1.223-2.84c-0.322-1.228-1.407-2.118-2.58-2.118
		c-0.445,0-0.887,0.121-1.312,0.361c-1.72,0.971-3.585,1.465-5.56,1.987c-1.808,0.479-3.676,0.974-5.412,1.868
		c-2.692,1.385-5.025,3.66-7.281,5.861c-0.792,0.771-1.57,1.531-2.344,2.229l-0.587,0.531c-2.216,2.006-4.327,3.917-6.66,5.599
		c1.643-4.996,2.116-9.437,1.489-13.864c-0.174-1.23-1.028-1.996-2.229-1.996c-0.839,0-1.71,0.403-2.274,1.052
		c-0.535,0.616-0.765,1.409-0.648,2.232c0.434,3.067,0.185,6.183-0.787,9.714c-0.31-0.609-0.66-1.247-1.058-1.926
		c-3.357-5.732-4.66-10.56-4.356-16.141c0.04-0.728-0.176-1.361-0.623-1.834c-0.465-0.492-1.164-0.773-1.916-0.773
		c-1.31,0-2.683,0.877-2.774,2.553c-0.241,4.428,0.382,8.604,1.905,12.766c0.612,1.672,1.545,3.243,2.448,4.762
		c1.712,2.882,3.329,5.604,2.887,8.921c-0.033,0.245-0.03,0.485,0.007,0.731l-0.675,1.482c-1,2.188-2.032,4.449-2.864,6.643
		l-0.055,0.089c-0.032,0.051-0.064,0.103-0.095,0.157c-0.181,0.336-0.292,0.683-0.328,1.034c-0.912,2.579-1.483,4.942-1.732,7.178
		c-2.488-5.497-2.974-12.488-3.403-18.666c-0.078-1.122-0.154-2.212-0.239-3.256c-0.136-1.662-1.528-2.532-2.833-2.532
		c-0.754,0-1.448,0.283-1.902,0.776c-0.437,0.475-0.637,1.109-0.577,1.838c0.102,1.247,0.211,2.538,0.333,3.854
		c-0.56-1.707-1.05-3.403-1.467-5.073c-0.244-0.978-0.465-1.95-0.684-2.917c-0.762-3.359-1.482-6.533-3.069-9.663
		c-2.321-4.579-6.405-7.553-9.423-9.241c-0.424-0.237-0.864-0.357-1.308-0.357c-1.178,0-2.266,0.894-2.587,2.125
		c-0.301,1.154,0.17,2.239,1.228,2.831c3.082,1.725,5.341,4.01,7.015,7.122c-1.469-0.927-2.805-2.089-3.984-3.468
		c-0.628-0.734-1.325-0.889-1.798-0.889c-0.986,0-1.959,0.674-2.421,1.676c-0.457,0.991-0.304,2.081,0.409,2.914
		c1.482,1.732,3.211,3.209,5.14,4.387c0.668,0.408,1.483,0.665,2.271,0.913c1.129,0.356,2.296,0.725,2.935,1.521
		c0.954,1.187,1.348,3.578,1.695,5.688c0.182,1.103,0.353,2.144,0.593,2.966c2.082,7.139,5.42,14.16,9.891,20.814
		c1.779,3.532,4.459,6.699,8.692,10.271c2.349,1.982,4.717,3.938,7.086,5.896c3.346,2.764,6.805,5.622,10.146,8.505
		c0.886,0.764,1.891,1.565,2.955,2.414c1.609,1.284,3.362,2.683,4.988,4.186c-1.701-0.792-3.607-1.523-5.817-2.236
		c-1.104-0.356-2.256-0.698-3.432-1.047c-1.309-0.388-2.646-0.784-3.972-1.219c-0.353-0.252-0.775-0.395-1.259-0.426
		c-5.337-1.866-10.997-4.669-12.652-11.242c-0.297-1.183-1.228-1.917-2.427-1.917c-0.881,0-1.752,0.414-2.272,1.082
		c-0.483,0.62-0.636,1.41-0.431,2.226c0.294,1.169,0.669,2.257,1.131,3.276c-0.608-0.651-1.198-1.329-1.78-1.997
		c-0.351-0.403-0.694-0.798-1.032-1.176c-3.682-4.111-4.573-9.83-5.436-15.36c-0.189-1.215-0.377-2.416-0.591-3.583
		c-0.223-1.215-1.108-1.97-2.309-1.97c-0.854,0-1.725,0.407-2.271,1.063c-0.515,0.618-0.715,1.411-0.564,2.234
		c0.098,0.533,0.192,1.068,0.284,1.604c-2.15-3.336-3.333-6.46-3.604-9.501C23.112,41.801,23.059,41.015,23.006,40.237z"/>
	<path d="M106.755,27.92c-3.041,3.794-6.848,7.225-10.53,10.543c-0.896,0.807-1.793,1.615-2.684,2.433
		c-3.833,3.516-6.583,8.086-7.529,12.438c-0.291-0.424-0.585-0.864-0.887-1.329c0.187-0.301,0.363-0.597,0.528-0.889
		c2.569-4.557,2.702-9.932,2.83-15.13c0.025-1.039,0.051-2.066,0.096-3.073c0.033-0.728-0.188-1.361-0.64-1.833
		c-0.469-0.49-1.169-0.772-1.92-0.772c-1.312,0-2.679,0.88-2.754,2.561c-0.038,0.844-0.05,1.772-0.062,2.749
		c-0.04,3.218-0.088,7.146-1.207,10.033c-0.044-0.089-0.094-0.181-0.154-0.272c-1.434-4.259-1.909-8.929-1.413-13.88
		c0.073-0.727-0.115-1.362-0.545-1.838c-0.447-0.494-1.138-0.778-1.894-0.778c-1.301,0-2.705,0.864-2.871,2.517
		c-0.247,2.458-0.24,4.927,0.018,7.358c-0.033-0.031-0.066-0.063-0.099-0.095c-2.943-2.814-3.717-6.676-4.307-10.717
		c-0.18-1.229-1.037-1.993-2.237-1.993c-0.841,0-1.712,0.403-2.273,1.053c-0.533,0.615-0.76,1.408-0.64,2.231
		c0.625,4.279,1.508,7.785,3.787,10.983c1.288,1.807,2.951,3.285,4.559,4.714c1.271,1.13,2.585,2.298,3.682,3.606
		c0.42,1.037,0.896,2.081,1.451,3.181c-0.326,0.49-0.657,0.978-0.987,1.462c-0.281,0.413-0.562,0.824-0.836,1.235
		c-1.368,2.04-2.993,5.038-3.548,8.371c-0.39-0.52-0.922-1.154-1.6-1.948c-0.662-0.774-1.346-1.575-1.54-1.945
		c-1.593-3.037-2.201-6.312-2.844-9.779c-0.548-2.954-1.114-6.008-2.35-8.87c-0.394-0.912-1.137-1.435-2.041-1.435
		c-0.901,0-1.833,0.531-2.375,1.355c-0.527,0.801-0.61,1.769-0.228,2.653c0.831,1.927,1.453,3.968,1.854,6.086
		c-0.859-0.866-1.78-1.807-2.683-2.761c-0.509-0.537-1.131-0.821-1.8-0.821c-1.032,0-2.061,0.714-2.501,1.737
		c-0.42,0.976-0.225,2.031,0.524,2.822c2.605,2.754,5.448,5.568,8.451,8.366c2.31,6.042,6.964,10.775,11.219,14.612l1.163,1.045
		c3.248,2.91,6.606,5.92,9.162,9.574c2.688,3.841,3.831,8.581,4.938,13.166l0.144,0.592v41.745
		c0.001,1.508,1.961,3.237,17.242,3.237c3.834,0,7.544-0.105,10.253-0.182c1.509-0.043,2.688-0.077,3.371-0.077l0.277,0.002
		c1.962,0,3-1.55,3.012-3.082c0.012-1.575-1.034-3.187-3.055-3.217l-25.785-0.392v-15.189c0.229-0.128,0.434-0.277,0.617-0.45
		c3.901-3.644,8.389-6.382,13.34-8.141c1.776-0.631,2.332-2.301,2.095-3.676c-0.327-1.899-2.046-3.014-3.838-2.375
		c-4.414,1.567-8.519,3.764-12.214,6.536V97.075c0.051-0.174,0.084-0.347,0.103-0.525c0.289-2.847,2.573-4.817,4.991-6.904
		c2.033-1.755,4.135-3.569,5.087-6.011c0.849-2.178,1.362-4.618,1.568-7.459c0.679-2.006,2.258-3.588,3.928-5.262
		c1.173-1.176,2.386-2.391,3.25-3.766c2.119-3.37,2.257-7.761,2.378-11.636l0.015-0.456c0.023-0.727-0.205-1.359-0.661-1.831
		c-0.475-0.489-1.177-0.771-1.927-0.771c-1.313,0-2.672,0.883-2.727,2.568c-0.152,4.716-0.582,8.922-4.313,12.632l-0.112-2.253
		c-0.078-1.68-1.446-2.56-2.757-2.56c-0.751,0-1.451,0.282-1.919,0.772c-0.451,0.473-0.671,1.106-0.637,1.834
		c0.036,0.789,0.087,1.603,0.138,2.431c0.142,2.297,0.288,4.671,0.184,6.999l-0.035,0.108c-0.035,0.109-0.071,0.219-0.099,0.334
		c-0.109,0.445-0.108,0.886,0.002,1.31c-0.365,3.316-1.371,5.884-3.073,7.849c-0.028,0.033-0.058,0.066-0.087,0.1
		c0.339-1.527,0.594-3.304,0.508-5.209c-0.139-3.13-1.142-6.428-3.066-10.079c-0.405-2.433,0.213-4.769,1.744-6.587
		c0.707-0.84,0.853-1.934,0.391-2.928c-0.464-0.997-1.432-1.667-2.409-1.667c-0.475,0-1.172,0.156-1.798,0.899
		c-0.351,0.416-0.678,0.851-0.979,1.299c0.455-5.177,9.108-8.441,15.577-10.883c2.191-0.826,4.084-1.54,5.355-2.217
		c1.726-0.919,3.139-2.225,4.505-3.487c0.771-0.713,1.568-1.45,2.404-2.098c1.861-1.444,3.575-1.909,5.559-2.448
		c0.881-0.24,1.792-0.487,2.774-0.838c0.821-0.293,1.228-0.957,1.086-1.778c-0.207-1.194-1.62-2.628-3.113-2.882
		c0.919-1.695,1.711-3.459,2.36-5.254c0.285-0.791,0.204-1.565-0.229-2.182c-0.479-0.685-1.355-1.109-2.286-1.109
		c-1.193,0-2.185,0.691-2.587,1.804c-1.716,4.753-4.484,8.813-8.463,12.412c-3.551,3.214-7.844,4.773-12.39,6.426
		c-1.311,0.476-2.665,0.969-3.983,1.499c-4.317,1.737-8.093,4.915-10.106,8.4c0.448-5.746,7.221-11.576,11.856-15.566
		c0.708-0.61,1.366-1.177,1.944-1.693c5.542-4.953,12.481-13.063,14.071-23.569c0.125-0.824-0.099-1.617-0.629-2.233
		c-0.56-0.65-1.43-1.055-2.272-1.055c-1.2,0-2.062,0.763-2.247,1.99c-0.297,1.956-0.795,3.833-1.515,5.699
		c-0.612-2.915-1.068-5.685-1.021-8.793c0.011-0.726-0.228-1.356-0.689-1.826c-0.481-0.488-1.187-0.769-1.936-0.769
		c-1.317,0-2.664,0.886-2.69,2.579c-0.035,2.349,0.008,5.144,0.598,8.074c0.146,0.729,0.325,1.435,0.501,2.129
		c0.596,2.354,1.158,4.579,0.208,7.039C106.8,27.752,106.779,27.822,106.755,27.92z M84.723,60.58l0.839,1.086
		c2.479,3.199,4.82,6.223,6.664,9.644l0.051,0.216c0.117,0.444,0.331,0.829,0.634,1.146c0.578,1.199,1.009,2.235,1.353,3.254
		c1.354,4.026,0.453,7.55-0.688,11.205c-2.114-5.216-4.938-9.463-8.812-13.276c-1.345-1.323-2.827-2.644-4.261-3.919l-0.033-0.03
		c-0.063-0.353-0.205-0.691-0.424-1.01c-2.759-4.005-0.671-8.188,1.927-12.161C82.812,58.008,83.734,59.298,84.723,60.58z"/>
</g>
</svg>
