<?xml version="1.0" encoding="iso-8859-1"?>
<!-- Generator: Adobe Illustrator 17.1.0, SVG Export Plug-In . SVG Version: 6.00 Build 0)  -->
<!DOCTYPE svg PUBLIC "-//W3C//DTD SVG 1.1//EN" "http://www.w3.org/Graphics/SVG/1.1/DTD/svg11.dtd">
<svg version="1.1" id="Capa_1" xmlns="http://www.w3.org/2000/svg" xmlns:xlink="http://www.w3.org/1999/xlink" x="0px" y="0px"
	 viewBox="0 0 150 150" style="enable-background:new 0 0 150 150;" xml:space="preserve">
<g>
	<path d="M99.099,88.397c1.74,3.535,6.095,5.921,9.894,5.174c5.201-1.022,8.16-6.275,7.168-11.29
		c-1.84-9.303-14.733-8.17-17.375,0.108c-5.948,0.282-11.528,2.639-15.751,6.571c-0.607-3.127-1.306-6.239-2.122-9.328
		c6.26-4.858,12.52-9.716,18.78-14.575c1.049-0.814,5.889-0.314,7.629-1.078c2.426-1.065,4.535-2.826,5.905-5.106
		c6.783-11.288-6.703-21.373-17.25-17.637c-7.104,2.516-10.677,9.522-7.849,15.892c0.945,2.129,2.641,3.925,4.155,6.103
		c-4.169,3.236-8.339,6.472-12.509,9.708c-1.37-5.229-3.088-10.337-5.133-15.299c-0.341-1.9-0.598-3.819-0.738-5.762
		c1.694-5.887,3.388-11.774,5.082-17.661c0.893,0.01,1.811-0.004,2.724-0.113c8.315-0.992,13.438-8.848,10.673-16.19
		c-2.033-5.399-8.134-8.894-14.513-8.315c-6.433,0.584-11.31,4.75-12.406,10.599c-0.871,4.647,1.302,9.36,6.091,12.095
		c0.631,0.36,1.071,0.728,1.382,1.12c-1.232,4.283-2.465,8.566-3.697,12.85c-4.219-7.799-9.288-15.133-15.152-21.857
		c4.393-4.143,5.608-8.772,3.533-13.592c-2.313-5.372-8.429-8.438-15.215-7.625c-6.049,0.724-10.665,4.922-11.628,10.573
		c-1.365,8.012,7.011,15.523,15.92,13.785c0.753-0.147,1.392-0.192,1.96-0.159c2.99,3.349,5.78,6.847,8.338,10.495
		c0.471,0.762,0.957,1.552,1.451,2.359c-2.568-1.431-5.325-2.542-8.242-3.3c-1.749-5.871-7.936-9.477-14.571-8.288
		c-6.675,1.196-10.67,6.099-9.977,12.247c0.493,4.376,3.732,7.863,8.604,9.259c5.171,1.483,10.947-0.236,14.026-4.21
		c0.594-0.766,1.096-1.619,1.837-2.748c5.166,1.644,9.754,4.552,13.356,8.663c2.249,6.722,4.432,13.466,6.669,20.192
		c0.292,0.879,0.668,1.718,1.023,2.515c-0.033,0.032-0.066,0.064-0.098,0.097c-4.477-4.146-9.507-7.643-15.056-10.432
		c0.633-4.477-1.804-8.146-6.159-9.925c-4.921-2.01-10.719-0.668-13.775,3.188c-2.629,3.317-2.692,7.078-0.332,10.796
		c0.431,0.851,0.997,1.631,1.721,2.282c2.634,2.37,5.979,3.182,9.237,2.361c2.126-0.346,4.309-1.367,6.907-3.17
		c7.046,3.639,13.256,8.489,18.38,14.504c0.53,3.036,0.926,6.081,1.213,9.129c-4.726-3.418-9.989-5.954-15.676-7.506
		c-0.11-2.338-1.023-4.678-2.622-6.561c-7.431-8.747-20.289,3.024-14.613,12.21c2.966,4.8,10.096,5.333,14.186,1.71
		c0.537-0.476,0.998-0.994,1.39-1.541c6.708,1.844,12.683,5.129,17.826,9.88c0.304,13.003-1.573,26.978-5.564,39.514
		c-0.761,2.391,1.376,3.888,3.312,3.676c0.34,0.136,0.726,0.217,1.166,0.217h8.045c1.908,0,2.874-1.451,2.911-2.929
		c0.077-0.198,0.141-0.412,0.181-0.653c2.379-14.531,2.567-30.216,0.581-44.637C87.61,91.804,92.902,88.62,99.099,88.397z"/>
</g>
</svg>
