<?xml version="1.0" encoding="iso-8859-1"?>
<!-- Generator: Adobe Illustrator 17.1.0, SVG Export Plug-In . SVG Version: 6.00 Build 0)  -->
<!DOCTYPE svg PUBLIC "-//W3C//DTD SVG 1.1//EN" "http://www.w3.org/Graphics/SVG/1.1/DTD/svg11.dtd">
<svg version="1.1" id="Capa_1" xmlns="http://www.w3.org/2000/svg" xmlns:xlink="http://www.w3.org/1999/xlink" x="0px" y="0px"
	 viewBox="0 0 200 200" style="enable-background:new 0 0 200 200;" xml:space="preserve">
<g>
	<polygon points="168,107.837 110.907,129.765 108.608,104.727 152,76.311 107.768,95.585 105.073,66.234 130.851,39.739 
		104.587,60.948 100,11 95.424,60.826 69.311,39.739 94.941,66.082 92.238,95.517 48.162,76.311 91.402,104.627 89.099,129.705 
		32.162,107.837 87.451,147.646 83.5,190.667 116.5,190.667 112.559,147.755 	"/>
	<path d="M42.212,148.12c0.75,0.008,1.51,0.003,2.252-0.113c0.074-0.063,0.086-0.46,0.103-0.55c0.295-1.58,0.589-3.159,0.884-4.738
		c-2.46,1.819-4.919,3.638-7.379,5.458C39.377,147.853,40.884,148.108,42.212,148.12z"/>
	<path d="M50.557,139.001c-0.737,0.54-1.474,1.08-2.21,1.619c-0.41,0.3-1.588,0.844-1.681,1.38
		c-0.343,1.972-0.685,3.945-1.028,5.918c0.508-0.007,3.488-0.102,3.578-0.675c0.138-0.871,0.277-1.741,0.415-2.612
		c0.199-1.248,0.399-2.495,0.603-3.743C50.274,140.641,50.709,139.2,50.557,139.001z"/>
	<path d="M54.456,141.748c0.35-2.092,0.696-4.184,1.041-6.277c-1.014,0.706-2.028,1.412-3.031,2.135
		c-0.739,0.532-0.621,1.01-0.756,1.921c-0.367,2.49-0.747,4.978-1.128,7.466c0.927-0.339,3.106-0.777,3.305-1.899
		C54.086,143.98,54.269,142.864,54.456,141.748z"/>
	<path d="M56.766,134.5c-0.317,0.229-0.347,2.066-0.406,2.435c-0.414,2.568-0.827,5.137-1.241,7.705
		c3.789-2.798,5.981-7.6,4.552-12.239C58.703,133.102,57.734,133.801,56.766,134.5z"/>
	<path d="M39.807,141.234c-0.091-0.007-0.477-0.1-0.558-0.045c-0.307,0.687-0.51,1.419-0.699,2.145
		c-0.335,1.285-0.485,2.806-1.138,3.981c2.4-1.898,4.799-3.795,7.199-5.693C43.01,141.493,41.409,141.363,39.807,141.234z"/>
	<path d="M49.538,137.668c-0.152-0.199-1.658-0.157-1.906-0.183c-1.257-0.13-2.514-0.264-3.771-0.399
		c-0.877-0.094-1.753-0.188-2.63-0.283c-0.576-0.062-1.448,2.788-1.588,3.277c1.993,0.186,3.987,0.372,5.98,0.557
		c0.542,0.051,1.375-0.944,1.772-1.261C48.11,138.808,48.824,138.238,49.538,137.668z"/>
	<path d="M41.831,135.551c2.501,0.284,5.002,0.569,7.501,0.866c0.914,0.109,1.346,0.347,2.053-0.226
		c0.96-0.778,1.906-1.573,2.854-2.367c-2.11-0.215-4.22-0.429-6.331-0.639c-1.126-0.112-2.252-0.227-3.378-0.327
		C43.394,132.757,42.401,134.745,41.831,135.551z"/>
	<path d="M45.288,131.788c2.587,0.273,5.174,0.547,7.761,0.82c0.372,0.039,2.152,0.492,2.457,0.246
		c0.929-0.752,1.857-1.503,2.786-2.254C54.189,128.006,48.982,128.865,45.288,131.788z"/>
	<path d="M12.067,120.429c1.293,0.366,2.476,1.334,3.623,2.003c0.647,0.378,1.309,0.751,2.012,1.018
		c0.096-0.018,0.302-0.357,0.362-0.427c1.039-1.226,2.078-2.451,3.117-3.676C18.143,119.708,15.106,120.069,12.067,120.429z"/>
	<path d="M26.243,120.128c0.157-0.194,1.249-1.23,1.216-1.479c-0.907,0.103-1.815,0.207-2.722,0.31
		c-0.505,0.057-1.798-0.054-2.144,0.365c-1.276,1.543-2.551,3.086-3.827,4.63c0.445,0.246,3.08,1.64,3.442,1.188
		c0.552-0.688,1.104-1.375,1.656-2.063C24.656,122.095,25.448,121.111,26.243,120.128z"/>
	<path d="M33.499,118.033c-1.231,0.111-2.462,0.22-3.69,0.351c-0.905,0.096-1.04,0.569-1.609,1.294
		c-1.553,1.981-3.117,3.953-4.681,5.925c0.973,0.166,3.083,0.865,3.812-0.01c0.724-0.869,1.437-1.748,2.153-2.624
		C30.824,121.325,32.162,119.679,33.499,118.033z"/>
	<path d="M35.082,117.819c-0.389,0.042-1.325,1.622-1.56,1.914c-1.633,2.025-3.265,4.051-4.897,6.076
		c4.677-0.552,8.962-3.635,10.021-8.372C37.458,117.565,36.27,117.692,35.082,117.819z"/>
	<path d="M17.016,115.26c-0.076-0.051-0.364-0.324-0.462-0.315c-0.607,0.444-1.146,0.98-1.67,1.516
		c-0.928,0.95-1.813,2.197-2.962,2.893c3.025-0.459,6.049-0.917,9.074-1.375C19.67,117.072,18.343,116.166,17.016,115.26z"/>
	<path d="M24.527,117.41c0.902-0.141,1.805-0.281,2.707-0.422c-0.033-0.249-1.362-0.958-1.564-1.104
		c-1.027-0.736-2.052-1.476-3.077-2.216c-0.715-0.516-1.43-1.033-2.144-1.55c-0.469-0.339-2.64,1.704-3.004,2.059
		c1.639,1.149,3.278,2.299,4.918,3.449C22.809,117.938,24.025,117.488,24.527,117.41z"/>
	<path d="M29.57,116.62c1.219-0.2,2.435-0.42,3.651-0.641c-1.726-1.233-3.452-2.465-5.181-3.694
		c-0.922-0.655-1.843-1.313-2.772-1.959c-0.935-0.65-2.783,0.584-3.678,1.001c2.031,1.487,4.062,2.973,6.084,4.471
		C28.416,116.346,28.672,116.767,29.57,116.62z"/>
	<path d="M38.342,115.189c-2.278-4.287-7.226-6.122-11.883-5.415c2.111,1.52,4.222,3.04,6.334,4.56
		c0.304,0.219,1.625,1.494,2.012,1.431C35.984,115.573,37.163,115.381,38.342,115.189z"/>
	<path d="M42.807,94.686c0.02-0.062,0.148-0.313,0.123-0.377c-0.423-0.325-0.895-0.586-1.365-0.837
		c-0.831-0.444-1.857-0.798-2.559-1.443c0.913,1.97,1.826,3.94,2.74,5.91C42.099,96.854,42.453,95.77,42.807,94.686z"/>
	<path d="M43.661,101.991c0.162-0.072,0.382-1.118,0.441-1.285c0.298-0.846,0.597-1.692,0.898-2.537
		c0.21-0.59,0.42-1.179,0.63-1.768c0.138-0.387-1.685-1.46-1.999-1.637c-0.457,1.345-0.915,2.691-1.373,4.036
		c-0.125,0.366,0.424,1.105,0.578,1.432C43.11,100.818,43.386,101.404,43.661,101.991z"/>
	<path d="M47.808,99.328c0.257-0.766-0.95-1.78-1.413-2.307c-0.609,1.679-1.219,3.358-1.837,5.034
		c-0.226,0.613-0.462,0.871-0.183,1.454c0.379,0.791,0.77,1.576,1.162,2.361c0.497-1.421,0.993-2.842,1.487-4.264
		C47.288,100.848,47.553,100.09,47.808,99.328z"/>
	<path d="M47.094,109.202c2.468-2.404,2.736-6.14,1.328-9.172c-0.616,1.74-1.232,3.481-1.848,5.221
		c-0.089,0.25-0.695,1.404-0.576,1.655C46.363,107.671,46.729,108.436,47.094,109.202z"/>
	<path d="M37.657,95.208c-0.129,0.516-0.252,1.042-0.294,1.574c0.031,0.062,0.303,0.135,0.363,0.162
		c1.042,0.464,2.083,0.929,3.125,1.393c-0.849-1.998-1.698-3.997-2.547-5.995C38.309,93.295,37.885,94.294,37.657,95.208z"/>
	<path d="M38.839,100.906c0.828,0.344,1.657,0.688,2.484,1.034c0.164,0.068,1.087,0.607,1.25,0.534
		c-0.251-0.598-0.502-1.195-0.753-1.793c-0.14-0.333-0.32-1.235-0.675-1.388c-1.305-0.562-2.61-1.125-3.915-1.687
		c-0.079,0.352-0.505,2.424-0.125,2.581C37.683,100.427,38.261,100.666,38.839,100.906z"/>
	<path d="M37.817,103.767c0.736,0.321,1.476,0.632,2.216,0.945c1.386,0.587,2.773,1.172,4.161,1.755
		c-0.32-0.817-0.639-1.633-0.972-2.445c-0.246-0.597-0.595-0.596-1.202-0.839c-1.658-0.665-3.312-1.338-4.967-2.012
		C37.133,101.868,37.075,103.444,37.817,103.767z"/>
	<path d="M45.622,109.855c-0.323-0.784-0.646-1.568-0.969-2.352c-0.106-0.257-1.369-0.58-1.614-0.683
		c-1.705-0.71-3.409-1.419-5.113-2.129C39.233,107.769,42.184,110.075,45.622,109.855z"/>
	<path d="M26.929,90.592c0.02-0.062,0.148-0.313,0.123-0.377c-0.423-0.325-0.895-0.586-1.365-0.837
		c-0.831-0.444-1.857-0.798-2.559-1.443c0.913,1.97,1.826,3.94,2.74,5.91C26.222,92.76,26.576,91.677,26.929,90.592z"/>
	<path d="M26.958,96.137c0.275,0.587,0.551,1.174,0.826,1.76c0.162-0.072,0.382-1.118,0.441-1.285
		c0.298-0.846,0.597-1.692,0.898-2.537c0.21-0.59,0.42-1.179,0.63-1.768c0.138-0.387-1.685-1.46-1.999-1.637
		c-0.457,1.345-0.915,2.691-1.373,4.036C26.256,95.071,26.805,95.811,26.958,96.137z"/>
	<path d="M28.498,99.416c0.379,0.791,0.77,1.576,1.162,2.361c0.497-1.421,0.993-2.842,1.487-4.264
		c0.263-0.759,0.529-1.517,0.784-2.278c0.257-0.766-0.95-1.78-1.413-2.307c-0.609,1.679-1.219,3.358-1.837,5.034
		C28.455,98.575,28.219,98.833,28.498,99.416z"/>
	<path d="M32.544,95.936c-0.616,1.74-1.232,3.481-1.848,5.221c-0.089,0.25-0.695,1.404-0.576,1.655
		c0.365,0.765,0.731,1.53,1.096,2.295C33.685,102.704,33.953,98.968,32.544,95.936z"/>
	<path d="M24.973,94.243c-0.849-1.998-1.698-3.997-2.548-5.995c0.007,0.954-0.417,1.952-0.645,2.867
		c-0.129,0.516-0.252,1.042-0.294,1.574c0.031,0.062,0.303,0.135,0.363,0.162C22.89,93.314,23.931,93.778,24.973,94.243z"/>
	<path d="M22.962,96.812c0.828,0.344,1.657,0.688,2.484,1.034c0.164,0.068,1.087,0.607,1.25,0.534
		c-0.251-0.598-0.502-1.195-0.753-1.793c-0.14-0.333-0.321-1.235-0.675-1.388c-1.305-0.562-2.61-1.125-3.915-1.687
		c-0.079,0.352-0.505,2.424-0.125,2.581C21.806,96.333,22.384,96.572,22.962,96.812z"/>
	<path d="M26.142,99.09c-1.658-0.665-3.312-1.338-4.967-2.012c0.081,0.696,0.023,2.272,0.764,2.595
		c0.736,0.321,1.476,0.632,2.216,0.945c1.386,0.587,2.773,1.172,4.161,1.755c-0.32-0.817-0.639-1.633-0.972-2.445
		C27.098,99.331,26.748,99.333,26.142,99.09z"/>
	<path d="M29.745,105.762c-0.323-0.784-0.646-1.568-0.969-2.352c-0.106-0.257-1.369-0.58-1.614-0.683
		c-1.705-0.71-3.409-1.419-5.113-2.129C23.355,103.675,26.307,105.981,29.745,105.762z"/>
	<path d="M84.409,74.004c0.02-0.062,0.148-0.313,0.123-0.377c-0.423-0.325-0.895-0.586-1.365-0.837
		c-0.831-0.444-1.857-0.798-2.559-1.443c0.913,1.97,1.827,3.94,2.74,5.91C83.702,76.172,84.056,75.088,84.409,74.004z"/>
	<path d="M85.233,74.082c-0.458,1.345-0.915,2.691-1.373,4.036c-0.125,0.366,0.424,1.105,0.577,1.432
		c0.275,0.587,0.551,1.174,0.826,1.76c0.162-0.072,0.382-1.118,0.441-1.285c0.298-0.846,0.597-1.692,0.898-2.537
		c0.21-0.59,0.42-1.179,0.63-1.768C87.371,75.332,85.547,74.259,85.233,74.082z"/>
	<path d="M86.161,81.374c-0.226,0.613-0.462,0.871-0.183,1.454c0.379,0.791,0.771,1.576,1.162,2.361
		c0.497-1.421,0.993-2.842,1.487-4.264c0.263-0.759,0.529-1.517,0.784-2.278c0.257-0.766-0.95-1.78-1.413-2.307
		C87.389,78.019,86.78,79.698,86.161,81.374z"/>
	<path d="M87.601,86.224c0.365,0.765,0.731,1.53,1.096,2.295c2.468-2.403,2.736-6.14,1.328-9.172
		c-0.616,1.74-1.232,3.481-1.848,5.221C88.087,84.82,87.481,85.974,87.601,86.224z"/>
	<path d="M79.26,74.526c-0.129,0.516-0.252,1.042-0.294,1.574c0.031,0.062,0.303,0.135,0.363,0.162
		c1.042,0.464,2.083,0.929,3.125,1.393c-0.849-1.998-1.698-3.997-2.547-5.995C79.912,72.613,79.488,73.612,79.26,74.526z"/>
	<path d="M80.442,80.224c0.828,0.344,1.657,0.688,2.484,1.034c0.164,0.068,1.087,0.607,1.25,0.534
		c-0.251-0.598-0.502-1.195-0.753-1.793c-0.14-0.333-0.32-1.235-0.675-1.388c-1.305-0.562-2.61-1.125-3.915-1.687
		c-0.079,0.352-0.505,2.424-0.126,2.581C79.286,79.745,79.864,79.984,80.442,80.224z"/>
	<path d="M79.419,83.085c0.736,0.321,1.476,0.632,2.216,0.945c1.386,0.587,2.773,1.172,4.161,1.755
		c-0.32-0.817-0.639-1.633-0.972-2.445c-0.246-0.597-0.595-0.596-1.202-0.839c-1.658-0.665-3.312-1.338-4.967-2.012
		C78.736,81.186,78.678,82.762,79.419,83.085z"/>
	<path d="M87.225,89.174c-0.323-0.784-0.646-1.568-0.969-2.352c-0.106-0.257-1.369-0.58-1.614-0.683
		c-1.705-0.71-3.409-1.419-5.114-2.129C80.835,87.087,83.786,89.393,87.225,89.174z"/>
	<path d="M67.801,67.818c0.02-0.062,0.148-0.313,0.123-0.377c-0.423-0.325-0.895-0.586-1.365-0.837
		c-0.831-0.444-1.857-0.798-2.559-1.443c0.913,1.97,1.827,3.94,2.74,5.91C67.093,69.986,67.447,68.903,67.801,67.818z"/>
	<path d="M68.655,75.124c0.163-0.072,0.382-1.118,0.441-1.285c0.298-0.846,0.597-1.692,0.898-2.537c0.21-0.59,0.42-1.179,0.63-1.768
		c0.138-0.387-1.685-1.46-1.999-1.637c-0.458,1.345-0.915,2.691-1.373,4.036c-0.125,0.366,0.424,1.105,0.577,1.432
		C68.104,73.95,68.38,74.537,68.655,75.124z"/>
	<path d="M72.802,72.461c0.257-0.766-0.95-1.78-1.413-2.307c-0.609,1.679-1.219,3.358-1.837,5.034
		c-0.226,0.613-0.462,0.871-0.183,1.454c0.379,0.791,0.771,1.576,1.162,2.361c0.497-1.421,0.993-2.842,1.487-4.264
		C72.282,73.98,72.547,73.222,72.802,72.461z"/>
	<path d="M72.088,82.334c2.468-2.403,2.736-6.14,1.328-9.172c-0.616,1.74-1.232,3.481-1.848,5.221
		c-0.089,0.25-0.695,1.404-0.576,1.655C71.357,80.804,71.723,81.569,72.088,82.334z"/>
	<path d="M62.651,68.34c-0.129,0.516-0.252,1.042-0.294,1.574c0.031,0.062,0.303,0.135,0.363,0.162
		c1.042,0.464,2.083,0.929,3.125,1.393c-0.849-1.998-1.698-3.997-2.547-5.995C63.303,66.427,62.879,67.426,62.651,68.34z"/>
	<path d="M63.833,74.038c0.828,0.344,1.657,0.688,2.484,1.034c0.164,0.068,1.087,0.607,1.25,0.534
		c-0.251-0.598-0.502-1.195-0.753-1.793c-0.14-0.333-0.32-1.235-0.675-1.388c-1.305-0.562-2.61-1.125-3.915-1.687
		c-0.079,0.352-0.505,2.424-0.126,2.581C62.677,73.559,63.255,73.798,63.833,74.038z"/>
	<path d="M62.811,76.899c0.736,0.321,1.476,0.632,2.216,0.945c1.386,0.587,2.773,1.172,4.161,1.755
		c-0.32-0.817-0.639-1.633-0.972-2.445c-0.245-0.597-0.595-0.596-1.202-0.839c-1.658-0.665-3.312-1.338-4.967-2.012
		C62.127,75,62.07,76.576,62.811,76.899z"/>
	<path d="M70.616,82.988c-0.323-0.784-0.646-1.568-0.969-2.352c-0.106-0.257-1.369-0.58-1.614-0.683
		c-1.705-0.71-3.409-1.419-5.113-2.129C64.227,80.901,67.178,83.207,70.616,82.988z"/>
	<path d="M62.486,98.418c-0.821-0.707-1.883-1.364-2.509-2.264c0.529,2.441,1.057,4.881,1.586,7.322
		c0.67-1.128,1.34-2.255,2.01-3.382c0.038-0.064,0.245-0.313,0.233-0.392C63.414,99.229,62.95,98.817,62.486,98.418z"/>
	<path d="M64.478,100.388c-0.852,1.394-1.705,2.789-2.557,4.183c-0.232,0.379,0.198,1.347,0.287,1.752
		c0.161,0.728,0.322,1.456,0.483,2.183c0.2-0.04,0.71-1.158,0.818-1.331c0.547-0.875,1.096-1.748,1.646-2.62
		c0.384-0.609,0.768-1.218,1.152-1.826C66.561,102.329,64.786,100.666,64.478,100.388z"/>
	<path d="M63.682,108.805c-0.409,0.631-0.738,0.861-0.571,1.585c0.225,0.983,0.468,1.962,0.709,2.942
		c0.916-1.469,1.831-2.939,2.743-4.41c0.487-0.785,0.975-1.569,1.454-2.358c0.482-0.795-0.618-2.237-1.004-2.945
		C65.905,105.349,64.798,107.08,63.682,108.805z"/>
	<path d="M64.075,114.61c0.217,0.951,0.435,1.901,0.652,2.852c3.375-2.075,4.617-6.201,3.801-9.958
		c-1.13,1.798-2.26,3.596-3.389,5.394C64.975,113.156,64.004,114.299,64.075,114.61z"/>
	<path d="M57.663,99.382c-0.275,0.547-0.545,1.105-0.727,1.692c0.02,0.077,0.306,0.228,0.366,0.273
		c1.052,0.784,2.104,1.567,3.155,2.35c-0.449-2.457-0.899-4.913-1.348-7.369C58.877,97.399,58.149,98.413,57.663,99.382z"/>
	<path d="M55.789,104.83c0.589,0.414,1.177,0.828,1.765,1.243c0.843,0.594,1.686,1.189,2.527,1.786
		c0.166,0.118,1.067,0.955,1.268,0.914c-0.131-0.734-0.262-1.468-0.393-2.201c-0.073-0.409-0.048-1.467-0.408-1.728
		c-1.323-0.96-2.645-1.92-3.968-2.88C56.403,102.34,55.402,104.558,55.789,104.83z"/>
	<path d="M55.686,109.026c0.745,0.545,1.498,1.081,2.248,1.619c1.408,1.008,2.817,2.013,4.227,3.018
		c-0.153-0.997-0.306-1.994-0.475-2.988c-0.125-0.732-0.518-0.818-1.137-1.244c-1.693-1.163-3.38-2.336-5.067-3.509
		C55.397,106.723,54.935,108.477,55.686,109.026z"/>
	<path d="M60.777,113.769c-1.734-1.226-3.468-2.452-5.202-3.677c0.691,3.782,3.422,7.114,7.335,7.733
		c-0.165-0.961-0.33-1.922-0.495-2.883C62.362,114.627,61.026,113.946,60.777,113.769z"/>
	<path d="M79.562,102.451c-0.919-0.792-2.108-1.527-2.808-2.535c0.592,2.733,1.183,5.465,1.775,8.197
		c0.75-1.262,1.5-2.524,2.25-3.787c0.043-0.072,0.274-0.351,0.261-0.439C80.601,103.359,80.082,102.898,79.562,102.451z"/>
	<path d="M81.792,104.656c-0.954,1.561-1.909,3.122-2.863,4.683c-0.26,0.424,0.221,1.508,0.322,1.961
		c0.18,0.815,0.361,1.63,0.541,2.445c0.224-0.045,0.795-1.297,0.916-1.49c0.613-0.979,1.228-1.957,1.843-2.934
		c0.43-0.682,0.86-1.363,1.29-2.044C84.125,106.83,82.137,104.968,81.792,104.656z"/>
	<path d="M80.901,114.08c-0.457,0.707-0.826,0.964-0.64,1.775c0.252,1.101,0.524,2.197,0.794,3.294
		c1.025-1.645,2.05-3.291,3.071-4.938c0.545-0.879,1.092-1.756,1.628-2.641c0.539-0.89-0.692-2.505-1.124-3.297
		C83.391,110.211,82.151,112.149,80.901,114.08z"/>
	<path d="M81.342,120.58c0.243,1.064,0.486,2.129,0.73,3.193c3.779-2.323,5.169-6.943,4.255-11.149
		c-1.265,2.013-2.53,4.026-3.795,6.039C82.35,118.952,81.262,120.231,81.342,120.58z"/>
	<path d="M74.162,103.53c-0.308,0.612-0.61,1.238-0.814,1.894c0.022,0.087,0.343,0.255,0.41,0.305
		c1.177,0.877,2.355,1.754,3.533,2.632c-0.503-2.75-1.006-5.5-1.51-8.251C75.521,101.31,74.707,102.446,74.162,103.53z"/>
	<path d="M72.064,109.63c0.659,0.464,1.318,0.927,1.977,1.392c0.944,0.665,1.888,1.331,2.829,2c0.186,0.132,1.194,1.069,1.419,1.024
		c-0.146-0.821-0.293-1.643-0.44-2.465c-0.082-0.457-0.054-1.643-0.457-1.935c-1.481-1.075-2.962-2.149-4.442-3.224
		C72.752,106.843,71.631,109.326,72.064,109.63z"/>
	<path d="M71.949,114.328c0.834,0.611,1.677,1.211,2.517,1.813c1.576,1.128,3.154,2.254,4.733,3.379
		c-0.171-1.116-0.342-2.233-0.532-3.346c-0.14-0.82-0.58-0.916-1.273-1.393c-1.896-1.303-3.784-2.615-5.673-3.929
		C71.626,111.75,71.109,113.714,71.949,114.328z"/>
	<path d="M77.649,119.638c-1.941-1.373-3.883-2.745-5.824-4.117c0.774,4.234,3.831,7.964,8.213,8.658
		c-0.185-1.076-0.37-2.152-0.554-3.228C79.423,120.599,77.928,119.836,77.649,119.638z"/>
	<path d="M88.984,41.381c0.016-0.05,0.12-0.253,0.1-0.305c-0.342-0.263-0.723-0.474-1.103-0.676c-0.672-0.359-1.5-0.645-2.068-1.166
		c0.738,1.592,1.476,3.183,2.214,4.775C88.413,43.133,88.698,42.258,88.984,41.381z"/>
	<path d="M89.675,47.284c0.131-0.058,0.309-0.904,0.356-1.039c0.241-0.684,0.483-1.367,0.726-2.05
		c0.169-0.477,0.339-0.953,0.509-1.429c0.112-0.313-1.361-1.18-1.615-1.323c-0.37,1.087-0.739,2.174-1.109,3.261
		c-0.101,0.295,0.343,0.893,0.467,1.157C89.23,46.336,89.452,46.81,89.675,47.284z"/>
	<path d="M93.026,45.133c0.208-0.619-0.768-1.439-1.142-1.864c-0.492,1.357-0.985,2.714-1.485,4.068
		c-0.183,0.496-0.373,0.704-0.148,1.175c0.306,0.639,0.623,1.273,0.939,1.907c0.402-1.148,0.803-2.297,1.202-3.445
		C92.605,46.36,92.82,45.748,93.026,45.133z"/>
	<path d="M92.448,53.111c1.994-1.942,2.211-4.962,1.073-7.411c-0.498,1.406-0.996,2.813-1.493,4.219
		c-0.072,0.202-0.562,1.135-0.465,1.337C91.858,51.874,92.153,52.492,92.448,53.111z"/>
	<path d="M84.823,41.803c-0.104,0.417-0.204,0.842-0.238,1.272c0.025,0.05,0.245,0.109,0.293,0.131
		c0.842,0.375,1.683,0.75,2.525,1.126c-0.686-1.615-1.372-3.229-2.058-4.844C85.35,40.257,85.008,41.064,84.823,41.803z"/>
	<path d="M85.779,46.407c0.669,0.278,1.339,0.556,2.007,0.836c0.132,0.055,0.878,0.49,1.01,0.432
		c-0.203-0.483-0.406-0.966-0.608-1.449c-0.113-0.269-0.259-0.998-0.546-1.122c-1.054-0.454-2.109-0.909-3.163-1.363
		c-0.064,0.284-0.408,1.959-0.101,2.086C84.844,46.02,85.311,46.214,85.779,46.407z"/>
	<path d="M84.952,48.719c0.595,0.259,1.193,0.511,1.79,0.764c1.12,0.474,2.241,0.947,3.362,1.418
		c-0.258-0.66-0.516-1.32-0.786-1.975c-0.198-0.483-0.481-0.481-0.971-0.678c-1.34-0.537-2.677-1.081-4.013-1.626
		C84.4,47.185,84.353,48.458,84.952,48.719z"/>
	<path d="M91.259,53.639c-0.261-0.633-0.522-1.267-0.783-1.9c-0.085-0.208-1.106-0.469-1.304-0.552
		c-1.377-0.574-2.755-1.147-4.132-1.72C86.096,51.953,88.481,53.816,91.259,53.639z"/>
	<path d="M92.311,3.881c0.443,0.955,0.885,1.91,1.328,2.864c0.171-0.526,0.343-1.051,0.514-1.576c0.01-0.03,0.072-0.152,0.06-0.183
		c-0.205-0.158-0.434-0.284-0.661-0.406C93.149,4.366,92.652,4.194,92.311,3.881z"/>
	<path d="M94.553,5.207c-0.222,0.652-0.444,1.304-0.665,1.956c-0.06,0.177,0.206,0.536,0.28,0.694
		c0.133,0.284,0.267,0.569,0.4,0.853c0.079-0.035,0.185-0.542,0.214-0.623c0.144-0.41,0.29-0.82,0.435-1.229
		C95.318,6.572,95.42,6.286,95.522,6C95.589,5.813,94.705,5.292,94.553,5.207z"/>
	<path d="M96.578,7.419c0.125-0.371-0.461-0.863-0.685-1.118c-0.295,0.814-0.591,1.628-0.891,2.44
		c-0.11,0.297-0.224,0.422-0.089,0.705c0.183,0.383,0.373,0.764,0.563,1.144c0.241-0.689,0.481-1.378,0.721-2.067
		C96.325,8.156,96.454,7.788,96.578,7.419z"/>
	<path d="M96.875,7.759c-0.299,0.844-0.597,1.687-0.896,2.531c-0.043,0.121-0.337,0.681-0.279,0.802
		c0.177,0.371,0.354,0.742,0.531,1.113C97.428,11.04,97.557,9.229,96.875,7.759z"/>
	<path d="M91.657,5.422c-0.062,0.25-0.122,0.505-0.143,0.763c0.015,0.03,0.147,0.065,0.176,0.078c0.505,0.225,1.01,0.45,1.515,0.675
		c-0.412-0.969-0.823-1.937-1.235-2.906C91.973,4.495,91.768,4.979,91.657,5.422z"/>
	<path d="M91.39,7.836c0.28,0.116,0.56,0.232,0.841,0.348c0.401,0.167,0.803,0.333,1.204,0.501c0.079,0.033,0.527,0.294,0.606,0.259
		c-0.122-0.29-0.243-0.579-0.365-0.869c-0.068-0.161-0.155-0.599-0.327-0.673c-0.632-0.273-1.265-0.545-1.897-0.818
		C91.412,6.755,91.206,7.76,91.39,7.836z"/>
	<path d="M94.354,9.695c-0.119-0.29-0.289-0.289-0.583-0.407c-0.804-0.322-1.606-0.648-2.407-0.975
		c0.039,0.337,0.011,1.101,0.37,1.258c0.357,0.155,0.716,0.306,1.074,0.458c0.672,0.284,1.344,0.568,2.017,0.851
		C94.67,10.484,94.516,10.088,94.354,9.695z"/>
	<path d="M94.266,11.051c-0.826-0.344-1.652-0.688-2.479-1.032c0.633,1.491,2.064,2.609,3.73,2.503
		c-0.157-0.38-0.313-0.76-0.47-1.14C94.997,11.257,94.385,11.101,94.266,11.051z"/>
	<path d="M82.473,16.056c-0.248-0.072-0.507-0.107-0.764-0.137c-0.454-0.054-0.979-0.033-1.41-0.2
		c0.76,0.728,1.519,1.457,2.279,2.185c-0.031-0.552-0.063-1.104-0.094-1.655C82.482,16.217,82.495,16.081,82.473,16.056z"/>
	<path d="M84.088,17.434c-0.009-0.303-0.019-0.606-0.028-0.909c-0.006-0.199-1.018-0.362-1.191-0.387
		c0.031,0.688,0.061,1.376,0.092,2.064c0.008,0.187,0.386,0.424,0.513,0.545c0.228,0.216,0.456,0.433,0.683,0.649
		c0.061-0.061-0.025-0.572-0.028-0.658C84.115,18.303,84.101,17.869,84.088,17.434z"/>
	<path d="M84.748,19.956c0.31,0.29,0.626,0.576,0.941,0.861c-0.026-0.729-0.052-1.458-0.08-2.187
		c-0.015-0.389-0.029-0.778-0.048-1.167c-0.019-0.391-0.743-0.636-1.045-0.792c0.021,0.866,0.042,1.731,0.058,2.597
		C84.58,19.584,84.519,19.742,84.748,19.956z"/>
	<path d="M86.047,20.354c0.004,0.129-0.066,0.757,0.032,0.849c0.3,0.281,0.6,0.562,0.9,0.843c0.69-1.52,0.153-3.255-1.018-4.375
		C85.99,18.565,86.018,19.46,86.047,20.354z"/>
	<path d="M80.25,17.392c0.033,0.256,0.07,0.515,0.144,0.762c0.025,0.022,0.161,0.008,0.192,0.009
		c0.552,0.026,1.104,0.052,1.656,0.078c-0.736-0.753-1.472-1.505-2.207-2.258C80.208,16.413,80.192,16.939,80.25,17.392z"/>
	<path d="M82.546,18.621c-0.688-0.024-1.377-0.048-2.065-0.072c0.026,0.173,0.199,1.184,0.398,1.188
		c0.303,0.006,0.606,0.012,0.91,0.018c0.435,0.009,0.869,0.018,1.304,0.029c0.086,0.002,0.598,0.082,0.658,0.021
		c-0.219-0.226-0.437-0.451-0.656-0.677C82.974,19.004,82.733,18.628,82.546,18.621z"/>
	<path d="M83.626,20.224c-0.866-0.008-1.732-0.02-2.597-0.033c0.159,0.3,0.411,1.022,0.803,1.037
		c0.389,0.015,0.778,0.025,1.167,0.036c0.729,0.021,1.459,0.04,2.188,0.059c-0.288-0.312-0.577-0.625-0.87-0.932
		C84.1,20.164,83.943,20.227,83.626,20.224z"/>
	<path d="M86.429,22.601c-0.284-0.297-0.568-0.594-0.852-0.891c-0.093-0.097-0.72-0.021-0.849-0.024
		c-0.895-0.02-1.789-0.04-2.684-0.06C83.177,22.785,84.916,23.306,86.429,22.601z"/>
	<path d="M77.365,22.119c-0.248-0.072-0.507-0.107-0.764-0.137c-0.454-0.054-0.979-0.033-1.41-0.2
		c0.76,0.728,1.519,1.457,2.279,2.185c-0.031-0.552-0.063-1.104-0.094-1.655C77.374,22.28,77.387,22.144,77.365,22.119z"/>
	<path d="M78.98,23.497c-0.009-0.303-0.018-0.606-0.027-0.909c-0.006-0.199-1.018-0.362-1.191-0.387
		c0.031,0.688,0.061,1.376,0.092,2.064c0.008,0.187,0.386,0.424,0.513,0.545c0.228,0.216,0.456,0.433,0.683,0.649
		c0.061-0.061-0.025-0.572-0.028-0.658C79.007,24.366,78.993,23.932,78.98,23.497z"/>
	<path d="M79.466,25.33c0.006,0.317-0.055,0.475,0.174,0.689c0.31,0.29,0.626,0.576,0.941,0.861
		c-0.026-0.729-0.053-1.458-0.08-2.187c-0.015-0.389-0.029-0.778-0.047-1.167c-0.019-0.391-0.743-0.636-1.045-0.792
		C79.429,23.599,79.45,24.464,79.466,25.33z"/>
	<path d="M80.853,23.734c0.029,0.894,0.057,1.789,0.086,2.683c0.004,0.129-0.066,0.757,0.032,0.849c0.3,0.281,0.6,0.562,0.9,0.843
		C82.561,26.589,82.023,24.854,80.853,23.734z"/>
	<path d="M75.143,23.455c0.033,0.256,0.07,0.515,0.145,0.762c0.025,0.022,0.161,0.008,0.192,0.009
		c0.552,0.026,1.104,0.052,1.656,0.078c-0.736-0.753-1.472-1.505-2.207-2.258C75.1,22.476,75.084,23.002,75.143,23.455z"/>
	<path d="M77.438,24.684c-0.688-0.024-1.377-0.048-2.065-0.072c0.026,0.173,0.199,1.184,0.398,1.188
		c0.303,0.006,0.607,0.012,0.91,0.018c0.435,0.009,0.869,0.018,1.304,0.029c0.086,0.002,0.598,0.082,0.658,0.021
		c-0.219-0.226-0.438-0.451-0.656-0.677C77.866,25.067,77.625,24.691,77.438,24.684z"/>
	<path d="M78.518,26.287c-0.866-0.008-1.731-0.02-2.597-0.033c0.159,0.3,0.411,1.022,0.803,1.037
		c0.389,0.015,0.778,0.025,1.167,0.036c0.729,0.021,1.459,0.04,2.188,0.059c-0.288-0.312-0.577-0.625-0.87-0.932
		C78.993,26.227,78.835,26.29,78.518,26.287z"/>
	<path d="M79.62,27.749c-0.895-0.02-1.789-0.04-2.684-0.06c1.133,1.159,2.872,1.68,4.385,0.974
		c-0.284-0.297-0.568-0.594-0.852-0.891C80.376,27.675,79.749,27.752,79.62,27.749z"/>
	<path d="M92.213,17.198c0.214-0.632,0.428-1.265,0.642-1.897c0.012-0.036,0.089-0.182,0.075-0.22
		c-0.245-0.193-0.52-0.349-0.793-0.499c-0.484-0.265-1.082-0.479-1.489-0.861C91.169,14.879,91.691,16.038,92.213,17.198z"/>
	<path d="M93.575,18.833c0.18-0.494,0.361-0.987,0.542-1.479c0.127-0.344,0.253-0.688,0.38-1.031
		c0.083-0.226-0.977-0.866-1.16-0.972c-0.276,0.785-0.553,1.569-0.83,2.354c-0.075,0.213,0.241,0.65,0.329,0.842
		c0.157,0.345,0.315,0.691,0.472,1.036C93.404,19.541,93.539,18.931,93.575,18.833z"/>
	<path d="M95.754,18.05c0.156-0.447-0.545-1.048-0.812-1.36c-0.367,0.979-0.735,1.958-1.108,2.935
		c-0.136,0.358-0.276,0.507-0.116,0.85c0.217,0.466,0.441,0.927,0.665,1.39c0.3-0.829,0.6-1.657,0.898-2.487
		C95.439,18.937,95.599,18.495,95.754,18.05z"/>
	<path d="M96.108,18.465c-0.372,1.015-0.744,2.03-1.116,3.045c-0.054,0.146-0.416,0.818-0.348,0.965
		c0.209,0.45,0.418,0.901,0.627,1.351C96.732,22.435,96.913,20.249,96.108,18.465z"/>
	<path d="M89.837,15.573c-0.079,0.301-0.154,0.608-0.182,0.919c0.018,0.036,0.177,0.081,0.211,0.097
		c0.607,0.279,1.214,0.557,1.82,0.836c-0.484-1.175-0.969-2.351-1.453-3.526C90.231,14.457,89.977,15.039,89.837,15.573z"/>
	<path d="M89.482,18.484c0.337,0.144,0.674,0.288,1.011,0.432c0.483,0.206,0.966,0.413,1.448,0.622
		c0.095,0.041,0.632,0.362,0.728,0.321c-0.143-0.351-0.286-0.703-0.429-1.054c-0.08-0.196-0.18-0.725-0.386-0.817
		c-0.76-0.338-1.521-0.675-2.281-1.013C89.523,17.179,89.26,18.39,89.482,18.484z"/>
	<path d="M89.444,19.06c0.043,0.408-0.001,1.33,0.431,1.524c0.429,0.193,0.86,0.38,1.291,0.568c0.808,0.353,1.616,0.704,2.425,1.055
		c-0.182-0.48-0.364-0.96-0.554-1.438c-0.14-0.351-0.345-0.353-0.698-0.499C91.373,19.87,90.409,19.466,89.444,19.06z"/>
	<path d="M92.913,22.406c-0.993-0.427-1.987-0.853-2.98-1.28c0.745,1.81,2.458,3.179,4.473,3.073
		c-0.184-0.461-0.368-0.922-0.552-1.383C93.793,22.665,93.056,22.468,92.913,22.406z"/>
	<path d="M80.936,34.228c-0.08-0.302-0.206-0.592-0.334-0.875c-0.227-0.503-0.577-1.033-0.672-1.584
		c-0.28,1.24-0.559,2.48-0.839,3.72c0.551-0.377,1.102-0.753,1.654-1.13C80.776,34.337,80.925,34.267,80.936,34.228z"/>
	<path d="M80.518,36.758c0.308-0.199,0.616-0.397,0.924-0.596c0.203-0.13-0.26-1.279-0.343-1.474
		c-0.693,0.461-1.385,0.922-2.078,1.383c-0.188,0.125-0.198,0.664-0.243,0.87c-0.082,0.371-0.164,0.741-0.245,1.112
		c0.101,0.025,0.577-0.382,0.664-0.439C79.636,37.328,80.077,37.043,80.518,36.758z"/>
	<path d="M81.576,36.724c-0.882,0.562-1.765,1.123-2.65,1.68c-0.324,0.204-0.525,0.239-0.604,0.609
		c-0.107,0.502-0.205,1.006-0.304,1.51c0.738-0.482,1.476-0.964,2.213-1.448c0.393-0.258,0.787-0.515,1.177-0.777
		C81.801,38.035,81.602,37.134,81.576,36.724z"/>
	<path d="M81.441,38.843c-0.907,0.588-1.815,1.175-2.722,1.763c-0.131,0.084-0.824,0.403-0.858,0.562
		c-0.104,0.485-0.207,0.971-0.311,1.456C79.554,42.391,81.012,40.753,81.441,38.843z"/>
	<path d="M79.492,31.663c-0.337,0.445-0.891,0.757-1.323,1.1c-0.244,0.193-0.489,0.393-0.699,0.625
		c-0.008,0.04,0.093,0.171,0.111,0.205c0.317,0.587,0.635,1.175,0.952,1.762C78.853,34.123,79.172,32.893,79.492,31.663z"/>
	<path d="M76.134,34.876c0.183,0.317,0.366,0.635,0.548,0.953c0.262,0.455,0.523,0.911,0.783,1.367
		c0.052,0.09,0.288,0.67,0.389,0.694c0.097-0.367,0.194-0.734,0.291-1.101c0.054-0.204,0.292-0.688,0.182-0.885
		c-0.405-0.727-0.809-1.454-1.214-2.181C76.952,33.858,76.014,34.667,76.134,34.876z"/>
	<path d="M77.603,38.839c0.099-0.365-0.063-0.489-0.258-0.818c-0.532-0.9-1.059-1.804-1.586-2.707
		c-0.211,0.352-0.8,1.063-0.572,1.477c0.227,0.412,0.459,0.82,0.69,1.23c0.434,0.767,0.868,1.534,1.304,2.3
		C77.324,39.827,77.468,39.334,77.603,38.839z"/>
	<path d="M76.634,42.403c0.13-0.479,0.26-0.958,0.39-1.437c0.043-0.157-0.428-0.758-0.505-0.893
		c-0.537-0.938-1.075-1.876-1.612-2.814C74.414,39.153,74.96,41.277,76.634,42.403z"/>
	<path d="M54.571,63.354c0.017-0.051,0.123-0.259,0.102-0.312c-0.35-0.269-0.74-0.485-1.129-0.692
		c-0.688-0.367-1.536-0.66-2.118-1.194c0.756,1.63,1.511,3.26,2.267,4.89C53.986,65.148,54.278,64.251,54.571,63.354z"/>
	<path d="M55.278,69.398c0.134-0.06,0.316-0.925,0.365-1.063c0.246-0.7,0.494-1.4,0.743-2.099c0.174-0.488,0.347-0.976,0.521-1.463
		c0.114-0.32-1.394-1.208-1.654-1.355c-0.378,1.113-0.757,2.226-1.136,3.339c-0.103,0.303,0.351,0.914,0.478,1.184
		C54.822,68.427,55.05,68.913,55.278,69.398z"/>
	<path d="M58.709,67.195c0.213-0.634-0.786-1.473-1.169-1.909c-0.504,1.389-1.008,2.779-1.52,4.165
		c-0.187,0.508-0.382,0.721-0.151,1.203c0.313,0.655,0.637,1.304,0.961,1.953c0.411-1.176,0.822-2.352,1.23-3.528
		C58.278,68.452,58.498,67.825,58.709,67.195z"/>
	<path d="M58.118,75.364c2.042-1.989,2.263-5.081,1.098-7.589c-0.51,1.44-1.02,2.88-1.529,4.32c-0.073,0.207-0.575,1.162-0.476,1.37
		C57.513,74.098,57.816,74.731,58.118,75.364z"/>
	<path d="M50.31,63.786c-0.107,0.427-0.208,0.862-0.244,1.302c0.026,0.051,0.251,0.112,0.3,0.134
		c0.862,0.384,1.724,0.768,2.585,1.153c-0.703-1.654-1.405-3.307-2.108-4.96C50.85,62.203,50.499,63.029,50.31,63.786z"/>
	<path d="M51.288,68.5c0.685,0.284,1.371,0.569,2.055,0.856c0.135,0.057,0.899,0.502,1.034,0.442
		c-0.208-0.494-0.415-0.989-0.623-1.483c-0.116-0.275-0.265-1.022-0.559-1.149c-1.08-0.465-2.16-0.931-3.239-1.396
		c-0.065,0.291-0.418,2.006-0.104,2.136C50.332,68.103,50.81,68.302,51.288,68.5z"/>
	<path d="M50.442,70.867c0.609,0.265,1.222,0.523,1.833,0.782c1.147,0.486,2.295,0.969,3.443,1.452
		c-0.265-0.676-0.529-1.352-0.805-2.023c-0.203-0.494-0.493-0.493-0.994-0.694c-1.372-0.55-2.741-1.107-4.11-1.665
		C49.877,69.296,49.829,70.6,50.442,70.867z"/>
	<path d="M56.9,75.905c-0.267-0.649-0.534-1.297-0.802-1.946c-0.088-0.213-1.132-0.48-1.335-0.565
		c-1.41-0.587-2.821-1.174-4.231-1.762C51.614,74.178,54.055,76.087,56.9,75.905z"/>
	<path d="M35.706,72.694c-0.033-0.037-0.151-0.221-0.203-0.226c-0.371,0.196-0.718,0.45-1.057,0.707
		c-0.601,0.454-1.215,1.084-1.9,1.371c1.635,0.031,3.27,0.061,4.906,0.092C36.87,73.99,36.288,73.342,35.706,72.694z"/>
	<path d="M39.365,74.655c0.488,0.007,0.977,0.013,1.465,0.02c0.013-0.146-0.594-0.681-0.682-0.784
		c-0.446-0.522-0.891-1.045-1.335-1.569c-0.31-0.365-0.62-0.731-0.93-1.096c-0.203-0.24-1.587,0.72-1.82,0.889
		c0.715,0.818,1.43,1.636,2.145,2.454C38.403,74.792,39.093,74.651,39.365,74.655z"/>
	<path d="M42.094,74.691c0.661,0.004,1.323-0.005,1.984-0.013c-0.75-0.874-1.501-1.748-2.253-2.62
		c-0.401-0.465-0.801-0.932-1.207-1.392c-0.408-0.464-1.524,0.064-2.042,0.217c0.878,1.049,1.757,2.099,2.629,3.154
		C41.525,74.423,41.607,74.688,42.094,74.691z"/>
	<path d="M44.931,74.709c0.639,0.004,1.278,0.008,1.917,0.012c-0.664-2.679-3.023-4.212-5.541-4.257
		c0.916,1.076,1.832,2.153,2.749,3.229C44.188,73.848,44.722,74.707,44.931,74.709z"/>
	<path d="M34.137,76.678c0.292,0.28,0.592,0.558,0.926,0.78c0.052-0.001,0.202-0.175,0.241-0.21
		c0.692-0.602,1.385-1.204,2.077-1.806c-1.63-0.088-3.26-0.176-4.89-0.264C33.12,75.513,33.62,76.182,34.137,76.678z"/>
	<path d="M38.12,75.566c-0.855,0.761-1.709,1.522-2.564,2.283c0.202,0.184,1.407,1.239,1.651,1.015
		c0.372-0.341,0.744-0.682,1.117-1.022c0.534-0.488,1.068-0.976,1.603-1.462c0.106-0.096,0.803-0.585,0.816-0.73
		c-0.486-0.029-0.973-0.057-1.459-0.086C39.014,75.548,38.353,75.359,38.12,75.566z"/>
	<path d="M41.004,76.312c-1.053,0.985-2.111,1.964-3.168,2.943c0.488,0.189,1.503,0.795,1.991,0.364
		c0.484-0.428,0.964-0.863,1.445-1.296c0.901-0.812,1.801-1.626,2.7-2.441c-0.656-0.056-1.312-0.113-1.969-0.157
		C41.518,75.693,41.389,75.952,41.004,76.312z"/>
	<path d="M40.476,79.869c2.51,0.136,5.123-1.216,6.256-3.829c-0.636-0.042-1.271-0.084-1.907-0.126
		c-0.208-0.014-0.89,0.802-1.048,0.946C42.676,77.863,41.576,78.866,40.476,79.869z"/>
	<path d="M66.257,29.655c0.012-0.036,0.087-0.183,0.072-0.221c-0.248-0.19-0.524-0.343-0.799-0.49
		c-0.487-0.26-1.087-0.467-1.498-0.845c0.535,1.153,1.069,2.307,1.604,3.46C65.843,30.924,66.05,30.29,66.257,29.655z"/>
	<path d="M66.739,29.7c-0.268,0.788-0.536,1.575-0.804,2.363c-0.073,0.214,0.248,0.647,0.338,0.838
		c0.161,0.343,0.322,0.687,0.484,1.031c0.095-0.042,0.224-0.655,0.258-0.752c0.174-0.496,0.35-0.99,0.526-1.485
		c0.123-0.345,0.246-0.69,0.369-1.035C67.991,30.432,66.923,29.804,66.739,29.7z"/>
	<path d="M67.175,34.821c0.222,0.463,0.451,0.923,0.68,1.382c0.291-0.832,0.582-1.664,0.871-2.497
		c0.154-0.444,0.31-0.888,0.459-1.334c0.151-0.449-0.556-1.042-0.827-1.351c-0.357,0.983-0.714,1.966-1.076,2.947
		C67.15,34.329,67.012,34.48,67.175,34.821z"/>
	<path d="M69.544,32.784c-0.361,1.019-0.722,2.038-1.082,3.057c-0.052,0.147-0.407,0.822-0.337,0.969
		c0.214,0.448,0.428,0.896,0.642,1.344C70.212,36.746,70.369,34.559,69.544,32.784z"/>
	<path d="M65.111,31.792c-0.497-1.17-0.994-2.34-1.491-3.51c0.004,0.558-0.244,1.143-0.378,1.678
		c-0.075,0.302-0.147,0.61-0.172,0.921c0.018,0.036,0.178,0.079,0.212,0.095C63.892,31.248,64.501,31.52,65.111,31.792z"/>
	<path d="M63.934,33.297c0.485,0.201,0.97,0.403,1.455,0.606c0.096,0.04,0.636,0.355,0.732,0.313c-0.147-0.35-0.294-0.7-0.441-1.05
		c-0.082-0.195-0.188-0.723-0.395-0.813c-0.764-0.329-1.528-0.659-2.292-0.988c-0.046,0.206-0.296,1.419-0.073,1.511
		C63.257,33.016,63.596,33.156,63.934,33.297z"/>
	<path d="M62.888,33.452c0.047,0.408,0.014,1.33,0.448,1.519c0.431,0.188,0.865,0.37,1.297,0.553
		c0.812,0.344,1.624,0.686,2.436,1.028c-0.187-0.478-0.374-0.956-0.569-1.431c-0.144-0.35-0.349-0.349-0.704-0.491
		C64.825,34.241,63.856,33.847,62.888,33.452z"/>
	<path d="M67.905,38.536c-0.189-0.459-0.378-0.918-0.567-1.377c-0.062-0.15-0.801-0.34-0.945-0.4
		c-0.998-0.416-1.996-0.831-2.994-1.247C64.164,37.315,65.892,38.665,67.905,38.536z"/>
	<path d="M49.335,51.923c-0.035-0.015-0.175-0.101-0.214-0.09c-0.21,0.231-0.385,0.494-0.554,0.756
		c-0.299,0.464-0.555,1.045-0.965,1.424c1.193-0.439,2.386-0.877,3.58-1.316C50.566,52.44,49.95,52.182,49.335,51.923z"/>
	<path d="M52.572,52.172c0.356-0.133,0.711-0.265,1.067-0.398c-0.034-0.098-0.634-0.276-0.729-0.319
		c-0.48-0.214-0.958-0.43-1.437-0.645c-0.334-0.151-0.668-0.301-1.002-0.452c-0.219-0.099-0.933,0.913-1.051,1.088
		c0.763,0.331,1.526,0.663,2.289,0.994C51.916,52.531,52.374,52.246,52.572,52.172z"/>
	<path d="M54.559,51.43c0.48-0.183,0.956-0.374,1.433-0.565c-0.805-0.358-1.611-0.716-2.417-1.072
		c-0.43-0.19-0.86-0.381-1.292-0.567c-0.435-0.187-1.084,0.469-1.414,0.714c0.951,0.436,1.901,0.872,2.85,1.313
		C54.066,51.416,54.205,51.565,54.559,51.43z"/>
	<path d="M56.618,50.647c0.464-0.177,0.928-0.353,1.392-0.53c-1.284-1.555-3.452-1.89-5.288-1.214
		c0.986,0.443,1.972,0.886,2.958,1.328C55.822,50.295,56.466,50.704,56.618,50.647z"/>
	<path d="M49.393,54.953c0.295,0.1,0.596,0.197,0.904,0.247c0.038-0.015,0.093-0.171,0.112-0.204
		c0.321-0.586,0.642-1.171,0.963-1.757c-1.207,0.4-2.413,0.8-3.62,1.199C48.307,54.481,48.87,54.776,49.393,54.953z"/>
	<path d="M51.944,53.113c-0.391,0.734-0.781,1.469-1.172,2.204c0.202,0.063,1.39,0.411,1.5,0.197
		c0.167-0.326,0.335-0.652,0.502-0.978c0.24-0.467,0.481-0.934,0.723-1.4c0.048-0.092,0.406-0.605,0.372-0.704
		c-0.361,0.118-0.721,0.236-1.082,0.353C52.585,52.852,52.05,52.914,51.944,53.113z"/>
	<path d="M54.256,52.79c-0.467,0.936-0.939,1.869-1.412,2.802c0.41-0.014,1.327,0.095,1.551-0.322
		c0.222-0.414,0.439-0.831,0.658-1.248c0.409-0.781,0.816-1.562,1.224-2.344c-0.492,0.147-0.984,0.295-1.473,0.45
		C54.442,52.244,54.427,52.448,54.256,52.79z"/>
	<path d="M56.902,51.46c-0.155,0.049-0.404,0.771-0.476,0.909c-0.496,0.961-0.992,1.921-1.487,2.882
		c1.858-0.615,3.345-2.227,3.382-4.244C57.848,51.158,57.375,51.309,56.902,51.46z"/>
	<path d="M44.098,59.23c0.015-0.035,0.101-0.175,0.09-0.214c-0.231-0.21-0.494-0.385-0.756-0.554
		c-0.464-0.299-1.045-0.555-1.424-0.965c0.438,1.193,0.877,2.386,1.316,3.58C43.581,60.461,43.839,59.846,44.098,59.23z"/>
	<path d="M43.849,62.467c0.133,0.356,0.265,0.711,0.398,1.067c0.098-0.034,0.276-0.634,0.319-0.729
		c0.214-0.48,0.43-0.958,0.645-1.437c0.151-0.334,0.301-0.668,0.452-1.002c0.099-0.219-0.913-0.933-1.088-1.051
		c-0.331,0.763-0.663,1.526-0.994,2.289C43.49,61.811,43.775,62.269,43.849,62.467z"/>
	<path d="M44.591,64.454c0.183,0.48,0.374,0.956,0.565,1.433c0.358-0.805,0.716-1.611,1.072-2.417c0.19-0.43,0.381-0.86,0.567-1.292
		c0.187-0.435-0.469-1.084-0.714-1.414c-0.436,0.951-0.872,1.901-1.313,2.85C44.605,63.961,44.456,64.1,44.591,64.454z"/>
	<path d="M45.375,66.514c0.177,0.464,0.353,0.928,0.53,1.392c1.555-1.284,1.891-3.452,1.214-5.288
		c-0.443,0.986-0.886,1.972-1.328,2.958C45.726,65.717,45.317,66.362,45.375,66.514z"/>
	<path d="M42.781,61.266c-0.4-1.207-0.8-2.413-1.199-3.62c-0.042,0.557-0.337,1.119-0.514,1.642c-0.1,0.295-0.197,0.596-0.247,0.904
		c0.015,0.038,0.171,0.093,0.204,0.112C41.61,60.625,42.196,60.945,42.781,61.266z"/>
	<path d="M41.485,62.669c0.467,0.24,0.934,0.481,1.4,0.723c0.092,0.048,0.605,0.406,0.704,0.372
		c-0.118-0.361-0.236-0.722-0.353-1.082c-0.066-0.201-0.128-0.736-0.328-0.842c-0.734-0.391-1.469-0.781-2.203-1.172
		c-0.063,0.202-0.411,1.39-0.197,1.5C40.833,62.334,41.159,62.502,41.485,62.669z"/>
	<path d="M40.751,64.29c0.414,0.222,0.831,0.44,1.248,0.658c0.781,0.409,1.562,0.816,2.344,1.224
		c-0.147-0.492-0.295-0.984-0.45-1.473c-0.115-0.36-0.319-0.376-0.661-0.547c-0.936-0.467-1.869-0.939-2.802-1.412
		C40.443,63.149,40.334,64.066,40.751,64.29z"/>
	<path d="M44.562,66.798c-0.05-0.155-0.771-0.404-0.909-0.476c-0.961-0.496-1.921-0.992-2.882-1.487
		c0.615,1.858,2.227,3.345,4.244,3.382C44.863,67.744,44.712,67.271,44.562,66.798z"/>
	<path d="M90.312,29.86c0.268-0.821,0.536-1.643,0.804-2.464c0.015-0.047,0.112-0.237,0.093-0.286
		c-0.32-0.246-0.678-0.444-1.034-0.634c-0.63-0.336-1.407-0.605-1.939-1.093C88.928,26.875,89.62,28.368,90.312,29.86z"/>
	<path d="M93.255,28.695c0.105-0.293-1.277-1.106-1.515-1.241c-0.347,1.019-0.693,2.039-1.04,3.058
		c-0.094,0.277,0.322,0.837,0.438,1.085c0.209,0.444,0.417,0.889,0.626,1.334c0.123-0.055,0.289-0.847,0.334-0.974
		c0.226-0.641,0.453-1.282,0.68-1.922C92.936,29.588,93.095,29.142,93.255,28.695z"/>
	<path d="M94.906,30.913c0.195-0.581-0.72-1.349-1.07-1.748c-0.462,1.272-0.923,2.544-1.392,3.814
		c-0.172,0.465-0.35,0.66-0.139,1.102c0.287,0.599,0.584,1.194,0.88,1.788c0.377-1.077,0.752-2.153,1.127-3.231
		C94.511,32.064,94.712,31.49,94.906,30.913z"/>
	<path d="M95.37,31.445c-0.467,1.319-0.934,2.637-1.4,3.956c-0.067,0.19-0.527,1.064-0.436,1.254c0.277,0.58,0.554,1.159,0.83,1.739
		C96.234,36.573,96.437,33.742,95.37,31.445z"/>
	<path d="M87.214,27.792c-0.098,0.391-0.191,0.789-0.223,1.192c0.024,0.047,0.23,0.102,0.275,0.122
		c0.789,0.352,1.578,0.704,2.367,1.055c-0.643-1.514-1.287-3.028-1.93-4.542C87.708,26.342,87.387,27.099,87.214,27.792z"/>
	<path d="M89.857,30.887c-0.989-0.426-1.977-0.852-2.966-1.278c-0.06,0.267-0.383,1.837-0.095,1.956
		c0.438,0.181,0.876,0.363,1.314,0.544c0.628,0.26,1.255,0.521,1.882,0.784c0.124,0.052,0.823,0.46,0.947,0.405
		c-0.19-0.453-0.38-0.906-0.57-1.358C90.263,31.686,90.126,31.003,89.857,30.887z"/>
	<path d="M90.519,33.834c-1.256-0.503-2.51-1.014-3.763-1.524c0.062,0.527,0.018,1.721,0.579,1.966
		c0.558,0.243,1.119,0.479,1.679,0.716c1.05,0.445,2.101,0.888,3.153,1.33c-0.242-0.619-0.484-1.238-0.737-1.852
		C91.244,34.017,90.979,34.018,90.519,33.834z"/>
	<path d="M92.515,37.107c-0.08-0.195-1.037-0.44-1.223-0.517c-1.292-0.538-2.583-1.075-3.874-1.613
		c0.99,2.331,3.226,4.079,5.831,3.912C93.004,38.295,92.76,37.701,92.515,37.107z"/>
	<path d="M62.364,52.693c-0.052-0.011-0.264-0.092-0.314-0.067c-0.225,0.368-0.395,0.769-0.556,1.168
		c-0.285,0.706-0.482,1.56-0.94,2.18c1.505-0.903,3.009-1.805,4.514-2.707C64.167,53.076,63.265,52.885,62.364,52.693z"/>
	<path d="M68.16,51.381c-0.072-0.124-0.931-0.211-1.07-0.244c-0.706-0.167-1.41-0.335-2.115-0.504
		c-0.492-0.118-0.983-0.236-1.475-0.355c-0.323-0.078-1.029,1.479-1.145,1.747c1.12,0.252,2.24,0.505,3.36,0.757
		c0.305,0.069,0.852-0.435,1.101-0.587C67.265,51.924,67.713,51.652,68.16,51.381z"/>
	<path d="M65.666,48.277c-0.638-0.141-1.349,0.916-1.733,1.333c1.401,0.346,2.803,0.692,4.202,1.045
		c0.512,0.129,0.739,0.296,1.184,0.022c0.603-0.372,1.2-0.754,1.797-1.136c-1.184-0.278-2.369-0.555-3.553-0.83
		C66.931,48.565,66.299,48.417,65.666,48.277z"/>
	<path d="M66.177,47.724c1.451,0.346,2.902,0.692,4.354,1.038c0.209,0.05,1.188,0.438,1.379,0.321
		c0.583-0.359,1.167-0.718,1.75-1.077C71.518,46.228,68.492,46.333,66.177,47.724z"/>
	<path d="M63.224,56.786c0.426,0.06,0.859,0.113,1.29,0.102c0.047-0.031,0.083-0.255,0.099-0.305
		c0.284-0.877,0.568-1.753,0.852-2.63c-1.533,0.853-3.066,1.707-4.599,2.56C61.631,56.426,62.47,56.681,63.224,56.786z"/>
	<path d="M67.272,56.803c0.143-0.485,0.286-0.97,0.429-1.455c0.205-0.695,0.411-1.39,0.618-2.085
		c0.041-0.137,0.394-0.925,0.322-1.05c-0.459,0.253-0.917,0.506-1.376,0.758c-0.255,0.141-0.965,0.363-1.057,0.661
		c-0.34,1.097-0.68,2.193-1.021,3.29C65.477,56.957,67.179,57.122,67.272,56.803z"/>
	<path d="M71.711,50.57c-0.629,0.327-1.258,0.653-1.881,0.991c-0.459,0.248-0.428,0.529-0.571,1.037
		c-0.392,1.389-0.792,2.776-1.191,4.163c0.552-0.125,1.824-0.213,2.02-0.836c0.195-0.619,0.381-1.24,0.57-1.861
		C71.01,52.9,71.361,51.735,71.711,50.57z"/>
	<path d="M72.505,50.112c-0.197,0.107-0.349,1.149-0.41,1.355c-0.424,1.43-0.849,2.861-1.273,4.291
		c2.36-1.313,3.961-3.882,3.49-6.626C73.709,49.459,73.107,49.785,72.505,50.112z"/>
	<path d="M55.923,41.479c-0.034-0.03-0.156-0.18-0.204-0.182c-0.322,0.177-0.618,0.403-0.906,0.63
		c-0.51,0.402-1.017,0.952-1.619,1.217c1.497-0.032,2.993-0.064,4.49-0.097C57.096,42.525,56.51,42.002,55.923,41.479z"/>
	<path d="M59.432,42.994c0.447-0.012,0.893-0.023,1.34-0.035c-0.001-0.123-0.601-0.55-0.69-0.634
		c-0.452-0.422-0.903-0.845-1.354-1.268c-0.314-0.295-0.629-0.591-0.943-0.887c-0.206-0.194-1.388,0.66-1.587,0.81
		c0.723,0.661,1.446,1.322,2.169,1.983C58.565,43.143,59.184,43.001,59.432,42.994z"/>
	<path d="M61.929,42.928c0.604-0.02,1.208-0.051,1.812-0.081c-0.76-0.707-1.52-1.413-2.282-2.118
		c-0.406-0.376-0.812-0.753-1.222-1.125c-0.413-0.374-1.387,0.108-1.848,0.255c0.892,0.849,1.784,1.698,2.672,2.552
		C61.386,42.723,61.484,42.943,61.929,42.928z"/>
	<path d="M64.522,42.842c0.584-0.019,1.168-0.039,1.753-0.058c-0.836-2.223-3.122-3.425-5.426-3.374
		c0.929,0.87,1.858,1.741,2.787,2.611C63.77,42.146,64.331,42.848,64.522,42.842z"/>
	<path d="M54.829,44.876c0.29,0.224,0.588,0.447,0.912,0.621c0.048-0.003,0.169-0.154,0.202-0.184
		c0.581-0.529,1.162-1.059,1.744-1.588c-1.497-0.016-2.994-0.032-4.49-0.048C53.801,43.935,54.314,44.479,54.829,44.876z"/>
	<path d="M57.821,46.601c0.311-0.299,0.622-0.598,0.933-0.897c0.446-0.428,0.892-0.856,1.34-1.283
		c0.088-0.084,0.684-0.519,0.683-0.641c-0.447-0.007-0.894-0.013-1.34-0.02c-0.249-0.004-0.869-0.139-1.063,0.043
		c-0.716,0.669-1.432,1.337-2.148,2.006C56.426,45.955,57.616,46.797,57.821,46.601z"/>
	<path d="M61.488,46.003c0.754-0.713,1.507-1.428,2.259-2.143c-0.604-0.024-1.208-0.048-1.813-0.062
		c-0.445-0.01-0.541,0.211-0.862,0.527c-0.878,0.863-1.761,1.722-2.644,2.581c0.462,0.141,1.441,0.613,1.85,0.235
		C60.684,46.765,61.085,46.383,61.488,46.003z"/>
	<path d="M64.528,43.856c-0.192-0.004-0.745,0.704-0.877,0.831c-0.92,0.88-1.839,1.761-2.758,2.641
		c2.304,0.025,4.577-1.201,5.389-3.433C65.697,43.882,65.112,43.869,64.528,43.856z"/>
	<path d="M73.967,62.398c-0.329,0.279-0.616,0.607-0.893,0.935c-0.492,0.581-0.947,1.331-1.576,1.776
		c1.712-0.386,3.423-0.772,5.135-1.157c-0.796-0.464-1.592-0.928-2.388-1.392C74.198,62.533,74.022,62.39,73.967,62.398z"/>
	<path d="M74.445,61.922c0.985,0.591,1.969,1.181,2.954,1.772c0.268,0.161,0.945-0.147,1.229-0.212
		c0.51-0.117,1.021-0.235,1.531-0.353c-0.029-0.141-0.818-0.492-0.94-0.567c-0.618-0.379-1.234-0.76-1.851-1.141
		c-0.43-0.266-0.86-0.532-1.29-0.799C75.797,60.447,74.638,61.704,74.445,61.922z"/>
	<path d="M76.7,60.123c1.223,0.767,2.445,1.535,3.664,2.309c0.446,0.283,0.609,0.513,1.117,0.392
		c0.689-0.164,1.376-0.34,2.062-0.516c-1.038-0.635-2.076-1.269-3.115-1.901c-0.554-0.337-1.108-0.676-1.666-1.007
		C78.201,59.066,77.194,59.847,76.7,60.123z"/>
	<path d="M79.421,59.035c1.27,0.783,2.539,1.566,3.809,2.349c0.183,0.113,0.991,0.788,1.209,0.737c0.667-0.158,1.333-0.317,2-0.475
		C84.961,59.287,82.055,58.439,79.421,59.035z"/>
	<path d="M75.161,66.958c0.544-0.744,1.088-1.487,1.633-2.231c-1.723,0.33-3.446,0.661-5.169,0.991
		c0.754,0.157,1.471,0.662,2.154,0.998c0.386,0.19,0.78,0.377,1.193,0.501C75.026,67.203,75.13,67,75.161,66.958z"/>
	<path d="M77.618,68.001c0.287-0.416,0.575-0.832,0.863-1.248c0.412-0.596,0.825-1.192,1.24-1.786
		c0.082-0.118,0.664-0.755,0.635-0.896c-0.515,0.096-1.03,0.193-1.544,0.289c-0.287,0.054-1.03,0.043-1.212,0.297
		c-0.667,0.935-1.333,1.87-2,2.805C75.865,67.584,77.429,68.274,77.618,68.001z"/>
	<path d="M80.566,68.048c0.379-0.527,0.751-1.059,1.124-1.589c0.7-0.995,1.398-1.991,2.095-2.988
		c-0.7,0.113-1.399,0.227-2.097,0.352c-0.514,0.092-0.572,0.369-0.867,0.806c-0.807,1.196-1.621,2.389-2.435,3.581
		C78.95,68.265,80.185,68.579,80.566,68.048z"/>
	<path d="M83.868,64.443c-0.851,1.225-1.702,2.451-2.553,3.676c2.653-0.508,4.977-2.446,5.39-5.199
		c-0.674,0.122-1.349,0.243-2.023,0.365C84.461,63.325,83.991,64.267,83.868,64.443z"/>
	<path d="M42.835,86.576c-0.225,0.368-0.395,0.769-0.555,1.168c-0.285,0.706-0.482,1.56-0.941,2.18
		c1.505-0.903,3.009-1.805,4.514-2.707c-0.901-0.191-1.802-0.383-2.704-0.574C43.097,86.632,42.885,86.55,42.835,86.576z"/>
	<path d="M47.602,86.145c0.448-0.271,0.896-0.543,1.344-0.814c-0.072-0.124-0.931-0.211-1.07-0.244
		c-0.706-0.167-1.41-0.335-2.115-0.504c-0.492-0.118-0.983-0.236-1.475-0.355c-0.323-0.078-1.029,1.479-1.145,1.747
		c1.12,0.252,2.24,0.505,3.36,0.757C46.805,86.8,47.353,86.296,47.602,86.145z"/>
	<path d="M50.104,84.627c0.603-0.372,1.2-0.754,1.797-1.136c-1.184-0.278-2.369-0.555-3.553-0.83
		c-0.632-0.147-1.264-0.295-1.897-0.435c-0.638-0.141-1.349,0.916-1.733,1.333c1.401,0.346,2.803,0.692,4.202,1.045
		C49.433,84.734,49.66,84.901,50.104,84.627z"/>
	<path d="M46.962,81.674c1.451,0.346,2.902,0.692,4.354,1.038c0.209,0.05,1.188,0.438,1.379,0.321
		c0.583-0.359,1.167-0.718,1.75-1.077C52.302,80.178,49.277,80.283,46.962,81.674z"/>
	<path d="M41.651,90.463c0.766-0.087,1.604,0.168,2.359,0.273c0.426,0.06,0.858,0.113,1.29,0.102
		c0.047-0.031,0.083-0.255,0.099-0.305c0.284-0.877,0.568-1.753,0.852-2.63C44.716,88.756,43.184,89.609,41.651,90.463z"/>
	<path d="M48.057,90.753c0.143-0.485,0.286-0.97,0.429-1.455c0.205-0.695,0.411-1.39,0.618-2.085
		c0.041-0.137,0.394-0.925,0.322-1.05c-0.459,0.253-0.917,0.506-1.376,0.758c-0.255,0.141-0.965,0.363-1.057,0.661
		c-0.34,1.097-0.68,2.193-1.021,3.29C46.262,90.906,47.964,91.071,48.057,90.753z"/>
	<path d="M50.872,89.875c0.195-0.619,0.381-1.24,0.57-1.861c0.353-1.164,0.704-2.329,1.054-3.494
		c-0.629,0.327-1.258,0.653-1.881,0.991c-0.459,0.248-0.428,0.529-0.571,1.037c-0.392,1.389-0.792,2.776-1.191,4.163
		C49.405,90.586,50.677,90.498,50.872,89.875z"/>
	<path d="M55.096,83.082c-0.602,0.327-1.204,0.653-1.807,0.98c-0.197,0.107-0.349,1.149-0.41,1.355
		c-0.425,1.43-0.849,2.861-1.273,4.291C53.967,88.394,55.567,85.826,55.096,83.082z"/>
	<path d="M59.317,167.019c0.891,0.023,1.795,0.033,2.68-0.092c0.09-0.074,0.111-0.545,0.132-0.652
		c0.38-1.872,0.76-3.744,1.141-5.616c-2.958,2.117-5.917,4.233-8.875,6.349C55.952,166.649,57.739,166.979,59.317,167.019z"/>
	<path d="M69.41,156.335c-0.886,0.628-1.772,1.256-2.658,1.883c-0.493,0.349-1.904,0.973-2.024,1.609
		c-0.445,2.338-0.889,4.677-1.334,7.016c0.604,0.002,4.148-0.056,4.267-0.735c0.18-1.033,0.362-2.065,0.543-3.098
		c0.26-1.48,0.522-2.959,0.787-4.439C69.043,158.28,69.587,156.574,69.41,156.335z"/>
	<path d="M71.706,154.712c-0.888,0.619-0.758,1.189-0.935,2.27c-0.483,2.953-0.982,5.904-1.481,8.855
		c1.109-0.385,3.707-0.866,3.965-2.195c0.257-1.32,0.496-2.644,0.739-3.967c0.455-2.48,0.906-4.961,1.355-7.443
		C74.13,153.052,72.911,153.871,71.706,154.712z"/>
	<path d="M76.876,151.101c-0.382,0.267-0.451,2.45-0.528,2.888c-0.541,3.045-1.08,6.091-1.62,9.137
		c4.557-3.255,7.254-8.922,5.642-14.464C79.205,149.475,78.041,150.288,76.876,151.101z"/>
	<path d="M56.588,158.788c-0.108-0.01-0.565-0.128-0.662-0.064c-0.378,0.81-0.632,1.678-0.871,2.537
		c-0.422,1.522-0.63,3.327-1.428,4.711c2.888-2.211,5.777-4.422,8.665-6.633C60.391,159.155,58.49,158.971,56.588,158.788z"/>
	<path d="M61.486,153.933c-1.041-0.128-2.081-0.257-3.121-0.386c-0.683-0.085-1.774,3.288-1.949,3.866
		c2.366,0.258,4.733,0.517,7.099,0.775c0.643,0.071,1.652-1.096,2.131-1.465c0.859-0.664,1.719-1.327,2.578-1.991
		c-0.177-0.24-1.968-0.218-2.263-0.254C64.469,154.3,62.977,154.117,61.486,153.933z"/>
	<path d="M59.101,152.069c2.968,0.385,5.936,0.77,8.901,1.171c1.085,0.147,1.593,0.438,2.444-0.23
		c1.156-0.907,2.296-1.834,3.437-2.76c-2.505-0.296-5.009-0.589-7.514-0.879c-1.336-0.154-2.672-0.312-4.01-0.453
		C61.012,148.777,59.794,151.121,59.101,152.069z"/>
	<path d="M75.41,149.12c1.118-0.876,2.237-1.752,3.355-2.627c-4.83-3.161-11.036-2.237-15.482,1.168
		c3.07,0.374,6.141,0.748,9.211,1.121C72.936,148.835,75.043,149.407,75.41,149.12z"/>
	<path d="M154.922,147.457c0.017,0.09,0.028,0.487,0.103,0.55c0.743,0.117,1.502,0.121,2.252,0.113
		c1.328-0.013,2.835-0.267,4.14,0.056c-2.46-1.819-4.919-3.638-7.379-5.458C154.332,144.299,154.627,145.878,154.922,147.457z"/>
	<path d="M151.142,140.62c-0.737-0.54-1.474-1.08-2.21-1.619c-0.152,0.199,0.283,1.641,0.323,1.887
		c0.203,1.248,0.404,2.495,0.603,3.743c0.139,0.871,0.277,1.742,0.415,2.612c0.091,0.572,3.07,0.668,3.578,0.675
		c-0.343-1.972-0.685-3.945-1.028-5.918C152.73,141.464,151.552,140.92,151.142,140.62z"/>
	<path d="M147.023,137.605c-1.002-0.723-2.017-1.428-3.031-2.135c0.345,2.093,0.691,4.185,1.041,6.277
		c0.187,1.116,0.37,2.232,0.569,3.346c0.199,1.121,2.377,1.56,3.305,1.899c-0.381-2.488-0.761-4.976-1.127-7.466
		C147.645,138.615,147.762,138.138,147.023,137.605z"/>
	<path d="M143.129,136.936c-0.059-0.37-0.089-2.206-0.406-2.435c-0.969-0.699-1.937-1.399-2.906-2.098
		c-1.429,4.639,0.763,9.441,4.552,12.239C143.956,142.073,143.543,139.504,143.129,136.936z"/>
	<path d="M160.239,141.189c-0.081-0.055-0.466,0.038-0.558,0.045c-1.602,0.129-3.203,0.258-4.805,0.387
		c2.4,1.898,4.799,3.795,7.199,5.693c-0.653-1.174-0.803-2.696-1.138-3.981C160.749,142.609,160.546,141.876,160.239,141.189z"/>
	<path d="M158.257,136.804c-0.876,0.095-1.753,0.189-2.63,0.283c-1.256,0.135-2.514,0.269-3.771,0.399
		c-0.249,0.026-1.754-0.016-1.906,0.183c0.714,0.57,1.428,1.139,2.141,1.709c0.398,0.317,1.23,1.311,1.772,1.261
		c1.993-0.186,3.987-0.372,5.98-0.557C159.705,139.592,158.833,136.742,158.257,136.804z"/>
	<path d="M150.157,136.417c2.499-0.298,5-0.582,7.501-0.866c-0.571-0.806-1.563-2.794-2.698-2.693
		c-1.127,0.1-2.252,0.215-3.378,0.327c-2.111,0.21-4.221,0.424-6.331,0.639c0.947,0.794,1.893,1.588,2.853,2.367
		C148.812,136.764,149.243,136.526,150.157,136.417z"/>
	<path d="M146.439,132.608c2.587-0.273,5.174-0.547,7.761-0.82c-3.694-2.922-8.901-3.782-13.004-1.188
		c0.929,0.751,1.858,1.503,2.786,2.254C144.287,133.1,146.067,132.647,146.439,132.608z"/>
	<path d="M181.425,123.024c0.059,0.07,0.265,0.409,0.362,0.427c0.703-0.267,1.365-0.64,2.012-1.018
		c1.147-0.669,2.33-1.637,3.623-2.003c-3.038-0.361-6.076-0.721-9.114-1.082C179.347,120.573,180.385,121.798,181.425,123.024z"/>
	<path d="M174.752,118.96c-0.907-0.103-1.815-0.207-2.722-0.31c-0.034,0.248,1.059,1.285,1.216,1.479
		c0.795,0.983,1.588,1.967,2.379,2.952c0.552,0.688,1.104,1.375,1.656,2.063c0.363,0.452,2.997-0.942,3.442-1.188
		c-1.276-1.543-2.551-3.086-3.827-4.63C176.55,118.906,175.257,119.017,174.752,118.96z"/>
	<path d="M169.681,118.384c-1.229-0.131-2.46-0.241-3.69-0.351c1.337,1.647,2.675,3.292,4.016,4.936
		c0.715,0.877,1.428,1.755,2.153,2.624c0.729,0.875,2.838,0.176,3.811,0.01c-1.564-1.972-3.128-3.944-4.681-5.925
		C170.721,118.953,170.586,118.48,169.681,118.384z"/>
	<path d="M164.407,117.819c-1.188-0.127-2.376-0.254-3.564-0.382c1.059,4.737,5.343,7.82,10.021,8.372
		c-1.632-2.026-3.265-4.051-4.897-6.076C165.732,119.442,164.796,117.861,164.407,117.819z"/>
	<path d="M184.605,116.461c-0.524-0.536-1.063-1.072-1.67-1.516c-0.097-0.008-0.386,0.264-0.462,0.315
		c-1.327,0.906-2.654,1.812-3.981,2.718c3.025,0.459,6.049,0.917,9.074,1.375C186.417,118.658,185.533,117.411,184.605,116.461z"/>
	<path d="M173.819,115.883c-0.203,0.146-1.531,0.855-1.565,1.104c0.902,0.141,1.805,0.281,2.707,0.422
		c0.502,0.078,1.719,0.529,2.164,0.216c1.639-1.149,3.278-2.299,4.918-3.449c-0.364-0.355-2.534-2.398-3.004-2.059
		c-0.714,0.517-1.429,1.033-2.144,1.55C175.871,114.408,174.846,115.147,173.819,115.883z"/>
	<path d="M171.813,115.798c2.023-1.498,4.053-2.984,6.085-4.471c-0.895-0.417-2.743-1.651-3.678-1.001
		c-0.929,0.646-1.849,1.304-2.772,1.959c-1.729,1.229-3.455,2.461-5.181,3.694c1.216,0.22,2.432,0.441,3.651,0.641
		C170.817,116.767,171.073,116.346,171.813,115.798z"/>
	<path d="M161.147,115.189c1.179,0.192,2.358,0.384,3.537,0.576c0.386,0.063,1.708-1.213,2.012-1.431
		c2.112-1.52,4.223-3.04,6.334-4.56C168.373,109.067,163.425,110.902,161.147,115.189z"/>
	<path d="M160.483,92.029c-0.703,0.645-1.728,1-2.559,1.443c-0.47,0.25-0.941,0.511-1.365,0.837
		c-0.025,0.065,0.103,0.315,0.123,0.377c0.354,1.084,0.707,2.168,1.061,3.252C158.656,95.968,159.57,93.999,160.483,92.029z"/>
	<path d="M155.387,100.706c0.059,0.167,0.278,1.213,0.441,1.285c0.275-0.587,0.551-1.174,0.826-1.76
		c0.153-0.326,0.702-1.066,0.577-1.432c-0.457-1.345-0.915-2.691-1.373-4.036c-0.314,0.177-2.137,1.25-1.999,1.637
		c0.21,0.589,0.42,1.179,0.63,1.768C154.79,99.014,155.089,99.86,155.387,100.706z"/>
	<path d="M155.114,103.51c0.279-0.583,0.043-0.84-0.183-1.454c-0.619-1.676-1.228-3.355-1.837-5.034
		c-0.463,0.526-1.67,1.541-1.413,2.307c0.255,0.761,0.521,1.519,0.784,2.278c0.494,1.422,0.99,2.843,1.487,4.264
		C154.343,105.085,154.735,104.301,155.114,103.51z"/>
	<path d="M153.491,106.906c0.12-0.251-0.487-1.405-0.576-1.655c-0.616-1.741-1.232-3.481-1.848-5.221
		c-1.408,3.032-1.14,6.768,1.328,9.172C152.76,108.436,153.126,107.671,153.491,106.906z"/>
	<path d="M162.126,96.782c-0.042-0.532-0.165-1.057-0.294-1.574c-0.229-0.914-0.652-1.913-0.645-2.867
		c-0.849,1.998-1.698,3.997-2.547,5.995c1.042-0.464,2.083-0.929,3.125-1.393C161.823,96.917,162.095,96.844,162.126,96.782z"/>
	<path d="M162.258,97.606c-1.305,0.562-2.61,1.125-3.915,1.687c-0.355,0.153-0.535,1.055-0.675,1.388
		c-0.251,0.598-0.502,1.195-0.753,1.793c0.163,0.072,1.086-0.466,1.25-0.534c0.827-0.347,1.656-0.691,2.484-1.034
		c0.578-0.24,1.156-0.479,1.734-0.718C162.764,100.03,162.337,97.958,162.258,97.606z"/>
	<path d="M162.437,101.172c-1.654,0.674-3.309,1.347-4.967,2.012c-0.606,0.243-0.956,0.241-1.202,0.839
		c-0.333,0.811-0.653,1.628-0.972,2.445c1.388-0.584,2.775-1.168,4.161-1.755c0.739-0.313,1.48-0.624,2.216-0.945
		C162.413,103.444,162.356,101.868,162.437,101.172z"/>
	<path d="M161.563,104.692c-1.704,0.71-3.409,1.419-5.113,2.129c-0.245,0.102-1.508,0.426-1.614,0.683
		c-0.323,0.784-0.646,1.568-0.969,2.352C157.305,110.075,160.256,107.769,161.563,104.692z"/>
	<path d="M173.62,93.844c0.913-1.97,1.827-3.94,2.74-5.91c-0.703,0.645-1.728,1-2.559,1.443c-0.47,0.25-0.942,0.511-1.365,0.837
		c-0.025,0.065,0.103,0.315,0.123,0.377C172.913,91.677,173.267,92.76,173.62,93.844z"/>
	<path d="M171.264,96.612c0.059,0.167,0.278,1.213,0.441,1.285c0.275-0.587,0.551-1.174,0.826-1.76
		c0.153-0.326,0.702-1.066,0.577-1.432c-0.457-1.345-0.915-2.691-1.373-4.036c-0.314,0.177-2.137,1.25-1.999,1.637
		c0.21,0.589,0.42,1.179,0.63,1.768C170.667,94.921,170.966,95.766,171.264,96.612z"/>
	<path d="M168.342,97.512c0.494,1.422,0.99,2.843,1.487,4.264c0.391-0.785,0.783-1.569,1.162-2.361
		c0.279-0.583,0.043-0.84-0.183-1.454c-0.619-1.676-1.228-3.355-1.837-5.034c-0.462,0.526-1.67,1.541-1.413,2.307
		C167.813,95.996,168.078,96.754,168.342,97.512z"/>
	<path d="M168.793,101.157c-0.616-1.741-1.232-3.481-1.848-5.221c-1.408,3.032-1.14,6.768,1.328,9.172
		c0.365-0.765,0.731-1.53,1.096-2.295C169.488,102.562,168.881,101.408,168.793,101.157z"/>
	<path d="M177.641,92.849c0.059-0.027,0.331-0.1,0.363-0.162c-0.042-0.532-0.165-1.057-0.294-1.574
		c-0.229-0.914-0.652-1.913-0.645-2.867c-0.849,1.998-1.698,3.997-2.547,5.995C175.558,93.778,176.599,93.314,177.641,92.849z"/>
	<path d="M173.545,96.588c-0.251,0.598-0.502,1.195-0.753,1.793c0.163,0.072,1.086-0.466,1.25-0.534
		c0.827-0.347,1.656-0.691,2.484-1.034c0.578-0.24,1.156-0.479,1.734-0.718c0.38-0.157-0.047-2.229-0.126-2.581
		c-1.305,0.562-2.61,1.125-3.915,1.687C173.866,95.352,173.685,96.255,173.545,96.588z"/>
	<path d="M177.549,99.673c0.741-0.323,0.683-1.899,0.764-2.595c-1.654,0.674-3.309,1.347-4.967,2.012
		c-0.606,0.243-0.956,0.241-1.202,0.839c-0.333,0.811-0.653,1.628-0.972,2.445c1.388-0.584,2.775-1.168,4.161-1.755
		C176.073,100.305,176.813,99.994,177.549,99.673z"/>
	<path d="M170.713,103.41c-0.323,0.784-0.646,1.568-0.969,2.352c3.438,0.22,6.389-2.087,7.696-5.164
		c-1.705,0.71-3.409,1.419-5.114,2.129C172.081,102.829,170.819,103.153,170.713,103.41z"/>
	<path d="M114.956,73.627c-0.025,0.065,0.103,0.315,0.123,0.377c0.354,1.084,0.707,2.168,1.061,3.252
		c0.913-1.97,1.826-3.94,2.74-5.91c-0.702,0.645-1.728,1-2.559,1.443C115.851,73.04,115.379,73.301,114.956,73.627z"/>
	<path d="M112.257,75.719c0.21,0.589,0.42,1.179,0.63,1.768c0.3,0.845,0.6,1.69,0.898,2.537c0.059,0.167,0.278,1.213,0.441,1.285
		c0.275-0.587,0.551-1.174,0.826-1.76c0.153-0.326,0.702-1.066,0.578-1.432c-0.458-1.345-0.915-2.691-1.373-4.036
		C113.941,74.259,112.118,75.332,112.257,75.719z"/>
	<path d="M113.511,82.828c0.279-0.583,0.044-0.84-0.183-1.454c-0.619-1.676-1.228-3.355-1.837-5.034
		c-0.463,0.526-1.67,1.541-1.413,2.307c0.255,0.761,0.521,1.519,0.784,2.278c0.494,1.422,0.99,2.843,1.487,4.264
		C112.74,84.404,113.132,83.619,113.511,82.828z"/>
	<path d="M110.792,88.52c0.365-0.765,0.731-1.53,1.096-2.295c0.12-0.251-0.487-1.405-0.576-1.655
		c-0.616-1.741-1.232-3.481-1.848-5.221C108.057,82.38,108.324,86.116,110.792,88.52z"/>
	<path d="M120.524,76.1c-0.042-0.532-0.165-1.057-0.294-1.574c-0.228-0.914-0.652-1.913-0.645-2.867
		c-0.849,1.998-1.698,3.997-2.547,5.995c1.042-0.464,2.083-0.929,3.125-1.393C120.22,76.235,120.492,76.162,120.524,76.1z"/>
	<path d="M120.656,76.924c-1.305,0.562-2.61,1.125-3.915,1.687c-0.355,0.153-0.535,1.055-0.675,1.388
		c-0.251,0.598-0.502,1.195-0.753,1.793c0.163,0.072,1.086-0.466,1.25-0.534c0.827-0.347,1.656-0.691,2.484-1.034
		c0.578-0.24,1.156-0.479,1.734-0.718C121.161,79.348,120.734,77.276,120.656,76.924z"/>
	<path d="M120.834,80.49c-1.654,0.674-3.309,1.347-4.967,2.012c-0.607,0.243-0.956,0.241-1.202,0.839
		c-0.333,0.811-0.653,1.628-0.972,2.445c1.388-0.584,2.775-1.168,4.161-1.755c0.739-0.313,1.48-0.624,2.216-0.945
		C120.811,82.762,120.753,81.186,120.834,80.49z"/>
	<path d="M119.96,84.01c-1.704,0.71-3.409,1.419-5.113,2.129c-0.245,0.102-1.508,0.426-1.614,0.683
		c-0.323,0.784-0.646,1.568-0.969,2.352C115.702,89.393,118.653,87.087,119.96,84.01z"/>
	<path d="M131.565,67.441c-0.025,0.065,0.103,0.315,0.123,0.377c0.354,1.084,0.707,2.168,1.061,3.252
		c0.913-1.97,1.827-3.94,2.74-5.91c-0.702,0.645-1.728,1-2.559,1.443C132.46,66.855,131.988,67.116,131.565,67.441z"/>
	<path d="M130.393,73.838c0.059,0.167,0.278,1.213,0.441,1.285c0.275-0.587,0.551-1.174,0.826-1.76
		c0.153-0.326,0.702-1.066,0.578-1.432c-0.457-1.345-0.915-2.691-1.373-4.036c-0.314,0.177-2.137,1.25-1.999,1.637
		c0.21,0.589,0.42,1.179,0.63,1.768C129.796,72.147,130.095,72.992,130.393,73.838z"/>
	<path d="M130.119,76.642c0.279-0.583,0.044-0.84-0.183-1.454c-0.619-1.676-1.228-3.355-1.837-5.034
		c-0.463,0.526-1.67,1.541-1.413,2.307c0.255,0.761,0.521,1.519,0.784,2.278c0.494,1.422,0.99,2.843,1.487,4.264
		C129.349,78.218,129.741,77.433,130.119,76.642z"/>
	<path d="M128.497,80.039c0.12-0.251-0.487-1.405-0.576-1.655c-0.616-1.741-1.232-3.481-1.848-5.221
		c-1.408,3.032-1.14,6.768,1.328,9.172C127.766,81.569,128.132,80.804,128.497,80.039z"/>
	<path d="M137.132,69.914c-0.042-0.532-0.165-1.057-0.295-1.574c-0.228-0.914-0.652-1.913-0.645-2.867
		c-0.849,1.998-1.698,3.997-2.547,5.995c1.042-0.464,2.083-0.929,3.125-1.393C136.829,70.049,137.101,69.976,137.132,69.914z"/>
	<path d="M137.264,70.739c-1.305,0.562-2.61,1.125-3.915,1.687c-0.355,0.153-0.535,1.055-0.675,1.388
		c-0.251,0.598-0.502,1.195-0.753,1.793c0.163,0.072,1.086-0.466,1.25-0.534c0.827-0.347,1.656-0.691,2.484-1.034
		c0.578-0.24,1.156-0.479,1.734-0.718C137.77,73.163,137.343,71.09,137.264,70.739z"/>
	<path d="M137.443,74.304c-1.654,0.674-3.309,1.347-4.967,2.012c-0.606,0.243-0.956,0.241-1.202,0.839
		c-0.333,0.811-0.653,1.628-0.972,2.445c1.388-0.584,2.775-1.168,4.161-1.755c0.739-0.313,1.48-0.624,2.216-0.945
		C137.419,76.576,137.362,75,137.443,74.304z"/>
	<path d="M136.569,77.824c-1.704,0.71-3.409,1.419-5.114,2.129c-0.245,0.102-1.508,0.426-1.614,0.683
		c-0.323,0.784-0.646,1.568-0.969,2.352C132.311,83.207,135.262,80.901,136.569,77.824z"/>
	<path d="M137.003,98.418c-0.464,0.399-0.928,0.811-1.32,1.283c-0.012,0.079,0.195,0.328,0.233,0.392
		c0.67,1.128,1.34,2.255,2.01,3.382c0.529-2.441,1.057-4.881,1.586-7.322C138.886,97.055,137.824,97.711,137.003,98.418z"/>
	<path d="M136.798,108.506c0.161-0.728,0.322-1.456,0.483-2.183c0.09-0.405,0.519-1.373,0.287-1.752
		c-0.852-1.394-1.705-2.789-2.557-4.183c-0.308,0.278-2.084,1.941-1.831,2.341c0.384,0.608,0.768,1.217,1.152,1.826
		c0.55,0.872,1.099,1.745,1.647,2.62C136.087,107.348,136.597,108.466,136.798,108.506z"/>
	<path d="M136.378,110.39c0.166-0.724-0.163-0.954-0.571-1.585c-1.116-1.725-2.224-3.455-3.33-5.186
		c-0.386,0.707-1.486,2.15-1.004,2.945c0.479,0.79,0.967,1.574,1.454,2.358c0.912,1.471,1.827,2.941,2.743,4.41
		C135.911,112.352,136.153,111.373,136.378,110.39z"/>
	<path d="M134.762,117.462c0.217-0.951,0.435-1.901,0.652-2.852c0.071-0.312-0.9-1.454-1.063-1.712
		c-1.129-1.798-2.259-3.596-3.389-5.394C130.145,111.261,131.387,115.387,134.762,117.462z"/>
	<path d="M140.38,96.327c-0.449,2.456-0.899,4.913-1.348,7.369c1.052-0.784,2.103-1.567,3.155-2.35
		c0.06-0.045,0.347-0.195,0.366-0.273c-0.182-0.586-0.452-1.145-0.727-1.692C141.339,98.413,140.612,97.399,140.38,96.327z"/>
	<path d="M138.533,106.573c-0.131,0.734-0.262,1.468-0.393,2.201c0.201,0.04,1.101-0.797,1.268-0.914
		c0.841-0.597,1.684-1.192,2.527-1.786c0.588-0.415,1.177-0.829,1.765-1.243c0.386-0.272-0.614-2.49-0.791-2.865
		c-1.323,0.96-2.646,1.92-3.968,2.88C138.581,105.106,138.606,106.164,138.533,106.573z"/>
	<path d="M144.007,105.922c-1.687,1.173-3.374,2.345-5.067,3.509c-0.619,0.426-1.012,0.512-1.137,1.244
		c-0.17,0.994-0.322,1.991-0.475,2.988c1.41-1.005,2.819-2.01,4.227-3.018c0.751-0.538,1.503-1.074,2.248-1.619
		C144.554,108.477,144.092,106.723,144.007,105.922z"/>
	<path d="M143.914,110.092c-1.734,1.226-3.468,2.451-5.202,3.677c-0.25,0.176-1.585,0.858-1.639,1.173
		c-0.165,0.961-0.33,1.922-0.495,2.883C140.492,117.205,143.223,113.874,143.914,110.092z"/>
	<path d="M119.927,102.451c-0.519,0.447-1.039,0.908-1.478,1.436c-0.013,0.088,0.218,0.367,0.261,0.439
		c0.75,1.262,1.5,2.524,2.25,3.787c0.592-2.733,1.183-5.465,1.775-8.197C122.034,100.925,120.846,101.659,119.927,102.451z"/>
	<path d="M119.696,113.746c0.18-0.815,0.361-1.63,0.541-2.445c0.101-0.453,0.582-1.537,0.322-1.961
		c-0.954-1.561-1.909-3.122-2.863-4.683c-0.345,0.311-2.333,2.174-2.05,2.621c0.43,0.681,0.86,1.362,1.29,2.044
		c0.616,0.977,1.231,1.954,1.843,2.934C118.901,112.449,119.472,113.701,119.696,113.746z"/>
	<path d="M119.227,115.855c0.186-0.811-0.182-1.068-0.64-1.775c-1.25-1.931-2.489-3.869-3.728-5.807
		c-0.433,0.792-1.664,2.407-1.124,3.297c0.536,0.884,1.083,1.762,1.628,2.641c1.021,1.647,2.046,3.293,3.071,4.938
		C118.704,118.052,118.975,116.956,119.227,115.855z"/>
	<path d="M117.417,123.773c0.243-1.064,0.486-2.129,0.73-3.193c0.079-0.349-1.008-1.628-1.19-1.917
		c-1.264-2.013-2.53-4.026-3.795-6.039C112.248,116.83,113.639,121.45,117.417,123.773z"/>
	<path d="M123.707,100.11c-0.503,2.75-1.006,5.5-1.51,8.251c1.177-0.877,2.355-1.754,3.533-2.632c0.067-0.05,0.388-0.219,0.41-0.305
		c-0.203-0.656-0.506-1.282-0.814-1.894C124.782,102.446,123.967,101.31,123.707,100.11z"/>
	<path d="M121.639,111.581c-0.146,0.821-0.293,1.643-0.44,2.465c0.225,0.045,1.233-0.892,1.419-1.024
		c0.942-0.669,1.885-1.335,2.829-2c0.659-0.464,1.318-0.928,1.976-1.392c0.433-0.305-0.687-2.788-0.886-3.208
		c-1.481,1.075-2.962,2.149-4.443,3.224C121.693,109.939,121.721,111.124,121.639,111.581z"/>
	<path d="M127.769,110.852c-1.888,1.313-3.777,2.626-5.673,3.929c-0.693,0.477-1.133,0.573-1.273,1.393
		c-0.19,1.113-0.361,2.229-0.532,3.346c1.579-1.125,3.156-2.251,4.733-3.379c0.84-0.602,1.683-1.202,2.517-1.813
		C128.38,113.714,127.863,111.75,127.769,110.852z"/>
	<path d="M127.664,115.521c-1.941,1.372-3.882,2.745-5.824,4.117c-0.279,0.198-1.775,0.96-1.835,1.313
		c-0.184,1.076-0.369,2.152-0.554,3.228C123.833,123.486,126.89,119.756,127.664,115.521z"/>
	<path d="M110.405,41.076c-0.02,0.052,0.083,0.255,0.099,0.305c0.286,0.876,0.572,1.752,0.857,2.628
		c0.738-1.592,1.476-3.183,2.214-4.775c-0.568,0.521-1.396,0.808-2.068,1.166C111.128,40.603,110.747,40.814,110.405,41.076z"/>
	<path d="M109.458,46.246c0.048,0.135,0.225,0.98,0.356,1.039c0.222-0.474,0.445-0.948,0.667-1.422
		c0.124-0.264,0.567-0.861,0.467-1.157c-0.37-1.087-0.74-2.174-1.109-3.261c-0.254,0.143-1.727,1.01-1.615,1.323
		c0.17,0.476,0.339,0.953,0.509,1.429C108.975,44.879,109.218,45.562,109.458,46.246z"/>
	<path d="M109.237,48.511c0.225-0.471,0.035-0.679-0.148-1.175c-0.5-1.354-0.993-2.711-1.485-4.068
		c-0.374,0.425-1.349,1.245-1.142,1.864c0.207,0.615,0.421,1.228,0.634,1.841c0.399,1.149,0.8,2.297,1.202,3.445
		C108.615,49.785,108.931,49.151,109.237,48.511z"/>
	<path d="M107.926,51.256c0.097-0.203-0.393-1.135-0.465-1.337c-0.498-1.406-0.995-2.813-1.493-4.219
		c-1.138,2.45-0.922,5.469,1.073,7.411C107.336,52.492,107.631,51.874,107.926,51.256z"/>
	<path d="M114.904,43.075c-0.034-0.43-0.134-0.854-0.238-1.272c-0.185-0.739-0.527-1.546-0.521-2.316
		c-0.686,1.615-1.372,3.229-2.058,4.844c0.842-0.375,1.683-0.75,2.525-1.126C114.659,43.184,114.878,43.125,114.904,43.075z"/>
	<path d="M115.01,43.741c-1.054,0.454-2.109,0.909-3.163,1.363c-0.287,0.123-0.433,0.853-0.546,1.122
		c-0.203,0.483-0.406,0.966-0.608,1.449c0.131,0.058,0.878-0.377,1.01-0.432c0.668-0.28,1.338-0.558,2.007-0.836
		c0.467-0.194,0.934-0.387,1.401-0.58C115.419,45.7,115.074,44.025,115.01,43.741z"/>
	<path d="M115.155,46.622c-1.337,0.544-2.674,1.089-4.013,1.626c-0.49,0.196-0.773,0.195-0.971,0.678
		c-0.269,0.656-0.527,1.315-0.786,1.975c1.121-0.472,2.242-0.944,3.362-1.418c0.597-0.253,1.196-0.505,1.79-0.764
		C115.136,48.458,115.089,47.185,115.155,46.622z"/>
	<path d="M114.448,49.467c-1.377,0.573-2.754,1.147-4.132,1.72c-0.198,0.083-1.219,0.344-1.304,0.552
		c-0.261,0.634-0.522,1.267-0.783,1.9C111.008,53.816,113.393,51.953,114.448,49.467z"/>
	<path d="M105.276,4.986c-0.012,0.031,0.05,0.153,0.06,0.183c0.172,0.526,0.343,1.051,0.514,1.576
		c0.443-0.955,0.885-1.91,1.328-2.864c-0.34,0.313-0.838,0.484-1.24,0.7C105.709,4.702,105.481,4.828,105.276,4.986z"/>
	<path d="M103.967,6c0.102,0.286,0.204,0.571,0.305,0.857c0.146,0.41,0.291,0.819,0.435,1.229c0.028,0.081,0.135,0.588,0.214,0.623
		c0.133-0.284,0.267-0.569,0.4-0.853c0.074-0.158,0.34-0.517,0.28-0.694c-0.222-0.652-0.444-1.304-0.665-1.956
		C104.784,5.292,103.9,5.813,103.967,6z"/>
	<path d="M102.911,7.419c0.124,0.369,0.252,0.736,0.38,1.104c0.239,0.689,0.48,1.378,0.721,2.067c0.19-0.38,0.38-0.761,0.563-1.144
		c0.135-0.283,0.021-0.407-0.089-0.705c-0.3-0.812-0.595-1.626-0.891-2.44C103.372,6.556,102.786,7.048,102.911,7.419z"/>
	<path d="M103.257,12.205c0.177-0.371,0.354-0.742,0.531-1.113c0.058-0.122-0.236-0.681-0.279-0.802
		c-0.298-0.844-0.597-1.687-0.896-2.531C101.931,9.229,102.061,11.04,103.257,12.205z"/>
	<path d="M107.519,4.033c-0.412,0.969-0.823,1.937-1.235,2.906c0.505-0.225,1.01-0.45,1.515-0.675
		c0.029-0.013,0.161-0.048,0.176-0.078c-0.021-0.258-0.08-0.512-0.143-0.763C107.721,4.979,107.515,4.495,107.519,4.033z"/>
	<path d="M106.141,7.402c-0.172,0.074-0.26,0.512-0.327,0.673c-0.122,0.29-0.243,0.579-0.365,0.869
		c0.079,0.035,0.526-0.226,0.606-0.259c0.401-0.168,0.803-0.335,1.204-0.501c0.28-0.116,0.56-0.232,0.841-0.348
		c0.184-0.076-0.023-1.081-0.061-1.251C107.406,6.857,106.773,7.13,106.141,7.402z"/>
	<path d="M107.754,9.571c0.359-0.156,0.331-0.92,0.371-1.258c-0.802,0.327-1.604,0.653-2.407,0.975
		c-0.294,0.118-0.464,0.117-0.583,0.407c-0.162,0.393-0.316,0.789-0.471,1.185c0.672-0.283,1.345-0.566,2.017-0.851
		C107.039,9.877,107.397,9.726,107.754,9.571z"/>
	<path d="M103.971,12.522c1.667,0.106,3.097-1.011,3.73-2.503c-0.826,0.344-1.652,0.688-2.478,1.032
		c-0.119,0.049-0.731,0.206-0.782,0.331C104.284,11.762,104.127,12.142,103.971,12.522z"/>
	<path d="M119.19,15.719c-0.431,0.167-0.956,0.147-1.41,0.2c-0.256,0.03-0.515,0.065-0.764,0.137
		c-0.023,0.025-0.009,0.161-0.011,0.192c-0.031,0.552-0.063,1.104-0.094,1.655C117.671,17.175,118.43,16.447,119.19,15.719z"/>
	<path d="M115.428,16.525c-0.009,0.303-0.018,0.606-0.027,0.909c-0.013,0.435-0.027,0.869-0.042,1.304
		c-0.003,0.086-0.088,0.597-0.028,0.658c0.228-0.216,0.456-0.433,0.683-0.649c0.127-0.12,0.505-0.357,0.513-0.545
		c0.031-0.688,0.061-1.376,0.092-2.064C116.447,16.163,115.434,16.326,115.428,16.525z"/>
	<path d="M113.928,17.462c-0.019,0.389-0.033,0.778-0.048,1.167c-0.028,0.729-0.054,1.458-0.08,2.187
		c0.315-0.285,0.63-0.57,0.941-0.861c0.229-0.214,0.168-0.372,0.174-0.689c0.016-0.866,0.037-1.731,0.058-2.597
		C114.672,16.826,113.948,17.071,113.928,17.462z"/>
	<path d="M112.51,22.046c0.3-0.281,0.6-0.562,0.9-0.843c0.098-0.092,0.028-0.72,0.032-0.849c0.029-0.894,0.058-1.789,0.086-2.683
		C112.358,18.792,111.82,20.526,112.51,22.046z"/>
	<path d="M118.902,18.163c0.031-0.002,0.167,0.013,0.192-0.009c0.075-0.248,0.112-0.507,0.145-0.762
		c0.058-0.453,0.043-0.979,0.214-1.408c-0.736,0.753-1.472,1.505-2.207,2.258C117.797,18.215,118.35,18.189,118.902,18.163z"/>
	<path d="M116.394,19.129c-0.219,0.226-0.438,0.451-0.656,0.677c0.061,0.061,0.573-0.019,0.658-0.021
		c0.435-0.011,0.869-0.02,1.304-0.029c0.303-0.006,0.606-0.013,0.91-0.018c0.199-0.004,0.372-1.015,0.398-1.188
		c-0.688,0.024-1.377,0.048-2.065,0.072C116.756,18.628,116.515,19.004,116.394,19.129z"/>
	<path d="M114.302,21.323c0.729-0.019,1.459-0.038,2.188-0.059c0.389-0.011,0.778-0.021,1.167-0.036
		c0.391-0.015,0.643-0.737,0.803-1.037c-0.866,0.013-1.731,0.025-2.597,0.033c-0.317,0.003-0.474-0.06-0.691,0.167
		C114.879,20.698,114.591,21.011,114.302,21.323z"/>
	<path d="M114.761,21.686c-0.129,0.003-0.756-0.074-0.849,0.024c-0.284,0.297-0.568,0.594-0.852,0.891
		c1.514,0.705,3.253,0.184,4.385-0.974C116.55,21.646,115.656,21.666,114.761,21.686z"/>
	<path d="M124.298,21.782c-0.431,0.167-0.957,0.147-1.41,0.2c-0.256,0.03-0.515,0.065-0.764,0.137
		c-0.023,0.025-0.009,0.161-0.011,0.192c-0.031,0.552-0.063,1.104-0.094,1.655C122.779,23.238,123.538,22.51,124.298,21.782z"/>
	<path d="M120.536,22.588c-0.009,0.303-0.018,0.606-0.027,0.909c-0.013,0.435-0.027,0.869-0.042,1.304
		c-0.003,0.086-0.088,0.597-0.028,0.658c0.228-0.216,0.456-0.433,0.683-0.649c0.127-0.12,0.505-0.357,0.513-0.545
		c0.031-0.688,0.061-1.376,0.092-2.064C121.555,22.226,120.542,22.389,120.536,22.588z"/>
	<path d="M119.036,23.525c-0.019,0.389-0.033,0.778-0.048,1.167c-0.028,0.729-0.054,1.458-0.08,2.187
		c0.315-0.285,0.63-0.57,0.941-0.861c0.229-0.214,0.168-0.372,0.174-0.689c0.016-0.866,0.037-1.731,0.058-2.597
		C119.779,22.889,119.055,23.134,119.036,23.525z"/>
	<path d="M118.518,27.266c0.098-0.092,0.028-0.72,0.032-0.849c0.029-0.894,0.057-1.789,0.086-2.683
		c-1.17,1.12-1.708,2.855-1.018,4.375C117.918,27.828,118.218,27.547,118.518,27.266z"/>
	<path d="M124.202,24.217c0.075-0.248,0.112-0.507,0.145-0.762c0.058-0.453,0.043-0.979,0.214-1.408
		c-0.736,0.753-1.472,1.505-2.207,2.258c0.552-0.026,1.104-0.052,1.656-0.078C124.041,24.225,124.177,24.24,124.202,24.217z"/>
	<path d="M121.501,25.192c-0.219,0.226-0.437,0.451-0.656,0.677c0.061,0.061,0.573-0.019,0.658-0.021
		c0.435-0.011,0.869-0.02,1.304-0.029c0.303-0.006,0.606-0.013,0.91-0.018c0.199-0.004,0.372-1.015,0.398-1.188
		c-0.688,0.024-1.377,0.048-2.065,0.072C121.864,24.691,121.623,25.067,121.501,25.192z"/>
	<path d="M119.41,27.386c0.729-0.019,1.459-0.038,2.188-0.059c0.389-0.011,0.778-0.021,1.167-0.036
		c0.392-0.015,0.643-0.737,0.803-1.037c-0.866,0.013-1.732,0.025-2.597,0.033c-0.317,0.003-0.474-0.06-0.691,0.167
		C119.987,26.761,119.698,27.074,119.41,27.386z"/>
	<path d="M119.869,27.749c-0.129,0.003-0.756-0.074-0.849,0.024c-0.284,0.297-0.568,0.594-0.852,0.891
		c1.514,0.705,3.253,0.184,4.385-0.974C121.658,27.709,120.763,27.729,119.869,27.749z"/>
	<path d="M106.559,15.08c-0.014,0.038,0.062,0.184,0.074,0.22c0.214,0.633,0.428,1.265,0.642,1.897
		c0.522-1.159,1.044-2.318,1.566-3.477c-0.407,0.382-1.005,0.596-1.489,0.861C107.079,14.731,106.805,14.887,106.559,15.08z"/>
	<path d="M106.152,15.351c-0.183,0.106-1.243,0.746-1.16,0.972c0.127,0.344,0.254,0.687,0.38,1.031
		c0.181,0.493,0.362,0.986,0.542,1.479c0.036,0.097,0.171,0.708,0.266,0.75c0.157-0.345,0.315-0.691,0.472-1.036
		c0.088-0.192,0.404-0.629,0.329-0.842C106.705,16.92,106.428,16.136,106.152,15.351z"/>
	<path d="M103.735,18.05c0.155,0.444,0.315,0.886,0.474,1.328c0.298,0.829,0.598,1.658,0.898,2.487
		c0.224-0.462,0.448-0.924,0.665-1.39c0.16-0.343,0.02-0.492-0.116-0.85c-0.373-0.977-0.741-1.956-1.108-2.935
		C104.28,17.002,103.58,17.604,103.735,18.05z"/>
	<path d="M104.844,22.475c0.068-0.148-0.294-0.819-0.348-0.965c-0.372-1.015-0.744-2.03-1.116-3.045
		c-0.805,1.784-0.624,3.97,0.836,5.361C104.426,23.376,104.635,22.926,104.844,22.475z"/>
	<path d="M109.256,13.898c-0.484,1.175-0.969,2.351-1.453,3.526c0.607-0.279,1.214-0.557,1.82-0.836
		c0.035-0.016,0.193-0.06,0.211-0.097c-0.028-0.311-0.104-0.618-0.183-0.919C109.512,15.039,109.258,14.457,109.256,13.898z"/>
	<path d="M107.636,17.987c-0.207,0.092-0.307,0.621-0.386,0.817c-0.143,0.351-0.286,0.703-0.429,1.054
		c0.096,0.041,0.633-0.28,0.728-0.321c0.482-0.208,0.965-0.415,1.448-0.622c0.337-0.144,0.674-0.288,1.011-0.432
		c0.221-0.094-0.042-1.305-0.09-1.51C109.157,17.312,108.396,17.649,107.636,17.987z"/>
	<path d="M105.898,22.207c0.809-0.351,1.617-0.702,2.425-1.055c0.431-0.188,0.862-0.375,1.291-0.568
		c0.432-0.194,0.388-1.116,0.431-1.524c-0.964,0.405-1.928,0.81-2.895,1.21c-0.353,0.146-0.558,0.148-0.698,0.499
		C106.261,21.246,106.08,21.726,105.898,22.207z"/>
	<path d="M109.556,21.127c-0.993,0.426-1.987,0.853-2.98,1.28c-0.143,0.061-0.88,0.259-0.94,0.41
		c-0.184,0.461-0.368,0.922-0.552,1.383C107.098,24.306,108.811,22.937,109.556,21.127z"/>
	<path d="M118.552,34.228c0.012,0.039,0.16,0.11,0.192,0.131c0.551,0.377,1.102,0.753,1.654,1.13c-0.28-1.24-0.559-2.48-0.839-3.72
		c-0.096,0.55-0.445,1.081-0.672,1.584C118.758,33.636,118.633,33.926,118.552,34.228z"/>
	<path d="M118.047,36.163c0.308,0.198,0.616,0.397,0.924,0.596c0.441,0.285,0.882,0.57,1.322,0.856
		c0.087,0.057,0.562,0.463,0.663,0.439c-0.082-0.37-0.164-0.741-0.245-1.112c-0.045-0.206-0.055-0.745-0.243-0.87
		c-0.693-0.461-1.385-0.922-2.078-1.383C118.307,34.883,117.845,36.032,118.047,36.163z"/>
	<path d="M119.259,39.076c0.737,0.483,1.475,0.966,2.213,1.448c-0.099-0.504-0.197-1.008-0.304-1.51
		c-0.079-0.37-0.28-0.406-0.604-0.609c-0.885-0.557-1.768-1.118-2.65-1.68c-0.027,0.409-0.225,1.311,0.168,1.575
		C118.472,38.561,118.865,38.818,119.259,39.076z"/>
	<path d="M121.938,42.625c-0.104-0.485-0.207-0.971-0.311-1.456c-0.034-0.159-0.728-0.478-0.858-0.562
		c-0.907-0.588-1.815-1.175-2.722-1.763C118.477,40.753,119.935,42.391,121.938,42.625z"/>
	<path d="M122.019,33.387c-0.21-0.232-0.454-0.432-0.698-0.625c-0.433-0.343-0.986-0.655-1.323-1.1
		c0.32,1.23,0.639,2.461,0.959,3.691c0.317-0.587,0.635-1.175,0.952-1.762C121.926,33.558,122.026,33.427,122.019,33.387z"/>
	<path d="M121.634,37.889c0.101-0.025,0.338-0.604,0.389-0.694c0.26-0.456,0.522-0.912,0.783-1.367
		c0.183-0.318,0.365-0.635,0.548-0.953c0.12-0.209-0.818-1.018-0.98-1.153c-0.405,0.727-0.809,1.454-1.214,2.181
		c-0.11,0.198,0.129,0.681,0.182,0.885C121.44,37.156,121.537,37.523,121.634,37.889z"/>
	<path d="M123.612,38.02c0.231-0.409,0.464-0.818,0.691-1.23c0.229-0.414-0.361-1.125-0.572-1.477
		c-0.527,0.903-1.054,1.807-1.586,2.707c-0.195,0.329-0.357,0.453-0.258,0.818c0.135,0.495,0.279,0.988,0.422,1.482
		C122.743,39.554,123.178,38.788,123.612,38.02z"/>
	<path d="M124.582,37.259c-0.537,0.938-1.075,1.876-1.612,2.814c-0.077,0.135-0.548,0.736-0.505,0.893
		c0.13,0.479,0.26,0.958,0.39,1.437C124.529,41.277,125.074,39.153,124.582,37.259z"/>
	<path d="M148.063,61.155c-0.581,0.534-1.43,0.827-2.118,1.194c-0.389,0.207-0.779,0.423-1.129,0.692
		c-0.021,0.054,0.085,0.261,0.102,0.312c0.293,0.897,0.585,1.794,0.878,2.691C146.552,64.415,147.307,62.785,148.063,61.155z"/>
	<path d="M142.582,64.773c0.174,0.488,0.348,0.975,0.521,1.463c0.249,0.699,0.497,1.398,0.743,2.099
		c0.049,0.138,0.23,1.004,0.365,1.063c0.228-0.485,0.456-0.971,0.683-1.456c0.127-0.27,0.581-0.882,0.478-1.184
		c-0.379-1.113-0.757-2.226-1.136-3.339C143.977,63.564,142.468,64.452,142.582,64.773z"/>
	<path d="M143.62,70.654c0.231-0.482,0.036-0.695-0.151-1.203c-0.512-1.387-1.016-2.776-1.52-4.165
		c-0.383,0.436-1.382,1.275-1.169,1.909c0.211,0.63,0.431,1.257,0.649,1.885c0.409,1.177,0.819,2.352,1.23,3.528
		C142.983,71.958,143.307,71.309,143.62,70.654z"/>
	<path d="M142.278,73.465c0.099-0.208-0.403-1.162-0.476-1.37c-0.51-1.44-1.019-2.88-1.529-4.32c-1.165,2.508-0.944,5.6,1.099,7.589
		C141.673,74.731,141.975,74.098,142.278,73.465z"/>
	<path d="M149.423,65.088c-0.035-0.44-0.137-0.875-0.244-1.302c-0.189-0.757-0.54-1.583-0.534-2.372
		c-0.702,1.654-1.405,3.307-2.108,4.96c0.862-0.384,1.723-0.768,2.585-1.153C149.172,65.199,149.397,65.139,149.423,65.088z"/>
	<path d="M149.532,65.77c-1.08,0.465-2.159,0.931-3.239,1.396c-0.294,0.126-0.443,0.873-0.559,1.149
		c-0.208,0.494-0.415,0.989-0.623,1.483c0.135,0.06,0.899-0.386,1.034-0.442c0.685-0.287,1.37-0.571,2.056-0.856
		c0.478-0.198,0.957-0.397,1.435-0.594C149.95,67.776,149.597,66.061,149.532,65.77z"/>
	<path d="M149.679,68.72c-1.369,0.557-2.738,1.115-4.11,1.665c-0.502,0.201-0.791,0.2-0.994,0.694
		c-0.276,0.671-0.54,1.347-0.805,2.023c1.148-0.483,2.296-0.967,3.443-1.452c0.612-0.259,1.224-0.517,1.833-0.782
		C149.66,70.6,149.612,69.296,149.679,68.72z"/>
	<path d="M148.957,71.633c-1.41,0.587-2.821,1.174-4.231,1.762c-0.203,0.085-1.248,0.352-1.335,0.565
		c-0.267,0.649-0.534,1.297-0.802,1.946C145.434,76.087,147.875,74.178,148.957,71.633z"/>
	<path d="M166.943,74.547c-0.685-0.287-1.3-0.917-1.9-1.371c-0.339-0.257-0.686-0.511-1.057-0.707
		c-0.052,0.005-0.169,0.189-0.203,0.226c-0.582,0.648-1.164,1.296-1.745,1.945C163.672,74.608,165.307,74.577,166.943,74.547z"/>
	<path d="M159.341,73.891c-0.088,0.103-0.695,0.639-0.682,0.784c0.488-0.007,0.977-0.013,1.465-0.02
		c0.272-0.004,0.962,0.137,1.156-0.086c0.715-0.818,1.43-1.636,2.145-2.454c-0.233-0.169-1.616-1.129-1.82-0.889
		c-0.31,0.366-0.619,0.731-0.929,1.096C160.232,72.846,159.787,73.369,159.341,73.891z"/>
	<path d="M157.663,72.057c-0.752,0.872-1.503,1.746-2.253,2.62c0.662,0.008,1.323,0.017,1.985,0.013
		c0.487-0.003,0.569-0.268,0.888-0.654c0.873-1.055,1.751-2.105,2.629-3.154c-0.518-0.153-1.634-0.681-2.042-0.217
		C158.465,71.126,158.064,71.592,157.663,72.057z"/>
	<path d="M152.641,74.721c0.639-0.004,1.278-0.008,1.917-0.012c0.209-0.001,0.743-0.861,0.875-1.016
		c0.916-1.076,1.832-2.152,2.749-3.229C155.664,70.509,153.305,72.042,152.641,74.721z"/>
	<path d="M164.185,77.248c0.04,0.034,0.189,0.209,0.241,0.21c0.334-0.221,0.634-0.5,0.926-0.78c0.517-0.495,1.016-1.165,1.646-1.5
		c-1.63,0.088-3.26,0.176-4.89,0.264C162.801,76.044,163.493,76.646,164.185,77.248z"/>
	<path d="M161.369,75.566c-0.232-0.207-0.893-0.018-1.164-0.002c-0.486,0.029-0.973,0.057-1.459,0.086
		c0.013,0.146,0.71,0.634,0.816,0.73c0.535,0.486,1.069,0.974,1.603,1.462c0.373,0.341,0.745,0.681,1.117,1.022
		c0.244,0.224,1.449-0.831,1.651-1.015C163.078,77.088,162.223,76.327,161.369,75.566z"/>
	<path d="M157.486,75.726c-0.658,0.044-1.314,0.101-1.97,0.157c0.899,0.814,1.799,1.628,2.7,2.441
		c0.481,0.433,0.96,0.868,1.445,1.296c0.488,0.431,1.503-0.175,1.991-0.364c-1.058-0.979-2.115-1.958-3.169-2.943
		C158.099,75.952,157.971,75.693,157.486,75.726z"/>
	<path d="M154.664,75.914c-0.636,0.042-1.271,0.084-1.907,0.126c1.133,2.614,3.746,3.965,6.256,3.829
		c-1.1-1.003-2.2-2.006-3.3-3.009C155.554,76.715,154.873,75.9,154.664,75.914z"/>
	<path d="M133.16,29.434c-0.015,0.038,0.06,0.185,0.072,0.221c0.207,0.635,0.414,1.269,0.621,1.904
		c0.535-1.153,1.069-2.307,1.604-3.46c-0.411,0.378-1.012,0.585-1.499,0.845C133.684,29.091,133.407,29.243,133.16,29.434z"/>
	<path d="M131.579,30.659c0.123,0.345,0.246,0.69,0.369,1.035c0.176,0.495,0.351,0.99,0.526,1.485
		c0.034,0.098,0.163,0.71,0.258,0.752c0.161-0.344,0.322-0.687,0.484-1.031c0.09-0.191,0.411-0.624,0.338-0.838
		c-0.268-0.788-0.536-1.575-0.804-2.363C132.566,29.804,131.498,30.432,131.579,30.659z"/>
	<path d="M130.303,32.373c0.15,0.446,0.305,0.889,0.459,1.334c0.289,0.833,0.58,1.665,0.871,2.497
		c0.229-0.459,0.459-0.919,0.68-1.382c0.163-0.341,0.025-0.492-0.107-0.851c-0.362-0.981-0.719-1.964-1.076-2.947
		C130.86,31.331,130.153,31.924,130.303,32.373z"/>
	<path d="M130.722,38.154c0.214-0.448,0.428-0.896,0.642-1.344c0.07-0.147-0.285-0.823-0.337-0.969
		c-0.361-1.019-0.721-2.038-1.082-3.057C129.12,34.559,129.277,36.746,130.722,38.154z"/>
	<path d="M135.869,28.282c-0.497,1.17-0.994,2.34-1.492,3.51c0.61-0.272,1.22-0.544,1.829-0.816
		c0.035-0.016,0.194-0.058,0.212-0.095c-0.025-0.312-0.097-0.619-0.172-0.921C136.113,29.425,135.865,28.84,135.869,28.282z"/>
	<path d="M134.205,32.352c-0.208,0.089-0.313,0.618-0.395,0.813c-0.147,0.35-0.294,0.7-0.441,1.05
		c0.095,0.042,0.636-0.273,0.732-0.313c0.484-0.203,0.969-0.404,1.454-0.606c0.339-0.14,0.677-0.281,1.016-0.421
		c0.222-0.092-0.027-1.305-0.074-1.511C135.733,31.694,134.969,32.023,134.205,32.352z"/>
	<path d="M136.154,34.972c0.434-0.189,0.4-1.112,0.448-1.519c-0.969,0.394-1.937,0.789-2.908,1.178
		c-0.355,0.142-0.56,0.141-0.704,0.491c-0.195,0.475-0.382,0.953-0.569,1.431c0.812-0.342,1.625-0.684,2.436-1.028
		C135.289,35.342,135.723,35.159,136.154,34.972z"/>
	<path d="M132.151,37.159c-0.189,0.459-0.378,0.918-0.567,1.377c2.013,0.129,3.741-1.222,4.506-3.023
		c-0.998,0.415-1.996,0.831-2.994,1.247C132.952,36.82,132.213,37.009,132.151,37.159z"/>
	<path d="M151.887,54.014c-0.41-0.379-0.666-0.96-0.965-1.424c-0.168-0.262-0.344-0.525-0.554-0.756
		c-0.039-0.011-0.179,0.075-0.214,0.09c-0.616,0.258-1.231,0.517-1.847,0.775C149.5,53.137,150.694,53.575,151.887,54.014z"/>
	<path d="M146.579,51.456c-0.095,0.042-0.695,0.22-0.729,0.319c0.355,0.133,0.711,0.265,1.067,0.398
		c0.198,0.074,0.656,0.359,0.863,0.268c0.763-0.331,1.526-0.663,2.289-0.994c-0.118-0.175-0.832-1.187-1.051-1.088
		c-0.334,0.151-0.668,0.302-1.002,0.452C147.538,51.026,147.059,51.242,146.579,51.456z"/>
	<path d="M143.497,50.866c0.477,0.191,0.953,0.382,1.433,0.565c0.354,0.135,0.493-0.015,0.84-0.176
		c0.948-0.441,1.899-0.877,2.85-1.313c-0.329-0.245-0.979-0.901-1.414-0.714c-0.432,0.185-0.861,0.377-1.292,0.567
		C145.108,50.15,144.302,50.507,143.497,50.866z"/>
	<path d="M141.479,50.117c0.464,0.177,0.928,0.353,1.392,0.53c0.152,0.058,0.797-0.351,0.938-0.415
		c0.986-0.443,1.972-0.886,2.958-1.328C144.931,48.226,142.763,48.562,141.479,50.117z"/>
	<path d="M151.738,54.44c-1.207-0.4-2.414-0.8-3.62-1.199c0.321,0.586,0.642,1.171,0.963,1.757c0.018,0.033,0.074,0.189,0.112,0.204
		c0.308-0.05,0.609-0.147,0.904-0.247C150.619,54.776,151.181,54.481,151.738,54.44z"/>
	<path d="M146.703,52.786c-0.361-0.118-0.722-0.236-1.082-0.353c-0.034,0.098,0.324,0.611,0.372,0.704
		c0.242,0.466,0.482,0.933,0.723,1.4c0.167,0.326,0.335,0.652,0.502,0.978c0.11,0.214,1.299-0.134,1.5-0.197
		c-0.391-0.734-0.781-1.469-1.172-2.204C147.439,52.914,146.904,52.852,146.703,52.786z"/>
	<path d="M144.686,52.129c-0.489-0.156-0.981-0.303-1.473-0.45c0.407,0.782,0.815,1.563,1.224,2.344
		c0.218,0.416,0.435,0.834,0.658,1.248c0.224,0.417,1.141,0.308,1.551,0.322c-0.472-0.933-0.945-1.866-1.412-2.802
		C145.062,52.448,145.047,52.244,144.686,52.129z"/>
	<path d="M142.586,51.46c-0.473-0.151-0.946-0.302-1.419-0.453c0.036,2.017,1.524,3.628,3.382,4.244
		c-0.496-0.961-0.991-1.921-1.487-2.882C142.991,52.231,142.741,51.509,142.586,51.46z"/>
	<path d="M156.166,61.077c0.439-1.193,0.877-2.386,1.316-3.58c-0.379,0.41-0.96,0.666-1.424,0.965
		c-0.262,0.169-0.525,0.344-0.756,0.554c-0.011,0.039,0.075,0.179,0.09,0.214C155.649,59.846,155.908,60.461,156.166,61.077z"/>
	<path d="M154.924,62.805c0.042,0.095,0.22,0.694,0.319,0.729c0.132-0.356,0.265-0.711,0.398-1.067
		c0.074-0.198,0.359-0.656,0.268-0.863c-0.331-0.763-0.663-1.526-0.994-2.289c-0.175,0.118-1.187,0.832-1.088,1.051
		c0.151,0.334,0.302,0.668,0.452,1.002C154.494,61.846,154.709,62.325,154.924,62.805z"/>
	<path d="M153.261,63.47c0.356,0.806,0.714,1.612,1.072,2.417c0.191-0.477,0.382-0.953,0.565-1.433
		c0.135-0.353-0.015-0.492-0.176-0.84c-0.441-0.948-0.877-1.899-1.313-2.85c-0.245,0.329-0.901,0.979-0.714,1.414
		C152.88,62.61,153.071,63.04,153.261,63.47z"/>
	<path d="M153.584,67.905c0.177-0.464,0.353-0.928,0.53-1.392c0.058-0.152-0.351-0.796-0.415-0.938
		c-0.443-0.986-0.885-1.972-1.328-2.958C151.694,64.453,152.029,66.621,153.584,67.905z"/>
	<path d="M158.464,60.304c0.033-0.018,0.188-0.074,0.204-0.112c-0.05-0.308-0.147-0.609-0.247-0.904
		c-0.177-0.523-0.472-1.085-0.514-1.642c-0.4,1.207-0.8,2.413-1.199,3.62C157.293,60.945,157.879,60.625,158.464,60.304z"/>
	<path d="M156.254,62.681c-0.118,0.361-0.236,0.721-0.353,1.082c0.099,0.034,0.611-0.324,0.704-0.372
		c0.466-0.242,0.933-0.482,1.4-0.723c0.326-0.168,0.652-0.335,0.978-0.502c0.214-0.11-0.134-1.299-0.197-1.5
		c-0.734,0.391-1.469,0.781-2.204,1.172C156.381,61.945,156.319,62.48,156.254,62.681z"/>
	<path d="M156.258,64.151c-0.342,0.171-0.546,0.187-0.661,0.547c-0.156,0.489-0.303,0.981-0.45,1.473
		c0.782-0.407,1.563-0.815,2.344-1.224c0.416-0.218,0.833-0.435,1.248-0.658c0.417-0.224,0.308-1.141,0.322-1.551
		C158.126,63.211,157.193,63.684,156.258,64.151z"/>
	<path d="M155.837,66.322c-0.138,0.071-0.86,0.321-0.909,0.476c-0.151,0.473-0.302,0.946-0.453,1.419
		c2.017-0.036,3.628-1.524,4.244-3.382C157.758,65.331,156.797,65.826,155.837,66.322z"/>
	<path d="M108.28,27.11c-0.019,0.049,0.078,0.239,0.093,0.286c0.268,0.821,0.536,1.643,0.804,2.464
		c0.692-1.493,1.384-2.985,2.076-4.477c-0.532,0.489-1.309,0.757-1.939,1.093C108.958,26.666,108.6,26.864,108.28,27.11z"/>
	<path d="M107.749,27.455c-0.238,0.134-1.62,0.947-1.515,1.241c0.159,0.446,0.318,0.893,0.477,1.34
		c0.228,0.64,0.455,1.281,0.68,1.922c0.045,0.127,0.211,0.919,0.334,0.974c0.208-0.444,0.417-0.889,0.626-1.334
		c0.116-0.247,0.532-0.808,0.438-1.085C108.442,29.493,108.095,28.474,107.749,27.455z"/>
	<path d="M104.583,30.913c0.193,0.577,0.395,1.151,0.594,1.726c0.374,1.077,0.75,2.154,1.127,3.231
		c0.297-0.595,0.594-1.189,0.88-1.788c0.211-0.442,0.033-0.637-0.138-1.102c-0.469-1.27-0.931-2.542-1.392-3.814
		C105.303,29.564,104.388,30.333,104.583,30.913z"/>
	<path d="M105.955,36.655c0.091-0.19-0.369-1.064-0.436-1.254c-0.466-1.319-0.933-2.637-1.4-3.956
		c-1.067,2.297-0.864,5.128,1.006,6.949C105.402,37.814,105.678,37.234,105.955,36.655z"/>
	<path d="M109.856,30.162c0.789-0.352,1.578-0.704,2.367-1.055c0.045-0.02,0.251-0.076,0.275-0.122
		c-0.032-0.403-0.125-0.801-0.223-1.192c-0.173-0.693-0.494-1.449-0.489-2.172C111.142,27.134,110.499,28.648,109.856,30.162z"/>
	<path d="M109.632,30.887c-0.269,0.116-0.406,0.8-0.512,1.052c-0.19,0.453-0.38,0.906-0.57,1.358
		c0.123,0.055,0.823-0.353,0.947-0.405c0.627-0.263,1.254-0.523,1.882-0.784c0.438-0.182,0.876-0.363,1.314-0.544
		c0.288-0.119-0.035-1.689-0.095-1.956C111.609,30.035,110.62,30.461,109.632,30.887z"/>
	<path d="M107.323,36.322c1.051-0.442,2.102-0.885,3.152-1.33c0.56-0.237,1.121-0.473,1.679-0.716
		c0.562-0.245,0.518-1.438,0.579-1.966c-1.253,0.51-2.507,1.021-3.763,1.524c-0.459,0.184-0.724,0.183-0.911,0.636
		C107.807,35.084,107.565,35.703,107.323,36.322z"/>
	<path d="M112.071,34.977c-1.291,0.538-2.583,1.075-3.874,1.613c-0.186,0.077-1.143,0.323-1.223,0.517
		c-0.244,0.594-0.489,1.188-0.734,1.782C108.845,39.055,111.081,37.308,112.071,34.977z"/>
	<path d="M137.994,53.794c-0.161-0.399-0.33-0.8-0.555-1.168c-0.05-0.026-0.262,0.056-0.314,0.067
		c-0.901,0.191-1.803,0.383-2.704,0.574c1.505,0.903,3.009,1.805,4.514,2.707C138.477,55.355,138.28,54.5,137.994,53.794z"/>
	<path d="M135.989,50.278c-0.492,0.118-0.983,0.237-1.475,0.355c-0.705,0.169-1.41,0.337-2.115,0.504
		c-0.139,0.033-0.998,0.12-1.07,0.244c0.448,0.271,0.896,0.543,1.344,0.814c0.249,0.151,0.796,0.655,1.101,0.587
		c1.12-0.252,2.24-0.505,3.36-0.757C137.018,51.757,136.312,50.2,135.989,50.278z"/>
	<path d="M131.353,50.655c1.4-0.354,2.801-0.7,4.202-1.045c-0.383-0.417-1.095-1.474-1.733-1.333
		c-0.633,0.14-1.265,0.288-1.897,0.435c-1.185,0.275-2.369,0.552-3.553,0.83c0.597,0.382,1.194,0.764,1.797,1.136
		C130.614,50.951,130.841,50.784,131.353,50.655z"/>
	<path d="M125.829,48.005c0.583,0.359,1.167,0.718,1.75,1.077c0.191,0.118,1.17-0.271,1.379-0.321
		c1.451-0.346,2.902-0.692,4.354-1.038C130.997,46.333,127.971,46.228,125.829,48.005z"/>
	<path d="M138.623,56.513c-1.533-0.853-3.066-1.707-4.599-2.56c0.284,0.877,0.568,1.753,0.852,2.63
		c0.016,0.05,0.052,0.275,0.099,0.305c0.431,0.011,0.864-0.042,1.29-0.102C137.019,56.681,137.858,56.426,138.623,56.513z"/>
	<path d="M132.223,52.972c-0.459-0.253-0.917-0.506-1.376-0.758c-0.072,0.125,0.281,0.912,0.322,1.05
		c0.208,0.694,0.413,1.39,0.618,2.085c0.143,0.485,0.286,0.97,0.429,1.455c0.094,0.319,1.795,0.154,2.085,0.12
		c-0.34-1.097-0.68-2.193-1.021-3.29C133.188,53.335,132.479,53.113,132.223,52.972z"/>
	<path d="M128.832,54.064c0.188,0.621,0.375,1.242,0.57,1.861c0.196,0.623,1.467,0.712,2.02,0.836
		c-0.4-1.387-0.799-2.774-1.191-4.163c-0.144-0.508-0.112-0.789-0.571-1.037c-0.623-0.337-1.252-0.664-1.881-0.991
		C128.128,51.735,128.479,52.9,128.832,54.064z"/>
	<path d="M128.667,55.758c-0.424-1.43-0.849-2.861-1.273-4.291c-0.061-0.206-0.213-1.248-0.41-1.355
		c-0.602-0.326-1.204-0.653-1.807-0.98C124.707,51.876,126.307,54.445,128.667,55.758z"/>
	<path d="M143.771,41.297c-0.048,0.002-0.171,0.152-0.204,0.182c-0.587,0.523-1.174,1.046-1.761,1.569
		c1.497,0.032,2.993,0.064,4.49,0.097c-0.602-0.265-1.109-0.815-1.619-1.217C144.388,41.7,144.093,41.474,143.771,41.297z"/>
	<path d="M141.703,40.171c-0.314,0.296-0.628,0.591-0.943,0.887c-0.451,0.423-0.902,0.846-1.354,1.268
		c-0.089,0.083-0.689,0.511-0.69,0.634c0.447,0.012,0.893,0.023,1.34,0.035c0.249,0.007,0.867,0.149,1.064-0.031
		c0.723-0.661,1.446-1.322,2.169-1.983C143.091,40.831,141.909,39.976,141.703,40.171z"/>
	<path d="M139.252,39.604c-0.41,0.372-0.816,0.749-1.222,1.125c-0.761,0.705-1.522,1.411-2.282,2.118
		c0.604,0.03,1.208,0.061,1.812,0.081c0.445,0.015,0.543-0.205,0.868-0.517c0.887-0.854,1.779-1.703,2.671-2.552
		C140.639,39.712,139.664,39.229,139.252,39.604z"/>
	<path d="M133.214,42.784c0.584,0.019,1.168,0.038,1.753,0.058c0.192,0.006,0.753-0.696,0.886-0.821
		c0.929-0.87,1.858-1.74,2.787-2.611C136.335,39.359,134.049,40.561,133.214,42.784z"/>
	<path d="M143.748,45.497c0.324-0.174,0.622-0.397,0.912-0.621c0.514-0.397,1.028-0.941,1.632-1.2
		c-1.497,0.016-2.994,0.032-4.49,0.048c0.581,0.529,1.162,1.059,1.744,1.588C143.579,45.343,143.7,45.494,143.748,45.497z"/>
	<path d="M140.052,43.759c-0.447,0.007-0.894,0.013-1.34,0.02c-0.001,0.123,0.595,0.557,0.683,0.641
		c0.448,0.427,0.894,0.855,1.34,1.283c0.311,0.299,0.622,0.598,0.933,0.897c0.204,0.196,1.395-0.646,1.596-0.793
		c-0.716-0.669-1.432-1.337-2.148-2.006C140.921,43.62,140.301,43.756,140.052,43.759z"/>
	<path d="M141.061,46.906c-0.883-0.859-1.766-1.717-2.644-2.581c-0.321-0.316-0.417-0.537-0.862-0.527
		c-0.604,0.014-1.209,0.038-1.813,0.062c0.752,0.715,1.505,1.429,2.259,2.143c0.402,0.38,0.803,0.762,1.209,1.138
		C139.62,47.52,140.599,47.048,141.061,46.906z"/>
	<path d="M135.838,44.687c-0.132-0.127-0.686-0.835-0.877-0.831c-0.584,0.013-1.169,0.026-1.753,0.038
		c0.812,2.232,3.084,3.458,5.389,3.433C137.677,46.448,136.758,45.567,135.838,44.687z"/>
	<path d="M127.992,65.109c-0.629-0.445-1.084-1.195-1.576-1.776c-0.278-0.328-0.564-0.657-0.893-0.935
		c-0.055-0.009-0.232,0.135-0.277,0.162c-0.796,0.464-1.592,0.928-2.388,1.392C124.569,64.338,126.28,64.724,127.992,65.109z"/>
	<path d="M123.41,60.622c-0.43,0.266-0.859,0.533-1.29,0.799c-0.616,0.381-1.233,0.762-1.851,1.141
		c-0.122,0.075-0.911,0.426-0.94,0.567c0.51,0.117,1.021,0.235,1.531,0.353c0.284,0.065,0.962,0.373,1.229,0.212
		c0.985-0.59,1.969-1.181,2.954-1.772C124.85,61.704,123.692,60.447,123.41,60.622z"/>
	<path d="M120.726,59.4c-0.558,0.331-1.111,0.67-1.666,1.007c-1.039,0.632-2.077,1.266-3.115,1.901
		c0.687,0.175,1.373,0.351,2.062,0.516c0.508,0.121,0.671-0.109,1.117-0.392c1.218-0.774,2.441-1.542,3.663-2.309
		C122.294,59.847,121.288,59.066,120.726,59.4z"/>
	<path d="M113.049,61.646c0.667,0.158,1.333,0.316,2,0.475c0.219,0.052,1.027-0.624,1.209-0.737c1.27-0.783,2.54-1.566,3.809-2.349
		C117.433,58.439,114.527,59.287,113.049,61.646z"/>
	<path d="M124.517,67.217c0.413-0.124,0.807-0.311,1.193-0.501c0.683-0.336,1.4-0.841,2.155-0.998
		c-1.723-0.33-3.446-0.661-5.169-0.991c0.544,0.744,1.088,1.487,1.633,2.231C124.359,67,124.463,67.203,124.517,67.217z"/>
	<path d="M123.889,67.462c-0.667-0.935-1.333-1.87-2-2.805c-0.181-0.254-0.925-0.243-1.211-0.297
		c-0.515-0.096-1.03-0.193-1.544-0.289c-0.029,0.141,0.553,0.778,0.635,0.896c0.415,0.594,0.828,1.19,1.24,1.786
		c0.288,0.416,0.575,0.832,0.863,1.248C122.06,68.274,123.624,67.584,123.889,67.462z"/>
	<path d="M118.667,64.63c-0.295-0.438-0.354-0.714-0.867-0.806c-0.698-0.125-1.397-0.238-2.097-0.352
		c0.697,0.997,1.396,1.993,2.095,2.988c0.373,0.531,0.745,1.062,1.124,1.589c0.381,0.53,1.616,0.216,2.18,0.162
		C120.288,67.018,119.475,65.826,118.667,64.63z"/>
	<path d="M118.173,68.12c-0.851-1.225-1.702-2.451-2.553-3.676c-0.122-0.176-0.593-1.119-0.814-1.159
		c-0.674-0.121-1.349-0.243-2.023-0.365C113.196,65.674,115.52,67.612,118.173,68.12z"/>
	<path d="M158.15,89.924c-0.458-0.62-0.655-1.474-0.94-2.18c-0.161-0.399-0.33-0.8-0.555-1.168c-0.05-0.026-0.262,0.056-0.314,0.067
		c-0.901,0.191-1.803,0.383-2.704,0.574C155.141,88.119,156.645,89.022,158.15,89.924z"/>
	<path d="M155.204,84.228c-0.491,0.118-0.983,0.237-1.475,0.355c-0.705,0.169-1.41,0.337-2.115,0.504
		c-0.139,0.033-0.998,0.12-1.07,0.244c0.448,0.271,0.896,0.543,1.344,0.814c0.249,0.151,0.796,0.655,1.101,0.587
		c1.12-0.252,2.24-0.505,3.36-0.757C156.233,85.707,155.527,84.15,155.204,84.228z"/>
	<path d="M147.587,83.491c0.597,0.382,1.194,0.764,1.797,1.136c0.444,0.274,0.672,0.107,1.184-0.022
		c1.4-0.354,2.801-0.7,4.202-1.045c-0.383-0.417-1.095-1.474-1.733-1.333c-0.633,0.14-1.265,0.288-1.897,0.435
		C149.956,82.936,148.772,83.213,147.587,83.491z"/>
	<path d="M145.044,81.955c0.583,0.359,1.167,0.718,1.75,1.077c0.191,0.118,1.17-0.271,1.379-0.321
		c1.451-0.346,2.902-0.692,4.354-1.038C150.212,80.283,147.186,80.178,145.044,81.955z"/>
	<path d="M154.19,90.838c0.431,0.011,0.864-0.042,1.29-0.102c0.754-0.105,1.593-0.36,2.359-0.273
		c-1.533-0.853-3.066-1.707-4.599-2.56c0.284,0.877,0.568,1.753,0.852,2.63C154.108,90.582,154.143,90.807,154.19,90.838z"/>
	<path d="M150.385,87.213c0.208,0.694,0.413,1.39,0.618,2.085c0.143,0.485,0.286,0.97,0.429,1.455
		c0.094,0.319,1.795,0.154,2.085,0.12c-0.34-1.097-0.68-2.193-1.021-3.29c-0.092-0.298-0.802-0.521-1.057-0.661
		c-0.459-0.253-0.917-0.506-1.376-0.758C149.99,86.288,150.344,87.076,150.385,87.213z"/>
	<path d="M148.616,89.875c0.196,0.623,1.467,0.712,2.02,0.836c-0.4-1.387-0.799-2.774-1.191-4.163
		c-0.144-0.508-0.112-0.789-0.571-1.037c-0.623-0.337-1.252-0.664-1.881-0.991c0.35,1.165,0.701,2.329,1.054,3.494
		C148.235,88.634,148.422,89.256,148.616,89.875z"/>
	<path d="M147.882,89.708c-0.424-1.43-0.849-2.861-1.273-4.291c-0.061-0.206-0.213-1.248-0.41-1.355
		c-0.602-0.326-1.204-0.653-1.807-0.98C143.922,85.826,145.522,88.394,147.882,89.708z"/>
	<path d="M137.359,166.275c0.022,0.107,0.042,0.578,0.132,0.652c0.885,0.125,1.789,0.115,2.68,0.092
		c1.578-0.04,3.366-0.371,4.922-0.011c-2.958-2.117-5.917-4.233-8.875-6.349C136.599,162.531,136.979,164.403,137.359,166.275z"/>
	<path d="M132.737,158.218c-0.886-0.628-1.772-1.256-2.658-1.883c-0.177,0.239,0.367,1.945,0.419,2.237
		c0.265,1.479,0.527,2.959,0.787,4.439c0.182,1.033,0.363,2.065,0.543,3.098c0.118,0.679,3.662,0.737,4.266,0.735
		c-0.445-2.339-0.889-4.677-1.334-7.016C134.641,159.191,133.23,158.567,132.737,158.218z"/>
	<path d="M127.783,154.712c-1.205-0.84-2.425-1.66-3.643-2.481c0.449,2.482,0.9,4.963,1.355,7.443
		c0.243,1.323,0.482,2.647,0.739,3.967c0.258,1.329,2.856,1.81,3.965,2.195c-0.499-2.951-0.998-5.901-1.481-8.855
		C128.541,155.901,128.671,155.331,127.783,154.712z"/>
	<path d="M122.613,151.101c-1.165-0.813-2.329-1.626-3.494-2.44c-1.611,5.542,1.085,11.209,5.642,14.464
		c-0.54-3.046-1.08-6.091-1.62-9.137C123.064,153.551,122.994,151.368,122.613,151.101z"/>
	<path d="M143.562,158.724c-0.097-0.064-0.554,0.054-0.662,0.064c-1.902,0.184-3.803,0.367-5.705,0.551
		c2.888,2.211,5.777,4.422,8.665,6.633c-0.798-1.384-1.005-3.19-1.428-4.711C144.195,160.401,143.94,159.534,143.562,158.724z"/>
	<path d="M135.974,158.188c2.366-0.258,4.733-0.517,7.099-0.775c-0.175-0.578-1.266-3.951-1.949-3.866
		c-1.04,0.129-2.081,0.258-3.121,0.386c-1.491,0.184-2.983,0.367-4.475,0.545c-0.295,0.036-2.085,0.014-2.263,0.254
		c0.859,0.664,1.719,1.328,2.578,1.991C134.322,157.092,135.331,158.259,135.974,158.188z"/>
	<path d="M131.487,153.24c2.965-0.401,5.933-0.786,8.901-1.171c-0.694-0.948-1.911-3.292-3.258-3.15
		c-1.338,0.141-2.674,0.299-4.01,0.453c-2.505,0.29-5.01,0.584-7.514,0.879c1.141,0.926,2.281,1.853,3.437,2.76
		C129.894,153.678,130.402,153.387,131.487,153.24z"/>
	<path d="M120.724,146.493c1.118,0.876,2.237,1.751,3.355,2.627c0.366,0.287,2.474-0.285,2.916-0.339
		c3.071-0.374,6.141-0.747,9.211-1.121C131.76,144.255,125.554,143.332,120.724,146.493z"/>
</g>
</svg>
