<?xml version="1.0" encoding="iso-8859-1"?>
<!-- Generator: Adobe Illustrator 17.1.0, SVG Export Plug-In . SVG Version: 6.00 Build 0)  -->
<!DOCTYPE svg PUBLIC "-//W3C//DTD SVG 1.1//EN" "http://www.w3.org/Graphics/SVG/1.1/DTD/svg11.dtd">
<svg version="1.1" id="Capa_1" xmlns="http://www.w3.org/2000/svg" xmlns:xlink="http://www.w3.org/1999/xlink" x="0px" y="0px"
	 viewBox="0 0 150 150" style="enable-background:new 0 0 150 150;" xml:space="preserve">
<g>
	<path d="M74.114,142.473c0,2.886,2.27,4.396,4.511,4.396c2.242,0,4.512-1.511,4.512-4.396v-20.777
		c2.055-3.195,4.888-5.668,7.883-8.282c1.22-1.063,2.48-2.164,3.673-3.311c8.485-8.149,8.281-20.16,8.102-30.756
		c-0.026-1.548-0.053-3.079-0.053-4.579V48.716c0-2.886-2.27-4.396-4.511-4.396c-2.242,0-4.512,1.511-4.512,4.396v16.843
		l-3.323-2.299c-6.724-4.652-6.704-10.153-6.678-17.768l0.004-19.6c0-2.887-2.27-4.397-4.511-4.397
		c-2.242,0-4.512,1.511-4.512,4.397v27.212c0,0.102,0.009,0.195,0.026,0.329c-0.962,10.421,8.951,16.731,16.921,21.805
		c0.706,0.449,1.399,0.891,2.072,1.327v14.286c0,0.055,0.003,0.106,0.009,0.152l-0.297,3.268c-0.026,0.287-0.015,0.578,0.034,0.887
		c-0.731,4.914-4.97,8.568-8.713,11.796l-0.571,0.494c-0.185,0.159-0.362,0.313-0.534,0.465c0.104-3-0.406-6.764-0.415-6.82
		c-0.52-3.323-2.437-5.644-4.29-7.889c-0.434-0.524-0.873-1.057-1.303-1.609L58.85,67.423V44.034c0-2.886-2.27-4.396-4.511-4.396
		s-4.511,1.511-4.511,4.396c0,2.272-0.163,4.683-0.336,7.234c-0.547,8.074-1.167,17.227,3.802,23.619l16.108,20.725
		c0.284,0.364,0.765,0.877,1.374,1.526c0.972,1.036,3.249,3.463,3.338,4.191v8.99c-0.791-0.531-1.893-1.238-3.43-2.216
		c-1.683-1.07-3.777-2.401-4.132-2.746c-4.779-4.636-4.778-8.543-4.776-15.016v-0.369c0-2.886-2.269-4.396-4.511-4.396
		c-2.242,0-4.512,1.51-4.512,4.397l0,0.727c-0.007,7.208-0.013,12.416,5.116,18.538c4.013,4.775,11.31,9.278,16.415,11.725
		c0.849,1.794,0.23,13.43-0.006,17.858C74.183,140.608,74.114,141.897,74.114,142.473z M75.114,112.377L75.114,112.377
		L75.114,112.377C75.114,112.377,75.114,112.377,75.114,112.377z"/>
	<path d="M105.429,12.096C96.478,6.158,86.013,3.02,75.166,3.02c-10.792,0-21.373,3.086-30.596,8.923
		C25.36,24.101,15.707,46.665,18.746,72.301c2.786,23.491,16.645,53.502,46.538,60.768c0.466,0.113,0.934,0.171,1.391,0.171
		c3.159,0,5.116-2.542,5.417-5.053c0.335-2.793-1.271-5.114-3.996-5.776c-25.882-6.291-37.084-33.664-38.813-55.193
		c-1.022-12.725,1.871-24.423,8.366-33.827c5.594-8.101,14.675-14.565,24.915-17.739c3.866-1.198,7.906-1.806,12.009-1.806
		c16.668,0,33.188,10.173,41.107,25.313c10.842,20.727,5.348,52.53-12.247,70.896c-4.171,4.355-9.318,7.869-14.886,10.161
		c-2.592,1.067-4.011,3.791-3.451,6.624c0.506,2.558,2.426,4.275,4.777,4.276c0.001,0,0.001,0,0.001,0
		c0.679,0,1.373-0.145,2.063-0.429c21.131-8.702,35.788-29.888,39.208-56.672C134.501,47.732,125.127,25.164,105.429,12.096z"/>
</g>
</svg>
