<?xml version="1.0" encoding="iso-8859-1"?>
<!-- Generator: Adobe Illustrator 17.1.0, SVG Export Plug-In . SVG Version: 6.00 Build 0)  -->
<!DOCTYPE svg PUBLIC "-//W3C//DTD SVG 1.1//EN" "http://www.w3.org/Graphics/SVG/1.1/DTD/svg11.dtd">
<svg version="1.1" id="Capa_1" xmlns="http://www.w3.org/2000/svg" xmlns:xlink="http://www.w3.org/1999/xlink" x="0px" y="0px"
	 viewBox="0 0 150 150" style="enable-background:new 0 0 150 150;" xml:space="preserve">
<g>
	<path d="M106.581,100.144c-3.705-0.498-7.303-1.655-10.633-3.406c-0.03,0.966-0.128,1.932-0.341,2.898
		c-0.715,3.245-5.609,3.745-8.216,4.462c-4.271,1.175-8.543,2.35-12.814,3.524V90.897c-3.841-0.324-7.565-1.367-11.015-3.004v17.221
		c-3.161-3.12-6.321-6.241-9.482-9.362c0.032-2.912,0.064-5.824,0.097-8.736c-3.111,2.161-6.6,3.763-10.376,4.72
		c-0.23,0.058-0.463,0.1-0.693,0.153c-0.024,2.187-0.048,4.374-0.073,6.562c-0.027,2.453,1.268,4.057,2.978,4.816
		c5.972,5.896,11.944,11.792,17.916,17.689v20.239c0,7.103,11.015,7.103,11.015,0v-22.182c0-0.002,0-0.004,0-0.006
		c7.999-2.038,16.213-3.914,23.724-7.144C103.69,109.704,105.854,105.103,106.581,100.144z"/>
	<path d="M126.504,13.668c-4.329-2.578-9.086-3.805-13.783-3.805c-6.8,0-13.471,2.571-18.532,7.333
		c-4.319-2.564-9.063-3.782-13.746-3.782c-2.44,0-4.863,0.331-7.202,0.974c-4.731-3.822-10.705-6.017-16.968-6.017
		c-2.196,0-4.427,0.27-6.654,0.834c-11.955,3.03-19.998,13.602-20.355,25.345C14.831,38.229,6.1,52.905,9.761,67.349
		c3.1,12.229,14.092,20.375,26.156,20.375c2.197,0,4.427-0.27,6.654-0.834c0.202-0.051,0.393-0.122,0.593-0.177
		c4.272-1.187,8.028-3.333,11.083-6.161c1.115-1.032,2.142-2.15,3.063-3.346c1.826,1.996,3.938,3.695,6.25,5.056
		c3.335,1.964,7.087,3.217,11.015,3.61c0.88,0.088,1.769,0.137,2.664,0.137c2.196,0,4.426-0.27,6.652-0.834
		c1.605-0.407,3.135-0.957,4.59-1.62c1.862,2.756,4.255,5.206,7.146,7.176c0.452,0.308,0.914,0.606,1.39,0.89
		c3.124,1.86,6.472,3.007,9.858,3.508c1.309,0.194,2.624,0.299,3.934,0.299c9.204,0,18.174-4.708,23.226-13.19
		c5.393-9.054,4.87-19.983-0.418-28.31c0.822-1.01,1.583-2.09,2.269-3.242C143.518,37.873,139.317,21.299,126.504,13.668z"/>
</g>
</svg>
