<?xml version="1.0" encoding="iso-8859-1"?>
<!-- Generator: Adobe Illustrator 17.1.0, SVG Export Plug-In . SVG Version: 6.00 Build 0)  -->
<!DOCTYPE svg PUBLIC "-//W3C//DTD SVG 1.1//EN" "http://www.w3.org/Graphics/SVG/1.1/DTD/svg11.dtd">
<svg version="1.1" id="Capa_1" xmlns="http://www.w3.org/2000/svg" xmlns:xlink="http://www.w3.org/1999/xlink" x="0px" y="0px"
	 viewBox="0 0 150 150" style="enable-background:new 0 0 150 150;" xml:space="preserve">
<g>
	<path d="M60.907,5.854c-8.519,0.406-17.838,1.14-23.995,7.042c-4.749,4.551-6.63,11.395-6.912,17.967s0.822,13.119,1.068,19.692
		c0.406,10.824-1.236,22.733,5.068,31.541c2.765,3.863,6.698,6.539,11.071,8.48c-0.047,0.41-0.057,0.847-0.018,1.313
		c0.533,6.432-0.136,12.813,6.122,16.735c4.471,2.802,10.092,4.205,15.361,5.664c-0.104,7.266-0.315,18.529-0.644,25.791
		c-0.358,7.885,11.869,7.85,12.225,0c0.154-3.389,0.282-10.779,0.385-14.17c6.252-3.31,13.957-4.147,18.1-10.626
		c3.926-6.138,3.412-12.543,4.016-19.56c0.013-0.154,0.013-0.3,0.017-0.448c3.793-0.979,7.343-2.574,10.155-5.262
		c4.267-4.078,6.167-10.095,6.727-15.971c0.56-5.876-0.054-11.795,0.015-17.697c0.018-1.561,0.084-3.123,0.156-4.685
		c0.174-3.785,0.383-7.57,0.028-11.337c-0.5-5.322-2.284-10.772-6.227-14.381c-4.328-3.962-10.484-5.091-16.307-5.813
		c-9.913-1.229-19.911-1.765-29.898-1.604c-5.461,0.088-11.5,0.639-15.249,4.61c-3.675,3.893-3.947,9.793-4.009,15.146
		c-0.076,6.532-0.152,13.065-0.228,19.597c-0.048,4.148-0.044,8.514,1.985,12.132c3.2,5.707,10.269,7.746,16.632,9.271
		c5.875,1.409,11.856,2.827,17.885,2.45c6.029-0.377,12.225-2.825,15.711-7.759c3.564-5.043,3.736-11.653,3.776-17.828
		c0.025-3.889,0-7.982-1.915-11.367c-3.386-5.984-11.16-7.523-17.973-8.443c-5.806-0.784-12.346-1.378-16.911,2.292
		c-2.15,1.728-3.582,4.258-4.233,6.939c-1.472,6.056,1.253,12.902,6.485,16.289c4.484,2.903,20.687,4.04,17.506-5.225
		c-1.493-4.349-8.074-4.884-12.114-4.305c0.008-1.75,0.016-3.499,0.025-5.248c19.854-5.572,17.423,9.438,17.761,12.789
		c0.339,3.351,0.001,7.269-2.734,9.234c-1.65,1.186-3.803,1.36-5.835,1.384c-8.406,0.098-16.83-1.711-24.454-5.253
		c-0.705-11.538-0.56-23.129,0.436-34.646c12.428-1.643,25.108-1.37,37.454,0.806c3.557,0.627,7.385,1.59,9.607,4.438
		c2.175,2.789,2.226,6.63,2.179,10.167c-0.093,7.053-0.186,14.105-0.279,21.158c-0.07,5.316-0.388,11.237-4.214,14.929
		c-3.344,3.226-8.396,3.759-13.04,3.895c-9.629,0.283-19.286-0.388-28.784-1.999c-6.542-1.109-13.592-3.039-17.439-8.444
		c-2.797-3.93-3.357-8.982-3.686-13.794c-0.725-10.608-0.756-21.263-0.093-31.875c0.815-13.048,10.322-11.952,20.773-13.067
		c12.9-1.377,26.297,0.128,39.016-1.504c3.273-0.42,7.011-4.004,6.127-7.609c-1.053-4.292-7.241-3.712-10.875-3.539
		C84.778,4.716,72.843,5.285,60.907,5.854z M80.915,96.949c3.172,0.097,6.347,0.069,9.517-0.086
		c-0.221,2.562-0.441,3.124-0.662,5.686c-0.171,1.989-0.06,4.645-1.426,6.274c-1.535,1.831-4.234,2.604-6.39,3.367
		c-0.351,0.124-0.698,0.254-1.048,0.381C80.975,106.698,80.987,102.824,80.915,96.949z M68.681,95.931
		c0.034,2.487,0.04,2.974,0.049,5.46c-2.168-0.687-4.336-1.375-6.505-2.062c-1.438-0.456-2.02-0.2-2.163-1.618
		c-0.18-1.78-0.317-1.566-0.455-3.351C62.61,95,65.638,95.521,68.681,95.931z"/>
</g>
</svg>
