<?xml version="1.0" encoding="iso-8859-1"?>
<!-- Generator: Adobe Illustrator 17.1.0, SVG Export Plug-In . SVG Version: 6.00 Build 0)  -->
<!DOCTYPE svg PUBLIC "-//W3C//DTD SVG 1.1//EN" "http://www.w3.org/Graphics/SVG/1.1/DTD/svg11.dtd">
<svg version="1.1" id="Capa_1" xmlns="http://www.w3.org/2000/svg" xmlns:xlink="http://www.w3.org/1999/xlink" x="0px" y="0px"
	 viewBox="0 0 150 150" style="enable-background:new 0 0 150 150;" xml:space="preserve">
<g>
	<path d="M109.5,42.5c0-9.389-7.611-17-17-17c-0.317,0-0.629,0.022-0.941,0.039c0.6-1.738,0.941-3.597,0.941-5.539
		c0-9.389-7.611-17-17-17s-17,7.611-17,17c0,1.938,0.34,3.793,0.937,5.528C50.311,25.828,43,33.301,43,42.5
		c0,6.907,4.126,12.84,10.042,15.5C47.126,60.66,43,66.593,43,73.5c0,5.81,2.919,10.934,7.366,14C45.919,90.566,43,95.69,43,101.5
		c0,9.389,7.611,17,17,17c3.967,0,7.608-1.37,10.5-3.647V135H69c-6.449,0-6.449,10,0,10h13c6.449,0,6.449-10,0-10h-1.5v-21.46
		c3.075,3.065,7.316,4.96,12,4.96c9.389,0,17-7.611,17-17c0-5.81-2.919-10.934-7.366-14c4.447-3.066,7.366-8.19,7.366-14
		c0-6.907-4.126-12.84-10.042-15.5C105.374,55.34,109.5,49.407,109.5,42.5z M76.25,37.5c-0.055-0.179-0.125-0.352-0.186-0.529
		c0.127-0.004,0.253-0.012,0.379-0.019C76.38,37.135,76.307,37.314,76.25,37.5z"/>
</g>
</svg>
