<?xml version="1.0" encoding="iso-8859-1"?>
<!-- Generator: Adobe Illustrator 17.1.0, SVG Export Plug-In . SVG Version: 6.00 Build 0)  -->
<!DOCTYPE svg PUBLIC "-//W3C//DTD SVG 1.1//EN" "http://www.w3.org/Graphics/SVG/1.1/DTD/svg11.dtd">
<svg version="1.1" id="Capa_1" xmlns="http://www.w3.org/2000/svg" xmlns:xlink="http://www.w3.org/1999/xlink" x="0px" y="0px"
	 viewBox="0 0 200 200" style="enable-background:new 0 0 200 200;" xml:space="preserve">
<g>
	<path d="M141.285,88.167c-0.638,0.187-0.442,0.198-0.128,0.553c0.44,0.455,0.111,1.049-0.03,1.545
		c-0.157,1.242-0.029,2.246,0.352,3.44c1.352,4.235,7.456,7.522,11.781,5.996c0.188-0.627-0.663-1.424-0.409-1.989
		c0.108,0.005,0.728,1.706,0.738,1.957c1.482-0.318,2.93-0.86,4.255-1.597c1.072-0.659,2.35-1.362,3.133-2.375
		c0.366-0.473,0.625-1.047,0.686-1.646c0.064-0.616,0.391-1.062,0.513-1.68c0.196-0.99-1.541-6.902-2.679-5.969
		c0.079-0.288,0.517-0.832,0.494-1.212c-2.142-3.548-6.133-6.37-10.57-5.34c-2.387,0.554-5.142,1.991-5.632,4.674
		c0.003,0.47-0.312,0.988,0,1.428c0.462,0.359,0.904,0.749,1.409,1.049c0.99,0.589,2.427,0.971,3.188,1.895
		C146.152,88.413,143.562,87.499,141.285,88.167z"/>
	<path d="M79.816,116.347c0.076,0.625,0.369,1.095,0.387,1.714c0.017,0.601,0.233,1.194,0.562,1.692
		c0.705,1.068,1.927,1.865,2.948,2.601c1.266,0.834,2.67,1.481,4.124,1.909c0.029-0.25,0.773-1.9,0.881-1.897
		c0.211,0.582-0.697,1.314-0.556,1.953c4.199,1.843,10.53-0.981,12.194-5.103c0.469-1.162,0.671-2.154,0.607-3.404
		c-0.104-0.505-0.388-1.121,0.085-1.543c0.34-0.331,0.536-0.327-0.087-0.561c-2.221-0.835-4.872-0.117-7.134,0.199
		c0.828-0.865,2.289-1.139,3.32-1.653c0.526-0.261,0.995-0.617,1.483-0.941c0.344-0.415,0.068-0.956,0.106-1.424
		c-0.289-2.712-2.93-4.35-5.269-5.08c-4.349-1.357-8.539,1.161-10.938,4.54c-0.052,0.378,0.345,0.952,0.402,1.246
		C81.866,109.579,79.694,115.345,79.816,116.347z"/>
	<path d="M70.271,76.689c-0.001-0.406-0.421-0.585-0.624-0.874c-1.473-1.429-3.788-1.104-5.492-0.4
		c-3.168,1.309-4.378,4.782-4.138,7.89c0.152,0.243,0.658,0.384,0.832,0.527c-1.105-0.073,0.416,4.306,0.968,4.826
		c0.345,0.325,0.74,0.455,1.048,0.805c0.299,0.339,0.709,0.578,1.14,0.708c0.922,0.278,2.012,0.15,2.956,0.085
		c1.133-0.128,2.256-0.429,3.303-0.882c-0.104-0.158-0.468-1.471-0.404-1.521c0.402,0.235,0.23,1.095,0.619,1.396
		c3.315-0.956,5.616-5.636,4.593-8.821c-0.289-0.898-0.649-1.569-1.288-2.26c-0.303-0.242-0.764-0.461-0.693-0.933
		c0.037-0.355,0.152-0.447-0.32-0.283c-1.686,0.586-2.873,2.278-4.028,3.549c0.062-0.899,0.775-1.76,1.124-2.554
		C70.045,77.543,70.145,77.111,70.271,76.689z"/>
	<path d="M95.979,54.072c-0.063,0.187-0.371,0.528-0.37,0.78c1.278,2.415,3.8,4.421,6.76,3.908c1.592-0.276,3.459-1.12,3.881-2.867
		c0.016-0.309,0.243-0.639,0.053-0.94c-0.291-0.254-0.567-0.527-0.889-0.743c-0.63-0.424-1.561-0.729-2.028-1.366
		c1.451,0.401,3.122,1.098,4.646,0.743c0.427-0.099,0.299-0.114,0.105-0.359c-0.273-0.316-0.034-0.694,0.077-1.016
		c0.149-0.812,0.102-1.477-0.104-2.278c-0.733-2.838-4.629-5.228-7.532-4.384c-0.147,0.406,0.384,0.962,0.195,1.324
		c-0.071-0.007-0.416-1.15-0.413-1.316c-0.988,0.155-1.961,0.457-2.86,0.893c-0.73,0.394-1.598,0.809-2.151,1.447
		c-0.258,0.297-0.45,0.666-0.513,1.058c-0.065,0.403-0.296,0.685-0.4,1.087C94.271,50.688,95.194,54.644,95.979,54.072z"/>
	<path d="M59.292,22.278c0.17,0.082,0.301,0.287,0.515,0.252c0.211-0.103,0.43-0.194,0.627-0.323
		c0.387-0.253,0.779-0.703,1.246-0.815c-0.568,0.719-1.355,1.492-1.517,2.43c-0.045,0.263-0.007,0.195,0.177,0.144
		c0.242-0.078,0.398,0.145,0.552,0.284c0.42,0.276,0.805,0.407,1.302,0.481c1.765,0.261,4.029-1.359,4.242-3.188
		c-0.193-0.179-0.63-0.012-0.789-0.204c0.021-0.038,0.743,0.039,0.836,0.08c0.147-0.591,0.208-1.208,0.176-1.816
		c-0.048-0.503-0.076-1.088-0.303-1.549c-0.106-0.215-0.267-0.41-0.472-0.538c-0.211-0.132-0.314-0.328-0.515-0.482
		c-0.322-0.245-2.76-0.664-2.625-0.088c-0.09-0.079-0.208-0.333-0.35-0.392c-1.657,0.145-3.38,1.086-3.792,2.867
		C58.38,20.38,58.411,21.627,59.292,22.278z"/>
	<path d="M15.091,54.817c0.188,0.362-0.343,0.919-0.195,1.324c2.903,0.844,6.799-1.546,7.532-4.384
		c0.206-0.8,0.254-1.466,0.104-2.278c-0.112-0.321-0.35-0.7-0.077-1.016c0.194-0.245,0.322-0.26-0.105-0.359
		c-1.523-0.355-3.195,0.342-4.646,0.743c0.467-0.637,1.398-0.941,2.028-1.366c0.321-0.216,0.598-0.489,0.889-0.743
		c0.189-0.301-0.038-0.63-0.053-0.94c-0.422-1.748-2.289-2.591-3.881-2.867c-2.959-0.513-5.482,1.493-6.76,3.908
		c-0.001,0.251,0.307,0.593,0.37,0.78c-0.784-0.572-1.708,3.384-1.542,4.029c0.104,0.402,0.335,0.684,0.4,1.087
		c0.063,0.392,0.255,0.76,0.513,1.058c0.553,0.638,1.42,1.053,2.15,1.447c0.899,0.436,1.872,0.739,2.86,0.893
		C14.675,55.966,15.02,54.824,15.091,54.817z"/>
	<path d="M177.976,182.603c-1.097,0-1.98,0.067-2.493,0.119c-1.472-8.53-6.526-12.356-10.952-12.356
		c-2.478,0-4.702,1.168-6.264,3.288c-0.391,0.53-0.751,1.046-1.094,1.54c-1.821,2.613-3.024,4.339-5.932,4.339
		c-3.174,0-8.342-2.153-16.757-6.981c-9.285-5.328-13.327-6.062-16.311-6.062c-0.529,0-1.021,0.027-1.501,0.059
		c-3.135-11.366,0.705-25.746,4.443-39.675c2.75-10.246,5.592-20.839,5.686-30.267c0.002-0.181-0.011-0.358-0.012-0.539
		c0.061-0.117,0.161-0.305,0.319-0.579c0.258-0.461,0.67-1.11,1.194-1.871c0.537-0.75,1.189-1.618,1.977-2.464
		c0.197-0.213,0.397-0.429,0.6-0.647c0.217-0.203,0.436-0.409,0.657-0.616c0.43-0.437,0.932-0.786,1.412-1.18
		c0.496-0.364,1.021-0.687,1.54-1.006c0.547-0.245,1.066-0.579,1.619-0.747c0.552-0.163,1.077-0.418,1.61-0.468
		c0.528-0.064,1.031-0.241,1.503-0.202c0.476-0.003,0.912-0.006,1.299-0.009c0.383,0.047,0.716,0.114,0.994,0.156
		c0.557,0.093,0.876,0.146,0.876,0.146s-0.307-0.099-0.845-0.271c-0.271-0.083-0.599-0.201-0.984-0.305
		c-0.396-0.055-0.843-0.118-1.331-0.186c-0.493-0.11-1.028-0.009-1.603-0.019c-0.582-0.024-1.163,0.155-1.788,0.248
		c-0.627,0.098-1.222,0.364-1.864,0.551c-0.606,0.258-1.23,0.528-1.825,0.844c-0.575,0.344-1.186,0.655-1.714,1.052
		c-0.273,0.19-0.543,0.379-0.811,0.565c-0.253,0.203-0.503,0.404-0.749,0.602c-0.899,0.722-1.66,1.467-2.323,2.147
		c-0.531-4.9-1.834-9.563-3.107-14.108c-3.285-11.727-6.682-23.852,3.29-40.219c0.14-0.229,0.074-0.526-0.148-0.675
		c-0.223-0.148-0.522-0.098-0.681,0.118c-6.113,8.272-8.443,15.619-8.986,22.468c-0.054-0.053-0.108-0.103-0.162-0.157
		c-0.342-0.29-0.675-0.605-1.052-0.881c-0.375-0.279-0.748-0.565-1.157-0.803c-0.391-0.26-0.805-0.483-1.22-0.683
		c-0.401-0.223-0.83-0.374-1.232-0.534c-0.396-0.175-0.809-0.266-1.186-0.376c-0.375-0.119-0.74-0.186-1.079-0.235
		c-0.338-0.05-0.639-0.12-0.914-0.137c-0.274-0.015-0.513-0.028-0.71-0.039c-0.389-0.021-0.612-0.033-0.612-0.033
		s0.216,0.058,0.593,0.16c0.187,0.051,0.413,0.112,0.673,0.182c0.258,0.072,0.536,0.203,0.843,0.317
		c0.308,0.113,0.634,0.248,0.96,0.435c0.329,0.178,0.683,0.337,1.012,0.577c0.335,0.225,0.687,0.437,1.004,0.716
		c0.331,0.256,0.652,0.529,0.948,0.834c0.312,0.281,0.585,0.605,0.856,0.914c0.274,0.305,0.504,0.645,0.742,0.95
		c0.211,0.332,0.437,0.629,0.607,0.944c0.184,0.304,0.345,0.597,0.481,0.874c0.212,0.415,0.359,0.761,0.477,1.056
		c0.07,4.731,0.839,9.253,1.6,13.719c0.343,2.014,0.673,3.953,0.936,5.883c-8.393-15.147-24.446-24.694-39.997-33.942
		c-7.207-4.286-14.536-8.646-21.145-13.591c-0.104-0.265-0.216-0.577-0.326-0.94c-0.094-0.294-0.181-0.617-0.26-0.963
		c-0.096-0.345-0.139-0.716-0.217-1.101c-0.04-0.385-0.11-0.789-0.124-1.199c-0.018-0.411-0.046-0.833-0.017-1.252
		c0.001-0.424,0.044-0.844,0.104-1.258c0.035-0.421,0.141-0.818,0.226-1.213c0.071-0.4,0.215-0.761,0.329-1.117
		c0.105-0.361,0.247-0.684,0.39-0.979c0.142-0.295,0.251-0.582,0.387-0.813c0.138-0.231,0.259-0.432,0.358-0.598
		c0.201-0.335,0.316-0.526,0.316-0.526s-0.152,0.163-0.418,0.448c-0.134,0.144-0.297,0.319-0.484,0.52
		c-0.186,0.203-0.355,0.463-0.564,0.733c-0.21,0.27-0.427,0.572-0.614,0.918c-0.195,0.341-0.429,0.693-0.593,1.094
		c-0.179,0.394-0.383,0.801-0.517,1.239c-0.16,0.432-0.303,0.879-0.405,1.338c-0.129,0.455-0.2,0.92-0.276,1.381
		c-0.081,0.461-0.102,0.918-0.147,1.364c-0.004,0.232-0.015,0.462-0.022,0.688c-5.373-4.32-10.154-9.104-13.825-14.668
		c-0.146-0.222-0.442-0.291-0.671-0.155c-0.229,0.135-0.312,0.427-0.189,0.663c7.686,14.661,20.828,25.045,36.052,35.894
		c-12.337-2.343-29.998-5.956-36.083-15.271c-2.129-3.26-2.713-7.065-1.734-11.312c0.059-0.257-0.091-0.516-0.344-0.591
		c-0.251-0.076-0.521,0.059-0.612,0.305c-1.61,4.349-1.521,8.463,0.267,12.229c0.765,1.611,1.81,3.079,3.034,4.429
		c-0.036-0.005-0.069-0.009-0.106-0.014c-2.266-0.28-5.3-0.552-8.346-0.522c-3.039,0.013-6.102,0.376-8.267,1.134
		c-0.542,0.181-1.022,0.39-1.44,0.587c-0.412,0.213-0.763,0.407-1.033,0.6c-0.283,0.171-0.472,0.352-0.611,0.459
		c-0.136,0.111-0.208,0.17-0.208,0.17s0.079-0.05,0.228-0.143c0.151-0.089,0.357-0.242,0.656-0.375
		c0.286-0.155,0.652-0.301,1.074-0.456c0.429-0.14,0.915-0.282,1.457-0.391c2.166-0.464,5.14-0.443,8.064-0.088
		c2.929,0.339,5.82,0.97,7.96,1.512c1.071,0.271,1.955,0.521,2.569,0.702c0.603,0.185,0.948,0.291,0.948,0.291l0.047,0.015
		c0.057,0.017,0.115,0.031,0.175,0.041c0.245,0.043,0.485,0.017,0.707-0.053c4.188,3.104,9.27,5.315,13.609,6.799
		c2.309,0.792,4.632,1.563,6.954,2.334c7.783,2.585,15.696,5.221,22.846,8.596c-2.013,0.586-4.417,1.375-6.754,2.364
		c-2.805,1.17-5.5,2.671-7.213,4.195c-0.432,0.374-0.797,0.75-1.108,1.091c-0.3,0.354-0.55,0.667-0.727,0.948
		c-0.196,0.265-0.302,0.505-0.39,0.657c-0.083,0.154-0.128,0.237-0.128,0.237s0.055-0.076,0.157-0.219
		c0.106-0.14,0.238-0.36,0.464-0.596c0.205-0.252,0.489-0.526,0.82-0.831c0.343-0.292,0.739-0.609,1.198-0.916
		c1.826-1.254,4.585-2.366,7.424-3.151c2.838-0.801,5.751-1.318,7.936-1.632c0.798-0.115,1.496-0.201,2.065-0.265
		c5.254,2.81,9.968,6.124,13.715,10.272c9.987,11.053,13.227,24.874,9.889,42.111c-0.108-0.141-0.216-0.282-0.333-0.431
		c-0.333-0.413-0.702-0.853-1.1-1.31c-0.419-0.442-0.827-0.93-1.316-1.382c-0.467-0.468-0.966-0.935-1.506-1.376
		c-0.512-0.466-1.103-0.867-1.67-1.284c-0.57-0.414-1.207-0.742-1.792-1.105c-0.642-0.28-1.241-0.606-1.867-0.818
		c-0.641-0.175-1.222-0.439-1.826-0.508c-0.599-0.074-1.148-0.226-1.672-0.213c-0.518,0.004-0.994,0.008-1.415,0.011
		c-0.417,0.035-0.775,0.129-1.069,0.174c-0.585,0.107-0.919,0.168-0.919,0.168s0.34-0.015,0.934-0.04
		c0.296-0.004,0.652-0.047,1.059-0.025c0.404,0.053,0.859,0.112,1.356,0.177c0.494,0.054,1.002,0.277,1.545,0.419
		c0.547,0.137,1.066,0.47,1.626,0.705c0.548,0.273,1.064,0.659,1.609,0.987c0.497,0.417,1.03,0.788,1.502,1.243
		c0.469,0.458,0.952,0.89,1.366,1.389c0.438,0.47,0.836,0.962,1.205,1.453c0.388,0.471,0.703,0.981,1.03,1.434
		c0.307,0.47,0.589,0.921,0.84,1.339c0.491,0.846,0.875,1.564,1.113,2.071c0.243,0.498,0.35,0.77,0.36,0.786l0.071,0.117
		c-0.075,0.306-0.134,0.603-0.213,0.911c-0.678,2.655-1.399,5.333-2.122,8.016c-2.869,10.651-5.796,21.543-6.045,31.399
		c-0.249-0.117-0.482-0.219-0.745-0.349c-2.188-1.081-4.048-1.606-5.688-1.606c-2.812,0-4.506,1.542-6.145,3.033
		c-1.654,1.505-3.216,2.927-5.928,2.927c-1.62,0-3.491-0.504-5.72-1.541c-3.74-1.74-6.706-2.55-9.333-2.55
		c-3.585,0-6.366,1.507-9.887,3.415c-2.907,1.575-6.525,3.536-11.689,5.222c-16.027,5.233-12.261,19.008-12.221,19.146
		c0.062,0.214,0.258,0.361,0.48,0.361h150.466c0.276,0,0.5-0.224,0.5-0.5C190.678,186.086,186.048,182.603,177.976,182.603z"/>
</g>
</svg>
