<?xml version="1.0" encoding="iso-8859-1"?>
<!-- Generator: Adobe Illustrator 17.1.0, SVG Export Plug-In . SVG Version: 6.00 Build 0)  -->
<!DOCTYPE svg PUBLIC "-//W3C//DTD SVG 1.1//EN" "http://www.w3.org/Graphics/SVG/1.1/DTD/svg11.dtd">
<svg version="1.1" id="Capa_1" xmlns="http://www.w3.org/2000/svg" xmlns:xlink="http://www.w3.org/1999/xlink" x="0px" y="0px"
	 viewBox="0 0 150 150" style="enable-background:new 0 0 150 150;" xml:space="preserve">
<g>
	<path d="M29.405,49.262c0,6.495,3.988,12.055,9.647,14.375c0.209,0.537,0.428,1.068,0.659,1.594
		c-2.359,5.641-1.25,12.389,3.341,16.98c1.933,1.933,4.25,3.241,6.704,3.94c1.476,3.934,3.089,7.291,4.905,10.193
		c0.572,0.913,1.168,1.743,1.745,2.546c0.919,1.279,1.787,2.486,2.225,3.618c0.505,1.305,0.49,3.732,0.479,5.682
		c-0.002,0.322-0.004,0.638-0.004,0.944v8.321v22.768c0,3.393,2.753,7.046,8.797,7.046c1.797,0,5.102-0.358,7.044-2.755
		c1.097-1.355,1.521-3.099,1.163-4.785c-1.254-5.904-0.456-17.528,2.228-22.176c1.995-3.454,4.679-6.488,7.52-9.7
		c1.58-1.787,3.214-3.634,4.767-5.604c3.822-4.849,6.82-10.084,8.957-15.584c3.42-0.354,6.744-1.835,9.365-4.456
		c4.591-4.591,5.7-11.339,3.341-16.98c0.231-0.525,0.45-1.057,0.659-1.594c5.659-2.319,9.647-7.88,9.647-14.375
		c0-6.495-3.988-12.055-9.647-14.375c-0.209-0.537-0.428-1.068-0.659-1.594c2.359-5.641,1.25-12.389-3.341-16.98
		c-4.591-4.591-11.339-5.7-16.98-3.341c-0.525-0.231-1.057-0.45-1.594-0.659C88.055,6.654,82.495,2.667,76,2.667
		c-6.495,0-12.055,3.988-14.375,9.647c-0.537,0.209-1.068,0.428-1.594,0.659c-5.641-2.359-12.389-1.25-16.98,3.341
		c-4.591,4.591-5.7,11.339-3.341,16.98c-0.232,0.525-0.45,1.057-0.659,1.594C33.392,37.207,29.405,42.767,29.405,49.262z
		 M71.22,140.768c0.198,0.933-1.519,1.502-3.316,1.502c-1.856,0-3.797-0.607-3.797-2.046c0-6.589,0-16.179,0-22.768
		c0-2.774,0-5.547,0-8.321c0-2.631,0.143-5.963-0.812-8.431c-1.003-2.593-2.936-4.683-4.395-7.013
		c-1.387-2.216-2.532-4.581-3.541-7.002c-0.618-1.482-1.196-2.979-1.713-4.49c-2.641-7.717-3.279-16.165-2.263-24.224
		c0.253-2.005,1.974-3.016,3.563-3.016c1.579,0,3.027,0.999,2.773,3.016c-1.081,8.576-0.081,16.916,2.92,25.018
		c0.91,2.457,2.114,4.795,3.468,7.04V68.002c0-2.043,1.584-3.064,3.168-3.064c1.584,0,3.168,1.021,3.168,3.064v26.824v14.349
		c1.403-2.225,3.004-4.389,4.799-6.486c2.325-2.717,4.661-5.328,6.822-8.071c2.014-2.558,3.876-5.23,5.419-8.221
		c3.416-6.623,4.795-14.172,4.651-21.571c-0.04-2.043,1.523-3.063,3.106-3.063c1.585,0,3.19,1.022,3.23,3.063
		c0.147,7.548-1.304,14.778-4.145,21.488c-1.923,4.54-4.476,8.845-7.625,12.84c-4.222,5.357-9.249,9.943-12.69,15.898
		C70.526,121.084,69.792,134.041,71.22,140.768z"/>
</g>
</svg>
