<?xml version="1.0" encoding="iso-8859-1"?>
<!-- Generator: Adobe Illustrator 17.1.0, SVG Export Plug-In . SVG Version: 6.00 Build 0)  -->
<!DOCTYPE svg PUBLIC "-//W3C//DTD SVG 1.1//EN" "http://www.w3.org/Graphics/SVG/1.1/DTD/svg11.dtd">
<svg version="1.1" id="Capa_1" xmlns="http://www.w3.org/2000/svg" xmlns:xlink="http://www.w3.org/1999/xlink" x="0px" y="0px"
	 viewBox="0 0 150 150" style="enable-background:new 0 0 150 150;" xml:space="preserve">
<g>
	<path d="M18.75,103.75h47.271l-1.073,35.858c-0.04,1.351,0.468,2.662,1.41,3.632c0.942,0.97,2.236,1.518,3.588,1.518h12.844
		c1.351,0,2.645-0.547,3.586-1.516c0.941-0.969,1.451-2.278,1.412-3.628l-1.033-35.864h44.495c5.523,0,10-4.477,10-10v-76.5
		c0-5.523-4.477-10-10-10H18.75c-5.523,0-10,4.477-10,10v76.5C8.75,99.273,13.227,103.75,18.75,103.75z M82.789,139.758H69.945
		l1.078-36.008l0.274-9.172c-0.243-0.28-0.44-0.63-0.563-1.063c-1.808-6.367-12.119-7.263-17.561-8.452
		c-0.239,0.07-0.497,0.118-0.786,0.118c-0.044,0-0.09-0.001-0.135-0.003c-0.46-0.023-0.899-0.04-1.325-0.04
		c-1.477,0-2.785,0.204-4.187,1.063c-1.343,0.823-2.804,1.622-4.34,2.03c-1.63,0.433-3.22,0.642-4.822,0.642
		c-1.27,0-2.547-0.131-3.858-0.387c-3.217-0.627-2.124-5.273,0.85-5.273c0.189,0,0.385,0.019,0.588,0.058
		c0.746,0.145,1.443,0.211,2.105,0.211c2.041,0,3.754-0.627,5.593-1.487c-2.517-1.055-4.918-2.385-7.167-4.15
		c-2.175-1.706-0.198-4.45,2.065-4.45c0.59,0,1.199,0.186,1.759,0.626c6.03,4.73,14.036,5.368,21.213,7.206
		c4.495,1.152,9.413,2.739,12.537,6.103c0.724-4.418,0.761-8.848,0.154-13.342c-0.101-0.746-0.192-1.485-0.271-2.22
		c-0.461-0.478-1.107-0.667-1.852-0.668c-2.542,0-6.254,2.202-7.85,2.691c-2.611,0.801-5.37,1.362-8.113,1.401
		c-0.161,0.002-0.323,0.003-0.484,0.003c-5.417,0-10.568-1.312-15.32-3.952c-2.592-1.44-1.008-5.034,1.401-5.034
		c0.424,0,0.872,0.111,1.329,0.365c0.896,0.498,1.823,0.935,2.769,1.322c-1.273-1.234-2.623-2.374-4.232-3.154
		c-4.637-2.249-9.652-2.463-12.954-6.847c-1.479-1.964,0.415-3.879,2.388-3.879c0.828,0,1.67,0.337,2.282,1.15
		c1.478,1.962,4.279,2.359,6.468,3.067c2.226,0.72,4.484,1.606,6.428,2.929c1.957,1.332,3.752,2.803,5.33,4.575
		c1.311,1.472,2.508,3.055,4.491,3.581c0.361,0.096,0.656,0.249,0.911,0.431c2.341-0.154,4.664-0.649,6.887-1.531
		c2.633-1.045,5.936-2.348,8.916-2.348c0.253,0,0.504,0.009,0.752,0.029c-0.8-2.955-5.585-3.885-8.117-4.344
		c-3.067-0.556-6.028-1.24-8.932-2.392c-0.818-0.325-1.616-0.696-2.391-1.103c-3.414-0.185-6.842-0.309-10.246-0.628
		c-2.173-0.204-4.702-0.856-6.257-2.517c-1.895-2.025-2.961-4.481-3.463-7.203c-0.488-2.651-0.682-5.602-2.661-7.618
		c-1.884-1.919-0.043-4.634,2.019-4.634c0.613,0,1.245,0.239,1.805,0.81c3.375,3.438,3.095,7.64,4.513,11.919
		c1.023,3.088,2.891,3.812,5.969,3.987c0.421,0.024,0.842,0.048,1.264,0.072c-0.867-1.118-1.619-2.333-2.224-3.648
		c-0.994-2.159,0.892-4.132,2.643-4.132c0.799,0,1.57,0.411,2.027,1.403c3.757,8.162,11.839,8.925,19.554,10.914
		c2.151,0.554,4.2,1.46,5.874,2.708c0.597-1.754,1.13-3.723,0.628-5.343c-0.53-1.709-1.722-2.933-2.413-4.545
		c-1.559-3.637-1.676-7.177-1.424-11.091c0.112-1.734,1.524-2.605,2.878-2.605c1.35,0,2.642,0.865,2.53,2.605
		c-0.144,2.237-0.469,4.784,0.207,6.967c0.63,2.035,1.953,3.635,2.843,5.548c0.263,0.565,0.453,1.142,0.595,1.725
		c3.972-4.349,8.246-8.546,8.358-14.463c0.033-1.742,1.403-2.615,2.755-2.615c1.352,0,2.686,0.871,2.653,2.615
		c-0.194,10.293-9.274,14.825-13.706,22.985c-1.675,3.083-1.761,6.131-1.485,9.261c0.009,0.073,0.016,0.145,0.018,0.216
		c0.147,1.583,0.376,3.188,0.538,4.829c-0.204-2.079,1.92-5.927,2.638-7.911c0.989-2.734,2.087-5.441,3.497-7.989
		c3.952-7.143,10.09-11.647,16.782-15.995c3.243-2.107,3.848-5.402,4.458-8.983c0.233-1.368,1.201-1.959,2.244-1.959
		c1.574,0,3.32,1.345,2.97,3.397c-0.442,2.596-1.025,5.116-2.219,7.337c3.192-1.336,6.195-2.964,8.667-5.451
		c0.561-0.564,1.193-0.801,1.805-0.801c2.073,0,3.918,2.715,2.018,4.625c-6.952,6.992-17.17,7.021-24.935,12.49
		c-7.51,5.289-10.041,14.449-12.833,22.999c1.687-1.304,3.509-2.438,5.358-3.378c2.219-1.127,4.698-2.191,7.14-3.375
		c0.062-0.213,0.145-0.428,0.269-0.646c1.4-2.455,0.282-5.679,0.704-8.378c0.431-2.754,1.663-5.033,3.567-7.05
		c0.556-0.588,1.187-0.835,1.8-0.835c2.033,0,3.861,2.713,2.023,4.659c-2.345,2.484-2.104,5.601-2.187,8.705
		c2.972-2.131,5.379-4.804,6.432-8.51c0.379-1.332,1.432-1.909,2.504-1.909c1.622,0,3.286,1.322,2.711,3.346
		c-2.24,7.881-9.133,12.434-16.17,15.747c-2.694,1.268-5.819,2.663-8.654,4.407c0.019-0.003,0.038-0.007,0.057-0.01
		c0.909-0.13,1.929-0.167,3.011-0.167c1.513,0,3.149,0.074,4.78,0.074c2.307,0,4.604-0.148,6.529-0.86
		c0.013-0.006,0.027-0.01,0.041-0.016c1.573-0.59,2.895-1.559,3.764-3.142c0.519-0.946,1.324-1.338,2.139-1.338
		c1.82,0,3.689,1.955,2.53,4.068c-0.46,0.839-0.981,1.552-1.544,2.178c3.134,2.135,5.478,5.472,9.158,7.192
		c2.737,1.279,1.036,4.952-1.51,4.952c-0.391,0-0.802-0.087-1.22-0.282c-2.235-1.044-4.028-2.68-5.754-4.414
		c-1.798-1.806-3.726-3.918-6.447-3.997c-0.119-0.003-0.223-0.028-0.334-0.043c-3.041,0.708-6.447,0.642-9.74,0.765
		c0.182,0.178,0.37,0.35,0.54,0.54c2.675,2.989,4.83,5.728,8.922,6.708c3.147,0.754,2.134,5.3-0.738,5.3
		c-0.223,0-0.456-0.027-0.699-0.086c-3.151-0.755-6.171-2.369-8.4-4.761c-2.6-2.79-4.476-5.155-8.041-6.132
		c-1.94,0.929-3.594,2.415-4.777,4.832c-0.141,0.288-0.315,0.51-0.501,0.703c0.022,0.199,0.041,0.401,0.041,0.615l0.315,10.947
		L82.789,139.758z"/>
</g>
</svg>
