<?xml version="1.0" encoding="iso-8859-1"?>
<!-- Generator: Adobe Illustrator 17.1.0, SVG Export Plug-In . SVG Version: 6.00 Build 0)  -->
<!DOCTYPE svg PUBLIC "-//W3C//DTD SVG 1.1//EN" "http://www.w3.org/Graphics/SVG/1.1/DTD/svg11.dtd">
<svg version="1.1" id="Capa_1" xmlns="http://www.w3.org/2000/svg" xmlns:xlink="http://www.w3.org/1999/xlink" x="0px" y="0px"
	 viewBox="0 0 150 150" style="enable-background:new 0 0 150 150;" xml:space="preserve">
<g>
	<path d="M97.093,67.984c0.049-1.504-0.032-3.022-0.242-4.582c-0.001-0.006-0.002-0.012-0.002-0.018
		c-0.725,0.195-1.674,0.625-2.303,0.91c-0.581,0.263-1.083,0.491-1.523,0.626c-0.957,0.294-1.89,0.522-2.793,0.686
		c0.322,0.075,0.642,0.153,0.96,0.235C93.133,66.338,95.225,66.974,97.093,67.984z"/>
	<path d="M112.377,54.811c-1.31,1.726-2.249,3.781-3.065,5.995c0.519-0.247,1.047-0.49,1.564-0.729
		c0.438-0.202,0.881-0.406,1.323-0.614c0.217-0.478,0.172-1.276,0.125-2.119c-0.042-0.761-0.091-1.623,0.045-2.489
		C112.372,54.84,112.375,54.825,112.377,54.811z"/>
	<path d="M110.531,76.012c-1.106-1.202-1.901-2.067-2.993-2.563c-0.615,0.434-1.09,1.016-1.468,1.787
		c-0.028,0.058-0.058,0.115-0.089,0.171l0.037,2.934h7.134c-0.784-0.521-1.499-1.119-2.12-1.786L110.531,76.012z"/>
	<path d="M85.777,56.512l0.286,0.325c0.664,0.759,1.097,1.232,1.612,1.368c0.168,0.044,0.331,0.1,0.49,0.167
		c1.138-0.122,2.233-0.39,3.261-0.798c0.379-0.15,0.788-0.313,1.22-0.475c-1.667-0.306-3.818-0.767-5.954-1.615
		c-0.44-0.174-0.884-0.373-1.326-0.592c-0.381-0.02-0.763-0.039-1.144-0.058c-0.056-0.003-0.112-0.006-0.168-0.008
		C84.686,55.368,85.257,55.928,85.777,56.512z"/>
	<path d="M35.013,72.16h0.971v-8.753c-0.951,1.86-2.332,3.519-4.088,4.829C32.805,69.778,33.889,71.125,35.013,72.16z"/>
	<path d="M43.063,61.924v6.313c3.398-2.85,5.879-6.288,5.094-9.005c-0.138-0.477-0.176-0.959-0.12-1.424
		C46.916,59.538,45.326,61.038,43.063,61.924z"/>
	<path d="M9.159,72.16h9.933c-3.437-2.549-4.926-6.715-5.913-10.49c-0.278-1.063-0.066-2.154,0.581-2.992
		c0.68-0.88,1.766-1.405,2.907-1.405c1.606,0,2.908,1.012,3.317,2.577c0.708,2.712,2.068,5.547,3.595,6.903
		c-0.845-2.676-1.113-5.309-0.756-7.651c0.257-1.684,1.555-2.815,3.23-2.815c1.083,0,2.156,0.495,2.869,1.325
		c0.586,0.682,0.886,1.523,0.868,2.411c0.788-1.666,0.86-3.641,0.115-5.615c-0.4-1.06-0.281-2.172,0.327-3.051
		c0.647-0.936,1.758-1.495,2.97-1.495c1.143,0,2.176,0.516,2.845,1.371c0.306-1.638,1.699-2.802,3.477-2.802
		c2.018,0,3.539,1.5,3.539,3.489v0.047c0.406-1.355,0.594-3.028,0.691-4.946c0.097-1.92,1.643-3.367,3.596-3.367
		c0.979,0,1.908,0.385,2.546,1.058c0.626,0.659,0.944,1.551,0.896,2.512c-0.086,1.7-0.264,5.219-1.647,8.48
		c0.663-0.59,1.546-0.929,2.471-0.929c1.102,0,2.063,0.483,2.703,1.285c0.285,0.357,0.513,0.771,0.649,1.244
		c0.184,0.635,0.306,1.282,0.369,1.938c0.906-1.536,1.391-3.337,1.374-5.266c-0.008-0.946,0.337-1.82,0.971-2.461
		c0.648-0.654,1.573-1.029,2.537-1.029c1.998,0,3.518,1.485,3.535,3.454c0.059,6.716-3.63,12.561-9.436,15.408
		c-0.97,0.476-1.992,0.877-3.073,1.175c-0.089,0.025-0.179,0.046-0.269,0.063c-0.446,0.55-0.888,1.071-1.331,1.574h4.708
		c0.347,3.47,3.276,6.18,6.837,6.18h34.257l0.018-1.425c-0.114-0.223-0.207-0.46-0.278-0.71c-0.652-2.297-5.081-3.123-8.011-3.669
		c-0.472-0.088-0.921-0.172-1.336-0.256c-0.164,0.022-0.329,0.033-0.496,0.033c-0.062,0-0.124-0.002-0.188-0.005
		c-0.26-0.013-0.508-0.023-0.749-0.023c-0.745,0-1.174,0.101-1.64,0.387c-0.924,0.566-2.04,1.191-3.316,1.53
		c-1.213,0.322-2.393,0.479-3.606,0.479c-0.938,0-1.872-0.093-2.857-0.285c-1.861-0.363-3.034-1.93-2.852-3.81
		c0.174-1.799,1.488-3.204,3.163-3.484c-1.136-0.95-1.551-2.363-1.083-3.718c0.361-1.045,1.179-1.877,2.185-2.308
		c-0.201-0.628-0.223-1.32-0.042-2.02c0.088-0.338,0.216-0.657,0.379-0.949c-0.098-0.034-0.197-0.067-0.297-0.101
		c-2.164-0.734-4.616-1.565-6.443-3.99c-0.823-1.092-0.97-2.435-0.393-3.592c0.626-1.256,2.042-2.1,3.522-2.1
		c0.144,0,0.287,0.008,0.428,0.024c-0.18-0.543-0.324-1.112-0.434-1.705c-0.049-0.269-0.095-0.542-0.14-0.817
		c-0.202-1.226-0.393-2.385-1.027-3.031c-1.061-1.081-1.363-2.606-0.787-3.978c0.601-1.433,2.012-2.395,3.509-2.395
		c0.959,0,1.877,0.397,2.585,1.118c1.911,1.947,2.382,4.175,2.797,6.141c0.046,0.219,0.092,0.436,0.139,0.649
		c0.052-0.099,0.109-0.197,0.171-0.293c0.726-1.134,1.979-1.838,3.268-1.838c1.357,0,2.522,0.771,3.117,2.064
		c1.595,3.466,4.525,4.311,9.174,5.402c0.683,0.16,1.369,0.322,2.05,0.497c0.564,0.145,1.112,0.322,1.638,0.528
		c-0.128-0.273-0.308-0.559-0.508-0.876c-0.277-0.44-0.591-0.938-0.846-1.533c-1.214-2.831-1.232-5.532-1.071-8.03
		c0.13-2.019,1.782-3.542,3.842-3.542c1.045,0,2.03,0.411,2.702,1.128c0.657,0.701,0.983,1.65,0.917,2.672
		c-0.013,0.206-0.029,0.416-0.045,0.629c-0.083,1.119-0.169,2.276,0.092,3.119c0.169,0.547,0.478,1.075,0.837,1.681
		c1.59-1.834,2.778-3.596,2.819-5.74c0.039-2.075,1.658-3.639,3.767-3.639c1.028,0,2.01,0.4,2.695,1.097
		c0.668,0.681,1.026,1.61,1.007,2.618c-0.025,1.34-0.252,2.552-0.619,3.664c0.941-0.669,1.895-1.303,2.841-1.917
		c1.31-0.851,1.605-2.234,1.978-4.42c0.298-1.747,1.668-2.921,3.411-2.921c1.158,0,2.298,0.531,3.048,1.419
		c0.728,0.862,1.022,1.962,0.829,3.095c-0.009,0.056-0.019,0.112-0.029,0.168c0.274-0.226,0.531-0.46,0.774-0.704
		c0.708-0.712,1.623-1.104,2.576-1.104c1.507,0,2.922,0.967,3.52,2.406c0.571,1.374,0.262,2.895-0.807,3.97
		c-2.833,2.85-6.285,4.057-9.623,5.224c-0.349,0.122-0.696,0.243-1.039,0.365c0.234,0.283,0.43,0.602,0.579,0.948
		c0.023,0.052,0.044,0.105,0.064,0.158c0.59-0.404,1.306-0.63,2.085-0.63c1.229,0,2.389,0.565,3.104,1.511
		c0.676,0.894,0.879,2.054,0.559,3.182c-0.819,2.881-2.474,5.127-4.422,6.9c1.2,0.13,2.33,0.847,2.954,1.901
		c0.671,1.133,0.683,2.464,0.032,3.649c-0.008,0.015-0.016,0.03-0.025,0.044c0.315,0.279,0.62,0.563,0.92,0.843
		c1.008,0.938,1.96,1.824,3.082,2.348c1.557,0.728,2.328,2.259,1.963,3.902c-0.397,1.788-1.986,3.086-3.778,3.086
		c-0.557,0-1.105-0.124-1.629-0.369c-1.715-0.801-3.061-2.027-4.261-3.232l-0.206-0.207c-0.888-0.897-1.726-1.744-2.57-1.768
		c-0.018,0-0.036-0.001-0.053-0.002c-0.581,0.119-1.17,0.202-1.762,0.262c0.572,0.418,1.193,0.728,1.947,0.909
		c1.84,0.441,2.97,2.064,2.748,3.947c-0.062,0.522-0.228,1.005-0.466,1.439h16.955c3.796,0,6.872-3.077,6.872-6.872V18.893
		c0-3.796-3.077-6.872-6.872-6.872H61.191c-3.796,0-6.872,3.077-6.872,6.872v9.616H9.159c-2.498,0-4.523,2.025-4.523,4.523v34.604
		C4.635,70.135,6.661,72.16,9.159,72.16z"/>
	<path d="M74.294,69.088c-0.13-0.025-0.256-0.037-0.377-0.037c-1.907,0-2.608,2.98-0.545,3.382c0.841,0.164,1.66,0.248,2.474,0.248
		c1.027,0,2.047-0.134,3.093-0.412c0.985-0.262,1.922-0.774,2.784-1.302c0.899-0.551,1.738-0.682,2.685-0.682
		c0.273,0,0.555,0.011,0.85,0.026c0.03,0.001,0.059,0.002,0.087,0.002c0.185,0,0.35-0.03,0.504-0.075
		C89.34,71,95.953,71.575,97.113,75.659c0.079,0.278,0.205,0.503,0.361,0.682l-0.026,1.999l-0.841,64.978h8.238l-0.827-64.978
		l-0.04-3.138c0-0.137-0.012-0.267-0.026-0.395c0.12-0.124,0.231-0.267,0.322-0.451c0.759-1.55,1.82-2.504,3.064-3.099
		c2.287,0.627,3.49,2.144,5.158,3.933c1.429,1.534,3.367,2.569,5.387,3.054c0.156,0.037,0.306,0.055,0.449,0.055
		c1.842,0,2.492-2.916,0.474-3.4c-2.625-0.629-4.007-2.385-5.723-4.303c-0.109-0.122-0.23-0.232-0.347-0.346
		c2.112-0.079,4.297-0.037,6.247-0.491c0.071,0.01,0.138,0.025,0.214,0.027c1.745,0.051,2.982,1.405,4.135,2.563
		c1.107,1.112,2.257,2.161,3.691,2.831c0.268,0.125,0.532,0.181,0.783,0.181c1.633,0,2.724-2.356,0.968-3.176
		c-2.36-1.103-3.864-3.243-5.874-4.613c0.361-0.401,0.695-0.859,0.99-1.397c0.743-1.355-0.456-2.609-1.623-2.609
		c-0.523,0-1.039,0.252-1.372,0.858c-0.557,1.016-1.406,1.637-2.414,2.015c-0.009,0.004-0.018,0.006-0.026,0.01
		c-1.235,0.457-2.708,0.552-4.188,0.552c-1.046,0-2.096-0.047-3.066-0.047c-0.694,0-1.348,0.024-1.932,0.107
		c-0.012,0.002-0.024,0.005-0.037,0.006c1.818-1.118,3.823-2.013,5.551-2.826c4.514-2.125,8.935-5.045,10.372-10.1
		c0.369-1.299-0.698-2.146-1.739-2.146c-0.687,0-1.363,0.37-1.606,1.224c-0.676,2.377-2.219,4.091-4.125,5.458
		c0.054-1.991-0.101-3.99,1.403-5.583c1.179-1.249,0.006-2.988-1.298-2.988c-0.393,0-0.798,0.158-1.155,0.536
		c-1.221,1.293-2.012,2.755-2.288,4.522c-0.271,1.731,0.447,3.799-0.452,5.374c-0.08,0.14-0.133,0.278-0.172,0.414
		c-1.567,0.759-3.156,1.442-4.58,2.164c-1.186,0.602-2.355,1.33-3.437,2.166c1.791-5.484,3.414-11.359,8.231-14.751
		c4.981-3.508,11.534-3.526,15.993-8.011c1.218-1.225,0.035-2.967-1.295-2.967c-0.393,0-0.798,0.152-1.158,0.514
		c-1.586,1.595-3.511,2.639-5.559,3.496c0.766-1.425,1.14-3.041,1.424-4.706c0.224-1.316-0.895-2.179-1.905-2.179
		c-0.669,0-1.29,0.379-1.439,1.256c-0.391,2.297-0.78,4.41-2.86,5.762c-4.292,2.789-8.229,5.678-10.764,10.259
		c-0.904,1.634-1.609,3.371-2.243,5.124c-0.46,1.273-1.823,3.741-1.692,5.074c-0.103-1.053-0.25-2.083-0.345-3.098
		c-0.002-0.046-0.006-0.092-0.012-0.139c-0.177-2.007-0.122-3.962,0.953-5.94c2.843-5.234,8.667-8.141,8.791-14.743
		c0.021-1.119-0.835-1.677-1.702-1.677c-0.867,0-1.746,0.56-1.767,1.677c-0.071,3.795-2.813,6.487-5.361,9.276
		c-0.091-0.374-0.213-0.744-0.381-1.106c-0.571-1.227-1.419-2.253-1.823-3.558c-0.433-1.4-0.225-3.033-0.133-4.468
		c0.072-1.116-0.757-1.671-1.623-1.671c-0.868,0-1.774,0.559-1.846,1.671c-0.162,2.51-0.087,4.781,0.913,7.114
		c0.443,1.034,1.208,1.819,1.548,2.915c0.322,1.039-0.019,2.302-0.403,3.427c-1.074-0.801-2.388-1.381-3.768-1.737
		c-4.949-1.276-10.133-1.765-12.542-7c-0.293-0.636-0.787-0.9-1.3-0.9c-1.123,0-2.332,1.266-1.695,2.65
		c0.388,0.844,0.871,1.623,1.427,2.34c-0.27-0.015-0.54-0.031-0.811-0.046c-1.974-0.112-3.172-0.577-3.828-2.558
		c-0.909-2.744-0.73-5.439-2.895-7.645c-0.359-0.366-0.765-0.519-1.158-0.519c-1.323,0-2.504,1.741-1.295,2.972
		c1.269,1.293,1.393,3.186,1.707,4.886c0.322,1.746,1.005,3.321,2.221,4.62c0.997,1.065,2.62,1.483,4.013,1.614
		c2.183,0.205,4.382,0.284,6.572,0.403c0.497,0.261,1.009,0.499,1.534,0.708c1.863,0.739,3.762,1.178,5.729,1.534
		c1.624,0.294,4.693,0.891,5.206,2.786c-0.159-0.013-0.32-0.019-0.482-0.019c-1.912,0-4.03,0.835-5.719,1.506
		c-1.426,0.566-2.916,0.884-4.417,0.982c-0.163-0.117-0.352-0.215-0.584-0.276c-1.272-0.337-2.04-1.352-2.88-2.297
		c-1.012-1.137-2.163-2.081-3.419-2.935c-1.247-0.849-2.695-1.417-4.123-1.879c-1.404-0.454-3.2-0.709-4.148-1.967
		c-0.393-0.521-0.932-0.737-1.463-0.737c-1.265,0-2.481,1.228-1.532,2.488c2.118,2.812,5.335,2.95,8.309,4.392
		c1.032,0.5,1.898,1.231,2.715,2.023c-0.607-0.248-1.201-0.529-1.776-0.848c-0.293-0.163-0.581-0.234-0.852-0.234
		c-1.545,0-2.561,2.305-0.898,3.229c3.048,1.693,6.351,2.535,9.826,2.535c0.103,0,0.207-0.001,0.311-0.002
		c1.759-0.025,3.529-0.385,5.204-0.899c1.023-0.314,3.404-1.726,5.035-1.726c0.478,0,0.892,0.122,1.188,0.428
		c0.051,0.471,0.109,0.945,0.174,1.424c0.389,2.883,0.366,5.724-0.099,8.558c-2.004-2.158-5.158-3.175-8.041-3.914
		c-4.603-1.179-9.738-1.588-13.606-4.622c-0.359-0.282-0.75-0.401-1.128-0.401c-1.451,0-2.719,1.76-1.324,2.854
		c1.443,1.132,2.983,1.985,4.597,2.662c-1.18,0.551-2.278,0.954-3.587,0.954C75.22,69.224,74.773,69.181,74.294,69.088z"/>
	<path d="M18.049,60.356c-0.197-0.756-0.781-1.083-1.382-1.083c-0.908,0-1.852,0.747-1.553,1.892
		c0.917,3.51,2.271,7.416,5.397,9.578c0.939,0.649,1.967,1.132,3.03,1.417c0.706,0.189,1.427,0.294,2.149,0.294
		c0.696,0,1.391-0.097,2.074-0.294c0.191-0.055,0.381-0.115,0.569-0.186c0.043,0.064,0.082,0.123,0.124,0.186
		c2.418,3.588,3.933,6.401,7.527,7.074l-1,64.118c0,0.993,2.02,1.489,4.039,1.489c2.02,0,4.039-0.496,4.039-1.489l-1-67.655
		c1.835-0.842,3.392-2.068,4.849-3.537c1.057-1.066,2.063-2.256,3.076-3.539c0.098,0.021,0.2,0.033,0.307,0.033
		c0.133,0,0.273-0.018,0.42-0.059c1.291-0.356,2.496-0.869,3.604-1.509c4.599-2.658,7.485-7.569,7.436-13.128
		c-0.009-0.981-0.774-1.472-1.535-1.472c-0.761,0-1.517,0.49-1.508,1.472c0.034,3.826-1.616,7.219-4.392,9.449
		c-0.593,0.476-1.235,0.902-1.926,1.265c0.967-2.239,1.302-4.574,0.654-6.813c-0.219-0.757-0.821-1.085-1.431-1.085
		c-0.925,0-1.87,0.752-1.538,1.903c1.487,5.143-4.658,10.69-8.976,13.484c-0.013,0.008-0.027,0.018-0.039,0.026V72.16V60.457
		c6.067-1.442,7.449-7.752,7.732-13.336c0.05-0.98-0.685-1.468-1.445-1.468c-0.762,0-1.55,0.491-1.599,1.468
		c-0.204,4.041-0.813,8.571-4.688,10.124V51.92c0-0.993-0.77-1.489-1.539-1.489c-0.77,0-1.539,0.496-1.539,1.489v20.24v3.974
		c-1.989-0.445-4.01-1.961-5.731-3.974c-1.167-1.365-2.198-2.957-2.982-4.607c5.227-2.886,7.559-9.044,5.439-14.661
		c-0.271-0.719-0.896-1.031-1.509-1.031c-0.937,0-1.846,0.728-1.426,1.84c1.596,4.229,0.185,8.603-3.6,10.957
		c-0.442-1.573-0.609-3.103-0.406-4.437c0.178-1.168-0.824-1.935-1.716-1.935c-0.591,0-1.134,0.337-1.253,1.117
		c-0.472,3.091,0.348,6.663,1.981,9.925c-0.492,0.165-0.964,0.241-1.417,0.241C21.384,69.57,18.918,63.681,18.049,60.356z"/>
</g>
</svg>
