<?xml version="1.0" encoding="iso-8859-1"?>
<!-- Generator: Adobe Illustrator 17.1.0, SVG Export Plug-In . SVG Version: 6.00 Build 0)  -->
<!DOCTYPE svg PUBLIC "-//W3C//DTD SVG 1.1//EN" "http://www.w3.org/Graphics/SVG/1.1/DTD/svg11.dtd">
<svg version="1.1" id="Capa_1" xmlns="http://www.w3.org/2000/svg" xmlns:xlink="http://www.w3.org/1999/xlink" x="0px" y="0px"
	 viewBox="0 0 150 150" style="enable-background:new 0 0 150 150;" xml:space="preserve">
<g>
	<path d="M15.058,71.545c0.519,0.613,1.276,0.95,2.133,0.95h7.57v5.943c0,2.221,2.159,3.151,3.751,2.689h7.32v16.766
		c0,0.26,0.034,0.509,0.108,0.778c0.237,1.408,1.341,2.349,2.769,2.349H55.85v6.587c-0.232-0.11-0.469-0.214-0.707-0.31
		c-1.353-0.545-3.106,0.39-3.599,1.814c-1.011,1.518-2.121,2.917-3.393,4.276c-0.321,0.344-0.548,0.738-0.673,1.175
		c-0.673,1.135-0.503,2.448,0.454,3.392l11.921,11.751v13.978c0,1.771,1.392,2.752,2.765,2.811c0.209,0.044,0.41,0.065,0.612,0.065
		h16.265c0.776,0,1.461-0.275,1.912-0.734c0.032-0.026,0.063-0.057,0.136-0.127l0.077-0.081c0.491-0.514,0.751-1.181,0.751-1.934
		v-35.722c1.448-0.057,2.526-1.09,2.669-2.563c0.057-0.236,0.084-0.462,0.084-0.687v-4.255h25.085c0.429,0,0.834-0.088,1.208-0.261
		c1.335-0.113,2.607-1.072,2.607-2.804v-27.9h6.882c1.229,0,2.235-0.713,2.632-1.839c0.406-0.491,0.62-1.104,0.62-1.788V15.384
		c0-1.415-0.947-2.522-2.332-2.762c-0.395-0.201-0.83-0.303-1.296-0.303H97.322v-0.501c0-0.201-0.021-0.402-0.065-0.612
		c-0.012-0.769-0.302-1.496-0.805-2.015c-0.517-0.531-1.211-0.812-2.007-0.812H71.049V7.877c0-0.465-0.102-0.899-0.303-1.295
		c-0.239-1.384-1.347-2.332-2.762-2.332H39.46c-1.315,0-2.37,0.812-2.704,2.072c-0.116,0.324-0.173,0.649-0.173,0.992v7.257h-9.696
		c-0.774,0-1.467,0.276-1.978,0.784c-0.921,0.478-1.463,1.384-1.463,2.468v24.335H17.69c-0.773,0-1.467,0.276-1.977,0.783
		c-0.921,0.478-1.463,1.385-1.463,2.469v23.082c0,0.311,0.045,0.609,0.134,0.893C14.326,70.177,14.568,70.968,15.058,71.545z
		 M35.832,72.495v2.88h-5.318v-2.88H35.832z M41.553,18.862c0.508-0.511,0.784-1.203,0.784-1.978v-6.882h22.959v12.826h-6.694
		c-1.364,0-2.427,0.853-2.729,2.153c-0.344,0.469-0.523,1.037-0.523,1.661v2.003H37.958c-1.118,0-2.046,0.576-2.512,1.55
		c-0.361,0.479-0.552,1.063-0.552,1.702v10.26H29.2V20.325h9.884C40.168,20.325,41.075,19.783,41.553,18.862z M40.647,45.41V34.399
		h17.203c1.228,0,2.234-0.713,2.632-1.839c0.407-0.491,0.62-1.104,0.62-1.788v-2.19h13.389v24.71c0,1.415,0.948,2.522,2.332,2.762
		c0.395,0.201,0.829,0.303,1.295,0.303h19.456v21.082H85.615c-0.481-0.323-1.065-0.498-1.685-0.498
		c-1.392,0-2.871,0.985-2.871,2.812v5.943H69.923v-7.445c0-1.314-0.812-2.369-2.072-2.703c-0.324-0.116-0.649-0.173-0.992-0.173
		H41.586v-4.17c0.52-0.847,0.588-1.963,0.151-2.894c-0.46-0.982-1.404-1.569-2.527-1.569H20.005V47.911h16.416
		C38.059,48.715,40.647,47.878,40.647,45.41z M95.794,18.073h22.61v45.666h-15.077v-8.383c0-0.692-0.221-1.314-0.631-1.803
		c0.019-0.717-0.207-1.419-0.642-1.957c-0.518-0.641-1.288-0.994-2.167-0.994h-8.384v-13.45c0-0.594-0.164-1.139-0.478-1.596
		c-0.192-1.246-1.151-2.406-2.774-2.406h-8.008v-8.008c0-1.827-1.479-2.812-2.871-2.812c-0.619,0-1.203,0.175-1.685,0.499h-4.64
		v-8.697h20.52v1.439C91.569,18.039,94.159,18.881,95.794,18.073z M79.543,96.776c-0.116,0.324-0.173,0.649-0.173,0.992v3.731
		H62.354v-1.605c0-0.343-0.056-0.67-0.166-0.977c0.21-0.826,0.074-1.741-0.383-2.438c-0.505-0.771-1.354-1.214-2.327-1.214H41.586
		V81.128H64.17v7.257c0,0.852,0.334,1.6,0.943,2.12c0.521,0.61,1.27,0.944,2.121,0.944h17.271c0.668-0.001,1.253-0.258,1.69-0.741
		c1.178-1.3,1.031-3.897,0.738-6.908c-0.021-0.213-0.04-0.417-0.058-0.607h13.387c1.119,0,2.047-0.576,2.512-1.55
		c0.362-0.478,0.553-1.062,0.553-1.702V69.492h4.943v25.212H82.247C80.934,94.704,79.878,95.516,79.543,96.776z M76.618,107.964
		v32.843H66v-11.281c0.101-0.412,0.096-0.833,0-1.239V108h9.5c0.157,0,0.304-0.014,0.445-0.036H76.618z M85.751,38.903v11.699
		h-5.507V38.903H85.751z M55.748,112.174c0.434,0.263,1.087,0.659,1.752,1.073v7.169c-1.985-1.569-3.989-3.174-5.677-4.753
		c0.097-0.108,0.199-0.223,0.306-0.342c0.979-1.095,2.238-2.502,3.05-3.494C55.352,111.934,55.543,112.05,55.748,112.174z"/>
</g>
</svg>
