<?xml version="1.0" encoding="iso-8859-1"?>
<!-- Generator: Adobe Illustrator 17.1.0, SVG Export Plug-In . SVG Version: 6.00 Build 0)  -->
<!DOCTYPE svg PUBLIC "-//W3C//DTD SVG 1.1//EN" "http://www.w3.org/Graphics/SVG/1.1/DTD/svg11.dtd">
<svg version="1.1" id="Capa_1" xmlns="http://www.w3.org/2000/svg" xmlns:xlink="http://www.w3.org/1999/xlink" x="0px" y="0px"
	 viewBox="0 0 200 200" style="enable-background:new 0 0 200 200;" xml:space="preserve">
<g>
	<path d="M176.619,116.99c-6.776,0.248-9.934-7.292-15.404-9.883c-2.376-1.125-5.155-1.431-7.801-0.977
		c0.674-0.718,1.331-1.444,1.979-2.165c4.875-5.418,9.479-10.535,20.422-10.73c0.268-0.005,0.484-0.22,0.491-0.486
		c0.007-0.268-0.198-0.493-0.464-0.513c-0.816-0.058-1.624-0.088-2.4-0.088c-9.787,0-14.806,4.526-19.66,8.903
		c-0.588,0.53-1.161,1.047-1.734,1.548c2.881-5.807,3.683-12.412,3.814-19.182c0.306-0.29,0.635-0.556,0.988-0.783
		c1.172-0.751,2.511-1.21,3.737-1.863c1.368-0.729,2.54-1.619,3.451-2.885c0.171-0.238,1.495-2.105,1.05-2.418
		c-0.246-0.175-1.466,0.673-1.71,0.788c-0.679,0.321-1.374,0.604-2.07,0.886c-1.399,0.567-2.85,1.086-4.067,2.005
		c-0.529,0.399-0.972,0.882-1.358,1.407c-0.001-0.157-0.002-0.314-0.003-0.471c0.232-0.321,0.411-0.557,0.434-0.581
		c2.59-2.623,6.739-2.798,9.513-5.238c1.181-1.039,1.878-2.458,2.08-4.009c0.048-0.369,0.064-0.739,0.052-1.111
		c-0.007-0.205-0.011-0.68-0.327-0.653c-0.301,0.025-0.425,0.712-0.552,0.927c-1.953,3.295-6.501,2.49-9.404,4.297
		c-0.729,0.454-1.355,1.066-1.88,1.762c-0.017-0.643-0.035-1.286-0.054-1.927c-0.195-6.849-0.387-13.862,0.866-20.311
		c0.427-0.21,0.881-0.369,1.35-0.449c1.071-0.183,2.174-0.105,3.255-0.202c1.206-0.108,2.32-0.391,3.36-1.024
		c0.196-0.119,1.716-1.059,1.491-1.419c-0.124-0.201-1.259,0.037-1.47,0.046c-0.586,0.024-1.172,0.016-1.758,0.007
		c-1.179-0.018-2.38-0.086-3.535,0.203c-0.89,0.224-1.69,0.681-2.36,1.294c0.031-0.131,0.063-0.262,0.095-0.392
		c0.584-0.407,1.438-0.907,1.49-0.928c2.662-1.097,5.698,0.04,8.436-0.87c1.166-0.387,2.099-1.196,2.716-2.25
		c0.147-0.251,0.271-0.512,0.376-0.783c0.058-0.15,0.199-0.492-0.036-0.569c-0.224-0.074-0.523,0.383-0.68,0.499
		c-2.408,1.775-5.434-0.189-8.071,0.227c-1.324,0.208-2.564,0.956-3.457,1.991c0.317-0.946,0.669-1.878,1.077-2.785
		c0.109-0.243,0.009-0.529-0.229-0.65s-0.527-0.036-0.661,0.195c-0.699,1.213-1.309,2.457-1.857,3.726
		c-0.506-1.755-1.639-3.347-3.16-4.294c-2.903-1.807-7.451-1.002-9.404-4.297c-0.127-0.215-0.252-0.903-0.552-0.927
		c-0.316-0.027-0.32,0.448-0.327,0.653c-0.012,0.372,0.004,0.742,0.052,1.111c0.202,1.552,0.899,2.971,2.08,4.009
		c1.416,1.245,3.19,1.901,4.932,2.593c-1.162,0.696-2.121,1.618-2.853,2.779c-0.974,1.544-1.486,3.363-1.691,5.264
		c-0.591-0.981-1.389-1.831-2.343-2.424c-2.903-1.807-7.451-1.002-9.404-4.297c-0.127-0.215-0.252-0.903-0.552-0.927
		c-0.315-0.027-0.32,0.448-0.327,0.653c-0.012,0.372,0.004,0.742,0.052,1.111c0.202,1.552,0.899,2.971,2.08,4.009
		c2.774,2.439,6.923,2.615,9.513,5.238c0.041,0.042,0.561,0.736,1.014,1.411c0.169,1.641,0.47,3.228,0.809,4.638
		c0.327,1.367,0.668,2.736,1.009,4.103c2.318,9.3,4.508,18.084,2.336,25.895c-2.49,8.962-9.035,15.057-20.009,18.632
		c-1.481,0.483-2.986,0.952-4.493,1.422c-4.377,1.366-8.895,2.774-12.879,4.543c0.265-2.639,0.242-5.117-0.068-7.55
		c-0.163-1.278-0.404-2.577-0.71-3.911c0.389-0.017,0.777-0.02,1.164-0.001c2.46,0.124,4.861,0.841,7.299,1.162
		c2.721,0.358,5.324,0.281,7.938-0.605c0.491-0.167,4.319-1.495,4-2.403c-0.175-0.505-2.804-0.539-3.274-0.624
		c-1.308-0.235-2.601-0.544-3.893-0.853c-2.599-0.623-5.223-1.368-7.921-1.297c-1.971,0.052-3.865,0.61-5.576,1.539
		c0.257-0.315,0.523-0.622,0.791-0.928c1.391-0.529,2.976-1.034,3.084-1.053c6.43-1.113,12.586,2.903,19.091,2.244
		c2.769-0.281,5.233-1.608,7.121-3.635c0.449-0.482,0.853-0.999,1.218-1.546c0.202-0.303,0.683-0.99,0.201-1.277
		c-0.458-0.274-1.345,0.589-1.75,0.768c-6.204,2.736-11.926-3.102-17.966-3.486c-0.854-0.054-1.716-0.004-2.569,0.125
		c0.572-0.49,1.143-0.978,1.709-1.461c1.327-1.133,2.653-2.265,3.962-3.407c2.813-2.456,6.665-5.818,4.368-10.7
		c-0.114-0.243-0.398-0.349-0.647-0.248c-0.247,0.104-0.368,0.385-0.274,0.637c1.528,4.078-2.81,7.2-6.295,9.709
		c-0.649,0.467-1.267,0.911-1.806,1.332c-3.812,2.918-8.109,6.206-11.83,9.77c-1.085-2.997-2.42-5.972-3.886-8.953
		c0.344-0.488,0.65-0.895,0.681-0.927c2.59-2.623,6.739-2.798,9.513-5.238c1.181-1.039,1.878-2.458,2.08-4.009
		c0.048-0.369,0.064-0.739,0.052-1.111c-0.007-0.205-0.011-0.68-0.327-0.653c-0.301,0.025-0.425,0.713-0.552,0.928
		c-1.953,3.295-6.501,2.49-9.404,4.297c-1.557,0.969-2.71,2.612-3.198,4.415c-0.908-1.773-1.85-3.55-2.812-5.338
		c0.427-0.381,0.856-0.762,1.285-1.143c3.467-3.074,7.052-6.253,9.365-9.686c0.988-1.467,1.692-3.021,2.278-4.591
		c0.256-0.002,0.512,0.006,0.766,0.033c1.384,0.145,2.717,0.622,4.082,0.878c1.524,0.284,2.995,0.321,4.497-0.1
		c0.282-0.079,2.482-0.712,2.329-1.234c-0.083-0.29-1.565-0.389-1.828-0.452c-0.731-0.173-1.451-0.386-2.17-0.6
		c-1.447-0.43-2.905-0.93-4.429-0.973c-0.879-0.024-1.737,0.145-2.55,0.443c0.036-0.11,0.073-0.221,0.108-0.331
		c0.721-0.22,1.441-0.407,1.496-0.414c3.661-0.432,7.011,2.021,10.701,1.847c1.571-0.074,3.001-0.748,4.128-1.834
		c0.268-0.258,0.511-0.538,0.734-0.835c0.123-0.165,0.415-0.538,0.152-0.714c-0.25-0.169-0.777,0.291-1.01,0.38
		c-3.583,1.355-6.633-2.113-10.029-2.513c-1.858-0.219-3.821,0.377-5.341,1.526c1.531-4.56,3.515-8.793,10.111-11.902
		c0.242-0.114,0.351-0.398,0.248-0.645c-0.104-0.247-0.381-0.369-0.633-0.277c-8.142,2.983-10.375,8.062-12.536,12.973
		c-0.157,0.356-0.311,0.707-0.466,1.053c0.073-7.074-3.253-13.941-6.482-20.606c-1.94-4.005-3.918-8.094-5.154-12.23
		c0.414-0.5,0.901-0.94,1.445-1.289c1.172-0.751,2.511-1.21,3.737-1.863c1.368-0.729,2.54-1.619,3.451-2.885
		c0.171-0.238,1.495-2.105,1.05-2.418c-0.246-0.175-1.466,0.673-1.71,0.788c-0.679,0.321-1.374,0.604-2.07,0.886
		c-1.399,0.567-2.85,1.086-4.067,2.005c-1.054,0.795-1.811,1.889-2.29,3.106c-0.047-0.192-0.09-0.384-0.134-0.576
		c0.435-0.768,1.438-2.116,1.496-2.176c2.59-2.623,6.739-2.798,9.513-5.238c1.181-1.039,1.878-2.458,2.08-4.009
		c0.048-0.369,0.064-0.739,0.052-1.111c-0.007-0.205-0.011-0.68-0.327-0.653c-0.301,0.025-0.425,0.713-0.552,0.928
		c-1.953,3.295-6.501,2.49-9.404,4.297c-1.774,1.104-3.01,3.084-3.348,5.178c-0.111-0.917-0.176-1.835-0.176-2.755
		c0-0.267-0.209-0.486-0.475-0.499c-0.249-0.029-0.496,0.184-0.522,0.449c-0.688,6.842,1.333,13.44,4.049,20.593
		c-3.775-3.712-8.456-8.725-8.436-13.083c0.007-1.637,0.659-3.05,1.992-4.319c0.191-0.183,0.208-0.481,0.039-0.684
		c-0.168-0.2-0.466-0.238-0.679-0.082c-0.92,0.676-1.634,1.452-2.135,2.321c-0.001-0.51-0.036-1.018-0.107-1.521
		c-0.386-2.742-1.839-5.055-4.318-6.874c-0.213-0.157-0.51-0.12-0.679,0.082c-0.169,0.202-0.152,0.501,0.039,0.684
		c2.053,1.955,3.056,4.134,3.067,6.661c0.032,6.961-7.739,14.947-13.55,20.612c3.602-9.385,6.478-18.108,6.651-26.948
		c0.449-0.775,1.411-2.069,1.468-2.127c2.59-2.623,6.739-2.798,9.513-5.238c1.181-1.039,1.878-2.458,2.08-4.009
		c0.048-0.369,0.064-0.739,0.052-1.111c-0.007-0.205-0.011-0.68-0.327-0.653c-0.301,0.025-0.425,0.712-0.552,0.927
		c-1.953,3.295-6.501,2.49-9.404,4.297c-1.354,0.843-2.387,2.201-2.959,3.726c-0.02-0.24-0.03-0.48-0.055-0.72
		c-0.026-0.266-0.269-0.467-0.522-0.449c-0.266,0.013-0.475,0.232-0.475,0.499c0,6.423-1.928,12.798-4.535,19.072
		c-0.297-1.703-1.083-3.323-2.288-4.512c-2.742-2.709-7.942-2.955-9.27-7.063c-0.086-0.268-0.052-1.055-0.376-1.157
		c-0.34-0.108-0.463,0.413-0.522,0.637c-0.105,0.406-0.18,0.817-0.219,1.234c-0.164,1.756,0.249,3.49,1.289,4.925
		c2.443,3.372,6.96,4.597,9.156,8.125c0.031,0.049,0.337,0.735,0.635,1.476c-0.06,0.132-0.122,0.263-0.182,0.395
		c-0.31-0.902-0.759-1.753-1.385-2.492c-1.109-1.312-2.575-2.244-3.973-3.216c-0.694-0.483-1.389-0.967-2.055-1.489
		c-0.24-0.188-1.37-1.423-1.684-1.292c-0.567,0.233,0.423,2.615,0.552,2.919c0.686,1.618,1.753,2.888,3.076,4.03
		c1.185,1.023,2.543,1.86,3.645,2.977c0.27,0.274,0.519,0.57,0.745,0.882c-0.742,1.573-1.499,3.14-2.253,4.697
		c-1.233,2.546-2.5,5.162-3.676,7.771c-0.385-3.49-1.198-7.252-3.38-10.456c-2.815-4.136-7.242-7.196-11.519-10.153
		c-0.324-0.229-0.692-0.468-1.079-0.719c-1.403-0.91-3.043-1.978-3.652-3.299c0.351-0.708,1.534-2.3,1.597-2.364
		c2.59-2.623,6.739-2.798,9.513-5.238c1.181-1.039,1.878-2.458,2.08-4.009c0.048-0.369,0.064-0.739,0.052-1.111
		c-0.007-0.205-0.011-0.68-0.327-0.653c-0.301,0.025-0.425,0.712-0.552,0.927c-1.953,3.295-6.501,2.49-9.404,4.297
		c-1.92,1.195-3.215,3.414-3.415,5.696c-0.243-0.073-0.507,0.045-0.607,0.284c-1.239,3.001,1.225,4.95,2.856,6.241
		c0.782,0.618,1.573,1.229,2.364,1.841c1.496,1.157,3.042,2.353,4.491,3.571c3.762,3.166,6.096,7.353,7.107,12.765
		c-3.109-2.614-7.893-3.854-12.536-5.057c-0.883-0.229-1.765-0.457-2.634-0.694c-6.293-1.719-10.153-4.975-11.799-9.952
		c-1.438-4.349-0.436-9.4,0.626-14.748c0.157-0.791,0.314-1.583,0.463-2.373c0.489-2.586,0.726-6.164-0.926-8.522
		c-0.841-1.201-2.079-1.943-3.679-2.204c-0.262-0.049-0.509,0.125-0.568,0.381c-0.059,0.257,0.092,0.516,0.344,0.592
		c1.303,0.389,2.204,1.098,2.755,2.169c1.421,2.759,0.186,7.399-1.03,11.104c-0.625-5.551-1.561-10.524-4.301-14.786
		c-0.143-0.224-0.437-0.296-0.669-0.163c-0.231,0.133-0.317,0.423-0.197,0.66c2.318,4.554,2.431,10.196,2.539,15.653
		c0.017,0.873,0.039,1.75,0.065,2.627c-0.722-0.794-1.57-1.464-2.526-1.908c-3.495-1.624-8.473-0.1-11.11-3.519
		c-0.172-0.223-0.405-0.976-0.745-0.962c-0.357,0.014-0.297,0.545-0.276,0.775c0.038,0.417,0.106,0.829,0.211,1.236
		c0.439,1.708,1.413,3.201,2.876,4.201c3.438,2.349,8.104,1.977,11.361,4.556c0.028,0.022,0.239,0.24,0.519,0.54
		c0.018,0.173,0.03,0.349,0.051,0.522c-0.491-0.51-1.033-0.972-1.656-1.332c-1.487-0.861-3.182-1.243-4.825-1.686
		c-0.817-0.22-1.634-0.441-2.437-0.708c-0.289-0.096-1.77-0.877-2.021-0.648c-0.455,0.411,1.281,2.319,1.506,2.562
		c1.192,1.291,2.625,2.127,4.256,2.755c1.461,0.563,3.022,0.893,4.436,1.572c0.475,0.228,0.917,0.521,1.335,0.846
		c0.344,1.474,0.8,2.904,1.448,4.252c-0.08-0.065-0.159-0.13-0.239-0.195c-2.773-2.268-5.64-4.611-10.786-4.611
		c-0.71,0-1.457,0.047-2.22,0.139c-0.266,0.031-0.459,0.267-0.439,0.533s0.261,0.463,0.514,0.463
		c6.154-0.188,8.903,2.574,11.805,5.502c1.463,1.476,2.975,3.002,4.944,4.096c2.752,1.527,6.269,2.441,9.67,3.326
		c4.699,1.223,9.557,2.486,12.188,5.351c3.343,3.639,3.219,9.021,2.666,13.751c-0.609,2.585-0.958,4.997-1.063,7.323
		c-0.124,0.834-0.243,1.667-0.348,2.496c-0.292-0.647-0.582-1.306-0.878-1.979c-3.022-6.868-6.141-13.956-16.521-18.473
		c-1.594-2.151-4.494-3.331-7.107-2.891c-3.372,0.567-6.248,4.181-9.893,3.004c-0.238-0.077-0.786-0.51-1.028-0.33
		c-0.254,0.189,0.056,0.547,0.187,0.706c0.237,0.286,0.494,0.553,0.775,0.798c1.179,1.029,2.64,1.632,4.213,1.629
		c3.694-0.008,6.92-2.623,10.598-2.371c0.046,0.003,0.575,0.112,1.179,0.257c9.989,5.243,12.292,12.364,14.703,19.888
		c0.177,0.552,0.356,1.107,0.538,1.664c-2.61-3.319-6.961-5.34-11.125-5.075c-6.04,0.384-11.763,6.223-17.966,3.486
		c-0.404-0.179-1.291-1.042-1.75-0.768c-0.482,0.286-0.001,0.974,0.201,1.277c0.365,0.548,0.769,1.064,1.218,1.546
		c1.887,2.027,4.351,3.354,7.121,3.635c6.506,0.659,12.661-3.357,19.091-2.244c0.146,0.026,3.025,0.951,4.43,1.611
		c0.117,0.304,0.233,0.608,0.357,0.91c-1.938-1.253-4.16-2.018-6.488-2.078c-2.698-0.071-5.322,0.674-7.921,1.297
		c-1.292,0.309-2.585,0.618-3.893,0.853c-0.471,0.085-3.099,0.119-3.274,0.624c-0.319,0.908,3.508,2.236,4,2.403
		c2.614,0.886,5.217,0.963,7.938,0.605c2.438-0.321,4.839-1.038,7.299-1.162c1.245-0.063,2.512,0.062,3.709,0.422
		c0.452,0.864,0.944,1.716,1.504,2.546c3.452,5.122,8.816,9.879,14.004,14.48c3.347,2.969,6.808,6.037,9.691,9.153
		c1.922,3.395,4.021,6.607,6.417,9.821l0.393,0.53c0.133,0.377,0.253,0.756,0.36,1.139c3.494,12.526-6.136,48.012-14.748,60.042
		c-1.585,2.215-3.383,4.725-5.047,7.236c-0.101,0.153-0.11,0.349-0.025,0.511c0.086,0.161,0.253,0.264,0.436,0.266l9.553,0.112
		c0.002,0,0.004,0,0.006,0c0.16,0,0.31-0.076,0.404-0.205c1.117-1.53,2.251-3.054,3.383-4.573
		c4.03-5.405,7.434-19.236,10.437-31.439c1.854-7.535,3.606-14.652,5.158-18.175c1.695-3.845,3.599-8.406,4.896-13.116
		c4.591-4.641,12.469-7.103,20.089-9.484c4.394-1.374,8.901-2.782,12.838-4.62c1.261,0.104,2.501,0.46,3.649,0.985
		c2.24,1.025,4.206,2.579,6.352,3.779c2.396,1.338,4.843,2.23,7.599,2.373c0.518,0.027,4.565,0.208,4.605-0.754
		c0.024-0.534-2.406-1.538-2.811-1.791c-1.128-0.702-2.216-1.467-3.302-2.232c-2.185-1.54-4.347-3.202-6.88-4.134
		c-1.532-0.564-3.145-0.783-4.752-0.713c0.229-0.156,0.457-0.313,0.679-0.475c1.303,0.039,2.564,0.129,2.656,0.148
		c6.385,1.344,10.62,7.351,16.908,9.144c2.677,0.763,5.457,0.441,7.96-0.745c0.595-0.282,1.162-0.613,1.704-0.986
		c0.299-0.207,1.001-0.668,0.659-1.112C178.204,116.5,177.061,116.974,176.619,116.99z M86.004,98.231
		c-2.204-7.186-2.008-13.685,0.589-19.825c0.977-2.309,2.082-4.646,3.151-6.906c0.563-1.191,1.126-2.383,1.675-3.576
		c0.5-1.09,1.112-2.428,1.362-3.816c0.159-0.061,0.316-0.126,0.48-0.169c0.911-0.239,1.868-0.255,2.793-0.42
		c1.033-0.184,1.972-0.512,2.822-1.137c0.16-0.117,1.401-1.043,1.18-1.337c-0.122-0.164-1.084,0.127-1.265,0.151
		c-0.504,0.065-1.01,0.102-1.517,0.139c-1.019,0.073-2.061,0.105-3.035,0.442c-0.497,0.172-0.953,0.43-1.359,0.752
		c-0.005-0.069-0.01-0.137-0.017-0.206c0.352-0.267,0.676-0.496,0.705-0.511c2.214-1.148,4.92-0.396,7.214-1.387
		c0.977-0.422,1.721-1.19,2.174-2.147c0.108-0.228,0.195-0.462,0.265-0.704c0.039-0.134,0.134-0.44-0.074-0.488
		c-0.199-0.047-0.422,0.37-0.549,0.482c-1.944,1.713-4.703,0.247-6.948,0.805c-1.331,0.33-2.504,1.298-3.172,2.522
		c-0.285-0.642-0.727-1.263-1.398-1.838c-0.205-0.174-0.509-0.157-0.691,0.039c-0.183,0.197-0.178,0.502,0.011,0.692
		c2.25,2.271,0.255,5.72-1.347,8.491c-0.304,0.525-0.592,1.024-0.833,1.481c-3.258,6.036-6.626,12.277-7.458,18.801
		c-0.679,5.327,0.749,10.401,2.624,15.147c-0.347-0.311-0.691-0.621-1.034-0.933C72.654,93.962,68.715,84.6,70.311,74.154
		c0.257-1.687,0.687-3.338,1.256-4.963c0.013-0.012,0.031-0.03,0.039-0.036c0.585-0.425,1.264-0.718,1.962-0.901
		c1.287-0.337,2.639-0.36,3.946-0.593c1.459-0.26,2.786-0.724,3.987-1.607c0.226-0.166,1.979-1.474,1.667-1.889
		c-0.172-0.232-1.531,0.18-1.787,0.213c-0.712,0.092-1.428,0.144-2.143,0.196c-1.439,0.103-2.911,0.148-4.288,0.625
		c-0.903,0.312-1.696,0.838-2.379,1.487c0.085-0.193,0.167-0.387,0.256-0.579c0.563-0.434,1.13-0.834,1.175-0.858
		c3.128-1.622,6.951-0.559,10.192-1.96c1.38-0.596,2.431-1.682,3.072-3.033c0.152-0.322,0.276-0.653,0.375-0.995
		c0.054-0.189,0.19-0.621-0.105-0.69c-0.281-0.066-0.596,0.523-0.775,0.681c-2.746,2.42-6.644,0.349-9.815,1.137
		c-0.435,0.108-0.852,0.279-1.259,0.476c2.58-4.146,5.79-8.228,9.093-12.424c0.987-1.254,1.976-2.51,2.949-3.771
		c1.971-2.551,4.117-5.866,5.243-9.34c0.423,3.009,2.29,6.009,3.969,8.182c0.65,0.843,1.311,1.682,1.971,2.52
		c4.466,5.674,8.685,11.032,9.604,17.052c1.054,6.902-1.554,13.092-7.973,18.925c-0.23,0.21-0.462,0.419-0.696,0.629l-0.303-0.527
		c-2.447-4.232-5.494-9.5-1.982-13.042c0.189-0.19,0.194-0.495,0.011-0.692c-0.182-0.195-0.487-0.212-0.691-0.039
		c-4.605,3.944-2.199,9.186-0.442,13.013c0.468,1.018,0.945,2.035,1.424,3.053l-0.003,0.003
		C92.992,88.711,87.976,93.149,86.004,98.231z M98.836,118.521c-0.64-0.771-1.319-1.541-2.004-2.271
		c-3.562-5.338-6.965-11.652-5.193-18.007c1.089-3.904,4.324-7.393,7.755-10.587c1.391,2.943,2.929,6.219,4.288,9.429
		c1.156,2.733,2.009,5.59,2.536,8.496c-1.669,1.878-3.036,3.698-4.175,5.559C100.687,113.354,99.633,115.776,98.836,118.521z
		 M105.483,123.673c-0.76,0.558-1.461,1.14-2.093,1.736c-0.137-0.282-0.281-0.563-0.429-0.845c0.693-4.784,1.967-8.981,3.879-12.769
		C106.922,115.623,106.467,119.608,105.483,123.673z M148.332,51.92c0.643-1.412,1.622-2.506,2.953-3.322
		c1.121,0.51,2.178,1.115,3.055,2.003c0.035,0.035,0.402,0.524,0.785,1.076c-2.282,6.489-3.002,13.656-3.446,21.437
		C149.073,66.481,145.83,57.418,148.332,51.92z"/>
</g>
</svg>
