<?xml version="1.0" encoding="iso-8859-1"?>
<!-- Generator: Adobe Illustrator 17.1.0, SVG Export Plug-In . SVG Version: 6.00 Build 0)  -->
<!DOCTYPE svg PUBLIC "-//W3C//DTD SVG 1.1//EN" "http://www.w3.org/Graphics/SVG/1.1/DTD/svg11.dtd">
<svg version="1.1" id="Capa_1" xmlns="http://www.w3.org/2000/svg" xmlns:xlink="http://www.w3.org/1999/xlink" x="0px" y="0px"
	 viewBox="0 0 150 150" style="enable-background:new 0 0 150 150;" xml:space="preserve">
<g>
	<path d="M42.771,22.192c-1.272,0.228-2.21,0.961-2.635,2.042c-4.622,2.493-8.556,7.746-7.17,14.134
		c1.142,5.268,5.104,9.208,10.433,10.449l0.454,18.909c0.027,1.124,0.485,2.111,1.294,2.795c0.086,0.111,0.175,0.221,0.281,0.325
		c5.773,5.7,12.55,9.952,20.161,12.691v29.759c-6.583-2.443-12.264-8.789-13.257-14.979c3.629-2.161,5.912-6.07,5.925-10.325
		c0.021-6.622-6.275-11.32-11.939-11.396l-0.134-0.001c-5.354,0-11.199,4.759-11.364,11.843
		c-0.138,5.941,4.889,10.432,10.088,11.407c1.649,9.664,10.296,18.575,20.681,21.288v22.625c0,2.124,1.626,3.726,3.784,3.726
		s3.784-1.602,3.784-3.726v-28.216c7.752-3.137,15.012-6.671,19.772-13.536c1.675-2.415,2.805-4.28,3.568-5.968
		c6.71-2.042,12.329-6.675,15.591-12.944c4.296-8.253,3.191-18.047,2.271-25.954c1.408-0.364,2.73-0.917,3.941-1.649
		c6.624-4.007,7.321-12.975,3.815-18.837c-2.209-3.693-6.377-5.898-11.149-5.898c-1.328,0-2.641,0.175-3.905,0.519
		c-1.002-0.354-2.099-0.224-3.089,0.382c-6.721,4.109-8.976,12.121-5.36,19.05c1.665,3.19,4.498,5.446,8.034,6.419
		c0.003,0.031,0.006,0.062,0.01,0.094c0.754,6.481,1.609,13.826-0.666,20.664c-1.278,3.842-4.179,7.101-8.004,9.203
		c-0.009-0.821-0.029-1.707-0.054-2.679c3.641-1.641,6.465-5.552,6.842-9.752c0.545-6.095-4.712-10.668-9.922-11.441
		c-0.242-0.051-0.48-0.078-0.723-0.083c-0.288-0.019-0.554-0.002-0.804,0.035c-5.646,0.375-10.104,4.783-10.619,10.521
		c-0.461,5.147,3.316,9.29,7.66,10.864c0.168,6.62,0.135,6.809-3.495,12.893c-2.816,4.72-7.97,7.521-13.715,9.949V74.906
		c6.738-0.744,12.245-5.521,13.714-12.123c0.918-4.124,0.122-8.336-2.224-11.9l3.925-4.097c0.538-0.561,0.868-1.255,0.994-1.976
		c0.24-0.472,0.389-1.025,0.389-1.676V30.89c0.765-0.158,1.523-0.369,2.261-0.662c6.982-2.777,10.333-11.291,7.786-18.202
		C97.392,4.948,88.865,1.538,81.936,3.892c-0.315,0.107-0.59,0.248-0.842,0.405c-0.331,0.088-0.666,0.211-1.006,0.415
		c-6.065,3.634-9.079,11.37-6.231,18.03c1.636,3.826,4.968,6.549,8.791,7.755c-0.006,0.09-0.026,0.17-0.026,0.264V42.4l-3.296,3.44
		c-1.722-1.012-3.62-1.72-5.617-2.032c-0.817-0.128-1.645-0.193-2.461-0.193c-7.713,0-14.342,5.702-15.763,13.558
		c-1.316,7.279,3.062,14.78,10.104,17.707v0.406c-5.19-2.21-9.913-5.311-14.078-9.28L51.092,48.56
		c6.444-2.227,9.559-9.984,8.418-16.164C58.064,24.566,49.354,21.018,42.771,22.192z M40.92,33.818
		c0.929-1.893,2.759-3.325,4.555-3.565c0.59-0.079,1.134-0.276,1.623-0.587c2.927,0.583,4.548,3.204,4.822,5.48
		c0.34,2.827-1.1,5.156-3.851,6.23c-0.523,0.204-1.071,0.309-1.628,0.309c-2.391,0-4.519-1.824-5.566-3.633
		C39.917,36.399,40.492,34.69,40.92,33.818z M72.173,51.216c2.034,0.115,3.825,0.979,5.178,2.501
		c1.577,1.773,2.395,4.241,2.243,6.771c-0.282,4.696-5.532,7.615-9.562,6.882c-0.786-0.143-1.503-0.054-2.163,0.219
		c-3.176-1.592-5.128-4.743-5.045-8.268c0.12-5.083,4.582-8.12,8.826-8.12C71.825,51.201,71.999,51.206,72.173,51.216z
		 M46.442,84.158c0.074-0.006,0.148-0.009,0.221-0.009c1.895,0,3.854,1.948,4.033,4.009c0.187,2.159-2.002,4.124-3.918,4.311
		c-0.016,0.001-0.032,0.003-0.048,0.004l-0.034-0.001c-2.271-0.075-4.166-1.885-4.314-4.118
		C42.241,86.212,44.488,84.308,46.442,84.158z M96.065,76.627c-0.751,0.624-1.764,1.014-2.653,1.019
		c-1.731,0-3.137-2.073-3.146-3.79c-0.006-1.029,0.716-1.782,1.147-2.14c0.725-0.602,1.692-0.985,2.548-1.016
		c1.82,0.215,3.24,1.858,3.251,3.787C97.219,75.517,96.496,76.27,96.065,76.627z M105.601,40.482
		c0.363-0.124,0.718-0.312,1.058-0.562c2.647-1.949,5.961-1.98,8.266,0.014c1.159,1.003,1.766,2.504,1.707,4.228
		c-0.063,1.9-0.955,3.722-2.326,4.755c-1.165,0.878-2.37,1.323-3.584,1.323c-2.092,0-4.088-1.352-5.209-3.527
		C104.423,44.6,104.462,42.297,105.601,40.482z M81.08,20.847c-2.354-3.285-0.434-7.921,2.708-9.804
		c0.044-0.026,0.074-0.059,0.117-0.087c7.767-2.619,13.481,7.276,6.375,12.096C87.346,25.044,82.996,23.521,81.08,20.847z"/>
</g>
</svg>
