<?xml version="1.0" encoding="iso-8859-1"?>
<!-- Generator: Adobe Illustrator 17.1.0, SVG Export Plug-In . SVG Version: 6.00 Build 0)  -->
<!DOCTYPE svg PUBLIC "-//W3C//DTD SVG 1.1//EN" "http://www.w3.org/Graphics/SVG/1.1/DTD/svg11.dtd">
<svg version="1.1" id="Capa_1" xmlns="http://www.w3.org/2000/svg" xmlns:xlink="http://www.w3.org/1999/xlink" x="0px" y="0px"
	 viewBox="0 0 150 150" style="enable-background:new 0 0 150 150;" xml:space="preserve">
<g>
	<path d="M75,3C35.235,3,3,24.976,3,52.085C3,76.86,29.929,97.337,64.919,100.68l-1.076,38.818l-0.002,0.069v0.069
		c0,6.601,9.234,6.601,12.269,6.601s12.269,0,12.269-6.601v-0.065l-0.002-0.065l-1.023-39.071C121.229,96.439,147,76.32,147,52.085
		C147,24.976,114.765,3,75,3z M83.379,139.637c0,1.068-3.634,1.601-7.269,1.601s-7.269-0.534-7.269-1.601l1.07-38.603l0.73-26.344
		c-6.582-0.736-9.28-3.85-13.768-7.807c-1.55,0.352-3.153,0.516-4.755,0.516c-3.255,0-6.508-0.678-9.32-1.84
		c-5.626-2.325-8.062-6.525-9.713-10.299c-0.538-1.23,1.162-2.034,2.795-2.034c1.08,0,2.131,0.352,2.487,1.164
		c1.563,3.576,6.001,9.908,13.163,9.908c0.815,0,1.665-0.082,2.55-0.259c-2.938-3.508-4.414-7.349-3.565-10.673
		c0.214-0.839,1.191-1.201,2.254-1.201c1.605,0,3.409,0.825,3.088,2.081c-0.366,1.434-0.064,3.079,0.731,4.771
		c6.811-2.532,9.35-7.235,6.479-11.782c-0.755-1.196,0.881-1.978,2.567-1.978c1.103,0,2.227,0.335,2.715,1.108
		c3.815,6.04-0.381,12.662-9.787,15.765c3.49,4.39,9.671,8.424,15.679,9.227V45.318c0-1.067,1.385-1.601,2.77-1.601
		c1.385,0,2.77,0.534,2.77,1.601v5.727c6.974-1.67,8.068-6.542,8.436-10.887c0.089-1.051,1.506-1.579,2.877-1.579
		c1.368,0,2.689,0.525,2.6,1.579c-0.508,6.005-2.996,12.79-13.914,14.341v12.613c7.774-2.996,18.906-8.981,16.223-14.528
		c-0.599-1.238,1.102-2.047,2.767-2.047c1.099,0,2.182,0.352,2.576,1.167c1.165,2.408,0.562,4.919-1.177,7.327
		c7.063-2.215,11.443-6.527,11.37-11.521c-0.016-1.055,1.345-1.583,2.714-1.583c1.37,0,2.747,0.528,2.763,1.583
		c0.109,7.418-7.905,13.77-19.867,15.74c-0.265,0.044-0.517,0.063-0.756,0.063c-0.193,0-0.376-0.013-0.552-0.035
		c-4.332,3.28-8.563,6.047-14.26,7.609l0.786,30.029L83.379,139.637z"/>
</g>
</svg>
