<?xml version="1.0" encoding="iso-8859-1"?>
<!-- Generator: Adobe Illustrator 17.1.0, SVG Export Plug-In . SVG Version: 6.00 Build 0)  -->
<!DOCTYPE svg PUBLIC "-//W3C//DTD SVG 1.1//EN" "http://www.w3.org/Graphics/SVG/1.1/DTD/svg11.dtd">
<svg version="1.1" id="Capa_1" xmlns="http://www.w3.org/2000/svg" xmlns:xlink="http://www.w3.org/1999/xlink" x="0px" y="0px"
	 viewBox="0 0 150 150" style="enable-background:new 0 0 150 150;" xml:space="preserve">
<g>
	<path d="M124.693,49.852c-3.076-2.227-5.291-5.72-4.903-9.145c1.369-12.09-6.04-22.416-18.018-24.3
		c-2.127-0.335-4.245-1.248-6.162-2.275c-3.614-1.937-7.38-2.65-11.274-1.564c-2.103,0.587-3.397,0.325-5.068-1.188
		c-9.534-8.632-24.476-5.547-29.147,6.169c-1.341,3.365-3.324,5.329-6.433,6.609c-0.694,0.286-1.456,0.609-1.949,1.137
		c-1.552,1.662-3.031,1.252-4.911,0.452c-12.138-5.17-25.209,3.337-25.715,16.492c-0.072,1.879-0.851,3.919-1.859,5.539
		C5.646,53.583,5.008,59.407,7.43,65.441c-1.744,4.357-0.223,9.789,4.073,12.94c4.714,3.459,10.15,1.654,14.316-1.694
		c1.179-0.112,2.379-0.351,3.604-0.726c2.449-0.751,4.66-1.648,6.725-0.648c0.327,0.243,0.663,0.459,1.004,0.658
		c0.091,0.076,0.182,0.147,0.273,0.232c0.012-0.019,0.022-0.034,0.034-0.053c0.68,0.367,1.385,0.645,2.107,0.857
		c4.006,14.158,12.618,26.559,24.444,35.348c-0.721,8.66-3.026,17.15-7.321,25.47c-4.794,2.931-10.643,0.811-15.663-0.579
		c-4.438-1.229-8.759-1.682-13.19-0.268c-0.917,0.293-1.344,1.018-1.389,1.769c-0.006,0.021-0.015,0.038-0.02,0.06
		c-0.336,1.444-0.672,2.888-1.008,4.331c-0.314,1.351,0.659,2.276,1.714,2.458c0.165,0.042,0.34,0.071,0.534,0.071h82
		c0.719,0,1.23-0.316,1.548-0.764c0.472-0.369,0.785-0.935,0.785-1.57v-3c0-0.888-0.608-1.648-1.422-1.902
		c-0.311-0.262-0.722-0.431-1.245-0.431H84.556c-1.231-1.422-2.484-2.858-3.778-4.279c-3.6-3.953-5.188-8.353-3.57-13.676
		c0.562-1.849,0.967-3.772,1.201-5.691c0.691-5.686,1.337-11.399,1.992-17.195c8.316-0.792,15.836-4.338,21.674-10.354
		c2.422-0.006,4.596-0.724,6.409-1.943l0.727-0.226c3.951,3.188,10.046,3.517,14.65,1.817c4.266-1.575,7.955-5.842,8.084-10.533
		c0.012-0.439-0.01-0.874-0.048-1.305C135.218,66.062,132.181,55.274,124.693,49.852z M52.366,75.618
		c0.047-0.018,0.086-0.032,0.133-0.05c0.859-0.327,2.356,0.048,3.129,0.649c1.09,0.848,2.121,1.772,3.129,2.712
		c0.02,0.08,0.021,0.154,0.046,0.236c1.539,5.143,3.078,10.287,4.617,15.43c0.367,2.592,0.601,5.167,0.728,7.729
		C56.185,95.776,51.829,86.054,52.366,75.618z M82.239,90.483c0.36-0.862,0.721-1.724,1.096-2.582c0.125,0,0.251,0,0.376-0.001
		c0-0.297,0.007-0.595,0.017-0.894c1.027-2.303,2.149-4.555,3.409-6.707c1.605,1.415,3.277,2.686,5.058,3.723
		C89.213,86.658,85.87,88.822,82.239,90.483z"/>
</g>
</svg>
