<?xml version="1.0" encoding="iso-8859-1"?>
<!-- Generator: Adobe Illustrator 17.1.0, SVG Export Plug-In . SVG Version: 6.00 Build 0)  -->
<!DOCTYPE svg PUBLIC "-//W3C//DTD SVG 1.1//EN" "http://www.w3.org/Graphics/SVG/1.1/DTD/svg11.dtd">
<svg version="1.1" id="Capa_1" xmlns="http://www.w3.org/2000/svg" xmlns:xlink="http://www.w3.org/1999/xlink" x="0px" y="0px"
	 viewBox="0 0 150 150" style="enable-background:new 0 0 150 150;" xml:space="preserve">
<g>
	<path d="M62.872,93.244c0.165,0.092,0.333,0.175,0.5,0.262c0.167,0.088,0.332,0.179,0.5,0.262c1.413,0.7,2.887,1.246,4.397,1.615
		c0.166,0.041,0.333,0.072,0.5,0.109c0.166,0.036,0.333,0.067,0.5,0.099c1.193,0.228,2.4,0.361,3.614,0.361
		c0.566,0,1.127-0.03,1.683-0.082c0.168-0.016,0.333-0.047,0.5-0.068c0.167-0.021,0.334-0.043,0.5-0.068
		c1.517-0.231,2.988-0.66,4.397-1.276c0.166-0.073,0.336-0.137,0.5-0.216c0.168-0.08,0.333-0.169,0.5-0.254
		c1.314-0.674,2.57-1.504,3.74-2.511c5.36-4.612,7.85-12.288,6.196-19.1c-1.364-5.619-5.227-9.456-10.879-10.805
		c-1.836-0.438-3.739-0.707-5.657-0.799l-0.9-0.043l-0.051-0.899c-0.093-1.635-0.998-3.381-3.259-3.381
		c-0.194,0-0.397,0.013-0.604,0.038c-7.354,0.897-13.521,4.665-16.498,10.08c-2.677,4.869-2.629,10.518,0.139,16.334
		C55.305,87.347,58.783,90.955,62.872,93.244z M62.338,72.632c2.409-2.811,7.171-3.137,10.543-3.137c0.891,0,1.731,0.025,2.434,0.05
		c3.521,0.123,7.563,1.04,7.566,7.083c0.002,3.802-1.65,7.026-4.65,9.078c-1.844,1.261-3.809,1.901-5.84,1.901
		c-1.334,0-2.601-0.273-3.78-0.745c-0.726-0.29-1.414-0.661-2.068-1.087c-2.447-1.595-4.356-4.023-5.447-6.444l-0.076-0.168
		l-0.011-0.184c-0.005-0.078-0.006-0.156-0.008-0.233c-0.002-0.081-0.001-0.163-0.014-0.249
		C60.614,76.087,61.068,74.114,62.338,72.632z"/>
	<path d="M63.476,4.533c-0.062-1.099-0.789-2.068-2.207-1.895c-6.324,0.771-10.571,6.067-7.591,12.328
		c2.588,5.438,9.672,8.223,14.645,3.943c4.632-3.986,4.284-12.448-2.26-14.01C65.208,4.695,64.339,4.575,63.476,4.533z
		 M64.918,15.652c-2.817,1.926-5.789-0.096-6.935-2.64c-0.005-0.085-0.001-0.167-0.014-0.255c-0.552-3.559,3.504-3.537,5.892-3.454
		c1.902,0.067,2.923,0.706,2.924,2.694C66.785,13.49,66.144,14.814,64.918,15.652z"/>
	<path d="M126.362,39.011c3.265-2.81,3.02-8.776-1.593-9.877c-0.603-0.144-1.216-0.229-1.824-0.258
		c-0.044-0.775-0.556-1.458-1.556-1.336c-4.458,0.544-7.452,4.277-5.352,8.691C117.862,40.065,122.856,42.028,126.362,39.011z
		 M123.216,32.238c1.341,0.047,2.06,0.498,2.061,1.9c0.001,1.052-0.452,1.986-1.316,2.577c-1.986,1.358-4.081-0.068-4.889-1.861
		c-0.004-0.06,0-0.118-0.01-0.18C118.673,32.165,121.533,32.179,123.216,32.238z"/>
	<path d="M42.475,19.048c3.265-2.81,3.02-8.776-1.593-9.877c-0.603-0.144-1.216-0.229-1.824-0.258
		c-0.044-0.775-0.556-1.458-1.556-1.336c-4.458,0.544-7.452,4.277-5.352,8.691C33.975,20.103,38.969,22.065,42.475,19.048z
		 M35.185,14.89c-0.004-0.06,0-0.118-0.01-0.18c-0.389-2.509,2.471-2.494,4.154-2.435c1.341,0.047,2.06,0.498,2.061,1.9
		c0,1.052-0.452,1.986-1.316,2.577C38.089,18.109,35.993,16.684,35.185,14.89z"/>
	<path d="M46.633,87.863c-6.324,0.771-10.571,6.067-7.591,12.328c1.518,3.19,4.585,5.452,7.863,5.926v9.22
		c0,0.586,0.145,1.128,0.402,1.559c0.273,0.622,0.764,1.103,1.458,1.428c5.395,2.524,11.047,4.947,16.806,7.204v19.045
		c0,2.042,1.609,3.11,3.199,3.11c1.589,0,3.198-1.068,3.198-3.11v-18.995l5.963-4.26c1.66-0.09,3.032-1.516,3.032-3.193
		c0-0.151-0.017-0.299-0.04-0.444c0.021-0.146,0.04-0.294,0.04-0.455v-6.11H98.68c0.754,0,1.411-0.222,1.951-0.659
		c1.08-0.516,1.697-1.52,1.697-2.765v-2.9c7.433-1.942,14.885-3.767,22.156-5.422c0.723-0.165,1.298-0.515,1.71-1.041
		c0.853-0.562,1.321-1.467,1.321-2.556v-17.36c-0.165,0.094-0.333,0.177-0.5,0.265c-0.167,0.088-0.332,0.183-0.5,0.265
		c-1.433,0.704-2.906,1.198-4.397,1.509c-0.167,0.035-0.333,0.08-0.5,0.11c-0.166,0.03-0.333,0.049-0.5,0.075v12.954
		c-6.347,1.463-12.664,3.007-18.79,4.592v-4.575c1.965,0.037,3.953-0.581,5.685-2.072c4.632-3.986,4.284-12.448-2.26-14.01
		c-0.855-0.204-1.724-0.324-2.587-0.365c-0.062-1.099-0.789-2.068-2.207-1.895c-6.324,0.771-10.571,6.067-7.591,12.328
		c0.628,1.32,1.525,2.479,2.588,3.424c-0.006,0.088-0.026,0.167-0.026,0.259v13.443H80.963v-9.596
		c-0.165,0.079-0.333,0.145-0.5,0.219c-0.166,0.074-0.333,0.141-0.5,0.209c-1.44,0.59-2.912,0.986-4.397,1.198
		c-0.167,0.024-0.333,0.045-0.5,0.064c-0.167,0.019-0.333,0.05-0.5,0.064v7.616H69.27v-7.885c-0.167-0.031-0.334-0.065-0.5-0.099
		c-0.166-0.035-0.334-0.061-0.5-0.099c-1.506-0.352-2.979-0.874-4.397-1.541c-0.168-0.079-0.334-0.163-0.5-0.246
		c-0.168-0.084-0.334-0.174-0.5-0.262v12.882c0,0.754,0.221,1.41,0.658,1.952c0.517,1.079,1.521,1.696,2.765,1.696h8.271v4.289
		l-5.525,4.25c-0.206,0.014-0.405,0.051-0.572,0.105c-0.164,0.014-0.334,0.042-0.516,0.086c-4.93-1.923-9.856-4.017-14.651-6.227
		v-8.852c0-0.039-0.01-0.072-0.011-0.11c0.131-0.101,0.266-0.187,0.395-0.298c4.632-3.986,4.284-12.448-2.26-14.01
		c-0.855-0.204-1.724-0.324-2.587-0.365C48.777,88.659,48.05,87.69,46.633,87.863z M103.551,81.927
		c1.902,0.067,2.923,0.706,2.924,2.694c0.001,1.493-0.641,2.817-1.867,3.655c-1.16,0.793-2.345,0.909-3.42,0.602
		c-0.365-0.275-0.789-0.463-1.24-0.566c-0.983-0.63-1.792-1.605-2.275-2.677c-0.005-0.085-0.001-0.167-0.014-0.255
		C97.107,81.823,101.163,81.844,103.551,81.927z M52.148,97.222c0.001,1.493-0.641,2.817-1.867,3.655
		c-2.817,1.926-5.789-0.096-6.935-2.64c-0.005-0.085-0.001-0.167-0.014-0.255c-0.552-3.559,3.504-3.537,5.892-3.454
		C51.126,94.594,52.147,95.234,52.148,97.222z"/>
	<path d="M13.095,42.458c2.588,5.439,9.672,8.223,14.645,3.943c4.632-3.986,4.284-12.449-2.26-14.01
		c-0.855-0.204-1.724-0.324-2.587-0.365c-0.062-1.099-0.789-2.068-2.207-1.895C14.363,30.901,10.116,36.197,13.095,42.458z
		 M23.278,36.794c1.902,0.067,2.923,0.706,2.924,2.695c0.001,1.493-0.641,2.816-1.867,3.655c-2.817,1.926-5.789-0.096-6.935-2.64
		c-0.005-0.085-0.001-0.167-0.014-0.255C16.834,36.69,20.89,36.711,23.278,36.794z"/>
	<path d="M89.31,45.104c-0.855-0.204-1.724-0.324-2.587-0.365c-0.062-1.099-0.789-2.068-2.207-1.895
		c-6.324,0.771-10.571,6.066-7.591,12.328c2.588,5.439,9.672,8.223,14.645,3.943C96.201,55.129,95.853,46.666,89.31,45.104z
		 M88.165,55.857c-2.817,1.926-5.789-0.096-6.935-2.64c-0.005-0.085-0.001-0.167-0.014-0.255c-0.552-3.559,3.504-3.537,5.892-3.454
		c1.902,0.067,2.923,0.707,2.924,2.695C90.032,53.695,89.39,55.019,88.165,55.857z"/>
	<path d="M136.285,56.286c-1.364-5.619-5.227-9.456-10.879-10.805c-1.836-0.438-3.739-0.707-5.657-0.799l-0.9-0.043l-0.051-0.899
		c-0.093-1.635-0.998-3.381-3.259-3.381c-0.194,0-0.397,0.013-0.604,0.038c-7.354,0.897-13.521,4.665-16.498,10.08
		c-2.677,4.869-2.629,10.518,0.139,16.334c3.714,7.805,11.628,13.049,19.693,13.049c0.964,0,1.914-0.089,2.849-0.24
		c0.167-0.027,0.334-0.051,0.5-0.082c0.168-0.032,0.333-0.078,0.5-0.115c1.525-0.339,2.997-0.879,4.397-1.615
		c0.168-0.088,0.335-0.177,0.5-0.271c0.167-0.094,0.336-0.182,0.5-0.282c0.893-0.543,1.754-1.164,2.574-1.869
		C135.449,70.774,137.939,63.098,136.285,56.286z M123.617,69.615c-1.844,1.261-3.809,1.901-5.84,1.901
		c-5.227,0-9.439-4.157-11.295-8.277l-0.076-0.168l-0.011-0.184c-0.005-0.079-0.007-0.156-0.008-0.234
		c-0.002-0.081-0.001-0.163-0.014-0.249c-0.374-2.409,0.081-4.382,1.35-5.865c2.409-2.811,7.171-3.137,10.543-3.137
		c0.891,0,1.731,0.025,2.434,0.05c3.521,0.123,7.563,1.04,7.566,7.083C128.27,64.339,126.618,67.563,123.617,69.615z"/>
	<path d="M112.051,18.686c-1.364-5.619-5.227-9.456-10.879-10.804c-1.835-0.438-3.739-0.707-5.657-0.799l-0.9-0.043L94.564,6.14
		c-0.093-1.635-0.998-3.381-3.259-3.381c-0.194,0-0.397,0.013-0.603,0.038c-7.354,0.897-13.521,4.665-16.498,10.08
		c-2.677,4.869-2.629,10.518,0.139,16.334c3.714,7.805,11.628,13.049,19.693,13.049c4.331,0,8.418-1.547,11.82-4.475
		C111.214,33.173,113.704,25.498,112.051,18.686z M99.383,32.014c-1.844,1.261-3.809,1.901-5.84,1.901
		c-5.227,0-9.439-4.157-11.295-8.277l-0.076-0.168l-0.011-0.184c-0.005-0.078-0.007-0.156-0.008-0.233
		c-0.002-0.082-0.001-0.163-0.014-0.249c-0.374-2.409,0.081-4.383,1.35-5.865c2.409-2.811,7.17-3.136,10.542-3.136
		c0.891,0,1.731,0.025,2.435,0.05c3.521,0.123,7.563,1.04,7.566,7.083C104.035,26.738,102.384,29.962,99.383,32.014z"/>
	<path d="M54.608,58.27c4.331,0,8.418-1.547,11.82-4.475c5.36-4.613,7.85-12.288,6.196-19.1c-1.364-5.619-5.227-9.456-10.879-10.804
		c-1.835-0.438-3.739-0.707-5.657-0.799l-0.9-0.043l-0.051-0.899c-0.093-1.635-0.998-3.381-3.259-3.381
		c-0.194,0-0.397,0.013-0.604,0.038c-7.354,0.897-13.521,4.665-16.498,10.08c-2.677,4.869-2.629,10.518,0.139,16.334
		C38.63,53.026,46.544,58.27,54.608,58.27z M44.063,34.949c2.409-2.811,7.17-3.137,10.542-3.137c0.891,0,1.731,0.025,2.435,0.05
		c3.521,0.123,7.563,1.04,7.566,7.083c0.002,3.802-1.65,7.026-4.65,9.078c-1.844,1.261-3.809,1.901-5.84,1.901
		c-5.227,0-9.439-4.157-11.295-8.277l-0.076-0.168l-0.011-0.184c-0.005-0.078-0.006-0.156-0.008-0.233
		c-0.002-0.082-0.001-0.163-0.014-0.249C42.339,38.404,42.793,36.431,44.063,34.949z"/>
	<path d="M10.887,76.686c3.714,7.805,11.628,13.049,19.693,13.049c4.331,0,8.418-1.547,11.82-4.475
		c5.36-4.612,7.85-12.288,6.196-19.1c-1.364-5.619-5.227-9.456-10.879-10.805c-1.835-0.438-3.739-0.707-5.657-0.799l-0.9-0.043
		l-0.051-0.899c-0.093-1.635-0.998-3.381-3.259-3.381c-0.194,0-0.397,0.013-0.604,0.038c-7.354,0.897-13.521,4.665-16.498,10.08
		C8.071,65.221,8.119,70.869,10.887,76.686z M20.034,66.415c2.409-2.811,7.171-3.137,10.543-3.137c0.891,0,1.731,0.025,2.434,0.05
		c3.521,0.123,7.563,1.04,7.566,7.083c0.002,3.802-1.65,7.026-4.65,9.078c-1.845,1.261-3.809,1.901-5.84,1.901
		c-5.227,0-9.439-4.157-11.295-8.277l-0.076-0.168l-0.011-0.184c-0.005-0.078-0.006-0.156-0.008-0.233
		c-0.002-0.081-0.001-0.163-0.014-0.249C18.31,69.87,18.765,67.897,20.034,66.415z"/>
</g>
</svg>
