<?xml version="1.0" encoding="iso-8859-1"?>
<!-- Generator: Adobe Illustrator 17.1.0, SVG Export Plug-In . SVG Version: 6.00 Build 0)  -->
<!DOCTYPE svg PUBLIC "-//W3C//DTD SVG 1.1//EN" "http://www.w3.org/Graphics/SVG/1.1/DTD/svg11.dtd">
<svg version="1.1" id="Capa_1" xmlns="http://www.w3.org/2000/svg" xmlns:xlink="http://www.w3.org/1999/xlink" x="0px" y="0px"
	 viewBox="0 0 150 150" style="enable-background:new 0 0 150 150;" xml:space="preserve">
<g>
	<path d="M144.778,54.531c-1.375-0.877-3.07-1.049-4.875-0.648c2.642-18.281-2.652-34.024-12.497-35.971
		c-3.854-0.762-7.868,0.702-11.597,3.834c-1.186-8.585-5.329-15.002-11.203-16.025c-6.05-1.054-12.305,3.9-16.316,11.993
		C84.511,8.822,78.238,3,71.133,3c-8.883,0-16.467,9.098-19.498,21.925c-3.851-8.584-10.603-13.848-16.245-12.127
		c-5.433,1.657-8.093,9.266-6.86,18.106c-4.793-3.086-9.79-4.058-14.001-2.215c-8.989,3.933-10.99,19.2-4.471,34.1
		c2.352,5.375,5.493,9.962,8.968,13.453c-3.592,0.803-6.321,2.634-7.48,5.398c-2.62,6.251,3.782,14.892,14.3,19.301
		c7.175,3.007,14.406,3.264,19.113,1.141c9.995,8.493,20.292,16.987,33.701,18.722c0.253,1.937,0.382,3.907,0.349,5.92
		c-0.007,0.448,0.065,0.843,0.169,1.213c0.029,4.44,0.148,10.43,0.276,12.732c0.286,5.129,8.287,5.157,8,0
		c-0.583-10.46-0.69-27.496,6.969-35.535c5.64-5.919,12.919-9.914,18.638-15.759c0.067,0.015,0.132,0.036,0.199,0.049
		c5.746,1.136,11.845-2.669,16.828-9.59c4.117,1.437,10.161-1.962,14.15-8.215C148.603,64.775,148.845,57.125,144.778,54.531z
		 M71.133,71.667c7.871,0,14.724-7.143,18.292-17.694c0.588,0.661,1.213,1.255,1.881,1.754c-2.117,11.076-7.87,22.459-18.063,27.113
		c-0.13-0.338-0.269-0.674-0.396-1.013c-1.237-3.3-1.924-6.706-2.233-10.182C70.787,71.651,70.959,71.667,71.133,71.667z
		 M43.956,76.988c0.615-1.149,1.132-2.406,1.519-3.778c3.386,3.398,7.288,5.013,10.771,3.951c2.834-0.864,4.915-3.348,6.085-6.78
		c0.17,3.572,0.693,7.091,1.754,10.527c1.458,4.724,3.454,9.298,5.513,13.853c-5.088-3.879-10.528-7.381-16.235-11.062
		C50.175,81.643,47.003,79.394,43.956,76.988z M50.079,96.008c0.319-1.807-0.004-3.747-0.875-5.694
		c4.107,2.689,8.298,5.237,12.436,7.95c5.669,3.717,10.728,8.479,15.038,13.74c0.051,0.164,0.096,0.329,0.146,0.494
		C66.55,110.435,57.996,102.879,50.079,96.008z M101.134,89.377c-6.347,5.081-12.915,9.493-17.395,16.456
		c-0.184,0.285-0.338,0.583-0.508,0.874c-2.004-5.586-4.538-11.03-6.938-16.517c12.623-5.802,20.06-19.072,22.777-32.631
		c0.42-0.08,0.838-0.194,1.255-0.326c-1.011,11.641,1.249,21.863,5.836,27.574C104.615,86.408,102.94,87.93,101.134,89.377z"/>
</g>
</svg>
