<?xml version="1.0" encoding="iso-8859-1"?>
<!-- Generator: Adobe Illustrator 17.1.0, SVG Export Plug-In . SVG Version: 6.00 Build 0)  -->
<!DOCTYPE svg PUBLIC "-//W3C//DTD SVG 1.1//EN" "http://www.w3.org/Graphics/SVG/1.1/DTD/svg11.dtd">
<svg version="1.1" id="Capa_1" xmlns="http://www.w3.org/2000/svg" xmlns:xlink="http://www.w3.org/1999/xlink" x="0px" y="0px"
	 viewBox="0 0 150 150" style="enable-background:new 0 0 150 150;" xml:space="preserve">
<g>
	<path d="M85.068,141.631V85.476c8.13-2.92,14.421-10.085,15.807-18.728c0.809-5.045-6.899-7.21-7.714-2.127
		c-0.834,5.201-3.737,9.561-8.093,12.072v-6.002c0-5.159-8-5.159-8,0v70.939C77.068,146.79,85.068,146.79,85.068,141.631z"/>
	<path d="M71.068,142.131V84.692c0-5.159-8-5.159-8,0v2.354c-2.771-1.678-4.944-4.215-6.052-7.446
		c-1.664-4.85-9.393-2.767-7.714,2.127c2.261,6.59,7.272,11.875,13.766,14.182v13.604l-6.642-4.839
		c-1.766-1.287-4.454-0.304-5.473,1.435c-1.186,2.024-0.323,4.192,1.435,5.473c3.367,2.453,6.735,4.906,10.102,7.36
		c0.182,0.133,0.379,0.227,0.578,0.313v22.877C63.068,147.29,71.068,147.29,71.068,142.131z"/>
	<path d="M39.397,4.255c-3.924,0.818-3.342,11.583-2.524,15.507s3.073,6.773,6.997,5.955c3.924-0.818,4.853-4.331,4.036-8.255
		C47.088,13.539,43.321,3.437,39.397,4.255z"/>
	<path d="M101.888,47.579c-2.682,2.979-3.648,6.482-0.67,9.164c2.979,2.682,6.362,1.356,9.044-1.622
		c2.682-2.979,8.606-11.987,5.627-14.669C112.912,37.769,104.571,44.6,101.888,47.579z"/>
	<path d="M125.832,67.246c-0.093-4.007-10.786-5.386-14.793-5.292s-7.218,1.795-7.125,5.802s3.38,5.558,7.387,5.465
		C115.308,73.128,125.925,71.254,125.832,67.246z"/>
	<path d="M103.63,87.067c3.464,2.018,13.492,5.976,15.509,2.513c2.018-3.464-6.373-10.233-9.837-12.251
		c-3.464-2.018-7.09-2.247-9.108,1.216C98.178,82.008,100.167,85.049,103.63,87.067z"/>
	<path d="M88.361,39.882c-0.232-0.029-0.46-0.018-0.684,0.024c-0.218-0.069-0.443-0.109-0.676-0.109c-2.83,0-4.471,5.31-5.193,9.844
		c-0.434,1.594-0.729,3.06-0.859,4.094c-0.498,3.977,0.713,7.404,4.69,7.901c0.216,0.027,0.423,0.039,0.627,0.046
		c0.017,0.001,0.036,0.003,0.052,0.004c0.017,0.002,0.036,0.001,0.054,0.003c0.203,0.019,0.41,0.032,0.628,0.032
		c4.008,0,5.635-3.25,5.635-7.258c0-1.042-0.111-2.533-0.344-4.169C92.138,45.706,91.168,40.233,88.361,39.882z"/>
	<path d="M59.218,53.34c-3.982,0.459-4.376,11.233-3.917,15.215s2.448,7.024,6.43,6.564s5.225-3.874,4.766-7.856
		S63.2,52.881,59.218,53.34z"/>
	<path d="M49.53,61.577c-2.359-3.241-9.946-10.9-13.187-8.542c-3.241,2.359,1.716,11.933,4.075,15.174s5.586,4.911,8.827,2.552
		C52.486,68.402,51.889,64.817,49.53,61.577z"/>
	<path d="M34.078,23.937c-1.81-3.576-8.075-12.35-11.651-10.54c-3.576,1.81-0.214,12.054,1.596,15.63
		c1.81,3.576,4.729,5.741,8.305,3.931C35.905,31.147,35.888,27.513,34.078,23.937z"/>
	<path d="M16.817,84.099c1.866,3.548,12.056,0.027,15.603-1.839s5.667-4.818,3.801-8.366c-1.866-3.548-5.499-3.475-9.047-1.609
		S14.952,80.551,16.817,84.099z"/>
	<path d="M32.514,103.801c3.279,2.305,10.739-5.478,13.045-8.757s2.844-6.873-0.436-9.178s-6.479-0.583-8.784,2.697
		C34.033,91.841,29.234,101.495,32.514,103.801z"/>
	<path d="M24.485,65.687c4.008-0.083,7.223-1.776,7.14-5.783c-0.083-4.008-3.365-5.567-7.372-5.484
		c-4.008,0.083-14.629,1.928-14.547,5.936S20.477,65.769,24.485,65.687z"/>
	<path d="M25.638,45.91c2.922-2.744,1.884-6.226-0.86-9.148c-2.744-2.922-11.225-9.578-14.147-6.835
		c-2.922,2.744,3.187,11.627,5.931,14.549C19.305,47.398,22.715,48.653,25.638,45.91z"/>
	<path d="M57.533,18.34c-3.988,0.407-4.523,11.175-4.116,15.163c0.407,3.988,2.355,7.055,6.343,6.648s5.276-3.805,4.869-7.793
		C64.221,28.37,61.521,17.933,57.533,18.34z"/>
	<path d="M70.833,25.894c4.008-0.043,5.6-3.31,5.556-7.318c-0.043-4.008-1.784-14.648-5.793-14.604
		c-4.008,0.043-5.52,10.718-5.477,14.726C65.163,22.705,66.825,25.937,70.833,25.894z"/>
	<path d="M95.141,29.223c-2.685,2.976-3.654,6.478-0.678,9.164c2.976,2.685,6.361,1.362,9.046-1.614
		c2.685-2.976,8.617-11.979,5.64-14.664C106.173,19.423,97.826,26.246,95.141,29.223z"/>
	<path d="M88.621,11.806c-3.876-1.023-8.167,8.867-9.19,12.743c-1.023,3.876-0.279,7.433,3.597,8.455s6.278-1.704,7.3-5.58
		C91.351,23.549,92.497,12.829,88.621,11.806z"/>
	<path d="M38.59,33.914c-3.18,2.441,2.019,11.885,4.46,15.065c2.441,3.18,5.71,4.767,8.889,2.326
		c3.18-2.441,2.491-6.009,0.051-9.188C49.549,38.937,41.769,31.473,38.59,33.914z"/>
	<path d="M78.016,51.667c0-4.008-1.627-14.666-5.635-14.666s-5.635,10.658-5.635,14.666c0,4.008,1.627,7.258,5.635,7.258
		S78.016,55.675,78.016,51.667z"/>
</g>
</svg>
