<?xml version="1.0" encoding="iso-8859-1"?>
<!-- Generator: Adobe Illustrator 17.1.0, SVG Export Plug-In . SVG Version: 6.00 Build 0)  -->
<!DOCTYPE svg PUBLIC "-//W3C//DTD SVG 1.1//EN" "http://www.w3.org/Graphics/SVG/1.1/DTD/svg11.dtd">
<svg version="1.1" id="Capa_1" xmlns="http://www.w3.org/2000/svg" xmlns:xlink="http://www.w3.org/1999/xlink" x="0px" y="0px"
	 viewBox="0 0 200 200" style="enable-background:new 0 0 200 200;" xml:space="preserve">
<g>
	<path d="M29.377,193.296c1.012-0.381,2.1-0.833,3.31-1.257c1.254-0.35,2.546-0.83,3.982-1.213c2.878-0.76,6.126-1.538,9.737-2.158
		c0.899-0.161,1.816-0.325,2.752-0.493c0.943-0.137,1.904-0.276,2.881-0.418c1.944-0.309,3.976-0.551,6.06-0.794
		c2.076-0.27,4.238-0.442,6.424-0.676c2.204-0.159,4.444-0.39,6.732-0.54c4.579-0.298,9.311-0.566,14.131-0.716
		c4.817-0.167,9.716-0.24,14.614-0.25c4.898,0.009,9.798,0.075,14.615,0.243c4.821,0.14,9.552,0.421,14.132,0.71
		c2.288,0.153,4.529,0.378,6.733,0.538c2.187,0.234,4.348,0.411,6.425,0.676c2.084,0.242,4.115,0.489,6.06,0.794
		c0.977,0.142,1.938,0.282,2.881,0.42c0.935,0.167,1.853,0.332,2.752,0.492c3.611,0.621,6.86,1.401,9.737,2.162
		c1.435,0.385,2.728,0.863,3.982,1.215c1.21,0.425,2.298,0.878,3.309,1.26c1.879,0.905,3.476,1.573,4.436,2.29
		c1.006,0.625,1.542,0.958,1.542,0.958s-0.406-0.483-1.166-1.388c-0.393-0.443-0.827-1.021-1.502-1.581
		c-0.646-0.577-1.398-1.299-2.303-1.981c-0.914-0.641-1.921-1.394-3.059-2.148c-1.158-0.693-2.426-1.46-3.814-2.193
		c-2.791-1.423-6.03-2.883-9.654-4.159c-0.909-0.317-1.836-0.64-2.781-0.969c-0.954-0.291-1.926-0.587-2.914-0.889
		c-1.978-0.628-4.049-1.12-6.177-1.661c-1.063-0.286-2.147-0.521-3.247-0.742c-1.1-0.23-2.214-0.463-3.34-0.698
		c-2.255-0.433-4.571-0.815-6.927-1.182c-2.357-0.334-4.759-0.694-7.196-0.924c-1.219-0.13-2.444-0.26-3.676-0.391
		c-1.233-0.111-2.474-0.184-3.72-0.279c-2.854-0.229-5.738-0.356-8.634-0.438c-0.315-5.524-2.156-11.013-4.648-16.321
		c-1.754-3.734-3.674-7.439-5.419-11.174c-0.71-1.523-2.379-3.676-1.888-5.237c0.314-0.995,0.532-2,0.739-3.004
		c0.943-4.591,1.201-10.648,7.272-14.024c-4.521,1.52-7.342,4.503-8.965,7.321c1.577-7.84,1.984-15.262-1.382-22.96
		c-3.139-7.185-7.642-14.224-9.186-21.631c-1.455-6.98-0.018-14.245,5.009-20.632c1.19-1.504,2.56-2.952,4.064-4.349
		c0.925-0.862,0.957-1.525,2.798-1.185c1.216,0.224,2.409,0.47,3.692,0.247c4.439-0.748,7.578-3.46,9.105-5.94
		c-2.807,1.471-7.956,3.646-11.921,3.646c14.707-7.314,25.927-18.846,29.875-30.034c1.099-3.12,1.701-6.305,1.792-9.497
		c0.041-1.446-0.132-2.893-0.198-4.34c-0.198-4.34-1.259-2.445-1.259-2.445c0.075,1.201,0.233,2.391,0.209,3.591
		c-0.041,2.086-0.375,4.165-0.812,6.233c-2.505-2.256-5.323-4.326-6.519-6.997c0.736,4.209,5.19,8.126,4.608,12.398
		c-0.547,4.005-3.947,8.143-7.15,11.612c-6.455,6.99-16.365,12.236-24.313,18.536c-15.551,12.329-16.47,27.596-10.129,42.108
		c-3.75-1.5-8.712-1.387-12.302-3.141c3.087,2.107,6.216,4.189,9.608,6.152c1.542,0.887,3.441,1.586,4.73,2.624
		c1.519,1.22,1.839,2.881,2.354,4.331c1.178,3.306,1.961,6.678,1.667,10.066c-0.593,6.904-5.475,13.49-4.366,20.48
		c1.818,11.632,11.656,22.088,15.33,33.454c-4.7,0.065-9.396,0.171-14.014,0.543c-1.245,0.092-2.486,0.183-3.72,0.275
		c-1.232,0.131-2.458,0.262-3.677,0.392c-2.437,0.234-4.839,0.586-7.197,0.922c-2.356,0.37-4.673,0.746-6.927,1.181
		c-2.251,0.497-4.46,0.875-6.587,1.44c-2.128,0.541-4.199,1.037-6.178,1.661c-0.988,0.302-1.96,0.599-2.914,0.891
		c-0.945,0.329-1.873,0.652-2.782,0.969c-3.624,1.278-6.864,2.739-9.654,4.163c-1.387,0.736-2.657,1.501-3.814,2.195
		c-1.138,0.756-2.145,1.509-3.058,2.151c-1.76,1.427-3.054,2.612-3.801,3.564c-0.761,0.908-1.167,1.392-1.167,1.392
		s0.536-0.332,1.541-0.955C25.868,194.895,27.469,194.216,29.377,193.296z"/>
	<path d="M117.967,112.032c0.755-0.48,1.473-1.023,2.117-1.647c1.113-1.078,2.263-2.641,2.25-4.275
		c-3.26,3.995-9.173,3.391-13.506,5.29c-3.348,1.468-6.003,4.27-7.786,7.422c-0.276,0.49-2.798,6.586-1.512,6.628
		c0.319,0.01,0.666-1.598,0.75-1.835c0.299-0.842,0.826-1.58,1.446-2.221c1.279-1.321,2.986-2.155,4.75-2.614
		c3.24-0.844,7.545-0.925,9.793-3.804c0.466-0.598,0.787-1.37,0.686-2.14C116.896,112.389,117.629,112.247,117.967,112.032z"/>
	<path d="M55.7,84.198c0.338,0.216,1.071,0.358,1.012,0.803c-0.102,0.77,0.22,1.542,0.686,2.14c2.247,2.88,6.552,2.961,9.793,3.804
		c1.764,0.459,3.471,1.293,4.75,2.614c0.621,0.641,1.147,1.379,1.446,2.221c0.084,0.237,0.431,1.845,0.75,1.835
		c1.287-0.042-1.235-6.138-1.512-6.628c-1.783-3.152-4.437-5.955-7.786-7.422c-4.333-1.899-10.245-1.295-13.506-5.29
		c-0.013,1.634,1.136,3.197,2.25,4.275C54.227,83.175,54.945,83.718,55.7,84.198z"/>
	<path d="M126.091,35.44c0.195,0.034,0.546-0.922,0.618-1.06c0.256-0.49,0.642-0.897,1.078-1.236
		c0.897-0.699,2.015-1.063,3.135-1.192c2.058-0.238,4.702,0.084,6.327-1.487c0.337-0.326,0.6-0.771,0.605-1.252
		c0.002-0.278,0.463-0.302,0.689-0.405c0.504-0.229,0.991-0.5,1.439-0.826c0.775-0.565,1.614-1.423,1.747-2.425
		c-2.342,2.167-5.912,1.287-8.73,2.077c-2.178,0.611-4.045,2.099-5.409,3.876C127.376,31.786,125.306,35.303,126.091,35.44z"/>
	<path d="M115.231,61.013c-1.887-1.248-4.234-1.686-6.471-1.555c-0.347,0.021-4.362,0.756-3.952,1.439
		c0.102,0.169,1.054-0.19,1.206-0.226c0.538-0.127,1.098-0.101,1.64,0.006c1.116,0.221,2.122,0.828,2.953,1.591
		c1.526,1.401,3.013,3.611,5.264,3.812c0.467,0.042,0.976-0.05,1.342-0.362c0.212-0.18,0.531,0.153,0.757,0.256
		c0.503,0.231,1.026,0.422,1.566,0.547c0.934,0.217,2.132,0.29,2.977-0.266C119.343,65.903,117.672,62.628,115.231,61.013z"/>
	<path d="M114.61,10.126c0.192,0.157,0.632,0.298,0.563,0.567c-0.119,0.466,0.022,0.963,0.265,1.365
		c1.17,1.933,3.809,2.297,5.738,3.052c1.05,0.411,2.038,1.048,2.727,1.953c0.335,0.439,0.604,0.931,0.726,1.47
		c0.034,0.152,0.13,1.165,0.327,1.182c0.794,0.068-0.311-3.861-0.445-4.182c-0.865-2.067-2.291-3.982-4.241-5.128
		c-2.523-1.483-6.2-1.543-7.911-4.236c-0.128,1.003,0.465,2.047,1.07,2.791C113.78,9.389,114.182,9.776,114.61,10.126z"/>
	<path d="M106.494,32.163c-0.101,2.258,1.891,4.027,3.075,5.726c0.645,0.925,1.112,2.003,1.182,3.139
		c0.034,0.551-0.015,1.11-0.213,1.626c-0.056,0.145-0.539,1.041-0.385,1.165c0.622,0.497,1.887-3.383,1.954-3.724
		c0.429-2.199,0.308-4.584-0.677-6.62c-1.274-2.635-4.297-4.728-4.224-7.917c-0.664,0.763-0.751,1.96-0.661,2.915
		c0.052,0.552,0.172,1.096,0.333,1.625c0.072,0.237,0.36,0.599,0.153,0.784C106.675,31.202,106.516,31.694,106.494,32.163z"/>
	<path d="M54.039,127.767c0.902,0.657,1.883,1.202,2.897,1.664c0.455,0.207,1.383,0.255,1.387,0.815
		c0.008,0.968,0.539,1.864,1.217,2.52c3.272,3.162,8.596,2.515,12.739,2.994c2.255,0.26,4.505,0.993,6.312,2.4
		c0.877,0.683,1.654,1.502,2.169,2.489c0.145,0.278,0.852,2.201,1.244,2.134c1.58-0.276-2.588-7.357-3.014-7.913
		c-2.746-3.579-6.506-6.575-10.891-7.805c-5.674-1.59-12.862,0.18-17.577-4.182C50.789,124.903,52.478,126.631,54.039,127.767z"/>
</g>
</svg>
