<?xml version="1.0" encoding="iso-8859-1"?>
<!-- Generator: Adobe Illustrator 17.1.0, SVG Export Plug-In . SVG Version: 6.00 Build 0)  -->
<!DOCTYPE svg PUBLIC "-//W3C//DTD SVG 1.1//EN" "http://www.w3.org/Graphics/SVG/1.1/DTD/svg11.dtd">
<svg version="1.1" id="Capa_1" xmlns="http://www.w3.org/2000/svg" xmlns:xlink="http://www.w3.org/1999/xlink" x="0px" y="0px"
	 viewBox="0 0 150 150" style="enable-background:new 0 0 150 150;" xml:space="preserve">
<g>
	<path d="M103.691,111.81c1.17-3.505,1.853-7.293,2.246-11.139c-3.305,0.635-6.783,1.156-10.414,1.566
		c-0.102,0.802-0.211,1.603-0.33,2.404c-0.418,2.816-1.046,5.868-3.966,7.057c-0.297,0.121-0.601,0.229-0.91,0.327l-0.905-9.213
		c-4.599,0.343-9.408,0.521-14.412,0.521s-9.814-0.178-14.412-0.521l-1.073,10.926c-4.273-1.51-8.183-3.743-10.956-7.423
		c-1.18-1.565-2.006-3.396-2.666-5.306c-4.082-0.721-7.922-1.602-11.484-2.648c1.36,5.192,3.345,10.122,6.393,14.165
		c4.47,5.93,10.869,9.174,17.726,11.27L57,139.333c0,5.523,36,5.523,36,0l-1.716-17.464
		C96.796,120.484,101.634,117.973,103.691,111.81z"/>
	<path d="M75,6C37.118,6,6.409,37.323,6.409,62.82c0,14.898,10.495,24.503,26.768,29.92c3.484,1.16,7.231,2.128,11.199,2.914
		c5.224,1.035,10.821,1.761,16.7,2.191c4.497,0.329,9.153,0.489,13.924,0.489s9.428-0.16,13.924-0.489
		c2.424-0.177,4.796-0.408,7.119-0.685c3.559-0.425,6.986-0.973,10.264-1.644c22.133-4.53,37.284-14.791,37.284-32.695
		C143.591,37.323,112.882,6,75,6z"/>
</g>
</svg>
