<?xml version="1.0" encoding="iso-8859-1"?>
<!-- Generator: Adobe Illustrator 17.1.0, SVG Export Plug-In . SVG Version: 6.00 Build 0)  -->
<!DOCTYPE svg PUBLIC "-//W3C//DTD SVG 1.1//EN" "http://www.w3.org/Graphics/SVG/1.1/DTD/svg11.dtd">
<svg version="1.1" id="Capa_1" xmlns="http://www.w3.org/2000/svg" xmlns:xlink="http://www.w3.org/1999/xlink" x="0px" y="0px"
	 viewBox="0 0 150 150" style="enable-background:new 0 0 150 150;" xml:space="preserve">
<g>
	<path d="M39.701,92c0.271,0,0.54-0.012,0.809-0.02c6.943,7.849,17.556,13.276,25.276,16.882v31.061
		c0,5.082,3.889,8.914,9.046,8.914c5.157,0,9.046-3.832,9.046-8.914v-21.007c12.382-3.493,23.962-12.132,30.204-23.438
		C126.45,94.264,136,86.226,136,73.415c0-13.933-11.295-28.229-25.229-28.229S85.543,56.482,85.543,70.415
		c0,8.321,4.03,15.699,10.243,20.294c-0.349,0.425-0.688,0.816-1.003,1.161c-3.01,3.296-6.851,6.072-10.905,7.959V45.772
		c8.126-3.676,13.784-11.849,13.784-21.348C97.661,11.488,87.173,1,74.236,1S50.811,11.488,50.811,24.425
		c0,9.957,6.215,18.457,14.974,21.847v41.506c-0.087-0.047-0.173-0.094-0.26-0.142c-2.788-1.518-5.064-2.846-6.918-4.045
		c4.076-4.515,6.559-10.496,6.559-17.058c0-14.065-11.402-25.467-25.467-25.467S14.234,52.469,14.234,66.533
		C14.234,80.598,25.636,92,39.701,92z M70.786,47.595V28.17c0-2.609,2.023-3.914,4.046-3.914c2.023,0,4.046,1.305,4.046,3.914
		v19.218v59.424c7.892-1.766,15.99-6.837,21.248-13.524c4.209-5.352,6.601-11.739,5.6-18.299c-0.468-3.07,2.166-5.086,4.511-5.086
		c1.553,0,2.979,0.885,3.292,2.935c1.247,8.175-0.94,16.003-5.285,22.68c-6.43,9.881-17.59,17.236-29.366,19.441v24.964
		c0,2.609-2.023,3.914-4.046,3.914c-2.023,0-4.046-1.305-4.046-3.914v-34.26c-8.67-3.978-17.875-8.643-24.245-14.6
		c-6.354-5.942-9.887-13.17-7.252-22.286c0.575-1.99,2.156-2.851,3.762-2.851c2.431,0,4.916,1.976,4.041,5.002
		c-2.15,7.437,1.777,12.185,7.63,16.166c4.817,3.277,10.938,6.036,16.064,9.342V47.595z"/>
</g>
</svg>
