<?xml version="1.0" encoding="iso-8859-1"?>
<!-- Generator: Adobe Illustrator 17.1.0, SVG Export Plug-In . SVG Version: 6.00 Build 0)  -->
<!DOCTYPE svg PUBLIC "-//W3C//DTD SVG 1.1//EN" "http://www.w3.org/Graphics/SVG/1.1/DTD/svg11.dtd">
<svg version="1.1" id="Capa_1" xmlns="http://www.w3.org/2000/svg" xmlns:xlink="http://www.w3.org/1999/xlink" x="0px" y="0px"
	 viewBox="0 0 150 150" style="enable-background:new 0 0 150 150;" xml:space="preserve">
<g>
	<path d="M134.298,23.663c0.292-3.181-0.646-6.576-2.967-9.547c-3.619-4.63-8.627-4.949-13.569-3.437
		c-5.44-5.589-14.872-4.684-19.627,1.369c-3.938-0.083-8.172,1.77-11.128,4.962c-5.635,6.085-5.467,15.42-1.412,22.211
		c-4.124,4.129-5.723,10.19-3.569,15.914c1.914,5.085,6.747,8.127,11.892,8.746c-10.685,21.934-29.558,39.462-52.224,48.529
		c0.196-6.678,1.608-13.328,4.313-19.566c3.781-0.983,6.546-3.299,8.672-6.719c5.131,2.125,9.968,2.011,13.879-2.202
		c3.094-3.332,2.581-7.192,0.639-11.086c3.906-2.444,6.898-5.386,7.058-10.283c0.159-4.865-2.703-7.953-6.27-10.523
		c6.712-9.305,3.354-15.578-9.208-18.325c-0.786-2.589-1.088-5.281-2.344-7.413c-4.248-7.213-15.454-7.977-21.346-1.782
		c-1.117,1.174-2.643,2.153-4.167,2.713c-5.462,2.007-8.503,6.464-8.088,12.252c0.046,0.645,0.006,1.295,0.006,2.064
		c-4.205,0.833-7.85,2.411-10.179,6.113c-2.222,3.531-1.823,7.115-0.454,10.625c-3.924,0.776-6.701,4.315-6.872,8.311
		c-2.09,5.236,0.632,11.283,6.416,14.086c0.982,0.476,2.243,1.402,2.433,2.316c0.679,3.268,2.12,5.713,4.226,7.385
		c-1.058,10.172,0.791,20.109,9.4,27.673c-0.02,3.06,0.082,6.123,0.35,9.182c-0.221,4.64,0.16,9.338,1.379,14.093
		c0.094,0.366,0.247,0.666,0.43,0.922c0.567,1.378,1.968,2.098,4.086,1.762c3.497-0.555,6.911-1.631,10.494-2.511
		c-0.064-0.083-0.125-0.161-0.189-0.243c0.959-0.746,1.516-2.055,0.827-3.443c-2.032-4.1-3.494-8.417-4.408-12.832
		c16.411-8.202,31.099-19.49,43.289-33.056c1.437-0.084,2.88-0.199,4.321-0.344c15.567,0.244,29.511-8.251,36.498-21.464
		c0.911-0.348,1.823-0.787,2.733-1.341c3.854-2.346,5.657-6.537,5.328-10.533c5.174-3.673,8.483-9.526,9.151-16.209
		C144.842,34.558,140.356,27.696,134.298,23.663z M30.737,104.747l-1.492-1.62c-1.068-3.204-1.37-6.61-1.173-10.09
		c1.607,0.079,3.27-0.077,5.067-0.258C32.088,96.727,31.297,100.724,30.737,104.747z M109.811,76.493
		c-4.498,4.032-10.472,5.857-16.53,6.743c2.863-3.725,5.56-7.582,8.056-11.574c3.139,2.217,7.183,2.995,11.049,2.101
		C111.631,74.705,110.786,75.619,109.811,76.493z"/>
</g>
</svg>
