<?xml version="1.0" encoding="iso-8859-1"?>
<!-- Generator: Adobe Illustrator 17.1.0, SVG Export Plug-In . SVG Version: 6.00 Build 0)  -->
<!DOCTYPE svg PUBLIC "-//W3C//DTD SVG 1.1//EN" "http://www.w3.org/Graphics/SVG/1.1/DTD/svg11.dtd">
<svg version="1.1" id="Capa_1" xmlns="http://www.w3.org/2000/svg" xmlns:xlink="http://www.w3.org/1999/xlink" x="0px" y="0px"
	 viewBox="0 0 150 150" style="enable-background:new 0 0 150 150;" xml:space="preserve">
<g>
	<path d="M26.907,53.021c-0.523-2.353-4.127-1.355-3.605,0.994c1.756,7.896,7.558,13.318,14.522,16.59
		c0.609,3.622,1.751,7.121,4.048,10.074c3.998,5.139,9.488,8.948,14.801,12.613c4.978,3.434,10.006,6.798,15.034,10.16
		c0.319,1.337,0.605,2.681,0.847,4.029c1.124,6.263,0.755,27.788,0.525,34.111c-0.006,0.178,0.014,0.337,0.047,0.489
		c-0.432,1.103,0.118,2.631,1.661,2.631h6.48c0.176,0,0.336-0.025,0.486-0.062c0.939,0.005,1.882-0.596,1.882-1.807V100
		c2.779-3.631,5.883-6.949,9.315-10.003c3.979-3.541,8.776-6.285,12.008-10.607c1.767-2.363,3.081-4.978,3.943-7.716
		c0.076-0.023,0.161-0.045,0.235-0.069c3.057-0.972,9.477-2.508,10.234-6.335c1.023-5.169-0.484-11.27-1.395-16.393
		c-0.421-2.371-4.024-1.363-3.605,0.994c0.546,3.074,0.974,6.154,1.281,9.261c0.124,1.252,0.209,2.508,0.266,3.764
		c0.126,2.77-3.564,3.554-5.397,4.265c-0.217,0.084-0.437,0.161-0.655,0.241c0.583-4.291,0.083-8.726-1.568-12.88
		c-0.879-2.212-4.496-1.249-3.605,0.994c1.767,4.445,2.057,8.963,1.077,13.186c-1.867,0.51-3.755,0.939-5.65,1.347
		c0.509-0.609,1.021-1.213,1.536-1.803c1.578-1.807-1.055-4.462-2.643-2.643c-1.595,1.826-3.146,3.737-4.654,5.705
		c-3.702,0.875-7.618,2.525-10.726,4.949V65.786c0-0.559-0.206-0.983-0.516-1.283c0.509-0.359,1.029-0.702,1.529-1.044
		c2.996-2.047,5.865-4.234,8.436-6.8c4.546-4.536,7-10.64,6.083-17.025c-0.342-2.379-3.943-1.363-3.605,0.994
		c1.347,9.377-7.072,15.688-13.873,20.336c-3.083,2.107-4.703,4.449-5.401,7.181c-0.799-0.785-1.729-1.527-2.806-2.243
		c-6.145-4.084-9.92-10.902-11.08-18.07c-0.384-2.375-3.986-1.364-3.605,0.994c0.898,5.546,3.226,10.427,6.714,14.806
		c1.714,2.152,3.853,3.912,6.084,5.498c1.427,1.015,2.461,1.991,3.197,3.066l-0.017,3.055c-0.413-0.295-0.828-0.589-1.249-0.871
		c-1.888-1.263-4.1-1.921-6.293-2.397c-2.822-0.613-5.751-0.79-8.679-0.937c-3.592-3.799-7.422-7.404-10.976-11.085
		c-1.677-1.737-4.318,0.909-2.643,2.643c2.616,2.71,5.362,5.366,8.043,8.086c-0.29-0.027-0.582-0.049-0.871-0.081
		c-3.596-0.4-7.344-1.221-10.831-2.576c-0.212-1.66-0.334-3.361-0.429-5.085c-0.363-6.617-0.005-13.259,0.815-19.828
		c0.298-2.388-3.444-2.359-3.738,0c-0.882,7.065-1.128,14.136-0.737,21.246c0.033,0.602,0.073,1.207,0.119,1.814
		C32.265,63.369,28.266,59.132,26.907,53.021z M96.563,74.53c2.676-0.673,5.375-1.201,7.811-1.727
		c-1.332,2.927-3.31,5.631-5.889,7.954c-3.568,3.214-7.546,5.887-11.022,9.225c-0.627,0.602-1.226,1.232-1.824,1.862
		C88.719,85.891,92.468,79.956,96.563,74.53z M83.635,81.048c1.678-2.054,4.178-3.538,7.036-4.675
		c-2.538,3.678-4.902,7.507-7.036,11.391V81.048z M79.589,69.254c0.058-0.421,0.166-0.808,0.308-1.172v7.028
		c-0.064-0.394-0.145-0.776-0.237-1.149C79.463,72.398,79.371,70.844,79.589,69.254z M71.641,77.608
		c1.094,0.641,2.098,1.351,3.112,2.034L74.64,99.907c-1.106-3.987-2.525-7.892-4.107-11.713c-1.999-4.827-4.943-9.087-8.303-13.058
		C65.557,75.368,68.704,75.886,71.641,77.608z M43.597,72.782c4.296,1.246,8.809,1.719,13.295,2.024
		c4.278,4.689,8.103,9.716,10.553,15.631c1.035,2.5,1.967,5.059,2.78,7.656c-8.107-5.212-16.377-10.514-23.19-17.142
		c-2.615-2.544-4.076-5.476-4.933-8.639C42.599,72.477,43.096,72.636,43.597,72.782z"/>
	<path d="M131.251,45.397c0.842-1.779,1.417-3.948,1.749-6.582c0.971-7.686-0.678-13.836-5.039-18.802
		c-3.676-4.186-9.97-6.785-16.427-6.785c-4.408,0-8.403,1.229-11.423,3.488C96.353,6.703,85.758,3.049,77.536,3h-0.11
		c-5.403,0-11.08,2.332-14.814,6.087c-2.577,2.59-4.115,5.689-4.51,9.05c-3.862-2.387-8.933-3.731-14.207-3.731
		c-1.838,0-3.602,0.167-5.242,0.496c-3.494,0.701-6.465,2.79-8.59,6.041c-2.482,3.799-3.494,8.721-2.79,13.387
		c-8.115,0.122-18.463,4.058-21.5,14.836c-1.368,4.863-2.294,11.645,1.073,16.34c2.568,3.583,6.257,5.549,11.246,5.985
		c-1.652,5.688-1.277,13.961,2.338,18.622c4.886,6.297,12.295,9.766,20.862,9.766c0.546,0,1.092-0.014,1.64-0.041
		c1.839-0.092,2.791-1.739,2.754-3.243c-0.042-1.667-1.178-2.878-2.7-2.878l-0.153,0.004c-0.852,0.043-1.854,0.087-2.828,0.087
		c-2.214,0-3.936-0.222-5.582-0.716c-2.113-0.637-4.309-2.281-6.245-3.731l-0.856-0.639c-4.556-3.359-5.9-13.02-2.525-18.133
		c0.475-0.718,0.629-1.533,0.434-2.296c-0.177-0.69-0.626-1.301-1.251-1.711c-0.492-0.733-1.271-1.147-2.18-1.147l-0.144,0.003
		c-0.502,0.023-1.002,0.038-1.5,0.038c-3.434,0-5.826-0.754-7.757-2.444c-3.273-2.864-2.007-8.302-1.083-12.272
		c1.671-7.176,9.387-10.389,16.294-10.389c1.003,0,1.979,0.071,2.899,0.211c1.378,0.213,2.588-0.54,3.177-1.846
		c0.491-1.088,0.415-2.277-0.183-3.101c-1.239-3.758-0.854-7.61,1.065-10.594c1.671-2.597,4.316-4.195,7.449-4.502
		c5.353-0.516,13.208,1.314,16.708,6.114c0.525,0.72,1.241,1.116,2.017,1.116c0.888,0,1.747-0.52,2.302-1.374
		c0.963-0.599,1.659-1.807,1.202-3.355c-0.985-3.338-0.587-6.231,1.185-8.602c2.397-3.208,7.315-5.201,12.834-5.201
		c8.056,0,16.945,4.4,17.428,14.063c0.097,1.925,1.562,2.933,2.962,2.933c1.24,0,2.533-0.826,2.74-2.408
		c2.485-3.879,7.082-4.465,9.627-4.465c4.38,0,9.234,1.677,12.08,4.172c2.992,2.625,4.497,6.478,4.473,11.452
		c-0.012,2.584-0.384,8.728-3.565,9.972c-1.34,0.524-2.096,1.911-1.88,3.451c0.185,1.321,1.021,2.307,2.118,2.531
		c0.45,0.24,0.954,0.338,1.532,0.269c4.153-0.507,8.087,1.183,10.804,4.609c2.848,3.594,3.881,8.58,2.765,13.337
		c-1.02,4.345-7.565,6.905-10.712,8.136c-3.354,1.312-7.143,1.979-11.261,1.979c-0.639,0-1.278-0.016-1.917-0.046l-0.144-0.003
		c-1.529,0-2.668,1.215-2.707,2.889c-0.035,1.502,0.919,3.146,2.757,3.231c0.611,0.028,1.221,0.043,1.826,0.043
		c5.943,0,11.604-1.333,17.309-4.073c3.729-1.792,10.093-5.824,10.82-12.691C146.487,57.598,140.262,47.524,131.251,45.397z"/>
</g>
</svg>
