<?xml version="1.0" encoding="iso-8859-1"?>
<!-- Generator: Adobe Illustrator 17.1.0, SVG Export Plug-In . SVG Version: 6.00 Build 0)  -->
<!DOCTYPE svg PUBLIC "-//W3C//DTD SVG 1.1//EN" "http://www.w3.org/Graphics/SVG/1.1/DTD/svg11.dtd">
<svg version="1.1" id="Capa_1" xmlns="http://www.w3.org/2000/svg" xmlns:xlink="http://www.w3.org/1999/xlink" x="0px" y="0px"
	 viewBox="0 0 200 200" style="enable-background:new 0 0 200 200;" xml:space="preserve">
<g>
	<path d="M186.091,45.084c-0.272-0.05-0.515,0.117-0.577,0.374c-0.981,4.053-2.475,8.053-4.442,11.907
		c-0.401-0.782-1.304-1.327-2.179-1.855c-0.744-0.449-1.587-0.958-1.602-1.39c-0.006-0.17,0.119-0.551,1.026-1.187
		c0.21-0.147,0.274-0.428,0.15-0.652c-0.124-0.224-0.398-0.319-0.633-0.217c-2.493,1.059-3.396,4.312-2.801,6.719
		c0.328,1.328,1.294,2.129,1.991,2.616c1.265,0.883,1.265,0.883,0.397,2.208c-3.141,4.791-7.142,9.45-11.891,13.849
		c-7.555,6.996-16.068,11.836-25.083,16.961c-1.088,0.618-2.178,1.238-3.268,1.863c-0.168-1.099-0.661-2.119-1.142-3.112
		c-0.6-1.239-1.166-2.409-1.062-3.617c0.089-0.956,1.264-1.157,2.234-1.157c0.607,0,1.146,0.081,1.414,0.129
		c0.255,0.045,0.495-0.105,0.568-0.349c0.072-0.244-0.05-0.503-0.284-0.603c-0.699-0.297-1.454-0.483-2.24-0.553
		c-3.343-0.323-6.743,1.725-8.624,5.022c-1.405,2.37-0.873,4.135-0.31,6.004c0.26,0.86,0.527,1.749,0.618,2.75
		c0.126,1.39-0.7,2.039-2.059,2.982c-0.323,0.224-0.65,0.452-0.962,0.699c-1.403,1.109-2.784,2.261-4.104,3.425
		c-2.581,2.278-4.958,4.634-7.064,7.001c-4.998,5.646-9.01,11.833-11.948,18.423c0.484-13.906,2.372-25.603,5.752-35.667
		c3.937,1.772,7.307,1.427,10.777-1.077c3.008-2.169,5.879-6.092,4.917-10.596c-0.053-0.241-0.257-0.407-0.517-0.395
		c-0.245,0.014-0.445,0.204-0.47,0.449c-0.344,3.36-1.288,4.716-3.002,4.278c-1.212-0.313-2.271-1-3.393-1.726
		c-0.926-0.6-1.878-1.217-2.942-1.623c3.808-5.684,8.709-11.028,14.576-15.891c4.81-3.986,9.942-7.039,15.377-10.271
		c1.094-0.65,2.19-1.303,3.288-1.965c3.658-2.21,6.817-4.324,9.657-6.464c1.409-1.062,2.798-2.173,4.13-3.303
		c0.222-0.188,0.429-0.382,0.631-0.572c0.822-0.772,1.438-1.314,2.465-0.995c0.639,0.197,1.188,0.553,1.769,0.929
		c0.823,0.535,1.675,1.087,2.848,1.206c1.443,0.089,2.891-0.24,4.364-0.975c2.283-1.138,5.441-3.994,4.785-7.198
		c-0.048-0.231-0.249-0.397-0.484-0.4c-0.241,0.026-0.441,0.159-0.493,0.389c-0.145,0.632-0.706,2.695-1.854,2.695
		c-0.321,0-0.691-0.15-1.102-0.445c-0.131-0.094-0.335-0.27-0.591-0.487c-0.936-0.796-2.401-2.043-3.652-2.418
		c8.192-8.392,14.084-20.271,15.486-31.342c0.033-0.263-0.145-0.507-0.405-0.555c-0.274-0.053-0.515,0.117-0.577,0.374
		c-0.981,4.054-2.475,8.054-4.442,11.908c-0.401-0.782-1.304-1.327-2.179-1.855c-0.744-0.449-1.587-0.958-1.602-1.39
		c-0.006-0.17,0.119-0.551,1.026-1.187c0.21-0.147,0.274-0.428,0.15-0.652c-0.125-0.224-0.399-0.32-0.633-0.217
		c-2.493,1.059-3.396,4.312-2.801,6.719c0.328,1.328,1.294,2.129,1.991,2.616c1.265,0.883,1.265,0.883,0.397,2.207
		c-3.141,4.791-7.142,9.45-11.891,13.849c-7.555,6.996-16.07,11.837-25.085,16.962c-1.087,0.618-2.177,1.237-3.267,1.862
		c-0.167-1.099-0.66-2.119-1.141-3.112c-0.6-1.239-1.166-2.409-1.062-3.617c0.089-0.957,1.264-1.157,2.233-1.157
		c0.607,0,1.147,0.082,1.415,0.13c0.254,0.045,0.495-0.105,0.568-0.349c0.072-0.244-0.05-0.504-0.284-0.603
		c-0.699-0.297-1.455-0.484-2.241-0.553c-3.329-0.324-6.741,1.724-8.623,5.022c-1.405,2.37-0.873,4.135-0.31,6.004
		c0.26,0.86,0.527,1.749,0.618,2.75c0.125,1.389-0.7,2.038-2.059,2.981c-0.322,0.225-0.65,0.453-0.963,0.7
		c-1.408,1.114-2.788,2.266-4.103,3.425c-2.582,2.279-4.959,4.634-7.064,7.002c-9.755,11.019-15.737,24.145-17.301,37.958
		c-0.378,3.336-0.569,6.703-0.57,10.04c-0.193-0.459-0.386-0.919-0.578-1.379c-3.882-9.297-6.256-17.448-7.252-24.838
		c0.024-1.129,0.024-2.142,0-3.098c-0.002-0.067-0.005-0.134-0.008-0.202c2.821-0.083,4.838-1.285,6.326-3.762
		c1.374-2.289,2.157-5.703,0.234-8.421c-0.143-0.202-0.411-0.268-0.63-0.16c-0.221,0.109-0.329,0.363-0.256,0.598
		c0.45,1.436,0.513,2.431,0.185,2.957c-0.16,0.258-0.431,0.413-0.825,0.474c-0.862,0.131-1.719-0.018-2.641-0.176
		c-0.716-0.123-1.411-0.254-2.213-0.241c0.896-4.686,2.576-9.453,4.998-14.181c2.008-3.919,4.487-7.328,7.112-10.937
		c0.532-0.732,1.067-1.467,1.599-2.208c1.769-2.466,3.235-4.726,4.484-6.909c0.617-1.078,1.212-2.19,1.769-3.307
		c0.093-0.186,0.174-0.372,0.253-0.553c0.346-0.793,0.542-1.178,1.207-1.25c0.458-0.048,0.896,0.029,1.369,0.11
		c0.723,0.124,1.519,0.217,2.261-0.017c0.972-0.345,1.856-0.982,2.629-1.894c1.197-1.411,2.48-4.225,1.111-6.193
		c-0.135-0.193-0.386-0.267-0.603-0.176c-0.217,0.091-0.342,0.32-0.3,0.552c0.165,0.904,0.104,1.635-0.164,1.957
		c-0.103,0.125-0.396,0.286-0.954,0.162c-0.108-0.024-0.286-0.081-0.508-0.149c-0.776-0.24-1.961-0.609-2.874-0.579
		c2.924-7.728,3.413-17.027,1.248-24.575c-0.073-0.254-0.332-0.409-0.591-0.35c-0.259,0.059-0.427,0.31-0.383,0.571
		c0.476,2.817,0.626,5.735,0.447,8.688c-0.495-0.295-1.148-0.386-1.785-0.474c-0.485-0.067-1.221-0.169-1.316-0.375
		c-0.011-0.022-0.092-0.24,0.328-0.919c0.135-0.218,0.084-0.502-0.119-0.659c-0.201-0.158-0.491-0.135-0.667,0.05
		c-1.379,1.44-1.052,3.893,0.043,5.339c0.613,0.81,1.498,1.073,2.11,1.201c0.271,0.056,0.773,0.16,0.851,0.237
		c0.052,0.113-0.044,0.657-0.09,0.918c-0.705,3.982-2.003,8.116-3.858,12.288c-2.953,6.64-7.135,12.156-11.562,17.996
		c-0.493,0.65-0.987,1.303-1.48,1.958c-0.417-0.602-0.977-1.087-1.522-1.562c-0.72-0.625-1.399-1.215-1.656-1.99
		c-0.056-0.172-0.043-0.315,0.042-0.464c0.265-0.468,1.164-0.857,1.938-1.035c0.248-0.057,0.414-0.292,0.385-0.545
		c-0.029-0.252-0.243-0.442-0.497-0.442c-0.001,0-0.001,0-0.002,0c-0.552,0.002-1.109,0.094-1.654,0.273
		c-2.616,0.839-4.049,3.518-4.308,5.791c-0.261,1.997,0.639,3.068,1.508,4.104c0.403,0.481,0.82,0.979,1.152,1.592
		c0.431,0.798,0.107,1.39-0.502,2.366c-0.149,0.239-0.301,0.481-0.436,0.731c-0.609,1.124-1.187,2.26-1.717,3.378
		c-0.887,1.872-1.66,3.735-2.306,5.551c-1.665-4.579-4.034-8.958-7.058-13.038c-1.345-1.805-2.879-3.615-4.561-5.381
		c-0.857-0.9-1.762-1.799-2.688-2.671c-0.207-0.195-0.426-0.378-0.643-0.559c-0.885-0.736-1.377-1.196-1.217-2.089
		c0.123-0.686,0.363-1.289,0.596-1.873c0.501-1.256,1.02-2.554,0.15-4.361c-0.954-2.071-3.137-4.16-5.903-4.16
		c-0.576,0.001-1.136,0.088-1.661,0.259c-0.241,0.079-0.386,0.327-0.334,0.577c0.051,0.248,0.26,0.419,0.535,0.397
		c0.15-0.014,0.329-0.023,0.521-0.023c0.548,0,1.823,0.081,1.828,0.823c-0.001,0.82-0.462,1.593-0.95,2.412
		c-0.37,0.621-0.75,1.258-0.958,1.96c-0.672-0.467-1.345-0.931-2.017-1.394c-6.032-4.161-11.731-8.091-16.615-13.474
		c-3.069-3.382-5.596-6.903-7.511-10.462c-0.125-0.234-0.387-0.72-0.376-0.835c0.053-0.106,0.498-0.363,0.737-0.5
		c0.541-0.312,1.299-0.838,1.629-1.801c0.586-1.716,0.129-4.148-1.632-5.084c-0.223-0.119-0.505-0.051-0.648,0.162
		c-0.144,0.212-0.104,0.498,0.093,0.663c0.611,0.514,0.603,0.745,0.6,0.77c-0.027,0.225-0.693,0.552-1.134,0.768
		c-0.57,0.28-1.155,0.567-1.544,1.017c-1.096-2.753-1.868-5.574-2.298-8.4c-0.039-0.262-0.271-0.447-0.542-0.422
		c-0.264,0.025-0.462,0.252-0.452,0.517c0.308,7.848,3.683,16.525,8.879,22.949c-0.789,0.232-1.685,0.835-2.549,1.45
		c-0.188,0.135-0.34,0.244-0.436,0.3c-0.254,0.152-0.478,0.229-0.662,0.229c-0.591,0-0.937-0.976-1.063-1.89
		c-0.032-0.233-0.223-0.412-0.457-0.43c-0.233-0.014-0.45,0.13-0.518,0.356c-0.683,2.297,1.416,4.568,2.994,5.534
		c1.02,0.624,2.059,0.953,3.107,0.977c0.856-0.012,1.507-0.357,2.136-0.692c0.423-0.225,0.823-0.438,1.266-0.533
		c0.647-0.141,0.964,0.167,1.537,0.808c0.132,0.147,0.268,0.299,0.413,0.447c0.875,0.883,1.788,1.753,2.716,2.587
		c1.875,1.687,3.976,3.375,6.421,5.158c0.734,0.536,1.47,1.064,2.202,1.591c3.626,2.607,7.051,5.07,10.187,8.166
		c3.779,3.731,6.866,7.733,9.186,11.904c-0.721,0.228-1.383,0.58-2.027,0.922c-0.824,0.438-1.603,0.851-2.452,0.993
		c-0.103,0.017-0.224,0.01-0.289,0.025c-0.337,0-1.35-0.009-1.394-3.083c-0.004-0.246-0.186-0.453-0.43-0.488
		c-0.243-0.039-0.477,0.113-0.549,0.349c-0.976,3.185,0.838,6.181,2.86,7.924c2.29,1.977,4.666,2.453,7.521,1.501
		c1.844,7.707,2.394,16.291,1.722,26.882c-0.773-0.703-1.51-1.348-2.232-1.959c-1.35-1.139-2.755-2.261-4.175-3.335
		c-0.317-0.24-0.649-0.46-0.978-0.678c-1.378-0.914-2.219-1.545-2.122-2.937c0.068-1.004,0.317-1.899,0.558-2.765
		c0.523-1.88,1.017-3.657-0.435-5.988c-1.948-3.25-5.442-5.218-8.731-4.842c-0.789,0.087-1.54,0.29-2.231,0.602
		c-0.232,0.105-0.349,0.367-0.271,0.609c0.077,0.242,0.321,0.385,0.575,0.336c0.297-0.06,0.894-0.161,1.553-0.161
		c1.32,0,2.032,0.374,2.117,1.106c0.13,1.209-0.41,2.391-0.982,3.643c-0.459,1.003-0.931,2.034-1.074,3.136
		c-1.103-0.601-2.204-1.196-3.303-1.79c-9.125-4.93-17.744-9.585-25.448-16.417c-4.843-4.294-8.943-8.866-12.188-13.589
		c-0.896-1.304-0.896-1.304,0.35-2.215c0.687-0.501,1.633-1.323,1.935-2.658c0.542-2.419-0.43-5.652-2.945-6.657
		c-0.237-0.096-0.509,0.004-0.628,0.231c-0.119,0.226-0.049,0.506,0.164,0.648c0.921,0.616,1.055,0.994,1.052,1.164
		c-0.005,0.432-0.837,0.959-1.57,1.424c-0.854,0.541-1.732,1.098-2.136,1.91c-2.054-3.816-3.634-7.785-4.702-11.816
		c-0.068-0.256-0.328-0.415-0.584-0.362c-0.26,0.054-0.433,0.301-0.394,0.563c1.64,11.039,7.786,22.787,16.158,31
		c-1.125,0.363-2.429,1.459-3.598,2.498c-0.251,0.223-0.452,0.403-0.58,0.5c-0.413,0.312-0.788,0.469-1.114,0.469
		c-1.134,0-1.733-2.032-1.89-2.655c-0.058-0.227-0.219-0.406-0.502-0.377c-0.235,0.007-0.433,0.178-0.476,0.41
		c-0.588,3.218,2.632,6.005,4.938,7.094c1.273,0.601,2.54,0.906,3.765,0.906c0.206,0,0.413-0.008,0.64-0.028
		c1.151-0.142,1.991-0.712,2.803-1.265c0.572-0.389,1.113-0.757,1.747-0.967c1.017-0.335,1.645,0.184,2.486,0.942
		c0.206,0.185,0.418,0.375,0.643,0.558c1.355,1.101,2.769,2.182,4.2,3.213c2.881,2.074,6.085,4.12,9.796,6.253
		c1.118,0.643,2.235,1.275,3.351,1.906c5.495,3.11,10.686,6.048,15.574,9.924c5.97,4.735,10.985,9.972,14.916,15.572
		c-1.056,0.428-1.994,1.066-2.907,1.686c-1.105,0.751-2.149,1.46-3.354,1.799c-1.709,0.483-2.677-0.857-3.094-4.212
		c-0.03-0.244-0.233-0.43-0.479-0.438c-0.006,0-0.012,0-0.017,0c-0.239,0-0.446,0.17-0.491,0.406
		c-0.864,4.525,2.092,8.385,5.146,10.487c3.526,2.43,6.903,2.701,10.799,0.844c4.087,11.344,6.234,24.364,6.755,40.908l0.033,1.297
		l-1.204-0.014c-39.604,0.168-62.174,4.591-65.271,12.791c-1.498,3.967,2.049,7.18,2.2,7.314c0.092,0.082,0.21,0.126,0.332,0.126
		h135.745c0.136,0,0.265-0.055,0.359-0.152c0.127-0.131,3.099-3.262,1.462-7.128c-2.479-5.855-15.752-12.834-64.898-12.834
		l-1.039-0.012l0.005-1.414c0.163-16.551,2.029-29.613,5.87-41.044c3.936,1.771,7.308,1.427,10.777-1.077
		c3.008-2.169,5.879-6.092,4.917-10.596c-0.052-0.24-0.239-0.409-0.517-0.395c-0.245,0.013-0.445,0.204-0.47,0.448
		c-0.344,3.361-1.287,4.718-3.001,4.278c-1.212-0.313-2.271-1-3.393-1.727c-0.926-0.6-1.879-1.217-2.943-1.623
		c3.809-5.685,8.71-11.028,14.576-15.891c4.808-3.984,9.938-7.036,15.37-10.267c1.096-0.652,2.195-1.306,3.295-1.969
		c3.657-2.209,6.816-4.324,9.657-6.463c1.403-1.058,2.793-2.169,4.13-3.303c0.222-0.188,0.429-0.382,0.63-0.572
		c0.822-0.774,1.438-1.313,2.466-0.996c0.639,0.197,1.188,0.553,1.769,0.929c0.823,0.535,1.675,1.087,2.848,1.206
		c1.441,0.088,2.891-0.239,4.364-0.974c2.284-1.138,5.442-3.994,4.785-7.199c-0.048-0.23-0.249-0.397-0.484-0.399
		c-0.204-0.001-0.441,0.159-0.493,0.388c-0.145,0.632-0.706,2.695-1.854,2.695c-0.321,0-0.691-0.15-1.102-0.445
		c-0.131-0.094-0.335-0.27-0.591-0.487c-0.936-0.796-2.402-2.043-3.652-2.418c8.193-8.392,14.084-20.27,15.486-31.342
		C186.529,45.376,186.352,45.132,186.091,45.084z"/>
</g>
</svg>
