<?xml version="1.0" encoding="iso-8859-1"?>
<!-- Generator: Adobe Illustrator 17.1.0, SVG Export Plug-In . SVG Version: 6.00 Build 0)  -->
<!DOCTYPE svg PUBLIC "-//W3C//DTD SVG 1.1//EN" "http://www.w3.org/Graphics/SVG/1.1/DTD/svg11.dtd">
<svg version="1.1" id="Capa_1" xmlns="http://www.w3.org/2000/svg" xmlns:xlink="http://www.w3.org/1999/xlink" x="0px" y="0px"
	 viewBox="0 0 200 200" style="enable-background:new 0 0 200 200;" xml:space="preserve">
<g>
	<path d="M26.766,193.44c0.765-0.411,1.624-0.898,2.572-1.446c0.923-0.58,2.068-1.045,3.248-1.62
		c0.605-0.266,1.193-0.598,1.859-0.858c0.657-0.267,1.338-0.543,2.042-0.829c1.382-0.603,2.916-1.119,4.516-1.672
		c1.575-0.599,3.32-1.043,5.083-1.593c1.779-0.52,3.669-0.969,5.596-1.469c1.972-0.392,3.957-0.93,6.061-1.283
		c1.044-0.196,2.103-0.394,3.175-0.595c1.068-0.21,2.171-0.344,3.272-0.523c2.201-0.357,4.466-0.657,6.768-0.943
		c2.303-0.276,4.656-0.504,7.03-0.744c1.192-0.089,2.391-0.178,3.596-0.268c1.201-0.119,2.415-0.184,3.633-0.248
		c4.867-0.312,9.827-0.407,14.782-0.44c2.477,0.046,4.959-0.009,7.424,0.116c1.233,0.052,2.464,0.089,3.693,0.117
		c1.226,0.067,2.448,0.133,3.666,0.199c2.439,0.111,4.842,0.357,7.231,0.513c1.191,0.098,2.368,0.246,3.541,0.364
		c1.171,0.133,2.344,0.208,3.49,0.378c2.302,0.29,4.568,0.583,6.769,0.941c1.101,0.179,2.204,0.313,3.272,0.524
		c1.072,0.201,2.131,0.399,3.175,0.594c2.104,0.352,4.089,0.895,6.062,1.284c1.928,0.501,3.817,0.953,5.597,1.47
		c1.764,0.55,3.508,0.997,5.083,1.595c1.6,0.553,3.133,1.072,4.516,1.674c0.703,0.286,1.384,0.563,2.042,0.831
		c0.666,0.26,1.255,0.591,1.859,0.858c1.177,0.575,2.329,1.046,3.237,1.616c0.938,0.542,1.794,1.025,2.559,1.436
		c0.725,0.485,1.342,0.898,1.842,1.233c1.009,0.662,1.547,1.015,1.547,1.015s-0.404-0.5-1.162-1.438
		c-0.386-0.462-0.863-1.031-1.423-1.7c-0.615-0.628-1.346-1.34-2.185-2.136c-0.819-0.842-1.824-1.577-2.889-2.47
		c-1.05-0.921-2.295-1.734-3.618-2.637c-2.644-1.815-5.812-3.559-9.364-5.27c-1.774-0.863-3.679-1.6-5.637-2.44
		c-0.995-0.363-2.007-0.731-3.034-1.106c-1.03-0.375-2.077-0.754-3.153-1.074c-2.142-0.689-4.363-1.344-6.65-1.914
		c-2.278-0.643-4.638-1.103-7.036-1.615c-4.802-0.955-9.809-1.724-14.921-2.182c-4.256-0.463-8.586-0.626-12.927-0.719
		c7.454-16.708,8.284-36.016,6.164-55.961c0.865-1.643,1.631-3.319,2.336-5.014c2.385-1.351,4.991-2.37,7.624-2.904
		c5.737-1.165,11.7-1.146,17.203-3.366c3.832-1.547,7.159-4.697,9.752-7.861c-3.154,2.001-7.131,2.31-10.756,2.261
		c-4.556-0.061-9.084-0.385-13.578,0.562c-2.848,0.6-5.42,2-7.557,3.915c2.367-7.387,4.121-14.985,7.034-22.252
		c2.751-1.789,5.887-3.131,9.06-3.775c5.737-1.165,11.7-1.146,17.203-3.367c3.832-1.547,7.159-4.697,9.752-7.86
		c-3.154,2.001-7.131,2.31-10.756,2.261c-4.556-0.061-9.084-0.385-13.578,0.562c-2.956,0.623-5.61,2.112-7.793,4.139
		c2.22-3.807,5.002-7.45,8.624-10.843c1.351-0.503,2.832-0.773,4.257-0.711c2.423,0.105,4.818,0.709,7.251,0.366
		c1.695-0.239,3.347-1.173,4.706-2.185c-1.468,0.489-3.097,0.216-4.55-0.166c-1.825-0.48-3.613-1.063-5.514-1.131
		c-0.622-0.022-1.234,0.06-1.827,0.21c2.37-1.77,5.017-3.457,8.023-5.037c-16.098,6.579-24.874,19.573-31.063,32.552
		c-0.193-0.398-0.412-0.785-0.677-1.148c-1.299-1.777-3.016-3.112-4.66-4.55c-1.308-1.144-2.626-2.528-3.11-4.252
		c-0.089,1.958,0.087,4.147,0.958,5.926c1.25,2.554,3.382,4.458,5.053,6.711c0.254,0.342,0.485,0.706,0.703,1.08
		c-2.123,4.785-3.955,9.482-5.735,13.765c-1.206-7.681-2.733-15.395-4.375-23.035c0.616-2.977,1.732-5.905,3.302-8.449
		c3.073-4.983,7.165-9.321,9.307-14.854c1.492-3.854,1.468-8.436,0.933-12.491c-0.697,3.669-3.191,6.782-5.705,9.395
		c-3.16,3.283-6.493,6.365-8.875,10.292c-0.745,1.228-1.291,2.542-1.672,3.901c-2.511-11.065-5.033-21.837-6.924-31.977
		c0.709-2.097,1.817-4.124,3.266-5.766c2.479-2.809,5.531-5.101,7.483-8.358c1.359-2.269,1.842-5.161,1.945-7.777
		c-0.838,2.239-2.749,3.931-4.618,5.306c-2.349,1.727-4.786,3.31-6.715,5.528c-1.295,1.489-2.064,3.322-2.384,5.242
		c-1.288-7.856-2.1-15.27-2.1-22.061c-0.838,15.603,0.928,31.046,3.606,46.36c-1.209-1.203-2.661-2.149-4.303-2.703
		c-1.756-0.593-3.556-0.886-5.373-1.096c-5.427-11.721-8.642-24.146-3.009-34.201c-4.387,6.031-5.116,14.08-4.114,22.134
		c-1.414-2.015-3.364-3.632-5.723-4.429c-3.004-1.014-6.135-1.16-9.263-1.489c-2.49-0.262-5.191-0.797-7.19-2.425
		c1.52,2.379,3.545,4.809,6.047,6.181c3.591,1.97,7.681,2.441,11.52,3.706c1.889,0.622,3.714,1.621,5.319,2.855
		c0.482,2.449,1.093,4.863,1.78,7.186c-2.273-0.292-4.644-0.869-6.446-2.336c1.52,2.379,3.545,4.809,6.047,6.181
		c0.631,0.346,1.282,0.634,1.94,0.9c0.624,1.766,1.272,3.445,1.915,5.003c4.289,10.413,9.236,20.659,13.182,31.194
		c-1.943-2.324-4.437-4.16-7.346-5.143c-4.351-1.47-8.886-1.681-13.417-2.157c-3.606-0.379-7.519-1.154-10.415-3.512
		c2.202,3.446,5.135,6.966,8.759,8.954c5.203,2.853,11.127,3.536,16.687,5.369c3.096,1.02,6.072,2.738,8.605,4.859
		c1.996,6.486,3.47,13.122,4.031,20.013c1.529,18.757-5.531,34.271-9.318,51.881c-3.045,0.108-6.078,0.277-9.073,0.603
		c-5.113,0.448-10.118,1.23-14.922,2.176c-2.397,0.516-4.759,0.969-7.037,1.614c-2.288,0.57-4.507,1.229-6.651,1.914
		c-1.076,0.321-2.123,0.7-3.153,1.075c-1.028,0.374-2.04,0.743-3.035,1.105c-1.958,0.84-3.862,1.581-5.637,2.441
		c-3.552,1.713-6.72,3.458-9.364,5.274c-1.322,0.905-2.568,1.717-3.617,2.639c-1.063,0.892-2.075,1.634-2.879,2.465
		c-0.829,0.79-1.557,1.498-2.172,2.126c-0.582,0.67-1.054,1.258-1.444,1.721c-0.757,0.938-1.16,1.439-1.16,1.439
		s0.539-0.353,1.548-1.014C25.44,194.323,26.049,193.917,26.766,193.44z M86.978,54.447c1.162,0.295,2.322,0.599,3.46,0.974
		c1.45,0.478,2.85,1.193,4.155,2.049c1.003,5.349,2.091,10.682,3.198,16.002C94.84,68.103,90.707,61.515,86.978,54.447z"/>
</g>
</svg>
