<?xml version="1.0" encoding="iso-8859-1"?>
<!-- Generator: Adobe Illustrator 17.1.0, SVG Export Plug-In . SVG Version: 6.00 Build 0)  -->
<!DOCTYPE svg PUBLIC "-//W3C//DTD SVG 1.1//EN" "http://www.w3.org/Graphics/SVG/1.1/DTD/svg11.dtd">
<svg version="1.1" id="Capa_1" xmlns="http://www.w3.org/2000/svg" xmlns:xlink="http://www.w3.org/1999/xlink" x="0px" y="0px"
	 viewBox="0 0 200 200" style="enable-background:new 0 0 200 200;" xml:space="preserve">
<g>
	<path d="M103.631,10.237c-0.666-1.618-3.231-0.039-2.017,1.18C102.284,12.523,104.068,11.298,103.631,10.237z"/>
	<path d="M105.731,7.377c-0.809-1.027-2.549,0.341-1.554,1.209C105.005,9.398,106.468,8.31,105.731,7.377z"/>
	<path d="M98.104,24.905c0.613-0.476-0.341-1.184-0.638-0.578C97.324,24.615,97.762,25.371,98.104,24.905z"/>
	<path d="M104.147,14.511c1.079,0.586,2.235-0.756,1.5-1.739C104.56,11.33,102.615,13.679,104.147,14.511z"/>
	<path d="M106.697,11.372c1.682-0.294,0.542-3.35-1.022-1.996C104.723,10.102,105.537,11.681,106.697,11.372z"/>
	<path d="M98.141,26.415c0.46-0.339,0.138-1.243-0.446-1.012C96.992,25.531,97.372,26.793,98.141,26.415z"/>
	<path d="M107.942,8.28c0.961-0.983-1.051-2.011-1.295-0.805C106.489,8.258,107.318,8.721,107.942,8.28z"/>
	<path d="M99.626,25.871c0.484-0.488,0.229-1.523-0.589-1.239C98.18,24.967,98.792,26.246,99.626,25.871z"/>
	<path d="M98.88,27.48c0.595,0.397,1.429-0.285,0.972-0.929C99.295,25.656,98.103,26.962,98.88,27.48z"/>
	<path d="M101.36,26.93c0.766-0.608-0.309-1.624-0.87-0.961C100.003,26.545,100.727,27.306,101.36,26.93z"/>
	<path d="M100.09,28.328c0.212,0.863,1.608,0.294,1.176-0.517C100.942,27.18,99.851,27.609,100.09,28.328z"/>
	<path d="M89.639,58.952c-0.594-0.731-1.596,0.36-0.805,0.811C89.363,60.064,89.931,59.481,89.639,58.952z"/>
	<path d="M117.896,33.982c0.529,0.301,1.097-0.282,0.805-0.811C118.108,32.44,117.105,33.531,117.896,33.982z"/>
	<path d="M91.693,60.349c0.985-0.473-0.342-2.072-1.017-1.034C90.284,59.918,91.066,60.813,91.693,60.349z"/>
	<path d="M115.645,32.517c-0.392,0.603,0.391,1.498,1.017,1.034C117.648,33.077,116.321,31.478,115.645,32.517z"/>
	<path d="M90.609,62.666c0.768,0.792,1.908-0.267,1.463-1.175C91.381,60.388,89.693,61.722,90.609,62.666z"/>
	<path d="M92.733,60.246c-0.634,0.979,0.44,2.215,1.476,1.596C95.569,60.805,93.542,59,92.733,60.246z"/>
	<path d="M92.842,64.395c0.79,0.983,2.443-0.191,1.782-1.305C93.936,61.749,91.927,63.257,92.842,64.395z"/>
	<path d="M95.679,62.046c-0.942,0.832,0.283,2.396,1.349,1.65C98.18,62.784,96.844,61.018,95.679,62.046z"/>
	<path d="M95.169,66.42c0.825,0.984,2.356-0.28,1.721-1.361C95.992,63.963,94.197,65.258,95.169,66.42z"/>
	<path d="M112.615,35.705c-1-0.479-1.636,1.136-0.722,1.635C112.87,37.61,113.659,36.178,112.615,35.705z"/>
	<path d="M113.972,35.347c0.94,0.431,1.655-1.17,0.686-1.628C113.689,33.422,112.918,34.841,113.972,35.347z"/>
	<path d="M112.615,39.419c1.073,0.388,1.701-1.121,0.732-1.601C112.364,37.614,111.548,38.922,112.615,39.419z"/>
	<path d="M115.351,37.009c0.513-1.057-1.115-1.567-1.582-0.625C113.335,37.435,114.907,37.973,115.351,37.009z"/>
	<path d="M115.6,34.729c-0.322,0.937,0.903,1.462,1.324,0.513C117.352,34.343,116.009,33.944,115.6,34.729z"/>
	<path d="M85.06,142.491c-0.857,0.606,0.426,1.645,0.868,0.838C86.197,142.836,85.569,142.123,85.06,142.491z"/>
	<path d="M86.872,146.276c0.572-0.672-0.256-1.692-1.037-1.282C84.688,145.398,85.941,147.368,86.872,146.276z"/>
	<path d="M89.666,147.383c1.296-0.506-0.079-2.612-1.21-1.611C87.622,146.512,88.684,148.169,89.666,147.383z"/>
	<path d="M88.009,150.553c0.977,1.103,2.717-0.186,2.112-1.478C89.062,147.792,86.7,149.075,88.009,150.553z"/>
	<path d="M91.324,147.257c-1.41,1.057,0.099,3.294,1.662,2.479C94.698,148.717,93.011,145.99,91.324,147.257z"/>
	<path d="M90.881,153.098c0.951,1.484,3.355-0.078,2.552-1.65C92.663,149.607,89.825,151.45,90.881,153.098z"/>
	<path d="M96.761,152.571c1.74-0.998,0.025-3.684-1.656-2.457C93.679,151.158,95.208,153.413,96.761,152.571z"/>
	<path d="M93.887,156.092c1.007,1.464,3.333-0.03,2.529-1.626C95.437,152.751,92.714,154.386,93.887,156.092z"/>
	<path d="M96.14,67.423c1.659,0.509,3.689-1.07,5.325-0.675c-0.581-0.408-1.105-0.876-1.371-1.55
		c-0.572-1.452-0.397-2.73-1.944-3.636c0.823,1.282-0.864,3.034,0.342,4.142C98.479,65.69,96.14,67.191,96.14,67.423z"/>
	<path d="M116.662,126.949c-0.842,0.644,0.057,2.113,0.956,1.554C118.616,127.884,117.555,126.151,116.662,126.949z"/>
	<path d="M118.889,125.224c-0.587-1.123-2.207-0.082-1.542,0.913C117.983,126.983,119.38,126.161,118.889,125.224z"/>
	<path d="M119.833,127.868c1.092-0.462,0.144-1.769-0.763-1.347C118.408,127.064,119.018,128.212,119.833,127.868z"/>
	<path d="M116.101,125.794c-0.594-1.1-2.218-0.088-1.533,0.903C115.191,127.555,116.604,126.728,116.101,125.794z"/>
	<path d="M114.265,127.813c-0.849,0.657,0.025,2.068,0.949,1.536C116.291,128.727,115.238,127.137,114.265,127.813z"/>
	<path d="M120.827,125.161c-0.354-0.835-1.644-0.05-1.072,0.56C120.084,126.401,121.088,125.778,120.827,125.161z"/>
	<path d="M121.556,125.844c0.222,0.833,1.41,0.089,0.893-0.426C122.132,124.993,121.419,125.331,121.556,125.844z"/>
	<path d="M76.948,95.93c-0.261,0.617,0.743,1.24,1.073,0.56C78.592,95.881,77.301,95.095,76.948,95.93z"/>
	<path d="M77.943,98.637c0.815,0.345,1.424-0.804,0.763-1.347C77.799,96.868,76.851,98.175,77.943,98.637z"/>
	<path d="M78.886,95.993c-0.491,0.938,0.906,1.76,1.542,0.913C81.093,95.911,79.473,94.87,78.886,95.993z"/>
	<path d="M76.219,96.613c0.136-0.512-0.576-0.851-0.893-0.426C74.809,96.702,75.998,97.446,76.219,96.613z"/>
	<path d="M82.561,100.117c0.925,0.533,1.798-0.879,0.95-1.536C82.537,97.906,81.484,99.497,82.561,100.117z"/>
	<path d="M80.157,99.273c0.899,0.558,1.798-0.91,0.956-1.554C80.22,96.92,79.159,98.653,80.157,99.273z"/>
	<path d="M81.675,96.563c-0.503,0.935,0.909,1.762,1.533,0.903C83.892,96.475,82.268,95.463,81.675,96.563z"/>
	<path d="M76.94,57.432c0.584,0.171,1.003-0.526,0.597-0.974C76.791,55.883,76.066,57.175,76.94,57.432z"/>
	<path d="M75.64,57.295c0.85-0.687-0.809-1.938-1.227-0.772C74.169,57.199,75.136,57.891,75.64,57.295z"/>
	<path d="M71.869,62.078c1.013,0.039,1.451-1.536,0.327-1.757C71.113,60.085,70.864,61.804,71.869,62.078z"/>
	<path d="M73.434,59.662c1.014,0.203,1.342-1.519,0.293-1.742C72.716,57.853,72.292,59.411,73.434,59.662z"/>
	<path d="M73.048,63.936c1.134,0.132,1.398-1.482,0.345-1.726C72.389,62.237,71.896,63.698,73.048,63.936z"/>
	<path d="M75.158,60.962c0.256-1.146-1.445-1.269-1.683-0.245C73.293,61.839,74.947,62.003,75.158,60.962z"/>
	<path d="M74.876,58.687c-0.098,0.986,1.214,1.216,1.406,0.195C76.493,57.908,75.094,57.829,74.876,58.687z"/>
	<path d="M75.85,89.319c-0.123-0.296-0.394-0.566-0.785-0.752c-0.744-0.353-1.842-0.347-2.857-0.151
		c-1.352,0.261-2.429,0.809-3.39,1.438c-1.084,0.709-2.165,1.403-3.328,2.072c1.308,0.299,2.545,0.644,3.789,1.005
		c1.103,0.319,2.294,0.527,3.663,0.38c1.028-0.11,2.079-0.427,2.687-0.982c0.283-0.259,0.44-0.545,0.505-0.829
		c2.934,0.576,5.701,1.674,8.208,3.25c1.101,1.244,2.226,2.476,3.399,3.686c-2.237-0.329-2.137-2.615-4.331-2.958
		c0.889,0.717,0.285,2.755,1.57,3.045c-0.36,0.013-1.146,1.772-1.336,2.099c1.179-0.11,1.992-0.723,2.711-1.619
		c0.356-0.443,0.623-0.569,1.191-0.408c0.96,0.271,1.764,1.911,2.317,2.716c0.608,0.886,1.186,1.794,1.735,2.717
		c1.101,1.841,2.227,3.789,3.009,5.798c-0.571,11.849,1.293,23.301,4.357,34.642c-2.305-3.04-5.054-5.73-8.203-7.991
		c-0.001-0.013-0.003-0.026-0.004-0.039c0.353-0.458,0.819-0.803,0.853-1.388c0.027-0.485-0.163-1.033-0.575-1.546
		c-0.782-0.974-2.285-1.691-3.801-2.094c-2.018-0.537-3.851-0.501-5.578-0.277c-1.949,0.252-3.883,0.485-5.913,0.63
		c1.588,1.272,3.049,2.562,4.51,3.876c1.295,1.165,2.784,2.235,4.749,2.939c1.477,0.529,3.12,0.792,4.318,0.434
		c0.557-0.166,0.961-0.454,1.236-0.798c4.02,3.021,7.322,6.795,9.797,11.133c0.792,2.647,1.636,5.291,2.526,7.934
		c-3.126-2.099-1.335-5.463-4.386-7.552c0.821,1.716-1.548,4.345,0.174,5.702c-0.551-0.24-2.992,1.841-3.514,2.195
		c1.852,0.68,3.512,0.343,5.236-0.488c0.854-0.41,1.344-0.409,2.082,0.242c1.249,1.096,1.281,4.137,1.533,5.743
		c0.279,1.768,0.496,3.546,0.658,5.327c0.348,3.707,0.67,7.614,0.34,11.332c-0.092,1.042-0.429,2.42,0.43,3.249
		c0,0,0.001,0.001,0.002,0.001c-21.637,0.029-39.153,6.332-39.153,14.105h78.606c0-7.27-15.326-13.254-35.014-14.021
		c0.609-2.965,1.047-5.962,1.229-8.986c0.335-4.22,0.173-8.393-0.358-12.514c2.577-5.276,6.311-9.814,11.008-13.343
		c0.278,0.347,0.686,0.638,1.249,0.806c1.209,0.361,2.869,0.095,4.36-0.439c1.985-0.711,3.488-1.791,4.796-2.968
		c1.475-1.327,2.95-2.629,4.554-3.914c-2.049-0.147-4.003-0.381-5.971-0.636c-1.744-0.226-3.595-0.262-5.633,0.28
		c-1.531,0.407-3.048,1.131-3.838,2.115c-0.416,0.518-0.609,1.071-0.581,1.561c0.034,0.591,0.504,0.94,0.861,1.402
		c-0.001,0.013-0.003,0.026-0.004,0.039c-4.638,3.33-8.415,7.58-11.177,12.52c-1.092-6.559-3.078-12.98-5.493-19.232
		c-0.324-0.831-0.631-1.666-0.931-2.503c0.675-1.39,1.461-2.746,2.238-4.046c0.549-0.923,1.126-1.831,1.735-2.717
		c0.552-0.805,1.356-2.445,2.317-2.716c0.568-0.161,0.834-0.035,1.191,0.408c0.719,0.896,1.531,1.509,2.711,1.619
		c-0.191-0.327-0.976-2.086-1.336-2.099c1.285-0.29,0.681-2.328,1.57-3.045c-2.194,0.343-2.094,2.629-4.331,2.958
		c0.382-0.394,0.744-0.799,1.119-1.196c3.19-2.729,6.965-4.554,11.065-5.358c0.065,0.283,0.222,0.57,0.505,0.829
		c0.608,0.556,1.659,0.872,2.687,0.982c1.369,0.147,2.56-0.06,3.663-0.38c1.244-0.36,2.482-0.706,3.789-1.005
		c-1.163-0.669-2.244-1.363-3.328-2.072c-0.961-0.629-2.038-1.177-3.39-1.438c-1.015-0.196-2.113-0.202-2.857,0.151
		c-0.392,0.186-0.662,0.457-0.785,0.752c-0.148,0.357,0.029,0.696,0.107,1.069c-0.004,0.008-0.009,0.014-0.013,0.022
		c-2.987,0.519-5.81,1.563-8.393,3.068c5.722-6.62,10.427-13.799,13.8-22.142c2.012-4.976,3.609-20.071,3.609-20.071
		c-0.24,1.966-0.978,3.931-1.561,5.812c-0.865,2.787-1.784,5.557-2.718,8.321c-1.432,4.239-2.97,8.333-5.305,12.175
		c-2.353,3.871-5.263,7.387-8.554,10.495c-4.49,4.24-8.539,8.953-11.195,14.525c-1.593-5.426-2.646-10.968-3.076-16.597
		c2.522-6.326,6.639-11.719,12.033-15.772c0.275,0.344,0.68,0.632,1.237,0.798c1.197,0.357,2.841,0.094,4.318-0.434
		c1.966-0.704,3.454-1.774,4.749-2.939c1.461-1.314,2.921-2.604,4.51-3.876c-2.03-0.145-3.964-0.378-5.913-0.63
		c-1.727-0.224-3.56-0.26-5.578,0.277c-1.516,0.403-3.018,1.12-3.801,2.094c-0.412,0.513-0.603,1.061-0.575,1.546
		c0.033,0.585,0.5,0.931,0.853,1.388c-0.001,0.013-0.003,0.026-0.004,0.039c-5.142,3.692-9.22,8.521-12.005,14.181
		c-0.057-1.85-0.059-3.706,0.028-5.573c0.595-12.774,3.631-25.339,6.659-37.715c1.431-5.848,2.646-11.721,3.195-17.724
		c0.279-3.05,0.397-6.104,0.257-9.164c-0.012-0.261-0.037-0.506-0.057-0.735c0.002-0.304,0.021-0.604,0.034-0.905
		c0.112-0.342,0.419-0.516,1.186-0.413c0.885,0.118,1.922,0.458,2.766-0.01c-0.745,0.485-2.068-0.981-2.075-1.557
		c-0.002-0.216-0.123-2.708-0.257-2.708c-1.277,1.185-0.522,3.21-1.602,4.182c0.282-4.36,1.703-8.48,4.145-12.065
		c0.245,0.156,0.558,0.25,0.941,0.235c0.823-0.031,1.793-0.545,2.602-1.189c1.077-0.857,1.779-1.841,2.339-2.844
		c0.632-1.131,1.27-2.246,1.991-3.377c-1.297,0.341-2.554,0.607-3.824,0.864c-1.126,0.227-2.277,0.595-3.422,1.359
		c-0.86,0.574-1.646,1.341-1.927,2.115c-0.148,0.407-0.151,0.79-0.03,1.087c0.145,0.358,0.509,0.475,0.827,0.685
		c0.002,0.008,0.004,0.017,0.006,0.025c-2.198,3.08-3.652,6.559-4.306,10.255c-1.014-5.589-2.134-11.207-5.118-16.128
		c-0.508-0.838-1.292-1.986-1.617-3.132c1.432-0.938,3.645-0.781,4.5-2.68c-0.322,0.821-3.451,0.527-4.254,0.579
		c-1.182,0.079-1.143-2.114-2.23-2.035c-0.148,0.772-0.079,1.557,0.171,2.282c-3.526-4.434-8.18-8.271-13.516-10.217
		c9.443,4.698,15.807,13.747,18.598,23.706c-1.327-0.976-1.711-3.2-2.969-3.787c-0.103,0.282,0.113,2.516,0.178,2.486
		c-0.089-0.047-1.452,0.935-1.452,1.006c1.339,0.432,2.103-1.18,3.284-0.167c1.053,0.902,1.402,2.055,1.646,3.376
		c0.739,3.973,1.027,8.001,0.941,12.04c-0.165,7.432-1.682,14.746-3.565,21.914c-0.797-2.838-2.072-5.518-3.821-7.944
		c0.002-0.008,0.003-0.017,0.006-0.025c0.317-0.212,0.68-0.33,0.824-0.689c0.119-0.297,0.115-0.68-0.036-1.087
		c-0.285-0.773-1.074-1.536-1.937-2.106c-1.149-0.758-2.302-1.12-3.429-1.342c-1.271-0.251-2.529-0.511-3.828-0.846
		c0.726,1.128,1.369,2.24,2.007,3.368c0.565,1,1.271,1.981,2.353,2.833c0.812,0.64,1.785,1.149,2.608,1.177
		c0.383,0.013,0.696-0.082,0.94-0.24c1.815,2.637,3.066,5.572,3.726,8.679c-0.003,0.816-0.374,1.788-0.515,2.306
		c-0.576,2.102-1.137,4.208-1.674,6.32c-2.156,8.479-3.978,17.075-5.068,25.761c-2.656-5.369-6.592-9.946-10.956-14.067
		c-3.292-3.108-6.201-6.624-8.554-10.495c-2.335-3.842-3.874-7.936-5.305-12.175c-0.058-0.173-0.115-0.346-0.173-0.519
		c0.166-0.084,0.379-0.151,0.699-0.182c0.888-0.088,1.975,0.004,2.69-0.645c-0.614,0.643-2.238-0.48-2.377-1.039
		c-0.052-0.21-0.742-2.608-0.872-2.577c-0.82,1.221-0.095,2.691-0.341,3.84c-0.803-2.392-1.596-4.788-2.343-7.198
		c-0.584-1.881-1.321-3.847-1.561-5.812c0,0,1.597,15.095,3.609,20.071c3.156,7.805,7.466,14.598,12.693,20.862
		c-2.112-1.023-4.358-1.762-6.708-2.17c-0.004-0.008-0.009-0.014-0.013-0.022C75.821,90.015,75.999,89.676,75.85,89.319z"/>
</g>
</svg>
